<svg fill="none" height="684" viewBox="0 0 1194 684" width="1194" xmlns="http://www.w3.org/2000/svg" xmlns:xlink="http://www.w3.org/1999/xlink"><filter id="a" color-interpolation-filters="sRGB" filterUnits="userSpaceOnUse" height="431.132" width="1209.06" x="0" y="46"><feFlood flood-opacity="0" result="BackgroundImageFix"/><feColorMatrix in="SourceAlpha" type="matrix" values="0 0 0 0 0 0 0 0 0 0 0 0 0 0 0 0 0 0 127 0"/><feOffset dx="6"/><feGaussianBlur stdDeviation="3"/><feColorMatrix type="matrix" values="0 0 0 0 0 0 0 0 0 0 0 0 0 0 0 0 0 0 0.2 0"/><feBlend in2="BackgroundImageFix" mode="normal" result="effect1_dropShadow"/><feBlend in="SourceGraphic" in2="effect1_dropShadow" mode="normal" result="shape"/></filter><filter id="b" color-interpolation-filters="sRGB" filterUnits="userSpaceOnUse" height="303.286" width="937.85" x="538.523" y="251.504"><feFlood flood-opacity="0" result="BackgroundImageFix"/><feColorMatrix in="SourceAlpha" type="matrix" values="0 0 0 0 0 0 0 0 0 0 0 0 0 0 0 0 0 0 127 0"/><feOffset dx="9.65596" dy="-9.65596"/><feGaussianBlur stdDeviation="4.82798"/><feColorMatrix type="matrix" values="0 0 0 0 0 0 0 0 0 0 0 0 0 0 0 0 0 0 0.25 0"/><feBlend in2="BackgroundImageFix" mode="normal" result="effect1_dropShadow"/><feBlend in="SourceGraphic" in2="effect1_dropShadow" mode="normal" result="shape"/></filter><filter id="c" color-interpolation-filters="sRGB" filterUnits="userSpaceOnUse" height="16.828" width="1208" x="-6" y="264.322"><feFlood flood-opacity="0" result="BackgroundImageFix"/><feColorMatrix in="SourceAlpha" type="matrix" values="0 0 0 0 0 0 0 0 0 0 0 0 0 0 0 0 0 0 127 0"/><feOffset dy="4"/><feGaussianBlur stdDeviation="3"/><feColorMatrix type="matrix" values="0 0 0 0 0 0 0 0 0 0 0 0 0 0 0 0 0 0 0.2 0"/><feBlend in2="BackgroundImageFix" mode="normal" result="effect1_dropShadow"/><feBlend in="SourceGraphic" in2="effect1_dropShadow" mode="normal" result="shape"/></filter><mask id="d" height="213" maskUnits="userSpaceOnUse" width="1213" x="0" y="471"><path d="m0 471h1213v213h-1213z" fill="#89cdd3"/></mask><g filter="url(#a)"><path d="m783.684 102.664h103.632v368.468h-103.632z" fill="#e3e687"/><path d="m835.479 52 51.59 50.443h-103.179z" fill="#e3e687"/><path d="m795.355 107.025v337.619" stroke="#000" stroke-dasharray="6.18 6.18" stroke-width="3.18725"/><path d="m811.411 107.025v337.619" stroke="#000" stroke-dasharray="6.18 6.18" stroke-width="3.18725"/><path d="m827.458 107.025v337.619" stroke="#000" stroke-dasharray="6.18 6.18" stroke-width="3.18725"/><path d="m843.511 107.025v337.619" stroke="#000" stroke-dasharray="6.18 6.18" stroke-width="3.18725"/><path d="m859.561 107.025v337.619" stroke="#000" stroke-dasharray="6.18 6.18" stroke-width="3.18725"/><path d="m875.608 107.025v337.619" stroke="#000" stroke-dasharray="6.18 6.18" stroke-width="3.18725"/><path d="m681.21 155.629h102.48v315.501h-102.48z" fill="#f4e97d"/><path d="m732.309 106.328 51.59 50.443h-103.179z" fill="#f4e97d"/><path d="m692.184 158.834v285.808" stroke="#000" stroke-dasharray="6.18 6.18" stroke-width="3.18725"/><path d="m708.233 158.834v285.808" stroke="#000" stroke-dasharray="6.18 6.18" stroke-width="3.18725"/><path d="m724.279 158.834v285.808" stroke="#000" stroke-dasharray="6.18 6.18" stroke-width="3.18725"/><path d="m740.333 158.834v285.808" stroke="#000" stroke-dasharray="6.18 6.18" stroke-width="3.18725"/><path d="m756.383 158.834v285.808" stroke="#000" stroke-dasharray="6.18 6.18" stroke-width="3.18725"/><path d="m772.431 158.834v285.808" stroke="#000" stroke-dasharray="6.18 6.18" stroke-width="3.18725"/><path d="m989.801 184.416h103.632v286.714h-103.632z" fill="#a2daaf"/><path d="m1041.84 134.541 51.59 50.443h-103.176z" fill="#a2daaf"/><path d="m1001.72 188.125v256.524" stroke="#000" stroke-dasharray="6.18 6.18" stroke-width="3.18725"/><path d="m1017.77 188.125v256.524" stroke="#000" stroke-dasharray="6.18 6.18" stroke-width="3.18725"/><path d="m1033.82 188.125v256.524" stroke="#000" stroke-dasharray="6.18 6.18" stroke-width="3.18725"/><path d="m1049.87 188.125v256.524" stroke="#000" stroke-dasharray="6.18 6.18" stroke-width="3.18725"/><path d="m1065.92 188.125v256.524" stroke="#000" stroke-dasharray="6.18 6.18" stroke-width="3.18725"/><path d="m1081.97 188.125v256.524" stroke="#000" stroke-dasharray="6.18 6.18" stroke-width="3.18725"/><path d="m1093.43 273.078h103.632v198.052h-103.632z" fill="#91d7b9"/><path d="m1145.47 223.566 51.59 50.444h-103.18z" fill="#91d7b9"/><path d="m1105.35 277.143v170.954" stroke="#000" stroke-dasharray="6.18 6.18" stroke-width="3.18725"/><path d="m1121.4 277.143v170.954" stroke="#000" stroke-dasharray="6.18 6.18" stroke-width="3.18725"/><path d="m1137.45 277.143v170.954" stroke="#000" stroke-dasharray="6.18 6.18" stroke-width="3.18725"/><path d="m1153.5 277.143v170.954" stroke="#000" stroke-dasharray="6.18 6.18" stroke-width="3.18725"/><path d="m1169.55 277.143v170.954" stroke="#000" stroke-dasharray="6.18 6.18" stroke-width="3.18725"/><path d="m1185.6 277.143v170.954" stroke="#000" stroke-dasharray="6.18 6.18" stroke-width="3.18725"/><path d="m577.58 102.664h103.632v368.468h-103.632z" fill="#e3e687"/><path d="m629.128 52 51.589 50.443h-103.179z" fill="#e3e687"/><path d="m588.997 107.025v337.62" stroke="#000" stroke-dasharray="6.18 6.18" stroke-width="3.18725"/><path d="m605.047 107.025v337.62" stroke="#000" stroke-dasharray="6.18 6.18" stroke-width="3.18725"/><path d="m621.102 107.025v337.62" stroke="#000" stroke-dasharray="6.18 6.18" stroke-width="3.18725"/><path d="m637.152 107.025v337.62" stroke="#000" stroke-dasharray="6.18 6.18" stroke-width="3.18725"/><path d="m653.2 107.025v337.62" stroke="#000" stroke-dasharray="6.18 6.18" stroke-width="3.18725"/><path d="m669.249 107.025v337.62" stroke="#000" stroke-dasharray="6.18 6.18" stroke-width="3.18725"/><path d="m568.366 84.1035c3.822 4.2036 14.445 11.0058 26.368 4.5858v13.7567h-17.196c-3.057-1.528-9.172-7.3367-9.172-18.3425z" fill="#e3e687"/><path d="m591.297 61.1758c3.821 4.2036 14.445 11.0058 26.368 4.5857v13.7572h-17.197c-3.057-1.5285-9.171-7.3371-9.171-18.3429z" fill="#e3e687"/><path d="m688.745 84.1035c-3.821 4.2036-14.445 11.0058-26.368 4.5858v13.7567h17.197c3.057-1.528 9.171-7.3367 9.171-18.3425z" fill="#e3e687"/><path d="m665.815 61.1758c-3.821 4.2036-14.445 11.0058-26.368 4.5857v13.7572h17.197c3.057-1.5285 9.171-7.3371 9.171-18.3429z" fill="#e3e687"/><path d="m887.316 127.992h102.48v343.136h-102.48z" fill="#b2dda5"/><path d="m938.661 77.2188 51.589 50.4432h-103.179z" fill="#b2dda5"/><path d="m898.535 131.807v312.84" stroke="#000" stroke-dasharray="6.18 6.18" stroke-width="3.18725"/><path d="m914.585 131.807v312.84" stroke="#000" stroke-dasharray="6.18 6.18" stroke-width="3.18725"/><path d="m930.638 131.807v312.84" stroke="#000" stroke-dasharray="6.18 6.18" stroke-width="3.18725"/><path d="m946.684 131.807v312.84" stroke="#000" stroke-dasharray="6.18 6.18" stroke-width="3.18725"/><path d="m962.738 131.807v312.84" stroke="#000" stroke-dasharray="6.18 6.18" stroke-width="3.18725"/><path d="m978.787 131.807v312.84" stroke="#000" stroke-dasharray="6.18 6.18" stroke-width="3.18725"/><path d="m877.898 108.418c3.822 4.204 14.446 11.006 26.368 4.586v13.757h-17.196c-3.057-1.529-9.172-7.337-9.172-18.343z" fill="#b2dda5"/><path d="m900.829 85.4902c3.822 4.2036 14.445 11.0058 26.368 4.5858v13.757h-17.196c-3.058-1.528-9.172-7.337-9.172-18.3428z" fill="#b2dda5"/><path d="m998.277 108.418c-3.821 4.204-14.445 11.006-26.368 4.586v13.757h17.197c3.057-1.529 9.171-7.337 9.171-18.343z" fill="#b2dda5"/><path d="m975.348 85.4902c-3.822 4.2036-14.445 11.0058-26.368 4.5858v13.757h17.196c3.057-1.528 9.172-7.337 9.172-18.3428z" fill="#b2dda5"/><path d="m0 0h115.398v292.341h-115.398z" fill="#d3e391" transform="matrix(-1 0 0 1 578.835 178.656)"/><path d="m0 0h115.398v292.341h-115.398z" fill="#b2dda5" transform="matrix(-1 0 0 1 348.042 178.656)"/><path d="m0 0h115.398v264.133h-115.398z" fill="#a2daaf" transform="matrix(-1 0 0 1 232.641 206.861)"/><path d="m0 0h115.398v233.36h-115.398z" fill="#c3e09b" transform="matrix(-1 0 0 1 463.436 237.637)"/><path d="m0 0h117v200h-117z" fill="#91d7b9" transform="matrix(-1 0 0 1 117 271)"/><path d="m521.136 122.238-57.699 56.417h115.398z" fill="#d3e391"/><path d="m290.343 122.238-57.699 56.417h115.398z" fill="#b2dda5"/><path d="m174.756 150.805-58.168 58.964h116.335z" fill="#a2daaf"/><path d="m405.737 181.219-57.699 56.416h115.398z" fill="#c3e09b"/><path d="m57.6986 215-57.69886703 56.417h115.39726703z" fill="#91d7b9"/><g stroke="#000" stroke-width="3.18725"><path d="m566.017 183.779v265.415" stroke-dasharray="6.91 6.91"/><path d="m548.065 183.779v265.415" stroke-dasharray="6.91 6.91"/><path d="m530.113 183.779v265.415" stroke-dasharray="6.91 6.91"/><path d="m512.162 183.779v265.415" stroke-dasharray="6.91 6.91"/><path d="m494.212 183.779v265.415" stroke-dasharray="6.91 6.91"/><path d="m476.264 183.779v265.415" stroke-dasharray="6.91 6.91"/><path d="m335.218 183.779v265.415" stroke-dasharray="6.91 6.91"/><path d="m317.267 183.779v265.415" stroke-dasharray="6.91 6.91"/><path d="m299.316 183.779v265.415" stroke-dasharray="6.91 6.91"/><path d="m281.365 183.779v265.415" stroke-dasharray="6.91 6.91"/><path d="m263.415 183.779v265.415" stroke-dasharray="6.91 6.91"/><path d="m245.465 183.779v265.415" stroke-dasharray="6.91 6.91"/><path d="m219.823 211.498v239.805" stroke-dasharray="6.91 6.91"/><path d="m201.873 211.498v239.805" stroke-dasharray="6.91 6.91"/><path d="m183.92 211.498v239.805" stroke-dasharray="6.91 6.91"/><path d="m165.97 211.498v239.805" stroke-dasharray="6.91 6.91"/><path d="m148.021 211.498v239.805" stroke-dasharray="6.91 6.91"/><path d="m130.071 211.498v239.805" stroke-dasharray="6.91 6.91"/><path d="m450.616 241.73v211.867" stroke-dasharray="6.91 6.91"/><path d="m432.665 241.73v211.867" stroke-dasharray="6.91 6.91"/><path d="m414.712 241.73v211.867" stroke-dasharray="6.91 6.91"/><path d="m396.764 241.73v211.867" stroke-dasharray="6.91 6.91"/><path d="m378.813 241.73v211.867" stroke-dasharray="6.91 6.91"/><path d="m360.862 241.73v211.867" stroke-dasharray="6.91 6.91"/><path d="m104.218 274.482v181.6" stroke-dasharray="6.91 6.91"/><path d="m85.9795 274.482v181.6" stroke-dasharray="6.91 6.91"/><path d="m67.7412 274.482v181.6" stroke-dasharray="6.91 6.91"/><path d="m49.5029 274.482v181.6" stroke-dasharray="6.91 6.91"/><path d="m31.2646 274.482v181.6" stroke-dasharray="6.91 6.91"/><path d="m13.0264 274.482v181.6" stroke-dasharray="6.91 6.91"/></g><path d="m589.092 158.137c-4.274 4.701-16.156 12.309-29.491 5.129v15.386h19.233c3.419-1.71 10.258-8.206 10.258-20.515z" fill="#d3e391"/><path d="m563.445 132.49c-4.274 4.702-16.155 12.309-29.49 5.129v15.386h19.233c3.419-1.709 10.257-8.206 10.257-20.515z" fill="#d3e391"/><path d="m454.458 158.137c4.274 4.701 16.156 12.309 29.491 5.129v15.386h-19.233c-3.42-1.71-10.258-8.206-10.258-20.515z" fill="#d3e391"/><path d="m480.107 132.49c4.274 4.702 16.156 12.309 29.491 5.129v15.386h-19.233c-3.419-1.709-10.258-8.206-10.258-20.515z" fill="#d3e391"/><path d="m242.901 188.912c-4.274 4.701-16.155 12.309-29.49 5.129v15.386h19.233c3.419-1.709 10.257-8.206 10.257-20.515z" fill="#a2daaf"/><path d="m217.255 163.266c-4.274 4.701-16.156 12.309-29.491 5.128v15.387h19.233c3.419-1.71 10.258-8.206 10.258-20.515z" fill="#a2daaf"/><path d="m108.268 188.912c4.274 4.701 16.155 12.309 29.49 5.129v15.386h-19.233c-3.419-1.709-10.257-8.206-10.257-20.515z" fill="#a2daaf"/><path d="m133.917 163.266c4.274 4.701 16.156 12.309 29.491 5.128v15.387h-19.233c-3.42-1.71-10.258-8.206-10.258-20.515z" fill="#a2daaf"/></g><path d="m0 471h1213v213h-1213z" fill="#89cdd3"/><g mask="url(#d)"><path d="m71.5 563.5h-4v4.5z" fill="#acdeb6"/><path d="m87.5 575 2-3 1.5 3z" fill="#acdeb6"/><path d="m528.5 560.5h-4v4.5z" fill="#acdeb6"/><path d="m544.5 572 2-3 1.5 3z" fill="#acdeb6"/><path d="m293.336 579.367 3.998.113.127-4.498z" fill="#acdeb6"/><path d="m277.667 567.42-2.084 2.942-1.415-3.041z" fill="#acdeb6"/><path d="m750.336 576.367 3.998.113.127-4.498z" fill="#acdeb6"/><path d="m734.667 564.42-2.084 2.942-1.415-3.041z" fill="#acdeb6"/><path d="m1037.65 549.892-4-.117-.13 4.498z" fill="#acdeb6"/><path d="m1053.3 561.854 2.09-2.941 1.41 3.043z" fill="#acdeb6"/><path d="m49.0621 581.246 3.9984.113.1273-4.498z" fill="#acdeb6"/><path d="m33.3936 569.299-2.084 2.942-1.4146-3.041z" fill="#acdeb6"/><path d="m506.062 578.246 3.999.113.127-4.498z" fill="#acdeb6"/><path d="m490.394 566.299-2.084 2.942-1.415-3.041z" fill="#acdeb6"/><path d="m445.671 589.855 2.763 2.893 3.254-3.108z" fill="#acdeb6"/><path d="m442.938 570.342-3.551.625 1.133-3.156z" fill="#acdeb6"/><path d="m104.492 538.047 3.998.113.127-4.498z" fill="#acdeb6"/><path d="m88.8233 526.099-2.084 2.943-1.4146-3.042z" fill="#acdeb6"/><path d="m561.492 535.047 3.998.113.127-4.498z" fill="#acdeb6"/><path d="m545.823 523.099-2.084 2.943-1.414-3.042z" fill="#acdeb6"/><path d="m352.095 557.509 2.135 3.382 3.805-2.403z" fill="#acdeb6"/><path d="m353.275 537.84-3.604-.089 1.735-2.87z" fill="#acdeb6"/><path d="m809.095 554.509 2.135 3.382 3.805-2.403z" fill="#acdeb6"/><path d="m810.275 534.84-3.604-.089 1.735-2.87z" fill="#acdeb6"/><path d="m978.868 571.698-2.133-3.384-3.807 2.4z" fill="#acdeb6"/><path d="m977.67 591.366 3.605.092-1.739 2.869z" fill="#acdeb6"/><path d="m1147.86 539.384-2.13-3.384-3.81 2.399z" fill="#acdeb6"/><path d="m1146.66 559.052 3.61.092-1.74 2.869z" fill="#acdeb6"/><path d="m402.331 553.845-3.972-.474-.532 4.468z" fill="#acdeb6"/><path d="m416.857 567.158 2.341-2.742 1.134 3.157z" fill="#acdeb6"/><path d="m859.331 550.845-3.972-.474-.532 4.468z" fill="#acdeb6"/><path d="m873.857 564.158 2.341-2.742 1.134 3.157z" fill="#acdeb6"/><path d="m928.628 575.318 3.972.477.536-4.468z" fill="#acdeb6"/><path d="m914.114 561.991-2.343 2.74-1.132-3.157z" fill="#acdeb6"/><path d="m227.333 526.474-3.972-.474-.533 4.468z" fill="#acdeb6"/><path d="m241.859 539.787 2.341-2.742 1.134 3.157z" fill="#acdeb6"/><path d="m684.333 523.474-3.972-.474-.533 4.468z" fill="#acdeb6"/><path d="m698.859 536.787 2.341-2.742 1.134 3.157z" fill="#acdeb6"/><path d="m1103.6 602.843 3.97.477.54-4.468z" fill="#acdeb6"/><path d="m1089.09 589.517-2.35 2.739-1.13-3.157z" fill="#acdeb6"/><path d="m143.197 565.933-1.095-3.847-4.328 1.233z" fill="#acdeb6"/><path d="m136.52 584.471 3.433 1.102-2.475 2.264z" fill="#acdeb6"/><path d="m600.197 562.933-1.095-3.847-4.328 1.233z" fill="#acdeb6"/><path d="m593.52 581.471 3.433 1.102-2.475 2.264z" fill="#acdeb6"/><path d="m221.735 574.909.987 3.876 4.361-1.11z" fill="#acdeb6"/><path d="m228.934 556.567-3.4-1.199 2.537-2.193z" fill="#acdeb6"/><path d="m678.736 571.909.987 3.876 4.361-1.11z" fill="#acdeb6"/><path d="m685.935 553.567-3.4-1.199 2.537-2.193z" fill="#acdeb6"/><path d="m1109.24 554.416-.98-3.877-4.36 1.106z" fill="#acdeb6"/><path d="m1102.03 572.752 3.4 1.201-2.54 2.192z" fill="#acdeb6"/><path d="m186.808 593.733.987 3.876 4.361-1.109z" fill="#acdeb6"/><path d="m194.007 575.391-3.4-1.198 2.537-2.194z" fill="#acdeb6"/><path d="m643.808 590.733.987 3.876 4.361-1.109z" fill="#acdeb6"/><path d="m651.007 572.391-3.4-1.198 2.537-2.194z" fill="#acdeb6"/><path d="m171.808 556.733.987 3.876 4.361-1.109z" fill="#acdeb6"/><path d="m179.007 538.391-3.4-1.198 2.537-2.194z" fill="#acdeb6"/><path d="m628.808 553.733.987 3.876 4.361-1.109z" fill="#acdeb6"/><path d="m636.007 535.391-3.4-1.198 2.537-2.194z" fill="#acdeb6"/><path d="m40 555.5v-4l3.5 1.5z" fill="#acdeb6"/><path d="m497 552.5v-4l3.5 1.5z" fill="#acdeb6"/><path d="m324.596 588.256-.113 3.998-3.456-1.598z" fill="#acdeb6"/><path d="m781.596 585.256-.113 3.998-3.456-1.598z" fill="#acdeb6"/><path d="m1006.39 540.977.12-3.998 3.45 1.601z" fill="#acdeb6"/><path d="m80.323 590.134-.113 3.999-3.4562-1.599z" fill="#acdeb6"/><path d="m537.323 587.134-.113 3.999-3.456-1.599z" fill="#acdeb6"/><path d="m15.6121 537.099-.1131 3.999-3.4562-1.599z" fill="#acdeb6"/><path d="m472.612 534.099-.113 3.999-3.456-1.599z" fill="#acdeb6"/><path d="m362.149 588.415-3.382 2.136-.601-3.76z" fill="#acdeb6"/><path d="m819.149 585.415-3.382 2.136-.601-3.76z" fill="#acdeb6"/><path d="m968.842 540.783 3.384-2.133.597 3.761z" fill="#acdeb6"/><path d="m957 559.133 3.384-2.133.597 3.761z" fill="#acdeb6"/><path d="m274.251 548.96-3.382 2.136-.6-3.761z" fill="#acdeb6"/><path d="m731.251 545.96-3.382 2.136-.6-3.761z" fill="#acdeb6"/><path d="m1056.7 580.318 3.39-2.132.6 3.76z" fill="#acdeb6"/><path d="m372 542.169.474-3.972 3.297 1.904z" fill="#acdeb6"/><path d="m829 539.169.474-3.972 3.297 1.904z" fill="#acdeb6"/><path d="m958.949 587.021-.477 3.971-3.296-1.907z" fill="#acdeb6"/><path d="m855.952 602.417-.477 3.972-3.296-1.907z" fill="#acdeb6"/><path d="m1121.95 568.825-.48 3.972-3.29-1.907z" fill="#acdeb6"/><path d="m1161.95 582.417-.48 3.972-3.29-1.907z" fill="#acdeb6"/><path d="m142.262 533.447 3.847-1.095-.484 3.777z" fill="#acdeb6"/><path d="m599.262 530.447 3.847-1.095-.484 3.777z" fill="#acdeb6"/><path d="m221.751 607.408-3.876.987.591-3.762z" fill="#acdeb6"/><path d="m678.751 604.408-3.876.987.591-3.762z" fill="#acdeb6"/><path d="m1109.26 521.915 3.87-.983-.59 3.761z" fill="#acdeb6"/><path d="m116.74 604.392-3.877.987.591-3.762z" fill="#acdeb6"/><path d="m573.74 601.392-3.877.987.591-3.762z" fill="#acdeb6"/><path d="m46.5 534-5 4 5 3z" fill="#acdeb6"/><path d="m503.5 531-5 4 5 3z" fill="#acdeb6"/><path d="m317.491 609.562 5.111-3.857-4.913-3.14z" fill="#acdeb6"/><path d="m774.491 606.562 5.111-3.857-4.913-3.14z" fill="#acdeb6"/><path d="m1013.52 519.677-5.12 3.853 4.91 3.144z" fill="#acdeb6"/><path d="m266 607.997 5.111-3.857-4.913-3.14z" fill="#acdeb6"/><path d="m723 604.997 5.111-3.857-4.913-3.14z" fill="#acdeb6"/><path d="m1065.01 521.286-5.12 3.853 4.91 3.144z" fill="#acdeb6"/><path d="m298 534.997 5.111-3.857-4.913-3.14z" fill="#acdeb6"/><path d="m755 531.997 5.111-3.857-4.913-3.14z" fill="#acdeb6"/><path d="m1032.94 594.259-5.11 3.853 4.91 3.144z" fill="#acdeb6"/><path d="m73.2178 611.441 5.1111-3.857-4.9132-3.141z" fill="#acdeb6"/><path d="m530.218 608.441 5.111-3.857-4.913-3.141z" fill="#acdeb6"/><path d="m340.5 594.397 6.052 2.092-.133-5.829z" fill="#acdeb6"/><path d="m797.5 591.397 6.052 2.092-.133-5.829z" fill="#acdeb6"/><path d="m990.495 534.82-6.05-2.097.128 5.829z" fill="#acdeb6"/><path d="m894.588 599.23-6.05-2.097.128 5.829z" fill="#acdeb6"/><path d="m893.588 528.529-6.05-2.097.128 5.829z" fill="#acdeb6"/><path d="m296 596.737 6.052 2.092-.133-5.829z" fill="#acdeb6"/><path d="m753 593.737 6.052 2.092-.133-5.829z" fill="#acdeb6"/><path d="m1035 532.521-6.05-2.097.13 5.829z" fill="#acdeb6"/><path d="m938.091 526.23-6.05-2.097.128 5.829z" fill="#acdeb6"/><path d="m280 527.737 6.052 2.092-.133-5.829z" fill="#acdeb6"/><path d="m737 524.737 6.052 2.092-.133-5.829z" fill="#acdeb6"/><path d="m1050.94 601.535-6.05-2.098.12 5.83z" fill="#acdeb6"/><path d="m381.001 521.592-5.439 3.38 4.61 3.571z" fill="#acdeb6"/><path d="m838.001 518.592-5.439 3.38 4.61 3.571z" fill="#acdeb6"/><path d="m949.93 607.589 5.442-3.375-4.607-3.575z" fill="#acdeb6"/><path d="m1112.93 589.394 5.44-3.375-4.6-3.575z" fill="#acdeb6"/><path d="m164.721 533.809-5.216-3.713-1.516 5.63z" fill="#acdeb6"/><path d="m621.721 530.809-5.216-3.713-1.516 5.63z" fill="#acdeb6"/><path d="m199.312 606.412 5.109 3.859 1.675-5.585z" fill="#acdeb6"/><path d="m656.312 603.412 5.109 3.859 1.675-5.585z" fill="#acdeb6"/><path d="m1131.69 522.931-5.1-3.864-1.68 5.584z" fill="#acdeb6"/><path d="m1177.01 603.847-5.1-3.864-1.68 5.584z" fill="#acdeb6"/><path d="m1178.01 529.847-5.1-3.864-1.68 5.584z" fill="#acdeb6"/><g fill="#e7e88c"><path d="m84.5 543-3 1.5 3 4z"/><path d="m66 584.5-2.5 3 2.5 2z"/><path d="m116 544.5-4.5 4 3.5 3.5z"/><path d="m100.5 562-2-2.5-1 4z"/><path d="m541.5 540-3 1.5 3 4z"/><path d="m523 581.5-2.5 3 2.5 2z"/><path d="m573 541.5-4.5 4 3.5 3.5z"/><path d="m557.5 559-2-2.5-1 4z"/><path d="m279.761 599.492 3.042-1.414-2.886-4.083z"/><path d="m299.427 558.532 2.584-2.928-2.443-2.07z"/><path d="m248.316 597.102 4.612-3.871-3.4-3.597z"/><path d="m264.305 580.048 1.928 2.555 1.113-3.97z"/><path d="m736.76 596.492 3.042-1.414-2.886-4.083z"/><path d="m756.426 555.532 2.584-2.928-2.443-2.07z"/><path d="m705.315 594.102 4.612-3.871-3.4-3.597z"/><path d="m721.304 577.048 1.928 2.555 1.113-3.97z"/><path d="m1051.24 529.78-3.04 1.412 2.88 4.086z"/><path d="m1031.54 570.723-2.59 2.926 2.44 2.072z"/><path d="m1082.68 532.198-4.61 3.867 3.39 3.601z"/><path d="m1066.68 549.239-1.93-2.558-1.11 3.97z"/><path d="m35.4879 601.371 3.0412-1.414-2.8857-4.084z"/><path d="m55.1536 560.411 2.5838-2.928-2.4424-2.07z"/><path d="m4.04288 598.981 4.61127-3.871-3.39966-3.597z"/><path d="m20.0314 581.927 1.9285 2.555 1.1127-3.97z"/><path d="m492.487 598.371 3.041-1.414-2.886-4.084z"/><path d="m512.153 557.411 2.583-2.928-2.442-2.07z"/><path d="m461.042 595.981 4.611-3.871-3.399-3.597z"/><path d="m477.03 578.927 1.929 2.555 1.113-3.97z"/><path d="m438.487 606.371 3.041-1.414-2.886-4.084z"/><path d="m458.153 565.411 2.583-2.928-2.442-2.07z"/><path d="m407.042 603.981 4.611-3.871-3.399-3.597z"/><path d="m423.03 586.927 1.929 2.555 1.113-3.97z"/><path d="m327.819 557.463 2.87 1.736 1.781-4.673z"/><path d="m372.786 550.946 3.872.512.356-3.182z"/><path d="m312.268 530.028 5.785 1.669 1.091-4.828z"/><path d="m335.341 533.79-1.046 3.025 3.916-1.29z"/><path d="m784.819 554.463 2.87 1.736 1.781-4.673z"/><path d="m829.786 547.946 3.872.512.356-3.182z"/><path d="m769.268 527.028 5.785 1.669 1.091-4.828z"/><path d="m792.341 530.79-1.046 3.025 3.916-1.29z"/><path d="m1003.14 571.766-2.87-1.738-1.78 4.67z"/><path d="m958.171 578.243-3.871-.516-.359 3.182z"/><path d="m1018.67 599.214-5.78-1.674-1.1 4.827z"/><path d="m995.601 595.432 1.048-3.025-3.917 1.287z"/><path d="m1157.99 560.649-2.4 2.347 4.09 2.889z"/><path d="m1153.09 605.821-1.46 3.622 2.99 1.138z"/><path d="m1188.44 552.428-3.06 5.186 4.4 2.26z"/><path d="m1179.04 573.835-2.67-1.767.28 4.114z"/><path d="m326.819 606.463 2.87 1.736 1.781-4.673z"/><path d="m371.786 599.946 3.872.512.356-3.182z"/><path d="m311.268 579.028 5.785 1.669 1.091-4.828z"/><path d="m334.341 582.79-1.046 3.025 3.916-1.29z"/><path d="m783.819 603.463 2.87 1.736 1.781-4.673z"/><path d="m828.786 596.946 3.872.512.356-3.182z"/><path d="m768.268 576.028 5.785 1.669 1.091-4.828z"/><path d="m791.341 579.79-1.046 3.025 3.916-1.29z"/><path d="m1004.19 522.766-2.87-1.738-1.786 4.67z"/><path d="m959.215 529.243-3.871-.516-.359 3.182z"/><path d="m1019.71 550.214-5.78-1.674-1.09 4.827z"/><path d="m996.645 546.432 1.048-3.025-3.917 1.287z"/><path d="m249.819 553.463 2.87 1.736 1.781-4.673z"/><path d="m294.786 546.946 3.872.512.356-3.182z"/><path d="m234.268 526.028 5.785 1.669 1.091-4.828z"/><path d="m257.341 529.79-1.046 3.025 3.916-1.29z"/><path d="m706.819 550.463 2.87 1.736 1.781-4.673z"/><path d="m751.786 543.946 3.872.512.356-3.182z"/><path d="m691.268 523.028 5.785 1.669 1.091-4.828z"/><path d="m714.341 526.79-1.046 3.025 3.916-1.29z"/><path d="m1081.14 575.836-2.87-1.738-1.78 4.671z"/><path d="m1036.17 582.313-3.87-.516-.36 3.182z"/><path d="m1096.67 603.285-5.79-1.674-1.09 4.827z"/><path d="m1073.6 599.503 1.05-3.025-3.92 1.287z"/><path d="m108.819 610.463 2.87 1.736 1.781-4.673z"/><path d="m153.786 603.946 3.872.512.356-3.182z"/><path d="m93.2683 583.028 5.7848 1.669 1.0909-4.828z"/><path d="m116.341 586.79-1.046 3.025 3.916-1.29z"/><path d="m565.819 607.463 2.87 1.736 1.781-4.673z"/><path d="m610.786 600.946 3.872.512.356-3.182z"/><path d="m550.268 580.028 5.785 1.669 1.091-4.828z"/><path d="m573.341 583.79-1.046 3.025 3.916-1.29z"/><path d="m16.8193 552.463 2.8702 1.736 1.7802-4.673z"/><path d="m61.7863 545.946 3.8715.512.3561-3.182z"/><path d="m1.26827 525.028 5.78484 1.669 1.09049-4.828z"/><path d="m24.341 528.79-1.0459 3.025 3.916-1.29z"/><path d="m473.819 549.463 2.87 1.736 1.781-4.673z"/><path d="m518.786 542.946 3.872.512.356-3.182z"/><path d="m458.268 522.028 5.785 1.669 1.091-4.828z"/><path d="m481.341 525.79-1.046 3.025 3.916-1.29z"/><path d="m417.668 535.028-3.157 1.134 2.505 4.327z"/><path d="m394.384 574.045-2.838 2.683 2.246 2.282z"/><path d="m448.768 540.247-4.942 3.439 3.061 3.89z"/><path d="m431.305 555.789-1.69-2.72-1.466 3.854z"/><path d="m874.668 532.028-3.157 1.134 2.505 4.327z"/><path d="m851.384 571.045-2.838 2.683 2.246 2.282z"/><path d="m905.768 537.247-4.942 3.439 3.061 3.89z"/><path d="m888.305 552.789-1.69-2.72-1.466 3.854z"/><path d="m913.275 594.122 3.157-1.132-2.501-4.329z"/><path d="m936.594 555.125 2.84-2.68-2.244-2.284z"/><path d="m882.179 588.875 4.945-3.435-3.058-3.893z"/><path d="m899.656 573.349 1.687 2.72 1.47-3.852z"/><path d="m1156.01 519.064-3.35.058.98 4.903z"/><path d="m1121.41 548.515-3.55 1.627 1.39 2.883z"/><path d="m1183.78 534.012-5.79 1.666 1.65 4.668z"/><path d="m1162.25 543.109-.73-3.119-2.63 3.177z"/><path d="m166.474 572.82-2.265-2.474-3.025 3.98z"/><path d="m121.494 566.395-3.57-1.583-1.239 2.952z"/><path d="m173.659 603.526-5.079-3.232-2.408 4.325z"/><path d="m152.583 593.412 1.857-2.608-4.121.134z"/><path d="m623.474 569.82-2.265-2.474-3.025 3.98z"/><path d="m578.494 563.395-3.57-1.583-1.239 2.952z"/><path d="m630.659 600.526-5.079-3.232-2.408 4.325z"/><path d="m609.583 590.412 1.857-2.608-4.121.134z"/><path d="m198.663 567.367 2.193 2.538 3.137-3.894z"/><path d="m243.444 575.062 3.523 1.683 1.322-2.917z"/><path d="m192.348 536.47 4.987 3.375 2.528-4.255z"/><path d="m213.13 547.176-1.929 2.555 4.123-.018z"/><path d="m655.663 564.367 2.193 2.538 3.137-3.894z"/><path d="m700.444 572.062 3.523 1.683 1.322-2.917z"/><path d="m649.348 533.47 4.987 3.375 2.528-4.255z"/><path d="m670.13 544.176-1.929 2.555 4.123-.018z"/><path d="m1132.31 561.975-2.19-2.539-3.14 3.891z"/><path d="m1087.53 554.241-3.52-1.686-1.32 2.915z"/><path d="m1138.6 592.878-4.99-3.379-2.53 4.253z"/><path d="m1117.82 582.154 1.93-2.553-4.12.013z"/><path d="m181.207 527.784-2.715-1.969-2.164 4.507z"/><path d="m135.853 530.527-3.815-.834-.62 3.141z"/><path d="m194.415 556.42-5.625-2.146-1.489 4.721z"/><path d="m171.737 550.747 1.295-2.928-4.01.959z"/><path d="m638.207 524.784-2.715-1.969-2.164 4.507z"/><path d="m592.853 527.527-3.815-.834-.62 3.141z"/><path d="m651.415 553.42-5.625-2.146-1.489 4.721z"/><path d="m628.737 547.747 1.295-2.928-4.01.959z"/></g><path d="m62.5 471.5h-4v4.5z" fill="#acdeb6"/><path d="m78.5 483 2-3 1.5 3z" fill="#acdeb6"/><path d="m519.5 468.5h-4v4.5z" fill="#acdeb6"/><path d="m535.5 480 2-3 1.5 3z" fill="#acdeb6"/><path d="m284.336 487.367 3.998.113.127-4.498z" fill="#acdeb6"/><path d="m268.667 475.42-2.084 2.942-1.415-3.041z" fill="#acdeb6"/><path d="m741.336 484.367 3.998.113.127-4.498z" fill="#acdeb6"/><path d="m725.667 472.42-2.084 2.942-1.415-3.041z" fill="#acdeb6"/><path d="m40.0621 489.246 3.9984.113.1273-4.498z" fill="#acdeb6"/><path d="m24.3936 477.299-2.084 2.942-1.4146-3.041z" fill="#acdeb6"/><path d="m497.062 486.246 3.999.113.127-4.498z" fill="#acdeb6"/><path d="m481.394 474.299-2.084 2.942-1.415-3.041z" fill="#acdeb6"/><path d="m436.671 497.855 2.763 2.893 3.254-3.108z" fill="#acdeb6"/><path d="m433.938 478.342-3.551.625 1.133-3.156z" fill="#acdeb6"/><path d="m969.868 479.698-2.133-3.384-3.807 2.4z" fill="#acdeb6"/><path d="m968.67 499.366 3.605.092-1.739 2.869z" fill="#acdeb6"/><path d="m393.331 461.845-3.972-.474-.532 4.468z" fill="#acdeb6"/><path d="m407.857 475.158 2.341-2.742 1.134 3.157z" fill="#acdeb6"/><path d="m850.331 458.845-3.972-.474-.532 4.468z" fill="#acdeb6"/><path d="m864.857 472.158 2.341-2.742 1.134 3.157z" fill="#acdeb6"/><path d="m919.628 483.318 3.972.477.536-4.468z" fill="#acdeb6"/><path d="m905.114 469.991-2.343 2.74-1.132-3.157z" fill="#acdeb6"/><path d="m1094.6 510.843 3.97.477.54-4.468z" fill="#acdeb6"/><path d="m1080.09 497.517-2.35 2.739-1.13-3.157z" fill="#acdeb6"/><path d="m134.197 473.933-1.095-3.847-4.328 1.233z" fill="#acdeb6"/><path d="m127.52 492.471 3.433 1.102-2.475 2.264z" fill="#acdeb6"/><path d="m591.197 470.933-1.095-3.847-4.328 1.233z" fill="#acdeb6"/><path d="m584.52 489.471 3.433 1.102-2.475 2.264z" fill="#acdeb6"/><path d="m212.735 482.909.987 3.876 4.361-1.11z" fill="#acdeb6"/><path d="m219.934 464.567-3.4-1.199 2.537-2.193z" fill="#acdeb6"/><path d="m669.736 479.909.987 3.876 4.361-1.11z" fill="#acdeb6"/><path d="m676.935 461.567-3.4-1.199 2.537-2.193z" fill="#acdeb6"/><path d="m1100.24 462.416-.98-3.877-4.36 1.106z" fill="#acdeb6"/><path d="m1093.03 480.752 3.4 1.201-2.54 2.192z" fill="#acdeb6"/><path d="m177.808 501.733.987 3.876 4.361-1.109z" fill="#acdeb6"/><path d="m185.007 483.391-3.4-1.198 2.537-2.194z" fill="#acdeb6"/><path d="m634.808 498.733.987 3.876 4.361-1.109z" fill="#acdeb6"/><path d="m642.007 480.391-3.4-1.198 2.537-2.194z" fill="#acdeb6"/><path d="m315.596 496.256-.113 3.998-3.456-1.598z" fill="#acdeb6"/><path d="m772.596 493.256-.113 3.998-3.456-1.598z" fill="#acdeb6"/><path d="m71.323 498.134-.113 3.999-3.4562-1.599z" fill="#acdeb6"/><path d="m528.323 495.134-.113 3.999-3.456-1.599z" fill="#acdeb6"/><path d="m353.149 496.415-3.382 2.136-.601-3.76z" fill="#acdeb6"/><path d="m810.149 493.415-3.382 2.136-.601-3.76z" fill="#acdeb6"/><path d="m1047.7 488.318 3.39-2.132.6 3.76z" fill="#acdeb6"/><path d="m949.949 495.021-.477 3.971-3.296-1.907z" fill="#acdeb6"/><path d="m846.952 510.417-.477 3.972-3.296-1.907z" fill="#acdeb6"/><path d="m1112.95 476.825-.48 3.972-3.29-1.907z" fill="#acdeb6"/><path d="m1152.95 490.417-.48 3.972-3.29-1.907z" fill="#acdeb6"/><path d="m212.751 515.408-3.876.987.591-3.762z" fill="#acdeb6"/><path d="m669.751 512.408-3.876.987.591-3.762z" fill="#acdeb6"/><path d="m107.74 512.392-3.877.987.591-3.762z" fill="#acdeb6"/><path d="m564.74 509.392-3.877.987.591-3.762z" fill="#acdeb6"/><path d="m308.491 517.562 5.111-3.857-4.913-3.14z" fill="#acdeb6"/><path d="m765.491 514.562 5.111-3.857-4.913-3.14z" fill="#acdeb6"/><path d="m257 515.997 5.111-3.857-4.913-3.14z" fill="#acdeb6"/><path d="m714 512.997 5.111-3.857-4.913-3.14z" fill="#acdeb6"/><path d="m1023.94 502.259-5.11 3.853 4.91 3.144z" fill="#acdeb6"/><path d="m64.2178 519.441 5.1111-3.857-4.9132-3.141z" fill="#acdeb6"/><path d="m521.218 516.441 5.111-3.857-4.913-3.141z" fill="#acdeb6"/><path d="m331.5 502.397 6.052 2.092-.133-5.829z" fill="#acdeb6"/><path d="m788.5 499.397 6.052 2.092-.133-5.829z" fill="#acdeb6"/><path d="m885.588 507.23-6.05-2.097.128 5.829z" fill="#acdeb6"/><path d="m287 504.737 6.052 2.092-.133-5.829z" fill="#acdeb6"/><path d="m744 501.737 6.052 2.092-.133-5.829z" fill="#acdeb6"/><path d="m1041.94 509.535-6.05-2.098.12 5.83z" fill="#acdeb6"/><path d="m940.93 515.589 5.442-3.375-4.607-3.575z" fill="#acdeb6"/><path d="m1103.93 497.394 5.44-3.375-4.6-3.575z" fill="#acdeb6"/><path d="m190.312 514.412 5.109 3.859 1.675-5.585z" fill="#acdeb6"/><path d="m647.312 511.412 5.109 3.859 1.675-5.585z" fill="#acdeb6"/><path d="m1168.01 511.847-5.1-3.864-1.68 5.584z" fill="#acdeb6"/><path d="m75.5 451-3 1.5 3 4z" fill="#e7e88c"/><path d="m57 492.5-2.5 3 2.5 2z" fill="#e7e88c"/><path d="m107 452.5-4.5 4 3.5 3.5z" fill="#e7e88c"/><path d="m91.5 470-2-2.5-1 4z" fill="#e7e88c"/><path d="m532.5 448-3 1.5 3 4z" fill="#e7e88c"/><path d="m514 489.5-2.5 3 2.5 2z" fill="#e7e88c"/><path d="m564 449.5-4.5 4 3.5 3.5z" fill="#e7e88c"/><path d="m548.5 467-2-2.5-1 4z" fill="#e7e88c"/><path d="m270.761 507.492 3.042-1.414-2.886-4.083z" fill="#e7e88c"/><path d="m290.427 466.532 2.584-2.928-2.443-2.07z" fill="#e7e88c"/><path d="m239.316 505.102 4.612-3.871-3.4-3.597z" fill="#e7e88c"/><path d="m255.305 488.048 1.928 2.555 1.113-3.97z" fill="#e7e88c"/><path d="m727.76 504.492 3.042-1.414-2.886-4.083z" fill="#e7e88c"/><path d="m747.426 463.532 2.584-2.928-2.443-2.07z" fill="#e7e88c"/><path d="m696.315 502.102 4.612-3.871-3.4-3.597z" fill="#e7e88c"/><path d="m712.304 485.048 1.928 2.555 1.113-3.97z" fill="#e7e88c"/><path d="m1042.24 437.78-3.04 1.412 2.88 4.086z" fill="#e7e88c"/><path d="m1022.54 478.723-2.59 2.926 2.44 2.072z" fill="#e7e88c"/><path d="m1073.68 440.198-4.61 3.867 3.39 3.601z" fill="#e7e88c"/><path d="m1057.68 457.239-1.93-2.558-1.11 3.97z" fill="#e7e88c"/><path d="m26.4879 509.371 3.0412-1.414-2.8857-4.084z" fill="#e7e88c"/><path d="m46.1536 468.411 2.5838-2.928-2.4424-2.07z" fill="#e7e88c"/><path d="m-4.95712 506.981 4.611269-3.871-3.399659-3.597z" fill="#e7e88c"/><path d="m11.0314 489.927 1.9285 2.555 1.1127-3.97z" fill="#e7e88c"/><path d="m483.487 506.371 3.041-1.414-2.886-4.084z" fill="#e7e88c"/><path d="m503.153 465.411 2.583-2.928-2.442-2.07z" fill="#e7e88c"/><path d="m452.042 503.981 4.611-3.871-3.399-3.597z" fill="#e7e88c"/><path d="m468.03 486.927 1.929 2.555 1.113-3.97z" fill="#e7e88c"/><path d="m429.487 514.371 3.041-1.414-2.886-4.084z" fill="#e7e88c"/><path d="m449.153 473.411 2.583-2.928-2.442-2.07z" fill="#e7e88c"/><path d="m398.042 511.981 4.611-3.871-3.399-3.597z" fill="#e7e88c"/><path d="m414.03 494.927 1.929 2.555 1.113-3.97z" fill="#e7e88c"/><path d="m994.143 479.766-2.868-1.738-1.785 4.67z" fill="#e7e88c"/><path d="m949.171 486.243-3.871-.516-.359 3.182z" fill="#e7e88c"/><path d="m1009.67 507.214-5.78-1.674-1.1 4.827z" fill="#e7e88c"/><path d="m986.601 503.432 1.048-3.025-3.917 1.287z" fill="#e7e88c"/><path d="m1148.99 468.649-2.4 2.347 4.09 2.889z" fill="#e7e88c"/><path d="m1144.09 513.821-1.46 3.622 2.99 1.138z" fill="#e7e88c"/><path d="m1179.44 460.428-3.06 5.186 4.4 2.26z" fill="#e7e88c"/><path d="m1170.04 481.835-2.67-1.767.28 4.114z" fill="#e7e88c"/><path d="m317.819 514.463 2.87 1.736 1.781-4.673z" fill="#e7e88c"/><path d="m362.786 507.946 3.872.512.356-3.182z" fill="#e7e88c"/><path d="m302.268 487.028 5.785 1.669 1.091-4.828z" fill="#e7e88c"/><path d="m325.341 490.79-1.046 3.025 3.916-1.29z" fill="#e7e88c"/><path d="m774.819 511.463 2.87 1.736 1.781-4.673z" fill="#e7e88c"/><path d="m819.786 504.946 3.872.512.356-3.182z" fill="#e7e88c"/><path d="m759.268 484.028 5.785 1.669 1.091-4.828z" fill="#e7e88c"/><path d="m782.341 487.79-1.046 3.025 3.916-1.29z" fill="#e7e88c"/><path d="m1072.14 483.836-2.87-1.738-1.78 4.671z" fill="#e7e88c"/><path d="m1027.17 490.313-3.87-.516-.36 3.182z" fill="#e7e88c"/><path d="m1087.67 511.285-5.79-1.674-1.09 4.827z" fill="#e7e88c"/><path d="m1064.6 507.503 1.05-3.025-3.92 1.287z" fill="#e7e88c"/><path d="m99.8193 518.463 2.8697 1.736 1.781-4.673z" fill="#e7e88c"/><path d="m144.786 511.946 3.872.512.356-3.182z" fill="#e7e88c"/><path d="m84.2683 491.028 5.7848 1.669 1.0905-4.828z" fill="#e7e88c"/><path d="m107.341 494.79-1.046 3.025 3.916-1.29z" fill="#e7e88c"/><path d="m556.819 515.463 2.87 1.736 1.781-4.673z" fill="#e7e88c"/><path d="m601.786 508.946 3.872.512.356-3.182z" fill="#e7e88c"/><path d="m541.268 488.028 5.785 1.669 1.091-4.828z" fill="#e7e88c"/><path d="m564.341 491.79-1.046 3.025 3.916-1.29z" fill="#e7e88c"/><path d="m408.668 443.028-3.157 1.134 2.505 4.327z" fill="#e7e88c"/><path d="m385.384 482.045-2.838 2.683 2.246 2.282z" fill="#e7e88c"/><path d="m439.768 448.247-4.942 3.439 3.061 3.89z" fill="#e7e88c"/><path d="m422.305 463.789-1.69-2.72-1.466 3.854z" fill="#e7e88c"/><path d="m865.668 440.028-3.157 1.134 2.505 4.327z" fill="#e7e88c"/><path d="m842.384 479.045-2.838 2.683 2.246 2.282z" fill="#e7e88c"/><path d="m896.768 445.247-4.942 3.439 3.061 3.89z" fill="#e7e88c"/><path d="m879.305 460.789-1.69-2.72-1.466 3.854z" fill="#e7e88c"/><path d="m904.275 502.122 3.157-1.132-2.501-4.329z" fill="#e7e88c"/><path d="m927.594 463.125 2.84-2.68-2.244-2.284z" fill="#e7e88c"/><path d="m873.179 496.875 4.945-3.435-3.058-3.893z" fill="#e7e88c"/><path d="m890.656 481.349 1.687 2.72 1.47-3.852z" fill="#e7e88c"/><path d="m157.474 480.82-2.265-2.474-3.025 3.98z" fill="#e7e88c"/><path d="m112.494 474.395-3.57-1.583-1.239 2.952z" fill="#e7e88c"/><path d="m164.659 511.526-5.079-3.232-2.408 4.325z" fill="#e7e88c"/><path d="m143.583 501.412 1.857-2.608-4.121.134z" fill="#e7e88c"/><path d="m614.474 477.82-2.265-2.474-3.025 3.98z" fill="#e7e88c"/><path d="m569.494 471.395-3.57-1.583-1.239 2.952z" fill="#e7e88c"/><path d="m621.659 508.526-5.079-3.232-2.408 4.325z" fill="#e7e88c"/><path d="m600.583 498.412 1.857-2.608-4.121.134z" fill="#e7e88c"/><path d="m189.663 475.367 2.193 2.538 3.137-3.894z" fill="#e7e88c"/><path d="m234.444 483.062 3.523 1.683 1.322-2.917z" fill="#e7e88c"/><path d="m183.348 444.47 4.987 3.375 2.528-4.255z" fill="#e7e88c"/><path d="m204.13 455.176-1.929 2.555 4.123-.018z" fill="#e7e88c"/><path d="m646.663 472.367 2.193 2.538 3.137-3.894z" fill="#e7e88c"/><path d="m691.444 480.062 3.523 1.683 1.322-2.917z" fill="#e7e88c"/><path d="m640.348 441.47 4.987 3.375 2.528-4.255z" fill="#e7e88c"/><path d="m661.13 452.176-1.929 2.555 4.123-.018z" fill="#e7e88c"/><path d="m1123.31 469.975-2.19-2.539-3.14 3.891z" fill="#e7e88c"/><path d="m1078.53 462.241-3.52-1.686-1.32 2.915z" fill="#e7e88c"/><path d="m1129.6 500.878-4.99-3.379-2.53 4.253z" fill="#e7e88c"/><path d="m1108.82 490.154 1.93-2.553-4.12.013z" fill="#e7e88c"/><path d="m1130.72 658.5h4v4.5z" fill="#acdeb6"/><path d="m1114.72 670-2-3-1.5 3z" fill="#acdeb6"/><path d="m673.719 655.5h4v4.5z" fill="#acdeb6"/><path d="m657.719 667-2-3-1.5 3z" fill="#acdeb6"/><path d="m908.883 674.367-3.998.113-.127-4.498z" fill="#acdeb6"/><path d="m924.552 662.42 2.084 2.942 1.414-3.041z" fill="#acdeb6"/><path d="m451.883 671.367-3.998.113-.127-4.498z" fill="#acdeb6"/><path d="m467.552 659.42 2.084 2.942 1.414-3.041z" fill="#acdeb6"/><path d="m164.572 644.892 3.998-.117.132 4.498z" fill="#acdeb6"/><path d="m148.914 656.854-2.086-2.941-1.412 3.043z" fill="#acdeb6"/><path d="m1153.16 676.246-4 .113-.13-4.498z" fill="#acdeb6"/><path d="m1168.83 664.299 2.08 2.942 1.41-3.041z" fill="#acdeb6"/><path d="m696.157 673.246-3.999.113-.127-4.498z" fill="#acdeb6"/><path d="m711.825 661.299 2.084 2.942 1.415-3.041z" fill="#acdeb6"/><path d="m756.548 684.855-2.763 2.893-3.254-3.108z" fill="#acdeb6"/><path d="m759.281 665.342 3.551.625-1.134-3.156z" fill="#acdeb6"/><path d="m1097.73 633.047-4 .113-.13-4.498z" fill="#acdeb6"/><path d="m1113.4 621.099 2.08 2.943 1.41-3.042z" fill="#acdeb6"/><path d="m640.727 630.047-3.998.113-.128-4.498z" fill="#acdeb6"/><path d="m656.395 618.099 2.084 2.943 1.415-3.042z" fill="#acdeb6"/><path d="m850.124 652.509-2.136 3.382-3.805-2.403z" fill="#acdeb6"/><path d="m848.944 632.84 3.604-.089-1.735-2.87z" fill="#acdeb6"/><path d="m393.124 649.509-2.136 3.382-3.805-2.403z" fill="#acdeb6"/><path d="m391.944 629.84 3.604-.089-1.735-2.87z" fill="#acdeb6"/><path d="m223.351 666.698 2.132-3.384 3.807 2.4z" fill="#acdeb6"/><path d="m224.548 686.366-3.604.092 1.738 2.869z" fill="#acdeb6"/><path d="m54.3575 634.384 2.1327-3.384 3.807 2.399z" fill="#acdeb6"/><path d="m55.5553 654.052-3.6044.092 1.7382 2.869z" fill="#acdeb6"/><path d="m799.888 648.845 3.971-.474.533 4.468z" fill="#acdeb6"/><path d="m785.362 662.158-2.341-2.742-1.135 3.157z" fill="#acdeb6"/><path d="m342.888 645.845 3.971-.474.533 4.468z" fill="#acdeb6"/><path d="m328.362 659.158-2.341-2.742-1.135 3.157z" fill="#acdeb6"/><path d="m273.591 670.318-3.972.477-.537-4.468z" fill="#acdeb6"/><path d="m288.104 656.991 2.344 2.74 1.131-3.157z" fill="#acdeb6"/><path d="m974.886 621.474 3.971-.474.533 4.468z" fill="#acdeb6"/><path d="m960.36 634.787-2.341-2.742-1.134 3.157z" fill="#acdeb6"/><path d="m517.886 618.474 3.971-.474.533 4.468z" fill="#acdeb6"/><path d="m503.36 631.787-2.341-2.742-1.134 3.157z" fill="#acdeb6"/><path d="m1059.02 660.933 1.1-3.847 4.33 1.233z" fill="#acdeb6"/><path d="m1065.7 679.471-3.43 1.102 2.47 2.264z" fill="#acdeb6"/><path d="m602.022 657.933 1.095-3.847 4.328 1.233z" fill="#acdeb6"/><path d="m608.699 676.471-3.433 1.102 2.475 2.264z" fill="#acdeb6"/><path d="m980.484 669.909-.987 3.876-4.361-1.11z" fill="#acdeb6"/><path d="m973.285 651.567 3.4-1.199-2.537-2.193z" fill="#acdeb6"/><path d="m523.483 666.909-.987 3.876-4.361-1.11z" fill="#acdeb6"/><path d="m516.284 648.567 3.4-1.199-2.537-2.193z" fill="#acdeb6"/><path d="m92.976 649.416.983-3.877 4.362 1.106z" fill="#acdeb6"/><path d="m100.191 667.752-3.3992 1.201 2.5394 2.192z" fill="#acdeb6"/><path d="m1015.41 688.733-.99 3.876-4.36-1.109z" fill="#acdeb6"/><path d="m1008.21 670.391 3.4-1.198-2.54-2.194z" fill="#acdeb6"/><path d="m558.41 685.733-.986 3.876-4.361-1.109z" fill="#acdeb6"/><path d="m551.211 667.391 3.401-1.198-2.538-2.194z" fill="#acdeb6"/><path d="m1030.41 651.733-.99 3.876-4.36-1.109z" fill="#acdeb6"/><path d="m1023.21 633.391 3.4-1.198-2.54-2.194z" fill="#acdeb6"/><path d="m573.41 648.733-.986 3.876-4.361-1.109z" fill="#acdeb6"/><path d="m566.211 630.391 3.401-1.198-2.538-2.194z" fill="#acdeb6"/><path d="m1162.22 650.5v-4l-3.5 1.5z" fill="#acdeb6"/><path d="m705.219 647.5v-4l-3.5 1.5z" fill="#acdeb6"/><path d="m877.622 683.256.113 3.998 3.457-1.598z" fill="#acdeb6"/><path d="m420.622 680.256.113 3.998 3.457-1.598z" fill="#acdeb6"/><path d="m195.826 635.977-.117-3.998-3.455 1.601z" fill="#acdeb6"/><path d="m664.896 682.134.113 3.999 3.456-1.599z" fill="#acdeb6"/><path d="m1186.61 632.099.11 3.999 3.46-1.599z" fill="#acdeb6"/><path d="m729.607 629.099.113 3.999 3.456-1.599z" fill="#acdeb6"/><path d="m840.07 683.415 3.382 2.136.601-3.76z" fill="#acdeb6"/><path d="m383.07 680.415 3.382 2.136.601-3.76z" fill="#acdeb6"/><path d="m233.377 635.783-3.384-2.133-.597 3.761z" fill="#acdeb6"/><path d="m245.219 654.133-3.384-2.133-.597 3.761z" fill="#acdeb6"/><path d="m927.968 643.96 3.382 2.136.6-3.761z" fill="#acdeb6"/><path d="m470.968 640.96 3.382 2.136.6-3.761z" fill="#acdeb6"/><path d="m145.515 675.318-3.384-2.132-.597 3.76z" fill="#acdeb6"/><path d="m830.219 637.169-.474-3.972-3.298 1.904z" fill="#acdeb6"/><path d="m373.219 634.169-.474-3.972-3.298 1.904z" fill="#acdeb6"/><path d="m243.27 682.021.477 3.971 3.296-1.907z" fill="#acdeb6"/><path d="m80.2699 663.825.4772 3.972 3.296-1.907z" fill="#acdeb6"/><path d="m40.267 677.417.4771 3.972 3.2961-1.907z" fill="#acdeb6"/><path d="m1059.96 628.447-3.85-1.095.48 3.777z" fill="#acdeb6"/><path d="m602.956 625.447-3.847-1.095.484 3.777z" fill="#acdeb6"/><path d="m92.9633 616.915-3.8774-.983.5939 3.761z" fill="#acdeb6"/><path d="m1155.72 629 5 4-5 3z" fill="#acdeb6"/><path d="m698.719 626 5 4-5 3z" fill="#acdeb6"/><path d="m188.701 614.677 5.115 3.853-4.911 3.144z" fill="#acdeb6"/><path d="m137.211 616.286 5.115 3.853-4.911 3.144z" fill="#acdeb6"/><path d="m904.219 629.997-5.111-3.857 4.913-3.14z" fill="#acdeb6"/><path d="m447.219 626.997-5.111-3.857 4.913-3.14z" fill="#acdeb6"/><path d="m404.719 686.397-6.052 2.092.133-5.829z" fill="#acdeb6"/><path d="m211.724 629.82 6.05-2.097-.128 5.829z" fill="#acdeb6"/><path d="m308.631 623.529 6.05-2.097-.128 5.829z" fill="#acdeb6"/><path d="m167.221 627.521 6.05-2.097-.128 5.829z" fill="#acdeb6"/><path d="m264.128 621.23 6.05-2.097-.128 5.829z" fill="#acdeb6"/><path d="m922.219 622.737-6.052 2.092.133-5.829z" fill="#acdeb6"/><path d="m465.219 619.737-6.052 2.092.133-5.829z" fill="#acdeb6"/><path d="m821.218 616.592 5.438 3.38-4.609 3.571z" fill="#acdeb6"/><path d="m364.218 613.592 5.438 3.38-4.609 3.571z" fill="#acdeb6"/><path d="m89.2885 684.394-5.4415-3.375 4.6064-3.575z" fill="#acdeb6"/><path d="m1037.5 628.809 5.21-3.713 1.52 5.63z" fill="#acdeb6"/><path d="m580.498 625.809 5.216-3.713 1.516 5.63z" fill="#acdeb6"/><path d="m70.5252 617.931 5.106-3.864 1.6793 5.584z" fill="#acdeb6"/><path d="m24.2048 624.847 5.1061-3.864 1.6793 5.584z" fill="#acdeb6"/><path d="m1117.72 638 3 1.5-3 4z" fill="#e7e88c"/><path d="m1136.22 679.5 2.5 3-2.5 2z" fill="#e7e88c"/><path d="m1086.22 639.5 4.5 4-3.5 3.5z" fill="#e7e88c"/><path d="m1101.72 657 2-2.5 1 4z" fill="#e7e88c"/><path d="m660.719 635 3 1.5-3 4z" fill="#e7e88c"/><path d="m679.219 676.5 2.5 3-2.5 2z" fill="#e7e88c"/><path d="m629.219 636.5 4.5 4-3.5 3.5z" fill="#e7e88c"/><path d="m644.719 654 2-2.5 1 4z" fill="#e7e88c"/><path d="m922.457 694.492-3.041-1.414 2.886-4.083z" fill="#e7e88c"/><path d="m902.792 653.532-2.584-2.928 2.442-2.07z" fill="#e7e88c"/><path d="m953.902 692.102-4.611-3.871 3.4-3.597z" fill="#e7e88c"/><path d="m937.914 675.048-1.929 2.555-1.112-3.97z" fill="#e7e88c"/><path d="m465.458 691.492-3.041-1.414 2.886-4.083z" fill="#e7e88c"/><path d="m445.793 650.532-2.584-2.928 2.442-2.07z" fill="#e7e88c"/><path d="m496.903 689.102-4.611-3.871 3.4-3.597z" fill="#e7e88c"/><path d="m480.915 672.048-1.929 2.555-1.112-3.97z" fill="#e7e88c"/><path d="m150.98 624.78 3.042 1.412-2.882 4.086z" fill="#e7e88c"/><path d="m170.682 665.723 2.586 2.926-2.44 2.072z" fill="#e7e88c"/><path d="m119.537 627.198 4.614 3.867-3.396 3.601z" fill="#e7e88c"/><path d="m135.54 644.239 1.927-2.558 1.116 3.97z" fill="#e7e88c"/><path d="m1166.73 696.371-3.04-1.414 2.89-4.084z" fill="#e7e88c"/><path d="m1147.07 655.411-2.59-2.928 2.44-2.07z" fill="#e7e88c"/><path d="m1198.18 693.981-4.62-3.871 3.4-3.597z" fill="#e7e88c"/><path d="m1182.19 676.927-1.93 2.555-1.11-3.97z" fill="#e7e88c"/><path d="m709.732 693.371-3.041-1.414 2.885-4.084z" fill="#e7e88c"/><path d="m690.066 652.411-2.584-2.928 2.443-2.07z" fill="#e7e88c"/><path d="m741.177 690.981-4.611-3.871 3.399-3.597z" fill="#e7e88c"/><path d="m725.188 673.927-1.928 2.555-1.113-3.97z" fill="#e7e88c"/><path d="m763.732 701.371-3.041-1.414 2.885-4.084z" fill="#e7e88c"/><path d="m744.066 660.411-2.584-2.928 2.443-2.07z" fill="#e7e88c"/><path d="m795.177 698.981-4.611-3.871 3.399-3.597z" fill="#e7e88c"/><path d="m779.188 681.927-1.928 2.555-1.113-3.97z" fill="#e7e88c"/><path d="m874.399 652.463-2.87 1.736-1.78-4.673z" fill="#e7e88c"/><path d="m829.432 645.946-3.871.512-.356-3.182z" fill="#e7e88c"/><path d="m889.95 625.028-5.784 1.669-1.091-4.828z" fill="#e7e88c"/><path d="m866.878 628.79 1.046 3.025-3.916-1.29z" fill="#e7e88c"/><path d="m417.399 649.463-2.87 1.736-1.78-4.673z" fill="#e7e88c"/><path d="m372.432 642.946-3.871.512-.356-3.182z" fill="#e7e88c"/><path d="m432.95 622.028-5.784 1.669-1.091-4.828z" fill="#e7e88c"/><path d="m409.878 625.79 1.046 3.025-3.916-1.29z" fill="#e7e88c"/><path d="m199.075 666.766 2.869-1.738 1.784 4.67z" fill="#e7e88c"/><path d="m244.048 673.243 3.871-.516.359 3.182z" fill="#e7e88c"/><path d="m183.549 694.214 5.783-1.674 1.095 4.827z" fill="#e7e88c"/><path d="m206.618 690.432-1.048-3.025 3.917 1.287z" fill="#e7e88c"/><path d="m44.2282 655.649 2.3963 2.347-4.081 2.889z" fill="#e7e88c"/><path d="m49.1267 700.821 1.4609 3.622-2.9924 1.138z" fill="#e7e88c"/><path d="m13.783 647.428 3.0584 5.186-4.4039 2.26z" fill="#e7e88c"/><path d="m23.1773 668.835 2.6697-1.767-.2734 4.114z" fill="#e7e88c"/><path d="m875.399 701.463-2.87 1.736-1.78-4.673z" fill="#e7e88c"/><path d="m830.432 694.946-3.871.512-.356-3.182z" fill="#e7e88c"/><path d="m890.95 674.028-5.784 1.669-1.091-4.828z" fill="#e7e88c"/><path d="m867.878 677.79 1.046 3.025-3.916-1.29z" fill="#e7e88c"/><path d="m418.399 698.463-2.87 1.736-1.78-4.673z" fill="#e7e88c"/><path d="m373.432 691.946-3.871.512-.356-3.182z" fill="#e7e88c"/><path d="m433.95 671.028-5.784 1.669-1.091-4.828z" fill="#e7e88c"/><path d="m410.878 674.79 1.046 3.025-3.916-1.29z" fill="#e7e88c"/><path d="m198.031 617.766 2.869-1.738 1.784 4.67z" fill="#e7e88c"/><path d="m243.004 624.243 3.871-.516.359 3.182z" fill="#e7e88c"/><path d="m182.505 645.214 5.783-1.674 1.095 4.827z" fill="#e7e88c"/><path d="m205.574 641.432-1.048-3.025 3.917 1.287z" fill="#e7e88c"/><path d="m952.399 648.463-2.87 1.736-1.78-4.673z" fill="#e7e88c"/><path d="m907.432 641.946-3.871.512-.356-3.182z" fill="#e7e88c"/><path d="m967.95 621.028-5.784 1.669-1.091-4.828z" fill="#e7e88c"/><path d="m944.878 624.79 1.046 3.025-3.916-1.29z" fill="#e7e88c"/><path d="m495.399 645.463-2.87 1.736-1.78-4.673z" fill="#e7e88c"/><path d="m450.432 638.946-3.871.512-.356-3.182z" fill="#e7e88c"/><path d="m510.95 618.028-5.784 1.669-1.091-4.828z" fill="#e7e88c"/><path d="m487.878 621.79 1.046 3.025-3.916-1.29z" fill="#e7e88c"/><path d="m121.079 670.836 2.869-1.738 1.784 4.671z" fill="#e7e88c"/><path d="m166.052 677.313 3.871-.516.359 3.182z" fill="#e7e88c"/><path d="m105.553 698.285 5.783-1.674 1.095 4.827z" fill="#e7e88c"/><path d="m128.622 694.503-1.049-3.025 3.918 1.287z" fill="#e7e88c"/><path d="m1093.4 705.463-2.87 1.736-1.78-4.673z" fill="#e7e88c"/><path d="m1048.43 698.946-3.87.512-.36-3.182z" fill="#e7e88c"/><path d="m1108.95 678.028-5.78 1.669-1.09-4.828z" fill="#e7e88c"/><path d="m1085.88 681.79 1.04 3.025-3.91-1.29z" fill="#e7e88c"/><path d="m636.399 702.463-2.87 1.736-1.78-4.673z" fill="#e7e88c"/><path d="m591.432 695.946-3.871.512-.356-3.182z" fill="#e7e88c"/><path d="m651.95 675.028-5.784 1.669-1.091-4.828z" fill="#e7e88c"/><path d="m628.878 678.79 1.046 3.025-3.916-1.29z" fill="#e7e88c"/><path d="m1185.4 647.463-2.87 1.736-1.78-4.673z" fill="#e7e88c"/><path d="m1140.43 640.946-3.87.512-.36-3.182z" fill="#e7e88c"/><path d="m1200.95 620.028-5.78 1.669-1.09-4.828z" fill="#e7e88c"/><path d="m1177.88 623.79 1.04 3.025-3.91-1.29z" fill="#e7e88c"/><path d="m728.399 644.463-2.87 1.736-1.78-4.673z" fill="#e7e88c"/><path d="m683.432 637.946-3.871.512-.356-3.182z" fill="#e7e88c"/><path d="m743.95 617.028-5.784 1.669-1.091-4.828z" fill="#e7e88c"/><path d="m720.878 620.79 1.046 3.025-3.916-1.29z" fill="#e7e88c"/><path d="m784.551 630.028 3.157 1.134-2.506 4.327z" fill="#e7e88c"/><path d="m807.835 669.045 2.838 2.683-2.246 2.282z" fill="#e7e88c"/><path d="m753.45 635.247 4.942 3.439-3.061 3.89z" fill="#e7e88c"/><path d="m770.913 650.789 1.69-2.72 1.467 3.854z" fill="#e7e88c"/><path d="m327.551 627.028 3.157 1.134-2.506 4.327z" fill="#e7e88c"/><path d="m350.835 666.045 2.838 2.683-2.246 2.282z" fill="#e7e88c"/><path d="m296.45 632.247 4.942 3.439-3.061 3.89z" fill="#e7e88c"/><path d="m313.913 647.789 1.69-2.72 1.467 3.854z" fill="#e7e88c"/><path d="m288.944 689.122-3.158-1.132 2.502-4.329z" fill="#e7e88c"/><path d="m265.625 650.125-2.84-2.68 2.244-2.284z" fill="#e7e88c"/><path d="m320.04 683.875-4.945-3.435 3.057-3.893z" fill="#e7e88c"/><path d="m302.563 668.349-1.688 2.72-1.47-3.852z" fill="#e7e88c"/><path d="m46.2061 614.064 3.3536.058-.9798 4.903z" fill="#e7e88c"/><path d="m80.8058 643.515 3.55 1.627-1.3919 2.883z" fill="#e7e88c"/><path d="m18.4385 629.012 5.7857 1.666-1.6466 4.668z" fill="#e7e88c"/><path d="m39.9736 638.109.7251-3.119 2.6285 3.177z" fill="#e7e88c"/><path d="m1035.74 667.82 2.27-2.474 3.02 3.98z" fill="#e7e88c"/><path d="m1080.73 661.395 3.57-1.583 1.23 2.952z" fill="#e7e88c"/><path d="m1028.56 698.526 5.08-3.232 2.41 4.325z" fill="#e7e88c"/><path d="m1049.64 688.412-1.86-2.608 4.12.134z" fill="#e7e88c"/><path d="m578.745 664.82 2.264-2.474 3.026 3.98z" fill="#e7e88c"/><path d="m623.725 658.395 3.57-1.583 1.239 2.952z" fill="#e7e88c"/><path d="m571.56 695.526 5.079-3.232 2.408 4.325z" fill="#e7e88c"/><path d="m592.636 685.412-1.857-2.608 4.121.134z" fill="#e7e88c"/><path d="m1003.56 662.367-2.2 2.538-3.134-3.894z" fill="#e7e88c"/><path d="m958.775 670.062-3.524 1.683-1.321-2.917z" fill="#e7e88c"/><path d="m1009.87 631.47-4.99 3.375-2.52-4.255z" fill="#e7e88c"/><path d="m989.088 642.176 1.93 2.555-4.123-.018z" fill="#e7e88c"/><path d="m546.556 659.367-2.194 2.538-3.136-3.894z" fill="#e7e88c"/><path d="m501.775 667.062-3.524 1.683-1.321-2.917z" fill="#e7e88c"/><path d="m552.87 628.47-4.986 3.375-2.529-4.255z" fill="#e7e88c"/><path d="m532.088 639.176 1.93 2.555-4.123-.018z" fill="#e7e88c"/><path d="m69.9106 656.975 2.1912-2.539 3.1401 3.891z" fill="#e7e88c"/><path d="m114.684 649.241 3.523-1.686 1.324 2.915z" fill="#e7e88c"/><path d="m63.6235 687.878 4.9832-3.379 2.5325 4.253z" fill="#e7e88c"/><path d="m84.3959 677.154-1.9318-2.553 4.1231.013z" fill="#e7e88c"/><path d="m1021.01 622.784 2.72-1.969 2.16 4.507z" fill="#e7e88c"/><path d="m1066.37 625.527 3.81-.834.62 3.141z" fill="#e7e88c"/><path d="m1007.8 651.42 5.63-2.146 1.49 4.721z" fill="#e7e88c"/><path d="m1030.48 645.747-1.29-2.928 4.01.959z" fill="#e7e88c"/><path d="m564.011 619.784 2.716-1.969 2.164 4.507z" fill="#e7e88c"/><path d="m609.365 622.527 3.816-.834.62 3.141z" fill="#e7e88c"/><path d="m550.803 648.42 5.626-2.146 1.489 4.721z" fill="#e7e88c"/><path d="m573.482 642.747-1.295-2.928 4.01.959z" fill="#e7e88c"/></g><g filter="url(#b)"><path d="m538.523 356.177c0-10.298 8.348-18.646 18.646-18.646h879.861c10.3 0 18.64 8.348 18.64 18.646v198.613h-898.023c-10.562 0-19.124-8.561-19.124-19.123z" fill="#000"/><path d="m554.26 402.089c0-6.026 4.885-10.911 10.911-10.911h62.366v72.739h-73.277z" fill="#89cdd3"/><path d="m538.523 354.807c0-9.541 7.735-17.276 17.276-17.276h899.871v41.038h-917.147z" fill="#539882"/><g fill="#89cdd3"><path d="m792.938 390.641h84.7926v73.6489h-84.7926z"/><path d="m905.518 390.641h84.7926v73.6489h-84.7926z"/><path d="m1018.1 390.641h84.7926v73.6489h-84.7926z"/><path d="m1130.69 390.641h84.7926v73.6489h-84.7926z"/></g><path d="m644.283 390.27h127.712v163.664h-127.712z" fill="#539882"/><path d="m707.62 390.27v163.664" stroke="#000" stroke-width="3.63698"/><rect fill="#89cdd3" height="110.928" rx="6.36472" width="43.9665" x="652.66" y="397.541"/><rect fill="#89cdd3" height="110.928" rx="6.36472" width="43.9665" x="718.61" y="397.541"/><path d="m773.367 501.682h683.693" stroke="#539882" stroke-width="16.8979"/><path d="m873.496 339.955-64.85-33.796 64.85-33.796" stroke="#000" stroke-width="3.46624"/><path d="m872.496 339.945 64.849-33.796-64.849-33.795" stroke="#000" stroke-width="3.46624"/></g><g filter="url(#c)"><path d="m0 268.736h1196" stroke="#000" stroke-width="4.82798"/></g></svg>