<svg fill="none" height="638" viewBox="0 0 1194 638" width="1194" xmlns="http://www.w3.org/2000/svg" xmlns:xlink="http://www.w3.org/1999/xlink"><filter id="a" color-interpolation-filters="sRGB" filterUnits="userSpaceOnUse" height="431.132" width="1209.07" x="0" y="0"><feFlood flood-opacity="0" result="BackgroundImageFix"/><feColorMatrix in="SourceAlpha" type="matrix" values="0 0 0 0 0 0 0 0 0 0 0 0 0 0 0 0 0 0 127 0"/><feOffset dx="6"/><feGaussianBlur stdDeviation="3"/><feColorMatrix type="matrix" values="0 0 0 0 0 0 0 0 0 0 0 0 0 0 0 0 0 0 0.2 0"/><feBlend in2="BackgroundImageFix" mode="normal" result="effect1_dropShadow"/><feBlend in="SourceGraphic" in2="effect1_dropShadow" mode="normal" result="shape"/></filter><filter id="b" color-interpolation-filters="sRGB" filterUnits="userSpaceOnUse" height="303.286" width="937.85" x="538.523" y="205.504"><feFlood flood-opacity="0" result="BackgroundImageFix"/><feColorMatrix in="SourceAlpha" type="matrix" values="0 0 0 0 0 0 0 0 0 0 0 0 0 0 0 0 0 0 127 0"/><feOffset dx="9.65596" dy="-9.65596"/><feGaussianBlur stdDeviation="4.82798"/><feColorMatrix type="matrix" values="0 0 0 0 0 0 0 0 0 0 0 0 0 0 0 0 0 0 0.25 0"/><feBlend in2="BackgroundImageFix" mode="normal" result="effect1_dropShadow"/><feBlend in="SourceGraphic" in2="effect1_dropShadow" mode="normal" result="shape"/></filter><filter id="c" color-interpolation-filters="sRGB" filterUnits="userSpaceOnUse" height="16.828" width="1208" x="-6" y="218.322"><feFlood flood-opacity="0" result="BackgroundImageFix"/><feColorMatrix in="SourceAlpha" type="matrix" values="0 0 0 0 0 0 0 0 0 0 0 0 0 0 0 0 0 0 127 0"/><feOffset dy="4"/><feGaussianBlur stdDeviation="3"/><feColorMatrix type="matrix" values="0 0 0 0 0 0 0 0 0 0 0 0 0 0 0 0 0 0 0.2 0"/><feBlend in2="BackgroundImageFix" mode="normal" result="effect1_dropShadow"/><feBlend in="SourceGraphic" in2="effect1_dropShadow" mode="normal" result="shape"/></filter><filter id="d" color-interpolation-filters="sRGB" filterUnits="userSpaceOnUse" height="119.101" width="58.0533" x="1045.67" y="348.163"><feFlood flood-opacity="0" result="BackgroundImageFix"/><feColorMatrix in="SourceAlpha" type="matrix" values="0 0 0 0 0 0 0 0 0 0 0 0 0 0 0 0 0 0 127 0"/><feOffset dx="2.75213" dy="-1.37607"/><feGaussianBlur stdDeviation="1.37607"/><feColorMatrix type="matrix" values="0 0 0 0 0 0 0 0 0 0 0 0 0 0 0 0 0 0 0.2 0"/><feBlend in2="BackgroundImageFix" mode="normal" result="effect1_dropShadow"/><feBlend in="SourceGraphic" in2="effect1_dropShadow" mode="normal" result="shape"/></filter><filter id="e" color-interpolation-filters="sRGB" filterUnits="userSpaceOnUse" height="16.7234" width="18.7041" x="1044.78" y="375.336"><feFlood flood-opacity="0" result="BackgroundImageFix"/><feBlend in="SourceGraphic" in2="BackgroundImageFix" mode="normal" result="shape"/><feGaussianBlur result="effect1_foregroundBlur" stdDeviation="3.68277"/></filter><mask id="f" height="213" maskUnits="userSpaceOnUse" width="1213" x="0" y="425"><path d="m0 425h1213v213h-1213z" fill="#89cdd3"/></mask><mask id="g" height="74" maskUnits="userSpaceOnUse" width="85" x="1018" y="344"><path d="m1018 344h84.7926v73.6489h-84.7926z" fill="#89cdd3"/></mask><g filter="url(#a)"><path d="m783.684 56.6641h103.632v368.468h-103.632z" fill="#e3e687"/><path d="m835.478 6 51.59 50.4431h-103.179z" fill="#e3e687"/><path d="m795.355 61.0254v337.6186" stroke="#000" stroke-dasharray="6.18 6.18" stroke-width="3.18725"/><path d="m811.41 61.0254v337.6186" stroke="#000" stroke-dasharray="6.18 6.18" stroke-width="3.18725"/><path d="m827.457 61.0254v337.6186" stroke="#000" stroke-dasharray="6.18 6.18" stroke-width="3.18725"/><path d="m843.512 61.0254v337.6186" stroke="#000" stroke-dasharray="6.18 6.18" stroke-width="3.18725"/><path d="m859.561 61.0254v337.6186" stroke="#000" stroke-dasharray="6.18 6.18" stroke-width="3.18725"/><path d="m875.609 61.0254v337.6186" stroke="#000" stroke-dasharray="6.18 6.18" stroke-width="3.18725"/><path d="m681.211 109.629h102.48v315.501h-102.48z" fill="#f4e97d"/><path d="m732.31 60.3281 51.59 50.4429h-103.179z" fill="#f4e97d"/><path d="m692.186 112.834v285.808" stroke="#000" stroke-dasharray="6.18 6.18" stroke-width="3.18725"/><path d="m708.234 112.834v285.808" stroke="#000" stroke-dasharray="6.18 6.18" stroke-width="3.18725"/><path d="m724.281 112.834v285.808" stroke="#000" stroke-dasharray="6.18 6.18" stroke-width="3.18725"/><path d="m740.336 112.834v285.808" stroke="#000" stroke-dasharray="6.18 6.18" stroke-width="3.18725"/><path d="m756.385 112.834v285.808" stroke="#000" stroke-dasharray="6.18 6.18" stroke-width="3.18725"/><path d="m772.434 112.834v285.808" stroke="#000" stroke-dasharray="6.18 6.18" stroke-width="3.18725"/><path d="m989.801 138.416h103.632v286.714h-103.632z" fill="#a2daaf"/><path d="m1041.84 88.541 51.59 50.443h-103.176z" fill="#a2daaf"/><path d="m1001.72 142.125v256.524" stroke="#000" stroke-dasharray="6.18 6.18" stroke-width="3.18725"/><path d="m1017.77 142.125v256.524" stroke="#000" stroke-dasharray="6.18 6.18" stroke-width="3.18725"/><path d="m1033.82 142.125v256.524" stroke="#000" stroke-dasharray="6.18 6.18" stroke-width="3.18725"/><path d="m1049.87 142.125v256.524" stroke="#000" stroke-dasharray="6.18 6.18" stroke-width="3.18725"/><path d="m1065.92 142.125v256.524" stroke="#000" stroke-dasharray="6.18 6.18" stroke-width="3.18725"/><path d="m1081.97 142.125v256.524" stroke="#000" stroke-dasharray="6.18 6.18" stroke-width="3.18725"/><path d="m1093.43 227.078h103.632v198.052h-103.632z" fill="#91d7b9"/><path d="m1145.48 177.566 51.59 50.444h-103.18z" fill="#91d7b9"/><path d="m1105.35 231.143v170.954" stroke="#000" stroke-dasharray="6.18 6.18" stroke-width="3.18725"/><path d="m1121.4 231.143v170.954" stroke="#000" stroke-dasharray="6.18 6.18" stroke-width="3.18725"/><path d="m1137.45 231.143v170.954" stroke="#000" stroke-dasharray="6.18 6.18" stroke-width="3.18725"/><path d="m1153.5 231.143v170.954" stroke="#000" stroke-dasharray="6.18 6.18" stroke-width="3.18725"/><path d="m1169.55 231.143v170.954" stroke="#000" stroke-dasharray="6.18 6.18" stroke-width="3.18725"/><path d="m1185.6 231.143v170.954" stroke="#000" stroke-dasharray="6.18 6.18" stroke-width="3.18725"/><path d="m577.582 56.6641h103.632v368.468h-103.632z" fill="#e3e687"/><path d="m629.129 6 51.589 50.4431h-103.179z" fill="#e3e687"/><path d="m588.998 61.0254v337.6196" stroke="#000" stroke-dasharray="6.18 6.18" stroke-width="3.18725"/><path d="m605.049 61.0254v337.6196" stroke="#000" stroke-dasharray="6.18 6.18" stroke-width="3.18725"/><path d="m621.104 61.0254v337.6196" stroke="#000" stroke-dasharray="6.18 6.18" stroke-width="3.18725"/><path d="m637.152 61.0254v337.6196" stroke="#000" stroke-dasharray="6.18 6.18" stroke-width="3.18725"/><path d="m653.201 61.0254v337.6196" stroke="#000" stroke-dasharray="6.18 6.18" stroke-width="3.18725"/><path d="m669.25 61.0254v337.6196" stroke="#000" stroke-dasharray="6.18 6.18" stroke-width="3.18725"/><path d="m568.367 38.1035c3.822 4.2036 14.445 11.0058 26.368 4.5858v13.7572h-17.196c-3.057-1.5286-9.172-7.3372-9.172-18.343z" fill="#e3e687"/><path d="m591.297 15.1758c3.821 4.2036 14.445 11.0058 26.368 4.5857v13.7572h-17.197c-3.057-1.5285-9.171-7.3371-9.171-18.3429z" fill="#e3e687"/><path d="m688.746 38.1035c-3.821 4.2036-14.445 11.0058-26.368 4.5858v13.7572h17.197c3.057-1.5286 9.171-7.3372 9.171-18.343z" fill="#e3e687"/><path d="m665.816 15.1758c-3.821 4.2036-14.445 11.0058-26.368 4.5857v13.7572h17.197c3.057-1.5285 9.171-7.3371 9.171-18.3429z" fill="#e3e687"/><path d="m887.316 81.9922h102.48v343.136h-102.48z" fill="#b2dda5"/><path d="m938.66 31.2188 51.589 50.4431h-103.179z" fill="#b2dda5"/><path d="m898.535 85.8066v312.8404" stroke="#000" stroke-dasharray="6.18 6.18" stroke-width="3.18725"/><path d="m914.586 85.8066v312.8404" stroke="#000" stroke-dasharray="6.18 6.18" stroke-width="3.18725"/><path d="m930.637 85.8066v312.8404" stroke="#000" stroke-dasharray="6.18 6.18" stroke-width="3.18725"/><path d="m946.684 85.8066v312.8404" stroke="#000" stroke-dasharray="6.18 6.18" stroke-width="3.18725"/><path d="m962.738 85.8066v312.8404" stroke="#000" stroke-dasharray="6.18 6.18" stroke-width="3.18725"/><path d="m978.787 85.8066v312.8404" stroke="#000" stroke-dasharray="6.18 6.18" stroke-width="3.18725"/><path d="m877.898 62.418c3.822 4.2036 14.446 11.0057 26.368 4.5857v13.7572h-17.196c-3.057-1.5286-9.172-7.3372-9.172-18.3429z" fill="#b2dda5"/><path d="m900.828 39.4902c3.822 4.2036 14.445 11.0058 26.368 4.5858v13.7572h-17.196c-3.058-1.5286-9.172-7.3372-9.172-18.343z" fill="#b2dda5"/><path d="m998.277 62.418c-3.821 4.2036-14.445 11.0057-26.368 4.5857v13.7572h17.197c3.057-1.5286 9.171-7.3372 9.171-18.3429z" fill="#b2dda5"/><path d="m975.348 39.4902c-3.822 4.2036-14.445 11.0058-26.368 4.5858v13.7572h17.196c3.057-1.5286 9.172-7.3372 9.172-18.343z" fill="#b2dda5"/><path d="m0 0h115.398v292.341h-115.398z" fill="#d3e391" transform="matrix(-1 0 0 1 578.836 132.656)"/><path d="m0 0h115.398v292.341h-115.398z" fill="#b2dda5" transform="matrix(-1 0 0 1 348.043 132.656)"/><path d="m0 0h115.398v264.133h-115.398z" fill="#a2daaf" transform="matrix(-1 0 0 1 232.641 160.861)"/><path d="m0 0h115.398v233.36h-115.398z" fill="#c3e09b" transform="matrix(-1 0 0 1 463.436 191.637)"/><path d="m0 0h117v200h-117z" fill="#91d7b9" transform="matrix(-1 0 0 1 117 225)"/><path d="m521.137 76.2383-57.699 56.4167h115.398z" fill="#d3e391"/><path d="m290.344 76.2383-57.699 56.4167h115.398z" fill="#b2dda5"/><path d="m174.756 104.805-58.168 58.964h116.335z" fill="#a2daaf"/><path d="m405.737 135.219-57.699 56.416h115.398z" fill="#c3e09b"/><path d="m57.6986 169-57.69886703 56.417h115.39726703z" fill="#91d7b9"/><g stroke="#000" stroke-width="3.18725"><path d="m566.018 137.779v265.415" stroke-dasharray="6.91 6.91"/><path d="m548.066 137.779v265.415" stroke-dasharray="6.91 6.91"/><path d="m530.113 137.779v265.415" stroke-dasharray="6.91 6.91"/><path d="m512.164 137.779v265.415" stroke-dasharray="6.91 6.91"/><path d="m494.213 137.779v265.415" stroke-dasharray="6.91 6.91"/><path d="m476.266 137.779v265.415" stroke-dasharray="6.91 6.91"/><path d="m335.219 137.779v265.415" stroke-dasharray="6.91 6.91"/><path d="m317.268 137.779v265.415" stroke-dasharray="6.91 6.91"/><path d="m299.316 137.779v265.415" stroke-dasharray="6.91 6.91"/><path d="m281.366 137.779v265.415" stroke-dasharray="6.91 6.91"/><path d="m263.416 137.779v265.415" stroke-dasharray="6.91 6.91"/><path d="m245.466 137.779v265.415" stroke-dasharray="6.91 6.91"/><path d="m219.823 165.498v239.805" stroke-dasharray="6.91 6.91"/><path d="m201.873 165.498v239.805" stroke-dasharray="6.91 6.91"/><path d="m183.92 165.498v239.805" stroke-dasharray="6.91 6.91"/><path d="m165.97 165.498v239.805" stroke-dasharray="6.91 6.91"/><path d="m148.021 165.498v239.805" stroke-dasharray="6.91 6.91"/><path d="m130.071 165.498v239.805" stroke-dasharray="6.91 6.91"/><path d="m450.617 195.73v211.867" stroke-dasharray="6.91 6.91"/><path d="m432.666 195.73v211.867" stroke-dasharray="6.91 6.91"/><path d="m414.713 195.73v211.867" stroke-dasharray="6.91 6.91"/><path d="m396.766 195.73v211.867" stroke-dasharray="6.91 6.91"/><path d="m378.814 195.73v211.867" stroke-dasharray="6.91 6.91"/><path d="m360.863 195.73v211.867" stroke-dasharray="6.91 6.91"/><path d="m104.218 228.482v181.6" stroke-dasharray="6.91 6.91"/><path d="m85.9795 228.482v181.6" stroke-dasharray="6.91 6.91"/><path d="m67.7412 228.482v181.6" stroke-dasharray="6.91 6.91"/><path d="m49.5029 228.482v181.6" stroke-dasharray="6.91 6.91"/><path d="m31.2646 228.482v181.6" stroke-dasharray="6.91 6.91"/><path d="m13.0264 228.482v181.6" stroke-dasharray="6.91 6.91"/></g><path d="m589.092 112.137c-4.274 4.701-16.156 12.309-29.491 5.129v15.386h19.233c3.419-1.71 10.258-8.206 10.258-20.515z" fill="#d3e391"/><path d="m563.445 86.4902c-4.274 4.7014-16.155 12.3091-29.49 5.1288v15.386h19.233c3.419-1.709 10.257-8.2057 10.257-20.5148z" fill="#d3e391"/><path d="m454.459 112.137c4.274 4.701 16.156 12.309 29.491 5.129v15.386h-19.233c-3.42-1.71-10.258-8.206-10.258-20.515z" fill="#d3e391"/><path d="m480.107 86.4902c4.274 4.7014 16.156 12.3091 29.491 5.1288v15.386h-19.233c-3.419-1.709-10.258-8.2057-10.258-20.5148z" fill="#d3e391"/><path d="m242.901 142.912c-4.274 4.701-16.155 12.309-29.49 5.129v15.386h19.233c3.419-1.709 10.257-8.206 10.257-20.515z" fill="#a2daaf"/><path d="m217.255 117.266c-4.274 4.701-16.156 12.309-29.491 5.128v15.387h19.233c3.419-1.71 10.258-8.206 10.258-20.515z" fill="#a2daaf"/><path d="m108.268 142.912c4.274 4.701 16.155 12.309 29.49 5.129v15.386h-19.233c-3.419-1.709-10.257-8.206-10.257-20.515z" fill="#a2daaf"/><path d="m133.917 117.266c4.274 4.701 16.156 12.309 29.491 5.128v15.387h-19.233c-3.42-1.71-10.258-8.206-10.258-20.515z" fill="#a2daaf"/></g><path d="m0 425h1213v213h-1213z" fill="#89cdd3"/><g mask="url(#f)"><path d="m71.5 517.5h-4v4.5z" fill="#acdeb6"/><path d="m87.5 529 2-3 1.5 3z" fill="#acdeb6"/><path d="m528.5 514.5h-4v4.5z" fill="#acdeb6"/><path d="m544.5 526 2-3 1.5 3z" fill="#acdeb6"/><path d="m293.336 533.367 3.998.113.127-4.498z" fill="#acdeb6"/><path d="m277.667 521.42-2.084 2.942-1.415-3.041z" fill="#acdeb6"/><path d="m750.336 530.367 3.998.113.127-4.498z" fill="#acdeb6"/><path d="m734.667 518.42-2.084 2.942-1.415-3.041z" fill="#acdeb6"/><path d="m1037.65 503.892-4-.117-.13 4.498z" fill="#acdeb6"/><path d="m1053.3 515.854 2.09-2.941 1.41 3.043z" fill="#acdeb6"/><path d="m49.0621 535.246 3.9984.113.1273-4.498z" fill="#acdeb6"/><path d="m33.3936 523.299-2.084 2.942-1.4146-3.041z" fill="#acdeb6"/><path d="m506.062 532.246 3.999.113.127-4.498z" fill="#acdeb6"/><path d="m490.394 520.299-2.084 2.942-1.415-3.041z" fill="#acdeb6"/><path d="m445.671 543.855 2.763 2.893 3.254-3.108z" fill="#acdeb6"/><path d="m442.938 524.342-3.551.625 1.133-3.156z" fill="#acdeb6"/><path d="m104.492 492.047 3.998.113.127-4.498z" fill="#acdeb6"/><path d="m88.8233 480.099-2.084 2.943-1.4146-3.042z" fill="#acdeb6"/><path d="m561.492 489.047 3.998.113.127-4.498z" fill="#acdeb6"/><path d="m545.823 477.099-2.084 2.943-1.414-3.042z" fill="#acdeb6"/><path d="m352.095 511.509 2.135 3.382 3.805-2.403z" fill="#acdeb6"/><path d="m353.275 491.84-3.604-.089 1.735-2.87z" fill="#acdeb6"/><path d="m809.095 508.509 2.135 3.382 3.805-2.403z" fill="#acdeb6"/><path d="m810.275 488.84-3.604-.089 1.735-2.87z" fill="#acdeb6"/><path d="m978.869 525.698-2.133-3.384-3.807 2.4z" fill="#acdeb6"/><path d="m977.671 545.366 3.605.092-1.739 2.869z" fill="#acdeb6"/><path d="m1147.86 493.384-2.13-3.384-3.81 2.399z" fill="#acdeb6"/><path d="m1146.66 513.052 3.61.092-1.74 2.869z" fill="#acdeb6"/><path d="m402.331 507.845-3.972-.474-.532 4.468z" fill="#acdeb6"/><path d="m416.857 521.158 2.341-2.742 1.134 3.157z" fill="#acdeb6"/><path d="m859.331 504.845-3.972-.474-.532 4.468z" fill="#acdeb6"/><path d="m873.857 518.158 2.341-2.742 1.134 3.157z" fill="#acdeb6"/><path d="m928.628 529.318 3.972.477.536-4.468z" fill="#acdeb6"/><path d="m914.114 515.991-2.343 2.74-1.132-3.157z" fill="#acdeb6"/><path d="m227.333 480.474-3.972-.474-.533 4.468z" fill="#acdeb6"/><path d="m241.859 493.787 2.341-2.742 1.134 3.157z" fill="#acdeb6"/><path d="m684.333 477.474-3.972-.474-.533 4.468z" fill="#acdeb6"/><path d="m698.859 490.787 2.341-2.742 1.134 3.157z" fill="#acdeb6"/><path d="m1103.6 556.843 3.97.477.54-4.468z" fill="#acdeb6"/><path d="m1089.09 543.517-2.35 2.739-1.13-3.157z" fill="#acdeb6"/><path d="m143.197 519.933-1.095-3.847-4.328 1.233z" fill="#acdeb6"/><path d="m136.52 538.471 3.433 1.102-2.475 2.264z" fill="#acdeb6"/><path d="m600.197 516.933-1.095-3.847-4.328 1.233z" fill="#acdeb6"/><path d="m593.52 535.471 3.433 1.102-2.475 2.264z" fill="#acdeb6"/><path d="m221.735 528.909.987 3.876 4.361-1.11z" fill="#acdeb6"/><path d="m228.934 510.567-3.4-1.199 2.537-2.193z" fill="#acdeb6"/><path d="m678.736 525.909.987 3.876 4.361-1.11z" fill="#acdeb6"/><path d="m685.935 507.567-3.4-1.199 2.537-2.193z" fill="#acdeb6"/><path d="m1109.24 508.416-.98-3.877-4.36 1.106z" fill="#acdeb6"/><path d="m1102.03 526.752 3.4 1.201-2.54 2.192z" fill="#acdeb6"/><path d="m186.808 547.733.987 3.876 4.361-1.109z" fill="#acdeb6"/><path d="m194.007 529.391-3.4-1.198 2.537-2.194z" fill="#acdeb6"/><path d="m643.808 544.733.987 3.876 4.361-1.109z" fill="#acdeb6"/><path d="m651.007 526.391-3.4-1.198 2.537-2.194z" fill="#acdeb6"/><path d="m171.808 510.733.987 3.876 4.361-1.109z" fill="#acdeb6"/><path d="m179.007 492.391-3.4-1.198 2.537-2.194z" fill="#acdeb6"/><path d="m628.808 507.733.987 3.876 4.361-1.109z" fill="#acdeb6"/><path d="m636.007 489.391-3.4-1.198 2.537-2.194z" fill="#acdeb6"/><path d="m40 509.5v-4l3.5 1.5z" fill="#acdeb6"/><path d="m497 506.5v-4l3.5 1.5z" fill="#acdeb6"/><path d="m324.597 542.256-.113 3.998-3.456-1.598z" fill="#acdeb6"/><path d="m781.597 539.256-.113 3.998-3.456-1.598z" fill="#acdeb6"/><path d="m1006.39 494.977.12-3.998 3.45 1.601z" fill="#acdeb6"/><path d="m80.323 544.134-.113 3.999-3.4562-1.599z" fill="#acdeb6"/><path d="m537.322 541.134-.113 3.999-3.456-1.599z" fill="#acdeb6"/><path d="m15.6121 491.099-.1131 3.999-3.4562-1.599z" fill="#acdeb6"/><path d="m472.611 488.099-.113 3.999-3.456-1.599z" fill="#acdeb6"/><path d="m362.148 542.415-3.382 2.136-.601-3.76z" fill="#acdeb6"/><path d="m819.148 539.415-3.382 2.136-.601-3.76z" fill="#acdeb6"/><path d="m968.841 494.783 3.384-2.133.597 3.761z" fill="#acdeb6"/><path d="m957.001 513.133 3.384-2.133.597 3.761z" fill="#acdeb6"/><path d="m274.251 502.96-3.382 2.136-.6-3.761z" fill="#acdeb6"/><path d="m731.251 499.96-3.382 2.136-.6-3.761z" fill="#acdeb6"/><path d="m1056.7 534.318 3.39-2.132.6 3.76z" fill="#acdeb6"/><path d="m371.999 496.169.474-3.972 3.297 1.904z" fill="#acdeb6"/><path d="m828.999 493.169.474-3.972 3.297 1.904z" fill="#acdeb6"/><path d="m958.95 541.021-.477 3.971-3.296-1.907z" fill="#acdeb6"/><path d="m855.952 556.417-.477 3.972-3.296-1.907z" fill="#acdeb6"/><path d="m1121.95 522.825-.48 3.972-3.29-1.907z" fill="#acdeb6"/><path d="m1161.95 536.417-.48 3.972-3.29-1.907z" fill="#acdeb6"/><path d="m142.262 487.447 3.847-1.095-.484 3.777z" fill="#acdeb6"/><path d="m599.262 484.447 3.847-1.095-.484 3.777z" fill="#acdeb6"/><path d="m221.751 561.408-3.876.987.591-3.762z" fill="#acdeb6"/><path d="m678.751 558.408-3.876.987.591-3.762z" fill="#acdeb6"/><path d="m1109.26 475.915 3.87-.983-.59 3.761z" fill="#acdeb6"/><path d="m116.74 558.392-3.877.987.591-3.762z" fill="#acdeb6"/><path d="m573.74 555.392-3.877.987.591-3.762z" fill="#acdeb6"/><path d="m46.5 488-5 4 5 3z" fill="#acdeb6"/><path d="m503.5 485-5 4 5 3z" fill="#acdeb6"/><path d="m317.49 563.562 5.111-3.857-4.913-3.14z" fill="#acdeb6"/><path d="m774.49 560.562 5.111-3.857-4.913-3.14z" fill="#acdeb6"/><path d="m1013.52 473.677-5.12 3.853 4.91 3.144z" fill="#acdeb6"/><path d="m266 561.997 5.111-3.857-4.913-3.14z" fill="#acdeb6"/><path d="m723 558.997 5.111-3.857-4.913-3.14z" fill="#acdeb6"/><path d="m1065.01 475.286-5.12 3.853 4.91 3.144z" fill="#acdeb6"/><path d="m298 488.997 5.111-3.857-4.913-3.14z" fill="#acdeb6"/><path d="m755 485.997 5.111-3.857-4.913-3.14z" fill="#acdeb6"/><path d="m1032.94 548.259-5.11 3.853 4.91 3.144z" fill="#acdeb6"/><path d="m73.2178 565.441 5.1111-3.857-4.9132-3.141z" fill="#acdeb6"/><path d="m530.217 562.441 5.111-3.857-4.913-3.141z" fill="#acdeb6"/><path d="m340.5 548.397 6.052 2.092-.133-5.829z" fill="#acdeb6"/><path d="m797.5 545.397 6.052 2.092-.133-5.829z" fill="#acdeb6"/><path d="m990.494 488.82-6.05-2.097.128 5.829z" fill="#acdeb6"/><path d="m894.588 553.23-6.05-2.097.128 5.829z" fill="#acdeb6"/><path d="m893.588 482.529-6.05-2.097.128 5.829z" fill="#acdeb6"/><path d="m296 550.737 6.052 2.092-.133-5.829z" fill="#acdeb6"/><path d="m753 547.737 6.052 2.092-.133-5.829z" fill="#acdeb6"/><path d="m1035 486.521-6.05-2.097.13 5.829z" fill="#acdeb6"/><path d="m938.09 480.23-6.05-2.097.128 5.829z" fill="#acdeb6"/><path d="m280 481.737 6.052 2.092-.133-5.829z" fill="#acdeb6"/><path d="m737 478.737 6.052 2.092-.133-5.829z" fill="#acdeb6"/><path d="m1050.94 555.535-6.05-2.098.12 5.83z" fill="#acdeb6"/><path d="m381 475.592-5.438 3.38 4.609 3.571z" fill="#acdeb6"/><path d="m838 472.592-5.438 3.38 4.609 3.571z" fill="#acdeb6"/><path d="m949.93 561.589 5.442-3.375-4.607-3.575z" fill="#acdeb6"/><path d="m1112.93 543.394 5.44-3.375-4.6-3.575z" fill="#acdeb6"/><path d="m164.721 487.809-5.216-3.713-1.516 5.63z" fill="#acdeb6"/><path d="m621.721 484.809-5.216-3.713-1.516 5.63z" fill="#acdeb6"/><path d="m199.312 560.412 5.109 3.859 1.675-5.585z" fill="#acdeb6"/><path d="m656.312 557.412 5.109 3.859 1.675-5.585z" fill="#acdeb6"/><path d="m1131.69 476.931-5.1-3.864-1.68 5.584z" fill="#acdeb6"/><path d="m1177.01 557.847-5.1-3.864-1.68 5.584z" fill="#acdeb6"/><path d="m1178.01 483.847-5.1-3.864-1.68 5.584z" fill="#acdeb6"/><g fill="#e7e88c"><path d="m84.5 497-3 1.5 3 4z"/><path d="m66 538.5-2.5 3 2.5 2z"/><path d="m116 498.5-4.5 4 3.5 3.5z"/><path d="m100.5 516-2-2.5-1 4z"/><path d="m541.5 494-3 1.5 3 4z"/><path d="m523 535.5-2.5 3 2.5 2z"/><path d="m573 495.5-4.5 4 3.5 3.5z"/><path d="m557.5 513-2-2.5-1 4z"/><path d="m279.76 553.492 3.042-1.414-2.886-4.083z"/><path d="m299.426 512.532 2.584-2.928-2.443-2.07z"/><path d="m248.315 551.102 4.612-3.871-3.4-3.597z"/><path d="m264.304 534.048 1.928 2.555 1.113-3.97z"/><path d="m736.76 550.492 3.042-1.414-2.886-4.083z"/><path d="m756.426 509.532 2.584-2.928-2.443-2.07z"/><path d="m705.315 548.102 4.612-3.871-3.4-3.597z"/><path d="m721.304 531.048 1.928 2.555 1.113-3.97z"/><path d="m1051.24 483.78-3.04 1.412 2.88 4.086z"/><path d="m1031.54 524.723-2.59 2.926 2.44 2.072z"/><path d="m1082.68 486.198-4.61 3.867 3.39 3.601z"/><path d="m1066.68 503.239-1.93-2.558-1.11 3.97z"/><path d="m35.4879 555.371 3.0412-1.414-2.8857-4.084z"/><path d="m55.1536 514.411 2.5838-2.928-2.4424-2.07z"/><path d="m4.04288 552.981 4.61127-3.871-3.39966-3.597z"/><path d="m20.0314 535.927 1.9285 2.555 1.1127-3.97z"/><path d="m492.487 552.371 3.041-1.414-2.886-4.084z"/><path d="m512.153 511.411 2.583-2.928-2.442-2.07z"/><path d="m461.042 549.981 4.611-3.871-3.399-3.597z"/><path d="m477.03 532.927 1.929 2.555 1.113-3.97z"/><path d="m438.487 560.371 3.041-1.414-2.886-4.084z"/><path d="m458.153 519.411 2.583-2.928-2.442-2.07z"/><path d="m407.042 557.981 4.611-3.871-3.399-3.597z"/><path d="m423.03 540.927 1.929 2.555 1.113-3.97z"/><path d="m327.818 511.463 2.87 1.736 1.781-4.673z"/><path d="m372.785 504.946 3.872.512.356-3.182z"/><path d="m312.267 484.028 5.785 1.669 1.091-4.828z"/><path d="m335.34 487.79-1.046 3.025 3.916-1.29z"/><path d="m784.818 508.463 2.87 1.736 1.781-4.673z"/><path d="m829.785 501.946 3.872.512.356-3.182z"/><path d="m769.267 481.028 5.785 1.669 1.091-4.828z"/><path d="m792.34 484.79-1.046 3.025 3.916-1.29z"/><path d="m1003.14 525.766-2.87-1.738-1.781 4.67z"/><path d="m958.17 532.243-3.871-.516-.359 3.182z"/><path d="m1018.67 553.214-5.78-1.674-1.1 4.827z"/><path d="m995.6 549.432 1.048-3.025-3.917 1.287z"/><path d="m1157.99 514.649-2.4 2.347 4.09 2.889z"/><path d="m1153.09 559.821-1.46 3.622 2.99 1.138z"/><path d="m1188.44 506.428-3.06 5.186 4.4 2.26z"/><path d="m1179.04 527.835-2.67-1.767.28 4.114z"/><path d="m326.818 560.463 2.87 1.736 1.781-4.673z"/><path d="m371.785 553.946 3.872.512.356-3.182z"/><path d="m311.267 533.028 5.785 1.669 1.091-4.828z"/><path d="m334.34 536.79-1.046 3.025 3.916-1.29z"/><path d="m783.818 557.463 2.87 1.736 1.781-4.673z"/><path d="m828.785 550.946 3.872.512.356-3.182z"/><path d="m768.267 530.028 5.785 1.669 1.091-4.828z"/><path d="m791.34 533.79-1.046 3.025 3.916-1.29z"/><path d="m1004.19 476.766-2.87-1.738-1.786 4.67z"/><path d="m959.215 483.243-3.871-.516-.359 3.182z"/><path d="m1019.71 504.214-5.78-1.674-1.09 4.827z"/><path d="m996.645 500.432 1.048-3.025-3.917 1.287z"/><path d="m249.819 507.463 2.87 1.736 1.781-4.673z"/><path d="m294.786 500.946 3.872.512.356-3.182z"/><path d="m234.268 480.028 5.785 1.669 1.091-4.828z"/><path d="m257.341 483.79-1.046 3.025 3.916-1.29z"/><path d="m706.818 504.463 2.87 1.736 1.781-4.673z"/><path d="m751.785 497.946 3.872.512.356-3.182z"/><path d="m691.267 477.028 5.785 1.669 1.091-4.828z"/><path d="m714.34 480.79-1.046 3.025 3.916-1.29z"/><path d="m1081.14 529.836-2.87-1.738-1.78 4.671z"/><path d="m1036.17 536.313-3.87-.516-.36 3.182z"/><path d="m1096.67 557.285-5.79-1.674-1.09 4.827z"/><path d="m1073.6 553.503 1.05-3.025-3.92 1.287z"/><path d="m108.819 564.463 2.87 1.736 1.781-4.673z"/><path d="m153.786 557.946 3.872.512.356-3.182z"/><path d="m93.2683 537.028 5.7848 1.669 1.0909-4.828z"/><path d="m116.341 540.79-1.046 3.025 3.916-1.29z"/><path d="m565.818 561.463 2.87 1.736 1.781-4.673z"/><path d="m610.785 554.946 3.872.512.356-3.182z"/><path d="m550.267 534.028 5.785 1.669 1.091-4.828z"/><path d="m573.34 537.79-1.046 3.025 3.916-1.29z"/><path d="m16.8193 506.463 2.8702 1.736 1.7802-4.673z"/><path d="m61.7863 499.946 3.8715.512.3561-3.182z"/><path d="m1.26827 479.028 5.78484 1.669 1.09049-4.828z"/><path d="m24.341 482.79-1.0459 3.025 3.916-1.29z"/><path d="m473.818 503.463 2.87 1.736 1.781-4.673z"/><path d="m518.785 496.946 3.872.512.356-3.182z"/><path d="m458.267 476.028 5.785 1.669 1.091-4.828z"/><path d="m481.34 479.79-1.046 3.025 3.916-1.29z"/><path d="m417.667 489.028-3.157 1.134 2.505 4.327z"/><path d="m394.383 528.045-2.838 2.683 2.246 2.282z"/><path d="m448.767 494.247-4.942 3.439 3.061 3.89z"/><path d="m431.304 509.789-1.69-2.72-1.466 3.854z"/><path d="m874.667 486.028-3.157 1.134 2.505 4.327z"/><path d="m851.383 525.045-2.838 2.683 2.246 2.282z"/><path d="m905.767 491.247-4.942 3.439 3.061 3.89z"/><path d="m888.304 506.789-1.69-2.72-1.466 3.854z"/><path d="m913.275 548.122 3.157-1.132-2.501-4.329z"/><path d="m936.594 509.125 2.84-2.68-2.244-2.284z"/><path d="m882.179 542.875 4.945-3.435-3.058-3.893z"/><path d="m899.656 527.349 1.687 2.72 1.47-3.852z"/><path d="m1156.01 473.064-3.35.058.98 4.903z"/><path d="m1121.41 502.515-3.55 1.627 1.4 2.883z"/><path d="m1183.78 488.012-5.78 1.666 1.64 4.668z"/><path d="m1162.25 497.109-.73-3.119-2.63 3.177z"/><path d="m166.474 526.82-2.265-2.474-3.025 3.98z"/><path d="m121.494 520.395-3.57-1.583-1.239 2.952z"/><path d="m173.659 557.526-5.079-3.232-2.408 4.325z"/><path d="m152.583 547.412 1.857-2.608-4.121.134z"/><path d="m623.475 523.82-2.265-2.474-3.025 3.98z"/><path d="m578.495 517.395-3.57-1.583-1.239 2.952z"/><path d="m630.66 554.526-5.079-3.232-2.408 4.325z"/><path d="m609.584 544.412 1.856-2.608-4.12.134z"/><path d="m198.663 521.367 2.193 2.538 3.137-3.894z"/><path d="m243.444 529.062 3.523 1.683 1.322-2.917z"/><path d="m192.348 490.47 4.987 3.375 2.528-4.255z"/><path d="m213.13 501.176-1.929 2.555 4.123-.018z"/><path d="m655.663 518.367 2.193 2.538 3.137-3.894z"/><path d="m700.444 526.062 3.523 1.683 1.322-2.917z"/><path d="m649.348 487.47 4.987 3.375 2.528-4.255z"/><path d="m670.13 498.176-1.929 2.555 4.123-.018z"/><path d="m1132.31 515.975-2.19-2.539-3.14 3.891z"/><path d="m1087.54 508.241-3.53-1.686-1.32 2.915z"/><path d="m1138.6 546.878-4.99-3.379-2.53 4.253z"/><path d="m1117.82 536.154 1.94-2.553-4.13.013z"/><path d="m181.207 481.784-2.715-1.969-2.164 4.507z"/><path d="m135.853 484.527-3.815-.834-.62 3.141z"/><path d="m194.415 510.42-5.625-2.146-1.489 4.721z"/><path d="m171.737 504.747 1.295-2.928-4.01.959z"/><path d="m638.208 478.784-2.715-1.969-2.164 4.507z"/><path d="m592.854 481.527-3.815-.834-.62 3.141z"/><path d="m651.416 507.42-5.625-2.146-1.489 4.721z"/><path d="m628.738 501.747 1.295-2.928-4.01.959z"/></g><path d="m62.5 425.5h-4v4.5z" fill="#acdeb6"/><path d="m78.5 437 2-3 1.5 3z" fill="#acdeb6"/><path d="m519.5 422.5h-4v4.5z" fill="#acdeb6"/><path d="m535.5 434 2-3 1.5 3z" fill="#acdeb6"/><path d="m284.336 441.367 3.998.113.127-4.498z" fill="#acdeb6"/><path d="m268.667 429.42-2.084 2.942-1.415-3.041z" fill="#acdeb6"/><path d="m741.336 438.367 3.998.113.127-4.498z" fill="#acdeb6"/><path d="m725.667 426.42-2.084 2.942-1.415-3.041z" fill="#acdeb6"/><path d="m40.0621 443.246 3.9984.113.1273-4.498z" fill="#acdeb6"/><path d="m24.3936 431.299-2.084 2.942-1.4146-3.041z" fill="#acdeb6"/><path d="m497.062 440.246 3.999.113.127-4.498z" fill="#acdeb6"/><path d="m481.394 428.299-2.084 2.942-1.415-3.041z" fill="#acdeb6"/><path d="m436.671 451.855 2.763 2.893 3.254-3.108z" fill="#acdeb6"/><path d="m433.938 432.342-3.551.625 1.133-3.156z" fill="#acdeb6"/><path d="m969.869 433.698-2.133-3.384-3.807 2.4z" fill="#acdeb6"/><path d="m968.671 453.366 3.605.092-1.739 2.869z" fill="#acdeb6"/><path d="m393.331 415.845-3.972-.474-.532 4.468z" fill="#acdeb6"/><path d="m407.857 429.158 2.341-2.742 1.134 3.157z" fill="#acdeb6"/><path d="m850.331 412.845-3.972-.474-.532 4.468z" fill="#acdeb6"/><path d="m864.857 426.158 2.341-2.742 1.134 3.157z" fill="#acdeb6"/><path d="m919.628 437.318 3.972.477.536-4.468z" fill="#acdeb6"/><path d="m905.114 423.991-2.343 2.74-1.132-3.157z" fill="#acdeb6"/><path d="m1094.6 464.843 3.97.477.54-4.468z" fill="#acdeb6"/><path d="m1080.09 451.517-2.35 2.739-1.13-3.157z" fill="#acdeb6"/><path d="m134.197 427.933-1.095-3.847-4.328 1.233z" fill="#acdeb6"/><path d="m127.52 446.471 3.433 1.102-2.475 2.264z" fill="#acdeb6"/><path d="m591.197 424.933-1.095-3.847-4.328 1.233z" fill="#acdeb6"/><path d="m584.52 443.471 3.433 1.102-2.475 2.264z" fill="#acdeb6"/><path d="m212.735 436.909.987 3.876 4.361-1.11z" fill="#acdeb6"/><path d="m219.934 418.567-3.4-1.199 2.537-2.193z" fill="#acdeb6"/><path d="m669.736 433.909.987 3.876 4.361-1.11z" fill="#acdeb6"/><path d="m676.935 415.567-3.4-1.199 2.537-2.193z" fill="#acdeb6"/><path d="m1100.24 416.416-.98-3.877-4.36 1.106z" fill="#acdeb6"/><path d="m1093.03 434.752 3.4 1.201-2.54 2.192z" fill="#acdeb6"/><path d="m177.808 455.733.987 3.876 4.361-1.109z" fill="#acdeb6"/><path d="m185.007 437.391-3.4-1.198 2.537-2.194z" fill="#acdeb6"/><path d="m634.808 452.733.987 3.876 4.361-1.109z" fill="#acdeb6"/><path d="m642.007 434.391-3.4-1.198 2.537-2.194z" fill="#acdeb6"/><path d="m315.597 450.256-.113 3.998-3.456-1.598z" fill="#acdeb6"/><path d="m772.597 447.256-.113 3.998-3.456-1.598z" fill="#acdeb6"/><path d="m71.323 452.134-.113 3.999-3.4562-1.599z" fill="#acdeb6"/><path d="m528.322 449.134-.113 3.999-3.456-1.599z" fill="#acdeb6"/><path d="m353.148 450.415-3.382 2.136-.601-3.76z" fill="#acdeb6"/><path d="m810.148 447.415-3.382 2.136-.601-3.76z" fill="#acdeb6"/><path d="m1047.7 442.318 3.39-2.132.6 3.76z" fill="#acdeb6"/><path d="m949.95 449.021-.477 3.971-3.296-1.907z" fill="#acdeb6"/><path d="m846.952 464.417-.477 3.972-3.296-1.907z" fill="#acdeb6"/><path d="m1112.95 430.825-.48 3.972-3.29-1.907z" fill="#acdeb6"/><path d="m1152.95 444.417-.48 3.972-3.29-1.907z" fill="#acdeb6"/><path d="m212.751 469.408-3.876.987.591-3.762z" fill="#acdeb6"/><path d="m669.751 466.408-3.876.987.591-3.762z" fill="#acdeb6"/><path d="m107.74 466.392-3.877.987.591-3.762z" fill="#acdeb6"/><path d="m564.74 463.392-3.877.987.591-3.762z" fill="#acdeb6"/><path d="m308.49 471.562 5.111-3.857-4.913-3.14z" fill="#acdeb6"/><path d="m765.49 468.562 5.111-3.857-4.913-3.14z" fill="#acdeb6"/><path d="m257 469.997 5.111-3.857-4.913-3.14z" fill="#acdeb6"/><path d="m714 466.997 5.111-3.857-4.913-3.14z" fill="#acdeb6"/><path d="m1023.94 456.259-5.11 3.853 4.91 3.144z" fill="#acdeb6"/><path d="m64.2178 473.441 5.1111-3.857-4.9132-3.141z" fill="#acdeb6"/><path d="m521.217 470.441 5.111-3.857-4.913-3.141z" fill="#acdeb6"/><path d="m331.5 456.397 6.052 2.092-.133-5.829z" fill="#acdeb6"/><path d="m788.5 453.397 6.052 2.092-.133-5.829z" fill="#acdeb6"/><path d="m885.588 461.23-6.05-2.097.128 5.829z" fill="#acdeb6"/><path d="m287 458.737 6.052 2.092-.133-5.829z" fill="#acdeb6"/><path d="m744 455.737 6.052 2.092-.133-5.829z" fill="#acdeb6"/><path d="m1041.94 463.535-6.05-2.098.12 5.83z" fill="#acdeb6"/><path d="m940.93 469.589 5.442-3.375-4.607-3.575z" fill="#acdeb6"/><path d="m1103.93 451.394 5.44-3.375-4.6-3.575z" fill="#acdeb6"/><path d="m190.312 468.412 5.109 3.859 1.675-5.585z" fill="#acdeb6"/><path d="m647.312 465.412 5.109 3.859 1.675-5.585z" fill="#acdeb6"/><path d="m1168.01 465.847-5.1-3.864-1.68 5.584z" fill="#acdeb6"/><path d="m75.5 405-3 1.5 3 4z" fill="#e7e88c"/><path d="m57 446.5-2.5 3 2.5 2z" fill="#e7e88c"/><path d="m107 406.5-4.5 4 3.5 3.5z" fill="#e7e88c"/><path d="m91.5 424-2-2.5-1 4z" fill="#e7e88c"/><path d="m532.5 402-3 1.5 3 4z" fill="#e7e88c"/><path d="m514 443.5-2.5 3 2.5 2z" fill="#e7e88c"/><path d="m564 403.5-4.5 4 3.5 3.5z" fill="#e7e88c"/><path d="m548.5 421-2-2.5-1 4z" fill="#e7e88c"/><path d="m270.76 461.492 3.042-1.414-2.886-4.083z" fill="#e7e88c"/><path d="m290.426 420.532 2.584-2.928-2.443-2.07z" fill="#e7e88c"/><path d="m239.315 459.102 4.612-3.871-3.4-3.597z" fill="#e7e88c"/><path d="m255.304 442.048 1.928 2.555 1.113-3.97z" fill="#e7e88c"/><path d="m727.76 458.492 3.042-1.414-2.886-4.083z" fill="#e7e88c"/><path d="m747.426 417.532 2.584-2.928-2.443-2.07z" fill="#e7e88c"/><path d="m696.315 456.102 4.612-3.871-3.4-3.597z" fill="#e7e88c"/><path d="m712.304 439.048 1.928 2.555 1.113-3.97z" fill="#e7e88c"/><path d="m1042.24 391.78-3.04 1.412 2.88 4.086z" fill="#e7e88c"/><path d="m1022.54 432.723-2.59 2.926 2.44 2.072z" fill="#e7e88c"/><path d="m1073.68 394.198-4.61 3.867 3.39 3.601z" fill="#e7e88c"/><path d="m1057.68 411.239-1.93-2.558-1.11 3.97z" fill="#e7e88c"/><path d="m26.4879 463.371 3.0412-1.414-2.8857-4.084z" fill="#e7e88c"/><path d="m46.1536 422.411 2.5838-2.928-2.4424-2.07z" fill="#e7e88c"/><path d="m-4.95712 460.981 4.611269-3.871-3.399659-3.597z" fill="#e7e88c"/><path d="m11.0314 443.927 1.9285 2.555 1.1127-3.97z" fill="#e7e88c"/><path d="m483.487 460.371 3.041-1.414-2.886-4.084z" fill="#e7e88c"/><path d="m503.153 419.411 2.583-2.928-2.442-2.07z" fill="#e7e88c"/><path d="m452.042 457.981 4.611-3.871-3.399-3.597z" fill="#e7e88c"/><path d="m468.03 440.927 1.929 2.555 1.113-3.97z" fill="#e7e88c"/><path d="m429.487 468.371 3.041-1.414-2.886-4.084z" fill="#e7e88c"/><path d="m449.153 427.411 2.583-2.928-2.442-2.07z" fill="#e7e88c"/><path d="m398.042 465.981 4.611-3.871-3.399-3.597z" fill="#e7e88c"/><path d="m414.03 448.927 1.929 2.555 1.113-3.97z" fill="#e7e88c"/><path d="m994.142 433.766-2.868-1.738-1.785 4.67z" fill="#e7e88c"/><path d="m949.17 440.243-3.871-.516-.359 3.182z" fill="#e7e88c"/><path d="m1009.67 461.214-5.78-1.674-1.1 4.827z" fill="#e7e88c"/><path d="m986.6 457.432 1.048-3.025-3.917 1.287z" fill="#e7e88c"/><path d="m1148.99 422.649-2.4 2.347 4.09 2.889z" fill="#e7e88c"/><path d="m1144.09 467.821-1.46 3.622 2.99 1.138z" fill="#e7e88c"/><path d="m1179.44 414.428-3.06 5.186 4.4 2.26z" fill="#e7e88c"/><path d="m1170.04 435.835-2.67-1.767.28 4.114z" fill="#e7e88c"/><path d="m317.818 468.463 2.87 1.736 1.781-4.673z" fill="#e7e88c"/><path d="m362.785 461.946 3.872.512.356-3.182z" fill="#e7e88c"/><path d="m302.267 441.028 5.785 1.669 1.091-4.828z" fill="#e7e88c"/><path d="m325.34 444.79-1.046 3.025 3.916-1.29z" fill="#e7e88c"/><path d="m774.818 465.463 2.87 1.736 1.781-4.673z" fill="#e7e88c"/><path d="m819.785 458.946 3.872.512.356-3.182z" fill="#e7e88c"/><path d="m759.267 438.028 5.785 1.669 1.091-4.828z" fill="#e7e88c"/><path d="m782.34 441.79-1.046 3.025 3.916-1.29z" fill="#e7e88c"/><path d="m1072.14 437.836-2.87-1.738-1.78 4.671z" fill="#e7e88c"/><path d="m1027.17 444.313-3.87-.516-.36 3.182z" fill="#e7e88c"/><path d="m1087.67 465.285-5.79-1.674-1.09 4.827z" fill="#e7e88c"/><path d="m1064.6 461.503 1.05-3.025-3.92 1.287z" fill="#e7e88c"/><path d="m99.8193 472.463 2.8697 1.736 1.781-4.673z" fill="#e7e88c"/><path d="m144.786 465.946 3.872.512.356-3.182z" fill="#e7e88c"/><path d="m84.2683 445.028 5.7848 1.669 1.0905-4.828z" fill="#e7e88c"/><path d="m107.341 448.79-1.046 3.025 3.916-1.29z" fill="#e7e88c"/><path d="m556.818 469.463 2.87 1.736 1.781-4.673z" fill="#e7e88c"/><path d="m601.785 462.946 3.872.512.356-3.182z" fill="#e7e88c"/><path d="m541.267 442.028 5.785 1.669 1.091-4.828z" fill="#e7e88c"/><path d="m564.34 445.79-1.046 3.025 3.916-1.29z" fill="#e7e88c"/><path d="m408.667 397.028-3.157 1.134 2.505 4.327z" fill="#e7e88c"/><path d="m385.383 436.045-2.838 2.683 2.246 2.282z" fill="#e7e88c"/><path d="m439.767 402.247-4.942 3.439 3.061 3.89z" fill="#e7e88c"/><path d="m422.304 417.789-1.69-2.72-1.466 3.854z" fill="#e7e88c"/><path d="m865.667 394.028-3.157 1.134 2.505 4.327z" fill="#e7e88c"/><path d="m842.383 433.045-2.838 2.683 2.246 2.282z" fill="#e7e88c"/><path d="m896.767 399.247-4.942 3.439 3.061 3.89z" fill="#e7e88c"/><path d="m879.304 414.789-1.69-2.72-1.466 3.854z" fill="#e7e88c"/><path d="m904.275 456.122 3.157-1.132-2.501-4.329z" fill="#e7e88c"/><path d="m927.594 417.125 2.84-2.68-2.244-2.284z" fill="#e7e88c"/><path d="m873.179 450.875 4.945-3.435-3.058-3.893z" fill="#e7e88c"/><path d="m890.656 435.349 1.687 2.72 1.47-3.852z" fill="#e7e88c"/><path d="m157.474 434.82-2.265-2.474-3.025 3.98z" fill="#e7e88c"/><path d="m112.494 428.395-3.57-1.583-1.239 2.952z" fill="#e7e88c"/><path d="m164.659 465.526-5.079-3.232-2.408 4.325z" fill="#e7e88c"/><path d="m143.583 455.412 1.857-2.608-4.121.134z" fill="#e7e88c"/><path d="m614.475 431.82-2.265-2.474-3.025 3.98z" fill="#e7e88c"/><path d="m569.495 425.395-3.57-1.583-1.239 2.952z" fill="#e7e88c"/><path d="m621.66 462.526-5.079-3.232-2.408 4.325z" fill="#e7e88c"/><path d="m600.584 452.412 1.856-2.608-4.12.134z" fill="#e7e88c"/><path d="m189.663 429.367 2.193 2.538 3.137-3.894z" fill="#e7e88c"/><path d="m234.444 437.062 3.523 1.683 1.322-2.917z" fill="#e7e88c"/><path d="m183.348 398.47 4.987 3.375 2.528-4.255z" fill="#e7e88c"/><path d="m204.13 409.176-1.929 2.555 4.123-.018z" fill="#e7e88c"/><path d="m646.663 426.367 2.193 2.538 3.137-3.894z" fill="#e7e88c"/><path d="m691.444 434.062 3.523 1.683 1.322-2.917z" fill="#e7e88c"/><path d="m640.348 395.47 4.987 3.375 2.528-4.255z" fill="#e7e88c"/><path d="m661.13 406.176-1.929 2.555 4.123-.018z" fill="#e7e88c"/><path d="m1123.31 423.975-2.19-2.539-3.14 3.891z" fill="#e7e88c"/><path d="m1078.54 416.241-3.53-1.686-1.32 2.915z" fill="#e7e88c"/><path d="m1129.6 454.878-4.99-3.379-2.53 4.253z" fill="#e7e88c"/><path d="m1108.82 444.154 1.94-2.553-4.13.013z" fill="#e7e88c"/><path d="m1130.72 612.5h4v4.5z" fill="#acdeb6"/><path d="m1114.72 624-2-3-1.5 3z" fill="#acdeb6"/><path d="m673.719 609.5h4v4.5z" fill="#acdeb6"/><path d="m657.719 621-2-3-1.5 3z" fill="#acdeb6"/><path d="m908.883 628.367-3.998.113-.127-4.498z" fill="#acdeb6"/><path d="m924.552 616.42 2.084 2.942 1.414-3.041z" fill="#acdeb6"/><path d="m451.883 625.367-3.998.113-.127-4.498z" fill="#acdeb6"/><path d="m467.552 613.42 2.084 2.942 1.414-3.041z" fill="#acdeb6"/><path d="m164.572 598.892 3.998-.117.132 4.498z" fill="#acdeb6"/><path d="m148.914 610.854-2.086-2.941-1.412 3.043z" fill="#acdeb6"/><path d="m1153.16 630.246-4 .113-.13-4.498z" fill="#acdeb6"/><path d="m1168.83 618.299 2.08 2.942 1.41-3.041z" fill="#acdeb6"/><path d="m696.157 627.246-3.999.113-.127-4.498z" fill="#acdeb6"/><path d="m711.825 615.299 2.084 2.942 1.415-3.041z" fill="#acdeb6"/><path d="m756.548 638.855-2.763 2.893-3.254-3.108z" fill="#acdeb6"/><path d="m759.281 619.342 3.551.625-1.134-3.156z" fill="#acdeb6"/><path d="m1097.73 587.047-4 .113-.13-4.498z" fill="#acdeb6"/><path d="m1113.4 575.099 2.08 2.943 1.41-3.042z" fill="#acdeb6"/><path d="m640.727 584.047-3.998.113-.128-4.498z" fill="#acdeb6"/><path d="m656.395 572.099 2.084 2.943 1.415-3.042z" fill="#acdeb6"/><path d="m850.124 606.509-2.136 3.382-3.805-2.403z" fill="#acdeb6"/><path d="m848.944 586.84 3.604-.089-1.735-2.87z" fill="#acdeb6"/><path d="m393.124 603.509-2.136 3.382-3.805-2.403z" fill="#acdeb6"/><path d="m391.944 583.84 3.604-.089-1.735-2.87z" fill="#acdeb6"/><path d="m223.351 620.698 2.132-3.384 3.807 2.4z" fill="#acdeb6"/><path d="m224.548 640.366-3.604.092 1.738 2.869z" fill="#acdeb6"/><path d="m54.3575 588.384 2.1327-3.384 3.807 2.399z" fill="#acdeb6"/><path d="m55.5553 608.052-3.6044.092 1.7382 2.869z" fill="#acdeb6"/><path d="m799.888 602.845 3.971-.474.533 4.468z" fill="#acdeb6"/><path d="m785.362 616.158-2.341-2.742-1.135 3.157z" fill="#acdeb6"/><path d="m342.888 599.845 3.971-.474.533 4.468z" fill="#acdeb6"/><path d="m328.362 613.158-2.341-2.742-1.135 3.157z" fill="#acdeb6"/><path d="m273.591 624.318-3.972.477-.537-4.468z" fill="#acdeb6"/><path d="m288.104 610.991 2.344 2.74 1.131-3.157z" fill="#acdeb6"/><path d="m974.886 575.474 3.971-.474.533 4.468z" fill="#acdeb6"/><path d="m960.36 588.787-2.341-2.742-1.134 3.157z" fill="#acdeb6"/><path d="m517.886 572.474 3.971-.474.533 4.468z" fill="#acdeb6"/><path d="m503.36 585.787-2.341-2.742-1.134 3.157z" fill="#acdeb6"/><path d="m1059.02 614.933 1.1-3.847 4.33 1.233z" fill="#acdeb6"/><path d="m1065.7 633.471-3.43 1.102 2.47 2.264z" fill="#acdeb6"/><path d="m602.022 611.933 1.095-3.847 4.328 1.233z" fill="#acdeb6"/><path d="m608.699 630.471-3.433 1.102 2.475 2.264z" fill="#acdeb6"/><path d="m980.483 623.909-.987 3.876-4.361-1.11z" fill="#acdeb6"/><path d="m973.284 605.567 3.4-1.199-2.537-2.193z" fill="#acdeb6"/><path d="m523.483 620.909-.987 3.876-4.361-1.11z" fill="#acdeb6"/><path d="m516.284 602.567 3.4-1.199-2.537-2.193z" fill="#acdeb6"/><path d="m92.976 603.416.983-3.877 4.362 1.106z" fill="#acdeb6"/><path d="m100.191 621.752-3.3992 1.201 2.5394 2.192z" fill="#acdeb6"/><path d="m1015.41 642.733-.99 3.876-4.36-1.109z" fill="#acdeb6"/><path d="m1008.21 624.391 3.4-1.198-2.54-2.194z" fill="#acdeb6"/><path d="m558.41 639.733-.986 3.876-4.361-1.109z" fill="#acdeb6"/><path d="m551.211 621.391 3.401-1.198-2.538-2.194z" fill="#acdeb6"/><path d="m1030.41 605.733-.99 3.876-4.36-1.109z" fill="#acdeb6"/><path d="m1023.21 587.391 3.4-1.198-2.54-2.194z" fill="#acdeb6"/><path d="m573.41 602.733-.986 3.876-4.361-1.109z" fill="#acdeb6"/><path d="m566.211 584.391 3.401-1.198-2.538-2.194z" fill="#acdeb6"/><path d="m1162.22 604.5v-4l-3.5 1.5z" fill="#acdeb6"/><path d="m705.219 601.5v-4l-3.5 1.5z" fill="#acdeb6"/><path d="m877.621 637.256.113 3.998 3.457-1.598z" fill="#acdeb6"/><path d="m420.621 634.256.113 3.998 3.457-1.598z" fill="#acdeb6"/><path d="m195.826 589.977-.117-3.998-3.455 1.601z" fill="#acdeb6"/><path d="m664.897 636.134.113 3.999 3.456-1.599z" fill="#acdeb6"/><path d="m1186.61 586.099.11 3.999 3.46-1.599z" fill="#acdeb6"/><path d="m729.608 583.099.113 3.999 3.456-1.599z" fill="#acdeb6"/><path d="m840.071 637.415 3.382 2.136.601-3.76z" fill="#acdeb6"/><path d="m383.071 634.415 3.382 2.136.601-3.76z" fill="#acdeb6"/><path d="m233.377 589.783-3.384-2.133-.597 3.761z" fill="#acdeb6"/><path d="m245.219 608.133-3.384-2.133-.597 3.761z" fill="#acdeb6"/><path d="m927.968 597.96 3.382 2.136.6-3.761z" fill="#acdeb6"/><path d="m470.968 594.96 3.382 2.136.6-3.761z" fill="#acdeb6"/><path d="m145.515 629.318-3.384-2.132-.597 3.76z" fill="#acdeb6"/><path d="m830.22 591.169-.474-3.972-3.298 1.904z" fill="#acdeb6"/><path d="m373.22 588.169-.474-3.972-3.298 1.904z" fill="#acdeb6"/><path d="m243.27 636.021.477 3.971 3.296-1.907z" fill="#acdeb6"/><path d="m80.2699 617.825.4772 3.972 3.296-1.907z" fill="#acdeb6"/><path d="m40.267 631.417.4771 3.972 3.2961-1.907z" fill="#acdeb6"/><path d="m1059.96 582.447-3.85-1.095.48 3.777z" fill="#acdeb6"/><path d="m602.956 579.447-3.847-1.095.484 3.777z" fill="#acdeb6"/><path d="m92.9633 570.915-3.8774-.983.5939 3.761z" fill="#acdeb6"/><path d="m1155.72 583 5 4-5 3z" fill="#acdeb6"/><path d="m698.719 580 5 4-5 3z" fill="#acdeb6"/><path d="m188.701 568.677 5.115 3.853-4.911 3.144z" fill="#acdeb6"/><path d="m137.211 570.286 5.115 3.853-4.911 3.144z" fill="#acdeb6"/><path d="m904.219 583.997-5.111-3.857 4.913-3.14z" fill="#acdeb6"/><path d="m447.219 580.997-5.111-3.857 4.913-3.14z" fill="#acdeb6"/><path d="m404.719 640.397-6.052 2.092.133-5.829z" fill="#acdeb6"/><path d="m211.724 583.82 6.05-2.097-.128 5.829z" fill="#acdeb6"/><path d="m308.631 577.529 6.05-2.097-.128 5.829z" fill="#acdeb6"/><path d="m167.221 581.521 6.05-2.097-.128 5.829z" fill="#acdeb6"/><path d="m264.128 575.23 6.05-2.097-.128 5.829z" fill="#acdeb6"/><path d="m922.219 576.737-6.052 2.092.133-5.829z" fill="#acdeb6"/><path d="m465.219 573.737-6.052 2.092.133-5.829z" fill="#acdeb6"/><path d="m821.219 570.592 5.438 3.38-4.609 3.571z" fill="#acdeb6"/><path d="m364.219 567.592 5.438 3.38-4.609 3.571z" fill="#acdeb6"/><path d="m89.2885 638.394-5.4415-3.375 4.6064-3.575z" fill="#acdeb6"/><path d="m1037.5 582.809 5.21-3.713 1.52 5.63z" fill="#acdeb6"/><path d="m580.498 579.809 5.216-3.713 1.516 5.63z" fill="#acdeb6"/><path d="m70.5252 571.931 5.106-3.864 1.6793 5.584z" fill="#acdeb6"/><path d="m24.2048 578.847 5.1061-3.864 1.6793 5.584z" fill="#acdeb6"/><path d="m1117.72 592 3 1.5-3 4z" fill="#e7e88c"/><path d="m1136.22 633.5 2.5 3-2.5 2z" fill="#e7e88c"/><path d="m1086.22 593.5 4.5 4-3.5 3.5z" fill="#e7e88c"/><path d="m1101.72 611 2-2.5 1 4z" fill="#e7e88c"/><path d="m660.719 589 3 1.5-3 4z" fill="#e7e88c"/><path d="m679.219 630.5 2.5 3-2.5 2z" fill="#e7e88c"/><path d="m629.219 590.5 4.5 4-3.5 3.5z" fill="#e7e88c"/><path d="m644.719 608 2-2.5 1 4z" fill="#e7e88c"/><path d="m922.458 648.492-3.041-1.414 2.886-4.083z" fill="#e7e88c"/><path d="m902.793 607.532-2.584-2.928 2.442-2.07z" fill="#e7e88c"/><path d="m953.903 646.102-4.611-3.871 3.4-3.597z" fill="#e7e88c"/><path d="m937.915 629.048-1.929 2.555-1.112-3.97z" fill="#e7e88c"/><path d="m465.458 645.492-3.041-1.414 2.886-4.083z" fill="#e7e88c"/><path d="m445.793 604.532-2.584-2.928 2.442-2.07z" fill="#e7e88c"/><path d="m496.903 643.102-4.611-3.871 3.4-3.597z" fill="#e7e88c"/><path d="m480.915 626.048-1.929 2.555-1.112-3.97z" fill="#e7e88c"/><path d="m150.98 578.78 3.042 1.412-2.882 4.086z" fill="#e7e88c"/><path d="m170.682 619.723 2.586 2.926-2.44 2.072z" fill="#e7e88c"/><path d="m119.537 581.198 4.614 3.867-3.396 3.601z" fill="#e7e88c"/><path d="m135.54 598.239 1.927-2.558 1.116 3.97z" fill="#e7e88c"/><path d="m1166.73 650.371-3.04-1.414 2.89-4.084z" fill="#e7e88c"/><path d="m1147.07 609.411-2.59-2.928 2.44-2.07z" fill="#e7e88c"/><path d="m1198.18 647.981-4.61-3.871 3.4-3.597z" fill="#e7e88c"/><path d="m1182.19 630.927-1.93 2.555-1.11-3.97z" fill="#e7e88c"/><path d="m709.732 647.371-3.041-1.414 2.885-4.084z" fill="#e7e88c"/><path d="m690.066 606.411-2.584-2.928 2.443-2.07z" fill="#e7e88c"/><path d="m741.177 644.981-4.611-3.871 3.399-3.597z" fill="#e7e88c"/><path d="m725.188 627.927-1.928 2.555-1.113-3.97z" fill="#e7e88c"/><path d="m763.732 655.371-3.041-1.414 2.885-4.084z" fill="#e7e88c"/><path d="m744.066 614.411-2.584-2.928 2.443-2.07z" fill="#e7e88c"/><path d="m795.177 652.981-4.611-3.871 3.399-3.597z" fill="#e7e88c"/><path d="m779.188 635.927-1.928 2.555-1.113-3.97z" fill="#e7e88c"/><path d="m874.4 606.463-2.87 1.736-1.78-4.673z" fill="#e7e88c"/><path d="m829.433 599.946-3.871.512-.356-3.182z" fill="#e7e88c"/><path d="m889.951 579.028-5.784 1.669-1.091-4.828z" fill="#e7e88c"/><path d="m866.879 582.79 1.046 3.025-3.916-1.29z" fill="#e7e88c"/><path d="m417.4 603.463-2.87 1.736-1.78-4.673z" fill="#e7e88c"/><path d="m372.433 596.946-3.871.512-.356-3.182z" fill="#e7e88c"/><path d="m432.951 576.028-5.784 1.669-1.091-4.828z" fill="#e7e88c"/><path d="m409.879 579.79 1.046 3.025-3.916-1.29z" fill="#e7e88c"/><path d="m199.075 620.766 2.869-1.738 1.784 4.67z" fill="#e7e88c"/><path d="m244.048 627.243 3.871-.516.359 3.182z" fill="#e7e88c"/><path d="m183.549 648.214 5.783-1.674 1.095 4.827z" fill="#e7e88c"/><path d="m206.618 644.432-1.048-3.025 3.917 1.287z" fill="#e7e88c"/><path d="m44.2282 609.649 2.3963 2.347-4.081 2.889z" fill="#e7e88c"/><path d="m49.1267 654.821 1.4609 3.622-2.9924 1.138z" fill="#e7e88c"/><path d="m13.783 601.428 3.0584 5.186-4.4039 2.26z" fill="#e7e88c"/><path d="m23.1773 622.835 2.6697-1.767-.2734 4.114z" fill="#e7e88c"/><path d="m875.4 655.463-2.87 1.736-1.78-4.673z" fill="#e7e88c"/><path d="m830.433 648.946-3.871.512-.356-3.182z" fill="#e7e88c"/><path d="m890.951 628.028-5.784 1.669-1.091-4.828z" fill="#e7e88c"/><path d="m867.879 631.79 1.046 3.025-3.916-1.29z" fill="#e7e88c"/><path d="m418.4 652.463-2.87 1.736-1.78-4.673z" fill="#e7e88c"/><path d="m373.433 645.946-3.871.512-.356-3.182z" fill="#e7e88c"/><path d="m433.951 625.028-5.784 1.669-1.091-4.828z" fill="#e7e88c"/><path d="m410.879 628.79 1.046 3.025-3.916-1.29z" fill="#e7e88c"/><path d="m198.031 571.766 2.869-1.738 1.784 4.67z" fill="#e7e88c"/><path d="m243.004 578.243 3.871-.516.359 3.182z" fill="#e7e88c"/><path d="m182.505 599.214 5.783-1.674 1.095 4.827z" fill="#e7e88c"/><path d="m205.574 595.432-1.048-3.025 3.917 1.287z" fill="#e7e88c"/><path d="m952.4 602.463-2.87 1.736-1.78-4.673z" fill="#e7e88c"/><path d="m907.433 595.946-3.871.512-.356-3.182z" fill="#e7e88c"/><path d="m967.951 575.028-5.784 1.669-1.091-4.828z" fill="#e7e88c"/><path d="m944.879 578.79 1.046 3.025-3.916-1.29z" fill="#e7e88c"/><path d="m495.4 599.463-2.87 1.736-1.78-4.673z" fill="#e7e88c"/><path d="m450.433 592.946-3.871.512-.356-3.182z" fill="#e7e88c"/><path d="m510.951 572.028-5.784 1.669-1.091-4.828z" fill="#e7e88c"/><path d="m487.879 575.79 1.046 3.025-3.916-1.29z" fill="#e7e88c"/><path d="m121.079 624.836 2.869-1.738 1.784 4.671z" fill="#e7e88c"/><path d="m166.052 631.313 3.871-.516.359 3.182z" fill="#e7e88c"/><path d="m105.553 652.285 5.783-1.674 1.095 4.827z" fill="#e7e88c"/><path d="m128.622 648.503-1.049-3.025 3.918 1.287z" fill="#e7e88c"/><path d="m1093.4 659.463-2.87 1.736-1.78-4.673z" fill="#e7e88c"/><path d="m1048.43 652.946-3.87.512-.35-3.182z" fill="#e7e88c"/><path d="m1108.95 632.028-5.78 1.669-1.09-4.828z" fill="#e7e88c"/><path d="m1085.88 635.79 1.04 3.025-3.91-1.29z" fill="#e7e88c"/><path d="m636.4 656.463-2.87 1.736-1.78-4.673z" fill="#e7e88c"/><path d="m591.433 649.946-3.871.512-.356-3.182z" fill="#e7e88c"/><path d="m651.951 629.028-5.784 1.669-1.091-4.828z" fill="#e7e88c"/><path d="m628.879 632.79 1.046 3.025-3.916-1.29z" fill="#e7e88c"/><path d="m1185.4 601.463-2.87 1.736-1.78-4.673z" fill="#e7e88c"/><path d="m1140.43 594.946-3.87.512-.36-3.182z" fill="#e7e88c"/><path d="m1200.95 574.028-5.79 1.669-1.09-4.828z" fill="#e7e88c"/><path d="m1177.88 577.79 1.04 3.025-3.91-1.29z" fill="#e7e88c"/><path d="m728.4 598.463-2.87 1.736-1.78-4.673z" fill="#e7e88c"/><path d="m683.433 591.946-3.871.512-.356-3.182z" fill="#e7e88c"/><path d="m743.951 571.028-5.784 1.669-1.091-4.828z" fill="#e7e88c"/><path d="m720.879 574.79 1.046 3.025-3.916-1.29z" fill="#e7e88c"/><path d="m784.552 584.028 3.157 1.134-2.506 4.327z" fill="#e7e88c"/><path d="m807.836 623.045 2.838 2.683-2.246 2.282z" fill="#e7e88c"/><path d="m753.451 589.247 4.942 3.439-3.061 3.89z" fill="#e7e88c"/><path d="m770.914 604.789 1.69-2.72 1.467 3.854z" fill="#e7e88c"/><path d="m327.552 581.028 3.157 1.134-2.506 4.327z" fill="#e7e88c"/><path d="m350.836 620.045 2.838 2.683-2.246 2.282z" fill="#e7e88c"/><path d="m296.451 586.247 4.942 3.439-3.061 3.89z" fill="#e7e88c"/><path d="m313.914 601.789 1.69-2.72 1.467 3.854z" fill="#e7e88c"/><path d="m288.944 643.122-3.158-1.132 2.502-4.329z" fill="#e7e88c"/><path d="m265.625 604.125-2.84-2.68 2.244-2.284z" fill="#e7e88c"/><path d="m320.04 637.875-4.945-3.435 3.057-3.893z" fill="#e7e88c"/><path d="m302.563 622.349-1.688 2.72-1.47-3.852z" fill="#e7e88c"/><path d="m46.2061 568.064 3.3536.058-.9798 4.903z" fill="#e7e88c"/><path d="m80.8058 597.515 3.55 1.627-1.3919 2.883z" fill="#e7e88c"/><path d="m18.4385 583.012 5.7857 1.666-1.6466 4.668z" fill="#e7e88c"/><path d="m39.9736 592.109.7251-3.119 2.6285 3.177z" fill="#e7e88c"/><path d="m1035.75 621.82 2.26-2.474 3.03 3.98z" fill="#e7e88c"/><path d="m1080.73 615.395 3.57-1.583 1.23 2.952z" fill="#e7e88c"/><path d="m1028.56 652.526 5.08-3.232 2.41 4.325z" fill="#e7e88c"/><path d="m1049.64 642.412-1.86-2.608 4.12.134z" fill="#e7e88c"/><path d="m578.744 618.82 2.264-2.474 3.026 3.98z" fill="#e7e88c"/><path d="m623.724 612.395 3.57-1.583 1.239 2.952z" fill="#e7e88c"/><path d="m571.559 649.526 5.079-3.232 2.408 4.325z" fill="#e7e88c"/><path d="m592.635 639.412-1.857-2.608 4.121.134z" fill="#e7e88c"/><path d="m1003.56 616.367-2.2 2.538-3.134-3.894z" fill="#e7e88c"/><path d="m958.775 624.062-3.524 1.683-1.321-2.917z" fill="#e7e88c"/><path d="m1009.87 585.47-4.99 3.375-2.52-4.255z" fill="#e7e88c"/><path d="m989.088 596.176 1.93 2.555-4.123-.018z" fill="#e7e88c"/><path d="m546.556 613.367-2.194 2.538-3.136-3.894z" fill="#e7e88c"/><path d="m501.775 621.062-3.524 1.683-1.321-2.917z" fill="#e7e88c"/><path d="m552.87 582.47-4.986 3.375-2.529-4.255z" fill="#e7e88c"/><path d="m532.088 593.176 1.93 2.555-4.123-.018z" fill="#e7e88c"/><path d="m69.9106 610.975 2.1912-2.539 3.1401 3.891z" fill="#e7e88c"/><path d="m114.684 603.241 3.523-1.686 1.324 2.915z" fill="#e7e88c"/><path d="m63.6235 641.878 4.9832-3.379 2.5325 4.253z" fill="#e7e88c"/><path d="m84.3959 631.154-1.9318-2.553 4.1231.013z" fill="#e7e88c"/><path d="m1021.01 576.784 2.72-1.969 2.16 4.507z" fill="#e7e88c"/><path d="m1066.36 579.527 3.82-.834.62 3.141z" fill="#e7e88c"/><path d="m1007.8 605.42 5.63-2.146 1.49 4.721z" fill="#e7e88c"/><path d="m1030.48 599.747-1.29-2.928 4.01.959z" fill="#e7e88c"/><path d="m564.011 573.784 2.715-1.969 2.164 4.507z" fill="#e7e88c"/><path d="m609.364 576.527 3.816-.834.62 3.141z" fill="#e7e88c"/><path d="m550.802 602.42 5.626-2.146 1.489 4.721z" fill="#e7e88c"/><path d="m573.481 596.747-1.295-2.928 4.01.959z" fill="#e7e88c"/></g><g filter="url(#b)"><path d="m538.523 310.177c0-10.298 8.348-18.646 18.646-18.646h879.861c10.3 0 18.64 8.348 18.64 18.646v198.613h-898.023c-10.562 0-19.124-8.561-19.124-19.123z" fill="#000"/><path d="m554.26 356.089c0-6.026 4.885-10.911 10.911-10.911h62.366v72.739h-73.277z" fill="#89cdd3"/><path d="m538.523 308.807c0-9.541 7.735-17.276 17.276-17.276h899.871v41.038h-917.147z" fill="#539882"/><g fill="#89cdd3"><path d="m792.938 344.641h84.7926v73.6489h-84.7926z"/><path d="m905.518 344.641h84.7926v73.6489h-84.7926z"/><path d="m1018.1 344.641h84.7926v73.6489h-84.7926z"/><path d="m1130.69 344.641h84.7926v73.6489h-84.7926z"/></g><path d="m644.283 344.27h127.712v163.664h-127.712z" fill="#539882"/><path d="m707.619 344.27v163.664" stroke="#000" stroke-width="3.63698"/><rect fill="#89cdd3" height="110.928" rx="6.36472" width="43.9665" x="652.66" y="351.541"/><rect fill="#89cdd3" height="110.928" rx="6.36472" width="43.9665" x="718.611" y="351.541"/><path d="m773.367 455.682h683.693" stroke="#539882" stroke-width="16.8979"/><path d="m873.496 293.955-64.85-33.796 64.85-33.796" stroke="#000" stroke-width="3.46624"/><path d="m872.497 293.945 64.849-33.796-64.849-33.795" stroke="#000" stroke-width="3.46624"/></g><g filter="url(#c)"><path d="m0 222.736h1196" stroke="#000" stroke-width="4.82798"/></g><g mask="url(#g)"><g filter="url(#d)"><path clip-rule="evenodd" d="m1073.48 403.86c-1.35-.723-3.03-.214-3.76 1.139-3.95 7.389-6.47 11.396-8.75 14.232-2.12 2.642-4.07 4.328-7.04 6.905-.19.165-.39.333-.59.505l3.64 4.198c.22-.194.45-.385.66-.573 2.91-2.515 5.22-4.511 7.66-7.559 2.61-3.25 5.33-7.626 9.32-15.087.72-1.353.21-3.036-1.14-3.76z" fill="#35675b" fill-rule="evenodd"/><path clip-rule="evenodd" d="m1070.63 404.171c-.22-.12-.5-.035-.62.19-3.97 7.421-6.54 11.552-8.92 14.531-2.22 2.79-4.29 4.58-7.24 7.134-.2.169-.4.341-.6.518l.61.699c.2-.18.41-.356.61-.53 2.94-2.543 5.07-4.385 7.35-7.244 2.43-3.048 5.03-7.241 9-14.671.12-.226.04-.506-.19-.627z" fill="#407967" fill-rule="evenodd"/><path d="m1097.28 435.379c-.72-8-5.1-26.555-16.8-36.777-1.87 0-7.03.872-12.76 4.363.94 8.415-4.04 22.129-8.4 32.414 5.6 5.61 23.96 8.415 37.96 0z" fill="#539882"/><path d="m1067.81 404.091c-.11 1.198-1.77 8.262-2.99 11.393l4.21.292 1.57-6.58z" fill="#539882"/><path d="m1097.28 434.927c-.72-7.901-5.06-26.226-16.68-36.322-1.24 0-.31-.154-.31 1.539 8.65 11.851 14.52 26.472 12.05 37.245 2.47-1.077 2.93-1.385 4.94-2.462z" fill="#468677"/><path d="m1060.97 368.537c-3.03 3.619-4.27 6.219-5.26 7.016-.78.637-.71 1.193-.57 1.392-.3 1.27-1.03 3.986-1.6 4.69 1.04.446 1.48.613 1.57.64l1.77-4.792z" fill="#ffc7a1"/><g filter="url(#e)"><path d="m1052.16 383.089c-.14.435.63 1.061 1.72 1.397s2.08.256 2.22-.18c.13-.435-.64-1.061-1.73-1.397s-2.08-.256-2.21.18z" fill="#fca"/></g><path d="m1077.68 387.144c7.61 7.206 10.16 2.976 12.05 2.912-4.08-2.555-9.73-3.006-12.05-2.912z" fill="#e1e1e1"/><path d="m1064.27 417.17c0 1.595 1.3 2.888 2.89 2.888 1.6 0 2.89-1.293 2.89-2.888 0-1.596-1.29-2.889-2.89-2.889-1.59 0-2.89 1.293-2.89 2.889z" fill="#539882"/><path clip-rule="evenodd" d="m1083.57 404.214c-1.54-.007-2.79 1.234-2.77 2.77.1 7.931-1.12 12.391-2.86 15.486-1.53 2.733-3.54 4.575-6.14 6.965-.43.399-.88.813-1.35 1.25l3.88 4.08c.41-.38.82-.759 1.24-1.141 2.58-2.366 5.29-4.841 7.28-8.389 2.37-4.216 3.66-9.729 3.56-18.229-.02-1.536-1.29-2.786-2.84-2.792z" fill="#35675b" fill-rule="evenodd"/><path d="m1065.74 356.721c-2.28 4.628 1.09 10.938 7.51 14.093 6.43 3.155 13.48 1.96 15.75-2.668s-1.09-10.938-7.52-14.093c-6.42-3.155-13.47-1.961-15.74 2.668z" fill="#c5c5c5"/><path d="m1084.2 363.678c-1.26-1.372-6.34-4.997-14.39-5.342l3.27 6.089c2.83.182 9.02.287 11.12-.747z" fill="#539882"/><path d="m1075.21 362.317c-15.28-15.407-31.73 5.943-23.91 18.16 11.08-7.782 20.55-15.349 23.91-18.16z" fill="#e1e1e1"/><path d="m1049.79 396.082c1.16-3.6-2.77-8.641 1.94-11.417l2.8 10.036c-.11.557-1.44 1.342-4.74 1.381z" fill="#ffc7a1"/><path d="m1052.55 381.431c-1.24 12.244 5.48 22.948 15.01 23.908 9.52.96 18.24-8.187 19.47-20.431 1.24-12.244-5.48-22.948-15-23.908-9.53-.96-18.25 8.187-19.48 20.431z" fill="#ffc7a1"/><path d="m1048.97 383.975c-.16 1.587.82 2.985 2.18 3.122s2.59-1.038 2.75-2.625c.16-1.588-.81-2.986-2.17-3.123s-2.6 1.039-2.76 2.626z" fill="#fff"/><path d="m1049.81 384.329c-.04.454.29.859.74.904.45.046.86-.285.9-.738.05-.454-.28-.858-.73-.904-.46-.046-.86.285-.91.738z" fill="#000"/><path clip-rule="evenodd" d="m1048.04 387.255c-.4-.917-.62-2.276-.47-3.837.16-1.561.66-2.847 1.23-3.666.62-.875 1.05-.888 1.1-.883s.47.104.9 1.085c.4.917.63 2.276.47 3.837s-.65 2.847-1.23 3.666c-.61.875-1.05.888-1.1.883-.04-.005-.47-.104-.9-1.085zm.72 2.918c-2.04-.205-3.4-3.313-3.03-6.941.36-3.628 2.31-6.402 4.35-6.196 2.05.205 3.4 3.313 3.04 6.941-.37 3.628-2.32 6.402-4.36 6.196z" fill="#91d7b9" fill-rule="evenodd"/><path d="m1049.51 389.629c2.75-2.415 2.48-7.431 6.27-14.705l.26 18.039c-1.01-.443-3.72-1.73-6.53-3.334z" fill="#ffc7a1"/><path d="m1082.18 391.881c-.18 1.814 1.32 3.451 3.37 3.657 2.04.206 3.84-1.098 4.02-2.912s-1.32-3.451-3.36-3.657-3.85 1.098-4.03 2.912z" fill="#ffc7a1"/><path d="m1050.05 403.121c-2.65-2.791.28-7.779 1.18-11.647 5.73 1.971 20.65 7.444 26.77 10.57-6.32 4.997-23.11 6.163-27.95 1.077z" fill="#ffc7a1"/><path d="m1052.45 394.227c1.37 1.377 2.41 2.753 4.82.345" stroke="#ff8281" stroke-linecap="round" stroke-width=".688034"/><path clip-rule="evenodd" d="m1053.5 382.07c.29-.901.6-1.84.92-2.797l-.62-.204c-.33.976-.64 1.923-.93 2.825-.44 1.344-.84 2.591-1.25 3.693-.33.917-.67 1.719-1.02 2.378-.34.661-.7 1.159-1.06 1.484l-.32.283 2.53 1.572.35-.541-1.82-1.134c.33-.368.63-.833.91-1.369.36-.694.71-1.525 1.05-2.453.41-1.11.82-2.38 1.26-3.737z" fill="#ffb685" fill-rule="evenodd"/><path clip-rule="evenodd" d="m1053.21 387.012c.71.241 1.6.638 2.84 1.407l.93-1.647c-1.33-.825-2.34-1.286-3.2-1.578-.67-.226-1.26-.348-1.79-.457-.13-.029-.27-.057-.4-.086l-.39 1.868c.17.036.32.069.47.1.51.106.97.203 1.54.393z" fill="#91d7b9" fill-rule="evenodd"/><path d="m1060.64 392.39c-.14 1.358.88 2.572 2.28 2.713 1.39.14 2.63-.847 2.77-2.205.13-1.358-.89-2.572-2.28-2.713-1.39-.14-2.63.847-2.77 2.205z" fill="#fca7a7"/><path clip-rule="evenodd" d="m1062.9 393.936c-2.89-.291-5.31-3.236-4.93-6.982.37-3.746 3.33-6.148 6.22-5.857 2.89.292 5.31 3.237 4.94 6.982-.38 3.746-3.34 6.149-6.23 5.857zm-.18 1.792c-4.08-.412-7.02-4.422-6.56-8.956.45-4.535 4.13-7.878 8.21-7.466 4.09.411 7.02 4.421 6.57 8.956-.46 4.535-4.14 7.877-8.22 7.466z" fill="#91d7b9" fill-rule="evenodd"/><path d="m1059.52 386.282c-.18 1.814 1.14 3.433 2.96 3.616 1.81.183 3.43-1.14 3.61-2.953.18-1.814-1.14-3.433-2.95-3.616-1.82-.183-3.44 1.139-3.62 2.953z" fill="#fff"/><path d="m1086.03 388.816c-1.96.882-12.46 3.212-22.68-15.842.64-2.76 3.88-8.791 11.68-10.839 13.87 4.326 12.78 25.937 11 26.681z" fill="#e1e1e1"/><path d="m1052.06 378.067c3.94-.082 6.1-4.34 11.68-5.056 1.1-3.086 3.1-7.649 11.52-11.149-5.22-2.923-21.67 1.014-23.2 16.205z" fill="#e1e1e1"/><path d="m1086.41 388.162c17.05-13.005.57-30.942-11.95-26.624 5.59 12.715 10.4 23.007 11.95 26.624z" fill="#e1e1e1"/><path d="m1083.45 395.745c-.07.68.43 1.287 1.11 1.356.68.068 1.29-.427 1.35-1.108.07-.68-.42-1.287-1.1-1.355-.68-.069-1.29.427-1.36 1.107z" fill="#539882"/><path d="m1091.32 375.247c.05-2.404-.39-3.652-3.29-8.487.85 2.387.74 4.616.31 6.344-.22.918.34 2.777 1.22 2.931.58.1 1.75-.171 1.76-.788z" fill="#c4c4c4"/><path clip-rule="evenodd" d="m1064.24 372.372c-.01-.342-.3-.611-.65-.602-1.05.029-2.11.427-3.14.946-.96.485-1.94 1.106-2.89 1.705-.07.045-.14.09-.21.135-1.02.649-2 1.258-2.93 1.686-.94.431-1.75.643-2.44.573-.34-.034-.65.213-.68.553-.04.34.21.644.56.679 1.02.103 2.08-.217 3.09-.683 1.02-.469 2.06-1.123 3.08-1.765.07-.042.13-.085.2-.127.96-.607 1.89-1.197 2.79-1.653.97-.49 1.84-.79 2.61-.811.35-.01.62-.295.61-.636z" fill="#c4c4c4" fill-rule="evenodd"/><path d="m1054.66 362.604c1.4-1.41 4.07-3.342 7.68-4.239-2.04.994-3.49 2.627-4.84 5.254-.34.661-1.18.911-1.95.646-.92-.315-1.53-1.016-.89-1.661z" fill="#f0f0f0"/><g clip-rule="evenodd" fill-rule="evenodd"><path d="m1083.31 356.484c-.1.142-.08.344.05.452l.01.008c1.11.933 3.88 3.26 4.35 7.052.03.176.18.297.34.27s.27-.192.25-.368c-.51-4.05-3.44-6.513-4.56-7.45-.01-.008-.02-.017-.03-.025-.12-.108-.31-.081-.41.061z" fill="#a8a8a8"/><path d="m1071.09 353.656c-.03-.171-.18-.276-.34-.236-1.38.362-2.98 1.37-4.07 3.259-.08.149-.04.344.09.436s.31.046.39-.103c1-1.729 2.45-2.646 3.71-2.975.16-.04.25-.211.22-.381z" fill="#e1e1e1"/><path d="m1060.99 374.982c-.17.291-.08.67.21.847l5.97 3.629c.29.177.67.085.85-.207.18-.291.08-.671-.21-.848l-5.97-3.628c-.29-.177-.67-.085-.85.207z" fill="#969696"/><path d="m1049.97 376.756c.12.319.47.479.79.358l4.96-1.882c.32-.122.48-.478.35-.797-.12-.318-.47-.478-.79-.357l-4.96 1.882c-.31.121-.47.478-.35.796z" fill="#969696"/><path d="m1089.17 388.357c-.01-.457-.42-.831-.93-.835l-18.04-.158.02 1.654 18.04.158c.51.005.91-.362.91-.819z" fill="#91d7b9"/><path d="m1067.41 375.659c-.27.228-.3.632-.08.903 3.07 3.777 5.3 6.14 7.47 7.768 2.19 1.64 4.29 2.514 7.06 3.364.33.101.68-.092.78-.431s-.09-.696-.42-.797c-2.7-.828-4.65-1.65-6.68-3.172-2.05-1.533-4.2-3.797-7.26-7.557-.22-.27-.61-.305-.87-.078z" fill="#c4c4c4"/></g><path d="m1065.28 370.272c.8-1.851 3.87-6.305 9.72-8.676.64-.258 2.38-.887 4.5-.674-4.36.848-9.73 4.169-14.22 9.35z" fill="#c4c4c4"/><path clip-rule="evenodd" d="m1085.61 390.829c-.03.15.08.291.23.317.84.135 1.22.474 1.38.793.17.335.14.71.06.949-.05.143.03.3.18.349.15.05.31-.027.36-.17.12-.34.17-.87-.09-1.368-.26-.514-.82-.938-1.79-1.096-.16-.025-.31.076-.33.226z" fill="#ffb685" fill-rule="evenodd"/><circle fill="#000" r="1.18547" transform="matrix(-.980272 .197656 .197656 .980272 1062.91 386.723)"/></g></g></svg>