<svg width="23" height="30" viewBox="0 0 23 30" fill="none" xmlns="http://www.w3.org/2000/svg">
<path fill-rule="evenodd" clip-rule="evenodd" d="M3.57955 12.1053C3.17268 12.1053 2.78248 12.2716 2.49478 12.5677C2.20708 12.8638 2.04545 13.2654 2.04545 13.6842V26.3158C2.04545 26.7346 2.20708 27.1362 2.49478 27.4323C2.78248 27.7284 3.17268 27.8947 3.57955 27.8947H18.9205C19.3273 27.8947 19.7175 27.7284 20.0052 27.4323C20.2929 27.1362 20.4545 26.7346 20.4545 26.3158V13.6842C20.4545 13.2654 20.2929 12.8638 20.0052 12.5677C19.7175 12.2716 19.3273 12.1053 18.9205 12.1053H16.3636C15.7988 12.1053 15.3409 11.634 15.3409 11.0526C15.3409 10.4713 15.7988 10 16.3636 10H18.9205C19.8698 10 20.7803 10.3882 21.4516 11.0791C22.1229 11.77 22.5 12.7071 22.5 13.6842V26.3158C22.5 27.2929 22.1229 28.23 21.4516 28.9209C20.7803 29.6118 19.8698 30 18.9205 30H3.57955C2.63019 30 1.71972 29.6118 1.04842 28.9209C0.377129 28.23 0 27.2929 0 26.3158V13.6842C0 12.7071 0.377129 11.77 1.04842 11.0791C1.71972 10.3882 2.63019 10 3.57955 10H6.13636C6.7012 10 7.15909 10.4713 7.15909 11.0526C7.15909 11.634 6.7012 12.1053 6.13636 12.1053H3.57955Z" fill="#1E7DFE"/>
<path fill-rule="evenodd" clip-rule="evenodd" d="M10.5134 0.313814C10.9202 -0.104605 11.5798 -0.104605 11.9866 0.313814L17.1949 5.67096C17.6017 6.08938 17.6017 6.76777 17.1949 7.18619C16.7881 7.6046 16.1286 7.6046 15.7218 7.18619L11.25 2.58666L6.77824 7.18619C6.37144 7.6046 5.71189 7.6046 5.3051 7.18619C4.8983 6.76777 4.8983 6.08938 5.3051 5.67096L10.5134 0.313814Z" fill="#1E7DFE"/>
<path fill-rule="evenodd" clip-rule="evenodd" d="M11.25 0C11.9404 0 12.5 0.469734 12.5 1.04918V18.9508C12.5 19.5303 11.9404 20 11.25 20C10.5596 20 10 19.5303 10 18.9508V1.04918C10 0.469734 10.5596 0 11.25 0Z" fill="#1E7DFE"/>
</svg>
