<svg width="69" height="72" viewBox="0 0 69 72" fill="none" xmlns="http://www.w3.org/2000/svg">
<g filter="url(#filter0_d)">
<path d="M18.7 14C15 14.5 11.6 15.8 8.69995 18.6L5.69995 10.5C8.59995 7.69999 12 6.39999 15.7 5.89999L18.7 14Z" fill="#333333"/>
<path d="M30.3001 13.9C26.3001 13.7 22.3001 13.5 18.6001 14L15.6001 5.89999C19.3001 5.39999 23.3001 5.59999 27.3001 5.79999L30.3001 13.9Z" fill="white"/>
<path d="M42 13.8C38.3 14.3 34.3 14.1 30.3 13.9L27.3 5.80001C31.3 6.00001 35.3 6.20001 39 5.70001C40 8.30001 41 11 42 13.8Z" fill="#333333"/>
<path d="M52 9.1C49.1 11.9 45.7 13.2 42 13.7L39 5.6C42.7 5.1 46.1 3.8 49 1L52 9.1Z" fill="white"/>
<path d="M21.7 22.1C18 22.6 14.6 23.9 11.7 26.7L8.69995 18.6C11.6 15.8 15 14.5 18.7 14L21.7 22.1Z" fill="white"/>
<path d="M33.3001 22C29.3001 21.8 25.3001 21.6 21.6001 22.1L18.6001 14C22.3001 13.5 26.3001 13.7 30.3001 13.9L33.3001 22Z" fill="#333333"/>
<path d="M45 21.9C41.3 22.4 37.3 22.2 33.3 22L30.3 13.9C34.3 14.1 38.3 14.3 42 13.8L45 21.9Z" fill="white"/>
<path d="M55 17.3C52.1 20.1 48.7 21.4 45 21.9L42 13.8C45.7 13.3 49.1 12 52 9.20001C53 11.8 54 14.5 55 17.3Z" fill="#333333"/>
<path d="M24.7 30.3C21 30.8 17.6 32.1 14.7 34.9L11.7 26.8C14.6 24 18 22.7 21.7 22.2L24.7 30.3Z" fill="#333333"/>
<path d="M36.4 30.1C32.4 29.9 28.4 29.7 24.7 30.2L21.7 22.1C25.4 21.6 29.4 21.8 33.4 22C34.3 24.7 35.4 27.4 36.4 30.1Z" fill="white"/>
<path d="M47.9999 30C44.2999 30.5 40.2999 30.3 36.3999 30.1L33.3999 22C37.3999 22.2 41.3999 22.4 45.0999 21.9C45.9999 24.6 46.9999 27.3 47.9999 30Z" fill="#333333"/>
<path d="M58 25.4C55.1 28.2 51.7 29.5 48 30L45 21.9C48.7 21.4 52.1 20.1 55 17.3L58 25.4Z" fill="white"/>
<path d="M27.7 38.4C24 38.9 20.6 40.2 17.7 43L14.7 34.9C17.6 32.1 21 30.8 24.7 30.3L27.7 38.4Z" fill="white"/>
<path d="M39.4 38.3C35.4 38.1 31.4 37.9 27.7 38.4L24.7 30.3C28.4 29.8 32.4 30 36.4 30.2L39.4 38.3Z" fill="#333333"/>
<path d="M51 38.1C47.3 38.6 43.3 38.4 39.3 38.2L36.3 30.1C40.3 30.3 44.3001 30.5 47.9001 30C49.0001 32.7 50 35.4 51 38.1Z" fill="white"/>
<path d="M61 33.5C58.1 36.3 54.7 37.6 51 38.1L48 30C51.7 29.5 55.1 28.2 58 25.4L61 33.5Z" fill="#333333"/>
<path d="M25.9 65H24L3 8.30001L4.7 7.70001L25.9 65Z" fill="#333333"/>
</g>
<defs>
<filter id="filter0_d" x="0" y="0" width="72" height="72" filterUnits="userSpaceOnUse" color-interpolation-filters="sRGB">
<feFlood flood-opacity="0" result="BackgroundImageFix"/>
<feColorMatrix in="SourceAlpha" type="matrix" values="0 0 0 0 0 0 0 0 0 0 0 0 0 0 0 0 0 0 127 0"/>
<feOffset dx="4" dy="3"/>
<feGaussianBlur stdDeviation="2"/>
<feColorMatrix type="matrix" values="0 0 0 0 0 0 0 0 0 0 0 0 0 0 0 0 0 0 0.2 0"/>
<feBlend mode="normal" in2="BackgroundImageFix" result="effect1_dropShadow"/>
<feBlend mode="normal" in="SourceGraphic" in2="effect1_dropShadow" result="shape"/>
</filter>
</defs>
</svg>
