<svg width="209" height="228" viewBox="0 0 209 228" fill="none" xmlns="http://www.w3.org/2000/svg">
<path d="M62.9922 209.596L56.9037 209.386" stroke="#FFC7A0" stroke-width="6.34189" stroke-linecap="round"/>
<path d="M57.3141 205.526L60.3584 205.631L60.2723 208.117L56.6745 207.992C56.7828 207.535 57.0622 206.402 57.3141 205.526Z" fill="#EBC8B1"/>
<path d="M71.1587 220.197C63.7514 218.101 58.7732 209.058 56.9998 201.087C60.741 197.926 72.3779 196.813 79.6392 190.11C84.8476 185.303 90.2635 180.12 94.8857 175.331L112.008 198.44C108.049 200.985 100.944 207.088 93.5007 212.985C87.3492 217.858 76.1877 217.73 71.1587 220.197Z" fill="#D1C870"/>
<path d="M49.2554 192.936L43.1785 192.504" stroke="#FFC7A0" stroke-width="6.34189" stroke-linecap="round"/>
<path d="M43.4543 188.646L46.4927 188.861L46.3157 191.342L42.7249 191.087C42.8498 190.634 43.1705 189.512 43.4543 188.646Z" fill="#EBC8B1"/>
<path d="M55.6533 200.74C48.2467 198.642 43.2712 189.597 41.5002 181.626C44.895 178.759 53.7574 179.082 60.2573 173.143C66.0618 167.839 72.2966 161.93 77.5187 156.523L94.1492 185.492C90.2174 188.018 83.3273 192.32 76.0714 196.595C69.979 200.185 59.5002 200.088 55.6533 200.74Z" fill="#F4E97D"/>
<path d="M42.9616 186.391C42.0905 184.285 41.984 183.676 41.5002 181.627C44.6748 178.947 53 178.633 59.0015 174.293C65.1523 168.705 71.9185 162.327 77.5198 156.527L80.7334 164.122C76.7083 166.708 69.8073 173.33 62.5622 179.634C56.7878 184.659 47.8916 183.975 42.9616 186.391Z" fill="#D1C870"/>
<path fill-rule="evenodd" clip-rule="evenodd" d="M195.299 141.236L195.993 140.83L195.992 140.827C196.886 140.304 197.215 140.033 197.612 139.705L197.612 139.705C197.717 139.618 197.827 139.528 197.953 139.428C198.758 138.789 199.939 140.37 199.134 141.009C198.583 141.446 198.014 141.872 197.562 142.18L197.653 142.379L198.747 141.739L199.353 141.385C200.483 140.724 201.34 142.327 200.534 142.966C199.881 143.484 199.067 143.951 198.5 144.236L198.616 144.492C199.366 144.137 199.692 143.92 200.078 143.662L200.078 143.662C200.191 143.586 200.309 143.507 200.444 143.421C201.31 142.866 202.471 144.107 201.263 145.065C200.552 145.63 199.867 145.96 199.405 146.182C199.24 146.262 199.103 146.328 199.004 146.386L198.997 146.367C197.552 147.106 195.155 148.251 194.719 148.137C194.241 148.013 193.11 144.535 192.604 142.811L192.606 142.811C192.605 142.81 192.604 142.81 192.604 142.81C193.448 140.802 194.471 138.712 195.409 139.403C195.786 139.681 195.586 140.346 195.299 141.236Z" fill="#FFC7A1"/>
<path d="M145.047 152.109C142.8 152.272 141.11 154.223 141.274 156.466C141.438 158.71 143.392 160.397 145.64 160.234L145.047 152.109ZM145.64 160.234C160.776 159.137 169.865 157.888 177.013 156.011C184.208 154.122 189.314 151.622 196.27 148.372L192.809 140.993C185.7 144.314 181.284 146.466 174.936 148.132C168.541 149.811 160.064 151.021 145.047 152.109L145.64 160.234Z" fill="#35675B"/>
<path d="M143.737 151.364C143.363 151.391 143.081 151.716 143.108 152.09C143.136 152.464 143.461 152.745 143.836 152.718L143.737 151.364ZM143.836 152.718C158.921 151.625 167.68 150.431 174.439 148.676C181.208 146.918 185.952 144.602 192.972 141.322L192.395 140.092C185.35 143.384 180.722 145.641 174.096 147.362C167.462 149.085 158.805 150.272 143.737 151.364L143.836 152.718Z" fill="#407967"/>
<path d="M37.4566 200.704L42.6268 196.344L42.5063 194.392C42.4156 192.923 42.5909 191.449 43.0239 190.042L43.4535 188.645C42.3545 188.508 39.7301 187.988 37.9716 187.768C35.7178 190.37 35.6706 196.359 36.0227 200.14C36.0885 200.847 36.9139 201.161 37.4566 200.704Z" fill="#35675B"/>
<path d="M51.8898 217.797L56.8972 213.252L56.7054 211.306C56.561 209.841 56.6823 208.361 57.0636 206.939L57.4418 205.528C56.3384 205.431 53.6968 205.007 51.9315 204.851C49.7743 207.533 49.9461 213.52 50.4363 217.286C50.5279 217.989 51.3642 218.274 51.8898 217.797Z" fill="#35675B"/>
<path d="M74.4596 150.533C86.6599 143.139 117.807 129.837 144.792 135.777C146.767 138.444 150.984 146.742 152.051 158.6C139.037 166.135 124.705 187.7 114.615 204.762C100.673 202.674 77.2448 179.404 74.4596 150.533Z" fill="#539882"/>
<path d="M74.4587 150.533C86.659 143.139 117.806 129.837 144.791 135.777C146.108 137.555 145.343 136.057 142.893 137.863C116.529 138.063 89.118 145.22 76.1616 160.272C75.0874 155.567 75.0391 154.572 74.4587 150.533Z" fill="#468677"/>
<path fill-rule="evenodd" clip-rule="evenodd" d="M102.495 197.455C102.284 196.785 102.09 196.103 101.964 195.572L101.745 195.585L101.951 196.836L102.065 197.527C102.277 198.816 100.471 199.039 100.162 198.06C99.9117 197.265 99.7675 196.338 99.7043 195.707L99.4225 195.724C99.4856 196.548 99.5721 196.929 99.6746 197.381C99.7046 197.514 99.736 197.652 99.7686 197.809C99.9767 198.815 98.4 199.45 97.9369 197.982C97.6641 197.116 97.601 196.36 97.5585 195.85C97.5433 195.668 97.5307 195.516 97.512 195.403L97.5344 195.403C97.3617 193.792 97.1512 191.151 97.414 190.786C97.7019 190.386 101.361 190.58 103.154 190.727L103.154 190.729C103.155 190.728 103.155 190.728 103.156 190.727C104.731 192.234 106.319 193.937 105.336 194.563C104.941 194.814 104.39 194.389 103.661 193.802L103.791 194.594L103.793 194.593C103.961 195.614 104.097 196.017 104.261 196.506C104.304 196.634 104.349 196.769 104.398 196.922C104.706 197.901 102.804 198.434 102.495 197.455Z" fill="#FFC7A0"/>
<ellipse rx="5.25444" ry="5.25759" transform="matrix(0.595085 0.803663 -0.804825 0.593512 133.054 174.33)" fill="#539882"/>
<path d="M146.765 162.157C145.257 163.841 140.722 170.736 137.913 176.243L132.463 171.673L139.571 161.277L146.765 162.157Z" fill="#539882"/>
<path d="M119.556 164.008C119.924 166.83 121.947 170.492 125.268 170.792C121.656 172.424 117.145 168.192 119.556 164.008Z" fill="#468677"/>
<path d="M125.103 170.57C121.065 169.767 119.807 167.603 119.72 164.231" stroke="#35675B" stroke-width="0.452992" stroke-linecap="round"/>
<path d="M119.092 146.367C120.596 144.69 120.457 142.113 118.781 140.61C117.105 139.108 114.527 139.249 113.023 140.926L119.092 146.367ZM113.023 140.926C102.924 152.183 98.2272 161.004 96.422 169.292C94.6509 177.424 95.7932 184.741 96.4432 191.986L104.566 191.252C103.855 183.336 102.954 177.613 104.39 171.022C105.792 164.587 109.551 157.002 119.092 146.367L113.023 140.926Z" fill="#35675B"/>
<path d="M119.307 136.719C121.406 140.884 127.107 149.624 133.117 151.262C137.255 152.924 151 153.185 155 151.262" stroke="#C03F5E"/>
<path d="M136.646 153.558L136.685 153.628L136.743 153.68L136.743 153.68L136.743 153.68L136.744 153.681L136.744 153.681L136.75 153.686L136.774 153.709C136.796 153.729 136.828 153.76 136.87 153.8C136.952 153.882 137.069 154.001 137.201 154.149C137.469 154.447 137.791 154.852 138.035 155.296C138.284 155.748 138.42 156.184 138.395 156.559C138.372 156.891 138.219 157.255 137.703 157.604C137.118 157.999 136.739 158.081 136.493 158.052C136.261 158.025 136.059 157.888 135.853 157.607C135.641 157.317 135.46 156.923 135.264 156.458C135.236 156.392 135.208 156.324 135.179 156.255C135.015 155.862 134.836 155.434 134.627 155.063C134.197 154.3 133.945 153.543 133.872 152.952C133.835 152.655 133.846 152.426 133.883 152.267C133.92 152.112 133.972 152.063 133.994 152.048C134.043 152.014 134.165 151.968 134.38 151.975C134.587 151.982 134.842 152.037 135.116 152.154C135.664 152.389 136.247 152.85 136.646 153.558Z" stroke="#C03F5E"/>
<path d="M132.063 153.834L131.977 153.845L131.899 153.885L131.899 153.885L131.899 153.885L131.899 153.885L131.898 153.885L131.892 153.888L131.862 153.902C131.835 153.915 131.794 153.934 131.742 153.958C131.636 154.005 131.484 154.069 131.3 154.137C130.927 154.275 130.444 154.421 129.967 154.477C129.482 154.534 129.068 154.489 128.776 154.316C128.514 154.16 128.275 153.855 128.228 153.189C128.175 152.451 128.288 152.037 128.432 151.802C128.564 151.587 128.767 151.453 129.084 151.37C129.417 151.284 129.823 151.269 130.301 151.268C130.369 151.267 130.438 151.268 130.509 151.268C130.912 151.269 131.355 151.269 131.765 151.217C132.594 151.111 133.333 151.174 133.851 151.342C134.414 151.524 134.539 151.757 134.546 151.854C134.552 151.93 134.528 152.077 134.42 152.285C134.315 152.486 134.149 152.711 133.924 152.929C133.473 153.365 132.824 153.737 132.063 153.834Z" stroke="#C03F5E"/>
<path d="M134.17 151.937C133.898 151.979 133.68 152.187 133.483 152.389C133.251 152.627 133.09 152.925 132.941 153.226C132.478 154.16 132.067 155.129 131.535 156.022C130.897 157.096 129.767 157.66 128.654 157.848C127.902 157.976 127.122 157.903 126.374 157.826C126.138 157.802 125.908 157.76 125.677 157.713" stroke="#C03F5E" stroke-linecap="round" stroke-linejoin="round"/>
<path d="M134.327 151.966C134.078 152.099 133.93 152.369 133.8 152.627C133.648 152.93 133.581 153.264 133.526 153.598C133.356 154.632 133.247 155.681 132.999 156.702C132.702 157.928 131.784 158.845 130.771 159.406C130.087 159.785 129.318 159.985 128.577 160.171C128.344 160.23 128.111 160.27 127.875 160.306" stroke="#C03F5E" stroke-linecap="round" stroke-linejoin="round"/>
<ellipse rx="1.37132" ry="1.49706" transform="matrix(0.979676 0.200585 -0.201375 0.979514 134.46 151.536)" fill="#BF3E5E"/>
<path d="M36.5 140.212C59.3 145.801 101.333 137.884 119.5 133.227C121.5 141.543 124.1 147.497 104.5 162.666C95.8357 169.372 79.5444 172.944 63.5 174.642C43.2492 176.785 19.1117 190.91 6 189.611L5.52732 187.252C5.18041 185.522 5.23582 183.734 5.68925 182.028L5.76119 181.757C6.13353 180.356 6.20364 178.892 5.96686 177.462L5.8608 176.821C5.62479 175.396 5.78426 173.933 6.32185 172.591L6.60716 171.88C7.18023 170.45 7.18022 168.854 6.60716 167.424L6.56313 167.315C5.89346 165.644 6.04859 163.75 6.97606 162.207C7.92983 160.621 8.06096 158.665 7.32165 156.968C6.68676 155.51 6.68676 153.855 7.32165 152.397L7.61978 151.713C8.19424 150.395 8.3739 148.938 8.13698 147.519L7.5 143.705C7.66667 140.379 13.7 134.624 36.5 140.212Z" fill="#DA5374"/>
<ellipse rx="23.2551" ry="16.7264" transform="matrix(0.937536 -0.347887 0.34914 0.93707 131.643 70.6677)" fill="#C5C5C5"/>
<path d="M119.239 71.7447C121.731 69.5339 131.423 64.0069 145.823 64.836L138.9 75.0611C133.823 74.8768 122.783 73.9555 119.239 71.7447Z" fill="#539882"/>
<path d="M136.131 70.2798C165.484 45.1321 190.406 86.8608 174.622 107.587C156.678 91.4482 141.485 75.9911 136.131 70.2798Z" fill="#E1E1E1"/>
<path d="M169.361 90.7266C172.961 98.7407 173.791 103.991 175.176 105.926C176.284 107.473 175.822 108.413 175.453 108.689C175.268 111.084 175.065 116.261 175.73 117.809C173.515 118.03 172.592 118.085 172.407 118.085L171.853 108.689L169.361 90.7266Z" fill="#FFC6A0"/>
<path d="M174.898 136.324C173.513 129.691 181.267 121.401 173.513 115.598L166.867 133.008C166.959 134.021 169.138 135.661 174.898 136.324Z" fill="#FFC6A0"/>
<ellipse cx="141.946" cy="108.968" rx="31.0145" ry="39.2416" fill="#FFC7A0"/>
<ellipse cx="173.791" cy="113.665" rx="4.15373" ry="5.25064" fill="white"/>
<ellipse cx="173.792" cy="113.665" rx="1.93841" ry="1.93445" fill="black"/>
<g filter="url(#filter0_f)">
<ellipse cx="173.13" cy="120.8" rx="3.5999" ry="1.93445" fill="#FFCCAA"/>
</g>
<path d="M182.677 113.666C182.677 116.76 181.973 119.493 180.903 121.405C179.809 123.362 178.512 124.19 177.39 124.19C176.268 124.19 174.971 123.362 173.877 121.405C172.807 119.493 172.103 116.76 172.103 113.666C172.103 110.573 172.807 107.839 173.877 105.927C174.971 103.971 176.268 103.142 177.39 103.142C178.512 103.142 179.809 103.971 180.903 105.927C181.973 107.839 182.677 110.573 182.677 113.666Z" stroke="#91D7B9" stroke-width="2.71795"/>
<path d="M176.502 124.139C172.032 119.34 173.415 110.45 167.962 96.8066L164.244 128.906C166.123 128.298 171.206 126.493 176.502 124.139Z" fill="#FFC6A1"/>
<ellipse cx="111.208" cy="122.508" rx="6.36905" ry="6.35603" fill="#FFC7A1"/>
<path d="M173.744 147.54C179.052 142.959 173.044 133.287 172.129 126.102C161.406 128.632 135.028 135.917 123.392 140.472C133.914 150.697 164.075 155.887 173.744 147.54Z" fill="#FFC7A0"/>
<path d="M170.192 105.375C172.131 113.942 173.238 121.403 175.731 124.167C173.958 125.051 172.408 125.825 171.854 126.101" stroke="#FFB684" stroke-width="0.905984"/>
<path d="M163.822 118.734C168.807 116.428 171.022 116.428 173.514 116.152" stroke="#91D7B9" stroke-width="2.71795"/>
<path d="M170.084 130.47C167.039 132.958 164.184 132.077 162.608 129.918" stroke="#FF8080" stroke-width="0.905984" stroke-linecap="round"/>
<ellipse cx="154.5" cy="126.241" rx="3.5" ry="3.49285" fill="#FCA7A7"/>
<path d="M164.402 118.088C164.402 125.881 158.794 131.928 152.192 131.928C145.589 131.928 139.982 125.881 139.982 118.088C139.982 110.295 145.589 104.248 152.192 104.248C158.794 104.248 164.402 110.295 164.402 118.088Z" stroke="#91D7B9" stroke-width="2.71795"/>
<ellipse cx="153.298" cy="116.428" rx="5.26139" ry="5.25064" fill="white"/>
<ellipse cx="152.747" cy="116.431" rx="1.93841" ry="1.93445" fill="black"/>
<path d="M111.208 115.874C114.531 117.808 132.807 123.888 154.407 91.5552C153.761 86.4888 149.09 75.0848 135.576 70C110.1 75.2506 108.162 114.216 111.208 115.874Z" fill="#E1E1E1"/>
<path d="M174.068 102.338C167.145 101.509 164.099 93.7707 154.407 91.56C153.023 86.033 150.309 77.7946 136.131 70.2779C145.823 66.1327 174.068 75.8081 174.068 102.338Z" fill="#E1E1E1"/>
<path d="M110.93 115.597C83.5159 89.3442 115.362 60.3264 136.407 70.2759C124.444 91.9417 114.253 109.425 110.93 115.597Z" fill="#E1E1E1"/>
<ellipse cx="112.592" cy="128.312" rx="2.21532" ry="2.21079" fill="#539882"/>
<path d="M103.998 91.1472C104.317 86.6951 105.23 84.7175 111.653 76.582C109.423 81.0322 109.414 85.3512 110.082 88.5622C110.358 89.8896 108.445 92.3511 107.093 92.4455C106.634 92.4776 106.142 92.5272 105.616 92.598C104.74 92.7163 103.935 92.0289 103.998 91.1472Z" fill="#C4C4C4"/>
<path d="M154.301 90.6777C160.67 91.5067 167.87 101.732 173.962 101.732" stroke="#C4C4C4" stroke-width="1.81197" stroke-linecap="round"/>
<path d="M171.591 74.8573C169.55 72.0555 165.543 68.0839 159.838 65.8066C162.972 67.9723 165.057 71.1855 166.824 76.1762C167.269 77.4354 168.587 78.0393 169.879 77.7012C171.417 77.2988 172.526 76.1421 171.591 74.8573Z" fill="#F0F0F0"/>
<path d="M111.93 70.7805C113.592 64.1481 119.407 60.5556 121.622 59.1738" stroke="#A8A8A8" stroke-width="0.905984" stroke-linecap="round"/>
<path d="M151.531 61.9371C149.869 58.6208 147.1 56.6865 144.608 55.8574" stroke="#E1E1E1" stroke-width="0.905984" stroke-linecap="round"/>
<path d="M146.314 101.84L157.627 96.4463" stroke="#969696" stroke-width="1.81197" stroke-linecap="round"/>
<path d="M168.5 96.3788L177.007 100.624" stroke="#969696" stroke-width="1.81197" stroke-linecap="round"/>
<path d="M107.916 113.367C107.17 113.29 106.502 113.834 106.426 114.58C106.349 115.327 106.893 115.994 107.639 116.071L107.916 113.367ZM140.315 116.683L107.916 113.367L107.639 116.071L140.039 119.387L140.315 116.683Z" fill="#91D7B9"/>
<path d="M131.316 114.445C113.87 122.735 111.655 114.168 108.332 113.063C116.972 110.852 127.255 113.063 131.316 114.445Z" fill="#E1E1E1"/>
<path d="M145.717 96.7559C133.533 108.639 128.548 111.126 118.579 113.06" stroke="#C4C4C4" stroke-width="1.81197" stroke-linecap="round"/>
<path d="M152.36 86.8084C151.253 83.4922 146.49 75.3122 136.299 70.2274C135.191 69.6747 132.145 68.293 128.269 68.293C136.022 70.5038 145.16 77.1361 152.36 86.8084Z" fill="#C4C4C4"/>
<path d="M111.378 119.418C107.834 119.639 107.501 122.089 107.778 123.287" stroke="#FFB684" stroke-width="0.905984" stroke-linecap="round"/>
<defs>
<filter id="filter0_f" x="167.718" y="117.053" width="10.8237" height="7.49283" filterUnits="userSpaceOnUse" color-interpolation-filters="sRGB">
<feFlood flood-opacity="0" result="BackgroundImageFix"/>
<feBlend mode="normal" in="SourceGraphic" in2="BackgroundImageFix" result="shape"/>
<feGaussianBlur stdDeviation="0.905984" result="effect1_foregroundBlur"/>
</filter>
</defs>
</svg>
