<svg fill="none" height="300" viewBox="0 0 250 300" width="250" xmlns="http://www.w3.org/2000/svg" xmlns:xlink="http://www.w3.org/1999/xlink"><filter id="a" color-interpolation-filters="sRGB" filterUnits="userSpaceOnUse" height="7.50075" width="10.8237" x="188.718" y="159.297"><feFlood flood-opacity="0" result="BackgroundImageFix"/><feBlend in="SourceGraphic" in2="BackgroundImageFix" mode="normal" result="shape"/><feGaussianBlur result="effect1_foregroundBlur" stdDeviation=".905984"/></filter><filter id="b" color-interpolation-filters="sRGB" filterUnits="userSpaceOnUse" height="12.4822" width="21.3158" x="160.766" y="162.343"><feFlood flood-opacity="0" result="BackgroundImageFix"/><feBlend in="SourceGraphic" in2="BackgroundImageFix" mode="normal" result="shape"/><feGaussianBlur result="effect1_foregroundBlur" stdDeviation="1.31368"/></filter><path d="m83.9922 252.025-6.0885-.211" stroke="#ffdac1" stroke-linecap="round" stroke-width="6.34189"/><path d="m78.3141 247.947 3.0443.106-.0861 2.49-3.5978-.124c.1083-.458.3877-1.594.6396-2.472z" fill="#ebc8b1"/><path d="m92.1587 262.649c-7.4072-2.1-12.3855-11.161-14.1589-19.149 3.7412-3.167 15.3781-4.283 22.6392-10.999 5.209-4.818 10.625-10.011 15.247-14.81l17.122 23.157c-3.959 2.55-11.064 8.666-18.507 14.574-6.152 4.883-17.3133 4.755-22.3423 7.227z" fill="#d1c870"/><path d="m70.2554 235.333-6.0768-.433" stroke="#ffdac1" stroke-linecap="round" stroke-width="6.34189"/><path d="m64.4543 231.032 3.0384.216-.177 2.486-3.5908-.256c.1249-.453.4456-1.578.7294-2.446z" fill="#ebc8b1"/><path d="m76.6533 243.153c-7.4066-2.102-12.3821-11.165-14.1531-19.153 3.3948-2.872 12.2572-2.548 18.7571-8.5 5.8045-5.315 12.0393-11.236 17.2614-16.654l16.6303 29.029c-3.932 2.531-10.822 6.841-18.0776 11.125-6.0924 3.597-16.5712 3.5-20.4181 4.153z" fill="#f4e97d"/><path d="m63.9616 228.774c-.8711-2.11-.9776-2.72-1.4614-4.773 3.1746-2.686 11.4998-3.001 17.5013-7.349 6.1508-5.6 12.917-11.991 18.5183-17.802l3.2132 7.61c-4.0247 2.591-10.9257 9.227-18.1708 15.544-5.7744 5.035-14.6706 4.349-19.6006 6.77z" fill="#d1c870"/><path clip-rule="evenodd" d="m216.299 183.525.694-.407-.001-.002c.894-.524 1.223-.795 1.62-1.124.105-.087.215-.177.341-.277.805-.641 1.986.943 1.181 1.584-.551.438-1.119.864-1.571 1.172l.09.2 1.095-.641.605-.355c1.13-.662 1.986.944 1.181 1.584-.652.519-1.467.987-2.034 1.273l.117.256c.749-.355 1.075-.573 1.461-.831.113-.076.231-.155.366-.242.866-.556 2.026.687.819 1.648-.712.565-1.396.896-1.858 1.119-.165.08-.302.146-.402.205l-.007-.02c-1.444.74-3.84 1.887-4.277 1.773-.477-.124-1.609-3.609-2.115-5.336 0 0 0 0-.001 0 .845-2.013 1.868-4.107 2.805-3.414.377.278.178.944-.109 1.835z" fill="#ffdac1" fill-rule="evenodd"/><path d="m166.048 194.425c-2.245.164-3.934 2.116-3.771 4.362.164 2.246 2.116 3.934 4.362 3.771zm.591 8.133c15.136-1.099 24.225-2.351 31.373-4.232 7.195-1.892 12.3-4.398 19.256-7.654l-3.457-7.385c-7.109 3.328-11.525 5.484-17.874 7.154-6.395 1.682-14.872 2.894-29.889 3.984z" fill="#35675b"/><path d="m164.737 193.676c-.374.027-.655.352-.628.727.027.374.352.655.727.628zm.099 1.355c15.084-1.095 23.843-2.292 30.603-4.05 6.768-1.762 11.513-4.083 18.532-7.369l-.576-1.231c-7.045 3.298-11.673 5.561-18.298 7.284-6.635 1.727-15.292 2.917-30.36 4.011z" fill="#407967"/><path d="m58.4574 243.114 5.1694-4.368-.121-1.964c-.0904-1.467.0842-2.938.5155-4.342l.4322-1.408c-1.099-.138-3.7234-.659-5.4819-.879-2.2538 2.607-2.301 8.609-1.9489 12.397.0658.708.8921 1.023 1.4347.564z" fill="#35675b"/><path d="m72.8906 260.245 5.0066-4.554-.1927-1.959c-.1438-1.462-.023-2.939.3568-4.358l.3805-1.423c-1.1034-.097-3.745-.522-5.5103-.678-2.1572 2.687-1.9853 8.687-1.4952 12.46.0915.705.9288.989 1.4543.512z" fill="#35675b"/><path d="m95.4596 192.843c12.2004-7.409 43.3474-20.738 70.3324-14.787 1.975 2.673 6.192 10.988 7.259 22.87-13.014 7.551-27.346 29.16-37.436 46.257-13.942-2.093-37.3702-25.41-40.1554-54.34z" fill="#539882"/><path d="m95.4587 192.843c12.2003-7.409 43.3473-20.738 70.3323-14.786 1.317 1.781.552.281-1.898 2.091-26.364.2-53.775 7.372-66.7314 22.455-1.0742-4.716-1.1225-5.713-1.7029-9.76z" fill="#468677"/><path clip-rule="evenodd" d="m124.661 236.199.13.794h.002c.168 1.023.304 1.427.468 1.916.043.129.088.264.137.417.309.982-1.594 1.516-1.903.534-.211-.671-.405-1.354-.531-1.887l-.219.013.206 1.254.114.693c.212 1.292-1.594 1.515-1.903.534-.251-.797-.395-1.726-.458-2.358l-.282.017c.064.826.15 1.208.253 1.661.03.133.061.272.094.429.208 1.008-1.369 1.645-1.832.173-.273-.867-.336-1.625-.378-2.136-.016-.183-.028-.334-.047-.448h.023c-.173-1.614-.384-4.262-.121-4.628.288-.401 3.947-.206 5.74-.059v.002l.002-.002c1.575 1.51 3.163 3.216 2.18 3.843-.395.252-.946-.173-1.675-.762z" fill="#ffdac1" fill-rule="evenodd"/><circle cx="154.054" cy="216.688" fill="#539882" r="5.26139" transform="matrix(.59429934 .80424392 -.80424392 .59429934 236.769816 -35.98653)"/><path d="m167.765 204.489c-1.508 1.687-6.043 8.597-8.852 14.115l-5.45-4.58 7.108-10.417z" fill="#539882"/><path d="m140.556 206.345c.368 2.827 2.391 6.497 5.712 6.797-3.612 1.636-8.123-2.605-5.712-6.797z" fill="#468677"/><path d="m146.103 212.919c-4.038-.804-5.296-2.973-5.383-6.352" stroke="#35675b" stroke-linecap="round" stroke-width=".452992"/><path d="m140.095 188.661c1.502-1.678 1.359-4.255-.318-5.757-1.678-1.502-4.255-1.359-5.757.318zm-6.075-5.439c-10.098 11.28-14.793 20.117-16.598 28.419-1.77 8.145-.628 15.474.022 22.735l8.121-.727c-.71-7.931-1.611-13.668-.175-20.276 1.402-6.452 5.164-14.054 14.705-24.712z" fill="#35675b"/><g stroke="#c03f5e"><path d="m140.307 179c2.099 4.174 7.8 12.932 13.81 14.573 4.138 1.666 17.883 1.927 21.883 0"/><path d="m157.646 195.875.04.07.058.052.001.001.005.005.024.022c.022.021.055.052.096.093.083.081.199.2.332.348.268.3.589.706.833 1.15.249.454.385.89.36 1.266-.022.333-.176.698-.692 1.048-.584.395-.964.477-1.21.449-.232-.028-.434-.165-.64-.446-.213-.291-.393-.686-.59-1.152-.027-.066-.056-.134-.084-.203-.164-.394-.343-.823-.552-1.195-.43-.764-.682-1.522-.756-2.115-.037-.298-.026-.528.012-.687.037-.155.088-.204.111-.22.049-.033.171-.08.386-.073.207.007.462.063.736.18.549.235 1.131.697 1.53 1.407z"/><path d="m153.063 196.152-.086.011-.078.039v.001h-.001l-.007.003-.029.014c-.027.013-.068.032-.12.056-.106.047-.258.111-.443.179-.372.139-.855.285-1.331.341-.486.057-.9.012-1.191-.162-.263-.156-.502-.462-.549-1.129-.053-.741.06-1.156.204-1.391.133-.216.335-.351.652-.433.333-.087.739-.102 1.217-.103h.207c.403.001.847.002 1.257-.051.829-.106 1.568-.042 2.086.126.562.182.688.415.695.513.006.077-.018.225-.126.433-.105.202-.271.428-.496.646-.451.437-1.1.809-1.861.907z"/><path d="m155.17 194.251c-.272.042-.49.25-.687.453-.232.238-.393.536-.542.838-.463.936-.874 1.907-1.406 2.802-.638 1.076-1.768 1.641-2.881 1.83-.752.128-1.532.055-2.28-.023-.236-.024-.466-.065-.697-.113" stroke-linecap="round" stroke-linejoin="round"/><path d="m155.327 194.278c-.249.133-.397.404-.527.662-.152.303-.219.638-.274.973-.17 1.036-.279 2.088-.527 3.11-.297 1.229-1.215 2.148-2.228 2.71-.684.38-1.453.581-2.194.767-.233.058-.466.099-.702.135" stroke-linecap="round" stroke-linejoin="round"/></g><ellipse cx="155.46" cy="193.849" fill="#bf3e5e" rx="1.37143" ry="1.5" transform="matrix(.97959525 .20098047 -.20098047 .97959525 42.131985 -27.288983)"/><path d="m57.5 182.5c22.8 5.6 64.833-2.333 83-7 2 8.334 4.6 14.3-15 29.5-8.664 6.72-24.956 10.299-41 12-20.2508 2.148-44.3883 16.302-57.5 15l-.4727-2.363c-.3469-1.735-.2915-3.526.1619-5.235l.072-.271c.3723-1.404.4424-2.872.2057-4.305l-.1062-.642c-.2359-1.428-.0765-2.894.4612-4.238l.2853-.713c.5731-1.433.5731-3.032 0-4.465l-.0443-.11c-.6697-1.674-.5147-3.571.413-5.117.9542-1.591 1.0852-3.55.3457-5.251-.635-1.46-.635-3.119 0-4.579l.2981-.686c.5746-1.321.7542-2.781.5174-4.202l-.6371-3.823c.1667-3.333 6.2-9.1 29-3.5z" fill="#da5374"/><ellipse cx="152.643" cy="112.813" fill="#c5c5c5" rx="23.2609" ry="16.7565" transform="matrix(.93730389 -.34851316 .34851316 .93730389 -29.746692 60.27103)"/><path d="m140.239 113.891c2.492-2.215 12.184-7.754 26.584-6.923l-6.923 10.246c-5.077-.185-16.117-1.108-19.661-3.323z" fill="#539882"/><path d="m157.131 112.423c29.353-25.199 54.275 16.615 38.491 37.384-17.944-16.172-33.137-31.661-38.491-37.384z" fill="#e1e1e1"/><path d="m190.361 132.914c3.6 8.031 4.43 13.292 5.815 15.23 1.108 1.551.646 2.493.277 2.77-.185 2.399-.388 7.587.277 9.138-2.215.221-3.138.277-3.323.277l-.554-9.415z" fill="#fee1ce"/><path d="m195.898 178.605c-1.385-6.646 6.369-14.953-1.385-20.769l-6.646 17.446c.092 1.015 2.271 2.658 8.031 3.323z" fill="#fee1ce"/><ellipse cx="162.946" cy="151.192" fill="#ffdac1" rx="31.0145" ry="39.322"/><ellipse cx="194.791" cy="155.898" fill="#fff" rx="4.15373" ry="5.26139"/><circle cx="194.792" cy="155.899" fill="#000" r="1.93841"/><g filter="url(#a)"><ellipse cx="194.13" cy="163.048" fill="#fca" rx="3.5999" ry="1.93841"/></g><path d="m203.677 155.899c0 3.101-.704 5.841-1.774 7.758-1.095 1.961-2.392 2.79-3.513 2.79s-2.418-.829-3.513-2.79c-1.07-1.917-1.774-4.657-1.774-7.758s.704-5.841 1.774-7.757c1.095-1.962 2.392-2.791 3.513-2.791s2.418.829 3.513 2.791c1.07 1.916 1.774 4.656 1.774 7.757z" stroke="#91d7b9" stroke-width="2.71795"/><path d="m197.502 166.393c-4.47-4.808-3.087-13.717-8.54-27.388l-3.718 32.165c1.879-.61 6.962-2.418 12.258-4.777z" fill="#ffdac1"/><circle cx="132.208" cy="164.759" fill="#ffdac1" r="6.36905"/><path d="m194.744 189.842c5.308-4.59-.7-14.282-1.615-21.482-10.723 2.535-37.101 9.836-48.737 14.399 10.522 10.246 40.683 15.448 50.352 7.083z" fill="#ffdac1"/><path d="m191.192 147.59c1.939 8.585 3.046 16.061 5.539 18.831-1.773.886-3.323 1.661-3.877 1.938" stroke="#fca" stroke-width=".905984"/><path d="m184.822 160.977c4.985-2.31 7.2-2.31 9.692-2.587" stroke="#91d7b9" stroke-width="2.71795"/><path d="m191.084 172.738c-3.045 2.492-5.9 1.61-7.476-.554" stroke="#ff8080" stroke-linecap="round" stroke-width=".905984"/><g filter="url(#b)"><ellipse cx="171.424" cy="168.584" fill="#fca" rx="8.03055" ry="3.61374"/></g><path d="m185.402 160.329c0 7.813-5.61 13.872-12.21 13.872s-12.21-6.059-12.21-13.872c0-7.812 5.61-13.871 12.21-13.871s12.21 6.059 12.21 13.871z" stroke="#91d7b9" stroke-width="2.71795"/><circle cx="174.298" cy="158.668" fill="#fff" r="5.26139"/><circle cx="173.747" cy="158.668" fill="#000" r="1.93841"/><path d="m132.208 158.112c3.323 1.939 21.599 8.031 43.199-24.368-.646-5.077-5.317-16.504-18.831-21.599-25.476 5.261-27.414 44.306-24.368 45.967z" fill="#e1e1e1"/><path d="m195.068 144.546c-6.923-.83-9.969-8.584-19.661-10.799-1.384-5.539-4.098-13.794-18.276-21.326 9.692-4.154 37.937 5.541 37.937 32.125z" fill="#e1e1e1"/><path d="m131.93 157.835c-27.414-26.307 4.432-55.384 25.477-45.414-11.963 21.71-22.154 39.23-25.477 45.414z" fill="#e1e1e1"/><circle cx="133.592" cy="170.575" fill="#539882" r="2.21532"/><path d="m124.998 133.338c.318-4.463 1.231-6.444 7.655-14.598-2.232 4.464-2.239 8.795-1.569 12.014.276 1.327-1.638 3.788-2.991 3.882-.459.032-.951.082-1.476.153-.876.118-1.682-.569-1.619-1.451z" fill="#c4c4c4"/><path d="m175.301 132.862c6.369.83 13.569 11.076 19.661 11.076" stroke="#c4c4c4" stroke-linecap="round" stroke-width="1.81197"/><path d="m192.594 117.016c-2.039-2.808-6.048-6.791-11.756-9.075 3.135 2.171 5.22 5.391 6.986 10.394.445 1.26 1.764 1.864 3.057 1.525 1.537-.403 2.647-1.559 1.713-2.844z" fill="#f0f0f0"/><path d="m132.93 112.925c1.662-6.646 7.477-10.246 9.692-11.631" stroke="#a8a8a8" stroke-linecap="round" stroke-width=".905984"/><path d="m172.531 104.064c-1.662-3.323-4.431-5.2615-6.923-6.0923" stroke="#e1e1e1" stroke-linecap="round" stroke-width=".905984"/><path d="m167.314 144.05 11.313-5.405" stroke="#969696" stroke-linecap="round" stroke-width="1.81197"/><path d="m189.5 138.577 8.507 4.254" stroke="#969696" stroke-linecap="round" stroke-width="1.81197"/><path d="m128.916 155.603c-.746-.076-1.413.467-1.49 1.213-.077.747.467 1.414 1.213 1.491zm32.4 3.323-32.4-3.323-.277 2.704 32.399 3.323z" fill="#91d7b9"/><path d="m152.316 156.68c-17.446 8.308-19.661-.277-22.984-1.385 8.64-2.215 18.923 0 22.984 1.385z" fill="#e1e1e1"/><path d="m166.717 138.955c-12.184 11.907-17.169 14.4-27.138 16.338" stroke="#c4c4c4" stroke-linecap="round" stroke-width="1.81197"/><path d="m173.36 128.987c-1.107-3.323-5.87-11.52-16.061-16.615-1.108-.554-4.154-1.938-8.03-1.938 7.753 2.215 16.891 8.861 24.091 18.553z" fill="#c4c4c4"/><path d="m132.378 161.663c-3.544.222-3.877 2.677-3.6 3.877" stroke="#fca" stroke-linecap="round" stroke-width=".905984"/></svg>