<svg width="35" height="35" viewBox="0 0 35 35" fill="none" xmlns="http://www.w3.org/2000/svg">
<g filter="url(#filter0_d)">
<circle cx="17.5" cy="13.5" r="13.5" fill="#FFBD3A"/>
<path d="M15.6692 16.4016H18.426V15.5571C18.426 13.5591 21.8617 12.9 21.8617 9.81038C21.8617 7.46226 19.9279 5.81445 17.2739 5.81445C14.7022 5.81445 13.5296 7.56525 13.1387 8.69812L15.4017 9.7074C15.628 9.17186 16.1012 8.43035 17.2328 8.43035C18.3231 8.43035 18.9609 9.17186 18.9609 9.97517C18.9609 11.9731 15.6692 12.6117 15.6692 15.3923V16.4016ZM17.0476 20.7683C18.0351 20.7683 18.7963 19.9856 18.7963 19.0381C18.7963 18.07 18.0351 17.2667 17.0476 17.2667C16.0601 17.2667 15.2989 18.07 15.2989 19.0381C15.2989 19.9856 16.0601 20.7683 17.0476 20.7683Z" fill="black"/>
</g>
<defs>
<filter id="filter0_d" x="0" y="0" width="35" height="35" filterUnits="userSpaceOnUse" color-interpolation-filters="sRGB">
<feFlood flood-opacity="0" result="BackgroundImageFix"/>
<feColorMatrix in="SourceAlpha" type="matrix" values="0 0 0 0 0 0 0 0 0 0 0 0 0 0 0 0 0 0 127 0"/>
<feOffset dy="4"/>
<feGaussianBlur stdDeviation="2"/>
<feColorMatrix type="matrix" values="0 0 0 0 0 0 0 0 0 0 0 0 0 0 0 0 0 0 0.25 0"/>
<feBlend mode="normal" in2="BackgroundImageFix" result="effect1_dropShadow"/>
<feBlend mode="normal" in="SourceGraphic" in2="effect1_dropShadow" result="shape"/>
</filter>
</defs>
</svg>
