<svg width="190" height="172" viewBox="0 0 190 172" fill="none" xmlns="http://www.w3.org/2000/svg">
<path d="M69 0V48" stroke="black"/>
<path d="M135 0V48" stroke="black"/>
<g filter="url(#filter0_d)">
<circle cx="100" cy="98" r="64" fill="#FFBD3A"/>
</g>
<path d="M73.9672 64.8115C71.512 64.8115 69.6611 66.0203 68.7168 67.9467V65.3026H62.5598V85.1334H68.8679V76.37C68.8679 73.386 69.8878 71.1574 72.9474 71.1574C73.4006 71.1574 73.7028 71.1952 73.9672 71.2329V64.8115ZM75.4457 78.9764C75.4457 83.2825 78.9208 85.6244 82.8114 85.6244C84.8511 85.6244 86.2865 85.0578 87.3064 84.0379L87.6463 85.1334H93.2745V72.8572C93.2745 68.3244 91.5369 64.8115 84.7 64.8115C81.4138 64.8115 78.7319 65.8692 76.6166 67.2668L78.9586 71.4973C80.5073 70.7419 82.207 70.2508 83.9446 70.2508C85.9843 70.2508 86.9664 71.1952 86.9664 72.4039V73.1216C86.2487 72.8194 84.8889 72.4039 83.1514 72.4039C78.4675 72.4039 75.4457 75.0102 75.4457 78.9764ZM81.7538 78.7497C81.7538 77.4655 82.8869 76.6345 84.3979 76.6345C85.9088 76.6345 87.0797 77.3899 87.0797 78.7497C87.0797 80.0718 85.9466 80.7895 84.4356 80.7895C82.9625 80.7895 81.7538 80.0718 81.7538 78.7497ZM101.742 65.3026H94.9811L101.78 85.1334H109.108L115.794 65.3026H109.221L105.482 78.4476L101.742 65.3026ZM136.215 76.8611C136.252 76.4078 136.252 75.9923 136.252 75.6146C136.252 68.8532 132.815 64.8115 126.507 64.8115C120.69 64.8115 116.762 69.4576 116.762 75.2746C116.762 81.1294 120.766 85.6244 127.3 85.6244C132.437 85.6244 135.157 82.4137 135.724 81.2428L131.569 78.0321C131.191 78.5986 129.793 80.1473 127.414 80.1473C125.072 80.1473 123.372 78.6364 123.221 76.8611H136.215ZM126.62 69.9109C128.585 69.9109 129.755 71.2707 129.831 72.8572H123.41C123.561 71.4596 124.543 69.9109 126.62 69.9109ZM138.77 85.1334H145.078V57.8235H138.77V85.1334Z" fill="black"/>
<path d="M61.5022 121.376C61.5022 125.682 64.9773 128.024 68.8679 128.024C70.9076 128.024 72.343 127.458 73.3629 126.438L73.7028 127.533H79.331V115.257C79.331 110.724 77.5934 107.211 70.7565 107.211C67.4703 107.211 64.7884 108.269 62.6731 109.667L65.015 113.897C66.5637 113.142 68.2635 112.651 70.0011 112.651C72.0408 112.651 73.0229 113.595 73.0229 114.804V115.522C72.3052 115.219 70.9454 114.804 69.2078 114.804C64.524 114.804 61.5022 117.41 61.5022 121.376ZM67.8102 121.15C67.8102 119.865 68.9434 119.034 70.4543 119.034C71.9653 119.034 73.1362 119.79 73.1362 121.15C73.1362 122.472 72.003 123.189 70.4921 123.189C69.019 123.189 67.8102 122.472 67.8102 121.15ZM82.7373 127.533H89.0454V100.224H82.7373V127.533ZM111.131 119.261C111.169 118.808 111.169 118.392 111.169 118.015C111.169 111.253 107.731 107.211 101.423 107.211C95.6064 107.211 91.678 111.858 91.678 117.675C91.678 123.529 95.6819 128.024 102.217 128.024C107.354 128.024 110.073 124.814 110.64 123.643L106.485 120.432C106.107 120.999 104.71 122.547 102.33 122.547C99.988 122.547 98.2883 121.036 98.1372 119.261H111.131ZM101.537 112.311C103.501 112.311 104.672 113.671 104.747 115.257H98.326C98.4771 113.86 99.4592 112.311 101.537 112.311Z" fill="black"/>
<rect x="50.0736" y="41" width="8.09172" height="100.697" fill="black"/>
<path fill-rule="evenodd" clip-rule="evenodd" d="M59.9629 49.0917L79.7427 49.0917L83.7885 45.0459L79.7427 41H59.9629V49.0917Z" fill="black"/>
<mask id="path-8-inside-1" fill="white">
<path fill-rule="evenodd" clip-rule="evenodd" d="M53.6696 60.3299L64.9081 61.6785L67.1558 57.1831L64.9081 52.6877L53.6696 54.0363L53.6696 60.3299Z"/>
</mask>
<path fill-rule="evenodd" clip-rule="evenodd" d="M53.6696 60.3299L64.9081 61.6785L67.1558 57.1831L64.9081 52.6877L53.6696 54.0363L53.6696 60.3299Z" fill="black"/>
<path d="M64.9081 61.6785L64.8181 62.4286L65.346 62.4919L65.5838 62.0163L64.9081 61.6785ZM53.6696 60.3299L52.9141 60.3299L52.9141 61.0001L53.5795 61.0799L53.6696 60.3299ZM67.1558 57.1831L67.8315 57.5209L68.0004 57.1831L67.8315 56.8452L67.1558 57.1831ZM64.9081 52.6877L65.5838 52.3498L65.346 51.8743L64.8181 51.9376L64.9081 52.6877ZM53.6696 54.0363L53.5796 53.2862L52.9141 53.3661L52.9141 54.0363L53.6696 54.0363ZM64.9981 60.9284L53.7596 59.5798L53.5795 61.0799L64.8181 62.4286L64.9981 60.9284ZM66.4801 56.8452L64.2324 61.3406L65.5838 62.0163L67.8315 57.5209L66.4801 56.8452ZM64.2324 53.0255L66.4801 57.5209L67.8315 56.8452L65.5838 52.3498L64.2324 53.0255ZM53.7596 54.7864L64.9981 53.4378L64.8181 51.9376L53.5796 53.2862L53.7596 54.7864ZM54.425 60.3299L54.4251 54.0363L52.9141 54.0363L52.9141 60.3299L54.425 60.3299Z" fill="#FFBD3A" mask="url(#path-8-inside-1)"/>
<path fill-rule="evenodd" clip-rule="evenodd" d="M47.8257 49.0917L28.0459 49.0917L24.0001 45.0459L28.0459 41H47.8257V49.0917Z" fill="black"/>
<defs>
<filter id="filter0_d" x="33" y="28" width="144" height="144" filterUnits="userSpaceOnUse" color-interpolation-filters="sRGB">
<feFlood flood-opacity="0" result="BackgroundImageFix"/>
<feColorMatrix in="SourceAlpha" type="matrix" values="0 0 0 0 0 0 0 0 0 0 0 0 0 0 0 0 0 0 127 0"/>
<feOffset dx="5" dy="2"/>
<feGaussianBlur stdDeviation="4"/>
<feColorMatrix type="matrix" values="0 0 0 0 0 0 0 0 0 0 0 0 0 0 0 0 0 0 0.25 0"/>
<feBlend mode="normal" in2="BackgroundImageFix" result="effect1_dropShadow"/>
<feBlend mode="normal" in="SourceGraphic" in2="effect1_dropShadow" result="shape"/>
</filter>
</defs>
</svg>
