<svg width="40" height="40" viewBox="0 0 40 40" fill="none" xmlns="http://www.w3.org/2000/svg">
<path d="M20 0C8.972 0 0 8.972 0 20C0 31.028 8.972 40 20 40C31.028 40 40 31.028 40 20C40 8.972 31.028 0 20 0ZM4 20C4 18.202 4.312 16.476 4.862 14.862L8 18L12 22V26L16 30L18 32V35.862C10.122 34.872 4 28.144 4 20ZM32.66 29.746C31.354 28.694 29.374 28 28 28V26C28 24.9391 27.5786 23.9217 26.8284 23.1716C26.0783 22.4214 25.0609 22 24 22H16V16C17.0609 16 18.0783 15.5786 18.8284 14.8284C19.5786 14.0783 20 13.0609 20 12V10H22C23.0609 10 24.0783 9.57857 24.8284 8.82843C25.5786 8.07828 26 7.06087 26 6V5.178C31.856 7.556 36 13.3 36 20C35.9996 23.5294 34.8245 26.9583 32.66 29.746Z" fill="white"/>
</svg>
