<svg fill="none" height="300" viewBox="0 0 250 300" width="250" xmlns="http://www.w3.org/2000/svg" xmlns:xlink="http://www.w3.org/1999/xlink"><filter id="a" color-interpolation-filters="sRGB" filterUnits="userSpaceOnUse" height="6.83484" width="9.58704" x="120.423" y="123.911"><feFlood flood-opacity="0" result="BackgroundImageFix"/><feBlend in="SourceGraphic" in2="BackgroundImageFix" mode="normal" result="shape"/><feGaussianBlur result="effect1_foregroundBlur" stdDeviation=".905984"/></filter><filter id="b" color-interpolation-filters="sRGB" filterUnits="userSpaceOnUse" height="11.2407" width="18.557" x="97.1314" y="126.294"><feFlood flood-opacity="0" result="BackgroundImageFix"/><feBlend in="SourceGraphic" in2="BackgroundImageFix" mode="normal" result="shape"/><feGaussianBlur result="effect1_foregroundBlur" stdDeviation="1.31368"/></filter><path d="m81 244.5c0-1.933 1.567-3.5 3.5-3.5h4.5v7h-4.5c-1.933 0-3.5-1.567-3.5-3.5z" fill="#c4c4c4"/><path d="m77 244.5c0-1.933 1.567-3.5 3.5-3.5h4.5v7h-4.5c-1.933 0-3.5-1.567-3.5-3.5z" fill="#7c1010"/><path d="m199.535 208.828 3.048-.971c1.574-.501 3.257.363 3.765 1.935l.869 2.686c.683 2.108-.479 4.37-2.591 5.042l-1.16.37-.328 1.421-1.31-.655.328-1.727z" fill="#c4c4c4"/><path d="m200.442 208.562 2.133-.689c1.576-.51 3.268.354 3.778 1.93l.87 2.691c.68 2.102-.472 4.357-2.574 5.037l-1.181.382z" fill="#c8b074"/><path d="m169.724 158.683 2.133-.69c1.576-.51 3.267.354 3.777 1.931l.871 2.69c.68 2.102-.473 4.357-2.575 5.037l-1.181.382z" fill="#c8b074"/><path d="m200 220-8.16 3s-4.688-4.852-6.46-8.667c-2.126-4.577-2.38-12.666-2.38-12.666l6.12-2.667s5.312 5.432 7.48 9.667c2.11 4.123 3.4 11.333 3.4 11.333z" fill="#272324"/><ellipse cx="207" cy="249.5" fill="#242424" rx="18" ry="17.5"/><ellipse cx="207" cy="249.5" fill="#e9e9e9" rx="9" ry="9.5"/><path d="m168.609 234.695 1.658 6.6" stroke="#ffdac1" stroke-linecap="round" stroke-width="6.34189"/><path d="m165.989 242.052-.829-3.3 2.7-.678.98 3.9c-.525.025-1.83.077-2.851.078z" fill="#ebc8b1"/><path d="m178 229.5c-3.5 5.5-8.663 9.889-16.687 14.264-4.557-3.035-9.356-15.18-18.812-20.896-6.783-4.099-14.033-8.305-20.614-11.781l19.556-25.544c3.963 3.46 12.725 9.194 21.37 15.354 7.145 5.092 10.978 23.97 15.187 28.603z" fill="#d1c870"/><path d="m154.079 238.395 1.416 6.656" stroke="#ffdac1" stroke-linecap="round" stroke-width="6.34189"/><path d="m151.258 245.951-.708-3.328 2.723-.579.837 3.933c-.526.006-1.832.01-2.852-.026z" fill="#ebc8b1"/><path d="m160.493 229.106c.036 8.6-2.751 10.729-10.776 15.102-4.134-2.755-6.973-15.176-15.372-20.311-7.501-4.585-20.744-.62-28.175-4.548 0 0-5.903-2.765-8.8427-5.607-2.2993-2.223-4.9138-6.552-4.9138-6.552l39.7675-14.675c3.933 3.437 10.692 9.499 17.536 15.961 5.746 5.426 8.885 16.703 10.776 20.63z" fill="#f4e97d"/><path d="m154.655 241.259c-1.996 1.588-2.533 2.448-4.586 3.603-3.866-2.576-7.561-12.266-14.086-17.362-7.914-4.869-21.837-3.94-29.808-8.154 0 0-5.995-1.866-8.5199-4.622-1.6305-1.78-3.6033-4.914-3.6033-4.914l7.8622-1.638 11.435 5.37c4.027 3.518 15.577 3.55 24.599 9.372 7.191 4.64 12.582 13.802 16.707 18.345z" fill="#d1c870"/><path d="m144.29 234.481c4.461-1.022 4.846-5.639 4.481-7.82-20.137-15.148-47.933-.407-54.3704-1.626-6.4373-1.218-14.0497 2.008-17.3731 3.713-2.6588 1.363.7993 6.93 2.8607 9.543 19.6085-.844 59.9408-2.788 64.4018-3.81z" fill="#4b4b4b"/><path d="m60.2156 151.225c-.2798-6.26 6.6204-9.844 10.1055-10.853 31.4809 14.974 20.4255 59.605 24.9486 66.827s2.735 18.9 1.5017 24.197c-.9867 4.238-10.9272 3.659-15.7741 2.84-6.8106-25.062-20.5019-76.751-20.7817-83.011z" fill="#4b4b4b"/><path d="m59.8688 150.574c-.5052-5.81 4.4406-7.498 6.9767-7.616 24.0545 21.048 17.9794 59.443 21.6766 67.121s1.9333 10.226 1.2707 14.801c-.53 3.66-7.8325 1.221-11.4653-.655-6.2417-24.582-17.9536-67.841-18.4587-73.651z" fill="#424141"/><path clip-rule="evenodd" d="m145.592 147.531c-.361.287-.734.566-1.03.768l.06.131 1.113-.653c.74-.433 1.302.619.774 1.038-.428.34-.961.647-1.333.834l.077.168c.49-.233.704-.376.957-.545.074-.049.151-.101.24-.158.567-.364 1.328.45.536 1.079-.466.371-.914.588-1.217.734-.108.052-.198.096-.263.134l-.005-.013c-.946.485-2.516 1.236-2.802 1.162-.313-.082-1.054-2.365-1.385-3.497-.001 0-.001 0-.001 0 .553-1.318 1.223-2.69 1.838-2.237.247.183.116.619-.072 1.203l.455-.267-.001-.001c.586-.343.801-.521 1.062-.736.068-.057.14-.117.223-.182.527-.42 1.301.618.774 1.038z" fill="#ffdac1" fill-rule="evenodd"/><path d="m110.054 153.418c-2.246.164-3.934 2.116-3.771 4.362s2.116 3.934 4.362 3.771zm.591 8.133c9.937-.722 15.997-1.549 20.81-2.815 4.86-1.279 8.324-2.98 12.855-5.102l-3.458-7.384c-4.683 2.192-7.458 3.545-11.471 4.6-4.061 1.068-9.509 1.856-19.327 2.568z" fill="#35675b"/><path d="m109.28 154.096c-.374.027-.656.352-.628.727.027.374.352.655.726.628zm.098 1.355c9.886-.718 15.643-1.503 20.093-2.661 4.459-1.16 7.587-2.691 12.182-4.842l-.576-1.231c-4.62 2.163-7.632 3.635-11.948 4.758-4.325 1.126-9.98 1.904-19.849 2.621z" fill="#407967"/><path d="m166.241 248.754-6.447-4.302-2.316.825c-1.384.493-2.846.733-4.315.708l-1.904-.033c.192 1.222.445 4.2.752 6.156 3.548 1.636 10.146-.249 14.086-1.814.66-.262.735-1.145.144-1.54z" fill="#35675b"/><path d="m181.029 244.168-6.599-4.065-2.285.91c-1.365.543-2.817.836-4.286.864l-1.905.037c.237 1.214.598 4.181.977 6.124 3.605 1.506 10.13-.619 14.01-2.327.65-.286.693-1.171.088-1.543z" fill="#35675b"/><path d="m90.8729 209.776c-3.568-12.35-7.8222-42.565 3.7053-64.622 2.7882-1.088 11.0098-2.795 21.5898-.926 3.5 13.091 18.911 30.637 31.398 43.435-5.102 11.627-30.888 26.504-56.6931 22.113z" fill="#539882"/><path d="m90.8731 209.778c-3.568-12.351-7.8222-42.566 3.7053-64.623 1.8587-.725.374-.414 1.3709 2.142-6.0331 22.966-6.2526 48.484 3.809 63.298-4.352-.176-5.2303-.369-8.8852-.817z" fill="#468677"/><path clip-rule="evenodd" d="m127.436 184.105.924-.284v-.002c1.191-.366 1.651-.593 2.207-.868.146-.072.3-.148.475-.23 1.118-.527 2.063 1.653.944 2.18-.765.36-1.548.702-2.162.938l.051.259 1.461-.449.806-.247c1.504-.463 2.063 1.653.944 2.179-.908.428-1.992.751-2.735.928l.066.333c.974-.209 1.416-.374 1.939-.57.153-.057.313-.117.496-.181 1.166-.411 2.181 1.364.502 2.154-.988.465-1.881.663-2.483.797-.215.048-.394.087-.526.128l-.004-.035c-1.988.433-5.672.912-6.152.658-.349-.185-.334-2.087-.319-3.974.008-.947.015-1.89-.023-2.611h.002c-.001-.001-.001-.001-.002-.002 1.544-2.121 3.319-4.289 4.225-3.219.364.429-.053 1.154-.636 2.118z" fill="#ffdac1" fill-rule="evenodd"/><circle cx="125.398" cy="164.453" fill="#539882" r="4.73859" transform="matrix(.93163733 -.36338945 .36338945 .93163733 -51.187942 56.810756)"/><path d="m118.021 149.663c1.112 1.707 6.051 7.277 10.187 11.017l-5.265 3.66-7.382-8.631z" fill="#539882"/><path d="m113.229 173.753c2.544.346 6.21-.549 7.254-3.365.571 3.525-4.178 6.448-7.254 3.365z" fill="#468677"/><path d="m120.25 170.478c-1.65 3.321-3.832 3.904-6.789 3.184" stroke="#35675b" stroke-linecap="round" stroke-width=".452992"/><path d="m106.402 160.107c.592-3.021-1.377-5.951-4.399-6.542-3.0215-.592-5.9508 1.377-6.5427 4.399zm-10.9417-2.143c-3.1582 16.123-1.4553 27.006 6.3667 32.592 3.653 2.609 7.918 3.448 11.731 3.666 3.807.217 7.794-.162 11.161-.482l-1.057-11.1c-3.513.335-6.651.611-9.467.45-2.811-.161-4.667-.735-5.887-1.607-1.924-1.374-4.972-5.724-1.906-21.376z" fill="#35675b"/><path d="m106.402 160.107c.592-3.021-1.377-5.951-4.399-6.542-3.0215-.592-5.9508 1.377-6.5427 4.399zm-10.9417-2.143c-3.1582 16.123-1.4553 27.006 6.3667 32.592 3.653 2.609 7.918 3.448 11.731 3.666 3.807.217 7.794-.162 11.161-.482l-1.057-11.1c-3.513.335-6.651.611-9.467.45-2.811-.161-4.667-.735-5.887-1.607-1.924-1.374-4.972-5.724-1.906-21.376z" fill="#35675b"/><path d="m98.9608 157.933c.115-.54-.2297-1.071-.7699-1.186-.5401-.115-1.0713.23-1.1863.77zm-1.9562-.416c-3.9964 18.771-.3041 28.111 6.4324 32.395 3.299 2.098 7.194 2.883 10.929 3.077 3.738.193 7.401-.202 10.265-.529l-.227-1.987c-2.869.327-6.381.703-9.934.518-3.556-.184-7.065-.926-9.96-2.766-5.6483-3.593-9.4907-11.778-5.5492-30.292z" fill="#4a7f6e"/><path d="m176.995 168.126c-4.932-13.55-20.441-21.063-27.579-23.126-4.543 2.606-12.849 9.12-9.734 14.332 3.115 5.211 20.117 11.291 28.228 13.68l14.925 28.988 6.165-2.931c-1.947-4.669-7.073-17.393-12.005-30.943z" fill="#da5374"/><path d="m139.021 154.749c.322-2.499 5.151-6.874 8.37-8.749.321.417 1.094 1.75 1.609 3.75-1.931 2.604-10.483 8.921-9.979 4.999z" fill="#c4c4c4"/><path d="m184.548 263.131-43.243 7.607c-7.753 1.103-23.718 3.441-25.553 3.97-1.834.529-4.259.22-5.242 0l-39.6393-2.646h-3.9312c-2.6208 0-3.6036-1.324-3.9312-4.3-.3276-2.977 9.1728-15.878 12.7764-18.855s11.1384-2.315 11.1384-5.292c0-2.382 7.4257-6.946 11.1385-8.931h9.1724c3.276 0 17.691-.992 19.656-.992 1.966 0 14.415-2.646 15.398-1.985.786.529 5.569 13.231 7.862 19.516v4.961c10.702-2.205 32.105-7.21 32.105-9.592-.655-8.6 1.638-12.239 3.931-14.223 2.293-1.985 1.966-4.301 2.621-7.608.655-3.308 10.156-7.608 13.104-6.616 2.949.993 14.087 10.254 18.018 10.916 3.145.529 3.276 3.308 2.949 4.631z" fill="#da5374"/><path d="m90 249c-11.598 0-21 9.426-21 21.053v1.315l42 2.632v-3.947c0-11.627-9.402-21.053-21-21.053z" fill="#000" fill-opacity=".5"/><path d="m84.9996 207c-2.3997 0-3.6663-6.346-3.9996-9.52 3.5552-.68 12.5322-2.516 19.998-4.42 9.333-2.38 19.998-3.06 21.998-3.06s.667 1.7-1 4.42c-4.999.34-4.333 2.04-12.665 5.1-8.333 3.06-21.3317 7.48-24.3314 7.48z" fill="#4b4b4b"/><path d="m81.9461 131.261c.8147-8.479-7.808-11.04-12.2211-11.261-4.8659 7.066-8.1476 19.21-6.1106 24.177 8.4869 2.981 17.3133-2.318 18.3317-12.916z" fill="#4b4b4b"/><path d="m72 135.801c0 3.673-5.4533 6.997-8.1799 8.199-5.3485-19.679 2.5169-22.959 5.3484-23.943s2.8315 11.152 2.8315 15.744z" fill="#424141"/><ellipse cx="90.8553" cy="85.7226" fill="#c5c5c5" rx="19.2654" ry="13.8783" transform="matrix(.93730389 -.34851316 .34851316 .93730389 -24.17918 37.038741)"/><path d="m80.5815 86.615c2.0642-1.8348 10.0915-6.4218 22.0175-5.7338l-5.7336 8.4862c-4.2047-.153-13.3482-.9176-16.2839-2.7524z" fill="#539882"/><path d="m94.5723 85.3996c24.3107-20.8709 44.9527 13.761 31.8797 30.9624-14.862-13.394-27.4456-26.2225-31.8797-30.9624z" fill="#e1e1e1"/><path d="m122.095 102.371c2.981 6.651 3.669 11.009 4.816 12.614.917 1.285.535 2.065.229 2.294-.152 1.988-.321 6.284.23 7.568-1.835.184-2.6.23-2.752.23l-.459-7.798z" fill="#fee1ce"/><path d="m126.68 140.213c-1.147-5.504 5.275-12.384-1.147-17.201l-5.504 14.449c.076.841 1.88 2.202 6.651 2.752z" fill="#fee1ce"/><ellipse cx="99.3889" cy="117.51" fill="#ffdac1" rx="25.6872" ry="32.5677"/><ellipse cx="125.764" cy="121.406" fill="#fff" rx="3.44025" ry="4.35765"/><circle cx="125.765" cy="121.408" fill="#000" r="1.60545"/><g filter="url(#a)"><ellipse cx="125.216" cy="127.329" fill="#fca" rx="2.98155" ry="1.60545"/></g><path d="m132.89 121.407c0 2.536-.577 4.765-1.44 6.312-.889 1.591-1.9 2.192-2.706 2.192-.805 0-1.817-.601-2.705-2.192-.864-1.547-1.44-3.776-1.44-6.312 0-2.535.576-4.764 1.44-6.311.888-1.591 1.9-2.192 2.705-2.192.806 0 1.817.601 2.706 2.192.863 1.547 1.44 3.776 1.44 6.311z" stroke="#91d7b9" stroke-width="2.71795"/><path d="m128.009 130.099c-3.702-3.982-2.557-11.361-7.073-22.683l-3.079 26.639c1.556-.504 5.766-2.002 10.152-3.956z" fill="#ffdac1"/><circle cx="73.9303" cy="128.746" fill="#ffdac1" r="5.27506"/><path d="m125.725 149.521c4.395-3.802-.58-11.829-1.338-17.792-8.881 2.1-30.7283 8.146-40.366 11.926 8.7153 8.486 33.695 12.794 41.704 5.866z" fill="#ffdac1"/><path d="m122.783 114.526c1.605 7.11 2.523 13.303 4.587 15.596-1.468.734-2.752 1.376-3.211 1.606" stroke="#fca" stroke-width=".905984"/><path d="m117.507 125.613c4.128-1.913 5.963-1.913 8.027-2.142" stroke="#91d7b9" stroke-width="2.71795"/><path d="m126.369 135.748c-3.22 6.23-5.277 1.859-6.33.414 3.077-2.364 5.754-1.382 6.33-.414z" fill="#ff9d9d" stroke="#ff8080" stroke-linecap="round" stroke-linejoin="round" stroke-width=".905984"/><g filter="url(#b)"><ellipse cx="106.41" cy="131.914" fill="#fca" rx="6.65116" ry="2.99302"/></g><path d="m117.754 125.077c0 6.368-4.567 11.255-9.88 11.255-5.312 0-9.8788-4.887-9.8788-11.255s4.5668-11.255 9.8788-11.255c5.313 0 9.88 4.887 9.88 11.255z" stroke="#91d7b9" stroke-width="2.71795"/><circle cx="108.79" cy="123.701" fill="#fff" r="4.35765"/><circle cx="110.605" cy="122.605" fill="#000" r="1.60545"/><path d="m73.93 123.241c2.7522 1.606 17.8893 6.651 35.779-20.183-.535-4.2045-4.404-13.669-15.5962-17.8891-21.1002 4.3577-22.7056 36.6961-20.1828 38.0721z" fill="#e1e1e1"/><path d="m125.993 112.005c-5.734-.688-8.256-7.11-16.284-8.945-1.146-4.5866-3.394-11.4238-15.1367-17.6621 8.0277-3.4403 31.4207 4.5896 31.4207 26.6071z" fill="#e1e1e1"/><path d="m73.7002 123.011c-22.7055-21.788 3.6704-45.8707 21.1007-37.6133-9.9079 17.9813-18.3485 32.4913-21.1007 37.6133z" fill="#e1e1e1"/><circle cx="75.0765" cy="133.563" fill="#539882" r="1.8348"/><path d="m67.9809 102.425c.2858-3.4924 1.1418-5.2236 6.3179-11.7932-1.6736 3.3471-1.8366 6.6047-1.4408 9.1695.2068 1.3397-1.7791 3.9157-3.1262 4.0687-.045.005-.0902.011-.1359.016-.8777.106-1.6871-.58-1.615-1.461z" fill="#c4c4c4"/><path d="m109.621 102.328c5.275.688 11.238 9.174 16.284 9.174" stroke="#c4c4c4" stroke-linecap="round" stroke-width="1.81197"/><path d="m123.945 89.2031c-1.69-2.3255-5.01-5.6245-9.737-7.5156 2.596 1.7976 4.323 4.465 5.786 8.608.369 1.0436 1.461 1.5438 2.531 1.2633 1.273-.3334 2.193-1.291 1.42-2.3557z" fill="#f0f0f0"/><path d="m74.5283 85.8153c1.3761-5.5044 6.1924-8.4859 8.0273-9.6327" stroke="#a8a8a8" stroke-linecap="round" stroke-width=".905984"/><path d="m107.327 78.4764c-1.376-2.7523-3.67-4.3576-5.734-5.0457" stroke="#e1e1e1" stroke-linecap="round" stroke-width=".905984"/><path d="m103.007 111.594 9.369-4.477" stroke="#969696" stroke-linecap="round" stroke-width="1.81197"/><path d="m121.381 107.061 7.046 3.523" stroke="#969696" stroke-linecap="round" stroke-width="1.81197"/><path d="m71.2275 120.93c-.7466-.076-1.4139.467-1.4905 1.214-.0766.746.4666 1.414 1.2132 1.49zm26.834 2.753-26.834-2.753-.2773 2.704 26.834 2.752z" fill="#91d7b9"/><path d="m90.5844 122.055c-14.4491 6.88-16.2839-.23-19.0361-1.147 7.1558-1.835 15.6723 0 19.0361 1.147z" fill="#e1e1e1"/><path d="m102.511 107.375c-10.0909 9.862-14.2193 11.926-22.4758 13.531" stroke="#c4c4c4" stroke-linecap="round" stroke-width="1.81197"/><path d="m108.014 99.1184c-.917-2.7522-4.862-9.541-13.3023-13.761-.9174-.4587-3.4402-1.6054-6.6512-1.6054 6.4219 1.8348 13.9905 7.3392 19.9535 15.3664z" fill="#c4c4c4"/><path d="m74.0711 126.182c-2.9357.183-3.2109 2.217-2.9816 3.211" stroke="#fca" stroke-linecap="round" stroke-width=".905984"/><path d="m137.935 164.059c3.668-4.004 11.572-5.672 15.065-6.005-1.092-.445-4.126-1.268-7.532-1.001-4.258.333-13.1 4.337-13.428 7.006-.327 2.669 1.31 5.005 5.895 0z" fill="#272324" stroke="#272324"/><ellipse cx="151" cy="157.5" fill="#242535" rx="4" ry="3.5"/><path d="m134 163v1.168.832" stroke="#d5d5d5" stroke-linecap="round" stroke-linejoin="round" stroke-opacity=".2"/><path d="m136 161v2" stroke="#d5d5d5" stroke-linecap="round" stroke-linejoin="round" stroke-opacity=".2"/><path d="m138 160c.386.485.86.956.963 1.458.037.181.037.361.037.542" stroke="#d5d5d5" stroke-linecap="round" stroke-linejoin="round" stroke-opacity=".2"/><path d="m77 227.429c0-3.551 2.8782-6.429 6.4286-6.429h11.1428c3.5504 0 6.4286 2.878 6.4286 6.429 0 1.972-1.599 3.571-3.5714 3.571h-16.8572c-1.9724 0-3.5714-1.599-3.5714-3.571z" fill="#747474"/><path d="m88.2711 207.989c-2.7186 2.187-6.6955 1.756-8.8826-.962l-.704-.875c-2.1872-2.719-1.7563-6.696.9623-8.883 1.5104-1.215 3.7198-.976 4.9348.535l4.2242 5.25c1.215 1.511.9757 3.72-.5347 4.935z" fill="#747474"/><path d="m142.526 153.842c-.088.262.054.546.316.633s.545-.054.632-.316zm1-3-1 3 .948.317 1-3z" fill="#7a0000"/><g stroke-linecap="round"><path d="m143 150.994c.195 0 .397.017.591-.005.188-.021.356-.125.513-.239.498-.361.798-1.043.866-1.721.023-.23.04-.471.024-.704-.005-.064-.048-.068-.073-.116-.031-.058-.086-.186-.142-.209" stroke="#707070" stroke-linejoin="round"/><path d="m145.659 150.606c.052.067.157.169.089.257-.073.094-.194.114-.303.085-.058-.015-.014.015-.002.045.022.053-.057.146-.086.182-.039.05-.087.107-.137.146-.068.053-.167.005-.225-.043-.027-.022-.175-.124-.148-.18" stroke="#707070" stroke-linejoin="round" stroke-width=".3"/><path d="m146.198 151.266c-.094.049-.185.104-.277.157-.084.049-.184.106-.252.179-.08.086-.033.279.089.301.246.044.467-.134.596-.325.038-.056.07-.099.041-.163-.026-.056-.053-.084-.109-.102" stroke="#707070" stroke-linejoin="round" stroke-width=".3"/><path d="m146.756 148.914c-.059.089-.111.181-.166.272-.05.084-.11.182-.134.278-.029.115.105.261.223.221.237-.081.344-.342.365-.573.006-.067.013-.119-.043-.161-.05-.037-.087-.049-.145-.038" stroke="#707070" stroke-linejoin="round" stroke-width=".3"/><path d="m146 149.002v.044.14.119.232.088.061.197.117" stroke="#707070" stroke-linejoin="round" stroke-width=".3"/></g><path d="m205.203 270.094c-3.33.534-10.926-.621-14.67-9.508" stroke="#000"/><path d="m204.15 272.994c-2.903.023-9.759-1.475-13.951-7.65" stroke="#000"/><path d="m85.9618 290.405c-3.3303.534-10.9267-.621-14.6705-9.508" stroke="#000"/><path d="m65.7093 237.279c-.2222-2.895.8016-9.837 6.6744-14.443" stroke="#000"/><ellipse cx="38" cy="285" fill="#d7d6d6" rx="12" ry="9"/><ellipse cx="40" cy="278" fill="#d7d6d6" rx="12" ry="9"/><ellipse cx="51" cy="283" fill="#cecece" rx="12" ry="9"/><ellipse cx="54.5" cy="276" fill="#d7d6d6" rx="11.5" ry="8"/><ellipse cx="62.5" cy="282" fill="#d7d6d6" rx="8.5" ry="6"/><ellipse cx="67" cy="278" fill="#cecece" rx="8" ry="6"/><ellipse cx="74" cy="282" fill="#d7d6d6" rx="4" ry="3"/><circle cx="90.5" cy="270.5" fill="#242424" r="17.5"/><circle cx="90.5" cy="270.5" fill="#c4c4c4" r="9.5"/></svg>