<svg width="200" height="228" viewBox="0 0 200 228" fill="none" xmlns="http://www.w3.org/2000/svg">
<path d="M56 178.5C56 176.567 57.567 175 59.5 175L64 175V182H59.5C57.567 182 56 180.433 56 178.5V178.5Z" fill="#C4C4C4"/>
<path d="M52 178.5C52 176.567 53.567 175 55.5 175L60 175V182H55.5C53.567 182 52 180.433 52 178.5V178.5Z" fill="#7C1010"/>
<path d="M174.535 142.828L177.583 141.857C179.157 141.356 180.84 142.22 181.348 143.792L182.217 146.478C182.9 148.586 181.738 150.848 179.626 151.52L178.466 151.89L178.138 153.311L176.828 152.656L177.156 150.929L174.535 142.828Z" fill="#C4C4C4"/>
<path d="M175.442 142.562L177.575 141.873C179.151 141.363 180.843 142.227 181.353 143.803L182.223 146.494C182.903 148.596 181.751 150.851 179.649 151.531L178.468 151.913L175.442 142.562Z" fill="#C8B074"/>
<path d="M144.724 92.6816L146.857 91.9917C148.433 91.4817 150.124 92.3462 150.634 93.9226L151.505 96.6129C152.185 98.7147 151.032 100.97 148.93 101.65L147.749 102.032L144.724 92.6816Z" fill="#C8B074"/>
<path d="M175 154L166.84 157C166.84 157 162.152 152.148 160.38 148.333C158.254 143.756 158 135.667 158 135.667L164.12 133C164.12 133 169.432 138.432 171.6 142.667C173.71 146.79 175 154 175 154Z" fill="#272324"/>
<ellipse cx="182" cy="183.5" rx="18" ry="17.5" fill="#242424"/>
<ellipse cx="182" cy="183.5" rx="9" ry="9.5" fill="#E9E9E9"/>
<path d="M143.609 168.695L145.267 175.295" stroke="#FFC7A0" stroke-width="6.34189" stroke-linecap="round"/>
<path d="M140.989 176.052L140.16 172.752L142.86 172.074L143.84 175.974C143.315 175.999 142.01 176.051 140.989 176.052Z" fill="#EBC8B1"/>
<path d="M153 163.5C149.5 169 144.337 173.388 136.313 177.764C131.756 174.728 126.957 162.583 117.501 156.868C110.718 152.768 103.468 148.563 96.8871 145.086L116.443 119.542C120.406 123.003 129.168 128.736 137.813 134.897C144.958 139.988 148.791 158.867 153 163.5Z" fill="#D1C870"/>
<path d="M129.079 172.395L130.495 179.051" stroke="#FFC7A0" stroke-width="6.34189" stroke-linecap="round"/>
<path d="M126.258 179.951L125.55 176.623L128.273 176.044L129.11 179.977C128.584 179.983 127.278 179.987 126.258 179.951Z" fill="#EBC8B1"/>
<path d="M135.493 163.106C135.529 171.706 132.742 173.835 124.717 178.208C120.583 175.453 117.744 163.032 109.345 157.897C101.844 153.312 88.6013 157.277 81.1697 153.349C81.1697 153.349 75.2668 150.584 72.3273 147.742C70.028 145.519 67.4135 141.19 67.4135 141.19L107.181 126.515C111.114 129.952 117.873 136.014 124.717 142.476C130.463 147.902 133.602 159.179 135.493 163.106Z" fill="#F4E97D"/>
<path d="M129.655 175.26C127.659 176.848 127.122 177.708 125.069 178.863C121.203 176.287 117.508 166.597 110.983 161.501C103.069 156.632 89.1459 157.561 81.1747 153.347C81.1747 153.347 75.1798 151.481 72.6551 148.725C71.0246 146.945 69.0518 143.811 69.0518 143.811L76.9138 142.173L88.3488 147.543C92.3756 151.061 103.926 151.093 112.948 156.915C120.139 161.555 125.53 170.717 129.655 175.26Z" fill="#D1C870"/>
<path d="M119.29 168.482C123.751 167.46 124.136 162.843 123.771 160.662C103.634 145.513 75.838 160.255 69.4006 159.036C62.9633 157.817 55.3509 161.044 52.0275 162.749C49.3687 164.112 52.8268 169.679 54.8882 172.292C74.4967 171.448 114.829 169.504 119.29 168.482Z" fill="#4B4B4B"/>
<path d="M35.2156 85.2251C34.9358 78.9651 41.836 75.3812 45.3211 74.3717C76.8025 89.3463 65.7466 133.977 70.2697 141.199C74.7928 148.421 73.0047 160.099 71.7714 165.396C70.7847 169.634 60.8442 169.055 55.9973 168.236C49.1867 143.174 35.4954 91.4851 35.2156 85.2251Z" fill="#4B4B4B"/>
<path d="M34.8688 84.5727C34.3636 78.7626 39.3094 77.0746 41.8455 76.9569C65.9 98.0055 59.8249 136.4 63.5221 144.078C67.2193 151.756 65.4554 154.304 64.7928 158.879C64.2628 162.539 56.9603 160.1 53.3275 158.224C47.0858 133.642 35.3739 90.3828 34.8688 84.5727Z" fill="#424141"/>
<path fill-rule="evenodd" clip-rule="evenodd" d="M120.592 81.5299C120.231 81.8168 119.858 82.0962 119.562 82.2981L119.622 82.4288L120.735 81.7763C121.475 81.3426 122.037 82.3946 121.509 82.8142C121.081 83.1544 120.548 83.4606 120.176 83.6479L120.253 83.8161C120.743 83.5833 120.957 83.4404 121.21 83.2712C121.284 83.2217 121.361 83.1699 121.45 83.1129C122.017 82.7488 122.778 83.5631 121.986 84.1924C121.52 84.5631 121.072 84.7797 120.769 84.9259L120.769 84.9259C120.661 84.9783 120.571 85.0216 120.506 85.0597L120.501 85.0468C119.555 85.5319 117.985 86.2832 117.699 86.2086C117.386 86.1269 116.645 83.8438 116.314 82.7124C116.313 82.7123 116.313 82.7123 116.313 82.7123C116.866 81.3938 117.536 80.0219 118.151 80.4755C118.398 80.6577 118.267 81.0939 118.079 81.6778L118.534 81.4115L118.533 81.4103C119.119 81.0671 119.334 80.889 119.595 80.6737L119.595 80.6736L119.595 80.6736L119.595 80.6735C119.663 80.6168 119.735 80.5575 119.818 80.4919C120.345 80.0724 121.119 81.1103 120.592 81.5299Z" fill="#FFC7A0"/>
<path d="M85.0542 87.4175C82.8085 87.5805 81.1202 89.5332 81.2832 91.779C81.4463 94.0247 83.399 95.713 85.6447 95.5499L85.0542 87.4175ZM85.6447 95.5499C95.5818 94.8284 101.642 94.0011 106.455 92.735C111.315 91.4565 114.779 89.7546 119.31 87.6334L115.852 80.2487C111.169 82.4415 108.394 83.7936 104.381 84.8494C100.32 85.9175 94.8723 86.7046 85.0542 87.4175L85.6447 95.5499Z" fill="#35675B"/>
<path d="M84.28 88.0957C83.9057 88.1229 83.6243 88.4483 83.6515 88.8226C83.6787 89.1969 84.0042 89.4783 84.3784 89.4511L84.28 88.0957ZM84.3784 89.4511C94.2643 88.7333 100.021 87.9483 104.471 86.7904C108.93 85.6301 112.058 84.099 116.653 81.9479L116.077 80.7171C111.457 82.88 108.445 84.3521 104.129 85.4752C99.8036 86.6006 94.1494 87.3791 84.28 88.0957L84.3784 89.4511Z" fill="#407967"/>
<path d="M141.241 182.754L134.794 178.452L132.478 179.277C131.094 179.77 129.632 180.01 128.163 179.985L126.259 179.952C126.451 181.174 126.704 184.152 127.011 186.108C130.559 187.744 137.157 185.859 141.097 184.294C141.757 184.032 141.832 183.149 141.241 182.754Z" fill="#35675B"/>
<path d="M156.029 178.168L149.43 174.103L147.145 175.013C145.78 175.556 144.328 175.849 142.859 175.877L140.954 175.914C141.191 177.128 141.552 180.095 141.931 182.038C145.536 183.544 152.061 181.419 155.941 179.711C156.591 179.425 156.634 178.54 156.029 178.168Z" fill="#35675B"/>
<path d="M65.8729 143.776C62.3049 131.426 58.0507 101.211 69.5782 79.1535C72.3664 78.0659 80.5879 76.3582 91.1685 78.2277C94.6683 91.3183 110.079 108.865 122.566 121.662C117.464 133.29 91.6784 148.166 65.8729 143.776Z" fill="#539882"/>
<path d="M65.8731 143.778C62.3051 131.427 58.0509 101.212 69.5784 79.155C71.4371 78.43 69.9524 78.7414 70.9493 81.2972C64.9162 104.263 64.6967 129.781 74.7583 144.595C70.4063 144.419 69.528 144.226 65.8731 143.778Z" fill="#468677"/>
<path fill-rule="evenodd" clip-rule="evenodd" d="M102.436 118.106L103.36 117.822L103.36 117.82C104.551 117.454 105.011 117.227 105.567 116.952L105.567 116.952L105.567 116.952L105.567 116.952C105.713 116.88 105.867 116.804 106.042 116.722C107.16 116.195 108.105 118.375 106.986 118.902C106.221 119.262 105.438 119.604 104.824 119.84L104.875 120.099L106.336 119.65L107.142 119.403C108.646 118.94 109.205 121.056 108.086 121.582C107.178 122.01 106.094 122.333 105.351 122.51L105.417 122.843C106.391 122.634 106.833 122.469 107.356 122.273C107.509 122.216 107.669 122.156 107.852 122.092C109.018 121.681 110.033 123.456 108.354 124.246C107.366 124.711 106.473 124.909 105.871 125.043L105.871 125.043C105.656 125.091 105.477 125.13 105.345 125.171L105.341 125.136C103.353 125.569 99.6692 126.048 99.1893 125.794C98.8398 125.609 98.8551 123.707 98.8702 121.82L98.8702 121.82L98.8702 121.82L98.8702 121.819C98.8778 120.873 98.8854 119.93 98.847 119.209L98.8489 119.209C98.8482 119.208 98.8475 119.208 98.8468 119.207C100.391 117.086 102.166 114.918 103.072 115.988C103.436 116.417 103.019 117.142 102.436 118.106Z" fill="#FFC7A0"/>
<circle cx="100.398" cy="98.4525" r="4.73859" transform="rotate(-21.3085 100.398 98.4525)" fill="#539882"/>
<path d="M93.0212 83.6616C94.1334 85.3694 99.072 90.9387 103.208 94.6794L97.9431 98.3392L90.5608 89.7076L93.0212 83.6616Z" fill="#539882"/>
<path d="M88.2286 107.752C90.7729 108.098 94.4394 107.203 95.4826 104.387C96.0543 107.912 91.3051 110.835 88.2286 107.752Z" fill="#468677"/>
<path d="M95.2498 104.478C93.6003 107.799 91.4184 108.382 88.4606 107.662" stroke="#35675B" stroke-width="0.452992" stroke-linecap="round"/>
<path d="M81.4024 94.1063C81.9942 91.0847 80.0246 88.1555 77.003 87.5636C73.9815 86.9717 71.0522 88.9414 70.4603 91.9629L81.4024 94.1063ZM70.4603 91.9629C67.3021 108.086 69.005 118.969 76.827 124.555C80.4798 127.164 84.7455 128.003 88.5581 128.221C92.365 128.438 96.3522 128.059 99.7188 127.739L98.6619 116.639C95.1491 116.974 92.0112 117.25 89.1946 117.089C86.3838 116.928 84.5276 116.354 83.3075 115.482C81.3836 114.108 78.3364 109.758 81.4024 94.1063L70.4603 91.9629Z" fill="#35675B"/>
<path d="M81.4024 94.1063C81.9942 91.0847 80.0246 88.1555 77.003 87.5636C73.9815 86.9717 71.0522 88.9414 70.4603 91.9629L81.4024 94.1063ZM70.4603 91.9629C67.3021 108.086 69.005 118.969 76.827 124.555C80.4798 127.164 84.7455 128.003 88.5581 128.221C92.365 128.438 96.3522 128.059 99.7188 127.739L98.6619 116.639C95.1491 116.974 92.0112 117.25 89.1946 117.089C86.3838 116.928 84.5276 116.354 83.3075 115.482C81.3836 114.108 78.3364 109.758 81.4024 94.1063L70.4603 91.9629Z" fill="#35675B"/>
<path d="M73.9608 91.9328C74.0758 91.3926 73.7311 90.8615 73.1909 90.7465C72.6508 90.6315 72.1196 90.9762 72.0046 91.5164L73.9608 91.9328ZM72.0046 91.5164C68.0082 110.288 71.7005 119.628 78.4372 123.912C81.7358 126.01 85.6314 126.795 89.3664 126.988C93.1039 127.182 96.7667 126.787 99.631 126.459L99.4039 124.472C96.5354 124.8 93.0228 125.175 89.4699 124.991C85.9144 124.807 82.4046 124.065 79.5105 122.224C73.8617 118.632 70.0193 110.446 73.9608 91.9328L72.0046 91.5164Z" fill="#4A7F6E"/>
<path d="M151.995 102.126C147.063 88.576 131.554 81.0629 124.416 79C119.873 81.6057 111.567 88.12 114.682 93.3314C117.797 98.5429 134.799 104.623 142.91 107.011L157.835 136L164 133.069C162.053 128.4 156.927 115.675 151.995 102.126Z" fill="#DA5374"/>
<path d="M114.021 88.7489C114.343 86.2492 119.172 81.8748 122.391 80C122.712 80.4166 123.485 81.7498 124 83.7495C122.069 86.3533 113.517 92.6707 114.021 88.7489Z" fill="#C4C4C4"/>
<path d="M159.548 197.131L116.305 204.738C108.552 205.841 92.5867 208.179 90.7521 208.708C88.9175 209.237 86.4933 208.928 85.5105 208.708L45.8707 206.062H41.9395C39.3187 206.062 38.3359 204.738 38.0083 201.762C37.6807 198.785 47.1811 185.884 50.7847 182.907C54.3883 179.93 61.9231 180.592 61.9231 177.615C61.9231 175.233 69.3488 170.669 73.0616 168.684H82.2344C85.5104 168.684 99.9249 167.692 101.89 167.692C103.856 167.692 116.305 165.046 117.288 165.707C118.074 166.236 122.857 178.938 125.15 185.223V190.184C135.852 187.979 157.255 182.974 157.255 180.592C156.6 171.992 158.893 168.353 161.186 166.369C163.479 164.384 163.152 162.068 163.807 158.761C164.462 155.453 173.963 151.153 176.911 152.145C179.86 153.138 190.998 162.399 194.929 163.061C198.074 163.59 198.205 166.369 197.878 167.692L159.548 197.131Z" fill="#DA5374"/>
<path d="M65 183C53.402 183 44 192.426 44 204.053V205.368L86 208V204.053C86 192.426 76.598 183 65 183Z" fill="black" fill-opacity="0.5"/>
<path d="M59.9996 141C57.5999 141 56.3333 134.653 56 131.48C59.5552 130.8 68.5322 128.964 75.9981 127.06C85.3306 124.68 95.9963 124 97.9961 124C99.9959 124 98.6627 125.7 96.9962 128.42C91.9966 128.76 92.6632 130.46 84.3307 133.52C75.9981 136.58 62.9993 141 59.9996 141Z" fill="#4B4B4B"/>
<path d="M56.9461 65.2605C57.7608 56.782 49.1381 54.2208 44.725 54C39.8591 61.0654 36.5774 73.2091 38.6144 78.1769C47.1013 81.1576 55.9277 75.8586 56.9461 65.2605Z" fill="#4B4B4B"/>
<path d="M47 69.8002C47 73.4737 41.5467 76.7974 38.8201 78C33.4716 58.3205 41.337 55.0405 44.1685 54.0565C47 53.0725 47 65.2083 47 69.8002Z" fill="#424141"/>
<ellipse cx="65.8553" cy="19.7236" rx="19.2654" ry="13.8783" transform="rotate(-20.3964 65.8553 19.7236)" fill="#C5C5C5"/>
<path d="M55.5815 20.616C57.6457 18.7812 65.673 14.1942 77.5992 14.8822L71.8654 23.3683C67.6607 23.2154 58.5172 22.4508 55.5815 20.616Z" fill="#539882"/>
<path d="M69.5723 19.4006C93.8834 -1.47029 114.525 33.1616 101.452 50.3629C86.5901 36.9688 74.0064 24.1405 69.5723 19.4006Z" fill="#E1E1E1"/>
<path d="M97.0947 36.3711C100.076 43.0223 100.764 47.3799 101.911 48.9854C102.828 50.2697 102.446 51.0495 102.14 51.2789C101.988 53.2666 101.819 57.5631 102.37 58.8474C100.535 59.0309 99.7705 59.0768 99.6176 59.0768L99.1589 51.2789L97.0947 36.3711Z" fill="#FFC7A0"/>
<path d="M101.68 74.213C100.533 68.7086 106.955 61.8281 100.533 57.0117L95.0288 71.4608C95.1053 72.3017 96.9095 73.6625 101.68 74.213Z" fill="#FFC7A0"/>
<ellipse cx="74.3889" cy="51.5091" rx="25.6872" ry="32.5677" fill="#FFC7A0"/>
<ellipse cx="100.764" cy="55.4065" rx="3.44025" ry="4.35765" fill="white"/>
<circle cx="100.765" cy="55.4082" r="1.60545" fill="black"/>
<g filter="url(#filter0_f)">
<ellipse cx="100.216" cy="61.3281" rx="2.98155" ry="1.60545" fill="#FFCCAA"/>
</g>
<path d="M107.89 55.407C107.89 57.9428 107.313 60.1715 106.45 61.7182C105.561 63.3097 104.55 63.9101 103.744 63.9101C102.939 63.9101 101.927 63.3097 101.039 61.7182C100.175 60.1715 99.5987 57.9428 99.5987 55.407C99.5987 52.8711 100.175 50.6425 101.039 49.0958C101.927 47.5043 102.939 46.9039 103.744 46.9039C104.55 46.9039 105.561 47.5043 106.45 49.0958C107.313 50.6425 107.89 52.8711 107.89 55.407Z" stroke="#91D7B9" stroke-width="2.71795"/>
<path d="M103.009 64.0996C99.3071 60.1175 100.452 52.7387 95.936 41.416L92.8568 68.056C94.4132 67.5513 98.6225 66.0536 103.009 64.0996Z" fill="#FFC7A0"/>
<circle cx="48.9303" cy="62.7458" r="5.27506" fill="#FFC7A0"/>
<path d="M100.725 83.5209C105.12 79.7189 100.145 71.6916 99.3866 65.7285C90.5057 67.8285 68.6587 73.8747 59.021 77.6547C67.7363 86.1407 92.7159 90.4485 100.725 83.5209Z" fill="#FFC7A0"/>
<path d="M97.7827 48.5254C99.3882 55.6352 100.306 61.8277 102.37 64.1212C100.902 64.8551 99.6175 65.4973 99.1588 65.7267" stroke="#FFB684" stroke-width="0.905984"/>
<path d="M92.5068 59.6129C96.6351 57.6996 98.4699 57.6996 100.534 57.4707" stroke="#91D7B9" stroke-width="2.71795"/>
<path d="M101.369 69.7469C98.1491 75.9772 96.0924 71.6064 95.0391 70.1607C98.1162 67.7968 100.793 68.7791 101.369 69.7469Z" fill="#FF8080" stroke="#FF9B9B" stroke-width="0.905984" stroke-linecap="round" stroke-linejoin="round"/>
<circle cx="85" cy="66" r="3" fill="#FCA7A7"/>
<path d="M92.7536 59.0772C92.7536 65.4451 88.1872 70.3324 82.8744 70.3324C77.5616 70.3324 72.9952 65.4451 72.9952 59.0772C72.9952 52.7092 77.5616 47.8219 82.8744 47.8219C88.1872 47.8219 92.7536 52.7092 92.7536 59.0772Z" stroke="#91D7B9" stroke-width="2.71795"/>
<circle cx="83.7903" cy="57.7014" r="4.35765" fill="white"/>
<circle cx="85.6055" cy="56.6055" r="1.60545" fill="black"/>
<path d="M48.93 57.2401C51.6822 58.8456 66.8193 63.8913 84.7087 37.0573C84.1735 32.8525 80.3051 23.388 69.1128 19.168C48.0126 23.5256 46.4072 55.864 48.93 57.2401Z" fill="#E1E1E1"/>
<path d="M100.993 46.0056C95.2595 45.3176 92.7366 38.8957 84.7094 37.061C83.5626 32.4739 81.315 25.6367 69.5723 19.3984C77.5995 15.9581 100.993 23.988 100.993 46.0056Z" fill="#E1E1E1"/>
<path d="M48.7002 57.0116C25.9947 35.2235 52.3706 11.1408 69.8009 19.3982C59.893 37.3793 51.4524 51.8894 48.7002 57.0116Z" fill="#E1E1E1"/>
<circle cx="50.0765" cy="67.5633" r="1.8348" fill="#539882"/>
<path d="M42.9809 36.424C43.2667 32.9316 44.1227 31.2004 49.2988 24.6309C47.6252 27.9779 47.4622 31.2355 47.858 33.8003C48.0648 35.1402 46.0789 37.7164 44.7318 37.8692C44.6868 37.8743 44.6416 37.8796 44.5959 37.885C43.7182 37.9907 42.9088 37.3052 42.9809 36.424Z" fill="#C4C4C4"/>
<path d="M84.6211 36.3281C89.8962 37.0161 95.8592 45.5022 100.905 45.5021" stroke="#C4C4C4" stroke-width="1.81197" stroke-linecap="round"/>
<path d="M98.9446 23.2031C97.2555 20.8776 93.9354 17.5786 89.2075 15.6875C91.8041 17.4851 93.5309 20.1525 94.994 24.2955C95.3625 25.3391 96.4547 25.8393 97.5253 25.5588C98.7982 25.2254 99.7178 24.2678 98.9446 23.2031Z" fill="#F0F0F0"/>
<path d="M49.5283 19.8163C50.9044 14.3119 55.7207 11.3304 57.5556 10.1836" stroke="#A8A8A8" stroke-width="0.905984" stroke-linecap="round"/>
<path d="M82.327 12.4754C80.951 9.72314 78.6574 8.11779 76.5933 7.42969" stroke="#E1E1E1" stroke-width="0.905984" stroke-linecap="round"/>
<path d="M78.0066 45.5946L87.3764 41.118" stroke="#969696" stroke-width="1.81197" stroke-linecap="round"/>
<path d="M96.3812 41.0612L103.427 44.584" stroke="#969696" stroke-width="1.81197" stroke-linecap="round"/>
<path d="M46.2275 54.9313C45.4809 54.8547 44.8136 55.3979 44.737 56.1445C44.6604 56.8912 45.2036 57.5585 45.9502 57.6351L46.2275 54.9313ZM73.0615 57.6835L46.2275 54.9313L45.9502 57.6351L72.7842 60.3873L73.0615 57.6835Z" fill="#91D7B9"/>
<path d="M65.5844 56.0541C51.1353 62.9347 49.3005 55.8248 46.5483 54.9073C53.7041 53.0725 62.2206 54.9073 65.5844 56.0541Z" fill="#E1E1E1"/>
<path d="M77.5115 41.375C67.4201 51.237 63.2917 53.3013 55.0352 54.9067" stroke="#C4C4C4" stroke-width="1.81197" stroke-linecap="round"/>
<path d="M83.014 33.1184C82.0966 30.3662 78.1518 23.5774 69.7117 19.3574C68.7943 18.8987 66.2715 17.752 63.0605 17.752C69.4824 19.5868 77.0509 25.0912 83.014 33.1184Z" fill="#C4C4C4"/>
<path d="M49.0711 60.1816C46.1354 60.3651 45.8602 62.3987 46.0895 63.3925" stroke="#FFB684" stroke-width="0.905984" stroke-linecap="round"/>
<path d="M112.935 98.0585C116.603 94.0549 124.507 92.3867 128 92.053C126.908 91.6082 123.874 90.7852 120.468 91.0521C116.21 91.3858 107.368 95.3894 107.04 98.0585C106.713 100.728 108.35 103.063 112.935 98.0585Z" fill="#272324" stroke="#272324"/>
<ellipse cx="126" cy="91.5" rx="4" ry="3.5" fill="#242535"/>
<path d="M109 97C109 97.3782 109 97.7538 109 98.1673C109 98.443 109 98.7224 109 99" stroke="#D5D5D5" stroke-opacity="0.2" stroke-linecap="round" stroke-linejoin="round"/>
<path d="M111 95C111 95.3849 111 96.3521 111 97" stroke="#D5D5D5" stroke-opacity="0.2" stroke-linecap="round" stroke-linejoin="round"/>
<path d="M113 94C113.386 94.4848 113.86 94.9551 113.963 95.4576C114 95.6384 114 95.8189 114 96" stroke="#D5D5D5" stroke-opacity="0.2" stroke-linecap="round" stroke-linejoin="round"/>
<path d="M52 161.429C52 157.878 54.8782 155 58.4286 155H69.5714C73.1218 155 76 157.878 76 161.429V161.429C76 163.401 74.401 165 72.4286 165H55.5714C53.599 165 52 163.401 52 161.429V161.429Z" fill="#747474"/>
<path d="M63.2711 141.989C60.5525 144.176 56.5756 143.745 54.3885 141.027L53.6845 140.152C51.4973 137.433 51.9282 133.456 54.6468 131.269V131.269C56.1572 130.054 58.3666 130.293 59.5816 131.804L63.8058 137.054C65.0208 138.565 64.7815 140.774 63.2711 141.989V141.989Z" fill="#747474"/>
<path d="M117.526 87.8419C117.438 88.1039 117.58 88.387 117.842 88.4743C118.104 88.5617 118.387 88.4201 118.474 88.1581L117.526 87.8419ZM118.526 84.8419L117.526 87.8419L118.474 88.1581L119.474 85.1581L118.526 84.8419Z" fill="#7A0000"/>
<path d="M118 84.9934C118.195 84.9934 118.397 85.0108 118.591 84.989C118.779 84.968 118.947 84.8637 119.104 84.7495C119.602 84.3889 119.902 83.7067 119.97 83.0289C119.993 82.7985 120.01 82.5572 119.994 82.3248C119.989 82.2604 119.946 82.2563 119.921 82.2084C119.89 82.1506 119.835 82.0226 119.779 82" stroke="#707070" stroke-linecap="round" stroke-linejoin="round"/>
<path d="M120.659 84.6064C120.711 84.6726 120.816 84.7748 120.748 84.863C120.675 84.9569 120.554 84.9766 120.445 84.9481C120.387 84.933 120.431 84.9627 120.443 84.9928C120.465 85.0457 120.386 85.1389 120.357 85.1755C120.318 85.225 120.27 85.2818 120.22 85.3206C120.152 85.3741 120.053 85.3264 119.995 85.278C119.968 85.2557 119.82 85.1538 119.847 85.0976" stroke="#707070" stroke-width="0.3" stroke-linecap="round" stroke-linejoin="round"/>
<path d="M121.198 85.2656C121.104 85.3145 121.013 85.3701 120.921 85.4233C120.837 85.4723 120.737 85.5294 120.669 85.6018C120.589 85.6881 120.636 85.8811 120.758 85.9029C121.004 85.9468 121.225 85.7694 121.354 85.5779C121.392 85.5216 121.424 85.4794 121.395 85.4152C121.369 85.3587 121.342 85.3311 121.286 85.3126" stroke="#707070" stroke-width="0.3" stroke-linecap="round" stroke-linejoin="round"/>
<path d="M121.756 82.9134C121.697 83.0019 121.645 83.0941 121.59 83.1852C121.54 83.269 121.48 83.3672 121.456 83.4632C121.427 83.5776 121.561 83.724 121.679 83.684C121.916 83.6034 122.023 83.3417 122.044 83.1114C122.05 83.0438 122.057 82.9916 122.001 82.9495C121.951 82.9125 121.914 82.9014 121.856 82.9121" stroke="#707070" stroke-width="0.3" stroke-linecap="round" stroke-linejoin="round"/>
<path d="M121 83.001C121 83.001 121 82.9893 121 83.0451C121 83.0783 121 83.1337 121 83.1855C121 83.2555 121 83.266 121 83.3046C121 83.3718 121 83.4613 121 83.5364C121 83.5665 121 83.6025 121 83.6246C121 83.6574 121 83.6533 121 83.6858C121 83.7325 121 83.823 121 83.8825C121 83.9313 121 83.964 121 84" stroke="#707070" stroke-width="0.3" stroke-linecap="round" stroke-linejoin="round"/>
<path d="M180.203 204.095C176.873 204.629 169.277 203.474 165.533 194.587" stroke="black"/>
<path d="M179.15 206.995C176.247 207.018 169.391 205.52 165.199 199.345" stroke="black"/>
<path d="M60.9618 224.404C57.6315 224.938 50.0351 223.783 46.2913 214.896" stroke="black"/>
<path d="M40.7093 171.279C40.4871 168.384 41.5109 161.442 47.3837 156.836" stroke="black"/>
<ellipse cx="13" cy="219" rx="12" ry="9" fill="#D7D6D6"/>
<ellipse cx="15" cy="212" rx="12" ry="9" fill="#D7D6D6"/>
<ellipse cx="26" cy="217" rx="12" ry="9" fill="#CECECE"/>
<ellipse cx="29.5" cy="210" rx="11.5" ry="8" fill="#D7D6D6"/>
<ellipse cx="37.5" cy="216" rx="8.5" ry="6" fill="#D7D6D6"/>
<ellipse cx="42" cy="212" rx="8" ry="6" fill="#CECECE"/>
<ellipse cx="49" cy="216" rx="4" ry="3" fill="#D7D6D6"/>
<circle cx="65.5" cy="204.5" r="17.5" fill="#242424"/>
<circle cx="65.5" cy="204.5" r="9.5" fill="#C4C4C4"/>
<defs>
<filter id="filter0_f" x="95.4229" y="57.9107" width="9.58704" height="6.83484" filterUnits="userSpaceOnUse" color-interpolation-filters="sRGB">
<feFlood flood-opacity="0" result="BackgroundImageFix"/>
<feBlend mode="normal" in="SourceGraphic" in2="BackgroundImageFix" result="shape"/>
<feGaussianBlur stdDeviation="0.905984" result="effect1_foregroundBlur"/>
</filter>
</defs>
</svg>
