<svg width="200" height="229" viewBox="0 0 200 229" fill="none" xmlns="http://www.w3.org/2000/svg">
<ellipse rx="2.99934" ry="2.49744" transform="matrix(0.907291 0.420504 -0.421368 0.90689 132.773 223.643)" fill="#D7D6D6"/>
<ellipse rx="2.99934" ry="2.49744" transform="matrix(0.907291 0.420504 -0.421368 0.90689 134.522 222.253)" fill="#D7D6D6"/>
<ellipse rx="3.49923" ry="2.49744" transform="matrix(0.907291 0.420504 -0.421368 0.90689 136.37 224.209)" fill="#CECECE"/>
<ellipse rx="2.99934" ry="1.99795" transform="matrix(0.907291 0.420504 -0.421368 0.90689 138.362 223.481)" fill="#D7D6D6"/>
<ellipse rx="1.99956" ry="1.49846" transform="matrix(0.907291 0.420504 -0.421368 0.90689 139.544 225.68)" fill="#D7D6D6"/>
<ellipse rx="1.99956" ry="1.49846" transform="matrix(0.907291 0.420504 -0.421368 0.90689 140.872 225.194)" fill="#CECECE"/>
<ellipse cx="66" cy="226.717" rx="1" ry="0.998753" fill="#D7D6D6"/>
<ellipse rx="0.999779" ry="0.998974" transform="matrix(0.907291 0.420504 -0.421368 0.90689 142.476 226.49)" fill="#D7D6D6"/>
<ellipse rx="7.25404" ry="6.04017" transform="matrix(0.907291 0.420504 -0.421368 0.90689 44.1267 217.542)" fill="#D7D6D6"/>
<ellipse cx="48.3579" cy="214.183" rx="7.25404" ry="6.04017" transform="rotate(24.8937 48.3579 214.183)" fill="#D7D6D6"/>
<ellipse rx="8.46305" ry="6.04017" transform="matrix(0.907291 0.420504 -0.421368 0.90689 52.8233 218.91)" fill="#CECECE"/>
<ellipse rx="7.25404" ry="4.83213" transform="matrix(0.907291 0.420504 -0.421368 0.90689 57.6411 217.149)" fill="#D7D6D6"/>
<ellipse rx="4.83603" ry="3.6241" transform="matrix(0.907291 0.420504 -0.421368 0.90689 60.5017 222.469)" fill="#D7D6D6"/>
<ellipse rx="4.83603" ry="3.6241" transform="matrix(0.907291 0.420504 -0.421368 0.90689 63.7136 221.295)" fill="#CECECE"/>
<ellipse rx="2.41801" ry="2.41607" transform="matrix(0.907291 0.420504 -0.421368 0.90689 67.5918 224.425)" fill="#D7D6D6"/>
<path d="M71.5731 161.219V106.822C71.5731 105.758 70.8299 104.839 69.7898 104.616L54.9988 101.451C53.595 101.15 52.2715 102.221 52.2715 103.656V156.998C52.2715 158.005 52.9394 158.891 53.9079 159.167L68.6989 163.388C70.1395 163.799 71.5731 162.717 71.5731 161.219Z" fill="#D1C870"/>
<path d="M106.04 96.7363L71.5732 106.375V162.831L106.04 152.504V96.7363Z" fill="#F4E97D"/>
<path d="M68.1269 159.389V111.195L55.0293 109.818V155.947L68.1269 159.389Z" stroke="#F4E97D" stroke-width="1.12766" stroke-dasharray="2.26 2.26"/>
<path d="M105.352 74.7051L53.6509 88.4748V113.26L106.041 96.7366L105.352 74.7051Z" fill="#539882"/>
<ellipse cx="54.3402" cy="100.869" rx="10.3402" ry="12.3927" fill="#35675B"/>
<path d="M62.1427 100.181C62.1427 105.708 58.4191 110.038 53.9957 110.038C49.5724 110.038 45.8488 105.708 45.8488 100.181C45.8488 94.6534 49.5724 90.3234 53.9957 90.3234C58.4191 90.3234 62.1427 94.6534 62.1427 100.181Z" stroke="#539882" stroke-width="0.93972"/>
<path d="M59.0488 100.179C59.0488 104.232 56.3182 107.408 53.0744 107.408C49.8306 107.408 47.0999 104.232 47.0999 100.179C47.0999 96.1254 49.8306 92.95 53.0744 92.95C56.3182 92.95 59.0488 96.1254 59.0488 100.179Z" stroke="#539882" stroke-width="0.689128"/>
<ellipse cx="52.1569" cy="100.181" rx="4.02118" ry="4.8194" fill="#539882"/>
<path d="M61.2334 86.4074C69.5055 84.2016 77.7778 99.4884 71.5736 107.75C76.399 106.373 92.2539 101.554 106.041 97.4231C111.213 90.966 104.258 82.0866 97.6872 77.0324C96.8801 76.4115 95.8296 76.2413 94.8558 76.5389C89.6914 78.1171 75.9149 82.4971 61.2334 86.4074Z" fill="#D1C870"/>
<path d="M87.4282 77.457C74.3305 80.8996 59.8545 85.0302 59.165 87.0958C64.6798 85.7189 66.2883 85.7189 66.0585 85.7189H75.02L93.6323 80.211C93.4026 79.9814 91.8401 79.1093 87.4282 77.457Z" fill="#D1C870"/>
<path d="M127.433 196.754V202.838" stroke="#FFC7A0" stroke-width="6.34189" stroke-linecap="round"/>
<path d="M71.5625 203.707L65.7081 205.392" stroke="#FFC7A0" stroke-width="6.34189" stroke-linecap="round"/>
<path d="M123.554 202.562V199.52H126.046V203.115C125.585 203.023 124.44 202.783 123.554 202.562Z" fill="#EBC8B1"/>
<path d="M64.9002 201.593L67.8271 200.75L68.5174 203.142L65.0583 204.138C65.0192 203.669 64.9329 202.504 64.9002 201.593Z" fill="#EBC8B1"/>
<path d="M138.637 197.081C132.545 201.783 122.299 200.4 114.822 197.081C114.532 192.692 113.909 184.932 113 176.28C112.171 168.395 100.83 170.254 99.562 162.764H128.361C128.047 167.62 139.076 166.96 139.384 176.78C139.621 184.295 139.597 191.806 138.637 197.081Z" fill="#D1C870"/>
<path d="M80.3145 209.738C74.2223 214.439 66.5 205.243 66.5 198.751C70.5 194.257 78.1698 198.321 77.2738 189.763C76.4418 181.814 75.3672 173.092 74.0871 165.527L107.317 169.399C107.001 174.289 106.325 182.957 105.391 191.76C104.688 198.393 87.5 207.74 80.3145 209.738Z" fill="#F4E97D"/>
<path d="M68 204.245C66.5 201.748 66.5 201.748 66.5 198.751C70.5 194.257 78.1698 198.321 77.2738 189.763C76.4418 181.814 75.3672 173.092 74.0871 165.527L80.3145 167.291C79.9986 172.18 82.9337 183.456 82 192.26C81.2965 198.892 75.1855 202.247 68 204.245Z" fill="#D1C870"/>
<path fill-rule="evenodd" clip-rule="evenodd" d="M144.767 157.37C144.179 156.983 143.596 156.576 143.163 156.243L143.002 156.391L143.953 157.231L144.478 157.694C145.459 158.56 144.2 159.873 143.34 159.308C142.644 158.85 141.946 158.223 141.497 157.774L141.29 157.965C141.861 158.565 142.169 158.806 142.535 159.092L142.535 159.092C142.642 159.176 142.754 159.264 142.879 159.365C143.677 160.013 142.857 161.502 141.568 160.655C140.809 160.156 140.282 159.609 139.926 159.24L139.926 159.24C139.798 159.108 139.693 158.999 139.606 158.923L139.623 158.91C138.469 157.769 136.633 155.852 136.605 155.403C136.575 154.911 139.533 152.752 141.016 151.735C141.016 151.734 141.016 151.734 141.016 151.734C143.192 151.909 145.5 152.228 145.135 153.333C144.988 153.777 144.293 153.796 143.357 153.801L143.959 154.332L143.961 154.331C144.737 155.016 145.098 155.244 145.534 155.519C145.649 155.591 145.769 155.667 145.904 155.756C146.763 156.32 145.626 157.934 144.767 157.37Z" fill="#FFC7A0"/>
<path d="M117.34 109.504C116.485 107.422 114.102 106.427 112.018 107.281C109.933 108.135 108.937 110.515 109.793 112.597L117.34 109.504ZM109.793 112.597C115.554 126.618 119.577 134.854 123.591 141.053C127.632 147.293 131.605 151.358 136.867 156.945L142.809 151.363C137.431 145.653 134.006 142.133 130.441 136.628C126.85 131.083 123.057 123.416 117.34 109.504L109.793 112.597Z" fill="#35675B"/>
<path d="M117.642 108.027C117.499 107.68 117.102 107.515 116.755 107.657C116.407 107.799 116.241 108.196 116.384 108.543L117.642 108.027ZM116.384 108.543C122.126 122.517 125.993 130.457 129.77 136.325C133.553 142.2 137.238 145.98 142.548 151.619L143.538 150.688C138.209 145.029 134.617 141.341 130.914 135.591C127.206 129.832 123.378 121.987 117.642 108.027L116.384 108.543Z" fill="#407967"/>
<path d="M67.4395 164.421C68.7317 150.224 76.5223 117.293 97.3463 99.1504C100.669 99.1504 109.863 100.699 120.053 106.894C118.392 121.829 127.253 146.167 135.007 164.421C125.038 174.377 92.3619 179.356 67.4395 164.421Z" fill="#539882"/>
<path d="M67.4395 164.424C68.7317 150.226 76.5223 117.296 97.3463 99.153C99.5616 99.153 97.9001 98.8764 97.9001 101.919C82.3929 123.215 71.8701 149.489 76.3007 168.849C71.8701 166.913 71.0394 166.36 67.4395 164.424Z" fill="#468677"/>
<path d="M145.361 53.8457C148.961 61.8662 149.791 67.1211 151.176 69.0571C152.284 70.6058 151.822 71.5462 151.453 71.8228C151.268 74.2197 151.065 79.4008 151.73 80.9496C149.515 81.1708 148.592 81.2261 148.407 81.2261L147.853 71.8228L145.361 53.8457Z" fill="#FFC7A0"/>
<path d="M150.898 99.4791C149.513 92.8414 157.267 84.5443 149.513 78.7363L142.867 96.1602C142.959 97.1743 145.138 98.8153 150.898 99.4791Z" fill="#FFC7A0"/>
<ellipse cx="117.946" cy="72.1011" rx="31.0145" ry="39.2729" fill="#FFC7A0"/>
<ellipse cx="149.791" cy="76.7998" rx="4.15373" ry="5.25483" fill="white"/>
<ellipse cx="149.792" cy="76.8012" rx="1.93841" ry="1.93599" fill="black"/>
<g filter="url(#filter0_f)">
<ellipse cx="149.13" cy="83.9418" rx="3.5999" ry="1.93599" fill="#FFCCAA"/>
</g>
<path d="M158.677 76.8007C158.677 79.897 157.973 82.633 156.903 84.547C155.809 86.5055 154.512 87.3342 153.39 87.3342C152.268 87.3342 150.971 86.5055 149.877 84.547C148.807 82.633 148.103 79.897 148.103 76.8007C148.103 73.7045 148.807 70.9684 149.877 69.0544C150.971 67.096 152.268 66.2672 153.39 66.2672C154.512 66.2672 155.809 67.096 156.903 69.0544C157.973 70.9684 158.677 73.7045 158.677 76.8007Z" stroke="#91D7B9" stroke-width="2.71795"/>
<path d="M152.502 87.2835C148.032 82.4815 149.415 73.5836 143.962 59.9297L140.244 92.0544C142.123 91.4459 147.206 89.6398 152.502 87.2835Z" fill="#FFC7A0"/>
<path d="M149.744 110.704C155.052 106.119 149.044 96.4389 148.129 89.248C137.406 91.7804 111.028 99.0714 99.3916 103.63C109.914 113.863 140.075 119.058 149.744 110.704Z" fill="#FFC7A0"/>
<path d="M146.192 68.5039C148.131 77.0776 149.238 84.545 151.731 87.3107C149.958 88.1957 148.408 88.9701 147.854 89.2467" stroke="#FFB684" stroke-width="0.905984"/>
<path d="M139.822 81.8724C144.807 79.5651 147.022 79.5651 149.514 79.2891" stroke="#91D7B9" stroke-width="2.71795"/>
<path d="M146.084 93.6193C143.039 96.1087 140.184 95.2272 138.608 93.0664" stroke="#FF8080" stroke-width="0.905984" stroke-linecap="round"/>
<ellipse cx="130.5" cy="89.3882" rx="3.5" ry="3.49564" fill="#FCA7A7"/>
<path d="M140.402 81.227C140.402 89.0276 134.793 95.0794 128.192 95.0794C121.59 95.0794 115.982 89.0276 115.982 81.227C115.982 73.4264 121.59 67.3746 128.192 67.3746C134.793 67.3746 140.402 73.4264 140.402 81.227Z" stroke="#91D7B9" stroke-width="2.71795"/>
<ellipse cx="129.298" cy="79.5654" rx="5.26139" ry="5.25483" fill="white"/>
<ellipse cx="128.747" cy="79.5668" rx="1.93841" ry="1.93599" fill="black"/>
<path d="M87.2079 79.0122C90.5309 80.9482 108.807 87.0327 130.407 54.674C129.761 49.6036 125.09 38.1905 111.576 33.1016C86.1003 38.3564 84.1619 77.3528 87.2079 79.0122Z" fill="#E1E1E1"/>
<path d="M150.068 65.4636C143.145 64.6339 140.099 56.8898 130.407 54.6773C129.023 49.1459 126.309 40.9009 112.131 33.3782C121.823 29.2297 150.068 38.9128 150.068 65.4636Z" fill="#E1E1E1"/>
<path d="M86.9303 78.7345C59.5159 52.4606 91.3619 23.4196 112.407 33.3771C100.444 55.0602 90.2533 72.5577 86.9303 78.7345Z" fill="#E1E1E1"/>
<path d="M79.9977 54.2675C80.3165 49.8109 81.2296 47.8321 87.653 39.6895C85.4226 44.1448 85.4144 48.4688 86.083 51.6827C86.3591 53.01 84.4454 55.4711 83.0929 55.5656C82.6339 55.5976 82.1418 55.6473 81.6166 55.7182C80.7406 55.8366 79.9346 55.1492 79.9977 54.2675Z" fill="#C4C4C4"/>
<path d="M130.301 53.7949C136.67 54.6246 143.87 64.8578 149.962 64.8577" stroke="#C4C4C4" stroke-width="1.81197" stroke-linecap="round"/>
<path d="M122.314 64.9679L133.627 59.5696" stroke="#969696" stroke-width="1.81197" stroke-linecap="round"/>
<path d="M144.5 59.4998L153.007 63.7479" stroke="#969696" stroke-width="1.81197" stroke-linecap="round"/>
<path d="M83.9163 76.5036C83.1697 76.4271 82.5024 76.9704 82.4259 77.717C82.3494 78.4636 82.8927 79.1309 83.6393 79.2074L83.9163 76.5036ZM116.315 79.8224L83.9163 76.5036L83.6393 79.2074L116.038 82.5262L116.315 79.8224Z" fill="#91D7B9"/>
<path d="M107.316 77.5813C89.8703 85.8785 87.655 77.3049 84.332 76.1984C92.9718 73.9858 103.255 76.1984 107.316 77.5813Z" fill="#E1E1E1"/>
<path d="M121.717 59.8789C109.533 71.7714 104.548 74.2606 94.5791 76.1965" stroke="#C4C4C4" stroke-width="1.81197" stroke-linecap="round"/>
<path d="M128.36 49.9228C127.253 46.6039 122.49 38.4174 112.299 33.3286C111.191 32.7754 108.145 31.3926 104.269 31.3926C112.022 33.6051 121.16 40.2428 128.36 49.9228Z" fill="#C4C4C4"/>
<path fill-rule="evenodd" clip-rule="evenodd" d="M91.2497 165.369C90.9177 164.75 90.6003 164.115 90.3782 163.616L90.165 163.669L90.5995 164.86L90.84 165.519C91.2884 166.748 89.555 167.302 89.0696 166.396C88.6756 165.661 88.3618 164.776 88.1825 164.167L87.9086 164.236C88.1237 165.035 88.2796 165.394 88.4643 165.819C88.5184 165.944 88.5749 166.074 88.6362 166.223C89.0275 167.173 87.5964 168.09 86.8683 166.732C86.4394 165.931 86.237 165.2 86.1005 164.706L86.1005 164.706C86.0515 164.529 86.011 164.382 85.9716 164.274L85.9935 164.271C85.5245 162.718 84.8268 160.16 85.0171 159.752C85.2256 159.305 88.857 158.818 90.6466 158.63L90.647 158.631C90.6474 158.631 90.6478 158.63 90.6481 158.629C92.4762 159.819 94.3526 161.2 93.5031 161.997C93.1616 162.318 92.5416 162.002 91.7155 161.56L91.9913 162.315L91.9932 162.315C92.3481 163.287 92.5564 163.659 92.8084 164.109C92.8748 164.227 92.9442 164.351 93.0202 164.493C93.5056 165.399 91.7351 166.275 91.2497 165.369Z" fill="#FFC7A0"/>
<ellipse cx="121.44" cy="131.509" rx="5.26139" ry="5.25483" fill="#539882"/>
<path d="M119.776 113.256C120.238 115.468 123.099 123.212 125.869 128.744L118.946 130.403L114.792 118.511L119.776 113.256Z" fill="#539882"/>
<path d="M105.1 136.211C107.592 137.594 111.746 138.147 113.961 135.658C113.13 139.53 107.038 140.636 105.1 136.211Z" fill="#468677"/>
<path d="M113.683 135.658C110.637 138.424 108.145 138.147 105.376 136.211" stroke="#35675B" stroke-width="0.452992" stroke-linecap="round"/>
<path d="M98.0654 112.05C99.2311 110.124 98.6145 107.617 96.6882 106.451C94.7618 105.286 92.2552 105.902 91.0894 107.829L98.0654 112.05ZM91.0894 107.829C83.2583 120.77 80.2822 130.314 80.0485 138.798C79.8192 147.122 82.301 154.105 84.2861 161.11L92.131 158.887C89.9622 151.234 88.0133 145.772 88.1992 139.022C88.3808 132.433 90.6662 124.277 98.0654 112.05L91.0894 107.829Z" fill="#35675B"/>
<mask id="mask0" mask-type="alpha" maskUnits="userSpaceOnUse" x="79" y="99" width="30" height="34">
<path d="M90.8783 131.846C90.8783 129.781 93.6356 123.584 95.7037 119.453L80.5381 109.126V102.241L92.9463 100.176L105.355 104.995L107.423 131.158L90.8783 131.846Z" fill="#C4C4C4" stroke="black" stroke-width="1.12766"/>
</mask>
<g mask="url(#mask0)">
<path d="M87.4326 105.684C102.598 104.307 101.22 121.519 94.3261 123.658" stroke="#D1C870" stroke-width="3.38299" stroke-linecap="round"/>
</g>
<path d="M75.019 105.686C77.7765 92.6044 70.8828 85.0314 65.3682 85.0312" stroke="#F4E97D" stroke-width="1.12766" stroke-dasharray="2.26 2.26"/>
<path d="M61.1557 213.497H155.844C157.824 213.497 159.769 212.972 161.479 211.976L163.367 210.876C163.879 210.578 164.538 210.774 164.803 211.303C165.066 211.829 165.066 212.447 164.803 212.972L164.537 213.503C164.391 213.795 164.162 214.038 163.88 214.203L163.047 214.688C160.31 216.283 157.198 217.123 154.03 217.123H62.9701C59.8018 217.123 56.6901 216.283 53.9534 214.688L53.1198 214.203C52.8376 214.038 52.6094 213.795 52.4631 213.503L52.1972 212.972C51.9343 212.447 51.9343 211.829 52.1972 211.303C52.4625 210.774 53.1209 210.578 53.6334 210.876L55.5207 211.976C57.231 212.972 59.1756 213.497 61.1557 213.497Z" fill="#4E4E4E"/>
<path d="M61.3086 214.404H155.85C157.83 214.404 159.88 213.588 161.59 212.591L163.405 211.685C163.918 211.386 164.538 210.774 164.803 211.304C165.066 211.829 165.066 212.447 164.803 212.973L164.537 213.504C164.391 213.796 164.162 214.039 163.88 214.203L163.047 214.689C160.31 216.284 157.198 217.124 154.03 217.124H62.9701C59.8018 217.124 56.6901 216.284 53.9534 214.689L53.1198 214.203C52.8376 214.039 52.6094 213.796 52.4631 213.504L52.1972 212.973C51.9343 212.447 51.9343 211.829 52.1972 211.304C52.4625 210.774 52.6074 211.386 53.1198 211.685L55.4096 212.973C57.1199 213.969 59.3285 214.404 61.3086 214.404Z" fill="#B39880"/>
<path d="M141.845 217.123H148.198L146.383 219.842H143.66L141.845 217.123Z" fill="#C4C4C4"/>
<path d="M70.1504 217.123H76.5031L74.688 219.842H71.9654L70.1504 217.123Z" fill="#C4C4C4"/>
<ellipse cx="145.022" cy="223.016" rx="4.9914" ry="4.98517" fill="#1B1B1B"/>
<ellipse cx="145.021" cy="223.016" rx="2.26882" ry="2.26599" fill="#E9E9E9"/>
<ellipse cx="145.022" cy="223.016" rx="0.453763" ry="0.453197" fill="#FFBD3A"/>
<ellipse cx="73.3268" cy="223.016" rx="4.9914" ry="4.98517" fill="#1B1B1B"/>
<ellipse cx="73.3269" cy="223.016" rx="2.26882" ry="2.26599" fill="#E9E9E9"/>
<ellipse cx="73.3268" cy="223.016" rx="0.453763" ry="0.453197" fill="#FFBD3A"/>
<rect x="123" y="211.736" width="20" height="1.99751" fill="white"/>
<path d="M123 201.748H131.791C131.791 201.748 139.857 206.893 141.681 208.696C143 209.999 143 211.736 143 211.736H123V201.748Z" fill="white"/>
<path d="M123 212.734H143" stroke="black" stroke-width="0.4"/>
<path fill-rule="evenodd" clip-rule="evenodd" d="M132.322 203.715C132.144 203.911 132.174 204.194 132.389 204.348C132.604 204.502 132.923 204.468 133.1 204.272L134.038 203.239C134.143 203.31 134.251 203.383 134.361 203.457L133.322 204.603C133.144 204.798 133.174 205.082 133.389 205.235C133.604 205.389 133.923 205.355 134.1 205.16L135.157 203.995C135.263 204.068 135.371 204.141 135.479 204.215L134.322 205.49C134.144 205.686 134.174 205.969 134.389 206.123C134.604 206.277 134.923 206.243 135.1 206.047L136.27 204.758C136.376 204.832 136.483 204.906 136.59 204.98L135.322 206.378C135.144 206.573 135.174 206.857 135.389 207.011C135.604 207.164 135.923 207.13 136.1 206.935L137.376 205.529C137.482 205.604 137.588 205.679 137.694 205.753L136.322 207.265C136.144 207.461 136.174 207.744 136.389 207.898C136.604 208.052 136.923 208.018 137.1 207.822L138.473 206.31C139.87 207.317 141.096 208.259 141.681 208.85C143 210.182 143 211.958 143 211.958H123V201.748H131.791C131.791 201.748 132.364 202.122 133.239 202.704L132.322 203.715Z" fill="black"/>
<path d="M132.677 208.854C132.583 208.827 131.097 208.653 129.836 209.109C128.91 209.445 126.79 209.557 125.61 209.577L125.16 209.089L125 208.599C126.844 208.545 127.409 208.397 128.237 208.343C129.065 208.29 130.702 207.913 131.624 207.779C132.546 207.645 133.016 207.9 133.204 207.94C133.355 207.972 133.882 208.205 134.126 208.317C134.986 208.702 136.825 209.51 137.306 209.66C137.788 209.811 138.636 209.696 139 209.62C138.981 209.817 138.928 210.289 138.868 210.601C137.815 210.83 137.476 210.749 136.516 210.507C135.556 210.265 132.772 208.881 132.677 208.854Z" fill="white"/>
<path d="M123 207.74C124 207.74 126 208.539 126 211.735" stroke="white" stroke-width="0.1" stroke-dasharray="0.5 0.2"/>
<path d="M123 203.746H131" stroke="white" stroke-width="0.1" stroke-dasharray="0.5 0.2"/>
<path d="M123 204.744H131" stroke="white" stroke-width="0.1" stroke-dasharray="0.5 0.2"/>
<path d="M123 205.742H131" stroke="white" stroke-width="0.1" stroke-dasharray="0.5 0.2"/>
<rect width="19.977" height="1.99981" transform="matrix(0.277277 0.96079 -0.960974 0.276639 55.9214 203.602)" fill="white"/>
<path d="M65.5303 200.836L67.9651 209.273C67.9651 209.273 65.2488 218.438 64.0198 220.688C63.1317 222.315 61.4606 222.796 61.4606 222.796L55.9215 203.602L65.5303 200.836Z" fill="white"/>
<path d="M54.9604 203.877L60.4996 223.071" stroke="black" stroke-width="0.4"/>
<path fill-rule="evenodd" clip-rule="evenodd" d="M66.2195 210.325C65.982 210.209 65.7179 210.316 65.6295 210.565C65.541 210.814 65.6618 211.11 65.8993 211.227L67.1533 211.841C67.1143 211.961 67.0743 212.085 67.0334 212.212L65.6423 211.531C65.4049 211.414 65.1407 211.522 65.0523 211.771C64.9639 212.02 65.0847 212.316 65.3221 212.432L66.7354 213.124C66.6952 213.246 66.6545 213.369 66.6133 213.494L65.0652 212.736C64.8277 212.62 64.5636 212.728 64.4752 212.976C64.3867 213.225 64.5076 213.521 64.745 213.638L66.3097 214.404C66.2684 214.526 66.2269 214.649 66.1851 214.772L64.488 213.942C64.2506 213.825 63.9864 213.933 63.898 214.182C63.8096 214.431 63.9304 214.727 64.1678 214.843L65.8745 215.679C65.832 215.801 65.7894 215.924 65.7468 216.046L63.9109 215.147C63.6734 215.031 63.4093 215.139 63.3209 215.388C63.2324 215.636 63.3533 215.933 63.5907 216.049L65.4271 216.948C64.8446 218.567 64.2778 220.006 63.8713 220.731C62.9553 222.365 61.2471 222.857 61.2471 222.857L55.7079 203.664L65.5303 200.836L67.9651 209.273C67.9651 209.273 67.7645 209.925 67.4463 210.926L66.2195 210.325Z" fill="black"/>
<path d="M61.3736 212.088C61.3734 211.991 61.1298 210.516 60.341 209.432C59.7613 208.636 59.0665 206.633 58.721 205.506L59.0653 204.939L59.4929 204.65C60.0554 206.405 60.3539 206.906 60.635 207.685C60.916 208.465 61.7314 209.932 62.1161 210.779C62.5008 211.627 62.3854 212.149 62.3987 212.341C62.4094 212.494 62.3321 213.064 62.2921 213.33C62.1594 214.261 61.8913 216.25 61.8799 216.754C61.8685 217.258 62.2137 218.04 62.3877 218.368C62.1928 218.405 61.724 218.485 61.4074 218.514C60.8957 217.566 60.8795 217.218 60.8464 216.23C60.8134 215.242 61.3738 212.186 61.3736 212.088Z" fill="white"/>
<path d="M59.7642 202.496C60.0411 203.456 59.8263 205.596 56.7515 206.482" stroke="white" stroke-width="0.1" stroke-dasharray="0.5 0.2"/>
<path d="M63.6084 201.389L65.8241 209.066" stroke="white" stroke-width="0.1" stroke-dasharray="0.5 0.2"/>
<path d="M62.6475 201.664L64.8631 209.342" stroke="white" stroke-width="0.1" stroke-dasharray="0.5 0.2"/>
<path d="M61.6865 201.941L63.9022 209.619" stroke="white" stroke-width="0.1" stroke-dasharray="0.5 0.2"/>
<path fill-rule="evenodd" clip-rule="evenodd" d="M101.842 90.4414C101.734 86.6899 101.363 82.9529 101.056 80.6839L106.13 79.9004C106.46 82.3405 106.852 86.2849 106.967 90.2729C107.078 94.1474 106.946 98.4817 106.027 101.456L102.218 100.111C102.425 100.498 102.675 101.055 102.763 101.713L97.6879 102.488C97.7134 102.679 97.7585 102.804 97.7782 102.851C97.7745 102.844 97.7696 102.835 97.7635 102.824C97.7145 102.735 97.6103 102.574 97.4282 102.343C97.0658 101.885 96.5189 101.311 95.8367 100.71C94.4391 99.478 89.8484 97.8251 88.5 97.3786C85.5601 96.405 83.759 93.9181 82.5 93.3836L82 87.8904C83.1869 88.3944 88.7304 93.4651 91.5 94.3823C93.72 95.1175 97.4172 95.0011 99.0979 96.4821C99.955 97.2373 100.737 98.0394 101.344 98.8066C101.357 98.8234 101.37 98.8403 101.383 98.8572C101.812 96.8234 101.939 93.7825 101.842 90.4414ZM97.7879 102.872C97.7879 102.872 97.7839 102.865 97.7782 102.851C97.7854 102.865 97.7879 102.872 97.7879 102.872Z" fill="black"/>
<ellipse cx="90.2089" cy="86.6521" rx="6.36905" ry="6.36111" fill="#FFC7A0"/>
<ellipse cx="91.5923" cy="92.4587" rx="2.21532" ry="2.21256" fill="#539882"/>
<path d="M90.3782 83.5586C86.8337 83.7798 86.5014 86.2321 86.7783 87.4306" stroke="#FFB684" stroke-width="0.905984" stroke-linecap="round"/>
<path d="M114.373 68.2164C118.899 66.6933 130.077 65.0786 135.101 64.4616C137.881 63.8623 145.353 62.6636 153 62.6636C149.371 37.9562 133.865 29.9109 126.566 28.9766C115.771 26.7907 91.0989 26.7132 78.7695 43.8898C63.3576 65.3607 79.0621 91.6439 79.2084 92.0141C79.3547 92.3843 78.3305 97.1439 82.0372 95.5573C85.7438 93.9708 84.3294 91.4853 84.2807 90.3218C84.2319 89.1584 81.5007 81.1729 81.5007 80.6441C81.5007 80.1153 81.6958 75.3028 86.8168 73.2932C91.9378 71.2837 93.0596 73.6634 94.1813 74.4567C95.3031 75.2499 97.5953 79.0047 98.7659 80.0624C99.9364 81.1201 102.521 81.1201 105.35 79.0047C108.179 76.8893 107.203 76.7307 107.984 73.6634C108.764 70.5962 108.715 70.1202 114.373 68.2164Z" fill="#DA5374"/>
<path d="M120 113.358L125 114.357C125 112.359 112.667 104.869 106.5 101.373L105 104.869L120 113.358Z" fill="black"/>
<path d="M108 101.374C108 104.408 105.538 106.867 102.5 106.867C99.4624 106.867 97 104.408 97 101.374C97 98.3402 99.4624 95.8809 102.5 95.8809C105.538 95.8809 108 98.3402 108 101.374Z" fill="#C4C4C4"/>
<g filter="url(#filter1_i)">
<path d="M102.511 30.2925L103.582 29.9806C104.356 29.7551 105.066 30.4925 104.81 31.2576L101.562 40.9866C101.36 41.5899 100.654 41.8541 100.106 41.5311L99.1255 40.9535C98.712 40.7099 98.5298 40.2071 98.6911 39.7554L101.849 30.9159C101.957 30.614 102.203 30.3821 102.511 30.2925Z" fill="#878787"/>
</g>
<g filter="url(#filter2_i)">
<path d="M112.905 28.81L113.976 28.4982C114.751 28.2726 115.46 29.01 115.205 29.7752L111.956 39.5041C111.755 40.1075 111.049 40.3717 110.5 40.0487L109.52 39.4711C109.107 39.2275 108.924 38.7247 109.086 38.273L112.243 29.4335C112.351 29.1315 112.597 28.8997 112.905 28.81Z" fill="#878787"/>
</g>
<path d="M87.6566 141.934L82.132 142.67C81.5326 142.75 81 142.284 81 141.679V135.72C81 135.213 81.3796 134.786 81.8833 134.727L88.1077 133.996C88.7803 133.917 89.324 134.535 89.1596 135.192C89.0633 135.577 88.7418 135.864 88.3485 135.916L82.368 136.713C81.8711 136.779 81.4214 137.194 81.3574 137.691C81.3004 138.134 81.2905 138.698 81.5 139.325C81.8358 140.331 85.132 140.235 87.3646 139.981C87.9611 139.913 88.5 140.371 88.5 140.971C88.5 141.458 88.1394 141.87 87.6566 141.934Z" fill="black" stroke="black"/>
<ellipse cx="80.5" cy="138.327" rx="1.5" ry="5.49314" fill="#616161"/>
<ellipse cx="80" cy="138.328" rx="1" ry="3.49564" fill="#292929"/>
<defs>
<filter id="filter0_f" x="143.718" y="80.1939" width="10.8237" height="7.49592" filterUnits="userSpaceOnUse" color-interpolation-filters="sRGB">
<feFlood flood-opacity="0" result="BackgroundImageFix"/>
<feBlend mode="normal" in="SourceGraphic" in2="BackgroundImageFix" result="shape"/>
<feGaussianBlur stdDeviation="0.905984" result="effect1_foregroundBlur"/>
</filter>
<filter id="filter1_i" x="98.6328" y="29.9395" width="6.23042" height="11.7307" filterUnits="userSpaceOnUse" color-interpolation-filters="sRGB">
<feFlood flood-opacity="0" result="BackgroundImageFix"/>
<feBlend mode="normal" in="SourceGraphic" in2="BackgroundImageFix" result="shape"/>
<feColorMatrix in="SourceAlpha" type="matrix" values="0 0 0 0 0 0 0 0 0 0 0 0 0 0 0 0 0 0 127 0" result="hardAlpha"/>
<feOffset dy="2"/>
<feComposite in2="hardAlpha" operator="arithmetic" k2="-1" k3="1"/>
<feColorMatrix type="matrix" values="0 0 0 0 0 0 0 0 0 0 0 0 0 0 0 0 0 0 0.25 0"/>
<feBlend mode="normal" in2="shape" result="effect1_innerShadow"/>
</filter>
<filter id="filter2_i" x="109.027" y="28.457" width="6.23042" height="11.7307" filterUnits="userSpaceOnUse" color-interpolation-filters="sRGB">
<feFlood flood-opacity="0" result="BackgroundImageFix"/>
<feBlend mode="normal" in="SourceGraphic" in2="BackgroundImageFix" result="shape"/>
<feColorMatrix in="SourceAlpha" type="matrix" values="0 0 0 0 0 0 0 0 0 0 0 0 0 0 0 0 0 0 127 0" result="hardAlpha"/>
<feOffset dy="2"/>
<feComposite in2="hardAlpha" operator="arithmetic" k2="-1" k3="1"/>
<feColorMatrix type="matrix" values="0 0 0 0 0 0 0 0 0 0 0 0 0 0 0 0 0 0 0.25 0"/>
<feBlend mode="normal" in2="shape" result="effect1_innerShadow"/>
</filter>
</defs>
</svg>
