<svg width="250" height="300" viewBox="0 0 250 300" fill="none" xmlns="http://www.w3.org/2000/svg">
<ellipse cx="157.773" cy="288.924" rx="3" ry="2.5" transform="rotate(24.8937 157.773 288.924)" fill="#D7D6D6"/>
<ellipse cx="159.522" cy="287.531" rx="3" ry="2.5" transform="rotate(24.8937 159.522 287.531)" fill="#D7D6D6"/>
<ellipse cx="161.37" cy="289.49" rx="3.5" ry="2.5" transform="rotate(24.8937 161.37 289.49)" fill="#CECECE"/>
<ellipse cx="163.362" cy="288.761" rx="3" ry="2" transform="rotate(24.8937 163.362 288.761)" fill="#D7D6D6"/>
<ellipse cx="164.544" cy="290.963" rx="2" ry="1.5" transform="rotate(24.8937 164.544 290.963)" fill="#D7D6D6"/>
<ellipse cx="165.872" cy="290.477" rx="2" ry="1.5" transform="rotate(24.8937 165.872 290.477)" fill="#CECECE"/>
<circle cx="91" cy="292" r="1" fill="#D7D6D6"/>
<circle cx="167.476" cy="291.772" r="1" transform="rotate(24.8937 167.476 291.772)" fill="#D7D6D6"/>
<ellipse cx="69.1267" cy="282.814" rx="7.25564" ry="6.04637" transform="rotate(24.8937 69.1267 282.814)" fill="#D7D6D6"/>
<ellipse cx="73.3567" cy="279.445" rx="7.25564" ry="6.04637" transform="rotate(24.8937 73.3567 279.445)" fill="#D7D6D6"/>
<ellipse cx="77.8233" cy="284.183" rx="8.46492" ry="6.04637" transform="rotate(24.8937 77.8233 284.183)" fill="#CECECE"/>
<ellipse cx="82.6411" cy="282.42" rx="7.25564" ry="4.8371" transform="rotate(24.8937 82.6411 282.42)" fill="#D7D6D6"/>
<ellipse cx="85.5017" cy="287.746" rx="4.8371" ry="3.62782" transform="rotate(24.8937 85.5017 287.746)" fill="#D7D6D6"/>
<ellipse cx="88.7136" cy="286.571" rx="4.8371" ry="3.62782" transform="rotate(24.8937 88.7136 286.571)" fill="#CECECE"/>
<circle cx="92.5918" cy="289.704" r="2.41855" transform="rotate(24.8937 92.5918 289.704)" fill="#D7D6D6"/>
<path d="M96.5731 226.422V171.952C96.5731 170.888 95.8302 169.969 94.7904 169.746L79.9994 166.577C78.5954 166.276 77.2715 167.346 77.2715 168.782V222.196C77.2715 223.203 77.939 224.088 78.9072 224.365L93.6982 228.591C95.139 229.002 96.5731 227.92 96.5731 226.422Z" fill="#D1C870"/>
<path d="M131.04 161.857L96.5732 171.508V228.035L131.04 217.694V161.857Z" fill="#F4E97D"/>
<path d="M93.1269 224.587V176.333L80.0293 174.955V221.141L93.1269 224.587Z" stroke="#F4E97D" stroke-width="1.12766" stroke-dasharray="2.26 2.26"/>
<path d="M130.352 139.798L78.6509 153.585V178.402L131.041 161.857L130.352 139.798Z" fill="#539882"/>
<ellipse cx="79.3402" cy="165.993" rx="10.3402" ry="12.4082" fill="#35675B"/>
<path d="M87.1427 165.305C87.1427 170.84 83.4186 175.175 78.9957 175.175C74.5729 175.175 70.8488 170.84 70.8488 165.305C70.8488 159.769 74.5729 155.434 78.9957 155.434C83.4186 155.434 87.1427 159.769 87.1427 165.305Z" stroke="#539882" stroke-width="0.93972"/>
<path d="M84.0488 165.303C84.0488 169.363 81.3178 172.542 78.0744 172.542C74.8309 172.542 72.0999 169.363 72.0999 165.303C72.0999 161.244 74.8309 158.065 78.0744 158.065C81.3178 158.065 84.0488 161.244 84.0488 165.303Z" stroke="#539882" stroke-width="0.689128"/>
<ellipse cx="77.1569" cy="165.305" rx="4.02118" ry="4.82542" fill="#539882"/>
<path d="M86.2334 151.516C94.5055 149.308 102.778 164.614 96.5736 172.886C101.399 171.507 117.254 166.682 131.041 162.546C136.213 156.081 129.259 147.191 122.688 142.13C121.881 141.508 120.829 141.338 119.854 141.636C114.688 143.217 100.913 147.602 86.2334 151.516Z" fill="#D1C870"/>
<path d="M112.428 142.554C99.3305 146.001 84.8545 150.136 84.165 152.205C89.6798 150.826 91.2883 150.826 91.0585 150.826H100.02L118.632 145.311C118.403 145.081 116.84 144.208 112.428 142.554Z" fill="#D1C870"/>
<path d="M152.433 262V268.092" stroke="#FFDAC1" stroke-width="6.34189" stroke-linecap="round"/>
<path d="M96.5625 268.96L90.7087 270.647" stroke="#FFDAC1" stroke-width="6.34189" stroke-linecap="round"/>
<path d="M148.554 267.816V264.77H151.046V268.369C150.585 268.277 149.44 268.037 148.554 267.816Z" fill="#EBC8B1"/>
<path d="M89.9002 266.844L92.8271 266L93.5174 268.395L90.0583 269.392C90.0192 268.923 89.9329 267.756 89.9002 266.844Z" fill="#EBC8B1"/>
<path d="M163.637 262.327C157.545 267.034 147.299 265.65 139.822 262.327C139.532 257.932 138.909 250.163 138 241.5C137.171 233.604 125.83 235.466 124.562 227.966H153.361C153.047 232.829 164.076 232.168 164.384 242C164.621 249.524 164.597 257.044 163.637 262.327Z" fill="#D1C870"/>
<path d="M105.314 275C99.2223 279.708 91.5 270.5 91.5 264C95.5 259.5 103.17 263.569 102.274 255C101.442 247.042 100.367 238.308 99.0871 230.734L132.317 234.611C132.001 239.507 131.325 248.186 130.391 257C129.688 263.641 112.5 273 105.314 275Z" fill="#F4E97D"/>
<path d="M93 269.5C91.5 267 91.5 267 91.5 264C95.5 259.5 103.17 263.569 102.274 255C101.442 247.042 100.367 238.308 99.0871 230.734L105.314 232.5C104.999 237.396 107.934 248.686 107 257.5C106.297 264.141 100.186 267.5 93 269.5Z" fill="#D1C870"/>
<path fill-rule="evenodd" clip-rule="evenodd" d="M168.356 218.993L168.959 219.526L168.96 219.524C169.737 220.21 170.098 220.438 170.534 220.714L170.534 220.714C170.649 220.786 170.769 220.862 170.904 220.95C171.763 221.516 170.626 223.132 169.766 222.566C169.179 222.18 168.596 221.773 168.162 221.439L168.001 221.588L168.952 222.428L169.477 222.892C170.458 223.759 169.199 225.074 168.34 224.508C167.643 224.05 166.945 223.422 166.497 222.972L166.289 223.163C166.86 223.764 167.169 224.005 167.535 224.292L167.535 224.292C167.642 224.376 167.754 224.463 167.879 224.565C168.677 225.214 167.857 226.704 166.568 225.856C165.809 225.357 165.281 224.809 164.926 224.44C164.798 224.308 164.693 224.198 164.606 224.122L164.623 224.109C163.469 222.967 161.632 221.048 161.605 220.598C161.574 220.105 164.533 217.944 166.016 216.925C166.016 216.924 166.016 216.924 166.016 216.924C168.191 217.099 170.5 217.418 170.134 218.525C169.988 218.97 169.293 218.988 168.356 218.993Z" fill="#FFDAC1"/>
<path d="M142.338 174.642C141.483 172.559 139.102 171.563 137.019 172.418C134.936 173.273 133.94 175.655 134.795 177.738L142.338 174.642ZM134.795 177.738C140.556 191.777 144.579 200.023 148.593 206.229C152.634 212.476 156.606 216.546 161.868 222.141L167.807 216.554C162.43 210.837 159.005 207.312 155.439 201.801C151.848 196.248 148.054 188.571 142.338 174.642L134.795 177.738Z" fill="#35675B"/>
<path d="M142.642 173.163C142.499 172.816 142.102 172.65 141.755 172.792C141.408 172.935 141.242 173.331 141.384 173.679L142.642 173.163ZM141.384 173.679C147.126 187.671 150.993 195.621 154.771 201.495C158.554 207.378 162.238 211.162 167.548 216.808L168.538 215.877C163.209 210.211 159.617 206.518 155.914 200.76C152.206 194.994 148.377 187.139 142.642 173.163L141.384 173.679Z" fill="#407967"/>
<path d="M92.4395 229.626C93.7317 215.411 101.522 182.44 122.346 164.274C125.669 164.274 134.863 165.825 145.053 172.028C143.392 186.981 152.253 211.35 160.007 229.626C150.038 239.595 117.362 244.58 92.4395 229.626Z" fill="#539882"/>
<path d="M92.4395 229.628C93.7317 215.413 101.522 182.441 122.346 164.276C124.562 164.276 122.9 163.999 122.9 167.045C107.393 188.367 96.8701 214.674 101.301 234.058C96.8701 232.12 96.0394 231.566 92.4395 229.628Z" fill="#468677"/>
<path d="M170.361 118.914C173.961 126.944 174.791 132.206 176.176 134.144C177.284 135.695 176.822 136.636 176.453 136.913C176.268 139.313 176.065 144.501 176.73 146.051C174.515 146.273 173.592 146.328 173.407 146.328L172.853 136.913L170.361 118.914Z" fill="#FEE1CE"/>
<path d="M175.898 164.605C174.513 157.959 182.267 149.651 174.513 143.836L167.867 161.282C167.959 162.297 170.138 163.94 175.898 164.605Z" fill="#FEE1CE"/>
<ellipse cx="142.946" cy="137.192" rx="31.0145" ry="39.322" fill="#FFDAC1"/>
<ellipse cx="174.791" cy="141.897" rx="4.15373" ry="5.26139" fill="white"/>
<circle cx="174.792" cy="141.898" r="1.93841" fill="black"/>
<g filter="url(#filter0_f)">
<ellipse cx="174.13" cy="149.047" rx="3.5999" ry="1.93841" fill="#FFCCAA"/>
</g>
<path d="M183.677 141.899C183.677 144.999 182.973 147.739 181.903 149.656C180.808 151.618 179.511 152.447 178.39 152.447C177.269 152.447 175.972 151.618 174.877 149.656C173.807 147.739 173.103 144.999 173.103 141.899C173.103 138.798 173.807 136.058 174.877 134.141C175.972 132.18 177.269 131.35 178.39 131.35C179.511 131.35 180.808 132.18 181.903 134.141C182.973 136.058 183.677 138.798 183.677 141.899Z" stroke="#91D7B9" stroke-width="2.71795"/>
<path d="M177.502 152.392C173.032 147.584 174.415 138.675 168.962 125.004L165.244 157.169C167.123 156.56 172.206 154.752 177.502 152.392Z" fill="#FFDAC1"/>
<path d="M174.744 175.842C180.052 171.251 174.044 161.559 173.129 154.359C162.406 156.895 136.028 164.195 124.392 168.759C134.914 179.005 165.075 184.206 174.744 175.842Z" fill="#FFDAC1"/>
<path d="M171.192 133.59C173.131 142.174 174.238 149.651 176.731 152.42C174.958 153.306 173.408 154.082 172.854 154.358" stroke="#FFCCAA" stroke-width="0.905984"/>
<path d="M164.822 146.976C169.807 144.666 172.022 144.666 174.514 144.39" stroke="#91D7B9" stroke-width="2.71795"/>
<path d="M171.084 158.737C168.039 161.23 165.184 160.347 163.608 158.184" stroke="#FF8080" stroke-width="0.905984" stroke-linecap="round"/>
<g filter="url(#filter1_f)">
<ellipse cx="151.424" cy="154.584" rx="8.03055" ry="3.61374" fill="#FFCCAA"/>
</g>
<path d="M165.402 146.329C165.402 154.142 159.792 160.2 153.192 160.2C146.592 160.2 140.982 154.142 140.982 146.329C140.982 138.516 146.592 132.458 153.192 132.458C159.792 132.458 165.402 138.516 165.402 146.329Z" stroke="#91D7B9" stroke-width="2.71795"/>
<circle cx="154.298" cy="144.668" r="5.26139" fill="white"/>
<circle cx="153.747" cy="144.667" r="1.93841" fill="black"/>
<path d="M112.208 144.112C115.531 146.05 133.807 152.143 155.407 119.743C154.761 114.667 150.09 103.239 136.576 98.144C111.1 103.405 109.162 142.45 112.208 144.112Z" fill="#E1E1E1"/>
<path d="M175.068 130.546C168.145 129.715 165.099 121.961 155.407 119.746C154.023 114.208 151.309 105.953 137.131 98.4204C146.823 94.2667 175.068 103.962 175.068 130.546Z" fill="#E1E1E1"/>
<path d="M111.93 143.835C84.5159 117.528 116.362 88.4507 137.407 98.4206C125.444 120.131 115.253 137.65 111.93 143.835Z" fill="#E1E1E1"/>
<path d="M104.998 119.338C105.316 114.874 106.229 112.894 112.653 104.74C110.421 109.203 110.414 113.535 111.084 116.753C111.36 118.081 109.446 120.541 108.093 120.636C107.634 120.668 107.142 120.717 106.617 120.788C105.741 120.907 104.935 120.22 104.998 119.338Z" fill="#C4C4C4"/>
<path d="M155.301 118.861C161.67 119.692 168.87 129.938 174.962 129.938" stroke="#C4C4C4" stroke-width="1.81197" stroke-linecap="round"/>
<path d="M147.314 130.049L158.627 124.644" stroke="#969696" stroke-width="1.81197" stroke-linecap="round"/>
<path d="M169.5 124.577L178.007 128.83" stroke="#969696" stroke-width="1.81197" stroke-linecap="round"/>
<path d="M108.916 141.603C108.17 141.526 107.503 142.069 107.426 142.816C107.349 143.563 107.893 144.23 108.639 144.306L108.916 141.603ZM141.316 144.926L108.916 141.603L108.639 144.306L141.038 147.629L141.316 144.926Z" fill="#91D7B9"/>
<path d="M132.316 142.679C114.87 150.987 112.655 142.403 109.332 141.295C117.972 139.079 128.255 141.295 132.316 142.679Z" fill="#E1E1E1"/>
<path d="M146.717 124.955C134.533 136.862 129.548 139.354 119.579 141.293" stroke="#C4C4C4" stroke-width="1.81197" stroke-linecap="round"/>
<path d="M153.36 114.986C152.253 111.663 147.49 103.467 137.299 98.3715C136.191 97.8177 133.145 96.4331 129.269 96.4331C137.022 98.6484 146.16 105.294 153.36 114.986Z" fill="#C4C4C4"/>
<path fill-rule="evenodd" clip-rule="evenodd" d="M116.716 226.761L116.991 227.517L116.993 227.517C117.348 228.49 117.556 228.863 117.808 229.313C117.875 229.431 117.944 229.555 118.02 229.697C118.505 230.604 116.735 231.482 116.249 230.575C115.917 229.954 115.6 229.319 115.378 228.819L115.164 228.872L115.599 230.067L115.84 230.726C116.288 231.956 114.555 232.51 114.069 231.603C113.675 230.867 113.361 229.981 113.182 229.371L112.908 229.44C113.123 230.24 113.279 230.6 113.464 231.026L113.464 231.026C113.518 231.151 113.575 231.281 113.636 231.43C114.027 232.381 112.596 233.3 111.868 231.939C111.439 231.138 111.237 230.405 111.1 229.911C111.051 229.734 111.011 229.587 110.971 229.479L110.994 229.475C110.525 227.921 109.827 225.358 110.017 224.95C110.225 224.502 113.857 224.015 115.647 223.827L115.647 223.829C115.647 223.828 115.648 223.827 115.648 223.827C117.476 225.019 119.352 226.401 118.503 227.199C118.162 227.52 117.542 227.204 116.716 226.761Z" fill="#FFDAC1"/>
<circle cx="146.44" cy="196.674" r="5.26139" fill="#539882"/>
<path d="M144.776 178.397C145.238 180.612 148.099 188.366 150.869 193.904L143.946 195.566L139.792 183.658L144.776 178.397Z" fill="#539882"/>
<path d="M130.1 201.382C132.592 202.767 136.746 203.321 138.961 200.829C138.13 204.705 132.038 205.813 130.1 201.382Z" fill="#468677"/>
<path d="M138.683 200.829C135.637 203.598 133.145 203.321 130.376 201.382" stroke="#35675B" stroke-width="0.452992" stroke-linecap="round"/>
<path d="M123.067 177.185C124.231 175.258 123.613 172.752 121.686 171.587C119.759 170.422 117.253 171.04 116.088 172.967L123.067 177.185ZM116.088 172.967C108.257 185.924 105.282 195.479 105.048 203.971C104.819 212.303 107.3 219.294 109.286 226.308L117.131 224.088C114.963 216.426 113.013 210.955 113.199 204.195C113.381 197.595 115.667 189.428 123.067 177.185L116.088 172.967Z" fill="#35675B"/>
<mask id="mask0" mask-type="alpha" maskUnits="userSpaceOnUse" x="104" y="164" width="30" height="34">
<path d="M115.878 197.01C115.878 194.942 118.636 188.738 120.704 184.602L105.538 174.262V167.368L117.946 165.3L130.355 170.126L132.423 196.321L115.878 197.01Z" fill="#C4C4C4" stroke="black" stroke-width="1.12766"/>
</mask>
<g mask="url(#mask0)">
<path d="M112.433 170.818C127.598 169.439 126.22 186.672 119.326 188.814" stroke="#D1C870" stroke-width="3.38299" stroke-linecap="round"/>
</g>
<path d="M100.019 170.817C102.777 157.719 95.8828 150.137 90.3682 150.137" stroke="#F4E97D" stroke-width="1.12766" stroke-dasharray="2.26 2.26"/>
<path d="M86.1557 278.764H180.844C182.824 278.764 184.769 278.239 186.479 277.241L188.367 276.14C188.879 275.841 189.538 276.037 189.803 276.568C190.066 277.094 190.066 277.712 189.803 278.238L189.537 278.77C189.391 279.063 189.162 279.306 188.88 279.471L188.047 279.957C185.31 281.553 182.198 282.395 179.03 282.395H87.9701C84.8018 282.395 81.6901 281.553 78.9534 279.957L78.1198 279.471C77.8376 279.306 77.6094 279.063 77.4631 278.77L77.1972 278.238C76.9343 277.712 76.9343 277.094 77.1972 276.568C77.4625 276.037 78.1209 275.841 78.6334 276.14L80.5207 277.241C82.231 278.239 84.1756 278.764 86.1557 278.764Z" fill="#4E4E4E"/>
<path d="M86.3086 279.672H180.85C182.83 279.672 184.88 278.855 186.59 277.857L188.405 276.949C188.918 276.65 189.538 276.038 189.803 276.568C190.066 277.094 190.066 277.713 189.803 278.239L189.537 278.77C189.391 279.063 189.162 279.306 188.88 279.471L188.047 279.957C185.31 281.554 182.198 282.395 179.03 282.395H87.9701C84.8018 282.395 81.6901 281.554 78.9534 279.957L78.1198 279.471C77.8376 279.306 77.6094 279.063 77.4631 278.77L77.1972 278.239C76.9343 277.713 76.9343 277.094 77.1972 276.568C77.4625 276.038 77.6074 276.65 78.1198 276.949L80.4096 278.239C82.1199 279.237 84.3285 279.672 86.3086 279.672Z" fill="#B39880"/>
<path d="M166.845 282.395H173.198L171.383 285.117H168.66L166.845 282.395Z" fill="#C4C4C4"/>
<path d="M95.1504 282.395H101.503L99.688 285.117H96.9654L95.1504 282.395Z" fill="#C4C4C4"/>
<circle cx="170.022" cy="288.294" r="4.9914" fill="#1B1B1B"/>
<circle cx="170.021" cy="288.294" r="2.26882" fill="#E9E9E9"/>
<circle cx="170.022" cy="288.294" r="0.453763" fill="#FFBD3A"/>
<circle cx="98.3268" cy="288.294" r="4.9914" fill="#1B1B1B"/>
<circle cx="98.3269" cy="288.294" r="2.26882" fill="#E9E9E9"/>
<circle cx="98.3268" cy="288.294" r="0.453763" fill="#FFBD3A"/>
<rect x="148" y="277" width="20" height="2" fill="white"/>
<path d="M148 267H156.791C156.791 267 164.857 272.152 166.681 273.957C168 275.261 168 277 168 277H148V267Z" fill="white"/>
<path d="M148 278H168" stroke="black" stroke-width="0.4"/>
<path fill-rule="evenodd" clip-rule="evenodd" d="M157.322 268.969C157.144 269.165 157.174 269.449 157.389 269.603C157.604 269.757 157.923 269.723 158.1 269.527L159.038 268.493C159.143 268.564 159.251 268.637 159.362 268.711L158.322 269.858C158.144 270.054 158.174 270.338 158.389 270.492C158.604 270.646 158.923 270.612 159.1 270.416L160.157 269.25C160.263 269.323 160.371 269.396 160.479 269.47L159.322 270.747C159.144 270.943 159.174 271.227 159.389 271.381C159.604 271.535 159.923 271.501 160.1 271.305L161.27 270.014C161.377 270.088 161.483 270.162 161.59 270.236L160.322 271.636C160.144 271.832 160.174 272.116 160.389 272.27C160.604 272.424 160.923 272.39 161.1 272.194L162.376 270.786C162.483 270.861 162.589 270.936 162.694 271.011L161.322 272.525C161.144 272.721 161.174 273.005 161.389 273.159C161.604 273.313 161.923 273.279 162.1 273.083L163.473 271.568C164.87 272.576 166.096 273.52 166.681 274.111C168 275.444 168 277.222 168 277.222H148V267H156.791C156.791 267 157.364 267.374 158.239 267.957L157.322 268.969Z" fill="black"/>
<path d="M157.677 274.115C157.583 274.088 156.097 273.913 154.836 274.371C153.91 274.707 151.79 274.819 150.61 274.839L150.16 274.351L150 273.86C151.844 273.806 152.409 273.658 153.237 273.604C154.065 273.55 155.702 273.173 156.624 273.039C157.546 272.904 158.016 273.16 158.204 273.2C158.355 273.233 158.882 273.465 159.126 273.577C159.986 273.963 161.825 274.772 162.306 274.923C162.788 275.073 163.636 274.958 164 274.882C163.981 275.08 163.928 275.552 163.868 275.865C162.815 276.093 162.476 276.013 161.516 275.77C160.556 275.528 157.772 274.142 157.677 274.115Z" fill="white"/>
<path d="M148 273C149 273 151 273.8 151 277" stroke="white" stroke-width="0.1" stroke-dasharray="0.5 0.2"/>
<path d="M148 269H156" stroke="white" stroke-width="0.1" stroke-dasharray="0.5 0.2"/>
<path d="M148 270H156" stroke="white" stroke-width="0.1" stroke-dasharray="0.5 0.2"/>
<path d="M148 271H156" stroke="white" stroke-width="0.1" stroke-dasharray="0.5 0.2"/>
<rect x="80.9214" y="268.854" width="20" height="2" transform="rotate(73.9213 80.9214 268.854)" fill="white"/>
<path d="M90.5303 266.085L92.9651 274.532C92.9651 274.532 90.2488 283.709 89.0198 285.962C88.1317 287.591 86.4606 288.072 86.4606 288.072L80.9215 268.855L90.5303 266.085Z" fill="white"/>
<path d="M79.9604 269.131L85.4996 288.349" stroke="black" stroke-width="0.4"/>
<path fill-rule="evenodd" clip-rule="evenodd" d="M91.2196 275.587C90.9821 275.471 90.7179 275.579 90.6295 275.828C90.5411 276.077 90.6619 276.374 90.8994 276.49L92.153 277.104C92.1139 277.226 92.0739 277.35 92.033 277.476L90.6425 276.794C90.405 276.678 90.1408 276.786 90.0523 277.035C89.9639 277.284 90.0848 277.581 90.3223 277.697L91.735 278.39C91.6948 278.512 91.6541 278.635 91.6129 278.76L90.0653 278.002C89.8278 277.885 89.5636 277.993 89.4752 278.242C89.3868 278.491 89.5076 278.788 89.7451 278.904L91.3093 279.671C91.268 279.793 91.2265 279.917 91.1847 280.04L89.4881 279.209C89.2506 279.092 88.9864 279.2 88.898 279.449C88.8096 279.698 88.9305 279.995 89.168 280.111L90.8741 280.947C90.8316 281.07 90.789 281.193 90.7463 281.315L88.911 280.416C88.6735 280.299 88.4093 280.407 88.3209 280.656C88.2324 280.906 88.3533 281.202 88.5908 281.318L90.4266 282.218C89.8443 283.839 89.2777 285.279 88.8713 286.005C87.9553 287.641 86.2471 288.134 86.2471 288.134L80.7079 268.916L90.5303 266.085L92.9651 274.532C92.9651 274.532 92.7644 275.186 92.446 276.188L91.2196 275.587Z" fill="black"/>
<path d="M86.3736 277.354C86.3734 277.256 86.1298 275.78 85.341 274.695C84.7613 273.898 84.0665 271.892 83.721 270.764L84.0653 270.196L84.4929 269.906C85.0554 271.663 85.3539 272.165 85.635 272.945C85.916 273.726 86.7314 275.195 87.1161 276.044C87.5008 276.892 87.3854 277.415 87.3987 277.607C87.4094 277.761 87.3321 278.331 87.2921 278.597C87.1594 279.53 86.8913 281.521 86.8799 282.026C86.8685 282.53 87.2137 283.313 87.3877 283.642C87.1928 283.678 86.724 283.759 86.4074 283.787C85.8957 282.838 85.8795 282.49 85.8464 281.501C85.8134 280.512 86.3738 277.452 86.3736 277.354Z" fill="white"/>
<path d="M84.7651 267.747C85.0421 268.707 84.8273 270.851 81.7525 271.737" stroke="white" stroke-width="0.1" stroke-dasharray="0.5 0.2"/>
<path d="M88.6084 266.639L90.8241 274.326" stroke="white" stroke-width="0.1" stroke-dasharray="0.5 0.2"/>
<path d="M87.6475 266.916L89.8631 274.603" stroke="white" stroke-width="0.1" stroke-dasharray="0.5 0.2"/>
<path d="M86.6865 267.193L88.9022 274.88" stroke="white" stroke-width="0.1" stroke-dasharray="0.5 0.2"/>
<path fill-rule="evenodd" clip-rule="evenodd" d="M126.842 155.554C126.734 151.798 126.363 148.056 126.056 145.784L131.13 145C131.46 147.443 131.852 151.392 131.967 155.385C132.078 159.265 131.946 163.605 131.027 166.583L127.218 165.236C127.425 165.623 127.675 166.181 127.763 166.84L122.688 167.616C122.713 167.807 122.758 167.932 122.778 167.979C122.774 167.972 122.77 167.963 122.763 167.952C122.714 167.863 122.61 167.702 122.428 167.471C122.066 167.012 121.519 166.437 120.837 165.835C119.439 164.602 114.848 162.947 113.5 162.5C110.56 161.525 108.759 159.035 107.5 158.5L107 153C108.187 153.505 113.73 158.582 116.5 159.5C118.72 160.236 122.417 160.12 124.098 161.602C124.955 162.359 125.737 163.162 126.344 163.93C126.357 163.947 126.37 163.964 126.383 163.981C126.812 161.944 126.939 158.899 126.842 155.554ZM122.788 168C122.788 168 122.784 167.993 122.778 167.979C122.785 167.993 122.788 168 122.788 168Z" fill="black"/>
<circle cx="115.209" cy="151.759" r="6.36905" fill="#FFDAC1"/>
<circle cx="116.592" cy="157.575" r="2.21532" fill="#539882"/>
<path d="M115.378 148.663C111.834 148.884 111.501 151.339 111.778 152.539" stroke="#FFCCAA" stroke-width="0.905984" stroke-linecap="round"/>
<path d="M139.373 133.302C143.899 131.777 155.077 130.16 160.101 129.542C162.881 128.942 170.353 127.742 178 127.742C174.371 103.004 158.865 94.9484 151.566 94.013C140.771 91.8244 116.099 91.7467 103.769 108.945C88.3576 130.443 104.062 156.759 104.208 157.129C104.355 157.5 103.331 162.265 107.037 160.677C110.744 159.088 109.329 156.6 109.281 155.435C109.232 154.27 106.501 146.275 106.501 145.745C106.501 145.216 106.696 140.397 111.817 138.385C116.938 136.373 118.06 138.756 119.181 139.55C120.303 140.344 122.595 144.104 123.766 145.163C124.936 146.222 127.521 146.222 130.35 144.104C133.179 141.986 132.203 141.827 132.984 138.756C133.764 135.685 133.715 135.208 139.373 133.302Z" fill="#DA5374"/>
<path d="M145 178.5L150 179.5C150 177.5 137.667 170 131.5 166.5L130 170L145 178.5Z" fill="black"/>
<path d="M133 166.5C133 169.538 130.538 172 127.5 172C124.462 172 122 169.538 122 166.5C122 163.462 124.462 161 127.5 161C130.538 161 133 163.462 133 166.5Z" fill="#C4C4C4"/>
<g filter="url(#filter2_i)">
<path d="M127.511 95.3305L128.582 95.0181C129.357 94.7923 130.066 95.5293 129.811 96.2945L126.562 106.038C126.361 106.642 125.654 106.906 125.105 106.583L124.124 106.004C123.711 105.761 123.529 105.258 123.691 104.807L126.849 95.9546C126.957 95.6524 127.203 95.4203 127.511 95.3305Z" fill="#878787"/>
</g>
<g filter="url(#filter3_i)">
<path d="M137.905 93.8467L138.977 93.5342C139.751 93.3085 140.461 94.0454 140.205 94.8106L136.956 104.554C136.755 105.158 136.048 105.422 135.5 105.099L134.519 104.52C134.106 104.277 133.924 103.775 134.085 103.323L137.243 94.4707C137.351 94.1685 137.597 93.9364 137.905 93.8467Z" fill="#878787"/>
</g>
<path d="M112.656 207.113L107.132 207.849C106.533 207.929 106 207.463 106 206.858V200.889C106 200.382 106.38 199.955 106.883 199.896L113.106 199.164C113.78 199.085 114.324 199.704 114.16 200.361C114.063 200.747 113.741 201.034 113.348 201.087L107.368 201.884C106.871 201.951 106.422 202.366 106.358 202.863C106.3 203.306 106.29 203.871 106.5 204.5C106.836 205.507 110.13 205.411 112.363 205.157C112.96 205.089 113.5 205.547 113.5 206.148C113.5 206.636 113.139 207.048 112.656 207.113Z" fill="black" stroke="black"/>
<ellipse cx="105.5" cy="203.5" rx="1.5" ry="5.5" fill="#616161"/>
<ellipse cx="105" cy="203.5" rx="1" ry="3.5" fill="#292929"/>
<defs>
<filter id="filter0_f" x="168.718" y="145.297" width="10.8237" height="7.50075" filterUnits="userSpaceOnUse" color-interpolation-filters="sRGB">
<feFlood flood-opacity="0" result="BackgroundImageFix"/>
<feBlend mode="normal" in="SourceGraphic" in2="BackgroundImageFix" result="shape"/>
<feGaussianBlur stdDeviation="0.905984" result="effect1_foregroundBlur"/>
</filter>
<filter id="filter1_f" x="140.766" y="148.343" width="21.3158" height="12.4822" filterUnits="userSpaceOnUse" color-interpolation-filters="sRGB">
<feFlood flood-opacity="0" result="BackgroundImageFix"/>
<feBlend mode="normal" in="SourceGraphic" in2="BackgroundImageFix" result="shape"/>
<feGaussianBlur stdDeviation="1.31368" result="effect1_foregroundBlur"/>
</filter>
<filter id="filter2_i" x="122.303" y="94.8462" width="8.99027" height="12.1326" filterUnits="userSpaceOnUse" color-interpolation-filters="sRGB">
<feFlood flood-opacity="0" result="BackgroundImageFix"/>
<feBlend mode="normal" in="SourceGraphic" in2="BackgroundImageFix" result="shape"/>
<feColorMatrix in="SourceAlpha" type="matrix" values="0 0 0 0 0 0 0 0 0 0 0 0 0 0 0 0 0 0 127 0" result="hardAlpha"/>
<feOffset dy="2"/>
<feComposite in2="hardAlpha" operator="arithmetic" k2="-1" k3="1"/>
<feColorMatrix type="matrix" values="0 0 0 0 0 0 0 0 0 0 0 0 0 0 0 0 0 0 0.25 0"/>
<feBlend mode="normal" in2="shape" result="effect1_innerShadow"/>
</filter>
<filter id="filter3_i" x="132.698" y="93.3623" width="8.99027" height="12.1326" filterUnits="userSpaceOnUse" color-interpolation-filters="sRGB">
<feFlood flood-opacity="0" result="BackgroundImageFix"/>
<feBlend mode="normal" in="SourceGraphic" in2="BackgroundImageFix" result="shape"/>
<feColorMatrix in="SourceAlpha" type="matrix" values="0 0 0 0 0 0 0 0 0 0 0 0 0 0 0 0 0 0 127 0" result="hardAlpha"/>
<feOffset dy="2"/>
<feComposite in2="hardAlpha" operator="arithmetic" k2="-1" k3="1"/>
<feColorMatrix type="matrix" values="0 0 0 0 0 0 0 0 0 0 0 0 0 0 0 0 0 0 0.25 0"/>
<feBlend mode="normal" in2="shape" result="effect1_innerShadow"/>
</filter>
</defs>
</svg>
