<svg fill="none" height="684" viewBox="0 0 1194 684" width="1194" xmlns="http://www.w3.org/2000/svg" xmlns:xlink="http://www.w3.org/1999/xlink"><filter id="a" color-interpolation-filters="sRGB" filterUnits="userSpaceOnUse" height="481.137" width="266.434" x="479.558" y="152.166"><feFlood flood-opacity="0" result="BackgroundImageFix"/><feColorMatrix in="SourceAlpha" type="matrix" values="0 0 0 0 0 0 0 0 0 0 0 0 0 0 0 0 0 0 127 0"/><feOffset dx="18.4168" dy="-9.20839"/><feGaussianBlur stdDeviation="13.8126"/><feColorMatrix type="matrix" values="0 0 0 0 0 0 0 0 0 0 0 0 0 0 0 0 0 0 0.1 0"/><feBlend in2="BackgroundImageFix" mode="normal" result="effect1_dropShadow"/><feBlend in="SourceGraphic" in2="effect1_dropShadow" mode="normal" result="shape"/></filter><filter id="b" color-interpolation-filters="sRGB" filterUnits="userSpaceOnUse" height="372.7" width="236.958" x="53.4298" y="273.549"><feFlood flood-opacity="0" result="BackgroundImageFix"/><feColorMatrix in="SourceAlpha" type="matrix" values="0 0 0 0 0 0 0 0 0 0 0 0 0 0 0 0 0 0 127 0"/><feOffset dx="13.5779" dy="-6.78893"/><feGaussianBlur stdDeviation="10.1834"/><feColorMatrix type="matrix" values="0 0 0 0 0 0 0 0 0 0 0 0 0 0 0 0 0 0 0.1 0"/><feBlend in2="BackgroundImageFix" mode="normal" result="effect1_dropShadow"/><feBlend in="SourceGraphic" in2="effect1_dropShadow" mode="normal" result="shape"/></filter><filter id="c" color-interpolation-filters="sRGB" filterUnits="userSpaceOnUse" height="429.8" width="262.679" x="907.232" y="210.267"><feFlood flood-opacity="0" result="BackgroundImageFix"/><feColorMatrix in="SourceAlpha" type="matrix" values="0 0 0 0 0 0 0 0 0 0 0 0 0 0 0 0 0 0 127 0"/><feOffset dx="15.8684" dy="-7.93422"/><feGaussianBlur stdDeviation="11.9013"/><feColorMatrix type="matrix" values="0 0 0 0 0 0 0 0 0 0 0 0 0 0 0 0 0 0 0.1 0"/><feBlend in2="BackgroundImageFix" mode="normal" result="effect1_dropShadow"/><feBlend in="SourceGraphic" in2="effect1_dropShadow" mode="normal" result="shape"/></filter><filter id="d" color-interpolation-filters="sRGB" filterUnits="userSpaceOnUse" height="124.741" width="1224.72" x="0" y="564.242"><feFlood flood-opacity="0" result="BackgroundImageFix"/><feColorMatrix in="SourceAlpha" type="matrix" values="0 0 0 0 0 0 0 0 0 0 0 0 0 0 0 0 0 0 127 0"/><feOffset dx="23.021"/><feGaussianBlur stdDeviation="2.3021"/><feColorMatrix type="matrix" values="0 0 0 0 0.4125 0 0 0 0 0.4125 0 0 0 0 0.4125 0 0 0 0.1 0"/><feBlend in2="BackgroundImageFix" mode="normal" result="effect1_dropShadow"/><feBlend in="SourceGraphic" in2="effect1_dropShadow" mode="normal" result="shape"/></filter><filter id="e" color-interpolation-filters="sRGB" filterUnits="userSpaceOnUse" height="52.0713" width="72.1127" x="325.476" y="483.123"><feFlood flood-opacity="0" result="BackgroundImageFix"/><feColorMatrix in="SourceAlpha" type="matrix" values="0 0 0 0 0 0 0 0 0 0 0 0 0 0 0 0 0 0 127 0"/><feOffset dx="9.20839" dy="-4.60419"/><feGaussianBlur stdDeviation="1.15105"/><feColorMatrix type="matrix" values="0 0 0 0 0 0 0 0 0 0 0 0 0 0 0 0 0 0 0.1 0"/><feBlend in2="BackgroundImageFix" mode="normal" result="effect1_dropShadow"/><feBlend in="SourceGraphic" in2="effect1_dropShadow" mode="normal" result="shape"/></filter><filter id="f" color-interpolation-filters="sRGB" filterUnits="userSpaceOnUse" height="59.1492" width="67.5096" x="913.435" y="514.227"><feFlood flood-opacity="0" result="BackgroundImageFix"/><feColorMatrix in="SourceAlpha" type="matrix" values="0 0 0 0 0 0 0 0 0 0 0 0 0 0 0 0 0 0 127 0"/><feOffset dx="9.20839" dy="-4.60419"/><feGaussianBlur stdDeviation="1.15105"/><feColorMatrix type="matrix" values="0 0 0 0 0 0 0 0 0 0 0 0 0 0 0 0 0 0 0.1 0"/><feBlend in2="BackgroundImageFix" mode="normal" result="effect1_dropShadow"/><feBlend in="SourceGraphic" in2="effect1_dropShadow" mode="normal" result="shape"/></filter><mask id="g" height="752" maskUnits="userSpaceOnUse" width="1194" x="0" y="-67"><path d="m0-66.5137h1194v750.514h-1194z" fill="#fff"/></mask><g mask="url(#g)"><g filter="url(#a)"><path d="m554.468 570.89 21.778 43.997h86.161l25.811-35.198 11.733-371.332-211.184 75.675z" fill="#f3e8cb"/><path d="m638.354 551.533 50.156-326.455-9.68 349.333z" fill="#c1dd9b"/><path d="m575.88 352.668-78.315-63.356 16.719 51.037z" fill="#e3e687"/><path d="m535.403 228.597-46.636 55.436 211.184-75.674-58.076-19.359z" fill="#91d7b9"/><path d="m593.481 417.781-36.078 28.158 19.359 44.877z" fill="#a2daaf"/></g><path d="m865.693 627.214 23.701-45.409-122.821-12.114-4.664 47.287z" fill="#000"/><path d="m658.126 606.742-14.374-49.164 122.821 12.113-4.664 47.287z" fill="#000"/><path d="m764.186 581.237 24.167-245.028" stroke="#000" stroke-width="4.93669"/><path d="m776.024 553.261 21.32-216.165 82.464 226.401z" fill="#000"/><path d="m758.388 551.521 21.32-216.166-125.104 205.93z" fill="#000"/><g filter="url(#b)"><path d="m145.815 594.057 20.243 30.003 62.954-8.482 15.394-28.257-27.98-272.47-146.8529 76.079z" fill="#f3e8cb"/><path d="m205.2 571.657 4.512-243.463 27.315 256.194z" fill="#e3e687"/><path d="m139.976 432.504-63.4565-38.582 17.2394 35.644z" fill="#a2daaf"/><path d="m98.1916 345.833-28.6182 45.095 146.8536-76.079-44.339-8.428z" fill="#91d7b9"/><path d="m159.246 478.347-23.589 24.125 18.562 30.884z" fill="#e3e687"/></g><g filter="url(#c)"><path d="m1043.48 581.223-22.18 36.014-73.923-6.856-19.344-32.251 19.483-319.517 175.164 81.73z" fill="#f3e8cb"/><path d="m973.049 557.941-17.053-284.073-19.494 300.48z" fill="#e3e687"/><path d="m1042.48 392.295 72.23-48.123-18.41 42.456z" fill="#a2daaf"/><path d="m1087.08 289.07 35.6 51.272-175.166-81.73 51.366-11.987z" fill="#91d7b9"/><path d="m1022.2 446.76 28.71 27.029-20.18 36.961z" fill="#e3e687"/></g><g filter="url(#d)"><path clip-rule="evenodd" d="m1149.32 568.955c-3.34 20.184-20.88 35.575-42.01 35.575-21.17 0-38.74-15.447-42.03-35.684h-1.11c-3.3 20.237-20.87 35.684-42.04 35.684s-38.729-15.447-42.028-35.684h-1.118c-3.299 20.237-20.862 35.684-42.032 35.684s-38.733-15.447-42.032-35.684h-1.113c-3.3 20.237-20.862 35.684-42.032 35.684-21.171 0-38.733-15.447-42.032-35.684h-1.114c-3.299 20.237-20.862 35.684-42.032 35.684s-38.733-15.447-42.032-35.684h-1.109c-3.299 20.237-20.862 35.684-42.032 35.684s-38.733-15.447-42.032-35.684h-1.118c-3.299 20.237-20.861 35.684-42.032 35.684-21.17 0-38.732-15.447-42.032-35.684h-1.113c-3.299 20.237-20.862 35.684-42.032 35.684s-38.733-15.447-42.032-35.684h-1.114c-3.299 20.237-20.861 35.684-42.032 35.684-21.17 0-38.732-15.447-42.032-35.684h-1.113c-3.299 20.237-20.862 35.684-42.032 35.684s-38.733-15.447-42.032-35.684h-1.114c-3.299 20.237-20.861 35.684-42.031 35.684-21.171 0-38.733-15.447-42.032-35.684h-1.114c-3.299 20.237-20.862 35.684-42.032 35.684s-38.733-15.447-42.032-35.684h-1.113c-3.3 20.237-20.862 35.684-42.0323 35.684s-38.7328-15.447-42.032-35.684h-1.1133c-3.2982 20.239-20.8612 35.686-42.03233896 35.686h-.00006104v79.846h1197.09v-80.234c-1.88.255-3.8.386-5.76.386-21.13 0-38.66-15.391-42.01-35.575z" fill="#89cdd3" fill-rule="evenodd"/></g><g filter="url(#e)"><g fill="#000"><path d="m339.114 504.459c37.914-6.9 50.32 19.251 46.214 26.43z"/><path d="m339.112 504.461c13.397 35.968 42.148 33.54 46.214 26.43z"/><path d="m339.108 504.456-13.632 5.277 11.268-19.703z"/></g><circle cx="375.268" cy="520.423" fill="#fff" r="2.45715" transform="matrix(-.49644378 .86806888 -.86806888 -.49644378 1013.330473 453.025291)"/></g><g filter="url(#f)"><g fill="#000"><path d="m955.022 558.774c-5.758-38.104-34.519-41.366-39.98-35.155z"/><path d="m955.022 558.773c-38.369-1.018-45.389-29.005-39.981-35.155z"/><path d="m955.019 558.769-.574 14.607 14.988-17.045z"/></g><circle fill="#fff" r="2.45715" transform="matrix(-.660334 .750972 .750972 .660334 928.203 529.735)"/></g></g></svg>