<svg fill="none" height="684" viewBox="0 0 1194 684" width="1194" xmlns="http://www.w3.org/2000/svg" xmlns:xlink="http://www.w3.org/1999/xlink"><filter id="a" color-interpolation-filters="sRGB" filterUnits="userSpaceOnUse" height="481.137" width="266.434" x="429.558" y="152.166"><feFlood flood-opacity="0" result="BackgroundImageFix"/><feColorMatrix in="SourceAlpha" type="matrix" values="0 0 0 0 0 0 0 0 0 0 0 0 0 0 0 0 0 0 127 0"/><feOffset dx="18.4168" dy="-9.20839"/><feGaussianBlur stdDeviation="13.8126"/><feColorMatrix type="matrix" values="0 0 0 0 0 0 0 0 0 0 0 0 0 0 0 0 0 0 0.1 0"/><feBlend in2="BackgroundImageFix" mode="normal" result="effect1_dropShadow"/><feBlend in="SourceGraphic" in2="effect1_dropShadow" mode="normal" result="shape"/></filter><filter id="b" color-interpolation-filters="sRGB" filterUnits="userSpaceOnUse" height="173" width="165" x="424" y="452"><feFlood flood-opacity="0" result="BackgroundImageFix"/><feColorMatrix in="SourceAlpha" type="matrix" values="0 0 0 0 0 0 0 0 0 0 0 0 0 0 0 0 0 0 127 0"/><feOffset dx="6" dy="6"/><feGaussianBlur stdDeviation="4"/><feColorMatrix type="matrix" values="0 0 0 0 0 0 0 0 0 0 0 0 0 0 0 0 0 0 0.2 0"/><feBlend in2="BackgroundImageFix" mode="normal" result="effect1_dropShadow"/><feBlend in="SourceGraphic" in2="effect1_dropShadow" mode="normal" result="shape"/></filter><filter id="c" color-interpolation-filters="sRGB" filterUnits="userSpaceOnUse" height="367.624" width="224.443" x="-120.312" y="276.086"><feFlood flood-opacity="0" result="BackgroundImageFix"/><feColorMatrix in="SourceAlpha" type="matrix" values="0 0 0 0 0 0 0 0 0 0 0 0 0 0 0 0 0 0 127 0"/><feOffset dx="13.5779" dy="-6.78893"/><feGaussianBlur stdDeviation="10.1834"/><feColorMatrix type="matrix" values="0 0 0 0 0 0 0 0 0 0 0 0 0 0 0 0 0 0 0.1 0"/><feBlend in2="BackgroundImageFix" mode="normal" result="effect1_dropShadow"/><feBlend in="SourceGraphic" in2="effect1_dropShadow" mode="normal" result="shape"/></filter><filter id="d" color-interpolation-filters="sRGB" filterUnits="userSpaceOnUse" height="456.686" width="360.825" x="958.16" y="196.824"><feFlood flood-opacity="0" result="BackgroundImageFix"/><feColorMatrix in="SourceAlpha" type="matrix" values="0 0 0 0 0 0 0 0 0 0 0 0 0 0 0 0 0 0 127 0"/><feOffset dx="15.8684" dy="-7.93422"/><feGaussianBlur stdDeviation="11.9013"/><feColorMatrix type="matrix" values="0 0 0 0 0 0 0 0 0 0 0 0 0 0 0 0 0 0 0.1 0"/><feBlend in2="BackgroundImageFix" mode="normal" result="effect1_dropShadow"/><feBlend in="SourceGraphic" in2="effect1_dropShadow" mode="normal" result="shape"/></filter><filter id="e" color-interpolation-filters="sRGB" filterUnits="userSpaceOnUse" height="124.741" width="1224.72" x="0" y="564.242"><feFlood flood-opacity="0" result="BackgroundImageFix"/><feColorMatrix in="SourceAlpha" type="matrix" values="0 0 0 0 0 0 0 0 0 0 0 0 0 0 0 0 0 0 127 0"/><feOffset dx="23.021"/><feGaussianBlur stdDeviation="2.3021"/><feColorMatrix type="matrix" values="0 0 0 0 0.4125 0 0 0 0 0.4125 0 0 0 0 0.4125 0 0 0 0.1 0"/><feBlend in2="BackgroundImageFix" mode="normal" result="effect1_dropShadow"/><feBlend in="SourceGraphic" in2="effect1_dropShadow" mode="normal" result="shape"/></filter><filter id="f" color-interpolation-filters="sRGB" filterUnits="userSpaceOnUse" height="71.6398" width="68.2583" x="654.24" y="470.094"><feFlood flood-opacity="0" result="BackgroundImageFix"/><feColorMatrix in="SourceAlpha" type="matrix" values="0 0 0 0 0 0 0 0 0 0 0 0 0 0 0 0 0 0 127 0"/><feOffset dx="9.20839" dy="-4.60419"/><feGaussianBlur stdDeviation="1.15105"/><feColorMatrix type="matrix" values="0 0 0 0 0 0 0 0 0 0 0 0 0 0 0 0 0 0 0.1 0"/><feBlend in2="BackgroundImageFix" mode="normal" result="effect1_dropShadow"/><feBlend in="SourceGraphic" in2="effect1_dropShadow" mode="normal" result="shape"/></filter><filter id="g" color-interpolation-filters="sRGB" filterUnits="userSpaceOnUse" height="55.4427" width="78.3918" x="1047.94" y="492.633"><feFlood flood-opacity="0" result="BackgroundImageFix"/><feColorMatrix in="SourceAlpha" type="matrix" values="0 0 0 0 0 0 0 0 0 0 0 0 0 0 0 0 0 0 127 0"/><feOffset dx="9.20839" dy="-4.60419"/><feGaussianBlur stdDeviation="1.15105"/><feColorMatrix type="matrix" values="0 0 0 0 0 0 0 0 0 0 0 0 0 0 0 0 0 0 0.1 0"/><feBlend in2="BackgroundImageFix" mode="normal" result="effect1_dropShadow"/><feBlend in="SourceGraphic" in2="effect1_dropShadow" mode="normal" result="shape"/></filter><mask id="h" height="752" maskUnits="userSpaceOnUse" width="1194" x="0" y="-67"><path d="m0-66.5137h1194v750.514h-1194z" fill="#fff"/></mask><g mask="url(#h)"><g filter="url(#a)"><path d="m504.468 570.89 21.778 43.997h86.161l25.811-35.198 11.733-371.332-211.184 75.675z" fill="#f3e8cb"/><path d="m588.354 551.533 50.156-326.455-9.68 349.333z" fill="#c1dd9b"/><path d="m525.88 352.668-78.315-63.356 16.719 51.037z" fill="#e3e687"/><path d="m485.403 228.597-46.636 55.436 211.184-75.674-58.076-19.359z" fill="#91d7b9"/><path d="m543.481 417.781-36.078 28.158 19.359 44.877z" fill="#a2daaf"/></g><g filter="url(#b)"><path d="m440 454c45 10.333 135 56.2 135 157h-149c19.333-34 49.2-113 14-157z" fill="#000"/></g><path d="m167.899 606.665 22.038-64.034-162.9546 8.363 3.22 62.738z" fill="#000"/><path d="m-107.494 620.799-28.478-61.441 162.9544-8.364 3.22 62.738z" fill="#000"/><path d="m26.1365 566.56-16.68533-325.095" stroke="#000" stroke-width="6.52677"/><path d="m36.1008 527.654-14.7199-286.8 152.4171 279.733z" fill="#000"/><path d="m12.7023 528.853-14.71988-286.8-122.97742 293.868z" fill="#000"/><g filter="url(#c)"><path d="m-39.5844 593.409 18.95 30.835 63.257-5.798 16.5812-27.579-16.3782-273.412-149.9536 69.771z" fill="#f3e8cb"/><path d="m20.6981 573.553 14.852-243.052 16.405 257.124z" fill="#e3e687"/><path d="m-76.619 343.387-30.508 43.839 149.9528-69.772-43.94067-10.304z" fill="#91d7b9"/></g><g filter="url(#d)"><path d="m1212.28 552.884-2.09 42.247-68.08 29.608-32.49-18.941-136.871-289.371 192.871-12.778z" fill="#f3e8cb"/><path d="m1139.34 566.417-151.812-240.709 127.692 272.695z" fill="#e3e687"/><path d="m1120.37 387.815 40.11-76.971 4.33 46.071z" fill="#a2daaf"/><path d="m1109.72 275.874 55.9 27.776-192.874 12.778 39.234-35.253z" fill="#91d7b9"/><path d="m1128.84 445.314 38.18 9.851.13 42.111z" fill="#e3e687"/></g><g filter="url(#e)"><path clip-rule="evenodd" d="m1149.32 568.955c-3.34 20.184-20.88 35.575-42.01 35.575-21.17 0-38.74-15.447-42.03-35.684h-1.11c-3.3 20.237-20.87 35.684-42.04 35.684s-38.729-15.447-42.028-35.684h-1.118c-3.299 20.237-20.862 35.684-42.032 35.684s-38.733-15.447-42.032-35.684h-1.113c-3.3 20.237-20.862 35.684-42.032 35.684-21.171 0-38.733-15.447-42.032-35.684h-1.114c-3.299 20.237-20.862 35.684-42.032 35.684s-38.733-15.447-42.032-35.684h-1.109c-3.299 20.237-20.862 35.684-42.032 35.684s-38.733-15.447-42.032-35.684h-1.118c-3.299 20.237-20.861 35.684-42.032 35.684-21.17 0-38.732-15.447-42.032-35.684h-1.113c-3.299 20.237-20.862 35.684-42.032 35.684s-38.733-15.447-42.032-35.684h-1.114c-3.299 20.237-20.861 35.684-42.032 35.684-21.17 0-38.732-15.447-42.032-35.684h-1.113c-3.299 20.237-20.862 35.684-42.032 35.684s-38.733-15.447-42.032-35.684h-1.114c-3.299 20.237-20.861 35.684-42.031 35.684-21.171 0-38.733-15.447-42.032-35.684h-1.114c-3.299 20.237-20.862 35.684-42.032 35.684s-38.733-15.447-42.032-35.684h-1.113c-3.3 20.237-20.862 35.684-42.0323 35.684s-38.7328-15.447-42.032-35.684h-1.1133c-3.2982 20.239-20.8612 35.686-42.03233896 35.686h-.00006104v79.846h1197.09v-80.234c-1.88.255-3.8.386-5.76.386-21.13 0-38.66-15.391-42.01-35.575z" fill="#89cdd3" fill-rule="evenodd"/></g><g filter="url(#f)"><g fill="#000"><path d="m668.848 527.567c-2.363-38.464 25.074-47.687 31.717-42.76z"/><path d="m668.849 527.569c37.301-9.044 38.294-37.88 31.716-42.759z"/><path d="m668.845 527.571 3.626 14.162-18.231-13.523z"/></g><circle cx="688.98" cy="493.556" fill="#fff" r="2.45715" transform="matrix(.80317634 .59574136 -.59574136 .80317634 429.639288 -313.310383)"/></g><g filter="url(#g)"><g fill="#000"><path d="m1061.08 533.9c16.25-34.943 44.77-29.979 48.26-22.482z"/><path d="m1061.08 533.897c37.11 9.822 51.72-15.057 48.26-22.481z"/><path d="m1061.08 533.897-3.56 14.178-9.58-20.575z"/></g><circle cx="1094.99" cy="513.583" fill="#fff" r="2.45715" transform="matrix(.42227973 .90646557 -.90646557 .42227973 1098.143231 -695.863425)"/></g></g></svg>