<svg fill="none" height="684" viewBox="0 0 1194 684" width="1194" xmlns="http://www.w3.org/2000/svg" xmlns:xlink="http://www.w3.org/1999/xlink"><filter id="a" color-interpolation-filters="sRGB" filterUnits="userSpaceOnUse" height="481.137" width="266.434" x="429.557" y="151.68"><feFlood flood-opacity="0" result="BackgroundImageFix"/><feColorMatrix in="SourceAlpha" type="matrix" values="0 0 0 0 0 0 0 0 0 0 0 0 0 0 0 0 0 0 127 0"/><feOffset dx="18.4168" dy="-9.20839"/><feGaussianBlur stdDeviation="13.8126"/><feColorMatrix type="matrix" values="0 0 0 0 0 0 0 0 0 0 0 0 0 0 0 0 0 0 0.1 0"/><feBlend in2="BackgroundImageFix" mode="normal" result="effect1_dropShadow"/><feBlend in="SourceGraphic" in2="effect1_dropShadow" mode="normal" result="shape"/></filter><filter id="b" color-interpolation-filters="sRGB" filterUnits="userSpaceOnUse" height="396.308" width="340.872" x="674.148" y="230.771"><feFlood flood-opacity="0" result="BackgroundImageFix"/><feColorMatrix in="SourceAlpha" type="matrix" values="0 0 0 0 0 0 0 0 0 0 0 0 0 0 0 0 0 0 127 0"/><feOffset dx="4"/><feGaussianBlur stdDeviation="2"/><feColorMatrix type="matrix" values="0 0 0 0 0 0 0 0 0 0 0 0 0 0 0 0 0 0 0.2 0"/><feBlend in2="BackgroundImageFix" mode="normal" result="effect1_dropShadow"/><feBlend in="SourceGraphic" in2="effect1_dropShadow" mode="normal" result="shape"/></filter><filter id="c" color-interpolation-filters="sRGB" filterUnits="userSpaceOnUse" height="367.624" width="224.443" x="-120.312" y="275.6"><feFlood flood-opacity="0" result="BackgroundImageFix"/><feColorMatrix in="SourceAlpha" type="matrix" values="0 0 0 0 0 0 0 0 0 0 0 0 0 0 0 0 0 0 127 0"/><feOffset dx="13.5779" dy="-6.78893"/><feGaussianBlur stdDeviation="10.1834"/><feColorMatrix type="matrix" values="0 0 0 0 0 0 0 0 0 0 0 0 0 0 0 0 0 0 0.1 0"/><feBlend in2="BackgroundImageFix" mode="normal" result="effect1_dropShadow"/><feBlend in="SourceGraphic" in2="effect1_dropShadow" mode="normal" result="shape"/></filter><filter id="d" color-interpolation-filters="sRGB" filterUnits="userSpaceOnUse" height="456.686" width="360.824" x="958.16" y="196.337"><feFlood flood-opacity="0" result="BackgroundImageFix"/><feColorMatrix in="SourceAlpha" type="matrix" values="0 0 0 0 0 0 0 0 0 0 0 0 0 0 0 0 0 0 127 0"/><feOffset dx="15.8684" dy="-7.93422"/><feGaussianBlur stdDeviation="11.9013"/><feColorMatrix type="matrix" values="0 0 0 0 0 0 0 0 0 0 0 0 0 0 0 0 0 0 0.1 0"/><feBlend in2="BackgroundImageFix" mode="normal" result="effect1_dropShadow"/><feBlend in="SourceGraphic" in2="effect1_dropShadow" mode="normal" result="shape"/></filter><filter id="e" color-interpolation-filters="sRGB" filterUnits="userSpaceOnUse" height="124.741" width="1224.72" x="0" y="563.755"><feFlood flood-opacity="0" result="BackgroundImageFix"/><feColorMatrix in="SourceAlpha" type="matrix" values="0 0 0 0 0 0 0 0 0 0 0 0 0 0 0 0 0 0 127 0"/><feOffset dx="23.021"/><feGaussianBlur stdDeviation="2.3021"/><feColorMatrix type="matrix" values="0 0 0 0 0.4125 0 0 0 0 0.4125 0 0 0 0 0.4125 0 0 0 0.1 0"/><feBlend in2="BackgroundImageFix" mode="normal" result="effect1_dropShadow"/><feBlend in="SourceGraphic" in2="effect1_dropShadow" mode="normal" result="shape"/></filter><filter id="f" color-interpolation-filters="sRGB" filterUnits="userSpaceOnUse" height="71.6398" width="68.2583" x="190.24" y="464.094"><feFlood flood-opacity="0" result="BackgroundImageFix"/><feColorMatrix in="SourceAlpha" type="matrix" values="0 0 0 0 0 0 0 0 0 0 0 0 0 0 0 0 0 0 127 0"/><feOffset dx="9.20839" dy="-4.60419"/><feGaussianBlur stdDeviation="1.15105"/><feColorMatrix type="matrix" values="0 0 0 0 0 0 0 0 0 0 0 0 0 0 0 0 0 0 0.1 0"/><feBlend in2="BackgroundImageFix" mode="normal" result="effect1_dropShadow"/><feBlend in="SourceGraphic" in2="effect1_dropShadow" mode="normal" result="shape"/></filter><filter id="g" color-interpolation-filters="sRGB" filterUnits="userSpaceOnUse" height="55.4427" width="78.3918" x="1047.94" y="492.146"><feFlood flood-opacity="0" result="BackgroundImageFix"/><feColorMatrix in="SourceAlpha" type="matrix" values="0 0 0 0 0 0 0 0 0 0 0 0 0 0 0 0 0 0 127 0"/><feOffset dx="9.20839" dy="-4.60419"/><feGaussianBlur stdDeviation="1.15105"/><feColorMatrix type="matrix" values="0 0 0 0 0 0 0 0 0 0 0 0 0 0 0 0 0 0 0.1 0"/><feBlend in2="BackgroundImageFix" mode="normal" result="effect1_dropShadow"/><feBlend in="SourceGraphic" in2="effect1_dropShadow" mode="normal" result="shape"/></filter><filter id="h" color-interpolation-filters="sRGB" filterUnits="userSpaceOnUse" height="121.746" width="62.1119" x="883.527" y="474.782"><feFlood flood-opacity="0" result="BackgroundImageFix"/><feColorMatrix in="SourceAlpha" type="matrix" values="0 0 0 0 0 0 0 0 0 0 0 0 0 0 0 0 0 0 127 0"/><feOffset dx="2.75213" dy="-1.37607"/><feGaussianBlur stdDeviation="1.37607"/><feColorMatrix type="matrix" values="0 0 0 0 0 0 0 0 0 0 0 0 0 0 0 0 0 0 0.2 0"/><feBlend in2="BackgroundImageFix" mode="normal" result="effect1_dropShadow"/><feBlend in="SourceGraphic" in2="effect1_dropShadow" mode="normal" result="shape"/></filter><filter id="i" color-interpolation-filters="sRGB" filterUnits="userSpaceOnUse" height="17.3507" width="19.1374" x="882.707" y="506.33"><feFlood flood-opacity="0" result="BackgroundImageFix"/><feBlend in="SourceGraphic" in2="BackgroundImageFix" mode="normal" result="shape"/><feGaussianBlur result="effect1_foregroundBlur" stdDeviation="3.68277"/></filter><mask id="j" height="751" maskUnits="userSpaceOnUse" width="1194" x="0" y="-67"><path d="m0-67h1194v750.514h-1194z" fill="#fff"/></mask><mask id="k" height="79" maskUnits="userSpaceOnUse" width="89" x="854" y="472"><path d="m854.227 477.146h84.7926v73.6489h-84.7926z" fill="#89cdd3" transform="matrix(.99877092 -.04956466 .04956466 .99877092 -22.599664 42.925925)"/></mask><g mask="url(#j)"><g filter="url(#a)"><path d="m504.467 570.404 21.778 43.996h86.161l25.811-35.197 11.733-371.332-211.184 75.674z" fill="#f3e8cb"/><path d="m588.354 551.047 50.156-326.455-9.68 349.333z" fill="#c1dd9b"/><path d="m525.879 352.181-78.315-63.355 16.719 51.036z" fill="#e3e687"/><path d="m485.402 228.111-46.636 55.435 211.184-75.674-58.076-19.358z" fill="#91d7b9"/><path d="m543.48 417.295-36.078 28.158 19.359 44.876z" fill="#a2daaf"/></g><g filter="url(#b)"><path d="m981.763 607.649 22.037-64.034-162.954 8.364 3.22 62.737z" fill="#000"/><path d="m706.369 621.783-28.478-61.441 162.955-8.363 3.22 62.737z" fill="#000"/><path d="m840 567.544-16.686-325.095" stroke="#000" stroke-width="6.52677"/><g fill="#000"><path d="m849.964 528.638-14.72-286.8 152.417 279.733z"/><path d="m826.566 529.838-14.72-286.801-122.977 293.868z"/></g></g><g filter="url(#c)"><path d="m-39.5844 592.923 18.95 30.835 63.257-5.799 16.5812-27.578-16.3782-273.413-149.9536 69.772z" fill="#f3e8cb"/><path d="m20.6981 573.066 14.852-243.051 16.405 257.124z" fill="#e3e687"/><path d="m-76.619 342.901-30.508 43.839 149.9528-69.772-43.94067-10.304z" fill="#91d7b9"/></g><g filter="url(#d)"><path d="m1212.28 552.398-2.09 42.247-68.08 29.608-32.49-18.941-136.871-289.372 192.871-12.778z" fill="#f3e8cb"/><path d="m1139.34 565.931-151.812-240.709 127.692 272.695z" fill="#e3e687"/><path d="m1120.37 387.329 40.11-76.972 4.33 46.071z" fill="#a2daaf"/><path d="m1109.72 275.387 55.9 27.776-192.873 12.778 39.233-35.253z" fill="#91d7b9"/><path d="m1128.84 444.827 38.18 9.851.13 42.111z" fill="#e3e687"/></g><g filter="url(#e)"><path clip-rule="evenodd" d="m1149.32 568.468c-3.34 20.184-20.88 35.576-42.01 35.576-21.17 0-38.74-15.447-42.03-35.685h-1.11c-3.3 20.238-20.87 35.685-42.04 35.685s-38.729-15.447-42.028-35.685h-1.118c-3.299 20.238-20.862 35.685-42.032 35.685s-38.733-15.447-42.032-35.685h-1.113c-3.3 20.238-20.862 35.685-42.032 35.685-21.171 0-38.733-15.447-42.032-35.685h-1.114c-3.299 20.238-20.862 35.685-42.032 35.685s-38.733-15.447-42.032-35.685h-1.109c-3.299 20.238-20.862 35.685-42.032 35.685s-38.733-15.447-42.032-35.685h-1.118c-3.299 20.238-20.861 35.685-42.032 35.685-21.17 0-38.732-15.447-42.032-35.685h-1.113c-3.299 20.238-20.862 35.685-42.032 35.685s-38.733-15.447-42.032-35.685h-1.114c-3.299 20.238-20.861 35.685-42.032 35.685-21.17 0-38.732-15.447-42.032-35.685h-1.113c-3.299 20.238-20.862 35.685-42.032 35.685s-38.733-15.447-42.032-35.685h-1.114c-3.299 20.238-20.861 35.685-42.031 35.685-21.171 0-38.733-15.447-42.032-35.685h-1.114c-3.299 20.238-20.862 35.685-42.032 35.685s-38.733-15.447-42.032-35.685h-1.113c-3.3 20.238-20.862 35.685-42.0323 35.685s-38.7328-15.447-42.032-35.685h-1.1133c-3.2982 20.239-20.8612 35.687-42.03233896 35.687h-.00006104v79.846h1197.09v-80.234c-1.88.254-3.8.386-5.76.386-21.13 0-38.66-15.392-42.01-35.576z" fill="#89cdd3" fill-rule="evenodd"/></g><g filter="url(#f)"><g fill="#000"><path d="m204.848 521.567c-2.363-38.464 25.074-47.687 31.717-42.76z"/><path d="m204.849 521.569c37.301-9.044 38.294-37.88 31.716-42.759z"/><path d="m204.845 521.571 3.626 14.162-18.231-13.523z"/></g><circle cx="224.98" cy="487.556" fill="#fff" r="2.45715" transform="matrix(.80317634 .59574136 -.59574136 .80317634 334.738661 -38.067335)"/></g><g filter="url(#g)"><g fill="#000"><path d="m1061.08 533.413c16.25-34.943 44.77-29.978 48.26-22.481z"/><path d="m1061.08 533.411c37.11 9.822 51.72-15.057 48.26-22.481z"/><path d="m1061.08 533.41-3.56 14.179-9.58-20.575z"/></g><circle cx="1094.99" cy="513.097" fill="#fff" r="2.45715" transform="matrix(.42227973 .90646557 -.90646557 .42227973 1097.702689 -696.144197)"/></g></g><g mask="url(#k)"><g filter="url(#h)"><path clip-rule="evenodd" d="m912.606 534.183c-1.386-.656-3.042-.064-3.698 1.323-3.584 7.577-5.902 11.703-8.035 14.648-1.986 2.744-3.848 4.525-6.695 7.247-.181.173-.367.351-.557.533l3.841 4.012c.215-.205.425-.407.633-.605 2.78-2.656 4.986-4.764 7.278-7.93 2.443-3.375 4.938-7.88 8.556-15.53.656-1.387.064-3.042-1.323-3.698z" fill="#35675b" fill-rule="evenodd"/><path clip-rule="evenodd" d="m909.777 534.636c-.231-.11-.507-.011-.616.22-3.599 7.608-5.956 11.862-8.182 14.955-2.086 2.897-4.063 4.787-6.884 7.484-.187.179-.377.361-.572.547l.64.669c.199-.191.394-.377.585-.56 2.81-2.686 4.845-4.631 6.982-7.599 2.278-3.165 4.664-7.481 8.268-15.1.109-.231.01-.507-.221-.616z" fill="#407967" fill-rule="evenodd"/><path d="m937.942 564.482c-1.122-7.954-6.413-26.269-18.605-35.899-1.865.092-6.981 1.22-12.526 4.99 1.35 8.359-2.943 22.302-6.784 32.791 5.872 5.325 24.347 7.217 37.915-1.882z" fill="#539882"/><path d="m906.957 534.693c-.049 1.202-1.357 8.34-2.425 11.527l4.218.084 1.243-6.65z" fill="#539882"/><path d="m937.92 564.03c-1.112-7.855-6.362-25.942-18.468-35.449-1.235.061-.316-.139-.232 1.552 9.229 11.407 15.818 25.719 13.883 36.602 2.416-1.199 2.864-1.529 4.817-2.705z" fill="#468677"/><path d="m898.355 499.523c-2.844 3.765-3.958 6.423-4.898 7.268-.752.675-.651 1.227-.507 1.419-.231 1.283-.826 4.032-1.36 4.763 1.059.394 1.505.539 1.596.562l1.533-4.874z" fill="#ffc7a1"/><g filter="url(#i)"><path d="m890.276 514.494c-.112.442.691 1.028 1.795 1.31s2.091.152 2.203-.29c.113-.441-.691-1.028-1.795-1.309-1.104-.282-2.09-.152-2.203.289z" fill="#fca"/></g><path d="m915.968 517.279c7.956 6.821 10.298 2.469 12.185 2.312-4.202-2.35-9.875-2.52-12.185-2.312z" fill="#e1e1e1"/><path d="m904.069 547.933c.079 1.593 1.434 2.821 3.028 2.742 1.593-.079 2.821-1.435 2.741-3.028-.079-1.594-1.434-2.821-3.028-2.742-1.593.079-2.82 1.435-2.741 3.028z" fill="#539882"/><path d="m915.724 549.689c-1.358.735-3.663 1.117-4.959-.022.557 1.844 3.983 2.209 4.959.022z" fill="#468677"/><path clip-rule="evenodd" d="m910.808 549.723c-.053.074-.043.185.023.248.912.853 1.739 1.235 2.543 1.218.801-.016 1.55-.428 2.304-1.093.067-.059.079-.169.026-.246s-.15-.092-.217-.033c-.73.643-1.415 1.006-2.123 1.021-.705.014-1.462-.318-2.338-1.138-.066-.062-.164-.052-.218.023z" fill="#35675b" fill-rule="evenodd"/><path clip-rule="evenodd" d="m922.704 534.036c-1.547.071-2.725 1.371-2.631 2.905.486 7.916-.507 12.431-2.09 15.608-1.398 2.806-3.308 4.746-5.786 7.261-.413.42-.843.856-1.289 1.315l4.075 3.884c.388-.4.784-.8 1.182-1.202 2.466-2.491 5.045-5.097 6.86-8.74 2.156-4.328 3.173-9.898 2.651-18.382-.094-1.534-1.425-2.72-2.972-2.649z" fill="#35675b" fill-rule="evenodd"/><path d="m902.532 487.484c-2.041 4.735 1.634 10.87 8.207 13.703 6.574 2.833 13.557 1.29 15.597-3.445 2.041-4.735-1.634-10.87-8.207-13.703s-13.556-1.29-15.597 3.445z" fill="#c5c5c5"/><path d="m921.316 493.519c-1.328-1.308-6.579-4.677-14.638-4.622l3.572 5.919c2.838.041 9.025-.161 11.066-1.297z" fill="#539882"/><path d="m912.272 492.604c-16.026-14.63-31.394 7.509-22.977 19.323 10.677-8.321 19.766-16.349 22.977-19.323z" fill="#e1e1e1"/><path d="m888.558 527.587c.976-3.652-3.198-8.492 1.376-11.498l3.285 9.885c-.081.561-1.366 1.411-4.661 1.613z" fill="#ffc7a1"/><path d="m890.586 512.818c-.626 12.29 6.615 22.648 16.174 23.135s17.816-9.081 18.442-21.372c.626-12.29-6.615-22.648-16.174-23.135s-17.816 9.082-18.442 21.372z" fill="#ffc7a1"/><path d="m887.142 515.535c-.081 1.593.96 2.941 2.326 3.011 1.365.069 2.538-1.166 2.619-2.759.082-1.593-.96-2.941-2.325-3.011-1.366-.069-2.539 1.166-2.62 2.759z" fill="#fff"/><path d="m887.997 515.848c-.023.455.327.843.782.866.456.023.843-.327.867-.782.023-.456-.328-.843-.783-.867-.455-.023-.843.327-.866.783z" fill="#000"/><path clip-rule="evenodd" d="m886.377 518.857c-.445-.896-.739-2.242-.659-3.809.08-1.566.509-2.876 1.043-3.722.571-.905 1.004-.939 1.054-.937.049.003.476.081.953 1.039.445.896.739 2.242.659 3.809s-.509 2.877-1.043 3.723c-.572.904-1.004.939-1.054.936-.049-.002-.476-.08-.953-1.039zm.859 2.879c-2.048-.104-3.558-3.141-3.372-6.782.185-3.642 1.996-6.509 4.044-6.405 2.049.105 3.559 3.141 3.373 6.783-.185 3.641-1.996 6.509-4.045 6.404z" fill="#91d7b9" fill-rule="evenodd"/><path d="m887.96 521.156c2.623-2.549 2.107-7.545 5.528-14.998l1.157 18.004c-1.028-.393-3.805-1.543-6.685-3.006z" fill="#ffc7a1"/><path d="m920.701 521.786c-.092 1.821 1.493 3.381 3.541 3.486 2.049.104 3.784-1.287 3.877-3.108s-1.492-3.381-3.541-3.486c-2.048-.104-3.784 1.287-3.877 3.108z" fill="#ffc7a1"/><path d="m889.17 534.605c-2.787-2.657-.108-7.784.596-11.692 5.819 1.686 20.995 6.412 27.259 9.231-6.065 5.303-22.776 7.301-27.855 2.461z" fill="#ffc7a1"/><path d="m891.123 525.602c1.442 1.307 2.542 2.63 4.827.106" stroke="#ff8281" stroke-linecap="round" stroke-width=".688034"/><path clip-rule="evenodd" d="m891.57 513.407c.248-.914.505-1.867.782-2.838l-.631-.174c-.283.992-.542 1.952-.79 2.868-.369 1.365-.711 2.63-1.062 3.751-.292.932-.586 1.75-.9 2.425-.315.678-.642 1.193-.99 1.535l-.304.298 2.608 1.445.322-.558-1.881-1.042c.31-.384.587-.863.842-1.412.33-.711.634-1.558.929-2.502.354-1.129.703-2.418 1.075-3.796z" fill="#ffb685" fill-rule="evenodd"/><path clip-rule="evenodd" d="m891.522 518.359c.727.205 1.63.558 2.909 1.264l.851-1.691c-1.374-.758-2.401-1.168-3.28-1.417-.683-.193-1.275-.285-1.804-.368-.14-.022-.275-.043-.406-.066l-.297 1.885c.165.028.322.053.474.077.514.081.98.154 1.553.316z" fill="#91d7b9" fill-rule="evenodd"/><path d="m899.214 523.362c-.07 1.364 1.007 2.526 2.405 2.598 1.398.071 2.588-.976 2.658-2.34.069-1.363-1.008-2.525-2.406-2.597-1.398-.071-2.588.976-2.657 2.339z" fill="#fca7a7"/><path clip-rule="evenodd" d="m901.543 524.794c-2.902-.148-5.464-2.969-5.273-6.729.192-3.76 3.028-6.306 5.93-6.158 2.901.148 5.464 2.969 5.272 6.729-.191 3.759-3.027 6.306-5.929 6.158zm-.092 1.798c-4.096-.208-7.229-4.068-6.997-8.62.231-4.551 3.741-8.072 7.837-7.864 4.097.209 7.23 4.068 6.998 8.62s-3.741 8.073-7.838 7.864z" fill="#91d7b9" fill-rule="evenodd"/><path d="m897.793 517.316c-.093 1.821 1.308 3.372 3.129 3.465s3.372-1.308 3.465-3.129c.092-1.821-1.308-3.372-3.129-3.464-1.821-.093-3.372 1.308-3.465 3.128z" fill="#fff"/><path d="m924.39 518.534c-1.91.977-12.285 3.825-23.431-14.7.504-2.788 3.433-8.972 11.121-11.404 14.075 3.633 14.058 25.272 12.31 26.104z" fill="#e1e1e1"/><path d="m889.929 509.482c3.935-.277 5.882-4.637 11.422-5.629.943-3.137 2.718-7.793 10.946-11.706-5.353-2.661-21.591 2.087-22.368 17.335z" fill="#e1e1e1"/><path d="m924.737 517.862c16.39-13.834-.96-30.932-13.252-25.999 6.211 12.423 11.531 22.463 13.252 25.999z" fill="#e1e1e1"/><path d="m922.162 525.581c-.035.683.49 1.265 1.173 1.299.683.035 1.264-.49 1.299-1.173s-.49-1.264-1.173-1.299-1.265.49-1.299 1.173z" fill="#539882"/><path d="m929.006 504.719c-.066-2.404-.568-3.629-3.707-8.314.967 2.342.966 4.575.626 6.321-.181.928.47 2.757 1.36 2.867.58.072 1.737-.257 1.721-.874z" fill="#c4c4c4"/><path clip-rule="evenodd" d="m901.811 503.19c-.027-.34-.329-.595-.675-.568-1.044.08-2.093.531-3.093 1.101-.934.531-1.882 1.2-2.796 1.845-.069.049-.138.097-.206.145-.991.699-1.939 1.356-2.846 1.83-.913.477-1.71.728-2.403.693-.346-.018-.64.245-.658.586-.017.341.249.633.595.65 1.028.053 2.067-.319 3.053-.835.993-.518 2.007-1.224 2.988-1.916.065-.045.129-.091.193-.136.928-.654 1.828-1.289 2.707-1.79.944-.537 1.799-.88 2.566-.939.345-.027.602-.325.575-.666z" fill="#c4c4c4" fill-rule="evenodd"/><path d="m891.759 493.909c1.329-1.478 3.898-3.539 7.462-4.614-1.983 1.093-3.351 2.796-4.574 5.487-.308.678-1.134.968-1.917.742-.931-.269-1.579-.939-.971-1.615z" fill="#f0f0f0"/><g clip-rule="evenodd" fill-rule="evenodd"><path d="m920.071 486.378c-.095.146-.063.347.071.449l.01.007c1.155.876 4.039 3.064 4.702 6.827.031.175.186.288.347.253s.266-.205.235-.38c-.709-4.02-3.761-6.334-4.921-7.214-.011-.008-.021-.016-.031-.024-.134-.102-.319-.065-.413.082z" fill="#a8a8a8"/><path d="m907.73 484.159c-.041-.168-.197-.266-.349-.218-1.367.43-2.911 1.515-3.903 3.456-.078.153-.031.346.106.432.136.085.31.031.388-.122.908-1.777 2.319-2.765 3.558-3.156.152-.048.241-.223.2-.392z" fill="#e1e1e1"/><path d="m898.704 505.958c-.163.3-.052.674.248.837l6.142 3.328c.3.162.674.051.837-.249.162-.299.051-.674-.249-.836l-6.142-3.329c-.299-.162-.674-.051-.836.249z" fill="#969696"/><path d="m887.776 508.277c.137.312.501.454.813.317l4.854-2.125c.312-.137.455-.501.318-.813s-.501-.455-.813-.318l-4.854 2.126c-.313.136-.455.5-.318.813z" fill="#969696"/><path d="m927.504 517.921c-.029-.456-.464-.809-.971-.789l-18.027.737.104 1.651 18.027-.736c.508-.021.896-.407.867-.863z" fill="#91d7b9"/><path d="m905.14 506.317c-.252.24-.269.646-.035.905 3.253 3.621 5.599 5.87 7.851 7.389 2.267 1.529 4.409 2.298 7.215 3.009.334.085.672-.125.755-.469.083-.343-.12-.69-.454-.775-2.735-.693-4.727-1.418-6.831-2.837-2.119-1.43-4.382-3.584-7.62-7.188-.233-.259-.628-.275-.881-.034z" fill="#c4c4c4"/></g><path d="m902.751 501.041c.704-1.888 3.553-6.489 9.281-9.147.622-.289 2.33-1.004 4.452-.896-4.309 1.063-9.506 4.646-13.733 10.043z" fill="#c4c4c4"/><path clip-rule="evenodd" d="m924.07 520.565c-.018.151.095.288.253.305.843.094 1.233.413 1.412.724.189.327.178.702.107.945-.044.146.045.298.197.34.153.042.311-.042.354-.188.102-.345.123-.877-.156-1.362-.289-.5-.867-.896-1.851-1.005-.157-.018-.299.09-.316.241z" fill="#ffb685" fill-rule="evenodd"/><circle fill="#000" r="1.18547" transform="matrix(-.96927 .246 .246 .96927 901.201 517.589)"/></g></g></svg>