<svg fill="none" height="684" viewBox="0 0 1194 684" width="1194" xmlns="http://www.w3.org/2000/svg" xmlns:xlink="http://www.w3.org/1999/xlink"><filter id="a" color-interpolation-filters="sRGB" filterUnits="userSpaceOnUse" height="481.137" width="266.434" x="349.558" y="152.166"><feFlood flood-opacity="0" result="BackgroundImageFix"/><feColorMatrix in="SourceAlpha" type="matrix" values="0 0 0 0 0 0 0 0 0 0 0 0 0 0 0 0 0 0 127 0"/><feOffset dx="18.4168" dy="-9.20839"/><feGaussianBlur stdDeviation="13.8126"/><feColorMatrix type="matrix" values="0 0 0 0 0 0 0 0 0 0 0 0 0 0 0 0 0 0 0.1 0"/><feBlend in2="BackgroundImageFix" mode="normal" result="effect1_dropShadow"/><feBlend in="SourceGraphic" in2="effect1_dropShadow" mode="normal" result="shape"/></filter><filter id="b" color-interpolation-filters="sRGB" filterUnits="userSpaceOnUse" height="377.584" width="250.306" x="-93.244" y="271.106"><feFlood flood-opacity="0" result="BackgroundImageFix"/><feColorMatrix in="SourceAlpha" type="matrix" values="0 0 0 0 0 0 0 0 0 0 0 0 0 0 0 0 0 0 127 0"/><feOffset dx="13.5779" dy="-6.78893"/><feGaussianBlur stdDeviation="10.1834"/><feColorMatrix type="matrix" values="0 0 0 0 0 0 0 0 0 0 0 0 0 0 0 0 0 0 0.1 0"/><feBlend in2="BackgroundImageFix" mode="normal" result="effect1_dropShadow"/><feBlend in="SourceGraphic" in2="effect1_dropShadow" mode="normal" result="shape"/></filter><filter id="c" color-interpolation-filters="sRGB" filterUnits="userSpaceOnUse" height="448.046" width="314.234" x="741.454" y="201.144"><feFlood flood-opacity="0" result="BackgroundImageFix"/><feColorMatrix in="SourceAlpha" type="matrix" values="0 0 0 0 0 0 0 0 0 0 0 0 0 0 0 0 0 0 127 0"/><feOffset dx="15.8684" dy="-7.93422"/><feGaussianBlur stdDeviation="11.9013"/><feColorMatrix type="matrix" values="0 0 0 0 0 0 0 0 0 0 0 0 0 0 0 0 0 0 0.1 0"/><feBlend in2="BackgroundImageFix" mode="normal" result="effect1_dropShadow"/><feBlend in="SourceGraphic" in2="effect1_dropShadow" mode="normal" result="shape"/></filter><filter id="d" color-interpolation-filters="sRGB" filterUnits="userSpaceOnUse" height="124.741" width="1224.72" x="0" y="564.242"><feFlood flood-opacity="0" result="BackgroundImageFix"/><feColorMatrix in="SourceAlpha" type="matrix" values="0 0 0 0 0 0 0 0 0 0 0 0 0 0 0 0 0 0 127 0"/><feOffset dx="23.021"/><feGaussianBlur stdDeviation="2.3021"/><feColorMatrix type="matrix" values="0 0 0 0 0.4125 0 0 0 0 0.4125 0 0 0 0 0.4125 0 0 0 0.1 0"/><feBlend in2="BackgroundImageFix" mode="normal" result="effect1_dropShadow"/><feBlend in="SourceGraphic" in2="effect1_dropShadow" mode="normal" result="shape"/></filter><filter id="e" color-interpolation-filters="sRGB" filterUnits="userSpaceOnUse" height="59.0332" width="77.8693" x="155.476" y="493.123"><feFlood flood-opacity="0" result="BackgroundImageFix"/><feColorMatrix in="SourceAlpha" type="matrix" values="0 0 0 0 0 0 0 0 0 0 0 0 0 0 0 0 0 0 127 0"/><feOffset dx="9.20839" dy="-4.60419"/><feGaussianBlur stdDeviation="1.15105"/><feColorMatrix type="matrix" values="0 0 0 0 0 0 0 0 0 0 0 0 0 0 0 0 0 0 0.1 0"/><feBlend in2="BackgroundImageFix" mode="normal" result="effect1_dropShadow"/><feBlend in="SourceGraphic" in2="effect1_dropShadow" mode="normal" result="shape"/></filter><filter id="f" color-interpolation-filters="sRGB" filterUnits="userSpaceOnUse" height="66.5052" width="74.4722" x="736.472" y="506.871"><feFlood flood-opacity="0" result="BackgroundImageFix"/><feColorMatrix in="SourceAlpha" type="matrix" values="0 0 0 0 0 0 0 0 0 0 0 0 0 0 0 0 0 0 127 0"/><feOffset dx="9.20839" dy="-4.60419"/><feGaussianBlur stdDeviation="1.15105"/><feColorMatrix type="matrix" values="0 0 0 0 0 0 0 0 0 0 0 0 0 0 0 0 0 0 0.1 0"/><feBlend in2="BackgroundImageFix" mode="normal" result="effect1_dropShadow"/><feBlend in="SourceGraphic" in2="effect1_dropShadow" mode="normal" result="shape"/></filter><mask id="g" height="752" maskUnits="userSpaceOnUse" width="1194" x="0" y="-67"><path d="m0-66.5137h1194v750.514h-1194z" fill="#fff"/></mask><g mask="url(#g)"><g filter="url(#a)"><path d="m424.468 570.89 21.778 43.997h86.161l25.811-35.198 11.733-371.332-211.184 75.675z" fill="#f3e8cb"/><path d="m508.354 551.533 50.156-326.455-9.68 349.333z" fill="#c1dd9b"/><path d="m445.88 352.668-78.315-63.356 16.719 51.037z" fill="#e3e687"/><path d="m405.403 228.597-46.636 55.436 211.184-75.674-58.076-19.359z" fill="#91d7b9"/><path d="m463.481 417.781-36.078 28.158 19.359 44.877z" fill="#a2daaf"/></g><path d="m625.693 627.214 23.701-45.409-122.821-12.114-4.664 47.287z" fill="#000"/><path d="m418.126 606.742-14.374-49.164 122.821 12.113-4.664 47.287z" fill="#000"/><path d="m524.186 581.237 24.167-245.028" stroke="#000" stroke-width="4.93669"/><path d="m536.024 553.261 21.32-216.165 82.464 226.401z" fill="#000"/><path d="m518.388 551.521 21.32-216.166-125.104 205.93z" fill="#000"/><g filter="url(#b)"><path d="m11.7777 594.501 21.6221 29.025 62.4888-11.413 14.0584-28.946-40.6754-270.866-143.1399 82.856z" fill="#f3e8cb"/><path d="m70.0515 569.353-6.8637-243.408 39.2502 254.639z" fill="#e3e687"/><path d="m-47.3868 348.775-26.4809 46.383 143.1399-82.856-44.684-6.347z" fill="#91d7b9"/><path d="m19.7894 478.292-22.43578 25.2 19.98398 29.983z" fill="#e3e687"/></g><g filter="url(#c)"><path d="m880.214 582.653-27.512 32.129-71.958-18.26-14.097-34.866 68.898-312.608 160.334 107.957z" fill="#f3e8cb"/><path d="m814.253 548.707 27.297-283.272-65.95 293.8z" fill="#e3e687"/><path d="m908.58 395.863 78.831-36.314-24.779 39.08z" fill="#a2daaf"/><path d="m968.677 300.823 27.2 56.181-160.334-107.956 52.605-3.86z" fill="#91d7b9"/><path d="m880.083 446.516 24.162 31.162-25.678 33.377z" fill="#e3e687"/></g><g filter="url(#d)"><path clip-rule="evenodd" d="m1149.32 568.955c-3.34 20.184-20.88 35.575-42.01 35.575-21.17 0-38.74-15.447-42.03-35.684h-1.11c-3.3 20.237-20.87 35.684-42.04 35.684s-38.729-15.447-42.028-35.684h-1.118c-3.299 20.237-20.862 35.684-42.032 35.684s-38.733-15.447-42.032-35.684h-1.113c-3.3 20.237-20.862 35.684-42.032 35.684-21.171 0-38.733-15.447-42.032-35.684h-1.114c-3.299 20.237-20.862 35.684-42.032 35.684s-38.733-15.447-42.032-35.684h-1.109c-3.299 20.237-20.862 35.684-42.032 35.684s-38.733-15.447-42.032-35.684h-1.118c-3.299 20.237-20.861 35.684-42.032 35.684-21.17 0-38.732-15.447-42.032-35.684h-1.113c-3.299 20.237-20.862 35.684-42.032 35.684s-38.733-15.447-42.032-35.684h-1.114c-3.299 20.237-20.861 35.684-42.032 35.684-21.17 0-38.732-15.447-42.032-35.684h-1.113c-3.299 20.237-20.862 35.684-42.032 35.684s-38.733-15.447-42.032-35.684h-1.114c-3.299 20.237-20.861 35.684-42.031 35.684-21.171 0-38.733-15.447-42.032-35.684h-1.114c-3.299 20.237-20.862 35.684-42.032 35.684s-38.733-15.447-42.032-35.684h-1.113c-3.3 20.237-20.862 35.684-42.0323 35.684s-38.7328-15.447-42.032-35.684h-1.1133c-3.2982 20.239-20.8612 35.686-42.03233896 35.686h-.00006104v79.846h1197.09v-80.234c-1.88.255-3.8.386-5.76.386-21.13 0-38.66-15.391-42.01-35.575z" fill="#89cdd3" fill-rule="evenodd"/></g><g filter="url(#e)"><g fill="#000"><path d="m169.114 514.459c37.914-6.9 50.32 19.251 46.214 26.43z"/><path d="m169.112 514.461c13.397 35.968 42.148 33.54 46.214 26.43z"/><path d="m169.108 514.456-13.632 5.277 11.268-19.703z"/></g><circle cx="205.268" cy="530.423" fill="#fff" r="2.45715" transform="matrix(-.49644378 .86806888 -.86806888 -.49644378 767.615719 615.561437)"/></g><g filter="url(#f)"><g fill="#000"><path d="m785.022 558.774c-5.758-38.104-34.519-41.366-39.98-35.155z"/><path d="m785.022 558.773c-38.369-1.018-45.389-29.005-39.981-35.155z"/><path d="m785.019 558.769-.574 14.607 14.988-17.045z"/></g><circle fill="#fff" r="2.45715" transform="matrix(-.660334 .750972 .750972 .660334 758.203 529.735)"/></g></g></svg>