<svg width="166" height="166" viewBox="0 0 166 166" fill="none" xmlns="http://www.w3.org/2000/svg">
<g filter="url(#filter0_d)">
<g filter="url(#filter1_d)">
<path d="M17.136 77.0922C18.8469 55.1758 29.1159 34.5347 50.8665 32.1436C72.6194 29.7523 86.1481 58.0113 108.031 58.0069C109.806 58.0066 122.247 57.4843 129.867 61.5743C142.917 68.5785 146.507 80.2983 147.797 95.1073C150.976 131.578 116.223 140.32 80.6914 132.208C48.7199 124.908 14.5723 109.933 17.136 77.0922Z" fill="#D7D4D2"/>
</g>
<g filter="url(#filter2_i)">
<path fill-rule="evenodd" clip-rule="evenodd" d="M43.247 67.8295C50.2506 57.4011 60.089 51.0047 72.7939 53.5637C78.1887 54.6503 82.8671 56.7117 86.4868 59.9784C90.1195 63.2568 92.6065 67.6786 93.718 73.3371C94.3539 76.5747 94.5719 79.6196 94.3149 82.417C94.3135 82.4365 94.3117 82.4558 94.3095 82.4751C94.1226 84.4562 93.6967 86.3127 93.0113 88.0252C92.3849 89.5903 91.5492 91.0163 90.5029 92.2933C92.6062 93.7911 96.2383 96.5386 100.356 99.7266C103.053 101.815 104.034 104.23 103.999 106.471C103.966 108.628 102.997 110.454 102.1 111.507C102.07 111.542 102.039 111.575 102.006 111.607C100.42 113.124 96.3349 116.146 92.1799 118.033C84.9331 121.325 77.7347 122.621 70.8168 121.722C63.8926 120.823 57.3396 117.737 51.3761 112.41C38.3435 100.768 33.2872 82.6596 43.247 67.8295ZM88.5974 94.2529C87.1581 95.5053 85.4505 96.5613 83.473 97.4066C82.6715 97.7493 81.8398 98.0296 80.9874 98.2503C80.9741 98.2539 80.9606 98.2574 80.9471 98.2607C79.3864 98.661 77.7571 98.8617 76.1181 98.8789C76.3627 99.0054 76.3627 99.0053 76.3628 99.0052L76.3618 99.0071L76.356 99.0184C76.3505 99.0292 76.3418 99.0464 76.3301 99.0697C76.3067 99.1162 76.2714 99.1871 76.2262 99.2802C76.1358 99.4663 76.0058 99.7404 75.8517 100.085C75.5428 100.774 75.1403 101.737 74.765 102.832C73.9902 105.09 73.4273 107.641 73.7888 109.509C74.2025 111.646 76.0469 113.999 78.0262 115.941C78.9838 116.881 79.9149 117.67 80.6072 118.224C80.8585 118.425 81.0773 118.594 81.2533 118.727C84.4674 118.135 87.744 117.082 91.0634 115.574C94.8876 113.838 98.6731 111.038 100.087 109.705C100.658 109.012 101.278 107.797 101.299 106.43C101.319 105.113 100.789 103.477 98.703 101.862C94.3203 98.4687 90.5537 95.6263 88.5974 94.2529ZM77.5778 119.207C77.1214 118.806 76.6322 118.357 76.1348 117.869C74.1202 115.891 71.7213 113.036 71.1378 110.022C70.6312 107.405 71.4184 104.266 72.2108 101.955C72.6191 100.765 73.0544 99.724 73.3874 98.9805C73.4231 98.9008 73.4577 98.8244 73.491 98.7516C71.1355 98.4998 68.8256 97.8836 66.7385 96.9513C65.6885 96.4823 64.6806 95.9255 63.7432 95.2851C63.589 95.2002 63.4517 95.1014 63.3294 94.9936C62.6052 94.4677 61.9277 93.8899 61.311 93.2624C60.2281 94.2961 59.1327 95.4876 58.1041 96.64C57.3994 97.4295 56.7035 98.6465 56.1447 100.046C55.5899 101.436 55.2075 102.913 55.0754 104.168C54.8102 106.687 54.7189 109.135 54.7189 111.694C54.7189 111.7 54.7188 111.705 54.7188 111.711C59.8856 115.9 65.4146 118.298 71.1645 119.045C73.265 119.317 75.4049 119.371 77.5778 119.207ZM52.0463 109.351C52.0913 107.535 52.1955 105.733 52.39 103.886C52.5523 102.344 53.0062 100.625 53.637 99.0451C54.2637 97.475 55.1027 95.9475 56.0896 94.8418C57.1696 93.6318 58.3814 92.3116 59.6073 91.1568C58.3391 89.2159 57.6066 86.9376 57.6766 84.3623C57.726 82.5458 58.0438 80.7083 58.6051 78.9646C57.2175 78.9032 55.8474 78.7799 54.5124 78.6597C54.3195 78.6423 54.1272 78.625 53.9358 78.608C51.8547 78.4228 49.8499 78.2665 47.8382 78.3459C46.3428 78.4048 44.4457 78.7313 43.3472 79.2719C42.4034 79.7364 41.9893 80.2536 41.3852 81.1826C41.2568 81.38 41.0856 81.5328 40.8917 81.6366C39.7494 91.4924 44.0271 101.651 52.0463 109.351ZM41.8417 77.0118C41.9423 76.9566 42.0467 76.9023 42.155 76.849C43.7493 76.0644 46.0859 75.7125 47.7318 75.6475C49.9353 75.5607 52.0957 75.7331 54.1751 75.9182C54.3649 75.9351 54.5539 75.9521 54.7422 75.969C56.429 76.1206 58.06 76.2671 59.6941 76.298C60.2041 75.2843 60.8051 74.3317 61.4909 73.4687C61.6449 73.2749 61.8035 73.0853 61.9666 72.9004C61.9517 72.8145 61.9349 72.7206 61.9161 72.6194C61.8137 72.0682 61.6542 71.3089 61.4264 70.4767C60.9532 68.7488 60.2478 66.9484 59.3147 65.9255C58.315 64.8295 56.4379 63.9526 54.6065 63.3394C53.725 63.0442 52.9144 62.8294 52.3242 62.6886C52.0298 62.6183 51.7922 62.5669 51.6303 62.5335C51.5494 62.5168 51.4875 62.5046 51.4471 62.4968C51.4269 62.4929 51.4121 62.4901 51.4029 62.4884L51.3934 62.4866L51.3923 62.4864C51.3924 62.4865 51.3925 62.4865 51.4287 62.2866C49.2795 64.2642 47.3005 66.6371 45.4885 69.3351C43.8313 71.8027 42.6269 74.38 41.8417 77.0118ZM53.8416 60.2889C54.3295 60.4211 54.8814 60.5837 55.4638 60.7787C57.3471 61.4092 59.8096 62.4611 61.3096 64.1056C62.7056 65.636 63.5431 67.9827 64.0307 69.7635C64.1311 70.1303 64.2194 70.4833 64.2963 70.8136C66.3188 69.4147 68.7607 68.6639 71.522 68.9767C72.8353 69.1254 74.121 69.3828 75.3174 69.802C75.4722 69.6958 75.6244 69.6036 75.7463 69.5298L75.747 69.5294C75.8431 69.4712 75.9392 69.4139 76.0369 69.3556C76.2659 69.219 76.5033 69.0774 76.7693 68.9076C77.5067 68.4369 78.3204 67.836 79.0207 67.0128C80.2738 65.54 81.338 63.1561 80.4197 59.0227C78.0354 57.7543 75.3039 56.8239 72.2608 56.211C65.1894 54.7867 59.0631 56.4285 53.8416 60.2889ZM83.4292 60.9462C83.6782 64.4805 82.5883 66.9867 81.0772 68.7628C80.1327 69.873 79.0713 70.6418 78.2221 71.1838C78.1896 71.2046 78.1571 71.2252 78.1248 71.2455C79.5239 72.2669 80.647 73.692 81.326 75.6656C81.8486 77.1844 82.1642 78.9123 82.1193 80.6158C82.4323 80.7552 82.96 80.9089 83.7259 81.0351C84.6588 81.1888 85.781 81.2772 86.9444 81.3105C88.7166 81.3612 90.4787 81.2817 91.6958 81.1461C91.796 78.9345 91.5876 76.5012 91.0684 73.8576C90.0582 68.7144 87.8359 64.8333 84.6778 61.9832C84.2778 61.6222 83.8615 61.2766 83.4292 60.9462ZM91.3929 83.8892C90.072 84.0049 88.4444 84.055 86.8672 84.0098C85.631 83.9745 84.3793 83.8796 83.287 83.6996C82.7538 83.6117 82.2085 83.4963 81.7015 83.3365C81.5852 83.7239 81.4432 84.1025 81.2733 84.469C80.6299 85.8571 79.5883 87.0584 78.0734 87.8547C77.297 88.2628 76.4202 88.5522 75.4426 88.7149C75.5773 89.8014 76.1717 91.4444 77.1437 92.9188C77.6853 93.7402 78.2971 94.4347 78.9245 94.9117C79.4901 95.3417 80.0114 95.5537 80.4773 95.5916C81.1429 95.4116 81.79 95.1893 82.4117 94.9236C86.5059 93.1733 89.1199 90.4811 90.5044 87.0218C90.8941 86.048 91.1904 85.0032 91.3929 83.8892ZM76.2965 96.1751C75.7719 95.6349 75.3009 95.0294 74.8894 94.4052C73.7396 92.6612 72.9038 90.5344 72.7416 88.8506C72.6397 88.8455 72.537 88.8394 72.4334 88.8321C70.0657 88.6669 68.3494 87.8235 67.2408 86.4972C65.9428 86.9157 65.1985 88.1968 64.915 90.0594C64.8517 90.4754 64.8 91.2864 64.881 92.0216C64.9216 92.3896 64.9886 92.6711 65.0641 92.8539C65.0835 92.9009 65.0998 92.9329 65.1115 92.9534C65.1188 92.9585 65.1261 92.9635 65.1333 92.9686C65.1762 92.9948 65.2171 93.023 65.256 93.0532C66.0458 93.5918 66.9119 94.0712 67.8398 94.4857C70.4378 95.6463 73.4075 96.2371 76.2965 96.1751ZM62.1874 90.1391C62.2042 89.9577 62.2242 89.7937 62.2456 89.6531C62.5658 87.5483 63.553 85.0619 66.0059 84.071C65.7015 82.9382 65.6756 81.7605 65.7812 80.6988C65.855 79.9567 66.5163 79.415 67.2583 79.4888C68.0003 79.5625 68.5419 80.2239 68.4682 80.9659C68.3344 82.3111 68.504 83.5429 69.0697 84.4325C69.5883 85.2482 70.5797 85.9958 72.6213 86.1383C74.5097 86.27 75.8611 85.9669 76.8171 85.4644C77.7609 84.9683 78.4065 84.2329 78.8235 83.3333C79.6858 81.4732 79.5733 78.8708 78.7727 76.5442C77.6981 73.4207 75.0543 72.0943 71.2182 71.6599C68.1519 71.3127 65.5401 72.7134 63.6049 75.1488C61.6519 77.6065 60.468 81.0429 60.3758 84.4357C60.318 86.5639 60.9838 88.4886 62.1874 90.1391Z" fill="#A6A6A6"/>
</g>
</g>
<defs>
<filter id="filter0_d" x="-4" y="0" width="174" height="174" filterUnits="userSpaceOnUse" color-interpolation-filters="sRGB">
<feFlood flood-opacity="0" result="BackgroundImageFix"/>
<feColorMatrix in="SourceAlpha" type="matrix" values="0 0 0 0 0 0 0 0 0 0 0 0 0 0 0 0 0 0 127 0"/>
<feOffset dy="4"/>
<feGaussianBlur stdDeviation="2"/>
<feColorMatrix type="matrix" values="0 0 0 0 0 0 0 0 0 0 0 0 0 0 0 0 0 0 0.25 0"/>
<feBlend mode="normal" in2="BackgroundImageFix" result="effect1_dropShadow"/>
<feBlend mode="normal" in="SourceGraphic" in2="effect1_dropShadow" result="shape"/>
</filter>
<filter id="filter1_d" x="13" y="32" width="139" height="111" filterUnits="userSpaceOnUse" color-interpolation-filters="sRGB">
<feFlood flood-opacity="0" result="BackgroundImageFix"/>
<feColorMatrix in="SourceAlpha" type="matrix" values="0 0 0 0 0 0 0 0 0 0 0 0 0 0 0 0 0 0 127 0"/>
<feOffset dy="4"/>
<feGaussianBlur stdDeviation="2"/>
<feColorMatrix type="matrix" values="0 0 0 0 0 0 0 0 0 0 0 0 0 0 0 0 0 0 0.25 0"/>
<feBlend mode="normal" in2="BackgroundImageFix" result="effect1_dropShadow"/>
<feBlend mode="normal" in="SourceGraphic" in2="effect1_dropShadow" result="shape"/>
</filter>
<filter id="filter2_i" x="38" y="53" width="67" height="70" filterUnits="userSpaceOnUse" color-interpolation-filters="sRGB">
<feFlood flood-opacity="0" result="BackgroundImageFix"/>
<feBlend mode="normal" in="SourceGraphic" in2="BackgroundImageFix" result="shape"/>
<feColorMatrix in="SourceAlpha" type="matrix" values="0 0 0 0 0 0 0 0 0 0 0 0 0 0 0 0 0 0 127 0" result="hardAlpha"/>
<feOffset dx="2" dy="2"/>
<feGaussianBlur stdDeviation="0.5"/>
<feComposite in2="hardAlpha" operator="arithmetic" k2="-1" k3="1"/>
<feColorMatrix type="matrix" values="0 0 0 0 0 0 0 0 0 0 0 0 0 0 0 0 0 0 0.09 0"/>
<feBlend mode="normal" in2="shape" result="effect1_innerShadow"/>
</filter>
</defs>
</svg>
