<svg fill="none" height="176" viewBox="0 0 280 176" width="280" xmlns="http://www.w3.org/2000/svg" xmlns:xlink="http://www.w3.org/1999/xlink"><filter id="a" color-interpolation-filters="sRGB" filterUnits="userSpaceOnUse" height="112.829" width="62.4804" x="117.149" y="18.3623"><feFlood flood-opacity="0" result="BackgroundImageFix"/><feColorMatrix in="SourceAlpha" type="matrix" values="0 0 0 0 0 0 0 0 0 0 0 0 0 0 0 0 0 0 127 0"/><feOffset dx="4.31884" dy="-2.15942"/><feGaussianBlur stdDeviation="3.23913"/><feColorMatrix type="matrix" values="0 0 0 0 0 0 0 0 0 0 0 0 0 0 0 0 0 0 0.1 0"/><feBlend in2="BackgroundImageFix" mode="normal" result="effect1_dropShadow"/><feBlend in="SourceGraphic" in2="effect1_dropShadow" mode="normal" result="shape"/></filter><filter id="b" color-interpolation-filters="sRGB" filterUnits="userSpaceOnUse" height="81.5946" width="50.0662" x="65.8733" y="52.3154"><feFlood flood-opacity="0" result="BackgroundImageFix"/><feColorMatrix in="SourceAlpha" type="matrix" values="0 0 0 0 0 0 0 0 0 0 0 0 0 0 0 0 0 0 127 0"/><feOffset dx="3.18409" dy="-1.59204"/><feGaussianBlur stdDeviation="2.38806"/><feColorMatrix type="matrix" values="0 0 0 0 0 0 0 0 0 0 0 0 0 0 0 0 0 0 0.1 0"/><feBlend in2="BackgroundImageFix" mode="normal" result="effect1_dropShadow"/><feBlend in="SourceGraphic" in2="effect1_dropShadow" mode="normal" result="shape"/></filter><filter id="c" color-interpolation-filters="sRGB" filterUnits="userSpaceOnUse" height="95.3604" width="58.5121" x="190.824" y="37.7235"><feFlood flood-opacity="0" result="BackgroundImageFix"/><feColorMatrix in="SourceAlpha" type="matrix" values="0 0 0 0 0 0 0 0 0 0 0 0 0 0 0 0 0 0 127 0"/><feOffset dx="3.72124" dy="-1.86062"/><feGaussianBlur stdDeviation="2.79093"/><feColorMatrix type="matrix" values="0 0 0 0 0 0 0 0 0 0 0 0 0 0 0 0 0 0 0.1 0"/><feBlend in2="BackgroundImageFix" mode="normal" result="effect1_dropShadow"/><feBlend in="SourceGraphic" in2="effect1_dropShadow" mode="normal" result="shape"/></filter><filter id="d" color-interpolation-filters="sRGB" filterUnits="userSpaceOnUse" height="62.0833" width="287.203" x="0" y="114.996"><feFlood flood-opacity="0" result="BackgroundImageFix"/><feColorMatrix in="SourceAlpha" type="matrix" values="0 0 0 0 0 0 0 0 0 0 0 0 0 0 0 0 0 0 127 0"/><feOffset dx="5.39855"/><feGaussianBlur stdDeviation=".539855"/><feColorMatrix type="matrix" values="0 0 0 0 0.4125 0 0 0 0 0.4125 0 0 0 0 0.4125 0 0 0 0.1 0"/><feBlend in2="BackgroundImageFix" mode="normal" result="effect1_dropShadow"/><feBlend in="SourceGraphic" in2="effect1_dropShadow" mode="normal" result="shape"/></filter><filter id="e" color-interpolation-filters="sRGB" filterUnits="userSpaceOnUse" height="12.2095" width="16.9107" x="36.4595" y="98.3179"><feFlood flood-opacity="0" result="BackgroundImageFix"/><feColorMatrix in="SourceAlpha" type="matrix" values="0 0 0 0 0 0 0 0 0 0 0 0 0 0 0 0 0 0 127 0"/><feOffset dx="2.15942" dy="-1.07971"/><feGaussianBlur stdDeviation=".269928"/><feColorMatrix type="matrix" values="0 0 0 0 0 0 0 0 0 0 0 0 0 0 0 0 0 0 0.1 0"/><feBlend in2="BackgroundImageFix" mode="normal" result="effect1_dropShadow"/><feBlend in="SourceGraphic" in2="effect1_dropShadow" mode="normal" result="shape"/></filter><filter id="f" color-interpolation-filters="sRGB" filterUnits="userSpaceOnUse" height="13.8727" width="15.8318" x="174.34" y="103.267"><feFlood flood-opacity="0" result="BackgroundImageFix"/><feColorMatrix in="SourceAlpha" type="matrix" values="0 0 0 0 0 0 0 0 0 0 0 0 0 0 0 0 0 0 127 0"/><feOffset dx="2.15942" dy="-1.07971"/><feGaussianBlur stdDeviation=".269928"/><feColorMatrix type="matrix" values="0 0 0 0 0 0 0 0 0 0 0 0 0 0 0 0 0 0 0.1 0"/><feBlend in2="BackgroundImageFix" mode="normal" result="effect1_dropShadow"/><feBlend in="SourceGraphic" in2="effect1_dropShadow" mode="normal" result="shape"/></filter><filter id="g" color-interpolation-filters="sRGB" filterUnits="userSpaceOnUse" height="63.9442" width="63.9442" x="10.8426" y="1.37056"><feFlood flood-opacity="0" result="BackgroundImageFix"/><feColorMatrix in="SourceAlpha" type="matrix" values="0 0 0 0 0 0 0 0 0 0 0 0 0 0 0 0 0 0 127 0"/><feOffset dx="2.31472" dy="-1.15736"/><feGaussianBlur stdDeviation="1.73604"/><feColorMatrix type="matrix" values="0 0 0 0 0 0 0 0 0 0 0 0 0 0 0 0 0 0 0.1 0"/><feBlend in2="BackgroundImageFix" mode="normal" result="effect1_dropShadow"/><feBlend in="SourceGraphic" in2="effect1_dropShadow" mode="normal" result="shape"/></filter><mask id="h" height="176" maskUnits="userSpaceOnUse" width="280" x="0" y="0"><path d="m0 0h280v176h-280z" fill="#fff"/></mask><path d="m0 0h280v176h-280z" fill="#c1dd9b"/><g mask="url(#h)"><g filter="url(#a)"><path d="m134.716 116.555 5.107 10.318h20.205l6.053-8.254 2.751-87.0799-49.523 17.746z" fill="#f3e8cb"/><path d="m154.388 112.017 11.762-76.5561-2.27 81.9211z" fill="#c1dd9b"/><path d="m139.737 65.3806-18.365-14.8572 3.921 11.9683z" fill="#e3e687"/><path d="m130.245 36.2857-10.936 13.0001 49.523-17.7461-13.619-4.5397z" fill="#91d7b9"/><path d="m143.864 80.6504-8.46 6.6032 4.539 10.5238z" fill="#a2daaf"/></g><path d="m146.728 129.765 5.558-10.649-28.802-2.841-1.094 11.089z" fill="#000"/><path d="m98.0523 124.964-3.3707-11.529 28.8024 2.84-1.094 11.089z" fill="#000"/><path d="m122.925 118.98 5.667-57.4605" stroke="#000" stroke-width="1.15768"/><path d="m125.702 112.421 4.999-50.6925 19.338 53.0925z" fill="#000"/><path d="m121.565 112.012 5-50.6917-29.3377 48.2917z" fill="#000"/><g filter="url(#b)"><path d="m67.4656 118.55 1.6688 8.321 14.3891 3.855 5.8851-4.724 18.5704-61.4886-38.6537 3.1909z" fill="#f3e8cb"/><path d="m82.3409 119.07 22.9801-52.2756-17.2437 57.9066z" fill="#e3e687"/><path d="m80.8027 83.0642-10.2446-14.0837.5091 9.2711z" fill="#a2daaf"/><path d="m79.5938 60.533-10.2683 7.1718 38.6535-3.1909-8.8327-5.8309z" fill="#91d7b9"/><path d="m80.8292 94.7252-7.2846 3.0886 1.2255 8.3602z" fill="#e3e687"/></g><g filter="url(#c)"><path d="m240.033 115.132-1.95 9.726-16.817 4.504-6.878-5.52-21.703-71.8619 45.175 3.7292z" fill="#f3e8cb"/><path d="m222.648 115.74-26.857-61.0944 20.152 67.6754z" fill="#e3e687"/><path d="m224.446 73.6589 11.972-16.4597-.594 10.8351z" fill="#a2daaf"/><path d="m225.858 47.3287 12.001 8.3816-45.175-3.7292 10.323-6.8145z" fill="#91d7b9"/><path d="m224.415 87.2885 8.514 3.6096-1.433 9.7709z" fill="#e3e687"/></g><g filter="url(#d)"><path clip-rule="evenodd" d="m269.523 116.1c-.784 4.734-4.897 8.344-9.853 8.344-4.964 0-9.083-3.622-9.856-8.368h-.261c-.774 4.746-4.892 8.368-9.857 8.368-4.964 0-9.083-3.622-9.856-8.368h-.262c-.774 4.746-4.892 8.368-9.857 8.368-4.964 0-9.083-3.622-9.856-8.368h-.262c-.773 4.746-4.892 8.368-9.856 8.368-4.965 0-9.083-3.622-9.857-8.368h-.262c-.773 4.746-4.892 8.368-9.856 8.368-4.965 0-9.083-3.622-9.857-8.368h-.26c-.774 4.746-4.893 8.368-9.857 8.368-4.965 0-9.083-3.622-9.857-8.368h-.261c-.774 4.746-4.893 8.368-9.857 8.368-4.965 0-9.083-3.622-9.857-8.368h-.261c-.774 4.746-4.892 8.368-9.857 8.368-4.964 0-9.083-3.622-9.857-8.368h-.261c-.774 4.746-4.892 8.368-9.8568 8.368-4.9645 0-9.083-3.622-9.8568-8.368h-.2604c-.7738 4.746-4.8922 8.368-9.8567 8.368s-9.083-3.622-9.8567-8.368h-.2615c-.7737 4.746-4.8922 8.368-9.8567 8.368s-9.083-3.622-9.8567-8.368h-.2615c-.7737 4.746-4.8922 8.368-9.8567 8.368s-9.083-3.622-9.8567-8.368h-.2615c-.7737 4.746-4.8922 8.368-9.8567 8.368s-9.083-3.622-9.8567-8.368h-.26075c-.77358 4.746-4.89215 8.369-9.85677902 8.369h-.00037098v51.555h280.725v-51.646c-.442.059-.892.09-1.349.09-4.956 0-9.069-3.61-9.853-8.344z" fill="#89cdd3" fill-rule="evenodd"/></g><g filter="url(#e)"><g fill="#000"><path d="m39.6578 103.321c8.891-1.618 11.8004 4.515 10.8375 6.198z"/><path d="m39.6567 103.32c3.1417 8.435 9.884 7.866 10.8375 6.198z"/><path d="m39.6565 103.32-3.197 1.238 2.6425-4.621z"/></g><circle cx="48.1361" cy="107.064" fill="#fff" r=".576215" transform="matrix(-.49644378 .86806888 -.86806888 -.49644378 164.971894 118.429807)"/></g><g filter="url(#f)"><g fill="#000"><path d="m184.093 113.714c-1.35-8.936-8.095-9.701-9.376-8.244z"/><path d="m184.093 113.714c-8.998-.238-10.644-6.801-9.376-8.244z"/><path d="m184.093 113.714-.135 3.426 3.515-3.998z"/></g><circle fill="#fff" r=".576215" transform="matrix(-.660334 .750972 .750972 .660334 177.804 106.905)"/></g></g><g filter="url(#g)"><circle cx="40.5" cy="34.5" fill="#ffbd3a" r="28.5"/></g></svg>