<svg fill="none" height="178" viewBox="0 0 287 178" width="287" xmlns="http://www.w3.org/2000/svg" xmlns:xlink="http://www.w3.org/1999/xlink"><filter id="a" color-interpolation-filters="sRGB" filterUnits="userSpaceOnUse" height="141.095" width="112.912" x="-36.1401" y="-23"><feFlood flood-opacity="0" result="BackgroundImageFix"/><feColorMatrix in="SourceAlpha" type="matrix" values="0 0 0 0 0 0 0 0 0 0 0 0 0 0 0 0 0 0 127 0"/><feOffset dy="4"/><feGaussianBlur stdDeviation="2"/><feColorMatrix type="matrix" values="0 0 0 0 0 0 0 0 0 0 0 0 0 0 0 0 0 0 0.25 0"/><feBlend in2="BackgroundImageFix" mode="normal" result="effect1_dropShadow"/><feBlend in="SourceGraphic" in2="effect1_dropShadow" mode="normal" result="shape"/></filter><filter id="b" color-interpolation-filters="sRGB" filterUnits="userSpaceOnUse" height="35.818" width="15.7437" x="12.6943" y="74.7773"><feFlood flood-opacity="0" result="BackgroundImageFix"/><feBlend in="SourceGraphic" in2="BackgroundImageFix" mode="normal" result="shape"/><feColorMatrix in="SourceAlpha" result="hardAlpha" type="matrix" values="0 0 0 0 0 0 0 0 0 0 0 0 0 0 0 0 0 0 127 0"/><feOffset dx="1.5" dy="1"/><feGaussianBlur stdDeviation=".25"/><feComposite in2="hardAlpha" k2="-1" k3="1" operator="arithmetic"/><feColorMatrix type="matrix" values="0 0 0 0 0 0 0 0 0 0 0 0 0 0 0 0 0 0 0.25 0"/><feBlend in2="shape" mode="normal" result="effect1_innerShadow"/></filter><filter id="c" color-interpolation-filters="sRGB" filterUnits="userSpaceOnUse" height="33.5" width="13.5" x="14" y="19"><feFlood flood-opacity="0" result="BackgroundImageFix"/><feBlend in="SourceGraphic" in2="BackgroundImageFix" mode="normal" result="shape"/><feColorMatrix in="SourceAlpha" result="hardAlpha" type="matrix" values="0 0 0 0 0 0 0 0 0 0 0 0 0 0 0 0 0 0 127 0"/><feOffset dx="2" dy="2"/><feGaussianBlur stdDeviation=".25"/><feComposite in2="hardAlpha" k2="-1" k3="1" operator="arithmetic"/><feColorMatrix type="matrix" values="0 0 0 0 0 0 0 0 0 0 0 0 0 0 0 0 0 0 0.25 0"/><feBlend in2="shape" mode="normal" result="effect1_innerShadow"/></filter><filter id="d" color-interpolation-filters="sRGB" filterUnits="userSpaceOnUse" height="45.4831" width="20.3912" x="42.8252" y="6.80664"><feFlood flood-opacity="0" result="BackgroundImageFix"/><feColorMatrix in="SourceAlpha" type="matrix" values="0 0 0 0 0 0 0 0 0 0 0 0 0 0 0 0 0 0 127 0"/><feOffset dx="4" dy="-4"/><feGaussianBlur stdDeviation="2"/><feColorMatrix type="matrix" values="0 0 0 0 0 0 0 0 0 0 0 0 0 0 0 0 0 0 0.2 0"/><feBlend in2="BackgroundImageFix" mode="normal" result="effect1_dropShadow"/><feBlend in="SourceGraphic" in2="effect1_dropShadow" mode="normal" result="shape"/></filter><filter id="e" color-interpolation-filters="sRGB" filterUnits="userSpaceOnUse" height="45.4831" width="20.3912" x="-14.8408" y="8.24805"><feFlood flood-opacity="0" result="BackgroundImageFix"/><feColorMatrix in="SourceAlpha" type="matrix" values="0 0 0 0 0 0 0 0 0 0 0 0 0 0 0 0 0 0 127 0"/><feOffset dx="4" dy="-4"/><feGaussianBlur stdDeviation="2"/><feColorMatrix type="matrix" values="0 0 0 0 0 0 0 0 0 0 0 0 0 0 0 0 0 0 0.2 0"/><feBlend in2="BackgroundImageFix" mode="normal" result="effect1_dropShadow"/><feBlend in="SourceGraphic" in2="effect1_dropShadow" mode="normal" result="shape"/></filter><filter id="f" color-interpolation-filters="sRGB" filterUnits="userSpaceOnUse" height="45.4831" width="20.3912" x="31.292" y="-22.0273"><feFlood flood-opacity="0" result="BackgroundImageFix"/><feColorMatrix in="SourceAlpha" type="matrix" values="0 0 0 0 0 0 0 0 0 0 0 0 0 0 0 0 0 0 127 0"/><feOffset dx="4" dy="-4"/><feGaussianBlur stdDeviation="2"/><feColorMatrix type="matrix" values="0 0 0 0 0 0 0 0 0 0 0 0 0 0 0 0 0 0 0.2 0"/><feBlend in2="BackgroundImageFix" mode="normal" result="effect1_dropShadow"/><feBlend in="SourceGraphic" in2="effect1_dropShadow" mode="normal" result="shape"/></filter><filter id="g" color-interpolation-filters="sRGB" filterUnits="userSpaceOnUse" height="45.4831" width="20.3912" x="-1.8667" y="-22.0273"><feFlood flood-opacity="0" result="BackgroundImageFix"/><feColorMatrix in="SourceAlpha" type="matrix" values="0 0 0 0 0 0 0 0 0 0 0 0 0 0 0 0 0 0 127 0"/><feOffset dx="4" dy="-4"/><feGaussianBlur stdDeviation="2"/><feColorMatrix type="matrix" values="0 0 0 0 0 0 0 0 0 0 0 0 0 0 0 0 0 0 0.2 0"/><feBlend in2="BackgroundImageFix" mode="normal" result="effect1_dropShadow"/><feBlend in="SourceGraphic" in2="effect1_dropShadow" mode="normal" result="shape"/></filter><filter id="h" color-interpolation-filters="sRGB" filterUnits="userSpaceOnUse" height="47.2494" width="20.975" x="13.9922" y="-31"><feFlood flood-opacity="0" result="BackgroundImageFix"/><feColorMatrix in="SourceAlpha" type="matrix" values="0 0 0 0 0 0 0 0 0 0 0 0 0 0 0 0 0 0 127 0"/><feOffset dx="4" dy="-4"/><feGaussianBlur stdDeviation="2"/><feColorMatrix type="matrix" values="0 0 0 0 0 0 0 0 0 0 0 0 0 0 0 0 0 0 0.2 0"/><feBlend in2="BackgroundImageFix" mode="normal" result="effect1_dropShadow"/><feBlend in="SourceGraphic" in2="effect1_dropShadow" mode="normal" result="shape"/></filter><filter id="i" color-interpolation-filters="sRGB" filterUnits="userSpaceOnUse" height="116.999" width="170" x="-8" y="55"><feFlood flood-opacity="0" result="BackgroundImageFix"/><feColorMatrix in="SourceAlpha" type="matrix" values="0 0 0 0 0 0 0 0 0 0 0 0 0 0 0 0 0 0 127 0"/><feOffset dy="4"/><feGaussianBlur stdDeviation="2"/><feColorMatrix type="matrix" values="0 0 0 0 0 0 0 0 0 0 0 0 0 0 0 0 0 0 0.25 0"/><feBlend in2="BackgroundImageFix" mode="normal" result="effect1_dropShadow"/><feBlend in="SourceGraphic" in2="effect1_dropShadow" mode="normal" result="shape"/></filter><filter id="j" color-interpolation-filters="sRGB" filterUnits="userSpaceOnUse" height="32.1594" width="286.478" x="0" y="144.92"><feFlood flood-opacity="0" result="BackgroundImageFix"/><feColorMatrix in="SourceAlpha" type="matrix" values="0 0 0 0 0 0 0 0 0 0 0 0 0 0 0 0 0 0 127 0"/><feOffset dx="5.39855"/><feGaussianBlur stdDeviation=".539855"/><feColorMatrix type="matrix" values="0 0 0 0 0.4125 0 0 0 0 0.4125 0 0 0 0 0.4125 0 0 0 0.1 0"/><feBlend in2="BackgroundImageFix" mode="normal" result="effect1_dropShadow"/><feBlend in="SourceGraphic" in2="effect1_dropShadow" mode="normal" result="shape"/></filter><filter id="k" color-interpolation-filters="sRGB" filterUnits="userSpaceOnUse" height="34.765" width="114" x="85" y="13"><feFlood flood-opacity="0" result="BackgroundImageFix"/><feColorMatrix in="SourceAlpha" type="matrix" values="0 0 0 0 0 0 0 0 0 0 0 0 0 0 0 0 0 0 127 0"/><feOffset dx="2" dy="2"/><feGaussianBlur stdDeviation="2"/><feColorMatrix type="matrix" values="0 0 0 0 0 0 0 0 0 0 0 0 0 0 0 0 0 0 0.25 0"/><feBlend in2="BackgroundImageFix" mode="normal" result="effect1_dropShadow"/><feBlend in="SourceGraphic" in2="effect1_dropShadow" mode="normal" result="shape"/></filter><mask id="l" height="176" maskUnits="userSpaceOnUse" width="280" x="0" y="0"><path d="m0 0h280v176h-280z" fill="#c1dd9b"/></mask><path d="m0 0h280v176h-280z" fill="#c1dd9b"/><g mask="url(#l)"><path d="m-8-96.998 135 319-208 10z" fill="#35675b"/><path d="m43.9173 37.7933-28.9549-67.7933 6.4435 56.5662z" fill="#000" fill-opacity=".2"/><g filter="url(#a)"><path d="m56.6322 61.1934h-72.6317v48.9016h72.6317z" fill="#000"/><g filter="url(#b)"><path d="m27.938 74.7773h-15.2437v35.3177h15.2437z" fill="#ffbd3a"/></g><g filter="url(#c)"><path d="m27 19h-13v33h13z" fill="#ffbd3a"/></g><g fill="#000"><path d="m72.7724 57.5723h-104.9125v3.6223h104.9125z"/><path d="m57.5286 52.1367h-74.4251v7.2447h74.4251z"/><path d="m14.4878 22.252h-15.243659v30.79h15.243659z"/><path d="m42.2852 22.252h-15.2437v30.79h15.2437z"/><path d="m-.755859 22.2531 20.623859-11.7726 22.4172 11.7726h-15.2437s-4.4835-2.7167-6.2768-2.7167c-1.7934 0-6.2769 2.7167-6.2769 2.7167z"/><g filter="url(#d)"><path d="m44.064 45.4746h9.91289v6.81511h-9.91289z"/><path d="m44.6841 38.6582h8.67378v6.81511h-8.67378z"/><path d="m45.3037 33.084h7.43467v5.576h-7.43467z"/><path d="m45.9229 27.1973h6.19555v5.88578h-6.19555z"/><path d="m46.8525 21.9297h4.33689v5.26622h-4.33689z"/><path d="m49.0844 19.7617 2.2178 2.1685h-4.4355z"/><path d="m46.4717 21.1406c.1643.1807.6209.4731 1.1335.1972v.5914h-.7393c-.1314-.0658-.3942-.3155-.3942-.7886z"/><path d="m47.4575 20.1562c.1643.1808.621.4732 1.1335.1972v.5914h-.7392c-.1314-.0657-.3943-.3154-.3943-.7886z"/><path d="m51.6465 21.1406c-.1643.1807-.621.4731-1.1335.1972v.5914h.7392c.1314-.0658.3943-.3155.3943-.7886z"/><path d="m50.6606 20.1562c-.1642.1808-.6209.4732-1.1335.1972v.5914h.7393c.1314-.0657.3942-.3154.3942-.7886z"/><path d="m42.8252 42.998c.5387.568 2.0364 1.487 3.7173.6196v1.8587h-2.4243c-.431-.2065-1.293-.9913-1.293-2.4783z"/><path d="m43.4448 36.8008c.5388.5679 2.0365 1.4869 3.7174.6195v1.8587h-2.4244c-.431-.2065-1.293-.9913-1.293-2.4782z"/><path d="m44.064 30.6055c.5387.5679 2.0364 1.4869 3.7173.6195v1.8587h-2.4243c-.431-.2065-1.293-.9913-1.293-2.4782z"/><path d="m44.6841 24.7207c.5387.5679 2.0364 1.4869 3.7173.6196v1.8586h-2.4243c-.431-.2065-1.293-.9913-1.293-2.4782z"/><path d="m55.2163 42.998c-.5387.568-2.0364 1.487-3.7173.6196v1.8587h2.4243c.431-.2065 1.293-.9913 1.293-2.4783z"/><path d="m54.5972 36.8008c-.5388.5679-2.0365 1.4869-3.7174.6195v1.8587h2.4244c.431-.2065 1.293-.9913 1.293-2.4782z"/><path d="m53.9771 30.6055c-.5388.5679-2.0365 1.4869-3.7174.6195v1.8587h2.4244c.431-.2065 1.293-.9913 1.293-2.4782z"/><path d="m53.3574 24.7207c-.5387.5679-2.0364 1.4869-3.7173.6196v1.8586h2.4243c.431-.2065 1.293-.9913 1.293-2.4782z"/><path d="m49.0204 14.8066v6.1956h-.6195z"/><path d="m49.0201 14.8066v6.1956h.6195z"/></g></g><g filter="url(#e)"/><g fill="#000" filter="url(#f)"><path d="m32.5308 16.6406h9.91289v6.81511h-9.91289z"/><path d="m33.1509 9.82422h8.67378v6.81511h-8.67378z"/><path d="m33.7705 4.25h7.43467v5.576h-7.43467z"/><path d="m34.3896-1.63672h6.19555v5.88578h-6.19555z"/><path d="m31.292 14.1641c.5387.5679 2.0364 1.4869 3.7173.6195v1.8587h-2.4243c-.431-.2065-1.293-.9913-1.293-2.4782z"/><path d="m31.9116 7.9668c.5388.56792 2.0365 1.48693 3.7174.61955v1.85865h-2.4244c-.431-.2065-1.293-.99127-1.293-2.4782z"/><path d="m32.5308 1.77148c.5387.56793 2.0364 1.48694 3.7173.61956v1.85867h-2.4244c-.4309-.20652-1.2929-.99129-1.2929-2.47823z"/><path d="m43.6831 14.1641c-.5387.5679-2.0364 1.4869-3.7173.6195v1.8587h2.4243c.431-.2065 1.293-.9913 1.293-2.4782z"/><path d="m43.064 7.9668c-.5388.56792-2.0365 1.48693-3.7174.61955v1.85865h2.4244c.431-.2065 1.293-.99127 1.293-2.4782z"/><path d="m42.4438 1.77148c-.5387.56793-2.0364 1.48694-3.7173.61956v1.85867h2.4244c.431-.20652 1.2929-.99129 1.2929-2.47823z"/></g><g fill="#000" filter="url(#g)"><path d="m-.62793 16.6406h9.91289v6.81511h-9.91289z"/><path d="m-.007813 9.82422h8.67378v6.81511h-8.67378z"/><path d="m.611816 4.25h7.43467v5.576h-7.43467z"/><path d="m1.23096-1.63672h6.19555v5.88578h-6.19555z"/><path d="m-1.8667 14.1641c.53874.5679 2.036453 1.4869 3.71733.6195v1.8587h-2.424344c-.430996-.2065-1.292986-.9913-1.292986-2.4782z"/><path d="m-1.24707 7.9668c.538744.56792 2.036452 1.48693 3.71733.61955v1.85865h-2.424345c-.430995-.2065-1.292985-.99127-1.292985-2.4782z"/><path d="m-.62793 1.77148c.5387442.56793 2.03645 1.48694 3.71733.61956v1.85867h-2.424344c-.430995-.20652-1.292986-.99129-1.292986-2.47823z"/><path d="m10.5244 14.1641c-.53873.5679-2.03644 1.4869-3.71732.6195v1.8587h2.42435c.43099-.2065 1.29297-.9913 1.29297-2.4782z"/><path d="m9.90527 7.9668c-.53874.56792-2.03645 1.48693-3.71733.61955v1.85865h2.42435c.43099-.2065 1.29298-.99127 1.29298-2.4782z"/><path d="m9.28516 1.77148c-.53875.56793-2.03646 1.48694-3.71734.61956v1.85867h2.42435c.431-.20652 1.29299-.99129 1.29299-2.47823z"/></g><g fill="#000" filter="url(#h)"><path d="m15.2896 9.11328h10.3799v7.13616h-10.3799z"/><path d="m15.9385 1.97656h9.08238v7.13616h-9.08238z"/><path d="m16.5874-3.86133h7.7849v5.83868h-7.7849z"/><path d="m13.9922 6.51953c.5641.59468 2.1324 1.55698 3.8924.64874v1.94623h-2.5385c-.4513-.21625-1.3539-1.03799-1.3539-2.59497z"/><path d="m14.6406.03125c.5641.59468 2.1324 1.55698 3.8925.648742v1.946228h-2.5386c-.4513-.21625-1.3539-1.03799-1.3539-2.59497z"/><path d="m26.9673 6.51953c-.5641.59468-2.1324 1.55698-3.8925.64874v1.94623h2.5386c.4513-.21625 1.3539-1.03799 1.3539-2.59497z"/><path d="m26.3188.03125c-.5641.59468-2.1323 1.55698-3.8924.648742v1.946228h2.5386c.4513-.21625 1.3538-1.03799 1.3538-2.59497z"/></g></g><g filter="url(#i)"><path d="m19.334 115.963h7.36842v48.0297h-7.36842z" fill="#000"/><path d="m120.033 115.963h7.36842v48.0297h-7.36842z" fill="#000"/><path d="m7.0542 113.881h7.36842v50.1179h-7.36842z" fill="#000"/><path d="m107.754 113.881h7.36842v50.1179h-7.36842z" fill="#000"/><path d="m-1.33545 108.432h135.925v14.5366h-135.925z" fill="#000"/><g stroke="#000"><path d="m132.316 122.235v-29.235"/><path d="m124.948 122.235v-29.235"/><path d="m117.58 122.235v-29.235"/><path d="m110.211 122.235v-29.235"/><path d="m102.843 122.235v-29.235"/><path d="m95.4746 122.235v-29.235"/><path d="m88.106 122.235v-29.235"/><path d="m80.7378 122.235v-29.235"/><path d="m73.3696 122.235v-29.235"/><path d="m66.0015 122.235v-29.235"/><path d="m58.6328 122.235v-29.235"/><path d="m51.2642 122.235v-29.235"/><path d="m43.8955 122.235v-29.235"/><path d="m36.5273 122.235v-29.235"/><path d="m29.1592 122.235v-29.235"/><path d="m21.791 122.235v-29.235"/><path d="m14.4224 122.235v-29.235"/><path d="m7.0542 122.235v-29.235"/><path d="m-.313965 122.235v-29.235"/><path d="m-4 93h140"/></g><path clip-rule="evenodd" d="m155.917 55 2.083 4.7196-3.513 1.5509-.175-.397-23.334 10.8441 1.303 3.817-3.956 1.6928.193.4367-3.513 1.5509-.211-.4769-17.486 7.4825c5.788.552 10.316 5.429 10.316 11.3637 0 6.3047-5.11 11.4157-11.413 11.4157-4.389 0-8.1999-2.478-10.1093-6.112l-36.1017 5.217v-1.567l35.0046-11.1269c.3502-1.8176 1.1314-3.4817 2.2331-4.8817l-23.8107 10.1886-1.3432-3.9185 2.8508-1.2571-.5007-1.2042 3.811-1.5854-1.7973-4.5628 3.6547-1.4944-.2976-.7159 7.8014-3.2454.3174.7632 5.1312-2.0981-1.0738-2.5825 3.3394-1.3892-1.865-4.4853.5537-.2303-1.6726-4.0226 3.7193-1.5472 1.0637 2.5584 1.8454-.7677 3.5712 8.5894 18.401-7.5242-.18-.4096 3.512-1.5509.224.5066 28.128-11.5017-.216-.4916zm-49.93 49.296v-2.913c-.804-.047-1.541-.343-2.135-.813l-2.065 2.066c1.129.99 2.593 1.607 4.2 1.66zm-4.832-2.294 2.065-2.0659c-.378-.4802-.643-1.0537-.754-1.6803h-2.9354c.1417 1.4276.7304 2.7232 1.6244 3.7462zm-1.6539-4.6416h2.9119c.047-.8026.342-1.5386.81-2.1318l-2.065-2.0656c-.988 1.1289-1.6043 2.5919-1.6569 4.1974zm6.4859-3.5749c-.802.0466-1.538.3419-2.131.81l-2.065-2.0656c1.128-.9883 2.591-1.6045 4.196-1.6571zm3.969 4.4703h2.935c-.142 1.4292-.732 2.7262-1.627 3.7492l-2.065-2.0652c.379-.481.645-1.0558.757-1.684zm-1.39 2.3172c-.481.38-1.056.646-1.684.757v2.936c1.429-.142 2.726-.732 3.749-1.627zm1.443-3.2126h2.912c-.051-1.5506-.627-2.9682-1.557-4.0803l-2.072 2.0722c.414.5705.673 1.2603.717 2.0081zm-3.127-6.4581c1.483.1472 2.824.7771 3.864 1.7302l-2.061 2.0611c-.504-.4319-1.122-.7343-1.803-.8555zm-.671 8.2488c.865 0 1.566-.7015 1.566-1.5668 0-.8654-.701-1.5669-1.566-1.5669s-1.567.7015-1.567 1.5669c0 .8653.702 1.5668 1.567 1.5668zm0-1.343c.123 0 .224-.1002.224-.2238 0-.1237-.101-.2239-.224-.2239-.124 0-.224.1002-.224.2239 0 .1236.1.2238.224.2238z" fill="#000" fill-rule="evenodd"/></g></g><g filter="url(#j)"><path clip-rule="evenodd" d="m269.523 146.024c-.784 4.734-4.897 8.344-9.853 8.344-4.964 0-9.083-3.622-9.856-8.368h-.261c-.774 4.746-4.892 8.368-9.857 8.368-4.964 0-9.083-3.622-9.856-8.368h-.262c-.774 4.746-4.892 8.368-9.857 8.368-4.964 0-9.083-3.622-9.856-8.368h-.262c-.773 4.746-4.892 8.368-9.856 8.368-4.965 0-9.083-3.622-9.857-8.368h-.262c-.773 4.746-4.892 8.368-9.856 8.368-4.965 0-9.083-3.622-9.857-8.368h-.26c-.774 4.746-4.893 8.368-9.857 8.368-4.965 0-9.083-3.622-9.857-8.368h-.261c-.774 4.746-4.893 8.368-9.857 8.368-4.965 0-9.083-3.622-9.857-8.368h-.261c-.774 4.746-4.892 8.368-9.857 8.368-4.964 0-9.083-3.622-9.857-8.368h-.261c-.774 4.746-4.892 8.368-9.8568 8.368-4.9645 0-9.083-3.622-9.8568-8.368h-.2604c-.7738 4.746-4.8922 8.368-9.8567 8.368s-9.083-3.622-9.8567-8.368h-.2615c-.7737 4.746-4.8922 8.368-9.8567 8.368s-9.083-3.622-9.8567-8.368h-.2615c-.7737 4.746-4.8922 8.368-9.8567 8.368s-9.083-3.622-9.8567-8.368h-.2615c-.7737 4.746-4.8922 8.368-9.8567 8.368s-9.083-3.622-9.8567-8.368h-.26075c-.77358 4.746-4.89215 8.368-9.85677902 8.368h-.00037098v21.632h280v-21.651c-.206.013-.415.019-.624.019-4.956 0-9.069-3.61-9.853-8.344z" fill="#89cdd3" fill-rule="evenodd"/></g><g clip-rule="evenodd" fill-rule="evenodd" filter="url(#k)"><path d="m172.604 27.0541h5.601c1.524 0 2.759 1.235 2.759 2.7584 0 .3854-.079.7524-.222 1.0856h4.485c1.523 0 2.758 1.2349 2.758 2.7583 0 .5201-.144 1.0065-.394 1.4217h2.066c1.846 0 3.343 1.4969 3.343 3.3435 0 1.8465-1.497 3.3434-3.343 3.3434h-58.344c-1.846 0-3.343-1.4969-3.343-3.3434 0-1.8466 1.497-3.3435 3.343-3.3435h2.066c-.25-.4152-.394-.9016-.394-1.4217 0-1.5234 1.235-2.7583 2.758-2.7583h4.485c-.143-.3332-.222-.7002-.222-1.0856 0-1.5234 1.235-2.7584 2.758-2.7584h5.602c.044-1.4849 1.262-2.6752 2.757-2.6752h18.724c1.495 0 2.713 1.1903 2.757 2.6752z" fill="#fff6f0"/><path d="m137.346 18.0174h6.319c1.718 0 3.111 1.393 3.111 3.1114 0 .4354-.089.8499-.251 1.2262h5.06c1.718 0 3.111 1.393 3.111 3.1114 0 .5864-.162 1.135-.444 1.6032h2.33c2.083 0 3.771 1.6885 3.771 3.7714s-1.688 3.7714-3.771 3.7714h-65.8106c-2.0829 0-3.7714-1.6885-3.7714-3.7714s1.6885-3.7714 3.7714-3.7714h2.33c-.2821-.4682-.4443-1.0168-.4443-1.6032 0-1.7184 1.393-3.1114 3.1113-3.1114h5.0596c-.161-.3763-.251-.7908-.251-1.2262 0-1.7184 1.393-3.1114 3.112-3.1114h6.318c.049-1.6749 1.423-3.0174 3.11-3.0174h21.119c1.687 0 3.061 1.3425 3.11 3.0174z" fill="#fff1e8"/></g></svg>