<svg width="142" height="120" viewBox="0 0 142 120" fill="none" xmlns="http://www.w3.org/2000/svg">
<path d="M112.309 74.6706C133.059 58.2435 120.75 69.4281 141.5 53.001C133.719 32.251 99.917 8.09766 99.917 8.09766L89.542 28.8477C89.542 28.8477 101.646 64.2956 112.309 74.6706Z" fill="#89CDD3"/>
<path d="M30.7502 74.6706C10.0002 58.2435 20.75 71.4281 0 55.001C7.78125 34.251 43.1426 8.09766 43.1426 8.09766L53.5176 28.8477C53.5176 28.8477 41.4134 64.2956 30.7502 74.6706Z" fill="#89CDD3"/>
<path d="M99.917 8.09702C99.917 8.09702 83.7781 -0.548808 76.285 0.0275757C73.6913 0.0272942 69.0802 0.315489 65.91 0.209738C55.8232 0.0275757 42.8545 8.09702 42.8545 8.09702L48.042 59.972L37.667 119.916H105.104L94.7295 59.972L99.917 8.09702Z" fill="#A6DFE4"/>
<path d="M65.334 0.0273438H76.8618V2.90929H65.334V0.0273438Z" fill="#2C5291"/>
<path d="M71.0976 59.9718H63.4398L53.2295 20.7773L54.7728 8.23109C55.0503 5.97545 56.2389 3.89143 58.1112 2.37784C59.9835 0.864241 62.4079 0.0273621 64.9206 0.0273438H65.9924V9.24957L63.4398 20.7773L71.0976 59.9718Z" fill="#89CDD3"/>
<path d="M71.0977 59.9718H79.0024L89.5421 20.7773L87.949 8.23109C87.6625 5.97545 86.4356 3.89143 84.5029 2.37784C82.5702 0.864241 80.0676 0.0273621 77.4738 0.0273438H76.3675V9.24957L79.0024 20.7773L71.0977 59.9718Z" fill="#89CDD3"/>
<path d="M71.3859 65.1587C70.698 65.1587 70.0383 65.351 69.5519 65.6933C69.0655 66.0356 63.0283 57.1815 63.0283 57.6656L57.8408 119.916H85.5075L79.4554 57.6656C79.4554 57.1815 73.7064 66.0356 73.22 65.6933C72.7336 65.351 72.0739 65.1587 71.3859 65.1587Z" fill="#89CDD3"/>
<path d="M45.4482 57.3789H97.3232V67.7539H45.4482V57.3789Z" fill="#2C5291"/>
</svg>
