<svg fill="none" height="656" viewBox="0 0 1194 656" width="1194" xmlns="http://www.w3.org/2000/svg" xmlns:xlink="http://www.w3.org/1999/xlink"><filter id="a" color-interpolation-filters="sRGB" filterUnits="userSpaceOnUse" height="500.33" width="1370.07" x="311.934" y="0"><feFlood flood-opacity="0" result="BackgroundImageFix"/><feColorMatrix in="SourceAlpha" type="matrix" values="0 0 0 0 0 0 0 0 0 0 0 0 0 0 0 0 0 0 127 0"/><feOffset dx="8" dy="-4"/><feGaussianBlur stdDeviation="4"/><feColorMatrix type="matrix" values="0 0 0 0 0 0 0 0 0 0 0 0 0 0 0 0 0 0 0.1 0"/><feBlend in2="BackgroundImageFix" mode="normal" result="effect1_dropShadow"/><feBlend in="SourceGraphic" in2="effect1_dropShadow" mode="normal" result="shape"/></filter><filter id="b" color-interpolation-filters="sRGB" filterUnits="userSpaceOnUse" height="435.622" width="750.483" x="623.186" y="52.3984"><feFlood flood-opacity="0" result="BackgroundImageFix"/><feColorMatrix in="SourceAlpha" type="matrix" values="0 0 0 0 0 0 0 0 0 0 0 0 0 0 0 0 0 0 127 0"/><feOffset dx="8" dy="-8"/><feGaussianBlur stdDeviation="4"/><feColorMatrix type="matrix" values="0 0 0 0 0 0 0 0 0 0 0 0 0 0 0 0 0 0 0.1 0"/><feBlend in2="BackgroundImageFix" mode="normal" result="effect1_dropShadow"/><feBlend in="SourceGraphic" in2="effect1_dropShadow" mode="normal" result="shape"/></filter><filter id="c" color-interpolation-filters="sRGB" filterUnits="userSpaceOnUse" height="283.714" width="1414.18" x="209" y="218.287"><feFlood flood-opacity="0" result="BackgroundImageFix"/><feColorMatrix in="SourceAlpha" type="matrix" values="0 0 0 0 0 0 0 0 0 0 0 0 0 0 0 0 0 0 127 0"/><feOffset dx="8" dy="-3"/><feGaussianBlur stdDeviation="4"/><feColorMatrix type="matrix" values="0 0 0 0 0 0 0 0 0 0 0 0 0 0 0 0 0 0 0.1 0"/><feBlend in2="BackgroundImageFix" mode="normal" result="effect1_dropShadow"/><feBlend in="SourceGraphic" in2="effect1_dropShadow" mode="normal" result="shape"/></filter><filter id="d" color-interpolation-filters="sRGB" filterUnits="userSpaceOnUse" height="46.8074" width="86.4137" x="978.297" y="12"><feFlood flood-opacity="0" result="BackgroundImageFix"/><feColorMatrix in="SourceAlpha" type="matrix" values="0 0 0 0 0 0 0 0 0 0 0 0 0 0 0 0 0 0 127 0"/><feOffset dx="28.8046" dy="14.4023"/><feGaussianBlur stdDeviation="7.20114"/><feColorMatrix type="matrix" values="0 0 0 0 0 0 0 0 0 0 0 0 0 0 0 0 0 0 0.1 0"/><feBlend in2="BackgroundImageFix" mode="normal" result="effect1_dropShadow"/><feBlend in="SourceGraphic" in2="effect1_dropShadow" mode="normal" result="shape"/></filter><filter id="e" color-interpolation-filters="sRGB" filterUnits="userSpaceOnUse" height="41.1319" width="58.0973" x="999.9" y="30.002"><feFlood flood-opacity="0" result="BackgroundImageFix"/><feColorMatrix in="SourceAlpha" type="matrix" values="0 0 0 0 0 0 0 0 0 0 0 0 0 0 0 0 0 0 127 0"/><feOffset dx="19.5285" dy="9.76426"/><feGaussianBlur stdDeviation="4.88213"/><feColorMatrix type="matrix" values="0 0 0 0 0 0 0 0 0 0 0 0 0 0 0 0 0 0 0.1 0"/><feBlend in2="BackgroundImageFix" mode="normal" result="effect1_dropShadow"/><feBlend in="SourceGraphic" in2="effect1_dropShadow" mode="normal" result="shape"/></filter><filter id="f" color-interpolation-filters="sRGB" filterUnits="userSpaceOnUse" height="26.9127" width="52.9711" x="971.096" y="48.0059"><feFlood flood-opacity="0" result="BackgroundImageFix"/><feColorMatrix in="SourceAlpha" type="matrix" values="0 0 0 0 0 0 0 0 0 0 0 0 0 0 0 0 0 0 127 0"/><feOffset dx="16.111" dy="8.05551"/><feGaussianBlur stdDeviation="4.02776"/><feColorMatrix type="matrix" values="0 0 0 0 0 0 0 0 0 0 0 0 0 0 0 0 0 0 0.1 0"/><feBlend in2="BackgroundImageFix" mode="normal" result="effect1_dropShadow"/><feBlend in="SourceGraphic" in2="effect1_dropShadow" mode="normal" result="shape"/></filter><filter id="g" color-interpolation-filters="sRGB" filterUnits="userSpaceOnUse" height="183.866" width="486.657" x="788.984" y="191.104"><feFlood flood-opacity="0" result="BackgroundImageFix"/><feColorMatrix in="SourceAlpha" type="matrix" values="0 0 0 0 0 0 0 0 0 0 0 0 0 0 0 0 0 0 127 0"/><feOffset dx="3.37742" dy="1.68871"/><feGaussianBlur stdDeviation="1.68871"/><feColorMatrix type="matrix" values="0 0 0 0 0 0 0 0 0 0 0 0 0 0 0 0 0 0 0.2 0"/><feBlend in2="BackgroundImageFix" mode="normal" result="effect1_dropShadow"/><feBlend in="SourceGraphic" in2="effect1_dropShadow" mode="normal" result="shape"/></filter><filter id="h" color-interpolation-filters="sRGB" filterUnits="userSpaceOnUse" height="183.866" width="486.657" x="788.139" y="92.3152"><feFlood flood-opacity="0" result="BackgroundImageFix"/><feColorMatrix in="SourceAlpha" type="matrix" values="0 0 0 0 0 0 0 0 0 0 0 0 0 0 0 0 0 0 127 0"/><feOffset dx="3.37742" dy="1.68871"/><feGaussianBlur stdDeviation="1.68871"/><feColorMatrix type="matrix" values="0 0 0 0 0 0 0 0 0 0 0 0 0 0 0 0 0 0 0.2 0"/><feBlend in2="BackgroundImageFix" mode="normal" result="effect1_dropShadow"/><feBlend in="SourceGraphic" in2="effect1_dropShadow" mode="normal" result="shape"/></filter><filter id="i" color-interpolation-filters="sRGB" filterUnits="userSpaceOnUse" height="198.509" width="129.995" x="1049.62" y="228.225"><feFlood flood-opacity="0" result="BackgroundImageFix"/><feColorMatrix in="SourceAlpha" type="matrix" values="0 0 0 0 0 0 0 0 0 0 0 0 0 0 0 0 0 0 127 0"/><feOffset dx="3.37742" dy="3.37742"/><feGaussianBlur stdDeviation="1.68871"/><feColorMatrix type="matrix" values="0 0 0 0 0 0 0 0 0 0 0 0 0 0 0 0 0 0 0.2 0"/><feBlend in2="BackgroundImageFix" mode="normal" result="effect1_dropShadow"/><feBlend in="SourceGraphic" in2="effect1_dropShadow" mode="normal" result="shape"/></filter><filter id="j" color-interpolation-filters="sRGB" filterUnits="userSpaceOnUse" height="50.2835" width="35.7195" x="442.094" y="351.529"><feFlood flood-opacity="0" result="BackgroundImageFix"/><feColorMatrix in="SourceAlpha" type="matrix" values="0 0 0 0 0 0 0 0 0 0 0 0 0 0 0 0 0 0 127 0"/><feOffset dx="2"/><feGaussianBlur stdDeviation=".5"/><feColorMatrix type="matrix" values="0 0 0 0 0 0 0 0 0 0 0 0 0 0 0 0 0 0 0.2 0"/><feBlend in2="BackgroundImageFix" mode="normal" result="effect1_dropShadow"/><feBlend in="SourceGraphic" in2="effect1_dropShadow" mode="normal" result="shape"/></filter><filter id="k" color-interpolation-filters="sRGB" filterUnits="userSpaceOnUse" height="7.64014" width="7.70284" x="451.524" y="359.625"><feFlood flood-opacity="0" result="BackgroundImageFix"/><feBlend in="SourceGraphic" in2="BackgroundImageFix" mode="normal" result="shape"/><feGaussianBlur result="effect1_foregroundBlur" stdDeviation="1.50183"/></filter><filter id="l" color-interpolation-filters="sRGB" filterUnits="userSpaceOnUse" height="175.614" width="102.236" x="82" y="403.307"><feFlood flood-opacity="0" result="BackgroundImageFix"/><feColorMatrix in="SourceAlpha" type="matrix" values="0 0 0 0 0 0 0 0 0 0 0 0 0 0 0 0 0 0 127 0"/><feOffset dx="4"/><feGaussianBlur stdDeviation="1"/><feColorMatrix type="matrix" values="0 0 0 0 0 0 0 0 0 0 0 0 0 0 0 0 0 0 0.2 0"/><feBlend in2="BackgroundImageFix" mode="normal" result="effect1_dropShadow"/><feBlend in="SourceGraphic" in2="effect1_dropShadow" mode="normal" result="shape"/></filter><filter id="m" color-interpolation-filters="sRGB" filterUnits="userSpaceOnUse" height="25.4718" width="27.8485" x="151.14" y="443.961"><feFlood flood-opacity="0" result="BackgroundImageFix"/><feBlend in="SourceGraphic" in2="BackgroundImageFix" mode="normal" result="shape"/><feGaussianBlur result="effect1_foregroundBlur" stdDeviation="5.35261"/></filter><filter id="n" color-interpolation-filters="sRGB" filterUnits="userSpaceOnUse" height="39.8217" width="22.8011" x="554.496" y="260.127"><feFlood flood-opacity="0" result="BackgroundImageFix"/><feColorMatrix in="SourceAlpha" type="matrix" values="0 0 0 0 0 0 0 0 0 0 0 0 0 0 0 0 0 0 127 0"/><feOffset dx="1"/><feGaussianBlur stdDeviation=".5"/><feColorMatrix type="matrix" values="0 0 0 0 0 0 0 0 0 0 0 0 0 0 0 0 0 0 0.2 0"/><feBlend in2="BackgroundImageFix" mode="normal" result="effect1_dropShadow"/><feBlend in="SourceGraphic" in2="effect1_dropShadow" mode="normal" result="shape"/></filter><filter id="o" color-interpolation-filters="sRGB" filterUnits="userSpaceOnUse" height="5.58116" width="6.09194" x="569.439" y="267.785"><feFlood flood-opacity="0" result="BackgroundImageFix"/><feBlend in="SourceGraphic" in2="BackgroundImageFix" mode="normal" result="shape"/><feGaussianBlur result="effect1_foregroundBlur" stdDeviation="1.20918"/></filter><path d="m0 497h1194v159h-1194z" fill="#89cdd3"/><path d="m689.113 576.184h5.108v-5.747z" fill="#acdeb6"/><path d="m668.681 561.498-2.554 3.831-1.916-3.831z" fill="#acdeb6"/><path d="m989.415 552.098-5.106-.145-.163 5.744z" fill="#acdeb6"/><path d="m1009.42 567.355 2.66-3.758 1.81 3.884z" fill="#acdeb6"/><path d="m405.832 555.93-5.105-.145-.163 5.744z" fill="#acdeb6"/><path d="m425.841 571.187 2.661-3.758 1.807 3.884z" fill="#acdeb6"/><path d="m38.9391 589.736 5.1058.149.1676-5.744z" fill="#acdeb6"/><path d="m18.9442 574.461-2.6646 3.755-1.8029-3.885z" fill="#acdeb6"/><path d="m717.766 553.527-5.106-.144-.162 5.744z" fill="#acdeb6"/><path d="m737.775 568.784 2.661-3.757 1.806 3.884z" fill="#acdeb6"/><path d="m794.883 538.702-3.528-3.694-4.155 3.969z" fill="#acdeb6"/><path d="m798.374 563.62 4.534-.798-1.447 4.031z" fill="#acdeb6"/><path d="m646.983 608.691-5.106-.144-.162 5.744z" fill="#acdeb6"/><path d="m666.991 623.948 2.662-3.757 1.806 3.884z" fill="#acdeb6"/><path d="m914.382 580.004-2.728-4.318-4.858 3.068z" fill="#acdeb6"/><path d="m912.874 605.121 4.603.114-2.216 3.665z" fill="#acdeb6"/><path d="m330.8 583.836-2.728-4.318-4.858 3.068z" fill="#acdeb6"/><path d="m329.292 608.953 4.603.114-2.216 3.665z" fill="#acdeb6"/><path d="m113.999 561.886 2.724 4.321 4.861-3.064z" fill="#acdeb6"/><path d="m115.529 536.77-4.603-.118 2.22-3.663z" fill="#acdeb6"/><path d="m850.227 584.684 5.072.605.68-5.706z" fill="#acdeb6"/><path d="m831.678 567.683-2.99 3.501-1.448-4.03z" fill="#acdeb6"/><path d="m266.645 588.516 5.072.605.68-5.706z" fill="#acdeb6"/><path d="m248.096 571.515-2.99 3.501-1.448-4.03z" fill="#acdeb6"/><path d="m178.155 557.268-5.071-.61-.686 5.706z" fill="#acdeb6"/><path d="m196.689 574.286 2.993-3.499 1.445 4.032z" fill="#acdeb6"/><path d="m1073.7 619.639 5.07.605.68-5.706z" fill="#acdeb6"/><path d="m1055.15 602.638-2.99 3.501-1.45-4.03z" fill="#acdeb6"/><path d="m490.115 623.467 5.073.605.68-5.706z" fill="#acdeb6"/><path d="m471.566 606.466-2.989 3.502-1.449-4.031z" fill="#acdeb6"/><path d="m1181.14 569.255 1.4 4.913 5.52-1.574z" fill="#acdeb6"/><path d="m1189.67 545.583-4.39-1.407 3.16-2.892z" fill="#acdeb6"/><path d="m597.556 573.078 1.399 4.912 5.527-1.574z" fill="#acdeb6"/><path d="m606.083 549.405-4.384-1.407 3.16-2.892z" fill="#acdeb6"/><path d="m497.264 561.618-1.26-4.95-5.569 1.417z" fill="#acdeb6"/><path d="m488.071 585.04 4.342 1.531-3.24 2.801z" fill="#acdeb6"/><path d="m1125.45 533.751-1.26-4.95-5.57 1.417z" fill="#acdeb6"/><path d="m1116.26 557.173 4.34 1.531-3.24 2.801z" fill="#acdeb6"/><path d="m541.865 537.581-1.26-4.95-5.568 1.417z" fill="#acdeb6"/><path d="m532.672 561.003 4.343 1.531-3.241 2.801z" fill="#acdeb6"/><path d="m561.019 584.829-1.259-4.95-5.569 1.417z" fill="#acdeb6"/><path d="m551.826 608.251 4.343 1.531-3.24 2.801z" fill="#acdeb6"/><path d="m729.338 586.404v5.108l-4.47-1.916z" fill="#acdeb6"/><path d="m949.496 540.741.145-5.106 4.413 2.041z" fill="#acdeb6"/><path d="m365.91 544.577.145-5.106 4.413 2.041z" fill="#acdeb6"/><path d="m78.8501 601.117-.1489 5.106-4.4117-2.045z" fill="#acdeb6"/><path d="m677.844 542.176.144-5.106 4.414 2.041z" fill="#acdeb6"/><path d="m760.483 609.897.144-5.106 4.413 2.041z" fill="#acdeb6"/><path d="m901.541 540.542 4.318-2.728.767 4.802z" fill="#acdeb6"/><path d="m317.957 544.374 4.318-2.728.767 4.802z" fill="#acdeb6"/><path d="m126.802 601.364-4.322 2.724-.762-4.803z" fill="#acdeb6"/><path d="m141.923 577.933-4.321 2.723-.763-4.802z" fill="#acdeb6"/><path d="m1013.78 590.925 4.32-2.728.77 4.802z" fill="#acdeb6"/><path d="m430.201 594.755 4.319-2.728.766 4.802z" fill="#acdeb6"/><path d="m14.6025 550.878-4.3213 2.724-.76255-4.803z" fill="#acdeb6"/><path d="m888.96 599.594-.605 5.072-4.211-2.431z" fill="#acdeb6"/><path d="m305.378 603.426-.605 5.072-4.211-2.431z" fill="#acdeb6"/><path d="m139.436 542.323.609-5.071 4.209 2.435z" fill="#acdeb6"/><path d="m270.961 522.659.609-5.071 4.209 2.435z" fill="#acdeb6"/><path d="m1182.33 610.734-4.91 1.399.62-4.823z" fill="#acdeb6"/><path d="m598.749 614.564-4.913 1.399.618-4.823z" fill="#acdeb6"/><path d="m1080.83 516.287 4.95-1.26-.76 4.804z" fill="#acdeb6"/><path d="m497.243 520.119 4.95-1.26-.754 4.804z" fill="#acdeb6"/><path d="m631.343 523.967 4.95-1.26-.754 4.804z" fill="#acdeb6"/><path d="m721.037 613.857 6.385-5.108-6.385-3.83z" fill="#acdeb6"/><path d="m958.568 513.536-6.527 4.925 6.274 4.01z" fill="#acdeb6"/><path d="m374.984 517.366-6.527 4.925 6.274 4.01z" fill="#acdeb6"/><path d="m69.7506 628.316 6.5312-4.92-6.2706-4.015z" fill="#acdeb6"/><path d="m440.738 519.366-6.527 4.925 6.274 4.01z" fill="#acdeb6"/><path d="m4.00059 626.263 6.53121-4.92-6.27057-4.015z" fill="#acdeb6"/><path d="m983.457 608.755-6.527 4.925 6.274 4.01z" fill="#acdeb6"/><path d="m399.875 612.585-6.527 4.925 6.274 4.01z" fill="#acdeb6"/><path d="m44.9439 533.077 6.5312-4.919-6.2705-4.016z" fill="#acdeb6"/><path d="m686.919 514.966-6.526 4.925 6.274 4.01z" fill="#acdeb6"/><path d="m929.185 532.901-7.728-2.672.17 7.444z" fill="#acdeb6"/><path d="m345.603 536.729-7.729-2.672.171 7.445z" fill="#acdeb6"/><path d="m99.1522 608.977 7.7258 2.678-.164-7.444z" fill="#acdeb6"/><path d="m221.623 526.733 7.726 2.678-.164-7.444z" fill="#acdeb6"/><path d="m222.9 617.018 7.726 2.678-.163-7.444z" fill="#acdeb6"/><path d="m402.431 533.746-7.728-2.671.17 7.444z" fill="#acdeb6"/><path d="m42.3202 611.915 7.7257 2.678-.1634-7.444z" fill="#acdeb6"/><path d="m166.07 619.95 7.726 2.678-.164-7.444z" fill="#acdeb6"/><path d="m1006.44 618.024-7.724-2.672.17 7.444z" fill="#acdeb6"/><path d="m422.86 621.854-7.728-2.672.17 7.445z" fill="#acdeb6"/><path d="m21.9686 523.788 7.7257 2.678-.1634-7.444z" fill="#acdeb6"/><path d="m877.467 625.873 6.944-4.316-5.886-4.56z" fill="#acdeb6"/><path d="m293.885 629.701 6.944-4.316-5.886-4.56z" fill="#acdeb6"/><path d="m150.953 516.055-6.949 4.309 5.882 4.566z" fill="#acdeb6"/><path d="m1153.65 610.271 6.66 4.742 1.94-7.19z" fill="#acdeb6"/><path d="m570.071 614.103 6.662 4.742 1.935-7.19z" fill="#acdeb6"/><path d="m525.897 521.389-6.525-4.928-2.138 7.132z" fill="#acdeb6"/><g fill="#e7e88c"><path d="m672.511 602.365 3.831-1.915-3.831-5.108z"/><path d="m696.136 549.37 3.192-3.831-3.192-2.554z"/><path d="m632.286 600.45 5.747-5.108-4.47-4.47z"/><path d="m652.08 578.102 2.554 3.193 1.277-5.108z"/><path d="m423.165 530.225-3.883 1.806 3.685 5.214z"/><path d="m398.053 582.531-3.3 3.739 3.119 2.643z"/><path d="m463.32 533.277-5.888 4.943 4.341 4.594z"/><path d="m442.903 555.055-2.463-3.263-1.42 5.07z"/><path d="m21.5814 615.415 3.8852-1.803-3.6804-5.217z"/><path d="m46.7408 563.132 3.3029-3.737-3.1167-2.646z"/><path d="m-18.5708 612.328 5.893-4.938-4.3373-4.598z"/><path d="m1.86573 590.567 2.4598 3.266 1.42538-5.069z"/><path d="m735.101 527.828-3.884 1.807 3.685 5.214z"/><path d="m709.988 580.134-3.299 3.74 3.119 2.643z"/><path d="m775.256 530.88-5.889 4.944 4.342 4.594z"/><path d="m754.839 552.659-2.463-3.263-1.421 5.069z"/><path d="m804.058 517.608-3.884 1.806 3.685 5.214z"/><path d="m778.945 569.914-3.299 3.739 3.119 2.643z"/><path d="m844.213 520.659-5.889 4.944 4.342 4.594z"/><path d="m823.796 542.438-2.463-3.263-1.421 5.07z"/><path d="m945.377 580.069-3.665-2.217-2.273 5.967z"/><path d="m887.955 588.39-4.944-.653-.455 4.063z"/><path d="m965.236 615.102-7.387-2.131-1.393 6.165z"/><path d="m935.772 610.299 1.336-3.864-5.001 1.648z"/><path d="m361.797 583.899-3.665-2.217-2.273 5.967z"/><path d="m304.375 592.22-4.944-.653-.455 4.063z"/><path d="m381.656 618.932-7.387-2.131-1.393 6.166z"/><path d="m352.192 614.129 1.336-3.864-5.001 1.648z"/><path d="m82.9983 561.8 3.6632 2.219 2.2786-5.964z"/><path d="m140.428 553.529 4.943.658.459-4.063z"/><path d="m63.171 526.748 7.3853 2.138 1.398-6.164z"/><path d="m92.6304 531.578-1.3391 3.862 5.0022-1.643z"/><path d="m946.657 517.492-3.665-2.216-2.274 5.967z"/><path d="m889.234 525.814-4.943-.654-.455 4.063z"/><path d="m966.515 552.526-7.387-2.131-1.393 6.165z"/><path d="m937.052 547.723 1.335-3.864-5.001 1.647z"/><path d="m363.073 521.322-3.665-2.216-2.274 5.967z"/><path d="m305.65 529.644-4.943-.654-.455 4.063z"/><path d="m382.931 556.356-7.387-2.131-1.393 6.165z"/><path d="m353.468 551.553 1.335-3.864-5.001 1.648z"/><path d="m81.6683 624.374 3.6631 2.219 2.2786-5.964z"/><path d="m139.098 616.103 4.943.658.459-4.062z"/><path d="m61.841 589.322 7.3852 2.138 1.3981-6.164z"/><path d="m91.3003 594.152-1.3391 3.863 5.0022-1.644z"/><path d="m1044.98 585.176-3.66-2.216-2.27 5.966z"/><path d="m987.562 593.498-4.943-.654-.455 4.063z"/><path d="m1064.84 620.21-7.38-2.132-1.4 6.166z"/><path d="m1035.38 615.406 1.34-3.864-5.01 1.648z"/><path d="m461.401 589.006-3.665-2.216-2.274 5.966z"/><path d="m403.978 597.328-4.943-.654-.455 4.063z"/><path d="m481.259 624.04-7.387-2.131-1.392 6.165z"/><path d="m451.796 619.237 1.335-3.864-5 1.647z"/><path d="m-16.6013 556.6 3.6632 2.22 2.2786-5.965z"/><path d="m40.8284 548.33 4.9432.658.4585-4.063z"/><path d="m-36.4286 521.549 7.3853 2.138 1.398-6.164z"/><path d="m-6.96925 526.378-1.33904 3.863 5.00217-1.643z"/><path d="m1225.04 512.387-3.67-2.216-2.27 5.966z"/><path d="m1167.62 520.709-4.95-.654-.45 4.063z"/><path d="m1244.9 547.421-7.39-2.132-1.39 6.166z"/><path d="m1215.43 542.617 1.34-3.864-5 1.648z"/><path d="m641.455 516.215-3.665-2.216-2.273 5.966z"/><path d="m584.033 524.537-4.944-.654-.454 4.063z"/><path d="m661.314 551.249-7.387-2.131-1.393 6.165z"/><path d="m631.85 546.446 1.336-3.865-5.001 1.648z"/><path d="m758.938 590.283-3.665-2.216-2.274 5.967z"/><path d="m701.516 598.605-4.944-.654-.455 4.063z"/><path d="m778.796 625.317-7.387-2.131-1.392 6.165z"/><path d="m749.333 620.514 1.335-3.864-5 1.648z"/><path d="m247.061 612.549 4.031-1.448-3.199-5.526z"/><path d="m276.795 562.724 3.623-3.426-2.867-2.914z"/><path d="m207.346 605.884 6.311-4.392-3.909-4.967z"/><path d="m229.646 586.038 2.158 3.472 1.873-4.921z"/><path d="m197.762 533.254-4.032 1.445 3.194 5.528z"/><path d="m167.984 583.052-3.626 3.423 2.865 2.916z"/><path d="m237.471 539.954-6.314 4.386 3.904 4.971z"/><path d="m215.153 559.781-2.155-3.475-1.877 4.92z"/><path d="m1151.41 560.455 2.9 3.16 3.86-5.084z"/><path d="m1208.85 568.66 4.56 2.021 1.58-3.77z"/><path d="m1142.24 521.244 6.49 4.127 3.07-5.523z"/><path d="m1169.15 534.159-2.37 3.331 5.26-.171z"/><path d="m567.832 564.285 2.892 3.16 3.863-5.084z"/><path d="m625.272 572.49 4.558 2.021 1.582-3.77z"/><path d="m558.657 525.074 6.486 4.127 3.075-5.523z"/><path d="m585.571 537.989-2.371 3.331 5.262-.171z"/><path d="m1110.31 567.414-2.8-3.24-4.01 4.972z"/><path d="m1053.13 557.589-4.5-2.149-1.69 3.723z"/><path d="m1118.37 606.869-6.36-4.309-3.23 5.434z"/><path d="m1091.84 593.199 2.46-3.263-5.27.022z"/><path d="m526.727 571.246-2.801-3.24-4.006 4.972z"/><path d="m469.542 561.421-4.5-2.149-1.687 3.723z"/><path d="m534.79 610.701-6.367-4.309-3.229 5.434z"/><path d="m508.252 597.031 2.464-3.263-5.265.022z"/><path d="m549.019 621.8 3.468 2.515 2.763-5.756z"/><path d="m606.936 618.298 4.872 1.064.792-4.011z"/><path d="m532.152 585.232 7.184 2.74 1.902-6.028z"/><path d="m561.113 592.477-1.654 3.739 5.121-1.225z"/></g><path d="m244 538c-58 47-151-20-244 33v84c3.66667-5.667 31.0803-18.037 78.5-56.5 45-36.5 157.5 13.5 228.5-36.5 51-35 103 0 155-65h-73c-49 43-87-6-145 41z" fill="#fff0e1"/><g filter="url(#a)"><path d="m450.131 260.8-138.197 235.53h1354.066l-130.22-170.842-81.06-174.16-35.88 97.861-102.32-197.381-111.62 99.52-115.61-139.328-209.95 237.189-82.387-82.933-58.468 94.544-106.306-149.28-112.95 238.848z" fill="#b2dda5"/></g><path d="m1115.18 115.668-24.5-87.0801 36.76 44.784z" fill="#fff" fill-opacity=".3"/><path d="m813.603 225.253-12.141-50.101 48.35 50.736z" fill="#fff" fill-opacity=".3"/><path d="m636.054 187.817-44.115 30.686 40.439-90.398z" fill="#fff" fill-opacity=".3"/><path d="m731.63 269.926-35.536-19.904v-32.344z" fill="#fff" fill-opacity=".3"/><path d="m510.924 354.955-25.733 16.586-9.191-60.541z" fill="#fff" fill-opacity=".3"/><g filter="url(#b)"><path d="m870.138 228.535-246.952 198.522 36.585 60.964 573.169-23.448 124.73-37.516-165.9-358.6586-210.768 315.1466z" fill="#35675b"/></g><path d="m1130.5 174.538 57.59-85.4208-7.96 58.0528z" fill="#000" fill-opacity=".2"/><path d="m791.248 301.596 79.342-63.854-36.332 58.309z" fill="#000" fill-opacity=".2"/><path d="m809.5 277.5c-22-11-26.5-45-48-54-1 1.667-3.8 6.3-7 11.5 24 18 20 40.5 43.5 51.5.833-.833 4.7-3.8 11.5-9z" fill="#eee1d2"/><g filter="url(#c)"><path d="m352.873 331.05-143.873 165.951h1398.18l-156.85-97.066-92.52-127.199-91.18 100.584-96.64-144.033-204.282 242.665-76.879-120.55-142.775 48.533-129.596-90.803-173.527 120.549z" fill="#91d7b9"/></g><path d="m286.812 426.979 66.172-76.417v43.192z" fill="#fff" fill-opacity=".3"/><path d="m516.574 392.095 98.032-71.433-18.381 71.433z" fill="#fff" fill-opacity=".3"/><path d="m1181.36 333.945-8.58-82.23 62.49 94.69z" fill="#fff" fill-opacity=".3"/><path d="m890.455 417.774-7.555-61.606 47.598 70.636z" fill="#fff" fill-opacity=".3"/><path d="m1100 121.5c-42.5-2.5-87.5 32-98-11-1.5 1.667-6 6.7-12 13.5 25.5 52 87-10.5 147.5 26 1-1.833 4.5-7.9 10.5-17.5-1.83-2.833-14-9-48-11z" fill="#eee1d2"/><path clip-rule="evenodd" d="m788.52 151.051h13.058c4.985 0 9.026 4.041 9.026 9.026 0 1.268-.261 2.475-.733 3.57h10.249c4.985 0 9.026 4.041 9.026 9.026 0 1.705-.473 3.3-1.294 4.66h3.603c6.042 0 10.94 4.898 10.94 10.94 0 6.043-4.898 10.941-10.94 10.941h-149.88c-6.042 0-10.94-4.898-10.94-10.941 0-6.042 4.898-10.94 10.94-10.94h3.598c-.822-1.36-1.295-2.955-1.295-4.66 0-4.985 4.041-9.026 9.026-9.026h10.255c-.472-1.095-.733-2.302-.733-3.57 0-4.985 4.041-9.026 9.026-9.026h13.053c.153-4.851 4.133-8.737 9.021-8.737h45.972c4.888 0 8.869 3.886 9.022 8.737z" fill="#fff6f0" fill-opacity=".9" fill-rule="evenodd"/><path clip-rule="evenodd" d="m695.406 121.511h14.72c5.623 0 10.181 4.558 10.181 10.181 0 1.417-.29 2.767-.814 3.994h11.552c5.623 0 10.181 4.558 10.181 10.181 0 1.921-.532 3.717-1.456 5.25h4.06c6.815 0 12.34 5.525 12.34 12.341 0 6.815-5.525 12.34-12.34 12.34h-169.062c-6.815 0-12.34-5.525-12.34-12.34 0-6.816 5.525-12.341 12.34-12.341h4.056c-.925-1.533-1.457-3.329-1.457-5.25 0-5.623 4.558-10.181 10.181-10.181h11.549c-.523-1.227-.813-2.577-.813-3.994 0-5.623 4.558-10.181 10.181-10.181h14.732c.161-5.482 4.656-9.876 10.176-9.876h51.856c5.521 0 10.015 4.394 10.177 9.876z" fill="#fff1e8" fill-opacity=".8" fill-rule="evenodd"/><path clip-rule="evenodd" d="m1132.86 109.519h15.03c5.37 0 9.73 4.358 9.73 9.735 0 1.36-.28 2.655-.78 3.831h11.84c5.38 0 9.74 4.359 9.74 9.736 0 1.84-.51 3.562-1.4 5.03h4.45c6.52 0 11.81 5.283 11.81 11.801 0 6.517-5.29 11.8-11.81 11.8h-169.02c-6.52 0-11.8-5.283-11.8-11.8 0-6.518 5.28-11.801 11.8-11.801h4.45c-.89-1.468-1.4-3.19-1.4-5.03 0-5.377 4.36-9.736 9.74-9.736h11.85c-.51-1.176-.79-2.471-.79-3.831 0-5.377 4.36-9.735 9.74-9.735h15.02c.16-5.238 4.46-9.435 9.74-9.435h52.33c5.27 0 9.57 4.197 9.73 9.435z" fill="#fff6f0" fill-opacity=".9" fill-rule="evenodd"/><path clip-rule="evenodd" d="m1112.37 73.4266h10.41c3.73 0 6.75 3.0201 6.75 6.7456 0 .9396-.2 1.8343-.54 2.647h8.2c3.73 0 6.75 3.0201 6.75 6.7457 0 1.2723-.35 2.4625-.97 3.4781h3.09c4.51 0 8.17 3.6607 8.17 8.177 0 4.515-3.66 8.176-8.17 8.176h-117.12c-4.52 0-8.18-3.661-8.18-8.176 0-4.5163 3.66-8.177 8.18-8.177h3.08c-.61-1.0156-.96-2.2058-.96-3.4781 0-3.7256 3.02-6.7457 6.74-6.7457h8.2c-.34-.8127-.54-1.7074-.54-2.647 0-3.7255 3.02-6.7456 6.75-6.7456h10.42c.1-3.6322 3.08-6.5438 6.74-6.5438h36.26c3.66 0 6.63 2.9116 6.74 6.5438z" fill="#fff1e8" fill-opacity=".8" fill-rule="evenodd"/><path clip-rule="evenodd" d="m1256.16 91.8362h15.03c5.37 0 9.73 4.3588 9.73 9.7358 0 1.36-.28 2.655-.78 3.831h11.84c5.38 0 9.74 4.359 9.74 9.735 0 1.841-.51 3.562-1.4 5.03h4.46c6.51 0 11.8 5.284 11.8 11.801s-5.29 11.801-11.8 11.801h-169.03c-6.52 0-11.8-5.284-11.8-11.801s5.28-11.801 11.8-11.801h4.45c-.89-1.468-1.4-3.189-1.4-5.03 0-5.376 4.36-9.735 9.74-9.735h11.85c-.51-1.176-.79-2.471-.79-3.831 0-5.377 4.36-9.7358 9.74-9.7358h15.03c.16-5.2372 4.45-9.4339 9.73-9.4339h52.33c5.27 0 9.57 4.1967 9.73 9.4339z" fill="#fff1e8" fill-opacity=".8" fill-rule="evenodd"/><g filter="url(#d)"><path d="m997.703 30.0028c-2.197-3.8187-5.858-9.4105-19.406-10.0925 4.211-.8183 14.097-.9547 19.406 3.2733 4.397-4.6371 6.227-6.001 23.797-11.1836-16.1 4.7496-19.11 9.9263-23.793 17.9969z" fill="#000"/></g><g filter="url(#e)"><path d="m1012.84 51.6054c-1.47-4.5826-3.91-11.2927-12.94-12.111 2.81-.982 9.4-1.1457 12.94 3.9279 2.93-5.5646 4.15-7.2012 15.86-13.4203-10.73 5.6995-12.74 11.9115-15.86 21.5962z" fill="#000"/></g><g filter="url(#f)"><path d="m984.033 58.8076c-1.464-2.2913-3.905-5.6464-12.937-6.0555 2.807-.491 9.398-.5729 12.937 1.9639 2.93-2.7822 4.15-3.6006 15.867-6.7101-10.738 2.8497-12.741 5.9557-15.864 10.7981z" fill="#000"/></g><path d="m1092.5 217.5c-76 0-129 42.5-185-.5-1.167 1.5-5.4 6.2-11 13 73 47.5 122 6.5 183.5 6 1-1.833 4.5-8.1 12.5-18.5z" fill="#eee1d2"/><g filter="url(#g)"><path d="m789.561 368.318 478.749-173.937" stroke="#000" stroke-width="3.37742"/></g><g filter="url(#h)"><path d="m788.715 269.529 478.745-173.9372" stroke="#000" stroke-width="3.37742"/></g><g filter="url(#i)"><rect fill="#000" height="114.516" rx="9.81562" width="123.241" x="1049.62" y="305.463"/><rect fill="#89cdd3" height="55.0765" rx="4.3625" width="44.7156" x="1058.35" y="312.006"/><rect fill="#89cdd3" height="55.0765" rx="4.3625" width="44.7156" x="1119.42" y="312.006"/><path d="m1111.24 313.098v100.882" stroke="#89cdd3" stroke-width="2.18125"/><path d="m1113.96 309.279-31.62-31.62 31.62-31.62" stroke="#000" stroke-width="4.42235"/><rect fill="#000" height="12.8248" rx="6.41241" transform="matrix(.94315249 -.33236032 .33236032 .94315249 -20.146377 374.233729)" width="53.5104" x="1083.91" y="246.01"/></g><path d="m335 469.001c5.999 18.5 32 11 39 28h31.5c0-22-67.154-25.947-49.499-34 23.999-10.947 25.999-15 29.999-23.5 4.784-10.167 13.5-25 46.5-22-1.167-1.333-.8-.9-8-8.5-14.5-6-41.499 8.5-53.5 26.5-9 13.5-41.513 16.5-36 33.5z" fill="#f0e3d5"/><path d="m427 392c9.5 14.5 25.5 5 36 24 1.833-1.334 7-5 13-9-14-22.5-45.5-13.5-38-28 5.847-11.305 17.5-26 3.5-37.5-10.435-8.572-22 3-31-13-1 1.667-5 8-8 13 2.5 3 3.7 4.7 12.5 7.5 5.5 1.75 20.375-1 22.5 7.5 2 8-20.561 20.145-10.5 35.5z" fill="#eee1d2"/><path d="m427 300c18.5 5 31.5-6.5 47.5-8 1 1.167 4 4.9 8 10.5-32.5 7.5-41 17.5-62 8.5 1-1.5 2.5-4.5 6.5-11z" fill="#eee1d2"/><path d="m652 250.5c-45.5 19-73 42-103.5 38-1.667 3.167-3.4 7-9 19 36 10.5 68-19 120-40 31-11.5 21.5-33 48-50.5-1.167-1.5-4.5-7-10-14-28 18.5-26 39.357-45.5 47.5z" fill="#eee1d2"/><g filter="url(#j)"><path clip-rule="evenodd" d="m446.173 390.758c-.361-.331-.911-.32-1.227.025l-.901.982c-.317.346-.281.894.08 1.225s.91.32 1.227-.026l.901-.982c.316-.345.281-.893-.08-1.224z" fill="#ffc7a1" fill-rule="evenodd"/><path d="m446.227 393.083c3.009-2.285 4.752-1.793 8.294-2.158l-1.625-7.276c-1.908.321-5.838 2.438-8.495 5.391-.68 1.621.037 3.099 1.826 4.043z" fill="#d1c870"/><path d="m442.528 391.963 1.453-.081.214.257c.262.313.578.577.933.778l.193.109c-.16.195-.511.69-.767 1.001-.755-.076-1.665-1.001-2.206-1.678-.123-.154-.017-.375.18-.386z" fill="#35675b"/><path d="m461.704 388.851 5.219-11.027c.127-.269.423-.413.71-.346l3.113.727c.388.091.592.518.42.88l-5.122 10.824c-.12.254-.393.398-.669.353l-3.21-.523c-.41-.067-.64-.51-.461-.888z" fill="#d1c870"/><path d="m460.916 372.421 6.072 5.263-5.41 11.433-6.007-5.402z" fill="#f4e97d"/><path clip-rule="evenodd" d="m470.412 379.895-.529-.187-.104.299.193.068-.067.141.29.137zm-1.251-.441-.722-.254-.104.299.722.254zm-1.444-.508-.497-.175-.192.407.29.137.07-.149.225.079zm1.911 2.605.284-.599-.29-.137-.284.599zm-2.864-1.816-.263.556.29.137.263-.556zm2.297 3.015.283-.599-.289-.138-.284.6zm-2.823-1.902-.264.556.29.137.264-.556zm2.256 3.1.283-.599-.289-.137-.284.599zm-2.783-1.987-.263.556.29.137.263-.556zm-.527 1.112-.263.557.29.137.263-.556zm2.743 2.073.283-.599-.29-.137-.283.599zm-3.269-.96-.264.557.29.137.263-.557zm2.702 2.159.283-.599-.29-.137-.283.599zm-3.229-1.046-.263.557.289.137.264-.557zm2.661 2.244.284-.599-.29-.137-.283.599zm-3.188-1.131-.263.557.29.137.263-.557zm2.621 2.33.284-.6-.29-.137-.283.599zm-3.147-1.217-.264.557.29.137.263-.557zm2.864 1.816-.29-.137-.09.189-.265-.05-.057.311.508.097zm-2.247.02.772.146.058-.311-.773-.147zm-1.144-.723-.219.464.59.112.057-.312-.182-.034.044-.093z" fill="#f4e97d" fill-rule="evenodd"/><path d="m463.216 367.924 9.925 8.317-3.149 4.393-9.055-8.257z" fill="#539882"/><path d="m468.98 377.124c-.648 1.367-.129 2.97 1.158 3.579s2.855-.006 3.503-1.373c.647-1.368.128-2.97-1.159-3.579-1.287-.61-2.855.005-3.502 1.373z" fill="#35675b"/><path clip-rule="evenodd" d="m470.654 380.166c-.834-.394-1.201-1.554-.686-2.641.515-1.088 1.644-1.539 2.478-1.144.834.394 1.2 1.553.686 2.641-.515 1.088-1.644 1.539-2.478 1.144zm-.112.237c-1.008-.477-1.374-1.817-.817-2.993.556-1.176 1.825-1.743 2.833-1.266s1.374 1.817.817 2.993c-.556 1.176-1.825 1.743-2.833 1.266z" fill="#539882" fill-rule="evenodd"/><path clip-rule="evenodd" d="m471.063 379.698c-.626-.296-.915-1.137-.547-1.914.368-.776 1.201-1.086 1.826-.79.626.296.914 1.136.547 1.913-.368.777-1.201 1.087-1.826.791zm-.08.169c-.756-.358-1.047-1.329-.65-2.169.398-.84 1.333-1.231 2.089-.873s1.047 1.329.649 2.169c-.397.84-1.332 1.231-2.088.873z" fill="#539882" fill-rule="evenodd"/><path d="m470.942 377.984c-.238.504-.023 1.106.481 1.345.504.238 1.106.023 1.344-.481.239-.504.024-1.106-.48-1.344-.504-.239-1.106-.024-1.345.48z" fill="#539882"/><path d="m471.098 374.51c-1.514-1.268-4.719 1.036-4.222 3.337-.875-.759-3.72-3.31-6.2-5.516-.45-1.804 1.788-2.923 3.635-3.322.279-.06.568.026.781.219.97.874 3.376 3.081 6.006 5.282z" fill="#d1c870"/><path d="m466.48 370.215c2.35 1.91 4.918 4.082 4.873 4.54-.996-.791-1.323-.945-1.276-.923l-1.819-.861-3.285-2.831c.068-.021.463-.036 1.507.075z" fill="#d1c870"/><path clip-rule="evenodd" d="m456.211 396.492c-.47.138-.745.613-.614 1.063l.373 1.279c.132.45.619.703 1.089.566s.745-.613.614-1.062l-.373-1.28c-.131-.449-.619-.703-1.089-.566z" fill="#ffc7a1" fill-rule="evenodd"/><path d="m458.228 397.65c-.395-3.757.928-4.993 2.451-8.213l-7.065-2.379c-.714 1.798-.94 6.256.209 10.059 1.035 1.421 2.67 1.574 4.405.533z" fill="#f4e97d"/><path d="m458.229 397.651c-.315-2.943.578-5.158 2.706-8.342l-1.967-.54c-1.212 1.674-2.555 6.16-2.294 9.543.687-.14 1.121-.401 1.555-.661z" fill="#d1c870"/><path d="m455.353 400.235.683-1.285.331-.051c.404-.061.793-.195 1.149-.395l.194-.108c.083.237.325.795.458 1.175-.456.606-1.719.905-2.578 1.018-.195.025-.33-.18-.237-.354z" fill="#35675b"/><path d="m462.266 390.023c1.128-3.075 2.751-10.678.222-16.487-.688-.326-2.744-.905-5.464-.617-1.124 3.264-5.351 7.451-8.751 10.482 1.086 3.045 7.364 7.281 13.993 6.622z" fill="#539882"/><path d="m456.862 373.35c-.249.423-2.093 2.737-3.091 3.677l1.5.842 1.727-2.151z" fill="#539882"/><path d="m462.345 389.856c1.112-3.038 2.707-10.55.185-16.299-.456-.216-.087-.111-.383.513 1.123 5.878.737 12.292-2.054 15.831 1.099.035 1.324.002 2.252-.045z" fill="#468677"/><path d="m460.539 359.051c-1.747.806-2.659 1.547-3.16 1.67-.4.098-.47.315-.455.412-.33.417-1.073 1.291-1.406 1.451.305.345.437.483.465.509l1.49-1.457z" fill="#ffc7a1"/><g filter="url(#k)"><path d="m454.754 362.877c-.125.137.051.503.394.817.342.314.722.457.847.32.126-.137-.05-.503-.393-.817-.343-.313-.722-.457-.848-.32z" fill="#fca"/></g><path d="m463.453 368.825c1.547 3.983 3.227 2.87 3.936 3.177-1.059-1.654-3.065-2.807-3.936-3.177z" fill="#e1e1e1"/><path d="m453.275 377.555c-.278.588-.027 1.29.561 1.569.588.278 1.29.027 1.568-.561.279-.588.028-1.291-.56-1.569s-1.291-.027-1.569.561z" fill="#539882"/><path d="m457.127 380.429c-.63.003-1.532-.304-1.778-.963-.155.77 1.006 1.561 1.778.963z" fill="#468677"/><path clip-rule="evenodd" d="m455.353 379.495c-.033.016-.051.058-.039.093.163.482.387.779.679.928.292.148.64.144 1.039.05.036-.008.061-.046.057-.083-.004-.038-.036-.062-.072-.054-.386.091-.702.089-.959-.042-.257-.13-.465-.395-.622-.859-.012-.035-.049-.05-.083-.033z" fill="#35675b" fill-rule="evenodd"/><path clip-rule="evenodd" d="m462.107 375.912c.395-.082.93-.018 1.612.383.228.134.52.061.652-.162.132-.224.055-.513-.174-.647-.838-.492-1.616-.638-2.298-.498-.679.141-1.196.552-1.537 1.051-.338.495-.519 1.094-.523 1.659-.005.56.165 1.15.606 1.552.196.177.497.167.674-.024.177-.19.162-.489-.033-.666-.176-.16-.296-.451-.293-.84.003-.384.129-.804.362-1.145.232-.338.555-.581.952-.663z" fill="#d1c870" fill-rule="evenodd"/><path clip-rule="evenodd" d="m470.056 373.783c.083.019.161.046.233.08l.139-.293c-.091-.043-.188-.076-.289-.099zm-1.026.108c.179-.069.352-.112.517-.131l-.013-.317c-.19.023-.389.072-.589.149zm-.938.592c.148-.133.298-.247.448-.342l-.142-.27c-.166.105-.331.231-.492.376zm-.74.881c.11-.17.225-.326.343-.467l-.22-.202c-.127.153-.251.32-.368.501zm-.528 1.043c.074-.19.154-.368.238-.536l-.263-.135c-.09.178-.175.367-.253.567zm-.27.841c.025-.097.051-.191.079-.284l-.287-.076c-.029.097-.056.196-.082.297z" fill="#f4e97d" fill-rule="evenodd"/><path clip-rule="evenodd" d="m453.278 385.299c-.063.021-.121.041-.173.058-.223.076-.319.092-.434.111-.031.005-.063.01-.099.017-.23.043-.134.481.096.439.157-.03.315-.064.435-.095l.021.045-.273.093-.151.051c-.282.095-.134.481.096.438.186-.035.388-.105.521-.159l.027.058c-.172.075-.258.099-.36.126-.03.009-.061.017-.096.027-.224.066-.184.45.161.386.203-.038.361-.106.469-.152.038-.016.07-.03.094-.038l-.002-.005c.342-.138.895-.378.941-.47.05-.1-.38-.813-.601-1.157 0 0 0 0 0-.001-.471-.154-.982-.291-1.003-.027-.009.106.135.171.331.255z" fill="#ffc7a1" fill-rule="evenodd"/><path clip-rule="evenodd" d="m462.469 376.329c-.591-.222-1.242.076-1.453.665-1.09 3.046-2.188 4.578-3.292 5.515-.975.827-2.002 1.246-3.335 1.791-.223.091-.454.185-.695.286l.903 2.11c.21-.087.423-.174.636-.26 1.325-.538 2.711-1.1 3.976-2.173 1.504-1.276 2.78-3.2 3.948-6.464.212-.59-.097-1.248-.688-1.47z" fill="#35675b" fill-rule="evenodd"/><path d="m464.358 355.527c-1.645 1.309-1.505 4.222.313 6.506s4.625 3.074 6.27 1.764 1.505-4.223-.313-6.506c-1.818-2.284-4.625-3.074-6.27-1.764z" fill="#c5c5c5"/><path d="m469.948 361.31c-.225-.726-1.464-2.948-4.372-4.48l.144 2.816c1.013.561 3.276 1.68 4.228 1.664z" fill="#539882"/><path d="m466.874 359.241c-2.945-8.345-12.732-3.344-11.98 2.524 5.44-.937 10.253-2.073 11.98-2.524z" fill="#e1e1e1"/><path d="m451.613 367.254c1.054-1.125.485-3.669 2.708-3.869l-.722 4.186c-.137.186-.763.244-1.986-.317z" fill="#ffc7a1"/><path d="m455.186 362.334c-2.591 4.298-1.981 9.416 1.361 11.431 3.343 2.015 8.153.164 10.744-4.133 2.591-4.298 1.982-9.416-1.361-11.431s-8.153-.165-10.744 4.133z" fill="#ffc7a1"/><path d="m453.424 362.648c-.336.557-.221 1.242.257 1.53.477.288 1.137.07 1.473-.488.335-.557.221-1.242-.257-1.53-.477-.287-1.137-.069-1.473.488z" fill="#fff"/><path d="m453.672 362.925c-.096.159-.045.366.114.462s.366.045.462-.114c.096-.16.045-.366-.114-.462-.16-.096-.366-.045-.462.114z" fill="#000"/><path clip-rule="evenodd" d="m452.512 363.696c.012-.408.166-.949.496-1.497.331-.548.737-.936 1.092-1.137.379-.215.542-.144.559-.134s.156.121.142.557c-.012.408-.165.948-.496 1.496-.33.548-.736.936-1.091 1.138-.38.215-.542.144-.559.134-.018-.011-.156-.121-.143-.557zm-.245 1.2c-.717-.432-.675-1.814.093-3.088.767-1.273 1.97-1.955 2.687-1.523.716.431.674 1.814-.093 3.087-.768 1.274-1.971 1.956-2.687 1.524z" fill="#5d8e79" fill-rule="evenodd"/><path d="m452.637 364.826c1.434-.412 2.21-2.307 4.875-4.328l-3.05 6.695c-.294-.339-1.071-1.287-1.825-2.367z" fill="#ffc7a1"/><path d="m464.285 371.357c-.384.636-.114 1.503.602 1.934.717.432 1.608.266 1.992-.371.384-.636.115-1.502-.602-1.934-.716-.432-1.608-.266-1.992.371z" fill="#ffc7a1"/><path d="m450.483 369.895c-.491-1.492 1.459-2.819 2.464-4.089 1.768 1.726 6.314 6.347 8.023 8.566-3.201.739-9.593-1.76-10.487-4.477z" fill="#ffc7a1"/><path clip-rule="evenodd" d="m455.426 362.736c.265-.281.541-.574.827-.87l-.193-.184c-.293.302-.571.597-.836.879-.395.419-.762.808-1.104 1.144-.284.279-.547.516-.79.698-.244.183-.461.306-.652.362l-.166.048.659 1.022.223-.139-.476-.737c.186-.078.378-.197.575-.345.256-.192.528-.438.816-.721.344-.338.718-.734 1.117-1.157z" fill="#ffb685" fill-rule="evenodd"/><path clip-rule="evenodd" d="m454.455 364.507c.222.214.478.514.802 1.014l.631-.444c-.347-.537-.638-.882-.906-1.14-.208-.201-.403-.349-.578-.48-.045-.035-.09-.069-.133-.102l-.469.621c.054.041.105.08.155.118.17.128.323.244.498.413z" fill="#91d7b9" fill-rule="evenodd"/><path d="m456.258 367.786c-.287.477-.124 1.102.365 1.397.489.294 1.118.147 1.406-.33.287-.476.123-1.102-.365-1.396-.489-.295-1.119-.148-1.406.329z" fill="#fca7a7"/><path clip-rule="evenodd" d="m456.82 368.75c-1.015-.612-1.393-2.12-.6-3.435.792-1.314 2.302-1.684 3.317-1.072 1.014.612 1.393 2.119.6 3.434s-2.302 1.684-3.317 1.073zm-.379.628c-1.433-.863-1.816-2.854-.857-4.446.96-1.591 2.899-2.182 4.332-1.318 1.432.864 1.816 2.854.856 4.446-.959 1.592-2.899 2.182-4.331 1.318z" fill="#91d7b9" fill-rule="evenodd"/><path d="m456.909 365.339c-.383.637-.178 1.464.458 1.848.637.384 1.464.179 1.848-.458s.179-1.464-.458-1.848c-.636-.384-1.464-.179-1.848.458z" fill="#fff"/><path d="m466.239 370.896c-.875-.016-5.153-.989-5.594-9.794.718-.906 2.961-2.565 6.193-1.96 4.361 4.016.189 11.792-.599 11.754z" fill="#e1e1e1"/><path d="m455.592 361.008c1.468.658 3.007-.535 5.19.175.943-.946 2.477-2.279 6.188-2.101-1.412-1.987-8.164-3.406-11.378 1.926z" fill="#e1e1e1"/><path d="m466.493 370.722c8.555-1.819 5.609-11.305.24-11.898-.158 5.662-.178 10.295-.24 11.898z" fill="#e1e1e1"/><path d="m464.08 373.001c-.144.239-.067.549.171.693.239.144.55.067.693-.172.144-.239.068-.549-.171-.693s-.549-.067-.693.172z" fill="#539882"/><path d="m470.557 366.818c.439-.877.494-1.414.268-3.702-.104 1.028-.534 1.83-.992 2.393-.244.298-.362 1.081-.063 1.292.195.137.674.242.787.017z" fill="#c4c4c4"/><path clip-rule="evenodd" d="m461.074 361.035c.056-.128-.004-.278-.133-.335-.391-.172-.855-.211-1.324-.199-.438.011-.908.069-1.361.125-.034.004-.068.008-.101.013-.491.06-.959.114-1.376.109-.42-.004-.755-.067-.997-.213-.121-.073-.277-.035-.349.084-.072.12-.033.275.088.348.36.217.805.283 1.259.288.456.004.957-.054 1.443-.114.032-.004.064-.008.095-.011.46-.057.906-.112 1.318-.123.443-.011.816.03 1.103.156.129.057.279 0 .335-.128z" fill="#c4c4c4" fill-rule="evenodd"/><path d="m459.246 355.763c.762-.275 2.082-.521 3.57-.222-.923.011-1.743.36-2.7 1.092-.241.184-.594.13-.832-.102-.283-.276-.387-.641-.038-.768z" fill="#f0f0f0"/><g clip-rule="evenodd" fill-rule="evenodd"><path d="m470.876 358.504c-.062.035-.089.113-.06.176l.002.004c.246.538.862 1.879.376 3.36-.023.069.012.139.076.158.065.018.135-.023.158-.092.519-1.582-.133-3.001-.381-3.541-.002-.005-.004-.01-.006-.014-.029-.063-.102-.085-.165-.051z" fill="#a8a8a8"/><path d="m466.865 355.331c.018-.069-.02-.134-.083-.146-.574-.109-1.339-.016-2.069.491-.057.04-.077.119-.045.176.033.057.106.07.163.03.669-.464 1.366-.547 1.887-.449.064.012.13-.034.147-.102z" fill="#e1e1e1"/><path d="m459.423 361.43c-.116.077-.148.233-.071.349l1.567 2.379c.077.116.233.148.349.071.116-.076.148-.232.071-.348l-1.567-2.379c-.076-.116-.233-.148-.349-.072z" fill="#969696"/><path d="m455.051 360.162c-.011.139.093.26.231.271l2.154.17c.139.011.26-.092.271-.231s-.092-.26-.231-.271l-2.154-.17c-.139-.011-.26.092-.271.231z" fill="#969696"/><path d="m467.477 371.274c.077-.17-.011-.38-.198-.471l-6.622-3.205-.281.614 6.623 3.205c.186.09.4.026.478-.143z" fill="#91d7b9"/><path d="m461.669 362.8c-.137.037-.221.18-.187.318.473 1.928.883 3.188 1.4 4.168.521.986 1.143 1.675 2.015 2.47.103.095.265.085.361-.023.096-.107.09-.271-.013-.366-.85-.776-1.427-1.419-1.91-2.335-.487-.922-.886-2.132-1.356-4.051-.034-.138-.173-.219-.31-.181z" fill="#c4c4c4"/></g><path d="m461.827 360.443c.617-.543 2.526-1.649 5.097-1.502.28.016 1.031.088 1.773.536-1.754-.448-4.312-.16-6.87.966z" fill="#c4c4c4"/><path clip-rule="evenodd" d="m465.732 371.565c-.036.051-.021.122.032.158.285.196.364.386.368.533.005.153-.071.286-.143.36-.044.044-.041.116.005.16.047.045.12.045.164 0 .103-.104.213-.291.206-.519-.008-.236-.139-.489-.472-.718-.053-.036-.125-.025-.16.026z" fill="#ffb685" fill-rule="evenodd"/><circle fill="#000" r=".483432" transform="matrix(-.970608 -.240664 -.240664 .970608 457.575 365.853)"/><path d="m454.636 368.002c-1.188.214-1.522-.72-1.529-1.034" stroke="#ff8281" stroke-linecap="round" stroke-width=".280578"/></g><g filter="url(#l)"><path clip-rule="evenodd" d="m153.068 558.711c1.668-.516 3.42.358 3.914 1.953l1.405 4.537c.494 1.595-.458 3.306-2.125 3.822-1.668.517-3.42-.357-3.914-1.952l-1.405-4.537c-.494-1.595.458-3.306 2.125-3.823z" fill="#ffc7a1" fill-rule="evenodd"/><path d="m149.348 566.116c-6.209-11.945-12.573-13.02-23.43-19.597l16.33-20.96c5.656 3.941 15.09 16.753 19.148 30.318-.283 6.259-4.844 9.927-12.048 10.239z" fill="#d1c870"/><path d="m162.974 568.145-4.557-2.477-1.083.5c-1.321.611-2.741.978-4.192 1.085l-.789.058c.219.87.597 3.003.947 4.395 2.548.905 6.89-.688 9.665-2.043.632-.308.627-1.183.009-1.518z" fill="#35675b"/><path d="m105.939 528.886v-43.479c0-1.058-.734-1.973-1.761-2.195l-11.138-2.405c-1.3867-.3-2.6943.766-2.6943 2.195v42.677c0 1.002.6593 1.883 1.6156 2.159l11.1377 3.207c1.423.41 2.84-.667 2.84-2.159z" fill="#d1c870"/><path d="m133.527 477.16-27.588 7.697v45.079l27.588-8.246z" fill="#f4e97d"/><path clip-rule="evenodd" d="m91.5449 486.76 1.9875.206-.1196 1.123-.7255-.076v.555h-1.1424zm4.7006.489 2.713.282-.1196 1.122-2.713-.282zm5.4265.564 1.867.194v1.605h-1.142v-.589l-.845-.088zm-10.1271 5.48v-2.363h1.1424v2.363zm11.9941-1.487v2.194h-1.142v-2.194zm-11.9941 6.212v-2.363h1.1424v2.363zm11.9941-1.824v2.194h-1.142v-2.194zm-11.9941 6.549v-2.362h1.1424v2.362zm11.9941-2.161v2.195h-1.142v-2.195zm0 4.389v2.194h-1.142v-2.194zm-11.9941 2.497v-2.362h1.1424v2.362zm11.9941 1.891v2.194h-1.142v-2.194zm-11.9941 2.835v-2.363h1.1424v2.363zm11.9941 1.553v2.194h-1.142v-2.194zm-11.9941 3.172v-2.363h1.1424v2.363zm11.9941 1.216v2.194h-1.142v-2.194zm-11.9941 3.509v-2.363h1.1424v2.363zm11.9941.879v2.195h-1.142v-2.195zm-11.9941 1.483h1.1424v.747l.9307.242-.2907 1.091-1.7824-.463zm7.2085 3.49-2.7131-.705.2907-1.091 2.7131.705zm4.7856-.584v1.829l-2.073-.539.291-1.092.64.167v-.365z" fill="#f4e97d" fill-rule="evenodd"/><path d="m132.972 459.166-44.6556 11.664 3.446 18.953 41.7616-12.797z" fill="#539882"/><path d="m100.378 480.017c0 5.393-4.1137 9.764-9.1888 9.764-5.075 0-9.1892-4.371-9.1892-9.764 0-5.392 4.1142-9.763 9.1892-9.763 5.0751 0 9.1888 4.371 9.1888 9.763z" fill="#35675b"/><path clip-rule="evenodd" d="m90.3452 487.262c3.2883 0 6.2371-3.175 6.2371-7.463 0-4.289-2.9488-7.464-6.2371-7.464s-6.2372 3.175-6.2372 7.464c0 4.288 2.9489 7.463 6.2372 7.463zm0 .933c3.9746 0 7.1967-3.759 7.1967-8.396 0-4.638-3.2221-8.397-7.1967-8.397-3.9747 0-7.1968 3.759-7.1968 8.397 0 4.637 3.2221 8.396 7.1968 8.396z" fill="#539882" fill-rule="evenodd"/><path clip-rule="evenodd" d="m89.7452 485.133c2.4662 0 4.6779-2.268 4.6779-5.331s-2.2117-5.331-4.6779-5.331-4.6779 2.268-4.6779 5.331 2.2117 5.331 4.6779 5.331zm0 .666c2.981 0 5.3975-2.685 5.3975-5.997s-2.4165-5.997-5.3975-5.997-5.3975 2.685-5.3975 5.997 2.4165 5.997 5.3975 5.997z" fill="#539882" fill-rule="evenodd"/><path d="m92.7455 479.801c0 1.988-1.611 3.599-3.5983 3.599s-3.5984-1.611-3.5984-3.599c0-1.987 1.6111-3.598 3.5984-3.598s3.5983 1.611 3.5983 3.598z" fill="#539882"/><path d="m97.541 468.368c6.812-1.776 13.624 10.533 8.515 17.186 3.974-1.109 17.03-4.99 28.384-8.316 4.198-5.125-1.306-12.145-6.647-16.242-.807-.619-1.869-.783-2.85-.489-4.458 1.338-15.573 4.78-27.402 7.861z" fill="#d1c870"/><path d="m118.963 461.568c-10.483 2.571-22.0693 5.655-22.6212 7.197 4.4142-1.028 5.7012-1.028 5.5172-1.028h7.173l14.897-4.112c-.184-.172-1.434-.823-4.966-2.057z" fill="#d1c870"/><path clip-rule="evenodd" d="m111.983 561.877c1.306 1.159 1.466 3.111.358 4.359l-3.153 3.553c-1.108 1.248-3.064 1.321-4.37.162-1.306-1.158-1.466-3.11-.358-4.358l3.153-3.553c1.108-1.249 3.065-1.321 4.37-.163z" fill="#ffc7a1" fill-rule="evenodd"/><path d="m103.723 562.531c7-11.5 4.622-17.5 4.622-30.193l26.388 3.107c-.44 6.879-6.51 21.586-16.01 32.086-5.5 3-11 1-15-5z" fill="#f4e97d"/><path d="m103.723 562.531c5.5-9 6-17.5 4-31l7.16 1.26c1.352 7.24-1.16 23.74-7.16 34.24-2-1.5-3-3-4-4.5z" fill="#d1c870"/><path d="m109.046 575.237-.242-5.181-.99-.668c-1.206-.813-2.256-1.837-3.099-3.023l-.459-.645c-.63.638-2.259 2.067-3.268 3.088.546 2.648 4.159 5.536 6.754 7.208.592.38 1.337-.077 1.304-.779z" fill="#35675b"/><path d="m102.34 531.812c1.055-11.626 7.417-38.595 24.421-53.453 2.714 0 10.221 1.269 18.543 6.342-1.357 12.231 5.879 32.163 12.211 47.111-8.141 8.154-34.824 12.231-55.175 0z" fill="#539882"/><path d="m145.175 486.338c.158 1.741 2.571 12.009 4.351 16.558l-6.117.426-2.283-9.564z" fill="#539882"/><path d="m102.34 531.155c1.048-11.483 7.366-38.117 24.254-52.79 1.797 0 .449-.224.449 2.236-12.576 17.224-21.11 38.475-17.517 54.133-3.593-1.566-4.267-2.014-7.186-3.579z" fill="#468677"/><path d="m155.125 434.666c4.401 5.26 6.208 9.039 7.634 10.196 1.14.926 1.034 1.735.838 2.024.428 1.846 1.49 5.794 2.318 6.816-1.509.649-2.146.891-2.276.931l-2.577-6.964z" fill="#ffc7a1"/><g filter="url(#m)"><path d="m167.93 455.812c.195.633-.929 1.543-2.511 2.031-1.583.489-3.024.372-3.219-.261-.196-.633.928-1.542 2.511-2.031 1.582-.489 3.023-.372 3.219.261z" fill="#fca"/></g><path d="m130.838 461.709c-11.059 10.473-14.772 4.325-17.523 4.233 5.932-3.714 14.153-4.37 17.523-4.233z" fill="#e1e1e1"/><path d="m150.318 505.348c0 2.319-1.88 4.199-4.198 4.199-2.319 0-4.198-1.88-4.198-4.199 0-2.318 1.879-4.198 4.198-4.198 2.318 0 4.198 1.88 4.198 4.198z" fill="#539882"/><path d="m133.525 508.738c2.025.97 5.398 1.358 7.197-.388-.675 2.717-5.622 3.493-7.197.388z" fill="#468677"/><path clip-rule="evenodd" d="m140.664 508.433c.083.105.076.267-.016.362-1.261 1.304-2.435 1.918-3.603 1.952-1.164.034-2.28-.51-3.424-1.421-.101-.081-.126-.24-.055-.356s.212-.144.313-.063c1.106.88 2.126 1.359 3.155 1.329 1.025-.03 2.1-.567 3.312-1.82.092-.095.234-.087.318.017z" fill="#35675b" fill-rule="evenodd"/><path clip-rule="evenodd" d="m124.371 486.587c-1.148-.865-2.967-1.474-5.775-1.223-.939.084-1.769-.595-1.855-1.517-.085-.921.607-1.736 1.546-1.82 3.45-.308 6.182.41 8.163 1.902 1.974 1.488 3.01 3.601 3.349 5.727.336 2.111.004 4.314-.844 6.144-.838 1.81-2.284 3.453-4.318 4.073-.901.274-1.857-.219-2.137-1.103-.279-.883.224-1.822 1.124-2.097.81-.247 1.64-.999 2.224-2.26.575-1.241.811-2.783.578-4.239-.229-1.441-.9-2.717-2.055-3.587z" fill="#d1c870" fill-rule="evenodd"/><path clip-rule="evenodd" d="m102.012 467.616c-.297-.065-.589-.098-.873-.098v-1.153c.357 0 .719.041 1.081.121zm3.139 1.913c-.469-.494-.963-.897-1.464-1.209l.523-1.002c.581.363 1.144.824 1.673 1.379zm2.12 3.338c-.273-.653-.584-1.25-.922-1.787l.87-.653c.374.594.714 1.248 1.012 1.961zm1.042 3.965c-.095-.715-.228-1.391-.393-2.027l1.015-.315c.179.686.321 1.413.423 2.177zm.111 4.167c.05-.725.066-1.422.049-2.092l1.055-.031c.018.71.001 1.447-.052 2.21zm-.414 3.12c.068-.35.127-.694.18-1.034l1.04.191c-.054.355-.117.716-.187 1.081z" fill="#f4e97d" fill-rule="evenodd"/><path clip-rule="evenodd" d="m138.507 530.296c.171.165.329.317.469.452.604.583.887.78 1.23 1.018.091.063.185.129.291.205.675.488-.303 1.755-.978 1.267-.461-.334-.918-.684-1.257-.969l-.136.115.74.715.407.393c.763.737-.302 1.755-.977 1.267-.548-.396-1.09-.929-1.437-1.309l-.174.147c.44.505.681.712.966.956.084.072.171.147.269.234.622.553-.094 1.73-1.107.997-.596-.431-1.003-.893-1.278-1.204-.099-.112-.18-.204-.247-.269l.015-.011c-.892-.965-2.309-2.582-2.315-2.947-.007-.4 2.464-2.043 3.7-2.814v-.001c1.754.22 3.61.56 3.275 1.443-.135.354-.698.344-1.456.315z" fill="#ffc7a1" fill-rule="evenodd"/><path clip-rule="evenodd" d="m122.573 487.388c2.244.186 3.885 2.138 3.666 4.36-1.131 11.472.069 18.082 2.198 22.782 1.88 4.151 4.55 7.07 8.013 10.856.579.633 1.179 1.289 1.802 1.98l-6.126 5.422c-.543-.602-1.096-1.203-1.652-1.809-3.449-3.751-7.055-7.674-9.495-13.062-2.9-6.402-4.078-14.546-2.865-26.842.219-2.222 2.215-3.873 4.459-3.687z" fill="#35675b" fill-rule="evenodd"/><path d="m148.194 417.486c3.303 6.727-1.589 15.898-10.927 20.483-9.338 4.586-19.586 2.85-22.889-3.877-3.304-6.727 1.589-15.897 10.927-20.483 9.338-4.585 19.586-2.85 22.889 3.877z" fill="#c5c5c5"/><path d="m121.362 427.6c1.834-1.994 9.214-7.263 20.917-7.764l-4.759 8.85c-4.117.264-13.113.417-16.158-1.086z" fill="#539882"/><path d="m134.425 425.62c22.209-22.392 46.112 8.638 34.745 26.394-16.097-11.31-29.871-22.309-34.745-26.394z" fill="#e1e1e1"/><path d="m171.367 474.697c-1.679-5.231 4.031-12.558-2.825-16.592l-4.057 14.586c.159.809 2.086 1.95 6.882 2.006z" fill="#ffc7a1"/><path d="m167.364 453.401c1.794 17.795-7.972 33.353-21.813 34.748-13.841 1.396-26.516-11.899-28.31-29.695-1.794-17.795 7.972-33.353 21.813-34.748 13.841-1.396 26.516 11.899 28.31 29.695z" fill="#ffc7a1"/><path d="m172.558 457.099c.233 2.307-1.182 4.339-3.159 4.538-1.977.2-3.769-1.509-4.001-3.816-.233-2.306 1.181-4.338 3.159-4.537 1.977-.2 3.769 1.509 4.001 3.815z" fill="#fff"/><path d="m171.339 457.617c.067.659-.414 1.247-1.073 1.314-.659.066-1.247-.414-1.314-1.074-.066-.659.414-1.247 1.073-1.313.66-.067 1.248.414 1.314 1.073z" fill="#000"/><path clip-rule="evenodd" d="m173.906 461.866c.582-1.332.911-3.308.682-5.576-.228-2.269-.945-4.139-1.782-5.328-.895-1.273-1.525-1.292-1.597-1.284-.071.007-.685.151-1.308 1.577-.582 1.332-.912 3.307-.683 5.576s.946 4.139 1.782 5.328c.895 1.273 1.526 1.292 1.597 1.284.072-.007.686-.151 1.309-1.577zm-1.04 4.242c2.966-.299 4.939-4.816 4.408-10.089-.532-5.273-3.367-9.305-6.333-9.006s-4.94 4.816-4.408 10.089 3.367 9.305 6.333 9.006z" fill="#5d8e79" fill-rule="evenodd"/><path d="m171.776 465.317c-3.992-3.511-3.602-10.802-9.106-21.374l-.383 26.218c1.465-.643 5.413-2.513 9.489-4.844z" fill="#ffc7a1"/><path d="m124.292 468.591c.266 2.636-1.923 5.016-4.889 5.315s-5.586-1.596-5.851-4.232c-.266-2.636 1.923-5.016 4.889-5.315s5.585 1.596 5.851 4.232z" fill="#ffc7a1"/><path d="m170.987 484.928c3.855-4.057-.404-11.307-1.706-16.929-8.326 2.866-30.016 10.82-38.907 15.364 9.187 7.261 33.589 8.957 40.613 1.565z" fill="#ffc7a1"/><path clip-rule="evenodd" d="m165.977 454.331c-.424-1.309-.867-2.674-1.339-4.064l.903-.298c.482 1.42.928 2.795 1.354 4.106.634 1.955 1.221 3.766 1.812 5.369.491 1.332.976 2.497 1.48 3.455.507.961 1.018 1.685 1.549 2.158l.462.41-3.681 2.285-.507-.786 2.655-1.649c-.478-.534-.914-1.21-1.324-1.988-.531-1.009-1.033-2.217-1.53-3.566-.595-1.613-1.194-3.459-1.834-5.432z" fill="#ffb685" fill-rule="evenodd"/><path clip-rule="evenodd" d="m166.402 461.514c-1.04.351-2.326.928-4.131 2.045l-1.357-2.394c1.939-1.199 3.401-1.869 4.659-2.293.977-.329 1.83-.506 2.593-.665.201-.042.395-.082.584-.124l.566 2.715c-.237.053-.462.099-.682.145-.741.155-1.412.295-2.232.571z" fill="#91d7b9" fill-rule="evenodd"/><path d="m155.598 469.331c.199 1.973-1.281 3.739-3.306 3.943-2.024.204-3.826-1.231-4.025-3.204-.199-1.974 1.28-3.739 3.305-3.943 2.024-.205 3.827 1.23 4.026 3.204z" fill="#fca7a7"/><path clip-rule="evenodd" d="m152.318 471.578c4.202-.424 7.719-4.704 7.17-10.148s-4.85-8.936-9.051-8.513c-4.202.424-7.719 4.704-7.17 10.148s4.849 8.936 9.051 8.513zm.263 2.604c5.932-.599 10.202-6.426 9.537-13.017-.664-6.591-6.012-11.45-11.944-10.851-5.932.598-10.202 6.426-9.537 13.017.664 6.59 6.012 11.449 11.944 10.851z" fill="#91d7b9" fill-rule="evenodd"/><path d="m157.226 460.452c.266 2.636-1.656 4.989-4.293 5.255-2.636.265-4.989-1.656-5.254-4.293-.266-2.636 1.655-4.989 4.292-5.255 2.636-.266 4.989 1.656 5.255 4.293z" fill="#fff"/><path d="m118.702 464.134c2.842 1.281 18.108 4.667 32.955-23.026-.933-4.011-5.63-12.776-16.966-15.753-20.17 6.287-18.586 37.698-15.989 38.779z" fill="#e1e1e1"/><path d="m168.075 448.511c-5.731-.119-8.872-6.307-16.985-7.348-1.596-4.485-4.507-11.118-16.733-16.204 7.579-4.249 31.492 1.474 33.718 23.552z" fill="#e1e1e1"/><path d="m118.151 463.186c-24.7886-18.901-.835-44.971 17.365-38.695-8.123 18.48-15.121 33.438-17.365 38.695z" fill="#e1e1e1"/><path d="m122.446 474.206c.1.989-.621 1.871-1.609 1.971-.989.1-1.871-.621-1.971-1.61-.1-.988.621-1.87 1.61-1.97.988-.1 1.871.621 1.97 1.609z" fill="#539882"/><path d="m111.008 444.416c-.078-3.494.562-5.309 4.781-12.336-1.234 3.47-1.073 6.71-.453 9.221.329 1.334-.484 4.035-1.768 4.259-.837.146-2.54-.248-2.56-1.144z" fill="#c4c4c4"/><path clip-rule="evenodd" d="m150.371 440.236c.016-.497.436-.888.939-.875 1.522.042 3.076.621 4.569 1.376 1.395.704 2.819 1.607 4.193 2.478.103.065.206.13.308.195 1.49.943 2.913 1.828 4.264 2.451 1.359.627 2.535.934 3.538.833.501-.05.947.309.997.804.05.494-.316.936-.816.986-1.489.15-3.024-.314-4.493-.992-1.478-.681-3-1.632-4.475-2.566-.097-.061-.194-.123-.29-.184-1.394-.883-2.747-1.74-4.059-2.403-1.408-.712-2.674-1.148-3.792-1.179-.503-.014-.898-.428-.883-.924z" fill="#c4c4c4" fill-rule="evenodd"/><path d="m164.297 426.039c-2.036-2.049-5.914-4.856-11.164-6.16 2.957 1.444 5.066 3.818 7.035 7.635.496.962 1.715 1.324 2.835.939 1.333-.457 2.226-1.476 1.294-2.414z" fill="#f0f0f0"/><g clip-rule="evenodd" fill-rule="evenodd"><path d="m122.655 417.144c.147.206.115.5-.072.657l-.013.011c-1.614 1.355-5.643 4.739-6.335 10.249-.032.256-.249.432-.485.393-.236-.04-.401-.279-.369-.535.74-5.887 5.003-9.466 6.624-10.828.015-.012.03-.024.044-.036.187-.157.458-.117.606.089z" fill="#a8a8a8"/><path d="m140.412 413.036c.048-.247.268-.401.492-.342 2.015.526 4.334 1.99 5.914 4.736.124.217.069.501-.122.634-.192.134-.449.067-.573-.149-1.445-2.513-3.565-3.847-5.392-4.324-.224-.059-.366-.307-.319-.555z" fill="#e1e1e1"/><path d="m155.086 444.027c.258.424.123.975-.3 1.233l-8.676 5.274c-.424.257-.975.122-1.233-.301-.257-.423-.122-.975.301-1.232l8.676-5.274c.423-.258.975-.123 1.232.3z" fill="#969696"/><path d="m171.112 446.608c-.176.463-.694.696-1.157.52l-7.2-2.736c-.463-.176-.696-.694-.52-1.157s.694-.696 1.157-.52l7.2 2.736c.463.176.696.694.52 1.157z" fill="#969696"/><path d="m114.137 463.467c.009-.664.615-1.208 1.353-1.214l26.221-.23-.032 2.405-26.221.23c-.738.006-1.33-.527-1.321-1.191z" fill="#91d7b9"/><path d="m145.765 445.015c.384.331.437.918.117 1.312-4.462 5.49-7.706 8.924-10.865 11.291-3.181 2.384-6.235 3.654-10.257 4.888-.478.147-.984-.133-1.13-.626-.145-.492.125-1.011.603-1.158 3.921-1.203 6.76-2.399 9.712-4.61 2.974-2.228 6.103-5.518 10.544-10.983.32-.394.891-.444 1.276-.114z" fill="#c4c4c4"/></g><path d="m148.852 437.183c-1.158-2.69-5.624-9.164-14.13-12.61-.925-.375-3.456-1.289-6.529-.979 6.332 1.233 14.136 6.06 20.659 13.589z" fill="#c4c4c4"/><path clip-rule="evenodd" d="m119.312 467.063c.037.218-.118.424-.345.461-1.217.197-1.761.689-1.999 1.152-.25.488-.207 1.032-.086 1.379.073.209-.044.437-.262.509-.219.072-.455-.039-.528-.248-.172-.494-.241-1.265.13-1.988.383-.748 1.193-1.363 2.613-1.593.227-.037.441.11.477.328z" fill="#ffb685" fill-rule="evenodd"/><circle cx="154.3" cy="461.092" fill="#000" r="1.72298" transform="matrix(.98027152 .19765563 -.19765563 .98027152 94.181534 -21.401619)"/><path d="m160.5 472.5c3.5 2.5 6 0 6.5-1" stroke="#ff8281" stroke-linecap="round"/></g><g filter="url(#n)"><path clip-rule="evenodd" d="m572.649 293.782c.359-.162.776-.015.932.328l.442.978c.155.344-.011.754-.37.916-.359.163-.777.016-.932-.328l-.442-.978c-.155-.343.01-.753.37-.916z" fill="#ffc7a1" fill-rule="evenodd"/><path d="m572.022 295.546c-1.727-2.504-3.183-2.567-5.801-3.737l3.074-5.156c1.379.725 3.852 3.333 5.141 6.261.111 1.411-.808 2.361-2.414 2.632z" fill="#d1c870"/><path d="m575.134 295.62-1.091-.428-.229.143c-.279.173-.587.295-.909.36l-.176.035c.074.189.218.657.336.959.596.131 1.525-.347 2.109-.728.133-.087.107-.283-.04-.341z" fill="#35675b"/><path d="m561.248 288.414-1.216-9.747c-.03-.237-.22-.422-.456-.443l-2.564-.227c-.32-.029-.583.247-.543.567l1.194 9.567c.028.225.2.404.422.439l2.587.407c.33.052.618-.229.576-.563z" fill="#d1c870"/><path d="m565.987 276.047-5.969 2.497 1.261 10.105 5.953-2.62z" fill="#f4e97d"/><path clip-rule="evenodd" d="m556.844 279.373.451-.009.005.255-.165.003.015.124-.256.032zm1.067-.022.616-.013.005.255-.616.013zm1.232-.025.424-.009.045.36-.256.032-.016-.132-.192.004zm-2.117 1.512-.066-.53.256-.032.067.53zm2.648-.669.061.492-.256.032-.061-.492zm-2.515 1.728-.066-.53.256-.032.066.53zm2.637-.745.062.492-.256.032-.062-.492zm-2.505 1.804-.066-.53.256-.032.066.53zm2.628-.82.062.492-.257.032-.061-.492zm.123.984.061.492-.256.032-.061-.492zm-2.619.895-.066-.529.256-.032.066.529zm2.742.089.061.491-.256.032-.061-.492zm-2.61.97-.066-.529.256-.032.066.53zm2.732.013.062.492-.256.032-.062-.492zm-2.6 1.047-.066-.53.256-.032.066.53zm2.723-.063.062.492-.257.032-.061-.492zm-2.59 1.122-.067-.53.256-.032.067.53zm2.713-.138.061.491-.256.032-.061-.491zm-2.647.668.256-.032.021.167.215.028-.035.253-.412-.054zm1.713.58-.628-.082.035-.253.628.082zm1.057-.265.051.41-.48-.063.035-.252.148.019-.01-.082z" fill="#f4e97d" fill-rule="evenodd"/><path d="m565.358 272.028-9.684 3.864 1.303 4.152 9.003-4.036z" fill="#539882"/><path d="m558.635 277.614c.151 1.209-.649 2.304-1.787 2.446-1.137.142-2.182-.723-2.333-1.932s.649-2.304 1.787-2.446 2.182.723 2.333 1.932z" fill="#35675b"/><path clip-rule="evenodd" d="m556.59 279.518c.737-.092 1.309-.886 1.189-1.848-.119-.961-.869-1.59-1.606-1.498-.738.092-1.31.886-1.19 1.847.12.962.87 1.591 1.607 1.499zm.026.209c.891-.111 1.508-1.044 1.379-2.083-.13-1.04-.958-1.792-1.849-1.681s-1.508 1.044-1.378 2.083c.13 1.04.957 1.792 1.848 1.681z" fill="#539882" fill-rule="evenodd"/><path clip-rule="evenodd" d="m556.396 279.058c.553-.069.985-.639.899-1.326-.085-.686-.644-1.133-1.197-1.064s-.985.64-.9 1.326c.086.687.645 1.133 1.198 1.064zm.019.15c.668-.084 1.134-.753 1.042-1.496-.093-.742-.71-1.276-1.378-1.193s-1.135.753-1.042 1.495c.093.743.709 1.277 1.378 1.194z" fill="#539882" fill-rule="evenodd"/><path d="m556.919 277.777c.056.446-.26.852-.706.907-.445.056-.852-.26-.907-.705-.056-.446.26-.852.706-.908.445-.055.851.261.907.706z" fill="#539882"/><path d="m557.675 275.083c1.477-.589 3.349 1.98 2.39 3.614.859-.359 3.678-1.595 6.13-2.658.797-1.266-.633-2.686-1.945-3.455-.198-.116-.441-.123-.652-.03-.962.425-3.358 1.508-5.923 2.529z" fill="#d1c870"/><path d="m562.286 272.959c-2.278.869-4.789 1.885-4.87 2.246.961-.354 1.249-.39 1.208-.385l1.608-.2 3.225-1.339c-.046-.033-.345-.144-1.171-.322z" fill="#d1c870"/><path clip-rule="evenodd" d="m563.528 295.641c.325.223.416.656.202.967l-.607.884c-.214.311-.65.382-.975.159s-.416-.656-.202-.967l.607-.885c.213-.311.65-.382.975-.158z" fill="#ffc7a1" fill-rule="evenodd"/><path d="m561.694 296.02c1.248-2.773.547-4.052.192-6.897l6.002-.042c.094 1.555-.856 5.021-2.691 7.641-1.149.826-2.438.531-3.503-.702z" fill="#f4e97d"/><path d="m561.695 296.019c.981-2.171.856-4.09.03-7.061l1.64.082c.506 1.586.404 5.355-.647 7.876-.491-.28-.757-.588-1.023-.897z" fill="#d1c870"/><path d="m563.243 298.719-.2-1.155-.24-.122c-.293-.149-.557-.349-.78-.591l-.12-.132c-.124.161-.449.527-.647.784.197.578 1.087 1.125 1.716 1.427.143.068.298-.055.271-.211z" fill="#35675b"/><path d="m560.524 289.168c-.088-2.636.584-8.859 3.98-12.666.608-.075 2.326-.001 4.334.903.038 2.78 2.217 7.046 4.055 10.22-1.597 2.055-7.464 3.715-12.369 1.543z" fill="#539882"/><path d="m568.855 277.776c.084.386.912 2.621 1.438 3.591l-1.359.266-.779-2.08z" fill="#539882"/><path d="m560.506 289.02c-.086-2.603.585-8.75 3.96-12.512.403-.05.095-.062.164.489-2.338 4.213-3.656 9.215-2.413 12.625-.849-.251-1.013-.332-1.711-.602z" fill="#468677"/><path d="m569.639 265.916c1.133 1.056 1.644 1.853 1.996 2.072.282.176.28.36.245.43.147.402.496 1.257.71 1.463-.32.188-.456.26-.484.273l-.773-1.489z" fill="#ffc7a1"/><g filter="url(#o)"><path d="m573.102 270.298c.062.136-.165.371-.506.525s-.667.168-.729.031c-.061-.136.165-.371.506-.525s.668-.168.729-.031z" fill="#fca"/></g><path d="m564.951 272.657c-2.186 2.658-3.191 1.383-3.81 1.44 1.226-.999 3.051-1.376 3.81-1.44z" fill="#e1e1e1"/><path d="m570.541 281.894c.064.519-.304.993-.824 1.058s-.994-.304-1.059-.823c-.064-.52.304-.994.824-1.059s.994.304 1.059.824z" fill="#539882"/><path d="m566.87 283.124c.481.161 1.248.154 1.603-.288-.076.628-1.163.94-1.603.288z" fill="#468677"/><path clip-rule="evenodd" d="m568.462 282.856c.022.021.025.058.007.082-.247.327-.493.498-.754.538-.26.04-.525-.051-.807-.223-.025-.015-.035-.05-.022-.078s.043-.038.068-.023c.273.167.515.245.745.21.228-.036.454-.186.691-.501.018-.024.05-.026.072-.005z" fill="#35675b" fill-rule="evenodd"/><path clip-rule="evenodd" d="m564.197 278.416c-.282-.162-.707-.247-1.329-.113-.208.045-.413-.084-.458-.288s.087-.406.295-.451c.765-.165 1.398-.081 1.883.198.485.278.776.723.911 1.19.135.464.122.967-.017 1.401-.137.429-.415.838-.854 1.034-.194.087-.422.003-.51-.188-.087-.19-.001-.414.194-.501.174-.078.339-.27.435-.569.094-.294.104-.646.011-.966-.092-.317-.278-.584-.561-.747z" fill="#d1c870" fill-rule="evenodd"/><path clip-rule="evenodd" d="m558.655 274.787c-.069-.006-.135-.005-.199.003l-.032-.259c.08-.01.162-.011.246-.003zm.757.341c-.119-.097-.241-.174-.362-.23l.089-.239c.14.065.279.153.413.262zm.568.689c-.079-.139-.165-.264-.256-.375l.176-.17c.101.122.195.26.282.411zm.345.86c-.041-.158-.09-.306-.145-.444l.219-.099c.059.149.111.308.155.477zm.141.931c-.009-.164-.025-.321-.047-.47l.235-.037c.024.159.041.325.051.497zm-.005.711c.005-.08.009-.159.011-.237l.239.014c-.003.081-.006.163-.012.247z" fill="#f4e97d" fill-rule="evenodd"/><path clip-rule="evenodd" d="m568.588 287.82c.043.032.082.062.117.088h.001c.151.114.22.15.304.194.022.011.045.023.071.038.165.09-.019.401-.184.311-.113-.062-.225-.128-.309-.182l-.027.029.186.14.102.077c.192.144-.019.402-.184.311-.134-.073-.27-.178-.358-.253l-.035.038c.112.101.172.14.243.187.021.014.043.028.067.045.155.107.027.39-.22.254-.146-.08-.25-.172-.321-.234-.025-.022-.046-.04-.062-.053l.003-.003c-.227-.191-.59-.514-.602-.596-.013-.089.495-.527.751-.734.399 0 .825.024.774.231-.02.084-.146.097-.317.112z" fill="#ffc7a1" fill-rule="evenodd"/><path clip-rule="evenodd" d="m563.817 278.646c.508-.021.931.371.944.875.067 2.603.521 4.052 1.13 5.046.537.878 1.218 1.457 2.1 2.209.147.126.3.256.459.394l-1.221 1.386c-.139-.12-.28-.239-.421-.359-.878-.744-1.797-1.523-2.494-2.662-.829-1.354-1.321-3.147-1.393-5.937-.013-.505.388-.93.896-.952z" fill="#35675b" fill-rule="evenodd"/><path d="m567.606 262.26c.929 1.415.089 3.608-1.876 4.897s-4.311 1.187-5.24-.229c-.929-1.415-.088-3.608 1.877-4.897s4.31-1.187 5.239.229z" fill="#c5c5c5"/><path d="m561.876 265.276c.356-.499 1.863-1.886 4.472-2.326l-.819 2.117c-.916.175-2.928.46-3.653.209z" fill="#539882"/><path d="m564.747 264.467c4.353-5.64 10.579.647 8.528 4.945-3.925-2.085-7.321-4.165-8.528-4.945z" fill="#e1e1e1"/><path d="m574.402 274.436c-.522-1.126.553-2.928-1.097-3.64l-.501 3.383c.058.177.522.379 1.598.257z" fill="#ffc7a1"/><path d="m572.91 269.773c.9 3.939-.854 7.7-3.918 8.4s-6.277-1.926-7.177-5.865.854-7.7 3.918-8.4c3.063-.7 6.277 1.926 7.177 5.865z" fill="#ffc7a1"/><path d="m574.177 270.457c.117.511-.144 1.006-.581 1.106-.438.1-.887-.233-1.004-.744s.144-1.006.581-1.106c.438-.1.887.233 1.004.744z" fill="#fff"/><path d="m573.919 270.606c.033.146-.058.292-.204.325s-.291-.058-.325-.204c-.033-.146.058-.291.204-.324.146-.034.291.057.325.203z" fill="#000"/><path clip-rule="evenodd" d="m574.611 271.487c.093-.315.111-.767-.003-1.269-.115-.503-.328-.902-.549-1.145-.236-.26-.378-.247-.394-.243-.016.003-.149.053-.249.39-.093.315-.112.767.003 1.269s.328.901.549 1.145c.236.26.378.246.393.243.016-.004.15-.053.25-.39zm-.115.98c.657-.15.973-1.218.706-2.385s-1.015-1.992-1.672-1.842c-.656.15-.972 1.218-.705 2.385.266 1.167 1.015 1.992 1.671 1.842z" fill="#5d8e79" fill-rule="evenodd"/><path d="m574.231 272.322c-.993-.676-1.11-2.321-2.639-4.537l.647 5.888c.311-.185 1.143-.715 1.992-1.351z" fill="#ffc7a1"/><path d="m563.677 274.383c.134.583-.29 1.178-.947 1.328-.656.15-1.297-.202-1.43-.785-.133-.584.291-1.178.947-1.328.657-.15 1.297.201 1.43.785z" fill="#ffc7a1"/><path d="m574.603 276.739c.751-1.017-.406-2.523-.856-3.747-1.786.875-6.425 3.265-8.291 4.532 2.262 1.371 7.78 1.069 9.147-.785z" fill="#ffc7a1"/><path clip-rule="evenodd" d="m572.624 270.02c-.132-.281-.27-.575-.414-.873l.194-.092c.147.305.286.6.418.882.197.421.379.81.556 1.153.148.285.289.533.429.733.14.202.275.35.407.441l.115.079-.761.615-.135-.162.549-.444c-.123-.106-.239-.246-.353-.409-.147-.211-.293-.468-.442-.756-.179-.345-.365-.742-.563-1.167z" fill="#ffb685" fill-rule="evenodd"/><path clip-rule="evenodd" d="m572.919 271.62c-.223.108-.495.273-.869.574l-.371-.498c.401-.324.71-.515.98-.645.21-.101.396-.165.563-.221.044-.015.086-.03.127-.044l.203.592c-.051.019-.101.035-.148.052-.162.055-.309.105-.485.19z" fill="#91d7b9" fill-rule="evenodd"/><path d="m570.717 273.674c.1.437-.182.874-.63.977-.448.102-.892-.169-.992-.606s.182-.874.63-.976c.448-.103.893.168.992.605z" fill="#fca7a7"/><path clip-rule="evenodd" d="m570.045 274.269c.93-.212 1.598-1.27 1.323-2.475s-1.337-1.868-2.267-1.655c-.93.212-1.599 1.27-1.323 2.475.275 1.205 1.337 1.868 2.267 1.655zm.131.576c1.313-.3 2.107-1.725 1.774-3.184s-1.668-2.399-2.981-2.099-2.107 1.726-1.774 3.185c.334 1.459 1.668 2.398 2.981 2.098z" fill="#91d7b9" fill-rule="evenodd"/><path d="m570.833 271.638c.134.584-.231 1.165-.815 1.298-.584.134-1.165-.231-1.298-.815-.133-.583.232-1.165.815-1.298.584-.133 1.165.232 1.298.815z" fill="#fff"/><path d="m562.3 273.541c.673.208 4.19.54 6.743-6.084-.321-.873-1.619-2.706-4.244-3.056-4.345 1.973-3.111 8.97-2.499 9.14z" fill="#e1e1e1"/><path d="m572.93 268.657c-1.288.133-2.165-1.166-4.013-1.172-.483-.961-1.321-2.366-4.204-3.165 1.58-1.164 7.1-.55 8.217 4.337z" fill="#e1e1e1"/><path d="m562.151 273.345c-6.086-3.544-1.445-10.058 2.81-9.16-1.304 4.37-2.454 7.918-2.81 9.16z" fill="#e1e1e1"/><path d="m563.42 275.694c.05.219-.087.436-.306.486-.218.05-.436-.086-.486-.305s.087-.437.305-.487c.219-.05.437.087.487.306z" fill="#539882"/><path d="m560.024 269.336c-.116-.782-.023-1.206.726-2.899-.179.812-.052 1.534.157 2.079.111.29.004.918-.277 1.004-.184.057-.577.016-.606-.184z" fill="#c4c4c4"/><path clip-rule="evenodd" d="m568.733 267.297c-.011-.112.072-.211.185-.222.343-.033.707.053 1.063.18.333.119.677.282 1.009.439.025.011.05.023.075.035.36.17.704.328 1.024.43.322.102.595.138.817.088.111-.026.221.043.246.152s-.045.219-.156.244c-.329.075-.686.014-1.035-.097-.35-.111-.718-.282-1.075-.45-.023-.011-.046-.022-.07-.033-.337-.159-.664-.313-.977-.425-.335-.12-.631-.183-.883-.158-.113.011-.213-.071-.223-.183z" fill="#c4c4c4" fill-rule="evenodd"/><path d="m571.456 263.727c-.513-.403-1.461-.923-2.675-1.069.704.241 1.243.714 1.791 1.515.138.202.421.249.662.131.286-.14.457-.393.222-.577z" fill="#f0f0f0"/><g clip-rule="evenodd" fill-rule="evenodd"><path d="m561.871 262.895c.039.042.04.109.003.149l-.003.003c-.324.349-1.132 1.22-1.133 2.475-.001.058-.044.104-.098.101-.054-.002-.098-.051-.098-.109.001-1.34.857-2.262 1.182-2.612.003-.004.006-.007.009-.01.037-.04.099-.039.138.003z" fill="#a8a8a8"/><path d="m565.737 261.479c.004-.057.049-.098.101-.091.466.062 1.027.325 1.458.896.034.045.03.111-.009.146-.04.035-.099.027-.133-.018-.394-.523-.907-.762-1.33-.818-.051-.007-.09-.059-.087-.115z" fill="#e1e1e1"/><path d="m569.894 268.014c.07.088.055.215-.033.285l-1.797 1.425c-.088.069-.215.055-.285-.033-.069-.088-.054-.215.033-.285l1.798-1.425c.087-.069.215-.054.284.033z" fill="#969696"/><path d="m573.559 268.147c-.026.109-.136.175-.244.149l-1.691-.412c-.109-.027-.175-.136-.149-.245.027-.109.136-.175.245-.149l1.691.412c.108.027.175.136.148.245z" fill="#969696"/><path d="m561.259 273.518c-.017-.149.104-.287.269-.31l5.872-.785.06.54-5.871.785c-.166.022-.313-.08-.33-.23z" fill="#91d7b9"/><path d="m567.832 268.498c.096.064.124.194.063.291-.846 1.356-1.478 2.216-2.12 2.835-.646.624-1.295.994-2.162 1.383-.103.046-.224-.003-.271-.109-.046-.106 0-.23.103-.276.845-.38 1.448-.727 2.048-1.305.604-.583 1.214-1.408 2.057-2.757.06-.098.187-.125.282-.062z" fill="#c4c4c4"/></g><path d="m568.304 266.656c-.335-.571-1.517-1.897-3.52-2.432-.218-.058-.811-.192-1.491-.036 1.454.099 3.338.963 5.011 2.468z" fill="#c4c4c4"/><path clip-rule="evenodd" d="m562.52 274.181c.014.048-.015.098-.064.113-.268.078-.376.203-.416.314-.043.116-.018.237.019.312.022.044.002.099-.045.121-.046.022-.102.004-.125-.041-.052-.106-.089-.277-.026-.449.065-.178.229-.339.541-.43.05-.015.102.012.116.06z" fill="#ffb685" fill-rule="evenodd"/><circle cx="570.195" cy="271.863" fill="#000" r=".38923" transform="matrix(.9972017 .07475804 -.07475804 .9972017 21.91952 -41.865907)"/><path d="m571.903 274.246c.854.462 1.345-.168 1.429-.406" stroke="#ff8281" stroke-linecap="round" stroke-width=".225905"/></g><path d="m732 259h63v238h-63z" fill="#f4e97d"/></svg>