<svg fill="none" height="420" viewBox="0 0 313 420" width="313" xmlns="http://www.w3.org/2000/svg" xmlns:xlink="http://www.w3.org/1999/xlink"><filter id="a" color-interpolation-filters="sRGB" filterUnits="userSpaceOnUse" height="69.0489" width="94.0366" x="218" y="284"><feFlood flood-opacity="0" result="BackgroundImageFix"/><feColorMatrix in="SourceAlpha" type="matrix" values="0 0 0 0 0 0 0 0 0 0 0 0 0 0 0 0 0 0 127 0"/><feOffset dx="4" dy="4"/><feGaussianBlur stdDeviation="2"/><feColorMatrix type="matrix" values="0 0 0 0 0 0 0 0 0 0 0 0 0 0 0 0 0 0 0.1 0"/><feBlend in2="BackgroundImageFix" mode="normal" result="effect1_dropShadow"/><feBlend in="SourceGraphic" in2="effect1_dropShadow" mode="normal" result="shape"/></filter><path d="m19.536 26.184v-7.296h-8.352v-6.144h9.552v-7.344h-17.76v33.6h8.208v-12.816zm13.4246-12.384h-8.016v25.2h8.016zm-4.08-1.536c2.544 0 4.512-1.824 4.512-4.32 0-2.544-1.968-4.368-4.512-4.368s-4.464 1.824-4.464 4.368c0 2.496 1.92 4.32 4.464 4.32zm23.4574 26.736h8.016v-13.968c0-5.136-.768-11.856-8.64-11.856-3.168 0-5.376 1.728-6.336 3.216v-2.592h-7.824v25.2h8.016v-15.024c0-2.016 1.248-3.6 3.456-3.6 1.92 0 3.312 1.248 3.312 3.6zm20.4664-25.2h-8.016v25.2h8.016zm-4.08-1.536c2.544 0 4.512-1.824 4.512-4.32 0-2.544-1.968-4.368-4.512-4.368s-4.464 1.824-4.464 4.368c0 2.496 1.92 4.32 4.464 4.32zm16.7374 27.36c5.76 0 10.272-3.168 10.272-8.304 0-9.12-11.616-7.296-11.616-10.464 0-.768.672-1.248 1.824-1.248 1.968 0 3.408 1.2 4.176 1.968l5.184-4.08c-1.488-2.016-4.224-4.32-9.024-4.32-5.472 0-9.696 2.928-9.696 7.776 0 9.168 11.52 7.92 11.52 10.8 0 .912-.72 1.392-2.256 1.392-2.544 0-4.224-1.008-5.568-2.208l-4.512 4.368c1.488 2.016 4.896 4.32 9.696 4.32zm28.1442-.624h8.016v-13.968c0-5.136-.768-11.856-8.64-11.856-3.168 0-5.28 1.728-6.24 3.216v-12.096h-8.0161v34.704h8.0161v-15.024c0-2.016 1.344-3.6 3.552-3.6 1.92 0 3.312 1.248 3.312 3.6zm17.536.624c2.64 0 4.8-2.16 4.8-4.752 0-2.64-2.16-4.8-4.8-4.8s-4.752 2.16-4.752 4.8c0 2.592 2.112 4.752 4.752 4.752zm4.272-34.224h-8.496l.624 23.472h7.248z" fill="#000"/><path d="m70 54v167" stroke="#000"/><path d="m40 396v-145.5l60.5 39v130" stroke="#000"/><path d="m40 259 60.5 39" stroke="#000"/><path d="m40 267 60.5 39" stroke="#000"/><path d="m40 275 60.5 39" stroke="#000"/><path d="m40 283 60.5 39" stroke="#000"/><path d="m46 254.5v32.5" stroke="#000"/><path d="m52 258v32.5" stroke="#000"/><path d="m58 262v32.5" stroke="#000"/><path d="m64 266v32.5" stroke="#000"/><path d="m70 270v32.5" stroke="#000"/><path d="m76 274v32.5" stroke="#000"/><path d="m82 278v32" stroke="#000"/><path d="m88 281.344v32.5" stroke="#000"/><path d="m94 285v32.5" stroke="#000"/><g fill="#000"><path d="m46 254.5-6-3.5v8l6 3.5z"/><path d="m58 262.5-6-4v8.5l6 3.5z"/><path d="m70 270-6-4v8.5l6 3.5z"/><path d="m82 278-6-4v8.5l6 3.5z"/><path d="m94 285.5-6-3.5v8.5l6 3.5z"/><path d="m100 297.5-6-3.5v8.5l6 3.5z"/><path d="m88 289.5-6-3.5v8.5l6 3.5z"/><path d="m76 281.5-6-3.5v8.5l6 3.5z"/><path d="m64 274.5-6-3.5v8.5l6 3.5z"/><path d="m52 266.5-6-3.5v8.5l6 3.5z"/><path d="m46 270.5-6-3.5v8.5l6 3.5z"/><path d="m58 278.5-6-3.5v8.5l6 3.5z"/><path d="m70 286.5-6-4v8l6 3.5z"/><path d="m82 294-6-4v8l6 3.5z"/><path d="m94 302-6-4v8l6 3.5z"/><path d="m100 314-6-4v8l6 3.5z"/><path d="m88 306-6-4v8l6 3.5z"/><path d="m76 298-6-4v8l6 4z"/><path d="m64 290.5-6-4v8l6 4z"/><path d="m52 283-6-4v8l6 4z"/><g filter="url(#a)"><path d="m235.928 300.837 13.935 3.873 15.316-10.71-21.981.607c-.215.011-.424.075-.606.186l-6.955 3.85c-.216.116-.392.291-.504.503-.111.213-.154.453-.123.689s.135.458.299.636c.164.179.379.306.619.366z"/><path d="m301.034 287.374-15.268-3.173c-1.284-.269-2.613-.268-3.897.002s-2.492.802-3.543 1.561l-46.119 32.27-11.075-.467c-.634-.02-1.259.151-1.787.491-.527.34-.931.831-1.153 1.403s-.252 1.198-.086 1.787c.167.59.522 1.114 1.015 1.499l10.784 8.237c.178.138.389.23.614.266.225.037.456.018.671-.056 3.077-1.143 14.54-7 28.087-14.163l2.715 26.856c.023.233.111.455.256.643.144.188.339.334.564.423.224.088.47.117.709.081.24-.036.466-.134.652-.283l6.058-4.854c.332-.267.555-.639.631-1.05l5.743-31.01c9.694-5.18 18.952-10.196 25.471-13.743.676-.354 1.223-.9 1.567-1.564.343-.664.466-1.413.352-2.147-.113-.733-.458-1.415-.988-1.953-.53-.539-1.219-.907-1.973-1.056z"/></g></g><circle cx="281" cy="294" fill="#fff6f0" r="2"/><circle cx="273" cy="299" fill="#fff6f0" r="2"/><circle cx="265" cy="304" fill="#fff6f0" r="2"/><circle cx="257" cy="309" fill="#fff6f0" r="2"/><circle cx="249" cy="314" fill="#fff6f0" r="2"/><circle cx="241" cy="319" fill="#fff6f0" r="2"/><path d="m284 288 3-3.5 12.5 2.5-7 5z" fill="#fff6f0"/></svg>