<svg fill="none" height="36" viewBox="0 0 36 36" width="36" xmlns="http://www.w3.org/2000/svg"><circle cx="18" cy="18" fill="#fff" r="16"/><circle cx="18" cy="18" fill="#ffbd3a" r="16"/><circle cx="18" cy="18" r="16" stroke="#ffbd3a" stroke-width="4"/><rect fill="#000" height="17" rx="2" width="18" x="9" y="14"/><path d="m12.5 10c0-2.48528 2.0147-4.5 4.5-4.5h2c2.4853 0 4.5 2.01472 4.5 4.5v8.5h-11z" stroke="#000" stroke-width="3"/><g fill="#ffbd3a"><path d="m21.5 20.5c0 1.5962-1.5022 3-3.5 3s-3.5-1.4038-3.5-3 1.5022-3 3.5-3 3.5 1.4038 3.5 3z" stroke="#000"/><path d="m16 20h4l-.5 2.5.5 2.5h-4l.5-2.5z"/></g></svg>