<svg fill="none" height="183" viewBox="0 0 111 183" width="111" xmlns="http://www.w3.org/2000/svg" xmlns:xlink="http://www.w3.org/1999/xlink"><filter id="a" color-interpolation-filters="sRGB" filterUnits="userSpaceOnUse" height="182.368" width="110.531" x="0" y="0"><feFlood flood-opacity="0" result="BackgroundImageFix"/><feColorMatrix in="SourceAlpha" type="matrix" values="0 0 0 0 0 0 0 0 0 0 0 0 0 0 0 0 0 0 127 0"/><feOffset dx="4"/><feGaussianBlur stdDeviation="2"/><feColorMatrix type="matrix" values="0 0 0 0 0 0 0 0 0 0 0 0 0 0 0 0 0 0 0.2 0"/><feBlend in2="BackgroundImageFix" mode="normal" result="effect1_dropShadow"/><feBlend in="SourceGraphic" in2="effect1_dropShadow" mode="normal" result="shape"/></filter><mask id="b" fill="#fff"><path clip-rule="evenodd" d="m50.3762 37.4726 19.4608 2.3353 3.8922-7.7843-3.8922-7.7843-19.4607 2.3352z" fill="#fff" fill-rule="evenodd"/></mask><g filter="url(#a)"><g fill="#000"><path d="m44.1489 4h14.0117v174.368h-14.0117z"/><path clip-rule="evenodd" d="m61.2744 18.0117h34.251l7.0056-7.0058-7.0056-7.0059h-34.251z" fill-rule="evenodd"/><path clip-rule="evenodd" d="m50.3762 37.4726 19.4608 2.3353 3.8922-7.7843-3.8922-7.7843-19.4607 2.3352z" fill-rule="evenodd"/></g><path d="m69.837 39.8079-.1855 1.5457 1.0879.1306.4901-.9801zm-19.4608-2.3353h-1.5568l-.0001 1.3812 1.3714.1645zm23.353-5.449 1.3925.6962.3481-.6962-.3481-.6963zm-3.8922-7.7843 1.3925-.6963-.4901-.9801-1.0879.1306zm-19.4607 2.3352-.1855-1.5457-1.3714.1645v1.3812zm19.6462 11.6876-19.4608-2.3353-.371 3.0915 19.4608 2.3353zm2.3142-6.9348-3.8922 7.7843 2.785 1.3925 3.8922-7.7843zm-3.8922-6.3918 3.8922 7.7843 2.785-1.3925-3.8922-7.7843zm-17.8827 3.1848 19.4607-2.3353-.371-3.0915-19.4607 2.3353zm1.3713 9.3523.0001-10.898-3.1138-.0001v10.8981z" fill="#fff" mask="url(#b)"/><path clip-rule="evenodd" d="m41.2568 18.0117h-34.2509l-7.00587772-7.0058 7.00587772-7.0059h34.2509z" fill="#000" fill-rule="evenodd"/></g></svg>