<svg width="130" height="179" viewBox="0 0 130 179" fill="none" xmlns="http://www.w3.org/2000/svg">
<g clip-path="url(#clip0)">
<g opacity="0.03" filter="url(#filter0_f)">
<path d="M104 154C104 161.18 86.9868 167 66 167C45.0132 167 28 161.18 28 154C28 146.82 45.0132 141 66 141C86.9868 141 104 146.82 104 154Z" fill="black"/>
</g>
<path d="M44 112.127V75.878C44 74.9954 43.3883 74.2327 42.532 74.0478L33.2463 72.0423C32.0902 71.7926 31 72.6808 31 73.8725V109.453C31 110.289 31.5497 111.023 32.3469 111.253L41.6327 113.927C42.819 114.268 44 113.371 44 112.127Z" fill="#D1C870"/>
<path d="M67 69L44 75.4167V113L67 106.125V69Z" fill="#F4E97D"/>
<path fill-rule="evenodd" clip-rule="evenodd" d="M32 77L33.657 77.1723L33.5573 78.1079L32.9524 78.045V78.5073H32V77ZM35.9189 77.4075L38.1808 77.6427L38.0811 78.5783L35.8192 78.3431L35.9189 77.4075ZM40.4427 77.8779L42 78.0398V79.3779H41.0476V78.8867L40.343 78.8135L40.4427 77.8779ZM32 82.4468V80.4771H32.9524V82.4468H32ZM42 81.2071V83.0364H41.0476V81.2071H42ZM32 86.3862V84.4165H32.9524V86.3862H32ZM42 84.8656V86.6949H41.0476V84.8656H42ZM32 90.3256V88.3559H32.9524V90.3256H32ZM42 88.5241V90.3534H41.0476V88.5241H42ZM42 92.1827V94.0119H41.0476V92.1827H42ZM32 94.2651V92.2953H32.9524V94.2651H32ZM42 95.8412V97.6704H41.0476V95.8412H42ZM32 98.2045V96.2348H32.9524V98.2045H32ZM42 99.4997V101.329H41.0476V99.4997H42ZM32 102.144V100.174H32.9524V102.144H32ZM42 103.158V104.987H41.0476V103.158H42ZM32 106.083V104.114H32.9524V106.083H32ZM42 106.817V108.646H41.0476V106.817H42ZM32 108.053H32.9524V108.675L33.7283 108.877L33.486 109.787L32 109.401V108.053ZM38.0098 110.963L35.7479 110.375L35.9902 109.465L38.2521 110.053L38.0098 110.963ZM42 110.475V112L40.2717 111.551L40.514 110.641L41.0476 110.78V110.475H42Z" fill="#F4E97D"/>
<path d="M66.5395 54L32 63.2857V80L67 68.8571L66.5395 54Z" fill="#539882"/>
<path d="M39 71.5C39 76.1944 35.866 80 32 80C28.134 80 25 76.1944 25 71.5C25 66.8056 28.134 63 32 63C35.866 63 39 66.8056 39 71.5Z" fill="#35675B"/>
<path fill-rule="evenodd" clip-rule="evenodd" d="M32 77.2222C34.7415 77.2222 37.2 74.5752 37.2 71C37.2 67.4248 34.7415 64.7778 32 64.7778C29.2585 64.7778 26.8 67.4248 26.8 71C26.8 74.5752 29.2585 77.2222 32 77.2222ZM32 78C35.3137 78 38 74.866 38 71C38 67.134 35.3137 64 32 64C28.6863 64 26 67.134 26 71C26 74.866 28.6863 78 32 78Z" fill="#539882"/>
<path fill-rule="evenodd" clip-rule="evenodd" d="M31.5 75.4444C33.5561 75.4444 35.4 73.5537 35.4 71C35.4 68.4463 33.5561 66.5556 31.5 66.5556C29.4439 66.5556 27.6 68.4463 27.6 71C27.6 73.5537 29.4439 75.4444 31.5 75.4444ZM31.5 76C33.9853 76 36 73.7614 36 71C36 68.2386 33.9853 66 31.5 66C29.0147 66 27 68.2386 27 71C27 73.7614 29.0147 76 31.5 76Z" fill="#539882"/>
<path d="M34 71C34 72.6569 32.6569 74 31 74C29.3431 74 28 72.6569 28 71C28 69.3431 29.3431 68 31 68C32.6569 68 34 69.3431 34 71Z" fill="#539882"/>
<path d="M37 61.6719C42.6793 60.1911 48.3587 70.4535 44.0991 76C47.4121 75.0756 58.2974 71.8402 67.763 69.0671C71.2631 64.7944 66.6741 58.9417 62.2217 55.5257C61.5489 55.0095 60.6635 54.8729 59.8456 55.1183C56.1289 56.2335 46.8618 59.1036 37 61.6719Z" fill="#D1C870"/>
<path d="M54.86 56C46.1199 58.143 36.4601 60.7142 36 62C39.68 61.1429 40.7533 61.1429 40.6 61.1429H46.58L59 57.7143C58.8467 57.5714 57.8041 57.0285 54.86 56Z" fill="#D1C870"/>
<g filter="url(#filter1_d)">
<path fill-rule="evenodd" clip-rule="evenodd" d="M74.4999 141.002C75.8807 141.002 76.9999 142.13 76.9999 143.522V147.482C76.9999 148.874 75.8807 150.002 74.4999 150.002C73.1192 150.002 71.9999 148.874 71.9999 147.482V143.522C71.9999 142.13 73.1192 141.002 74.4999 141.002Z" fill="#FFCBA9"/>
<path d="M71.9999 146.694V145.002H73.9999V147.002C73.6296 146.951 72.7111 146.817 71.9999 146.694Z" fill="#EBC8B1"/>
<path d="M66.3597 143.912C65.9864 138.124 64.7918 123.839 62.9999 113.002H82.4118C82.0385 118.917 83.9051 135.517 82.4118 143.912C78.3055 147.155 71.3994 146.201 66.3597 143.912Z" fill="#D1C870"/>
<path fill-rule="evenodd" clip-rule="evenodd" d="M56.9999 142.002C58.6568 142.002 59.9999 143.13 59.9999 144.522V148.482C59.9999 149.874 58.6568 151.002 56.9999 151.002C55.3431 151.002 53.9999 149.874 53.9999 148.482V144.522C53.9999 143.13 55.3431 142.002 56.9999 142.002Z" fill="#FFCBA9"/>
<path d="M53.9999 148.694V147.002H55.9999V149.002C55.6296 148.951 54.7111 148.817 53.9999 148.694Z" fill="#EBC8B1"/>
<path d="M49.2999 144.975C48.9333 139.363 47.76 125.511 45.9999 115.002L67.9999 117.592C67.6333 123.328 66.5333 136.834 65.0666 144.975C61.0333 148.12 54.25 147.195 49.2999 144.975Z" fill="#F4E97D"/>
<path d="M49.3819 145.859C49.0061 140.081 47.8037 125.821 45.9999 115.002L51.4487 116.335C51.0729 122.24 54.0791 138.621 52.576 147.002C51.0729 146.621 50.6971 146.431 49.3819 145.859Z" fill="#D1C870"/>
<path fill-rule="evenodd" clip-rule="evenodd" d="M92.4928 107.215C92.6416 107.346 92.7784 107.467 92.8999 107.574L92.9001 107.574C93.4243 108.038 93.6679 108.191 93.9624 108.377L93.9624 108.377L93.9625 108.377C94.0401 108.426 94.1212 108.477 94.2119 108.537C94.7921 108.919 94.0243 110.01 93.4442 109.628C93.0471 109.367 92.6538 109.092 92.3609 108.867L92.252 108.967L92.8955 109.536L93.2494 109.849C93.9117 110.434 93.0618 111.321 92.4816 110.94C92.0108 110.63 91.5392 110.206 91.2364 109.902L91.0966 110.03C91.4823 110.436 91.6908 110.599 91.9377 110.793L91.9377 110.793C92.01 110.849 92.0855 110.908 92.1698 110.977C92.7085 111.415 92.1553 112.421 91.285 111.849C90.7724 111.511 90.4163 111.142 90.1759 110.893L90.1759 110.893C90.0898 110.803 90.0186 110.729 89.9604 110.678L89.9721 110.669C89.1932 109.898 87.9531 108.602 87.9344 108.298C87.9139 107.965 89.9115 106.506 90.9128 105.818C90.9129 105.818 90.9131 105.818 90.9132 105.818C90.9132 105.818 90.9131 105.818 90.9131 105.818C92.3817 105.936 93.9403 106.151 93.6935 106.899C93.5943 107.199 93.1251 107.211 92.4928 107.215Z" fill="#FFCBA9"/>
<path fill-rule="evenodd" clip-rule="evenodd" d="M71.1018 75.2049C72.8212 74.4993 74.7871 75.3212 75.4927 77.0406C79.3485 86.4365 81.8923 91.5766 84.2855 95.2763C86.5146 98.7224 88.6551 100.995 91.9269 104.47C92.1357 104.691 92.3491 104.918 92.5675 105.15L87.6648 109.761C87.4186 109.5 87.1762 109.242 86.9376 108.989C83.7422 105.599 81.206 102.908 78.6342 98.9318C75.8921 94.6927 73.1593 89.0827 69.2661 79.5958C68.5605 77.8764 69.3824 75.9105 71.1018 75.2049Z" fill="#35675B"/>
<path fill-rule="evenodd" clip-rule="evenodd" d="M74.4935 75.9314C74.78 75.8138 75.1077 75.9507 75.2253 76.2373C79.0972 85.6724 81.6792 90.9685 84.1773 94.8532C86.5165 98.4907 88.789 100.903 92.0322 104.347C92.2468 104.574 92.4657 104.807 92.6892 105.044L91.8721 105.813C91.6436 105.57 91.4195 105.332 91.1996 105.099C87.9699 101.67 85.6306 99.1871 83.2338 95.4599C80.678 91.4854 78.0646 86.1109 74.1875 76.6632C74.0699 76.3766 74.2069 76.049 74.4935 75.9314Z" fill="#407967"/>
<path d="M62.5785 152.08L59.56 148.984L58.5737 149.115C57.3715 149.276 56.1502 149.218 54.9684 148.945L54.3252 148.797C54.285 149.543 54.06 151.336 53.9957 152.531C55.8013 153.88 59.6529 153.682 62.1962 153.287C62.7756 153.198 62.9877 152.5 62.5785 152.08Z" fill="#35675B"/>
<path d="M80.1517 150.313L77.1332 147.216L76.147 147.348C74.9447 147.508 73.7234 147.45 72.5416 147.178L71.8984 147.029C71.8582 147.776 71.6332 149.568 71.569 150.763C73.3746 152.112 77.2261 151.914 79.7694 151.52C80.3488 151.43 80.561 150.733 80.1517 150.313Z" fill="#35675B"/>
<path d="M40.9999 114.564C41.8797 104.871 47.1836 82.3874 61.3606 70C63.6229 70 69.8819 71.0575 76.8196 75.2873C75.6885 85.4842 81.7213 102.101 86.9999 114.564C80.2131 121.362 57.9672 124.761 40.9999 114.564Z" fill="#539882"/>
<path d="M40.9999 114.016C41.8737 104.443 47.1412 82.2382 61.2211 70.0044C62.7189 70.0044 61.5955 69.8179 61.5955 71.8693C51.1105 86.229 43.9957 103.946 46.9914 117C43.9957 115.695 43.434 115.322 40.9999 114.016Z" fill="#468677"/>
<path d="M83.1002 20.6046C85.2777 26.4609 80.4526 33.6588 72.3231 36.6816C64.1935 39.7044 55.838 37.4074 53.6605 31.551C51.4829 25.6947 56.308 18.4968 64.4376 15.474C72.5671 12.4513 80.9226 14.7483 83.1002 20.6046Z" fill="#C5C5C5"/>
<path d="M59.9999 26.7481C61.6874 25.247 68.2499 21.4941 77.9999 22.057L73.3124 29C69.8749 28.8749 62.3999 28.2493 59.9999 26.7481Z" fill="#539882"/>
<path d="M70.9999 26.2002C91.2958 9.48328 108.528 37.2223 97.6144 51C85.2071 40.2718 74.7017 29.9967 70.9999 26.2002Z" fill="#E1E1E1"/>
<path d="M93.9999 40C96.212 45.2727 96.7225 48.7273 97.5732 50C98.2539 51.0182 97.9703 51.6364 97.7434 51.8182C97.63 53.3939 97.5052 56.8 97.9136 57.8182C96.5523 57.9636 95.9851 58 95.8717 58L95.5314 51.8182L93.9999 40Z" fill="#F7C4A2"/>
<path d="M97.5406 70C96.5853 65.52 101.935 59.92 96.5853 56L91.9999 67.76C92.0636 68.4444 93.5666 69.552 97.5406 70Z" fill="#F7C4A2"/>
<path d="M95.9999 52C95.9999 66.9117 86.5979 79 74.9999 79C63.402 79 53.9999 66.9117 53.9999 52C53.9999 37.0883 63.402 25 74.9999 25C86.5979 25 95.9999 37.0883 95.9999 52Z" fill="#FFCBA9"/>
<path d="M99.9999 55.5C99.9999 57.433 98.6568 59 96.9999 59C95.3431 59 93.9999 57.433 93.9999 55.5C93.9999 53.567 95.3431 52 96.9999 52C98.6568 52 99.9999 53.567 99.9999 55.5Z" fill="white"/>
<path d="M99 56C99 56.5523 98.5523 57 98 57C97.4477 57 97 56.5523 97 56C97 55.4477 97.4477 55 98 55C98.5523 55 99 55.4477 99 56Z" fill="black"/>
<g filter="url(#filter2_f)">
<path d="M98.9999 60C98.9999 60.5523 97.8807 61 96.4999 61C95.1192 61 93.9999 60.5523 93.9999 60C93.9999 59.4477 95.1192 59 96.4999 59C97.8807 59 98.9999 59.4477 98.9999 60Z" fill="#FFCCAA"/>
</g>
<path fill-rule="evenodd" clip-rule="evenodd" d="M100.717 59.5688C101.312 58.512 101.75 56.9011 101.75 55C101.75 53.0989 101.312 51.488 100.717 50.4312C100.081 49.3009 99.5598 49.2326 99.4999 49.2326C99.4401 49.2326 98.9184 49.3009 98.2827 50.4312C97.6882 51.488 97.2499 53.0989 97.2499 55C97.2499 56.9011 97.6882 58.512 98.2827 59.5688C98.9184 60.6991 99.4401 60.7674 99.4999 60.7674C99.5598 60.7674 100.081 60.6991 100.717 59.5688ZM99.4999 63C101.985 63 104 59.4183 104 55C104 50.5817 101.985 47 99.4999 47C97.0147 47 94.9999 50.5817 94.9999 55C94.9999 59.4183 97.0147 63 99.4999 63Z" fill="#91D7B9"/>
<path d="M98.6651 62.2525C95.6473 59.0065 96.5807 52.9916 92.8994 43.7617L90.3893 65.4776C91.658 65.0663 95.0893 63.8454 98.6651 62.2525Z" fill="#FFCBA9"/>
<path d="M58.9999 61C58.9999 63.2091 56.9852 65 54.4999 65C52.0147 65 49.9999 63.2091 49.9999 61C49.9999 58.7909 52.0147 57 54.4999 57C56.9852 57 58.9999 58.7909 58.9999 61Z" fill="#FFCBA9"/>
<path d="M96.5574 78.2403C100.094 75.1973 96.0909 68.7726 95.4806 64C88.3345 65.6808 70.755 70.5199 62.9999 73.5453C70.0128 80.3371 90.1129 83.785 96.5574 78.2403Z" fill="#FFCBA9"/>
<path fill-rule="evenodd" clip-rule="evenodd" d="M94.7712 52.6545C94.5283 51.5329 94.275 50.3635 93.9999 49.1711L94.7743 49C95.0552 50.2177 95.3103 51.3959 95.5535 52.5192C95.9159 54.1934 96.2519 55.7454 96.6076 57.1237C96.9035 58.2699 97.2088 59.2773 97.547 60.1137C97.8866 60.9536 98.2502 61.597 98.6513 62.0331L98.9999 62.4123L95.7553 64L95.4003 63.3051L97.7408 62.1598C97.3887 61.6765 97.0836 61.0791 96.8088 60.3996C96.4524 59.5182 96.1375 58.4741 95.838 57.3139C95.4796 55.9257 95.1372 54.3443 94.7712 52.6545Z" fill="#FFCCAA"/>
<path fill-rule="evenodd" clip-rule="evenodd" d="M94.5228 58.6495C93.6307 58.8533 92.5162 59.2244 90.925 60L89.9999 57.901C91.7085 57.0682 92.9772 56.6351 94.0558 56.3887C94.8941 56.1972 95.6164 56.1215 96.2625 56.0538C96.4325 56.036 96.5973 56.0187 96.7575 56L96.9999 58.2994C96.7989 58.3229 96.6081 58.343 96.4225 58.3626C95.7947 58.4288 95.2265 58.4888 94.5228 58.6495Z" fill="#91D7B9"/>
<path fill-rule="evenodd" clip-rule="evenodd" d="M89.0658 65.8599C89.2327 65.7383 89.4666 65.775 89.5882 65.9419C90.0724 66.6065 90.7362 67.0527 91.4893 67.1574C92.2373 67.2614 93.1317 67.0363 94.0969 66.2464C94.2567 66.1157 94.4923 66.1392 94.6231 66.299C94.7539 66.4588 94.7304 66.6944 94.5705 66.8252C93.4794 67.7181 92.382 68.0365 91.3863 67.8981C90.3957 67.7604 89.5639 67.1784 88.9838 66.3823C88.8622 66.2154 88.8989 65.9815 89.0658 65.8599Z" fill="#FF8080"/>
<g filter="url(#filter3_f)">
<path d="M85.9999 63.5C85.9999 64.8807 83.7614 66 80.9999 66C78.2385 66 75.9999 64.8807 75.9999 63.5C75.9999 62.1193 78.2385 61 80.9999 61C83.7614 61 85.9999 62.1193 85.9999 63.5Z" fill="#FFCCAA"/>
</g>
<path fill-rule="evenodd" clip-rule="evenodd" d="M81.9999 65.8182C85.5207 65.8182 88.7959 62.5616 88.7959 58C88.7959 53.4384 85.5207 50.1818 81.9999 50.1818C78.4791 50.1818 75.204 53.4384 75.204 58C75.204 62.5616 78.4791 65.8182 81.9999 65.8182ZM81.9999 68C86.9705 68 90.9999 63.5228 90.9999 58C90.9999 52.4772 86.9705 48 81.9999 48C77.0294 48 72.9999 52.4772 72.9999 58C72.9999 63.5228 77.0294 68 81.9999 68Z" fill="#91D7B9"/>
<path d="M86.9999 57C86.9999 59.2091 85.2091 61 82.9999 61C80.7908 61 78.9999 59.2091 78.9999 57C78.9999 54.7909 80.7908 53 82.9999 53C85.2091 53 86.9999 54.7909 86.9999 57Z" fill="white"/>
<path d="M85 57.5C85 58.3284 84.3284 59 83.5 59C82.6716 59 82 58.3284 82 57.5C82 56.6716 82.6716 56 83.5 56C84.3284 56 85 56.6716 85 57.5Z" fill="black"/>
<path d="M54.7378 56.8306C56.9887 58.1306 69.3689 62.2166 83.9999 40.4867C83.5623 37.0817 80.3984 29.4174 71.2446 26C53.9875 29.5288 52.6744 55.7162 54.7378 56.8306Z" fill="#E1E1E1"/>
<path d="M96.9999 48C92.2554 47.4219 90.1678 42.0259 83.5255 40.4843C82.5766 36.63 80.7167 30.885 70.9999 25.6433C77.6423 22.7526 96.9999 29.4997 96.9999 48Z" fill="#E1E1E1"/>
<path d="M54.3598 56C35.3781 38.2479 57.4283 18.6263 71.9999 25.3541C63.7169 40.0044 56.6606 51.8267 54.3598 56Z" fill="#E1E1E1"/>
<path d="M56.9999 65.5C56.9999 66.3284 56.3284 67 55.4999 67C54.6715 67 53.9999 66.3284 53.9999 65.5C53.9999 64.6716 54.6715 64 55.4999 64C56.3284 64 56.9999 64.6716 56.9999 65.5Z" fill="#539882"/>
<path d="M50.0017 39.8328C50.2293 36.9278 50.9125 35.4762 54.9999 30C53.6856 32.7748 53.5486 35.4761 53.8528 37.6111C54.0144 38.7451 53.114 40.9178 52.0302 40.9962C51.3234 41.0473 49.9433 40.5781 50.0017 39.8328Z" fill="#C4C4C4"/>
<path fill-rule="evenodd" clip-rule="evenodd" d="M83.0064 39.6531C83.0606 39.2424 83.4418 38.9528 83.8577 39.0064C85.1167 39.1685 86.3579 39.7788 87.5333 40.5295C88.6311 41.2306 89.7372 42.0986 90.8039 42.9357C90.884 42.9985 90.9638 43.0612 91.0434 43.1236C92.2001 44.0303 93.3069 44.8837 94.3751 45.5132C95.45 46.1467 96.3994 46.5 97.2404 46.5C97.6599 46.5 97.9999 46.8358 97.9999 47.25C97.9999 47.6642 97.6599 48 97.2405 48C95.9929 48 94.7587 47.4861 93.5967 46.8013C92.428 46.1125 91.2444 45.1963 90.099 44.2984C90.0237 44.2394 89.9487 44.1805 89.8737 44.1217C88.7913 43.2725 87.7411 42.4486 86.7084 41.789C85.5994 41.0807 84.5859 40.6128 83.6613 40.4938C83.2454 40.4402 82.9522 40.0638 83.0064 39.6531Z" fill="#C4C4C4"/>
<path d="M95.7453 29.0438C94.2282 27.1736 91.2463 24.5207 86.9999 23C89.332 24.4456 90.883 26.5905 92.1971 29.9221C92.5281 30.7614 93.509 31.1636 94.4706 30.9381C95.6138 30.6699 96.4398 29.8999 95.7453 29.0438Z" fill="#F0F0F0"/>
<path fill-rule="evenodd" clip-rule="evenodd" d="M61.9453 18.184C62.0504 18.3672 61.9993 18.6086 61.8312 18.7232L61.8193 18.7312C60.3671 19.7206 56.7424 22.1901 55.7072 26.7035C55.6592 26.9132 55.4643 27.0406 55.2719 26.9882C55.0796 26.9358 54.9627 26.7234 55.0107 26.5137C56.1165 21.6925 59.9525 19.0799 61.4112 18.0864C61.4245 18.0773 61.4377 18.0684 61.4507 18.0595C61.6188 17.945 61.8403 18.0007 61.9453 18.184Z" fill="#A8A8A8"/>
<path fill-rule="evenodd" clip-rule="evenodd" d="M77.0177 16.2631C77.078 16.0616 77.2732 15.9527 77.4539 16.0198C79.0813 16.625 80.8833 18.0335 81.9635 20.4433C82.0486 20.6333 81.9796 20.8643 81.8092 20.9593C81.6389 21.0543 81.4318 20.9773 81.3466 20.7873C80.358 18.5818 78.7116 17.2983 77.2358 16.7496C77.0551 16.6824 76.9575 16.4646 77.0177 16.2631Z" fill="#E1E1E1"/>
<path fill-rule="evenodd" clip-rule="evenodd" d="M86.5982 43.1953C86.7763 43.5679 86.6185 44.0144 86.2458 44.1924L78.6079 47.8416C78.2352 48.0196 77.7888 47.8619 77.6107 47.4892C77.4327 47.1165 77.5905 46.6701 77.9631 46.492L85.6011 42.8429C85.9737 42.6648 86.4202 42.8226 86.5982 43.1953Z" fill="#969696"/>
<path fill-rule="evenodd" clip-rule="evenodd" d="M99.6756 46.679C99.4909 47.0485 99.0417 47.1982 98.6723 47.0135L92.9287 44.1419C92.5593 43.9572 92.4096 43.508 92.5943 43.1385C92.779 42.7691 93.2282 42.6194 93.5976 42.8041L99.3411 45.6757C99.7105 45.8604 99.8603 46.3096 99.6756 46.679Z" fill="#969696"/>
<path fill-rule="evenodd" clip-rule="evenodd" d="M51.0059 55.8992C51.0688 55.3491 51.617 54.9489 52.2303 55.0053L73.9999 57.0079L73.7721 59L52.0025 56.9974C51.3892 56.941 50.9429 56.4493 51.0059 55.8992Z" fill="#91D7B9"/>
<path d="M67.9999 55.5735C56.6144 61.1971 55.1686 55.3861 52.9999 54.6362C58.6385 53.1366 65.3493 54.6362 67.9999 55.5735Z" fill="#E1E1E1"/>
<path fill-rule="evenodd" clip-rule="evenodd" d="M78.785 43.2337C79.0763 43.5402 79.0708 44.0316 78.7727 44.3312C74.6121 48.5125 71.634 51.0899 68.8156 52.7888C65.9773 54.4999 63.3378 55.298 59.8988 55.9856C59.4897 56.0674 59.0935 55.7926 59.014 55.3719C58.9344 54.9511 59.2016 54.5437 59.6107 54.4619C62.9641 53.7914 65.419 53.0372 68.0523 51.4498C70.7056 49.8502 73.5765 47.3829 77.7177 43.221C78.0158 42.9215 78.4937 42.9271 78.785 43.2337Z" fill="#C4C4C4"/>
<path d="M81.9999 37C81.2643 34.6716 78.1011 28.9283 71.3333 25.3582C70.5976 24.9701 68.5747 24 65.9999 24C71.1494 25.5522 77.2183 30.209 81.9999 37Z" fill="#C4C4C4"/>
<path fill-rule="evenodd" clip-rule="evenodd" d="M54.9993 59.3125C55.0112 59.4963 54.8657 59.6545 54.6742 59.666C53.6483 59.7275 53.1561 60.09 52.9199 60.455C52.6717 60.8385 52.6614 61.2932 52.7331 61.5917C52.7763 61.771 52.6597 61.95 52.4728 61.9914C52.2858 62.0328 52.0993 61.9209 52.0562 61.7416C51.9543 61.3178 51.9613 60.6725 52.3297 60.1033C52.7101 59.5155 53.4337 59.0724 54.6309 59.0007C54.8224 58.9892 54.9873 59.1288 54.9993 59.3125Z" fill="#FFCCAA"/>
<path fill-rule="evenodd" clip-rule="evenodd" d="M57.6284 112.464C57.6963 112.65 57.7588 112.821 57.8142 112.974L57.8146 112.973C58.0543 113.631 58.1949 113.882 58.365 114.186C58.4099 114.266 58.4568 114.35 58.508 114.446C58.8357 115.058 57.6404 115.65 57.3127 115.038C57.0886 114.619 56.8743 114.19 56.7244 113.853L56.5801 113.889L56.8739 114.695L57.0356 115.139C57.3383 115.97 56.168 116.344 55.8403 115.731C55.5745 115.235 55.3627 114.637 55.2416 114.226L55.0572 114.272C55.2024 114.812 55.3077 115.055 55.4324 115.342L55.4324 115.342C55.4689 115.426 55.5071 115.514 55.5484 115.615C55.8126 116.257 54.8464 116.877 54.3548 115.959C54.0653 115.418 53.9286 114.923 53.8364 114.589L53.8364 114.589C53.8034 114.47 53.7761 114.371 53.7494 114.298L53.7648 114.295C53.4482 113.246 52.9772 111.516 53.1056 111.241C53.2464 110.938 55.6981 110.609 56.9064 110.483C56.9065 110.482 56.9066 110.482 56.9067 110.482C58.1408 111.287 59.4077 112.22 58.8341 112.759C58.6037 112.975 58.1856 112.762 57.6284 112.464Z" fill="#FFCBA9"/>
<path d="M80.9999 92.502C80.9999 94.4349 79.4329 96.002 77.4999 96.002C75.5669 96.002 73.9999 94.4349 73.9999 92.502C73.9999 90.569 75.5669 89.002 77.4999 89.002C79.4329 89.002 80.9999 90.569 80.9999 92.502Z" fill="#539882"/>
<path d="M76.5999 80.002C76.9333 81.4213 78.9999 86.3891 80.9999 89.9374L75.9999 91.002L72.9999 83.3729L76.5999 80.002Z" fill="#539882"/>
<path d="M66.9999 95.3255C68.6875 96.1345 71.4999 96.4582 72.9999 95.002C72.4374 97.2671 68.3124 97.9143 66.9999 95.3255Z" fill="#468677"/>
<path fill-rule="evenodd" clip-rule="evenodd" d="M72.9512 95.0717C73.0208 95.1589 73.0152 95.2937 72.9386 95.3729C71.8867 96.4602 70.9081 96.9723 69.9344 97.0007C68.9636 97.029 68.0333 96.5751 67.0799 95.8162C66.9951 95.7487 66.9745 95.6158 67.0339 95.5193C67.0932 95.4228 67.2102 95.3994 67.295 95.4669C68.2166 96.2005 69.0675 96.5994 69.9248 96.5744C70.7793 96.5495 71.6757 96.1021 72.6863 95.0574C72.7629 94.9782 72.8815 94.9846 72.9512 95.0717Z" fill="#35675B"/>
<path fill-rule="evenodd" clip-rule="evenodd" d="M61.3511 74.4861C62.965 75.4444 63.4826 77.5066 62.5071 79.0921C57.471 87.2779 55.9574 92.6707 55.8369 96.9706C55.7306 100.768 56.6662 103.931 57.8796 108.033C58.0823 108.718 58.2928 109.43 58.5074 110.175L51.9363 112.002C51.7492 111.353 51.5545 110.7 51.3583 110.043C50.1431 105.973 48.8722 101.715 49.0103 96.7861C49.1743 90.9293 51.265 84.3949 56.6625 75.6218C57.638 74.0363 59.7371 73.5278 61.3511 74.4861Z" fill="#35675B"/>
</g>
<mask id="mask0" mask-type="alpha" maskUnits="userSpaceOnUse" x="50" y="71" width="19" height="21">
<path d="M56.9232 92C56.9232 90.6304 58.7694 86.5217 60.154 83.7826L50.0001 76.9348V72.3696L58.3078 71L66.6155 74.1957L68.0001 91.5435L56.9232 92Z" fill="#C4C4C4"/>
</mask>
<g mask="url(#mask0)">
</g>
<mask id="mask1" mask-type="alpha" maskUnits="userSpaceOnUse" x="50" y="70" width="20" height="23">
<path fill-rule="evenodd" clip-rule="evenodd" d="M58.8374 70L67.5519 73.5055L69.0001 92.4801L56.938 93V92.5012C56.938 92.0641 57.0734 91.4658 57.2696 90.812C57.4701 90.1436 57.7501 89.3672 58.0707 88.5531C58.658 87.0622 59.3902 85.4234 60.0448 84.05L50.0001 76.9659V71.5235L58.8374 70ZM50.9252 72.3341V76.4602L61.2327 83.7297L61.052 84.1035C60.3619 85.5311 59.5578 87.3137 58.9274 88.9141C58.6121 89.7147 58.3428 90.4633 58.1531 91.0956C58.0471 91.449 57.9704 91.7519 57.9226 91.9999L68.0024 91.5655L66.6754 74.1796L58.7389 70.987L50.9252 72.3341Z" fill="black"/>
</mask>
<g mask="url(#mask1)">
<path fill-rule="evenodd" clip-rule="evenodd" d="M59.3669 76.8601C58.4098 76.1389 56.893 75.6314 54.5519 75.8403C53.7693 75.9101 53.0772 75.344 53.0061 74.5758C52.9349 73.8077 53.5117 73.1283 54.2943 73.0585C57.1706 72.8019 59.4483 73.4001 61.0998 74.6444C62.7455 75.8844 63.6094 77.6461 63.8921 79.4187C64.1728 81.1786 63.8953 83.0157 63.1888 84.541C62.4898 86.0498 61.2846 87.4195 59.5883 87.9367C58.8379 88.1656 58.0405 87.754 57.8073 87.0174C57.5742 86.2808 57.9936 85.4981 58.744 85.2693C59.4193 85.0633 60.1113 84.4359 60.5981 83.3849C61.0774 82.3503 61.2742 81.0648 61.0805 79.8507C60.8889 78.6493 60.3299 77.5857 59.3669 76.8601Z" fill="#D1C870"/>
</g>
<path fill-rule="evenodd" clip-rule="evenodd" d="M40.7279 61.0429C40.4804 60.9884 40.2369 60.9614 40 60.9614L40 60C40.2982 60 40.6 60.0341 40.9018 60.1005L40.7279 61.0429ZM43.3453 62.6374C42.9538 62.2262 42.5421 61.89 42.1244 61.6297L42.5605 60.7947C43.0448 61.0966 43.5143 61.4815 43.9551 61.9442L43.3453 62.6374ZM45.1125 65.4208C44.8847 64.8758 44.6259 64.3788 44.3442 63.9311L45.0692 63.3865C45.3807 63.8813 45.6645 64.4271 45.9129 65.0215L45.1125 65.4208ZM45.9814 68.7263C45.9024 68.1303 45.7915 67.5667 45.6536 67.0363L46.5 66.7736C46.6488 67.346 46.7677 67.9514 46.8522 68.5886L45.9814 68.7263ZM46.0738 72.2003C46.1159 71.5962 46.1285 71.0148 46.1148 70.4564L46.9944 70.4305C47.0089 71.0227 46.9955 71.6371 46.9512 72.2732L46.0738 72.2003ZM45.7289 74.8019C45.7851 74.5102 45.8348 74.2226 45.8784 73.9393L46.7461 74.0986C46.7006 74.395 46.6486 74.6955 46.5899 75L45.7289 74.8019Z" fill="#F4E97D"/>
</g>
<defs>
<filter id="filter0_f" x="14" y="127" width="104" height="54" filterUnits="userSpaceOnUse" color-interpolation-filters="sRGB">
<feFlood flood-opacity="0" result="BackgroundImageFix"/>
<feBlend mode="normal" in="SourceGraphic" in2="BackgroundImageFix" result="shape"/>
<feGaussianBlur stdDeviation="7" result="effect1_foregroundBlur"/>
</filter>
<filter id="filter1_d" x="35.3202" y="-1.35949" width="85.719" height="166.546" filterUnits="userSpaceOnUse" color-interpolation-filters="sRGB">
<feFlood flood-opacity="0" result="BackgroundImageFix"/>
<feColorMatrix in="SourceAlpha" type="matrix" values="0 0 0 0 0 0 0 0 0 0 0 0 0 0 0 0 0 0 127 0"/>
<feOffset dx="5.67975"/>
<feGaussianBlur stdDeviation="5.67975"/>
<feColorMatrix type="matrix" values="0 0 0 0 0 0 0 0 0 0 0 0 0 0 0 0 0 0 0.18 0"/>
<feBlend mode="normal" in2="BackgroundImageFix" result="effect1_dropShadow"/>
<feBlend mode="normal" in="SourceGraphic" in2="effect1_dropShadow" result="shape"/>
</filter>
<filter id="filter2_f" x="89.4367" y="54.4368" width="14.1264" height="11.1264" filterUnits="userSpaceOnUse" color-interpolation-filters="sRGB">
<feFlood flood-opacity="0" result="BackgroundImageFix"/>
<feBlend mode="normal" in="SourceGraphic" in2="BackgroundImageFix" result="shape"/>
<feGaussianBlur stdDeviation="2.2816" result="effect1_foregroundBlur"/>
</filter>
<filter id="filter3_f" x="69.3833" y="54.3834" width="23.2333" height="18.2333" filterUnits="userSpaceOnUse" color-interpolation-filters="sRGB">
<feFlood flood-opacity="0" result="BackgroundImageFix"/>
<feBlend mode="normal" in="SourceGraphic" in2="BackgroundImageFix" result="shape"/>
<feGaussianBlur stdDeviation="3.30832" result="effect1_foregroundBlur"/>
</filter>
<clipPath id="clip0">
<rect width="130" height="179" fill="white"/>
</clipPath>
</defs>
</svg>
