<svg width="130" height="179" viewBox="0 0 130 179" fill="none" xmlns="http://www.w3.org/2000/svg">
<g clip-path="url(#clip0)">
<path fill-rule="evenodd" clip-rule="evenodd" d="M52.0088 129.121C53.5409 129.121 54.7828 130.363 54.7828 131.895L54.7828 148.878C54.7828 150.41 53.5409 151.652 52.0088 151.652C50.4768 151.652 49.2349 150.41 49.2349 148.878L49.2349 131.895C49.2349 130.363 50.4768 129.121 52.0088 129.121Z" fill="#FFCBA9"/>
<path d="M49.1521 148.8V132.936H50.9354V149.197C50.6051 149.131 49.7862 148.959 49.1521 148.8Z" fill="#F2BF9D"/>
<path d="M54.7814 144.719V149.051L52.2607 149.918L49.0626 148.705L49.1425 144.719H54.7814Z" fill="white"/>
<path fill-rule="evenodd" clip-rule="evenodd" d="M49.1292 145.238H54.7822V145.585H49.1292V145.238Z" fill="#BD4747"/>
<path fill-rule="evenodd" clip-rule="evenodd" d="M49.1159 145.934H54.7816V146.28H49.1159V145.934Z" fill="#476FBD"/>
<path d="M54.9219 132.604C56.0241 133.476 55.1386 134.742 54.5572 135.267L54.0551 133.928L54.9219 132.604Z" fill="#FFCBA9"/>
<path fill-rule="evenodd" clip-rule="evenodd" d="M54.3027 132.389C54.4214 132.239 54.6394 132.214 54.7895 132.332C55.118 132.592 55.3169 132.898 55.4005 133.23C55.483 133.558 55.4459 133.882 55.3535 134.172C55.1718 134.742 54.7583 135.239 54.4409 135.525C54.2988 135.653 54.0796 135.642 53.9514 135.5C53.8233 135.357 53.8346 135.138 53.9767 135.01C54.2408 134.772 54.5616 134.374 54.693 133.961C54.7572 133.76 54.7715 133.571 54.7283 133.399C54.6862 133.232 54.5824 133.052 54.3595 132.876C54.2094 132.757 54.1839 132.539 54.3027 132.389Z" fill="#F2BF9D"/>
<path d="M57.8992 152.189L54.7001 148.907L53.6549 149.047C52.3807 149.216 51.0864 149.155 49.8338 148.866L49.1522 148.709C49.1096 149.5 48.8711 151.4 48.803 152.666C50.7166 154.096 54.7986 153.886 57.494 153.468C58.1081 153.373 58.3329 152.634 57.8992 152.189Z" fill="#35675B"/>
<g opacity="0.03" filter="url(#filter0_f)">
<path d="M101.091 155.635C101.091 163.292 84.9529 169.499 65.0455 169.499C45.1381 169.499 29 163.292 29 155.635C29 147.978 45.1381 141.771 65.0455 141.771C84.9529 141.771 101.091 147.978 101.091 155.635Z" fill="black"/>
</g>
<g filter="url(#filter1_d)">
<path fill-rule="evenodd" clip-rule="evenodd" d="M70.2435 129.119C71.7756 129.119 73.0175 130.361 73.0175 131.893L73.0175 148.876C73.0175 150.408 71.7756 151.65 70.2435 151.65C68.7115 151.65 67.4696 150.408 67.4696 148.876L67.4696 131.893C67.4696 130.361 68.7115 129.119 70.2435 129.119Z" fill="#FFCBA9"/>
<path d="M67.3868 148.798V132.934H69.17V149.195C68.8398 149.129 68.0209 148.957 67.3868 148.798Z" fill="#F2BF9D"/>
<path d="M73.017 144.717V149.049L70.4964 149.916L67.2983 148.703L67.3782 144.717H73.017Z" fill="white"/>
<path fill-rule="evenodd" clip-rule="evenodd" d="M67.363 145.238H73.0159V145.585H67.363V145.238Z" fill="#BD4747"/>
<path fill-rule="evenodd" clip-rule="evenodd" d="M67.3516 145.93H73.0173V146.276H67.3516V145.93Z" fill="#476FBD"/>
<path d="M73.1566 132.603C74.2588 133.474 73.3733 134.74 72.7919 135.265L72.2897 133.926L73.1566 132.603Z" fill="#FFCBA9"/>
<path fill-rule="evenodd" clip-rule="evenodd" d="M72.5383 132.387C72.6571 132.237 72.8751 132.212 73.0252 132.33C73.3537 132.59 73.5526 132.896 73.6361 133.228C73.7186 133.556 73.6816 133.88 73.5891 134.17C73.4074 134.74 72.9939 135.237 72.6766 135.523C72.5344 135.651 72.3153 135.64 72.1871 135.498C72.0589 135.355 72.0702 135.136 72.2124 135.008C72.4765 134.77 72.7972 134.372 72.9287 133.959C72.9928 133.758 73.0071 133.569 72.9639 133.397C72.9218 133.23 72.8181 133.051 72.5951 132.874C72.445 132.755 72.4196 132.537 72.5383 132.387Z" fill="#F2BF9D"/>
<path d="M61.3769 131.986C60.9758 128.399 59.6923 119.548 57.767 112.832H78.6238C78.2227 116.497 80.2282 126.783 78.6238 131.986C74.2118 133.996 66.7916 133.404 61.3769 131.986Z" fill="#D1C870"/>
<path d="M43.2789 132.765C42.8861 129.422 41.6292 121.17 39.7437 114.91L63.3119 116.453C62.9191 119.87 61.7407 127.916 60.1695 132.765C55.8486 134.639 48.5818 134.088 43.2789 132.765Z" fill="#F4E97D"/>
<path fill-rule="evenodd" clip-rule="evenodd" d="M90.2001 107.5C90.3576 107.639 90.5024 107.767 90.6311 107.881L90.6313 107.881C91.1869 108.372 91.445 108.535 91.7571 108.732C91.8394 108.784 91.9254 108.838 92.0216 108.901C92.6365 109.306 91.8228 110.462 91.2079 110.058C90.7872 109.781 90.3704 109.489 90.0601 109.251L89.9443 109.357L90.6246 109.959L91.0011 110.292C91.7031 110.912 90.8023 111.852 90.1874 111.448C89.6885 111.12 89.1888 110.67 88.8679 110.348L88.7198 110.484C89.1284 110.914 89.3494 111.087 89.611 111.292C89.6876 111.352 89.7677 111.414 89.857 111.487C90.4279 111.952 89.8416 113.018 88.9193 112.411C88.376 112.054 87.9986 111.662 87.7439 111.398L87.7439 111.398L87.7439 111.398C87.6526 111.303 87.5771 111.225 87.5154 111.17L87.5281 111.16C86.7026 110.343 85.3886 108.97 85.3687 108.648C85.347 108.295 87.4638 106.749 88.5251 106.02C88.5251 106.02 88.5251 106.02 88.5251 106.019C90.0815 106.145 91.7333 106.373 91.4717 107.165C91.3667 107.483 90.8698 107.496 90.2001 107.5Z" fill="#FFCBA9"/>
<path fill-rule="evenodd" clip-rule="evenodd" d="M67.5291 73.5754C69.3513 72.8276 71.4348 73.6986 72.1826 75.5209C76.2691 85.4788 78.9651 90.9264 81.5014 94.8474C83.8639 98.4996 86.1324 100.909 89.5999 104.591C89.8212 104.826 90.0474 105.066 90.2788 105.312L85.0829 110.199C84.8219 109.921 84.5651 109.649 84.3121 109.381C80.9256 105.787 78.2377 102.935 75.5121 98.7216C72.606 94.2289 69.7097 88.2833 65.5836 78.2289C64.8358 76.4067 65.7068 74.3232 67.5291 73.5754Z" fill="#35675B"/>
<path fill-rule="evenodd" clip-rule="evenodd" d="M71.1247 74.3417C71.4284 74.2171 71.7756 74.3623 71.9003 74.666C76.0038 84.6655 78.7403 90.2783 81.3878 94.3954C83.8669 98.2505 86.2753 100.808 89.7125 104.457C89.94 104.698 90.172 104.944 90.4088 105.196L89.5428 106.011C89.3007 105.753 89.0632 105.501 88.8302 105.254C85.4073 101.62 82.9281 98.9885 80.3879 95.0384C77.6791 90.8262 74.9095 85.1302 70.8004 75.1173C70.6758 74.8136 70.821 74.4664 71.1247 74.3417Z" fill="#407967"/>
<path d="M76.1339 152.187L72.9348 148.905L71.8896 149.045C70.6154 149.215 69.321 149.153 68.0685 148.864L67.3869 148.707C67.3443 149.498 67.1058 151.398 67.0377 152.664C68.9513 154.094 73.0333 153.884 75.7287 153.466C76.3427 153.371 76.5676 152.632 76.1339 152.187Z" fill="#35675B"/>
<path d="M34.8914 114.123C35.8161 103.951 41.3905 80.3593 56.2907 67.3613C58.6684 67.3613 65.2467 68.4709 72.5383 72.9093C76.832 79.3378 78.2154 83.5435 82.5058 90.8219C89.133 102.433 88.5813 118.103 81.8515 120.361C73.1569 118.391 52.7242 124.822 34.8914 114.123Z" fill="#539882"/>
<mask id="mask0" mask-type="alpha" maskUnits="userSpaceOnUse" x="34" y="67" width="54" height="54">
<path d="M34.8914 114.189C35.8161 104.018 41.3905 80.4258 56.2907 67.4277C58.6684 67.4277 65.2467 68.5373 72.5383 72.9757C76.832 79.4042 78.2154 83.6099 82.5058 90.8883C89.133 102.499 88.5813 118.169 81.8515 120.428C73.1569 118.457 52.7242 124.889 34.8914 114.189Z" fill="#539882"/>
</mask>
<g mask="url(#mask0)">
<path d="M34.8915 114.123C35.8162 103.952 41.3906 80.3601 56.2907 67.3621C57.8759 67.3621 56.687 67.1639 56.687 69.3435C45.5911 84.6003 38.0618 103.424 41.232 117.294C38.0618 115.907 37.4673 115.51 34.8915 114.123Z" fill="#468677"/>
<path fill-rule="evenodd" clip-rule="evenodd" d="M37.8415 120.017C40.64 94.271 55.1955 73.0543 62.1587 65.623L63.4233 66.808C56.6383 74.0491 42.3113 94.9318 39.5643 120.204L37.8415 120.017Z" fill="black" fill-opacity="0.12"/>
<path fill-rule="evenodd" clip-rule="evenodd" d="M44.4266 120.017C47.225 94.271 61.7806 73.0543 68.7438 65.623L70.0084 66.808C63.2234 74.0491 48.8964 94.9318 46.1494 120.204L44.4266 120.017Z" fill="black" fill-opacity="0.12"/>
<path fill-rule="evenodd" clip-rule="evenodd" d="M32.9893 117.071C35.7877 91.3256 50.3433 70.109 57.3065 62.6777L58.571 63.8626C51.7861 71.1037 37.4591 91.9864 34.7121 117.259L32.9893 117.071Z" fill="black" fill-opacity="0.12"/>
<path fill-rule="evenodd" clip-rule="evenodd" d="M51.0126 120.017C53.8111 94.271 68.3667 73.0543 75.3298 65.623L76.5944 66.808C69.8094 74.0491 55.4824 94.9318 52.7354 120.204L51.0126 120.017Z" fill="black" fill-opacity="0.12"/>
<path fill-rule="evenodd" clip-rule="evenodd" d="M79.8273 85.2073C69.4187 79.552 57.2606 73.8711 50.2 70.6584L50.7742 69.3965C57.842 72.6125 70.0363 78.3097 80.4892 83.9892C85.7127 86.8273 90.522 89.672 94.0432 92.2085C95.8017 93.4753 97.2621 94.6815 98.2952 95.7866C99.2969 96.858 100.022 97.9628 100.049 99.0205L98.6635 99.057C98.6502 98.5509 98.2584 97.7772 97.2825 96.7334C96.338 95.7231 94.9597 94.5774 93.2328 93.3334C89.7831 90.8483 85.0344 88.0365 79.8273 85.2073ZM77.3083 90.0657C66.7723 84.3204 54.4866 78.5495 47.4273 75.3373L48.0015 74.0755C55.0706 77.2921 67.392 83.0792 77.9721 88.8485C83.2592 91.7316 88.1318 94.6211 91.7002 97.191C93.4823 98.4744 94.9622 99.6944 96.0089 100.809C97.0228 101.888 97.7582 102.999 97.7861 104.059L96.4002 104.096C96.387 103.592 95.99 102.813 94.9984 101.758C94.0397 100.737 92.6411 99.577 90.89 98.316C87.3921 95.7969 82.5792 92.9399 77.3083 90.0657ZM73.324 94.5749C62.959 88.8272 50.8442 83.0537 43.7881 79.843L44.3622 78.5812C51.4345 81.7992 63.5861 87.5897 73.9963 93.3625C79.1987 96.2473 83.9862 99.1387 87.4908 101.71C89.2412 102.995 90.6942 104.215 91.7218 105.331C92.7184 106.412 93.4375 107.522 93.4653 108.577L92.0794 108.613C92.066 108.104 91.674 107.324 90.7024 106.27C89.7618 105.25 88.3896 104.089 86.6707 102.828C83.2368 100.308 78.5094 97.4504 73.324 94.5749ZM69.7792 98.7399C59.8019 93.25 48.0748 87.7342 41.0153 84.522L41.5895 83.2601C48.6585 86.4767 60.4236 92.0097 70.4476 97.5253C75.4566 100.281 80.052 103.045 83.413 105.521C85.0916 106.757 86.4853 107.939 87.4715 109.028C88.4308 110.087 89.1169 111.178 89.1444 112.226L87.7585 112.262C87.745 111.746 87.3683 110.979 86.444 109.959C85.5468 108.968 84.2362 107.849 82.5907 106.637C79.3034 104.215 74.7708 101.486 69.7792 98.7399ZM69.003 104.729C58.6347 99.104 46.5168 93.4537 39.4557 90.2408L40.0299 88.9789C47.0972 92.1947 59.2514 97.8614 69.6641 103.51C74.8676 106.333 79.657 109.162 83.1632 111.688C84.9143 112.949 86.3686 114.15 87.3974 115.252C88.3953 116.321 89.1166 117.424 89.1444 118.481L87.7585 118.517C87.7452 118.01 87.355 117.238 86.3841 116.198C85.4442 115.192 84.0723 114.051 82.353 112.813C78.9185 110.339 74.1901 107.543 69.003 104.729ZM66.4264 109.669C56.2159 103.912 44.256 98.1291 37.2028 94.9197L37.777 93.6579C44.8523 96.8773 56.8506 102.678 67.1073 108.461C72.2329 111.351 76.9436 114.248 80.3906 116.824C82.1122 118.11 83.5408 119.333 84.5512 120.45C85.532 121.534 86.2362 122.643 86.2639 123.693L84.878 123.73C84.8645 123.216 84.4769 122.434 83.5232 121.38C82.5991 120.359 81.2506 119.197 79.5607 117.935C76.1847 115.412 71.5344 112.549 66.4264 109.669ZM64.7206 115.482C54.5833 109.764 42.6965 104.021 35.6432 100.812L36.2174 99.5499C43.2924 102.769 55.2178 108.531 65.4017 114.274C70.4908 117.145 75.1652 120.022 78.585 122.583C80.293 123.862 81.7104 125.079 82.7129 126.191C83.6866 127.272 84.3845 128.378 84.4121 129.427L83.0262 129.463C83.0126 128.948 82.6278 128.168 81.683 127.119C80.7669 126.103 79.4301 124.948 77.754 123.693C74.4056 121.185 69.792 118.342 64.7206 115.482ZM63.2547 120.512C53.416 114.878 41.828 109.219 34.7767 106.011L35.3509 104.749C42.428 107.969 54.0567 113.648 63.9436 119.309C68.8843 122.137 73.4104 124.973 76.7192 127.504C78.3718 128.768 79.7428 129.973 80.7125 131.077C81.6563 132.152 82.3271 133.25 82.3545 134.292L80.9687 134.328C80.9549 133.806 80.5802 133.028 79.6707 131.992C78.787 130.986 77.4968 129.845 75.8769 128.606C72.6408 126.13 68.1768 123.33 63.2547 120.512ZM60.7255 125.243C51.8916 120.068 41.3078 114.867 34.2568 111.658L34.831 110.397C41.9084 113.617 52.5379 118.84 61.4263 124.047C65.8676 126.649 69.896 129.259 72.8322 131.623C74.299 132.803 75.5147 133.94 76.3751 134.999C77.2188 136.037 77.8012 137.097 77.8279 138.114L76.4421 138.151C76.4277 137.604 76.0897 136.846 75.2992 135.873C74.5254 134.921 73.3929 133.854 71.9628 132.703C69.1054 130.402 65.1453 127.832 60.7255 125.243Z" fill="black" fill-opacity="0.12"/>
<path fill-rule="evenodd" clip-rule="evenodd" d="M58.2905 120.017C61.0889 94.271 75.6445 73.0543 82.6077 65.623L83.8722 66.808C77.0873 74.0491 62.7603 94.9318 60.0133 120.204L58.2905 120.017Z" fill="black" fill-opacity="0.12"/>
<path fill-rule="evenodd" clip-rule="evenodd" d="M75.4656 86.9205C80.3084 77.0216 85.6824 69.3704 89.1937 65.623L90.4583 66.808C87.0956 70.3967 81.8119 77.8917 77.0223 87.682C72.2367 97.4643 67.9719 109.482 66.5993 122.11L64.8765 121.923C66.2766 109.042 70.619 96.8275 75.4656 86.9205Z" fill="black" fill-opacity="0.12"/>
<path fill-rule="evenodd" clip-rule="evenodd" d="M71.808 121.059C74.6256 94.7419 89.282 73.0524 96.2942 65.4551L97.5677 66.6304C90.7328 74.0357 76.2988 95.3931 73.5311 121.243L71.808 121.059Z" fill="black" fill-opacity="0.12"/>
<path fill-rule="evenodd" clip-rule="evenodd" d="M78.3931 120.017C81.1915 94.271 95.7471 73.0543 102.71 65.623L103.975 66.808C97.1899 74.0491 82.8629 94.9318 80.1159 120.204L78.3931 120.017Z" fill="black" fill-opacity="0.12"/>
<path fill-rule="evenodd" clip-rule="evenodd" d="M83.939 123.31C86.7375 97.5639 101.293 76.3473 108.256 68.916L109.521 70.1009C102.736 77.342 88.4088 98.2247 85.6618 123.497L83.939 123.31Z" fill="black" fill-opacity="0.12"/>
</g>
<path d="M90.6464 34.9043C93.2222 40.6504 93.8166 44.4151 94.8073 45.8021C95.5999 46.9116 95.2697 47.5853 95.0055 47.7835C94.8734 49.5007 94.7281 53.2125 95.2036 54.3221C93.6185 54.4806 92.958 54.5203 92.8259 54.5203L92.4296 47.7835L90.6464 34.9043Z" fill="#F5C09C"/>
<path d="M94.6091 67.5969C93.6184 62.8415 99.1664 56.8973 93.6184 52.7363L88.863 65.2192C88.9291 65.9457 90.4878 67.1214 94.6091 67.5969Z" fill="#F5C09C"/>
<path d="M93.2222 47.9817C93.2222 63.5208 83.2866 76.1178 71.0304 76.1178C58.7742 76.1178 48.8386 63.5208 48.8386 47.9817C48.8386 32.4426 58.7742 19.8457 71.0304 19.8457C83.2866 19.8457 93.2222 32.4426 93.2222 47.9817Z" fill="#FFCBA9"/>
<path d="M96.7885 51.3506C96.7885 53.4298 95.4578 55.1153 93.8164 55.1153C92.1749 55.1153 90.8442 53.4298 90.8442 51.3506C90.8442 49.2714 92.1749 47.5859 93.8164 47.5859C95.4578 47.5859 96.7885 49.2714 96.7885 51.3506Z" fill="white"/>
<path d="M95.2027 51.3499C95.2027 52.1159 94.5817 52.7369 93.8157 52.7369C93.0497 52.7369 92.4287 52.1159 92.4287 51.3499C92.4287 50.5839 93.0497 49.9629 93.8157 49.9629C94.5817 49.9629 95.2027 50.5839 95.2027 51.3499Z" fill="black"/>
<g filter="url(#filter2_f)">
<path d="M95.9189 56.4651C95.9189 57.2311 94.7656 57.8521 93.343 57.8521C91.9205 57.8521 90.7672 57.2311 90.7672 56.4651C90.7672 55.6991 91.9205 55.0781 93.343 55.0781C94.7656 55.0781 95.9189 55.6991 95.9189 56.4651Z" fill="#FFCCAA"/>
</g>
<path d="M95.7549 58.8605C92.5566 55.4203 93.5459 49.0456 89.6443 39.2637L86.9841 62.2785C88.3287 61.8426 91.9652 60.5487 95.7549 58.8605Z" fill="#FFCBA9"/>
<path d="M53.5938 57.6901C53.5938 60.207 51.5535 62.2473 49.0366 62.2473C46.5197 62.2473 44.4793 60.207 44.4793 57.6901C44.4793 55.1732 46.5197 53.1328 49.0366 53.1328C51.5535 53.1328 53.5938 55.1732 53.5938 57.6901Z" fill="#FFCBA9"/>
<path d="M93.7841 75.6388C97.5815 72.3542 93.2832 65.4192 92.628 60.2676C84.9556 62.0818 66.0814 67.3053 57.7552 70.5709C65.2845 77.9021 86.865 81.6238 93.7841 75.6388Z" fill="#FFCBA9"/>
<path fill-rule="evenodd" clip-rule="evenodd" d="M87.6598 66.1495C87.8367 66.0206 88.0846 66.0595 88.2134 66.2364C88.7266 66.9407 89.4301 67.4136 90.2282 67.5246C91.021 67.6348 91.9689 67.3963 92.9919 66.5591C93.1612 66.4205 93.4109 66.4455 93.5495 66.6148C93.6881 66.7842 93.6632 67.0339 93.4938 67.1725C92.3374 68.1188 91.1743 68.4563 90.1191 68.3096C89.0693 68.1637 88.1876 67.5468 87.5729 66.7031C87.444 66.5262 87.4829 66.2783 87.6598 66.1495Z" fill="#FF8080"/>
<g filter="url(#filter3_f)">
<path d="M82.8419 60.4275C82.8419 61.8556 80.2693 63.0133 77.0958 63.0133C73.9223 63.0133 71.3497 61.8556 71.3497 60.4275C71.3497 58.9995 73.9223 57.8418 77.0958 57.8418C80.2693 57.8418 82.8419 58.9995 82.8419 60.4275Z" fill="#FFCCAA"/>
</g>
<path d="M82.9186 53.3311C82.9186 55.4103 81.2331 57.0958 79.154 57.0958C77.0748 57.0958 75.3893 55.4103 75.3893 53.3311C75.3893 51.2519 77.0748 49.5664 79.154 49.5664C81.2331 49.5664 82.9186 51.2519 82.9186 53.3311Z" fill="white"/>
<path d="M80.1445 53.3323C80.1445 54.0983 79.5235 54.7193 78.7575 54.7193C77.9915 54.7193 77.3705 54.0983 77.3705 53.3323C77.3705 52.5663 77.9915 51.9453 78.7575 51.9453C79.5235 51.9453 80.1445 52.5663 80.1445 53.3323Z" fill="black"/>
<path fill-rule="evenodd" clip-rule="evenodd" d="M49.553 55.4497C49.5666 55.6681 49.4006 55.8563 49.1822 55.8699C48.0117 55.9431 47.4503 56.374 47.1808 56.8079C46.8976 57.2639 46.8859 57.8045 46.9678 58.1593C47.017 58.3725 46.884 58.5853 46.6707 58.6345C46.4575 58.6837 46.2447 58.5508 46.1955 58.3375C46.0792 57.8337 46.0873 57.0665 46.5075 56.3898C46.9415 55.691 47.767 55.1642 49.1327 55.0789C49.3512 55.0653 49.5393 55.2313 49.553 55.4497Z" fill="#FFCCAA"/>
<path fill-rule="evenodd" clip-rule="evenodd" d="M52.2634 112.074C52.3401 112.285 52.4103 112.477 52.4719 112.646C52.7188 113.32 52.8661 113.583 53.0436 113.9C53.0912 113.985 53.1408 114.074 53.1952 114.175C53.5425 114.824 52.2756 115.452 51.9283 114.803C51.6907 114.359 51.4635 113.904 51.3046 113.546L51.1522 113.585L51.4632 114.438L51.6352 114.91C51.956 115.79 50.7157 116.187 50.3684 115.538C50.0865 115.011 49.862 114.378 49.7337 113.941L49.5384 113.991C49.6923 114.563 49.8039 114.821 49.9361 115.125L49.9361 115.125C49.9748 115.215 50.0153 115.308 50.0591 115.414C50.3391 116.095 49.3151 116.752 48.7941 115.779C48.4873 115.206 48.3424 114.681 48.2447 114.328L48.2447 114.328C48.2097 114.201 48.1807 114.096 48.1525 114.019L48.1687 114.016C47.8331 112.904 47.3337 111.07 47.4699 110.778C47.6191 110.457 50.2175 110.109 51.498 109.974C51.498 109.974 51.498 109.974 51.498 109.974C51.4981 109.974 51.4981 109.974 51.4982 109.974C52.8062 110.827 54.1488 111.816 53.541 112.387C53.2968 112.617 52.8538 112.391 52.2634 112.074Z" fill="#FFCBA9"/>
<path fill-rule="evenodd" clip-rule="evenodd" d="M56.1547 72.0382C57.8405 73.057 58.3811 75.2496 57.3623 76.9353C52.1021 85.6385 50.5211 91.3722 50.3953 95.9439C50.2842 99.9811 51.2614 103.344 52.5289 107.706C52.7406 108.434 52.9604 109.191 53.1846 109.983L46.3211 111.925C46.1257 111.235 45.9223 110.541 45.7174 109.843C44.4482 105.515 43.1207 100.989 43.2649 95.7477C43.4363 89.5207 45.62 82.5733 51.2576 73.2457C52.2764 71.5599 54.469 71.0193 56.1547 72.0382Z" fill="#35675B"/>
</g>
<path fill-rule="evenodd" clip-rule="evenodd" d="M82.2304 43.6686C81.5887 42.4762 80.4761 40.9977 79.1123 40.9281C79.1007 40.9275 79.0865 40.9267 79.0702 40.9258C78.8219 40.9118 78.0842 40.8703 78.528 41.111C78.7691 41.2418 78.9285 41.711 79.0489 42.0653C79.0893 42.1843 79.1253 42.2904 79.1586 42.3664C79.1903 42.4387 79.2554 42.5485 79.3177 42.6534C79.4463 42.87 79.5624 43.0657 79.3457 42.8678C78.9129 42.4727 78.6624 42.4796 78.0842 42.5774C77.5891 42.6612 77.1937 42.789 76.7336 42.9904C76.5945 43.0513 76.7142 43.0422 76.8866 43.029C77.0396 43.0174 77.2342 43.0025 77.3265 43.0307C77.543 43.0967 77.8133 43.5926 77.889 43.7973C77.9417 43.9401 77.5838 43.8873 77.2715 43.8411C77.0981 43.8155 76.9387 43.792 76.8715 43.8052C76.7966 43.8199 76.6781 43.8258 76.5406 43.8326C76.1367 43.8526 75.5682 43.8809 75.4571 44.1651C75.4408 44.2066 75.5295 44.2374 75.6204 44.2689C75.6928 44.294 75.7666 44.3196 75.7899 44.3516C75.8551 44.4407 75.8993 44.5566 75.9416 44.6675C75.9597 44.7148 75.9774 44.7612 75.9962 44.8042C76.1621 45.1831 75.9437 45.095 75.6774 44.9874C75.5421 44.9328 75.3943 44.8732 75.2783 44.8672C74.5304 44.8291 73.8885 45.1106 73.224 45.4019C73.2001 45.4124 73.1761 45.4229 73.1521 45.4334C73.0528 45.4769 73.1479 45.483 73.2998 45.4926C73.5092 45.506 73.8265 45.5261 73.8917 45.6606C73.9019 45.6817 73.9176 45.7112 73.9364 45.7467C74.051 45.9624 74.2819 46.3973 74.1027 46.4758C74.0126 46.5152 73.9203 46.4528 73.8329 46.3938C73.7911 46.3655 73.7504 46.338 73.7116 46.3229C73.4614 46.225 73.2819 46.275 73.076 46.3323C72.9835 46.3581 72.8856 46.3853 72.7736 46.4013C72.4145 46.4525 71.6143 46.6582 71.4796 47.0731C71.4424 47.1879 71.8057 47.0384 72.0221 46.9494C72.0956 46.9191 72.1521 46.8959 72.1702 46.8923C72.4351 46.8403 72.4678 47.1109 72.498 47.3615C72.4997 47.3755 72.5014 47.3894 72.5031 47.4032L72.351 47.4759C72.2706 47.4875 72.1633 47.502 72.0375 47.5189C71.0852 47.6469 69.0762 47.917 69.743 48.2C69.9167 48.2737 69.6167 48.4776 69.2941 48.6971C68.945 48.9344 68.5694 49.1899 68.7377 49.3181C68.7402 49.32 68.7431 49.3219 68.7465 49.3237C68.4829 49.654 68.4143 50.1187 68.6087 50.5256C68.8798 51.093 69.5595 51.6798 70.1269 51.4087L81.8695 45.7985C82.3138 45.5862 82.5574 44.7768 82.5121 44.3135C82.5302 44.3251 82.5475 44.3378 82.564 44.3516C82.5421 44.3016 82.519 44.25 82.4945 44.197C82.4763 44.1079 82.447 44.0195 82.406 43.9337C82.3589 43.8352 82.2995 43.7465 82.2304 43.6686Z" fill="#969696"/>
<path fill-rule="evenodd" clip-rule="evenodd" d="M87.4761 42.7017C87.3625 42.2139 87.8235 40.3934 88.6847 39.9262C88.6917 39.9224 88.7003 39.9177 88.7102 39.9122C88.8604 39.8297 89.3068 39.5845 89.1025 39.8662C88.9914 40.0193 89.0318 40.3584 89.0623 40.6146C89.0726 40.7006 89.0817 40.7773 89.0836 40.8344C89.0855 40.8888 89.0776 40.9765 89.0701 41.0602C89.0545 41.2332 89.0405 41.3894 89.1164 41.2019C89.2681 40.8275 89.4259 40.7573 89.8146 40.6461C90.1474 40.551 90.4313 40.5129 90.7773 40.5013C90.8819 40.4978 90.8048 40.5277 90.6937 40.5708C90.595 40.6091 90.4696 40.6577 90.4206 40.7027C90.3056 40.8081 90.2849 41.1969 90.2988 41.3467C90.3084 41.4512 90.5153 41.3119 90.6958 41.1903C90.796 41.1228 90.8882 41.0608 90.9339 41.049C90.9848 41.0359 91.0602 41.0043 91.1478 40.9677C91.405 40.86 91.7669 40.7085 91.9205 40.8522C91.943 40.8732 91.897 40.9187 91.8499 40.9653C91.8123 41.0025 91.774 41.0403 91.769 41.0672C91.755 41.142 91.762 41.2272 91.7686 41.3087C91.7715 41.3435 91.7743 41.3776 91.7753 41.41C91.7778 41.4828 91.7867 41.5291 91.801 41.5554L91.8996 41.5568C91.9373 41.5284 91.9812 41.4804 92.0281 41.4291C92.096 41.3549 92.1701 41.2739 92.2405 41.2357C92.6943 40.9895 93.1772 40.9737 93.6771 40.9572C93.6951 40.9567 93.7132 40.9561 93.7312 40.9555C93.8059 40.953 93.7486 40.985 93.657 41.0362C93.5307 41.1068 93.3394 41.2137 93.3388 41.3167C93.3387 41.3382 93.337 41.3596 93.3354 41.3803C93.3284 41.4696 93.3226 41.5441 93.45 41.5398C93.5503 41.5365 93.9339 41.3931 93.9944 41.3284C94.1209 41.1931 94.2474 41.1708 94.3925 41.1452C94.4577 41.1337 94.5266 41.1216 94.601 41.0982C94.8396 41.0233 95.3984 40.9132 95.6056 41.1312C95.6629 41.1915 95.3924 41.2066 95.2314 41.2156C95.1767 41.2186 95.1346 41.221 95.1223 41.2241C94.9615 41.2656 95.0215 41.4159 95.0812 41.5657C95.086 41.5778 95.0909 41.5899 95.0956 41.6019L95.1285 41.6023C95.1951 41.6033 95.1285 41.6023 95.1951 41.6033L95.6193 41.6093C95.6506 41.5851 95.6836 41.5551 95.7185 41.5182C96.1623 41.049 96.5105 40.7316 96.7802 40.6089C96.8996 40.5729 96.8884 40.726 96.8745 40.9145C96.8587 41.1301 96.8394 41.392 97.0081 41.4708C97.2685 41.5925 97.6081 41.5039 97.9151 41.4237C98.1389 41.3653 98.3454 41.3114 98.4914 41.3467C98.6646 41.5181 98.6139 41.7589 98.3929 42.1295C98.3929 42.1681 98.4249 42.2251 98.3929 42.2695C98.4719 42.4274 98.4275 42.5988 98.4249 42.7875C98.416 43.4162 97.8991 44.2653 97.2704 44.2564L88.5974 44.1342C87.9917 44.1257 87.5031 43.299 87.4761 42.7017Z" fill="#969696"/>
<path fill-rule="evenodd" clip-rule="evenodd" d="M89.7837 47.8622C89.966 47.804 90.161 47.9047 90.2192 48.0871C90.5415 49.0981 90.9893 50.1223 91.5442 51.0197C91.7329 51.3248 91.9641 51.6093 92.2159 51.9001C92.2864 51.9815 92.3594 52.0644 92.4335 52.1485C92.6178 52.3577 92.8088 52.5745 92.9843 52.7951C93.2269 53.1 93.4209 53.4279 93.6006 53.7348C93.6081 53.7476 93.6156 53.7604 93.623 53.7731C93.7978 54.0718 93.9602 54.3492 94.1541 54.6054C94.5638 55.1469 95.011 55.7401 95.257 56.4598C95.3856 56.836 95.5264 57.3507 95.5662 57.8678C95.6051 58.3744 95.5524 58.95 95.2198 59.3849C94.9913 59.6837 94.6192 59.9492 94.2563 60.1549C93.8868 60.3642 93.4874 60.5335 93.1704 60.6255C91.5196 61.1048 90.0744 60.8441 88.6919 59.8871C88.5475 59.7871 88.4132 59.6269 88.3051 59.4641C88.1929 59.2952 88.0896 59.0943 88.0186 58.8888C87.9492 58.688 87.9009 58.4552 87.9281 58.2326C87.9569 57.9957 88.0765 57.7554 88.3425 57.6224C88.5137 57.5368 88.7219 57.6062 88.8075 57.7774C88.8931 57.9486 88.8237 58.1568 88.6525 58.2424C88.6521 58.2426 88.6516 58.2428 88.6511 58.2431C88.6392 58.249 88.6234 58.2567 88.6161 58.3165C88.6068 58.3931 88.6219 58.5124 88.6737 58.6623C88.7239 58.8074 88.7997 58.9558 88.8825 59.0806C88.9693 59.2113 89.046 59.2891 89.0865 59.3171C90.3021 60.1587 91.5321 60.3793 92.9771 59.9598C93.2356 59.8848 93.5855 59.7382 93.9145 59.5518C94.25 59.3617 94.5256 59.1516 94.6692 58.9638C94.8463 58.7322 94.9094 58.3682 94.875 57.921C94.8414 57.4844 94.7197 57.0311 94.601 56.684C94.3965 56.0856 94.02 55.5769 93.6013 55.0237C93.3819 54.7337 93.2005 54.4237 93.0309 54.1338C93.0214 54.1175 93.0119 54.1013 93.0024 54.0851C92.8209 53.775 92.6495 53.4878 92.4418 53.2266C92.2777 53.0204 92.1051 52.8245 91.9258 52.6209C91.849 52.5338 91.771 52.4452 91.6919 52.3539C91.4338 52.0558 91.1733 51.7377 90.9547 51.3843C90.3652 50.4311 89.8954 49.3534 89.5587 48.2977C89.5006 48.1153 89.6013 47.9203 89.7837 47.8622Z" fill="#FFCCAA"/>
<path d="M84.4861 63.1213C86.8043 60.4525 90.8471 60.1683 93.5158 62.4865V62.4865L90.018 66.5134C87.6998 69.1822 83.657 69.4664 80.9882 67.1483V67.1483L84.4861 63.1213Z" fill="#C4C4C4"/>
<path d="M97.97 63.2187C95.7455 60.4713 91.715 60.0475 88.9676 62.272V62.272L92.3241 66.4174C94.5487 69.1648 98.5792 69.5886 101.327 67.3641V67.3641L97.97 63.2187Z" fill="#C4C4C4"/>
<path d="M81.6886 67.2516C81.5149 67.2516 85.1622 62.6144 85.6833 62.4128C86.2043 62.2111 84.8617 65.6683 83.4156 66.5641C82.6285 67.0516 81.8623 67.2516 81.6886 67.2516Z" fill="#F0F0F0"/>
<path d="M91.5601 65.1764C91.3869 65.3496 93.2584 67.2906 93.8129 67.4292C94.3675 67.5679 91.7333 65.0031 91.5601 65.1764Z" fill="#969696"/>
<path d="M55.2339 49.3906L56.7279 43.6873C55.9164 42.855 49.0337 44.6298 48.7563 44.9004C48.558 45.0937 49.0017 51.1679 49.3193 54.5869C49.3507 54.9247 49.7963 55.0141 49.9604 54.7172L51.894 51.2201L53.0332 52.3884C53.2326 52.5929 53.5799 52.482 53.6238 52.1998L54.1134 49.0559L54.6652 49.5589C54.8577 49.7344 55.1679 49.6427 55.2339 49.3906Z" fill="#C4C4C4"/>
<path d="M49.8043 54.375C50.416 53.6702 51.1483 52.0901 51.2052 51.9263C51.2621 51.7625 51.1553 51.5419 50.714 51.7557C50.3798 52.1899 49.3133 54.2044 49.8043 54.375Z" fill="#EAEAEA"/>
<path d="M54.2195 48.769C54.386 49.1634 54.8903 49.5321 54.9464 49.555C55.0026 49.5779 55.1158 49.4607 55.1176 49.1348C55.0063 48.9262 54.3906 48.349 54.2195 48.769Z" fill="#EAEAEA"/>
<path d="M61.2432 41.7329L59.7666 45.9836C59.685 46.2187 59.3896 46.2937 59.2057 46.126L58.6188 45.591L58.1292 48.7349C58.0853 49.0171 57.738 49.1281 57.5386 48.9236L56.3994 47.7553L54.4659 51.2523C54.3017 51.5492 53.7864 51.4695 53.6741 51.1494C53.4144 50.4088 52.9915 49.5914 52.5022 48.7748L49.1021 47.4998L48.9318 43.5823C48.9194 43.5476 48.9181 43.5245 48.9289 43.514C49.2063 43.2435 60.4317 40.9006 61.2432 41.7329Z" fill="#C4C4C4"/>
<path d="M54.3092 50.9101C54.9209 50.2054 55.6531 48.6253 55.7101 48.4615C55.767 48.2977 55.6601 48.0771 55.2188 48.2909C54.8847 48.7251 53.8182 50.7396 54.3092 50.9101Z" fill="#EAEAEA"/>
<path d="M58.7262 45.3022C58.8928 45.6966 59.397 46.0653 59.4532 46.0882C59.5094 46.1111 59.6226 45.9939 59.6244 45.668C59.513 45.4594 58.8974 44.8822 58.7262 45.3022Z" fill="#EAEAEA"/>
<path d="M73.5375 82.169L67.8187 74.8906L75.9636 76.6236L73.5375 82.169Z" fill="#FFCBA9"/>
<path fill-rule="evenodd" clip-rule="evenodd" d="M73.6018 79.8352C73.6203 79.87 73.6416 79.9181 73.6464 79.9715C73.6492 80.0018 73.6503 80.0314 73.6499 80.0602C74.0935 80.3093 74.5474 80.3962 75.0888 80.3962C75.1845 80.3962 75.2621 80.4738 75.2621 80.5695C75.2621 80.6652 75.1845 80.7428 75.0888 80.7428C74.5305 80.7428 74.0353 80.656 73.5502 80.4005C73.4881 80.4945 73.4036 80.5627 73.3126 80.6116C73.1154 80.7175 72.8686 80.7428 72.6701 80.7428C72.5744 80.7428 72.4968 80.6652 72.4968 80.5695C72.4968 80.4738 72.5744 80.3962 72.6701 80.3962C72.8508 80.3962 73.0278 80.3711 73.1486 80.3062C73.191 80.2835 73.2234 80.2574 73.2472 80.2282C73.2302 80.2198 73.212 80.2111 73.1924 80.2016L73.1892 80.2001C73.1313 80.1722 73.0612 80.1383 72.998 80.0969C72.9348 80.0554 72.8658 79.9985 72.8187 79.9176C72.7687 79.8318 72.751 79.7321 72.7708 79.6228C72.7818 79.5626 72.8095 79.4942 72.8723 79.4459C72.9363 79.3968 73.0088 79.3899 73.0645 79.3968C73.1648 79.409 73.2599 79.4701 73.3277 79.5231C73.4018 79.5811 73.4732 79.6536 73.5283 79.7242C73.5559 79.7597 73.5816 79.7974 73.6018 79.8352Z" fill="#D5D5D5"/>
<path fill-rule="evenodd" clip-rule="evenodd" d="M73.6018 78.7962C73.6203 78.8309 73.6416 78.8791 73.6464 78.9325C73.6492 78.9627 73.6503 78.9923 73.6499 79.0212C74.0935 79.2702 74.5474 79.3572 75.0888 79.3572C75.1845 79.3572 75.2621 79.4347 75.2621 79.5305C75.2621 79.6262 75.1845 79.7037 75.0888 79.7037C74.5305 79.7037 74.0353 79.6169 73.5502 79.3614C73.4881 79.4554 73.4036 79.5237 73.3126 79.5725C73.1154 79.6784 72.8686 79.7037 72.6701 79.7037C72.5744 79.7037 72.4968 79.6262 72.4968 79.5305C72.4968 79.4347 72.5744 79.3572 72.6701 79.3572C72.8508 79.3572 73.0278 79.3321 73.1486 79.2672C73.191 79.2444 73.2234 79.2184 73.2472 79.1891C73.2302 79.1808 73.212 79.172 73.1924 79.1626L73.1892 79.161C73.1313 79.1332 73.0612 79.0993 72.998 79.0579C72.9348 79.0164 72.8658 78.9594 72.8187 78.8785C72.7687 78.7927 72.751 78.693 72.7708 78.5837C72.7818 78.5235 72.8095 78.4551 72.8723 78.4068C72.9363 78.3577 73.0088 78.3509 73.0645 78.3577C73.1648 78.37 73.2599 78.431 73.3277 78.484C73.4018 78.542 73.4732 78.6145 73.5283 78.6852C73.5559 78.7206 73.5816 78.7584 73.6018 78.7962Z" fill="#D5D5D5"/>
<path fill-rule="evenodd" clip-rule="evenodd" d="M72.5626 79.1438C72.5812 79.1786 72.6024 79.2267 72.6073 79.2801C72.61 79.3104 72.6112 79.34 72.6107 79.3688C73.0544 79.6179 73.5083 79.7048 74.0496 79.7048C74.1453 79.7048 74.2229 79.7824 74.2229 79.8781C74.2229 79.9738 74.1453 80.0514 74.0496 80.0514C73.4914 80.0514 72.9961 79.9646 72.511 79.7091C72.4489 79.8031 72.3644 79.8713 72.2734 79.9202C72.0762 80.0261 71.8295 80.0514 71.6309 80.0514C71.5352 80.0514 71.4576 79.9738 71.4576 79.8781C71.4576 79.7824 71.5352 79.7048 71.6309 79.7048C71.8116 79.7048 71.9886 79.6797 72.1094 79.6148C72.1519 79.5921 72.1843 79.566 72.208 79.5368C72.1911 79.5284 72.1729 79.5197 72.1532 79.5102L72.15 79.5087C72.0922 79.4808 72.0221 79.4469 71.9589 79.4055C71.8956 79.364 71.8266 79.3071 71.7795 79.2262C71.7295 79.1404 71.7118 79.0407 71.7317 78.9314C71.7426 78.8712 71.7703 78.8028 71.8332 78.7545C71.8972 78.7053 71.9696 78.6985 72.0253 78.7053C72.1257 78.7176 72.2208 78.7787 72.2885 78.8317C72.3626 78.8896 72.434 78.9622 72.4891 79.0328C72.5168 79.0683 72.5425 79.106 72.5626 79.1438Z" fill="#D5D5D5"/>
<path d="M68.1651 80.434L69.2048 76.4481C61.5798 74.1951 56.7276 70.0941 55.5145 68.13C55.5145 68.0722 55.2026 68.2686 53.9548 69.5164C54.7867 72.1505 63.7749 77.8923 68.1651 80.434Z" fill="#3C705F"/>
<path d="M74.4039 86.6653L72.6709 82.5062L73.7107 81.9863L75.4437 86.492L74.4039 86.6653Z" fill="#3B705F"/>
<path fill-rule="evenodd" clip-rule="evenodd" d="M73.8044 81.7461L75.6821 86.6282L74.2973 86.859L72.4492 82.4237L73.8044 81.7461ZM72.8936 82.589L74.5115 86.4719L75.2061 86.3561L73.6179 82.2268L72.8936 82.589Z" fill="#3B705F"/>
<path d="M52.503 19.3479C52.6243 20.4371 55.0209 20.6668 56.0254 20.7754C56.0254 20.7754 55.3638 16.8555 53.8825 17.3748C52.9953 17.6859 52.3818 18.2587 52.503 19.3479Z" fill="#35675B"/>
<path d="M99.244 30.9692C83.0806 36.827 57.3983 39.7007 48.66 47.4988C42.7145 28.328 51.1261 22.24 60.7497 19.3014C68.5599 16.9166 76.9759 16.3143 84.9931 17.8674C92.2989 19.2826 95.0348 21.8518 99.9867 28.367C100.675 29.2723 100.313 30.5817 99.244 30.9692Z" fill="#539882"/>
<mask id="mask1" mask-type="alpha" maskUnits="userSpaceOnUse" x="46" y="17" width="55" height="31">
<path d="M99.244 30.9692C83.0806 36.827 57.3983 39.7007 48.66 47.4988C42.7145 28.328 51.1261 22.24 60.7497 19.3014C68.5599 16.9166 76.9759 16.3143 84.9931 17.8674C92.2989 19.2826 95.0348 21.8518 99.9867 28.367C100.675 29.2723 100.313 30.5817 99.244 30.9692Z" fill="#539882"/>
</mask>
<g mask="url(#mask1)">
<path fill-rule="evenodd" clip-rule="evenodd" d="M92.1521 17.0775C66.0319 14.7471 51.7842 22.514 45.1159 27.7228L44.6892 27.1765C51.4923 21.8625 65.9136 14.0406 92.2137 16.387L92.1521 17.0775ZM97.2528 20.3902C71.1329 18.0598 49.8225 27.9703 43.1541 33.1793L42.7274 32.633C49.5302 27.3191 71.0141 17.3533 97.3144 19.6998L97.2528 20.3902ZM66.3135 28.1968C55.214 31.5583 46.4777 36.2344 43.1541 38.8306L42.7274 38.2843C46.1395 35.619 54.9615 30.9104 66.1126 27.5334C77.2683 24.1549 90.8025 22.0942 103.632 24.7723L103.491 25.4508C90.8166 22.8053 77.4083 24.8368 66.3135 28.1968ZM67.2219 34.3839C55.9042 37.6684 47.058 41.892 43.7427 44.4817L43.3159 43.9354C46.7362 41.2638 55.6839 37.0106 67.0287 33.7182C78.3849 30.4226 92.1958 28.074 105.358 29.2483L105.296 29.9387C92.2484 28.7746 78.5282 31.1028 67.2219 34.3839ZM65.4356 38.5709C55.9132 41.6102 48.9158 45.2915 45.1499 49.1279L44.6552 48.6424C48.5405 44.6843 55.6683 40.9607 65.2248 37.9105C74.7927 34.8567 86.8343 32.4655 100.587 31.197L100.651 31.8873C86.9375 33.1521 74.9466 35.5352 65.4356 38.5709Z" fill="#35675B"/>
<path fill-rule="evenodd" clip-rule="evenodd" d="M53.2879 30.9574C50.6824 27.0959 47.4527 23.7437 45.3244 21.8048L44.8576 22.3173C46.958 24.2306 50.147 27.5417 52.7133 31.3451C55.2884 35.1615 57.1918 39.4085 56.8243 43.2125L57.5142 43.2791C57.9059 39.225 55.8845 34.8057 53.2879 30.9574ZM36.2382 31.1761C35.1024 30.2845 34.0616 29.4673 33.2236 28.704L32.7568 29.2164C33.6155 29.9986 34.6827 30.8364 35.8206 31.7296C36.0993 31.9484 36.3822 32.1705 36.6674 32.3959C38.1241 33.5475 39.6508 34.7951 41.02 36.1631C43.7651 38.9061 45.8181 42.0751 45.4537 45.8468L46.1437 45.9135C46.5384 41.8272 44.3016 38.4622 41.5099 35.6728C40.1106 34.2746 38.5572 33.0063 37.0973 31.8522C36.8062 31.622 36.5193 31.3968 36.2382 31.1761ZM58.0601 29.8212C55.4546 25.9597 52.225 22.6075 50.0966 20.6687L49.6298 21.1811C51.7302 23.0944 54.9192 26.4055 57.4855 30.2089C60.0606 34.0253 61.964 38.2723 61.5965 42.0763L62.2865 42.1429C62.6781 38.0888 60.6568 33.6695 58.0601 29.8212ZM39.9878 30.6229C38.8521 29.7313 37.8113 28.9142 36.9733 28.1508L36.5065 28.6633C37.3652 29.4455 38.4324 30.2832 39.5703 31.1765C39.8489 31.3952 40.1319 31.6173 40.417 31.8428C41.8737 32.9944 43.4005 34.2419 44.7696 35.61C47.5147 38.353 49.5677 41.5219 49.2033 45.2937L49.8933 45.3603C50.2881 41.274 48.0512 37.9091 45.2595 35.1196C43.8603 33.7215 42.3069 32.4532 40.8469 31.299C40.5558 31.0689 40.2689 30.8436 39.9878 30.6229ZM62.2967 28.5376C59.6912 24.6762 56.4615 21.3239 54.3331 19.3851L53.8663 19.8976C55.9667 21.8109 59.1558 25.122 61.7221 28.9253C64.2972 32.7418 66.2005 36.9888 65.8331 40.7927L66.523 40.8594C66.9147 36.8053 64.8933 32.386 62.2967 28.5376ZM50.2169 33.494C48.0206 30.3527 45.1988 27.7243 43.0846 25.7984L42.6178 26.3108C44.7323 28.2371 47.5013 30.8198 49.6488 33.8912C51.7963 36.9625 53.2971 40.4872 52.9286 44.3017L53.6186 44.3683C54.0092 40.3247 52.4132 36.6353 50.2169 33.494ZM66.9715 27.2306C64.366 23.3691 61.1363 20.0169 59.008 18.0781L58.5412 18.5905C60.6416 20.5039 63.8306 23.815 66.3969 27.6183C68.972 31.4347 70.8754 35.6817 70.5079 39.4857L71.1978 39.5523C71.5895 35.4982 69.5681 31.0789 66.9715 27.2306ZM71.8167 25.8264C69.2113 21.9649 65.9816 18.6127 63.8532 16.6739L63.3864 17.1863C65.4868 19.0997 68.6759 22.4108 71.2421 26.2141C73.8172 30.0305 75.7206 34.2775 75.3531 38.0815L76.0431 38.1481C76.4348 34.094 74.4134 29.6747 71.8167 25.8264ZM76.3942 24.3485C73.7887 20.487 70.559 17.1348 68.4306 15.196L67.9638 15.7084C70.0642 17.6218 73.2533 20.9329 75.8195 24.7362C78.3947 28.5527 80.298 32.7997 79.9305 36.6036L80.6205 36.6703C81.0122 32.6161 78.9908 28.1969 76.3942 24.3485ZM81.7692 22.882C79.1967 18.7785 75.9973 15.179 73.8602 13.2323L73.3934 13.7447C75.4851 15.6501 78.6436 19.2014 81.1819 23.2502C83.7287 27.3124 85.6064 31.8055 85.2384 35.6148L85.9284 35.6814C86.3196 31.6326 84.3334 26.972 81.7692 22.882ZM86.2801 21.8827C83.5784 17.8519 80.252 14.3286 78.1211 12.3876L77.6543 12.9C79.7523 14.8111 83.0394 18.2929 85.7043 22.2686C88.3794 26.2598 90.378 30.6764 90.0107 34.4786L90.7006 34.5452C91.0925 30.4893 88.9714 25.898 86.2801 21.8827ZM91.6159 21.3379C89.0964 17.4277 85.9515 14.0249 83.8187 12.0821L83.3519 12.5945C85.4479 14.5039 88.5513 17.8616 91.0332 21.7134C93.5227 25.5772 95.3457 29.8751 94.9778 33.684L95.6677 33.7507C96.0589 29.7015 94.1276 25.2361 91.6159 21.3379Z" fill="#35675B"/>
<path fill-rule="evenodd" clip-rule="evenodd" d="M45.193 35.1287C45.649 30.4298 46.9104 25.8653 47.8099 23.1289L48.4684 23.3454C47.5775 26.0555 46.3322 30.5665 45.8829 35.1956C45.4319 39.8426 45.7924 44.5227 48.0231 47.6436L47.4592 48.0467C45.0745 44.7104 44.7387 39.8099 45.193 35.1287Z" fill="#35675B"/>
</g>
<g filter="url(#filter4_f)">
<path fill-rule="evenodd" clip-rule="evenodd" d="M93.1172 30.9551L92.2904 33.4352L66.2183 39.8663L48.1586 47.9128L49.3863 46.159L49.3892 46.1553C49.551 45.9492 49.8122 45.7314 50.1497 45.5037C50.4897 45.2744 50.9174 45.0283 51.4214 44.7676C52.4296 44.2464 53.7537 43.6621 55.3149 43.0341C58.4377 41.778 62.5216 40.3425 66.9511 38.882C75.8109 35.9607 86.064 32.9364 92.8025 31.0435L93.1172 30.9551ZM49.6647 46.3657L49.1594 47.0874L66.1054 39.5372L92.022 33.1445L92.5816 31.4656C85.8446 33.3626 75.7761 36.3371 67.0596 39.2111C62.6326 40.6708 58.5569 42.1037 55.4442 43.3557C53.8876 43.9818 52.5749 44.5615 51.5806 45.0755C51.0834 45.3326 50.6685 45.5719 50.3435 45.7911C50.0186 46.0102 49.7936 46.2028 49.6647 46.3657Z" fill="black"/>
</g>
</g>
<defs>
<filter id="filter0_f" x="15" y="127.771" width="100.091" height="55.7273" filterUnits="userSpaceOnUse" color-interpolation-filters="sRGB">
<feFlood flood-opacity="0" result="BackgroundImageFix"/>
<feBlend mode="normal" in="SourceGraphic" in2="BackgroundImageFix" result="shape"/>
<feGaussianBlur stdDeviation="7" result="effect1_foregroundBlur"/>
</filter>
<filter id="filter1_d" x="32.6047" y="8.412" width="89.2046" height="157.06" filterUnits="userSpaceOnUse" color-interpolation-filters="sRGB">
<feFlood flood-opacity="0" result="BackgroundImageFix"/>
<feColorMatrix in="SourceAlpha" type="matrix" values="0 0 0 0 0 0 0 0 0 0 0 0 0 0 0 0 0 0 127 0"/>
<feOffset dx="9.14696"/>
<feGaussianBlur stdDeviation="5.71685"/>
<feColorMatrix type="matrix" values="0 0 0 0 0 0 0 0 0 0 0 0 0 0 0 0 0 0 0.18 0"/>
<feBlend mode="normal" in2="BackgroundImageFix" result="effect1_dropShadow"/>
<feBlend mode="normal" in="SourceGraphic" in2="effect1_dropShadow" result="shape"/>
</filter>
<filter id="filter2_f" x="86.1937" y="50.5046" width="14.2986" height="11.9209" filterUnits="userSpaceOnUse" color-interpolation-filters="sRGB">
<feFlood flood-opacity="0" result="BackgroundImageFix"/>
<feBlend mode="normal" in="SourceGraphic" in2="BackgroundImageFix" result="shape"/>
<feGaussianBlur stdDeviation="2.28674" result="effect1_foregroundBlur"/>
</filter>
<filter id="filter3_f" x="64.7182" y="51.2102" width="24.7553" height="18.4346" filterUnits="userSpaceOnUse" color-interpolation-filters="sRGB">
<feFlood flood-opacity="0" result="BackgroundImageFix"/>
<feBlend mode="normal" in="SourceGraphic" in2="BackgroundImageFix" result="shape"/>
<feGaussianBlur stdDeviation="3.31577" result="effect1_foregroundBlur"/>
</filter>
<filter id="filter4_f" x="43.1586" y="25.9551" width="54.9585" height="26.9577" filterUnits="userSpaceOnUse" color-interpolation-filters="sRGB">
<feFlood flood-opacity="0" result="BackgroundImageFix"/>
<feBlend mode="normal" in="SourceGraphic" in2="BackgroundImageFix" result="shape"/>
<feGaussianBlur stdDeviation="2.5" result="effect1_foregroundBlur"/>
</filter>
<clipPath id="clip0">
<rect width="130" height="179" fill="white"/>
</clipPath>
</defs>
</svg>
