<svg fill="none" height="183" viewBox="0 0 133 183" width="133" xmlns="http://www.w3.org/2000/svg" xmlns:xlink="http://www.w3.org/1999/xlink"><filter id="a" color-interpolation-filters="sRGB" filterUnits="userSpaceOnUse" height="55.7273" width="100.091" x="17" y="126.771"><feFlood flood-opacity="0" result="BackgroundImageFix"/><feBlend in="SourceGraphic" in2="BackgroundImageFix" mode="normal" result="shape"/><feGaussianBlur result="effect1_foregroundBlur" stdDeviation="7"/></filter><filter id="b" color-interpolation-filters="sRGB" filterUnits="userSpaceOnUse" height="157.06" width="84.7643" x="34.6049" y="7.412"><feFlood flood-opacity="0" result="BackgroundImageFix"/><feColorMatrix in="SourceAlpha" type="matrix" values="0 0 0 0 0 0 0 0 0 0 0 0 0 0 0 0 0 0 127 0"/><feOffset dx="9.14696"/><feGaussianBlur stdDeviation="5.71685"/><feColorMatrix type="matrix" values="0 0 0 0 0 0 0 0 0 0 0 0 0 0 0 0 0 0 0.18 0"/><feBlend in2="BackgroundImageFix" mode="normal" result="effect1_dropShadow"/><feBlend in="SourceGraphic" in2="effect1_dropShadow" mode="normal" result="shape"/></filter><filter id="c" color-interpolation-filters="sRGB" filterUnits="userSpaceOnUse" height="11.9209" width="14.2986" x="88.1941" y="49.5046"><feFlood flood-opacity="0" result="BackgroundImageFix"/><feBlend in="SourceGraphic" in2="BackgroundImageFix" mode="normal" result="shape"/><feGaussianBlur result="effect1_foregroundBlur" stdDeviation="2.28674"/></filter><filter id="d" color-interpolation-filters="sRGB" filterUnits="userSpaceOnUse" height="18.4346" width="24.7553" x="66.7185" y="50.2102"><feFlood flood-opacity="0" result="BackgroundImageFix"/><feBlend in="SourceGraphic" in2="BackgroundImageFix" mode="normal" result="shape"/><feGaussianBlur result="effect1_foregroundBlur" stdDeviation="3.31577"/></filter><filter id="e" color-interpolation-filters="sRGB" filterUnits="userSpaceOnUse" height="26.9577" width="54.9585" x="45.1582" y="24.9551"><feFlood flood-opacity="0" result="BackgroundImageFix"/><feBlend in="SourceGraphic" in2="BackgroundImageFix" mode="normal" result="shape"/><feGaussianBlur result="effect1_foregroundBlur" stdDeviation="2.5"/></filter><mask id="f" height="54" maskUnits="userSpaceOnUse" width="54" x="36" y="66"><path d="m36.8916 113.189c.9247-10.171 6.4991-33.7632 21.3992-46.7613 2.3777 0 8.956 1.1096 16.2476 5.548 4.2937 6.4285 5.6771 10.6342 9.9676 17.9126 6.6271 11.6107 6.0754 27.2807-.6543 29.5397-8.6946-1.971-29.1274 4.461-46.9601-6.239z" fill="#539882"/></mask><mask id="g" height="31" maskUnits="userSpaceOnUse" width="55" x="48" y="16"><path d="m101.244 29.9692c-16.1636 5.8578-41.846 8.7315-50.5843 16.5296-5.9455-19.1708 2.4662-25.2588 12.0897-28.1974 7.8102-2.3848 16.2263-2.9871 24.2434-1.434 7.3059 1.4152 10.0417 3.9844 14.9932 10.4996.689.9053.327 2.2147-.742 2.6022z" fill="#539882"/></mask><path clip-rule="evenodd" d="m54.0088 128.121c1.5321 0 2.774 1.242 2.774 2.774v16.983c0 1.532-1.2419 2.774-2.774 2.774-1.532 0-2.7739-1.242-2.7739-2.774v-16.983c0-1.532 1.2419-2.774 2.7739-2.774z" fill="#ffdac1" fill-rule="evenodd"/><path d="m51.1519 147.8v-15.864h1.7832v16.261c-.3302-.066-1.1492-.238-1.7832-.397z" fill="#ebc8b1"/><path d="m56.7813 143.719v4.332l-2.5207.867-3.1981-1.213.0799-3.986z" fill="#fff"/><path clip-rule="evenodd" d="m51.1294 144.238h5.653v.347h-5.653z" fill="#bd4747" fill-rule="evenodd"/><path clip-rule="evenodd" d="m51.1157 144.934h5.6657v.346h-5.6657z" fill="#476fbd" fill-rule="evenodd"/><path d="m56.9218 131.604c1.1022.872.2167 2.138-.3647 2.663l-.5021-1.339z" fill="#ffdac1"/><path clip-rule="evenodd" d="m56.3025 131.389c.1187-.15.3367-.175.4868-.057.3285.26.5274.566.611.898.0824.328.0454.652-.047.942-.1818.57-.5953 1.067-.9126 1.353-.1421.128-.3613.117-.4895-.025-.1282-.143-.1168-.362.0253-.49.2641-.238.5849-.636.7163-1.049.0642-.201.0785-.39.0353-.562-.0421-.167-.1459-.347-.3688-.523-.1501-.119-.1756-.337-.0568-.487z" fill="#ebc8b1" fill-rule="evenodd"/><path d="m59.8989 151.189-3.1991-3.282-1.0452.14c-1.2741.169-2.5685.108-3.821-.181l-.6817-.157c-.0426.791-.281 2.691-.3491 3.957 1.9136 1.43 5.9955 1.22 8.691.802.614-.095.8389-.834.4051-1.279z" fill="#35675b"/><g filter="url(#a)" opacity=".03"><path d="m103.091 154.635c0 7.657-16.1381 13.864-36.0455 13.864s-36.0455-6.207-36.0455-13.864 16.1381-13.864 36.0455-13.864 36.0455 6.207 36.0455 13.864z" fill="#000"/></g><g filter="url(#b)"><path clip-rule="evenodd" d="m72.2437 128.119c1.532 0 2.774 1.242 2.774 2.774v16.983c0 1.532-1.242 2.774-2.774 2.774s-2.774-1.242-2.774-2.774v-16.983c0-1.532 1.242-2.774 2.774-2.774z" fill="#ffdac1" fill-rule="evenodd"/><path d="m69.3867 147.798v-15.864h1.7833v16.261c-.3302-.066-1.1492-.238-1.7833-.397z" fill="#ebc8b1"/><path d="m75.0171 143.717v4.332l-2.5207.867-3.1981-1.213.08-3.986z" fill="#fff"/><path clip-rule="evenodd" d="m69.3633 144.238h5.6529v.347h-5.6529z" fill="#bd4747" fill-rule="evenodd"/><path clip-rule="evenodd" d="m69.3516 144.93h5.6657v.346h-5.6657z" fill="#476fbd" fill-rule="evenodd"/><path d="m75.1567 131.603c1.1022.871.2167 2.137-.3648 2.662l-.5021-1.339z" fill="#ffdac1"/><path clip-rule="evenodd" d="m74.5383 131.387c.1188-.15.3367-.175.4869-.057.3284.26.5273.566.6109.898.0825.328.0455.652-.047.942-.1817.57-.5952 1.067-.9125 1.353-.1422.128-.3614.117-.4895-.025-.1282-.143-.1169-.362.0253-.49.264-.238.5848-.636.7163-1.049.0641-.201.0784-.39.0352-.562-.0421-.167-.1458-.346-.3688-.523-.1501-.119-.1755-.337-.0568-.487z" fill="#ebc8b1" fill-rule="evenodd"/><path d="m63.3769 130.986c-.4011-3.587-1.6845-12.438-3.6098-19.154h20.8568c-.4011 3.665 1.6043 13.951 0 19.154-4.412 2.01-11.8322 1.418-17.247 0z" fill="#d1c870"/><path d="m45.2789 131.765c-.3928-3.343-1.6498-11.595-3.5352-17.855l23.5682 1.543c-.3928 3.417-1.5713 11.463-3.1425 16.312-4.3208 1.874-11.5876 1.323-16.8905 0z" fill="#f4e97d"/><g clip-rule="evenodd" fill-rule="evenodd"><path d="m92.2001 106.5c.1575.139.3023.267.431.381h.0002c.5556.491.8137.654 1.1258.851.0823.052.1683.106.2645.169.6149.405-.1988 1.561-.8137 1.157-.4207-.277-.8375-.569-1.1478-.807l-.1158.106.6803.602.3765.333c.702.62-.1988 1.56-.8137 1.156-.4989-.328-.9986-.778-1.3195-1.1l-.1481.136c.4086.43.6296.603.8912.808.0766.06.1567.122.246.195.5709.465-.0154 1.531-.9377.924-.5433-.357-.9207-.749-1.1754-1.013-.0913-.095-.1668-.173-.2285-.228l.0127-.01c-.8255-.817-2.1395-2.19-2.1594-2.512-.0217-.353 2.0951-1.899 3.1564-2.628 0 0 0 0 0-.001 1.5564.126 3.2082.354 2.9466 1.146-.105.318-.6019.331-1.2716.335z" fill="#ffdac1"/><path d="m69.5291 72.5754c1.8223-.7478 3.9058.1232 4.6536 1.9455 4.0865 9.9579 6.7824 15.4055 9.3188 19.3265 2.3624 3.6522 4.631 6.0612 8.0984 9.7436.2213.235.4475.475.6789.721l-5.1958 4.887c-.2611-.278-.5179-.55-.7708-.818-3.3865-3.594-6.0744-6.446-8.8-10.6594-2.9061-4.4927-5.8025-10.4383-9.9285-20.4927-.7479-1.8222.1232-3.9057 1.9454-4.6535z" fill="#35675b"/><path d="m73.1247 73.3417c.3037-.1246.651.0206.7756.3243 4.1036 9.9995 6.84 15.6123 9.4876 19.7294 2.4791 3.8551 4.8875 6.4121 8.3247 10.0616.2274.241.4594.487.6962.739l-.8659.815c-.2422-.258-.4796-.51-.7127-.757-3.4229-3.634-5.9021-6.2655-8.4423-10.2156-2.7087-4.2122-5.4784-9.9082-9.5874-19.9211-.1246-.3037.0205-.6509.3242-.7756z" fill="#407967"/></g><path d="m78.1338 151.187-3.1991-3.282-1.0452.14c-1.2742.17-2.5685.108-3.821-.181l-.6817-.157c-.0426.791-.281 2.691-.3492 3.957 1.9137 1.43 5.9956 1.22 8.691.802.6141-.095.8389-.834.4052-1.279z" fill="#35675b"/><path d="m36.8916 113.123c.9247-10.172 6.4991-33.7637 21.3992-46.7617 2.3777 0 8.956 1.1096 16.2476 5.548 4.2937 6.4285 5.6771 10.6342 9.9676 17.9126 6.6271 11.6111 6.0754 27.2811-.6543 29.5391-8.6946-1.97-29.1274 4.461-46.9601-6.238z" fill="#539882"/><g mask="url(#f)"><path d="m36.8916 113.123c.9247-10.171 6.4991-33.7629 21.3992-46.7609 1.5852 0 .3963-.1982.3963 1.9814-11.0959 15.2568-18.6252 34.0805-15.455 47.9505-3.1702-1.387-3.7647-1.784-6.3405-3.171z" fill="#468677"/><g clip-rule="evenodd" fill="#000" fill-opacity=".12" fill-rule="evenodd"><path d="m39.8418 119.017c2.7985-25.746 17.354-46.9627 24.3172-54.394l1.2646 1.185c-6.785 7.2411-21.112 28.1238-23.859 53.396z"/><path d="m46.4268 119.017c2.7984-25.746 17.354-46.9627 24.3172-54.394l1.2645 1.185c-6.7849 7.2411-21.1119 28.1238-23.8589 53.396z"/><path d="m34.9893 116.071c2.7984-25.7454 17.354-46.962 24.3172-54.3933l1.2645 1.1849c-6.7849 7.2411-21.1119 28.1238-23.8589 53.3964z"/><path d="m53.0127 119.017c2.7985-25.746 17.354-46.9627 24.3172-54.394l1.2646 1.185c-6.785 7.2411-21.112 28.1238-23.859 53.396z"/><path d="m81.8273 84.2073c-10.4085-5.6553-22.5667-11.3362-29.6273-14.5489l.5742-1.2619c7.0679 3.216 19.2621 8.9132 29.715 14.5927 5.2236 2.8381 10.0328 5.6828 13.554 8.2193 1.7585 1.2668 3.2189 2.473 4.2518 3.5781 1.002 1.0714 1.727 2.1762 1.754 3.2339l-1.385.0365c-.014-.5061-.406-1.2798-1.3815-2.3236-.9445-1.0103-2.3227-2.156-4.0496-3.4-3.4497-2.4851-8.1984-5.2969-13.4056-8.1261zm-2.5189 4.8584c-10.5361-5.7453-22.8218-11.5162-29.8811-14.7284l.5742-1.2618c7.0691 3.2166 19.3905 9.0037 29.9706 14.773 5.2872 2.8831 10.1597 5.7726 13.7281 8.3425 1.7822 1.2834 3.262 2.5034 4.3087 3.6177 1.0139 1.0793 1.7493 2.1903 1.7772 3.2503l-1.3859.037c-.0132-.504-.4102-1.283-1.4018-2.338-.9587-1.0208-2.3573-2.181-4.1084-3.442-3.4979-2.5191-8.3107-5.3761-13.5816-8.2503zm-3.9844 4.5092c-10.365-5.7477-22.4797-11.5212-29.5359-14.7319l.5742-1.2618c7.0723 3.218 19.2238 9.0085 29.6341 14.7813 5.2023 2.8848 9.9898 5.7762 13.4945 8.3475 1.7503 1.285 3.2033 2.505 4.231 3.621.9965 1.081 1.7156 2.191 1.7434 3.246l-1.3859.036c-.0134-.509-.4054-1.289-1.377-2.343-.9405-1.02-2.3127-2.181-4.0317-3.442-3.4339-2.5196-8.1613-5.3776-13.3467-8.2531zm-3.5447 4.165c-9.9774-5.4899-21.7045-11.0057-28.7639-14.2179l.5741-1.2619c7.0691 3.2166 18.8341 8.7496 28.8581 14.2652 5.0091 2.7561 9.6044 5.5197 12.9654 7.9957 1.6786 1.236 3.0723 2.418 4.0585 3.507.9593 1.059 1.6454 2.15 1.673 3.198l-1.3859.036c-.0136-.516-.3903-1.283-1.3145-2.303-.8973-.991-2.2079-2.11-3.8534-3.322-3.2873-2.422-7.8199-5.151-12.8114-7.8971zm-.7762 5.9891c-10.3684-5.625-22.4863-11.2753-29.5474-14.4882l.5742-1.2619c7.0673 3.2158 19.2215 8.8825 29.6342 14.5311 5.2035 2.823 9.9929 5.652 13.4991 8.178 1.7511 1.261 3.2054 2.462 4.2343 3.564.9978 1.069 1.7191 2.172 1.747 3.229l-1.3859.036c-.0134-.507-.4035-1.279-1.3745-2.319-.9399-1.006-2.3118-2.147-4.031-3.385-3.4345-2.474-8.163-5.27-13.35-8.084zm-2.5767 4.94c-10.2105-5.757-22.1704-11.5399-29.2235-14.7493l.5741-1.2618c7.0754 3.2194 19.0737 9.0201 29.3304 14.8031 5.1256 2.89 9.8362 5.787 13.2832 8.363 1.7216 1.286 3.1502 2.509 4.1606 3.626.9808 1.084 1.6851 2.193 1.7127 3.243l-1.3859.037c-.0135-.514-.4011-1.296-1.3548-2.35-.9241-1.021-2.2725-2.183-3.9625-3.445-3.376-2.523-8.0263-5.386-13.1343-8.266zm-1.7058 5.813c-10.1373-5.718-22.024-11.461-29.0774-14.6702l.5742-1.2619c7.0751 3.2191 19.0005 8.9811 29.1843 14.7241 5.0892 2.871 9.7635 5.748 13.1834 8.309 1.708 1.279 3.1254 2.496 4.1278 3.608.9737 1.081 1.6716 2.187 1.6992 3.236l-1.3859.036c-.0135-.515-.3984-1.295-1.3432-2.344-.916-1.016-2.2529-2.171-3.929-3.426-3.3484-2.508-7.9619-5.351-13.0334-8.211zm-1.4659 5.03c-9.8387-5.634-21.4266-11.293-28.478-14.501l.5742-1.262c7.0771 3.22 18.7058 8.899 28.5927 14.56 4.9408 2.828 9.4668 5.664 12.7756 8.195 1.6527 1.264 3.0236 2.469 3.9933 3.573.9438 1.075 1.6147 2.173 1.6421 3.215l-1.3859.036c-.0138-.522-.3884-1.3-1.298-2.336-.8836-1.006-2.1739-2.147-3.7938-3.386-3.2361-2.476-7.7001-5.276-12.6222-8.094zm-2.5291 4.731c-8.834-5.175-19.4177-10.376-26.4688-13.585l.5742-1.261c7.0774 3.22 17.7069 8.443 26.5953 13.65 4.4414 2.602 8.4697 5.212 11.4059 7.576 1.4668 1.18 2.6825 2.317 3.5429 3.376.8437 1.038 1.4261 2.098 1.4529 3.115l-1.3859.037c-.0144-.547-.3523-1.305-1.1429-2.278-.7738-.952-1.9062-2.019-3.3363-3.17-2.8575-2.301-6.8176-4.871-11.2373-7.46z"/><path d="m60.2905 119.017c2.7985-25.746 17.3541-46.9627 24.3172-54.394l1.2646 1.185c-6.785 7.2411-21.112 28.1238-23.859 53.396z"/><path d="m77.4656 85.9205c4.8427-9.8989 10.2167-17.5501 13.7281-21.2975l1.2645 1.185c-3.3627 3.5887-8.6463 11.0837-13.436 20.874-4.7856 9.7823-9.0503 21.8-10.4229 34.428l-1.7228-.187c1.4001-12.881 5.7424-25.0955 10.5891-35.0025z"/><path d="m73.8081 120.059c2.8177-26.3171 17.4741-48.0066 24.4862-55.6039l1.2735 1.1753c-6.8349 7.4053-21.2689 28.7627-24.0366 54.6126z"/><path d="m80.3931 119.017c2.7984-25.746 17.354-46.9627 24.3169-54.394l1.265 1.185c-6.7851 7.2411-21.1121 28.1238-23.8591 53.396z"/><path d="m85.939 122.31c2.7984-25.7461 17.354-46.9627 24.317-54.394l1.265 1.1849c-6.785 7.2411-21.1122 28.1238-23.8592 53.3961z"/></g></g><path d="m92.6465 33.9043c2.5758 5.7461 3.1702 9.5108 4.1609 10.8978.7926 1.1095.4624 1.7832.1982 1.9814-.1321 1.7172-.2774 5.429.1981 6.5386-1.5851.1585-2.2456.1982-2.3777.1982l-.3962-6.7368z" fill="#fee1ce"/><path d="m96.6094 66.5969c-.9907-4.7554 4.5576-10.6996-.9907-14.8606l-4.7554 12.4829c.066.7265 1.6247 1.9022 5.7461 2.3777z" fill="#fee1ce"/><path d="m95.2225 46.9817c0 15.5391-9.9356 28.1361-22.1918 28.1361s-22.1918-12.597-22.1918-28.1361 9.9356-28.136 22.1918-28.136 22.1918 12.5969 22.1918 28.136z" fill="#ffdac1"/><path d="m98.7885 50.3506c0 2.0792-1.3307 3.7647-2.9721 3.7647-1.6415 0-2.9722-1.6855-2.9722-3.7647s1.3307-3.7647 2.9722-3.7647c1.6414 0 2.9721 1.6855 2.9721 3.7647z" fill="#fff"/><path d="m97.2027 50.3499c0 .766-.621 1.387-1.387 1.387s-1.387-.621-1.387-1.387.621-1.387 1.387-1.387 1.387.621 1.387 1.387z" fill="#000"/><g filter="url(#c)"><path d="m97.9192 55.4651c0 .766-1.1532 1.387-2.5758 1.387s-2.5758-.621-2.5758-1.387 1.1532-1.387 2.5758-1.387 2.5758.621 2.5758 1.387z" fill="#fca"/></g><path d="m97.7551 57.8605c-3.1983-3.4402-2.209-9.8149-6.1106-19.5968l-2.6602 23.0148c1.3446-.4359 4.9811-1.7298 8.7708-3.418z" fill="#ffdac1"/><path d="m55.594 56.6901c0 2.5169-2.0404 4.5572-4.5573 4.5572s-4.5572-2.0403-4.5572-4.5572 2.0403-4.5573 4.5572-4.5573 4.5573 2.0404 4.5573 4.5573z" fill="#ffdac1"/><path d="m95.7844 74.6388c3.7973-3.2846-.501-10.2196-1.1562-15.3712-7.6724 1.8142-26.5466 7.0377-34.8728 10.3033 7.5293 7.3312 29.1098 11.0529 36.029 5.0679z" fill="#ffdac1"/><path clip-rule="evenodd" d="m89.6601 65.1495c.1769-.1289.4248-.09.5537.0869.5131.7043 1.2166 1.1772 2.0148 1.2882.7928.1102 1.7406-.1283 2.7636-.9655.1694-.1386.419-.1136.5576.0557.1386.1694.1137.4191-.0557.5577-1.1564.9463-2.3194 1.2838-3.3747 1.1371-1.0498-.1459-1.9314-.7628-2.5462-1.6065-.1289-.1769-.09-.4248.0869-.5536z" fill="#ff8080" fill-rule="evenodd"/><g filter="url(#d)"><path d="m84.8423 59.4275c0 1.4281-2.5726 2.5858-5.7461 2.5858s-5.7461-1.1577-5.7461-2.5858c0-1.428 2.5726-2.5857 5.7461-2.5857s5.7461 1.1577 5.7461 2.5857z" fill="#fca"/></g><path d="m84.919 52.3311c0 2.0792-1.6855 3.7647-3.7647 3.7647-2.0791 0-3.7647-1.6855-3.7647-3.7647s1.6856-3.7647 3.7647-3.7647c2.0792 0 3.7647 1.6855 3.7647 3.7647z" fill="#fff"/><path d="m82.1446 52.3323c0 .766-.621 1.387-1.387 1.387s-1.387-.621-1.387-1.387.621-1.387 1.387-1.387 1.387.621 1.387 1.387z" fill="#000"/><path clip-rule="evenodd" d="m51.553 54.4497c.0136.2184-.1524.4066-.3708.4202-1.1704.0732-1.7319.5041-2.0013.938-.2832.456-.295.9966-.2131 1.3514.0492.2132-.0838.426-.297.4752-.2133.0492-.4261-.0837-.4753-.297-.1163-.5038-.1082-1.271.312-1.9477.434-.6988 1.2595-1.2256 2.6253-1.3109.2184-.0136.4065.1524.4202.3708z" fill="#fca" fill-rule="evenodd"/><path clip-rule="evenodd" d="m54.2634 111.074c.0767.211.1468.403.2085.572.2469.674.3942.937.5717 1.254.0475.085.0972.174.1515.275.3474.649-.9195 1.277-1.2668.628-.2376-.444-.4648-.899-.6237-1.257l-.1524.039.3109.853.1721.472c.3208.88-.9195 1.277-1.2668.628-.2819-.527-.5065-1.16-.6348-1.597l-.1953.05c.154.572.2656.83.3978 1.134.0387.09.0791.183.123.289.28.681-.7441 1.338-1.265.365-.3069-.573-.4517-1.098-.5494-1.451-.035-.127-.064-.232-.0922-.309l.0162-.003c-.3356-1.112-.835-2.946-.6988-3.238.1492-.321 2.7475-.669 4.0281-.804h.0001c1.3081.853 2.6507 1.842 2.0428 2.413-.2441.23-.6871.004-1.2775-.313z" fill="#ffdac1" fill-rule="evenodd"/><path clip-rule="evenodd" d="m58.155 71.0382c1.6858 1.0188 2.2264 3.2114 1.2075 4.8971-5.2602 8.7032-6.8411 14.4369-6.9669 19.0086-.1111 4.0372.8661 7.4001 2.1335 11.7621.2118.728.4316 1.485.6557 2.277l-6.8634 1.942c-.1955-.69-.3988-1.384-.6037-2.082-1.2693-4.328-2.5967-8.8543-2.4525-14.0953.1713-6.227 2.355-13.1744 7.9926-22.502 1.0189-1.6858 3.2115-2.2264 4.8972-1.2075z" fill="#35675b" fill-rule="evenodd"/></g><g clip-rule="evenodd" fill-rule="evenodd"><path d="m84.2303 42.6686c-.6418-1.1924-1.7544-2.6709-3.1181-2.7405-.0116-.0006-.0259-.0014-.0422-.0023-.2483-.014-.9859-.0555-.5422.1852.2412.1308.4005.6.5209.9543.0404.119.0765.2251.1097.3011.0317.0723.0969.1821.1591.287.1286.2166.2448.4123.0281.2144-.4328-.3951-.6833-.3882-1.2616-.2904-.4951.0838-.8904.2116-1.3506.413-.139.0609-.0194.0518.153.0386.1531-.0116.3477-.0265.4399.0017.2165.066.4869.5619.5625.7666.0528.1428-.3051.09-.6174.0438-.1735-.0256-.3329-.0491-.4001-.0359-.0749.0147-.1933.0206-.3308.0274-.404.02-.9724.0483-1.0835.3325-.0163.0415.0724.0723.1633.1038.0723.0251.1461.0507.1695.0827.0652.0891.1094.205.1517.3159.018.0473.0357.0937.0545.1367.1659.3789-.0524.2908-.3188.1832-.1353-.0546-.283-.1142-.399-.1202-.7479-.0381-1.3899.2434-2.0543.5347-.024.0105-.0479.021-.0719.0315-.0994.0435-.0043.0496.1477.0592.2094.0134.5267.0335.5918.168.0102.0211.0259.0506.0448.0861.1145.2157.3454.6506.1662.7291-.09.0394-.1824-.023-.2697-.082-.0419-.0283-.0826-.0558-.1213-.0709-.2502-.0979-.4298-.0479-.6357.0094-.0925.0258-.1903.053-.3023.069-.3591.0512-1.1593.2569-1.294.6718-.0373.1148.3261-.0347.5424-.1237.0735-.0303.1301-.0535.1482-.0571.2649-.052.2975.2186.3277.4692.0017.014.0034.0279.0051.0417l-.1521.0727c-.0803.0116-.1877.0261-.3134.043-.9523.128-2.9614.3981-2.2946.6811.1737.0737-.1262.2776-.4489.4971-.349.2373-.7247.4928-.5563.621.0024.0019.0054.0038.0088.0056-.2637.3303-.3323.795-.1378 1.2019.271.5674.9507 1.1542 1.5181.8831l11.7426-5.6102c.4443-.2123.688-1.0217.6427-1.485.018.0116.0353.0243.0519.0381-.0219-.05-.0451-.1016-.0695-.1546-.0183-.0891-.0476-.1775-.0886-.2633-.047-.0985-.1065-.1872-.1755-.2651z" fill="#969696"/><path d="m89.4761 41.7017c-.1136-.4878.3474-2.3083 1.2086-2.7755.007-.0038.0156-.0085.0255-.014.1502-.0825.5966-.3277.3923-.046-.1111.1531-.0707.4922-.0402.7484.0103.086.0194.1627.0213.2198.0019.0544-.006.1421-.0135.2258-.0156.173-.0296.3292.0463.1417.1517-.3744.3095-.4446.6982-.5558.3328-.0951.6167-.1332.9627-.1448.1046-.0035.0275.0264-.0836.0695-.0987.0383-.2241.0869-.2731.1319-.115.1054-.1357.4942-.1218.644.0096.1045.2165-.0348.397-.1564.1002-.0675.1924-.1295.2381-.1413.0509-.0131.1263-.0447.2139-.0813.2572-.1077.6191-.2592.7727-.1155.0225.021-.0235.0665-.0706.1131-.0376.0372-.0759.075-.0809.1019-.014.0748-.007.16-.0004.2415.0029.0348.0057.0689.0067.1013.0025.0728.0114.1191.0257.1454l.0986.0014c.0377-.0284.0816-.0764.1285-.1277.0679-.0742.142-.1552.2124-.1934.4538-.2462.9367-.262 1.4366-.2785.018-.0005.0361-.0011.0541-.0017.0747-.0025.0174.0295-.0742.0807-.1263.0706-.3176.1775-.3182.2805-.0001.0215-.0018.0429-.0034.0636-.007.0893-.0128.1638.1146.1595.1003-.0033.4839-.1467.5444-.2114.1265-.1353.253-.1576.3981-.1832.0652-.0115.1341-.0236.2085-.047.2386-.0749.7974-.185 1.0046.033.0573.0603-.2132.0754-.3742.0844-.0547.003-.0968.0054-.1091.0085-.1608.0415-.1008.1918-.0411.3416.0048.0121.0097.0242.0144.0362l.0329.0004c.0666.001 0 0 .0666.001l.4242.006c.0313-.0242.0643-.0542.0992-.0911.4438-.4692.792-.7866 1.0617-.9093.1194-.036.1082.1171.0943.3056-.0158.2156-.0351.4775.1336.5563.2604.1217.6.0331.907-.0471.2239-.0584.4299-.1123.5759-.077.174.1714.123.4122-.098.7828 0 .0386.032.0956 0 .14.079.1579.035.3293.032.518-.009.6287-.5259 1.4778-1.1546 1.4689l-8.673-.1222c-.6057-.0085-1.0943-.8352-1.1213-1.4325z" fill="#969696"/><path d="m91.7837 46.8622c.1824-.0582.3773.0425.4355.2249.3223 1.011.7701 2.0352 1.3251 2.9326.1887.3051.4198.5896.6716.8804.0705.0814.1435.1643.2176.2484.1844.2092.3753.426.5508.6466.2426.3049.4366.6328.6163.9397.0075.0128.015.0256.0224.0383.1749.2987.3372.5761.5311.8323.4098.5415.8569 1.1347 1.1029 1.8544.1286.3762.2694.8909.3092 1.408.0389.5066-.0138 1.0822-.3464 1.5171-.2285.2988-.6005.5643-.9635.77-.3694.2093-.7689.3786-1.0859.4706-1.6508.4793-3.096.2186-4.4785-.7384-.1444-.1-.2786-.2602-.3868-.423-.1122-.1689-.2154-.3698-.2865-.5753-.0694-.2008-.1176-.4336-.0905-.6562.0289-.2369.1485-.4772.4145-.6102.1712-.0856.3793-.0162.465.155.0856.1712.0162.3794-.155.465-.0005.0002-.001.0004-.0015.0007-.0119.0059-.0276.0136-.0349.0734-.0094.0766.0057.1959.0575.3458.0502.1451.126.2935.2088.4183.0869.1307.1635.2085.204.2365 1.2156.8416 2.4457 1.0622 3.8907.6427.2585-.075.6083-.2216.9374-.408.3355-.1901.611-.4002.7546-.588.1771-.2316.2402-.5956.2058-1.0428-.0335-.4366-.1553-.8899-.2739-1.237-.2045-.5984-.5811-1.1071-.9997-1.6603-.2195-.29-.4008-.6-.5704-.8899-.0096-.0163-.0191-.0325-.0285-.0487-.1816-.3101-.3529-.5973-.5607-.8585-.164-.2062-.3366-.4021-.516-.6057-.0768-.0871-.1548-.1757-.2339-.267-.2581-.2981-.5186-.6162-.7372-.9696-.5895-.9532-1.0593-2.0309-1.3959-3.0866-.0582-.1824.0425-.3774.2249-.4355z" fill="#fca"/></g><path d="m86.4861 62.1213c2.3182-2.6688 6.361-2.953 9.0298-.6348l-3.4979 4.0269c-2.3182 2.6688-6.3609 2.953-9.0297.6349z" fill="#c4c4c4"/><path d="m99.9697 62.2187c-2.2245-2.7474-6.255-3.1712-9.0023-.9467l3.3565 4.1454c2.2245 2.7474 6.2551 3.1712 9.0021.9467z" fill="#c4c4c4"/><path d="m83.6886 66.2516c-.1737 0 3.4736-4.6372 3.9947-4.8388.521-.2017-.8216 3.2555-2.2677 4.1513-.7871.4875-1.5533.6875-1.727.6875z" fill="#f0f0f0"/><path d="m93.5601 64.1764c-.1732.1732 1.6983 2.1142 2.2528 2.2528.5546.1387-2.0796-2.4261-2.2528-2.2528z" fill="#969696"/><path d="m57.234 48.3906 1.494-5.7033c-.8115-.8323-7.6942.9425-7.9716 1.2131-.1983.1933.2454 6.2675.563 9.6865.0314.3378.477.4272.6411.1303l1.9335-3.4971 1.1393 1.1683c.1994.2045.5467.0936.5906-.1886l.4896-3.1439.5517.503c.1926.1755.5028.0838.5688-.1683z" fill="#c4c4c4"/><path d="m51.8043 53.375c.6117-.7048 1.344-2.2849 1.4009-2.4487s-.0499-.3844-.4912-.1706c-.3342.4342-1.4006 2.4487-.9097 2.6193z" fill="#eaeaea"/><path d="m56.2196 47.769c.1666.3944.6708.7631.727.786.0561.0229.1693-.0943.1712-.4202-.1114-.2086-.7271-.7858-.8982-.3658z" fill="#eaeaea"/><path d="m63.2432 40.7329-1.4767 4.2507c-.0816.2351-.377.3101-.5609.1424l-.5868-.535-.4896 3.1439c-.044.2822-.3912.3932-.5906.1887l-1.1393-1.1683-1.9335 3.497c-.1642.2969-.6795.2172-.7917-.1029-.2597-.7406-.6826-1.558-1.172-2.3746l-3.4-1.275-.1703-3.9175c-.0124-.0347-.0138-.0578-.003-.0683.2774-.2705 11.5029-2.6134 12.3144-1.7811z" fill="#c4c4c4"/><path d="m56.3092 49.9101c.6117-.7047 1.344-2.2848 1.4009-2.4486s-.0499-.3844-.4912-.1706c-.3342.4342-1.4007 2.4487-.9097 2.6192z" fill="#eaeaea"/><path d="m60.7265 44.3022c.1665.3944.6708.7631.7269.786.0562.0229.1694-.0943.1712-.4202-.1113-.2086-.727-.7858-.8981-.3658z" fill="#eaeaea"/><path d="m75.5376 81.169-5.7188-7.2784 8.1449 1.733z" fill="#ffdac1"/><path clip-rule="evenodd" d="m75.6016 78.8352c.0185.0348.0397.0829.0446.1363.0028.0303.0039.0599.0035.0887.4436.2491.8975.336 1.4389.336.0957 0 .1733.0776.1733.1733s-.0776.1733-.1733.1733c-.5583 0-1.0535-.0868-1.5387-.3423-.062.094-.1466.1622-.2375.2111-.1972.1059-.444.1312-.6425.1312-.0957 0-.1733-.0776-.1733-.1733s.0776-.1733.1733-.1733c.1807 0 .3577-.0251.4785-.09.0424-.0227.0748-.0488.0986-.078-.017-.0084-.0352-.0171-.0548-.0266l-.0032-.0015c-.0579-.0279-.128-.0618-.1912-.1032-.0632-.0415-.1322-.0984-.1794-.1793-.0499-.0858-.0677-.1855-.0478-.2948.011-.0602.0387-.1286.1015-.1769.064-.0491.1364-.056.1922-.0491.1003.0122.1954.0733.2631.1263.0741.058.1456.1305.2007.2011.0276.0355.0533.0732.0735.111z" fill="#d5d5d5" fill-rule="evenodd"/><path clip-rule="evenodd" d="m75.6016 77.7962c.0185.0347.0397.0829.0446.1363.0028.0302.0039.0598.0035.0887.4436.249.8975.336 1.4389.336.0957 0 .1733.0775.1733.1733 0 .0957-.0776.1732-.1733.1732-.5583 0-1.0535-.0868-1.5387-.3423-.062.094-.1466.1623-.2375.2111-.1972.1059-.444.1312-.6425.1312-.0957 0-.1733-.0775-.1733-.1732 0-.0958.0776-.1733.1733-.1733.1807 0 .3577-.0251.4785-.09.0424-.0228.0748-.0488.0986-.0781-.017-.0083-.0352-.0171-.0548-.0265l-.0032-.0016c-.0579-.0278-.128-.0617-.1912-.1031-.0632-.0415-.1322-.0985-.1794-.1794-.0499-.0858-.0677-.1855-.0478-.2948.011-.0602.0387-.1286.1015-.1769.064-.0491.1364-.0559.1922-.0491.1003.0123.1954.0733.2631.1263.0741.058.1456.1305.2007.2012.0276.0354.0533.0732.0735.111z" fill="#d5d5d5" fill-rule="evenodd"/><path clip-rule="evenodd" d="m74.5625 78.1438c.0186.0348.0398.0829.0446.1363.0028.0303.0039.0599.0035.0887.4437.2491.8976.336 1.4389.336.0957 0 .1733.0776.1733.1733s-.0776.1733-.1733.1733c-.5582 0-1.0535-.0868-1.5386-.3423-.0621.094-.1466.1622-.2376.2111-.1972.1059-.444.1312-.6425.1312-.0957 0-.1733-.0776-.1733-.1733s.0776-.1733.1733-.1733c.1807 0 .3577-.0251.4785-.09.0425-.0227.0748-.0488.0986-.078-.0169-.0084-.0352-.0171-.0548-.0266l-.0032-.0015c-.0578-.0279-.128-.0618-.1911-.1032-.0633-.0415-.1323-.0984-.1794-.1793-.05-.0858-.0677-.1855-.0479-.2948.011-.0602.0387-.1286.1015-.1769.0641-.0492.1365-.056.1922-.0492.1003.0123.1955.0734.2632.1264.0741.0579.1455.1305.2006.2011.0276.0355.0533.0732.0735.111z" fill="#d5d5d5" fill-rule="evenodd"/><path d="m70.1648 79.434 1.0398-3.9859c-7.625-2.253-12.4773-6.354-13.6903-8.3181 0-.0578-.312.1386-1.5597 1.3864.8318 2.6341 9.8201 8.3759 14.2102 10.9176z" fill="#3c705f"/><path d="m76.4039 85.6653-1.733-4.1591 1.0398-.5199 1.7329 4.5057z" fill="#3b705f"/><path clip-rule="evenodd" d="m75.8044 80.7461 1.8777 4.8821-1.3848.2308-1.8481-4.4353zm-.9108.8429 1.6179 3.8829.6946-.1158-1.5882-4.1293z" fill="#3b705f" fill-rule="evenodd"/><path d="m54.503 18.3479c.1212 1.0892 2.5178 1.3189 3.5224 1.4275 0 0-.6616-3.9199-2.1429-3.4006-.8873.3111-1.5007.8839-1.3795 1.9731z" fill="#35675b"/><path d="m101.244 29.9692c-16.1636 5.8578-41.846 8.7315-50.5843 16.5296-5.9455-19.1708 2.4662-25.2588 12.0897-28.1974 7.8102-2.3848 16.2263-2.9871 24.2434-1.434 7.3059 1.4152 10.0417 3.9844 14.9932 10.4996.689.9053.327 2.2147-.742 2.6022z" fill="#539882"/><g clip-rule="evenodd" fill="#35675b" fill-rule="evenodd" mask="url(#g)"><path d="m94.1517 16.0775c-26.1202-2.3304-40.3679 5.4365-47.0361 10.6453l-.4267-.5463c6.803-5.314 21.2243-13.1359 47.5244-10.7895zm5.1008 3.3127c-26.12-2.3304-47.4303 7.5801-54.0987 12.7891l-.4267-.5463c6.8028-5.3139 28.2867-15.2797 54.587-12.9332zm-30.9393 7.8066c-11.0995 3.3615-19.8359 8.0376-23.1594 10.6338l-.4267-.5463c3.412-2.6653 12.2341-7.3739 23.3851-10.7509 11.1558-3.3785 24.69-5.4392 37.5198-2.7611l-.142.6785c-12.6737-2.6455-26.0821-.614-37.1768 2.746zm.9084 6.1871c-11.3177 3.2845-20.1639 7.5081-23.4793 10.0978l-.4267-.5463c3.4203-2.6716 12.368-6.9248 23.7128-10.2172 11.3562-3.2956 25.1671-5.6442 38.3296-4.4699l-.062.6904c-13.048-1.1641-26.7682 1.1641-38.0744 4.4452zm-1.7863 4.187c-9.5224 3.0393-16.5199 6.7206-20.2857 10.557l-.4947-.4855c3.8853-3.9581 11.0131-7.6817 20.5696-10.7319 9.5678-3.0538 21.6094-5.445 35.3625-6.7135l.063.6903c-13.7128 1.2648-25.7037 3.6479-35.2147 6.6836z"/><path d="m55.2878 29.9574c-2.6054-3.8615-5.8351-7.2137-7.9635-9.1526l-.4668.5125c2.1004 1.9133 5.2895 5.2244 7.8557 9.0278 2.5751 3.8164 4.4785 8.0634 4.111 11.8674l.69.0666c.3916-4.0541-1.6297-8.4734-4.2264-12.3217zm-17.0497.2187c-1.1357-.8916-2.1765-1.7088-3.0145-2.4721l-.4668.5124c.8587.7822 1.9259 1.62 3.0638 2.5132.2787.2188.5616.4409.8467.6663 1.4567 1.1516 2.9835 2.3992 4.3526 3.7672 2.7452 2.743 4.7981 5.912 4.4337 9.6837l.69.0667c.3948-4.0863-1.8421-7.4513-4.6337-10.2407-1.3993-1.3982-2.9527-2.6665-4.4127-3.8206-.2911-.2302-.578-.4554-.8591-.6761zm21.822-1.3549c-2.6055-3.8615-5.8352-7.2137-7.9636-9.1525l-.4668.5124c2.1004 1.9133 5.2895 5.2244 7.8557 9.0278 2.5751 3.8164 4.4785 8.0634 4.111 11.8674l.69.0666c.3917-4.0541-1.6297-8.4734-4.2263-12.3217zm-18.0724.8017c-1.1357-.8916-2.1765-1.7087-3.0145-2.4721l-.4668.5125c.8587.7822 1.9259 1.6199 3.0638 2.5132.2787.2187.5616.4408.8468.6663 1.4566 1.1516 2.9834 2.3991 4.3525 3.7672 2.7452 2.743 4.7982 5.9119 4.4338 9.6837l.69.0666c.3947-4.0863-1.8422-7.4512-4.6338-10.2407-1.3993-1.3981-2.9527-2.6664-4.4127-3.8206-.2911-.2301-.578-.4554-.8591-.6761zm22.3089-2.0853c-2.6055-3.8614-5.8351-7.2137-7.9635-9.1525l-.4668.5125c2.1004 1.9133 5.2894 5.2244 7.8557 9.0277 2.5751 3.8165 4.4785 8.0635 4.111 11.8674l.69.0667c.3916-4.0541-1.6298-8.4734-4.2264-12.3218zm-12.0798 4.9564c-2.1963-3.1413-5.0181-5.7697-7.1323-7.6956l-.4668.5124c2.1146 1.9263 4.8836 4.509 7.031 7.5804 2.1475 3.0713 3.6483 6.596 3.2798 10.4105l.69.0666c.3906-4.0436-1.2053-7.733-3.4017-10.8743zm16.7546-6.2634c-2.6054-3.8615-5.8351-7.2137-7.9635-9.1525l-.4668.5124c2.1004 1.9134 5.2895 5.2245 7.8557 9.0278 2.5751 3.8164 4.4785 8.0634 4.111 11.8674l.69.0666c.3916-4.0541-1.6297-8.4734-4.2264-12.3217zm4.8453-1.4042c-2.6055-3.8615-5.8352-7.2137-7.9635-9.1525l-.4668.5124c2.1004 1.9134 5.2894 5.2245 7.8557 9.0278 2.5751 3.8164 4.4785 8.0634 4.111 11.8674l.6899.0666c.3917-4.0541-1.6297-8.4734-4.2263-12.3217zm4.5774-1.4779c-2.6055-3.8615-5.8351-7.2137-7.9635-9.1525l-.4668.5124c2.1004 1.9134 5.2894 5.2245 7.8557 9.0278 2.5751 3.8165 4.4785 8.0635 4.111 11.8674l.69.0667c.3916-4.0542-1.6298-8.4734-4.2264-12.3218zm5.3751-1.4665c-2.5726-4.1035-5.772-7.703-7.909-9.6497l-.4668.5124c2.0917 1.9054 5.2502 5.4567 7.7885 9.5055 2.5467 4.0622 4.4245 8.5553 4.0565 12.3646l.69.0666c.3911-4.0488-1.595-8.7094-4.1592-12.7994zm4.5108-.9993c-2.7017-4.0308-6.0281-7.5541-8.1589-9.4951l-.4668.5124c2.0979 1.9111 5.3851 5.3929 8.0499 9.3686 2.6752 3.9912 4.6737 8.4078 4.3064 12.21l.69.0666c.3918-4.0559-1.7292-8.6472-4.4206-12.6625zm5.3358-.5448c-2.5195-3.9102-5.6644-7.313-7.7971-9.2558l-.4668.5124c2.096 1.9094 5.1994 5.2671 7.6812 9.1189 2.4896 3.8638 4.3126 8.1617 3.9446 11.9706l.69.0667c.3911-4.0492-1.5402-8.5146-4.0519-12.4128z"/><path d="m47.1927 34.1287c.456-4.6989 1.7174-9.2634 2.617-11.9998l.6585.2165c-.8909 2.7101-2.1363 7.2211-2.5856 11.8502-.4509 4.647-.0905 9.3271 2.1403 12.448l-.564.4031c-2.3847-3.3363-2.7205-8.2368-2.2662-12.918z"/></g><g filter="url(#e)"><path clip-rule="evenodd" d="m95.1167 29.9551-.8267 2.4801-26.0721 6.4311-18.0597 8.0465 1.2276-1.7538.003-.0037c.1617-.2061.4229-.4239.7605-.6516.34-.2293.7676-.4754 1.2717-.7361 1.0082-.5212 2.3323-1.1055 3.8935-1.7335 3.1228-1.2561 7.2066-2.6916 11.6362-4.1521 8.8597-2.9213 19.1129-5.9456 25.8514-7.8385zm-43.4525 15.4106-.5052.7217 16.946-7.5502 25.9166-6.3927.5596-1.6789c-6.7371 1.897-16.8055 4.8715-25.522 7.7455-4.427 1.4597-8.5027 2.8926-11.6154 4.1446-1.5567.6261-2.8694 1.2058-3.8636 1.7198-.4972.2571-.9122.4964-1.2371.7156-.3249.2191-.5499.4117-.6789.5746z" fill="#000" fill-rule="evenodd"/></g></svg>