<svg width="373" height="162" viewBox="0 0 373 162" fill="none" xmlns="http://www.w3.org/2000/svg">
<g filter="url(#filter0_d)">
<rect x="29" y="49" width="340" height="105" fill="#539882"/>
</g>
<path d="M48.24 68V82H52.36C56.86 82 59.74 79.38 59.74 75C59.74 70.62 56.86 68 52.36 68H48.24ZM52.36 70.96C54.66 70.96 56.18 72.32 56.18 75C56.18 77.68 54.66 79.04 52.36 79.04H51.66V70.96H52.36ZM64.5813 71.5H61.2413V82H64.5813V71.5ZM62.8813 70.86C63.9413 70.86 64.7613 70.1 64.7613 69.06C64.7613 68 63.9413 67.24 62.8813 67.24C61.8213 67.24 61.0213 68 61.0213 69.06C61.0213 70.1 61.8213 70.86 62.8813 70.86ZM70.1152 69.28H66.7752V71.5H65.7552V74.2H66.7752V77.9C66.7752 81.02 68.2152 82.16 70.6952 82.16C71.5352 82.16 71.9752 82.04 71.9752 82.04V79.18C71.7552 79.2 71.5952 79.2 71.4152 79.2C70.7352 79.2 70.1152 78.98 70.1152 78.06V74.2H71.8952V71.5H70.1152V69.28ZM85.3122 73.52V71.5H77.1322V74.28H81.1122L77.0322 80V82H85.3522V79.22H81.2122L85.3122 73.52ZM90.2063 71.5H86.8663V82H90.2063V71.5ZM88.5063 70.86C89.5663 70.86 90.3863 70.1 90.3863 69.06C90.3863 68 89.5663 67.24 88.5063 67.24C87.4463 67.24 86.6463 68 86.6463 69.06C86.6463 70.1 87.4463 70.86 88.5063 70.86ZM95.4602 71.5H92.1202V81.88C92.1202 82.54 91.7802 83 90.8002 83C90.5802 83 90.3202 82.96 90.3202 82.96V85.78C90.3202 85.78 90.7002 85.84 91.0602 85.84C93.5802 85.84 95.4602 84.86 95.4602 82.04V71.5ZM93.7602 70.86C94.8202 70.86 95.6402 70.1 95.6402 69.06C95.6402 68 94.8202 67.24 93.7602 67.24C92.7002 67.24 91.9002 68 91.9002 69.06C91.9002 70.1 92.7002 70.86 93.7602 70.86ZM103.534 82H106.874V76.18C106.874 74.04 106.554 71.24 103.274 71.24C101.954 71.24 101.034 71.96 100.634 72.58V71.5H97.3741V82H100.714V75.74C100.714 74.9 101.234 74.24 102.154 74.24C102.954 74.24 103.534 74.76 103.534 75.74V82ZM119.988 76.78C119.988 78.18 119.168 79.34 117.728 79.34C116.388 79.34 115.468 78.34 115.468 76.78C115.468 75.24 116.368 74.18 117.728 74.18C119.048 74.18 119.988 75.12 119.988 76.78ZM120.108 82H123.228V67.54H119.888V72.3C119.668 72.04 118.688 71.24 117.088 71.24C114.048 71.24 112.128 73.5 112.128 76.76C112.128 79.98 114.248 82.26 117.268 82.26C118.808 82.26 119.808 81.52 120.108 81.18V82ZM134.928 77.62C134.948 77.38 134.948 77.16 134.948 76.96C134.948 73.38 133.128 71.24 129.788 71.24C126.708 71.24 124.628 73.7 124.628 76.78C124.628 79.88 126.748 82.26 130.208 82.26C132.928 82.26 134.368 80.56 134.668 79.94L132.468 78.24C132.268 78.54 131.528 79.36 130.268 79.36C129.028 79.36 128.128 78.56 128.048 77.62H134.928ZM129.848 73.94C130.888 73.94 131.508 74.66 131.548 75.5H128.148C128.228 74.76 128.748 73.94 129.848 73.94ZM143.566 82.26C145.966 82.26 147.846 80.94 147.846 78.8C147.846 75 143.006 75.76 143.006 74.44C143.006 74.12 143.286 73.92 143.766 73.92C144.586 73.92 145.186 74.42 145.506 74.74L147.666 73.04C147.046 72.2 145.906 71.24 143.906 71.24C141.626 71.24 139.866 72.46 139.866 74.48C139.866 78.3 144.666 77.78 144.666 78.98C144.666 79.36 144.366 79.56 143.726 79.56C142.666 79.56 141.966 79.14 141.406 78.64L139.526 80.46C140.146 81.3 141.566 82.26 143.566 82.26ZM148.553 76.78C148.553 79.94 150.913 82.26 154.253 82.26C157.573 82.26 160.013 79.9 160.013 76.74C160.013 73.56 157.633 71.24 154.253 71.24C151.013 71.24 148.553 73.6 148.553 76.78ZM151.893 76.78C151.893 75.24 152.873 74.18 154.253 74.18C155.613 74.18 156.673 75.2 156.673 76.74C156.673 78.24 155.633 79.32 154.253 79.32C152.893 79.32 151.893 78.3 151.893 76.78ZM164.658 71.5H161.318V77.32C161.318 79.46 161.638 82.26 164.918 82.26C166.238 82.26 167.158 81.54 167.558 80.92V82H170.818V71.5H167.478V77.76C167.478 78.6 166.958 79.26 166.038 79.26C165.238 79.26 164.658 78.74 164.658 77.76V71.5ZM175.347 71.5H171.767L175.367 82H179.247L182.787 71.5H179.307L177.327 78.46L175.347 71.5ZM193.599 77.62C193.619 77.38 193.619 77.16 193.619 76.96C193.619 73.38 191.799 71.24 188.459 71.24C185.379 71.24 183.299 73.7 183.299 76.78C183.299 79.88 185.419 82.26 188.879 82.26C191.599 82.26 193.039 80.56 193.339 79.94L191.139 78.24C190.939 78.54 190.199 79.36 188.939 79.36C187.699 79.36 186.799 78.56 186.719 77.62H193.599ZM188.519 73.94C189.559 73.94 190.179 74.66 190.219 75.5H186.819C186.899 74.76 187.419 73.94 188.519 73.94ZM201.112 82H204.452V76.18C204.452 74.04 204.132 71.24 200.852 71.24C199.532 71.24 198.612 71.96 198.212 72.58V71.5H194.952V82H198.292V75.74C198.292 74.9 198.812 74.24 199.732 74.24C200.532 74.24 201.112 74.76 201.112 75.74V82ZM209.64 71.5H206.3V82H209.64V71.5ZM207.94 70.86C209 70.86 209.82 70.1 209.82 69.06C209.82 68 209 67.24 207.94 67.24C206.88 67.24 206.08 68 206.08 69.06C206.08 70.1 206.88 70.86 207.94 70.86ZM217.594 71.24C216.294 71.24 215.314 71.88 214.814 72.9V71.5H211.554V82H214.894V77.36C214.894 75.78 215.434 74.6 217.054 74.6C217.294 74.6 217.454 74.62 217.594 74.64V71.24ZM222.297 82.26C224.697 82.26 226.577 80.94 226.577 78.8C226.577 75 221.737 75.76 221.737 74.44C221.737 74.12 222.017 73.92 222.497 73.92C223.317 73.92 223.917 74.42 224.237 74.74L226.397 73.04C225.777 72.2 224.637 71.24 222.637 71.24C220.357 71.24 218.597 72.46 218.597 74.48C218.597 78.3 223.397 77.78 223.397 78.98C223.397 79.36 223.097 79.56 222.457 79.56C221.397 79.56 220.697 79.14 220.137 78.64L218.257 80.46C218.877 81.3 220.297 82.26 222.297 82.26ZM239.089 76.78C239.089 78.18 238.269 79.34 236.829 79.34C235.489 79.34 234.569 78.34 234.569 76.78C234.569 75.24 235.469 74.18 236.829 74.18C238.149 74.18 239.089 75.12 239.089 76.78ZM239.209 82H242.329V67.54H238.989V72.3C238.769 72.04 237.789 71.24 236.189 71.24C233.149 71.24 231.229 73.5 231.229 76.76C231.229 79.98 233.349 82.26 236.369 82.26C237.909 82.26 238.909 81.52 239.209 81.18V82ZM247.589 71.5H244.249V82H247.589V71.5ZM245.889 70.86C246.949 70.86 247.769 70.1 247.769 69.06C247.769 68 246.949 67.24 245.889 67.24C244.829 67.24 244.029 68 244.029 69.06C244.029 70.1 244.829 70.86 245.889 70.86ZM259.283 77.62C259.303 77.38 259.303 77.16 259.303 76.96C259.303 73.38 257.483 71.24 254.143 71.24C251.063 71.24 248.983 73.7 248.983 76.78C248.983 79.88 251.103 82.26 254.563 82.26C257.283 82.26 258.723 80.56 259.023 79.94L256.823 78.24C256.623 78.54 255.883 79.36 254.623 79.36C253.383 79.36 252.483 78.56 252.403 77.62H259.283ZM254.203 73.94C255.243 73.94 255.863 74.66 255.903 75.5H252.503C252.583 74.76 253.103 73.94 254.203 73.94ZM267.902 71.5H264.562V81.88C264.562 82.54 264.222 83 263.242 83C263.022 83 262.762 82.96 262.762 82.96V85.78C262.762 85.78 263.142 85.84 263.502 85.84C266.022 85.84 267.902 84.86 267.902 82.04V71.5ZM266.202 70.86C267.262 70.86 268.082 70.1 268.082 69.06C268.082 68 267.262 67.24 266.202 67.24C265.142 67.24 264.342 68 264.342 69.06C264.342 70.1 265.142 70.86 266.202 70.86ZM279.595 77.62C279.615 77.38 279.615 77.16 279.615 76.96C279.615 73.38 277.795 71.24 274.455 71.24C271.375 71.24 269.295 73.7 269.295 76.78C269.295 79.88 271.415 82.26 274.875 82.26C277.595 82.26 279.035 80.56 279.335 79.94L277.135 78.24C276.935 78.54 276.195 79.36 274.935 79.36C273.695 79.36 272.795 78.56 272.715 77.62H279.595ZM274.515 73.94C275.555 73.94 276.175 74.66 276.215 75.5H272.815C272.895 74.76 273.415 73.94 274.515 73.94ZM291.034 82H294.374V76.18C294.374 74.04 294.054 71.24 290.774 71.24C289.454 71.24 288.534 71.96 288.134 72.58V71.5H284.874V82H288.214V75.74C288.214 74.9 288.734 74.24 289.654 74.24C290.454 74.24 291.034 74.76 291.034 75.74V82ZM295.682 76.78C295.682 79.94 298.042 82.26 301.382 82.26C304.702 82.26 307.142 79.9 307.142 76.74C307.142 73.56 304.762 71.24 301.382 71.24C298.142 71.24 295.682 73.6 295.682 76.78ZM299.022 76.78C299.022 75.24 300.002 74.18 301.382 74.18C302.742 74.18 303.802 75.2 303.802 76.74C303.802 78.24 302.762 79.32 301.382 79.32C300.022 79.32 299.022 78.3 299.022 76.78ZM315.746 81.46C315.746 82.74 314.506 83.02 313.266 83.02C311.846 83.02 310.666 82.52 310.366 82.38L309.386 84.94C310.326 85.42 311.786 85.84 313.266 85.84C316.386 85.84 319.086 84.62 319.086 80.74V71.5H315.966V72.32C315.666 71.98 314.666 71.24 313.126 71.24C310.106 71.24 307.986 73.52 307.986 76.74C307.986 80 309.906 82.26 312.946 82.26C314.546 82.26 315.526 81.46 315.746 81.2V81.46ZM315.846 76.72C315.846 78.38 314.906 79.32 313.586 79.32C312.226 79.32 311.326 78.26 311.326 76.72C311.326 75.16 312.226 74.18 313.566 74.18C315.006 74.18 315.846 75.32 315.846 76.72ZM57.18 95.74C57.18 94.84 57.68 94.24 58.46 94.24C59.26 94.24 59.74 94.8 59.74 95.74V102H63.08V95.02C63.08 92.8 61.94 91.24 59.52 91.24C58.16 91.24 57.18 91.8 56.54 92.62C55.98 91.76 55.06 91.24 53.82 91.24C52.42 91.24 51.58 91.94 51.22 92.58V91.5H47.96V102H51.3V95.74C51.3 94.78 51.8 94.24 52.58 94.24C53.38 94.24 53.84 94.8 53.84 95.74V102H57.18V95.74ZM64.3731 96.78C64.3731 99.94 66.7331 102.26 70.0731 102.26C73.3931 102.26 75.8331 99.9 75.8331 96.74C75.8331 93.56 73.4531 91.24 70.0731 91.24C66.8331 91.24 64.3731 93.6 64.3731 96.78ZM67.7131 96.78C67.7131 95.24 68.6931 94.18 70.0731 94.18C71.4331 94.18 72.4931 95.2 72.4931 96.74C72.4931 98.24 71.4531 99.32 70.0731 99.32C68.7131 99.32 67.7131 98.3 67.7131 96.78ZM86.9978 97.62C87.0178 97.38 87.0178 97.16 87.0178 96.96C87.0178 93.38 85.1978 91.24 81.8578 91.24C78.7778 91.24 76.6978 93.7 76.6978 96.78C76.6978 99.88 78.8178 102.26 82.2778 102.26C84.9978 102.26 86.4378 100.56 86.7378 99.94L84.5378 98.24C84.3378 98.54 83.5978 99.36 82.3378 99.36C81.0978 99.36 80.1978 98.56 80.1178 97.62H86.9978ZM81.9178 93.94C82.9578 93.94 83.5778 94.66 83.6178 95.5H80.2178C80.2978 94.76 80.8178 93.94 81.9178 93.94ZM91.9706 89.28H88.6306V91.5H87.6106V94.2H88.6306V97.9C88.6306 101.02 90.0706 102.16 92.5506 102.16C93.3906 102.16 93.8306 102.04 93.8306 102.04V99.18C93.6106 99.2 93.4506 99.2 93.2706 99.2C92.5906 99.2 91.9706 98.98 91.9706 98.06V94.2H93.7506V91.5H91.9706V89.28ZM101.988 91.5H98.4077L102.008 102H105.888L109.428 91.5H105.948L103.968 98.46L101.988 91.5ZM120.24 97.62C120.26 97.38 120.26 97.16 120.26 96.96C120.26 93.38 118.44 91.24 115.1 91.24C112.02 91.24 109.94 93.7 109.94 96.78C109.94 99.88 112.06 102.26 115.52 102.26C118.24 102.26 119.68 100.56 119.98 99.94L117.78 98.24C117.58 98.54 116.84 99.36 115.58 99.36C114.34 99.36 113.44 98.56 113.36 97.62H120.24ZM115.16 93.94C116.2 93.94 116.82 94.66 116.86 95.5H113.46C113.54 94.76 114.06 93.94 115.16 93.94ZM127.633 91.24C126.333 91.24 125.353 91.88 124.853 92.9V91.5H121.593V102H124.933V97.36C124.933 95.78 125.473 94.6 127.093 94.6C127.333 94.6 127.493 94.62 127.633 94.64V91.24ZM137.031 93.52V91.5H128.851V94.28H132.831L128.751 100V102H137.071V99.22H132.931L137.031 93.52ZM138.025 98.74C138.025 101.02 139.865 102.26 141.925 102.26C143.005 102.26 143.765 101.96 144.305 101.42L144.485 102H147.465V95.5C147.465 93.1 146.545 91.24 142.925 91.24C141.185 91.24 139.765 91.8 138.645 92.54L139.885 94.78C140.705 94.38 141.605 94.12 142.525 94.12C143.605 94.12 144.125 94.62 144.125 95.26V95.64C143.745 95.48 143.025 95.26 142.105 95.26C139.625 95.26 138.025 96.64 138.025 98.74ZM141.365 98.62C141.365 97.94 141.965 97.5 142.765 97.5C143.565 97.5 144.185 97.9 144.185 98.62C144.185 99.32 143.585 99.7 142.785 99.7C142.005 99.7 141.365 99.32 141.365 98.62ZM158.489 95.74C158.489 94.84 158.989 94.24 159.769 94.24C160.569 94.24 161.049 94.8 161.049 95.74V102H164.389V95.02C164.389 92.8 163.249 91.24 160.829 91.24C159.469 91.24 158.489 91.8 157.849 92.62C157.289 91.76 156.369 91.24 155.129 91.24C153.729 91.24 152.889 91.94 152.529 92.58V91.5H149.269V102H152.609V95.74C152.609 94.78 153.109 94.24 153.889 94.24C154.689 94.24 155.149 94.8 155.149 95.74V102H158.489V95.74ZM176.002 97.62C176.022 97.38 176.022 97.16 176.022 96.96C176.022 93.38 174.202 91.24 170.862 91.24C167.782 91.24 165.702 93.7 165.702 96.78C165.702 99.88 167.822 102.26 171.282 102.26C174.002 102.26 175.442 100.56 175.742 99.94L173.542 98.24C173.342 98.54 172.602 99.36 171.342 99.36C170.102 99.36 169.202 98.56 169.122 97.62H176.002ZM170.922 93.94C171.962 93.94 172.582 94.66 172.622 95.5H169.222C169.302 94.76 169.822 93.94 170.922 93.94ZM177.355 102H180.695V87.54H177.355V102ZM192.388 97.62C192.408 97.38 192.408 97.16 192.408 96.96C192.408 93.38 190.588 91.24 187.248 91.24C184.168 91.24 182.088 93.7 182.088 96.78C182.088 99.88 184.208 102.26 187.668 102.26C190.388 102.26 191.828 100.56 192.128 99.94L189.928 98.24C189.728 98.54 188.988 99.36 187.728 99.36C186.488 99.36 185.588 98.56 185.508 97.62H192.388ZM187.308 93.94C188.348 93.94 188.968 94.66 189.008 95.5H185.608C185.688 94.76 186.208 93.94 187.308 93.94ZM199.901 102H203.241V96.18C203.241 94.04 202.921 91.24 199.641 91.24C198.321 91.24 197.401 91.96 197.001 92.58V91.5H193.741V102H197.081V95.74C197.081 94.9 197.601 94.24 198.521 94.24C199.321 94.24 199.901 94.76 199.901 95.74V102ZM206.729 102.26C207.829 102.26 208.729 101.36 208.729 100.28C208.729 99.18 207.829 98.28 206.729 98.28C205.629 98.28 204.749 99.18 204.749 100.28C204.749 101.36 205.629 102.26 206.729 102.26ZM53.54 108H50.12V117.72C50.12 118.42 49.74 118.98 48.86 118.98C48.38 118.98 48.1 118.94 47.78 118.88L47.38 121.9C48.14 122.08 48.56 122.12 49.3 122.12C51.56 122.12 53.54 121.18 53.54 118.36V108ZM65.5134 117.62C65.5334 117.38 65.5334 117.16 65.5334 116.96C65.5334 113.38 63.7134 111.24 60.3734 111.24C57.2934 111.24 55.2134 113.7 55.2134 116.78C55.2134 119.88 57.3334 122.26 60.7934 122.26C63.5134 122.26 64.9534 120.56 65.2534 119.94L63.0534 118.24C62.8534 118.54 62.1134 119.36 60.8534 119.36C59.6134 119.36 58.7134 118.56 58.6334 117.62H65.5134ZM60.4334 113.94C61.4734 113.94 62.0934 114.66 62.1334 115.5H58.7334C58.8134 114.76 59.3334 113.94 60.4334 113.94ZM80.712 111.5H76.972L74.132 115.72V107.54H70.792V122H74.132V117.1L77.072 122H80.992L77.332 116.3L80.712 111.5ZM88.0039 111.24C86.7039 111.24 85.7239 111.88 85.2239 112.9V111.5H81.9639V122H85.3039V117.36C85.3039 115.78 85.8439 114.6 87.4639 114.6C87.7039 114.6 87.8639 114.62 88.0039 114.64V111.24ZM92.6867 111.5H89.3467V122H92.6867V111.5ZM90.9867 110.86C92.0467 110.86 92.8667 110.1 92.8667 109.06C92.8667 108 92.0467 107.24 90.9867 107.24C89.9267 107.24 89.1267 108 89.1267 109.06C89.1267 110.1 89.9267 110.86 90.9867 110.86ZM97.9406 111.5H94.6006V121.88C94.6006 122.54 94.2606 123 93.2806 123C93.0606 123 92.8006 122.96 92.8006 122.96V125.78C92.8006 125.78 93.1806 125.84 93.5406 125.84C96.0606 125.84 97.9406 124.86 97.9406 122.04V111.5ZM96.2406 110.86C97.3006 110.86 98.1206 110.1 98.1206 109.06C98.1206 108 97.3006 107.24 96.2406 107.24C95.1806 107.24 94.3806 108 94.3806 109.06C94.3806 110.1 95.1806 110.86 96.2406 110.86ZM107.075 121.46C107.075 122.74 105.835 123.02 104.595 123.02C103.175 123.02 101.995 122.52 101.695 122.38L100.715 124.94C101.655 125.42 103.115 125.84 104.595 125.84C107.715 125.84 110.415 124.62 110.415 120.74V111.5H107.295V112.32C106.995 111.98 105.995 111.24 104.455 111.24C101.435 111.24 99.3145 113.52 99.3145 116.74C99.3145 120 101.235 122.26 104.275 122.26C105.875 122.26 106.855 121.46 107.075 121.2V121.46ZM107.175 116.72C107.175 118.38 106.235 119.32 104.915 119.32C103.555 119.32 102.655 118.26 102.655 116.72C102.655 115.16 103.555 114.18 104.895 114.18C106.335 114.18 107.175 115.32 107.175 116.72ZM115.877 109.28H112.537V111.5H111.517V114.2H112.537V117.9C112.537 121.02 113.977 122.16 116.457 122.16C117.297 122.16 117.737 122.04 117.737 122.04V119.18C117.517 119.2 117.357 119.2 117.177 119.2C116.497 119.2 115.877 118.98 115.877 118.06V114.2H117.657V111.5H115.877V109.28ZM126.574 122.26C128.974 122.26 130.854 120.94 130.854 118.8C130.854 115 126.014 115.76 126.014 114.44C126.014 114.12 126.294 113.92 126.774 113.92C127.594 113.92 128.194 114.42 128.514 114.74L130.674 113.04C130.054 112.2 128.914 111.24 126.914 111.24C124.634 111.24 122.874 112.46 122.874 114.48C122.874 118.3 127.674 117.78 127.674 118.98C127.674 119.36 127.374 119.56 126.734 119.56C125.674 119.56 124.974 119.14 124.414 118.64L122.534 120.46C123.154 121.3 124.574 122.26 126.574 122.26ZM131.561 116.78C131.561 119.94 133.921 122.26 137.261 122.26C140.581 122.26 143.021 119.9 143.021 116.74C143.021 113.56 140.641 111.24 137.261 111.24C134.021 111.24 131.561 113.6 131.561 116.78ZM134.901 116.78C134.901 115.24 135.881 114.18 137.261 114.18C138.621 114.18 139.681 115.2 139.681 116.74C139.681 118.24 138.641 119.32 137.261 119.32C135.901 119.32 134.901 118.3 134.901 116.78ZM147.665 111.5H144.325V117.32C144.325 119.46 144.645 122.26 147.925 122.26C149.245 122.26 150.165 121.54 150.565 120.92V122H153.825V111.5H150.485V117.76C150.485 118.6 149.965 119.26 149.045 119.26C148.245 119.26 147.665 118.74 147.665 117.76V111.5ZM158.355 111.5H154.775L158.375 122H162.255L165.795 111.5H162.315L160.335 118.46L158.355 111.5ZM176.607 117.62C176.627 117.38 176.627 117.16 176.627 116.96C176.627 113.38 174.807 111.24 171.467 111.24C168.387 111.24 166.307 113.7 166.307 116.78C166.307 119.88 168.427 122.26 171.887 122.26C174.607 122.26 176.047 120.56 176.347 119.94L174.147 118.24C173.947 118.54 173.207 119.36 171.947 119.36C170.707 119.36 169.807 118.56 169.727 117.62H176.607ZM171.527 113.94C172.567 113.94 173.187 114.66 173.227 115.5H169.827C169.907 114.76 170.427 113.94 171.527 113.94ZM184.12 122H187.46V116.18C187.46 114.04 187.14 111.24 183.86 111.24C182.54 111.24 181.62 111.96 181.22 112.58V111.5H177.96V122H181.3V115.74C181.3 114.9 181.82 114.24 182.74 114.24C183.54 114.24 184.12 114.76 184.12 115.74V122ZM192.648 111.5H189.308V122H192.648V111.5ZM190.948 110.86C192.008 110.86 192.828 110.1 192.828 109.06C192.828 108 192.008 107.24 190.948 107.24C189.888 107.24 189.088 108 189.088 109.06C189.088 110.1 189.888 110.86 190.948 110.86ZM200.602 111.24C199.302 111.24 198.322 111.88 197.822 112.9V111.5H194.562V122H197.902V117.36C197.902 115.78 198.442 114.6 200.062 114.6C200.302 114.6 200.462 114.62 200.602 114.64V111.24ZM205.304 122.26C207.704 122.26 209.584 120.94 209.584 118.8C209.584 115 204.744 115.76 204.744 114.44C204.744 114.12 205.024 113.92 205.504 113.92C206.324 113.92 206.924 114.42 207.244 114.74L209.404 113.04C208.784 112.2 207.644 111.24 205.644 111.24C203.364 111.24 201.604 112.46 201.604 114.48C201.604 118.3 206.404 117.78 206.404 118.98C206.404 119.36 206.104 119.56 205.464 119.56C204.404 119.56 203.704 119.14 203.144 118.64L201.264 120.46C201.884 121.3 203.304 122.26 205.304 122.26ZM222.097 116.78C222.097 118.18 221.277 119.34 219.837 119.34C218.497 119.34 217.577 118.34 217.577 116.78C217.577 115.24 218.477 114.18 219.837 114.18C221.157 114.18 222.097 115.12 222.097 116.78ZM222.217 122H225.337V107.54H221.997V112.3C221.777 112.04 220.797 111.24 219.197 111.24C216.157 111.24 214.237 113.5 214.237 116.76C214.237 119.98 216.357 122.26 219.377 122.26C220.917 122.26 221.917 121.52 222.217 121.18V122ZM226.717 116.78C226.717 119.94 229.077 122.26 232.417 122.26C235.737 122.26 238.177 119.9 238.177 116.74C238.177 113.56 235.797 111.24 232.417 111.24C229.177 111.24 226.717 113.6 226.717 116.78ZM230.057 116.78C230.057 115.24 231.037 114.18 232.417 114.18C233.777 114.18 234.837 115.2 234.837 116.74C234.837 118.24 233.797 119.32 232.417 119.32C231.057 119.32 230.057 118.3 230.057 116.78ZM239.022 116.78C239.022 119.94 241.382 122.26 244.722 122.26C248.042 122.26 250.482 119.9 250.482 116.74C250.482 113.56 248.102 111.24 244.722 111.24C241.482 111.24 239.022 113.6 239.022 116.78ZM242.362 116.78C242.362 115.24 243.342 114.18 244.722 114.18C246.082 114.18 247.142 115.2 247.142 116.74C247.142 118.24 246.102 119.32 244.722 119.32C243.362 119.32 242.362 118.3 242.362 116.78ZM257.906 111.24C256.606 111.24 255.626 111.88 255.126 112.9V111.5H251.866V122H255.206V117.36C255.206 115.78 255.746 114.6 257.366 114.6C257.606 114.6 257.766 114.62 257.906 114.64V111.24ZM272.395 115.74C272.395 114.84 272.895 114.24 273.675 114.24C274.475 114.24 274.955 114.8 274.955 115.74V122H278.295V115.02C278.295 112.8 277.155 111.24 274.735 111.24C273.375 111.24 272.395 111.8 271.755 112.62C271.195 111.76 270.275 111.24 269.035 111.24C267.635 111.24 266.795 111.94 266.435 112.58V111.5H263.175V122H266.515V115.74C266.515 114.78 267.015 114.24 267.795 114.24C268.595 114.24 269.055 114.8 269.055 115.74V122H272.395V115.74ZM289.908 117.62C289.928 117.38 289.928 117.16 289.928 116.96C289.928 113.38 288.108 111.24 284.768 111.24C281.688 111.24 279.608 113.7 279.608 116.78C279.608 119.88 281.728 122.26 285.188 122.26C287.908 122.26 289.348 120.56 289.648 119.94L287.448 118.24C287.248 118.54 286.508 119.36 285.248 119.36C284.008 119.36 283.108 118.56 283.028 117.62H289.908ZM284.828 113.94C285.868 113.94 286.488 114.66 286.528 115.5H283.128C283.208 114.76 283.728 113.94 284.828 113.94ZM301.041 117.62C301.061 117.38 301.061 117.16 301.061 116.96C301.061 113.38 299.241 111.24 295.901 111.24C292.821 111.24 290.741 113.7 290.741 116.78C290.741 119.88 292.861 122.26 296.321 122.26C299.041 122.26 300.481 120.56 300.781 119.94L298.581 118.24C298.381 118.54 297.641 119.36 296.381 119.36C295.141 119.36 294.241 118.56 294.161 117.62H301.041ZM295.961 113.94C297.001 113.94 297.621 114.66 297.661 115.5H294.261C294.341 114.76 294.861 113.94 295.961 113.94ZM308.434 111.24C307.134 111.24 306.154 111.88 305.654 112.9V111.5H302.394V122H305.734V117.36C305.734 115.78 306.274 114.6 307.894 114.6C308.134 114.6 308.294 114.62 308.434 114.64V111.24ZM47.4 138.74C47.4 141.02 49.24 142.26 51.3 142.26C52.38 142.26 53.14 141.96 53.68 141.42L53.86 142H56.84V135.5C56.84 133.1 55.92 131.24 52.3 131.24C50.56 131.24 49.14 131.8 48.02 132.54L49.26 134.78C50.08 134.38 50.98 134.12 51.9 134.12C52.98 134.12 53.5 134.62 53.5 135.26V135.64C53.12 135.48 52.4 135.26 51.48 135.26C49 135.26 47.4 136.64 47.4 138.74ZM50.74 138.62C50.74 137.94 51.34 137.5 52.14 137.5C52.94 137.5 53.56 137.9 53.56 138.62C53.56 139.32 52.96 139.7 52.16 139.7C51.38 139.7 50.74 139.32 50.74 138.62ZM64.0236 139.32C62.4836 139.32 61.4436 138.28 61.4436 136.74C61.4436 135.34 62.3236 134.24 63.9036 134.24C64.6836 134.24 65.4236 134.54 66.0036 135.02L66.9036 132.2C66.1636 131.68 65.1436 131.24 63.7836 131.24C60.5436 131.24 58.1036 133.54 58.1036 136.76C58.1036 139.98 60.4636 142.26 63.8036 142.26C65.1236 142.26 66.1836 141.8 66.8836 141.32L66.0036 138.58C65.5436 138.96 64.8036 139.32 64.0236 139.32ZM71.8339 129.28H68.4939V131.5H67.4739V134.2H68.4939V137.9C68.4939 141.02 69.9339 142.16 72.4139 142.16C73.2539 142.16 73.6939 142.04 73.6939 142.04V139.18C73.4739 139.2 73.3139 139.2 73.1339 139.2C72.4539 139.2 71.8339 138.98 71.8339 138.06V134.2H73.6139V131.5H71.8339V129.28ZM78.5852 131.5H75.2452V142H78.5852V131.5ZM76.8852 130.86C77.9452 130.86 78.7652 130.1 78.7652 129.06C78.7652 128 77.9452 127.24 76.8852 127.24C75.8252 127.24 75.0252 128 75.0252 129.06C75.0252 130.1 75.8252 130.86 76.8852 130.86ZM83.1791 131.5H79.5991L83.1991 142H87.0791L90.6191 131.5H87.1391L85.1591 138.46L83.1791 131.5ZM94.9914 131.5H91.6514V142H94.9914V131.5ZM93.2914 130.86C94.3514 130.86 95.1714 130.1 95.1714 129.06C95.1714 128 94.3514 127.24 93.2914 127.24C92.2314 127.24 91.4314 128 91.4314 129.06C91.4314 130.1 92.2314 130.86 93.2914 130.86ZM100.525 129.28H97.1853V131.5H96.1653V134.2H97.1853V137.9C97.1853 141.02 98.6253 142.16 101.105 142.16C101.945 142.16 102.385 142.04 102.385 142.04V139.18C102.165 139.2 102.005 139.2 101.825 139.2C101.145 139.2 100.525 138.98 100.525 138.06V134.2H102.305V131.5H100.525V129.28ZM113.717 137.62C113.737 137.38 113.737 137.16 113.737 136.96C113.737 133.38 111.917 131.24 108.577 131.24C105.497 131.24 103.417 133.7 103.417 136.78C103.417 139.88 105.537 142.26 108.997 142.26C111.717 142.26 113.157 140.56 113.457 139.94L111.257 138.24C111.057 138.54 110.317 139.36 109.057 139.36C107.817 139.36 106.917 138.56 106.837 137.62H113.717ZM108.637 133.94C109.677 133.94 110.297 134.66 110.337 135.5H106.937C107.017 134.76 107.537 133.94 108.637 133.94ZM118.409 131.5H115.069V142H118.409V131.5ZM116.709 130.86C117.769 130.86 118.589 130.1 118.589 129.06C118.589 128 117.769 127.24 116.709 127.24C115.649 127.24 114.849 128 114.849 129.06C114.849 130.1 115.649 130.86 116.709 130.86ZM123.943 129.28H120.603V131.5H119.583V134.2H120.603V137.9C120.603 141.02 122.043 142.16 124.523 142.16C125.363 142.16 125.803 142.04 125.803 142.04V139.18C125.583 139.2 125.423 139.2 125.243 139.2C124.563 139.2 123.943 138.98 123.943 138.06V134.2H125.723V131.5H123.943V129.28ZM137.135 137.62C137.155 137.38 137.155 137.16 137.155 136.96C137.155 133.38 135.335 131.24 131.995 131.24C128.915 131.24 126.835 133.7 126.835 136.78C126.835 139.88 128.955 142.26 132.415 142.26C135.135 142.26 136.575 140.56 136.875 139.94L134.675 138.24C134.475 138.54 133.735 139.36 132.475 139.36C131.235 139.36 130.335 138.56 130.255 137.62H137.135ZM132.055 133.94C133.095 133.94 133.715 134.66 133.755 135.5H130.355C130.435 134.76 130.955 133.94 132.055 133.94ZM144.647 142H147.987V136.18C147.987 134.04 147.667 131.24 144.387 131.24C143.067 131.24 142.147 131.96 141.747 132.58V131.5H138.487V142H141.827V135.74C141.827 134.9 142.347 134.24 143.267 134.24C144.067 134.24 144.647 134.76 144.647 135.74V142ZM157.975 127H155.075L149.095 144.16H151.995L157.975 127ZM166.437 142.26C168.837 142.26 170.717 140.94 170.717 138.8C170.717 135 165.877 135.76 165.877 134.44C165.877 134.12 166.157 133.92 166.637 133.92C167.457 133.92 168.057 134.42 168.377 134.74L170.537 133.04C169.917 132.2 168.777 131.24 166.777 131.24C164.497 131.24 162.737 132.46 162.737 134.48C162.737 138.3 167.537 137.78 167.537 138.98C167.537 139.36 167.237 139.56 166.597 139.56C165.537 139.56 164.837 139.14 164.277 138.64L162.397 140.46C163.017 141.3 164.437 142.26 166.437 142.26ZM175.584 129.28H172.244V131.5H171.224V134.2H172.244V137.9C172.244 141.02 173.684 142.16 176.164 142.16C177.004 142.16 177.444 142.04 177.444 142.04V139.18C177.224 139.2 177.064 139.2 176.884 139.2C176.204 139.2 175.584 138.98 175.584 138.06V134.2H177.364V131.5H175.584V129.28ZM188.775 137.62C188.795 137.38 188.795 137.16 188.795 136.96C188.795 133.38 186.975 131.24 183.635 131.24C180.555 131.24 178.475 133.7 178.475 136.78C178.475 139.88 180.595 142.26 184.055 142.26C186.775 142.26 188.215 140.56 188.515 139.94L186.315 138.24C186.115 138.54 185.375 139.36 184.115 139.36C182.875 139.36 181.975 138.56 181.895 137.62H188.775ZM183.695 133.94C184.735 133.94 185.355 134.66 185.395 135.5H181.995C182.075 134.76 182.595 133.94 183.695 133.94ZM197.468 136.78C197.468 138.18 196.648 139.34 195.208 139.34C193.868 139.34 192.948 138.34 192.948 136.78C192.948 135.24 193.848 134.18 195.208 134.18C196.528 134.18 197.468 135.12 197.468 136.78ZM197.588 142H200.708V127.54H197.368V132.3C197.148 132.04 196.168 131.24 194.568 131.24C191.528 131.24 189.608 133.5 189.608 136.76C189.608 139.98 191.728 142.26 194.748 142.26C196.288 142.26 197.288 141.52 197.588 141.18V142ZM212.408 137.62C212.428 137.38 212.428 137.16 212.428 136.96C212.428 133.38 210.608 131.24 207.268 131.24C204.188 131.24 202.108 133.7 202.108 136.78C202.108 139.88 204.228 142.26 207.688 142.26C210.408 142.26 211.848 140.56 212.148 139.94L209.948 138.24C209.748 138.54 209.008 139.36 207.748 139.36C206.508 139.36 205.608 138.56 205.528 137.62H212.408ZM207.328 133.94C208.368 133.94 208.988 134.66 209.028 135.5H205.628C205.708 134.76 206.228 133.94 207.328 133.94ZM219.921 142H223.261V136.18C223.261 134.04 222.941 131.24 219.661 131.24C218.341 131.24 217.421 131.96 217.021 132.58V131.5H213.761V142H217.101V135.74C217.101 134.9 217.621 134.24 218.541 134.24C219.341 134.24 219.921 134.76 219.921 135.74V142ZM232.654 129.28H229.314V131.5H228.294V134.2H229.314V137.9C229.314 141.02 230.754 142.16 233.234 142.16C234.074 142.16 234.514 142.04 234.514 142.04V139.18C234.294 139.2 234.134 139.2 233.954 139.2C233.274 139.2 232.654 138.98 232.654 138.06V134.2H234.434V131.5H232.654V129.28ZM245.845 137.62C245.865 137.38 245.865 137.16 245.865 136.96C245.865 133.38 244.045 131.24 240.705 131.24C237.625 131.24 235.545 133.7 235.545 136.78C235.545 139.88 237.665 142.26 241.125 142.26C243.845 142.26 245.285 140.56 245.585 139.94L243.385 138.24C243.185 138.54 242.445 139.36 241.185 139.36C239.945 139.36 239.045 138.56 238.965 137.62H245.845ZM240.765 133.94C241.805 133.94 242.425 134.66 242.465 135.5H239.065C239.145 134.76 239.665 133.94 240.765 133.94ZM250.584 136.78C250.584 139.94 252.944 142.26 256.284 142.26C259.604 142.26 262.044 139.9 262.044 136.74C262.044 133.56 259.664 131.24 256.284 131.24C253.044 131.24 250.584 133.6 250.584 136.78ZM253.924 136.78C253.924 135.24 254.904 134.18 256.284 134.18C257.644 134.18 258.704 135.2 258.704 136.74C258.704 138.24 257.664 139.32 256.284 139.32C254.924 139.32 253.924 138.3 253.924 136.78ZM269.589 142H272.929V136.18C272.929 134.04 272.609 131.24 269.329 131.24C268.009 131.24 267.089 131.96 266.689 132.58V131.5H263.429V142H266.769V135.74C266.769 134.9 267.289 134.24 268.209 134.24C269.009 134.24 269.589 134.76 269.589 135.74V142ZM278.396 129.28H275.056V131.5H274.036V134.2H275.056V137.9C275.056 141.02 276.496 142.16 278.976 142.16C279.816 142.16 280.256 142.04 280.256 142.04V139.18C280.036 139.2 279.876 139.2 279.696 139.2C279.016 139.2 278.396 138.98 278.396 138.06V134.2H280.176V131.5H278.396V129.28ZM289.148 136.78C289.148 138.18 288.328 139.34 286.888 139.34C285.548 139.34 284.628 138.34 284.628 136.78C284.628 135.24 285.528 134.18 286.888 134.18C288.208 134.18 289.148 135.12 289.148 136.78ZM289.268 142H292.388V127.54H289.048V132.3C288.828 132.04 287.848 131.24 286.248 131.24C283.208 131.24 281.288 133.5 281.288 136.76C281.288 139.98 283.408 142.26 286.428 142.26C287.968 142.26 288.968 141.52 289.268 141.18V142ZM304.088 137.62C304.108 137.38 304.108 137.16 304.108 136.96C304.108 133.38 302.288 131.24 298.948 131.24C295.868 131.24 293.788 133.7 293.788 136.78C293.788 139.88 295.908 142.26 299.368 142.26C302.088 142.26 303.528 140.56 303.828 139.94L301.628 138.24C301.428 138.54 300.688 139.36 299.428 139.36C298.188 139.36 297.288 138.56 297.208 137.62H304.088ZM299.008 133.94C300.048 133.94 300.668 134.66 300.708 135.5H297.308C297.388 134.76 297.908 133.94 299.008 133.94ZM315.36 131.5H311.62L308.78 135.72V127.54H305.44V142H308.78V137.1L311.72 142H315.64L311.98 136.3L315.36 131.5ZM326.532 131.5H322.792L319.952 135.72V127.54H316.612V142H319.952V137.1L322.892 142H326.812L323.152 136.3L326.532 131.5ZM337.564 137.62C337.584 137.38 337.584 137.16 337.584 136.96C337.584 133.38 335.764 131.24 332.424 131.24C329.344 131.24 327.264 133.7 327.264 136.78C327.264 139.88 329.384 142.26 332.844 142.26C335.564 142.26 337.004 140.56 337.304 139.94L335.104 138.24C334.904 138.54 334.164 139.36 332.904 139.36C331.664 139.36 330.764 138.56 330.684 137.62H337.564ZM332.484 133.94C333.524 133.94 334.144 134.66 334.184 135.5H330.784C330.864 134.76 331.384 133.94 332.484 133.94ZM345.077 142H348.417V136.18C348.417 134.04 348.097 131.24 344.817 131.24C343.497 131.24 342.577 131.96 342.177 132.58V131.5H338.917V142H342.257V135.74C342.257 134.9 342.777 134.24 343.697 134.24C344.497 134.24 345.077 134.76 345.077 135.74V142Z" fill="#FFF6F0"/>
<g filter="url(#filter1_i)">
<circle cx="34.5" cy="34.5" r="34.5" fill="#539882"/>
</g>
<path d="M37.25 35.5C37.25 30.95 45.3 29.35 45.3 22.2C45.3 16.3 40.6 12.35 34.05 12.35C26.95 12.35 24.15 16.8 23.2 19.65L29.75 22.6C30.25 21.55 31.1 19.75 33.5 19.75C35.8 19.75 36.8 21.2 36.8 22.75C36.8 26.7 29.15 28.2 29.15 34.95V37.45H37.25V35.5ZM33.15 48.65C35.9 48.65 38.15 46.4 38.15 43.7C38.15 40.95 35.9 38.7 33.15 38.7C30.4 38.7 28.2 40.95 28.2 43.7C28.2 46.4 30.4 48.65 33.15 48.65Z" fill="#F1E6C9"/>
<defs>
<filter id="filter0_d" x="25" y="49" width="348" height="113" filterUnits="userSpaceOnUse" color-interpolation-filters="sRGB">
<feFlood flood-opacity="0" result="BackgroundImageFix"/>
<feColorMatrix in="SourceAlpha" type="matrix" values="0 0 0 0 0 0 0 0 0 0 0 0 0 0 0 0 0 0 127 0"/>
<feOffset dy="4"/>
<feGaussianBlur stdDeviation="2"/>
<feColorMatrix type="matrix" values="0 0 0 0 0 0 0 0 0 0 0 0 0 0 0 0 0 0 0.25 0"/>
<feBlend mode="normal" in2="BackgroundImageFix" result="effect1_dropShadow"/>
<feBlend mode="normal" in="SourceGraphic" in2="effect1_dropShadow" result="shape"/>
</filter>
<filter id="filter1_i" x="0" y="0" width="69" height="73" filterUnits="userSpaceOnUse" color-interpolation-filters="sRGB">
<feFlood flood-opacity="0" result="BackgroundImageFix"/>
<feBlend mode="normal" in="SourceGraphic" in2="BackgroundImageFix" result="shape"/>
<feColorMatrix in="SourceAlpha" type="matrix" values="0 0 0 0 0 0 0 0 0 0 0 0 0 0 0 0 0 0 127 0" result="hardAlpha"/>
<feOffset dy="4"/>
<feGaussianBlur stdDeviation="2"/>
<feComposite in2="hardAlpha" operator="arithmetic" k2="-1" k3="1"/>
<feColorMatrix type="matrix" values="0 0 0 0 0 0 0 0 0 0 0 0 0 0 0 0 0 0 0.25 0"/>
<feBlend mode="normal" in2="shape" result="effect1_innerShadow"/>
</filter>
</defs>
</svg>
