<svg width="258" height="153" viewBox="0 0 258 153" fill="none" xmlns="http://www.w3.org/2000/svg">
<g filter="url(#filter0_d)">
<rect x="29" y="49" width="225" height="96" fill="#539882"/>
</g>
<path d="M46.24 74V88H50.36C54.86 88 57.74 85.38 57.74 81C57.74 76.62 54.86 74 50.36 74H46.24ZM50.36 76.96C52.66 76.96 54.18 78.32 54.18 81C54.18 83.68 52.66 85.04 50.36 85.04H49.66V76.96H50.36ZM62.5813 77.5H59.2413V88H62.5813V77.5ZM60.8813 76.86C61.9413 76.86 62.7613 76.1 62.7613 75.06C62.7613 74 61.9413 73.24 60.8813 73.24C59.8213 73.24 59.0213 74 59.0213 75.06C59.0213 76.1 59.8213 76.86 60.8813 76.86ZM68.1152 75.28H64.7752V77.5H63.7552V80.2H64.7752V83.9C64.7752 87.02 66.2152 88.16 68.6952 88.16C69.5352 88.16 69.9752 88.04 69.9752 88.04V85.18C69.7552 85.2 69.5952 85.2 69.4152 85.2C68.7352 85.2 68.1152 84.98 68.1152 84.06V80.2H69.8952V77.5H68.1152V75.28ZM83.3122 79.52V77.5H75.1322V80.28H79.1122L75.0322 86V88H83.3522V85.22H79.2122L83.3122 79.52ZM88.2063 77.5H84.8663V88H88.2063V77.5ZM86.5063 76.86C87.5663 76.86 88.3863 76.1 88.3863 75.06C88.3863 74 87.5663 73.24 86.5063 73.24C85.4463 73.24 84.6463 74 84.6463 75.06C84.6463 76.1 85.4463 76.86 86.5063 76.86ZM93.4602 77.5H90.1202V87.88C90.1202 88.54 89.7802 89 88.8002 89C88.5802 89 88.3202 88.96 88.3202 88.96V91.78C88.3202 91.78 88.7002 91.84 89.0602 91.84C91.5802 91.84 93.4602 90.86 93.4602 88.04V77.5ZM91.7602 76.86C92.8202 76.86 93.6402 76.1 93.6402 75.06C93.6402 74 92.8202 73.24 91.7602 73.24C90.7002 73.24 89.9002 74 89.9002 75.06C89.9002 76.1 90.7002 76.86 91.7602 76.86ZM101.534 88H104.874V82.18C104.874 80.04 104.554 77.24 101.274 77.24C99.9541 77.24 99.0341 77.96 98.6341 78.58V77.5H95.3741V88H98.7141V81.74C98.7141 80.9 99.2341 80.24 100.154 80.24C100.954 80.24 101.534 80.76 101.534 81.74V88ZM117.988 82.78C117.988 84.18 117.168 85.34 115.728 85.34C114.388 85.34 113.468 84.34 113.468 82.78C113.468 81.24 114.368 80.18 115.728 80.18C117.048 80.18 117.988 81.12 117.988 82.78ZM118.108 88H121.228V73.54H117.888V78.3C117.668 78.04 116.688 77.24 115.088 77.24C112.048 77.24 110.128 79.5 110.128 82.76C110.128 85.98 112.248 88.26 115.268 88.26C116.808 88.26 117.808 87.52 118.108 87.18V88ZM132.928 83.62C132.948 83.38 132.948 83.16 132.948 82.96C132.948 79.38 131.128 77.24 127.788 77.24C124.708 77.24 122.628 79.7 122.628 82.78C122.628 85.88 124.748 88.26 128.208 88.26C130.928 88.26 132.368 86.56 132.668 85.94L130.468 84.24C130.268 84.54 129.528 85.36 128.268 85.36C127.028 85.36 126.128 84.56 126.048 83.62H132.928ZM127.848 79.94C128.888 79.94 129.508 80.66 129.548 81.5H126.148C126.228 80.76 126.748 79.94 127.848 79.94ZM141.566 88.26C143.966 88.26 145.846 86.94 145.846 84.8C145.846 81 141.006 81.76 141.006 80.44C141.006 80.12 141.286 79.92 141.766 79.92C142.586 79.92 143.186 80.42 143.506 80.74L145.666 79.04C145.046 78.2 143.906 77.24 141.906 77.24C139.626 77.24 137.866 78.46 137.866 80.48C137.866 84.3 142.666 83.78 142.666 84.98C142.666 85.36 142.366 85.56 141.726 85.56C140.666 85.56 139.966 85.14 139.406 84.64L137.526 86.46C138.146 87.3 139.566 88.26 141.566 88.26ZM146.553 82.78C146.553 85.94 148.913 88.26 152.253 88.26C155.573 88.26 158.013 85.9 158.013 82.74C158.013 79.56 155.633 77.24 152.253 77.24C149.013 77.24 146.553 79.6 146.553 82.78ZM149.893 82.78C149.893 81.24 150.873 80.18 152.253 80.18C153.613 80.18 154.673 81.2 154.673 82.74C154.673 84.24 153.633 85.32 152.253 85.32C150.893 85.32 149.893 84.3 149.893 82.78ZM162.658 77.5H159.318V83.32C159.318 85.46 159.638 88.26 162.918 88.26C164.238 88.26 165.158 87.54 165.558 86.92V88H168.818V77.5H165.478V83.76C165.478 84.6 164.958 85.26 164.038 85.26C163.238 85.26 162.658 84.74 162.658 83.76V77.5ZM173.347 77.5H169.767L173.367 88H177.247L180.787 77.5H177.307L175.327 84.46L173.347 77.5ZM191.599 83.62C191.619 83.38 191.619 83.16 191.619 82.96C191.619 79.38 189.799 77.24 186.459 77.24C183.379 77.24 181.299 79.7 181.299 82.78C181.299 85.88 183.419 88.26 186.879 88.26C189.599 88.26 191.039 86.56 191.339 85.94L189.139 84.24C188.939 84.54 188.199 85.36 186.939 85.36C185.699 85.36 184.799 84.56 184.719 83.62H191.599ZM186.519 79.94C187.559 79.94 188.179 80.66 188.219 81.5H184.819C184.899 80.76 185.419 79.94 186.519 79.94ZM199.112 88H202.452V82.18C202.452 80.04 202.132 77.24 198.852 77.24C197.532 77.24 196.612 77.96 196.212 78.58V77.5H192.952V88H196.292V81.74C196.292 80.9 196.812 80.24 197.732 80.24C198.532 80.24 199.112 80.76 199.112 81.74V88ZM207.64 77.5H204.3V88H207.64V77.5ZM205.94 76.86C207 76.86 207.82 76.1 207.82 75.06C207.82 74 207 73.24 205.94 73.24C204.88 73.24 204.08 74 204.08 75.06C204.08 76.1 204.88 76.86 205.94 76.86ZM215.594 77.24C214.294 77.24 213.314 77.88 212.814 78.9V77.5H209.554V88H212.894V83.36C212.894 81.78 213.434 80.6 215.054 80.6C215.294 80.6 215.454 80.62 215.594 80.64V77.24ZM220.297 88.26C222.697 88.26 224.577 86.94 224.577 84.8C224.577 81 219.737 81.76 219.737 80.44C219.737 80.12 220.017 79.92 220.497 79.92C221.317 79.92 221.917 80.42 222.237 80.74L224.397 79.04C223.777 78.2 222.637 77.24 220.637 77.24C218.357 77.24 216.597 78.46 216.597 80.48C216.597 84.3 221.397 83.78 221.397 84.98C221.397 85.36 221.097 85.56 220.457 85.56C219.397 85.56 218.697 85.14 218.137 84.64L216.257 86.46C216.877 87.3 218.297 88.26 220.297 88.26ZM53.3 102.78C53.3 104.18 52.48 105.34 51.04 105.34C49.7 105.34 48.78 104.34 48.78 102.78C48.78 101.24 49.68 100.18 51.04 100.18C52.36 100.18 53.3 101.12 53.3 102.78ZM53.42 108H56.54V93.54H53.2V98.3C52.98 98.04 52 97.24 50.4 97.24C47.36 97.24 45.44 99.5 45.44 102.76C45.44 105.98 47.56 108.26 50.58 108.26C52.12 108.26 53.12 107.52 53.42 107.18V108ZM61.8 97.5H58.46V108H61.8V97.5ZM60.1 96.86C61.16 96.86 61.98 96.1 61.98 95.06C61.98 94 61.16 93.24 60.1 93.24C59.04 93.24 58.24 94 58.24 95.06C58.24 96.1 59.04 96.86 60.1 96.86ZM73.4939 103.62C73.5139 103.38 73.5139 103.16 73.5139 102.96C73.5139 99.38 71.6939 97.24 68.3539 97.24C65.2739 97.24 63.1939 99.7 63.1939 102.78C63.1939 105.88 65.3139 108.26 68.7739 108.26C71.4939 108.26 72.9339 106.56 73.2339 105.94L71.0339 104.24C70.8339 104.54 70.0939 105.36 68.8339 105.36C67.5939 105.36 66.6939 104.56 66.6139 103.62H73.4939ZM68.4139 99.94C69.4539 99.94 70.0739 100.66 70.1139 101.5H66.7139C66.7939 100.76 67.3139 99.94 68.4139 99.94ZM82.1125 97.5H78.7725V107.88C78.7725 108.54 78.4325 109 77.4525 109C77.2325 109 76.9725 108.96 76.9725 108.96V111.78C76.9725 111.78 77.3525 111.84 77.7125 111.84C80.2325 111.84 82.1125 110.86 82.1125 108.04V97.5ZM80.4125 96.86C81.4725 96.86 82.2925 96.1 82.2925 95.06C82.2925 94 81.4725 93.24 80.4125 93.24C79.3525 93.24 78.5525 94 78.5525 95.06C78.5525 96.1 79.3525 96.86 80.4125 96.86ZM93.8064 103.62C93.8264 103.38 93.8264 103.16 93.8264 102.96C93.8264 99.38 92.0064 97.24 88.6664 97.24C85.5864 97.24 83.5064 99.7 83.5064 102.78C83.5064 105.88 85.6264 108.26 89.0864 108.26C91.8064 108.26 93.2464 106.56 93.5464 105.94L91.3464 104.24C91.1464 104.54 90.4064 105.36 89.1464 105.36C87.9064 105.36 87.0064 104.56 86.9264 103.62H93.8064ZM88.7264 99.94C89.7664 99.94 90.3864 100.66 90.4264 101.5H87.0264C87.1064 100.76 87.6264 99.94 88.7264 99.94ZM102.325 102.72C102.325 101.32 103.145 100.16 104.585 100.16C105.925 100.16 106.845 101.16 106.845 102.72C106.845 104.26 105.945 105.32 104.585 105.32C103.265 105.32 102.325 104.38 102.325 102.72ZM102.205 97.5H99.085V111.74H102.425V107.2C102.645 107.46 103.625 108.26 105.225 108.26C108.265 108.26 110.185 106 110.185 102.74C110.185 99.52 108.065 97.24 105.045 97.24C103.505 97.24 102.505 97.98 102.205 98.32V97.5ZM121.365 103.62C121.385 103.38 121.385 103.16 121.385 102.96C121.385 99.38 119.565 97.24 116.225 97.24C113.145 97.24 111.065 99.7 111.065 102.78C111.065 105.88 113.185 108.26 116.645 108.26C119.365 108.26 120.805 106.56 121.105 105.94L118.905 104.24C118.705 104.54 117.965 105.36 116.705 105.36C115.465 105.36 114.565 104.56 114.485 103.62H121.365ZM116.285 99.94C117.325 99.94 117.945 100.66 117.985 101.5H114.585C114.665 100.76 115.185 99.94 116.285 99.94ZM128.758 97.24C127.458 97.24 126.478 97.88 125.978 98.9V97.5H122.718V108H126.058V103.36C126.058 101.78 126.598 100.6 128.218 100.6C128.458 100.6 128.618 100.62 128.758 100.64V97.24ZM137.386 108.26C139.786 108.26 141.666 106.94 141.666 104.8C141.666 101 136.826 101.76 136.826 100.44C136.826 100.12 137.106 99.92 137.586 99.92C138.406 99.92 139.006 100.42 139.326 100.74L141.486 99.04C140.866 98.2 139.726 97.24 137.726 97.24C135.446 97.24 133.686 98.46 133.686 100.48C133.686 104.3 138.486 103.78 138.486 104.98C138.486 105.36 138.186 105.56 137.546 105.56C136.486 105.56 135.786 105.14 135.226 104.64L133.346 106.46C133.966 107.3 135.386 108.26 137.386 108.26ZM146.533 95.28H143.193V97.5H142.173V100.2H143.193V103.9C143.193 107.02 144.633 108.16 147.113 108.16C147.953 108.16 148.393 108.04 148.393 108.04V105.18C148.173 105.2 148.013 105.2 147.833 105.2C147.153 105.2 146.533 104.98 146.533 104.06V100.2H148.313V97.5H146.533V95.28ZM149.384 104.74C149.384 107.02 151.224 108.26 153.284 108.26C154.364 108.26 155.124 107.96 155.664 107.42L155.844 108H158.824V101.5C158.824 99.1 157.904 97.24 154.284 97.24C152.544 97.24 151.124 97.8 150.004 98.54L151.244 100.78C152.064 100.38 152.964 100.12 153.884 100.12C154.964 100.12 155.484 100.62 155.484 101.26V101.64C155.104 101.48 154.384 101.26 153.464 101.26C150.984 101.26 149.384 102.64 149.384 104.74ZM152.724 104.62C152.724 103.94 153.324 103.5 154.124 103.5C154.924 103.5 155.544 103.9 155.544 104.62C155.544 105.32 154.944 105.7 154.144 105.7C153.364 105.7 152.724 105.32 152.724 104.62ZM167.968 102.78C167.968 104.18 167.148 105.34 165.708 105.34C164.368 105.34 163.448 104.34 163.448 102.78C163.448 101.24 164.348 100.18 165.708 100.18C167.028 100.18 167.968 101.12 167.968 102.78ZM168.088 108H171.208V93.54H167.868V98.3C167.648 98.04 166.668 97.24 165.068 97.24C162.028 97.24 160.108 99.5 160.108 102.76C160.108 105.98 162.228 108.26 165.248 108.26C166.788 108.26 167.788 107.52 168.088 107.18V108ZM176.494 104.74C176.494 107.02 178.334 108.26 180.394 108.26C181.474 108.26 182.234 107.96 182.774 107.42L182.954 108H185.934V101.5C185.934 99.1 185.014 97.24 181.394 97.24C179.654 97.24 178.234 97.8 177.114 98.54L178.354 100.78C179.174 100.38 180.074 100.12 180.994 100.12C182.074 100.12 182.594 100.62 182.594 101.26V101.64C182.214 101.48 181.494 101.26 180.574 101.26C178.094 101.26 176.494 102.64 176.494 104.74ZM179.834 104.62C179.834 103.94 180.434 103.5 181.234 103.5C182.034 103.5 182.654 103.9 182.654 104.62C182.654 105.32 182.054 105.7 181.254 105.7C180.474 105.7 179.834 105.32 179.834 104.62ZM187.737 108H191.077V93.54H187.737V108ZM199.031 97.24C197.731 97.24 196.751 97.88 196.251 98.9V97.5H192.991V108H196.331V103.36C196.331 101.78 196.871 100.6 198.491 100.6C198.731 100.6 198.891 100.62 199.031 100.64V97.24ZM209.763 103.62C209.783 103.38 209.783 103.16 209.783 102.96C209.783 99.38 207.963 97.24 204.623 97.24C201.543 97.24 199.463 99.7 199.463 102.78C199.463 105.88 201.583 108.26 205.043 108.26C207.763 108.26 209.203 106.56 209.503 105.94L207.303 104.24C207.103 104.54 206.363 105.36 205.103 105.36C203.863 105.36 202.963 104.56 202.883 103.62H209.763ZM204.683 99.94C205.723 99.94 206.343 100.66 206.383 101.5H202.983C203.063 100.76 203.583 99.94 204.683 99.94ZM220.896 103.62C220.916 103.38 220.916 103.16 220.916 102.96C220.916 99.38 219.096 97.24 215.756 97.24C212.676 97.24 210.596 99.7 210.596 102.78C210.596 105.88 212.716 108.26 216.176 108.26C218.896 108.26 220.336 106.56 220.636 105.94L218.436 104.24C218.236 104.54 217.496 105.36 216.236 105.36C214.996 105.36 214.096 104.56 214.016 103.62H220.896ZM215.816 99.94C216.856 99.94 217.476 100.66 217.516 101.5H214.116C214.196 100.76 214.716 99.94 215.816 99.94ZM229.589 102.78C229.589 104.18 228.769 105.34 227.329 105.34C225.989 105.34 225.069 104.34 225.069 102.78C225.069 101.24 225.969 100.18 227.329 100.18C228.649 100.18 229.589 101.12 229.589 102.78ZM229.709 108H232.829V93.54H229.489V98.3C229.269 98.04 228.289 97.24 226.689 97.24C223.649 97.24 221.729 99.5 221.729 102.76C221.729 105.98 223.849 108.26 226.869 108.26C228.409 108.26 229.409 107.52 229.709 107.18V108ZM238.109 108.26C240.509 108.26 242.389 106.94 242.389 104.8C242.389 101 237.549 101.76 237.549 100.44C237.549 100.12 237.829 99.92 238.309 99.92C239.129 99.92 239.729 100.42 240.049 100.74L242.209 99.04C241.589 98.2 240.449 97.24 238.449 97.24C236.169 97.24 234.409 98.46 234.409 100.48C234.409 104.3 239.209 103.78 239.209 104.98C239.209 105.36 238.909 105.56 238.269 105.56C237.209 105.56 236.509 105.14 235.949 104.64L234.069 106.46C234.689 107.3 236.109 108.26 238.109 108.26ZM48.64 117.5H45.06L48.66 128H52.54L56.08 117.5H52.6L50.62 124.46L48.64 117.5ZM66.8923 123.62C66.9123 123.38 66.9123 123.16 66.9123 122.96C66.9123 119.38 65.0923 117.24 61.7523 117.24C58.6723 117.24 56.5923 119.7 56.5923 122.78C56.5923 125.88 58.7123 128.26 62.1723 128.26C64.8923 128.26 66.3323 126.56 66.6323 125.94L64.4323 124.24C64.2323 124.54 63.4923 125.36 62.2323 125.36C60.9923 125.36 60.0923 124.56 60.0123 123.62H66.8923ZM61.8123 119.94C62.8523 119.94 63.4723 120.66 63.5123 121.5H60.1123C60.1923 120.76 60.7123 119.94 61.8123 119.94ZM74.2852 117.24C72.9852 117.24 72.0052 117.88 71.5052 118.9V117.5H68.2452V128H71.5852V123.36C71.5852 121.78 72.1252 120.6 73.7452 120.6C73.9852 120.6 74.1452 120.62 74.2852 120.64V117.24ZM83.6833 119.52V117.5H75.5033V120.28H79.4833L75.4033 126V128H83.7233V125.22H79.5833L83.6833 119.52ZM84.6773 124.74C84.6773 127.02 86.5173 128.26 88.5773 128.26C89.6573 128.26 90.4173 127.96 90.9573 127.42L91.1373 128H94.1173V121.5C94.1173 119.1 93.1973 117.24 89.5773 117.24C87.8373 117.24 86.4173 117.8 85.2973 118.54L86.5373 120.78C87.3573 120.38 88.2573 120.12 89.1773 120.12C90.2573 120.12 90.7773 120.62 90.7773 121.26V121.64C90.3973 121.48 89.6773 121.26 88.7573 121.26C86.2773 121.26 84.6773 122.64 84.6773 124.74ZM88.0173 124.62C88.0173 123.94 88.6173 123.5 89.4173 123.5C90.2173 123.5 90.8373 123.9 90.8373 124.62C90.8373 125.32 90.2373 125.7 89.4373 125.7C88.6573 125.7 88.0173 125.32 88.0173 124.62ZM105.141 121.74C105.141 120.84 105.641 120.24 106.421 120.24C107.221 120.24 107.701 120.8 107.701 121.74V128H111.041V121.02C111.041 118.8 109.901 117.24 107.481 117.24C106.121 117.24 105.141 117.8 104.501 118.62C103.941 117.76 103.021 117.24 101.781 117.24C100.381 117.24 99.5409 117.94 99.1809 118.58V117.5H95.9209V128H99.2609V121.74C99.2609 120.78 99.7609 120.24 100.541 120.24C101.341 120.24 101.801 120.8 101.801 121.74V128H105.141V121.74ZM122.654 123.62C122.674 123.38 122.674 123.16 122.674 122.96C122.674 119.38 120.854 117.24 117.514 117.24C114.434 117.24 112.354 119.7 112.354 122.78C112.354 125.88 114.474 128.26 117.934 128.26C120.654 128.26 122.094 126.56 122.394 125.94L120.194 124.24C119.994 124.54 119.254 125.36 117.994 125.36C116.754 125.36 115.854 124.56 115.774 123.62H122.654ZM117.574 119.94C118.614 119.94 119.234 120.66 119.274 121.5H115.874C115.954 120.76 116.474 119.94 117.574 119.94ZM124.007 128H127.347V113.54H124.007V128ZM132.881 115.28H129.541V117.5H128.521V120.2H129.541V123.9C129.541 127.02 130.981 128.16 133.461 128.16C134.301 128.16 134.741 128.04 134.741 128.04V125.18C134.521 125.2 134.361 125.2 134.181 125.2C133.501 125.2 132.881 124.98 132.881 124.06V120.2H134.661V117.5H132.881V115.28ZM146.418 128H149.758V122.18C149.758 120.04 149.438 117.24 146.158 117.24C144.838 117.24 143.958 117.96 143.558 118.58V113.54H140.218V128H143.558V121.74C143.558 120.9 144.118 120.24 145.038 120.24C145.838 120.24 146.418 120.76 146.418 121.74V128ZM161.385 123.62C161.405 123.38 161.405 123.16 161.405 122.96C161.405 119.38 159.585 117.24 156.245 117.24C153.165 117.24 151.085 119.7 151.085 122.78C151.085 125.88 153.205 128.26 156.665 128.26C159.385 128.26 160.825 126.56 161.125 125.94L158.925 124.24C158.725 124.54 157.985 125.36 156.725 125.36C155.485 125.36 154.585 124.56 154.505 123.62H161.385ZM156.305 119.94C157.345 119.94 157.965 120.66 158.005 121.5H154.605C154.685 120.76 155.205 119.94 156.305 119.94ZM165.977 122.78C165.977 121.12 166.917 120.18 168.237 120.18C169.597 120.18 170.497 121.24 170.497 122.78C170.497 124.34 169.577 125.34 168.237 125.34C166.797 125.34 165.977 124.18 165.977 122.78ZM165.857 127.18C166.157 127.52 167.157 128.26 168.697 128.26C171.717 128.26 173.837 125.98 173.837 122.76C173.837 119.5 171.917 117.24 168.877 117.24C167.277 117.24 166.297 118.04 166.077 118.3V113.54H162.737V128H165.857V127.18ZM178.857 115.28H175.517V117.5H174.497V120.2H175.517V123.9C175.517 127.02 176.957 128.16 179.437 128.16C180.277 128.16 180.717 128.04 180.717 128.04V125.18C180.497 125.2 180.337 125.2 180.157 125.2C179.477 125.2 178.857 124.98 178.857 124.06V120.2H180.637V117.5H178.857V115.28ZM184.389 128.26C185.489 128.26 186.389 127.36 186.389 126.28C186.389 125.18 185.489 124.28 184.389 124.28C183.289 124.28 182.409 125.18 182.409 126.28C182.409 127.36 183.289 128.26 184.389 128.26ZM186.169 114H182.629L182.889 123.78H185.909L186.169 114Z" fill="#FFF6F0"/>
<g filter="url(#filter1_i)">
<circle cx="34.5" cy="34.5" r="34.5" fill="#539882"/>
</g>
<path d="M51.3659 40.685C60.0096 33.8421 54.882 38.5012 63.5257 31.6582C60.2843 23.0145 46.2037 12.9531 46.2037 12.9531L41.8818 21.5968C41.8818 21.5968 46.924 36.3632 51.3659 40.685Z" fill="#89CDD3"/>
<path d="M17.3919 40.685C8.7482 33.8421 13.2262 39.3343 4.58247 32.4914C7.82386 23.8477 22.5541 12.9531 22.5541 12.9531L26.876 21.5968C26.876 21.5968 21.8338 36.3632 17.3919 40.685Z" fill="#89CDD3"/>
<path d="M46.2036 12.953C46.2036 12.953 39.4807 9.35146 36.3594 9.59157C35.2789 9.59145 33.3581 9.7115 32.0375 9.66745C27.8357 9.59157 22.4334 12.953 22.4334 12.953L24.5943 34.5623L20.2725 59.533H48.3645L44.0427 34.5623L46.2036 12.953Z" fill="#A6DFE4"/>
<path d="M31.7979 9.5918H36.5999V10.7923H31.7979V9.5918Z" fill="#2C5291"/>
<path d="M34.1991 34.5625H31.0091L26.7559 18.2355L27.3988 13.0092C27.5144 12.0696 28.0095 11.2014 28.7894 10.5709C29.5693 9.94042 30.5793 9.5918 31.626 9.5918H32.0724V13.4334L31.0091 18.2355L34.1991 34.5625Z" fill="#89CDD3"/>
<path d="M34.1992 34.5625H37.4921L41.8825 18.2355L41.2189 13.0092C41.0995 12.0696 40.5884 11.2014 39.7834 10.5709C38.9783 9.94042 37.9358 9.5918 36.8553 9.5918H36.3944V13.4334L37.4921 18.2355L34.1992 34.5625Z" fill="#89CDD3"/>
<path d="M34.3192 36.7231C34.0326 36.7231 33.7578 36.8032 33.5552 36.9458C33.3525 37.0883 30.8377 33.4001 30.8377 33.6017L28.6768 59.5328H40.2017L37.6806 33.6017C37.6806 33.4001 35.2858 37.0883 35.0832 36.9458C34.8806 36.8032 34.6057 36.7231 34.3192 36.7231Z" fill="#89CDD3"/>
<path d="M23.5137 33.4824H45.1229V37.8043H23.5137V33.4824Z" fill="#2C5291"/>
<defs>
<filter id="filter0_d" x="25" y="49" width="233" height="104" filterUnits="userSpaceOnUse" color-interpolation-filters="sRGB">
<feFlood flood-opacity="0" result="BackgroundImageFix"/>
<feColorMatrix in="SourceAlpha" type="matrix" values="0 0 0 0 0 0 0 0 0 0 0 0 0 0 0 0 0 0 127 0"/>
<feOffset dy="4"/>
<feGaussianBlur stdDeviation="2"/>
<feColorMatrix type="matrix" values="0 0 0 0 0 0 0 0 0 0 0 0 0 0 0 0 0 0 0.25 0"/>
<feBlend mode="normal" in2="BackgroundImageFix" result="effect1_dropShadow"/>
<feBlend mode="normal" in="SourceGraphic" in2="effect1_dropShadow" result="shape"/>
</filter>
<filter id="filter1_i" x="0" y="0" width="69" height="73" filterUnits="userSpaceOnUse" color-interpolation-filters="sRGB">
<feFlood flood-opacity="0" result="BackgroundImageFix"/>
<feBlend mode="normal" in="SourceGraphic" in2="BackgroundImageFix" result="shape"/>
<feColorMatrix in="SourceAlpha" type="matrix" values="0 0 0 0 0 0 0 0 0 0 0 0 0 0 0 0 0 0 127 0" result="hardAlpha"/>
<feOffset dy="4"/>
<feGaussianBlur stdDeviation="2"/>
<feComposite in2="hardAlpha" operator="arithmetic" k2="-1" k3="1"/>
<feColorMatrix type="matrix" values="0 0 0 0 0 0 0 0 0 0 0 0 0 0 0 0 0 0 0.25 0"/>
<feBlend mode="normal" in2="shape" result="effect1_innerShadow"/>
</filter>
</defs>
</svg>
