<svg width="275" height="112" viewBox="0 0 275 112" fill="none" xmlns="http://www.w3.org/2000/svg">
<g filter="url(#filter0_d)">
<rect x="22" y="22" width="249" height="82" fill="#539882"/>
</g>
<path d="M48.66 34H45.24V48H48.66V42.36L52.74 48H56.66L51.32 40.7L56.56 34H52.74L48.66 39.4V34ZM57.753 48H61.093V33.54H57.753V48ZM66.3469 37.5H63.0069V48H66.3469V37.5ZM64.6469 36.86C65.7069 36.86 66.5269 36.1 66.5269 35.06C66.5269 34 65.7069 33.24 64.6469 33.24C63.5869 33.24 62.7869 34 62.7869 35.06C62.7869 36.1 63.5869 36.86 64.6469 36.86ZM78.1808 37.5H74.4408L71.6008 41.72V33.54H68.2608V48H71.6008V43.1L74.5408 48H78.4608L74.8008 42.3L78.1808 37.5ZM89.5184 48H92.8584V42.18C92.8584 40.04 92.5384 37.24 89.2584 37.24C87.9384 37.24 87.0184 37.96 86.6184 38.58V37.5H83.3584V48H86.6984V41.74C86.6984 40.9 87.2184 40.24 88.1384 40.24C88.9384 40.24 89.5184 40.76 89.5184 41.74V48ZM94.1661 42.78C94.1661 45.94 96.5261 48.26 99.8661 48.26C103.186 48.26 105.626 45.9 105.626 42.74C105.626 39.56 103.246 37.24 99.8661 37.24C96.6261 37.24 94.1661 39.6 94.1661 42.78ZM97.5061 42.78C97.5061 41.24 98.4861 40.18 99.8661 40.18C101.226 40.18 102.286 41.2 102.286 42.74C102.286 44.24 101.246 45.32 99.8661 45.32C98.5061 45.32 97.5061 44.3 97.5061 42.78ZM114.231 47.46C114.231 48.74 112.991 49.02 111.751 49.02C110.331 49.02 109.151 48.52 108.851 48.38L107.871 50.94C108.811 51.42 110.271 51.84 111.751 51.84C114.871 51.84 117.571 50.62 117.571 46.74V37.5H114.451V38.32C114.151 37.98 113.151 37.24 111.611 37.24C108.591 37.24 106.471 39.52 106.471 42.74C106.471 46 108.391 48.26 111.431 48.26C113.031 48.26 114.011 47.46 114.231 47.2V47.46ZM114.331 42.72C114.331 44.38 113.391 45.32 112.071 45.32C110.711 45.32 109.811 44.26 109.811 42.72C109.811 41.16 110.711 40.18 112.051 40.18C113.491 40.18 114.331 41.32 114.331 42.72ZM128.633 41.74C128.633 40.84 129.133 40.24 129.913 40.24C130.713 40.24 131.193 40.8 131.193 41.74V48H134.533V41.02C134.533 38.8 133.393 37.24 130.973 37.24C129.613 37.24 128.633 37.8 127.993 38.62C127.433 37.76 126.513 37.24 125.273 37.24C123.873 37.24 123.033 37.94 122.673 38.58V37.5H119.413V48H122.753V41.74C122.753 40.78 123.253 40.24 124.033 40.24C124.833 40.24 125.293 40.8 125.293 41.74V48H128.633V41.74ZM135.806 44.74C135.806 47.02 137.646 48.26 139.706 48.26C140.786 48.26 141.546 47.96 142.086 47.42L142.266 48H145.246V41.5C145.246 39.1 144.326 37.24 140.706 37.24C138.966 37.24 137.546 37.8 136.426 38.54L137.666 40.78C138.486 40.38 139.386 40.12 140.306 40.12C141.386 40.12 141.906 40.62 141.906 41.26V41.64C141.526 41.48 140.806 41.26 139.886 41.26C137.406 41.26 135.806 42.64 135.806 44.74ZM139.146 44.62C139.146 43.94 139.746 43.5 140.546 43.5C141.346 43.5 141.966 43.9 141.966 44.62C141.966 45.32 141.366 45.7 140.566 45.7C139.786 45.7 139.146 45.32 139.146 44.62ZM146.49 44.74C146.49 47.02 148.33 48.26 150.39 48.26C151.47 48.26 152.23 47.96 152.77 47.42L152.95 48H155.93V41.5C155.93 39.1 155.01 37.24 151.39 37.24C149.65 37.24 148.23 37.8 147.11 38.54L148.35 40.78C149.17 40.38 150.07 40.12 150.99 40.12C152.07 40.12 152.59 40.62 152.59 41.26V41.64C152.21 41.48 151.49 41.26 150.57 41.26C148.09 41.26 146.49 42.64 146.49 44.74ZM149.83 44.62C149.83 43.94 150.43 43.5 151.23 43.5C152.03 43.5 152.65 43.9 152.65 44.62C152.65 45.32 152.05 45.7 151.25 45.7C150.47 45.7 149.83 45.32 149.83 44.62ZM157.733 48H161.073V33.54H157.733V48ZM166.347 48.26C168.747 48.26 170.627 46.94 170.627 44.8C170.627 41 165.787 41.76 165.787 40.44C165.787 40.12 166.067 39.92 166.547 39.92C167.367 39.92 167.967 40.42 168.287 40.74L170.447 39.04C169.827 38.2 168.687 37.24 166.687 37.24C164.407 37.24 162.647 38.46 162.647 40.48C162.647 44.3 167.447 43.78 167.447 44.98C167.447 45.36 167.147 45.56 166.507 45.56C165.447 45.56 164.747 45.14 164.187 44.64L162.307 46.46C162.927 47.3 164.347 48.26 166.347 48.26ZM175.26 42.78C175.26 45.94 177.62 48.26 180.96 48.26C184.28 48.26 186.72 45.9 186.72 42.74C186.72 39.56 184.34 37.24 180.96 37.24C177.72 37.24 175.26 39.6 175.26 42.78ZM178.6 42.78C178.6 41.24 179.58 40.18 180.96 40.18C182.32 40.18 183.38 41.2 183.38 42.74C183.38 44.24 182.34 45.32 180.96 45.32C179.6 45.32 178.6 44.3 178.6 42.78ZM191.345 42.72C191.345 41.32 192.165 40.16 193.605 40.16C194.945 40.16 195.865 41.16 195.865 42.72C195.865 44.26 194.965 45.32 193.605 45.32C192.285 45.32 191.345 44.38 191.345 42.72ZM191.225 37.5H188.105V51.74H191.445V47.2C191.665 47.46 192.645 48.26 194.245 48.26C197.285 48.26 199.205 46 199.205 42.74C199.205 39.52 197.085 37.24 194.065 37.24C192.525 37.24 191.525 37.98 191.225 38.32V37.5ZM210.73 48H214.07V42.18C214.07 40.04 213.75 37.24 210.47 37.24C209.15 37.24 208.27 37.96 207.87 38.58V33.54H204.53V48H207.87V41.74C207.87 40.9 208.43 40.24 209.35 40.24C210.15 40.24 210.73 40.76 210.73 41.74V48ZM225.697 43.62C225.717 43.38 225.717 43.16 225.717 42.96C225.717 39.38 223.897 37.24 220.557 37.24C217.477 37.24 215.397 39.7 215.397 42.78C215.397 45.88 217.517 48.26 220.977 48.26C223.697 48.26 225.137 46.56 225.437 45.94L223.237 44.24C223.037 44.54 222.297 45.36 221.037 45.36C219.797 45.36 218.897 44.56 218.817 43.62H225.697ZM220.617 39.94C221.657 39.94 222.277 40.66 222.317 41.5H218.917C218.997 40.76 219.517 39.94 220.617 39.94ZM230.67 35.28H227.33V37.5H226.31V40.2H227.33V43.9C227.33 47.02 228.77 48.16 231.25 48.16C232.09 48.16 232.53 48.04 232.53 48.04V45.18C232.31 45.2 232.15 45.2 231.97 45.2C231.29 45.2 230.67 44.98 230.67 44.06V40.2H232.45V37.5H230.67V35.28ZM47.64 57.5H44.06L47.66 68H51.54L55.08 57.5H51.6L49.62 64.46L47.64 57.5ZM62.1523 57.24C60.8523 57.24 59.8723 57.88 59.3723 58.9V57.5H56.1123V68H59.4523V63.36C59.4523 61.78 59.9923 60.6 61.6123 60.6C61.8523 60.6 62.0123 60.62 62.1523 60.64V57.24ZM62.9352 64.74C62.9352 67.02 64.7752 68.26 66.8352 68.26C67.9152 68.26 68.6752 67.96 69.2152 67.42L69.3952 68H72.3752V61.5C72.3752 59.1 71.4552 57.24 67.8352 57.24C66.0952 57.24 64.6752 57.8 63.5552 58.54L64.7952 60.78C65.6152 60.38 66.5152 60.12 67.4352 60.12C68.5152 60.12 69.0352 60.62 69.0352 61.26V61.64C68.6552 61.48 67.9352 61.26 67.0152 61.26C64.5352 61.26 62.9352 62.64 62.9352 64.74ZM66.2752 64.62C66.2752 63.94 66.8752 63.5 67.6752 63.5C68.4752 63.5 69.0952 63.9 69.0952 64.62C69.0952 65.32 68.4952 65.7 67.6952 65.7C66.9152 65.7 66.2752 65.32 66.2752 64.62ZM73.6188 64.74C73.6188 67.02 75.4588 68.26 77.5188 68.26C78.5988 68.26 79.3588 67.96 79.8988 67.42L80.0788 68H83.0588V61.5C83.0588 59.1 82.1388 57.24 78.5188 57.24C76.7788 57.24 75.3588 57.8 74.2388 58.54L75.4788 60.78C76.2988 60.38 77.1988 60.12 78.1188 60.12C79.1988 60.12 79.7188 60.62 79.7188 61.26V61.64C79.3388 61.48 78.6188 61.26 77.6988 61.26C75.2188 61.26 73.6188 62.64 73.6188 64.74ZM76.9588 64.62C76.9588 63.94 77.5588 63.5 78.3587 63.5C79.1588 63.5 79.7788 63.9 79.7788 64.62C79.7788 65.32 79.1788 65.7 78.3788 65.7C77.5988 65.7 76.9588 65.32 76.9588 64.62ZM92.0823 67.46C92.0823 68.74 90.8423 69.02 89.6023 69.02C88.1823 69.02 87.0023 68.52 86.7023 68.38L85.7223 70.94C86.6623 71.42 88.1223 71.84 89.6023 71.84C92.7223 71.84 95.4223 70.62 95.4223 66.74V57.5H92.3023V58.32C92.0023 57.98 91.0023 57.24 89.4623 57.24C86.4423 57.24 84.3223 59.52 84.3223 62.74C84.3223 66 86.2423 68.26 89.2823 68.26C90.8823 68.26 91.8623 67.46 92.0823 67.2V67.46ZM92.1823 62.72C92.1823 64.38 91.2423 65.32 89.9223 65.32C88.5623 65.32 87.6623 64.26 87.6623 62.72C87.6623 61.16 88.5623 60.18 89.9023 60.18C91.3423 60.18 92.1823 61.32 92.1823 62.72ZM100.885 55.28H97.5447V57.5H96.5247V60.2H97.5447V63.9C97.5447 67.02 98.9847 68.16 101.465 68.16C102.305 68.16 102.745 68.04 102.745 68.04V65.18C102.525 65.2 102.365 65.2 102.185 65.2C101.505 65.2 100.885 64.98 100.885 64.06V60.2H102.665V57.5H100.885V55.28ZM114.076 63.62C114.096 63.38 114.096 63.16 114.096 62.96C114.096 59.38 112.276 57.24 108.936 57.24C105.856 57.24 103.776 59.7 103.776 62.78C103.776 65.88 105.896 68.26 109.356 68.26C112.076 68.26 113.516 66.56 113.816 65.94L111.616 64.24C111.416 64.54 110.676 65.36 109.416 65.36C108.176 65.36 107.276 64.56 107.196 63.62H114.076ZM108.996 59.94C110.036 59.94 110.656 60.66 110.696 61.5H107.296C107.376 60.76 107.896 59.94 108.996 59.94ZM125.349 57.5H121.609L118.769 61.72V53.54H115.429V68H118.769V63.1L121.709 68H125.629L121.969 62.3L125.349 57.5ZM136.381 63.62C136.401 63.38 136.401 63.16 136.401 62.96C136.401 59.38 134.581 57.24 131.241 57.24C128.161 57.24 126.081 59.7 126.081 62.78C126.081 65.88 128.201 68.26 131.661 68.26C134.381 68.26 135.821 66.56 136.121 65.94L133.921 64.24C133.721 64.54 132.981 65.36 131.721 65.36C130.481 65.36 129.581 64.56 129.501 63.62H136.381ZM131.301 59.94C132.341 59.94 132.961 60.66 133.001 61.5H129.601C129.681 60.76 130.201 59.94 131.301 59.94ZM143.893 68H147.233V62.18C147.233 60.04 146.913 57.24 143.633 57.24C142.313 57.24 141.393 57.96 140.993 58.58V57.5H137.733V68H141.073V61.74C141.073 60.9 141.593 60.24 142.513 60.24C143.313 60.24 143.893 60.76 143.893 61.74V68ZM152.467 62.78C152.467 65.94 154.827 68.26 158.167 68.26C161.487 68.26 163.927 65.9 163.927 62.74C163.927 59.56 161.547 57.24 158.167 57.24C154.927 57.24 152.467 59.6 152.467 62.78ZM155.807 62.78C155.807 61.24 156.787 60.18 158.167 60.18C159.527 60.18 160.587 61.2 160.587 62.74C160.587 64.24 159.547 65.32 158.167 65.32C156.807 65.32 155.807 64.3 155.807 62.78ZM174.532 61.74C174.532 60.84 175.032 60.24 175.812 60.24C176.612 60.24 177.092 60.8 177.092 61.74V68H180.432V61.02C180.432 58.8 179.292 57.24 176.872 57.24C175.512 57.24 174.532 57.8 173.892 58.62C173.332 57.76 172.412 57.24 171.172 57.24C169.772 57.24 168.932 57.94 168.572 58.58V57.5H165.312V68H168.652V61.74C168.652 60.78 169.152 60.24 169.932 60.24C170.732 60.24 171.192 60.8 171.192 61.74V68H174.532V61.74ZM193.53 62.78C193.53 64.18 192.71 65.34 191.27 65.34C189.93 65.34 189.01 64.34 189.01 62.78C189.01 61.24 189.91 60.18 191.27 60.18C192.59 60.18 193.53 61.12 193.53 62.78ZM193.65 68H196.77V53.54H193.43V58.3C193.21 58.04 192.23 57.24 190.63 57.24C187.59 57.24 185.67 59.5 185.67 62.76C185.67 65.98 187.79 68.26 190.81 68.26C192.35 68.26 193.35 67.52 193.65 67.18V68ZM208.47 63.62C208.49 63.38 208.49 63.16 208.49 62.96C208.49 59.38 206.67 57.24 203.33 57.24C200.25 57.24 198.17 59.7 198.17 62.78C198.17 65.88 200.29 68.26 203.75 68.26C206.47 68.26 207.91 66.56 208.21 65.94L206.01 64.24C205.81 64.54 205.07 65.36 203.81 65.36C202.57 65.36 201.67 64.56 201.59 63.62H208.47ZM203.39 59.94C204.43 59.94 205.05 60.66 205.09 61.5H201.69C201.77 60.76 202.29 59.94 203.39 59.94ZM217.683 59.52V57.5H209.503V60.28H213.483L209.403 66V68H217.723V65.22H213.583L217.683 59.52ZM228.724 63.62C228.744 63.38 228.744 63.16 228.744 62.96C228.744 59.38 226.924 57.24 223.584 57.24C220.504 57.24 218.424 59.7 218.424 62.78C218.424 65.88 220.544 68.26 224.004 68.26C226.724 68.26 228.164 66.56 228.464 65.94L226.264 64.24C226.064 64.54 225.324 65.36 224.064 65.36C222.824 65.36 221.924 64.56 221.844 63.62H228.724ZM223.644 59.94C224.684 59.94 225.304 60.66 225.344 61.5H221.944C222.024 60.76 222.544 59.94 223.644 59.94ZM48.3 77.5H44.96V88H48.3V77.5ZM46.6 76.86C47.66 76.86 48.48 76.1 48.48 75.06C48.48 74 47.66 73.24 46.6 73.24C45.54 73.24 44.74 74 44.74 75.06C44.74 76.1 45.54 76.86 46.6 76.86ZM56.3739 88H59.7139V82.18C59.7139 80.04 59.3939 77.24 56.1139 77.24C54.7939 77.24 53.8739 77.96 53.4739 78.58V77.5H50.2139V88H53.5539V81.74C53.5539 80.9 54.0739 80.24 54.9939 80.24C55.7939 80.24 56.3739 80.76 56.3739 81.74V88ZM65.4416 77.28C65.4416 76.64 65.8816 76.3 66.7416 76.3C66.9816 76.3 67.1616 76.32 67.2816 76.34V73.54C66.9016 73.52 66.6616 73.5 66.2616 73.5C64.0616 73.5 62.1016 74.44 62.1016 77.2V77.5H61.0016V80.2H62.1016V88H65.4416V80.2H67.0816V77.5H65.4416V77.28ZM67.6622 82.78C67.6622 85.94 70.0222 88.26 73.3622 88.26C76.6822 88.26 79.1222 85.9 79.1222 82.74C79.1222 79.56 76.7422 77.24 73.3622 77.24C70.1222 77.24 67.6622 79.6 67.6622 82.78ZM71.0022 82.78C71.0022 81.24 71.9822 80.18 73.3622 80.18C74.7222 80.18 75.7822 81.2 75.7822 82.74C75.7822 84.24 74.7422 85.32 73.3622 85.32C72.0022 85.32 71.0022 84.3 71.0022 82.78ZM88.0527 75.28H84.7127V77.5H83.6927V80.2H84.7127V83.9C84.7127 87.02 86.1527 88.16 88.6327 88.16C89.4727 88.16 89.9127 88.04 89.9127 88.04V85.18C89.6927 85.2 89.5327 85.2 89.3527 85.2C88.6727 85.2 88.0527 84.98 88.0527 84.06V80.2H89.8327V77.5H88.0527V75.28ZM101.244 83.62C101.264 83.38 101.264 83.16 101.264 82.96C101.264 79.38 99.4439 77.24 96.1039 77.24C93.0239 77.24 90.9439 79.7 90.9439 82.78C90.9439 85.88 93.0639 88.26 96.5239 88.26C99.2439 88.26 100.684 86.56 100.984 85.94L98.7839 84.24C98.5839 84.54 97.8439 85.36 96.5839 85.36C95.3439 85.36 94.4439 84.56 94.3639 83.62H101.244ZM96.1639 79.94C97.2039 79.94 97.8239 80.66 97.8639 81.5H94.4639C94.5439 80.76 95.0639 79.94 96.1639 79.94ZM106.523 88H109.863V73.54H106.523V88ZM111.216 84.74C111.216 87.02 113.056 88.26 115.116 88.26C116.196 88.26 116.956 87.96 117.496 87.42L117.676 88H120.656V81.5C120.656 79.1 119.736 77.24 116.116 77.24C114.376 77.24 112.956 77.8 111.836 78.54L113.076 80.78C113.896 80.38 114.796 80.12 115.716 80.12C116.796 80.12 117.316 80.62 117.316 81.26V81.64C116.936 81.48 116.216 81.26 115.296 81.26C112.816 81.26 111.216 82.64 111.216 84.74ZM114.556 84.62C114.556 83.94 115.156 83.5 115.956 83.5C116.756 83.5 117.376 83.9 117.376 84.62C117.376 85.32 116.776 85.7 115.976 85.7C115.196 85.7 114.556 85.32 114.556 84.62ZM126.08 75.28H122.74V77.5H121.72V80.2H122.74V83.9C122.74 87.02 124.18 88.16 126.66 88.16C127.5 88.16 127.94 88.04 127.94 88.04V85.18C127.72 85.2 127.56 85.2 127.38 85.2C126.7 85.2 126.08 84.98 126.08 84.06V80.2H127.86V77.5H126.08V75.28ZM139.271 83.62C139.291 83.38 139.291 83.16 139.291 82.96C139.291 79.38 137.471 77.24 134.131 77.24C131.051 77.24 128.971 79.7 128.971 82.78C128.971 85.88 131.091 88.26 134.551 88.26C137.271 88.26 138.711 86.56 139.011 85.94L136.811 84.24C136.611 84.54 135.871 85.36 134.611 85.36C133.371 85.36 132.471 84.56 132.391 83.62H139.271ZM134.191 79.94C135.231 79.94 135.851 80.66 135.891 81.5H132.491C132.571 80.76 133.091 79.94 134.191 79.94ZM146.784 88H150.124V82.18C150.124 80.04 149.804 77.24 146.524 77.24C145.204 77.24 144.284 77.96 143.884 78.58V77.5H140.624V88H143.964V81.74C143.964 80.9 144.484 80.24 145.404 80.24C146.204 80.24 146.784 80.76 146.784 81.74V88ZM158.578 77.5H154.998L158.598 88H162.478L166.018 77.5H162.538L160.558 84.46L158.578 77.5ZM176.83 83.62C176.85 83.38 176.85 83.16 176.85 82.96C176.85 79.38 175.03 77.24 171.69 77.24C168.61 77.24 166.53 79.7 166.53 82.78C166.53 85.88 168.65 88.26 172.11 88.26C174.83 88.26 176.27 86.56 176.57 85.94L174.37 84.24C174.17 84.54 173.43 85.36 172.17 85.36C170.93 85.36 170.03 84.56 169.95 83.62H176.83ZM171.75 79.94C172.79 79.94 173.41 80.66 173.45 81.5H170.05C170.13 80.76 170.65 79.94 171.75 79.94ZM184.223 77.24C182.923 77.24 181.943 77.88 181.443 78.9V77.5H178.183V88H181.523V83.36C181.523 81.78 182.063 80.6 183.683 80.6C183.923 80.6 184.083 80.62 184.223 80.64V77.24ZM192.905 82.78C192.905 84.18 192.085 85.34 190.645 85.34C189.305 85.34 188.385 84.34 188.385 82.78C188.385 81.24 189.285 80.18 190.645 80.18C191.965 80.18 192.905 81.12 192.905 82.78ZM193.025 88H196.145V73.54H192.805V78.3C192.585 78.04 191.605 77.24 190.005 77.24C186.965 77.24 185.045 79.5 185.045 82.76C185.045 85.98 187.165 88.26 190.185 88.26C191.725 88.26 192.725 87.52 193.025 87.18V88ZM206.945 88H210.705L213.645 77.5H210.005L208.585 84.36L207.005 77.5H203.885L202.305 84.36L200.885 77.5H197.245L200.185 88H203.945L205.445 82.06L206.945 88ZM218.085 77.5H214.745V88H218.085V77.5ZM216.385 76.86C217.445 76.86 218.265 76.1 218.265 75.06C218.265 74 217.445 73.24 216.385 73.24C215.325 73.24 214.525 74 214.525 75.06C214.525 76.1 215.325 76.86 216.385 76.86ZM223.339 77.5H219.999V87.88C219.999 88.54 219.659 89 218.679 89C218.459 89 218.199 88.96 218.199 88.96V91.78C218.199 91.78 218.579 91.84 218.939 91.84C221.459 91.84 223.339 90.86 223.339 88.04V77.5ZM221.639 76.86C222.699 76.86 223.519 76.1 223.519 75.06C223.519 74 222.699 73.24 221.639 73.24C220.579 73.24 219.779 74 219.779 75.06C219.779 76.1 220.579 76.86 221.639 76.86ZM231.413 88H234.753V82.18C234.753 80.04 234.433 77.24 231.153 77.24C229.833 77.24 228.913 77.96 228.513 78.58V77.5H225.253V88H228.593V81.74C228.593 80.9 229.113 80.24 230.033 80.24C230.833 80.24 231.413 80.76 231.413 81.74V88ZM246.381 83.62C246.401 83.38 246.401 83.16 246.401 82.96C246.401 79.38 244.581 77.24 241.241 77.24C238.161 77.24 236.081 79.7 236.081 82.78C236.081 85.88 238.201 88.26 241.661 88.26C244.381 88.26 245.821 86.56 246.121 85.94L243.921 84.24C243.721 84.54 242.981 85.36 241.721 85.36C240.481 85.36 239.581 84.56 239.501 83.62H246.381ZM241.301 79.94C242.341 79.94 242.961 80.66 243.001 81.5H239.601C239.681 80.76 240.201 79.94 241.301 79.94ZM253.893 88H257.233V82.18C257.233 80.04 256.913 77.24 253.633 77.24C252.313 77.24 251.393 77.96 250.993 78.58V77.5H247.733V88H251.073V81.74C251.073 80.9 251.593 80.24 252.513 80.24C253.313 80.24 253.893 80.76 253.893 81.74V88ZM260.721 88.26C261.821 88.26 262.721 87.36 262.721 86.28C262.721 85.18 261.821 84.28 260.721 84.28C259.621 84.28 258.741 85.18 258.741 86.28C258.741 87.36 259.621 88.26 260.721 88.26Z" fill="#FFF6F0"/>
<g filter="url(#filter1_d)">
<circle cx="22" cy="22" r="22" fill="black"/>
<path d="M19.0164 26.7297H23.509V25.3535C23.509 22.0975 29.108 21.0234 29.108 15.9885C29.108 12.1619 25.9564 9.47656 21.6315 9.47656C17.4406 9.47656 15.5296 12.3297 14.8926 14.1759L18.5805 15.8206C18.9493 14.9479 19.7204 13.7395 21.5644 13.7395C23.3413 13.7395 24.3807 14.9479 24.3807 16.257C24.3807 19.5129 19.0164 20.5535 19.0164 25.085V26.7297ZM21.2627 33.8458C22.872 33.8458 24.1125 32.5703 24.1125 31.0262C24.1125 29.4486 22.872 28.1395 21.2627 28.1395C19.6534 28.1395 18.4129 29.4486 18.4129 31.0262C18.4129 32.5703 19.6534 33.8458 21.2627 33.8458Z" fill="#FFBD3A"/>
</g>
<defs>
<filter id="filter0_d" x="18" y="22" width="257" height="90" filterUnits="userSpaceOnUse" color-interpolation-filters="sRGB">
<feFlood flood-opacity="0" result="BackgroundImageFix"/>
<feColorMatrix in="SourceAlpha" type="matrix" values="0 0 0 0 0 0 0 0 0 0 0 0 0 0 0 0 0 0 127 0"/>
<feOffset dy="4"/>
<feGaussianBlur stdDeviation="2"/>
<feColorMatrix type="matrix" values="0 0 0 0 0 0 0 0 0 0 0 0 0 0 0 0 0 0 0.25 0"/>
<feBlend mode="normal" in2="BackgroundImageFix" result="effect1_dropShadow"/>
<feBlend mode="normal" in="SourceGraphic" in2="effect1_dropShadow" result="shape"/>
</filter>
<filter id="filter1_d" x="0" y="0" width="52" height="52" filterUnits="userSpaceOnUse" color-interpolation-filters="sRGB">
<feFlood flood-opacity="0" result="BackgroundImageFix"/>
<feColorMatrix in="SourceAlpha" type="matrix" values="0 0 0 0 0 0 0 0 0 0 0 0 0 0 0 0 0 0 127 0"/>
<feOffset dx="4" dy="4"/>
<feGaussianBlur stdDeviation="2"/>
<feColorMatrix type="matrix" values="0 0 0 0 0 0 0 0 0 0 0 0 0 0 0 0 0 0 0.2 0"/>
<feBlend mode="normal" in2="BackgroundImageFix" result="effect1_dropShadow"/>
<feBlend mode="normal" in="SourceGraphic" in2="effect1_dropShadow" result="shape"/>
</filter>
</defs>
</svg>
