<svg width="332" height="137" viewBox="0 0 332 137" fill="none" xmlns="http://www.w3.org/2000/svg">
<g filter="url(#filter0_d)">
<rect x="20" y="47" width="308" height="82" fill="#539882"/>
</g>
<path d="M43.772 62.4H40.694V67.296H36.194V62.4H33.116V75H36.194V70.068H40.694V75H43.772V62.4ZM48.7548 65.55H45.7488V75H48.7548V65.55ZM47.2248 64.974C48.1788 64.974 48.9168 64.29 48.9168 63.354C48.9168 62.4 48.1788 61.716 47.2248 61.716C46.2708 61.716 45.5508 62.4 45.5508 63.354C45.5508 64.29 46.2708 64.974 47.2248 64.974ZM59.2793 71.058C59.2973 70.842 59.2973 70.644 59.2973 70.464C59.2973 67.242 57.6593 65.316 54.6533 65.316C51.8813 65.316 50.0093 67.53 50.0093 70.302C50.0093 73.092 51.9173 75.234 55.0313 75.234C57.4793 75.234 58.7753 73.704 59.0453 73.146L57.0653 71.616C56.8853 71.886 56.2193 72.624 55.0853 72.624C53.9693 72.624 53.1593 71.904 53.0873 71.058H59.2793ZM54.7073 67.746C55.6433 67.746 56.2013 68.394 56.2373 69.15H53.1773C53.2493 68.484 53.7173 67.746 54.7073 67.746ZM65.9328 65.316C64.7628 65.316 63.8808 65.892 63.4308 66.81V65.55H60.4968V75H63.5028V70.824C63.5028 69.402 63.9888 68.34 65.4468 68.34C65.6628 68.34 65.8068 68.358 65.9328 68.376V65.316ZM79.6025 65.55H76.2365L73.6805 69.348V61.986H70.6745V75H73.6805V70.59L76.3265 75H79.8545L76.5605 69.87L79.6025 65.55ZM80.2252 72.066C80.2252 74.118 81.8812 75.234 83.7352 75.234C84.7072 75.234 85.3912 74.964 85.8772 74.478L86.0392 75H88.7212V69.15C88.7212 66.99 87.8932 65.316 84.6352 65.316C83.0692 65.316 81.7912 65.82 80.7832 66.486L81.8992 68.502C82.6372 68.142 83.4472 67.908 84.2752 67.908C85.2472 67.908 85.7152 68.358 85.7152 68.934V69.276C85.3732 69.132 84.7252 68.934 83.8972 68.934C81.6652 68.934 80.2252 70.176 80.2252 72.066ZM83.2312 71.958C83.2312 71.346 83.7712 70.95 84.4912 70.95C85.2112 70.95 85.7692 71.31 85.7692 71.958C85.7692 72.588 85.2292 72.93 84.5092 72.93C83.8072 72.93 83.2312 72.588 83.2312 71.958ZM95.8885 75H98.8945V69.762C98.8945 67.836 98.6065 65.316 95.6545 65.316C94.4665 65.316 93.6385 65.964 93.2785 66.522V65.55H90.3445V75H93.3505V69.366C93.3505 68.61 93.8185 68.016 94.6465 68.016C95.3665 68.016 95.8885 68.484 95.8885 69.366V75ZM107.097 65.55H104.091V74.892C104.091 75.486 103.785 75.9 102.903 75.9C102.705 75.9 102.471 75.864 102.471 75.864V78.402C102.471 78.402 102.813 78.456 103.137 78.456C105.405 78.456 107.097 77.574 107.097 75.036V65.55ZM105.567 64.974C106.521 64.974 107.259 64.29 107.259 63.354C107.259 62.4 106.521 61.716 105.567 61.716C104.613 61.716 103.893 62.4 103.893 63.354C103.893 64.29 104.613 64.974 105.567 64.974ZM117.621 71.058C117.639 70.842 117.639 70.644 117.639 70.464C117.639 67.242 116.001 65.316 112.995 65.316C110.223 65.316 108.351 67.53 108.351 70.302C108.351 73.092 110.259 75.234 113.373 75.234C115.821 75.234 117.117 73.704 117.387 73.146L115.407 71.616C115.227 71.886 114.561 72.624 113.427 72.624C112.311 72.624 111.501 71.904 111.429 71.058H117.621ZM113.049 67.746C113.985 67.746 114.543 68.394 114.579 69.15H111.519C111.591 68.484 112.059 67.746 113.049 67.746ZM131.174 71.058C131.192 70.842 131.192 70.644 131.192 70.464C131.192 67.242 129.554 65.316 126.548 65.316C123.776 65.316 121.904 67.53 121.904 70.302C121.904 73.092 123.812 75.234 126.926 75.234C129.374 75.234 130.67 73.704 130.94 73.146L128.96 71.616C128.78 71.886 128.114 72.624 126.98 72.624C125.864 72.624 125.054 71.904 124.982 71.058H131.174ZM126.602 67.746C127.538 67.746 128.096 68.394 128.132 69.15H125.072C125.144 68.484 125.612 67.746 126.602 67.746ZM137.935 75H140.941V69.762C140.941 67.836 140.653 65.316 137.701 65.316C136.513 65.316 135.685 65.964 135.325 66.522V65.55H132.391V75H135.397V69.366C135.397 68.61 135.865 68.016 136.693 68.016C137.413 68.016 137.935 68.484 137.935 69.366V75ZM151.532 65.55H148.166L145.61 69.348V61.986H142.604V75H145.61V70.59L148.256 75H151.784L148.49 69.87L151.532 65.55ZM161.461 71.058C161.479 70.842 161.479 70.644 161.479 70.464C161.479 67.242 159.841 65.316 156.835 65.316C154.063 65.316 152.191 67.53 152.191 70.302C152.191 73.092 154.099 75.234 157.213 75.234C159.661 75.234 160.957 73.704 161.227 73.146L159.247 71.616C159.067 71.886 158.401 72.624 157.267 72.624C156.151 72.624 155.341 71.904 155.269 71.058H161.461ZM156.889 67.746C157.825 67.746 158.383 68.394 158.419 69.15H155.359C155.431 68.484 155.899 67.746 156.889 67.746ZM162.678 75H165.684V61.986H162.678V75ZM176.209 71.058C176.227 70.842 176.227 70.644 176.227 70.464C176.227 67.242 174.589 65.316 171.583 65.316C168.811 65.316 166.939 67.53 166.939 70.302C166.939 73.092 168.847 75.234 171.961 75.234C174.409 75.234 175.705 73.704 175.975 73.146L173.995 71.616C173.815 71.886 173.149 72.624 172.015 72.624C170.899 72.624 170.089 71.904 170.017 71.058H176.209ZM171.637 67.746C172.573 67.746 173.131 68.394 173.167 69.15H170.107C170.179 68.484 170.647 67.746 171.637 67.746ZM188.952 75H192.336L194.982 65.55H191.706L190.428 71.724L189.006 65.55H186.198L184.776 71.724L183.498 65.55H180.222L182.868 75H186.252L187.602 69.654L188.952 75ZM204.773 71.058C204.791 70.842 204.791 70.644 204.791 70.464C204.791 67.242 203.153 65.316 200.147 65.316C197.375 65.316 195.503 67.53 195.503 70.302C195.503 73.092 197.411 75.234 200.525 75.234C202.973 75.234 204.269 73.704 204.539 73.146L202.559 71.616C202.379 71.886 201.713 72.624 200.579 72.624C199.463 72.624 198.653 71.904 198.581 71.058H204.773ZM200.201 67.746C201.137 67.746 201.695 68.394 201.731 69.15H198.671C198.743 68.484 199.211 67.746 200.201 67.746ZM214.793 71.058C214.811 70.842 214.811 70.644 214.811 70.464C214.811 67.242 213.173 65.316 210.167 65.316C207.395 65.316 205.523 67.53 205.523 70.302C205.523 73.092 207.431 75.234 210.545 75.234C212.993 75.234 214.289 73.704 214.559 73.146L212.579 71.616C212.399 71.886 211.733 72.624 210.599 72.624C209.483 72.624 208.673 71.904 208.601 71.058H214.793ZM210.221 67.746C211.157 67.746 211.715 68.394 211.751 69.15H208.691C208.763 68.484 209.231 67.746 210.221 67.746ZM219.268 63.552H216.262V65.55H215.344V67.98H216.262V71.31C216.262 74.118 217.558 75.144 219.79 75.144C220.546 75.144 220.942 75.036 220.942 75.036V72.462C220.744 72.48 220.6 72.48 220.438 72.48C219.826 72.48 219.268 72.282 219.268 71.454V67.98H220.87V65.55H219.268V63.552ZM225.345 65.55H222.339V74.892C222.339 75.486 222.033 75.9 221.151 75.9C220.953 75.9 220.719 75.864 220.719 75.864V78.402C220.719 78.402 221.061 78.456 221.385 78.456C223.653 78.456 225.345 77.574 225.345 75.036V65.55ZM223.815 64.974C224.769 64.974 225.507 64.29 225.507 63.354C225.507 62.4 224.769 61.716 223.815 61.716C222.861 61.716 222.141 62.4 222.141 63.354C222.141 64.29 222.861 64.974 223.815 64.974ZM235.869 71.058C235.887 70.842 235.887 70.644 235.887 70.464C235.887 67.242 234.249 65.316 231.243 65.316C228.471 65.316 226.599 67.53 226.599 70.302C226.599 73.092 228.507 75.234 231.621 75.234C234.069 75.234 235.365 73.704 235.635 73.146L233.655 71.616C233.475 71.886 232.809 72.624 231.675 72.624C230.559 72.624 229.749 71.904 229.677 71.058H235.869ZM231.297 67.746C232.233 67.746 232.791 68.394 232.827 69.15H229.767C229.839 68.484 230.307 67.746 231.297 67.746ZM240.111 75.234C242.271 75.234 243.963 74.046 243.963 72.12C243.963 68.7 239.607 69.384 239.607 68.196C239.607 67.908 239.859 67.728 240.291 67.728C241.029 67.728 241.569 68.178 241.857 68.466L243.801 66.936C243.243 66.18 242.217 65.316 240.417 65.316C238.365 65.316 236.781 66.414 236.781 68.232C236.781 71.67 241.101 71.202 241.101 72.282C241.101 72.624 240.831 72.804 240.255 72.804C239.301 72.804 238.671 72.426 238.167 71.976L236.475 73.614C237.033 74.37 238.311 75.234 240.111 75.234ZM251.03 65.55H247.808L251.048 75H254.54L257.726 65.55H254.594L252.812 71.814L251.03 65.55ZM261.661 65.55H258.655V75H261.661V65.55ZM260.131 64.974C261.085 64.974 261.823 64.29 261.823 63.354C261.823 62.4 261.085 61.716 260.131 61.716C259.177 61.716 258.457 62.4 258.457 63.354C258.457 64.29 259.177 64.974 260.131 64.974ZM268.928 75H271.934V69.762C271.934 67.836 271.646 65.316 268.694 65.316C267.506 65.316 266.678 65.964 266.318 66.522V65.55H263.384V75H266.39V69.366C266.39 68.61 266.858 68.016 267.686 68.016C268.406 68.016 268.928 68.484 268.928 69.366V75ZM280.202 70.302C280.202 71.562 279.464 72.606 278.168 72.606C276.962 72.606 276.134 71.706 276.134 70.302C276.134 68.916 276.944 67.962 278.168 67.962C279.356 67.962 280.202 68.808 280.202 70.302ZM280.31 75H283.118V61.986H280.112V66.27C279.914 66.036 279.032 65.316 277.592 65.316C274.856 65.316 273.128 67.35 273.128 70.284C273.128 73.182 275.036 75.234 277.754 75.234C279.14 75.234 280.04 74.568 280.31 74.262V75ZM293.648 71.058C293.666 70.842 293.666 70.644 293.666 70.464C293.666 67.242 292.028 65.316 289.022 65.316C286.25 65.316 284.378 67.53 284.378 70.302C284.378 73.092 286.286 75.234 289.4 75.234C291.848 75.234 293.144 73.704 293.414 73.146L291.434 71.616C291.254 71.886 290.588 72.624 289.454 72.624C288.338 72.624 287.528 71.904 287.456 71.058H293.648ZM289.076 67.746C290.012 67.746 290.57 68.394 290.606 69.15H287.546C287.618 68.484 288.086 67.746 289.076 67.746ZM300.41 75H303.416V69.762C303.416 67.836 303.128 65.316 300.176 65.316C298.988 65.316 298.16 65.964 297.8 66.522V65.55H294.866V75H297.872V69.366C297.872 68.61 298.34 68.016 299.168 68.016C299.888 68.016 300.41 68.484 300.41 69.366V75ZM32.378 88.302C32.378 91.146 34.502 93.234 37.508 93.234C40.496 93.234 42.692 91.11 42.692 88.266C42.692 85.404 40.55 83.316 37.508 83.316C34.592 83.316 32.378 85.44 32.378 88.302ZM35.384 88.302C35.384 86.916 36.266 85.962 37.508 85.962C38.732 85.962 39.686 86.88 39.686 88.266C39.686 89.616 38.75 90.588 37.508 90.588C36.284 90.588 35.384 89.67 35.384 88.302ZM46.3502 83.55H43.1282L46.3682 93H49.8602L53.0462 83.55H49.9142L48.1322 89.814L46.3502 83.55ZM62.7773 89.058C62.7953 88.842 62.7953 88.644 62.7953 88.464C62.7953 85.242 61.1573 83.316 58.1513 83.316C55.3793 83.316 53.5073 85.53 53.5073 88.302C53.5073 91.092 55.4153 93.234 58.5293 93.234C60.9773 93.234 62.2733 91.704 62.5433 91.146L60.5633 89.616C60.3833 89.886 59.7173 90.624 58.5833 90.624C57.4673 90.624 56.6573 89.904 56.5853 89.058H62.7773ZM58.2053 85.746C59.1413 85.746 59.6993 86.394 59.7353 87.15H56.6753C56.7473 86.484 57.2153 85.746 58.2053 85.746ZM69.4309 83.316C68.2609 83.316 67.3789 83.892 66.9289 84.81V83.55H63.9949V93H67.0009V88.824C67.0009 87.402 67.4869 86.34 68.9449 86.34C69.1609 86.34 69.3049 86.358 69.4309 86.376V83.316ZM80.7786 88.302C80.7786 89.562 80.0406 90.606 78.7446 90.606C77.5386 90.606 76.7106 89.706 76.7106 88.302C76.7106 86.916 77.5206 85.962 78.7446 85.962C79.9326 85.962 80.7786 86.808 80.7786 88.302ZM80.8866 93H83.6946V79.986H80.6886V84.27C80.4906 84.036 79.6086 83.316 78.1686 83.316C75.4326 83.316 73.7046 85.35 73.7046 88.284C73.7046 91.182 75.6126 93.234 78.3306 93.234C79.7166 93.234 80.6166 92.568 80.8866 92.262V93ZM94.2246 89.058C94.2426 88.842 94.2426 88.644 94.2426 88.464C94.2426 85.242 92.6046 83.316 89.5986 83.316C86.8266 83.316 84.9546 85.53 84.9546 88.302C84.9546 91.092 86.8626 93.234 89.9766 93.234C92.4246 93.234 93.7206 91.704 93.9906 91.146L92.0106 89.616C91.8306 89.886 91.1646 90.624 90.0306 90.624C88.9146 90.624 88.1046 89.904 88.0326 89.058H94.2246ZM89.6526 85.746C90.5886 85.746 91.1466 86.394 91.1826 87.15H88.1226C88.1946 86.484 88.6626 85.746 89.6526 85.746ZM101.891 88.248C101.891 86.988 102.629 85.944 103.925 85.944C105.131 85.944 105.959 86.844 105.959 88.248C105.959 89.634 105.149 90.588 103.925 90.588C102.737 90.588 101.891 89.742 101.891 88.248ZM101.783 83.55H98.9753V96.366H101.981V92.28C102.179 92.514 103.061 93.234 104.501 93.234C107.237 93.234 108.965 91.2 108.965 88.266C108.965 85.368 107.057 83.316 104.339 83.316C102.953 83.316 102.053 83.982 101.783 84.288V83.55ZM110.225 93H113.231V79.986H110.225V93ZM114.45 90.066C114.45 92.118 116.106 93.234 117.96 93.234C118.932 93.234 119.616 92.964 120.102 92.478L120.264 93H122.946V87.15C122.946 84.99 122.118 83.316 118.86 83.316C117.294 83.316 116.016 83.82 115.008 84.486L116.124 86.502C116.862 86.142 117.672 85.908 118.5 85.908C119.472 85.908 119.94 86.358 119.94 86.934V87.276C119.598 87.132 118.95 86.934 118.122 86.934C115.89 86.934 114.45 88.176 114.45 90.066ZM117.456 89.958C117.456 89.346 117.996 88.95 118.716 88.95C119.436 88.95 119.994 89.31 119.994 89.958C119.994 90.588 119.454 90.93 118.734 90.93C118.032 90.93 117.456 90.588 117.456 89.958ZM124.065 90.066C124.065 92.118 125.721 93.234 127.575 93.234C128.547 93.234 129.231 92.964 129.717 92.478L129.879 93H132.561V87.15C132.561 84.99 131.733 83.316 128.475 83.316C126.909 83.316 125.631 83.82 124.623 84.486L125.739 86.502C126.477 86.142 127.287 85.908 128.115 85.908C129.087 85.908 129.555 86.358 129.555 86.934V87.276C129.213 87.132 128.565 86.934 127.737 86.934C125.505 86.934 124.065 88.176 124.065 90.066ZM127.071 89.958C127.071 89.346 127.611 88.95 128.331 88.95C129.051 88.95 129.609 89.31 129.609 89.958C129.609 90.588 129.069 90.93 128.349 90.93C127.647 90.93 127.071 90.588 127.071 89.958ZM137.442 81.552H134.436V83.55H133.518V85.98H134.436V89.31C134.436 92.118 135.732 93.144 137.964 93.144C138.72 93.144 139.116 93.036 139.116 93.036V90.462C138.918 90.48 138.774 90.48 138.612 90.48C138 90.48 137.442 90.282 137.442 89.454V85.98H139.044V83.55H137.442V81.552ZM143.536 93.234C145.696 93.234 147.388 92.046 147.388 90.12C147.388 86.7 143.032 87.384 143.032 86.196C143.032 85.908 143.284 85.728 143.716 85.728C144.454 85.728 144.994 86.178 145.282 86.466L147.226 84.936C146.668 84.18 145.642 83.316 143.842 83.316C141.79 83.316 140.206 84.414 140.206 86.232C140.206 89.67 144.526 89.202 144.526 90.282C144.526 90.624 144.256 90.804 143.68 90.804C142.726 90.804 142.096 90.426 141.592 89.976L139.9 91.614C140.458 92.37 141.736 93.234 143.536 93.234ZM160.036 93H163.42L166.066 83.55H162.79L161.512 89.724L160.09 83.55H157.282L155.86 89.724L154.582 83.55H151.306L153.952 93H157.336L158.686 87.654L160.036 93ZM166.551 90.066C166.551 92.118 168.207 93.234 170.061 93.234C171.033 93.234 171.717 92.964 172.203 92.478L172.365 93H175.047V87.15C175.047 84.99 174.219 83.316 170.961 83.316C169.395 83.316 168.117 83.82 167.109 84.486L168.225 86.502C168.963 86.142 169.773 85.908 170.601 85.908C171.573 85.908 172.041 86.358 172.041 86.934V87.276C171.699 87.132 171.051 86.934 170.223 86.934C167.991 86.934 166.551 88.176 166.551 90.066ZM169.557 89.958C169.557 89.346 170.097 88.95 170.817 88.95C171.537 88.95 172.095 89.31 172.095 89.958C172.095 90.588 171.555 90.93 170.835 90.93C170.133 90.93 169.557 90.588 169.557 89.958ZM176.167 90.066C176.167 92.118 177.823 93.234 179.677 93.234C180.649 93.234 181.333 92.964 181.819 92.478L181.981 93H184.663V87.15C184.663 84.99 183.835 83.316 180.577 83.316C179.011 83.316 177.733 83.82 176.725 84.486L177.841 86.502C178.579 86.142 179.389 85.908 180.217 85.908C181.189 85.908 181.657 86.358 181.657 86.934V87.276C181.315 87.132 180.667 86.934 179.839 86.934C177.607 86.934 176.167 88.176 176.167 90.066ZM179.173 89.958C179.173 89.346 179.713 88.95 180.433 88.95C181.153 88.95 181.711 89.31 181.711 89.958C181.711 90.588 181.171 90.93 180.451 90.93C179.749 90.93 179.173 90.588 179.173 89.958ZM191.722 83.316C190.552 83.316 189.67 83.892 189.22 84.81V83.55H186.286V93H189.292V88.824C189.292 87.402 189.778 86.34 191.236 86.34C191.452 86.34 191.596 86.358 191.722 86.376V83.316ZM199.47 83.55H196.464V92.892C196.464 93.486 196.158 93.9 195.276 93.9C195.078 93.9 194.844 93.864 194.844 93.864V96.402C194.844 96.402 195.186 96.456 195.51 96.456C197.778 96.456 199.47 95.574 199.47 93.036V83.55ZM197.94 82.974C198.894 82.974 199.632 82.29 199.632 81.354C199.632 80.4 198.894 79.716 197.94 79.716C196.986 79.716 196.266 80.4 196.266 81.354C196.266 82.29 196.986 82.974 197.94 82.974ZM209.994 89.058C210.012 88.842 210.012 88.644 210.012 88.464C210.012 85.242 208.374 83.316 205.368 83.316C202.596 83.316 200.724 85.53 200.724 88.302C200.724 91.092 202.632 93.234 205.746 93.234C208.194 93.234 209.49 91.704 209.76 91.146L207.78 89.616C207.6 89.886 206.934 90.624 205.8 90.624C204.684 90.624 203.874 89.904 203.802 89.058H209.994ZM205.422 85.746C206.358 85.746 206.916 86.394 206.952 87.15H203.892C203.964 86.484 204.432 85.746 205.422 85.746ZM223.043 87.366C223.043 86.556 223.493 86.016 224.195 86.016C224.915 86.016 225.347 86.52 225.347 87.366V93H228.353V86.718C228.353 84.72 227.327 83.316 225.149 83.316C223.925 83.316 223.043 83.82 222.467 84.558C221.963 83.784 221.135 83.316 220.019 83.316C218.759 83.316 218.003 83.946 217.679 84.522V83.55H214.745V93H217.751V87.366C217.751 86.502 218.201 86.016 218.903 86.016C219.623 86.016 220.037 86.52 220.037 87.366V93H223.043V87.366ZM229.517 88.302C229.517 91.146 231.641 93.234 234.647 93.234C237.635 93.234 239.831 91.11 239.831 88.266C239.831 85.404 237.689 83.316 234.647 83.316C231.731 83.316 229.517 85.44 229.517 88.302ZM232.523 88.302C232.523 86.916 233.405 85.962 234.647 85.962C235.871 85.962 236.825 86.88 236.825 88.266C236.825 89.616 235.889 90.588 234.647 90.588C233.423 90.588 232.523 89.67 232.523 88.302ZM249.375 87.366C249.375 86.556 249.825 86.016 250.527 86.016C251.247 86.016 251.679 86.52 251.679 87.366V93H254.685V86.718C254.685 84.72 253.659 83.316 251.481 83.316C250.257 83.316 249.375 83.82 248.799 84.558C248.295 83.784 247.467 83.316 246.351 83.316C245.091 83.316 244.335 83.946 244.011 84.522V83.55H241.077V93H244.083V87.366C244.083 86.502 244.533 86.016 245.235 86.016C245.955 86.016 246.369 86.52 246.369 87.366V93H249.375V87.366ZM265.137 89.058C265.155 88.842 265.155 88.644 265.155 88.464C265.155 85.242 263.517 83.316 260.511 83.316C257.739 83.316 255.867 85.53 255.867 88.302C255.867 91.092 257.775 93.234 260.889 93.234C263.337 93.234 264.633 91.704 264.903 91.146L262.923 89.616C262.743 89.886 262.077 90.624 260.943 90.624C259.827 90.624 259.017 89.904 258.945 89.058H265.137ZM260.565 85.746C261.501 85.746 262.059 86.394 262.095 87.15H259.035C259.107 86.484 259.575 85.746 260.565 85.746ZM271.898 93H274.904V87.762C274.904 85.836 274.616 83.316 271.664 83.316C270.476 83.316 269.648 83.964 269.288 84.522V83.55H266.354V93H269.36V87.366C269.36 86.61 269.828 86.016 270.656 86.016C271.376 86.016 271.898 86.484 271.898 87.366V93ZM279.825 81.552H276.819V83.55H275.901V85.98H276.819V89.31C276.819 92.118 278.115 93.144 280.347 93.144C281.103 93.144 281.499 93.036 281.499 93.036V90.462C281.301 90.48 281.157 90.48 280.995 90.48C280.383 90.48 279.825 90.282 279.825 89.454V85.98H281.427V83.55H279.825V81.552ZM291.697 89.058C291.715 88.842 291.715 88.644 291.715 88.464C291.715 85.242 290.077 83.316 287.071 83.316C284.299 83.316 282.427 85.53 282.427 88.302C282.427 91.092 284.335 93.234 287.449 93.234C289.897 93.234 291.193 91.704 291.463 91.146L289.483 89.616C289.303 89.886 288.637 90.624 287.503 90.624C286.387 90.624 285.577 89.904 285.505 89.058H291.697ZM287.125 85.746C288.061 85.746 288.619 86.394 288.655 87.15H285.595C285.667 86.484 286.135 85.746 287.125 85.746ZM301.717 89.058C301.735 88.842 301.735 88.644 301.735 88.464C301.735 85.242 300.097 83.316 297.091 83.316C294.319 83.316 292.447 85.53 292.447 88.302C292.447 91.092 294.355 93.234 297.469 93.234C299.917 93.234 301.213 91.704 301.483 91.146L299.503 89.616C299.323 89.886 298.657 90.624 297.523 90.624C296.407 90.624 295.597 89.904 295.525 89.058H301.717ZM297.145 85.746C298.081 85.746 298.639 86.394 298.675 87.15H295.615C295.687 86.484 296.155 85.746 297.145 85.746ZM302.934 93H305.94V79.986H302.934V93ZM32.378 106.302C32.378 109.146 34.502 111.234 37.508 111.234C40.496 111.234 42.692 109.11 42.692 106.266C42.692 103.404 40.55 101.316 37.508 101.316C34.592 101.316 32.378 103.44 32.378 106.302ZM35.384 106.302C35.384 104.916 36.266 103.962 37.508 103.962C38.732 103.962 39.686 104.88 39.686 106.266C39.686 107.616 38.75 108.588 37.508 108.588C36.284 108.588 35.384 107.67 35.384 106.302ZM46.8542 106.248C46.8542 104.988 47.5922 103.944 48.8882 103.944C50.0942 103.944 50.9222 104.844 50.9222 106.248C50.9222 107.634 50.1122 108.588 48.8882 108.588C47.7002 108.588 46.8542 107.742 46.8542 106.248ZM46.7462 101.55H43.9382V114.366H46.9442V110.28C47.1422 110.514 48.0242 111.234 49.4642 111.234C52.2002 111.234 53.9282 109.2 53.9282 106.266C53.9282 103.368 52.0202 101.316 49.3022 101.316C47.9162 101.316 47.0162 101.982 46.7462 102.288V101.55ZM64.1574 101.316C62.9874 101.316 62.1054 101.892 61.6554 102.81V101.55H58.7214V111H61.7274V106.824C61.7274 105.402 62.2134 104.34 63.6714 104.34C63.8874 104.34 64.0314 104.358 64.1574 104.376V101.316ZM73.8164 107.058C73.8344 106.842 73.8344 106.644 73.8344 106.464C73.8344 103.242 72.1964 101.316 69.1904 101.316C66.4184 101.316 64.5464 103.53 64.5464 106.302C64.5464 109.092 66.4544 111.234 69.5684 111.234C72.0164 111.234 73.3124 109.704 73.5824 109.146L71.6024 107.616C71.4224 107.886 70.7564 108.624 69.6224 108.624C68.5064 108.624 67.6964 107.904 67.6244 107.058H73.8164ZM69.2444 103.746C70.1804 103.746 70.7384 104.394 70.7744 105.15H67.7144C67.7864 104.484 68.2544 103.746 69.2444 103.746ZM78.0399 101.55H75.0339V111H78.0399V101.55ZM76.5099 100.974C77.4639 100.974 78.2019 100.29 78.2019 99.354C78.2019 98.4 77.4639 97.716 76.5099 97.716C75.5559 97.716 74.8359 98.4 74.8359 99.354C74.8359 100.29 75.5559 100.974 76.5099 100.974ZM82.7864 111.234C84.9464 111.234 86.6384 110.046 86.6384 108.12C86.6384 104.7 82.2824 105.384 82.2824 104.196C82.2824 103.908 82.5344 103.728 82.9664 103.728C83.7044 103.728 84.2444 104.178 84.5324 104.466L86.4764 102.936C85.9184 102.18 84.8924 101.316 83.0924 101.316C81.0404 101.316 79.4564 102.414 79.4564 104.232C79.4564 107.67 83.7764 107.202 83.7764 108.282C83.7764 108.624 83.5064 108.804 82.9304 108.804C81.9764 108.804 81.3464 108.426 80.8424 107.976L79.1504 109.614C79.7084 110.37 80.9864 111.234 82.7864 111.234ZM94.2097 106.302C94.2097 104.808 95.0557 103.962 96.2437 103.962C97.4677 103.962 98.2777 104.916 98.2777 106.302C98.2777 107.706 97.4497 108.606 96.2437 108.606C94.9477 108.606 94.2097 107.562 94.2097 106.302ZM94.1017 110.262C94.3717 110.568 95.2717 111.234 96.6577 111.234C99.3757 111.234 101.284 109.182 101.284 106.284C101.284 103.35 99.5557 101.316 96.8197 101.316C95.3797 101.316 94.4977 102.036 94.2997 102.27V97.986H91.2937V111H94.1017V110.262ZM111.346 107.058C111.364 106.842 111.364 106.644 111.364 106.464C111.364 103.242 109.726 101.316 106.72 101.316C103.948 101.316 102.076 103.53 102.076 106.302C102.076 109.092 103.984 111.234 107.098 111.234C109.546 111.234 110.842 109.704 111.112 109.146L109.132 107.616C108.952 107.886 108.286 108.624 107.152 108.624C106.036 108.624 105.226 107.904 105.154 107.058H111.346ZM106.774 103.746C107.71 103.746 108.268 104.394 108.304 105.15H105.244C105.316 104.484 105.784 103.746 106.774 103.746ZM118.107 111H121.113V105.762C121.113 103.836 120.825 101.316 117.873 101.316C116.685 101.316 115.857 101.964 115.497 102.522V101.55H112.563V111H115.569V105.366C115.569 104.61 116.037 104.016 116.865 104.016C117.585 104.016 118.107 104.484 118.107 105.366V111ZM126.034 99.552H123.028V101.55H122.11V103.98H123.028V107.31C123.028 110.118 124.324 111.144 126.556 111.144C127.312 111.144 127.708 111.036 127.708 111.036V108.462C127.51 108.48 127.366 108.48 127.204 108.48C126.592 108.48 126.034 108.282 126.034 107.454V103.98H127.636V101.55H126.034V99.552ZM130.58 111.234C131.57 111.234 132.38 110.424 132.38 109.452C132.38 108.462 131.57 107.652 130.58 107.652C129.59 107.652 128.798 108.462 128.798 109.452C128.798 110.424 129.59 111.234 130.58 111.234Z" fill="#FCFCF2"/>
<g filter="url(#filter1_i)">
<circle cx="29.5" cy="29.5" r="29.5" fill="#539882"/>
</g>
<g filter="url(#filter2_d)">
<path d="M29.4997 48.3295C39.8991 48.3295 48.3295 39.8991 48.3295 29.4997C48.3295 19.1003 39.8991 10.6699 29.4997 10.6699C19.1003 10.6699 10.6699 19.1003 10.6699 29.4997C10.6699 39.8991 19.1003 48.3295 29.4997 48.3295Z" fill="#F42F4C"/>
<path d="M29.4996 33.8932L35.7134 38.2868L33.3911 31.1315L39.5421 26.4868H31.8847L29.4996 19.457L27.1772 26.4868H19.457L25.6081 31.1315L23.2858 38.2868L29.4996 33.8932Z" fill="#FFE62E"/>
</g>
<g filter="url(#filter3_i)">
<circle cx="100.5" cy="29.5" r="29.5" fill="#539882"/>
</g>
<g filter="url(#filter4_d)">
<circle cx="108.412" cy="28.4896" r="13.4271" fill="#FFBD3A"/>
</g>
<g filter="url(#filter5_d)">
<rect x="78.5312" y="35.5098" width="32.1307" height="5.45262" rx="2.72631" fill="#FFF6F0"/>
<rect x="81.0098" y="32.1035" width="27.1748" height="4.49841" rx="2.2492" fill="#FFF6F0"/>
<rect x="84.4785" y="28.9688" width="20.2365" height="4.49841" rx="2.2492" fill="#FFF6F0"/>
<rect x="88.6084" y="26.7852" width="11.9767" height="4.49841" rx="2.2492" fill="#FFF6F0"/>
</g>
<g filter="url(#filter6_i)">
<circle cx="171.5" cy="29.5" r="29.5" fill="#539882"/>
</g>
<g clip-path="url(#clip0)" filter="url(#filter7_d)">
<path d="M163.153 17.5743C160.83 17.8881 158.696 18.7041 156.876 20.4615L154.993 15.3775C156.813 13.62 158.947 12.8041 161.27 12.4902L163.153 17.5743" fill="#333333"/>
<path d="M170.433 17.5112C167.922 17.3857 165.411 17.2601 163.089 17.574L161.206 12.4899C163.528 12.1761 166.039 12.3016 168.55 12.4272L170.433 17.5112Z" fill="white"/>
<path d="M177.776 17.4473C175.454 17.7612 172.943 17.6356 170.433 17.5101L168.55 12.426C171.06 12.5516 173.571 12.6771 175.893 12.3633C176.521 13.9952 177.149 15.6899 177.776 17.4473Z" fill="#333333"/>
<path d="M184.054 14.4981C182.234 16.2556 180.1 17.0715 177.778 17.3853L175.895 12.3013C178.217 11.9875 180.351 11.1715 182.171 9.41406L184.054 14.4981Z" fill="white"/>
<path d="M165.036 22.6583C162.713 22.9721 160.579 23.7881 158.759 25.5455L156.876 20.4615C158.696 18.704 160.83 17.888 163.153 17.5742L165.036 22.6583Z" fill="white"/>
<path d="M172.316 22.5952C169.806 22.4697 167.295 22.3441 164.973 22.658L163.09 17.5739C165.412 17.2601 167.923 17.3856 170.433 17.5112L172.316 22.5952Z" fill="#333333"/>
<path d="M179.66 22.5313C177.338 22.8451 174.827 22.7196 172.317 22.5941L170.434 17.51C172.944 17.6356 175.455 17.7611 177.777 17.4473L179.66 22.5313Z" fill="white"/>
<path d="M185.937 19.6446C184.117 21.402 181.983 22.218 179.66 22.5318L177.777 17.4478C180.1 17.134 182.234 16.318 184.054 14.5605C184.682 16.1925 185.309 17.8871 185.937 19.6446" fill="#333333"/>
<path d="M166.918 27.8047C164.596 28.1186 162.462 28.9345 160.642 30.692L158.759 25.6079C160.579 23.8505 162.713 23.0345 165.035 22.7207L166.918 27.8047" fill="#333333"/>
<path d="M174.262 27.6792C171.751 27.5536 169.24 27.4281 166.918 27.7419L165.035 22.6579C167.357 22.3441 169.868 22.4696 172.379 22.5951C172.944 24.2898 173.634 25.9845 174.262 27.6792Z" fill="white"/>
<path d="M181.543 27.6153C179.22 27.9291 176.71 27.8036 174.262 27.6781L172.379 22.594C174.89 22.7195 177.4 22.8451 179.723 22.5312C180.287 24.2259 180.915 25.9206 181.543 27.6153" fill="#333333"/>
<path d="M187.82 24.7286C186 26.486 183.865 27.302 181.543 27.6158L179.66 22.5318C181.982 22.2179 184.117 21.402 185.937 19.6445L187.82 24.7286Z" fill="white"/>
<path d="M168.801 32.8887C166.479 33.2026 164.345 34.0185 162.525 35.776L160.642 30.6919C162.462 28.9345 164.596 28.1185 166.918 27.8047L168.801 32.8887Z" fill="white"/>
<path d="M176.145 32.8257C173.634 32.7001 171.123 32.5746 168.801 32.8884L166.918 27.8044C169.24 27.4906 171.751 27.6161 174.262 27.7416L176.145 32.8257Z" fill="#333333"/>
<path d="M183.426 32.6993C181.103 33.0131 178.593 32.8876 176.082 32.762L174.199 27.678C176.71 27.8035 179.22 27.9291 181.48 27.6152C182.17 29.3099 182.798 31.0046 183.426 32.6993Z" fill="white"/>
<path d="M189.703 29.8126C187.882 31.57 185.748 32.386 183.426 32.6998L181.543 27.6158C183.865 27.3019 185.999 26.486 187.82 24.7285L189.703 29.8126Z" fill="#333333"/>
<path d="M167.671 49.584H166.479L153.298 13.9957L154.365 13.6191L167.671 49.584Z" fill="#333333"/>
</g>
<defs>
<filter id="filter0_d" x="16" y="47" width="316" height="90" filterUnits="userSpaceOnUse" color-interpolation-filters="sRGB">
<feFlood flood-opacity="0" result="BackgroundImageFix"/>
<feColorMatrix in="SourceAlpha" type="matrix" values="0 0 0 0 0 0 0 0 0 0 0 0 0 0 0 0 0 0 127 0"/>
<feOffset dy="4"/>
<feGaussianBlur stdDeviation="2"/>
<feColorMatrix type="matrix" values="0 0 0 0 0 0 0 0 0 0 0 0 0 0 0 0 0 0 0.25 0"/>
<feBlend mode="normal" in2="BackgroundImageFix" result="effect1_dropShadow"/>
<feBlend mode="normal" in="SourceGraphic" in2="effect1_dropShadow" result="shape"/>
</filter>
<filter id="filter1_i" x="0" y="0" width="59" height="63" filterUnits="userSpaceOnUse" color-interpolation-filters="sRGB">
<feFlood flood-opacity="0" result="BackgroundImageFix"/>
<feBlend mode="normal" in="SourceGraphic" in2="BackgroundImageFix" result="shape"/>
<feColorMatrix in="SourceAlpha" type="matrix" values="0 0 0 0 0 0 0 0 0 0 0 0 0 0 0 0 0 0 127 0" result="hardAlpha"/>
<feOffset dy="4"/>
<feGaussianBlur stdDeviation="2"/>
<feComposite in2="hardAlpha" operator="arithmetic" k2="-1" k3="1"/>
<feColorMatrix type="matrix" values="0 0 0 0 0 0 0 0 0 0 0 0 0 0 0 0 0 0 0.25 0"/>
<feBlend mode="normal" in2="shape" result="effect1_innerShadow"/>
</filter>
<filter id="filter2_d" x="10.6699" y="10.6699" width="41.6596" height="39.6596" filterUnits="userSpaceOnUse" color-interpolation-filters="sRGB">
<feFlood flood-opacity="0" result="BackgroundImageFix"/>
<feColorMatrix in="SourceAlpha" type="matrix" values="0 0 0 0 0 0 0 0 0 0 0 0 0 0 0 0 0 0 127 0"/>
<feOffset dx="3" dy="1"/>
<feGaussianBlur stdDeviation="0.5"/>
<feColorMatrix type="matrix" values="0 0 0 0 0 0 0 0 0 0 0 0 0 0 0 0 0 0 0.1 0"/>
<feBlend mode="normal" in2="BackgroundImageFix" result="effect1_dropShadow"/>
<feBlend mode="normal" in="SourceGraphic" in2="effect1_dropShadow" result="shape"/>
</filter>
<filter id="filter3_i" x="71" y="0" width="59" height="63" filterUnits="userSpaceOnUse" color-interpolation-filters="sRGB">
<feFlood flood-opacity="0" result="BackgroundImageFix"/>
<feBlend mode="normal" in="SourceGraphic" in2="BackgroundImageFix" result="shape"/>
<feColorMatrix in="SourceAlpha" type="matrix" values="0 0 0 0 0 0 0 0 0 0 0 0 0 0 0 0 0 0 127 0" result="hardAlpha"/>
<feOffset dy="4"/>
<feGaussianBlur stdDeviation="2"/>
<feComposite in2="hardAlpha" operator="arithmetic" k2="-1" k3="1"/>
<feColorMatrix type="matrix" values="0 0 0 0 0 0 0 0 0 0 0 0 0 0 0 0 0 0 0.25 0"/>
<feBlend mode="normal" in2="shape" result="effect1_innerShadow"/>
</filter>
<filter id="filter4_d" x="94.9854" y="15.0625" width="30.329" height="28.5916" filterUnits="userSpaceOnUse" color-interpolation-filters="sRGB">
<feFlood flood-opacity="0" result="BackgroundImageFix"/>
<feColorMatrix in="SourceAlpha" type="matrix" values="0 0 0 0 0 0 0 0 0 0 0 0 0 0 0 0 0 0 127 0"/>
<feOffset dx="2.60617" dy="0.868722"/>
<feGaussianBlur stdDeviation="0.434361"/>
<feColorMatrix type="matrix" values="0 0 0 0 0 0 0 0 0 0 0 0 0 0 0 0 0 0 0.1 0"/>
<feBlend mode="normal" in2="BackgroundImageFix" result="effect1_dropShadow"/>
<feBlend mode="normal" in="SourceGraphic" in2="effect1_dropShadow" result="shape"/>
</filter>
<filter id="filter5_d" x="78.5312" y="26.7852" width="33.8681" height="15.9147" filterUnits="userSpaceOnUse" color-interpolation-filters="sRGB">
<feFlood flood-opacity="0" result="BackgroundImageFix"/>
<feColorMatrix in="SourceAlpha" type="matrix" values="0 0 0 0 0 0 0 0 0 0 0 0 0 0 0 0 0 0 127 0"/>
<feOffset dx="0.868722" dy="0.868722"/>
<feGaussianBlur stdDeviation="0.434361"/>
<feColorMatrix type="matrix" values="0 0 0 0 0 0 0 0 0 0 0 0 0 0 0 0 0 0 0.1 0"/>
<feBlend mode="normal" in2="BackgroundImageFix" result="effect1_dropShadow"/>
<feBlend mode="normal" in="SourceGraphic" in2="effect1_dropShadow" result="shape"/>
</filter>
<filter id="filter6_i" x="142" y="0" width="59" height="63" filterUnits="userSpaceOnUse" color-interpolation-filters="sRGB">
<feFlood flood-opacity="0" result="BackgroundImageFix"/>
<feBlend mode="normal" in="SourceGraphic" in2="BackgroundImageFix" result="shape"/>
<feColorMatrix in="SourceAlpha" type="matrix" values="0 0 0 0 0 0 0 0 0 0 0 0 0 0 0 0 0 0 127 0" result="hardAlpha"/>
<feOffset dy="4"/>
<feGaussianBlur stdDeviation="2"/>
<feComposite in2="hardAlpha" operator="arithmetic" k2="-1" k3="1"/>
<feColorMatrix type="matrix" values="0 0 0 0 0 0 0 0 0 0 0 0 0 0 0 0 0 0 0.25 0"/>
<feBlend mode="normal" in2="shape" result="effect1_innerShadow"/>
</filter>
<filter id="filter7_d" x="151.415" y="8.41406" width="48.1702" height="48.1702" filterUnits="userSpaceOnUse" color-interpolation-filters="sRGB">
<feFlood flood-opacity="0" result="BackgroundImageFix"/>
<feColorMatrix in="SourceAlpha" type="matrix" values="0 0 0 0 0 0 0 0 0 0 0 0 0 0 0 0 0 0 127 0"/>
<feOffset dx="4" dy="3"/>
<feGaussianBlur stdDeviation="2"/>
<feColorMatrix type="matrix" values="0 0 0 0 0 0 0 0 0 0 0 0 0 0 0 0 0 0 0.2 0"/>
<feBlend mode="normal" in2="BackgroundImageFix" result="effect1_dropShadow"/>
<feBlend mode="normal" in="SourceGraphic" in2="effect1_dropShadow" result="shape"/>
</filter>
<clipPath id="clip0">
<rect width="40.1702" height="40.1702" fill="white" transform="translate(151.415 9.41406)"/>
</clipPath>
</defs>
</svg>
