<svg width="338" height="201" viewBox="0 0 338 201" fill="none" xmlns="http://www.w3.org/2000/svg">
<g filter="url(#filter0_d)">
<rect x="26" y="47" width="308" height="146" fill="#539882"/>
</g>
<path d="M39.116 62.4V75H42.824C46.874 75 49.466 72.642 49.466 68.7C49.466 64.758 46.874 62.4 42.824 62.4H39.116ZM42.824 65.064C44.894 65.064 46.262 66.288 46.262 68.7C46.262 71.112 44.894 72.336 42.824 72.336H42.194V65.064H42.824ZM53.8231 65.55H50.8171V75H53.8231V65.55ZM52.2931 64.974C53.2471 64.974 53.9851 64.29 53.9851 63.354C53.9851 62.4 53.2471 61.716 52.2931 61.716C51.3391 61.716 50.6191 62.4 50.6191 63.354C50.6191 64.29 51.3391 64.974 52.2931 64.974ZM58.8036 63.552H55.7976V65.55H54.8796V67.98H55.7976V71.31C55.7976 74.118 57.0936 75.144 59.3256 75.144C60.0816 75.144 60.4776 75.036 60.4776 75.036V72.462C60.2796 72.48 60.1356 72.48 59.9736 72.48C59.3616 72.48 58.8036 72.282 58.8036 71.454V67.98H60.4056V65.55H58.8036V63.552ZM68.413 65.55H65.407V75H68.413V65.55ZM66.883 64.974C67.837 64.974 68.575 64.29 68.575 63.354C68.575 62.4 67.837 61.716 66.883 61.716C65.929 61.716 65.209 62.4 65.209 63.354C65.209 64.29 65.929 64.974 66.883 64.974ZM73.1595 75.234C75.3195 75.234 77.0115 74.046 77.0115 72.12C77.0115 68.7 72.6555 69.384 72.6555 68.196C72.6555 67.908 72.9075 67.728 73.3395 67.728C74.0775 67.728 74.6175 68.178 74.9055 68.466L76.8495 66.936C76.2915 66.18 75.2655 65.316 73.4655 65.316C71.4135 65.316 69.8295 66.414 69.8295 68.232C69.8295 71.67 74.1495 71.202 74.1495 72.282C74.1495 72.624 73.8795 72.804 73.3035 72.804C72.3495 72.804 71.7195 72.426 71.2155 71.976L69.5235 73.614C70.0815 74.37 71.3595 75.234 73.1595 75.234ZM87.2467 75H90.2527V69.762C90.2527 67.836 89.9647 65.316 87.0127 65.316C85.8247 65.316 85.0327 65.964 84.6727 66.522V61.986H81.6667V75H84.6727V69.366C84.6727 68.61 85.1767 68.016 86.0047 68.016C86.7247 68.016 87.2467 68.484 87.2467 69.366V75ZM100.717 71.058C100.735 70.842 100.735 70.644 100.735 70.464C100.735 67.242 99.0968 65.316 96.0908 65.316C93.3188 65.316 91.4468 67.53 91.4468 70.302C91.4468 73.092 93.3548 75.234 96.4688 75.234C98.9168 75.234 100.213 73.704 100.483 73.146L98.5028 71.616C98.3228 71.886 97.6568 72.624 96.5228 72.624C95.4068 72.624 94.5968 71.904 94.5248 71.058H100.717ZM96.1448 67.746C97.0808 67.746 97.6388 68.394 97.6748 69.15H94.6148C94.6868 68.484 95.1548 67.746 96.1448 67.746ZM105.192 63.552H102.186V65.55H101.268V67.98H102.186V71.31C102.186 74.118 103.482 75.144 105.714 75.144C106.47 75.144 106.866 75.036 106.866 75.036V72.462C106.668 72.48 106.524 72.48 106.362 72.48C105.75 72.48 105.192 72.282 105.192 71.454V67.98H106.794V65.55H105.192V63.552ZM120.094 69.366C120.094 68.556 120.544 68.016 121.246 68.016C121.966 68.016 122.398 68.52 122.398 69.366V75H125.404V68.718C125.404 66.72 124.378 65.316 122.2 65.316C120.976 65.316 120.094 65.82 119.518 66.558C119.014 65.784 118.186 65.316 117.07 65.316C115.81 65.316 115.054 65.946 114.73 66.522V65.55H111.796V75H114.802V69.366C114.802 68.502 115.252 68.016 115.954 68.016C116.674 68.016 117.088 68.52 117.088 69.366V75H120.094V69.366ZM135.855 71.058C135.873 70.842 135.873 70.644 135.873 70.464C135.873 67.242 134.235 65.316 131.229 65.316C128.457 65.316 126.585 67.53 126.585 70.302C126.585 73.092 128.493 75.234 131.607 75.234C134.055 75.234 135.351 73.704 135.621 73.146L133.641 71.616C133.461 71.886 132.795 72.624 131.661 72.624C130.545 72.624 129.735 71.904 129.663 71.058H135.855ZM131.283 67.746C132.219 67.746 132.777 68.394 132.813 69.15H129.753C129.825 68.484 130.293 67.746 131.283 67.746ZM142.617 75H145.623V69.762C145.623 67.836 145.335 65.316 142.383 65.316C141.195 65.316 140.367 65.964 140.007 66.522V65.55H137.073V75H140.079V69.366C140.079 68.61 140.547 68.016 141.375 68.016C142.095 68.016 142.617 68.484 142.617 69.366V75ZM150.22 65.55H147.214V70.788C147.214 72.714 147.502 75.234 150.454 75.234C151.642 75.234 152.47 74.586 152.83 74.028V75H155.764V65.55H152.758V71.184C152.758 71.94 152.29 72.534 151.462 72.534C150.742 72.534 150.22 72.066 150.22 71.184V65.55ZM158.904 75.234C159.894 75.234 160.704 74.424 160.704 73.452C160.704 72.462 159.894 71.652 158.904 71.652C157.914 71.652 157.122 72.462 157.122 73.452C157.122 74.424 157.914 75.234 158.904 75.234ZM42.194 88.4H39.116V101H42.194V95.924L45.866 101H49.394L44.588 94.43L49.304 88.4H45.866L42.194 93.26V88.4ZM50.3777 101H53.3837V87.986H50.3777V101ZM58.1122 91.55H55.1062V101H58.1122V91.55ZM56.5822 90.974C57.5362 90.974 58.2742 90.29 58.2742 89.354C58.2742 88.4 57.5362 87.716 56.5822 87.716C55.6282 87.716 54.9082 88.4 54.9082 89.354C54.9082 90.29 55.6282 90.974 56.5822 90.974ZM68.7627 91.55H65.3967L62.8407 95.348V87.986H59.8347V101H62.8407V96.59L65.4867 101H69.0147L65.7207 95.87L68.7627 91.55ZM72.9366 96.302C72.9366 99.146 75.0606 101.234 78.0666 101.234C81.0546 101.234 83.2506 99.11 83.2506 96.266C83.2506 93.404 81.1086 91.316 78.0666 91.316C75.1506 91.316 72.9366 93.44 72.9366 96.302ZM75.9426 96.302C75.9426 94.916 76.8246 93.962 78.0666 93.962C79.2906 93.962 80.2446 94.88 80.2446 96.266C80.2446 97.616 79.3086 98.588 78.0666 98.588C76.8426 98.588 75.9426 97.67 75.9426 96.302ZM87.4128 96.248C87.4128 94.988 88.1508 93.944 89.4468 93.944C90.6528 93.944 91.4808 94.844 91.4808 96.248C91.4808 97.634 90.6708 98.588 89.4468 98.588C88.2588 98.588 87.4128 97.742 87.4128 96.248ZM87.3048 91.55H84.4968V104.366H87.5028V100.28C87.7008 100.514 88.5828 101.234 90.0228 101.234C92.7588 101.234 94.4868 99.2 94.4868 96.266C94.4868 93.368 92.5788 91.316 89.8608 91.316C88.4748 91.316 87.5748 91.982 87.3048 92.288V91.55ZM105.886 96.302C105.886 97.562 105.148 98.606 103.852 98.606C102.646 98.606 101.818 97.706 101.818 96.302C101.818 94.916 102.628 93.962 103.852 93.962C105.04 93.962 105.886 94.808 105.886 96.302ZM105.994 101H108.802V87.986H105.796V92.27C105.598 92.036 104.716 91.316 103.276 91.316C100.54 91.316 98.812 93.35 98.812 96.284C98.812 99.182 100.72 101.234 103.438 101.234C104.824 101.234 105.724 100.568 105.994 100.262V101ZM119.332 97.058C119.35 96.842 119.35 96.644 119.35 96.464C119.35 93.242 117.712 91.316 114.706 91.316C111.934 91.316 110.062 93.53 110.062 96.302C110.062 99.092 111.97 101.234 115.084 101.234C117.532 101.234 118.828 99.704 119.098 99.146L117.118 97.616C116.938 97.886 116.272 98.624 115.138 98.624C114.022 98.624 113.212 97.904 113.14 97.058H119.332ZM114.76 93.746C115.696 93.746 116.254 94.394 116.29 95.15H113.23C113.302 94.484 113.77 93.746 114.76 93.746ZM128.925 98.588C127.539 98.588 126.603 97.652 126.603 96.266C126.603 95.006 127.395 94.016 128.817 94.016C129.519 94.016 130.185 94.286 130.707 94.718L131.517 92.18C130.851 91.712 129.933 91.316 128.709 91.316C125.793 91.316 123.597 93.386 123.597 96.284C123.597 99.182 125.721 101.234 128.727 101.234C129.915 101.234 130.869 100.82 131.499 100.388L130.707 97.922C130.293 98.264 129.627 98.588 128.925 98.588ZM135.702 91.55H132.696V101H135.702V91.55ZM134.172 90.974C135.126 90.974 135.864 90.29 135.864 89.354C135.864 88.4 135.126 87.716 134.172 87.716C133.218 87.716 132.498 88.4 132.498 89.354C132.498 90.29 133.218 90.974 134.172 90.974ZM142.861 91.316C141.691 91.316 140.809 91.892 140.359 92.81V91.55H137.425V101H140.431V96.824C140.431 95.402 140.917 94.34 142.375 94.34C142.591 94.34 142.735 94.358 142.861 94.376V91.316ZM152.997 91.55H149.631L147.075 95.348V87.986H144.069V101H147.075V96.59L149.721 101H153.249L149.955 95.87L152.997 91.55ZM162.926 97.058C162.944 96.842 162.944 96.644 162.944 96.464C162.944 93.242 161.306 91.316 158.3 91.316C155.528 91.316 153.656 93.53 153.656 96.302C153.656 99.092 155.564 101.234 158.678 101.234C161.126 101.234 162.422 99.704 162.692 99.146L160.712 97.616C160.532 97.886 159.866 98.624 158.732 98.624C157.616 98.624 156.806 97.904 156.734 97.058H162.926ZM158.354 93.746C159.29 93.746 159.848 94.394 159.884 95.15H156.824C156.896 94.484 157.364 93.746 158.354 93.746ZM164.143 101H167.149V87.986H164.143V101ZM172.13 89.552H169.124V91.55H168.206V93.98H169.124V97.31C169.124 100.118 170.42 101.144 172.652 101.144C173.408 101.144 173.804 101.036 173.804 101.036V98.462C173.606 98.48 173.462 98.48 173.3 98.48C172.688 98.48 172.13 98.282 172.13 97.454V93.98H173.732V91.55H172.13V89.552ZM178.206 91.55H175.2V100.892C175.2 101.486 174.894 101.9 174.012 101.9C173.814 101.9 173.58 101.864 173.58 101.864V104.402C173.58 104.402 173.922 104.456 174.246 104.456C176.514 104.456 178.206 103.574 178.206 101.036V91.55ZM176.676 90.974C177.63 90.974 178.368 90.29 178.368 89.354C178.368 88.4 177.63 87.716 176.676 87.716C175.722 87.716 175.002 88.4 175.002 89.354C175.002 90.29 175.722 90.974 176.676 90.974ZM188.73 97.058C188.748 96.842 188.748 96.644 188.748 96.464C188.748 93.242 187.11 91.316 184.104 91.316C181.332 91.316 179.46 93.53 179.46 96.302C179.46 99.092 181.368 101.234 184.482 101.234C186.93 101.234 188.226 99.704 188.496 99.146L186.516 97.616C186.336 97.886 185.67 98.624 184.536 98.624C183.42 98.624 182.61 97.904 182.538 97.058H188.73ZM184.158 93.746C185.094 93.746 185.652 94.394 185.688 95.15H182.628C182.7 94.484 183.168 93.746 184.158 93.746ZM192.972 101.234C195.132 101.234 196.824 100.046 196.824 98.12C196.824 94.7 192.468 95.384 192.468 94.196C192.468 93.908 192.72 93.728 193.152 93.728C193.89 93.728 194.43 94.178 194.718 94.466L196.662 92.936C196.104 92.18 195.078 91.316 193.278 91.316C191.226 91.316 189.642 92.414 189.642 94.232C189.642 97.67 193.962 97.202 193.962 98.282C193.962 98.624 193.692 98.804 193.116 98.804C192.162 98.804 191.532 98.426 191.028 97.976L189.336 99.614C189.894 100.37 191.172 101.234 192.972 101.234ZM200.993 96.302C200.993 99.146 203.117 101.234 206.123 101.234C209.111 101.234 211.307 99.11 211.307 96.266C211.307 93.404 209.165 91.316 206.123 91.316C203.207 91.316 200.993 93.44 200.993 96.302ZM203.999 96.302C203.999 94.916 204.881 93.962 206.123 93.962C207.347 93.962 208.301 94.88 208.301 96.266C208.301 97.616 207.365 98.588 206.123 98.588C204.899 98.588 203.999 97.67 203.999 96.302ZM220.851 95.366C220.851 94.556 221.301 94.016 222.003 94.016C222.723 94.016 223.155 94.52 223.155 95.366V101H226.161V94.718C226.161 92.72 225.135 91.316 222.957 91.316C221.733 91.316 220.851 91.82 220.275 92.558C219.771 91.784 218.943 91.316 217.827 91.316C216.567 91.316 215.811 91.946 215.487 92.522V91.55H212.553V101H215.559V95.366C215.559 94.502 216.009 94.016 216.711 94.016C217.431 94.016 217.845 94.52 217.845 95.366V101H220.851V95.366ZM234.602 89.552H231.596V91.55H230.678V93.98H231.596V97.31C231.596 100.118 232.892 101.144 235.124 101.144C235.88 101.144 236.276 101.036 236.276 101.036V98.462C236.078 98.48 235.934 98.48 235.772 98.48C235.16 98.48 234.602 98.282 234.602 97.454V93.98H236.204V91.55H234.602V89.552ZM246.475 97.058C246.493 96.842 246.493 96.644 246.493 96.464C246.493 93.242 244.855 91.316 241.849 91.316C239.077 91.316 237.205 93.53 237.205 96.302C237.205 99.092 239.113 101.234 242.227 101.234C244.675 101.234 245.971 99.704 246.241 99.146L244.261 97.616C244.081 97.886 243.415 98.624 242.281 98.624C241.165 98.624 240.355 97.904 240.283 97.058H246.475ZM241.903 93.746C242.839 93.746 243.397 94.394 243.433 95.15H240.373C240.445 94.484 240.913 93.746 241.903 93.746ZM41.276 109.55H38.054L41.294 119H44.786L47.972 109.55H44.84L43.058 115.814L41.276 109.55ZM57.7031 115.058C57.7211 114.842 57.7211 114.644 57.7211 114.464C57.7211 111.242 56.0831 109.316 53.0771 109.316C50.3051 109.316 48.4331 111.53 48.4331 114.302C48.4331 117.092 50.3411 119.234 53.4551 119.234C55.9031 119.234 57.1991 117.704 57.4691 117.146L55.4891 115.616C55.3091 115.886 54.6431 116.624 53.5091 116.624C52.3931 116.624 51.5831 115.904 51.5111 115.058H57.7031ZM53.1311 111.746C54.0671 111.746 54.6251 112.394 54.6611 113.15H51.6011C51.6731 112.484 52.1411 111.746 53.1311 111.746ZM64.3566 109.316C63.1866 109.316 62.3046 109.892 61.8546 110.81V109.55H58.9206V119H61.9266V114.824C61.9266 113.402 62.4126 112.34 63.8706 112.34C64.0866 112.34 64.2306 112.358 64.3566 112.376V109.316ZM65.0612 116.066C65.0612 118.118 66.7172 119.234 68.5712 119.234C69.5432 119.234 70.2272 118.964 70.7132 118.478L70.8752 119H73.5572V113.15C73.5572 110.99 72.7292 109.316 69.4712 109.316C67.9052 109.316 66.6272 109.82 65.6192 110.486L66.7352 112.502C67.4732 112.142 68.2832 111.908 69.1112 111.908C70.0832 111.908 70.5512 112.358 70.5512 112.934V113.276C70.2092 113.132 69.5612 112.934 68.7332 112.934C66.5012 112.934 65.0612 114.176 65.0612 116.066ZM68.0672 115.958C68.0672 115.346 68.6072 114.95 69.3272 114.95C70.0472 114.95 70.6052 115.31 70.6052 115.958C70.6052 116.588 70.0652 116.93 69.3452 116.93C68.6432 116.93 68.0672 116.588 68.0672 115.958ZM80.7244 119H83.7304V113.762C83.7304 111.836 83.4424 109.316 80.4904 109.316C79.3024 109.316 78.4744 109.964 78.1144 110.522V109.55H75.1804V119H78.1864V113.366C78.1864 112.61 78.6544 112.016 79.4824 112.016C80.2024 112.016 80.7244 112.484 80.7244 113.366V119ZM91.9993 114.302C91.9993 115.562 91.2613 116.606 89.9653 116.606C88.7593 116.606 87.9313 115.706 87.9313 114.302C87.9313 112.916 88.7413 111.962 89.9653 111.962C91.1533 111.962 91.9993 112.808 91.9993 114.302ZM92.1073 119H94.9153V105.986H91.9093V110.27C91.7113 110.036 90.8293 109.316 89.3893 109.316C86.6533 109.316 84.9253 111.35 84.9253 114.284C84.9253 117.182 86.8333 119.234 89.5513 119.234C90.9373 119.234 91.8373 118.568 92.1073 118.262V119ZM105.445 115.058C105.463 114.842 105.463 114.644 105.463 114.464C105.463 111.242 103.825 109.316 100.819 109.316C98.0473 109.316 96.1753 111.53 96.1753 114.302C96.1753 117.092 98.0833 119.234 101.197 119.234C103.645 119.234 104.941 117.704 105.211 117.146L103.231 115.616C103.051 115.886 102.385 116.624 101.251 116.624C100.135 116.624 99.3253 115.904 99.2533 115.058H105.445ZM100.873 111.746C101.809 111.746 102.367 112.394 102.403 113.15H99.3433C99.4153 112.484 99.8833 111.746 100.873 111.746ZM112.099 109.316C110.929 109.316 110.047 109.892 109.597 110.81V109.55H106.663V119H109.669V114.824C109.669 113.402 110.155 112.34 111.613 112.34C111.829 112.34 111.973 112.358 112.099 112.376V109.316ZM121.758 115.058C121.776 114.842 121.776 114.644 121.776 114.464C121.776 111.242 120.138 109.316 117.132 109.316C114.36 109.316 112.488 111.53 112.488 114.302C112.488 117.092 114.396 119.234 117.51 119.234C119.958 119.234 121.254 117.704 121.524 117.146L119.544 115.616C119.364 115.886 118.698 116.624 117.564 116.624C116.448 116.624 115.638 115.904 115.566 115.058H121.758ZM117.186 111.746C118.122 111.746 118.68 112.394 118.716 113.15H115.656C115.728 112.484 116.196 111.746 117.186 111.746ZM128.519 119H131.525V113.762C131.525 111.836 131.237 109.316 128.285 109.316C127.097 109.316 126.269 109.964 125.909 110.522V109.55H122.975V119H125.981V113.366C125.981 112.61 126.449 112.016 127.277 112.016C127.997 112.016 128.519 112.484 128.519 113.366V119ZM139.133 109.55H135.911L139.151 119H142.643L145.829 109.55H142.697L140.915 115.814L139.133 109.55ZM146.255 116.066C146.255 118.118 147.911 119.234 149.765 119.234C150.737 119.234 151.421 118.964 151.907 118.478L152.069 119H154.751V113.15C154.751 110.99 153.923 109.316 150.665 109.316C149.099 109.316 147.821 109.82 146.813 110.486L147.929 112.502C148.667 112.142 149.477 111.908 150.305 111.908C151.277 111.908 151.745 112.358 151.745 112.934V113.276C151.403 113.132 150.755 112.934 149.927 112.934C147.695 112.934 146.255 114.176 146.255 116.066ZM149.261 115.958C149.261 115.346 149.801 114.95 150.521 114.95C151.241 114.95 151.799 115.31 151.799 115.958C151.799 116.588 151.259 116.93 150.539 116.93C149.837 116.93 149.261 116.588 149.261 115.958ZM161.918 119H164.924V113.762C164.924 111.836 164.636 109.316 161.684 109.316C160.496 109.316 159.668 109.964 159.308 110.522V109.55H156.374V119H159.38V113.366C159.38 112.61 159.848 112.016 160.676 112.016C161.396 112.016 161.918 112.484 161.918 113.366V119ZM173.036 114.248C173.036 112.988 173.774 111.944 175.07 111.944C176.276 111.944 177.104 112.844 177.104 114.248C177.104 115.634 176.294 116.588 175.07 116.588C173.882 116.588 173.036 115.742 173.036 114.248ZM172.928 109.55H170.12V122.366H173.126V118.28C173.324 118.514 174.206 119.234 175.646 119.234C178.382 119.234 180.11 117.2 180.11 114.266C180.11 111.368 178.202 109.316 175.484 109.316C174.098 109.316 173.198 109.982 172.928 110.288V109.55ZM180.866 116.066C180.866 118.118 182.522 119.234 184.376 119.234C185.348 119.234 186.032 118.964 186.518 118.478L186.68 119H189.362V113.15C189.362 110.99 188.534 109.316 185.276 109.316C183.71 109.316 182.432 109.82 181.424 110.486L182.54 112.502C183.278 112.142 184.088 111.908 184.916 111.908C185.888 111.908 186.356 112.358 186.356 112.934V113.276C186.014 113.132 185.366 112.934 184.538 112.934C182.306 112.934 180.866 114.176 180.866 116.066ZM183.872 115.958C183.872 115.346 184.412 114.95 185.132 114.95C185.852 114.95 186.41 115.31 186.41 115.958C186.41 116.588 185.87 116.93 185.15 116.93C184.448 116.93 183.872 116.588 183.872 115.958ZM197.483 118.514C197.483 119.666 196.367 119.918 195.251 119.918C193.973 119.918 192.911 119.468 192.641 119.342L191.759 121.646C192.605 122.078 193.919 122.456 195.251 122.456C198.059 122.456 200.489 121.358 200.489 117.866V109.55H197.681V110.288C197.411 109.982 196.511 109.316 195.125 109.316C192.407 109.316 190.499 111.368 190.499 114.266C190.499 117.2 192.227 119.234 194.963 119.234C196.403 119.234 197.285 118.514 197.483 118.28V118.514ZM197.573 114.248C197.573 115.742 196.727 116.588 195.539 116.588C194.315 116.588 193.505 115.634 193.505 114.248C193.505 112.844 194.315 111.962 195.521 111.962C196.817 111.962 197.573 112.988 197.573 114.248ZM205.153 109.55H202.147V119H205.153V109.55ZM203.623 108.974C204.577 108.974 205.315 108.29 205.315 107.354C205.315 106.4 204.577 105.716 203.623 105.716C202.669 105.716 201.949 106.4 201.949 107.354C201.949 108.29 202.669 108.974 203.623 108.974ZM212.42 119H215.426V113.762C215.426 111.836 215.138 109.316 212.186 109.316C210.998 109.316 210.17 109.964 209.81 110.522V109.55H206.876V119H209.882V113.366C209.882 112.61 210.35 112.016 211.178 112.016C211.898 112.016 212.42 112.484 212.42 113.366V119ZM216.585 116.066C216.585 118.118 218.241 119.234 220.095 119.234C221.067 119.234 221.751 118.964 222.237 118.478L222.399 119H225.081V113.15C225.081 110.99 224.253 109.316 220.995 109.316C219.429 109.316 218.151 109.82 217.143 110.486L218.259 112.502C218.997 112.142 219.807 111.908 220.635 111.908C221.607 111.908 222.075 112.358 222.075 112.934V113.276C221.733 113.132 221.085 112.934 220.257 112.934C218.025 112.934 216.585 114.176 216.585 116.066ZM219.591 115.958C219.591 115.346 220.131 114.95 220.851 114.95C221.571 114.95 222.129 115.31 222.129 115.958C222.129 116.588 221.589 116.93 220.869 116.93C220.167 116.93 219.591 116.588 219.591 115.958ZM228.18 119.234C229.17 119.234 229.98 118.424 229.98 117.452C229.98 116.462 229.17 115.652 228.18 115.652C227.19 115.652 226.398 116.462 226.398 117.452C226.398 118.424 227.19 119.234 228.18 119.234ZM39.116 132.4V145H42.824C46.874 145 49.466 142.642 49.466 138.7C49.466 134.758 46.874 132.4 42.824 132.4H39.116ZM42.824 135.064C44.894 135.064 46.262 136.288 46.262 138.7C46.262 141.112 44.894 142.336 42.824 142.336H42.194V135.064H42.824ZM59.6191 141.058C59.6371 140.842 59.6371 140.644 59.6371 140.464C59.6371 137.242 57.9991 135.316 54.9931 135.316C52.2211 135.316 50.3491 137.53 50.3491 140.302C50.3491 143.092 52.2571 145.234 55.3711 145.234C57.8191 145.234 59.1151 143.704 59.3851 143.146L57.4051 141.616C57.2251 141.886 56.5591 142.624 55.4251 142.624C54.3091 142.624 53.4991 141.904 53.4271 141.058H59.6191ZM55.0471 137.746C55.9831 137.746 56.5411 138.394 56.5771 139.15H53.5171C53.5891 138.484 54.0571 137.746 55.0471 137.746ZM70.8679 144.514C70.8679 145.666 69.7519 145.918 68.6359 145.918C67.3579 145.918 66.2959 145.468 66.0259 145.342L65.1439 147.646C65.9899 148.078 67.3039 148.456 68.6359 148.456C71.4439 148.456 73.8739 147.358 73.8739 143.866V135.55H71.0659V136.288C70.7959 135.982 69.8959 135.316 68.5099 135.316C65.7919 135.316 63.8839 137.368 63.8839 140.266C63.8839 143.2 65.6119 145.234 68.3479 145.234C69.7879 145.234 70.6699 144.514 70.8679 144.28V144.514ZM70.9579 140.248C70.9579 141.742 70.1119 142.588 68.9239 142.588C67.6999 142.588 66.8899 141.634 66.8899 140.248C66.8899 138.844 67.6999 137.962 68.9059 137.962C70.2019 137.962 70.9579 138.988 70.9579 140.248ZM84.334 141.058C84.352 140.842 84.352 140.644 84.352 140.464C84.352 137.242 82.714 135.316 79.708 135.316C76.936 135.316 75.064 137.53 75.064 140.302C75.064 143.092 76.972 145.234 80.086 145.234C82.534 145.234 83.83 143.704 84.1 143.146L82.12 141.616C81.94 141.886 81.274 142.624 80.14 142.624C79.024 142.624 78.214 141.904 78.142 141.058H84.334ZM79.762 137.746C80.698 137.746 81.256 138.394 81.292 139.15H78.232C78.304 138.484 78.772 137.746 79.762 137.746ZM85.5515 145H88.5575V131.986H85.5515V145ZM99.082 141.058C99.1 140.842 99.1 140.644 99.1 140.464C99.1 137.242 97.462 135.316 94.456 135.316C91.684 135.316 89.812 137.53 89.812 140.302C89.812 143.092 91.72 145.234 94.834 145.234C97.282 145.234 98.578 143.704 98.848 143.146L96.868 141.616C96.688 141.886 96.022 142.624 94.888 142.624C93.772 142.624 92.962 141.904 92.89 141.058H99.082ZM94.51 137.746C95.446 137.746 96.004 138.394 96.04 139.15H92.98C93.052 138.484 93.52 137.746 94.51 137.746ZM112.761 135.55H109.395L106.839 139.348V131.986H103.833V145H106.839V140.59L109.485 145H113.013L109.719 139.87L112.761 135.55ZM119.431 145H122.437V139.762C122.437 137.836 122.149 135.316 119.197 135.316C118.009 135.316 117.181 135.964 116.821 136.522V135.55H113.887V145H116.893V139.366C116.893 138.61 117.361 138.016 118.189 138.016C118.909 138.016 119.431 138.484 119.431 139.366V145ZM123.614 140.302C123.614 143.146 125.738 145.234 128.744 145.234C131.732 145.234 133.928 143.11 133.928 140.266C133.928 137.404 131.786 135.316 128.744 135.316C125.828 135.316 123.614 137.44 123.614 140.302ZM126.62 140.302C126.62 138.916 127.502 137.962 128.744 137.962C129.968 137.962 130.922 138.88 130.922 140.266C130.922 141.616 129.986 142.588 128.744 142.588C127.52 142.588 126.62 141.67 126.62 140.302ZM138.091 140.248C138.091 138.988 138.829 137.944 140.125 137.944C141.331 137.944 142.159 138.844 142.159 140.248C142.159 141.634 141.349 142.588 140.125 142.588C138.937 142.588 138.091 141.742 138.091 140.248ZM137.983 135.55H135.175V148.366H138.181V144.28C138.379 144.514 139.261 145.234 140.701 145.234C143.437 145.234 145.165 143.2 145.165 140.266C145.165 137.368 143.257 135.316 140.539 135.316C139.153 135.316 138.253 135.982 137.983 136.288V135.55ZM152.964 135.55H149.958V145H152.964V135.55ZM151.434 134.974C152.388 134.974 153.126 134.29 153.126 133.354C153.126 132.4 152.388 131.716 151.434 131.716C150.48 131.716 149.76 132.4 149.76 133.354C149.76 134.29 150.48 134.974 151.434 134.974ZM157.71 145.234C159.87 145.234 161.562 144.046 161.562 142.12C161.562 138.7 157.206 139.384 157.206 138.196C157.206 137.908 157.458 137.728 157.89 137.728C158.628 137.728 159.168 138.178 159.456 138.466L161.4 136.936C160.842 136.18 159.816 135.316 158.016 135.316C155.964 135.316 154.38 136.414 154.38 138.232C154.38 141.67 158.7 141.202 158.7 142.282C158.7 142.624 158.43 142.804 157.854 142.804C156.9 142.804 156.27 142.426 155.766 141.976L154.074 143.614C154.632 144.37 155.91 145.234 157.71 145.234ZM172.824 140.302C172.824 141.562 172.086 142.606 170.79 142.606C169.584 142.606 168.756 141.706 168.756 140.302C168.756 138.916 169.566 137.962 170.79 137.962C171.978 137.962 172.824 138.808 172.824 140.302ZM172.932 145H175.74V131.986H172.734V136.27C172.536 136.036 171.654 135.316 170.214 135.316C167.478 135.316 165.75 137.35 165.75 140.284C165.75 143.182 167.658 145.234 170.376 145.234C171.762 145.234 172.662 144.568 172.932 144.262V145ZM186.27 141.058C186.288 140.842 186.288 140.644 186.288 140.464C186.288 137.242 184.65 135.316 181.644 135.316C178.872 135.316 177 137.53 177 140.302C177 143.092 178.908 145.234 182.022 145.234C184.47 145.234 185.766 143.704 186.036 143.146L184.056 141.616C183.876 141.886 183.21 142.624 182.076 142.624C180.96 142.624 180.15 141.904 180.078 141.058H186.27ZM181.698 137.746C182.634 137.746 183.192 138.394 183.228 139.15H180.168C180.24 138.484 180.708 137.746 181.698 137.746ZM193.936 140.248C193.936 138.988 194.674 137.944 195.97 137.944C197.176 137.944 198.004 138.844 198.004 140.248C198.004 141.634 197.194 142.588 195.97 142.588C194.782 142.588 193.936 141.742 193.936 140.248ZM193.828 135.55H191.02V148.366H194.026V144.28C194.224 144.514 195.106 145.234 196.546 145.234C199.282 145.234 201.01 143.2 201.01 140.266C201.01 137.368 199.102 135.316 196.384 135.316C194.998 135.316 194.098 135.982 193.828 136.288V135.55ZM201.766 142.066C201.766 144.118 203.422 145.234 205.276 145.234C206.248 145.234 206.932 144.964 207.418 144.478L207.58 145H210.262V139.15C210.262 136.99 209.434 135.316 206.176 135.316C204.61 135.316 203.332 135.82 202.324 136.486L203.44 138.502C204.178 138.142 204.988 137.908 205.816 137.908C206.788 137.908 207.256 138.358 207.256 138.934V139.276C206.914 139.132 206.266 138.934 205.438 138.934C203.206 138.934 201.766 140.176 201.766 142.066ZM204.772 141.958C204.772 141.346 205.312 140.95 206.032 140.95C206.752 140.95 207.31 141.31 207.31 141.958C207.31 142.588 206.77 142.93 206.05 142.93C205.348 142.93 204.772 142.588 204.772 141.958ZM218.383 144.514C218.383 145.666 217.267 145.918 216.151 145.918C214.873 145.918 213.811 145.468 213.541 145.342L212.659 147.646C213.505 148.078 214.819 148.456 216.151 148.456C218.959 148.456 221.389 147.358 221.389 143.866V135.55H218.581V136.288C218.311 135.982 217.411 135.316 216.025 135.316C213.307 135.316 211.399 137.368 211.399 140.266C211.399 143.2 213.127 145.234 215.863 145.234C217.303 145.234 218.185 144.514 218.383 144.28V144.514ZM218.473 140.248C218.473 141.742 217.627 142.588 216.439 142.588C215.215 142.588 214.405 141.634 214.405 140.248C214.405 138.844 215.215 137.962 216.421 137.962C217.717 137.962 218.473 138.988 218.473 140.248ZM226.054 135.55H223.048V145H226.054V135.55ZM224.524 134.974C225.478 134.974 226.216 134.29 226.216 133.354C226.216 132.4 225.478 131.716 224.524 131.716C223.57 131.716 222.85 132.4 222.85 133.354C222.85 134.29 223.57 134.974 224.524 134.974ZM233.32 145H236.326V139.762C236.326 137.836 236.038 135.316 233.086 135.316C231.898 135.316 231.07 135.964 230.71 136.522V135.55H227.776V145H230.782V139.366C230.782 138.61 231.25 138.016 232.078 138.016C232.798 138.016 233.32 138.484 233.32 139.366V145ZM237.485 142.066C237.485 144.118 239.141 145.234 240.995 145.234C241.967 145.234 242.651 144.964 243.137 144.478L243.299 145H245.981V139.15C245.981 136.99 245.153 135.316 241.895 135.316C240.329 135.316 239.051 135.82 238.043 136.486L239.159 138.502C239.897 138.142 240.707 137.908 241.535 137.908C242.507 137.908 242.975 138.358 242.975 138.934V139.276C242.633 139.132 241.985 138.934 241.157 138.934C238.925 138.934 237.485 140.176 237.485 142.066ZM240.491 141.958C240.491 141.346 241.031 140.95 241.751 140.95C242.471 140.95 243.029 141.31 243.029 141.958C243.029 142.588 242.489 142.93 241.769 142.93C241.067 142.93 240.491 142.588 240.491 141.958ZM259.129 145H262.513L265.159 135.55H261.883L260.605 141.724L259.183 135.55H256.375L254.953 141.724L253.675 135.55H250.399L253.045 145H256.429L257.779 139.654L259.129 145ZM265.645 142.066C265.645 144.118 267.301 145.234 269.155 145.234C270.127 145.234 270.811 144.964 271.297 144.478L271.459 145H274.141V139.15C274.141 136.99 273.313 135.316 270.055 135.316C268.489 135.316 267.211 135.82 266.203 136.486L267.319 138.502C268.057 138.142 268.867 137.908 269.695 137.908C270.667 137.908 271.135 138.358 271.135 138.934V139.276C270.793 139.132 270.145 138.934 269.317 138.934C267.085 138.934 265.645 140.176 265.645 142.066ZM268.651 141.958C268.651 141.346 269.191 140.95 269.911 140.95C270.631 140.95 271.189 141.31 271.189 141.958C271.189 142.588 270.649 142.93 269.929 142.93C269.227 142.93 268.651 142.588 268.651 141.958ZM275.26 142.066C275.26 144.118 276.916 145.234 278.77 145.234C279.742 145.234 280.426 144.964 280.912 144.478L281.074 145H283.756V139.15C283.756 136.99 282.928 135.316 279.67 135.316C278.104 135.316 276.826 135.82 275.818 136.486L276.934 138.502C277.672 138.142 278.482 137.908 279.31 137.908C280.282 137.908 280.75 138.358 280.75 138.934V139.276C280.408 139.132 279.76 138.934 278.932 138.934C276.7 138.934 275.26 140.176 275.26 142.066ZM278.266 141.958C278.266 141.346 278.806 140.95 279.526 140.95C280.246 140.95 280.804 141.31 280.804 141.958C280.804 142.588 280.264 142.93 279.544 142.93C278.842 142.93 278.266 142.588 278.266 141.958ZM290.816 135.316C289.646 135.316 288.764 135.892 288.314 136.81V135.55H285.38V145H288.386V140.824C288.386 139.402 288.872 138.34 290.33 138.34C290.546 138.34 290.69 138.358 290.816 138.376V135.316ZM298.563 135.55H295.557V144.892C295.557 145.486 295.251 145.9 294.369 145.9C294.171 145.9 293.937 145.864 293.937 145.864V148.402C293.937 148.402 294.279 148.456 294.603 148.456C296.871 148.456 298.563 147.574 298.563 145.036V135.55ZM297.033 134.974C297.987 134.974 298.725 134.29 298.725 133.354C298.725 132.4 297.987 131.716 297.033 131.716C296.079 131.716 295.359 132.4 295.359 133.354C295.359 134.29 296.079 134.974 297.033 134.974ZM309.088 141.058C309.106 140.842 309.106 140.644 309.106 140.464C309.106 137.242 307.468 135.316 304.462 135.316C301.69 135.316 299.818 137.53 299.818 140.302C299.818 143.092 301.726 145.234 304.84 145.234C307.288 145.234 308.584 143.704 308.854 143.146L306.874 141.616C306.694 141.886 306.028 142.624 304.894 142.624C303.778 142.624 302.968 141.904 302.896 141.058H309.088ZM304.516 137.746C305.452 137.746 306.01 138.394 306.046 139.15H302.986C303.058 138.484 303.526 137.746 304.516 137.746ZM44.408 163H47.414V157.762C47.414 155.836 47.126 153.316 44.174 153.316C42.986 153.316 42.158 153.964 41.798 154.522V153.55H38.864V163H41.87V157.366C41.87 156.61 42.338 156.016 43.166 156.016C43.886 156.016 44.408 156.484 44.408 157.366V163ZM52.0109 153.55H49.0049V158.788C49.0049 160.714 49.2929 163.234 52.2449 163.234C53.4329 163.234 54.2609 162.586 54.6209 162.028V163H57.5549V153.55H54.5489V159.184C54.5489 159.94 54.0809 160.534 53.2529 160.534C52.5329 160.534 52.0109 160.066 52.0109 159.184V153.55ZM62.2667 158.302C62.2667 161.146 64.3907 163.234 67.3967 163.234C70.3847 163.234 72.5807 161.11 72.5807 158.266C72.5807 155.404 70.4387 153.316 67.3967 153.316C64.4807 153.316 62.2667 155.44 62.2667 158.302ZM65.2727 158.302C65.2727 156.916 66.1547 155.962 67.3967 155.962C68.6207 155.962 69.5747 156.88 69.5747 158.266C69.5747 159.616 68.6387 160.588 67.3967 160.588C66.1727 160.588 65.2727 159.67 65.2727 158.302ZM76.7429 158.248C76.7429 156.988 77.4809 155.944 78.7769 155.944C79.9829 155.944 80.8109 156.844 80.8109 158.248C80.8109 159.634 80.0009 160.588 78.7769 160.588C77.5889 160.588 76.7429 159.742 76.7429 158.248ZM76.6349 153.55H73.8269V166.366H76.8329V162.28C77.0309 162.514 77.9129 163.234 79.3529 163.234C82.0889 163.234 83.8169 161.2 83.8169 158.266C83.8169 155.368 81.9089 153.316 79.1909 153.316C77.8049 153.316 76.9049 153.982 76.6349 154.288V153.55ZM95.6841 155.368V153.55H88.3221V156.052H91.9041L88.2321 161.2V163H95.7201V160.498H91.9941L95.6841 155.368ZM100.089 153.55H97.0828V163H100.089V153.55ZM98.5588 152.974C99.5128 152.974 100.251 152.29 100.251 151.354C100.251 150.4 99.5128 149.716 98.5588 149.716C97.6048 149.716 96.8848 150.4 96.8848 151.354C96.8848 152.29 97.6048 152.974 98.5588 152.974ZM105.069 151.552H102.063V153.55H101.145V155.98H102.063V159.31C102.063 162.118 103.359 163.144 105.591 163.144C106.347 163.144 106.743 163.036 106.743 163.036V160.462C106.545 160.48 106.401 160.48 106.239 160.48C105.627 160.48 105.069 160.282 105.069 159.454V155.98H106.671V153.55H105.069V151.552ZM109.615 163.234C110.605 163.234 111.415 162.424 111.415 161.452C111.415 160.462 110.605 159.652 109.615 159.652C108.625 159.652 107.833 160.462 107.833 161.452C107.833 162.424 108.625 163.234 109.615 163.234Z" fill="#FCFCF2"/>
<g filter="url(#filter1_d)">
<circle cx="186.949" cy="27.7899" r="27.7899" fill="black"/>
<path d="M203.211 25.2568L199.483 24.1452C199.226 23.2462 198.871 22.3779 198.426 21.5552L200.251 18.1426C200.32 18.0138 200.345 17.8663 200.323 17.7222C200.3 17.578 200.232 17.4448 200.129 17.3423L197.469 14.6744C197.367 14.5707 197.233 14.5028 197.089 14.4807C196.945 14.4587 196.797 14.4838 196.668 14.5522L193.275 16.3641C192.443 15.8979 191.562 15.5251 190.649 15.2525L189.536 11.5731C189.489 11.4375 189.4 11.3203 189.282 11.2384C189.164 11.1565 189.023 11.1141 188.879 11.1174H185.119C184.974 11.118 184.834 11.1647 184.717 11.2507C184.601 11.3367 184.516 11.4574 184.473 11.5953L183.361 15.2636C182.439 15.5348 181.551 15.9076 180.712 16.3752L177.374 14.5744C177.245 14.506 177.098 14.4809 176.953 14.503C176.809 14.525 176.676 14.5929 176.573 14.6967L173.869 17.3311C173.766 17.4337 173.698 17.5669 173.675 17.7111C173.653 17.8552 173.678 18.0027 173.747 18.1315L175.55 21.4662C175.082 22.3006 174.709 23.1842 174.437 24.1007L170.754 25.2123C170.616 25.2549 170.495 25.3404 170.409 25.4563C170.323 25.5723 170.276 25.7127 170.275 25.857V29.6142C170.276 29.7585 170.323 29.8989 170.409 30.0149C170.495 30.1308 170.616 30.2163 170.754 30.2589L174.459 31.3705C174.734 32.2718 175.107 33.1403 175.572 33.9605L173.747 37.4509C173.678 37.5797 173.653 37.7271 173.675 37.8713C173.698 38.0155 173.766 38.1487 173.869 38.2512L176.529 40.9079C176.631 41.0117 176.765 41.0796 176.909 41.1016C177.053 41.1237 177.201 41.0986 177.33 41.0302L180.768 39.1961C181.581 39.6345 182.439 39.9848 183.327 40.241L184.44 43.987C184.482 44.125 184.568 44.2457 184.684 44.3317C184.8 44.4176 184.941 44.4643 185.085 44.465H188.846C188.991 44.4643 189.131 44.4176 189.247 44.3317C189.363 44.2457 189.449 44.125 189.491 43.987L190.604 40.2299C191.484 39.9724 192.335 39.6221 193.141 39.185L196.601 41.0302C196.73 41.0986 196.878 41.1237 197.022 41.1016C197.167 41.0796 197.3 41.0117 197.403 40.9079L200.062 38.2512C200.166 38.1487 200.234 38.0155 200.256 37.8713C200.278 37.7271 200.253 37.5797 200.184 37.4509L198.337 34.005C198.779 33.1965 199.134 32.3431 199.394 31.4594L203.144 30.3478C203.282 30.3052 203.403 30.2197 203.489 30.1038C203.575 29.9878 203.622 29.8475 203.622 29.7031V25.9126C203.629 25.7744 203.593 25.6375 203.52 25.5202C203.446 25.403 203.338 25.3111 203.211 25.2568ZM186.999 33.9049C185.789 33.9049 184.605 33.5464 183.599 32.8746C182.593 32.2028 181.808 31.248 181.345 30.1308C180.882 29.0137 180.761 27.7844 180.997 26.5985C181.233 25.4125 181.816 24.3231 182.672 23.4681C183.528 22.6131 184.618 22.0308 185.805 21.7949C186.992 21.559 188.223 21.6801 189.341 22.1428C190.459 22.6056 191.415 23.3892 192.087 24.3946C192.76 25.4 193.119 26.582 193.119 27.7912C193.119 29.4126 192.474 30.9677 191.326 32.1143C190.179 33.2608 188.622 33.9049 186.999 33.9049Z" fill="white"/>
</g>
<g filter="url(#filter2_d)">
<circle cx="107.37" cy="27.7899" r="27.7899" fill="black"/>
<path d="M107.798 11.1172C98.368 11.1172 90.6963 18.7889 90.6963 28.2186C90.6963 37.6484 98.368 45.3201 107.798 45.3201C117.227 45.3201 124.899 37.6484 124.899 28.2186C124.899 18.7889 117.227 11.1172 107.798 11.1172ZM94.1166 28.2186C94.1166 26.6812 94.3834 25.2054 94.8537 23.8253L97.5369 26.5085L100.957 29.9288V33.3491L104.377 36.7694L106.088 38.4795V41.7818C99.3513 40.9353 94.1166 35.1823 94.1166 28.2186ZM118.623 36.5522C117.506 35.6526 115.813 35.0592 114.638 35.0592V33.3491C114.638 32.442 114.278 31.572 113.637 30.9306C112.995 30.2891 112.125 29.9288 111.218 29.9288H104.377V24.7983C105.285 24.7983 106.155 24.438 106.796 23.7966C107.437 23.1551 107.798 22.2852 107.798 21.3781V19.6679H109.508C110.415 19.6679 111.285 19.3076 111.926 18.6661C112.568 18.0247 112.928 17.1547 112.928 16.2476V15.5448C117.935 17.5781 121.479 22.4897 121.479 28.2186C121.479 31.2365 120.474 34.1685 118.623 36.5522Z" fill="white"/>
</g>
<g filter="url(#filter3_d)">
<circle cx="27.7899" cy="28.2098" r="27.7899" fill="black"/>
</g>
<path d="M34.1171 19.6348H37.2808V41.4643H18.2982V19.6348H21.462V18.0755C21.462 17.2485 21.7953 16.4553 22.3887 15.8704C22.982 15.2856 23.7867 14.957 24.6258 14.957H30.9533C31.7924 14.957 32.5971 15.2856 33.1904 15.8704C33.7838 16.4553 34.1171 17.2485 34.1171 18.0755V19.6348ZM38.8627 19.6348H40.4446C41.2837 19.6348 42.0884 19.9633 42.6817 20.5482C43.2751 21.133 43.6084 21.9262 43.6084 22.7533V38.3458C43.6084 39.1729 43.2751 39.9661 42.6817 40.5509C42.0884 41.1357 41.2837 41.4643 40.4446 41.4643H38.8627V19.6348ZM16.7164 19.6348V41.4643H15.1345C14.2954 41.4643 13.4907 41.1357 12.8973 40.5509C12.304 39.9661 11.9707 39.1729 11.9707 38.3458V22.7533C11.9707 21.0381 13.3944 19.6348 15.1345 19.6348H16.7164ZM24.6258 18.0755V19.6348H30.9533V18.0755H24.6258Z" fill="#FFBD3A"/>
<defs>
<filter id="filter0_d" x="22" y="47" width="316" height="154" filterUnits="userSpaceOnUse" color-interpolation-filters="sRGB">
<feFlood flood-opacity="0" result="BackgroundImageFix"/>
<feColorMatrix in="SourceAlpha" type="matrix" values="0 0 0 0 0 0 0 0 0 0 0 0 0 0 0 0 0 0 127 0"/>
<feOffset dy="4"/>
<feGaussianBlur stdDeviation="2"/>
<feColorMatrix type="matrix" values="0 0 0 0 0 0 0 0 0 0 0 0 0 0 0 0 0 0 0.25 0"/>
<feBlend mode="normal" in2="BackgroundImageFix" result="effect1_dropShadow"/>
<feBlend mode="normal" in="SourceGraphic" in2="effect1_dropShadow" result="shape"/>
</filter>
<filter id="filter1_d" x="159.159" y="0" width="63.5797" height="63.5797" filterUnits="userSpaceOnUse" color-interpolation-filters="sRGB">
<feFlood flood-opacity="0" result="BackgroundImageFix"/>
<feColorMatrix in="SourceAlpha" type="matrix" values="0 0 0 0 0 0 0 0 0 0 0 0 0 0 0 0 0 0 127 0"/>
<feOffset dx="4" dy="4"/>
<feGaussianBlur stdDeviation="2"/>
<feColorMatrix type="matrix" values="0 0 0 0 0 0 0 0 0 0 0 0 0 0 0 0 0 0 0.2 0"/>
<feBlend mode="normal" in2="BackgroundImageFix" result="effect1_dropShadow"/>
<feBlend mode="normal" in="SourceGraphic" in2="effect1_dropShadow" result="shape"/>
</filter>
<filter id="filter2_d" x="79.5801" y="0" width="63.5797" height="63.5797" filterUnits="userSpaceOnUse" color-interpolation-filters="sRGB">
<feFlood flood-opacity="0" result="BackgroundImageFix"/>
<feColorMatrix in="SourceAlpha" type="matrix" values="0 0 0 0 0 0 0 0 0 0 0 0 0 0 0 0 0 0 127 0"/>
<feOffset dx="4" dy="4"/>
<feGaussianBlur stdDeviation="2"/>
<feColorMatrix type="matrix" values="0 0 0 0 0 0 0 0 0 0 0 0 0 0 0 0 0 0 0.2 0"/>
<feBlend mode="normal" in2="BackgroundImageFix" result="effect1_dropShadow"/>
<feBlend mode="normal" in="SourceGraphic" in2="effect1_dropShadow" result="shape"/>
</filter>
<filter id="filter3_d" x="0" y="0.419922" width="63.5797" height="63.5797" filterUnits="userSpaceOnUse" color-interpolation-filters="sRGB">
<feFlood flood-opacity="0" result="BackgroundImageFix"/>
<feColorMatrix in="SourceAlpha" type="matrix" values="0 0 0 0 0 0 0 0 0 0 0 0 0 0 0 0 0 0 127 0"/>
<feOffset dx="4" dy="4"/>
<feGaussianBlur stdDeviation="2"/>
<feColorMatrix type="matrix" values="0 0 0 0 0 0 0 0 0 0 0 0 0 0 0 0 0 0 0.2 0"/>
<feBlend mode="normal" in2="BackgroundImageFix" result="effect1_dropShadow"/>
<feBlend mode="normal" in="SourceGraphic" in2="effect1_dropShadow" result="shape"/>
</filter>
</defs>
</svg>
