<svg width="379" height="107" viewBox="0 0 379 107" fill="none" xmlns="http://www.w3.org/2000/svg">
<g filter="url(#filter0_d)">
<rect x="67" y="30" width="308" height="69" fill="#539882"/>
</g>
<g filter="url(#filter1_d)">
<g clip-path="url(#clip0)">
<rect x="4" width="205" height="37" rx="18.5" fill="black"/>
<path d="M41.109 12.231C38.34 12.231 36.39 14.337 36.39 16.95C36.39 19.823 38.535 21.669 41.109 21.669C43.02 21.669 44.112 21.006 45.087 20.174V16.573H41.642V18.12H43.371V19.238C43.176 19.433 42.461 19.953 41.187 19.953C39.549 19.953 38.301 18.809 38.301 16.95C38.301 15.26 39.406 13.934 41.187 13.934C42.487 13.934 43.267 14.636 43.54 14.935L44.697 13.739C44.229 13.18 43.02 12.231 41.109 12.231ZM46.0239 19.394C46.0239 20.824 47.1939 21.669 48.5719 21.669C49.3519 21.669 49.8719 21.435 50.2229 21.058L50.3399 21.5H51.9259V17.197C51.9259 15.676 51.2759 14.532 49.0919 14.532C48.0519 14.532 47.0249 14.922 46.4139 15.338L47.0899 16.56C47.5969 16.3 48.2209 16.079 48.8969 16.079C49.6899 16.079 50.1319 16.482 50.1319 17.08V17.522C49.8849 17.353 49.3519 17.145 48.6629 17.145C47.0769 17.145 46.0239 18.055 46.0239 19.394ZM47.8179 19.342C47.8179 18.783 48.2989 18.393 48.9879 18.393C49.6769 18.393 50.1709 18.744 50.1709 19.342C50.1709 19.914 49.6769 20.278 49.0009 20.278C48.3249 20.278 47.8179 19.901 47.8179 19.342ZM60.3423 21.5L62.7733 14.701H60.8623L59.3023 19.589L57.7423 14.701H55.8313L58.2623 21.5H60.3423ZM63.1632 18.12C63.1632 20.161 64.5542 21.669 66.7382 21.669C68.4282 21.669 69.3382 20.655 69.5982 20.174L68.4152 19.277C68.2202 19.563 67.6872 20.109 66.7642 20.109C65.7632 20.109 65.0352 19.459 64.9962 18.549H69.7802C69.7932 18.419 69.7932 18.289 69.7932 18.159C69.7932 15.936 68.5972 14.532 66.4912 14.532C64.5542 14.532 63.1632 16.066 63.1632 18.12ZM65.0482 17.379C65.1262 16.599 65.6722 16.001 66.5172 16.001C67.3362 16.001 67.9342 16.547 67.9732 17.379H65.0482ZM74.4159 14.532C73.5189 14.532 72.8429 15.013 72.5439 15.689V14.701H70.7889V21.5H72.5829V18.536C72.5829 17.184 73.0769 16.352 74.4159 16.352V14.532ZM82.1295 12.101H80.3355V15.416C80.1665 15.182 79.4905 14.532 78.3205 14.532C76.3705 14.532 75.0965 16.001 75.0965 18.107C75.0965 20.2 76.4745 21.669 78.4245 21.669C79.5815 21.669 80.2575 21.019 80.4395 20.798V21.5H82.1295V12.101ZM80.3875 18.12C80.3875 19.199 79.7375 20.083 78.6455 20.083C77.6315 20.083 76.9035 19.329 76.9035 18.12C76.9035 16.937 77.6055 16.118 78.6455 16.118C79.6335 16.118 80.3875 16.846 80.3875 18.12ZM83.171 18.12C83.171 20.161 84.562 21.669 86.746 21.669C88.436 21.669 89.346 20.655 89.606 20.174L88.423 19.277C88.228 19.563 87.695 20.109 86.772 20.109C85.771 20.109 85.043 19.459 85.004 18.549H89.788C89.801 18.419 89.801 18.289 89.801 18.159C89.801 15.936 88.605 14.532 86.499 14.532C84.562 14.532 83.171 16.066 83.171 18.12ZM85.056 17.379C85.134 16.599 85.68 16.001 86.525 16.001C87.344 16.001 87.942 16.547 87.981 17.379H85.056ZM94.4237 14.532C93.5267 14.532 92.8507 15.013 92.5517 15.689V14.701H90.7967V21.5H92.5907V18.536C92.5907 17.184 93.0847 16.352 94.4237 16.352V14.532ZM108.417 17.015C108.417 15.559 107.65 14.532 106.103 14.532C105.193 14.532 104.491 14.922 104.088 15.546C103.737 14.922 103.1 14.532 102.229 14.532C101.306 14.532 100.708 15.026 100.461 15.494V14.701H98.7059V21.5H100.5V17.431C100.5 16.625 100.968 16.144 101.605 16.144C102.268 16.144 102.658 16.599 102.658 17.366V21.5H104.452V17.444C104.452 16.625 104.907 16.144 105.557 16.144C106.22 16.144 106.623 16.625 106.623 17.431V21.5H108.417V17.015ZM109.4 18.12C109.4 20.161 110.791 21.669 112.975 21.669C114.665 21.669 115.575 20.655 115.835 20.174L114.652 19.277C114.457 19.563 113.924 20.109 113.001 20.109C112 20.109 111.272 19.459 111.233 18.549H116.017C116.03 18.419 116.03 18.289 116.03 18.159C116.03 15.936 114.834 14.532 112.728 14.532C110.791 14.532 109.4 16.066 109.4 18.12ZM111.285 17.379C111.363 16.599 111.909 16.001 112.754 16.001C113.573 16.001 114.171 16.547 114.21 17.379H111.285ZM117.194 14.701H116.466V16.157H117.181V18.835C117.181 20.681 117.896 21.591 119.521 21.591C120.015 21.591 120.288 21.526 120.288 21.526V19.992C120.145 20.005 120.08 20.005 119.963 20.005C119.274 20.005 118.962 19.797 118.962 18.783V16.157H120.236V14.701H118.962V13.271H117.194V14.701ZM124.579 21.513C124.579 22.124 124.293 22.462 123.643 22.462C123.513 22.462 123.331 22.436 123.331 22.436V23.957C123.331 23.957 123.565 23.983 123.773 23.983C125.242 23.983 126.373 23.385 126.373 21.591V14.701H124.579V21.513ZM124.423 13.063C124.423 13.648 124.878 14.09 125.463 14.09C126.061 14.09 126.516 13.648 126.516 13.063C126.516 12.478 126.061 12.036 125.463 12.036C124.878 12.036 124.423 12.478 124.423 13.063ZM127.414 18.12C127.414 20.174 128.948 21.669 131.067 21.669C133.199 21.669 134.733 20.174 134.733 18.12C134.733 16.066 133.147 14.532 131.067 14.532C129 14.532 127.414 16.053 127.414 18.12ZM129.208 18.12C129.208 16.95 129.988 16.118 131.067 16.118C132.146 16.118 132.939 16.963 132.939 18.12C132.939 19.277 132.146 20.083 131.067 20.083C130.001 20.083 129.208 19.277 129.208 18.12ZM138.065 21.669C138.949 21.669 139.599 21.175 139.885 20.707V21.5H141.64V14.701H139.846V18.783C139.846 19.511 139.378 20.057 138.637 20.057C138.026 20.057 137.506 19.589 137.506 18.835V14.701H135.712V18.627C135.712 20.07 136.128 21.669 138.065 21.669ZM148.915 21.5H150.917L152.958 14.701H151.008L149.799 19.524L148.512 14.701H146.822L145.522 19.524L144.326 14.701H142.376L144.404 21.5H146.406L147.667 17.145L148.915 21.5ZM160.604 14.532C159.707 14.532 159.031 15.013 158.732 15.689V14.701H156.977V21.5H158.771V18.536C158.771 17.184 159.265 16.352 160.604 16.352V14.532ZM161.044 18.12C161.044 20.161 162.435 21.669 164.619 21.669C166.309 21.669 167.219 20.655 167.479 20.174L166.296 19.277C166.101 19.563 165.568 20.109 164.645 20.109C163.644 20.109 162.916 19.459 162.877 18.549H167.661C167.674 18.419 167.674 18.289 167.674 18.159C167.674 15.936 166.478 14.532 164.372 14.532C162.435 14.532 161.044 16.066 161.044 18.12ZM162.929 17.379C163.007 16.599 163.553 16.001 164.398 16.001C165.217 16.001 165.815 16.547 165.854 17.379H162.929ZM168.67 21.5H170.464V14.701H168.67V21.5ZM168.514 13.063C168.514 13.648 168.969 14.09 169.554 14.09C170.152 14.09 170.607 13.648 170.607 13.063C170.607 12.478 170.152 12.036 169.554 12.036C168.969 12.036 168.514 12.478 168.514 13.063ZM173.962 21.669C175.431 21.669 176.575 20.837 176.575 19.511C176.575 17.08 173.351 17.6 173.351 16.521C173.351 16.183 173.637 15.975 174.053 15.975C174.69 15.975 175.067 16.365 175.275 16.625L176.458 15.741C176.133 15.208 175.418 14.532 174.131 14.532C172.74 14.532 171.661 15.286 171.661 16.547C171.661 18.965 174.872 18.562 174.872 19.602C174.872 19.992 174.547 20.213 174.04 20.213C173.273 20.213 172.818 19.862 172.48 19.472L171.427 20.408C171.791 20.993 172.623 21.669 173.962 21.669Z" fill="white"/>
</g>
</g>
<path d="M83.66 43H80.24V57H83.66V51.36L87.74 57H91.66L86.32 49.7L91.56 43H87.74L83.66 48.4V43ZM92.753 57H96.093V42.54H92.753V57ZM101.347 46.5H98.0069V57H101.347V46.5ZM99.6469 45.86C100.707 45.86 101.527 45.1 101.527 44.06C101.527 43 100.707 42.24 99.6469 42.24C98.5869 42.24 97.7869 43 97.7869 44.06C97.7869 45.1 98.5869 45.86 99.6469 45.86ZM113.181 46.5H109.441L106.601 50.72V42.54H103.261V57H106.601V52.1L109.541 57H113.461L109.801 51.3L113.181 46.5ZM117.818 51.78C117.818 54.94 120.178 57.26 123.518 57.26C126.838 57.26 129.278 54.9 129.278 51.74C129.278 48.56 126.898 46.24 123.518 46.24C120.278 46.24 117.818 48.6 117.818 51.78ZM121.158 51.78C121.158 50.24 122.138 49.18 123.518 49.18C124.878 49.18 125.938 50.2 125.938 51.74C125.938 53.24 124.898 54.32 123.518 54.32C122.158 54.32 121.158 53.3 121.158 51.78ZM133.903 51.72C133.903 50.32 134.723 49.16 136.163 49.16C137.503 49.16 138.423 50.16 138.423 51.72C138.423 53.26 137.523 54.32 136.163 54.32C134.843 54.32 133.903 53.38 133.903 51.72ZM133.783 46.5H130.663V60.74H134.003V56.2C134.223 56.46 135.203 57.26 136.803 57.26C139.843 57.26 141.763 55 141.763 51.74C141.763 48.52 139.643 46.24 136.623 46.24C135.083 46.24 134.083 46.98 133.783 47.32V46.5ZM154.429 51.78C154.429 53.18 153.609 54.34 152.169 54.34C150.829 54.34 149.909 53.34 149.909 51.78C149.909 50.24 150.809 49.18 152.169 49.18C153.489 49.18 154.429 50.12 154.429 51.78ZM154.549 57H157.669V42.54H154.329V47.3C154.109 47.04 153.129 46.24 151.529 46.24C148.489 46.24 146.569 48.5 146.569 51.76C146.569 54.98 148.689 57.26 151.709 57.26C153.249 57.26 154.249 56.52 154.549 56.18V57ZM169.369 52.62C169.389 52.38 169.389 52.16 169.389 51.96C169.389 48.38 167.569 46.24 164.229 46.24C161.149 46.24 159.069 48.7 159.069 51.78C159.069 54.88 161.189 57.26 164.649 57.26C167.369 57.26 168.809 55.56 169.109 54.94L166.909 53.24C166.709 53.54 165.969 54.36 164.709 54.36C163.469 54.36 162.569 53.56 162.489 52.62H169.369ZM164.289 48.94C165.329 48.94 165.949 49.66 165.989 50.5H162.589C162.669 49.76 163.189 48.94 164.289 48.94ZM178.582 48.52V46.5H170.402V49.28H174.382L170.302 55V57H178.622V54.22H174.482L178.582 48.52ZM189.623 52.62C189.643 52.38 189.643 52.16 189.643 51.96C189.643 48.38 187.823 46.24 184.483 46.24C181.403 46.24 179.323 48.7 179.323 51.78C179.323 54.88 181.443 57.26 184.903 57.26C187.623 57.26 189.063 55.56 189.363 54.94L187.163 53.24C186.963 53.54 186.223 54.36 184.963 54.36C183.723 54.36 182.823 53.56 182.743 52.62H189.623ZM184.543 48.94C185.583 48.94 186.203 49.66 186.243 50.5H182.843C182.923 49.76 183.443 48.94 184.543 48.94ZM204.821 46.5H201.081L198.241 50.72V42.54H194.901V57H198.241V52.1L201.181 57H205.101L201.441 51.3L204.821 46.5ZM212.233 57H215.573V51.18C215.573 49.04 215.253 46.24 211.973 46.24C210.653 46.24 209.733 46.96 209.333 47.58V46.5H206.073V57H209.413V50.74C209.413 49.9 209.933 49.24 210.853 49.24C211.653 49.24 212.233 49.76 212.233 50.74V57ZM216.881 51.78C216.881 54.94 219.241 57.26 222.581 57.26C225.901 57.26 228.341 54.9 228.341 51.74C228.341 48.56 225.961 46.24 222.581 46.24C219.341 46.24 216.881 48.6 216.881 51.78ZM220.221 51.78C220.221 50.24 221.201 49.18 222.581 49.18C223.941 49.18 225.001 50.2 225.001 51.74C225.001 53.24 223.961 54.32 222.581 54.32C221.221 54.32 220.221 53.3 220.221 51.78ZM232.966 51.72C232.966 50.32 233.786 49.16 235.226 49.16C236.566 49.16 237.486 50.16 237.486 51.72C237.486 53.26 236.586 54.32 235.226 54.32C233.906 54.32 232.966 53.38 232.966 51.72ZM232.846 46.5H229.726V60.74H233.066V56.2C233.286 56.46 234.266 57.26 235.866 57.26C238.906 57.26 240.826 55 240.826 51.74C240.826 48.52 238.706 46.24 235.686 46.24C234.146 46.24 233.146 46.98 232.846 47.32V46.5ZM245.611 51.78C245.611 54.94 247.971 57.26 251.311 57.26C254.631 57.26 257.071 54.9 257.071 51.74C257.071 48.56 254.691 46.24 251.311 46.24C248.071 46.24 245.611 48.6 245.611 51.78ZM248.951 51.78C248.951 50.24 249.931 49.18 251.311 49.18C252.671 49.18 253.731 50.2 253.731 51.74C253.731 53.24 252.691 54.32 251.311 54.32C249.951 54.32 248.951 53.3 248.951 51.78ZM267.676 50.74C267.676 49.84 268.176 49.24 268.956 49.24C269.756 49.24 270.236 49.8 270.236 50.74V57H273.576V50.02C273.576 47.8 272.436 46.24 270.016 46.24C268.656 46.24 267.676 46.8 267.036 47.62C266.476 46.76 265.556 46.24 264.316 46.24C262.916 46.24 262.076 46.94 261.716 47.58V46.5H258.456V57H261.796V50.74C261.796 49.78 262.296 49.24 263.076 49.24C263.876 49.24 264.336 49.8 264.336 50.74V57H267.676V50.74ZM282.015 46.5H278.435L282.035 57H285.915L289.455 46.5H285.975L283.995 53.46L282.015 46.5ZM300.267 52.62C300.287 52.38 300.287 52.16 300.287 51.96C300.287 48.38 298.467 46.24 295.127 46.24C292.047 46.24 289.967 48.7 289.967 51.78C289.967 54.88 292.087 57.26 295.547 57.26C298.267 57.26 299.707 55.56 300.007 54.94L297.807 53.24C297.607 53.54 296.867 54.36 295.607 54.36C294.367 54.36 293.467 53.56 293.387 52.62H300.267ZM295.187 48.94C296.227 48.94 296.847 49.66 296.887 50.5H293.487C293.567 49.76 294.087 48.94 295.187 48.94ZM307.66 46.24C306.36 46.24 305.38 46.88 304.88 47.9V46.5H301.62V57H304.96V52.36C304.96 50.78 305.5 49.6 307.12 49.6C307.36 49.6 307.52 49.62 307.66 49.64V46.24ZM316.343 51.78C316.343 53.18 315.523 54.34 314.083 54.34C312.743 54.34 311.823 53.34 311.823 51.78C311.823 50.24 312.723 49.18 314.083 49.18C315.403 49.18 316.343 50.12 316.343 51.78ZM316.463 57H319.583V42.54H316.243V47.3C316.023 47.04 315.043 46.24 313.443 46.24C310.403 46.24 308.483 48.5 308.483 51.76C308.483 54.98 310.603 57.26 313.623 57.26C315.163 57.26 316.163 56.52 316.463 56.18V57ZM331.283 52.62C331.303 52.38 331.303 52.16 331.303 51.96C331.303 48.38 329.483 46.24 326.143 46.24C323.063 46.24 320.983 48.7 320.983 51.78C320.983 54.88 323.103 57.26 326.563 57.26C329.283 57.26 330.723 55.56 331.023 54.94L328.823 53.24C328.623 53.54 327.883 54.36 326.623 54.36C325.383 54.36 324.483 53.56 324.403 52.62H331.283ZM326.203 48.94C327.243 48.94 327.863 49.66 327.903 50.5H324.503C324.583 49.76 325.103 48.94 326.203 48.94ZM338.676 46.24C337.376 46.24 336.396 46.88 335.896 47.9V46.5H332.636V57H335.976V52.36C335.976 50.78 336.516 49.6 338.136 49.6C338.376 49.6 338.536 49.62 338.676 49.64V46.24ZM347.564 44.28H344.224V46.5H343.204V49.2H344.224V52.9C344.224 56.02 345.664 57.16 348.144 57.16C348.984 57.16 349.424 57.04 349.424 57.04V54.18C349.204 54.2 349.044 54.2 348.864 54.2C348.184 54.2 347.564 53.98 347.564 53.06V49.2H349.344V46.5H347.564V44.28ZM360.756 52.62C360.776 52.38 360.776 52.16 360.776 51.96C360.776 48.38 358.956 46.24 355.616 46.24C352.536 46.24 350.456 48.7 350.456 51.78C350.456 54.88 352.576 57.26 356.036 57.26C358.756 57.26 360.196 55.56 360.496 54.94L358.296 53.24C358.096 53.54 357.356 54.36 356.096 54.36C354.856 54.36 353.956 53.56 353.876 52.62H360.756ZM355.676 48.94C356.716 48.94 357.336 49.66 357.376 50.5H353.976C354.056 49.76 354.576 48.94 355.676 48.94ZM87.18 76.46C87.18 77.74 85.94 78.02 84.7 78.02C83.28 78.02 82.1 77.52 81.8 77.38L80.82 79.94C81.76 80.42 83.22 80.84 84.7 80.84C87.82 80.84 90.52 79.62 90.52 75.74V66.5H87.4V67.32C87.1 66.98 86.1 66.24 84.56 66.24C81.54 66.24 79.42 68.52 79.42 71.74C79.42 75 81.34 77.26 84.38 77.26C85.98 77.26 86.96 76.46 87.18 76.2V76.46ZM87.28 71.72C87.28 73.38 86.34 74.32 85.02 74.32C83.66 74.32 82.76 73.26 82.76 71.72C82.76 70.16 83.66 69.18 85 69.18C86.44 69.18 87.28 70.32 87.28 71.72ZM91.8023 73.74C91.8023 76.02 93.6423 77.26 95.7023 77.26C96.7823 77.26 97.5423 76.96 98.0823 76.42L98.2623 77H101.242V70.5C101.242 68.1 100.322 66.24 96.7023 66.24C94.9623 66.24 93.5423 66.8 92.4223 67.54L93.6623 69.78C94.4823 69.38 95.3823 69.12 96.3023 69.12C97.3823 69.12 97.9023 69.62 97.9023 70.26V70.64C97.5223 70.48 96.8023 70.26 95.8823 70.26C93.4023 70.26 91.8023 71.64 91.8023 73.74ZM95.1423 73.62C95.1423 72.94 95.7423 72.5 96.5423 72.5C97.3423 72.5 97.9623 72.9 97.9623 73.62C97.9623 74.32 97.3623 74.7 96.5623 74.7C95.7823 74.7 95.1423 74.32 95.1423 73.62ZM102.486 73.74C102.486 76.02 104.326 77.26 106.386 77.26C107.466 77.26 108.226 76.96 108.766 76.42L108.946 77H111.926V70.5C111.926 68.1 111.006 66.24 107.386 66.24C105.646 66.24 104.226 66.8 103.106 67.54L104.346 69.78C105.166 69.38 106.066 69.12 106.986 69.12C108.066 69.12 108.586 69.62 108.586 70.26V70.64C108.206 70.48 107.486 70.26 106.566 70.26C104.086 70.26 102.486 71.64 102.486 73.74ZM105.826 73.62C105.826 72.94 106.426 72.5 107.226 72.5C108.026 72.5 108.646 72.9 108.646 73.62C108.646 74.32 108.046 74.7 107.246 74.7C106.466 74.7 105.826 74.32 105.826 73.62ZM119.89 77H123.23V71.18C123.23 69.04 122.91 66.24 119.63 66.24C118.31 66.24 117.39 66.96 116.99 67.58V66.5H113.73V77H117.07V70.74C117.07 69.9 117.59 69.24 118.51 69.24C119.31 69.24 119.89 69.76 119.89 70.74V77ZM138.223 70.74C138.223 69.84 138.723 69.24 139.503 69.24C140.303 69.24 140.783 69.8 140.783 70.74V77H144.123V70.02C144.123 67.8 142.983 66.24 140.563 66.24C139.203 66.24 138.223 66.8 137.583 67.62C137.023 66.76 136.103 66.24 134.863 66.24C133.463 66.24 132.623 66.94 132.263 67.58V66.5H129.003V77H132.343V70.74C132.343 69.78 132.843 69.24 133.623 69.24C134.423 69.24 134.883 69.8 134.883 70.74V77H138.223V70.74ZM155.736 72.62C155.756 72.38 155.756 72.16 155.756 71.96C155.756 68.38 153.936 66.24 150.596 66.24C147.516 66.24 145.436 68.7 145.436 71.78C145.436 74.88 147.556 77.26 151.016 77.26C153.736 77.26 155.176 75.56 155.476 74.94L153.276 73.24C153.076 73.54 152.336 74.36 151.076 74.36C149.836 74.36 148.936 73.56 148.856 72.62H155.736ZM150.656 68.94C151.696 68.94 152.316 69.66 152.356 70.5H148.956C149.036 69.76 149.556 68.94 150.656 68.94ZM160.709 64.28H157.369V66.5H156.349V69.2H157.369V72.9C157.369 76.02 158.809 77.16 161.289 77.16C162.129 77.16 162.569 77.04 162.569 77.04V74.18C162.349 74.2 162.189 74.2 162.009 74.2C161.329 74.2 160.709 73.98 160.709 73.06V69.2H162.489V66.5H160.709V64.28ZM171.386 66.5H168.046V76.88C168.046 77.54 167.706 78 166.726 78C166.506 78 166.246 77.96 166.246 77.96V80.78C166.246 80.78 166.626 80.84 166.986 80.84C169.506 80.84 171.386 79.86 171.386 77.04V66.5ZM169.686 65.86C170.746 65.86 171.566 65.1 171.566 64.06C171.566 63 170.746 62.24 169.686 62.24C168.626 62.24 167.826 63 167.826 64.06C167.826 65.1 168.626 65.86 169.686 65.86ZM172.76 71.78C172.76 74.94 175.12 77.26 178.46 77.26C181.78 77.26 184.22 74.9 184.22 71.74C184.22 68.56 181.84 66.24 178.46 66.24C175.22 66.24 172.76 68.6 172.76 71.78ZM176.1 71.78C176.1 70.24 177.08 69.18 178.46 69.18C179.82 69.18 180.88 70.2 180.88 71.74C180.88 73.24 179.84 74.32 178.46 74.32C177.1 74.32 176.1 73.3 176.1 71.78ZM188.865 66.5H185.525V72.32C185.525 74.46 185.845 77.26 189.125 77.26C190.445 77.26 191.365 76.54 191.765 75.92V77H195.025V66.5H191.685V72.76C191.685 73.6 191.165 74.26 190.245 74.26C189.445 74.26 188.865 73.74 188.865 72.76V66.5ZM205.754 77H209.514L212.454 66.5H208.814L207.394 73.36L205.814 66.5H202.694L201.114 73.36L199.694 66.5H196.054L198.994 77H202.754L204.254 71.06L205.754 77ZM223.68 77H227.02V71.18C227.02 69.04 226.7 66.24 223.42 66.24C222.1 66.24 221.22 66.96 220.82 67.58V62.54H217.48V77H220.82V70.74C220.82 69.9 221.38 69.24 222.3 69.24C223.1 69.24 223.68 69.76 223.68 70.74V77ZM232.126 66.5H228.786V72.32C228.786 74.46 229.106 77.26 232.386 77.26C233.706 77.26 234.626 76.54 235.026 75.92V77H238.286V66.5H234.946V72.76C234.946 73.6 234.426 74.26 233.506 74.26C232.706 74.26 232.126 73.74 232.126 72.76V66.5ZM243.476 66.5H240.136V77H243.476V66.5ZM241.776 65.86C242.836 65.86 243.656 65.1 243.656 64.06C243.656 63 242.836 62.24 241.776 62.24C240.716 62.24 239.916 63 239.916 64.06C239.916 65.1 240.716 65.86 241.776 65.86ZM252.73 71.78C252.73 73.18 251.91 74.34 250.47 74.34C249.13 74.34 248.21 73.34 248.21 71.78C248.21 70.24 249.11 69.18 250.47 69.18C251.79 69.18 252.73 70.12 252.73 71.78ZM252.85 77H255.97V62.54H252.63V67.3C252.41 67.04 251.43 66.24 249.83 66.24C246.79 66.24 244.87 68.5 244.87 71.76C244.87 74.98 246.99 77.26 250.01 77.26C251.55 77.26 252.55 76.52 252.85 76.18V77ZM261.23 66.5H257.89V77H261.23V66.5ZM259.53 65.86C260.59 65.86 261.41 65.1 261.41 64.06C261.41 63 260.59 62.24 259.53 62.24C258.47 62.24 257.67 63 257.67 64.06C257.67 65.1 258.47 65.86 259.53 65.86ZM270.364 76.46C270.364 77.74 269.124 78.02 267.884 78.02C266.464 78.02 265.284 77.52 264.984 77.38L264.004 79.94C264.944 80.42 266.404 80.84 267.884 80.84C271.004 80.84 273.704 79.62 273.704 75.74V66.5H270.584V67.32C270.284 66.98 269.284 66.24 267.744 66.24C264.724 66.24 262.604 68.52 262.604 71.74C262.604 75 264.524 77.26 267.564 77.26C269.164 77.26 270.144 76.46 270.364 76.2V76.46ZM270.464 71.72C270.464 73.38 269.524 74.32 268.204 74.32C266.844 74.32 265.944 73.26 265.944 71.72C265.944 70.16 266.844 69.18 268.184 69.18C269.624 69.18 270.464 70.32 270.464 71.72ZM285.326 72.62C285.346 72.38 285.346 72.16 285.346 71.96C285.346 68.38 283.526 66.24 280.186 66.24C277.106 66.24 275.026 68.7 275.026 71.78C275.026 74.88 277.146 77.26 280.606 77.26C283.326 77.26 284.766 75.56 285.066 74.94L282.866 73.24C282.666 73.54 281.926 74.36 280.666 74.36C279.426 74.36 278.526 73.56 278.446 72.62H285.326ZM280.246 68.94C281.286 68.94 281.906 69.66 281.946 70.5H278.546C278.626 69.76 279.146 68.94 280.246 68.94ZM296.645 66.24C295.345 66.24 294.365 66.88 293.865 67.9V66.5H290.605V77H293.945V72.36C293.945 70.78 294.485 69.6 296.105 69.6C296.345 69.6 296.505 69.62 296.645 69.64V66.24ZM307.377 72.62C307.397 72.38 307.397 72.16 307.397 71.96C307.397 68.38 305.577 66.24 302.237 66.24C299.157 66.24 297.077 68.7 297.077 71.78C297.077 74.88 299.197 77.26 302.657 77.26C305.377 77.26 306.817 75.56 307.117 74.94L304.917 73.24C304.717 73.54 303.977 74.36 302.717 74.36C301.477 74.36 300.577 73.56 300.497 72.62H307.377ZM302.297 68.94C303.337 68.94 303.957 69.66 303.997 70.5H300.597C300.677 69.76 301.197 68.94 302.297 68.94ZM312.07 66.5H308.73V77H312.07V66.5ZM310.37 65.86C311.43 65.86 312.25 65.1 312.25 64.06C312.25 63 311.43 62.24 310.37 62.24C309.31 62.24 308.51 63 308.51 64.06C308.51 65.1 309.31 65.86 310.37 65.86ZM317.343 77.26C319.743 77.26 321.623 75.94 321.623 73.8C321.623 70 316.783 70.76 316.783 69.44C316.783 69.12 317.063 68.92 317.543 68.92C318.363 68.92 318.963 69.42 319.283 69.74L321.443 68.04C320.823 67.2 319.683 66.24 317.683 66.24C315.403 66.24 313.643 67.46 313.643 69.48C313.643 73.3 318.443 72.78 318.443 73.98C318.443 74.36 318.143 74.56 317.503 74.56C316.443 74.56 315.743 74.14 315.183 73.64L313.303 75.46C313.923 76.3 315.343 77.26 317.343 77.26ZM324.51 77.26C325.61 77.26 326.51 76.36 326.51 75.28C326.51 74.18 325.61 73.28 324.51 73.28C323.41 73.28 322.53 74.18 322.53 75.28C322.53 76.36 323.41 77.26 324.51 77.26Z" fill="#FFF6F0"/>
<defs>
<filter id="filter0_d" x="63" y="30" width="316" height="77" filterUnits="userSpaceOnUse" color-interpolation-filters="sRGB">
<feFlood flood-opacity="0" result="BackgroundImageFix"/>
<feColorMatrix in="SourceAlpha" type="matrix" values="0 0 0 0 0 0 0 0 0 0 0 0 0 0 0 0 0 0 127 0"/>
<feOffset dy="4"/>
<feGaussianBlur stdDeviation="2"/>
<feColorMatrix type="matrix" values="0 0 0 0 0 0 0 0 0 0 0 0 0 0 0 0 0 0 0.25 0"/>
<feBlend mode="normal" in2="BackgroundImageFix" result="effect1_dropShadow"/>
<feBlend mode="normal" in="SourceGraphic" in2="effect1_dropShadow" result="shape"/>
</filter>
<filter id="filter1_d" x="0" y="0" width="213" height="45" filterUnits="userSpaceOnUse" color-interpolation-filters="sRGB">
<feFlood flood-opacity="0" result="BackgroundImageFix"/>
<feColorMatrix in="SourceAlpha" type="matrix" values="0 0 0 0 0 0 0 0 0 0 0 0 0 0 0 0 0 0 127 0"/>
<feOffset dy="4"/>
<feGaussianBlur stdDeviation="2"/>
<feColorMatrix type="matrix" values="0 0 0 0 0 0 0 0 0 0 0 0 0 0 0 0 0 0 0.25 0"/>
<feBlend mode="normal" in2="BackgroundImageFix" result="effect1_dropShadow"/>
<feBlend mode="normal" in="SourceGraphic" in2="effect1_dropShadow" result="shape"/>
</filter>
<clipPath id="clip0">
<rect x="4" width="205" height="37" rx="18.5" fill="white"/>
</clipPath>
</defs>
</svg>
