<svg width="206" height="224" viewBox="0 0 206 224" fill="none" xmlns="http://www.w3.org/2000/svg">
<g filter="url(#filter0_d)">
<path d="M197.023 24.7081L198.254 28.4841C198.283 28.5734 196.242 29.4516 195.217 29.8796L194.807 28.0736L193.001 27.499L192.18 27.1707H191.031V27.7453L190.21 28.0736L189.799 27.499H189.307L189.061 28.0736L188.158 30.2079L187.829 31.7675L186.762 32.6705C186.543 32.6431 186.122 32.3093 186.188 31.1929C186.253 30.0766 185.613 31.1109 185.285 31.7675L183.971 33.4093L183.068 33.6555V36.2002L182.822 36.6107L182.001 37.1853L182.247 37.5957H181.262L180.852 37.1853L179.128 37.5957V38.4166H178.389L177.897 40.3046L177.651 41.2896L177.158 39.8941L176.83 40.7971L176.501 41.2896L177.158 41.9463L176.173 42.8493V44.0806L175.27 44.6552L174.203 44.0806L173.218 45.2298V46.6252V48.3491L172.315 49.9908L171.987 50.4012L171.33 49.7445H170.345L169.852 51.14L168.785 53.1922L168.293 53.6026L167.143 55.3264L165.83 58.6099C166.022 58.8014 166.405 59.3651 166.405 60.0875V62.2217L167.964 64.0276H168.785L169.36 65.1768H170.345L170.673 65.8335L170.345 67.4753L169.606 68.214L168.785 71.9079L167.964 75.4377L168.457 77.4077L168.293 79.2137V81.5121L169.606 83.1538L168.785 84.7135L168.457 85.6164V86.9298L167.636 87.4223H166.405H164.188L163.121 87.9969L162.218 88.8178L160.905 89.0641L158.935 89.8849L157.457 90.7879L156.472 91.7729L155.323 94.1534L154.42 93.4967V92.84H152.45V93.8251L151.957 95.4668L151.137 96.9444V98.5861L148.181 102.28H145.883L144.405 103.758L141.697 106.384H140.547L139.48 107.287H138.741L138.413 107.862H137.1H136.197L135.54 108.437H135.048L134.145 109.011L134.473 110.16L135.54 111.063V112.623L134.473 114.018L133.898 113.608L132.667 114.429L131.682 114.757L131.354 115.332L130.697 115.824H130.204L129.466 116.235L127.742 117.466H126.346L125.279 118.697V120.011L124.294 119.764L122.981 118.287L122.078 118.944L121.175 120.011H119.287L115.757 119.354L114.444 120.585L112.72 121.406L110.668 125.593L110.093 127.481L106.481 126.167L103.855 128.63L103.116 127.481L99.6682 131.257L99.9145 133.965L100.899 135.689L101.802 138.398L99.9145 141.928L101.802 148.659H100.899L99.9145 145.868V143.98L98.3548 145.868H95.646L98.3548 147.181H95.646V152.928L97.534 154.651L98.3548 153.748L99.9145 155.226H103.116L103.855 156.95L107.138 156.129L108.862 159.823L111.735 162.86L113.459 165.241L115.101 167.867H117.645L121.339 172.875L123.145 170.987L125.443 173.531L126.593 176.815L123.145 178.128V183.217L120.518 185.762L115.757 188.471L111.078 189.702H105.661H100.899H94.6609H89.2432L82.9225 193.643L81.445 196.269L80.1316 198.486L76.1914 200.866L75.1243 202.836L73.3184 204.314V209.649L72.0871 211.045L67.9827 208.5L66.2589 207.515V205.956L63.3038 207.023L61.6621 208.172H58.5428L57.3115 208.5L58.2144 211.045V212.112L57.3115 212.605L56.6548 211.455L54.931 209.649L54.5205 207.515L54.028 207.023L52.9609 205.217H50.8266L52.3042 206.612L52.9609 208.5H51.6475L49.4311 206.284L47.6252 203.821L46.7223 203.247V201.687L45.5731 201.359H43.3567L41.3867 200.374H40.2374V202.015L41.9613 202.836H43.3567L43.7672 203.247L44.9985 203.821V204.97L43.3567 205.217H41.9613V205.627V207.023L42.2896 208.5L41.3867 210.224V211.455L40.2374 211.045L39.827 210.388L39.0882 211.045L38.5957 210.224L37.5286 211.045L37.2823 212.112L36.7077 213.097H35.6406H34.3272L33.3422 214V213.097V211.045H34.3272H35.6406V210.388H34.3272V209.649L34.9018 209.075L36.7077 208.911H37.7748L38.3494 208.5V207.926H37.2823L37.5286 206.284V205.627L36.7077 205.217H35.6406H35.4764L34.9018 206.284L35.6406 207.515L34.3272 207.023L33.3422 207.515L33.9988 208.172L33.3422 209.075L31.4542 209.649V209.075H29.2378L31.4542 207.023V205.627L30.2229 204.97H29.2378L27.9244 207.023H26.1185L24.5589 205.956L22.9171 204.97L22.3425 204.314V203.821L23.9843 202.836L24.8872 203.247H27.3498L27.9244 202.015H26.1185L25.3797 200.866L26.529 199.963H28.7453V200.866L29.8945 201.359L30.2229 199.963L30.7154 198.486L29.2378 198.157H26.529L22.9171 199.306L20.5366 198.157L18.7307 196.269L18.3203 197.583L15.6114 198.157L12.1638 197.008V196.269L14.5443 195.613L15.6114 194.71L17.089 193.643L17.9099 192.493L18.7307 192.822L19.8799 194.135L22.3425 192.493L20.5366 192.822L18.7307 191.837L17.9099 188.471L19.3874 185.762L20.5366 183.217H22.0142L22.9171 180.755L22.0142 178.867L21.1112 177.389L23.4918 178.867L24.5589 178.128H26.1185L25.7902 176.815V175.009L27.3498 175.912H30.7154L32.1929 174.598L35.3122 173.695L36.7077 173.531L37.5286 174.106L38.3494 175.419L39.4987 175.009L40.5658 175.912L42.8642 176.815L41.9613 175.009L39.0882 172.875L37.5286 172.382L36.7077 170.987H35.6406V172.382L33.3422 172.875L31.8646 173.203L30.2229 172.875L29.8945 169.755L28.417 171.725L26.529 169.755V166.472L29.2378 161.547L31.0437 158.427V155.226L32.1929 154.651L32.6855 152.928H35.6406L34.4093 151.45L35.6406 148.659L35.066 147.181L36.7077 145.868L33.3422 145.129L32.6855 143.98L33.8347 141.928L36.1331 139.137V137.495L31.0437 140.697L29.8945 139.137L29.2378 137.495H27.3498L26.529 138.809L25.7902 138.398L21.85 135.689H19.7158L19.0591 133.965L16.6786 131.831H15.201V133.965L13.5593 136.1L10.5221 137.085V136.674L11.6713 133.965L9.53702 132.242L9.20867 130.272L8.71615 128.63L3.95512 127.891V126.906L2.64173 126.249L1 124.197L3.05217 123.705L3.38051 121.981L3.95512 119.354L3.05217 116.974L8.71615 111.884L10.5221 109.504L13.5593 108.601L14.7906 106.056L19.0591 101.459L19.7158 102.773L24.1484 103.265L24.641 101.459L23.8201 99.8995L31.0437 94.9743L34.4914 96.1235L36.4614 94.4818V92.0192L40.1553 90.0491H40.5658H43.5209L42.2075 88.7357L44.0134 86.3552L45.8193 85.3702L47.5432 85.9448L49.9237 84.3851L50.9087 85.9448L53.4534 84.9597L52.7146 83.9747L54.3563 83.4822L55.7518 81.2658L56.901 78.639V77.0794L58.789 76.0944L61.6621 74.4526L63.3859 72.3184L64.6172 68.214L68.0648 65.8335L69.6245 66.4081L69.132 63.9455L70.3633 58.1174L71.6766 54.5056L73.6467 53.4384L75.2064 52.8638L74.2213 50.6475L77.7511 52.8638L78.9003 51.6325L82.0196 49.0058L85.5493 52.125L85.1389 53.4384L90.0641 57.4607L87.3552 59.0203L91.2133 59.5949L96.1385 60.7442L100.735 61.2367L104.019 62.7963L109.929 63.1247L111.817 61.6471L115.018 63.1247L117.809 65.4231L119.944 64.8485L122.16 61.6471L123.72 58.692V55.819L120.847 52.8638L119.944 51.2221L118.302 48.3491L116.824 46.6252L115.921 43.2597L116.25 40.8792L123.72 39.2374L128.645 40.0583L132.667 40.3867L133.242 38.827L136.443 39.2374L138.906 38.3345L143.831 39.2374L144.57 36.6107H146.704L148.264 34.4764L150.808 33.4093L152.942 32.0138V29.5512V26.6782L155.159 24.7081L158.853 22.2455L163.039 26.0215L163.45 24.3797L164.353 22.2455L167.8 23.3947L168.703 21.5067V17.1561L169.934 15.7606L169.278 15.186L170.591 12.9697L169.524 12.1488L170.919 8.86536L171.987 5.41772L172.315 1.88799L173.054 0L175.598 0.656694L177.651 1.55965L179.456 0.656694L181.262 0.902954L180.113 3.52973L185.285 4.35059L184.874 6.23859L184.382 10.9175L189.553 15.7606L192.672 18.1412L197.023 24.7081Z" fill="#F3E8CB"/>
</g>
<g filter="url(#filter1_d)">
<path d="M111.981 170.822V180.672H114.526L115.265 176.486H118.056L118.959 180.672V184.776H110.011L105.168 187.157L98.1087 186.254L89.8179 187.157L87.5195 189.291L80.2958 192.492L77.8332 197.582L71.1021 201.276L65.8486 204.559H61.0055H56.4907V202.589L49.185 201.276L46.394 199.059L41.3867 198.567L39.0883 199.059V202.589L38.3495 203.82H35.8869H33.096L31.2901 202.589L32.111 201.276V197.582H30.0588L28.2529 195.283H22.9172L25.544 193.231L23.4918 191.343L22.9172 188.06V186.254L27.3499 184.776L29.5663 180.672L32.111 178.127L35.0661 178.62H39.745H42.2076L44.424 180.672H48.6925L47.6253 179.276L45.5732 178.62V175.993L43.2747 174.105V171.725L37.2003 167.949H32.111L31.2901 162.941L33.096 160.232L34.4915 156.292L38.3495 155.143L37.2003 153.255V148.986L39.0883 143.815L38.3495 141.352L39.745 138.315L37.6928 135.935L32.111 137.576L28.2529 134.211H22.9172L19.3875 130.845L15.6936 128.465L8.71624 126.577L5.51486 123.95V121.487L7.48494 117.137V113.935L10.6863 111.227L15.6936 109.749L18.7308 107.122L22.1785 105.07L26.9395 105.727V102.525L29.0737 99.4061L32.111 97.9286L37.6928 96.9435L41.5509 94.0705L42.2076 93.0034L44.9165 92.2646H45.9836L47.0507 87.6677H51.7297L56.9011 86.1081L58.7891 81.3471L61.6622 78.2278L64.6173 74.2876L66.5874 70.9221L68.6395 68.049L71.923 67.5565V65.176V58.9374L76.1094 55.4077L82.8405 55.9823L85.9598 60.6612L89.0791 62.0567H93.9222L102.213 63.9447L108.616 65.176L112.72 64.4372L118.466 68.049L122.653 65.8327L123.309 62.0567L126.511 57.624L125.526 54.751L123.309 51.8779L120.929 49.7437L118.466 46.5423L119.533 45.311L121.421 47.2811H124.623V43.5051L123.802 42.0275L129.22 41.535L133.242 42.0275H137.674H142.189L146.704 39.5649L148.592 37.1844L150.152 35.3785L153.025 36.1994L154.174 32.4234L156.39 28.7295L161.069 27.0878H164.271L165.748 24.1326H170.181L170.92 20.2746L171.658 16.2523L175.27 12.6405L179.703 9.93164L183.643 14.6106L186.762 17.4836L191.687 18.8791L192.59 23.3939L191.687 25.5281H188.076L187.583 28.7295L185.121 29.6324L182.083 32.4234L180.36 35.3785L178.472 36.1994L175.27 38.9903V42.0275H173.136L170.92 46.1319L168.785 47.2811L166.323 52.3705L163.778 57.624V62.0567L166.323 65.8327L167.636 68.049L165.748 74.2876V79.0486V84.6305L162.957 86.2723H156.062L148.51 90.2945L145.719 96.2048L141.779 100.966L133.816 103.757L128.234 108.518V115.249H123.884H118.384H114.362H111.981L109.19 123.622L106.81 120.42L98.9295 123.622L96.549 127.972L94.1685 132.733V139.875L89.8179 150.546L94.1685 158.509L101.72 161.299L111.981 170.822Z" fill="#C1DD9B"/>
</g>
<g filter="url(#filter2_d)">
<path d="M181.673 18.2262L179.703 15.8457H175.188L172.315 20.6888L171.576 24.2185V26.1065H169.196L164.763 28.9796L159.592 30.7034L157.457 35.7107V38.5016H152.204L148.838 42.6881L145.555 44.494L142.846 45.7253H134.145H128.152L127.003 50.9788L128.152 56.3965V60.665L125.033 63.1276L124.212 68.5454L115.429 69.6125L104.922 68.2991H99.9966L94.1685 66.2469L88.0941 64.9335L83.7435 64.1127L80.1316 60.665L76.3557 59.0233L74.7139 61.8963L76.3557 67.1499L72.5797 71.1721L68.0649 73.2243L67.244 76.4257L66.0127 80.2838L63.7964 83.8956L61.0055 87.4253L58.6249 89.5596L50.0058 90.3804L48.6924 95.0594L44.6702 97.8503L41.0584 100.231L34.4914 100.888L30.9617 103.35L30.0588 107.947L26.529 107.044H23.1635L19.6338 111.23L14.9548 112.298L9.78336 116.074V120.342V124.446L15.5294 123.297L20.7009 128.551L24.1485 131.67L28.1708 133.558H30.9617H34.4914H39.8271L41.5509 137.498L40.3196 143.901V147.513V150.468L41.0584 156.378L39.2525 160.565L38.5958 165.079L43.7672 167.87L47.5432 171.728L48.6924 175.176L49.6775 177.885L51.9759 179.362L54.1923 180.594L56.9011 180.922L57.4757 182.153L56.9011 183.138L52.3043 182.153L46.7224 182.482L43.7672 181.661L39.4987 180.265L33.3422 182.153V185.519L30.0588 188.802L36.2153 195.78H42.3718L52.7968 197.75L62.5651 200.13L73.811 195.78L80.7063 188.802L86.0419 185.519L92.0342 183.22H102.459H109.355V177.31L102.459 171.154L94.0043 164.012L87.8478 158.923L86.0419 150.468V143.326L89.6537 134.953L92.0342 127.812L97.8624 117.059L107.056 111.969H115.429L123.638 109.835L125.033 104.335L131.518 102.201L135.376 100.641L140.137 97.8503L142.846 94.3206L145.555 91.4475L146.376 87.3432V83.8135L148.838 82.2538H158.442L159.592 77.9032L162.218 75.1944L163.368 69.7767L162.218 64.441L160.987 57.6278L163.368 51.3892L167.472 44.7402L172.315 38.5016L176.994 33.5764L180.688 28.9796L186.023 25.7782L187.009 20.6888L181.673 18.2262Z" fill="#356740"/>
</g>
<g filter="url(#filter3_d)">
<path d="M39.0883 182.644L37.0361 185.107L35.1481 189.868L38.2674 192.987H44.3418L49.6775 194.3H55.1773L61.2517 196.024L67.4082 194.3L69.9529 190.935V188.062L72.0871 185.107L75.2064 184.532L81.2809 182.644L89.7358 181.084L99.6683 179.361H103.608V177.473L101.146 173.204L92.3626 166.966L88.0941 164.257L84.5643 161.302L82.8405 150.138V146.033L84.5643 134.788L89.0791 127.318L92.3626 121.49L95.0714 115.005L101.146 110.079L105.168 107.699H116.332L121.257 104.169L125.936 99.3261L135.13 97.0277L140.547 90.2966L141.368 84.3042L144.323 80.7745L149.002 78.7223L154.913 78.0656L157.457 75.4389L159.263 66.9839L158.36 62.305V55.8201L160.084 51.7158L161.726 48.1861L164.106 43.343L161.972 40.552H156.308L151.629 44.5743L143.503 48.7607H138.413H132.093L133.734 54.9993L132.093 63.6184L129.876 70.7599L123.884 71.5808L113.541 73.4688L107.138 72.5658L99.8325 71.5808L92.3626 70.7599L89.0791 71.5808L79.557 66.9839L76.3557 71.5808L70.6096 79.7895L62.8113 88.6548L58.2145 92.5129H55.1773L52.2222 95.7964L50.2521 99.3261L44.3418 102.281L41.3867 103.02H35.8869L34.4914 106.632L33.9168 108.191L31.208 110.982L29.6483 114.266H24.8052L22.5889 117.714V122.392L25.8723 126.168L29.6483 129.452L34.4914 130.601H40.4838L44.3418 131.586L45.3269 136.84L45.9836 140.862L44.3418 147.183L46.9686 151.205V158.018L45.3269 165.242L48.3641 168.033L52.2222 172.465L55.1773 176.652L58.2145 178.047L60.6771 179.361L62.8113 181.084L65.2739 182.644L67.4082 183.875V185.107H64.371H59.0354L55.9161 184.532H52.2222H48.3641H44.3418L41.3867 183.875L39.0883 182.644Z" fill="#539882"/>
<path d="M165.256 38.8282L163.203 37.1865L161.972 34.4776L163.203 31.5225L168.867 29.6345L171.822 29.7166L173.3 31.5225V33.3284L170.673 36.0373L168.539 38.2536L165.256 38.8282Z" fill="#539882"/>
<path d="M177.733 26.1869L174.778 25.0376V22.3288L176.994 18.4707L179.21 19.1274L180.359 21.1796L184.053 21.9183V23.7243L181.345 25.4481L177.733 26.1869Z" fill="#539882"/>
</g>
<g filter="url(#filter4_d)">
<path d="M38.3494 189.54L39.9911 185.271L40.9761 184.451L42.2895 185.6H44.9163H49.1027L51.8116 186.503H56.0801L59.2815 186.831L61.9903 187.159H64.6992L66.5051 186.174L68.6393 187.488L68.0647 189.868V191.346L66.9155 192.413L64.9454 193.316L63.7141 193.973H61.2515H59.6919L57.2293 193.316L55.5055 192.413H53.125H50.5803H47.6251L45.9834 192.085L44.1775 191.346L41.9612 190.689H40.3194H39.3344L38.3494 189.54Z" fill="#A2896D"/>
<path d="M71.0199 183.876L69.296 183.548V182.152L65.9305 180.675L63.2216 178.622L61.4157 177.145L57.8039 174.436L54.7667 171.973L54.3563 169.675L49.7594 165.653L47.8714 163.601L49.2669 160.645L48.7744 154.161L47.8714 149.892V148.415L46.9685 144.721L48.7744 139.139V134.952L54.3563 132.9L57.2293 134.952L61.9903 137.004L64.9454 141.109L77.4226 144.721H81.1165L81.2807 147.347L80.4598 151.041L81.2807 153.34L82.0195 158.265L82.512 161.959L83.2508 164.832L88.176 166.474L92.8549 169.675L94.2504 171.481L96.4667 173.369L99.9144 174.436L101.474 175.831V178.212L99.9144 178.622H98.1085H94.2504H91.8699H89.4073L84.3179 180.264L80.4598 181.331L78.736 181.66L74.8779 182.727L72.4153 183.548L71.0199 183.876Z" fill="#A2896D"/>
<path d="M89.4073 123.706L84.8104 129.945H77.4226L73.5645 131.094L70.1169 132.9L64.6992 131.094L61.9903 127.318L59.9382 121.736L54.3563 119.93L46.9685 123.706L38.3494 119.93L36.2972 117.796L32.357 112.707L35.0659 110.244L36.2972 107.125L36.8718 104.744H38.5135L41.3045 105.155H43.4387L47.8714 102.856L49.6773 100.886L53.2891 99.7371V97.8491L54.5204 94.8119H56.4905L59.9382 93.6627L63.7141 91.0359L66.5872 87.9987L70.1169 84.9615L73.5645 79.7901L75.3704 78.1483L77.4226 72.8948L81.1165 70.1038L82.512 72.4023L88.8327 74.044L92.3624 74.947H99.5039H103.198H111.653L116.332 76.6708L121.585 75.8499L126.921 74.947L132.257 72.8948L134.145 67.9696L134.883 63.2086L135.622 59.0221V54.9999L134.883 51.3881H138.906H145.144L148.428 48.6792L152.368 46.7091L156.472 45.5599L157.95 47.3658L157.211 51.3881L156.472 56.2312L154.584 64.2757L155.733 71.7456L152.368 76.6708L148.428 75.8499L142.682 78.9692L140.055 80.9393L138.906 84.9615V88.6554L137.018 92.1031L131.682 94.894L127.742 96.8641L123.802 97.8491L121.175 100.23L118.794 102.856L116.332 105.155L113.623 105.647H109.601H105.168H102.705L98.7652 109.423L94.825 112.707L92.8549 114.431L91.2132 119.93L89.4073 123.706Z" fill="#A2896D"/>
<path d="M163.942 35.4633L164.517 32.4261L166.076 31.8515L167.308 31.1127H169.934L170.755 31.8515V33.6574L169.36 34.4782L167.308 36.6125H165.255L163.942 35.4633Z" fill="#A2896D"/>
<path d="M177.897 24.5457H175.927V22.904L177.076 20.4414H178.307L179.046 21.4264L180.606 22.1652L181.673 23.5607L180.277 24.5457H177.897Z" fill="#A2896D"/>
</g>
<g filter="url(#filter5_d)">
<path d="M77.9152 80.6918L80.1315 77.2441H87.0268L96.1384 78.3113L103.034 79.6247H113.869H124.951H131.846L134.555 84.8782L132.749 89.8034L127.824 92.4302L121.585 95.7957L113.869 101.378L110.75 102.198L104.922 99.6538L99.8323 101.378L96.1384 105.4L90.2282 110.736L87.0268 116.728L85.7134 121.325L81.9374 124.362L75.1242 125.922H68.7215L65.6022 119.355L62.4008 114.594L55.4234 112.624L49.349 119.355L43.0283 117.385L41.2224 112.624L45.3268 107.124L52.3041 104.004L59.9382 98.4225L67.1618 94.7286L69.5424 89.8034L75.1242 84.8782L77.9152 80.6918Z" fill="#FFBD3A"/>
<path d="M144.241 75.5203H135.868L136.689 71.4981V68.0504L137.838 62.879V57.7896V53.3569L144.241 52.7002L152.532 51.2227V54.8345V60.4164L148.099 71.4981L144.241 75.5203Z" fill="#FFBD3A"/>
<path d="M86.8626 176.405L76.1093 177.062L70.199 178.211L64.0425 173.614L59.1173 170.741L54.1101 166.226L50.0878 163.681L51.4012 159.577V157.279L50.0878 152.271V147.182V138.235L52.3041 136.1L55.4234 141.436L59.9382 145.951L64.0425 152.271L70.199 154.652L78.3256 155.555L79.0644 162.614L83.6613 170.084L89.1611 172.547L92.1162 175.174L86.8626 176.405Z" fill="#FFBD3A"/>
<path d="M42.2075 188.472L42.6179 186.912L46.3118 187.569H48.1998V188.882V190.195L45.491 189.785L43.5209 189.21L42.2075 188.472Z" fill="#FFBD3A"/>
</g>
<defs>
<filter id="filter0_d" x="0" y="0" width="205.255" height="224" filterUnits="userSpaceOnUse" color-interpolation-filters="sRGB">
<feFlood flood-opacity="0" result="BackgroundImageFix"/>
<feColorMatrix in="SourceAlpha" type="matrix" values="0 0 0 0 0 0 0 0 0 0 0 0 0 0 0 0 0 0 127 0"/>
<feOffset dx="3" dy="6"/>
<feGaussianBlur stdDeviation="2"/>
<feColorMatrix type="matrix" values="0 0 0 0 0 0 0 0 0 0 0 0 0 0 0 0 0 0 0.25 0"/>
<feBlend mode="normal" in2="BackgroundImageFix" result="effect1_dropShadow"/>
<feBlend mode="normal" in="SourceGraphic" in2="effect1_dropShadow" result="shape"/>
</filter>
<filter id="filter1_d" x="4.51486" y="9.93164" width="195.076" height="204.628" filterUnits="userSpaceOnUse" color-interpolation-filters="sRGB">
<feFlood flood-opacity="0" result="BackgroundImageFix"/>
<feColorMatrix in="SourceAlpha" type="matrix" values="0 0 0 0 0 0 0 0 0 0 0 0 0 0 0 0 0 0 127 0"/>
<feOffset dx="3" dy="6"/>
<feGaussianBlur stdDeviation="2"/>
<feColorMatrix type="matrix" values="0 0 0 0 0 0 0 0 0 0 0 0 0 0 0 0 0 0 0.25 0"/>
<feBlend mode="normal" in2="BackgroundImageFix" result="effect1_dropShadow"/>
<feBlend mode="normal" in="SourceGraphic" in2="effect1_dropShadow" result="shape"/>
</filter>
<filter id="filter2_d" x="8.78336" y="15.8457" width="185.225" height="194.285" filterUnits="userSpaceOnUse" color-interpolation-filters="sRGB">
<feFlood flood-opacity="0" result="BackgroundImageFix"/>
<feColorMatrix in="SourceAlpha" type="matrix" values="0 0 0 0 0 0 0 0 0 0 0 0 0 0 0 0 0 0 127 0"/>
<feOffset dx="3" dy="6"/>
<feGaussianBlur stdDeviation="2"/>
<feColorMatrix type="matrix" values="0 0 0 0 0 0 0 0 0 0 0 0 0 0 0 0 0 0 0.25 0"/>
<feBlend mode="normal" in2="BackgroundImageFix" result="effect1_dropShadow"/>
<feBlend mode="normal" in="SourceGraphic" in2="effect1_dropShadow" result="shape"/>
</filter>
<filter id="filter3_d" x="21.5889" y="18.4707" width="169.465" height="187.554" filterUnits="userSpaceOnUse" color-interpolation-filters="sRGB">
<feFlood flood-opacity="0" result="BackgroundImageFix"/>
<feColorMatrix in="SourceAlpha" type="matrix" values="0 0 0 0 0 0 0 0 0 0 0 0 0 0 0 0 0 0 127 0"/>
<feOffset dx="3" dy="6"/>
<feGaussianBlur stdDeviation="2"/>
<feColorMatrix type="matrix" values="0 0 0 0 0 0 0 0 0 0 0 0 0 0 0 0 0 0 0.25 0"/>
<feBlend mode="normal" in2="BackgroundImageFix" result="effect1_dropShadow"/>
<feBlend mode="normal" in="SourceGraphic" in2="effect1_dropShadow" result="shape"/>
</filter>
<filter id="filter4_d" x="31.357" y="20.4414" width="157.316" height="183.531" filterUnits="userSpaceOnUse" color-interpolation-filters="sRGB">
<feFlood flood-opacity="0" result="BackgroundImageFix"/>
<feColorMatrix in="SourceAlpha" type="matrix" values="0 0 0 0 0 0 0 0 0 0 0 0 0 0 0 0 0 0 127 0"/>
<feOffset dx="3" dy="6"/>
<feGaussianBlur stdDeviation="2"/>
<feColorMatrix type="matrix" values="0 0 0 0 0 0 0 0 0 0 0 0 0 0 0 0 0 0 0.25 0"/>
<feBlend mode="normal" in2="BackgroundImageFix" result="effect1_dropShadow"/>
<feBlend mode="normal" in="SourceGraphic" in2="effect1_dropShadow" result="shape"/>
</filter>
<filter id="filter5_d" x="40.2224" y="51.2227" width="119.31" height="148.973" filterUnits="userSpaceOnUse" color-interpolation-filters="sRGB">
<feFlood flood-opacity="0" result="BackgroundImageFix"/>
<feColorMatrix in="SourceAlpha" type="matrix" values="0 0 0 0 0 0 0 0 0 0 0 0 0 0 0 0 0 0 127 0"/>
<feOffset dx="3" dy="6"/>
<feGaussianBlur stdDeviation="2"/>
<feColorMatrix type="matrix" values="0 0 0 0 0 0 0 0 0 0 0 0 0 0 0 0 0 0 0.25 0"/>
<feBlend mode="normal" in2="BackgroundImageFix" result="effect1_dropShadow"/>
<feBlend mode="normal" in="SourceGraphic" in2="effect1_dropShadow" result="shape"/>
</filter>
</defs>
</svg>
