<svg fill="none" height="274" viewBox="0 0 139 274" width="139" xmlns="http://www.w3.org/2000/svg" xmlns:xlink="http://www.w3.org/1999/xlink"><filter id="a" color-interpolation-filters="sRGB" filterUnits="userSpaceOnUse" height="273.537" width="138.267" x=".712219" y=".090576"><feFlood flood-opacity="0" result="BackgroundImageFix"/><feColorMatrix in="SourceAlpha" type="matrix" values="0 0 0 0 0 0 0 0 0 0 0 0 0 0 0 0 0 0 127 0"/><feOffset dy="4"/><feGaussianBlur stdDeviation="2"/><feColorMatrix type="matrix" values="0 0 0 0 0 0 0 0 0 0 0 0 0 0 0 0 0 0 0.25 0"/><feBlend in2="BackgroundImageFix" mode="normal" result="effect1_dropShadow"/><feBlend in="SourceGraphic" in2="effect1_dropShadow" mode="normal" result="shape"/></filter><filter id="b" color-interpolation-filters="sRGB" filterUnits="userSpaceOnUse" height="260.342" width="124.297" x="9.91162" y="8.65433"><feFlood flood-opacity="0" result="BackgroundImageFix"/><feColorMatrix in="SourceAlpha" type="matrix" values="0 0 0 0 0 0 0 0 0 0 0 0 0 0 0 0 0 0 127 0"/><feOffset dy="4"/><feGaussianBlur stdDeviation="2"/><feColorMatrix type="matrix" values="0 0 0 0 0 0 0 0 0 0 0 0 0 0 0 0 0 0 0.25 0"/><feBlend in2="BackgroundImageFix" mode="normal" result="effect1_dropShadow"/><feBlend in="SourceGraphic" in2="effect1_dropShadow" mode="normal" result="shape"/></filter><filter id="c" color-interpolation-filters="sRGB" filterUnits="userSpaceOnUse" height="250.59" width="115.764" x="16.0073" y="13.7745"><feFlood flood-opacity="0" result="BackgroundImageFix"/><feColorMatrix in="SourceAlpha" type="matrix" values="0 0 0 0 0 0 0 0 0 0 0 0 0 0 0 0 0 0 127 0"/><feOffset dy="4"/><feGaussianBlur stdDeviation="2"/><feColorMatrix type="matrix" values="0 0 0 0 0 0 0 0 0 0 0 0 0 0 0 0 0 0 0.25 0"/><feBlend in2="BackgroundImageFix" mode="normal" result="effect1_dropShadow"/><feBlend in="SourceGraphic" in2="effect1_dropShadow" mode="normal" result="shape"/></filter><filter id="d" color-interpolation-filters="sRGB" filterUnits="userSpaceOnUse" height="240.594" width="110.644" x="19.1766" y="18.6519"><feFlood flood-opacity="0" result="BackgroundImageFix"/><feColorMatrix in="SourceAlpha" type="matrix" values="0 0 0 0 0 0 0 0 0 0 0 0 0 0 0 0 0 0 127 0"/><feOffset dy="4"/><feGaussianBlur stdDeviation="2"/><feColorMatrix type="matrix" values="0 0 0 0 0 0 0 0 0 0 0 0 0 0 0 0 0 0 0.25 0"/><feBlend in2="BackgroundImageFix" mode="normal" result="effect1_dropShadow"/><feBlend in="SourceGraphic" in2="effect1_dropShadow" mode="normal" result="shape"/></filter><filter id="e" color-interpolation-filters="sRGB" filterUnits="userSpaceOnUse" height="233.767" width="101.379" x="24.5409" y="22.3084"><feFlood flood-opacity="0" result="BackgroundImageFix"/><feColorMatrix in="SourceAlpha" type="matrix" values="0 0 0 0 0 0 0 0 0 0 0 0 0 0 0 0 0 0 127 0"/><feOffset dy="4"/><feGaussianBlur stdDeviation="2"/><feColorMatrix type="matrix" values="0 0 0 0 0 0 0 0 0 0 0 0 0 0 0 0 0 0 0.25 0"/><feBlend in2="BackgroundImageFix" mode="normal" result="effect1_dropShadow"/><feBlend in="SourceGraphic" in2="effect1_dropShadow" mode="normal" result="shape"/></filter><filter id="f" color-interpolation-filters="sRGB" filterUnits="userSpaceOnUse" height="222.064" width="69.6836" x="53.798" y="25.4767"><feFlood flood-opacity="0" result="BackgroundImageFix"/><feColorMatrix in="SourceAlpha" type="matrix" values="0 0 0 0 0 0 0 0 0 0 0 0 0 0 0 0 0 0 127 0"/><feOffset dy="4"/><feGaussianBlur stdDeviation="2"/><feColorMatrix type="matrix" values="0 0 0 0 0 0 0 0 0 0 0 0 0 0 0 0 0 0 0.25 0"/><feBlend in2="BackgroundImageFix" mode="normal" result="effect1_dropShadow"/><feBlend in="SourceGraphic" in2="effect1_dropShadow" mode="normal" result="shape"/></filter><g filter="url(#a)"><path d="m78.7651 11.5805 5.1199-.7314-2.6818 4.8762v2.4381l2.1942 1.9504v3.4134l.9753 3.1695 7.3142 3.9009 5.12 2.6819 6.8271-.4876-2.195 2.4381-5.1197 1.7066-1.7067 4.1448h-10.2399v6.339l-2.1943.7315-.9752 4.6323-1.7067 2.9257-6.0952 3.4134-2.6819 1.219-2.9257 5.12-.9753 7.0704-2.4381 4.8762.4877 4.8762 4.1447 6.5828 5.8514 4.1448 3.4134 4.6324 2.9257 7.5579 8.2895 7.314 1.7066 3.17 4.8762 4.632 5.6075 4.145 2.682 4.145 5.12 2.194 2.194 2.682 3.17 4.876 5.12 4.876 1.95 4.876 3.414 5.608 2.194 9.021 1.219 1.95v8.29l-.488 8.777 4.145 4.632-4.145 5.608v5.364l-2.438 9.508-2.194 5.12-2.926 4.145-7.314 2.926-6.339 3.901-3.413 3.657-3.17 1.463-5.3637.975-2.9257-.488-.7315-4.144-4.1447.975-1.4629-.975-.7314 5.363-1.2191 5.608-.9752 2.438h-3.4133v3.413l.4876 3.414-2.1943-.488-1.7066 1.463-2.4381 3.657-8.0457 2.438-4.1448.976-2.4381 7.07-4.6323 2.194.9752-3.657h-2.1943v-3.169l1.2191-12.678 4.6323-1.22-1.9504-5.851-4.6324-3.657h-3.1695v-1.951h3.1695l2.9257-1.219 2.6819-1.95-.9752-3.657 4.3885 2.438 1.4629-2.438 2.6819-.975h3.4133l1.4629 2.438h2.1942l1.9505.975h2.6819v-3.901l.4876-3.901-3.6571-2.194-1.9505-3.414 2.4381-3.413 2.6819 2.682 4.6324-2.682v-2.438-2.194l3.9009.731 1.4629-2.194h4.1447l4.3886-4.389 1.219 2.438 4.6323-.975.488-7.558-.488-7.314 2.682-8.533-3.413-8.046-.732-6.827 1.951-9.265 1.219-3.901-.732-7.314-2.9254-1.219-1.7066-3.657 1.7066-2.438.4874-3.901h-2.194l-1.9505-2.682-5.6076-3.413-2.1943-3.17-2.6819.976-1.9505-1.707v-5.608l-2.9257-2.438-1.9504-4.145h-2.9257l-5.12-5.851-2.9257-4.3886-2.9257-6.0952-3.1696-.9752-1.4628-2.4381-1.7067-6.8266h-6.8266l-3.6572-3.4134-9.0209-4.8762 2.6819-1.9504v-4.1448l6.339 2.4381 3.6572-2.4381 2.4381-3.4133 2.4381-4.8762-6.8267-3.1695 1.9505-2.1943-3.6572-1.7066 1.7067-2.9257-4.8762-5.6076-6.8266-.7315-4.8762 2.9257-3.4133 1.2191-6.5829-3.4133-3.1695-5.6077.9753-8.2894h-2.1943l-3.4133-2.4381-1.2191 2.4381-2.1943-4.8762-4.38852-6.0952 5.36382-3.4134 8.0457 4.6324 4.3885-6.339 3.1695 5.12 3.4134-3.4134 6.0952 3.4134 1.9505-5.12 4.8761 1.7066 3.1695-2.6819 2.6819.9753 3.4134-3.65717v-3.41332l6.8266-2.92571 3.1695 4.38856h3.4134l2.6819 1.95047h5.1199z" fill="#f3e8cb"/><path d="m78.7651 11.5805 5.1199-.7314-2.6818 4.8762v2.4381l2.1942 1.9504v3.4134l.9753 3.1695 7.3142 3.9009 5.12 2.6819 6.8271-.4876-2.195 2.4381-5.1197 1.7066-1.7067 4.1448h-10.2399v6.339l-2.1943.7315-.9752 4.6323-1.7067 2.9257-6.0952 3.4134-2.6819 1.219-2.9257 5.12-.9753 7.0704-2.4381 4.8762.4877 4.8762 4.1447 6.5828 5.8514 4.1448 3.4134 4.6324 2.9257 7.5579 8.2895 7.314 1.7066 3.17 4.8762 4.632 5.6075 4.145 2.682 4.145 5.12 2.194 2.194 2.682 3.17 4.876 5.12 4.876 1.95 4.876 3.414 5.608 2.194 9.021 1.219 1.95v8.29l-.488 8.777 4.145 4.632-4.145 5.608v5.364l-2.438 9.508-2.194 5.12-2.926 4.145-7.314 2.926-6.339 3.901-3.413 3.657-3.17 1.463-5.3637.975-2.9257-.488-.7315-4.144-4.1447.975-1.4629-.975-.7314 5.363-1.2191 5.608-.9752 2.438h-3.4133v3.413l.4876 3.414-2.1943-.488-1.7066 1.463-2.4381 3.657-8.0457 2.438-4.1448.976-2.4381 7.07-4.6323 2.194.9752-3.657h-2.1943v-3.169l1.2191-12.678 4.6323-1.22-1.9504-5.851-4.6324-3.657h-3.1695v-1.951h3.1695l2.9257-1.219 2.6819-1.95-.9752-3.657 4.3885 2.438 1.4629-2.438 2.6819-.975h3.4133l1.4629 2.438h2.1942l1.9505.975h2.6819v-3.901l.4876-3.901-3.6571-2.194-1.9505-3.414 2.4381-3.413 2.6819 2.682 4.6324-2.682v-2.438-2.194l3.9009.731 1.4629-2.194h4.1447l4.3886-4.389 1.219 2.438 4.6323-.975.488-7.558-.488-7.314 2.682-8.533-3.413-8.046-.732-6.827 1.951-9.265 1.219-3.901-.732-7.314-2.9254-1.219-1.7066-3.657 1.7066-2.438.4874-3.901h-2.194l-1.9505-2.682-5.6076-3.413-2.1943-3.17-2.6819.976-1.9505-1.707v-5.608l-2.9257-2.438-1.9504-4.145h-2.9257l-5.12-5.851-2.9257-4.3886-2.9257-6.0952-3.1696-.9752-1.4628-2.4381-1.7067-6.8266h-6.8266l-3.6572-3.4134-9.0209-4.8762 2.6819-1.9504v-4.1448l6.339 2.4381 3.6572-2.4381 2.4381-3.4133 2.4381-4.8762-6.8267-3.1695 1.9505-2.1943-3.6572-1.7066 1.7067-2.9257-4.8762-5.6076-6.8266-.7315-4.8762 2.9257-3.4133 1.2191-6.5829-3.4133-3.1695-5.6077.9753-8.2894h-2.1943l-3.4133-2.4381-1.2191 2.4381-2.1943-4.8762-4.38852-6.0952 5.36382-3.4134 8.0457 4.6324 4.3885-6.339 3.1695 5.12 3.4134-3.4134 6.0952 3.4134 1.9505-5.12 4.8761 1.7066 3.1695-2.6819 2.6819.9753 3.4134-3.65717v-3.41332l6.8266-2.92571 3.1695 4.38856h3.4134l2.6819 1.95047h5.1199z" stroke="#f3e8cb" stroke-width="4"/></g><g fill="#c1dd9b" filter="url(#b)"><path d="m57.3096 11.3362 5.8514-2.68187 4.6324.73142 7.0704 3.65715 7.8019-1.7067-2.4381 7.5581-.7314 8.0457 9.7524 5.12 3.1695 7.0704-9.7524 1.2191-4.1447 11.2152-9.2648 6.8266-5.12 15.1162-.7314 4.8762 1.9505 6.0952.7314 4.1447-3.4133.4876-1.7067-4.3885-1.7066-3.901-5.8514-1.4628-10.24-7.8019 6.0952-2.9257 9.2647-5.8514-1.4628-8.7771-3.6571-6.8267-3.4134-6.8266-12.4342-1.4629-8.0457 1.7067-2.9257-6.8267-12.6781-9.9961v-5.8514l12.9219 1.219 8.2895 2.6819 4.6324-2.4381 6.0952-.9752 6.339-2.4381z"/><path d="m69.9877 98.1322-2.6819-5.6076 2.438-2.4381 3.1696 3.1695 5.1199 6.339 3.1696 5.851 6.5828 5.364 3.4133 5.12 4.3886 5.12 5.8514 3.414 1.219 2.925-3.6571 1.707-2.6819-2.194-2.6819-1.951-3.4133-4.632-3.6571.244-1.9505-1.463-.7314-6.339-2.6819-1.219-.9753-3.414-2.1943-.975-2.6818-1.707-1.7067-3.657z"/><path d="m104.365 129.096-2.926 1.707-.975 5.12 2.438 2.925 1.707 4.145.487 3.901-2.194 9.508-.488 9.753 4.389 6.095-1.707 9.509-1.707 5.851 2.926 9.265-5.12 4.144-3.1693.488-1.9505-1.219-1.9505 2.682-4.3885.731-1.2191 1.463h-6.0952l1.2191 2.926-3.6572 3.413h-3.6571l-2.1943-1.463.2438 4.389 3.4133 1.463v5.851 4.145l-2.9257.488-3.9009-1.219-1.4629-1.951h-4.6323l-1.7067 1.463-2.6819.488-2.9257-1.707.4876 2.682-1.7066 2.438-3.1696 1.463-2.6819.244-.7314.975h3.6572l5.3637 4.145.7315 6.582-4.6324 1.219-.7314 13.41h1.7066l-.4876 4.388 2.9257-1.219 1.2191-5.851 3.6571-2.438 9.2647-3.901 3.901-3.901h2.1943v-6.095l3.9009-.732 1.2191-8.289 2.9257-5.12 4.1447-1.219 1.7067 3.657 4.1447 2.194 6.8262-2.194 4.633-5.851 9.508-3.658 4.633-3.413 2.438-7.558 2.194-8.533 1.463-6.583 1.95-3.901-2.925-6.827-.488-13.897-2.194-4.876-.488-7.558-4.876-10.24-6.339-5.851-4.145-6.096z"/></g><g fill="#539882" filter="url(#c)"><path d="m31.9539 25.4773-9.2647-4.6324-2.6819 4.6324 10.9714 10.7276h6.339 12.6781l6.8266 4.6324 2.4381 8.5333 1.7067 11.459-1.7067 4.8762-10.24 5.12 7.0705 6.5828 3.9009.4876 1.9505-7.0704 6.5828-16.8228 9.2648-8.0457 2.9257-7.0705 3.4133-.7314 1.4629-1.9505-6.3391-4.1447-2.6819-6.5829 1.2191-9.9961-4.1448.9752-9.9961-2.6819-6.8267 3.1695-3.9009 5.3638-8.2895 3.1695z"/><path d="m63.1614 86.1857-1.7066-4.8762.4876-1.9504 2.1943 3.6571.7314 4.3886z"/><path d="m70.7195 96.9133-1.9505-3.6571.9753-.9753 2.9257 1.9505 2.1943 3.901 3.1695 3.6566.9752 2.926-2.4381-.975-3.1695-4.3886z"/><path d="m82.6661 111.298-1.219-3.169-.9752-1.707 1.7066.731 3.4134 3.17 2.1942 2.438 3.1695 4.876-1.4628 1.951h-2.1943l-1.4628-2.682-.7315-4.877z"/><path d="m92.6623 119.344-1.219 1.219 2.6819 3.901 2.9257 1.706 2.4381 2.195 1.95-1.951-1.7062-2.194-4.8762-2.682z"/><path d="m101.683 134.947.732-3.9h2.438l2.925 1.462 2.439 4.633 4.632 4.388 3.901 5.364 2.438 6.339v6.339l4.145 7.071v8.777 6.095l2.438 4.632-4.389 13.897-4.632 8.046-7.071 7.558-6.826 2.195-5.364 6.095-6.8267-2.438-3.9009-1.463-5.12 2.925-3.1695.976-1.4629-9.509 3.6571-1.706 3.1696-3.901 5.1199-3.414h3.1696l2.9257-2.438 2.4381.975 7.07-3.169 2.438-4.145-3.413-9.021 3.413-9.996v-4.389l-3.9-5.363-.976-5.364.976-5.12 1.219-5.364.243-5.12-1.706-6.095-1.463-3.657z"/><path d="m59.7481 228.814-3.4133 1.707-.7314.731 2.1942.975 2.4381 2.195.2438 2.681.9753 4.877-2.1943 1.706-2.9257.488-.7314 2.926v6.339l.7314 2.438 1.4628.487.2438-3.169 1.4629-.975 4.3886-2.926 6.0952-2.438 4.1447-3.657 2.1943-1.951-.2438-4.876 2.4381-1.95 2.6819-3.658-.7314-3.901-4.3886.732-5.12-.732-4.6324-2.438-3.1695 1.707-3.4133.244z"/></g><g fill="#356740" filter="url(#d)"><path d="m46.8261 32.549-13.6533 1.9505-9.9962-8.0457 1.9505-1.2191 7.0705 1.9505 15.1161.9752 11.2152-5.12 6.8267-3.6571 8.5333-.7314 1.4628 8.5333 1.4629 8.0457v8.0457l-9.7524 5.8514-2.9257 6.5828-1.9504-5.6076v-8.2895l-5.8515-7.3142z"/><path d="m60.7232 66.926-5.6076 3.901.4876 3.4133 3.4133.9752 2.6819-6.5828.4877-4.3886z"/><path d="m88.2736 118.37-1.4629-3.901 1.4629.731.9752 1.707z"/><path d="m97.7821 125.44-4.3885-3.413 6.0952 3.413z"/><path d="m105.828 138.362-1.707-4.145v-1.706l3.657 2.194 1.951 4.388 3.413 4.145 3.413 3.901 2.439 6.339.487 9.509 4.389 4.388-1.219 8.534.731 6.582 2.438 3.658-.731 2.925-3.414 8.046-3.413 7.802-3.413 3.657-5.608 5.12-4.632 1.707-2.194-.732-1.707 5.608-2.1944 1.463-3.4133-2.926-4.8762-2.194-4.8762 2.194-4.1448 1.463v-5.364l4.6324-1.95 4.3886-4.389 4.1447-.975 2.6819-2.682 5.1203.487 6.339-2.438 2.194-3.657-.731-5.851-2.195-6.095 3.414-7.071v-8.046l-2.195-4.388-2.438-7.314 1.951-10.728-.732-5.608z"/><path d="m64.1365 228.084 2.4381-2.195 1.7067 3.17 9.0209 1.707-1.4629 2.194-2.1942 5.12-1.4629 5.607-4.3885 3.414-4.6324.487-4.6324 3.17-1.7066.488v-.976l.9752-5.12 3.6571-.731 1.2191-2.926v-6.583l-2.9257-3.413-1.2191-.731 2.4381-.732.9752-2.682z"/></g><g fill="#a2896d" filter="url(#e)"><path d="m34.3923 32.5484-5.8514-4.6324 15.8476 2.1943-4.3886 2.4381z"/><path d="m65.356 23.0398-16.0914 6.0952 1.7067 1.9505 10.7276.9752 1.4629 5.8514 6.339 5.8515 5.6076-5.12-2.1943-9.5086-.7314-6.8266z"/><path d="m110.704 154.453-1.706-12.191 5.12 6.096 3.169 7.801v7.315l4.633 5.12-2.682 12.19 1.95 6.095-.487 7.315-6.096 10.24h-3.169l1.707-5.608-1.707-10.24 3.169-7.802-1.462-12.19z"/><path d="m83.8855 217.599v-2.438l4.3886-2.438 6.0952-2.438 3.1695-3.901 2.4381.975 3.9011-1.463 4.876-.975 2.682 2.438-4.145 5.12h-2.438l-3.901 1.463-2.6818 4.145-6.0952-2.926h-3.6571z"/><path d="m64.6246 233.934-2.1943-2.438 3.4133-1.95.7315 1.95h6.8266v3.414l-3.4133 6.826-4.1448 3.657h-2.438l1.9504-5.607z"/><path d="m59.7484 248.075-.4876-1.219 2.4381-1.463-.2438 2.439z"/></g><g fill="#ffbd3a" filter="url(#f)"><path d="m71.9389 34.9853-2.438-9.5086h-5.6076l-6.0953 2.1943 8.0457 2.9257v4.8762l4.1448 5.12z"/><path d="m114.118 190.292 1.707-4.633 2.438 4.633-.732 6.339h-3.413z"/><path d="m116.556 176.151-1.219-9.509 2.682-.488 1.463 4.633z"/><path d="m115.337 155.671-3.413-7.558.731 6.826 1.463 3.657 1.219 1.951z"/><path d="m106.804 210.04v-2.926l-3.901.488-4.6327 2.438-2.4381.975-1.219 3.17 3.6571.975 2.1947-3.17 1.95-1.95z"/><path d="m67.5504 239.541-.9752-4.632.2438-1.951 2.9257-.244 1.7066 1.463-1.7066 3.413z"/></g></svg>