<svg width="280" height="176" viewBox="0 0 280 176" fill="none" xmlns="http://www.w3.org/2000/svg">
<rect width="280" height="176" fill="#89CDD3"/>
<mask id="mask0" mask-type="alpha" maskUnits="userSpaceOnUse" x="0" y="0" width="280" height="176">
<rect width="280" height="176" fill="#89CDD3"/>
</mask>
<g mask="url(#mask0)">
<g filter="url(#filter0_d)">
<path d="M98.4503 96.1915L68.9629 175.893H357.883L330.096 118.081L312.801 59.1472L305.146 92.2626L283.314 25.4706L259.497 59.1472L234.83 12L190.031 92.2626L172.452 64.1987L159.977 96.1915L137.294 45.6766L113.194 126.5L98.4503 96.1915Z" fill="#B2DDA5"/>
</g>
<path d="M267.808 52.4144L282.581 31.0859L277.482 60.8336L267.808 52.4144Z" fill="white" fill-opacity="0.3"/>
<path d="M240.354 47.0803L235.125 17.6133L242.968 32.7678L240.354 47.0803Z" fill="white" fill-opacity="0.3"/>
<path d="M176.005 84.1627L173.415 67.209L183.731 84.3776L176.005 84.1627Z" fill="white" fill-opacity="0.3"/>
<path d="M138.121 71.495L128.708 81.8786L137.336 51.2891L138.121 71.495Z" fill="white" fill-opacity="0.3"/>
<path d="M158.515 99.2798L150.932 92.5445V81.5996L158.515 99.2798Z" fill="white" fill-opacity="0.3"/>
<path d="M105.96 117.522L100.469 123.135L98.5083 102.648L105.96 117.522Z" fill="white" fill-opacity="0.3"/>
<g filter="url(#filter1_d)">
<path d="M188.068 85.2727L135.375 152.451L143.182 173.08L265.481 165.146L292.093 152.451L256.696 31.084L211.724 137.727L188.068 85.2727Z" fill="#35675B"/>
</g>
<path d="M243.622 67.0014L255.911 38.0957L254.211 57.7404L243.622 67.0014Z" fill="black" fill-opacity="0.2"/>
<path d="M171.235 109.996L188.165 88.3887L180.412 108.12L171.235 109.996Z" fill="black" fill-opacity="0.2"/>
<path d="M274.737 125.657L271.338 89.4551L279.836 117.238L274.737 125.657Z" fill="#2A5249"/>
<g filter="url(#filter2_d)">
<path d="M77.6985 119.91L47 175.98H345.333L311.865 143.184L292.124 100.207L272.669 134.192L252.047 85.5273L208.46 167.516L192.056 126.786L161.592 143.184L133.94 112.504L96.9144 153.234L77.6985 119.91Z" fill="#91D7B9"/>
</g>
<path d="M63.603 152.321L77.7222 126.502V141.095L63.603 152.321Z" fill="white" fill-opacity="0.3"/>
<path d="M112.627 140.535L133.545 116.4L129.623 140.535H112.627Z" fill="white" fill-opacity="0.3"/>
<path d="M254.473 120.889L252.643 93.1055L265.978 125.098L254.473 120.889Z" fill="white" fill-opacity="0.3"/>
<path d="M192.403 149.211L190.791 128.396L200.947 152.262L192.403 149.211Z" fill="white" fill-opacity="0.3"/>
<path fill-rule="evenodd" clip-rule="evenodd" d="M162.557 63.4389H165.388C166.158 63.4389 166.782 64.063 166.782 64.8329C166.782 65.0287 166.742 65.2151 166.669 65.3842H168.936C169.706 65.3842 170.33 66.0083 170.33 66.7782C170.33 67.0415 170.257 67.2878 170.13 67.4979H171.175C172.108 67.4979 172.865 68.2543 172.865 69.1875C172.865 70.1206 172.108 70.8771 171.175 70.8771H141.692C140.758 70.8771 140.002 70.1206 140.002 69.1875C140.002 68.2543 140.758 67.4979 141.692 67.4979H142.736C142.609 67.2878 142.536 67.0415 142.536 66.7782C142.536 66.0083 143.16 65.3842 143.93 65.3842H146.198C146.125 65.2151 146.085 65.0287 146.085 64.8329C146.085 64.063 146.709 63.4389 147.478 63.4389H150.309C150.333 62.6898 150.947 62.0898 151.702 62.0898H161.164C161.919 62.0898 162.534 62.6898 162.557 63.4389Z" fill="#FFF6F0" fill-opacity="0.9"/>
<path fill-rule="evenodd" clip-rule="evenodd" d="M144.742 58.876H147.934C148.802 58.876 149.506 59.58 149.506 60.4483C149.506 60.6679 149.461 60.877 149.38 61.0668H151.936C152.804 61.0668 153.508 61.7708 153.508 62.6391C153.508 62.9355 153.426 63.2127 153.284 63.4493H154.462C155.514 63.4493 156.367 64.3026 156.367 65.3552C156.367 66.4077 155.514 67.261 154.462 67.261H121.205C120.152 67.261 119.299 66.4077 119.299 65.3552C119.299 64.3026 120.152 63.4493 121.205 63.4493H122.382C122.239 63.2127 122.157 62.9355 122.157 62.6391C122.157 61.7708 122.861 61.0668 123.729 61.0668H126.286C126.204 60.877 126.159 60.6679 126.159 60.4483C126.159 59.58 126.863 58.876 127.732 58.876H130.926C130.951 58.0298 131.645 57.3516 132.497 57.3516H143.17C144.022 57.3516 144.716 58.0298 144.742 58.876Z" fill="#FFF1E8" fill-opacity="0.8"/>
<path fill-rule="evenodd" clip-rule="evenodd" d="M255.593 44.2861H260.202C261.455 44.2861 262.471 45.3021 262.471 46.5553C262.471 46.872 262.406 47.1734 262.289 47.4472H265.977C267.23 47.4472 268.246 48.4632 268.246 49.7164C268.246 50.1455 268.127 50.5467 267.92 50.8889H269.622C271.141 50.8889 272.373 52.1204 272.373 53.6395C272.373 55.1586 271.141 56.3901 269.622 56.3901H221.624C220.105 56.3901 218.874 55.1586 218.874 53.6395C218.874 52.1204 220.105 50.8889 221.624 50.8889H223.325C223.118 50.5467 222.999 50.1455 222.999 49.7164C222.999 48.4632 224.015 47.4472 225.268 47.4472H228.958C228.841 47.1734 228.776 46.872 228.776 46.5553C228.776 45.3021 229.792 44.2861 231.045 44.2861H235.653C235.689 43.0648 236.691 42.0859 237.921 42.0859H253.324C254.554 42.0859 255.556 43.0648 255.593 44.2861Z" fill="#FFF6F0" fill-opacity="0.9"/>
<path fill-rule="evenodd" clip-rule="evenodd" d="M249.903 35.8721H253.095C253.964 35.8721 254.668 36.576 254.668 37.4444C254.668 37.664 254.623 37.8731 254.541 38.0629H257.098C257.966 38.0629 258.67 38.7669 258.67 39.6352C258.67 39.9316 258.588 40.2088 258.445 40.4454H259.623C260.676 40.4454 261.529 41.2987 261.529 42.3513C261.529 43.4038 260.676 44.2571 259.623 44.2571H226.366C225.314 44.2571 224.46 43.4038 224.46 42.3513C224.46 41.2987 225.314 40.4454 226.366 40.4454H227.543C227.401 40.2088 227.319 39.9316 227.319 39.6352C227.319 38.7669 228.023 38.0629 228.891 38.0629H231.447C231.366 37.8731 231.321 37.664 231.321 37.4444C231.321 36.576 232.025 35.8721 232.893 35.8721H236.087C236.113 35.0259 236.807 34.3477 237.659 34.3477H248.332C249.184 34.3477 249.878 35.0259 249.903 35.8721Z" fill="#FFF1E8" fill-opacity="0.8"/>
<path fill-rule="evenodd" clip-rule="evenodd" d="M289.837 40.165H294.446C295.699 40.165 296.715 41.181 296.715 42.4342C296.715 42.7509 296.651 43.0523 296.533 43.3261H300.222C301.475 43.3261 302.491 44.3421 302.491 45.5953C302.491 46.0244 302.372 46.4256 302.165 46.7678H303.867C305.386 46.7678 306.617 47.9993 306.617 49.5184C306.617 51.0375 305.386 52.269 303.867 52.269H255.869C254.35 52.269 253.118 51.0375 253.118 49.5184C253.118 47.9993 254.35 46.7678 255.869 46.7678H257.57C257.363 46.4256 257.244 46.0244 257.244 45.5953C257.244 44.3421 258.26 43.3261 259.513 43.3261H263.203C263.085 43.0523 263.021 42.7509 263.021 42.4342C263.021 41.181 264.037 40.165 265.29 40.165H269.897C269.934 38.9437 270.935 37.9648 272.166 37.9648H287.569C288.799 37.9648 289.801 38.9437 289.837 40.165Z" fill="#FFF1E8" fill-opacity="0.8"/>
<g filter="url(#filter3_d)">
<path d="M112.578 77C111.968 75.0909 110.951 72.2955 107.188 71.9545C108.357 71.5455 111.103 71.4773 112.578 73.5909C113.798 71.2727 114.307 70.5909 119.188 68C114.715 70.3744 113.88 72.9624 112.579 76.997L112.578 77Z" fill="black"/>
</g>
<g filter="url(#filter4_d)">
<path d="M117.23 80C116.773 79.3636 116.01 78.4318 113.188 78.3182C114.065 78.1818 116.124 78.1591 117.23 78.8636C118.146 78.0909 118.527 77.8636 122.188 77C118.833 77.7915 118.207 78.6541 117.231 79.999L117.23 80Z" fill="black"/>
</g>
<g filter="url(#filter5_d)">
<path d="M109.883 84C109.578 83.1515 109.069 81.9091 107.188 81.7576C107.773 81.5758 109.146 81.5455 109.883 82.4848C110.493 81.4545 110.747 81.1515 113.188 80C110.951 81.0553 110.534 82.2055 109.883 83.9987L109.883 84Z" fill="black"/>
</g>
<g filter="url(#filter6_d)">
<path d="M212.578 41C211.968 39.9394 210.951 38.3864 207.188 38.197C208.357 37.9697 211.103 37.9318 212.578 39.1061C213.798 37.8182 214.307 37.4394 219.188 36C214.715 37.3191 213.88 38.7569 212.579 40.9983L212.578 41Z" fill="black"/>
</g>
<g filter="url(#filter7_d)">
<path d="M216.781 47C216.374 45.7273 215.696 43.8636 213.188 43.6364C213.968 43.3636 215.798 43.3182 216.781 44.7273C217.595 43.1818 217.934 42.7273 221.188 41C218.206 42.5829 217.649 44.3082 216.782 46.998L216.781 47Z" fill="black"/>
</g>
<g filter="url(#filter8_d)">
<path d="M208.781 49C208.374 48.3636 207.696 47.4318 205.188 47.3182C205.968 47.1818 207.798 47.1591 208.781 47.8636C209.595 47.0909 209.934 46.8636 213.188 46C210.206 46.7915 209.649 47.6541 208.782 48.999L208.781 49Z" fill="black"/>
</g>
</g>
<mask id="mask1" mask-type="alpha" maskUnits="userSpaceOnUse" x="0" y="0" width="280" height="176">
<rect width="280" height="176" fill="#89CDD3"/>
</mask>
<g mask="url(#mask1)">
<g opacity="0.03" filter="url(#filter9_f)">
<path d="M50.1965 176.735C50.1965 180.405 41.498 183.381 30.7679 183.381C20.0378 183.381 11.3394 180.405 11.3394 176.735C11.3394 173.064 20.0378 170.088 30.7679 170.088C41.498 170.088 50.1965 173.064 50.1965 176.735Z" fill="black"/>
</g>
<path d="M19.5187 155.327V136.793C19.5187 136.342 19.2059 135.952 18.7681 135.858L14.0205 134.832C13.4295 134.704 12.8721 135.159 12.8721 135.768V153.959C12.8721 154.387 13.1531 154.762 13.5607 154.88L18.3083 156.247C18.9149 156.421 19.5187 155.962 19.5187 155.327Z" fill="#D1C870"/>
<path d="M31.2784 133.277L19.519 136.558V155.774L31.2784 152.259V133.277Z" fill="#F4E97D"/>
<path fill-rule="evenodd" clip-rule="evenodd" d="M13.3838 137.369L14.231 137.457L14.18 137.936L13.8707 137.903V138.14H13.3838V137.369ZM15.3874 137.577L16.5439 137.698L16.4929 138.176L15.3365 138.056L15.3874 137.577ZM17.7004 137.818L18.4966 137.901V138.585H18.0096V138.334L17.6494 138.296L17.7004 137.818ZM13.3838 140.154V139.147H13.8707V140.154H13.3838ZM18.4966 139.52V140.455H18.0096V139.52H18.4966ZM13.3838 142.168V141.161H13.8707V142.168H13.3838ZM18.4966 141.391V142.326H18.0096V141.391H18.4966ZM13.3838 144.182V143.175H13.8707V144.182H13.3838ZM18.4966 143.261V144.196H18.0096V143.261H18.4966ZM18.4966 145.132V146.067H18.0096V145.132H18.4966ZM13.3838 146.196V145.189H13.8707V146.196H13.3838ZM18.4966 147.002V147.937H18.0096V147.002H18.4966ZM13.3838 148.211V147.203H13.8707V148.211H13.3838ZM18.4966 148.873V149.808H18.0096V148.873H18.4966ZM13.3838 150.225V149.218H13.8707V150.225H13.3838ZM18.4966 150.743V151.679H18.0096V150.743H18.4966ZM13.3838 152.239V151.232H13.8707V152.239H13.3838ZM18.4966 152.614V153.549H18.0096V152.614H18.4966ZM13.3838 153.246H13.8707V153.564L14.2674 153.667L14.1435 154.132L13.3838 153.935V153.246ZM16.4565 154.734L15.3 154.433L15.4239 153.968L16.5804 154.268L16.4565 154.734ZM18.4966 154.484V155.264L17.6129 155.034L17.7368 154.569L18.0096 154.64V154.484H18.4966Z" fill="#F4E97D"/>
<path d="M31.0431 125.607L13.3838 130.355V138.901L31.2785 133.204L31.0431 125.607Z" fill="#539882"/>
<path d="M16.9626 134.557C16.9626 136.957 15.3602 138.903 13.3836 138.903C11.407 138.903 9.80469 136.957 9.80469 134.557C9.80469 132.157 11.407 130.211 13.3836 130.211C15.3602 130.211 16.9626 132.157 16.9626 134.557Z" fill="#35675B"/>
<path fill-rule="evenodd" clip-rule="evenodd" d="M13.3836 137.481C14.7853 137.481 16.0422 136.128 16.0422 134.3C16.0422 132.472 14.7853 131.118 13.3836 131.118C11.9819 131.118 10.7249 132.472 10.7249 134.3C10.7249 136.128 11.9819 137.481 13.3836 137.481ZM13.3836 137.879C15.0778 137.879 16.4513 136.276 16.4513 134.3C16.4513 132.323 15.0778 130.721 13.3836 130.721C11.6894 130.721 10.3159 132.323 10.3159 134.3C10.3159 136.276 11.6894 137.879 13.3836 137.879Z" fill="#539882"/>
<path fill-rule="evenodd" clip-rule="evenodd" d="M13.1279 136.573C14.1792 136.573 15.1219 135.606 15.1219 134.301C15.1219 132.995 14.1792 132.028 13.1279 132.028C12.0766 132.028 11.1339 132.995 11.1339 134.301C11.1339 135.606 12.0766 136.573 13.1279 136.573ZM13.1279 136.857C14.3986 136.857 15.4287 135.712 15.4287 134.301C15.4287 132.889 14.3986 131.744 13.1279 131.744C11.8572 131.744 10.8271 132.889 10.8271 134.301C10.8271 135.712 11.8572 136.857 13.1279 136.857Z" fill="#539882"/>
<path d="M14.4065 134.299C14.4065 135.147 13.7198 135.833 12.8727 135.833C12.0256 135.833 11.3389 135.147 11.3389 134.299C11.3389 133.452 12.0256 132.766 12.8727 132.766C13.7198 132.766 14.4065 133.452 14.4065 134.299Z" fill="#539882"/>
<path d="M15.9399 129.53C18.8437 128.773 21.7474 134.02 19.5696 136.856C21.2634 136.383 26.8289 134.729 31.6684 133.311C33.4579 131.127 31.1117 128.134 28.8353 126.388C28.4913 126.124 28.0386 126.054 27.6204 126.18C25.7201 126.75 20.982 128.217 15.9399 129.53Z" fill="#D1C870"/>
<path d="M25.0714 126.631C20.6028 127.727 15.664 129.041 15.4287 129.699C17.3102 129.26 17.859 129.26 17.7806 129.26H20.838L27.1881 127.507C27.1097 127.434 26.5767 127.157 25.0714 126.631Z" fill="#D1C870"/>
<g filter="url(#filter10_d)">
<path fill-rule="evenodd" clip-rule="evenodd" d="M35.1132 170.092C35.8191 170.092 36.3914 170.669 36.3914 171.38V173.405C36.3914 174.116 35.8191 174.693 35.1132 174.693C34.4072 174.693 33.835 174.116 33.835 173.405V171.38C33.835 170.669 34.4072 170.092 35.1132 170.092Z" fill="#FFDAC1"/>
<path d="M33.835 173.002V172.137H34.8575V173.159C34.6682 173.133 34.1986 173.065 33.835 173.002Z" fill="#EBC8B1"/>
<path d="M30.9507 171.579C30.7598 168.62 30.1491 161.316 29.2329 155.775H39.1578C38.9669 158.8 39.9212 167.287 39.1578 171.579C37.0583 173.237 33.5273 172.75 30.9507 171.579Z" fill="#D1C870"/>
<path fill-rule="evenodd" clip-rule="evenodd" d="M26.1652 170.602C27.0123 170.602 27.699 171.178 27.699 171.89V173.915C27.699 174.626 27.0123 175.203 26.1652 175.203C25.3181 175.203 24.6313 174.626 24.6313 173.915V171.89C24.6313 171.178 25.3181 170.602 26.1652 170.602Z" fill="#FFDAC1"/>
<path d="M24.6313 174.023V173.158H25.6539V174.181C25.4646 174.155 24.9949 174.086 24.6313 174.023Z" fill="#EBC8B1"/>
<path d="M22.2287 172.123C22.0413 169.254 21.4414 162.172 20.5415 156.799L31.7896 158.123C31.6022 161.056 31.0397 167.961 30.2899 172.123C28.2277 173.732 24.7596 173.259 22.2287 172.123Z" fill="#F4E97D"/>
<path d="M22.2706 172.575C22.0785 169.621 21.4637 162.33 20.5415 156.799L23.3273 157.481C23.1352 160.5 24.6722 168.875 23.9037 173.16C23.1352 172.965 22.9431 172.868 22.2706 172.575Z" fill="#D1C870"/>
<path fill-rule="evenodd" clip-rule="evenodd" d="M44.3122 152.815C44.3883 152.882 44.4582 152.944 44.5204 152.999L44.5205 152.999C44.7885 153.236 44.913 153.315 45.0636 153.41L45.0636 153.41L45.0637 153.41C45.1033 153.435 45.1448 153.461 45.1912 153.491C45.4878 153.687 45.0953 154.244 44.7986 154.049C44.5957 153.916 44.3945 153.775 44.2448 153.66L44.1891 153.711L44.5181 154.002L44.6991 154.162C45.0377 154.461 44.6032 154.915 44.3065 154.72C44.0658 154.561 43.8247 154.344 43.6699 154.189L43.5984 154.255C43.7956 154.462 43.9022 154.546 44.0284 154.645L44.0284 154.645C44.0654 154.673 44.104 154.704 44.1471 154.739C44.4225 154.963 44.1397 155.477 43.6947 155.185C43.4326 155.012 43.2505 154.823 43.1277 154.696L43.1277 154.696C43.0837 154.65 43.0472 154.612 43.0175 154.586L43.0234 154.581C42.6252 154.187 41.9912 153.524 41.9816 153.369C41.9711 153.199 42.9925 152.453 43.5044 152.101C43.5045 152.101 43.5045 152.101 43.5046 152.101C43.5046 152.101 43.5046 152.101 43.5046 152.101C44.2554 152.161 45.0523 152.272 44.9261 152.654C44.8754 152.807 44.6355 152.813 44.3122 152.815Z" fill="#FFDAC1"/>
<path fill-rule="evenodd" clip-rule="evenodd" d="M33.3752 136.449C34.2543 136.088 35.2594 136.508 35.6202 137.387C37.5916 142.191 38.8922 144.819 40.1157 146.711C41.2554 148.473 42.3499 149.635 44.0226 151.411C44.1294 151.524 44.2385 151.64 44.3501 151.759L41.8435 154.117C41.7176 153.983 41.5937 153.851 41.4717 153.722C39.838 151.988 38.5413 150.612 37.2264 148.58C35.8244 146.412 34.4272 143.544 32.4367 138.694C32.0759 137.814 32.4961 136.809 33.3752 136.449Z" fill="#35675B"/>
<path fill-rule="evenodd" clip-rule="evenodd" d="M35.1096 136.82C35.2561 136.76 35.4236 136.83 35.4837 136.977C37.4634 141.801 38.7835 144.508 40.0607 146.495C41.2567 148.354 42.4186 149.588 44.0768 151.348C44.1865 151.465 44.2984 151.584 44.4126 151.705L43.9949 152.098C43.8781 151.974 43.7635 151.852 43.6511 151.733C41.9998 149.98 40.8038 148.71 39.5784 146.805C38.2716 144.773 36.9354 142.025 34.9532 137.194C34.893 137.048 34.9631 136.88 35.1096 136.82Z" fill="#407967"/>
<path d="M29.0175 175.756L27.4742 174.173L26.97 174.24C26.3553 174.322 25.7309 174.293 25.1266 174.153L24.7978 174.077C24.7773 174.459 24.6622 175.375 24.6294 175.986C25.5525 176.676 27.5217 176.575 28.8221 176.373C29.1183 176.327 29.2268 175.971 29.0175 175.756Z" fill="#35675B"/>
<path d="M38.0024 174.852L36.4591 173.268L35.9549 173.336C35.3402 173.418 34.7157 173.388 34.1115 173.249L33.7827 173.173C33.7621 173.555 33.6471 174.471 33.6142 175.082C34.5374 175.772 36.5066 175.671 37.8069 175.469C38.1032 175.423 38.2116 175.066 38.0024 174.852Z" fill="#35675B"/>
<path d="M17.9849 156.574C18.4347 151.618 21.1464 140.122 28.3948 133.789C29.5515 133.789 32.7516 134.33 36.2987 136.492C35.7204 141.706 38.8048 150.202 41.5037 156.574C38.0337 160.05 26.6599 161.787 17.9849 156.574Z" fill="#539882"/>
<path d="M17.9849 156.294C18.4316 151.399 21.1248 140.046 28.3235 133.791C29.0893 133.791 28.5149 133.696 28.5149 134.745C23.1542 142.087 19.5165 151.145 21.0482 157.819C19.5165 157.152 19.2293 156.961 17.9849 156.294Z" fill="#468677"/>
<path d="M32.2355 107.331C34.1826 109.863 32.911 114.108 29.3954 116.81C25.8799 119.513 21.4515 119.651 19.5045 117.119C17.5574 114.586 18.8289 110.342 22.3445 107.639C25.8601 104.936 30.2884 104.798 32.2355 107.331Z" fill="#C5C5C5"/>
<path d="M21.8768 113.818C22.4748 112.83 25.1147 110.007 29.9627 108.811L28.7199 112.91C27.0217 113.367 23.2757 114.189 21.8768 113.818Z" fill="#539882"/>
<path d="M27.1681 111.89C34.5618 100.662 47.164 111.614 43.9104 119.991C36.231 116.622 29.5491 113.186 27.1681 111.89Z" fill="#E1E1E1"/>
<path d="M40.4854 115.164C42.3613 117.406 43.1317 119.017 43.7393 119.51C44.2253 119.905 44.18 120.25 44.0966 120.373C44.2789 121.16 44.7316 122.843 45.0847 123.278C44.4416 123.555 44.17 123.658 44.1146 123.675L43.016 120.707L40.4854 115.164Z" fill="#FEE1CE"/>
<path d="M46.7397 129.285C45.5973 127.24 47.3661 123.698 44.1614 122.59L43.6951 129.026C43.8294 129.351 44.7307 129.665 46.7397 129.285Z" fill="#FEE1CE"/>
<path d="M43.272 120.723C45.5211 128.007 42.7512 135.331 37.0853 137.08C31.4194 138.829 25.003 134.342 22.7539 127.057C20.5049 119.773 23.2748 112.449 28.9407 110.7C34.6066 108.951 41.0229 113.438 43.272 120.723Z" fill="#FFDAC1"/>
<path d="M45.754 121.83C46.0455 122.775 45.6257 123.743 44.8163 123.993C44.0069 124.242 43.1144 123.68 42.8228 122.735C42.5313 121.791 42.9511 120.823 43.7605 120.573C44.5699 120.323 45.4624 120.886 45.754 121.83Z" fill="white"/>
<path d="M44.7021 121.888C44.7854 122.158 44.6342 122.444 44.3644 122.527C44.0946 122.611 43.8083 122.46 43.725 122.19C43.6417 121.92 43.7929 121.634 44.0627 121.55C44.3325 121.467 44.6188 121.618 44.7021 121.888Z" fill="black"/>
<g filter="url(#filter11_f)">
<path d="M45.944 124.178C46.0273 124.448 45.5481 124.835 44.8736 125.043C44.199 125.252 43.5847 125.202 43.5014 124.932C43.4181 124.662 43.8974 124.275 44.5719 124.066C45.2464 123.858 45.8607 123.908 45.944 124.178Z" fill="#FFCCAA"/>
</g>
<path fill-rule="evenodd" clip-rule="evenodd" d="M46.7185 123.709C46.8495 123.104 46.8207 122.251 46.5339 121.322C46.2472 120.393 45.7901 119.672 45.3403 119.246C44.8593 118.789 44.5941 118.835 44.5649 118.844C44.5357 118.853 44.2911 118.965 44.151 119.613C44.02 120.219 44.0488 121.072 44.3356 122C44.6223 122.929 45.0794 123.65 45.5292 124.077C46.0102 124.533 46.2754 124.488 46.3046 124.479C46.3339 124.47 46.5784 124.358 46.7185 123.709ZM46.6414 125.569C47.8555 125.194 48.2995 123.141 47.6331 120.982C46.9667 118.824 45.4423 117.378 44.2281 117.753C43.014 118.128 42.57 120.181 43.2364 122.34C43.9028 124.498 45.4272 125.944 46.6414 125.569Z" fill="#91D7B9"/>
<path d="M46.1202 125.33C44.1564 124.199 43.7052 121.12 40.5146 117.166L42.5637 128.153C43.1215 127.761 44.6136 126.647 46.1202 125.33Z" fill="#FFDAC1"/>
<path d="M26.5542 130.7C26.8874 131.779 26.1733 132.958 24.9592 133.333C23.745 133.708 22.4907 133.137 22.1575 132.058C21.8243 130.978 22.5384 129.8 23.7526 129.425C24.9667 129.05 26.221 129.621 26.5542 130.7Z" fill="#FFDAC1"/>
<path d="M47.5024 133.458C48.7713 131.438 45.8465 128.903 44.8286 126.664C41.591 128.562 33.7329 133.578 30.4006 136.226C34.851 138.486 45.1904 137.139 47.5024 133.458Z" fill="#FFDAC1"/>
<path fill-rule="evenodd" clip-rule="evenodd" d="M42.7708 121.228C42.4829 120.716 42.1828 120.183 41.8686 119.642L42.2211 119.442C42.542 119.994 42.8443 120.531 43.1325 121.044C43.5621 121.807 43.9603 122.514 44.342 123.134C44.6594 123.649 44.9604 124.095 45.2518 124.453C45.5444 124.812 45.8191 125.071 46.0808 125.224L46.3083 125.357L44.9627 126.622L44.6845 126.336L45.6551 125.423C45.4102 125.24 45.1711 124.994 44.9343 124.704C44.6273 124.327 44.316 123.865 43.9947 123.343C43.6102 122.719 43.2044 121.998 42.7708 121.228Z" fill="#FFCCAA"/>
<path fill-rule="evenodd" clip-rule="evenodd" d="M43.5535 124.194C43.1484 124.428 42.6599 124.778 41.9995 125.397L41.2311 124.511C41.9401 123.846 42.4946 123.443 42.9844 123.16C43.365 122.94 43.7064 122.794 44.0118 122.664C44.0922 122.629 44.1701 122.596 44.2456 122.563L44.7108 123.65C44.6161 123.691 44.526 123.73 44.4382 123.768C44.1416 123.895 43.873 124.01 43.5535 124.194Z" fill="#91D7B9"/>
<circle cx="43.7073" cy="130.963" r="1.5" transform="rotate(-17.1574 43.7073 130.963)" fill="#FF8281"/>
<mask id="mask2" mask-type="alpha" maskUnits="userSpaceOnUse" x="42" y="129" width="4" height="4">
<circle cx="43.7073" cy="130.963" r="1.5" transform="rotate(-17.1574 43.7073 130.963)" fill="#FF8281"/>
</mask>
<g mask="url(#mask2)">
<circle cx="43.3416" cy="133.17" r="1.5" transform="rotate(-17.1574 43.3416 133.17)" fill="#FF6564"/>
</g>
<g filter="url(#filter12_f)">
<path d="M40.1217 127.85C40.3299 128.524 39.4052 129.409 38.0561 129.825C36.7071 130.242 35.4447 130.033 35.2364 129.358C35.0282 128.684 35.953 127.799 37.302 127.383C38.651 126.966 39.9134 127.175 40.1217 127.85Z" fill="#FFCCAA"/>
</g>
<path fill-rule="evenodd" clip-rule="evenodd" d="M38.5168 129.585C40.2368 129.054 41.3456 126.97 40.6576 124.741C39.9696 122.513 37.8784 121.416 36.1584 121.947C34.4384 122.478 33.3296 124.563 34.0176 126.791C34.7056 129.02 36.7968 130.117 38.5168 129.585ZM38.8459 130.651C41.2741 129.902 42.5673 127.107 41.7343 124.409C40.9013 121.711 38.2576 120.131 35.8293 120.881C33.4011 121.631 32.1079 124.425 32.9409 127.124C33.7739 129.822 36.4176 131.401 38.8459 130.651Z" fill="#91D7B9"/>
<path d="M39.6297 124.523C39.9629 125.602 39.3581 126.747 38.2789 127.08C37.1997 127.413 36.0547 126.809 35.7215 125.729C35.3883 124.65 35.993 123.505 37.0723 123.172C38.1515 122.839 39.2965 123.444 39.6297 124.523Z" fill="white"/>
<path d="M38.5771 124.581C38.702 124.986 38.6776 125.353 38.0705 125.54C37.4635 125.728 37.2364 125.438 37.1115 125.034C36.9865 124.629 37.011 124.262 37.618 124.075C38.2251 123.887 38.4521 124.176 38.5771 124.581Z" fill="black"/>
<path d="M23.8435 129.308C25.1392 129.603 31.8035 129.732 35.6737 116.91C34.9463 115.312 32.2448 112.045 27.2575 111.756C19.3592 116.083 22.6674 129.074 23.8435 129.308Z" fill="#E1E1E1"/>
<path d="M43.1575 118.619C40.7524 119.052 38.9188 116.731 35.4413 116.98C34.3964 115.24 32.6213 112.714 27.0838 111.619C29.8928 109.205 40.3671 109.581 43.1575 118.619Z" fill="#E1E1E1"/>
<path d="M23.5332 128.958C11.5827 123.149 19.3953 110.237 27.5287 111.326C25.6919 119.733 24.0278 126.572 23.5332 128.958Z" fill="#E1E1E1"/>
<path d="M26.2558 133.2C26.3807 133.605 26.1539 134.034 25.7492 134.159C25.3445 134.284 24.9152 134.057 24.7902 133.653C24.6653 133.248 24.892 132.819 25.2968 132.694C25.7015 132.569 26.1308 132.796 26.2558 133.2Z" fill="#539882"/>
<path d="M18.9663 121.717C18.6394 120.264 18.7542 119.452 19.925 116.16C19.7015 117.714 20.042 119.054 20.5126 120.051C20.7626 120.581 20.6504 121.778 20.1328 121.98C19.7952 122.111 19.0502 122.09 18.9663 121.717Z" fill="#C4C4C4"/>
<path fill-rule="evenodd" clip-rule="evenodd" d="M35.0626 116.652C35.0271 116.443 35.1697 116.244 35.381 116.208C36.0205 116.097 36.7189 116.208 37.4063 116.397C38.0483 116.574 38.7196 116.832 39.367 117.08C39.4156 117.098 39.464 117.117 39.5123 117.135C40.2142 117.404 40.8836 117.654 41.5004 117.8C42.121 117.948 42.6381 117.977 43.049 117.85C43.2539 117.787 43.4707 117.9 43.5331 118.102C43.5956 118.304 43.4801 118.52 43.2752 118.583C42.6658 118.771 41.9853 118.706 41.3143 118.547C40.6395 118.387 39.9231 118.118 39.2281 117.852C39.1825 117.834 39.1369 117.817 39.0914 117.799C38.4346 117.548 37.7973 117.304 37.1933 117.137C36.5447 116.958 35.979 116.883 35.5093 116.964C35.2981 117.001 35.098 116.861 35.0626 116.652Z" fill="#C4C4C4"/>
<path d="M39.6853 109.548C38.6622 108.863 36.8053 108.017 34.5015 107.914C35.8588 108.269 36.94 109.082 38.0844 110.512C38.3727 110.872 38.9126 110.92 39.3483 110.665C39.8664 110.362 40.1538 109.861 39.6853 109.548Z" fill="#F0F0F0"/>
<path fill-rule="evenodd" clip-rule="evenodd" d="M21.5355 109.339C21.6145 109.413 21.6259 109.539 21.5611 109.62L21.5565 109.626C20.9963 110.328 19.5979 112.081 19.773 114.442C19.7811 114.552 19.7051 114.643 19.6033 114.647C19.5014 114.65 19.4122 114.564 19.4041 114.454C19.2171 111.932 20.6971 110.077 21.2598 109.372C21.265 109.366 21.2701 109.359 21.2751 109.353C21.3399 109.272 21.4565 109.266 21.5355 109.339Z" fill="#A8A8A8"/>
<path fill-rule="evenodd" clip-rule="evenodd" d="M28.6089 106.128C28.6079 106.02 28.6869 105.938 28.7853 105.943C29.6716 105.993 30.7644 106.41 31.6555 107.424C31.7258 107.504 31.7269 107.627 31.658 107.699C31.5891 107.771 31.4763 107.765 31.4061 107.685C30.5904 106.757 29.5926 106.378 28.7888 106.333C28.6904 106.327 28.6099 106.235 28.6089 106.128Z" fill="#E1E1E1"/>
<path fill-rule="evenodd" clip-rule="evenodd" d="M37.3513 117.84C37.4945 117.996 37.4847 118.238 37.3295 118.381L34.1486 121.315C33.9934 121.459 33.7515 121.449 33.6083 121.294C33.4651 121.138 33.4749 120.897 33.6301 120.753L36.811 117.819C36.9662 117.676 37.2081 117.685 37.3513 117.84Z" fill="#969696"/>
<path fill-rule="evenodd" clip-rule="evenodd" d="M44.2654 117.569C44.2309 117.777 44.034 117.918 43.8257 117.883L40.5867 117.347C40.3784 117.312 40.2375 117.115 40.272 116.907C40.3065 116.699 40.5034 116.558 40.7117 116.592L43.9507 117.129C44.159 117.163 44.2999 117.36 44.2654 117.569Z" fill="#969696"/>
<path fill-rule="evenodd" clip-rule="evenodd" d="M21.8792 129.413C21.827 129.135 22.0344 128.857 22.3426 128.792L33.2796 126.487L33.4688 127.494L22.5318 129.799C22.2236 129.864 21.9315 129.691 21.8792 129.413Z" fill="#91D7B9"/>
<path d="M30.1326 126.692C25.4187 131.156 23.8359 128.536 22.6633 128.496C25.1917 126.913 28.6963 126.634 30.1326 126.692Z" fill="#E1E1E1"/>
<path fill-rule="evenodd" clip-rule="evenodd" d="M33.5401 119.038C33.7287 119.144 33.8001 119.385 33.6996 119.576C32.2977 122.246 31.2316 123.955 30.111 125.21C28.9824 126.474 27.8134 127.262 26.2371 128.116C26.0495 128.218 25.8145 128.144 25.7122 127.95C25.6099 127.757 25.679 127.517 25.8665 127.416C27.4036 126.582 28.4891 125.843 29.5361 124.671C30.5911 123.489 31.6214 121.851 33.0168 119.193C33.1173 119.002 33.3515 118.932 33.5401 119.038Z" fill="#C4C4C4"/>
<path d="M34.1702 115.506C33.4597 114.479 31.0481 112.151 27.2034 111.427C26.7855 111.349 25.6509 111.18 24.3931 111.568C27.1428 111.55 30.81 112.91 34.1702 115.506Z" fill="#C4C4C4"/>
<path fill-rule="evenodd" clip-rule="evenodd" d="M24.3449 130.48C24.3785 130.568 24.3312 130.667 24.2394 130.701C23.7475 130.886 23.5617 131.137 23.5014 131.351C23.438 131.576 23.5015 131.8 23.5816 131.935C23.6297 132.016 23.5998 132.121 23.5147 132.169C23.4296 132.218 23.3216 132.191 23.2735 132.11C23.1598 131.918 23.0659 131.602 23.16 131.269C23.2572 130.924 23.5439 130.598 24.1179 130.383C24.2097 130.348 24.3113 130.392 24.3449 130.48Z" fill="#FFCCAA"/>
<path fill-rule="evenodd" clip-rule="evenodd" d="M24.4114 122.596C24.4461 122.5 24.4781 122.413 24.5064 122.335L24.5066 122.335C24.6291 121.999 24.7011 121.87 24.788 121.715C24.811 121.674 24.8349 121.631 24.8611 121.582C25.0287 121.269 24.4175 120.966 24.25 121.279C24.1354 121.493 24.0258 121.713 23.9492 121.885L23.8754 121.867L24.0257 121.455L24.1083 121.228C24.2631 120.803 23.6647 120.612 23.4972 120.925C23.3613 121.179 23.253 121.484 23.1911 121.695L23.0968 121.671C23.1711 121.395 23.2249 121.271 23.2886 121.124L23.2886 121.124C23.3073 121.081 23.3268 121.036 23.3479 120.984C23.483 120.656 22.989 120.339 22.7377 120.809C22.5897 121.085 22.5198 121.338 22.4727 121.509L22.4727 121.509C22.4558 121.57 22.4418 121.62 22.4282 121.658L22.436 121.659C22.2741 122.196 22.0333 123.08 22.099 123.221C22.171 123.375 23.4245 123.544 24.0422 123.608C24.0423 123.609 24.0423 123.609 24.0424 123.609C24.6734 123.197 25.3211 122.72 25.0279 122.445C24.9101 122.334 24.6963 122.443 24.4114 122.596Z" fill="#FFDAC1"/>
<path d="M38.4359 145.293C38.4359 146.282 37.6347 147.083 36.6464 147.083C35.6581 147.083 34.8569 146.282 34.8569 145.293C34.8569 144.305 35.6581 143.504 36.6464 143.504C37.6347 143.504 38.4359 144.305 38.4359 145.293Z" fill="#539882"/>
<path d="M36.1863 138.904C36.3567 139.63 37.4134 142.17 38.4359 143.984L35.8795 144.528L34.3457 140.628L36.1863 138.904Z" fill="#539882"/>
<path d="M31.2783 146.738C32.1411 147.151 33.5791 147.317 34.346 146.572C34.0584 147.73 31.9494 148.061 31.2783 146.738Z" fill="#468677"/>
<path fill-rule="evenodd" clip-rule="evenodd" d="M34.3211 146.608C34.3567 146.652 34.3538 146.721 34.3146 146.762C33.7768 147.318 33.2765 147.58 32.7787 147.594C32.2823 147.609 31.8066 147.377 31.3192 146.989C31.2758 146.954 31.2653 146.886 31.2957 146.837C31.326 146.787 31.3858 146.775 31.4292 146.81C31.9004 147.185 32.3354 147.389 32.7738 147.376C33.2106 147.363 33.6689 147.135 34.1856 146.601C34.2248 146.56 34.2854 146.563 34.3211 146.608Z" fill="#35675B"/>
<path fill-rule="evenodd" clip-rule="evenodd" d="M26.3149 142.012C27.14 141.522 27.4047 140.468 26.9059 139.657C24.3311 135.472 23.5572 132.715 23.4956 130.516C23.4412 128.575 23.9196 126.958 24.54 124.86C24.6436 124.51 24.7512 124.146 24.861 123.765L21.5013 122.831C21.4056 123.163 21.3061 123.497 21.2058 123.833C20.5845 125.914 19.9347 128.09 20.0053 130.611C20.0892 133.605 21.1581 136.946 23.9177 141.432C24.4164 142.242 25.4897 142.502 26.3149 142.012Z" fill="#35675B"/>
</g>
<mask id="mask3" mask-type="alpha" maskUnits="userSpaceOnUse" x="22" y="134" width="10" height="12">
<path d="M26.127 145.036C26.127 144.335 27.0709 142.235 27.7788 140.834L22.5874 137.333V134.999L26.8349 134.299L31.0825 135.933L31.7904 144.802L26.127 145.036Z" fill="#C4C4C4"/>
</mask>
<g mask="url(#mask3)">
</g>
<mask id="mask4" mask-type="alpha" maskUnits="userSpaceOnUse" x="22" y="133" width="11" height="13">
<path fill-rule="evenodd" clip-rule="evenodd" d="M27.1057 133.789L31.5612 135.581L32.3017 145.283L26.1346 145.548V145.293C26.1346 145.07 26.2038 144.764 26.3041 144.43C26.4067 144.088 26.5498 143.691 26.7137 143.275C27.014 142.513 27.3883 141.675 27.723 140.973L22.5874 137.351V134.568L27.1057 133.789ZM23.0604 134.982V137.092L28.3304 140.809L28.238 141C27.8851 141.73 27.474 142.641 27.1517 143.459C26.9905 143.869 26.8528 144.252 26.7558 144.575C26.7016 144.755 26.6624 144.91 26.638 145.037L31.7916 144.815L31.1131 135.926L27.0553 134.294L23.0604 134.982Z" fill="black"/>
</mask>
<g mask="url(#mask4)">
<path fill-rule="evenodd" clip-rule="evenodd" d="M27.3768 137.296C26.8874 136.927 26.1119 136.668 24.915 136.774C24.5149 136.81 24.161 136.521 24.1246 136.128C24.0882 135.735 24.3831 135.388 24.7833 135.352C26.2539 135.221 27.4184 135.527 28.2628 136.163C29.1042 136.797 29.5459 137.698 29.6904 138.604C29.8339 139.504 29.692 140.443 29.3308 141.223C28.9735 141.994 28.3573 142.695 27.49 142.959C27.1063 143.076 26.6986 142.866 26.5794 142.489C26.4602 142.112 26.6746 141.712 27.0583 141.595C27.4036 141.49 27.7574 141.169 28.0063 140.632C28.2513 140.103 28.3519 139.446 28.2529 138.825C28.155 138.211 27.8691 137.667 27.3768 137.296Z" fill="#D1C870"/>
</g>
<path fill-rule="evenodd" clip-rule="evenodd" d="M17.8463 129.209C17.7197 129.181 17.5952 129.167 17.4741 129.167L17.4741 128.676C17.6266 128.676 17.7809 128.693 17.9352 128.727L17.8463 129.209ZM19.1845 130.024C18.9843 129.814 18.7738 129.642 18.5603 129.509L18.7833 129.082C19.0309 129.236 19.2709 129.433 19.4963 129.67L19.1845 130.024ZM20.088 131.447C19.9716 131.169 19.8392 130.915 19.6952 130.686L20.0659 130.407C20.2251 130.66 20.3702 130.939 20.4973 131.243L20.088 131.447ZM20.5323 133.137C20.4919 132.833 20.4352 132.544 20.3647 132.273L20.7974 132.139C20.8735 132.432 20.9343 132.741 20.9775 133.067L20.5323 133.137ZM20.5795 134.914C20.601 134.605 20.6075 134.307 20.6005 134.022L21.0502 134.009C21.0576 134.311 21.0508 134.626 21.0281 134.951L20.5795 134.914ZM20.4032 136.244C20.4319 136.095 20.4573 135.947 20.4796 135.803L20.9233 135.884C20.9 136.036 20.8734 136.189 20.8434 136.345L20.4032 136.244Z" fill="#F4E97D"/>
</g>
<defs>
<filter id="filter0_d" x="68.9629" y="2" width="310.92" height="183.893" filterUnits="userSpaceOnUse" color-interpolation-filters="sRGB">
<feFlood flood-opacity="0" result="BackgroundImageFix"/>
<feColorMatrix in="SourceAlpha" type="matrix" values="0 0 0 0 0 0 0 0 0 0 0 0 0 0 0 0 0 0 127 0"/>
<feOffset dx="12"/>
<feGaussianBlur stdDeviation="5"/>
<feColorMatrix type="matrix" values="0 0 0 0 0 0 0 0 0 0 0 0 0 0 0 0 0 0 0.1 0"/>
<feBlend mode="normal" in2="BackgroundImageFix" result="effect1_dropShadow"/>
<feBlend mode="normal" in="SourceGraphic" in2="effect1_dropShadow" result="shape"/>
</filter>
<filter id="filter1_d" x="135.125" y="14.834" width="181.218" height="166.496" filterUnits="userSpaceOnUse" color-interpolation-filters="sRGB">
<feFlood flood-opacity="0" result="BackgroundImageFix"/>
<feColorMatrix in="SourceAlpha" type="matrix" values="0 0 0 0 0 0 0 0 0 0 0 0 0 0 0 0 0 0 127 0"/>
<feOffset dx="12" dy="-4"/>
<feGaussianBlur stdDeviation="6.125"/>
<feColorMatrix type="matrix" values="0 0 0 0 0 0 0 0 0 0 0 0 0 0 0 0 0 0 0.1 0"/>
<feBlend mode="normal" in2="BackgroundImageFix" result="effect1_dropShadow"/>
<feBlend mode="normal" in="SourceGraphic" in2="effect1_dropShadow" result="shape"/>
</filter>
<filter id="filter2_d" x="46.7485" y="69.2758" width="322.836" height="114.955" filterUnits="userSpaceOnUse" color-interpolation-filters="sRGB">
<feFlood flood-opacity="0" result="BackgroundImageFix"/>
<feColorMatrix in="SourceAlpha" type="matrix" values="0 0 0 0 0 0 0 0 0 0 0 0 0 0 0 0 0 0 127 0"/>
<feOffset dx="12" dy="-4"/>
<feGaussianBlur stdDeviation="6.12576"/>
<feColorMatrix type="matrix" values="0 0 0 0 0 0 0 0 0 0 0 0 0 0 0 0 0 0 0.1 0"/>
<feBlend mode="normal" in2="BackgroundImageFix" result="effect1_dropShadow"/>
<feBlend mode="normal" in="SourceGraphic" in2="effect1_dropShadow" result="shape"/>
</filter>
<filter id="filter3_d" x="107.188" y="68" width="24" height="17" filterUnits="userSpaceOnUse" color-interpolation-filters="sRGB">
<feFlood flood-opacity="0" result="BackgroundImageFix"/>
<feColorMatrix in="SourceAlpha" type="matrix" values="0 0 0 0 0 0 0 0 0 0 0 0 0 0 0 0 0 0 127 0"/>
<feOffset dx="8" dy="4"/>
<feGaussianBlur stdDeviation="2"/>
<feColorMatrix type="matrix" values="0 0 0 0 0 0 0 0 0 0 0 0 0 0 0 0 0 0 0.1 0"/>
<feBlend mode="normal" in2="BackgroundImageFix" result="effect1_dropShadow"/>
<feBlend mode="normal" in="SourceGraphic" in2="effect1_dropShadow" result="shape"/>
</filter>
<filter id="filter4_d" x="113.188" y="77" width="17.1356" height="8.42373" filterUnits="userSpaceOnUse" color-interpolation-filters="sRGB">
<feFlood flood-opacity="0" result="BackgroundImageFix"/>
<feColorMatrix in="SourceAlpha" type="matrix" values="0 0 0 0 0 0 0 0 0 0 0 0 0 0 0 0 0 0 127 0"/>
<feOffset dx="5.42373" dy="2.71186"/>
<feGaussianBlur stdDeviation="1.35593"/>
<feColorMatrix type="matrix" values="0 0 0 0 0 0 0 0 0 0 0 0 0 0 0 0 0 0 0.1 0"/>
<feBlend mode="normal" in2="BackgroundImageFix" result="effect1_dropShadow"/>
<feBlend mode="normal" in="SourceGraphic" in2="effect1_dropShadow" result="shape"/>
</filter>
<filter id="filter5_d" x="107.188" y="80" width="12.7119" height="8.47458" filterUnits="userSpaceOnUse" color-interpolation-filters="sRGB">
<feFlood flood-opacity="0" result="BackgroundImageFix"/>
<feColorMatrix in="SourceAlpha" type="matrix" values="0 0 0 0 0 0 0 0 0 0 0 0 0 0 0 0 0 0 127 0"/>
<feOffset dx="4.47458" dy="2.23729"/>
<feGaussianBlur stdDeviation="1.11864"/>
<feColorMatrix type="matrix" values="0 0 0 0 0 0 0 0 0 0 0 0 0 0 0 0 0 0 0.1 0"/>
<feBlend mode="normal" in2="BackgroundImageFix" result="effect1_dropShadow"/>
<feBlend mode="normal" in="SourceGraphic" in2="effect1_dropShadow" result="shape"/>
</filter>
<filter id="filter6_d" x="207.188" y="36" width="24" height="13" filterUnits="userSpaceOnUse" color-interpolation-filters="sRGB">
<feFlood flood-opacity="0" result="BackgroundImageFix"/>
<feColorMatrix in="SourceAlpha" type="matrix" values="0 0 0 0 0 0 0 0 0 0 0 0 0 0 0 0 0 0 127 0"/>
<feOffset dx="8" dy="4"/>
<feGaussianBlur stdDeviation="2"/>
<feColorMatrix type="matrix" values="0 0 0 0 0 0 0 0 0 0 0 0 0 0 0 0 0 0 0.1 0"/>
<feBlend mode="normal" in2="BackgroundImageFix" result="effect1_dropShadow"/>
<feBlend mode="normal" in="SourceGraphic" in2="effect1_dropShadow" result="shape"/>
</filter>
<filter id="filter7_d" x="213.188" y="41" width="16.1356" height="11.4237" filterUnits="userSpaceOnUse" color-interpolation-filters="sRGB">
<feFlood flood-opacity="0" result="BackgroundImageFix"/>
<feColorMatrix in="SourceAlpha" type="matrix" values="0 0 0 0 0 0 0 0 0 0 0 0 0 0 0 0 0 0 127 0"/>
<feOffset dx="5.42373" dy="2.71186"/>
<feGaussianBlur stdDeviation="1.35593"/>
<feColorMatrix type="matrix" values="0 0 0 0 0 0 0 0 0 0 0 0 0 0 0 0 0 0 0.1 0"/>
<feBlend mode="normal" in2="BackgroundImageFix" result="effect1_dropShadow"/>
<feBlend mode="normal" in="SourceGraphic" in2="effect1_dropShadow" result="shape"/>
</filter>
<filter id="filter8_d" x="205.188" y="46" width="14.7119" height="7.47458" filterUnits="userSpaceOnUse" color-interpolation-filters="sRGB">
<feFlood flood-opacity="0" result="BackgroundImageFix"/>
<feColorMatrix in="SourceAlpha" type="matrix" values="0 0 0 0 0 0 0 0 0 0 0 0 0 0 0 0 0 0 127 0"/>
<feOffset dx="4.47458" dy="2.23729"/>
<feGaussianBlur stdDeviation="1.11864"/>
<feColorMatrix type="matrix" values="0 0 0 0 0 0 0 0 0 0 0 0 0 0 0 0 0 0 0.1 0"/>
<feBlend mode="normal" in2="BackgroundImageFix" result="effect1_dropShadow"/>
<feBlend mode="normal" in="SourceGraphic" in2="effect1_dropShadow" result="shape"/>
</filter>
<filter id="filter9_f" x="-2.66064" y="156.088" width="66.8571" height="41.2932" filterUnits="userSpaceOnUse" color-interpolation-filters="sRGB">
<feFlood flood-opacity="0" result="BackgroundImageFix"/>
<feBlend mode="normal" in="SourceGraphic" in2="BackgroundImageFix" result="shape"/>
<feGaussianBlur stdDeviation="7" result="effect1_foregroundBlur"/>
</filter>
<filter id="filter10_d" x="11.7202" y="94.1581" width="53.2622" height="93.7254" filterUnits="userSpaceOnUse" color-interpolation-filters="sRGB">
<feFlood flood-opacity="0" result="BackgroundImageFix"/>
<feColorMatrix in="SourceAlpha" type="matrix" values="0 0 0 0 0 0 0 0 0 0 0 0 0 0 0 0 0 0 127 0"/>
<feOffset dx="5.67975"/>
<feGaussianBlur stdDeviation="5.67975"/>
<feColorMatrix type="matrix" values="0 0 0 0 0 0 0 0 0 0 0 0 0 0 0 0 0 0 0.18 0"/>
<feBlend mode="normal" in2="BackgroundImageFix" result="effect1_dropShadow"/>
<feBlend mode="normal" in="SourceGraphic" in2="effect1_dropShadow" result="shape"/>
</filter>
<filter id="filter11_f" x="38.929" y="119.374" width="11.5878" height="10.3607" filterUnits="userSpaceOnUse" color-interpolation-filters="sRGB">
<feFlood flood-opacity="0" result="BackgroundImageFix"/>
<feBlend mode="normal" in="SourceGraphic" in2="BackgroundImageFix" result="shape"/>
<feGaussianBlur stdDeviation="2.2816" result="effect1_foregroundBlur"/>
</filter>
<filter id="filter12_f" x="28.5904" y="120.551" width="18.1771" height="16.1044" filterUnits="userSpaceOnUse" color-interpolation-filters="sRGB">
<feFlood flood-opacity="0" result="BackgroundImageFix"/>
<feBlend mode="normal" in="SourceGraphic" in2="BackgroundImageFix" result="shape"/>
<feGaussianBlur stdDeviation="3.30832" result="effect1_foregroundBlur"/>
</filter>
</defs>
</svg>
