<svg width="280" height="176" viewBox="0 0 280 176" fill="none" xmlns="http://www.w3.org/2000/svg">
<mask id="mask0" mask-type="alpha" maskUnits="userSpaceOnUse" x="0" y="0" width="280" height="176">
<rect width="280" height="176" fill="#89CDD3"/>
</mask>
<g mask="url(#mask0)">
<rect width="280" height="176" fill="#89CDD3"/>
<g filter="url(#filter0_d)">
<mask id="mask1" mask-type="alpha" maskUnits="userSpaceOnUse" x="0" y="0" width="280" height="176">
<rect width="280" height="176" fill="#89CDD3"/>
</mask>
<g mask="url(#mask1)">
<path d="M-151.968 162.545L-169 175.699H210.575L197.193 162.545H-151.968Z" fill="#91D7B9"/>
<path d="M-121.083 149.391L-135.552 162.544H186.899L175.53 149.391H-121.083Z" fill="#A2DAAF"/>
<path d="M-84.6628 136.238L-96.4673 149.392H166.605L157.33 136.238H-84.6628Z" fill="#B2DDA5"/>
<path d="M-55.4216 123.084L-64.8989 136.238H146.31L138.864 123.084H-55.4216Z" fill="#C3E09B"/>
<path d="M-37.046 110.146L-44.4551 123.22H120.661L114.839 110.146H-37.046Z" fill="#D3E391"/>
<path d="M-25.5027 97.0723L-30.4131 110.146H79.0185L75.1603 97.0723H-25.5027Z" fill="#E3E687"/>
<path d="M-15.5265 83.998L-18.3076 97.0717H43.6713L41.4862 83.998H-15.5265Z" fill="#F4E97D"/>
<g filter="url(#filter1_d)">
<rect x="19.5684" y="141.705" width="0.91564" height="8.63318" fill="black"/>
<rect x="35.063" y="141.705" width="0.91564" height="8.63318" fill="black"/>
<path d="M17.5215 129.053L26.2201 125.049L36.2267 129.053V142.4H17.5215V129.053Z" fill="black"/>
<rect x="17.6313" y="141.221" width="0.91564" height="8.50237" fill="black"/>
<rect x="33.1265" y="141.221" width="0.91564" height="8.50237" fill="black"/>
<rect x="16.4746" y="140.178" width="20.7981" height="2.61611" fill="black"/>
<g filter="url(#filter2_i)">
<rect x="28.6396" y="133.77" width="4.05498" height="3.27014" fill="#FFB03A"/>
</g>
<g filter="url(#filter3_i)">
<rect x="20.6606" y="133.77" width="4.05498" height="6.40948" fill="#FFB03A"/>
</g>
<path d="M14 130.568L26.3474 125L39.4211 130.568" stroke="black" stroke-width="5.15368"/>
</g>
<path d="M37.1196 141.913L37.1196 137.027" stroke="black"/>
<path d="M35.9922 141.913L35.9922 137.027" stroke="black"/>
<path d="M34.8647 141.913L34.8647 137.027" stroke="black"/>
<path d="M33.7373 141.913L33.7373 137.027" stroke="black"/>
<path d="M32.6099 141.913L32.6099 137.027" stroke="black"/>
<path d="M31.4824 141.913L31.4824 137.027" stroke="black"/>
<path d="M30.355 141.913L30.355 137.027" stroke="black"/>
<path d="M29.2275 141.913L29.2275 137.027" stroke="black"/>
<path d="M28.1001 141.913L28.1001 137.027" stroke="black"/>
<path d="M26.9727 141.913L26.9727 137.027" stroke="black"/>
<path d="M25.8452 141.913L25.8452 137.027" stroke="black"/>
<path d="M24.7178 141.913L24.7178 137.027" stroke="black"/>
<path d="M23.5903 141.913L23.5903 137.027" stroke="black"/>
<path d="M22.4629 141.913L22.4629 137.027" stroke="black"/>
<path d="M21.3354 141.913L21.3354 137.027" stroke="black"/>
<path d="M20.208 141.913L20.208 137.027" stroke="black"/>
<path d="M19.0806 141.913L19.0806 137.027" stroke="black"/>
<path d="M17.9531 141.913L17.9531 137.027" stroke="black"/>
<path d="M16.8257 141.913L16.8257 137.027" stroke="black"/>
<path d="M16.2617 137.027L37.6833 137.027" stroke="black"/>
<g filter="url(#filter4_d)">
<rect x="135.568" y="128.705" width="0.91564" height="8.63318" fill="black"/>
<rect x="151.063" y="128.705" width="0.91564" height="8.63318" fill="black"/>
<path d="M133.521 116.053L142.22 112.049L152.227 116.053V129.4H133.521V116.053Z" fill="black"/>
<rect x="133.631" y="128.221" width="0.91564" height="8.50237" fill="black"/>
<rect x="149.126" y="128.221" width="0.91564" height="8.50237" fill="black"/>
<rect x="132.475" y="127.178" width="20.7981" height="2.61611" fill="black"/>
<g filter="url(#filter5_i)">
<rect x="144.64" y="120.77" width="4.05498" height="3.27014" fill="#FFB03A"/>
</g>
<g filter="url(#filter6_i)">
<rect x="136.661" y="120.77" width="4.05498" height="6.40948" fill="#FFB03A"/>
</g>
<path d="M130 117.568L142.347 112L155.421 117.568" stroke="black" stroke-width="5.15368"/>
</g>
<path d="M153.12 128.913L153.12 124.027" stroke="black"/>
<path d="M151.992 128.913L151.992 124.027" stroke="black"/>
<path d="M150.865 128.913L150.865 124.027" stroke="black"/>
<path d="M149.737 128.913L149.737 124.027" stroke="black"/>
<path d="M148.61 128.913L148.61 124.027" stroke="black"/>
<path d="M147.482 128.913L147.482 124.027" stroke="black"/>
<path d="M146.355 128.913L146.355 124.027" stroke="black"/>
<path d="M145.228 128.913L145.228 124.027" stroke="black"/>
<path d="M144.1 128.913L144.1 124.027" stroke="black"/>
<path d="M142.973 128.913L142.973 124.027" stroke="black"/>
<path d="M141.845 128.913L141.845 124.027" stroke="black"/>
<path d="M140.718 128.913L140.718 124.027" stroke="black"/>
<path d="M139.59 128.913L139.59 124.027" stroke="black"/>
<path d="M138.463 128.913L138.463 124.027" stroke="black"/>
<path d="M137.335 128.913L137.335 124.027" stroke="black"/>
<path d="M136.208 128.913L136.208 124.027" stroke="black"/>
<path d="M135.081 128.913L135.081 124.027" stroke="black"/>
<path d="M133.953 128.913L133.953 124.027" stroke="black"/>
<path d="M132.826 128.913L132.826 124.027" stroke="black"/>
<path d="M132.262 124.027L153.683 124.027" stroke="black"/>
<rect x="51.6372" y="88.5352" width="1.12745" height="8.64379" fill="black"/>
<rect x="67.0459" y="88.5352" width="1.12745" height="8.64379" fill="black"/>
<path d="M49.5215 76.0529L58.2201 72.0488L68.2267 76.0529V89.4H49.5215V76.0529Z" fill="black"/>
<rect x="49.7583" y="88.1602" width="1.12745" height="9.01961" fill="black"/>
<rect x="65.1665" y="88.1602" width="1.12745" height="9.01961" fill="black"/>
<rect x="48.4746" y="87.1797" width="20.7981" height="2.61611" fill="black"/>
<g filter="url(#filter7_i)">
<rect x="60.6396" y="80.7695" width="4.05498" height="3.27014" fill="#FFB03A"/>
</g>
<g filter="url(#filter8_i)">
<rect x="52.6606" y="80.7695" width="4.05498" height="6.40948" fill="#FFB03A"/>
</g>
<path d="M46 77.5684L58.3474 72L71.4211 77.5684" stroke="black" stroke-width="5.15368"/>
<path d="M68.9248 89.6638V84.4023" stroke="black"/>
<path d="M67.7974 89.6638V84.4023" stroke="black"/>
<path d="M66.6699 89.6638V84.4023" stroke="black"/>
<path d="M65.5425 89.6638V84.4023" stroke="black"/>
<path d="M64.415 89.6638V84.4023" stroke="black"/>
<path d="M63.2876 89.6638V84.4023" stroke="black"/>
<path d="M62.1602 89.6638V84.4023" stroke="black"/>
<path d="M61.0327 89.6638V84.4023" stroke="black"/>
<path d="M59.9053 89.6638V84.4023" stroke="black"/>
<path d="M58.7778 89.6638V84.4023" stroke="black"/>
<path d="M57.6504 89.6638V84.4023" stroke="black"/>
<path d="M56.5229 89.6638V84.4023" stroke="black"/>
<path d="M55.3955 89.6638V84.4023" stroke="black"/>
<path d="M54.2681 89.6638V84.4023" stroke="black"/>
<path d="M53.1406 89.6638V84.4023" stroke="black"/>
<path d="M52.0132 89.6638V84.4023" stroke="black"/>
<path d="M50.8857 89.6638V84.4023" stroke="black"/>
<path d="M49.7583 89.6638V84.4023" stroke="black"/>
<path d="M48.6309 89.6638V84.4023" stroke="black"/>
<path d="M48.0669 84.4023H69.4885" stroke="black"/>
</g>
</g>
<g filter="url(#filter9_d)">
<circle cx="236.5" cy="41.5" r="28.5" fill="#FFBD3A"/>
</g>
<path d="M79.6421 99.3867C79.6421 99.3867 80.4627 99.9529 80.9243 99.9529C81.3859 99.9529 79.5908 100.159 79.5908 100.159L79.6421 99.3867Z" fill="#F9B326"/>
<path d="M75.6366 108.371L75.8346 109.334C75.8346 109.334 76.7173 109.962 77.2291 109.996C77.741 110.031 75.3428 109.765 75.3428 109.765L75.5048 108.405L75.6366 108.371Z" fill="#F9B326"/>
<path d="M71 104.353C71 104.353 72.0257 108.264 74.744 108.47C77.4622 108.676 80.3343 108.058 79.6163 103.066C79.3598 101.213 79.565 100.647 79.7188 100.184C79.812 99.9172 79.812 99.6268 79.7188 99.3603C79.7188 99.3603 79.6676 99 79.2573 99C78.847 99 78.9495 99.5661 78.9495 99.8749C78.9495 100.184 79.0521 102.088 78.5905 102.809C78.1289 103.529 77.0006 105.073 74.8978 104.97C72.7951 104.867 71.4616 104.25 71.4616 104.25L71.5642 104.507L71 104.353Z" fill="white"/>
<path d="M79.4878 99.7469C79.5445 99.7469 79.5904 99.7008 79.5904 99.6439C79.5904 99.5871 79.5445 99.541 79.4878 99.541C79.4312 99.541 79.3853 99.5871 79.3853 99.6439C79.3853 99.7008 79.4312 99.7469 79.4878 99.7469Z" fill="black"/>
<path d="M80.6162 100.003C80.6446 100.003 80.6675 99.9911 80.6675 99.9769C80.6675 99.9627 80.6446 99.9512 80.6162 99.9512C80.5879 99.9512 80.5649 99.9627 80.5649 99.9769C80.5649 99.9911 80.5879 100.003 80.6162 100.003Z" fill="#C68614"/>
<path d="M77.533 108.219L77.7956 109.166C77.7956 109.166 78.7187 109.732 79.2316 109.732C79.7445 109.732 77.334 109.629 77.334 109.629L77.4037 108.261L77.533 108.219Z" fill="#F9B326"/>
<path d="M77.8472 104.996C77.8472 104.996 75.0777 106.334 73.6929 105.974C72.3082 105.614 74.3597 108.136 75.7957 107.569C77.2318 107.003 77.8472 104.996 77.8472 104.996Z" fill="#F9F5ED"/>
<path d="M84.3579 99.3867C84.3579 99.3867 83.5373 99.9529 83.0757 99.9529C82.6141 99.9529 84.4092 100.159 84.4092 100.159L84.3579 99.3867Z" fill="#F9B326"/>
<path d="M88.3634 108.371L88.1654 109.334C88.1654 109.334 87.2827 109.962 86.7709 109.996C86.259 110.031 88.6572 109.765 88.6572 109.765L88.4952 108.405L88.3634 108.371Z" fill="#F9B326"/>
<path d="M93 104.353C93 104.353 91.9743 108.264 89.256 108.47C86.5378 108.676 83.6657 108.058 84.3837 103.066C84.6402 101.213 84.435 100.647 84.2812 100.184C84.188 99.9172 84.188 99.6268 84.2812 99.3603C84.2812 99.3603 84.3324 99 84.7427 99C85.153 99 85.0505 99.5661 85.0505 99.8749C85.0505 100.184 84.9479 102.088 85.4095 102.809C85.8711 103.529 86.9994 105.073 89.1022 104.97C91.2049 104.867 92.5384 104.25 92.5384 104.25L92.4358 104.507L93 104.353Z" fill="white"/>
<path d="M84.5122 99.7469C84.4555 99.7469 84.4096 99.7008 84.4096 99.6439C84.4096 99.5871 84.4555 99.541 84.5122 99.541C84.5688 99.541 84.6147 99.5871 84.6147 99.6439C84.6147 99.7008 84.5688 99.7469 84.5122 99.7469Z" fill="black"/>
<path d="M83.3838 100.003C83.3554 100.003 83.3325 99.9911 83.3325 99.9769C83.3325 99.9627 83.3554 99.9512 83.3838 99.9512C83.4121 99.9512 83.4351 99.9627 83.4351 99.9769C83.4351 99.9911 83.4121 100.003 83.3838 100.003Z" fill="#C68614"/>
<path d="M86.467 108.219L86.2044 109.166C86.2044 109.166 85.2813 109.732 84.7684 109.732C84.2555 109.732 86.666 109.629 86.666 109.629L86.5963 108.261L86.467 108.219Z" fill="#F9B326"/>
<path d="M86.1528 104.996C86.1528 104.996 88.9223 106.334 90.3071 105.974C91.6918 105.614 89.6403 108.136 88.2043 107.569C86.7682 107.003 86.1528 104.996 86.1528 104.996Z" fill="#F9F5ED"/>
<path d="M96.543 105.176C96.543 105.176 96.2147 105.433 96.0301 105.433C95.8455 105.433 96.5635 105.527 96.5635 105.527L96.543 105.176Z" fill="#F9B326"/>
<path d="M98.1451 109.26L98.066 109.697C98.066 109.697 97.7129 109.983 97.5082 109.999C97.3034 110.014 98.2627 109.893 98.2627 109.893L98.1979 109.275L98.1451 109.26Z" fill="#F9B326"/>
<path d="M100 107.433C100 107.433 99.5897 109.211 98.5024 109.305C97.4151 109.398 96.2663 109.117 96.5535 106.848C96.6561 106.006 96.574 105.749 96.5125 105.538C96.4752 105.417 96.4752 105.285 96.5125 105.164C96.5125 105.164 96.533 105 96.6971 105C96.8612 105 96.8202 105.257 96.8202 105.398C96.8202 105.538 96.7792 106.404 96.9638 106.731C97.1484 107.059 97.5998 107.761 98.4409 107.714C99.282 107.667 99.8154 107.386 99.8154 107.386L99.7743 107.503L100 107.433Z" fill="#F4E97D"/>
<path d="M96.605 105.34C96.5823 105.34 96.5639 105.319 96.5639 105.293C96.5639 105.267 96.5823 105.246 96.605 105.246C96.6276 105.246 96.646 105.267 96.646 105.293C96.646 105.319 96.6276 105.34 96.605 105.34Z" fill="black"/>
<path d="M96.1533 105.455C96.142 105.455 96.1328 105.45 96.1328 105.443C96.1328 105.437 96.142 105.432 96.1533 105.432C96.1646 105.432 96.1738 105.437 96.1738 105.443C96.1738 105.45 96.1646 105.455 96.1533 105.455Z" fill="#C68614"/>
<path d="M97.3867 109.189L97.2817 109.62C97.2817 109.62 96.9124 109.877 96.7073 109.877C96.5021 109.877 97.4663 109.83 97.4663 109.83L97.4384 109.209L97.3867 109.189Z" fill="#F9B326"/>
<path d="M97.2609 107.725C97.2609 107.725 98.3687 108.333 98.9226 108.169C99.4765 108.005 98.6559 109.152 98.0815 108.894C97.5071 108.637 97.2609 107.725 97.2609 107.725Z" fill="#FFF7AC"/>
<path d="M102.543 105.176C102.543 105.176 102.215 105.433 102.03 105.433C101.845 105.433 102.563 105.527 102.563 105.527L102.543 105.176Z" fill="#F9B326"/>
<path d="M104.145 109.26L104.066 109.697C104.066 109.697 103.713 109.983 103.508 109.999C103.303 110.014 104.263 109.893 104.263 109.893L104.198 109.275L104.145 109.26Z" fill="#F9B326"/>
<path d="M106 107.433C106 107.433 105.59 109.211 104.502 109.305C103.415 109.398 102.266 109.117 102.554 106.848C102.656 106.006 102.574 105.749 102.512 105.538C102.475 105.417 102.475 105.285 102.512 105.164C102.512 105.164 102.533 105 102.697 105C102.861 105 102.82 105.257 102.82 105.398C102.82 105.538 102.779 106.404 102.964 106.731C103.148 107.059 103.6 107.761 104.441 107.714C105.282 107.667 105.815 107.386 105.815 107.386L105.774 107.503L106 107.433Z" fill="#F4E97D"/>
<path d="M102.605 105.34C102.582 105.34 102.564 105.319 102.564 105.293C102.564 105.267 102.582 105.246 102.605 105.246C102.628 105.246 102.646 105.267 102.646 105.293C102.646 105.319 102.628 105.34 102.605 105.34Z" fill="black"/>
<path d="M102.153 105.455C102.142 105.455 102.133 105.45 102.133 105.443C102.133 105.437 102.142 105.432 102.153 105.432C102.165 105.432 102.174 105.437 102.174 105.443C102.174 105.45 102.165 105.455 102.153 105.455Z" fill="#C68614"/>
<path d="M103.387 109.189L103.282 109.62C103.282 109.62 102.912 109.877 102.707 109.877C102.502 109.877 103.466 109.83 103.466 109.83L103.438 109.209L103.387 109.189Z" fill="#F9B326"/>
<path d="M103.261 107.725C103.261 107.725 104.369 108.333 104.923 108.169C105.477 108.005 104.656 109.152 104.082 108.894C103.507 108.637 103.261 107.725 103.261 107.725Z" fill="#FFF7AC"/>
<path d="M108.543 105.176C108.543 105.176 108.215 105.433 108.03 105.433C107.845 105.433 108.563 105.527 108.563 105.527L108.543 105.176Z" fill="#F9B326"/>
<path d="M110.145 109.26L110.066 109.697C110.066 109.697 109.713 109.983 109.508 109.999C109.303 110.014 110.263 109.893 110.263 109.893L110.198 109.275L110.145 109.26Z" fill="#F9B326"/>
<path d="M112 107.433C112 107.433 111.59 109.211 110.502 109.305C109.415 109.398 108.266 109.117 108.554 106.848C108.656 106.006 108.574 105.749 108.512 105.538C108.475 105.417 108.475 105.285 108.512 105.164C108.512 105.164 108.533 105 108.697 105C108.861 105 108.82 105.257 108.82 105.398C108.82 105.538 108.779 106.404 108.964 106.731C109.148 107.059 109.6 107.761 110.441 107.714C111.282 107.667 111.815 107.386 111.815 107.386L111.774 107.503L112 107.433Z" fill="#F4E97D"/>
<path d="M108.605 105.34C108.582 105.34 108.564 105.319 108.564 105.293C108.564 105.267 108.582 105.246 108.605 105.246C108.628 105.246 108.646 105.267 108.646 105.293C108.646 105.319 108.628 105.34 108.605 105.34Z" fill="black"/>
<path d="M108.153 105.455C108.142 105.455 108.133 105.45 108.133 105.443C108.133 105.437 108.142 105.432 108.153 105.432C108.165 105.432 108.174 105.437 108.174 105.443C108.174 105.45 108.165 105.455 108.153 105.455Z" fill="#C68614"/>
<path d="M109.387 109.189L109.282 109.62C109.282 109.62 108.912 109.877 108.707 109.877C108.502 109.877 109.466 109.83 109.466 109.83L109.438 109.209L109.387 109.189Z" fill="#F9B326"/>
<path d="M109.261 107.725C109.261 107.725 110.369 108.333 110.923 108.169C111.477 108.005 110.656 109.152 110.082 108.894C109.507 108.637 109.261 107.725 109.261 107.725Z" fill="#FFF7AC"/>
<g filter="url(#filter10_d)">
<path fill-rule="evenodd" clip-rule="evenodd" d="M214.216 49.2393H221.297C223.223 49.2393 224.784 50.8005 224.784 52.7263C224.784 53.2136 224.684 53.6776 224.503 54.0988H230.173C232.099 54.0988 233.66 55.66 233.66 57.5858C233.66 58.2433 233.478 58.8584 233.161 59.3833H235.773C238.108 59.3833 240 61.2756 240 63.6099C240 65.9442 238.108 67.8366 235.773 67.8366H162.018C159.684 67.8366 157.792 65.9442 157.792 63.6099C157.792 61.2756 159.684 59.3833 162.018 59.3833H164.63C164.313 58.8584 164.131 58.2433 164.131 57.5858C164.131 55.66 165.692 54.0988 167.618 54.0988H173.288C173.107 53.6776 173.007 53.2136 173.007 52.7263C173.007 50.8005 174.569 49.2393 176.494 49.2393H183.576C183.631 47.3621 185.17 45.8574 187.061 45.8574H210.73C212.621 45.8574 214.16 47.3621 214.216 49.2393Z" fill="#FFF6F0"/>
<path fill-rule="evenodd" clip-rule="evenodd" d="M169.645 37.8144H177.633C179.805 37.8144 181.566 39.5754 181.566 41.7477C181.566 42.298 181.453 42.8219 181.249 43.2975H187.645C189.817 43.2975 191.578 45.0585 191.578 47.2308C191.578 47.9722 191.373 48.6657 191.016 49.2576H193.962C196.595 49.2576 198.729 51.3922 198.729 54.0252C198.729 56.6583 196.595 58.7928 193.962 58.7928H110.768C108.135 58.7928 106 56.6583 106 54.0252C106 51.3922 108.135 49.2576 110.768 49.2576H113.713C113.356 48.6657 113.151 47.9722 113.151 47.2308C113.151 45.0585 114.912 43.2975 117.085 43.2975H123.481C123.276 42.8219 123.163 42.298 123.163 41.7477C123.163 39.5754 124.924 37.8144 127.097 37.8144H135.084C135.146 35.6971 136.883 34 139.015 34H165.714C167.846 34 169.582 35.6971 169.645 37.8144Z" fill="#FFF1E8"/>
</g>
</g>
<defs>
<filter id="filter0_d" x="0" y="53.7264" width="241.497" height="137.433" filterUnits="userSpaceOnUse" color-interpolation-filters="sRGB">
<feFlood flood-opacity="0" result="BackgroundImageFix"/>
<feColorMatrix in="SourceAlpha" type="matrix" values="0 0 0 0 0 0 0 0 0 0 0 0 0 0 0 0 0 0 127 0"/>
<feOffset dx="15.4611"/>
<feGaussianBlur stdDeviation="7.73053"/>
<feColorMatrix type="matrix" values="0 0 0 0 0 0 0 0 0 0 0 0 0 0 0 0 0 0 0.1 0"/>
<feBlend mode="normal" in2="BackgroundImageFix" result="effect1_dropShadow"/>
<feBlend mode="normal" in="SourceGraphic" in2="effect1_dropShadow" result="shape"/>
</filter>
<filter id="filter1_d" x="12.9404" y="112.188" width="41.4902" height="40.1508" filterUnits="userSpaceOnUse" color-interpolation-filters="sRGB">
<feFlood flood-opacity="0" result="BackgroundImageFix"/>
<feColorMatrix in="SourceAlpha" type="matrix" values="0 0 0 0 0 0 0 0 0 0 0 0 0 0 0 0 0 0 127 0"/>
<feOffset dx="8" dy="-4"/>
<feGaussianBlur stdDeviation="3"/>
<feColorMatrix type="matrix" values="0 0 0 0 0 0 0 0 0 0 0 0 0 0 0 0 0 0 0.1 0"/>
<feBlend mode="normal" in2="BackgroundImageFix" result="effect1_dropShadow"/>
<feBlend mode="normal" in="SourceGraphic" in2="effect1_dropShadow" result="shape"/>
</filter>
<filter id="filter2_i" x="28.6396" y="133.77" width="4.55498" height="3.77014" filterUnits="userSpaceOnUse" color-interpolation-filters="sRGB">
<feFlood flood-opacity="0" result="BackgroundImageFix"/>
<feBlend mode="normal" in="SourceGraphic" in2="BackgroundImageFix" result="shape"/>
<feColorMatrix in="SourceAlpha" type="matrix" values="0 0 0 0 0 0 0 0 0 0 0 0 0 0 0 0 0 0 127 0" result="hardAlpha"/>
<feOffset dx="1.5" dy="1"/>
<feGaussianBlur stdDeviation="0.25"/>
<feComposite in2="hardAlpha" operator="arithmetic" k2="-1" k3="1"/>
<feColorMatrix type="matrix" values="0 0 0 0 0 0 0 0 0 0 0 0 0 0 0 0 0 0 0.25 0"/>
<feBlend mode="normal" in2="shape" result="effect1_innerShadow"/>
</filter>
<filter id="filter3_i" x="20.6606" y="133.77" width="4.55498" height="6.90948" filterUnits="userSpaceOnUse" color-interpolation-filters="sRGB">
<feFlood flood-opacity="0" result="BackgroundImageFix"/>
<feBlend mode="normal" in="SourceGraphic" in2="BackgroundImageFix" result="shape"/>
<feColorMatrix in="SourceAlpha" type="matrix" values="0 0 0 0 0 0 0 0 0 0 0 0 0 0 0 0 0 0 127 0" result="hardAlpha"/>
<feOffset dx="1.5" dy="1"/>
<feGaussianBlur stdDeviation="0.25"/>
<feComposite in2="hardAlpha" operator="arithmetic" k2="-1" k3="1"/>
<feColorMatrix type="matrix" values="0 0 0 0 0 0 0 0 0 0 0 0 0 0 0 0 0 0 0.25 0"/>
<feBlend mode="normal" in2="shape" result="effect1_innerShadow"/>
</filter>
<filter id="filter4_d" x="128.94" y="99.1875" width="41.4902" height="40.1508" filterUnits="userSpaceOnUse" color-interpolation-filters="sRGB">
<feFlood flood-opacity="0" result="BackgroundImageFix"/>
<feColorMatrix in="SourceAlpha" type="matrix" values="0 0 0 0 0 0 0 0 0 0 0 0 0 0 0 0 0 0 127 0"/>
<feOffset dx="8" dy="-4"/>
<feGaussianBlur stdDeviation="3"/>
<feColorMatrix type="matrix" values="0 0 0 0 0 0 0 0 0 0 0 0 0 0 0 0 0 0 0.1 0"/>
<feBlend mode="normal" in2="BackgroundImageFix" result="effect1_dropShadow"/>
<feBlend mode="normal" in="SourceGraphic" in2="effect1_dropShadow" result="shape"/>
</filter>
<filter id="filter5_i" x="144.64" y="120.77" width="4.55498" height="3.77014" filterUnits="userSpaceOnUse" color-interpolation-filters="sRGB">
<feFlood flood-opacity="0" result="BackgroundImageFix"/>
<feBlend mode="normal" in="SourceGraphic" in2="BackgroundImageFix" result="shape"/>
<feColorMatrix in="SourceAlpha" type="matrix" values="0 0 0 0 0 0 0 0 0 0 0 0 0 0 0 0 0 0 127 0" result="hardAlpha"/>
<feOffset dx="1.5" dy="1"/>
<feGaussianBlur stdDeviation="0.25"/>
<feComposite in2="hardAlpha" operator="arithmetic" k2="-1" k3="1"/>
<feColorMatrix type="matrix" values="0 0 0 0 0 0 0 0 0 0 0 0 0 0 0 0 0 0 0.25 0"/>
<feBlend mode="normal" in2="shape" result="effect1_innerShadow"/>
</filter>
<filter id="filter6_i" x="136.661" y="120.77" width="4.55498" height="6.90948" filterUnits="userSpaceOnUse" color-interpolation-filters="sRGB">
<feFlood flood-opacity="0" result="BackgroundImageFix"/>
<feBlend mode="normal" in="SourceGraphic" in2="BackgroundImageFix" result="shape"/>
<feColorMatrix in="SourceAlpha" type="matrix" values="0 0 0 0 0 0 0 0 0 0 0 0 0 0 0 0 0 0 127 0" result="hardAlpha"/>
<feOffset dx="1.5" dy="1"/>
<feGaussianBlur stdDeviation="0.25"/>
<feComposite in2="hardAlpha" operator="arithmetic" k2="-1" k3="1"/>
<feColorMatrix type="matrix" values="0 0 0 0 0 0 0 0 0 0 0 0 0 0 0 0 0 0 0.25 0"/>
<feBlend mode="normal" in2="shape" result="effect1_innerShadow"/>
</filter>
<filter id="filter7_i" x="60.6396" y="80.7695" width="4.55498" height="3.77014" filterUnits="userSpaceOnUse" color-interpolation-filters="sRGB">
<feFlood flood-opacity="0" result="BackgroundImageFix"/>
<feBlend mode="normal" in="SourceGraphic" in2="BackgroundImageFix" result="shape"/>
<feColorMatrix in="SourceAlpha" type="matrix" values="0 0 0 0 0 0 0 0 0 0 0 0 0 0 0 0 0 0 127 0" result="hardAlpha"/>
<feOffset dx="1.5" dy="1"/>
<feGaussianBlur stdDeviation="0.25"/>
<feComposite in2="hardAlpha" operator="arithmetic" k2="-1" k3="1"/>
<feColorMatrix type="matrix" values="0 0 0 0 0 0 0 0 0 0 0 0 0 0 0 0 0 0 0.25 0"/>
<feBlend mode="normal" in2="shape" result="effect1_innerShadow"/>
</filter>
<filter id="filter8_i" x="52.6606" y="80.7695" width="4.55498" height="6.90948" filterUnits="userSpaceOnUse" color-interpolation-filters="sRGB">
<feFlood flood-opacity="0" result="BackgroundImageFix"/>
<feBlend mode="normal" in="SourceGraphic" in2="BackgroundImageFix" result="shape"/>
<feColorMatrix in="SourceAlpha" type="matrix" values="0 0 0 0 0 0 0 0 0 0 0 0 0 0 0 0 0 0 127 0" result="hardAlpha"/>
<feOffset dx="1.5" dy="1"/>
<feGaussianBlur stdDeviation="0.25"/>
<feComposite in2="hardAlpha" operator="arithmetic" k2="-1" k3="1"/>
<feColorMatrix type="matrix" values="0 0 0 0 0 0 0 0 0 0 0 0 0 0 0 0 0 0 0.25 0"/>
<feBlend mode="normal" in2="shape" result="effect1_innerShadow"/>
</filter>
<filter id="filter9_d" x="206.843" y="8.37056" width="63.9442" height="63.9442" filterUnits="userSpaceOnUse" color-interpolation-filters="sRGB">
<feFlood flood-opacity="0" result="BackgroundImageFix"/>
<feColorMatrix in="SourceAlpha" type="matrix" values="0 0 0 0 0 0 0 0 0 0 0 0 0 0 0 0 0 0 127 0"/>
<feOffset dx="2.31472" dy="-1.15736"/>
<feGaussianBlur stdDeviation="1.73604"/>
<feColorMatrix type="matrix" values="0 0 0 0 0 0 0 0 0 0 0 0 0 0 0 0 0 0 0.1 0"/>
<feBlend mode="normal" in2="BackgroundImageFix" result="effect1_dropShadow"/>
<feBlend mode="normal" in="SourceGraphic" in2="effect1_dropShadow" result="shape"/>
</filter>
<filter id="filter10_d" x="104" y="32" width="142" height="41.8366" filterUnits="userSpaceOnUse" color-interpolation-filters="sRGB">
<feFlood flood-opacity="0" result="BackgroundImageFix"/>
<feColorMatrix in="SourceAlpha" type="matrix" values="0 0 0 0 0 0 0 0 0 0 0 0 0 0 0 0 0 0 127 0"/>
<feOffset dx="2" dy="2"/>
<feGaussianBlur stdDeviation="2"/>
<feColorMatrix type="matrix" values="0 0 0 0 0 0 0 0 0 0 0 0 0 0 0 0 0 0 0.25 0"/>
<feBlend mode="normal" in2="BackgroundImageFix" result="effect1_dropShadow"/>
<feBlend mode="normal" in="SourceGraphic" in2="effect1_dropShadow" result="shape"/>
</filter>
</defs>
</svg>
