<svg width="166" height="166" viewBox="0 0 166 166" fill="none" xmlns="http://www.w3.org/2000/svg">
<g filter="url(#filter0_d)">
<g filter="url(#filter1_d)">
<path fill-rule="evenodd" clip-rule="evenodd" d="M47.5591 49.4892C57.7152 52.3033 63.722 62.7857 60.989 72.9855C58.6075 81.8733 50.3715 87.6274 41.5421 87.2137L31.5485 124.51C31.4857 124.745 31.3277 124.942 31.1127 125.054L27.1646 127.118C26.7687 127.325 26.28 127.197 26.0363 126.822L23.6727 123.189C23.5385 122.982 23.4983 122.729 23.562 122.491L26.2216 112.565C26.2853 112.328 26.4468 112.129 26.6659 112.017L29.9597 110.341C30.4491 110.092 30.5866 109.456 30.244 109.027L28.2153 106.487C28.0436 106.271 27.9843 105.987 28.0555 105.721L30.9204 103.966C30.9425 103.883 30.7292 103.49 30.458 102.99C30.0696 102.274 29.5625 101.34 29.4587 100.786C29.4219 100.59 29.8786 99.9422 29.9175 99.9232L33.4154 98.2155C33.9313 97.9639 34.0645 97.2893 33.6831 96.8604L31.4935 94.3978C31.2997 94.1795 31.2285 93.8789 31.304 93.5972L33.5857 85.0818C25.6684 80.9923 21.4076 71.7757 23.9175 62.8194C26.7633 52.6642 37.3957 46.6731 47.5591 49.4892ZM48.4342 61.8322C47.8329 64.0763 45.5262 65.4081 43.2821 64.8068C41.038 64.2055 39.7062 61.8988 40.3075 59.6547C40.9088 57.4106 43.2155 56.0788 45.4596 56.6801C47.7037 57.2814 49.0355 59.5881 48.4342 61.8322Z" fill="#FFBD3A"/>
<path fill-rule="evenodd" clip-rule="evenodd" d="M57.2192 72.0818C55.0257 80.2679 46.6115 85.1259 38.4254 82.9324C30.2393 80.739 25.3813 72.3247 27.5748 64.1386C29.7682 55.9525 38.1825 51.0946 46.3686 53.288C54.5547 55.4815 59.4126 63.8957 57.2192 72.0818ZM48.4333 61.8332C47.832 64.0773 45.5253 65.4091 43.2812 64.8078C41.0371 64.2064 39.7053 61.8998 40.3066 59.6557C40.9079 57.4115 43.2146 56.0798 45.4587 56.6811C47.7028 57.2824 49.0346 59.5891 48.4333 61.8332Z" fill="#FFD072"/>
<path d="M44.5398 64.5854C44.5398 55.1052 52.225 47.4199 61.7052 47.4199C71.1854 47.4199 78.8707 55.1052 78.8707 64.5854C78.8707 64.5854 80.1191 82.0629 57.6479 79.5661" stroke="#C4C4C4" stroke-width="3"/>
<path d="M112.733 47.5413C106.16 45.866 79.6504 61.8981 74.501 72.8213C78.2459 87.022 95.4004 108.829 105.711 111.834C116.79 110.585 148.06 78.7523 144.255 76.8786C131.19 60.1677 126.988 52.6549 112.733 47.5413Z" fill="#2C5291"/>
<path d="M120.847 36.8213C113.868 33.2019 110.353 32.9198 105.086 36.8213C105.133 41.5875 106.652 43.872 111.641 47.2767C118.388 45.9941 120.435 43.7288 120.847 36.8213Z" fill="#C4C4C4"/>
<path d="M110.86 34.6366C109.736 34.5118 107.167 35.937 106.022 36.6652H109.923C110.704 36.041 111.983 34.7614 110.86 34.6366Z" fill="#AEADAD"/>
<path d="M110.86 34.6366C109.736 34.5118 107.167 35.937 106.022 36.6652H109.923C110.704 36.041 111.983 34.7614 110.86 34.6366Z" fill="#AEADAD"/>
<path d="M120.068 36.9763C118.819 36.1024 116.01 35.4678 114.762 35.2598C114.762 35.2598 117.415 38.3808 118.663 38.2247C119.911 38.0687 121.316 37.8502 120.068 36.9763Z" fill="#AEADAD"/>
<path d="M111.522 38.2542C110.87 37.5088 111.974 36.061 113.223 35.2806C114.315 34.9687 114.783 38.2542 114.783 38.7201C114.783 39.186 112.337 39.186 111.522 38.2542Z" fill="#AEADAD"/>
<path d="M155.178 86.2766C158.798 79.2971 159.08 75.782 155.178 70.5156C150.412 70.562 148.128 72.0812 144.723 77.0697C146.006 83.8171 148.271 85.8639 155.178 86.2766Z" fill="#C4C4C4"/>
<path d="M157.364 76.2887C157.489 75.1651 156.063 72.5955 155.335 71.4512L155.335 75.3524C155.959 76.1327 157.239 77.4123 157.364 76.2887Z" fill="#AEADAD"/>
<path d="M157.364 76.2887C157.489 75.1651 156.063 72.5955 155.335 71.4512L155.335 75.3524C155.959 76.1327 157.239 77.4123 157.364 76.2887Z" fill="#AEADAD"/>
<path d="M155.023 85.4971C155.897 84.2487 156.532 81.4398 156.74 80.1914C156.74 80.1914 153.619 82.8442 153.775 84.0926C153.931 85.341 154.149 86.7455 155.023 85.4971Z" fill="#AEADAD"/>
<path d="M153.745 76.9513C154.491 76.2991 155.938 77.4036 156.719 78.652C157.031 79.7443 153.745 80.2124 153.279 80.2124C152.814 80.2124 152.814 77.7666 153.745 76.9513Z" fill="#AEADAD"/>
<path d="M96.9717 122.479C103.951 126.099 107.466 126.381 112.733 122.479C112.686 117.713 111.167 115.429 106.179 112.024C99.4312 113.307 97.3844 115.572 96.9717 122.479Z" fill="#C4C4C4"/>
<path d="M106.959 124.666C108.083 124.791 110.653 123.366 111.797 122.637L107.896 122.637C107.115 123.262 105.836 124.541 106.959 124.666Z" fill="#AEADAD"/>
<path d="M106.959 124.666C108.083 124.791 110.653 123.366 111.797 122.637L107.896 122.637C107.115 123.262 105.836 124.541 106.959 124.666Z" fill="#AEADAD"/>
<path d="M97.7524 122.324C99.0008 123.198 101.81 123.833 103.058 124.041C103.058 124.041 100.405 120.92 99.1569 121.076C97.9085 121.232 96.504 121.451 97.7524 122.324Z" fill="#AEADAD"/>
<path d="M106.298 121.047C106.95 121.792 105.845 123.24 104.597 124.02C103.505 124.332 103.037 121.047 103.037 120.581C103.037 120.115 105.483 120.115 106.298 121.047Z" fill="#AEADAD"/>
<path d="M112.109 49.2922C108.2 48.7784 107.006 50.6978 104.306 53.5536C97.936 60.2921 109.494 75.8206 109.494 75.8206C109.494 75.8206 123.813 60.4933 117.727 53.5536C115.7 51.2421 115.168 49.6943 112.109 49.2922Z" fill="#466FB1"/>
<path d="M106.281 107.655C110.19 108.169 111.384 106.249 114.084 103.394C120.454 96.6552 108.896 81.1266 108.896 81.1266C108.896 81.1266 94.5771 96.4539 100.663 103.394C102.69 105.705 103.222 107.253 106.281 107.655Z" fill="#466FB1"/>
<path d="M138.481 79.9212C138.995 76.0121 137.075 74.8186 134.219 72.1188C127.481 65.7484 112.733 78.6297 112.733 78.6297C112.733 78.6297 127.28 91.6253 134.219 85.5392C136.531 83.5119 138.079 82.9802 138.481 79.9212Z" fill="#466FB1"/>
<path d="M78.3449 72.1139C76.8369 75.7568 78.382 77.4064 80.4417 80.7533C85.3018 88.6507 105.242 78.0069 105.242 78.0069C105.242 78.0069 92.1936 63.7076 83.9151 67.7903C81.1577 69.1502 79.525 69.2632 78.3449 72.1139Z" fill="#466FB1"/>
</g>
</g>
<defs>
<filter id="filter0_d" x="-4" y="0" width="174" height="174" filterUnits="userSpaceOnUse" color-interpolation-filters="sRGB">
<feFlood flood-opacity="0" result="BackgroundImageFix"/>
<feColorMatrix in="SourceAlpha" type="matrix" values="0 0 0 0 0 0 0 0 0 0 0 0 0 0 0 0 0 0 127 0"/>
<feOffset dy="4"/>
<feGaussianBlur stdDeviation="2"/>
<feColorMatrix type="matrix" values="0 0 0 0 0 0 0 0 0 0 0 0 0 0 0 0 0 0 0.25 0"/>
<feBlend mode="normal" in2="BackgroundImageFix" result="effect1_dropShadow"/>
<feBlend mode="normal" in="SourceGraphic" in2="effect1_dropShadow" result="shape"/>
</filter>
<filter id="filter1_d" x="19.1985" y="34" width="142.801" height="101.216" filterUnits="userSpaceOnUse" color-interpolation-filters="sRGB">
<feFlood flood-opacity="0" result="BackgroundImageFix"/>
<feColorMatrix in="SourceAlpha" type="matrix" values="0 0 0 0 0 0 0 0 0 0 0 0 0 0 0 0 0 0 127 0"/>
<feOffset dy="4"/>
<feGaussianBlur stdDeviation="2"/>
<feColorMatrix type="matrix" values="0 0 0 0 0 0 0 0 0 0 0 0 0 0 0 0 0 0 0.25 0"/>
<feBlend mode="normal" in2="BackgroundImageFix" result="effect1_dropShadow"/>
<feBlend mode="normal" in="SourceGraphic" in2="effect1_dropShadow" result="shape"/>
</filter>
</defs>
</svg>
