<svg fill="none" height="684" viewBox="0 0 1194 684" width="1194" xmlns="http://www.w3.org/2000/svg" xmlns:xlink="http://www.w3.org/1999/xlink"><filter id="a" color-interpolation-filters="sRGB" filterUnits="userSpaceOnUse" height="481.137" width="266.434" x="429.558" y="151.68"><feFlood flood-opacity="0" result="BackgroundImageFix"/><feColorMatrix in="SourceAlpha" type="matrix" values="0 0 0 0 0 0 0 0 0 0 0 0 0 0 0 0 0 0 127 0"/><feOffset dx="18.4168" dy="-9.20839"/><feGaussianBlur stdDeviation="13.8126"/><feColorMatrix type="matrix" values="0 0 0 0 0 0 0 0 0 0 0 0 0 0 0 0 0 0 0.1 0"/><feBlend in2="BackgroundImageFix" mode="normal" result="effect1_dropShadow"/><feBlend in="SourceGraphic" in2="effect1_dropShadow" mode="normal" result="shape"/></filter><filter id="b" color-interpolation-filters="sRGB" filterUnits="userSpaceOnUse" height="120.273" width="119.245" x="436.575" y="500.215"><feFlood flood-opacity="0" result="BackgroundImageFix"/><feColorMatrix in="SourceAlpha" type="matrix" values="0 0 0 0 0 0 0 0 0 0 0 0 0 0 0 0 0 0 127 0"/><feOffset dx="6" dy="6"/><feGaussianBlur stdDeviation="4"/><feColorMatrix type="matrix" values="0 0 0 0 0 0 0 0 0 0 0 0 0 0 0 0 0 0 0.2 0"/><feBlend in2="BackgroundImageFix" mode="normal" result="effect1_dropShadow"/><feBlend in="SourceGraphic" in2="effect1_dropShadow" mode="normal" result="shape"/></filter><filter id="c" color-interpolation-filters="sRGB" filterUnits="userSpaceOnUse" height="17.0602" width="18.6467" x="603.25" y="568.803"><feFlood flood-opacity="0" result="BackgroundImageFix"/><feBlend in="SourceGraphic" in2="BackgroundImageFix" mode="normal" result="shape"/><feGaussianBlur result="effect1_foregroundBlur" stdDeviation="2.28674"/></filter><filter id="d" color-interpolation-filters="sRGB" filterUnits="userSpaceOnUse" height="29.4598" width="33.6771" x="569.436" y="555.851"><feFlood flood-opacity="0" result="BackgroundImageFix"/><feBlend in="SourceGraphic" in2="BackgroundImageFix" mode="normal" result="shape"/><feGaussianBlur result="effect1_foregroundBlur" stdDeviation="3.31577"/></filter><filter id="e" color-interpolation-filters="sRGB" filterUnits="userSpaceOnUse" height="367.624" width="224.443" x="-120.312" y="275.6"><feFlood flood-opacity="0" result="BackgroundImageFix"/><feColorMatrix in="SourceAlpha" type="matrix" values="0 0 0 0 0 0 0 0 0 0 0 0 0 0 0 0 0 0 127 0"/><feOffset dx="13.5779" dy="-6.78893"/><feGaussianBlur stdDeviation="10.1834"/><feColorMatrix type="matrix" values="0 0 0 0 0 0 0 0 0 0 0 0 0 0 0 0 0 0 0.1 0"/><feBlend in2="BackgroundImageFix" mode="normal" result="effect1_dropShadow"/><feBlend in="SourceGraphic" in2="effect1_dropShadow" mode="normal" result="shape"/></filter><filter id="f" color-interpolation-filters="sRGB" filterUnits="userSpaceOnUse" height="456.686" width="360.825" x="958.16" y="196.337"><feFlood flood-opacity="0" result="BackgroundImageFix"/><feColorMatrix in="SourceAlpha" type="matrix" values="0 0 0 0 0 0 0 0 0 0 0 0 0 0 0 0 0 0 127 0"/><feOffset dx="15.8684" dy="-7.93422"/><feGaussianBlur stdDeviation="11.9013"/><feColorMatrix type="matrix" values="0 0 0 0 0 0 0 0 0 0 0 0 0 0 0 0 0 0 0.1 0"/><feBlend in2="BackgroundImageFix" mode="normal" result="effect1_dropShadow"/><feBlend in="SourceGraphic" in2="effect1_dropShadow" mode="normal" result="shape"/></filter><filter id="g" color-interpolation-filters="sRGB" filterUnits="userSpaceOnUse" height="124.741" width="1224.72" x="0" y="563.755"><feFlood flood-opacity="0" result="BackgroundImageFix"/><feColorMatrix in="SourceAlpha" type="matrix" values="0 0 0 0 0 0 0 0 0 0 0 0 0 0 0 0 0 0 127 0"/><feOffset dx="23.021"/><feGaussianBlur stdDeviation="2.3021"/><feColorMatrix type="matrix" values="0 0 0 0 0.4125 0 0 0 0 0.4125 0 0 0 0 0.4125 0 0 0 0.1 0"/><feBlend in2="BackgroundImageFix" mode="normal" result="effect1_dropShadow"/><feBlend in="SourceGraphic" in2="effect1_dropShadow" mode="normal" result="shape"/></filter><filter id="h" color-interpolation-filters="sRGB" filterUnits="userSpaceOnUse" height="71.6398" width="68.2583" x="654.24" y="469.607"><feFlood flood-opacity="0" result="BackgroundImageFix"/><feColorMatrix in="SourceAlpha" type="matrix" values="0 0 0 0 0 0 0 0 0 0 0 0 0 0 0 0 0 0 127 0"/><feOffset dx="9.20839" dy="-4.60419"/><feGaussianBlur stdDeviation="1.15105"/><feColorMatrix type="matrix" values="0 0 0 0 0 0 0 0 0 0 0 0 0 0 0 0 0 0 0.1 0"/><feBlend in2="BackgroundImageFix" mode="normal" result="effect1_dropShadow"/><feBlend in="SourceGraphic" in2="effect1_dropShadow" mode="normal" result="shape"/></filter><filter id="i" color-interpolation-filters="sRGB" filterUnits="userSpaceOnUse" height="55.4427" width="78.3918" x="1047.94" y="492.146"><feFlood flood-opacity="0" result="BackgroundImageFix"/><feColorMatrix in="SourceAlpha" type="matrix" values="0 0 0 0 0 0 0 0 0 0 0 0 0 0 0 0 0 0 127 0"/><feOffset dx="9.20839" dy="-4.60419"/><feGaussianBlur stdDeviation="1.15105"/><feColorMatrix type="matrix" values="0 0 0 0 0 0 0 0 0 0 0 0 0 0 0 0 0 0 0.1 0"/><feBlend in2="BackgroundImageFix" mode="normal" result="effect1_dropShadow"/><feBlend in="SourceGraphic" in2="effect1_dropShadow" mode="normal" result="shape"/></filter><mask id="j" height="751" maskUnits="userSpaceOnUse" width="1194" x="0" y="-67"><path d="m0-67h1194v750.514h-1194z" fill="#fff"/></mask><g mask="url(#j)"><g filter="url(#a)"><path d="m504.468 570.404 21.778 43.996h86.161l25.811-35.197 11.733-371.332-211.184 75.674z" fill="#f3e8cb"/><path d="m588.354 551.047 50.156-326.455-9.68 349.333z" fill="#c1dd9b"/><path d="m525.88 352.181-78.315-63.355 16.719 51.036z" fill="#e3e687"/><path d="m485.403 228.111-46.636 55.435 211.184-75.674-58.076-19.358z" fill="#91d7b9"/><path d="m543.481 417.295-36.078 28.158 19.359 44.876z" fill="#a2daaf"/></g><g filter="url(#b)"><path d="m444.222 539.315c20.991-8.199 69.897-14.431 97.598 26.227l-60.1 40.947c-1.545-19.027-11.208-59.1-37.498-67.174z" fill="#000"/></g><path clip-rule="evenodd" d="m569.033 648.019c.119.32.229.614.326.876l.001-.001c.42 1.129.665 1.559.961 2.08.078.138.16.281.249.445.571 1.05-1.479 2.084-2.05 1.034-.39-.718-.764-1.454-1.026-2.033l-.248.064.515 1.381.284.765c.531 1.425-1.478 2.083-2.05 1.034-.463-.852-.835-1.878-1.048-2.585l-.316.082c.256.928.44 1.344.658 1.838.064.144.131.295.203.468.463 1.102-1.193 2.18-2.049.606-.505-.928-.746-1.777-.909-2.351-.058-.205-.106-.375-.153-.5l.026-.005c-.557-1.801-1.389-4.773-1.171-5.249.239-.522 4.453-1.117 6.531-1.35 2.133 1.37 4.324 2.96 3.343 3.895-.393.375-1.115.014-2.077-.494z" fill="#facbad" fill-rule="evenodd"/><path clip-rule="evenodd" d="m562.515 582.095c3.182.323 5.499 3.164 5.177 6.346-1.765 17.386-2.071 27.25-1.438 34.806.59 7.037-2.04 10.82.109 18.746.137.506 1.956 2.432 2.1 2.962l-8.822 3.017c-.162-.597-.321-1.184-.478-1.762-2.101-7.736-3.769-13.877-4.45-21.996-.725-8.657-.325-19.387 1.456-36.943.323-3.182 3.164-5.499 6.346-5.176z" fill="#facbad" fill-rule="evenodd"/><path d="m484.759 615.201c9.104-13.86 35.134-43.382 66.415-50.6 3.405 1.819 11.977 8.44 19.025 20.373 1.232 12.491-.004 19.572.573 33.278.61 21.697-12.167 43.717-23.532 41.804-10.945-9.473-45.126-15.892-62.481-44.855z" fill="#ffdac1"/><path d="m569.746 630.644-54.061-47.964-10.024 7.372 61.754 50.137z" fill="#606b78"/><path d="m625.204 544.395c-.706 10.199-2.735 16.045-2.377 18.789.287 2.196-.702 2.908-1.232 2.99-1.502 2.358-4.55 7.562-4.717 9.515-2.392-.985-3.368-1.434-3.557-1.535l4.586-9.951z" fill="#fee1ce"/><path d="m605.872 594.244c2.219-7.568 14.711-11.837 9.948-22.04l-16.359 14.24c-.461 1.091.872 3.966 6.411 7.8z" fill="#fee1ce"/><path d="m618.889 565.094c-11.886 22.254-35.75 32.694-53.303 23.319-17.552-9.375-22.146-35.015-10.26-57.269s35.751-32.695 53.303-23.32c17.553 9.375 22.146 35.016 10.26 57.27z" fill="#ffdac1"/><path d="m621.42 572.645c-1.59 2.978-4.785 4.374-7.136 3.118-2.351-1.255-2.967-4.687-1.377-7.664 1.591-2.978 4.786-4.374 7.137-3.119 2.35 1.256 2.967 4.688 1.376 7.665z" fill="#fff"/><path d="m619.15 571.43c-.586 1.097-1.95 1.512-3.047.926s-1.512-1.95-.926-3.047 1.951-1.512 3.048-.926 1.511 1.95.925 3.047z" fill="#000"/><g filter="url(#c)"><path d="m616.262 579.304c-.586 1.097-2.712 1.104-4.75.016-2.037-1.088-3.214-2.86-2.628-3.957s2.713-1.104 4.75-.016c2.038 1.088 3.214 2.86 2.628 3.957z" fill="#fca"/></g><path d="m614.196 582.61c-1.949-7.373 4.344-15.745 6.239-32.739l-21.415 30.926c2.26.404 8.457 1.332 15.176 1.813z" fill="#ffdac1"/><path d="m554.711 548.684c-1.925 3.604-6.408 4.966-10.013 3.041-3.604-1.926-4.966-6.408-3.04-10.013 1.925-3.604 6.408-4.966 10.012-3.041 3.605 1.926 4.966 6.408 3.041 10.013z" fill="#ffdac1"/><path d="m598.539 605.131c7.951-1.799 7.1-15.019 10.102-22.898-12.376-3.27-43.402-10.227-57.824-11.919 5.175 16.259 33.235 38.096 47.722 34.817z" fill="#ffdac1"/><path clip-rule="evenodd" d="m597.027 586.856c.352-.049.677.196.726.548.196 1.401.842 2.617 1.9 3.386 1.051.764 2.591 1.148 4.697.731.348-.069.687.158.756.507.069.348-.158.687-.507.756-2.38.47-4.303.064-5.702-.953-1.392-1.012-2.183-2.57-2.418-4.248-.049-.352.196-.678.548-.727z" fill="#ff8080" fill-rule="evenodd"/><g filter="url(#d)"><path d="m594.504 574.976c-1.092 2.045-5.662 1.735-10.207-.692-4.545-2.428-7.344-6.053-6.251-8.098 1.092-2.046 5.662-1.736 10.207.692 4.544 2.427 7.343 6.053 6.251 8.098z" fill="#fca"/></g><path d="m600.042 564.873c-1.59 2.978-5.293 4.103-8.271 2.512-2.978-1.59-4.102-5.293-2.512-8.271 1.59-2.977 5.294-4.102 8.271-2.512 2.978 1.591 4.102 5.294 2.512 8.271z" fill="#fff"/><path d="m596.068 562.753c-.586 1.097-1.95 1.511-3.047.925s-1.512-1.95-.926-3.047 1.951-1.511 3.048-.926c1.097.586 1.511 1.951.925 3.048z" fill="#000"/><g clip-rule="evenodd" fill-rule="evenodd"><path d="m550.638 542.384c-.148.323-.53.466-.853.318-1.732-.791-2.866-.603-3.584-.188-.754.437-1.184 1.202-1.338 1.773-.093.343-.446.546-.789.453-.343-.092-.546-.446-.454-.789.219-.81.818-1.903 1.937-2.55 1.156-.669 2.741-.792 4.762.13.324.148.466.53.319.853z" fill="#fca"/><path d="m511.205 625.556c-.051.36-.098.69-.139.979-.161 1.153-.152 1.642-.14 2.232.003.158.006.323.006.51.001 1.195-2.293 1.126-2.294-.07-.001-.817.022-1.642.068-2.276l-.248-.062-.207 1.46-.115.808c-.214 1.506-2.293 1.125-2.294-.07-.001-.97.162-2.049.312-2.772l-.318-.079c-.217.938-.254 1.392-.298 1.929-.013.158-.026.322-.045.508-.119 1.189-2.089 1.347-2.09-.445-.001-1.056.192-1.918.323-2.499.047-.208.086-.381.104-.513l.026.008c.37-1.849 1.057-4.857 1.476-5.171.458-.345 4.446 1.143 6.383 1.93 1.221 2.222 2.388 4.665 1.08 5.018-.525.142-.987-.52-1.59-1.425z" fill="#ffdac1"/><path d="m547.402 571.193c1.635 2.748.732 6.302-2.017 7.937-14.19 8.44-20.84 15.442-24.517 21.894-3.247 5.696-6.452 9.796-7.973 17.012-.255 1.205.138 4.138-.147 5.444l-6.209 1.285c-.716-.382-3.243-6.257-3.002-7.415 1.493-7.168 3.054-14.666 7.269-22.062 5.009-8.786 13.45-17.066 28.659-26.112 2.749-1.635 6.302-.732 7.937 2.017z" fill="#facbad"/><path d="m606.444 550.514c-.007-2.199-.47-5.167-2.37-6.31-.016-.01-.036-.022-.058-.035-.345-.21-1.37-.834-.918-.15.245.372.114 1.166.016 1.765-.034.202-.063.381-.074.515-.01.128 0 .335.009.533.018.409.035.778-.124.329-.318-.897-.682-1.079-1.585-1.381-.773-.259-1.437-.378-2.25-.442-.246-.019-.067.059.19.173.228.1.518.227.628.338.26.26.268 1.177.22 1.528-.034.245-.506-.104-.918-.409-.229-.169-.439-.325-.546-.358-.118-.036-.292-.118-.494-.213-.594-.281-1.43-.675-1.806-.353-.056.047.048.159.154.274.084.091.171.184.18.248.025.177-.001.377-.025.568-.01.082-.02.162-.026.238-.053.669-.298.376-.597.018-.152-.182-.318-.38-.48-.477-1.041-.627-2.176-.715-3.351-.806-.042-.003-.084-.006-.127-.01-.175-.013-.044.068.167.198.289.179.728.451.719.693-.002.038-.002.093-.002.158-.001.396-.003 1.196-.32 1.171-.159-.012-.243-.172-.323-.324-.039-.072-.076-.143-.12-.194-.283-.331-.579-.397-.917-.473-.153-.033-.313-.069-.486-.132-.554-.201-1.857-.519-2.367-.028-.141.136.493.2.871.238.129.013.228.023.256.032.419.128.259.54.111.922-.009.022-.017.043-.025.064l-.273-.012c-.124-.045-.289-.107-.482-.179-1.462-.545-4.546-1.695-3.807-.779.192.238-.393.301-1.023.368-.682.073-1.415.152-1.272.464.002.005.005.01.008.015-.63.271-1.084.884-1.117 1.616-.045 1.02.479 2.38 1.499 2.426l21.109.947c.798.036 1.766-.937 2.056-1.635.017.031.032.062.045.094.007-.088.013-.18.019-.274.042-.142.067-.291.074-.445.008-.177-.009-.35-.048-.514z" fill="#969696"/><path d="m614.698 553.138c.211-.785 2.263-3.04 3.854-3.05.013-.001.029-.001.047-.001.278-.003 1.105-.013.597.234-.276.134-.478.651-.63 1.041-.051.131-.096.248-.137.331-.039.08-.118.199-.193.313-.154.236-.294.449-.042.239.504-.42.784-.4 1.425-.262.55.118.986.281 1.49.529.152.075.019.059-.173.035-.171-.02-.387-.046-.492-.02-.245.063-.572.604-.667.83-.066.157.337.115.688.079.195-.02.375-.038.449-.02.083.02.215.033.369.047.451.043 1.085.102 1.195.426.016.047-.085.077-.188.108-.082.024-.166.049-.194.084-.077.096-.132.224-.185.345-.022.052-.045.103-.068.151-.052.106-.075.179-.074.227l.14.078c.076-.012.175-.047.282-.085.154-.054.322-.113.452-.114.838-.006 1.542.341 2.27.7.026.013.053.026.079.039.109.053.002.055-.168.059-.235.004-.591.011-.67.158-.017.031-.036.06-.054.088-.078.123-.143.225.042.317.146.071.805.159.942.113.284-.097.482-.032.71.042.102.034.21.069.334.093.399.075 1.284.345 1.414.815.036.13-.363-.055-.601-.165-.08-.038-.142-.067-.162-.071-.262-.064-.291.197-.32.457-.003.021-.005.042-.008.063l.047.026c.095.052 0 0 .095.052l.603.333c.063-.01.133-.028.212-.054.994-.333 1.735-.521 2.216-.49.198.039.065.25-.099.509-.188.297-.416.657-.234.899.28.374.834.507 1.335.627.365.087.702.168.884.33.117.378-.14.684-.74 1.046-.029.055-.027.161-.107.2-.008.287-.202.498-.35.767-.494.893-1.884 1.714-2.777 1.22l-12.328-6.809c-.861-.475-.928-2.033-.51-2.909z" fill="#969696"/><path d="m614.054 562.295c.306.056.508.349.452.655-.312 1.694-.454 3.504-.346 5.213.037.582.151 1.166.289 1.775.039.17.08.345.122.522.104.441.211.897.294 1.347.114.623.141 1.241.164 1.818.001.024.001.048.002.072.022.561.043 1.082.124 1.598.173 1.089.36 2.28.161 3.499-.103.637-.295 1.482-.634 2.253-.332.755-.847 1.539-1.656 1.908-.556.253-1.292.349-1.969.365-.689.018-1.391-.045-1.915-.156-2.731-.576-4.601-2.055-5.849-4.483-.131-.254-.2-.586-.231-.902-.031-.328-.025-.694.03-1.043.054-.341.163-.711.372-1.009.223-.317.578-.57 1.061-.557.31.008.555.267.547.578-.008.31-.267.556-.578.547 0 0-.001 0-.002 0-.022-.001-.05-.002-.106.079-.072.102-.142.284-.182.539-.04.246-.045.516-.021.758.024.254.074.424.111.495 1.097 2.135 2.69 3.392 5.08 3.897.428.09 1.041.148 1.655.132.626-.015 1.181-.105 1.53-.264.431-.197.8-.67 1.093-1.336.286-.651.458-1.394.554-1.982.164-1.013.014-2.03-.162-3.142-.093-.583-.115-1.166-.136-1.711-.002-.03-.003-.061-.004-.091-.023-.583-.048-1.126-.146-1.659-.077-.421-.175-.833-.276-1.262-.043-.183-.087-.37-.131-.561-.141-.624-.271-1.279-.314-1.953-.115-1.816.037-3.718.362-5.488.056-.305.35-.508.655-.451z" fill="#fca"/></g><path d="m594.794 580.098c5.362-2.048 11.369.637 13.418 5.998l-8.09 3.092c-5.361 2.049-11.368-.637-13.417-5.998z" fill="#c4c4c4"/><path d="m614.033 590.549c-1.085-5.636-6.533-9.326-12.169-8.242l1.636 8.504c1.085 5.636 6.533 9.326 12.169 8.242z" fill="#c4c4c4"/><path d="m587.631 583.87c-.249-.132 8.522-3.984 9.422-3.874s-3.667 4.034-6.423 4.211c-1.5.096-2.75-.204-2.999-.337z" fill="#f0f0f0"/><path d="m603.355 588.45c-.38.116.815 4.327 1.504 4.95.688.623-1.123-5.065-1.504-4.95z" fill="#969696"/><path d="m563.407 538.055 6.502-7.026c-.526-1.812-11.74-4.535-12.345-4.36-.431.125-4.442 9.164-6.603 14.303-.213.508.357.977.819.677l5.444-3.529.738 2.544c.129.446.711.553.99.182l3.106-4.128.405 1.142c.142.399.656.505.944.195z" fill="#c4c4c4"/><path d="m551.816 541.044c1.415-.541 3.672-2.244 3.879-2.435s.223-.588-.573-.62c-.811.366-3.879 2.436-3.306 3.055z" fill="#eaeaea"/><path d="m562.429 536.39c-.063.692.377 1.606.44 1.681.063.076.315-.005.567-.471 0-.383-.44-1.681-1.007-1.21z" fill="#eaeaea"/><path d="m577.868 531.688-5.366 4.958c-.297.274-.777.156-.912-.225l-.431-1.215-3.106 4.128c-.279.37-.861.264-.99-.182l-.738-2.544-5.444 3.529c-.463.299-1.14-.209-1.055-.753.194-1.259.214-2.754.138-4.297l-3.895-4.427 2.753-5.741c.009-.059.025-.093.048-.1.604-.175 18.473 5.056 18.998 6.869z" fill="#c4c4c4"/><path d="m560.92 539.525c1.416-.541 3.673-2.244 3.88-2.435.206-.191.222-.589-.573-.62-.811.366-3.879 2.435-3.307 3.055z" fill="#eaeaea"/><path d="m571.535 534.872c-.063.692.377 1.606.44 1.682s.315-.006.566-.471c.001-.384-.44-1.682-1.006-1.211z" fill="#eaeaea"/><path d="m564.546 598.999-2.622-14.798 10.339 8.712z" fill="#ffdac1"/><path clip-rule="evenodd" d="m566.424 595.707c0 .064-.006.149-.04.229-.019.046-.04.089-.063.13.445.696 1.028 1.168 1.804 1.582.137.073.188.243.115.38s-.243.189-.381.116c-.799-.427-1.442-.93-1.941-1.667-.161.087-.334.12-.502.12-.363.001-.736-.151-1.02-.303-.137-.073-.189-.244-.116-.381s.244-.189.381-.115c.258.138.531.237.754.237.078 0 .144-.013.201-.037-.018-.025-.038-.051-.058-.08l-.004-.004c-.061-.084-.136-.187-.195-.294-.059-.108-.114-.242-.119-.394-.006-.161.044-.318.157-.459.061-.078.153-.155.28-.176.129-.021.238.025.313.077.134.094.224.254.28.382.062.14.109.298.134.442.012.072.02.145.02.215z" fill="#d5d5d5" fill-rule="evenodd"/><path clip-rule="evenodd" d="m567.219 594.219c0 .063-.006.149-.04.229-.02.045-.04.089-.063.13.445.696 1.028 1.167 1.803 1.581.138.074.189.244.116.381s-.244.189-.381.116c-.799-.427-1.442-.93-1.941-1.667-.161.087-.334.12-.502.12-.363.001-.736-.151-1.021-.303-.137-.074-.188-.244-.115-.381s.244-.189.381-.116c.258.139.531.238.754.237.078 0 .144-.012.201-.036-.018-.025-.038-.051-.059-.08l-.003-.005c-.061-.084-.136-.186-.195-.293-.059-.108-.114-.243-.12-.395-.005-.161.045-.317.157-.458.062-.078.154-.155.281-.176.129-.021.238.024.313.077.134.094.224.254.28.382.062.14.109.298.134.441.012.072.02.146.02.216z" fill="#d5d5d5" fill-rule="evenodd"/><path clip-rule="evenodd" d="m565.464 593.922c0 .064-.006.149-.04.229-.019.045-.04.089-.063.13.445.696 1.028 1.167 1.804 1.582.137.073.188.243.115.38s-.243.189-.38.116c-.8-.427-1.443-.93-1.942-1.667-.161.087-.334.12-.502.12-.363.001-.736-.151-1.02-.303-.137-.073-.189-.244-.116-.381s.244-.189.381-.116c.259.139.531.238.754.238.078-.001.144-.013.201-.037-.018-.025-.038-.051-.058-.08l-.004-.004c-.061-.085-.136-.187-.195-.294-.059-.108-.114-.242-.119-.394-.006-.162.045-.318.157-.459.061-.078.153-.155.28-.176.13-.021.238.024.313.077.134.094.224.254.28.382.062.14.109.298.134.441.012.072.02.146.02.216z" fill="#d5d5d5" fill-rule="evenodd"/><path clip-rule="evenodd" d="m513.954 626.326c.119.32.229.614.326.875h.001c.42 1.128.665 1.559.961 2.08.078.137.16.281.249.445.571 1.05-1.479 2.083-2.05 1.034-.391-.719-.765-1.455-1.026-2.034l-.248.064.515 1.382.284.765c.531 1.425-1.479 2.083-2.05 1.033-.463-.852-.835-1.878-1.048-2.585l-.316.082c.256.928.44 1.345.658 1.839.064.144.131.295.203.467.462 1.103-1.193 2.181-2.05.606-.504-.927-.745-1.777-.908-2.35-.058-.205-.106-.375-.153-.501l.026-.004c-.557-1.802-1.389-4.773-1.171-5.25.239-.521 4.453-1.117 6.531-1.349 0 0 0 0 0-.001 2.133 1.37 4.324 2.961 3.343 3.895-.393.376-1.115.014-2.077-.493z" fill="#facbad" fill-rule="evenodd"/><path d="m588.371 546.708c.651-1.218 2.166-1.678 3.383-1.027l33.376 17.825c1.217.651 1.677 2.166 1.027 3.383l-7.117 13.326c-.651 1.218-2.165 1.678-3.383 1.027l-.175-.093c-.414-.221-.757-.554-.99-.96l-2.506-4.36c-.635-1.104-1.819-1.776-3.092-1.755l-5.811.096c-.425.007-.844-.095-1.219-.295l-19.582-10.459c-1.218-.65-1.678-2.165-1.028-3.383z" fill="#99d1fa" fill-opacity=".51" stroke="#000"/><path d="m585.52 550.988-2.678 5.013-31.506-16.828 2.677-5.013z" fill="#91d7b9"/><path d="m167.899 606.178 22.038-64.034-162.9546 8.364 3.22 62.737z" fill="#000"/><path d="m-107.494 620.313-28.478-61.442 162.9544-8.363 3.22 62.737z" fill="#000"/><path d="m26.1365 566.074-16.68533-325.095" stroke="#000" stroke-width="6.52677"/><path d="m36.1008 527.168-14.7199-286.801 152.4171 279.734z" fill="#000"/><path d="m12.7023 528.367-14.71988-286.801-122.97742 293.868z" fill="#000"/><g filter="url(#e)"><path d="m-39.5844 592.923 18.95 30.835 63.257-5.799 16.5812-27.578-16.3782-273.413-149.9536 69.772z" fill="#f3e8cb"/><path d="m20.6981 573.066 14.852-243.051 16.405 257.124z" fill="#e3e687"/><path d="m-76.619 342.901-30.508 43.839 149.9528-69.772-43.94067-10.304z" fill="#91d7b9"/></g><g filter="url(#f)"><path d="m1212.28 552.398-2.09 42.247-68.08 29.608-32.49-18.941-136.871-289.372 192.871-12.778z" fill="#f3e8cb"/><path d="m1139.34 565.931-151.812-240.709 127.692 272.695z" fill="#e3e687"/><path d="m1120.37 387.329 40.11-76.972 4.33 46.071z" fill="#a2daaf"/><path d="m1109.72 275.387 55.9 27.776-192.874 12.778 39.234-35.253z" fill="#91d7b9"/><path d="m1128.84 444.827 38.18 9.851.13 42.111z" fill="#e3e687"/></g><g filter="url(#g)"><path clip-rule="evenodd" d="m1149.32 568.468c-3.34 20.184-20.88 35.576-42.01 35.576-21.17 0-38.74-15.447-42.03-35.685h-1.11c-3.3 20.238-20.87 35.685-42.04 35.685s-38.729-15.447-42.028-35.685h-1.118c-3.299 20.238-20.862 35.685-42.032 35.685s-38.733-15.447-42.032-35.685h-1.113c-3.3 20.238-20.862 35.685-42.032 35.685-21.171 0-38.733-15.447-42.032-35.685h-1.114c-3.299 20.238-20.862 35.685-42.032 35.685s-38.733-15.447-42.032-35.685h-1.109c-3.299 20.238-20.862 35.685-42.032 35.685s-38.733-15.447-42.032-35.685h-1.118c-3.299 20.238-20.861 35.685-42.032 35.685-21.17 0-38.732-15.447-42.032-35.685h-1.113c-3.299 20.238-20.862 35.685-42.032 35.685s-38.733-15.447-42.032-35.685h-1.114c-3.299 20.238-20.861 35.685-42.032 35.685-21.17 0-38.732-15.447-42.032-35.685h-1.113c-3.299 20.238-20.862 35.685-42.032 35.685s-38.733-15.447-42.032-35.685h-1.114c-3.299 20.238-20.861 35.685-42.031 35.685-21.171 0-38.733-15.447-42.032-35.685h-1.114c-3.299 20.238-20.862 35.685-42.032 35.685s-38.733-15.447-42.032-35.685h-1.113c-3.3 20.238-20.862 35.685-42.0323 35.685s-38.7328-15.447-42.032-35.685h-1.1133c-3.2982 20.239-20.8612 35.687-42.03233896 35.687h-.00006104v79.846h1197.09v-80.234c-1.88.254-3.8.386-5.76.386-21.13 0-38.66-15.392-42.01-35.576z" fill="#89cdd3" fill-rule="evenodd"/></g><g filter="url(#h)"><g fill="#000"><path d="m668.848 527.08c-2.363-38.464 25.074-47.687 31.717-42.759z"/><path d="m668.849 527.083c37.301-9.044 38.294-37.88 31.716-42.76z"/><path d="m668.845 527.084 3.626 14.162-18.231-13.522z"/></g><circle cx="688.98" cy="493.07" fill="#fff" r="2.45715" transform="matrix(.80317634 .59574136 -.59574136 .80317634 429.349758 -313.40604)"/></g><g filter="url(#i)"><g fill="#000"><path d="m1061.08 533.413c16.25-34.943 44.77-29.978 48.26-22.481z"/><path d="m1061.08 533.411c37.11 9.822 51.72-15.057 48.26-22.481z"/><path d="m1061.08 533.41-3.56 14.179-9.58-20.575z"/></g><circle cx="1094.99" cy="513.097" fill="#fff" r="2.45715" transform="matrix(.42227973 .90646557 -.90646557 .42227973 1097.702689 -696.144197)"/></g></g></svg>