<svg width="280" height="176" viewBox="0 0 280 176" fill="none" xmlns="http://www.w3.org/2000/svg">
<rect width="280" height="176" fill="#2C5291"/>
<mask id="mask0" mask-type="alpha" maskUnits="userSpaceOnUse" x="0" y="0" width="280" height="176">
<rect width="280" height="176" fill="#2C5291"/>
</mask>
<g mask="url(#mask0)">
<path fill-rule="evenodd" clip-rule="evenodd" d="M130.307 39.0874H127.476C126.707 39.0874 126.083 39.7114 126.083 40.4813C126.083 40.6771 126.123 40.8636 126.196 41.0327H123.929C123.159 41.0327 122.535 41.6567 122.535 42.4266C122.535 42.6899 122.608 42.9362 122.735 43.1463H121.69C120.756 43.1463 120 43.9028 120 44.8359C120 45.7691 120.756 46.5255 121.69 46.5255H151.173C152.106 46.5255 152.863 45.7691 152.863 44.8359C152.863 43.9028 152.106 43.1463 151.173 43.1463H150.129C150.256 42.9362 150.329 42.6899 150.329 42.4266C150.329 41.6567 149.705 41.0327 148.935 41.0327H146.667C146.74 40.8636 146.78 40.6771 146.78 40.4813C146.78 39.7114 146.156 39.0874 145.386 39.0874H142.556C142.532 38.3383 141.917 37.7383 141.163 37.7383H131.701C130.946 37.7383 130.331 38.3383 130.307 39.0874Z" fill="#FFF6F0" fill-opacity="0.9"/>
<path fill-rule="evenodd" clip-rule="evenodd" d="M148.123 34.5244H144.931C144.063 34.5244 143.359 35.2284 143.359 36.0968C143.359 36.3163 143.404 36.5254 143.485 36.7152H140.929C140.06 36.7152 139.356 37.4192 139.356 38.2876C139.356 38.5839 139.438 38.8612 139.581 39.0978H138.403C137.351 39.0978 136.497 39.951 136.497 41.0036C136.497 42.0562 137.351 42.9095 138.403 42.9095H171.66C172.713 42.9095 173.566 42.0562 173.566 41.0036C173.566 39.951 172.713 39.0978 171.66 39.0978H170.483C170.626 38.8612 170.708 38.5839 170.708 38.2876C170.708 37.4192 170.004 36.7152 169.135 36.7152H166.579C166.66 36.5254 166.705 36.3163 166.705 36.0968C166.705 35.2284 166.001 34.5244 165.133 34.5244H161.939C161.914 33.6782 161.22 33 160.367 33H149.695C148.842 33 148.148 33.6782 148.123 34.5244Z" fill="#FFF1E8" fill-opacity="0.8"/>
<path fill-rule="evenodd" clip-rule="evenodd" d="M56.3629 22.2259H53.7913C53.092 22.2259 52.5251 22.7928 52.5251 23.4921C52.5251 23.67 52.5618 23.8393 52.628 23.9929H50.5689C49.8697 23.9929 49.3028 24.5598 49.3028 25.2591C49.3028 25.4981 49.369 25.7217 49.4842 25.9125H48.5348C47.6871 25.9125 47 26.5996 47 27.4472C47 28.2948 47.6872 28.9819 48.5348 28.9819H75.3159C76.1635 28.9819 76.8506 28.2948 76.8506 27.4472C76.8506 26.5996 76.1635 25.9125 75.3159 25.9125H74.3677C74.4829 25.7217 74.5491 25.4981 74.5491 25.2591C74.5491 24.5598 73.9823 23.9929 73.283 23.9929H71.2227C71.2889 23.8393 71.3256 23.67 71.3256 23.4921C71.3256 22.7928 70.7587 22.2259 70.0595 22.2259H67.4885C67.4672 21.5452 66.9088 21 66.223 21H57.6285C56.9427 21 56.3842 21.5452 56.3629 22.2259Z" fill="#FFF6F0" fill-opacity="0.9"/>
<path fill-rule="evenodd" clip-rule="evenodd" d="M73.7235 23.2938H70.8241C70.0354 23.2938 69.3959 23.9332 69.3959 24.722C69.3959 24.9209 69.4366 25.1104 69.5102 25.2825H67.1885C66.3997 25.2825 65.7603 25.922 65.7603 26.7107C65.7603 26.98 65.8348 27.2319 65.9644 27.4469H64.8943C63.9383 27.4469 63.1632 28.222 63.1632 29.1781C63.1632 30.1342 63.9383 30.9092 64.8944 30.9092H95.1028C96.0589 30.9092 96.834 30.1342 96.834 29.1781C96.834 28.222 96.0589 27.4469 95.1028 27.4469H94.0335C94.1631 27.2319 94.2376 26.98 94.2376 26.7107C94.2376 25.922 93.5982 25.2825 92.8094 25.2825H90.4883C90.5618 25.1104 90.6025 24.9209 90.6025 24.722C90.6025 23.9332 89.9631 23.2938 89.1743 23.2938H86.2731C86.2505 22.5247 85.62 21.9082 84.8455 21.9082H75.1511C74.3766 21.9082 73.7461 22.5247 73.7235 23.2938Z" fill="#FFF1E8" fill-opacity="0.8"/>
<g filter="url(#filter0_d)">
<path d="M278.945 84.5357L304 152.256H58.5109L82.1203 103.135L96.8159 53.06L103.321 81.1974L121.871 24.4457L142.107 53.06L163.067 13L201.131 81.1974L216.067 57.3522L226.667 84.5357L245.94 41.6143L266.418 110.289L278.945 84.5357Z" fill="#B2DDA5"/>
</g>
<path d="M95.2786 94.7888L96.7227 59.7363L90.8354 80.7201L95.2786 94.7888Z" fill="white" fill-opacity="0.3"/>
<path d="M130.629 38.5714L123.393 28.1953L125.891 42.6673L130.629 38.5714Z" fill="white" fill-opacity="0.3"/>
<path d="M158.373 42.8051L162.816 17.7676L156.151 30.644L158.373 42.8051Z" fill="white" fill-opacity="0.3"/>
<path d="M213.049 74.3157L215.25 59.9106L206.484 74.4984L213.049 74.3157Z" fill="white" fill-opacity="0.3"/>
<path d="M245.238 63.5514L253.236 72.3741L245.904 46.3828L245.238 63.5514Z" fill="white" fill-opacity="0.3"/>
<path d="M227.91 87.1592L234.353 81.4364V72.1367L227.91 87.1592Z" fill="white" fill-opacity="0.3"/>
<path d="M272.564 102.659L277.23 107.429L278.896 90.0215L272.564 102.659Z" fill="white" fill-opacity="0.3"/>
<path fill-rule="evenodd" clip-rule="evenodd" d="M210.308 68.7516H207.628C206.775 68.7516 206.083 69.4437 206.083 70.2974C206.083 70.5146 206.127 70.7214 206.208 70.9089H204.081C203.227 70.9089 202.535 71.6011 202.535 72.4548C202.535 72.7467 202.616 73.0197 202.757 73.2526H201.874C200.839 73.2526 200 74.0915 200 75.1264C200 76.1613 200.839 77.0002 201.874 77.0002H230.989C232.024 77.0002 232.863 76.1613 232.863 75.1264C232.863 74.0915 232.024 73.2526 230.989 73.2526H230.108C230.248 73.0197 230.329 72.7467 230.329 72.4548C230.329 71.6011 229.637 70.9089 228.783 70.9089H226.655C226.735 70.7214 226.78 70.5146 226.78 70.2974C226.78 69.4437 226.088 68.7516 225.234 68.7516H222.556C222.53 67.9201 221.848 67.2539 221.011 67.2539H211.853C211.015 67.2539 210.333 67.9201 210.308 68.7516Z" fill="#FFF6F0" fill-opacity="0.9"/>
<path fill-rule="evenodd" clip-rule="evenodd" d="M228.123 63.6917H225.103C224.14 63.6917 223.359 64.4724 223.359 65.4354C223.359 65.6783 223.409 65.9097 223.498 66.1198H221.1C220.137 66.1198 219.356 66.9005 219.356 67.8635C219.356 68.1923 219.447 68.4999 219.606 68.7624H218.611C217.444 68.7624 216.497 69.7087 216.497 70.876C216.497 72.0433 217.444 72.9896 218.611 72.9896H251.452C252.62 72.9896 253.566 72.0433 253.566 70.876C253.566 69.7087 252.62 68.7624 251.452 68.7624H250.458C250.617 68.4999 250.708 68.1923 250.708 67.8635C250.708 66.9005 249.927 66.1198 248.964 66.1198H246.566C246.656 65.9097 246.706 65.6783 246.706 65.4354C246.706 64.4724 245.925 63.6917 244.962 63.6917H241.939C241.911 62.7527 241.142 62 240.196 62H229.866C228.92 62 228.151 62.7527 228.123 63.6917Z" fill="#FFF1E8" fill-opacity="0.8"/>
<g filter="url(#filter1_d)">
<path d="M208.434 71.5357L233.489 139.256H-11.9998L11.6095 90.135L26.3052 40.06L32.8098 68.1974L51.36 11.4457L71.5966 40.06L92.5559 0L130.62 68.1974L145.556 44.3522L156.157 71.5357L175.43 28.6143L195.907 97.2886L208.434 71.5357Z" fill="#B2DDA5"/>
</g>
<path d="M24.7679 81.7888L26.2119 46.7363L20.3246 67.7201L24.7679 81.7888Z" fill="white" fill-opacity="0.3"/>
<path d="M60.1187 25.5714L52.8827 15.1953L55.38 29.6673L60.1187 25.5714Z" fill="white" fill-opacity="0.3"/>
<path d="M87.8619 29.8051L92.3052 4.76758L85.6403 17.644L87.8619 29.8051Z" fill="white" fill-opacity="0.3"/>
<path d="M142.538 61.3157L144.739 46.9106L135.973 61.4984L142.538 61.3157Z" fill="white" fill-opacity="0.3"/>
<path d="M174.727 50.5514L182.725 59.3741L175.394 33.3828L174.727 50.5514Z" fill="white" fill-opacity="0.3"/>
<path d="M157.399 74.1592L163.842 68.4364V59.1367L157.399 74.1592Z" fill="white" fill-opacity="0.3"/>
<path d="M202.054 89.6595L206.719 94.4285L208.385 77.0215L202.054 89.6595Z" fill="white" fill-opacity="0.3"/>
<path fill-rule="evenodd" clip-rule="evenodd" d="M72.3629 32.2259H69.7913C69.092 32.2259 68.5251 32.7928 68.5251 33.4921C68.5251 33.67 68.5618 33.8393 68.628 33.9929H66.5689C65.8697 33.9929 65.3028 34.5598 65.3028 35.2591C65.3028 35.4981 65.369 35.7217 65.4842 35.9125H64.5348C63.6871 35.9125 63 36.5996 63 37.4472C63 38.2948 63.6872 38.9819 64.5348 38.9819H91.3159C92.1635 38.9819 92.8506 38.2948 92.8506 37.4472C92.8506 36.5996 92.1635 35.9125 91.3159 35.9125H90.3677C90.4829 35.7217 90.5491 35.4981 90.5491 35.2591C90.5491 34.5598 89.9823 33.9929 89.283 33.9929H87.2227C87.2889 33.8393 87.3256 33.67 87.3256 33.4921C87.3256 32.7928 86.7587 32.2259 86.0595 32.2259H83.4885C83.4672 31.5452 82.9088 31 82.223 31H73.6285C72.9427 31 72.3842 31.5452 72.3629 32.2259Z" fill="#FFF6F0" fill-opacity="0.9"/>
<path fill-rule="evenodd" clip-rule="evenodd" d="M89.7235 33.2938H86.8241C86.0354 33.2938 85.3959 33.9332 85.3959 34.722C85.3959 34.9209 85.4366 35.1104 85.5102 35.2825H83.1885C82.3997 35.2825 81.7603 35.922 81.7603 36.7107C81.7603 36.98 81.8348 37.2319 81.9644 37.4469H80.8943C79.9383 37.4469 79.1632 38.222 79.1632 39.1781C79.1632 40.1342 79.9383 40.9092 80.8944 40.9092H111.103C112.059 40.9092 112.834 40.1342 112.834 39.1781C112.834 38.222 112.059 37.4469 111.103 37.4469H110.033C110.163 37.2319 110.238 36.98 110.238 36.7107C110.238 35.922 109.598 35.2825 108.809 35.2825H106.488C106.562 35.1104 106.602 34.9209 106.602 34.722C106.602 33.9332 105.963 33.2938 105.174 33.2938H102.273C102.251 32.5247 101.62 31.9082 100.845 31.9082H91.1511C90.3766 31.9082 89.7461 32.5247 89.7235 33.2938Z" fill="#FFF1E8" fill-opacity="0.8"/>
<path fill-rule="evenodd" clip-rule="evenodd" d="M150.095 42.4853H147.79C146.944 42.4853 146.257 43.1718 146.257 44.0186C146.257 44.2334 146.301 44.4378 146.381 44.6234H144.568C143.721 44.6234 143.035 45.3099 143.035 46.1567C143.035 46.4464 143.115 46.7173 143.255 46.9484H142.59C141.564 46.9484 140.732 47.7805 140.732 48.8069C140.732 49.8333 141.564 50.6654 142.59 50.6654H168.724C169.75 50.6654 170.583 49.8333 170.583 48.8069C170.583 47.7805 169.75 46.9484 168.724 46.9484H168.061C168.201 46.7173 168.281 46.4464 168.281 46.1567C168.281 45.3099 167.595 44.6234 166.748 44.6234H164.934C165.013 44.4378 165.058 44.2334 165.058 44.0186C165.058 43.1718 164.371 42.4853 163.524 42.4853H161.22C161.195 41.6607 160.519 41 159.688 41H151.628C150.797 41 150.12 41.6607 150.095 42.4853Z" fill="#FFF6F0" fill-opacity="0.9"/>
<path fill-rule="evenodd" clip-rule="evenodd" d="M167.456 43.7767H164.857C163.902 43.7767 163.128 44.551 163.128 45.5062C163.128 45.7478 163.178 45.9779 163.267 46.1868H161.222C160.267 46.1868 159.492 46.9611 159.492 47.9163C159.492 48.2422 159.583 48.5471 159.739 48.8074H158.991C157.834 48.8074 156.895 49.746 156.895 50.9037C156.895 52.0615 157.834 53.0001 158.991 53.0001H188.47C189.627 53.0001 190.566 52.0615 190.566 50.9037C190.566 49.746 189.627 48.8074 188.47 48.8074H187.723C187.88 48.5471 187.97 48.2422 187.97 47.9163C187.97 46.9611 187.195 46.1868 186.24 46.1868H184.195C184.285 45.9779 184.334 45.7478 184.334 45.5062C184.334 44.551 183.56 43.7767 182.605 43.7767H180.005C179.977 42.8458 179.214 42.0996 178.276 42.0996H169.184C168.247 42.0996 167.483 42.8458 167.456 43.7767Z" fill="#FFF1E8" fill-opacity="0.8"/>
<g filter="url(#filter2_d)">
<path d="M247.961 68.6895L292.733 125.769L286.1 143.298L182.185 136.556L159.573 125.769L189.65 22.6465L227.862 113.258L247.961 68.6895Z" fill="#35675B"/>
</g>
<path d="M200.758 53.1641L190.316 28.6035L191.76 45.2952L200.758 53.1641Z" fill="black" fill-opacity="0.2"/>
<path d="M256.454 82.2806L247.879 71.3359L251.806 81.3301L256.454 82.2806Z" fill="black" fill-opacity="0.2"/>
<path d="M210.044 73.3L204.583 60.5137L205.798 71.1825L210.044 73.3Z" fill="black" fill-opacity="0.2"/>
<path d="M174.32 103.005L177.208 72.2441L169.988 95.8509L174.32 103.005Z" fill="#2A5249"/>
<g filter="url(#filter3_d)">
<path d="M-1.23354 69.7251L-35 112.774L-29.9976 125.994L48.374 120.909L65.4277 112.774L42.7442 35L13.9252 103.339L-1.23354 69.7251Z" fill="#35675B"/>
</g>
<path d="M47.9985 56.5086L42.8255 37.0569L42.1213 49.673L47.9985 56.5086Z" fill="black" fill-opacity="0.2"/>
<path d="M-7.63899 79.975L-1.17188 71.7207L-4.13324 79.2582L-7.63899 79.975Z" fill="black" fill-opacity="0.2"/>
<path d="M27.3627 73.2019L31.4814 63.5586L30.5649 71.6049L27.3627 73.2019Z" fill="black" fill-opacity="0.2"/>
<path d="M54.3056 95.6054L52.1274 72.4062L57.5729 90.2102L54.3056 95.6054Z" fill="#2A5249"/>
<path fill-rule="evenodd" clip-rule="evenodd" d="M40.4711 58.2378H43.0311C43.7367 58.2378 44.3088 58.8098 44.3088 59.5155C44.3088 59.6945 44.272 59.8649 44.2055 60.0195H46.2533C46.959 60.0195 47.531 60.5916 47.531 61.2972C47.531 61.5386 47.4641 61.7644 47.3477 61.957H48.2852C49.1406 61.957 49.834 62.6504 49.834 63.5057C49.834 64.3611 49.1406 65.0545 48.2852 65.0545H21.5321C20.6768 65.0545 19.9834 64.3611 19.9834 63.5057C19.9834 62.6504 20.6768 61.957 21.5322 61.957H22.4679C22.3516 61.7644 22.2847 61.5386 22.2847 61.2972C22.2847 60.5916 22.8567 60.0195 23.5624 60.0195H25.6116C25.5451 59.8649 25.5083 59.6945 25.5083 59.5155C25.5083 58.8098 26.0804 58.2378 26.786 58.2378H29.3455C29.3666 57.5506 29.9303 57 30.6226 57H39.1939C39.8862 57 40.4499 57.5506 40.4711 58.2378Z" fill="#FFF6F0" fill-opacity="0.9"/>
<path fill-rule="evenodd" clip-rule="evenodd" d="M23.1105 59.3139H25.9967C26.7927 59.3139 27.438 59.9592 27.438 60.7552C27.438 60.9565 27.3967 61.1483 27.3221 61.3223H29.6323C30.4283 61.3223 31.0735 61.9676 31.0735 62.7636C31.0735 63.0352 30.9984 63.2893 30.8678 63.5062H31.9238C32.8886 63.5062 33.6708 64.2883 33.6708 65.2531C33.6708 66.2179 32.8886 67.0001 31.9238 67.0001H1.74696C0.78214 67.0001 0 66.2179 0 65.2531C0 64.2883 0.78214 63.5062 1.74696 63.5062H2.80197C2.67134 63.2893 2.59619 63.0352 2.59619 62.7636C2.59619 61.9676 3.24146 61.3223 4.03743 61.3223H6.34733C6.27274 61.1483 6.23145 60.9565 6.23145 60.7552C6.23145 59.9592 6.87671 59.3139 7.67269 59.3139H10.5609C10.5839 58.538 11.2201 57.916 12.0015 57.916H21.6699C22.4513 57.916 23.0875 58.538 23.1105 59.3139Z" fill="#FFF1E8" fill-opacity="0.8"/>
<g filter="url(#filter4_d)">
<path d="M255.175 80.8058L288 128.447L-31 128.447L4.78616 100.581L25.8944 64.065L46.6973 92.9409L68.7478 51.5918L115.355 121.256L132.895 86.6486L165.469 100.581L195.037 74.5136L234.628 109.121L255.175 80.8058Z" fill="#91D7B9"/>
</g>
<path d="M262.216 92.5962L255.539 82.707L255.539 88.2966L262.216 92.5962Z" fill="white" fill-opacity="0.3"/>
<path d="M204.848 85.359L195.439 76.6758L197.203 85.359L204.848 85.359Z" fill="white" fill-opacity="0.3"/>
<path d="M66.1543 81.638L68.1113 58.0312L53.8528 85.2148L66.1543 81.638Z" fill="white" fill-opacity="0.3"/>
<path d="M132.524 105.702L134.248 88.0156L123.388 108.294L132.524 105.702Z" fill="white" fill-opacity="0.3"/>
<path d="M3.24802 118.836L5.20508 105.244L-11.8493 118.836L3.24802 118.836Z" fill="white" fill-opacity="0.3"/>
<path d="M36.0996 81.8748L26.3143 68.5215L26.3143 83.3055L36.0996 81.8748Z" fill="white" fill-opacity="0.3"/>
<rect y="128" width="280" height="48" fill="#89CDD3"/>
<path d="M208.036 146.395L206 146.338L205.936 148.628L208.036 146.395Z" fill="#ACDEB6"/>
<path d="M216.012 152.478L217.073 150.98L217.793 152.528L216.012 152.478Z" fill="#ACDEB6"/>
<path d="M61.7776 159.874L63.813 159.934L63.8798 157.644L61.7776 159.874Z" fill="#ACDEB6"/>
<path d="M53.8069 153.785L52.7446 155.282L52.0259 153.733L53.8069 153.785Z" fill="#ACDEB6"/>
<path d="M178.125 157.522L177.038 155.801L175.101 157.024L178.125 157.522Z" fill="#ACDEB6"/>
<path d="M177.524 167.535L179.359 167.58L178.475 169.041L177.524 167.535Z" fill="#ACDEB6"/>
<path d="M91.6994 148.772L92.7852 150.494L94.7231 149.273L91.6994 148.772Z" fill="#ACDEB6"/>
<path d="M92.3092 138.76L90.4744 138.713L91.3592 137.252L92.3092 138.76Z" fill="#ACDEB6"/>
<path d="M5.67162 165.223L6.75732 166.945L8.69529 165.724L5.67162 165.223Z" fill="#ACDEB6"/>
<path d="M6.28138 155.211L4.44654 155.164L5.33138 153.703L6.28138 155.211Z" fill="#ACDEB6"/>
<path d="M152.551 159.386L154.573 159.627L154.844 157.352L152.551 159.386Z" fill="#ACDEB6"/>
<path d="M145.156 152.608L143.965 154.004L143.387 152.397L145.156 152.608Z" fill="#ACDEB6"/>
<path d="M117.275 146.93L115.253 146.688L114.98 148.962L117.275 146.93Z" fill="#ACDEB6"/>
<path d="M124.663 153.714L125.856 152.32L126.432 153.927L124.663 153.714Z" fill="#ACDEB6"/>
<path d="M241.635 173.321L243.657 173.562L243.928 171.288L241.635 173.321Z" fill="#ACDEB6"/>
<path d="M234.24 166.544L233.049 167.94L232.471 166.333L234.24 166.544Z" fill="#ACDEB6"/>
<path d="M28.2028 132.919L26.1812 132.676L25.9079 134.95L28.2028 132.919Z" fill="#ACDEB6"/>
<path d="M35.5912 139.703L36.7843 138.308L37.3602 139.915L35.5912 139.703Z" fill="#ACDEB6"/>
<path d="M244.485 148.665L243.982 146.691L241.762 147.256L244.485 148.665Z" fill="#ACDEB6"/>
<path d="M240.82 158.002L242.551 158.612L241.259 159.728L240.82 158.002Z" fill="#ACDEB6"/>
<path d="M25.3316 157.571L25.832 159.545L28.0525 158.982L25.3316 157.571Z" fill="#ACDEB6"/>
<path d="M29.0047 148.237L27.2741 147.626L28.5668 146.51L29.0047 148.237Z" fill="#ACDEB6"/>
<path d="M262.264 139.083L261.762 137.109L259.542 137.674L262.264 139.083Z" fill="#ACDEB6"/>
<path d="M258.6 148.42L260.331 149.03L259.039 150.146L258.6 148.42Z" fill="#ACDEB6"/>
<path d="M269.9 157.919L269.398 155.945L267.178 156.51L269.9 157.919Z" fill="#ACDEB6"/>
<path d="M266.235 167.256L267.966 167.866L266.675 168.982L266.235 167.256Z" fill="#ACDEB6"/>
<path d="M192.122 141.871L192.18 139.836L193.939 140.65L192.122 141.871Z" fill="#ACDEB6"/>
<path d="M77.6878 164.41L77.6284 166.445L75.8697 165.63L77.6878 164.41Z" fill="#ACDEB6"/>
<path d="M173.006 141.79L174.728 140.703L175.033 142.617L173.006 141.79Z" fill="#ACDEB6"/>
<path d="M96.8037 164.51L95.0811 165.596L94.7771 163.681L96.8037 164.51Z" fill="#ACDEB6"/>
<path d="M102.832 155.168L101.109 156.254L100.805 154.339L102.832 155.168Z" fill="#ACDEB6"/>
<path d="M217.751 161.874L219.473 160.787L219.778 162.701L217.751 161.874Z" fill="#ACDEB6"/>
<path d="M52.0766 144.383L50.354 145.469L50.05 143.554L52.0766 144.383Z" fill="#ACDEB6"/>
<path d="M167.991 165.332L167.75 167.354L166.071 166.384L167.991 165.332Z" fill="#ACDEB6"/>
<path d="M101.839 140.973L102.082 138.951L103.76 139.922L101.839 140.973Z" fill="#ACDEB6"/>
<path d="M154.271 133.133L154.514 131.111L156.192 132.082L154.271 133.133Z" fill="#ACDEB6"/>
<path d="M18.863 150.235L19.106 148.213L20.7838 149.184L18.863 150.235Z" fill="#ACDEB6"/>
<path d="M-1.50073 143.317L-1.25781 141.295L0.420074 142.266L-1.50073 143.317Z" fill="#ACDEB6"/>
<path d="M244.476 132.121L246.45 131.619L246.149 133.534L244.476 132.121Z" fill="#ACDEB6"/>
<path d="M25.3244 174.115L23.3506 174.615L23.6529 172.701L25.3244 174.115Z" fill="#ACDEB6"/>
<path d="M195.739 131.023L193.137 132.987L195.638 134.585L195.739 131.023Z" fill="#ACDEB6"/>
<path d="M74.0608 175.252L76.6644 173.291L74.1647 171.69L74.0608 175.252Z" fill="#ACDEB6"/>
<path d="M221.951 131.82L219.349 133.783L221.85 135.382L221.951 131.82Z" fill="#ACDEB6"/>
<path d="M47.8493 174.436L50.4529 172.474L47.9532 170.874L47.8493 174.436Z" fill="#ACDEB6"/>
<path d="M205.661 168.982L203.06 170.946L205.561 172.544L205.661 168.982Z" fill="#ACDEB6"/>
<path d="M64.1726 137.287L66.7762 135.326L64.2765 133.725L64.1726 137.287Z" fill="#ACDEB6"/>
<path d="M184.026 138.744L180.945 137.679L181.013 140.647L184.026 138.744Z" fill="#ACDEB6"/>
<path d="M85.781 167.544L88.8608 168.612L88.7957 165.644L85.781 167.544Z" fill="#ACDEB6"/>
<path d="M134.603 134.759L137.683 135.826L137.618 132.859L134.603 134.759Z" fill="#ACDEB6"/>
<path d="M135.112 170.749L138.192 171.817L138.127 168.849L135.112 170.749Z" fill="#ACDEB6"/>
<path d="M206.679 137.554L203.599 136.49L203.666 139.457L206.679 137.554Z" fill="#ACDEB6"/>
<path d="M63.1263 168.714L66.206 169.781L66.1409 166.814L63.1263 168.714Z" fill="#ACDEB6"/>
<path d="M112.458 171.917L115.538 172.985L115.472 170.017L112.458 171.917Z" fill="#ACDEB6"/>
<path d="M214.824 172.677L211.743 171.613L211.811 174.58L214.824 172.677Z" fill="#ACDEB6"/>
<path d="M55.0125 133.583L58.0923 134.651L58.0271 131.683L55.0125 133.583Z" fill="#ACDEB6"/>
<path d="M163.409 175.806L166.178 174.086L163.831 172.268L163.409 175.806Z" fill="#ACDEB6"/>
<path d="M106.43 130.501L103.66 132.219L106.005 134.039L106.43 130.501Z" fill="#ACDEB6"/>
<path d="M23.4539 139.765L20.6838 141.483L23.0288 143.303L23.4539 139.765Z" fill="#ACDEB6"/>
<path d="M273.508 169.587L276.164 171.477L276.936 168.611L273.508 169.587Z" fill="#ACDEB6"/>
<path d="M255.899 132.627L253.298 130.662L252.446 133.506L255.899 132.627Z" fill="#ACDEB6"/>
<path d="M13.9018 173.597L16.5011 175.564L17.356 172.722L13.9018 173.597Z" fill="#ACDEB6"/>
<path d="M214.946 136.15L213.398 136.87L214.867 138.949L214.946 136.15Z" fill="#E7E88C"/>
<path d="M204.935 157.001L203.62 158.492L204.863 159.545L204.935 157.001Z" fill="#E7E88C"/>
<path d="M230.954 137.366L228.606 139.337L230.337 141.168L230.954 137.366Z" fill="#E7E88C"/>
<path d="M222.814 146.048L221.833 144.747L221.266 146.768L222.814 146.048Z" fill="#E7E88C"/>
<path d="M54.8588 170.11L56.4075 169.391L54.9404 167.312L54.8588 170.11Z" fill="#E7E88C"/>
<path d="M64.8883 149.268L66.205 147.778L64.9625 146.724L64.8883 149.268Z" fill="#E7E88C"/>
<path d="M38.8525 168.879L41.2017 166.911L39.4727 165.078L38.8525 168.879Z" fill="#E7E88C"/>
<path d="M46.9993 160.205L47.9799 161.506L48.5481 159.486L46.9993 160.205Z" fill="#E7E88C"/>
<path d="M190.482 157.547L189.021 156.663L188.115 159.042L190.482 157.547Z" fill="#E7E88C"/>
<path d="M167.591 160.864L165.62 160.603L165.439 162.223L167.591 160.864Z" fill="#E7E88C"/>
<path d="M198.398 171.512L195.454 170.663L194.898 173.121L198.398 171.512Z" fill="#E7E88C"/>
<path d="M186.653 169.598L187.185 168.057L185.192 168.714L186.653 169.598Z" fill="#E7E88C"/>
<path d="M79.342 148.737L80.8023 149.622L81.7107 147.245L79.342 148.737Z" fill="#E7E88C"/>
<path d="M102.236 145.44L104.206 145.703L104.389 144.083L102.236 145.44Z" fill="#E7E88C"/>
<path d="M71.4381 134.764L74.3821 135.617L74.9395 133.159L71.4381 134.764Z" fill="#E7E88C"/>
<path d="M83.1817 136.69L82.6479 138.23L84.642 137.575L83.1817 136.69Z" fill="#E7E88C"/>
<path d="M0.516051 154.396L1.73591 153.201L-0.341584 151.73L0.516051 154.396Z" fill="#E7E88C"/>
<path d="M3.00968 131.401L3.75334 129.557L2.23001 128.978L3.00968 131.401Z" fill="#E7E88C"/>
<path d="M-14.9823 158.581L-13.4254 155.941L-15.6673 154.79L-14.9823 158.581Z" fill="#E7E88C"/>
<path d="M-10.2001 147.683L-8.84107 148.583L-8.98022 146.489L-10.2001 147.683Z" fill="#E7E88C"/>
<path d="M190.991 132.601L189.53 131.718L188.623 134.096L190.991 132.601Z" fill="#E7E88C"/>
<path d="M168.1 135.919L166.129 135.658L165.948 137.278L168.1 135.919Z" fill="#E7E88C"/>
<path d="M198.907 146.567L195.962 145.718L195.407 148.175L198.907 146.567Z" fill="#E7E88C"/>
<path d="M187.162 144.652L187.694 143.112L185.701 143.769L187.162 144.652Z" fill="#E7E88C"/>
<path d="M78.8113 173.683L80.2715 174.568L81.1799 172.19L78.8113 173.683Z" fill="#E7E88C"/>
<path d="M101.705 170.386L103.676 170.648L103.858 169.029L101.705 170.386Z" fill="#E7E88C"/>
<path d="M70.9073 159.71L73.8514 160.562L74.4087 158.105L70.9073 159.71Z" fill="#E7E88C"/>
<path d="M82.651 161.635L82.1172 163.175L84.1112 162.52L82.651 161.635Z" fill="#E7E88C"/>
<path d="M230.188 159.582L228.727 158.698L227.821 161.077L230.188 159.582Z" fill="#E7E88C"/>
<path d="M207.298 162.899L205.327 162.639L205.146 164.258L207.298 162.899Z" fill="#E7E88C"/>
<path d="M238.105 173.548L235.16 172.698L234.605 175.156L238.105 173.548Z" fill="#E7E88C"/>
<path d="M226.36 171.633L226.892 170.092L224.898 170.749L226.36 171.633Z" fill="#E7E88C"/>
<path d="M39.6374 146.665L41.0977 147.55L42.0061 145.172L39.6374 146.665Z" fill="#E7E88C"/>
<path d="M62.5312 143.368L64.5018 143.63L64.6845 142.011L62.5312 143.368Z" fill="#E7E88C"/>
<path d="M31.7335 132.692L34.6775 133.544L35.2349 131.087L31.7335 132.692Z" fill="#E7E88C"/>
<path d="M43.4771 134.617L42.9433 136.157L44.9374 135.502L43.4771 134.617Z" fill="#E7E88C"/>
<path d="M301.965 130.566L300.504 129.683L299.598 132.061L301.965 130.566Z" fill="#E7E88C"/>
<path d="M279.075 133.884L277.104 133.623L276.922 135.243L279.075 133.884Z" fill="#E7E88C"/>
<path d="M309.882 144.532L306.937 143.682L306.382 146.14L309.882 144.532Z" fill="#E7E88C"/>
<path d="M298.136 142.617L298.669 141.077L296.675 141.734L298.136 142.617Z" fill="#E7E88C"/>
<path d="M144.743 168.967L146.35 168.389L145.075 166.186L144.743 168.967Z" fill="#E7E88C"/>
<path d="M156.596 149.104L158.041 147.739L156.898 146.577L156.596 149.104Z" fill="#E7E88C"/>
<path d="M128.911 166.31L131.427 164.559L129.869 162.579L128.911 166.31Z" fill="#E7E88C"/>
<path d="M137.801 158.398L138.661 159.782L139.408 157.821L137.801 158.398Z" fill="#E7E88C"/>
<path d="M125.09 137.357L123.483 137.933L124.756 140.137L125.09 137.357Z" fill="#E7E88C"/>
<path d="M113.22 157.209L111.774 158.573L112.916 159.736L113.22 157.209Z" fill="#E7E88C"/>
<path d="M140.92 140.028L138.403 141.777L139.959 143.758L140.92 140.028Z" fill="#E7E88C"/>
<path d="M132.023 147.932L131.164 146.547L130.416 148.508L132.023 147.932Z" fill="#E7E88C"/>
<path d="M1.52228 175.566L3.22945 175.536L2.73069 173.04L1.52228 175.566Z" fill="#E7E88C"/>
<path d="M19.1356 160.574L20.9427 159.745L20.2341 158.277L19.1356 160.574Z" fill="#E7E88C"/>
<path d="M-12.613 167.956L-9.66778 167.108L-10.506 164.732L-12.613 167.956Z" fill="#E7E88C"/>
<path d="M-1.65044 163.326L-1.28132 164.913L0.0567343 163.296L-1.65044 163.326Z" fill="#E7E88C"/>
<path d="M272.616 149.728L273.768 150.988L275.309 148.961L272.616 149.728Z" fill="#E7E88C"/>
<path d="M295.513 152.999L297.331 153.805L297.961 152.302L295.513 152.999Z" fill="#E7E88C"/>
<path d="M268.958 134.097L271.544 135.743L272.769 133.541L268.958 134.097Z" fill="#E7E88C"/>
<path d="M279.687 139.246L278.742 140.573L280.84 140.505L279.687 139.246Z" fill="#E7E88C"/>
<path d="M256.23 152.503L255.113 151.211L253.516 153.193L256.23 152.503Z" fill="#E7E88C"/>
<path d="M233.434 148.586L231.64 147.729L230.967 149.214L233.434 148.586Z" fill="#E7E88C"/>
<path d="M259.444 168.231L256.906 166.513L255.619 168.679L259.444 168.231Z" fill="#E7E88C"/>
<path d="M248.865 162.781L249.847 161.481L247.748 161.49L248.865 162.781Z" fill="#E7E88C"/>
<path d="M13.5897 153.722L14.7052 155.014L16.3036 153.034L13.5897 153.722Z" fill="#E7E88C"/>
<path d="M36.3821 157.659L38.1752 158.517L38.8493 157.033L36.3821 157.659Z" fill="#E7E88C"/>
<path d="M10.3892 137.99L12.9259 139.71L14.2151 137.546L10.3892 137.99Z" fill="#E7E88C"/>
<path d="M20.9636 143.45L19.9802 144.749L22.079 144.742L20.9636 143.45Z" fill="#E7E88C"/>
<path d="M265.116 172.655L266.498 173.658L267.599 171.363L265.116 172.655Z" fill="#E7E88C"/>
<path d="M288.203 171.259L290.146 171.683L290.461 170.084L288.203 171.259Z" fill="#E7E88C"/>
<path d="M258.392 158.078L261.256 159.17L262.014 156.767L258.392 158.078Z" fill="#E7E88C"/>
<path d="M269.937 160.966L269.278 162.456L271.319 161.968L269.937 160.966Z" fill="#E7E88C"/>
<g filter="url(#filter5_d)">
<path d="M27.3898 22C26.7797 20.0909 25.7627 17.2955 22 16.9545C23.1695 16.5455 25.9153 16.4773 27.3898 18.5909C28.6102 16.2727 29.1186 15.5909 34 13C29.5265 15.3744 28.6919 17.9624 27.3908 21.997L27.3898 22Z" fill="black"/>
</g>
<g filter="url(#filter6_d)">
<path d="M32.0424 25C31.5847 24.3636 30.822 23.4318 28 23.3182C28.8771 23.1818 30.9364 23.1591 32.0424 23.8636C32.9576 23.0909 33.339 22.8636 37 22C33.6449 22.7915 33.0189 23.6541 32.0431 24.999L32.0424 25Z" fill="black"/>
</g>
<g filter="url(#filter7_d)">
<path d="M24.6949 29C24.3898 28.1515 23.8814 26.9091 22 26.7576C22.5847 26.5758 23.9576 26.5455 24.6949 27.4848C25.3051 26.4545 25.5593 26.1515 28 25C25.7633 26.0553 25.346 27.2055 24.6954 28.9987L24.6949 29Z" fill="black"/>
</g>
<g filter="url(#filter8_d)">
<path d="M219.61 46C220.22 44.0909 221.237 41.2955 225 40.9545C223.831 40.5455 221.085 40.4773 219.61 42.5909C218.39 40.2727 217.881 39.5909 213 37C217.473 39.3744 218.308 41.9624 219.609 45.997L219.61 46Z" fill="black"/>
</g>
<g filter="url(#filter9_d)">
<path d="M214.958 49C215.415 48.3636 216.178 47.4318 219 47.3182C218.123 47.1818 216.064 47.1591 214.958 47.8636C214.042 47.0909 213.661 46.8636 210 46C213.355 46.7915 213.981 47.6541 214.957 48.999L214.958 49Z" fill="black"/>
</g>
<g filter="url(#filter10_d)">
<path d="M222.305 53C222.61 52.1515 223.119 50.9091 225 50.7576C224.415 50.5758 223.042 50.5455 222.305 51.4848C221.695 50.4545 221.441 50.1515 219 49C221.237 50.0553 221.654 51.2055 222.305 52.9987L222.305 53Z" fill="black"/>
</g>
<g filter="url(#filter11_d)">
<path d="M57 137.5C60.2 140.3 60 138.5 60.5 139C62.5 141.5 58.5 141 56.5 141.5C54.5 142 52 140.5 54.5 140.5C57 140.5 53 136.5 52 136C51 135.5 49.5 133 50 131C50.5 129 48 129 48 128.5C48 128 46.5 127 46.5 125.5C46.5 124 44 124 43.5 122.5C43.1 121.3 44.3333 119 45 118H48C48.5 119.5 46.5 120.5 46.5 122.5C46.5 124.5 52 127.5 52 130C52 132.5 53 134 57 137.5Z" fill="#F0A510"/>
<path fill-rule="evenodd" clip-rule="evenodd" d="M50.4876 115.191H53.0593C53.7586 115.191 54.3255 115.758 54.3255 116.457C54.3255 116.634 54.289 116.803 54.2231 116.957H56.2815C56.9807 116.957 57.5476 117.523 57.5476 118.223C57.5476 118.462 57.4814 118.685 57.3663 118.876H58.3158C59.1634 118.876 59.8506 119.563 59.8506 120.411C59.8506 121.258 59.1634 121.945 58.3158 121.945H31.5347C30.6871 121.945 30 121.258 30 120.411C30 119.563 30.6871 118.876 31.5347 118.876H32.4826C32.3675 118.685 32.3013 118.462 32.3013 118.223C32.3013 117.523 32.8681 116.957 33.5674 116.957H35.6274C35.5615 116.803 35.525 116.634 35.525 116.457C35.525 115.758 36.0919 115.191 36.7911 115.191H39.3621C39.3833 114.51 39.9418 113.965 40.6276 113.965H49.2221C49.9079 113.965 50.4664 114.51 50.4876 115.191Z" fill="#539882"/>
<path fill-rule="evenodd" clip-rule="evenodd" d="M46.4876 113.226H49.0593C49.7586 113.226 50.3255 113.793 50.3255 114.492C50.3255 114.67 50.2888 114.839 50.2225 114.993H52.2816C52.9809 114.993 53.5478 115.56 53.5478 116.259C53.5478 116.498 53.4815 116.722 53.3664 116.912H54.3158C55.1634 116.912 55.8506 117.6 55.8506 118.447C55.8506 119.295 55.1634 119.982 54.3158 119.982H27.5347C26.6871 119.982 26 119.295 26 118.447C26 117.6 26.6871 116.912 27.5347 116.912H28.4829C28.3677 116.722 28.3014 116.498 28.3014 116.259C28.3014 115.56 28.8683 114.993 29.5676 114.993H31.6279C31.5617 114.839 31.525 114.67 31.525 114.492C31.525 113.793 32.0919 113.226 32.7911 113.226H35.3621C35.3833 112.545 35.9418 112 36.6276 112H45.2221C45.9079 112 46.4664 112.545 46.4876 113.226Z" fill="#539882"/>
<path fill-rule="evenodd" clip-rule="evenodd" d="M50.4876 110.226H53.0593C53.7586 110.226 54.3255 110.793 54.3255 111.492C54.3255 111.67 54.2888 111.839 54.2225 111.993H56.2816C56.9809 111.993 57.5478 112.56 57.5478 113.259C57.5478 113.498 57.4815 113.722 57.3664 113.912H58.3158C59.1634 113.912 59.8506 114.6 59.8506 115.447C59.8506 116.295 59.1634 116.982 58.3158 116.982H31.5347C30.6871 116.982 30 116.295 30 115.447C30 114.6 30.6871 113.912 31.5347 113.912H32.4829C32.3677 113.722 32.3014 113.498 32.3014 113.259C32.3014 112.56 32.8683 111.993 33.5676 111.993H35.6279C35.5617 111.839 35.525 111.67 35.525 111.492C35.525 110.793 36.0919 110.226 36.7911 110.226H39.3621C39.3833 109.545 39.9418 109 40.6276 109H49.2221C49.9079 109 50.4664 109.545 50.4876 110.226Z" fill="#539882"/>
<path fill-rule="evenodd" clip-rule="evenodd" d="M57.4876 113.208H60.0593C60.7586 113.208 61.3255 113.775 61.3255 114.474C61.3255 114.652 61.289 114.821 61.2231 114.974H63.2815C63.9807 114.974 64.5476 115.541 64.5476 116.24C64.5476 116.48 64.4811 116.704 64.3655 116.895H65.3158C66.1634 116.895 66.8506 117.582 66.8506 118.43C66.8506 119.277 66.1634 119.964 65.3158 119.964H38.5347C37.6871 119.964 37 119.277 37 118.43C37 117.582 37.6871 116.895 38.5347 116.895H39.4834C39.3678 116.704 39.3013 116.48 39.3013 116.24C39.3013 115.541 39.8681 114.974 40.5674 114.974H42.6274C42.5615 114.821 42.525 114.652 42.525 114.474C42.525 113.775 43.0919 113.208 43.7911 113.208H46.3621C46.3833 112.528 46.9418 111.982 47.6276 111.982H56.2221C56.9079 111.982 57.4664 112.528 57.4876 113.208Z" fill="#539882"/>
</g>
<g filter="url(#filter12_d)">
<path d="M174.471 150.35C171.888 153.728 171.728 151.924 171.337 152.512C169.87 155.359 173.693 154.078 175.752 154.172C177.811 154.267 179.965 152.303 177.515 152.797C175.064 153.291 178.194 148.579 179.076 147.891C179.957 147.204 180.933 144.456 180.048 142.595C179.162 140.733 181.613 140.239 181.514 139.749C181.415 139.258 182.688 137.982 182.392 136.511C182.095 135.041 184.546 134.547 184.739 132.977C184.894 131.722 183.231 129.711 182.379 128.863L179.439 129.456C179.245 131.025 181.403 131.61 181.799 133.57C182.194 135.531 177.395 139.559 177.89 142.01C178.384 144.46 177.7 146.128 174.471 150.35Z" fill="#F0A510"/>
<path fill-rule="evenodd" clip-rule="evenodd" d="M176.42 126.384L173.848 126.384C173.149 126.384 172.582 126.951 172.582 127.65C172.582 127.828 172.619 127.997 172.685 128.15L170.626 128.15C169.927 128.15 169.36 128.717 169.36 129.416C169.36 129.655 169.426 129.879 169.541 130.069L168.592 130.069C167.744 130.069 167.057 130.756 167.057 131.604C167.057 132.452 167.744 133.139 168.592 133.139L195.373 133.139C196.221 133.139 196.908 132.452 196.908 131.604C196.908 130.756 196.221 130.069 195.373 130.069L194.425 130.069C194.54 129.879 194.606 129.655 194.606 129.416C194.606 128.717 194.04 128.15 193.34 128.15L191.28 128.15C191.346 127.997 191.383 127.828 191.383 127.65C191.383 126.951 190.816 126.384 190.117 126.384L187.546 126.384C187.524 125.703 186.966 125.158 186.28 125.158L177.686 125.158C177 125.158 176.441 125.703 176.42 126.384Z" fill="#539882"/>
<path fill-rule="evenodd" clip-rule="evenodd" d="M180.42 124.419L177.848 124.419C177.149 124.419 176.582 124.986 176.582 125.685C176.582 125.863 176.619 126.033 176.685 126.186L174.626 126.186C173.927 126.186 173.36 126.753 173.36 127.452C173.36 127.691 173.426 127.915 173.541 128.106L172.592 128.106C171.744 128.106 171.057 128.793 171.057 129.641C171.057 130.488 171.744 131.175 172.592 131.175L199.373 131.175C200.221 131.175 200.908 130.488 200.908 129.641C200.908 128.793 200.221 128.106 199.373 128.106L198.425 128.106C198.54 127.915 198.606 127.691 198.606 127.452C198.606 126.753 198.039 126.186 197.34 126.186L195.28 126.186C195.346 126.033 195.383 125.863 195.383 125.685C195.383 124.986 194.816 124.419 194.117 124.419L191.546 124.419C191.524 123.739 190.966 123.193 190.28 123.193L181.686 123.193C181 123.193 180.441 123.739 180.42 124.419Z" fill="#539882"/>
<path fill-rule="evenodd" clip-rule="evenodd" d="M176.42 121.419L173.848 121.419C173.149 121.419 172.582 121.986 172.582 122.685C172.582 122.863 172.619 123.033 172.685 123.186L170.626 123.186C169.927 123.186 169.36 123.753 169.36 124.452C169.36 124.691 169.426 124.915 169.541 125.106L168.592 125.106C167.744 125.106 167.057 125.793 167.057 126.641C167.057 127.488 167.744 128.175 168.592 128.175L195.373 128.175C196.221 128.175 196.908 127.488 196.908 126.641C196.908 125.793 196.221 125.106 195.373 125.106L194.425 125.106C194.54 124.915 194.606 124.691 194.606 124.452C194.606 123.753 194.039 123.186 193.34 123.186L191.28 123.186C191.346 123.033 191.383 122.863 191.383 122.685C191.383 121.986 190.816 121.419 190.117 121.419L187.546 121.419C187.524 120.739 186.966 120.193 186.28 120.193L177.686 120.193C177 120.193 176.441 120.739 176.42 121.419Z" fill="#539882"/>
<path fill-rule="evenodd" clip-rule="evenodd" d="M169.42 124.402L166.848 124.402C166.149 124.402 165.582 124.969 165.582 125.668C165.582 125.845 165.619 126.014 165.685 126.167L163.626 126.167C162.927 126.167 162.36 126.734 162.36 127.434C162.36 127.673 162.427 127.897 162.542 128.088L161.592 128.088C160.744 128.088 160.057 128.775 160.057 129.623C160.057 130.471 160.744 131.158 161.592 131.158L188.373 131.158C189.221 131.158 189.908 130.471 189.908 129.623C189.908 128.775 189.221 128.088 188.373 128.088L187.424 128.088C187.54 127.897 187.606 127.673 187.606 127.434C187.606 126.734 187.04 126.167 186.34 126.167L184.28 126.167C184.346 126.014 184.383 125.845 184.383 125.668C184.383 124.969 183.816 124.402 183.117 124.402L180.546 124.402C180.524 123.721 179.966 123.176 179.28 123.176L170.686 123.176C170 123.176 169.441 123.721 169.42 124.402Z" fill="#539882"/>
</g>
<g filter="url(#filter13_d)">
<path d="M147.5 132.626C146.3 133.826 147 136.126 147.5 137.126C148 137.793 148.7 139.127 147.5 139.127C146 139.127 144 138.627 145 137.627C146 136.627 145 133.127 145 132.626C145 132.126 146 128.627 146 127.627C146 126.627 144.5 125.127 144 125.127C143.6 125.127 142.5 122.46 142 121.126C143 120.96 145 120.826 145 121.626C145 122.626 146 125.126 147 126.126C148 127.126 149 131.126 147.5 132.626Z" fill="#F0A510"/>
<path fill-rule="evenodd" clip-rule="evenodd" d="M139.835 118.234H137.661C137.069 118.234 136.59 118.714 136.59 119.305C136.59 119.455 136.621 119.598 136.677 119.727H134.936C134.345 119.727 133.866 120.206 133.866 120.798C133.866 120.999 133.921 121.188 134.018 121.349H133.216C132.499 121.349 131.918 121.93 131.918 122.646C131.918 123.363 132.499 123.944 133.216 123.944H155.86C156.576 123.944 157.157 123.363 157.157 122.646C157.157 121.93 156.576 121.349 155.86 121.349H155.059C155.156 121.188 155.211 120.999 155.211 120.798C155.211 120.206 154.732 119.727 154.141 119.727H152.399C152.455 119.598 152.486 119.455 152.486 119.305C152.486 118.714 152.007 118.234 151.415 118.234H149.242C149.224 117.659 148.752 117.197 148.172 117.197H140.905C140.325 117.197 139.853 117.659 139.835 118.234Z" fill="#539882"/>
<path fill-rule="evenodd" clip-rule="evenodd" d="M143.217 116.574H141.042C140.451 116.574 139.972 117.053 139.972 117.645C139.972 117.795 140.003 117.937 140.058 118.067H138.318C137.727 118.067 137.247 118.546 137.247 119.138C137.247 119.34 137.303 119.529 137.401 119.69H136.598C135.881 119.69 135.3 120.271 135.3 120.988C135.3 121.705 135.881 122.286 136.598 122.286H159.241C159.958 122.286 160.539 121.705 160.539 120.988C160.539 120.271 159.958 119.69 159.241 119.69H158.44C158.537 119.529 158.593 119.34 158.593 119.138C158.593 118.546 158.114 118.067 157.523 118.067H155.781C155.837 117.937 155.868 117.795 155.868 117.645C155.868 117.053 155.388 116.574 154.797 116.574H152.623C152.606 115.998 152.134 115.537 151.553 115.537H144.287C143.707 115.537 143.234 115.998 143.217 116.574Z" fill="#539882"/>
<path fill-rule="evenodd" clip-rule="evenodd" d="M139.834 114.037H137.66C137.069 114.037 136.589 114.516 136.589 115.108C136.589 115.258 136.62 115.4 136.676 115.53H134.936C134.344 115.53 133.865 116.009 133.865 116.6C133.865 116.803 133.921 116.992 134.019 117.153H133.216C132.499 117.153 131.918 117.734 131.918 118.451C131.918 119.167 132.499 119.748 133.216 119.748H155.859C156.576 119.748 157.157 119.167 157.157 118.451C157.157 117.734 156.576 117.153 155.859 117.153H155.057C155.155 116.992 155.211 116.803 155.211 116.6C155.211 116.009 154.732 115.53 154.14 115.53H152.399C152.455 115.4 152.485 115.258 152.485 115.108C152.485 114.516 152.006 114.037 151.415 114.037H149.241C149.223 113.461 148.751 113 148.171 113H140.904C140.324 113 139.852 113.461 139.834 114.037Z" fill="#539882"/>
<path fill-rule="evenodd" clip-rule="evenodd" d="M133.916 116.559H131.742C131.151 116.559 130.672 117.038 130.672 117.629C130.672 117.779 130.702 117.922 130.758 118.051H129.018C128.426 118.051 127.947 118.531 127.947 119.122C127.947 119.324 128.003 119.513 128.101 119.675H127.298C126.581 119.675 126 120.256 126 120.972C126 121.689 126.581 122.27 127.298 122.27H149.941C150.658 122.27 151.239 121.689 151.239 120.972C151.239 120.256 150.658 119.675 149.941 119.675H149.139C149.237 119.513 149.293 119.324 149.293 119.122C149.293 118.531 148.814 118.051 148.222 118.051H146.481C146.537 117.922 146.567 117.779 146.567 117.629C146.567 117.038 146.088 116.559 145.497 116.559H143.323C143.306 115.983 142.833 115.521 142.253 115.521H134.986C134.406 115.521 133.934 115.983 133.916 116.559Z" fill="#539882"/>
</g>
<g filter="url(#filter14_d)">
<path d="M67.2384 130.979C68.1961 131.906 67.6375 133.683 67.2384 134.455C66.8394 134.97 66.2807 136 67.2384 136C68.4356 136 70.0317 135.614 69.2336 134.842C68.4355 134.069 69.2336 131.366 69.2336 130.979C69.2336 130.593 68.4355 127.891 68.4355 127.118C68.4355 126.346 69.6327 125.187 70.0317 125.187C70.351 125.187 71.2289 123.128 71.6279 122.098C70.8298 121.969 69.2336 121.866 69.2336 122.484C69.2336 123.256 68.4355 125.187 67.6374 125.959C66.8393 126.732 66.0413 129.821 67.2384 130.979Z" fill="#F0A510"/>
<path fill-rule="evenodd" clip-rule="evenodd" d="M73.5615 120.186H75.3008C75.7737 120.186 76.1571 120.57 76.1571 121.043C76.1571 121.163 76.1323 121.278 76.0875 121.382H77.4802C77.9531 121.382 78.3365 121.765 78.3365 122.238C78.3365 122.399 78.2918 122.55 78.2142 122.679H78.8562C79.4295 122.679 79.8942 123.144 79.8942 123.717C79.8942 124.29 79.4295 124.755 78.8562 124.755H60.7435C60.1703 124.755 59.7056 124.29 59.7056 123.717C59.7056 123.144 60.1703 122.679 60.7435 122.679H61.3841C61.3065 122.55 61.2618 122.399 61.2618 122.238C61.2618 121.765 61.6452 121.382 62.1181 121.382H63.5115C63.4667 121.278 63.4419 121.163 63.4419 121.043C63.4419 120.57 63.8253 120.186 64.2982 120.186H66.037C66.0514 119.726 66.4291 119.357 66.8929 119.357H72.7056C73.1694 119.357 73.5471 119.726 73.5615 120.186Z" fill="#539882"/>
<path fill-rule="evenodd" clip-rule="evenodd" d="M70.8564 118.858H72.5957C73.0687 118.858 73.452 119.242 73.452 119.715C73.452 119.835 73.4272 119.95 73.3824 120.053H74.7751C75.248 120.053 75.6314 120.437 75.6314 120.91C75.6314 121.071 75.5868 121.222 75.5091 121.351H76.1512C76.7244 121.351 77.1891 121.816 77.1891 122.389C77.1891 122.962 76.7244 123.427 76.1512 123.427H58.0385C57.4652 123.427 57.0005 122.962 57.0005 122.389C57.0005 121.816 57.4652 121.351 58.0385 121.351H58.6791C58.6014 121.222 58.5567 121.071 58.5567 120.91C58.5567 120.437 58.9401 120.053 59.4131 120.053H60.8064C60.7616 119.95 60.7368 119.835 60.7368 119.715C60.7368 119.242 61.1202 118.858 61.5932 118.858H63.3319C63.3463 118.398 63.724 118.029 64.1878 118.029H70.0005C70.4643 118.029 70.842 118.398 70.8564 118.858Z" fill="#539882"/>
<path fill-rule="evenodd" clip-rule="evenodd" d="M73.5619 116.829H75.3013C75.7742 116.829 76.1576 117.212 76.1576 117.685C76.1576 117.806 76.1328 117.92 76.088 118.024H77.4807C77.9536 118.024 78.337 118.408 78.337 118.88C78.337 119.042 78.2923 119.193 78.2147 119.322H78.8567C79.43 119.322 79.8947 119.787 79.8947 120.36C79.8947 120.933 79.43 121.398 78.8567 121.398H60.744C60.1708 121.398 59.7061 120.933 59.7061 120.36C59.7061 119.787 60.1708 119.322 60.744 119.322H61.3846C61.307 119.193 61.2623 119.042 61.2623 118.88C61.2623 118.408 61.6457 118.024 62.1186 118.024H63.512C63.4672 117.92 63.4424 117.806 63.4424 117.685C63.4424 117.212 63.8258 116.829 64.2987 116.829H66.0375C66.0519 116.369 66.4296 116 66.8934 116H72.706C73.1699 116 73.5476 116.369 73.5619 116.829Z" fill="#539882"/>
<path fill-rule="evenodd" clip-rule="evenodd" d="M78.2958 118.845H80.0352C80.5081 118.845 80.8915 119.228 80.8915 119.701C80.8915 119.821 80.8667 119.936 80.8219 120.04H82.2146C82.6875 120.04 83.0709 120.423 83.0709 120.896C83.0709 121.058 83.0262 121.209 82.9486 121.337H83.5906C84.1639 121.337 84.6286 121.802 84.6286 122.375C84.6286 122.949 84.1639 123.413 83.5906 123.413H65.4779C64.9047 123.413 64.4399 122.949 64.4399 122.375C64.4399 121.802 64.9047 121.337 65.4779 121.337H66.1185C66.0409 121.209 65.9962 121.058 65.9962 120.896C65.9962 120.423 66.3796 120.04 66.8525 120.04H68.2459C68.2011 119.936 68.1763 119.821 68.1763 119.701C68.1763 119.228 68.5597 118.845 69.0326 118.845H70.7714C70.7858 118.384 71.1634 118.016 71.6273 118.016H77.4399C77.9037 118.016 78.2814 118.384 78.2958 118.845Z" fill="#539882"/>
</g>
<path d="M62.5 153.5C50.5 165.1 15.8333 161.667 0 158.5L-9 182.5H55.5C61.1667 179.167 74.6 171.1 83 165.5C91.4 159.9 104.5 163.167 110 165.5L120.5 175H182.5C188 175 195 164.5 208.5 160C222.714 155.262 228.5 148.5 227.5 141C226.5 133.5 243.5 135 248 138C251.711 140.474 264.5 143 281 147.5V143C272.833 141.667 255.3 138 250.5 134C244.5 129 217.5 128 219 139C220.5 150 198.5 150.5 180.5 162C162.5 173.5 124.5 153.5 116.5 150.5C108.5 147.5 77.5 139 62.5 153.5Z" fill="#FFF0E1"/>
<g filter="url(#filter15_d)">
<path d="M248.765 147.501C249.965 146.301 249.265 144.001 248.765 143.001C248.265 142.334 247.565 141 248.765 141C250.265 141 252.265 141.5 251.265 142.5C250.265 143.5 251.265 147 251.265 147.501C251.265 148.001 250.265 151.5 250.265 152.5C250.265 153.5 251.765 155 252.265 155C252.665 155 253.765 157.667 254.265 159.001C253.265 159.167 251.265 159.301 251.265 158.501C251.265 157.501 250.265 155.001 249.265 154.001C248.265 153.001 247.265 149.001 248.765 147.501Z" fill="#F0A510"/>
<path fill-rule="evenodd" clip-rule="evenodd" d="M245.835 138.234H243.661C243.069 138.234 242.59 138.714 242.59 139.305C242.59 139.455 242.621 139.598 242.677 139.727H240.936C240.345 139.727 239.866 140.206 239.866 140.798C239.866 140.999 239.921 141.188 240.018 141.349H239.216C238.499 141.349 237.918 141.93 237.918 142.646C237.918 143.363 238.499 143.944 239.216 143.944H261.86C262.576 143.944 263.157 143.363 263.157 142.646C263.157 141.93 262.576 141.349 261.86 141.349H261.059C261.156 141.188 261.211 140.999 261.211 140.798C261.211 140.206 260.732 139.727 260.141 139.727H258.399C258.455 139.598 258.486 139.455 258.486 139.305C258.486 138.714 258.007 138.234 257.415 138.234H255.242C255.224 137.659 254.752 137.197 254.172 137.197H246.905C246.325 137.197 245.853 137.659 245.835 138.234Z" fill="#539882"/>
<path fill-rule="evenodd" clip-rule="evenodd" d="M249.217 136.574H247.042C246.451 136.574 245.972 137.053 245.972 137.645C245.972 137.795 246.003 137.937 246.058 138.067H244.318C243.727 138.067 243.247 138.546 243.247 139.138C243.247 139.34 243.303 139.529 243.401 139.69H242.598C241.881 139.69 241.3 140.271 241.3 140.988C241.3 141.705 241.881 142.286 242.598 142.286H265.241C265.958 142.286 266.539 141.705 266.539 140.988C266.539 140.271 265.958 139.69 265.241 139.69H264.44C264.537 139.529 264.593 139.34 264.593 139.138C264.593 138.546 264.114 138.067 263.523 138.067H261.781C261.837 137.937 261.868 137.795 261.868 137.645C261.868 137.053 261.388 136.574 260.797 136.574H258.623C258.606 135.998 258.134 135.537 257.553 135.537H250.287C249.707 135.537 249.234 135.998 249.217 136.574Z" fill="#539882"/>
<path fill-rule="evenodd" clip-rule="evenodd" d="M245.834 134.037H243.66C243.069 134.037 242.589 134.516 242.589 135.108C242.589 135.258 242.62 135.4 242.676 135.53H240.936C240.344 135.53 239.865 136.009 239.865 136.6C239.865 136.803 239.921 136.992 240.019 137.153H239.216C238.499 137.153 237.918 137.734 237.918 138.451C237.918 139.167 238.499 139.748 239.216 139.748H261.859C262.576 139.748 263.157 139.167 263.157 138.451C263.157 137.734 262.576 137.153 261.859 137.153H261.057C261.155 136.992 261.211 136.803 261.211 136.6C261.211 136.009 260.732 135.53 260.14 135.53H258.399C258.455 135.4 258.485 135.258 258.485 135.108C258.485 134.516 258.006 134.037 257.415 134.037H255.241C255.223 133.461 254.751 133 254.171 133H246.904C246.324 133 245.852 133.461 245.834 134.037Z" fill="#539882"/>
<path fill-rule="evenodd" clip-rule="evenodd" d="M239.916 136.559H237.742C237.151 136.559 236.672 137.038 236.672 137.629C236.672 137.779 236.702 137.922 236.758 138.051H235.018C234.426 138.051 233.947 138.531 233.947 139.122C233.947 139.324 234.003 139.513 234.101 139.675H233.298C232.581 139.675 232 140.256 232 140.972C232 141.689 232.581 142.27 233.298 142.27H255.941C256.658 142.27 257.239 141.689 257.239 140.972C257.239 140.256 256.658 139.675 255.941 139.675H255.139C255.237 139.513 255.293 139.324 255.293 139.122C255.293 138.531 254.814 138.051 254.222 138.051H252.481C252.537 137.922 252.567 137.779 252.567 137.629C252.567 137.038 252.088 136.559 251.497 136.559H249.323C249.306 135.983 248.833 135.521 248.253 135.521H240.986C240.406 135.521 239.934 135.983 239.916 136.559Z" fill="#539882"/>
</g>
</g>
<defs>
<filter id="filter0_d" x="58.5107" y="3" width="267.489" height="159.256" filterUnits="userSpaceOnUse" color-interpolation-filters="sRGB">
<feFlood flood-opacity="0" result="BackgroundImageFix"/>
<feColorMatrix in="SourceAlpha" type="matrix" values="0 0 0 0 0 0 0 0 0 0 0 0 0 0 0 0 0 0 127 0"/>
<feOffset dx="12"/>
<feGaussianBlur stdDeviation="5"/>
<feColorMatrix type="matrix" values="0 0 0 0 0 0 0 0 0 0 0 0 0 0 0 0 0 0 0.1 0"/>
<feBlend mode="normal" in2="BackgroundImageFix" result="effect1_dropShadow"/>
<feBlend mode="normal" in="SourceGraphic" in2="effect1_dropShadow" result="shape"/>
</filter>
<filter id="filter1_d" x="-12" y="-10" width="267.489" height="159.256" filterUnits="userSpaceOnUse" color-interpolation-filters="sRGB">
<feFlood flood-opacity="0" result="BackgroundImageFix"/>
<feColorMatrix in="SourceAlpha" type="matrix" values="0 0 0 0 0 0 0 0 0 0 0 0 0 0 0 0 0 0 127 0"/>
<feOffset dx="12"/>
<feGaussianBlur stdDeviation="5"/>
<feColorMatrix type="matrix" values="0 0 0 0 0 0 0 0 0 0 0 0 0 0 0 0 0 0 0.1 0"/>
<feBlend mode="normal" in2="BackgroundImageFix" result="effect1_dropShadow"/>
<feBlend mode="normal" in="SourceGraphic" in2="effect1_dropShadow" result="shape"/>
</filter>
<filter id="filter2_d" x="159.323" y="6.39648" width="157.66" height="145.151" filterUnits="userSpaceOnUse" color-interpolation-filters="sRGB">
<feFlood flood-opacity="0" result="BackgroundImageFix"/>
<feColorMatrix in="SourceAlpha" type="matrix" values="0 0 0 0 0 0 0 0 0 0 0 0 0 0 0 0 0 0 127 0"/>
<feOffset dx="12" dy="-4"/>
<feGaussianBlur stdDeviation="6.125"/>
<feColorMatrix type="matrix" values="0 0 0 0 0 0 0 0 0 0 0 0 0 0 0 0 0 0 0.1 0"/>
<feBlend mode="normal" in2="BackgroundImageFix" result="effect1_dropShadow"/>
<feBlend mode="normal" in="SourceGraphic" in2="effect1_dropShadow" result="shape"/>
</filter>
<filter id="filter3_d" x="-35.25" y="18.75" width="124.928" height="115.494" filterUnits="userSpaceOnUse" color-interpolation-filters="sRGB">
<feFlood flood-opacity="0" result="BackgroundImageFix"/>
<feColorMatrix in="SourceAlpha" type="matrix" values="0 0 0 0 0 0 0 0 0 0 0 0 0 0 0 0 0 0 127 0"/>
<feOffset dx="12" dy="-4"/>
<feGaussianBlur stdDeviation="6.125"/>
<feColorMatrix type="matrix" values="0 0 0 0 0 0 0 0 0 0 0 0 0 0 0 0 0 0 0.1 0"/>
<feBlend mode="normal" in2="BackgroundImageFix" result="effect1_dropShadow"/>
<feBlend mode="normal" in="SourceGraphic" in2="effect1_dropShadow" result="shape"/>
</filter>
<filter id="filter4_d" x="-31.2515" y="35.3403" width="343.503" height="101.358" filterUnits="userSpaceOnUse" color-interpolation-filters="sRGB">
<feFlood flood-opacity="0" result="BackgroundImageFix"/>
<feColorMatrix in="SourceAlpha" type="matrix" values="0 0 0 0 0 0 0 0 0 0 0 0 0 0 0 0 0 0 127 0"/>
<feOffset dx="12" dy="-4"/>
<feGaussianBlur stdDeviation="6.12576"/>
<feColorMatrix type="matrix" values="0 0 0 0 0 0 0 0 0 0 0 0 0 0 0 0 0 0 0.1 0"/>
<feBlend mode="normal" in2="BackgroundImageFix" result="effect1_dropShadow"/>
<feBlend mode="normal" in="SourceGraphic" in2="effect1_dropShadow" result="shape"/>
</filter>
<filter id="filter5_d" x="22" y="13" width="24" height="17" filterUnits="userSpaceOnUse" color-interpolation-filters="sRGB">
<feFlood flood-opacity="0" result="BackgroundImageFix"/>
<feColorMatrix in="SourceAlpha" type="matrix" values="0 0 0 0 0 0 0 0 0 0 0 0 0 0 0 0 0 0 127 0"/>
<feOffset dx="8" dy="4"/>
<feGaussianBlur stdDeviation="2"/>
<feColorMatrix type="matrix" values="0 0 0 0 0 0 0 0 0 0 0 0 0 0 0 0 0 0 0.1 0"/>
<feBlend mode="normal" in2="BackgroundImageFix" result="effect1_dropShadow"/>
<feBlend mode="normal" in="SourceGraphic" in2="effect1_dropShadow" result="shape"/>
</filter>
<filter id="filter6_d" x="28" y="22" width="17.1356" height="8.42373" filterUnits="userSpaceOnUse" color-interpolation-filters="sRGB">
<feFlood flood-opacity="0" result="BackgroundImageFix"/>
<feColorMatrix in="SourceAlpha" type="matrix" values="0 0 0 0 0 0 0 0 0 0 0 0 0 0 0 0 0 0 127 0"/>
<feOffset dx="5.42373" dy="2.71186"/>
<feGaussianBlur stdDeviation="1.35593"/>
<feColorMatrix type="matrix" values="0 0 0 0 0 0 0 0 0 0 0 0 0 0 0 0 0 0 0.1 0"/>
<feBlend mode="normal" in2="BackgroundImageFix" result="effect1_dropShadow"/>
<feBlend mode="normal" in="SourceGraphic" in2="effect1_dropShadow" result="shape"/>
</filter>
<filter id="filter7_d" x="22" y="25" width="12.7119" height="8.47458" filterUnits="userSpaceOnUse" color-interpolation-filters="sRGB">
<feFlood flood-opacity="0" result="BackgroundImageFix"/>
<feColorMatrix in="SourceAlpha" type="matrix" values="0 0 0 0 0 0 0 0 0 0 0 0 0 0 0 0 0 0 127 0"/>
<feOffset dx="4.47458" dy="2.23729"/>
<feGaussianBlur stdDeviation="1.11864"/>
<feColorMatrix type="matrix" values="0 0 0 0 0 0 0 0 0 0 0 0 0 0 0 0 0 0 0.1 0"/>
<feBlend mode="normal" in2="BackgroundImageFix" result="effect1_dropShadow"/>
<feBlend mode="normal" in="SourceGraphic" in2="effect1_dropShadow" result="shape"/>
</filter>
<filter id="filter8_d" x="213" y="37" width="24" height="17" filterUnits="userSpaceOnUse" color-interpolation-filters="sRGB">
<feFlood flood-opacity="0" result="BackgroundImageFix"/>
<feColorMatrix in="SourceAlpha" type="matrix" values="0 0 0 0 0 0 0 0 0 0 0 0 0 0 0 0 0 0 127 0"/>
<feOffset dx="8" dy="4"/>
<feGaussianBlur stdDeviation="2"/>
<feColorMatrix type="matrix" values="0 0 0 0 0 0 0 0 0 0 0 0 0 0 0 0 0 0 0.1 0"/>
<feBlend mode="normal" in2="BackgroundImageFix" result="effect1_dropShadow"/>
<feBlend mode="normal" in="SourceGraphic" in2="effect1_dropShadow" result="shape"/>
</filter>
<filter id="filter9_d" x="210" y="46" width="17.1356" height="8.42373" filterUnits="userSpaceOnUse" color-interpolation-filters="sRGB">
<feFlood flood-opacity="0" result="BackgroundImageFix"/>
<feColorMatrix in="SourceAlpha" type="matrix" values="0 0 0 0 0 0 0 0 0 0 0 0 0 0 0 0 0 0 127 0"/>
<feOffset dx="5.42373" dy="2.71186"/>
<feGaussianBlur stdDeviation="1.35593"/>
<feColorMatrix type="matrix" values="0 0 0 0 0 0 0 0 0 0 0 0 0 0 0 0 0 0 0.1 0"/>
<feBlend mode="normal" in2="BackgroundImageFix" result="effect1_dropShadow"/>
<feBlend mode="normal" in="SourceGraphic" in2="effect1_dropShadow" result="shape"/>
</filter>
<filter id="filter10_d" x="219" y="49" width="12.7119" height="8.47458" filterUnits="userSpaceOnUse" color-interpolation-filters="sRGB">
<feFlood flood-opacity="0" result="BackgroundImageFix"/>
<feColorMatrix in="SourceAlpha" type="matrix" values="0 0 0 0 0 0 0 0 0 0 0 0 0 0 0 0 0 0 127 0"/>
<feOffset dx="4.47458" dy="2.23729"/>
<feGaussianBlur stdDeviation="1.11864"/>
<feColorMatrix type="matrix" values="0 0 0 0 0 0 0 0 0 0 0 0 0 0 0 0 0 0 0.1 0"/>
<feBlend mode="normal" in2="BackgroundImageFix" result="effect1_dropShadow"/>
<feBlend mode="normal" in="SourceGraphic" in2="effect1_dropShadow" result="shape"/>
</filter>
<filter id="filter11_d" x="24" y="104" width="48.8506" height="40.602" filterUnits="userSpaceOnUse" color-interpolation-filters="sRGB">
<feFlood flood-opacity="0" result="BackgroundImageFix"/>
<feColorMatrix in="SourceAlpha" type="matrix" values="0 0 0 0 0 0 0 0 0 0 0 0 0 0 0 0 0 0 127 0"/>
<feOffset dx="2" dy="-1"/>
<feGaussianBlur stdDeviation="2"/>
<feColorMatrix type="matrix" values="0 0 0 0 0 0 0 0 0 0 0 0 0 0 0 0 0 0 0.25 0"/>
<feBlend mode="normal" in2="BackgroundImageFix" result="effect1_dropShadow"/>
<feBlend mode="normal" in="SourceGraphic" in2="effect1_dropShadow" result="shape"/>
</filter>
<filter id="filter12_d" x="158.057" y="115.193" width="48.8506" height="42.1865" filterUnits="userSpaceOnUse" color-interpolation-filters="sRGB">
<feFlood flood-opacity="0" result="BackgroundImageFix"/>
<feColorMatrix in="SourceAlpha" type="matrix" values="0 0 0 0 0 0 0 0 0 0 0 0 0 0 0 0 0 0 127 0"/>
<feOffset dx="2" dy="-1"/>
<feGaussianBlur stdDeviation="2"/>
<feColorMatrix type="matrix" values="0 0 0 0 0 0 0 0 0 0 0 0 0 0 0 0 0 0 0.25 0"/>
<feBlend mode="normal" in2="BackgroundImageFix" result="effect1_dropShadow"/>
<feBlend mode="normal" in="SourceGraphic" in2="effect1_dropShadow" result="shape"/>
</filter>
<filter id="filter13_d" x="124" y="108" width="42.5391" height="34.127" filterUnits="userSpaceOnUse" color-interpolation-filters="sRGB">
<feFlood flood-opacity="0" result="BackgroundImageFix"/>
<feColorMatrix in="SourceAlpha" type="matrix" values="0 0 0 0 0 0 0 0 0 0 0 0 0 0 0 0 0 0 127 0"/>
<feOffset dx="2" dy="-1"/>
<feGaussianBlur stdDeviation="2"/>
<feColorMatrix type="matrix" values="0 0 0 0 0 0 0 0 0 0 0 0 0 0 0 0 0 0 0.25 0"/>
<feBlend mode="normal" in2="BackgroundImageFix" result="effect1_dropShadow"/>
<feBlend mode="normal" in="SourceGraphic" in2="effect1_dropShadow" result="shape"/>
</filter>
<filter id="filter14_d" x="55.0005" y="111" width="35.6281" height="28" filterUnits="userSpaceOnUse" color-interpolation-filters="sRGB">
<feFlood flood-opacity="0" result="BackgroundImageFix"/>
<feColorMatrix in="SourceAlpha" type="matrix" values="0 0 0 0 0 0 0 0 0 0 0 0 0 0 0 0 0 0 127 0"/>
<feOffset dx="2" dy="-1"/>
<feGaussianBlur stdDeviation="2"/>
<feColorMatrix type="matrix" values="0 0 0 0 0 0 0 0 0 0 0 0 0 0 0 0 0 0 0.25 0"/>
<feBlend mode="normal" in2="BackgroundImageFix" result="effect1_dropShadow"/>
<feBlend mode="normal" in="SourceGraphic" in2="effect1_dropShadow" result="shape"/>
</filter>
<filter id="filter15_d" x="229" y="128" width="42.5391" height="34.127" filterUnits="userSpaceOnUse" color-interpolation-filters="sRGB">
<feFlood flood-opacity="0" result="BackgroundImageFix"/>
<feColorMatrix in="SourceAlpha" type="matrix" values="0 0 0 0 0 0 0 0 0 0 0 0 0 0 0 0 0 0 127 0"/>
<feOffset dx="1" dy="-1"/>
<feGaussianBlur stdDeviation="2"/>
<feColorMatrix type="matrix" values="0 0 0 0 0 0 0 0 0 0 0 0 0 0 0 0 0 0 0.25 0"/>
<feBlend mode="normal" in2="BackgroundImageFix" result="effect1_dropShadow"/>
<feBlend mode="normal" in="SourceGraphic" in2="effect1_dropShadow" result="shape"/>
</filter>
</defs>
</svg>
