<svg width="280" height="176" viewBox="0 0 280 176" fill="none" xmlns="http://www.w3.org/2000/svg">
<rect width="280" height="176" fill="#89CDD3"/>
<rect width="280" height="176" fill="#E7E88C"/>
<mask id="mask0" mask-type="alpha" maskUnits="userSpaceOnUse" x="0" y="0" width="280" height="176">
<rect width="280" height="176" fill="#89CDD3"/>
</mask>
<g mask="url(#mask0)">
<g filter="url(#filter0_d)">
<path d="M477.565 94.4828L531 142H-41V42.092L23.3652 -70L104.732 -32.2299L227.5 -4.5L263.824 56.7126L299 106.5L354.907 83.5172L407.127 70.1149L419.272 73.7701L477.565 94.4828Z" fill="#91D7B9"/>
</g>
<g filter="url(#filter1_d)">
<path d="M-28.2609 -18L38.6957 54.0611L102 142H-122V76.0458L-28.2609 -18Z" fill="#539882"/>
</g>
<path d="M47.1145 104.158L50.9394 83.3561L38.9519 61.849L-38.54 -27L47.1145 104.158Z" fill="black" fill-opacity="0.13"/>
<path d="M244.405 38.2095L196.362 -31L203.238 7.6098L244.405 38.2095Z" fill="black" fill-opacity="0.2"/>
<g filter="url(#filter2_d)">
<path d="M181.092 71.3416L181.092 67.7168L199.283 69.7585C200.65 69.912 200.954 71.7646 199.708 72.3469L204.092 71.3416V140H181.092V71.3416Z" fill="#FFB03A"/>
<path d="M114.083 71.3416L114.083 67.7168L99.2231 69.3846C98.0649 69.5146 98.0515 71.1932 99.2075 71.3416L92.7075 71.8605L91.0825 140H114.083V71.3416Z" fill="#FFB03A"/>
<path d="M113.419 59.9716L124.816 57.8396C128.704 57.1122 132.492 55.926 136.101 54.3058L147.919 49L158.614 53.994C162.525 55.8201 166.656 57.1321 170.904 57.8973L182.419 59.9716V140H113.419V59.9716Z" fill="#FFB03A"/>
</g>
<g filter="url(#filter3_d)">
<g filter="url(#filter4_d)">
<rect x="142.028" y="44.6953" width="13.1536" height="9.04313" fill="black"/>
<rect x="142.852" y="35.6484" width="11.5094" height="9.04313" fill="black"/>
<rect x="143.673" y="28.252" width="9.86523" height="7.39892" fill="black"/>
<rect x="144.495" y="20.4434" width="8.22102" height="7.80997" fill="black"/>
<rect x="145.729" y="13.4512" width="5.75472" height="6.98787" fill="black"/>
<path d="M148.69 10.5742L151.633 13.4516H145.748L148.69 10.5742Z" fill="black"/>
<path d="M145.223 12.4043C145.441 12.6441 146.047 13.0321 146.727 12.6659V13.4506H145.746C145.572 13.3634 145.223 13.0321 145.223 12.4043Z" fill="black"/>
<path d="M146.531 11.0977C146.749 11.3374 147.355 11.7254 148.035 11.3592V12.144H147.054C146.88 12.0568 146.531 11.7254 146.531 11.0977Z" fill="black"/>
<path d="M152.09 12.4043C151.872 12.6441 151.266 13.0321 150.586 12.6659V13.4506H151.567C151.741 13.3634 152.09 13.0321 152.09 12.4043Z" fill="black"/>
<path d="M150.782 11.0977C150.564 11.3374 149.958 11.7254 149.278 11.3592V12.144H150.259C150.433 12.0568 150.782 11.7254 150.782 11.0977Z" fill="black"/>
<path d="M140.385 41.4082C141.1 42.1618 143.087 43.3812 145.317 42.2303V44.6966H142.1C141.529 44.4226 140.385 43.3812 140.385 41.4082Z" fill="black"/>
<path d="M141.207 33.1836C141.922 33.9372 143.909 35.1566 146.14 34.0057V36.472H142.923C142.351 36.198 141.207 35.1566 141.207 33.1836Z" fill="black"/>
<path d="M142.028 24.9648C142.743 25.7184 144.731 26.9379 146.961 25.7869V28.2533H143.744C143.172 27.9792 142.028 26.9379 142.028 24.9648Z" fill="black"/>
<path d="M142.852 17.1543C143.566 17.9079 145.554 19.1273 147.784 17.9764V20.4427H144.567C143.995 20.1687 142.852 19.1273 142.852 17.1543Z" fill="black"/>
<path d="M156.827 41.4082C156.112 42.1618 154.124 43.3812 151.894 42.2303V44.6966H155.111C155.683 44.4226 156.827 43.3812 156.827 41.4082Z" fill="black"/>
<path d="M156.005 33.1836C155.29 33.9372 153.303 35.1566 151.073 34.0057V36.472H154.29C154.862 36.198 156.005 35.1566 156.005 33.1836Z" fill="black"/>
<path d="M155.183 24.9648C154.468 25.7184 152.48 26.9379 150.25 25.7869V28.2533H153.467C154.039 27.9792 155.183 26.9379 155.183 24.9648Z" fill="black"/>
<path d="M154.36 17.1543C153.645 17.9079 151.658 19.1273 149.428 17.9764V20.4427H152.645C153.217 20.1687 154.36 19.1273 154.36 17.1543Z" fill="black"/>
<path d="M148.605 4V12.221H147.783L148.605 4Z" fill="black"/>
<path d="M148.605 4V12.221H149.427L148.605 4Z" fill="black"/>
</g>
<g filter="url(#filter5_d)">
<rect x="128.759" y="64.5996" width="13.1536" height="9.04313" fill="black"/>
<rect x="129.582" y="55.5527" width="11.5094" height="9.04313" fill="black"/>
<rect x="130.404" y="48.1562" width="9.86523" height="7.39892" fill="black"/>
<rect x="131.226" y="40.3477" width="8.22102" height="7.80997" fill="black"/>
<rect x="132.459" y="33.3555" width="5.75472" height="6.98787" fill="black"/>
<path d="M135.421 30.4785L138.364 33.3559H132.478L135.421 30.4785Z" fill="black"/>
<path d="M131.954 32.3086C132.172 32.5484 132.778 32.9364 133.458 32.5702V33.3549H132.477C132.303 33.2677 131.954 32.9364 131.954 32.3086Z" fill="black"/>
<path d="M133.262 31.002C133.48 31.2417 134.086 31.6297 134.766 31.2635V32.0483H133.785C133.611 31.9611 133.262 31.6297 133.262 31.002Z" fill="black"/>
<path d="M138.821 32.3086C138.603 32.5484 137.997 32.9364 137.317 32.5702V33.3549H138.298C138.472 33.2677 138.821 32.9364 138.821 32.3086Z" fill="black"/>
<path d="M137.513 31.002C137.295 31.2417 136.689 31.6297 136.009 31.2635V32.0483H136.99C137.164 31.9611 137.513 31.6297 137.513 31.002Z" fill="black"/>
<path d="M127.115 61.3125C127.83 62.0661 129.817 63.2855 132.048 62.1346V64.6009H128.831C128.259 64.3269 127.115 63.2855 127.115 61.3125Z" fill="black"/>
<path d="M127.938 53.0879C128.652 53.8415 130.64 55.0609 132.87 53.91V56.3763H129.653C129.081 56.1023 127.938 55.0609 127.938 53.0879Z" fill="black"/>
<path d="M128.759 44.8691C129.474 45.6227 131.461 46.8422 133.691 45.6912V48.1576H130.474C129.903 47.8835 128.759 46.8422 128.759 44.8691Z" fill="black"/>
<path d="M129.582 37.0586C130.297 37.8122 132.284 39.0316 134.515 37.8807V40.347H131.298C130.726 40.073 129.582 39.0316 129.582 37.0586Z" fill="black"/>
<path d="M143.557 61.3125C142.842 62.0661 140.855 63.2855 138.625 62.1346V64.6009H141.841C142.413 64.3269 143.557 63.2855 143.557 61.3125Z" fill="black"/>
<path d="M142.736 53.0879C142.021 53.8415 140.034 55.0609 137.803 53.91V56.3763H141.02C141.592 56.1023 142.736 55.0609 142.736 53.0879Z" fill="black"/>
<path d="M141.913 44.8691C141.198 45.6227 139.211 46.8422 136.98 45.6912V48.1576H140.197C140.769 47.8835 141.913 46.8422 141.913 44.8691Z" fill="black"/>
<path d="M141.091 37.0586C140.376 37.8122 138.389 39.0316 136.158 37.8807V40.347H139.375C139.947 40.073 141.091 39.0316 141.091 37.0586Z" fill="black"/>
<path d="M135.336 23.9043V32.1253H134.514L135.336 23.9043Z" fill="black"/>
<path d="M135.336 23.9043V32.1253H136.158L135.336 23.9043Z" fill="black"/>
</g>
<g filter="url(#filter6_d)">
<rect x="155.297" y="64.5996" width="13.1536" height="9.04313" fill="black"/>
<rect x="156.121" y="55.5527" width="11.5094" height="9.04313" fill="black"/>
<rect x="156.942" y="48.1562" width="9.86523" height="7.39892" fill="black"/>
<rect x="157.764" y="40.3477" width="8.22102" height="7.80997" fill="black"/>
<rect x="158.998" y="33.3555" width="5.75472" height="6.98787" fill="black"/>
<path d="M161.959 30.4785L164.902 33.3559H159.017L161.959 30.4785Z" fill="black"/>
<path d="M158.493 32.3086C158.711 32.5484 159.317 32.9364 159.997 32.5702V33.3549H159.016C158.841 33.2677 158.493 32.9364 158.493 32.3086Z" fill="black"/>
<path d="M159.801 31.002C160.019 31.2417 160.625 31.6297 161.305 31.2635V32.0483H160.324C160.15 31.9611 159.801 31.6297 159.801 31.002Z" fill="black"/>
<path d="M165.359 32.3086C165.141 32.5484 164.535 32.9364 163.855 32.5702V33.3549H164.836C165.011 33.2677 165.359 32.9364 165.359 32.3086Z" fill="black"/>
<path d="M164.051 31.002C163.833 31.2417 163.227 31.6297 162.547 31.2635V32.0483H163.528C163.702 31.9611 164.051 31.6297 164.051 31.002Z" fill="black"/>
<path d="M153.654 61.3125C154.369 62.0661 156.356 63.2855 158.586 62.1346V64.6009H155.37C154.798 64.3269 153.654 63.2855 153.654 61.3125Z" fill="black"/>
<path d="M154.476 53.0879C155.191 53.8415 157.178 55.0609 159.409 53.91V56.3763H156.192C155.62 56.1023 154.476 55.0609 154.476 53.0879Z" fill="black"/>
<path d="M155.297 44.8691C156.012 45.6227 158 46.8422 160.23 45.6912V48.1576H157.013C156.441 47.8835 155.297 46.8422 155.297 44.8691Z" fill="black"/>
<path d="M156.121 37.0586C156.835 37.8122 158.823 39.0316 161.053 37.8807V40.347H157.836C157.264 40.073 156.121 39.0316 156.121 37.0586Z" fill="black"/>
<path d="M170.096 61.3125C169.381 62.0661 167.393 63.2855 165.163 62.1346V64.6009H168.38C168.952 64.3269 170.096 63.2855 170.096 61.3125Z" fill="black"/>
<path d="M169.274 53.0879C168.56 53.8415 166.572 55.0609 164.342 53.91V56.3763H167.559C168.131 56.1023 169.274 55.0609 169.274 53.0879Z" fill="black"/>
<path d="M168.452 44.8691C167.737 45.6227 165.749 46.8422 163.519 45.6912V48.1576H166.736C167.308 47.8835 168.452 46.8422 168.452 44.8691Z" fill="black"/>
<path d="M167.629 37.0586C166.915 37.8122 164.927 39.0316 162.697 37.8807V40.347H165.914C166.486 40.073 167.629 39.0316 167.629 37.0586Z" fill="black"/>
<path d="M161.874 23.9043V32.1253H161.052L161.874 23.9043Z" fill="black"/>
<path d="M161.874 23.9043V32.1253H162.696L161.874 23.9043Z" fill="black"/>
</g>
<g filter="url(#filter7_d)">
<rect x="180.696" y="66.8906" width="4.02981" height="2.77049" fill="black"/>
<rect x="180.948" y="64.1211" width="3.52608" height="2.77049" fill="black"/>
<rect x="181.2" y="61.8535" width="3.02236" height="2.26677" fill="black"/>
<rect x="181.452" y="59.4609" width="2.51863" height="2.3927" fill="black"/>
<rect x="181.83" y="57.3203" width="1.76304" height="2.14083" fill="black"/>
<path d="M182.737 56.4375L183.639 57.319H181.835L182.737 56.4375Z" fill="black"/>
<path d="M181.675 56.998C181.742 57.0715 181.927 57.1904 182.136 57.0782V57.3186H181.835C181.782 57.2919 181.675 57.1904 181.675 56.998Z" fill="black"/>
<path d="M182.076 56.5977C182.142 56.6711 182.328 56.79 182.536 56.6778V56.9182H182.236C182.183 56.8915 182.076 56.79 182.076 56.5977Z" fill="black"/>
<path d="M183.779 56.998C183.712 57.0715 183.526 57.1904 183.318 57.0782V57.3186H183.619C183.672 57.2919 183.779 57.1904 183.779 56.998Z" fill="black"/>
<path d="M183.377 56.5977C183.311 56.6711 183.125 56.79 182.917 56.6778V56.9182H183.217C183.271 56.8915 183.377 56.79 183.377 56.5977Z" fill="black"/>
<path d="M180.192 65.8848C180.411 66.1156 181.02 66.4892 181.704 66.1366V66.8922H180.718C180.543 66.8083 180.192 66.4892 180.192 65.8848Z" fill="black"/>
<path d="M180.444 63.3652C180.663 63.5961 181.272 63.9697 181.956 63.6171V64.3727H180.97C180.795 64.2887 180.444 63.9697 180.444 63.3652Z" fill="black"/>
<path d="M180.696 60.8477C180.915 61.0785 181.524 61.4521 182.207 61.0995V61.8551H181.221C181.046 61.7712 180.696 61.4521 180.696 60.8477Z" fill="black"/>
<path d="M180.948 58.4531C181.167 58.684 181.776 59.0576 182.459 58.705V59.4606H181.473C181.298 59.3766 180.948 59.0576 180.948 58.4531Z" fill="black"/>
<path d="M185.23 65.8848C185.011 66.1156 184.402 66.4892 183.719 66.1366V66.8922H184.704C184.88 66.8083 185.23 66.4892 185.23 65.8848Z" fill="black"/>
<path d="M184.978 63.3652C184.759 63.5961 184.15 63.9697 183.467 63.6171V64.3727H184.452C184.628 64.2887 184.978 63.9697 184.978 63.3652Z" fill="black"/>
<path d="M184.726 60.8477C184.507 61.0785 183.898 61.4521 183.214 61.0995V61.8551H184.2C184.375 61.7712 184.726 61.4521 184.726 60.8477Z" fill="black"/>
<path d="M184.474 58.4531C184.255 58.684 183.646 59.0576 182.962 58.705V59.4606H183.948C184.123 59.3766 184.474 59.0576 184.474 58.4531Z" fill="black"/>
<path d="M182.711 54.4238V56.9425H182.459L182.711 54.4238Z" fill="black"/>
<path d="M182.711 54.4238V56.9425H182.963L182.711 54.4238Z" fill="black"/>
</g>
<g filter="url(#filter8_d)">
<rect x="111.696" y="66.8906" width="4.02981" height="2.77049" fill="black"/>
<rect x="111.948" y="64.1211" width="3.52608" height="2.77049" fill="black"/>
<rect x="112.2" y="61.8535" width="3.02236" height="2.26677" fill="black"/>
<rect x="112.452" y="59.4609" width="2.51863" height="2.3927" fill="black"/>
<rect x="112.83" y="57.3203" width="1.76304" height="2.14083" fill="black"/>
<path d="M113.737 56.4375L114.639 57.319H112.835L113.737 56.4375Z" fill="black"/>
<path d="M112.675 56.998C112.742 57.0715 112.927 57.1904 113.136 57.0782V57.3186H112.835C112.782 57.2919 112.675 57.1904 112.675 56.998Z" fill="black"/>
<path d="M113.076 56.5977C113.142 56.6711 113.328 56.79 113.536 56.6778V56.9182H113.236C113.183 56.8915 113.076 56.79 113.076 56.5977Z" fill="black"/>
<path d="M114.779 56.998C114.712 57.0715 114.526 57.1904 114.318 57.0782V57.3186H114.619C114.672 57.2919 114.779 57.1904 114.779 56.998Z" fill="black"/>
<path d="M114.377 56.5977C114.311 56.6711 114.125 56.79 113.917 56.6778V56.9182H114.217C114.271 56.8915 114.377 56.79 114.377 56.5977Z" fill="black"/>
<path d="M111.192 65.8848C111.411 66.1156 112.02 66.4892 112.704 66.1366V66.8922H111.718C111.543 66.8083 111.192 66.4892 111.192 65.8848Z" fill="black"/>
<path d="M111.444 63.3652C111.663 63.5961 112.272 63.9697 112.956 63.6171V64.3727H111.97C111.795 64.2887 111.444 63.9697 111.444 63.3652Z" fill="black"/>
<path d="M111.696 60.8477C111.915 61.0785 112.524 61.4521 113.207 61.0995V61.8551H112.221C112.046 61.7712 111.696 61.4521 111.696 60.8477Z" fill="black"/>
<path d="M111.948 58.4531C112.167 58.684 112.776 59.0576 113.459 58.705V59.4606H112.473C112.298 59.3766 111.948 59.0576 111.948 58.4531Z" fill="black"/>
<path d="M116.23 65.8848C116.011 66.1156 115.402 66.4892 114.719 66.1366V66.8922H115.704C115.88 66.8083 116.23 66.4892 116.23 65.8848Z" fill="black"/>
<path d="M115.978 63.3652C115.759 63.5961 115.15 63.9697 114.467 63.6171V64.3727H115.452C115.628 64.2887 115.978 63.9697 115.978 63.3652Z" fill="black"/>
<path d="M115.726 60.8477C115.507 61.0785 114.898 61.4521 114.214 61.0995V61.8551H115.2C115.375 61.7712 115.726 61.4521 115.726 60.8477Z" fill="black"/>
<path d="M115.474 58.4531C115.255 58.684 114.646 59.0576 113.962 58.705V59.4606H114.948C115.123 59.3766 115.474 59.0576 115.474 58.4531Z" fill="black"/>
<path d="M113.711 54.4238V56.9425H113.459L113.711 54.4238Z" fill="black"/>
<path d="M113.711 54.4238V56.9425H113.963L113.711 54.4238Z" fill="black"/>
</g>
<rect x="82.2075" y="139" width="131" height="3" fill="black"/>
<g filter="url(#filter9_d)">
<rect x="198.769" y="132.271" width="13.1536" height="9.04313" fill="black"/>
<rect x="199.592" y="123.225" width="11.5094" height="9.04313" fill="black"/>
<rect x="200.414" y="115.828" width="9.86523" height="7.39892" fill="black"/>
<rect x="201.236" y="108.02" width="8.22102" height="7.80997" fill="black"/>
<rect x="202.469" y="101.027" width="5.75472" height="6.98787" fill="black"/>
<path d="M205.43 98.1504L208.373 101.028H202.487L205.43 98.1504Z" fill="black"/>
<path d="M201.964 99.9805C202.182 100.22 202.788 100.608 203.468 100.242V101.027H202.487C202.313 100.94 201.964 100.608 201.964 99.9805Z" fill="black"/>
<path d="M203.272 98.6738C203.49 98.9136 204.096 99.3016 204.776 98.9354V99.7201H203.795C203.621 99.633 203.272 99.3016 203.272 98.6738Z" fill="black"/>
<path d="M208.831 99.9805C208.613 100.22 208.007 100.608 207.326 100.242V101.027H208.307C208.482 100.94 208.831 100.608 208.831 99.9805Z" fill="black"/>
<path d="M207.522 98.6738C207.304 98.9136 206.698 99.3016 206.018 98.9354V99.7201H206.999C207.174 99.633 207.522 99.3016 207.522 98.6738Z" fill="black"/>
<path d="M213.567 128.984C212.853 129.738 210.865 130.957 208.635 129.806V132.273H211.852C212.424 131.999 213.567 130.957 213.567 128.984Z" fill="black"/>
<path d="M212.746 120.76C212.031 121.513 210.043 122.733 207.813 121.582V124.048H211.03C211.602 123.774 212.746 122.733 212.746 120.76Z" fill="black"/>
<path d="M211.923 112.541C211.208 113.295 209.221 114.514 206.99 113.363V115.829H210.207C210.779 115.555 211.923 114.514 211.923 112.541Z" fill="black"/>
<path d="M211.101 104.73C210.386 105.484 208.398 106.704 206.168 105.553V108.019H209.385C209.957 107.745 211.101 106.704 211.101 104.73Z" fill="black"/>
<path d="M205.404 91.5762V99.5377H204.077L205.404 91.5762Z" fill="black"/>
<path d="M205.404 91.5762V99.5377H206.73L205.404 91.5762Z" fill="black"/>
</g>
<g filter="url(#filter10_d)">
<rect width="13.1536" height="9.04313" transform="matrix(-1 0 0 1 96.7983 132.271)" fill="black"/>
<rect width="11.5094" height="9.04313" transform="matrix(-1 0 0 1 95.9756 123.225)" fill="black"/>
<rect width="9.86523" height="7.39892" transform="matrix(-1 0 0 1 95.1533 115.828)" fill="black"/>
<rect width="8.22102" height="7.80997" transform="matrix(-1 0 0 1 94.3315 108.02)" fill="black"/>
<rect width="5.75472" height="6.98787" transform="matrix(-1 0 0 1 93.0981 101.027)" fill="black"/>
<path d="M90.1373 98.1504L87.1945 101.028H93.0801L90.1373 98.1504Z" fill="black"/>
<path d="M93.6035 99.9805C93.3855 100.22 92.7795 100.608 92.0994 100.242V101.027H93.0804C93.2547 100.94 93.6035 100.608 93.6035 99.9805Z" fill="black"/>
<path d="M92.2954 98.6738C92.0774 98.9136 91.4714 99.3016 90.7913 98.9354V99.7201H91.7723C91.9466 99.633 92.2954 99.3016 92.2954 98.6738Z" fill="black"/>
<path d="M86.7368 99.9805C86.9548 100.22 87.5608 100.608 88.2409 100.242V101.027H87.26C87.0856 100.94 86.7368 100.608 86.7368 99.9805Z" fill="black"/>
<path d="M88.0449 98.6738C88.2629 98.9136 88.8689 99.3016 89.549 98.9354V99.7201H88.5681C88.3937 99.633 88.0449 99.3016 88.0449 98.6738Z" fill="black"/>
<path d="M82 128.984C82.7149 129.738 84.7022 130.957 86.9326 129.806V132.273H83.7157C83.1438 131.999 82 130.957 82 128.984Z" fill="black"/>
<path d="M82.8218 120.76C83.5366 121.513 85.524 122.733 87.7544 121.582V124.048H84.5375C83.9656 123.774 82.8218 122.733 82.8218 120.76Z" fill="black"/>
<path d="M83.6445 112.541C84.3594 113.295 86.3467 114.514 88.5771 113.363V115.829H85.3602C84.7883 115.555 83.6445 114.514 83.6445 112.541Z" fill="black"/>
<path d="M84.4668 104.73C85.1817 105.484 87.169 106.704 89.3994 105.553V108.019H86.1825C85.6106 107.745 84.4668 106.704 84.4668 104.73Z" fill="black"/>
<path d="M90.1638 91.5762V99.5377H91.4907L90.1638 91.5762Z" fill="black"/>
<path d="M90.1638 91.5762V99.5377H88.8369L90.1638 91.5762Z" fill="black"/>
</g>
<path fill-rule="evenodd" clip-rule="evenodd" d="M181.519 71.4178V67.6914L201.588 70.007C203.528 70.2309 205.491 70.1209 207.394 69.6818L204.519 71.4178V141.999H181.519V71.4178ZM186.827 82.9509L193.019 77.9685L199.211 82.9509V102.543H186.827V82.9509ZM192.798 114.134L186.827 118.114V141.999H198.769V118.114L192.798 114.134Z" fill="black"/>
<path fill-rule="evenodd" clip-rule="evenodd" d="M114.51 71.4178V67.6914L94.4409 70.007C92.5011 70.2309 90.5374 70.1209 88.6348 69.6818L91.5098 71.4178V141.999H114.51V71.4178ZM109.202 82.9509L103.01 77.9685L96.8177 82.9509V102.543H109.202V82.9509ZM103.231 114.134L109.202 118.114V141.999H97.26V118.114L103.231 114.134Z" fill="black"/>
<path fill-rule="evenodd" clip-rule="evenodd" d="M113.846 59.73L125.115 57.5629C129.088 56.7989 132.953 55.5557 136.626 53.8605L148.346 48.4512L158.938 53.5355C162.917 55.4452 167.131 56.8198 171.471 57.6234L182.846 59.73V141.999H166.923V107.499L161.615 100.864L148.346 98.2106L137.067 100.864L129.769 107.499V141.999H113.846V59.73ZM149.009 65.7009L154.981 69.0183V92.9029H143.038V69.0183L149.009 65.7009ZM166.923 76.9798L162.942 74.3259L158.961 76.9798V92.9029H166.923V76.9798ZM133.75 74.3259L137.731 76.9798V92.9029H129.769V76.9798L133.75 74.3259Z" fill="black"/>
</g>
<rect y="142" width="280" height="34" fill="#89CDD3"/>
<mask id="mask1" mask-type="alpha" maskUnits="userSpaceOnUse" x="0" y="142" width="280" height="34">
<rect y="142" width="280" height="34" fill="#89CDD3"/>
</mask>
<g mask="url(#mask1)">
<path d="M262.931 158.74L263.886 158.74L263.886 157.09L262.931 158.74Z" fill="#ACDEB6"/>
<path d="M259.112 154.522L258.634 155.622L258.276 154.522L259.112 154.522Z" fill="#ACDEB6"/>
<path d="M153.834 159.84L154.789 159.84L154.789 158.189L153.834 159.84Z" fill="#ACDEB6"/>
<path d="M150.015 155.621L149.537 156.722L149.179 155.621L150.015 155.621Z" fill="#ACDEB6"/>
<path d="M209.974 152.92L209.019 152.879L208.989 154.529L209.974 152.92Z" fill="#ACDEB6"/>
<path d="M213.714 157.303L214.212 156.224L214.549 157.339L213.714 157.303Z" fill="#ACDEB6"/>
<path d="M100.876 154.02L99.9214 153.979L99.891 155.629L100.876 154.02Z" fill="#ACDEB6"/>
<path d="M104.616 158.403L105.114 157.323L105.452 158.439L104.616 158.403Z" fill="#ACDEB6"/>
<path d="M32.2877 163.733L33.2422 163.775L33.2735 162.125L32.2877 163.733Z" fill="#ACDEB6"/>
<path d="M28.5498 159.345L28.0516 160.423L27.7146 159.307L28.5498 159.345Z" fill="#ACDEB6"/>
<path d="M268.288 152.231L267.333 152.189L267.303 153.839L268.288 152.231Z" fill="#ACDEB6"/>
<path d="M272.028 156.614L272.526 155.534L272.864 156.65L272.028 156.614Z" fill="#ACDEB6"/>
<path d="M159.19 153.331L158.236 153.289L158.205 154.939L159.19 153.331Z" fill="#ACDEB6"/>
<path d="M162.931 157.713L163.428 156.634L163.766 157.75L162.931 157.713Z" fill="#ACDEB6"/>
<path d="M173.607 149.073L172.947 148.012L172.17 149.152L173.607 149.073Z" fill="#ACDEB6"/>
<path d="M174.259 156.231L175.107 156.001L174.836 157.159L174.259 156.231Z" fill="#ACDEB6"/>
<path d="M255.055 168.077L254.101 168.035L254.07 169.685L255.055 168.077Z" fill="#ACDEB6"/>
<path d="M258.796 172.459L259.293 171.38L259.631 172.496L258.796 172.459Z" fill="#ACDEB6"/>
<path d="M145.958 169.176L145.003 169.135L144.973 170.785L145.958 169.176Z" fill="#ACDEB6"/>
<path d="M149.698 173.559L150.196 172.48L150.534 173.595L149.698 173.559Z" fill="#ACDEB6"/>
<path d="M195.946 160.938L195.437 159.697L194.528 160.579L195.946 160.938Z" fill="#ACDEB6"/>
<path d="M195.665 168.153L196.525 168.185L196.111 169.238L195.665 168.153Z" fill="#ACDEB6"/>
<path d="M86.8497 162.039L86.3398 160.799L85.4315 161.68L86.8497 162.039Z" fill="#ACDEB6"/>
<path d="M86.5679 169.254L87.4284 169.287L87.0141 170.34L86.5679 169.254Z" fill="#ACDEB6"/>
<path d="M46.3195 155.733L46.8286 156.975L47.7374 156.094L46.3195 155.733Z" fill="#ACDEB6"/>
<path d="M46.6054 148.519L45.745 148.485L46.1599 147.433L46.6054 148.519Z" fill="#ACDEB6"/>
<path d="M5.9762 167.587L6.48535 168.828L7.39417 167.948L5.9762 167.587Z" fill="#ACDEB6"/>
<path d="M6.26215 160.372L5.4017 160.338L5.81665 159.286L6.26215 160.372Z" fill="#ACDEB6"/>
<path d="M183.953 162.283L184.901 162.457L185.029 160.818L183.953 162.283Z" fill="#ACDEB6"/>
<path d="M180.486 157.4L179.927 158.405L179.656 157.248L180.486 157.4Z" fill="#ACDEB6"/>
<path d="M74.856 163.381L75.8042 163.555L75.9314 161.916L74.856 163.381Z" fill="#ACDEB6"/>
<path d="M71.3884 158.497L70.8295 159.503L70.5587 158.345L71.3884 158.497Z" fill="#ACDEB6"/>
<path d="M58.3133 154.406L57.3652 154.23L57.2371 155.869L58.3133 154.406Z" fill="#ACDEB6"/>
<path d="M61.7781 159.294L62.3376 158.289L62.6077 159.447L61.7781 159.294Z" fill="#ACDEB6"/>
<path d="M225.73 172.322L226.678 172.496L226.805 170.857L225.73 172.322Z" fill="#ACDEB6"/>
<path d="M222.262 167.439L221.703 168.444L221.432 167.287L222.262 167.439Z" fill="#ACDEB6"/>
<path d="M116.633 173.424L117.581 173.598L117.708 171.959L116.633 173.424Z" fill="#ACDEB6"/>
<path d="M113.165 168.54L112.606 169.546L112.336 168.388L113.165 168.54Z" fill="#ACDEB6"/>
<path d="M16.5423 144.31L15.5942 144.135L15.4661 145.774L16.5423 144.31Z" fill="#ACDEB6"/>
<path d="M20.0071 149.198L20.5666 148.193L20.8367 149.351L20.0071 149.198Z" fill="#ACDEB6"/>
<path d="M245.816 157.849L246.077 159.26L247.11 158.808L245.816 157.849Z" fill="#ACDEB6"/>
<path d="M247.41 151.048L246.59 150.644L247.181 149.814L247.41 151.048Z" fill="#ACDEB6"/>
<path d="M136.718 158.948L136.979 160.359L138.013 159.907L136.718 158.948Z" fill="#ACDEB6"/>
<path d="M138.312 152.148L137.492 151.744L138.083 150.913L138.312 152.148Z" fill="#ACDEB6"/>
<path d="M117.969 155.656L117.733 154.234L116.692 154.641L117.969 155.656Z" fill="#ACDEB6"/>
<path d="M116.25 162.385L117.062 162.824L116.456 163.629L116.25 162.385Z" fill="#ACDEB6"/>
<path d="M15.196 162.074L15.4307 163.496L16.472 163.09L15.196 162.074Z" fill="#ACDEB6"/>
<path d="M16.9185 155.348L16.1069 154.907L16.7132 154.103L16.9185 155.348Z" fill="#ACDEB6"/>
<path d="M235.404 147.65L235.168 146.229L234.127 146.636L235.404 147.65Z" fill="#ACDEB6"/>
<path d="M233.685 154.379L234.497 154.818L233.891 155.623L233.685 154.379Z" fill="#ACDEB6"/>
<path d="M126.307 148.752L126.071 147.33L125.03 147.737L126.307 148.752Z" fill="#ACDEB6"/>
<path d="M124.588 155.48L125.4 155.92L124.794 156.724L124.588 155.48Z" fill="#ACDEB6"/>
<path d="M129.888 162.324L129.652 160.902L128.611 161.309L129.888 162.324Z" fill="#ACDEB6"/>
<path d="M128.169 169.052L128.981 169.492L128.375 170.297L128.169 169.052Z" fill="#ACDEB6"/>
<path d="M270.451 161.675L270.451 163.143L269.615 162.592L270.451 161.675Z" fill="#ACDEB6"/>
<path d="M161.354 162.777L161.354 164.244L160.518 163.694L161.354 162.777Z" fill="#ACDEB6"/>
<path d="M202.511 149.658L202.538 148.191L203.363 148.778L202.511 149.658Z" fill="#ACDEB6"/>
<path d="M93.4134 150.762L93.4404 149.295L94.2655 149.881L93.4134 150.762Z" fill="#ACDEB6"/>
<path d="M39.749 167.002L39.7212 168.469L38.8965 167.881L39.749 167.002Z" fill="#ACDEB6"/>
<path d="M260.825 148.971L260.852 147.504L261.677 148.09L260.825 148.971Z" fill="#ACDEB6"/>
<path d="M151.727 150.072L151.754 148.605L152.579 149.192L151.727 150.072Z" fill="#ACDEB6"/>
<path d="M276.273 168.426L276.3 166.959L277.125 167.545L276.273 168.426Z" fill="#ACDEB6"/>
<path d="M167.176 169.523L167.203 168.057L168.028 168.643L167.176 169.523Z" fill="#ACDEB6"/>
<path d="M193.546 149.602L194.353 148.818L194.496 150.198L193.546 149.602Z" fill="#ACDEB6"/>
<path d="M84.449 150.703L85.2563 149.92L85.3997 151.299L84.449 150.703Z" fill="#ACDEB6"/>
<path d="M48.7131 167.073L47.9053 167.855L47.7627 166.476L48.7131 167.073Z" fill="#ACDEB6"/>
<path d="M51.5403 160.343L50.7324 161.125L50.5899 159.745L51.5403 160.343Z" fill="#ACDEB6"/>
<path d="M214.53 164.074L215.337 163.291L215.48 164.67L214.53 164.074Z" fill="#ACDEB6"/>
<path d="M105.432 165.174L106.239 164.391L106.383 165.77L105.432 165.174Z" fill="#ACDEB6"/>
<path d="M27.7385 152.571L26.9307 153.354L26.7881 151.974L27.7385 152.571Z" fill="#ACDEB6"/>
<path d="M191.195 166.565L191.082 168.021L190.294 167.323L191.195 166.565Z" fill="#ACDEB6"/>
<path d="M82.097 167.666L81.9839 169.123L81.1966 168.425L82.097 167.666Z" fill="#ACDEB6"/>
<path d="M51.075 150.113L51.189 148.656L51.9758 149.356L51.075 150.113Z" fill="#ACDEB6"/>
<path d="M75.6629 144.465L75.7769 143.008L76.5637 143.707L75.6629 144.465Z" fill="#ACDEB6"/>
<path d="M12.1625 156.787L12.2764 155.33L13.0632 156.03L12.1625 156.787Z" fill="#ACDEB6"/>
<path d="M2.61313 151.803L2.72705 150.346L3.5139 151.045L2.61313 151.803Z" fill="#ACDEB6"/>
<path d="M246.038 169.764L245.12 170.166L245.235 168.781L246.038 169.764Z" fill="#ACDEB6"/>
<path d="M136.941 170.864L136.022 171.266L136.138 169.88L136.941 170.864Z" fill="#ACDEB6"/>
<path d="M227.062 142.635L227.988 142.273L227.847 143.653L227.062 142.635Z" fill="#ACDEB6"/>
<path d="M117.965 143.735L118.89 143.373L118.749 144.753L117.965 143.735Z" fill="#ACDEB6"/>
<path d="M15.1932 173.995L14.2676 174.355L14.4094 172.976L15.1932 173.995Z" fill="#ACDEB6"/>
<path d="M252.131 143.741L253.057 143.379L252.916 144.759L252.131 143.741Z" fill="#ACDEB6"/>
<path d="M143.034 144.84L143.959 144.479L143.818 145.858L143.034 144.84Z" fill="#ACDEB6"/>
<path d="M268.899 169.562L270.093 168.095L268.899 166.995L268.899 169.562Z" fill="#ACDEB6"/>
<path d="M159.802 170.662L160.996 169.195L159.802 168.094L159.802 170.662Z" fill="#ACDEB6"/>
<path d="M204.207 141.845L202.987 143.26L204.16 144.412L204.207 141.845Z" fill="#ACDEB6"/>
<path d="M95.1092 142.944L93.889 144.359L95.0619 145.511L95.1092 142.944Z" fill="#ACDEB6"/>
<path d="M38.0481 174.814L39.2691 173.401L38.0968 172.247L38.0481 174.814Z" fill="#ACDEB6"/>
<path d="M107.402 143.519L106.182 144.933L107.355 146.085L107.402 143.519Z" fill="#ACDEB6"/>
<path d="M25.7556 174.226L26.9766 172.813L25.8043 171.659L25.7556 174.226Z" fill="#ACDEB6"/>
<path d="M208.86 169.196L207.64 170.611L208.812 171.763L208.86 169.196Z" fill="#ACDEB6"/>
<path d="M99.7625 170.296L98.5423 171.711L99.7152 172.863L99.7625 170.296Z" fill="#ACDEB6"/>
<path d="M33.4109 147.458L34.6318 146.045L33.4596 144.892L33.4109 147.458Z" fill="#ACDEB6"/>
<path d="M262.521 141.155L261.301 142.57L262.474 143.722L262.521 141.155Z" fill="#ACDEB6"/>
<path d="M153.424 142.255L152.204 143.67L153.377 144.822L153.424 142.255Z" fill="#ACDEB6"/>
<path d="M198.714 147.406L197.269 146.639L197.301 148.777L198.714 147.406Z" fill="#ACDEB6"/>
<path d="M89.6168 148.508L88.1721 147.74L88.2039 149.879L89.6168 148.508Z" fill="#ACDEB6"/>
<path d="M43.5442 169.261L44.9885 170.03L44.9579 167.892L43.5442 169.261Z" fill="#ACDEB6"/>
<path d="M66.4397 145.636L67.884 146.405L67.8535 144.267L66.4397 145.636Z" fill="#ACDEB6"/>
<path d="M66.678 171.569L68.1223 172.339L68.0917 170.2L66.678 171.569Z" fill="#ACDEB6"/>
<path d="M100.24 147.65L98.7952 146.883L98.8269 149.021L100.24 147.65Z" fill="#ACDEB6"/>
<path d="M32.9197 170.103L34.364 170.872L34.3334 168.734L32.9197 170.103Z" fill="#ACDEB6"/>
<path d="M56.054 172.411L57.4983 173.181L57.4677 171.042L56.054 172.411Z" fill="#ACDEB6"/>
<path d="M213.157 171.859L211.712 171.092L211.744 173.23L213.157 171.859Z" fill="#ACDEB6"/>
<path d="M104.059 172.959L102.614 172.192L102.646 174.33L104.059 172.959Z" fill="#ACDEB6"/>
<path d="M29.115 144.788L30.5593 145.557L30.5287 143.419L29.115 144.788Z" fill="#ACDEB6"/>
<path d="M189.046 174.113L190.344 172.873L189.244 171.563L189.046 174.113Z" fill="#ACDEB6"/>
<path d="M79.9486 175.214L81.2469 173.975L80.1464 172.665L79.9486 175.214Z" fill="#ACDEB6"/>
<path d="M53.2276 142.566L51.9286 143.804L53.0282 145.116L53.2276 142.566Z" fill="#ACDEB6"/>
<path d="M14.3155 149.242L13.0165 150.48L14.1161 151.792L14.3155 149.242Z" fill="#ACDEB6"/>
<path d="M240.677 169.633L241.922 170.995L242.284 168.929L240.677 169.633Z" fill="#ACDEB6"/>
<path d="M131.58 170.732L132.825 172.094L133.187 170.029L131.58 170.732Z" fill="#ACDEB6"/>
<path d="M123.322 144.1L122.102 142.684L121.703 144.733L123.322 144.1Z" fill="#ACDEB6"/>
<path d="M9.83606 173.623L11.055 175.04L11.4559 172.992L9.83606 173.623Z" fill="#ACDEB6"/>
<path d="M-0.982785 143.941L0.236163 145.358L0.637044 143.31L-0.982785 143.941Z" fill="#ACDEB6"/>
<path d="M-1.22107 171.085L-0.0021178 172.503L0.398762 170.454L-1.22107 171.085Z" fill="#ACDEB6"/>
<path d="M259.828 166.26L260.544 165.71L259.828 164.242L259.828 166.26Z" fill="#E7E88C"/>
<path d="M264.244 151.037L264.841 149.936L264.244 149.203L264.244 151.037Z" fill="#E7E88C"/>
<path d="M252.308 165.71L253.382 164.242L252.546 162.958L252.308 165.71Z" fill="#E7E88C"/>
<path d="M256.008 159.29L256.485 160.207L256.724 158.74L256.008 159.29Z" fill="#E7E88C"/>
<path d="M150.73 167.361L151.447 166.811L150.73 165.344L150.73 167.361Z" fill="#E7E88C"/>
<path d="M155.147 152.138L155.744 151.038L155.147 150.304L155.147 152.138Z" fill="#E7E88C"/>
<path d="M143.211 166.811L144.285 165.344L143.449 164.06L143.211 166.811Z" fill="#E7E88C"/>
<path d="M146.911 160.392L147.388 161.309L147.627 159.841L146.911 160.392Z" fill="#E7E88C"/>
<path d="M104.117 146.638L103.391 147.157L104.08 148.654L104.117 146.638Z" fill="#E7E88C"/>
<path d="M99.422 161.663L98.8052 162.737L99.3882 163.496L99.422 161.663Z" fill="#E7E88C"/>
<path d="M111.623 147.514L110.523 148.934L111.334 150.254L111.623 147.514Z" fill="#E7E88C"/>
<path d="M107.807 153.77L107.346 152.833L107.081 154.289L107.807 153.77Z" fill="#E7E88C"/>
<path d="M29.0426 171.109L29.7689 170.591L29.0809 169.093L29.0426 171.109Z" fill="#E7E88C"/>
<path d="M33.746 156.091L34.3635 155.017L33.7808 154.257L33.746 156.091Z" fill="#E7E88C"/>
<path d="M21.5364 170.222L22.6381 168.804L21.8272 167.483L21.5364 170.222Z" fill="#E7E88C"/>
<path d="M25.3569 163.972L25.8167 164.91L26.0832 163.454L25.3569 163.972Z" fill="#E7E88C"/>
<path d="M271.528 144.849L270.802 145.368L271.491 146.865L271.528 144.849Z" fill="#E7E88C"/>
<path d="M266.834 159.874L266.217 160.948L266.8 161.707L266.834 159.874Z" fill="#E7E88C"/>
<path d="M279.035 145.725L277.934 147.145L278.746 148.465L279.035 145.725Z" fill="#E7E88C"/>
<path d="M275.218 151.981L274.758 151.044L274.492 152.5L275.218 151.981Z" fill="#E7E88C"/>
<path d="M162.431 145.95L161.705 146.469L162.394 147.967L162.431 145.95Z" fill="#E7E88C"/>
<path d="M157.736 160.975L157.12 162.049L157.703 162.809L157.736 160.975Z" fill="#E7E88C"/>
<path d="M169.938 146.827L168.837 148.247L169.649 149.567L169.938 146.827Z" fill="#E7E88C"/>
<path d="M166.121 153.083L165.661 152.145L165.395 153.602L166.121 153.083Z" fill="#E7E88C"/>
<path d="M175.323 143.015L174.597 143.534L175.286 145.031L175.323 143.015Z" fill="#E7E88C"/>
<path d="M170.628 158.04L170.011 159.114L170.594 159.873L170.628 158.04Z" fill="#E7E88C"/>
<path d="M182.829 143.891L181.729 145.311L182.54 146.631L182.829 143.891Z" fill="#E7E88C"/>
<path d="M179.013 150.147L178.552 149.21L178.287 150.666L179.013 150.147Z" fill="#E7E88C"/>
<path d="M201.741 160.957L201.056 160.32L200.631 162.034L201.741 160.957Z" fill="#E7E88C"/>
<path d="M191.006 163.347L190.082 163.159L189.997 164.326L191.006 163.347Z" fill="#E7E88C"/>
<path d="M205.454 171.02L204.073 170.408L203.812 172.179L205.454 171.02Z" fill="#E7E88C"/>
<path d="M199.946 169.64L200.195 168.53L199.26 169.004L199.946 169.64Z" fill="#E7E88C"/>
<path d="M92.6441 162.056L91.9589 161.42L91.5339 163.133L92.6441 162.056Z" fill="#E7E88C"/>
<path d="M81.9093 164.447L80.9851 164.259L80.9001 165.426L81.9093 164.447Z" fill="#E7E88C"/>
<path d="M96.3565 172.12L94.9755 171.508L94.7152 173.279L96.3565 172.12Z" fill="#E7E88C"/>
<path d="M90.8485 170.74L91.0982 169.63L90.1633 170.103L90.8485 170.74Z" fill="#E7E88C"/>
<path d="M40.5247 155.708L41.2095 156.345L41.6355 154.632L40.5247 155.708Z" fill="#E7E88C"/>
<path d="M51.2609 153.332L52.185 153.521L52.2707 152.354L51.2609 153.332Z" fill="#E7E88C"/>
<path d="M36.8181 145.639L38.1988 146.253L38.4601 144.482L36.8181 145.639Z" fill="#E7E88C"/>
<path d="M42.3254 147.026L42.0751 148.136L43.0102 147.664L42.3254 147.026Z" fill="#E7E88C"/>
<path d="M3.55882 159.785L4.13088 158.925L3.15663 157.865L3.55882 159.785Z" fill="#E7E88C"/>
<path d="M4.72822 143.215L5.07696 141.887L4.36259 141.469L4.72822 143.215Z" fill="#E7E88C"/>
<path d="M-3.70922 162.801L-2.9791 160.899L-4.03042 160.07L-3.70922 162.801Z" fill="#E7E88C"/>
<path d="M-1.46656 154.949L-0.829245 155.597L-0.894498 154.088L-1.46656 154.949Z" fill="#E7E88C"/>
<path d="M201.98 142.98L201.295 142.343L200.87 144.057L201.98 142.98Z" fill="#E7E88C"/>
<path d="M191.245 145.371L190.321 145.183L190.236 146.35L191.245 145.371Z" fill="#E7E88C"/>
<path d="M205.692 153.044L204.311 152.431L204.051 154.202L205.692 153.044Z" fill="#E7E88C"/>
<path d="M200.184 151.664L200.434 150.554L199.499 151.027L200.184 151.664Z" fill="#E7E88C"/>
<path d="M92.8829 144.082L92.1977 143.445L91.7727 145.159L92.8829 144.082Z" fill="#E7E88C"/>
<path d="M82.1481 146.472L81.2239 146.284L81.1389 147.451L82.1481 146.472Z" fill="#E7E88C"/>
<path d="M96.5953 154.145L95.2143 153.533L94.954 155.304L96.5953 154.145Z" fill="#E7E88C"/>
<path d="M91.0872 152.765L91.3369 151.655L90.4021 152.129L91.0872 152.765Z" fill="#E7E88C"/>
<path d="M40.2757 173.684L40.9605 174.322L41.3865 172.609L40.2757 173.684Z" fill="#E7E88C"/>
<path d="M51.0118 171.308L51.9359 171.498L52.0216 170.331L51.0118 171.308Z" fill="#E7E88C"/>
<path d="M36.5691 163.616L37.9497 164.23L38.2111 162.459L36.5691 163.616Z" fill="#E7E88C"/>
<path d="M42.0764 165.003L41.826 166.112L42.7612 165.64L42.0764 165.003Z" fill="#E7E88C"/>
<path d="M220.362 162.423L219.677 161.787L219.252 163.501L220.362 162.423Z" fill="#E7E88C"/>
<path d="M209.627 164.814L208.703 164.626L208.618 165.793L209.627 164.814Z" fill="#E7E88C"/>
<path d="M224.074 172.487L222.693 171.875L222.433 173.646L224.074 172.487Z" fill="#E7E88C"/>
<path d="M218.566 171.107L218.816 169.997L217.881 170.471L218.566 171.107Z" fill="#E7E88C"/>
<path d="M111.265 163.523L110.58 162.886L110.155 164.6L111.265 163.523Z" fill="#E7E88C"/>
<path d="M100.53 165.913L99.6057 165.726L99.5207 166.893L100.53 165.913Z" fill="#E7E88C"/>
<path d="M114.977 173.587L113.596 172.974L113.336 174.745L114.977 173.587Z" fill="#E7E88C"/>
<path d="M109.469 172.207L109.719 171.097L108.784 171.57L109.469 172.207Z" fill="#E7E88C"/>
<path d="M21.9051 154.216L22.5899 154.853L23.0159 153.14L21.9051 154.216Z" fill="#E7E88C"/>
<path d="M32.6412 151.84L33.5653 152.029L33.651 150.862L32.6412 151.84Z" fill="#E7E88C"/>
<path d="M18.1985 144.147L19.5791 144.761L19.8405 142.99L18.1985 144.147Z" fill="#E7E88C"/>
<path d="M23.7057 145.534L23.4554 146.644L24.3905 146.172L23.7057 145.534Z" fill="#E7E88C"/>
<path d="M254.023 141.513L253.337 140.877L252.912 142.59L254.023 141.513Z" fill="#E7E88C"/>
<path d="M243.288 143.904L242.364 143.716L242.279 144.883L243.288 143.904Z" fill="#E7E88C"/>
<path d="M257.735 151.577L256.354 150.965L256.094 152.736L257.735 151.577Z" fill="#E7E88C"/>
<path d="M252.227 150.197L252.477 149.087L251.542 149.56L252.227 150.197Z" fill="#E7E88C"/>
<path d="M144.925 142.615L144.24 141.978L143.815 143.692L144.925 142.615Z" fill="#E7E88C"/>
<path d="M134.19 145.005L133.266 144.817L133.181 145.985L134.19 145.005Z" fill="#E7E88C"/>
<path d="M148.637 152.678L147.256 152.066L146.996 153.837L148.637 152.678Z" fill="#E7E88C"/>
<path d="M143.129 151.299L143.379 150.189L142.444 150.662L143.129 151.299Z" fill="#E7E88C"/>
<path d="M275.985 162.789L275.3 162.152L274.875 163.866L275.985 162.789Z" fill="#E7E88C"/>
<path d="M265.25 165.179L264.326 164.991L264.241 166.158L265.25 165.179Z" fill="#E7E88C"/>
<path d="M279.697 172.852L278.316 172.24L278.056 174.011L279.697 172.852Z" fill="#E7E88C"/>
<path d="M274.189 171.472L274.439 170.363L273.504 170.836L274.189 171.472Z" fill="#E7E88C"/>
<path d="M166.888 163.89L166.203 163.254L165.778 164.967L166.888 163.89Z" fill="#E7E88C"/>
<path d="M156.153 166.281L155.229 166.093L155.144 167.26L156.153 166.281Z" fill="#E7E88C"/>
<path d="M170.6 173.954L169.219 173.342L168.959 175.113L170.6 173.954Z" fill="#E7E88C"/>
<path d="M165.092 172.574L165.342 171.464L164.407 171.937L165.092 172.574Z" fill="#E7E88C"/>
<path d="M71.1944 170.285L71.9479 169.869L71.3499 168.282L71.1944 170.285Z" fill="#E7E88C"/>
<path d="M76.7529 155.973L77.4303 154.989L76.8942 154.151L76.7529 155.973Z" fill="#E7E88C"/>
<path d="M63.7699 168.37L64.9497 167.109L64.2189 165.682L63.7699 168.37Z" fill="#E7E88C"/>
<path d="M67.9388 162.67L68.3422 163.667L68.6923 162.253L67.9388 162.67Z" fill="#E7E88C"/>
<path d="M61.9784 147.509L61.2246 147.924L61.8218 149.512L61.9784 147.509Z" fill="#E7E88C"/>
<path d="M56.4116 161.814L55.7337 162.797L56.2692 163.635L56.4116 161.814Z" fill="#E7E88C"/>
<path d="M69.4018 149.434L68.2213 150.693L68.9512 152.121L69.4018 149.434Z" fill="#E7E88C"/>
<path d="M65.2296 155.129L64.8268 154.131L64.4758 155.544L65.2296 155.129Z" fill="#E7E88C"/>
<path d="M4.03098 175.04L4.83157 175.019L4.59767 173.221L4.03098 175.04Z" fill="#E7E88C"/>
<path d="M12.2908 164.237L13.1383 163.64L12.806 162.583L12.2908 164.237Z" fill="#E7E88C"/>
<path d="M-2.59784 169.557L-1.21665 168.946L-1.60973 167.234L-2.59784 169.557Z" fill="#E7E88C"/>
<path d="M2.54312 166.22L2.71622 167.364L3.34371 166.199L2.54312 166.22Z" fill="#E7E88C"/>
<path d="M240.259 155.322L240.799 156.229L241.521 154.769L240.259 155.322Z" fill="#E7E88C"/>
<path d="M250.997 157.679L251.849 158.259L252.145 157.176L250.997 157.679Z" fill="#E7E88C"/>
<path d="M238.543 144.058L239.756 145.244L240.331 143.657L238.543 144.058Z" fill="#E7E88C"/>
<path d="M243.575 147.768L243.132 148.725L244.115 148.676L243.575 147.768Z" fill="#E7E88C"/>
<path d="M131.161 156.423L131.702 157.331L132.424 155.871L131.161 156.423Z" fill="#E7E88C"/>
<path d="M141.899 158.78L142.751 159.361L143.047 158.278L141.899 158.78Z" fill="#E7E88C"/>
<path d="M129.446 145.16L130.658 146.345L131.233 144.759L129.446 145.16Z" fill="#E7E88C"/>
<path d="M134.477 148.87L134.034 149.826L135.018 149.777L134.477 148.87Z" fill="#E7E88C"/>
<path d="M232.574 157.321L232.051 156.39L231.302 157.818L232.574 157.321Z" fill="#E7E88C"/>
<path d="M221.884 154.498L221.043 153.881L220.727 154.951L221.884 154.498Z" fill="#E7E88C"/>
<path d="M234.082 168.654L232.891 167.417L232.288 168.977L234.082 168.654Z" fill="#E7E88C"/>
<path d="M229.12 164.727L229.581 163.79L228.597 163.797L229.12 164.727Z" fill="#E7E88C"/>
<path d="M123.477 158.422L122.953 157.492L122.205 158.92L123.477 158.422Z" fill="#E7E88C"/>
<path d="M112.787 155.6L111.946 154.983L111.63 156.052L112.787 155.6Z" fill="#E7E88C"/>
<path d="M124.984 169.756L123.794 168.518L123.19 170.079L124.984 169.756Z" fill="#E7E88C"/>
<path d="M120.023 165.829L120.484 164.892L119.5 164.898L120.023 165.829Z" fill="#E7E88C"/>
<path d="M9.68988 159.301L10.213 160.232L10.9626 158.805L9.68988 159.301Z" fill="#E7E88C"/>
<path d="M20.3785 162.138L21.2194 162.756L21.5355 161.687L20.3785 162.138Z" fill="#E7E88C"/>
<path d="M8.18899 147.965L9.37861 149.204L9.98319 147.644L8.18899 147.965Z" fill="#E7E88C"/>
<path d="M13.1479 151.899L12.6867 152.835L13.671 152.83L13.1479 151.899Z" fill="#E7E88C"/>
<path d="M127.644 172.944L128.292 173.666L128.809 172.013L127.644 172.944Z" fill="#E7E88C"/>
<path d="M138.471 171.938L139.382 172.243L139.53 171.091L138.471 171.938Z" fill="#E7E88C"/>
<path d="M124.491 162.439L125.834 163.226L126.19 161.495L124.491 162.439Z" fill="#E7E88C"/>
<path d="M129.905 164.52L129.596 165.594L130.553 165.243L129.905 164.52Z" fill="#E7E88C"/>
</g>
<path d="M128.912 142H168.126L165.846 147.985C164.557 151.368 165.945 155.185 169.106 156.95C174.589 160.01 173.899 168.107 167.979 170.197L151.535 176H91.2075L127.406 168.335C133.156 167.117 134.321 159.422 129.189 156.557C126.432 155.018 125.221 151.689 126.345 148.738L128.912 142Z" fill="#799B99"/>
<g filter="url(#filter11_d)">
<path d="M261 159C261 159.75 257.5 159.25 257.5 159.25C257.5 159.25 259.5 160.75 257 161C254.791 161 253 160.105 253 159C253 157.895 254.791 157 257 157C259.209 157 261 157.895 261 159Z" fill="#539882"/>
</g>
<g filter="url(#filter12_d)">
<path d="M228.63 161.406C228.394 160.564 231.921 160.181 231.921 160.181C231.921 160.181 229.523 159.036 231.851 158.081C233.979 157.484 235.985 158.006 236.333 159.246C236.68 160.487 235.238 161.976 233.111 162.572C230.984 163.169 228.978 162.647 228.63 161.406Z" fill="#539882"/>
</g>
<g filter="url(#filter13_d)">
<path d="M222.47 170.459C222.59 171.278 219.047 171.237 219.047 171.237C219.047 171.237 221.265 172.586 218.831 173.22C216.645 173.539 214.73 172.819 214.554 171.613C214.378 170.407 216.007 169.171 218.193 168.852C220.379 168.533 222.294 169.253 222.47 170.459Z" fill="#539882"/>
</g>
<g filter="url(#filter14_d)">
<path d="M68.8462 153.94C68.8099 154.808 65.3372 154.083 65.3372 154.083C65.3372 154.083 67.2627 155.904 64.7527 156.088C62.5455 155.996 60.7997 154.884 60.8532 153.605C60.9068 152.326 62.7395 151.364 64.9467 151.456C67.1539 151.549 68.8998 152.661 68.8462 153.94Z" fill="#539882"/>
</g>
<g filter="url(#filter15_d)">
<path d="M22 167.5C22 168.062 18.5 167.688 18.5 167.688C18.5 167.688 20.5 168.812 18 169C15.7909 169 14 168.328 14 167.5C14 166.672 15.7909 166 18 166C20.2091 166 22 166.672 22 167.5Z" fill="#539882"/>
</g>
</g>
<defs>
<filter id="filter0_d" x="-45" y="-78" width="580" height="220" filterUnits="userSpaceOnUse" color-interpolation-filters="sRGB">
<feFlood flood-opacity="0" result="BackgroundImageFix"/>
<feColorMatrix in="SourceAlpha" type="matrix" values="0 0 0 0 0 0 0 0 0 0 0 0 0 0 0 0 0 0 127 0"/>
<feOffset dy="-4"/>
<feGaussianBlur stdDeviation="2"/>
<feColorMatrix type="matrix" values="0 0 0 0 0 0 0 0 0 0 0 0 0 0 0 0 0 0 0.25 0"/>
<feBlend mode="normal" in2="BackgroundImageFix" result="effect1_dropShadow"/>
<feBlend mode="normal" in="SourceGraphic" in2="effect1_dropShadow" result="shape"/>
</filter>
<filter id="filter1_d" x="-124" y="-22" width="232" height="168" filterUnits="userSpaceOnUse" color-interpolation-filters="sRGB">
<feFlood flood-opacity="0" result="BackgroundImageFix"/>
<feColorMatrix in="SourceAlpha" type="matrix" values="0 0 0 0 0 0 0 0 0 0 0 0 0 0 0 0 0 0 127 0"/>
<feOffset dx="2"/>
<feGaussianBlur stdDeviation="2"/>
<feColorMatrix type="matrix" values="0 0 0 0 0 0 0 0 0 0 0 0 0 0 0 0 0 0 0.25 0"/>
<feBlend mode="normal" in2="BackgroundImageFix" result="effect1_dropShadow"/>
<feBlend mode="normal" in="SourceGraphic" in2="effect1_dropShadow" result="shape"/>
</filter>
<filter id="filter2_d" x="87.0825" y="49" width="121.01" height="99.0005" filterUnits="userSpaceOnUse" color-interpolation-filters="sRGB">
<feFlood flood-opacity="0" result="BackgroundImageFix"/>
<feColorMatrix in="SourceAlpha" type="matrix" values="0 0 0 0 0 0 0 0 0 0 0 0 0 0 0 0 0 0 127 0"/>
<feOffset dy="4"/>
<feGaussianBlur stdDeviation="2"/>
<feColorMatrix type="matrix" values="0 0 0 0 0 0 0 0 0 0 0 0 0 0 0 0 0 0 0.25 0"/>
<feBlend mode="normal" in2="BackgroundImageFix" result="effect1_dropShadow"/>
<feBlend mode="normal" in="SourceGraphic" in2="effect1_dropShadow" result="shape"/>
</filter>
<filter id="filter3_d" x="82" y="3" width="136.567" height="140" filterUnits="userSpaceOnUse" color-interpolation-filters="sRGB">
<feFlood flood-opacity="0" result="BackgroundImageFix"/>
<feColorMatrix in="SourceAlpha" type="matrix" values="0 0 0 0 0 0 0 0 0 0 0 0 0 0 0 0 0 0 127 0"/>
<feOffset dx="4"/>
<feGaussianBlur stdDeviation="0.5"/>
<feColorMatrix type="matrix" values="0 0 0 0 0 0 0 0 0 0 0 0 0 0 0 0 0 0 0.2 0"/>
<feBlend mode="normal" in2="BackgroundImageFix" result="effect1_dropShadow"/>
<feBlend mode="normal" in="SourceGraphic" in2="effect1_dropShadow" result="shape"/>
</filter>
<filter id="filter4_d" x="140.385" y="-4" width="24.4419" height="57.7384" filterUnits="userSpaceOnUse" color-interpolation-filters="sRGB">
<feFlood flood-opacity="0" result="BackgroundImageFix"/>
<feColorMatrix in="SourceAlpha" type="matrix" values="0 0 0 0 0 0 0 0 0 0 0 0 0 0 0 0 0 0 127 0"/>
<feOffset dx="4" dy="-4"/>
<feGaussianBlur stdDeviation="2"/>
<feColorMatrix type="matrix" values="0 0 0 0 0 0 0 0 0 0 0 0 0 0 0 0 0 0 0.2 0"/>
<feBlend mode="normal" in2="BackgroundImageFix" result="effect1_dropShadow"/>
<feBlend mode="normal" in="SourceGraphic" in2="effect1_dropShadow" result="shape"/>
</filter>
<filter id="filter5_d" x="127.115" y="15.9043" width="24.4419" height="57.7384" filterUnits="userSpaceOnUse" color-interpolation-filters="sRGB">
<feFlood flood-opacity="0" result="BackgroundImageFix"/>
<feColorMatrix in="SourceAlpha" type="matrix" values="0 0 0 0 0 0 0 0 0 0 0 0 0 0 0 0 0 0 127 0"/>
<feOffset dx="4" dy="-4"/>
<feGaussianBlur stdDeviation="2"/>
<feColorMatrix type="matrix" values="0 0 0 0 0 0 0 0 0 0 0 0 0 0 0 0 0 0 0.2 0"/>
<feBlend mode="normal" in2="BackgroundImageFix" result="effect1_dropShadow"/>
<feBlend mode="normal" in="SourceGraphic" in2="effect1_dropShadow" result="shape"/>
</filter>
<filter id="filter6_d" x="153.654" y="15.9043" width="24.4419" height="57.7384" filterUnits="userSpaceOnUse" color-interpolation-filters="sRGB">
<feFlood flood-opacity="0" result="BackgroundImageFix"/>
<feColorMatrix in="SourceAlpha" type="matrix" values="0 0 0 0 0 0 0 0 0 0 0 0 0 0 0 0 0 0 127 0"/>
<feOffset dx="4" dy="-4"/>
<feGaussianBlur stdDeviation="2"/>
<feColorMatrix type="matrix" values="0 0 0 0 0 0 0 0 0 0 0 0 0 0 0 0 0 0 0.2 0"/>
<feBlend mode="normal" in2="BackgroundImageFix" result="effect1_dropShadow"/>
<feBlend mode="normal" in="SourceGraphic" in2="effect1_dropShadow" result="shape"/>
</filter>
<filter id="filter7_d" x="180.192" y="46.4238" width="13.0375" height="23.2373" filterUnits="userSpaceOnUse" color-interpolation-filters="sRGB">
<feFlood flood-opacity="0" result="BackgroundImageFix"/>
<feColorMatrix in="SourceAlpha" type="matrix" values="0 0 0 0 0 0 0 0 0 0 0 0 0 0 0 0 0 0 127 0"/>
<feOffset dx="4" dy="-4"/>
<feGaussianBlur stdDeviation="2"/>
<feColorMatrix type="matrix" values="0 0 0 0 0 0 0 0 0 0 0 0 0 0 0 0 0 0 0.2 0"/>
<feBlend mode="normal" in2="BackgroundImageFix" result="effect1_dropShadow"/>
<feBlend mode="normal" in="SourceGraphic" in2="effect1_dropShadow" result="shape"/>
</filter>
<filter id="filter8_d" x="111.192" y="46.4238" width="13.0375" height="23.2373" filterUnits="userSpaceOnUse" color-interpolation-filters="sRGB">
<feFlood flood-opacity="0" result="BackgroundImageFix"/>
<feColorMatrix in="SourceAlpha" type="matrix" values="0 0 0 0 0 0 0 0 0 0 0 0 0 0 0 0 0 0 127 0"/>
<feOffset dx="4" dy="-4"/>
<feGaussianBlur stdDeviation="2"/>
<feColorMatrix type="matrix" values="0 0 0 0 0 0 0 0 0 0 0 0 0 0 0 0 0 0 0.2 0"/>
<feBlend mode="normal" in2="BackgroundImageFix" result="effect1_dropShadow"/>
<feBlend mode="normal" in="SourceGraphic" in2="effect1_dropShadow" result="shape"/>
</filter>
<filter id="filter9_d" x="198.769" y="83.5762" width="22.7983" height="57.7384" filterUnits="userSpaceOnUse" color-interpolation-filters="sRGB">
<feFlood flood-opacity="0" result="BackgroundImageFix"/>
<feColorMatrix in="SourceAlpha" type="matrix" values="0 0 0 0 0 0 0 0 0 0 0 0 0 0 0 0 0 0 127 0"/>
<feOffset dx="4" dy="-4"/>
<feGaussianBlur stdDeviation="2"/>
<feColorMatrix type="matrix" values="0 0 0 0 0 0 0 0 0 0 0 0 0 0 0 0 0 0 0.2 0"/>
<feBlend mode="normal" in2="BackgroundImageFix" result="effect1_dropShadow"/>
<feBlend mode="normal" in="SourceGraphic" in2="effect1_dropShadow" result="shape"/>
</filter>
<filter id="filter10_d" x="82" y="83.5762" width="22.7982" height="57.7384" filterUnits="userSpaceOnUse" color-interpolation-filters="sRGB">
<feFlood flood-opacity="0" result="BackgroundImageFix"/>
<feColorMatrix in="SourceAlpha" type="matrix" values="0 0 0 0 0 0 0 0 0 0 0 0 0 0 0 0 0 0 127 0"/>
<feOffset dx="4" dy="-4"/>
<feGaussianBlur stdDeviation="2"/>
<feColorMatrix type="matrix" values="0 0 0 0 0 0 0 0 0 0 0 0 0 0 0 0 0 0 0.2 0"/>
<feBlend mode="normal" in2="BackgroundImageFix" result="effect1_dropShadow"/>
<feBlend mode="normal" in="SourceGraphic" in2="effect1_dropShadow" result="shape"/>
</filter>
<filter id="filter11_d" x="252" y="157" width="10" height="6" filterUnits="userSpaceOnUse" color-interpolation-filters="sRGB">
<feFlood flood-opacity="0" result="BackgroundImageFix"/>
<feColorMatrix in="SourceAlpha" type="matrix" values="0 0 0 0 0 0 0 0 0 0 0 0 0 0 0 0 0 0 127 0"/>
<feOffset dy="1"/>
<feGaussianBlur stdDeviation="0.5"/>
<feColorMatrix type="matrix" values="0 0 0 0 0 0 0 0 0 0 0 0 0 0 0 0 0 0 0.25 0"/>
<feBlend mode="normal" in2="BackgroundImageFix" result="effect1_dropShadow"/>
<feBlend mode="normal" in="SourceGraphic" in2="effect1_dropShadow" result="shape"/>
</filter>
<filter id="filter12_d" x="227.619" y="157.834" width="9.76596" height="6.98514" filterUnits="userSpaceOnUse" color-interpolation-filters="sRGB">
<feFlood flood-opacity="0" result="BackgroundImageFix"/>
<feColorMatrix in="SourceAlpha" type="matrix" values="0 0 0 0 0 0 0 0 0 0 0 0 0 0 0 0 0 0 127 0"/>
<feOffset dy="1"/>
<feGaussianBlur stdDeviation="0.5"/>
<feColorMatrix type="matrix" values="0 0 0 0 0 0 0 0 0 0 0 0 0 0 0 0 0 0 0.25 0"/>
<feBlend mode="normal" in2="BackgroundImageFix" result="effect1_dropShadow"/>
<feBlend mode="normal" in="SourceGraphic" in2="effect1_dropShadow" result="shape"/>
</filter>
<filter id="filter13_d" x="213.541" y="168.777" width="9.93217" height="6.51868" filterUnits="userSpaceOnUse" color-interpolation-filters="sRGB">
<feFlood flood-opacity="0" result="BackgroundImageFix"/>
<feColorMatrix in="SourceAlpha" type="matrix" values="0 0 0 0 0 0 0 0 0 0 0 0 0 0 0 0 0 0 127 0"/>
<feOffset dy="1"/>
<feGaussianBlur stdDeviation="0.5"/>
<feColorMatrix type="matrix" values="0 0 0 0 0 0 0 0 0 0 0 0 0 0 0 0 0 0 0.25 0"/>
<feBlend mode="normal" in2="BackgroundImageFix" result="effect1_dropShadow"/>
<feBlend mode="normal" in="SourceGraphic" in2="effect1_dropShadow" result="shape"/>
</filter>
<filter id="filter14_d" x="59.8521" y="151.451" width="9.9954" height="6.63817" filterUnits="userSpaceOnUse" color-interpolation-filters="sRGB">
<feFlood flood-opacity="0" result="BackgroundImageFix"/>
<feColorMatrix in="SourceAlpha" type="matrix" values="0 0 0 0 0 0 0 0 0 0 0 0 0 0 0 0 0 0 127 0"/>
<feOffset dy="1"/>
<feGaussianBlur stdDeviation="0.5"/>
<feColorMatrix type="matrix" values="0 0 0 0 0 0 0 0 0 0 0 0 0 0 0 0 0 0 0.25 0"/>
<feBlend mode="normal" in2="BackgroundImageFix" result="effect1_dropShadow"/>
<feBlend mode="normal" in="SourceGraphic" in2="effect1_dropShadow" result="shape"/>
</filter>
<filter id="filter15_d" x="13" y="166" width="10" height="5" filterUnits="userSpaceOnUse" color-interpolation-filters="sRGB">
<feFlood flood-opacity="0" result="BackgroundImageFix"/>
<feColorMatrix in="SourceAlpha" type="matrix" values="0 0 0 0 0 0 0 0 0 0 0 0 0 0 0 0 0 0 127 0"/>
<feOffset dy="1"/>
<feGaussianBlur stdDeviation="0.5"/>
<feColorMatrix type="matrix" values="0 0 0 0 0 0 0 0 0 0 0 0 0 0 0 0 0 0 0.25 0"/>
<feBlend mode="normal" in2="BackgroundImageFix" result="effect1_dropShadow"/>
<feBlend mode="normal" in="SourceGraphic" in2="effect1_dropShadow" result="shape"/>
</filter>
</defs>
</svg>
