<svg fill="none" height="656" viewBox="0 0 1194 656" width="1194" xmlns="http://www.w3.org/2000/svg" xmlns:xlink="http://www.w3.org/1999/xlink"><filter id="a" color-interpolation-filters="sRGB" filterUnits="userSpaceOnUse" height="500.33" width="1370.07" x="311.934" y="0"><feFlood flood-opacity="0" result="BackgroundImageFix"/><feColorMatrix in="SourceAlpha" type="matrix" values="0 0 0 0 0 0 0 0 0 0 0 0 0 0 0 0 0 0 127 0"/><feOffset dx="8" dy="-4"/><feGaussianBlur stdDeviation="4"/><feColorMatrix type="matrix" values="0 0 0 0 0 0 0 0 0 0 0 0 0 0 0 0 0 0 0.1 0"/><feBlend in2="BackgroundImageFix" mode="normal" result="effect1_dropShadow"/><feBlend in="SourceGraphic" in2="effect1_dropShadow" mode="normal" result="shape"/></filter><filter id="b" color-interpolation-filters="sRGB" filterUnits="userSpaceOnUse" height="435.622" width="750.483" x="623.186" y="52.3984"><feFlood flood-opacity="0" result="BackgroundImageFix"/><feColorMatrix in="SourceAlpha" type="matrix" values="0 0 0 0 0 0 0 0 0 0 0 0 0 0 0 0 0 0 127 0"/><feOffset dx="8" dy="-8"/><feGaussianBlur stdDeviation="4"/><feColorMatrix type="matrix" values="0 0 0 0 0 0 0 0 0 0 0 0 0 0 0 0 0 0 0.1 0"/><feBlend in2="BackgroundImageFix" mode="normal" result="effect1_dropShadow"/><feBlend in="SourceGraphic" in2="effect1_dropShadow" mode="normal" result="shape"/></filter><filter id="c" color-interpolation-filters="sRGB" filterUnits="userSpaceOnUse" height="283.714" width="1414.18" x="209" y="218.287"><feFlood flood-opacity="0" result="BackgroundImageFix"/><feColorMatrix in="SourceAlpha" type="matrix" values="0 0 0 0 0 0 0 0 0 0 0 0 0 0 0 0 0 0 127 0"/><feOffset dx="8" dy="-3"/><feGaussianBlur stdDeviation="4"/><feColorMatrix type="matrix" values="0 0 0 0 0 0 0 0 0 0 0 0 0 0 0 0 0 0 0.1 0"/><feBlend in2="BackgroundImageFix" mode="normal" result="effect1_dropShadow"/><feBlend in="SourceGraphic" in2="effect1_dropShadow" mode="normal" result="shape"/></filter><filter id="d" color-interpolation-filters="sRGB" filterUnits="userSpaceOnUse" height="46.8074" width="86.4137" x="978.297" y="12"><feFlood flood-opacity="0" result="BackgroundImageFix"/><feColorMatrix in="SourceAlpha" type="matrix" values="0 0 0 0 0 0 0 0 0 0 0 0 0 0 0 0 0 0 127 0"/><feOffset dx="28.8046" dy="14.4023"/><feGaussianBlur stdDeviation="7.20114"/><feColorMatrix type="matrix" values="0 0 0 0 0 0 0 0 0 0 0 0 0 0 0 0 0 0 0.1 0"/><feBlend in2="BackgroundImageFix" mode="normal" result="effect1_dropShadow"/><feBlend in="SourceGraphic" in2="effect1_dropShadow" mode="normal" result="shape"/></filter><filter id="e" color-interpolation-filters="sRGB" filterUnits="userSpaceOnUse" height="41.1319" width="58.0973" x="999.9" y="30.002"><feFlood flood-opacity="0" result="BackgroundImageFix"/><feColorMatrix in="SourceAlpha" type="matrix" values="0 0 0 0 0 0 0 0 0 0 0 0 0 0 0 0 0 0 127 0"/><feOffset dx="19.5285" dy="9.76426"/><feGaussianBlur stdDeviation="4.88213"/><feColorMatrix type="matrix" values="0 0 0 0 0 0 0 0 0 0 0 0 0 0 0 0 0 0 0.1 0"/><feBlend in2="BackgroundImageFix" mode="normal" result="effect1_dropShadow"/><feBlend in="SourceGraphic" in2="effect1_dropShadow" mode="normal" result="shape"/></filter><filter id="f" color-interpolation-filters="sRGB" filterUnits="userSpaceOnUse" height="26.9127" width="52.9711" x="971.096" y="48.0059"><feFlood flood-opacity="0" result="BackgroundImageFix"/><feColorMatrix in="SourceAlpha" type="matrix" values="0 0 0 0 0 0 0 0 0 0 0 0 0 0 0 0 0 0 127 0"/><feOffset dx="16.111" dy="8.05551"/><feGaussianBlur stdDeviation="4.02776"/><feColorMatrix type="matrix" values="0 0 0 0 0 0 0 0 0 0 0 0 0 0 0 0 0 0 0.1 0"/><feBlend in2="BackgroundImageFix" mode="normal" result="effect1_dropShadow"/><feBlend in="SourceGraphic" in2="effect1_dropShadow" mode="normal" result="shape"/></filter><filter id="g" color-interpolation-filters="sRGB" filterUnits="userSpaceOnUse" height="183.866" width="486.657" x="788.984" y="191.104"><feFlood flood-opacity="0" result="BackgroundImageFix"/><feColorMatrix in="SourceAlpha" type="matrix" values="0 0 0 0 0 0 0 0 0 0 0 0 0 0 0 0 0 0 127 0"/><feOffset dx="3.37742" dy="1.68871"/><feGaussianBlur stdDeviation="1.68871"/><feColorMatrix type="matrix" values="0 0 0 0 0 0 0 0 0 0 0 0 0 0 0 0 0 0 0.2 0"/><feBlend in2="BackgroundImageFix" mode="normal" result="effect1_dropShadow"/><feBlend in="SourceGraphic" in2="effect1_dropShadow" mode="normal" result="shape"/></filter><filter id="h" color-interpolation-filters="sRGB" filterUnits="userSpaceOnUse" height="183.866" width="486.657" x="788.139" y="92.3152"><feFlood flood-opacity="0" result="BackgroundImageFix"/><feColorMatrix in="SourceAlpha" type="matrix" values="0 0 0 0 0 0 0 0 0 0 0 0 0 0 0 0 0 0 127 0"/><feOffset dx="3.37742" dy="1.68871"/><feGaussianBlur stdDeviation="1.68871"/><feColorMatrix type="matrix" values="0 0 0 0 0 0 0 0 0 0 0 0 0 0 0 0 0 0 0.2 0"/><feBlend in2="BackgroundImageFix" mode="normal" result="effect1_dropShadow"/><feBlend in="SourceGraphic" in2="effect1_dropShadow" mode="normal" result="shape"/></filter><filter id="i" color-interpolation-filters="sRGB" filterUnits="userSpaceOnUse" height="198.509" width="129.995" x="1049.62" y="228.225"><feFlood flood-opacity="0" result="BackgroundImageFix"/><feColorMatrix in="SourceAlpha" type="matrix" values="0 0 0 0 0 0 0 0 0 0 0 0 0 0 0 0 0 0 127 0"/><feOffset dx="3.37742" dy="3.37742"/><feGaussianBlur stdDeviation="1.68871"/><feColorMatrix type="matrix" values="0 0 0 0 0 0 0 0 0 0 0 0 0 0 0 0 0 0 0.2 0"/><feBlend in2="BackgroundImageFix" mode="normal" result="effect1_dropShadow"/><feBlend in="SourceGraphic" in2="effect1_dropShadow" mode="normal" result="shape"/></filter><filter id="j" color-interpolation-filters="sRGB" filterUnits="userSpaceOnUse" height="181.376" width="100.724" x="755" y="361"><feFlood flood-opacity="0" result="BackgroundImageFix"/><feColorMatrix in="SourceAlpha" type="matrix" values="0 0 0 0 0 0 0 0 0 0 0 0 0 0 0 0 0 0 127 0"/><feOffset dx="4"/><feGaussianBlur stdDeviation="2"/><feColorMatrix type="matrix" values="0 0 0 0 0 0 0 0 0 0 0 0 0 0 0 0 0 0 0.2 0"/><feBlend in2="BackgroundImageFix" mode="normal" result="effect1_dropShadow"/><feBlend in="SourceGraphic" in2="effect1_dropShadow" mode="normal" result="shape"/></filter><filter id="k" color-interpolation-filters="sRGB" filterUnits="userSpaceOnUse" height="25.4718" width="27.8485" x="824.142" y="403.43"><feFlood flood-opacity="0" result="BackgroundImageFix"/><feBlend in="SourceGraphic" in2="BackgroundImageFix" mode="normal" result="shape"/><feGaussianBlur result="effect1_foregroundBlur" stdDeviation="5.35261"/></filter><mask id="l" height="10" maskUnits="userSpaceOnUse" width="10" x="830" y="422"><circle cx="835.211" cy="427.234" fill="#ff8281" r="3.51898" transform="matrix(.95549796 -.29499771 .29499771 .95549796 -88.864458 265.398116)"/></mask><path d="m0 497h1194v159h-1194z" fill="#89cdd3"/><path d="m689.333 564.471h5.108v-5.747z" fill="#acdeb6"/><path d="m668.902 549.785-2.554 3.831-1.916-3.831z" fill="#acdeb6"/><path d="m989.635 540.385-5.106-.145-.162 5.744z" fill="#acdeb6"/><path d="m1009.64 555.642 2.66-3.758 1.81 3.884z" fill="#acdeb6"/><path d="m406.053 544.217-5.106-.145-.162 5.744z" fill="#acdeb6"/><path d="m426.062 559.474 2.661-3.758 1.806 3.884z" fill="#acdeb6"/><path d="m39.1598 578.023 5.1058.149.1676-5.744z" fill="#acdeb6"/><path d="m19.1649 562.748-2.6646 3.755-1.8029-3.885z" fill="#acdeb6"/><path d="m717.987 541.814-5.106-.144-.163 5.744z" fill="#acdeb6"/><path d="m737.995 557.071 2.662-3.757 1.806 3.884z" fill="#acdeb6"/><path d="m795.104 526.989-3.528-3.694-4.156 3.969z" fill="#acdeb6"/><path d="m798.595 551.908 4.534-.799-1.448 4.031z" fill="#acdeb6"/><path d="m647.204 596.978-5.106-.144-.163 5.744z" fill="#acdeb6"/><path d="m667.212 612.235 2.661-3.757 1.807 3.884z" fill="#acdeb6"/><path d="m914.602 568.292-2.727-4.319-4.859 3.068z" fill="#acdeb6"/><path d="m913.095 593.408 4.603.114-2.216 3.665z" fill="#acdeb6"/><path d="m331.02 572.124-2.727-4.319-4.859 3.068z" fill="#acdeb6"/><path d="m329.513 597.24 4.603.114-2.216 3.665z" fill="#acdeb6"/><path d="m114.22 550.173 2.723 4.321 4.862-3.064z" fill="#acdeb6"/><path d="m115.749 525.058-4.602-.118 2.219-3.664z" fill="#acdeb6"/><path d="m850.448 572.971 5.072.605.68-5.706z" fill="#acdeb6"/><path d="m831.898 555.97-2.989 3.501-1.449-4.03z" fill="#acdeb6"/><path d="m266.865 576.803 5.073.605.68-5.706z" fill="#acdeb6"/><path d="m248.316 559.802-2.989 3.502-1.449-4.031z" fill="#acdeb6"/><path d="m178.376 545.555-5.071-.61-.686 5.706z" fill="#acdeb6"/><path d="m196.91 562.573 2.993-3.499 1.445 4.032z" fill="#acdeb6"/><path d="m1073.92 607.926 5.07.605.68-5.706z" fill="#acdeb6"/><path d="m1055.37 590.925-2.99 3.502-1.45-4.031z" fill="#acdeb6"/><path d="m490.336 611.755 5.072.604.681-5.706z" fill="#acdeb6"/><path d="m471.787 594.753-2.99 3.502-1.448-4.031z" fill="#acdeb6"/><path d="m1181.36 557.542 1.4 4.913 5.52-1.574z" fill="#acdeb6"/><path d="m1189.89 533.87-4.39-1.407 3.16-2.892z" fill="#acdeb6"/><path d="m597.777 561.365 1.399 4.912 5.526-1.574z" fill="#acdeb6"/><path d="m606.304 537.692-4.384-1.407 3.16-2.892z" fill="#acdeb6"/><path d="m497.484 549.905-1.259-4.95-5.569 1.417z" fill="#acdeb6"/><path d="m488.291 573.328 4.343 1.53-3.241 2.801z" fill="#acdeb6"/><path d="m1125.67 522.038-1.26-4.95-5.57 1.417z" fill="#acdeb6"/><path d="m1116.48 545.46 4.34 1.531-3.24 2.801z" fill="#acdeb6"/><path d="m542.086 525.868-1.26-4.95-5.569 1.417z" fill="#acdeb6"/><path d="m532.893 549.29 4.342 1.531-3.24 2.801z" fill="#acdeb6"/><path d="m561.24 573.116-1.26-4.95-5.568 1.417z" fill="#acdeb6"/><path d="m552.047 596.539 4.343 1.53-3.241 2.801z" fill="#acdeb6"/><path d="m729.559 574.691v5.108l-4.47-1.916z" fill="#acdeb6"/><path d="m949.717 529.028.144-5.106 4.414 2.041z" fill="#acdeb6"/><path d="m366.131 532.864.144-5.106 4.414 2.041z" fill="#acdeb6"/><path d="m79.0708 589.404-.1489 5.106-4.4117-2.045z" fill="#acdeb6"/><path d="m678.065 530.463.144-5.106 4.414 2.041z" fill="#acdeb6"/><path d="m760.703 598.184.145-5.106 4.413 2.041z" fill="#acdeb6"/><path d="m901.761 528.829 4.319-2.727.767 4.801z" fill="#acdeb6"/><path d="m318.177 532.661 4.319-2.727.767 4.801z" fill="#acdeb6"/><path d="m127.022 589.651-4.321 2.724-.762-4.802z" fill="#acdeb6"/><path d="m142.144 566.22-4.322 2.723-.762-4.802z" fill="#acdeb6"/><path d="m1014.01 579.212 4.31-2.728.77 4.802z" fill="#acdeb6"/><path d="m430.421 583.042 4.319-2.728.767 4.802z" fill="#acdeb6"/><path d="m14.8232 539.165-4.3212 2.724-.76265-4.803z" fill="#acdeb6"/><path d="m889.181 587.881-.605 5.072-4.211-2.431z" fill="#acdeb6"/><path d="m305.599 591.713-.605 5.072-4.211-2.431z" fill="#acdeb6"/><path d="m139.656 530.611.61-5.072 4.209 2.435z" fill="#acdeb6"/><path d="m271.182 510.946.609-5.071 4.209 2.435z" fill="#acdeb6"/><path d="m1182.55 599.021-4.91 1.399.62-4.823z" fill="#acdeb6"/><path d="m598.969 602.851-4.912 1.399.618-4.823z" fill="#acdeb6"/><path d="m1081.05 504.574 4.95-1.26-.76 4.804z" fill="#acdeb6"/><path d="m497.464 508.406 4.95-1.26-.754 4.804z" fill="#acdeb6"/><path d="m631.563 512.254 4.951-1.26-.754 4.804z" fill="#acdeb6"/><path d="m721.258 602.145 6.385-5.108-6.385-3.831z" fill="#acdeb6"/><path d="m958.789 501.823-6.527 4.925 6.274 4.01z" fill="#acdeb6"/><path d="m375.205 505.653-6.527 4.926 6.274 4.009z" fill="#acdeb6"/><path d="m69.9713 616.603 6.5312-4.92-6.2706-4.015z" fill="#acdeb6"/><path d="m440.959 507.653-6.527 4.926 6.274 4.009z" fill="#acdeb6"/><path d="m4.22129 614.55 6.53121-4.919-6.27057-4.016z" fill="#acdeb6"/><path d="m983.677 597.042-6.526 4.925 6.274 4.01z" fill="#acdeb6"/><path d="m400.095 600.872-6.527 4.925 6.275 4.01z" fill="#acdeb6"/><path d="m45.1647 521.365 6.5311-4.92-6.2705-4.016z" fill="#acdeb6"/><path d="m687.14 503.253-6.527 4.925 6.275 4.01z" fill="#acdeb6"/><path d="m929.405 521.188-7.728-2.672.17 7.445z" fill="#acdeb6"/><path d="m345.823 525.016-7.728-2.671.17 7.444z" fill="#acdeb6"/><path d="m99.3729 597.264 7.7261 2.678-.164-7.444z" fill="#acdeb6"/><path d="m221.844 515.02 7.725 2.678-.163-7.444z" fill="#acdeb6"/><path d="m223.121 605.305 7.726 2.679-.164-7.445z" fill="#acdeb6"/><path d="m402.651 522.033-7.728-2.671.17 7.444z" fill="#acdeb6"/><path d="m42.5409 600.202 7.7257 2.678-.1634-7.444z" fill="#acdeb6"/><path d="m166.291 608.237 7.726 2.678-.164-7.444z" fill="#acdeb6"/><path d="m1006.67 606.311-7.733-2.672.17 7.445z" fill="#acdeb6"/><path d="m423.081 610.141-7.728-2.671.17 7.444z" fill="#acdeb6"/><path d="m22.1893 512.075 7.7257 2.678-.1634-7.444z" fill="#acdeb6"/><path d="m877.687 614.16 6.945-4.316-5.886-4.56z" fill="#acdeb6"/><path d="m294.105 617.988 6.945-4.316-5.886-4.56z" fill="#acdeb6"/><path d="m151.173 504.342-6.948 4.31 5.882 4.565z" fill="#acdeb6"/><path d="m1153.87 598.558 6.66 4.742 1.94-7.19z" fill="#acdeb6"/><path d="m570.292 602.39 6.662 4.742 1.935-7.19z" fill="#acdeb6"/><path d="m526.118 509.676-6.525-4.928-2.138 7.132z" fill="#acdeb6"/><g fill="#e7e88c"><path d="m672.732 590.652 3.831-1.915-3.831-5.108z"/><path d="m696.356 537.657 3.193-3.831-3.193-2.554z"/><path d="m632.507 588.737 5.746-5.108-4.469-4.47z"/><path d="m652.3 566.39 2.554 3.192 1.277-5.108z"/><path d="m423.386 518.512-3.883 1.806 3.685 5.215z"/><path d="m398.273 570.818-3.299 3.739 3.119 2.643z"/><path d="m463.541 521.564-5.889 4.943 4.342 4.594z"/><path d="m443.124 543.343-2.463-3.264-1.421 5.07z"/><path d="m21.8021 603.702 3.8852-1.803-3.6804-5.217z"/><path d="m46.9615 551.419 3.3029-3.736-3.1167-2.646z"/><path d="m-18.3501 600.615 5.893-4.938-4.3373-4.598z"/><path d="m2.08643 578.854 2.4598 3.266 1.42538-5.069z"/><path d="m735.322 516.115-3.884 1.807 3.685 5.214z"/><path d="m710.209 568.421-3.3 3.74 3.119 2.643z"/><path d="m775.477 519.167-5.889 4.944 4.341 4.594z"/><path d="m755.059 540.946-2.462-3.263-1.421 5.07z"/><path d="m804.279 505.895-3.884 1.806 3.685 5.214z"/><path d="m779.166 558.201-3.3 3.739 3.119 2.643z"/><path d="m844.434 508.947-5.889 4.943 4.341 4.594z"/><path d="m824.016 530.725-2.462-3.263-1.421 5.07z"/><path d="m945.598 568.356-3.665-2.217-2.273 5.967z"/><path d="m888.176 576.677-4.944-.653-.455 4.063z"/><path d="m965.457 603.389-7.388-2.131-1.392 6.166z"/><path d="m935.993 598.586 1.336-3.864-5.001 1.648z"/><path d="m362.018 572.186-3.665-2.217-2.273 5.967z"/><path d="m304.596 580.508-4.944-.654-.455 4.063z"/><path d="m381.876 607.22-7.387-2.132-1.392 6.166z"/><path d="m352.413 602.416 1.335-3.864-5 1.648z"/><path d="m83.2191 550.087 3.6631 2.219 2.2786-5.964z"/><path d="m140.649 541.816 4.943.658.458-4.062z"/><path d="m63.3917 515.035 7.3853 2.138 1.3981-6.164z"/><path d="m92.8511 519.865-1.3391 3.863 5.0022-1.644z"/><path d="m946.877 505.78-3.665-2.217-2.273 5.967z"/><path d="m889.455 514.101-4.944-.653-.455 4.063z"/><path d="m966.736 540.813-7.387-2.131-1.393 6.165z"/><path d="m937.272 536.01 1.336-3.864-5.001 1.648z"/><path d="m363.293 509.61-3.665-2.217-2.273 5.967z"/><path d="m305.871 517.931-4.944-.653-.455 4.063z"/><path d="m383.152 544.643-7.387-2.131-1.393 6.166z"/><path d="m353.688 539.84 1.336-3.864-5.001 1.648z"/><path d="m81.889 612.661 3.6631 2.22 2.2786-5.965z"/><path d="m139.319 604.39 4.943.658.458-4.062z"/><path d="m62.0617 577.609 7.3852 2.138 1.3981-6.164z"/><path d="m91.521 582.439-1.3391 3.863 5.0022-1.643z"/><path d="m1045.21 573.463-3.67-2.216-2.27 5.966z"/><path d="m987.783 581.785-4.944-.654-.454 4.063z"/><path d="m1065.06 608.497-7.38-2.131-1.4 6.165z"/><path d="m1035.6 603.694 1.34-3.864-5 1.647z"/><path d="m461.621 577.293-3.665-2.216-2.273 5.966z"/><path d="m404.199 585.615-4.944-.654-.454 4.063z"/><path d="m481.48 612.327-7.387-2.131-1.393 6.165z"/><path d="m452.016 607.524 1.336-3.864-5.001 1.647z"/><path d="m-16.3806 544.887 3.6632 2.22 2.2786-5.964z"/><path d="m41.0491 536.617 4.9432.658.4585-4.063z"/><path d="m-36.2079 509.836 7.3853 2.138 1.398-6.164z"/><path d="m-6.74854 514.666-1.33904 3.862 5.00217-1.643z"/><path d="m1225.26 500.674-3.66-2.216-2.28 5.966z"/><path d="m1167.84 508.996-4.95-.654-.45 4.063z"/><path d="m1245.12 535.708-7.39-2.131-1.39 6.165z"/><path d="m1215.66 530.905 1.33-3.865-5 1.648z"/><path d="m641.676 504.502-3.665-2.216-2.273 5.966z"/><path d="m584.254 512.824-4.944-.654-.455 4.063z"/><path d="m661.535 539.536-7.388-2.131-1.392 6.165z"/><path d="m632.071 534.733 1.336-3.864-5.001 1.647z"/><path d="m759.159 578.571-3.666-2.217-2.273 5.967z"/><path d="m701.736 586.892-4.944-.653-.454 4.063z"/><path d="m779.017 613.604-7.387-2.131-1.393 6.165z"/><path d="m749.553 608.801 1.336-3.864-5.001 1.648z"/><path d="m247.282 600.836 4.031-1.448-3.199-5.526z"/><path d="m277.015 551.012 3.624-3.426-2.868-2.914z"/><path d="m207.567 594.171 6.311-4.391-3.909-4.968z"/><path d="m229.867 574.325 2.158 3.472 1.873-4.921z"/><path d="m197.983 521.541-4.032 1.445 3.194 5.528z"/><path d="m168.205 571.339-3.627 3.423 2.865 2.917z"/><path d="m237.692 528.241-6.315 4.386 3.905 4.971z"/><path d="m215.374 548.068-2.155-3.474-1.877 4.919z"/><path d="m1151.64 548.742 2.89 3.16 3.86-5.084z"/><path d="m1209.07 556.947 4.56 2.021 1.59-3.77z"/><path d="m1142.46 509.531 6.49 4.127 3.07-5.523z"/><path d="m1169.37 522.446-2.37 3.331 5.27-.171z"/><path d="m568.053 552.572 2.892 3.16 3.863-5.084z"/><path d="m625.492 560.777 4.559 2.021 1.582-3.77z"/><path d="m558.877 513.361 6.487 4.127 3.074-5.522z"/><path d="m585.792 526.276-2.371 3.331 5.262-.171z"/><path d="m1110.53 555.701-2.8-3.24-4.01 4.972z"/><path d="m1053.35 545.876-4.5-2.149-1.69 3.724z"/><path d="m1118.59 595.156-6.36-4.309-3.23 5.434z"/><path d="m1092.06 581.486 2.46-3.263-5.26.022z"/><path d="m526.947 559.533-2.801-3.24-4.005 4.972z"/><path d="m469.763 549.708-4.5-2.149-1.688 3.724z"/><path d="m535.011 598.989-6.367-4.31-3.23 5.434z"/><path d="m508.473 585.318 2.464-3.263-5.265.022z"/><path d="m549.24 610.087 3.467 2.515 2.763-5.756z"/><path d="m607.156 606.585 4.872 1.064.792-4.011z"/><path d="m532.373 573.519 7.184 2.74 1.902-6.027z"/><path d="m561.333 580.764-1.653 3.739 5.121-1.225z"/></g><path d="m398.119 650.989 3.527-3.694 4.156 3.969z" fill="#acdeb6"/><path d="m394.628 675.908-4.534-.799 1.447 4.031z" fill="#acdeb6"/><path d="m1079 674.173-2.72 4.321-4.86-3.064z" fill="#acdeb6"/><path d="m1077.47 649.058 4.61-.118-2.22-3.664z" fill="#acdeb6"/><path d="m11.864 681.542-1.3992 4.913-5.52663-1.574z" fill="#acdeb6"/><path d="m3.33667 657.87 4.38401-1.407-3.15979-2.892z" fill="#acdeb6"/><path d="m67.5528 646.038 1.2597-4.95 5.569 1.417z" fill="#acdeb6"/><path d="m76.7459 669.46-4.3425 1.531 3.2403 2.801z" fill="#acdeb6"/><path d="m651.137 649.868 1.259-4.95 5.569 1.417z" fill="#acdeb6"/><path d="m660.33 673.29-4.343 1.531 3.241 2.801z" fill="#acdeb6"/><path d="m243.506 653.028-.145-5.106-4.413 2.041z" fill="#acdeb6"/><path d="m827.092 656.864-.145-5.106-4.413 2.041z" fill="#acdeb6"/><path d="m515.158 654.463-.144-5.106-4.414 2.041z" fill="#acdeb6"/><path d="m291.461 652.829-4.318-2.727-.767 4.801z" fill="#acdeb6"/><path d="m875.045 656.661-4.318-2.727-.767 4.801z" fill="#acdeb6"/><path d="m1053.57 654.611-.61-5.072-4.21 2.435z" fill="#acdeb6"/><path d="m922.041 634.946-.609-5.071-4.209 2.435z" fill="#acdeb6"/><path d="m112.175 628.574-4.95-1.26.754 4.804z" fill="#acdeb6"/><path d="m695.759 632.406-4.95-1.26.754 4.804z" fill="#acdeb6"/><path d="m561.659 636.254-4.95-1.26.754 4.804z" fill="#acdeb6"/><path d="m234.434 625.823 6.527 4.925-6.274 4.01z" fill="#acdeb6"/><path d="m818.018 629.653 6.527 4.926-6.274 4.009z" fill="#acdeb6"/><path d="m752.264 631.653 6.527 4.926-6.274 4.009z" fill="#acdeb6"/><path d="m1148.06 645.365-6.53-4.92 6.27-4.016z" fill="#acdeb6"/><path d="m506.082 627.253 6.527 4.925-6.274 4.01z" fill="#acdeb6"/><path d="m263.817 645.188 7.728-2.672-.17 7.445z" fill="#acdeb6"/><path d="m847.399 649.016 7.728-2.671-.17 7.444z" fill="#acdeb6"/><path d="m971.379 639.02-7.726 2.678.164-7.444z" fill="#acdeb6"/><path d="m790.571 646.033 7.728-2.671-.17 7.444z" fill="#acdeb6"/><path d="m1171.03 636.075-7.72 2.678.16-7.444z" fill="#acdeb6"/><path d="m1042.05 628.342 6.95 4.31-5.88 4.565z" fill="#acdeb6"/><path d="m667.105 633.676 6.525-4.928 2.138 7.132z" fill="#acdeb6"/><path d="m520.491 714.652-3.831-1.915 3.831-5.108z" fill="#e7e88c"/><path d="m496.866 661.657-3.192-3.831 3.192-2.554z" fill="#e7e88c"/><path d="m560.716 712.737-5.747-5.108 4.47-4.47z" fill="#e7e88c"/><path d="m540.922 690.39-2.554 3.192-1.277-5.108z" fill="#e7e88c"/><path d="m769.837 642.512 3.883 1.806-3.685 5.215z" fill="#e7e88c"/><path d="m794.949 694.818 3.3 3.739-3.119 2.643z" fill="#e7e88c"/><path d="m729.682 645.564 5.888 4.943-4.341 4.594z" fill="#e7e88c"/><path d="m750.099 667.343 2.462-3.264 1.421 5.07z" fill="#e7e88c"/><path d="m457.901 640.115 3.884 1.807-3.685 5.214z" fill="#e7e88c"/><path d="m483.014 692.421 3.299 3.74-3.119 2.643z" fill="#e7e88c"/><path d="m417.746 643.167 5.889 4.944-4.342 4.594z" fill="#e7e88c"/><path d="m438.163 664.946 2.463-3.263 1.421 5.07z" fill="#e7e88c"/><path d="m388.944 629.895 3.884 1.806-3.685 5.214z" fill="#e7e88c"/><path d="m414.057 682.201 3.299 3.739-3.119 2.643z" fill="#e7e88c"/><path d="m348.789 632.947 5.889 4.943-4.342 4.594z" fill="#e7e88c"/><path d="m369.206 654.725 2.463-3.263 1.421 5.07z" fill="#e7e88c"/><path d="m1110 674.087-3.66 2.219-2.28-5.964z" fill="#e7e88c"/><path d="m1052.57 665.816-4.94.658-.46-4.062z" fill="#e7e88c"/><path d="m1129.83 639.035-7.38 2.138-1.4-6.164z" fill="#e7e88c"/><path d="m1100.37 643.865 1.34 3.863-5-1.644z" fill="#e7e88c"/><path d="m246.345 629.78 3.665-2.217 2.274 5.967z" fill="#e7e88c"/><path d="m303.768 638.101 4.943-.653.455 4.063z" fill="#e7e88c"/><path d="m226.487 664.813 7.387-2.131 1.393 6.165z" fill="#e7e88c"/><path d="m255.95 660.01-1.335-3.864 5.001 1.648z" fill="#e7e88c"/><path d="m829.929 633.61 3.665-2.217 2.274 5.967z" fill="#e7e88c"/><path d="m887.352 641.931 4.943-.653.455 4.063z" fill="#e7e88c"/><path d="m810.071 668.643 7.387-2.131 1.393 6.166z" fill="#e7e88c"/><path d="m839.534 663.84-1.335-3.864 5.001 1.648z" fill="#e7e88c"/><path d="m1209.6 668.887-3.66 2.22-2.28-5.964z" fill="#e7e88c"/><path d="m1152.17 660.617-4.94.658-.46-4.063z" fill="#e7e88c"/><path d="m1229.43 633.836-7.38 2.138-1.4-6.164z" fill="#e7e88c"/><path d="m1199.97 638.666 1.34 3.862-5-1.643z" fill="#e7e88c"/><path d="m-32.0375 624.674 3.6651-2.216 2.2734 5.966z" fill="#e7e88c"/><path d="m25.3848 632.996 4.9438-.654.4548 4.063z" fill="#e7e88c"/><path d="m-51.896 659.708 7.3872-2.131 1.3925 6.165z" fill="#e7e88c"/><path d="m-22.4324 654.905-1.3356-3.865 5.0007 1.648z" fill="#e7e88c"/><path d="m551.547 628.502 3.665-2.216 2.273 5.966z" fill="#e7e88c"/><path d="m608.969 636.824 4.944-.654.454 4.063z" fill="#e7e88c"/><path d="m531.688 663.536 7.387-2.131 1.393 6.165z" fill="#e7e88c"/><path d="m561.152 658.733-1.336-3.864 5.001 1.647z" fill="#e7e88c"/><path d="m995.24 645.541 4.032 1.445-3.194 5.528z" fill="#e7e88c"/><path d="m1025.02 695.339 3.62 3.423-2.86 2.917z" fill="#e7e88c"/><path d="m955.531 652.241 6.314 4.386-3.904 4.971z" fill="#e7e88c"/><path d="m977.849 672.068 2.154-3.474 1.878 4.919z" fill="#e7e88c"/><path d="m41.5875 672.742-2.8915 3.16-3.8633-5.084z" fill="#e7e88c"/><path d="m-15.8516 680.947-4.5589 2.021-1.5819-3.77z" fill="#e7e88c"/><path d="m50.7633 633.531-6.4866 4.127-3.0743-5.523z" fill="#e7e88c"/><path d="m23.8491 646.446 2.3708 3.331-5.2623-.171z" fill="#e7e88c"/><path d="m625.17 676.572-2.892 3.16-3.863-5.084z" fill="#e7e88c"/><path d="m567.73 684.777-4.558 2.021-1.582-3.77z" fill="#e7e88c"/><path d="m634.345 637.361-6.486 4.127-3.075-5.522z" fill="#e7e88c"/><path d="m607.431 650.276 2.371 3.331-5.262-.171z" fill="#e7e88c"/><path d="m244 538c-58 47-151-20-244 33v84c3.66667-5.667 31.0803-18.037 78.5-56.5 45-36.5 157.5 13.5 228.5-36.5 51-35 103 0 155-65h-73c-49 43-87-6-145 41z" fill="#fff0e1"/><g filter="url(#a)"><path d="m450.131 260.8-138.197 235.53h1354.066l-130.22-170.842-81.06-174.16-35.88 97.861-102.32-197.381-111.62 99.52-115.61-139.328-209.95 237.189-82.387-82.933-58.468 94.544-106.306-149.28-112.95 238.848z" fill="#b2dda5"/></g><path d="m1115.18 115.668-24.5-87.0801 36.76 44.784z" fill="#fff" fill-opacity=".3"/><path d="m813.603 225.253-12.141-50.101 48.35 50.736z" fill="#fff" fill-opacity=".3"/><path d="m636.054 187.817-44.115 30.686 40.439-90.398z" fill="#fff" fill-opacity=".3"/><path d="m731.63 269.926-35.536-19.904v-32.344z" fill="#fff" fill-opacity=".3"/><path d="m510.924 354.955-25.733 16.586-9.191-60.541z" fill="#fff" fill-opacity=".3"/><g filter="url(#b)"><path d="m870.138 228.535-246.952 198.522 36.585 60.964 573.169-23.448 124.73-37.516-165.9-358.6586-210.768 315.1466z" fill="#35675b"/></g><path d="m1130.5 174.538 57.59-85.4208-7.96 58.0528z" fill="#000" fill-opacity=".2"/><path d="m791.248 301.596 79.342-63.854-36.332 58.309z" fill="#000" fill-opacity=".2"/><path d="m809.5 277.5c-22-11-26.5-45-48-54-1 1.667-3.8 6.3-7 11.5 24 18 20 40.5 43.5 51.5.833-.833 4.7-3.8 11.5-9z" fill="#eee1d2"/><g filter="url(#c)"><path d="m352.873 331.05-143.873 165.951h1398.18l-156.85-97.066-92.52-127.199-91.18 100.584-96.64-144.033-204.282 242.665-76.879-120.55-142.775 48.533-129.596-90.803-173.527 120.549z" fill="#91d7b9"/></g><path d="m286.812 426.979 66.172-76.417v43.192z" fill="#fff" fill-opacity=".3"/><path d="m516.574 392.095 98.032-71.433-18.381 71.433z" fill="#fff" fill-opacity=".3"/><path d="m1181.36 333.945-8.58-82.23 62.49 94.69z" fill="#fff" fill-opacity=".3"/><path d="m890.455 417.774-7.555-61.606 47.598 70.636z" fill="#fff" fill-opacity=".3"/><path d="m1100 121.5c-42.5-2.5-87.5 32-98-11-1.5 1.667-6 6.7-12 13.5 25.5 52 87-10.5 147.5 26 1-1.833 4.5-7.9 10.5-17.5-1.83-2.833-14-9-48-11z" fill="#eee1d2"/><path clip-rule="evenodd" d="m788.52 151.051h13.058c4.985 0 9.026 4.041 9.026 9.026 0 1.268-.261 2.475-.733 3.57h10.249c4.985 0 9.026 4.041 9.026 9.026 0 1.705-.473 3.3-1.294 4.66h3.603c6.042 0 10.94 4.898 10.94 10.94 0 6.043-4.898 10.941-10.94 10.941h-149.88c-6.042 0-10.94-4.898-10.94-10.941 0-6.042 4.898-10.94 10.94-10.94h3.598c-.822-1.36-1.295-2.955-1.295-4.66 0-4.985 4.041-9.026 9.026-9.026h10.255c-.472-1.095-.733-2.302-.733-3.57 0-4.985 4.041-9.026 9.026-9.026h13.053c.153-4.851 4.133-8.737 9.021-8.737h45.972c4.888 0 8.869 3.886 9.022 8.737z" fill="#fff6f0" fill-opacity=".9" fill-rule="evenodd"/><path clip-rule="evenodd" d="m695.406 121.511h14.72c5.623 0 10.181 4.558 10.181 10.181 0 1.417-.29 2.767-.814 3.994h11.552c5.623 0 10.181 4.558 10.181 10.181 0 1.921-.532 3.717-1.456 5.25h4.06c6.815 0 12.34 5.525 12.34 12.341 0 6.815-5.525 12.34-12.34 12.34h-169.062c-6.815 0-12.34-5.525-12.34-12.34 0-6.816 5.525-12.341 12.34-12.341h4.056c-.925-1.533-1.457-3.329-1.457-5.25 0-5.623 4.558-10.181 10.181-10.181h11.549c-.523-1.227-.813-2.577-.813-3.994 0-5.623 4.558-10.181 10.181-10.181h14.732c.161-5.482 4.656-9.876 10.176-9.876h51.856c5.521 0 10.015 4.394 10.177 9.876z" fill="#fff1e8" fill-opacity=".8" fill-rule="evenodd"/><path clip-rule="evenodd" d="m1132.86 109.519h15.03c5.37 0 9.73 4.358 9.73 9.735 0 1.36-.28 2.655-.78 3.831h11.84c5.38 0 9.74 4.359 9.74 9.736 0 1.84-.51 3.562-1.4 5.03h4.45c6.52 0 11.81 5.283 11.81 11.801 0 6.517-5.29 11.8-11.81 11.8h-169.02c-6.52 0-11.8-5.283-11.8-11.8 0-6.518 5.28-11.801 11.8-11.801h4.45c-.89-1.468-1.4-3.19-1.4-5.03 0-5.377 4.36-9.736 9.74-9.736h11.85c-.51-1.176-.79-2.471-.79-3.831 0-5.377 4.36-9.735 9.74-9.735h15.02c.16-5.238 4.46-9.435 9.74-9.435h52.33c5.27 0 9.57 4.197 9.73 9.435z" fill="#fff6f0" fill-opacity=".9" fill-rule="evenodd"/><path clip-rule="evenodd" d="m1112.37 73.4266h10.41c3.73 0 6.75 3.0201 6.75 6.7456 0 .9396-.2 1.8343-.54 2.647h8.2c3.73 0 6.75 3.0201 6.75 6.7457 0 1.2723-.35 2.4625-.97 3.4781h3.09c4.51 0 8.17 3.6607 8.17 8.177 0 4.515-3.66 8.176-8.17 8.176h-117.12c-4.52 0-8.18-3.661-8.18-8.176 0-4.5163 3.66-8.177 8.18-8.177h3.08c-.61-1.0156-.96-2.2058-.96-3.4781 0-3.7256 3.02-6.7457 6.74-6.7457h8.2c-.34-.8127-.54-1.7074-.54-2.647 0-3.7255 3.02-6.7456 6.75-6.7456h10.42c.1-3.6322 3.08-6.5438 6.74-6.5438h36.26c3.66 0 6.63 2.9116 6.74 6.5438z" fill="#fff1e8" fill-opacity=".8" fill-rule="evenodd"/><path clip-rule="evenodd" d="m1256.16 91.8362h15.03c5.37 0 9.73 4.3588 9.73 9.7358 0 1.36-.28 2.655-.78 3.831h11.84c5.38 0 9.74 4.359 9.74 9.735 0 1.841-.51 3.562-1.4 5.03h4.46c6.51 0 11.8 5.284 11.8 11.801s-5.29 11.801-11.8 11.801h-169.03c-6.52 0-11.8-5.284-11.8-11.801s5.28-11.801 11.8-11.801h4.45c-.89-1.468-1.4-3.189-1.4-5.03 0-5.376 4.36-9.735 9.74-9.735h11.85c-.51-1.176-.79-2.471-.79-3.831 0-5.377 4.36-9.7358 9.74-9.7358h15.03c.16-5.2372 4.45-9.4339 9.73-9.4339h52.33c5.27 0 9.57 4.1967 9.73 9.4339z" fill="#fff1e8" fill-opacity=".8" fill-rule="evenodd"/><g filter="url(#d)"><path d="m997.703 30.0028c-2.197-3.8187-5.858-9.4105-19.406-10.0925 4.211-.8183 14.097-.9547 19.406 3.2733 4.397-4.6371 6.227-6.001 23.797-11.1836-16.1 4.7496-19.11 9.9263-23.793 17.9969z" fill="#000"/></g><g filter="url(#e)"><path d="m1012.84 51.6054c-1.47-4.5826-3.91-11.2927-12.94-12.111 2.81-.982 9.4-1.1457 12.94 3.9279 2.93-5.5646 4.15-7.2012 15.86-13.4203-10.73 5.6995-12.74 11.9115-15.86 21.5962z" fill="#000"/></g><g filter="url(#f)"><path d="m984.033 58.8076c-1.464-2.2913-3.905-5.6464-12.937-6.0555 2.807-.491 9.398-.5729 12.937 1.9639 2.93-2.7822 4.15-3.6006 15.867-6.7101-10.738 2.8497-12.741 5.9557-15.864 10.7981z" fill="#000"/></g><path d="m1092.5 217.5c-76 0-129 42.5-185-.5-1.167 1.5-5.4 6.2-11 13 73 47.5 122 6.5 183.5 6 1-1.833 4.5-8.1 12.5-18.5z" fill="#eee1d2"/><g filter="url(#g)"><path d="m789.561 368.318 478.749-173.937" stroke="#000" stroke-width="3.37742"/></g><g filter="url(#h)"><path d="m788.715 269.529 478.745-173.9372" stroke="#000" stroke-width="3.37742"/></g><path d="m732 259h63v238h-63z" fill="#f4e97d"/><g filter="url(#i)"><rect fill="#000" height="114.516" rx="9.81562" width="123.241" x="1049.62" y="305.463"/><rect fill="#89cdd3" height="55.0765" rx="4.3625" width="44.7156" x="1058.35" y="312.006"/><rect fill="#89cdd3" height="55.0765" rx="4.3625" width="44.7156" x="1119.42" y="312.006"/><path d="m1111.24 313.098v100.882" stroke="#89cdd3" stroke-width="2.18125"/><path d="m1113.96 309.279-31.62-31.62 31.62-31.62" stroke="#000" stroke-width="4.42235"/><rect fill="#000" height="12.8248" rx="6.41241" transform="matrix(.94315249 -.33236032 .33236032 .94315249 -20.146377 374.233729)" width="53.5104" x="1083.91" y="246.01"/></g><path d="m335 469.001c5.999 18.5 32 11 39 28h31.5c0-22-67.154-25.947-49.499-34 23.999-10.947 25.999-15 29.999-23.5 4.784-10.167 13.5-25 46.5-22-1.167-1.333-.8-.9-8-8.5-14.5-6-41.499 8.5-53.5 26.5-9 13.5-41.513 16.5-36 33.5z" fill="#f0e3d5"/><path d="m427 392c9.5 14.5 25.5 5 36 24 1.833-1.334 7-5 13-9-14-22.5-45.5-13.5-38-28 5.847-11.305 17.5-26 3.5-37.5-10.435-8.572-22 3-31-13-1 1.667-5 8-8 13 2.5 3 3.7 4.7 12.5 7.5 5.5 1.75 20.375-1 22.5 7.5 2 8-20.561 20.145-10.5 35.5z" fill="#eee1d2"/><path d="m427 300c18.5 5 31.5-6.5 47.5-8 1 1.167 4 4.9 8 10.5-32.5 7.5-41 17.5-62 8.5 1-1.5 2.5-4.5 6.5-11z" fill="#eee1d2"/><path d="m652 250.5c-45.5 19-73 42-103.5 38-1.667 3.167-3.4 7-9 19 36 10.5 68-19 120-40 31-11.5 21.5-33 48-50.5-1.167-1.5-4.5-7-10-14-28 18.5-26 39.357-45.5 47.5z" fill="#eee1d2"/><g filter="url(#j)"><path d="m778.939 488.355v-43.479c0-1.059-.734-1.973-1.761-2.195l-11.138-2.406c-1.387-.299-2.694.766-2.694 2.196v42.677c0 1.002.659 1.883 1.615 2.159l11.138 3.207c1.423.41 2.84-.667 2.84-2.159z" fill="#d1c870"/><path d="m806.527 436.629-27.588 7.696v45.08l27.588-8.246z" fill="#f4e97d"/><path clip-rule="evenodd" d="m764.545 446.229 1.987.206-.119 1.122-.726-.075v.555h-1.142zm4.7.488 2.714.282-.12 1.123-2.713-.283zm5.427.564 1.867.195v1.605h-1.142v-.589l-.845-.088zm-10.127 5.481v-2.363h1.142v2.363zm11.994-1.487v2.194h-1.142v-2.194zm-11.994 6.212v-2.363h1.142v2.363zm11.994-1.824v2.194h-1.142v-2.194zm-11.994 6.549v-2.363h1.142v2.363zm11.994-2.161v2.194h-1.142v-2.194zm0 4.388v2.195h-1.142v-2.195zm-11.994 2.498v-2.362h1.142v2.362zm11.994 1.891v2.194h-1.142v-2.194zm-11.994 2.834v-2.362h1.142v2.362zm11.994 1.554v2.194h-1.142v-2.194zm-11.994 3.171v-2.362h1.142v2.362zm11.994 1.217v2.194h-1.142v-2.194zm-11.994 3.509v-2.363h1.142v2.363zm11.994.879v2.194h-1.142v-2.194zm-11.994 1.483h1.142v.747l.931.241-.291 1.092-1.782-.464zm7.208 3.49-2.713-.705.291-1.091 2.713.705zm4.786-.585v1.829l-2.073-.539.291-1.091.64.167v-.366z" fill="#f4e97d" fill-rule="evenodd"/><path d="m805.972 418.635-44.656 11.664 3.446 18.952 41.762-12.796z" fill="#539882"/><path d="m773.378 439.486c0 5.392-4.114 9.764-9.189 9.764s-9.189-4.372-9.189-9.764 4.114-9.763 9.189-9.763 9.189 4.371 9.189 9.763z" fill="#35675b"/><path clip-rule="evenodd" d="m763.345 446.731c3.288 0 6.237-3.175 6.237-7.464 0-4.288-2.949-7.463-6.237-7.463s-6.237 3.175-6.237 7.463c0 4.289 2.949 7.464 6.237 7.464zm0 .932c3.975 0 7.197-3.759 7.197-8.396s-3.222-8.396-7.197-8.396c-3.974 0-7.197 3.759-7.197 8.396s3.223 8.396 7.197 8.396z" fill="#539882" fill-rule="evenodd"/><path clip-rule="evenodd" d="m762.745 444.602c2.466 0 4.678-2.268 4.678-5.331s-2.212-5.331-4.678-5.331-4.678 2.268-4.678 5.331 2.212 5.331 4.678 5.331zm0 .666c2.981 0 5.398-2.685 5.398-5.997s-2.417-5.998-5.398-5.998-5.397 2.686-5.397 5.998 2.416 5.997 5.397 5.997z" fill="#539882" fill-rule="evenodd"/><path d="m765.746 439.27c0 1.988-1.611 3.599-3.599 3.599-1.987 0-3.598-1.611-3.598-3.599 0-1.987 1.611-3.598 3.598-3.598 1.988 0 3.599 1.611 3.599 3.598z" fill="#539882"/><path d="m770.541 427.837c6.812-1.776 13.624 10.533 8.515 17.185 3.974-1.108 17.03-4.989 28.384-8.315 4.198-5.125-1.306-12.145-6.647-16.242-.807-.62-1.869-.783-2.85-.489-4.458 1.338-15.573 4.78-27.402 7.861z" fill="#d1c870"/><path d="m791.963 421.037c-10.483 2.57-22.069 5.655-22.621 7.197 4.414-1.028 5.701-1.028 5.517-1.028h7.173l14.897-4.113c-.184-.171-1.434-.822-4.966-2.056z" fill="#d1c870"/><path clip-rule="evenodd" d="m815.522 522.994c1.656 0 2.999 1.353 2.999 3.023v4.75c0 1.669-1.343 3.022-2.999 3.022s-2.999-1.353-2.999-3.022v-4.75c0-1.67 1.343-3.023 2.999-3.023z" fill="#ffc7a1" fill-rule="evenodd"/><path d="m812.523 529.821v-2.03h2.399v2.399c-.444-.062-1.546-.222-2.399-.369z" fill="#ebc8b1"/><path d="m805.756 526.483c-.447-6.942-1.88-24.076-4.029-37.075h23.283c-.448 7.095 1.791 27.005 0 37.075-4.925 3.891-13.209 2.746-19.254 0z" fill="#d1c870"/><path clip-rule="evenodd" d="m794.532 524.189c1.987 0 3.598 1.354 3.598 3.023v4.75c0 1.669-1.611 3.023-3.598 3.023s-3.598-1.354-3.598-3.023v-4.75c0-1.669 1.611-3.023 3.598-3.023z" fill="#ffc7a1" fill-rule="evenodd"/><path d="m790.934 532.215v-2.029h2.398v2.398c-.444-.061-1.545-.221-2.398-.369z" fill="#ebc8b1"/><path d="m785.298 527.758c-.44-6.732-1.847-23.346-3.958-35.951l26.388 3.107c-.44 6.879-1.759 23.079-3.519 32.844-4.837 3.773-12.974 2.663-18.911 0z" fill="#f4e97d"/><path d="m785.396 527.672c-.45-6.93-1.893-24.035-4.056-37.012l6.535 1.599c-.45 7.083 3.155 26.731 1.353 36.784-1.803-.457-2.254-.686-3.832-1.371z" fill="#d1c870"/><path clip-rule="evenodd" d="m837.102 482.463c.178.158.342.303.488.432.629.555.921.74 1.274.963h.001c.093.059.19.12.299.192.696.458-.225 1.766-.921 1.308-.476-.313-.948-.643-1.299-.913l-.131.12.772.683.424.375c.795.702-.225 1.766-.921 1.308-.564-.371-1.13-.88-1.493-1.245l-.168.155c.463.486.713.682 1.009.914.087.068.177.139.278.221.646.526-.017 1.733-1.061 1.046-.615-.405-1.042-.848-1.33-1.147-.104-.107-.189-.196-.259-.258l.014-.011c-.934-.924-2.421-2.479-2.444-2.843-.024-.399 2.372-2.149 3.573-2.975v.001c0-.001 0-.001 0-.001 1.761.142 3.631.4 3.335 1.297-.119.36-.682.374-1.44.378z" fill="#ffc7a1" fill-rule="evenodd"/><path clip-rule="evenodd" d="m811.444 444.068c2.062-.847 4.42.139 5.266 2.202 4.625 11.269 7.676 17.435 10.547 21.872 2.674 4.134 5.241 6.86 9.165 11.027.251.266.507.538.769.817l-5.881 5.531c-.295-.314-.586-.623-.872-.927-3.833-4.066-6.875-7.294-9.959-12.063-3.289-5.085-6.567-11.813-11.237-23.193-.846-2.062.139-4.42 2.202-5.266z" fill="#35675b" fill-rule="evenodd"/><path clip-rule="evenodd" d="m815.513 444.937c.344-.141.737.023.878.367 4.644 11.317 7.741 17.669 10.737 22.329 2.806 4.363 5.532 7.257 9.422 11.387.257.273.52.552.788.837l-.98.922c-.274-.292-.543-.577-.807-.857-3.874-4.112-6.679-7.091-9.554-11.561-3.066-4.768-6.201-11.214-10.851-22.546-.141-.344.023-.737.367-.878z" fill="#407967" fill-rule="evenodd"/><path d="m801.223 536.281-3.621-3.714-1.183.157c-1.442.193-2.907.124-4.324-.204l-.772-.178c-.048.896-.318 3.046-.395 4.479 2.166 1.618 6.786 1.381 9.836.908.695-.108.95-.945.459-1.448z" fill="#35675b"/><path d="m822.301 534.162-3.621-3.715-1.182.158c-1.443.192-2.907.123-4.325-.204l-.771-.178c-.049.896-.319 3.046-.396 4.479 2.166 1.618 6.786 1.381 9.836.908.695-.108.95-.945.459-1.448z" fill="#35675b"/><path d="m775.34 491.281c1.055-11.627 7.417-38.595 24.421-53.453 2.714 0 10.221 1.268 18.543 6.342-1.357 12.231 5.879 32.162 12.211 47.111-8.141 8.154-34.824 12.231-55.175 0z" fill="#539882"/><path d="m818.177 445.806c.158 1.742 2.571 12.009 4.351 16.559l-6.117.426-2.283-9.564z" fill="#539882"/><path d="m775.34 490.623c1.048-11.482 7.366-38.116 24.254-52.79 1.797 0 .449-.223.449 2.237-12.576 17.224-21.11 38.474-17.517 54.132-3.593-1.565-4.267-2.013-7.186-3.579z" fill="#468677"/><path d="m808.77 375.758c4.568 5.942 1.585 15.898-6.662 22.239-8.248 6.341-18.637 6.665-23.204.724-4.568-5.942-1.585-15.898 6.662-22.239 8.248-6.341 18.637-6.665 23.204-.724z" fill="#c5c5c5"/><path d="m784.469 390.975c1.403-2.318 7.596-8.941 18.97-11.745l-2.916 9.615c-3.984 1.073-12.772 3.001-16.054 2.13z" fill="#539882"/><path d="m796.883 386.452c17.346-26.34 46.91-.647 39.277 19.005-18.016-7.905-33.691-15.964-39.277-19.005z" fill="#e1e1e1"/><path d="m828.125 394.135c4.401 5.26 6.208 9.039 7.634 10.196 1.14.926 1.034 1.735.838 2.024.428 1.846 1.49 5.794 2.318 6.816-1.509.648-2.146.891-2.276.931l-2.577-6.965z" fill="#ffc7a1"/><path d="m842.796 427.26c-2.68-4.796 1.469-13.107-6.049-15.707l-1.094 15.101c.315.762 2.43 1.499 7.143.606z" fill="#ffc7a1"/><path d="m834.661 407.175c5.277 17.09-1.221 34.271-14.514 38.374-13.292 4.104-28.344-6.423-33.621-23.513-5.276-17.09 1.222-34.271 14.514-38.375s28.345 6.424 33.621 23.514z" fill="#ffc7a1"/><path d="m840.486 409.773c.684 2.215-.301 4.487-2.2 5.073s-3.993-.735-4.676-2.95c-.684-2.215.3-4.486 2.199-5.073 1.899-.586 3.993.735 4.677 2.95z" fill="#fff"/><path d="m838.017 408.759c.195.633-.159 1.304-.792 1.5-.633.195-1.305-.16-1.5-.793s.159-1.304.792-1.5c.633-.195 1.305.16 1.5.793z" fill="#000"/><g filter="url(#k)"><path d="m840.932 415.281c.195.633-.929 1.542-2.511 2.031-1.583.488-3.024.371-3.22-.262-.195-.633.929-1.542 2.512-2.03 1.582-.489 3.023-.372 3.219.261z" fill="#fca"/></g><path clip-rule="evenodd" d="m842.748 414.181c.307-1.422.239-3.423-.433-5.602-.673-2.179-1.745-3.87-2.8-4.871-1.129-1.07-1.751-.964-1.82-.943-.068.021-.642.284-.971 1.805-.307 1.421-.239 3.422.433 5.601.673 2.179 1.745 3.87 2.801 4.871 1.128 1.07 1.75.964 1.819.943.068-.021.642-.284.971-1.804zm-.181 4.363c2.848-.88 3.89-5.697 2.326-10.761-1.563-5.064-5.139-8.456-7.988-7.576-2.848.879-3.89 5.697-2.326 10.76 1.563 5.064 5.139 8.456 7.988 7.577z" fill="#83c1a7" fill-rule="evenodd"/><path d="m841.342 417.984c-4.607-2.653-5.666-9.876-13.151-19.152l4.808 25.776c1.308-.92 4.809-3.533 8.343-6.624z" fill="#ffc7a1"/><path d="m795.443 430.579c.782 2.532-.894 5.298-3.742 6.177s-5.791-.46-6.573-2.992c-.781-2.532.894-5.297 3.742-6.177 2.849-.879 5.791.461 6.573 2.992z" fill="#ffc7a1"/><path d="m844.443 437.364c2.977-4.739-2.63-11.004-5.018-16.258-7.595 4.455-27.285 16.54-35.102 22.751 10.44 5.302 34.696 2.142 40.12-6.493z" fill="#ffc7a1"/><path clip-rule="evenodd" d="m833.486 408.361c-.676-1.2-1.38-2.45-2.117-3.72l.827-.47c.753 1.296 1.462 2.557 2.138 3.758 1.008 1.79 1.942 3.45 2.838 4.904.744 1.209 1.451 2.256 2.134 3.094.687.843 1.331 1.451 1.945 1.809l.534.312-3.157 2.967-.653-.67 2.277-2.141c-.574-.43-1.135-1.006-1.691-1.688-.72-.884-1.45-1.969-2.204-3.193-.902-1.464-1.854-3.155-2.871-4.962z" fill="#ffb685" fill-rule="evenodd"/><path clip-rule="evenodd" d="m835.322 415.319c-.95.549-2.096 1.369-3.645 2.821l-1.803-2.079c1.663-1.559 2.964-2.504 4.113-3.168.893-.516 1.694-.858 2.411-1.164.188-.081.371-.159.548-.237l1.091 2.549c-.222.098-.433.189-.639.277-.696.298-1.326.568-2.076 1.001z" fill="#91d7b9" fill-rule="evenodd"/><circle cx="835.211" cy="427.234" fill="#ff8281" r="3.51898" transform="matrix(.95549796 -.29499771 .29499771 .95549796 -88.864458 265.398116)"/><g mask="url(#l)"><circle cx="834.354" cy="432.408" fill="#ff6564" r="3.51898" transform="matrix(.95549796 -.29499771 .29499771 .95549796 -90.428914 265.375557)"/></g><path d="m826.276 425.116c.585 1.895-.517 3.918-2.461 4.519-1.944.6-3.994-.45-4.58-2.346-.585-1.895.517-3.918 2.461-4.518 1.944-.601 3.994.449 4.58 2.345z" fill="#fca7a7"/><path clip-rule="evenodd" d="m823.506 427.967c4.035-1.246 6.636-6.137 5.022-11.365s-6.519-7.801-10.555-6.556c-4.035 1.246-6.636 6.137-5.022 11.365s6.52 7.802 10.555 6.556zm.772 2.5c5.697-1.758 8.731-8.315 6.776-14.645-1.954-6.329-8.156-10.035-13.853-8.276-5.696 1.759-8.73 8.316-6.776 14.645 1.954 6.33 8.156 10.035 13.853 8.276z" fill="#91d7b9" fill-rule="evenodd"/><path d="m826.117 416.09c.782 2.531-.637 5.218-3.169 5.999-2.532.782-5.218-.637-5.999-3.169-.782-2.532.637-5.218 3.169-5.999 2.531-.782 5.217.637 5.999 3.169z" fill="#fff"/><path d="m789.083 427.315c3.039.694 18.674.996 27.753-29.085-1.706-3.748-8.044-11.412-19.744-12.09-18.53 10.151-10.768 40.628-8.009 41.175z" fill="#e1e1e1"/><path d="m834.393 402.24c-5.642 1.016-9.944-4.429-18.102-3.846-2.451-4.081-6.615-10.007-19.606-12.577 6.589-5.663 31.162-4.78 37.708 16.423z" fill="#e1e1e1"/><path d="m788.355 426.494c-28.035-13.629-9.707-43.919 9.374-41.364-4.309 19.721-8.213 35.767-9.374 41.364z" fill="#e1e1e1"/><path d="m794.742 436.449c.294.949-.239 1.956-1.188 2.249-.949.294-1.957-.238-2.25-1.188-.293-.949.239-1.957 1.189-2.25.949-.293 1.956.239 2.249 1.189z" fill="#539882"/><path d="m777.641 409.507c-.767-3.41-.497-5.315 2.25-13.038-.525 3.645.274 6.79 1.378 9.129.586 1.242.323 4.051-.891 4.524-.792.309-2.54.26-2.737-.615z" fill="#c4c4c4"/><path clip-rule="evenodd" d="m815.403 397.627c-.084-.49.251-.957.746-1.042 1.501-.26 3.139 0 4.752.445 1.506.415 3.081 1.018 4.6 1.6.114.044.227.087.341.131 1.646.63 3.216 1.216 4.664 1.56 1.456.345 2.669.414 3.633.117.48-.149.989.116 1.135.59.147.475-.124.98-.605 1.129-1.43.441-3.026.289-4.6-.085-1.583-.376-3.264-1.007-4.894-1.631-.107-.041-.214-.082-.321-.122-1.541-.591-3.036-1.163-4.453-1.554-1.522-.419-2.849-.597-3.95-.406-.496.086-.965-.242-1.048-.732z" fill="#c4c4c4" fill-rule="evenodd"/><path d="m826.247 380.959c-2.4-1.606-6.756-3.592-12.161-3.832 3.184.831 5.721 2.741 8.406 6.094.676.845 1.942.959 2.965.36 1.215-.712 1.889-1.886.79-2.622z" fill="#f0f0f0"/><g clip-rule="evenodd" fill-rule="evenodd"><path d="m783.67 380.47c.185.173.212.468.06.658l-.011.014c-1.314 1.648-4.595 5.76-4.184 11.299.019.258-.159.473-.398.481s-.449-.194-.468-.452c-.438-5.916 3.034-10.268 4.354-11.923.012-.015.024-.03.036-.044.152-.191.425-.206.611-.033z" fill="#a8a8a8"/><path d="m800.264 372.934c-.002-.252.183-.446.414-.433 2.079.117 4.643 1.094 6.733 3.474.165.187.168.477.006.646s-.426.154-.591-.034c-1.913-2.178-4.255-3.066-6.14-3.173-.231-.013-.42-.228-.422-.48z" fill="#e1e1e1"/><path d="m820.772 400.412c.336.364.313.932-.051 1.268l-7.462 6.885c-.364.335-.932.313-1.268-.052-.336-.364-.313-.931.051-1.267l7.463-6.885c.364-.336.931-.313 1.267.051z" fill="#969696"/><path d="m836.993 399.776c-.081.489-.543.82-1.031.739l-7.599-1.259c-.489-.081-.819-.543-.738-1.032.081-.488.542-.819 1.031-.738l7.599 1.259c.489.081.819.543.738 1.031z" fill="#969696"/><path d="m784.475 427.564c-.122-.653.364-1.306 1.087-1.458l25.659-5.408.443 2.364-25.658 5.408c-.723.152-1.408-.254-1.531-.906z" fill="#91d7b9"/></g><path d="m803.838 421.177c-11.059 10.474-14.772 4.326-17.523 4.234 5.932-3.714 14.153-4.37 17.523-4.234z" fill="#e1e1e1"/><path clip-rule="evenodd" d="m811.832 403.224c.442.248.61.814.374 1.262-3.289 6.265-5.79 10.272-8.419 13.217-2.647 2.965-5.39 4.814-9.088 6.818-.44.239-.991.064-1.231-.39s-.078-1.015.362-1.254c3.606-1.955 6.152-3.688 8.609-6.439 2.475-2.772 4.892-6.616 8.165-12.851.236-.448.786-.611 1.228-.363z" fill="#c4c4c4" fill-rule="evenodd"/><path d="m813.31 394.935c-1.667-2.408-7.324-7.871-16.344-9.568-.98-.185-3.642-.581-6.593.33 6.451-.043 15.054 3.147 22.937 9.238z" fill="#c4c4c4"/><path clip-rule="evenodd" d="m790.259 430.065c.079.206-.032.439-.247.52-1.155.433-1.59 1.023-1.732 1.525-.149.527 0 1.052.188 1.368.113.191.043.437-.157.551-.199.113-.453.051-.566-.139-.266-.45-.487-1.192-.266-1.975.228-.808.901-1.572 2.247-2.078.216-.08.454.021.533.228z" fill="#ffb685" fill-rule="evenodd"/><path d="m823.318 464.817c0 2.319-1.88 4.198-4.198 4.198-2.319 0-4.198-1.879-4.198-4.198 0-2.318 1.879-4.198 4.198-4.198 2.318 0 4.198 1.88 4.198 4.198z" fill="#539882"/><path d="m806.527 468.206c2.024.971 5.398 1.359 7.197-.388-.675 2.717-5.622 3.494-7.197.388z" fill="#468677"/><path clip-rule="evenodd" d="m813.666 467.902c.083.105.076.266-.016.361-1.261 1.304-2.435 1.919-3.603 1.953-1.164.034-2.28-.511-3.424-1.421-.101-.081-.126-.24-.055-.356s.211-.144.313-.063c1.106.88 2.126 1.358 3.155 1.328 1.025-.029 2.1-.566 3.312-1.819.092-.095.234-.087.318.017z" fill="#35675b" fill-rule="evenodd"/><path clip-rule="evenodd" d="m797.371 446.056c-1.148-.865-2.967-1.474-5.775-1.223-.939.083-1.769-.596-1.855-1.517-.085-.921.607-1.736 1.546-1.82 3.45-.308 6.182.41 8.163 1.902 1.974 1.487 3.01 3.601 3.349 5.727.336 2.111.004 4.314-.844 6.144-.838 1.809-2.284 3.452-4.318 4.073-.901.274-1.857-.22-2.137-1.103-.279-.884.224-1.822 1.124-2.097.81-.247 1.64-.999 2.224-2.26.575-1.241.811-2.783.578-4.239-.229-1.441-.9-2.717-2.055-3.587z" fill="#d1c870" fill-rule="evenodd"/><path clip-rule="evenodd" d="m775.014 427.085c-.297-.065-.589-.098-.873-.098v-1.153c.357 0 .719.041 1.081.121zm3.139 1.912c-.469-.493-.963-.896-1.464-1.208l.523-1.002c.581.362 1.144.824 1.673 1.379zm2.12 3.339c-.273-.654-.584-1.25-.922-1.787l.87-.653c.373.593.714 1.248 1.012 1.961zm1.042 3.965c-.095-.715-.228-1.391-.393-2.027l1.015-.315c.179.686.321 1.412.423 2.177zm.111 4.167c.05-.725.065-1.422.049-2.092l1.055-.031c.018.71.001 1.447-.052 2.21zm-.414 3.12c.068-.35.127-.695.179-1.034l1.041.191c-.054.355-.117.716-.187 1.081z" fill="#f4e97d" fill-rule="evenodd"/><path clip-rule="evenodd" d="m807.619 490.411c.153.182.294.349.419.498h.001c.54.642.802.867 1.119 1.14.083.071.17.147.267.233.622.556-.482 1.715-1.103 1.16-.424-.38-.842-.775-1.15-1.094l-.148.1.663.788.365.433c.682.811-.483 1.714-1.104 1.159-.503-.45-.988-1.036-1.293-1.45l-.189.128c.385.549.604.779.863 1.051.075.08.155.164.243.26.561.615-.272 1.711-1.204.878-.549-.49-.906-.991-1.147-1.329-.087-.122-.158-.222-.218-.293l.016-.009c-.788-1.053-2.03-2.807-1.999-3.171.035-.398 2.662-1.778 3.971-2.417 0-.001 0-.001 0-.001 1.722.399 3.533.929 3.108 1.773-.17.338-.729.27-1.48.163z" fill="#ffc7a1" fill-rule="evenodd"/><path clip-rule="evenodd" d="m796.196 446.089c2.212.416 3.644 2.527 3.197 4.714-2.308 11.295-1.796 17.994-.163 22.888 1.441 4.322 3.796 7.502 6.851 11.625.51.689 1.04 1.404 1.588 2.155l-6.653 4.761c-.478-.655-.965-1.31-1.457-1.97-3.043-4.086-6.226-8.36-8.097-13.971-2.224-6.667-2.556-14.889-.082-26.994.447-2.188 2.603-3.624 4.816-3.208z" fill="#35675b" fill-rule="evenodd"/><circle cx="822.196" cy="416.514" fill="#000" r="1.72298"/></g></svg>