<svg fill="none" height="656" viewBox="0 0 1194 656" width="1194" xmlns="http://www.w3.org/2000/svg" xmlns:xlink="http://www.w3.org/1999/xlink"><filter id="a" color-interpolation-filters="sRGB" filterUnits="userSpaceOnUse" height="500.33" width="1370.07" x="311.934" y="0"><feFlood flood-opacity="0" result="BackgroundImageFix"/><feColorMatrix in="SourceAlpha" type="matrix" values="0 0 0 0 0 0 0 0 0 0 0 0 0 0 0 0 0 0 127 0"/><feOffset dx="8" dy="-4"/><feGaussianBlur stdDeviation="4"/><feColorMatrix type="matrix" values="0 0 0 0 0 0 0 0 0 0 0 0 0 0 0 0 0 0 0.1 0"/><feBlend in2="BackgroundImageFix" mode="normal" result="effect1_dropShadow"/><feBlend in="SourceGraphic" in2="effect1_dropShadow" mode="normal" result="shape"/></filter><filter id="b" color-interpolation-filters="sRGB" filterUnits="userSpaceOnUse" height="435.622" width="750.483" x="623.186" y="52.3984"><feFlood flood-opacity="0" result="BackgroundImageFix"/><feColorMatrix in="SourceAlpha" type="matrix" values="0 0 0 0 0 0 0 0 0 0 0 0 0 0 0 0 0 0 127 0"/><feOffset dx="8" dy="-8"/><feGaussianBlur stdDeviation="4"/><feColorMatrix type="matrix" values="0 0 0 0 0 0 0 0 0 0 0 0 0 0 0 0 0 0 0.1 0"/><feBlend in2="BackgroundImageFix" mode="normal" result="effect1_dropShadow"/><feBlend in="SourceGraphic" in2="effect1_dropShadow" mode="normal" result="shape"/></filter><filter id="c" color-interpolation-filters="sRGB" filterUnits="userSpaceOnUse" height="283.714" width="1414.18" x="209" y="218.287"><feFlood flood-opacity="0" result="BackgroundImageFix"/><feColorMatrix in="SourceAlpha" type="matrix" values="0 0 0 0 0 0 0 0 0 0 0 0 0 0 0 0 0 0 127 0"/><feOffset dx="8" dy="-3"/><feGaussianBlur stdDeviation="4"/><feColorMatrix type="matrix" values="0 0 0 0 0 0 0 0 0 0 0 0 0 0 0 0 0 0 0.1 0"/><feBlend in2="BackgroundImageFix" mode="normal" result="effect1_dropShadow"/><feBlend in="SourceGraphic" in2="effect1_dropShadow" mode="normal" result="shape"/></filter><filter id="d" color-interpolation-filters="sRGB" filterUnits="userSpaceOnUse" height="46.8074" width="86.4137" x="978.297" y="12"><feFlood flood-opacity="0" result="BackgroundImageFix"/><feColorMatrix in="SourceAlpha" type="matrix" values="0 0 0 0 0 0 0 0 0 0 0 0 0 0 0 0 0 0 127 0"/><feOffset dx="28.8046" dy="14.4023"/><feGaussianBlur stdDeviation="7.20114"/><feColorMatrix type="matrix" values="0 0 0 0 0 0 0 0 0 0 0 0 0 0 0 0 0 0 0.1 0"/><feBlend in2="BackgroundImageFix" mode="normal" result="effect1_dropShadow"/><feBlend in="SourceGraphic" in2="effect1_dropShadow" mode="normal" result="shape"/></filter><filter id="e" color-interpolation-filters="sRGB" filterUnits="userSpaceOnUse" height="41.1319" width="58.0973" x="999.9" y="30.002"><feFlood flood-opacity="0" result="BackgroundImageFix"/><feColorMatrix in="SourceAlpha" type="matrix" values="0 0 0 0 0 0 0 0 0 0 0 0 0 0 0 0 0 0 127 0"/><feOffset dx="19.5285" dy="9.76426"/><feGaussianBlur stdDeviation="4.88213"/><feColorMatrix type="matrix" values="0 0 0 0 0 0 0 0 0 0 0 0 0 0 0 0 0 0 0.1 0"/><feBlend in2="BackgroundImageFix" mode="normal" result="effect1_dropShadow"/><feBlend in="SourceGraphic" in2="effect1_dropShadow" mode="normal" result="shape"/></filter><filter id="f" color-interpolation-filters="sRGB" filterUnits="userSpaceOnUse" height="26.9127" width="52.9711" x="971.096" y="48.0059"><feFlood flood-opacity="0" result="BackgroundImageFix"/><feColorMatrix in="SourceAlpha" type="matrix" values="0 0 0 0 0 0 0 0 0 0 0 0 0 0 0 0 0 0 127 0"/><feOffset dx="16.111" dy="8.05551"/><feGaussianBlur stdDeviation="4.02776"/><feColorMatrix type="matrix" values="0 0 0 0 0 0 0 0 0 0 0 0 0 0 0 0 0 0 0.1 0"/><feBlend in2="BackgroundImageFix" mode="normal" result="effect1_dropShadow"/><feBlend in="SourceGraphic" in2="effect1_dropShadow" mode="normal" result="shape"/></filter><filter id="g" color-interpolation-filters="sRGB" filterUnits="userSpaceOnUse" height="183.866" width="486.657" x="788.984" y="191.104"><feFlood flood-opacity="0" result="BackgroundImageFix"/><feColorMatrix in="SourceAlpha" type="matrix" values="0 0 0 0 0 0 0 0 0 0 0 0 0 0 0 0 0 0 127 0"/><feOffset dx="3.37742" dy="1.68871"/><feGaussianBlur stdDeviation="1.68871"/><feColorMatrix type="matrix" values="0 0 0 0 0 0 0 0 0 0 0 0 0 0 0 0 0 0 0.2 0"/><feBlend in2="BackgroundImageFix" mode="normal" result="effect1_dropShadow"/><feBlend in="SourceGraphic" in2="effect1_dropShadow" mode="normal" result="shape"/></filter><filter id="h" color-interpolation-filters="sRGB" filterUnits="userSpaceOnUse" height="183.866" width="486.657" x="788.139" y="92.3152"><feFlood flood-opacity="0" result="BackgroundImageFix"/><feColorMatrix in="SourceAlpha" type="matrix" values="0 0 0 0 0 0 0 0 0 0 0 0 0 0 0 0 0 0 127 0"/><feOffset dx="3.37742" dy="1.68871"/><feGaussianBlur stdDeviation="1.68871"/><feColorMatrix type="matrix" values="0 0 0 0 0 0 0 0 0 0 0 0 0 0 0 0 0 0 0.2 0"/><feBlend in2="BackgroundImageFix" mode="normal" result="effect1_dropShadow"/><feBlend in="SourceGraphic" in2="effect1_dropShadow" mode="normal" result="shape"/></filter><filter id="i" color-interpolation-filters="sRGB" filterUnits="userSpaceOnUse" height="198.509" width="129.995" x="1049.62" y="228.225"><feFlood flood-opacity="0" result="BackgroundImageFix"/><feColorMatrix in="SourceAlpha" type="matrix" values="0 0 0 0 0 0 0 0 0 0 0 0 0 0 0 0 0 0 127 0"/><feOffset dx="3.37742" dy="3.37742"/><feGaussianBlur stdDeviation="1.68871"/><feColorMatrix type="matrix" values="0 0 0 0 0 0 0 0 0 0 0 0 0 0 0 0 0 0 0.2 0"/><feBlend in2="BackgroundImageFix" mode="normal" result="effect1_dropShadow"/><feBlend in="SourceGraphic" in2="effect1_dropShadow" mode="normal" result="shape"/></filter><filter id="j" color-interpolation-filters="sRGB" filterUnits="userSpaceOnUse" height="181.376" width="100.724" x="40" y="381.562"><feFlood flood-opacity="0" result="BackgroundImageFix"/><feColorMatrix in="SourceAlpha" type="matrix" values="0 0 0 0 0 0 0 0 0 0 0 0 0 0 0 0 0 0 127 0"/><feOffset dx="4" dy="-1"/><feGaussianBlur stdDeviation="2"/><feColorMatrix type="matrix" values="0 0 0 0 0 0 0 0 0 0 0 0 0 0 0 0 0 0 0.2 0"/><feBlend in2="BackgroundImageFix" mode="normal" result="effect1_dropShadow"/><feBlend in="SourceGraphic" in2="effect1_dropShadow" mode="normal" result="shape"/></filter><filter id="k" color-interpolation-filters="sRGB" filterUnits="userSpaceOnUse" height="25.4718" width="27.8485" x="109.14" y="424.992"><feFlood flood-opacity="0" result="BackgroundImageFix"/><feBlend in="SourceGraphic" in2="BackgroundImageFix" mode="normal" result="shape"/><feGaussianBlur result="effect1_foregroundBlur" stdDeviation="5.35261"/></filter><mask id="l" height="8" maskUnits="userSpaceOnUse" width="8" x="116" y="445"><circle cx="120.211" cy="448.797" fill="#ff8281" r="3.51898" transform="matrix(.95549796 -.29499771 .29499771 .95549796 -127.044452 55.434352)"/></mask><path d="m0 497h1194v159h-1194z" fill="#89cdd3"/><path d="m689.333 564.471h5.108v-5.747z" fill="#acdeb6"/><path d="m668.902 549.785-2.554 3.831-1.916-3.831z" fill="#acdeb6"/><path d="m989.635 540.385-5.106-.145-.162 5.744z" fill="#acdeb6"/><path d="m1009.64 555.642 2.66-3.758 1.81 3.884z" fill="#acdeb6"/><path d="m406.053 544.217-5.106-.145-.162 5.744z" fill="#acdeb6"/><path d="m426.062 559.474 2.661-3.758 1.806 3.884z" fill="#acdeb6"/><path d="m39.1598 578.023 5.1058.149.1676-5.744z" fill="#acdeb6"/><path d="m19.1649 562.748-2.6646 3.755-1.8029-3.885z" fill="#acdeb6"/><path d="m717.987 541.814-5.106-.144-.163 5.744z" fill="#acdeb6"/><path d="m737.995 557.071 2.662-3.757 1.806 3.884z" fill="#acdeb6"/><path d="m795.104 526.989-3.528-3.694-4.156 3.969z" fill="#acdeb6"/><path d="m798.595 551.908 4.534-.799-1.448 4.031z" fill="#acdeb6"/><path d="m647.204 596.978-5.106-.144-.163 5.744z" fill="#acdeb6"/><path d="m667.212 612.235 2.661-3.757 1.807 3.884z" fill="#acdeb6"/><path d="m914.602 568.292-2.727-4.319-4.859 3.068z" fill="#acdeb6"/><path d="m913.095 593.408 4.603.114-2.216 3.665z" fill="#acdeb6"/><path d="m331.02 572.124-2.727-4.319-4.859 3.068z" fill="#acdeb6"/><path d="m329.513 597.24 4.603.114-2.216 3.665z" fill="#acdeb6"/><path d="m114.22 550.173 2.723 4.321 4.862-3.064z" fill="#acdeb6"/><path d="m115.749 525.058-4.602-.118 2.219-3.664z" fill="#acdeb6"/><path d="m850.448 572.971 5.072.605.68-5.706z" fill="#acdeb6"/><path d="m831.898 555.97-2.989 3.501-1.449-4.03z" fill="#acdeb6"/><path d="m266.865 576.803 5.073.605.68-5.706z" fill="#acdeb6"/><path d="m248.316 559.802-2.989 3.502-1.449-4.031z" fill="#acdeb6"/><path d="m178.376 545.555-5.071-.61-.686 5.706z" fill="#acdeb6"/><path d="m196.91 562.573 2.993-3.499 1.445 4.032z" fill="#acdeb6"/><path d="m1073.92 607.926 5.07.605.68-5.706z" fill="#acdeb6"/><path d="m1055.37 590.925-2.99 3.502-1.45-4.031z" fill="#acdeb6"/><path d="m490.336 611.755 5.072.604.681-5.706z" fill="#acdeb6"/><path d="m471.787 594.753-2.99 3.502-1.448-4.031z" fill="#acdeb6"/><path d="m1181.36 557.542 1.4 4.913 5.52-1.574z" fill="#acdeb6"/><path d="m1189.89 533.87-4.39-1.407 3.16-2.892z" fill="#acdeb6"/><path d="m597.777 561.365 1.399 4.912 5.526-1.574z" fill="#acdeb6"/><path d="m606.304 537.692-4.384-1.407 3.16-2.892z" fill="#acdeb6"/><path d="m497.484 549.905-1.259-4.95-5.569 1.417z" fill="#acdeb6"/><path d="m488.291 573.328 4.343 1.53-3.241 2.801z" fill="#acdeb6"/><path d="m1125.67 522.038-1.26-4.95-5.57 1.417z" fill="#acdeb6"/><path d="m1116.48 545.46 4.34 1.531-3.24 2.801z" fill="#acdeb6"/><path d="m542.086 525.868-1.26-4.95-5.569 1.417z" fill="#acdeb6"/><path d="m532.893 549.29 4.342 1.531-3.24 2.801z" fill="#acdeb6"/><path d="m561.24 573.116-1.26-4.95-5.568 1.417z" fill="#acdeb6"/><path d="m552.047 596.539 4.343 1.53-3.241 2.801z" fill="#acdeb6"/><path d="m729.559 574.691v5.108l-4.47-1.916z" fill="#acdeb6"/><path d="m949.717 529.028.144-5.106 4.414 2.041z" fill="#acdeb6"/><path d="m366.131 532.864.144-5.106 4.414 2.041z" fill="#acdeb6"/><path d="m79.0708 589.404-.1489 5.106-4.4117-2.045z" fill="#acdeb6"/><path d="m678.065 530.463.144-5.106 4.414 2.041z" fill="#acdeb6"/><path d="m760.703 598.184.145-5.106 4.413 2.041z" fill="#acdeb6"/><path d="m901.761 528.829 4.319-2.727.767 4.801z" fill="#acdeb6"/><path d="m318.177 532.661 4.319-2.727.767 4.801z" fill="#acdeb6"/><path d="m127.022 589.651-4.321 2.724-.762-4.802z" fill="#acdeb6"/><path d="m142.144 566.22-4.322 2.723-.762-4.802z" fill="#acdeb6"/><path d="m1014.01 579.212 4.31-2.728.77 4.802z" fill="#acdeb6"/><path d="m430.421 583.042 4.319-2.728.767 4.802z" fill="#acdeb6"/><path d="m14.8232 539.165-4.3212 2.724-.76265-4.803z" fill="#acdeb6"/><path d="m889.181 587.881-.605 5.072-4.211-2.431z" fill="#acdeb6"/><path d="m305.599 591.713-.605 5.072-4.211-2.431z" fill="#acdeb6"/><path d="m139.656 530.611.61-5.072 4.209 2.435z" fill="#acdeb6"/><path d="m271.182 510.946.609-5.071 4.209 2.435z" fill="#acdeb6"/><path d="m1182.55 599.021-4.91 1.399.62-4.823z" fill="#acdeb6"/><path d="m598.969 602.851-4.912 1.399.618-4.823z" fill="#acdeb6"/><path d="m1081.05 504.574 4.95-1.26-.76 4.804z" fill="#acdeb6"/><path d="m497.464 508.406 4.95-1.26-.754 4.804z" fill="#acdeb6"/><path d="m631.563 512.254 4.951-1.26-.754 4.804z" fill="#acdeb6"/><path d="m721.258 602.145 6.385-5.108-6.385-3.831z" fill="#acdeb6"/><path d="m958.789 501.823-6.527 4.925 6.274 4.01z" fill="#acdeb6"/><path d="m375.205 505.653-6.527 4.926 6.274 4.009z" fill="#acdeb6"/><path d="m69.9713 616.603 6.5312-4.92-6.2706-4.015z" fill="#acdeb6"/><path d="m440.959 507.653-6.527 4.926 6.274 4.009z" fill="#acdeb6"/><path d="m4.22129 614.55 6.53121-4.919-6.27057-4.016z" fill="#acdeb6"/><path d="m983.677 597.042-6.526 4.925 6.274 4.01z" fill="#acdeb6"/><path d="m400.095 600.872-6.527 4.925 6.275 4.01z" fill="#acdeb6"/><path d="m45.1647 521.365 6.5311-4.92-6.2705-4.016z" fill="#acdeb6"/><path d="m687.14 503.253-6.527 4.925 6.275 4.01z" fill="#acdeb6"/><path d="m929.405 521.188-7.728-2.672.17 7.445z" fill="#acdeb6"/><path d="m345.823 525.016-7.728-2.671.17 7.444z" fill="#acdeb6"/><path d="m99.3729 597.264 7.7261 2.678-.164-7.444z" fill="#acdeb6"/><path d="m221.844 515.02 7.725 2.678-.163-7.444z" fill="#acdeb6"/><path d="m223.121 605.305 7.726 2.679-.164-7.445z" fill="#acdeb6"/><path d="m402.651 522.033-7.728-2.671.17 7.444z" fill="#acdeb6"/><path d="m42.5409 600.202 7.7257 2.678-.1634-7.444z" fill="#acdeb6"/><path d="m166.291 608.237 7.726 2.678-.164-7.444z" fill="#acdeb6"/><path d="m1006.67 606.311-7.733-2.672.17 7.445z" fill="#acdeb6"/><path d="m423.081 610.141-7.728-2.671.17 7.444z" fill="#acdeb6"/><path d="m22.1893 512.075 7.7257 2.678-.1634-7.444z" fill="#acdeb6"/><path d="m877.687 614.16 6.945-4.316-5.886-4.56z" fill="#acdeb6"/><path d="m294.105 617.988 6.945-4.316-5.886-4.56z" fill="#acdeb6"/><path d="m151.173 504.342-6.948 4.31 5.882 4.565z" fill="#acdeb6"/><path d="m1153.87 598.558 6.66 4.742 1.94-7.19z" fill="#acdeb6"/><path d="m570.292 602.39 6.662 4.742 1.935-7.19z" fill="#acdeb6"/><path d="m526.118 509.676-6.525-4.928-2.138 7.132z" fill="#acdeb6"/><g fill="#e7e88c"><path d="m672.732 590.652 3.831-1.915-3.831-5.108z"/><path d="m696.356 537.657 3.193-3.831-3.193-2.554z"/><path d="m632.507 588.737 5.746-5.108-4.469-4.47z"/><path d="m652.3 566.39 2.554 3.192 1.277-5.108z"/><path d="m423.386 518.512-3.883 1.806 3.685 5.215z"/><path d="m398.273 570.818-3.299 3.739 3.119 2.643z"/><path d="m463.541 521.564-5.889 4.943 4.342 4.594z"/><path d="m443.124 543.343-2.463-3.264-1.421 5.07z"/><path d="m21.8021 603.702 3.8852-1.803-3.6804-5.217z"/><path d="m46.9615 551.419 3.3029-3.736-3.1167-2.646z"/><path d="m-18.3501 600.615 5.893-4.938-4.3373-4.598z"/><path d="m2.08643 578.854 2.4598 3.266 1.42538-5.069z"/><path d="m735.322 516.115-3.884 1.807 3.685 5.214z"/><path d="m710.209 568.421-3.3 3.74 3.119 2.643z"/><path d="m775.477 519.167-5.889 4.944 4.341 4.594z"/><path d="m755.059 540.946-2.462-3.263-1.421 5.07z"/><path d="m804.279 505.895-3.884 1.806 3.685 5.214z"/><path d="m779.166 558.201-3.3 3.739 3.119 2.643z"/><path d="m844.434 508.947-5.889 4.943 4.341 4.594z"/><path d="m824.016 530.725-2.462-3.263-1.421 5.07z"/><path d="m945.598 568.356-3.665-2.217-2.273 5.967z"/><path d="m888.176 576.677-4.944-.653-.455 4.063z"/><path d="m965.457 603.389-7.388-2.131-1.392 6.166z"/><path d="m935.993 598.586 1.336-3.864-5.001 1.648z"/><path d="m362.018 572.186-3.665-2.217-2.273 5.967z"/><path d="m304.596 580.508-4.944-.654-.455 4.063z"/><path d="m381.876 607.22-7.387-2.132-1.392 6.166z"/><path d="m352.413 602.416 1.335-3.864-5 1.648z"/><path d="m83.2191 550.087 3.6631 2.219 2.2786-5.964z"/><path d="m140.649 541.816 4.943.658.458-4.062z"/><path d="m63.3917 515.035 7.3853 2.138 1.3981-6.164z"/><path d="m92.8511 519.865-1.3391 3.863 5.0022-1.644z"/><path d="m946.877 505.78-3.665-2.217-2.273 5.967z"/><path d="m889.455 514.101-4.944-.653-.455 4.063z"/><path d="m966.736 540.813-7.387-2.131-1.393 6.165z"/><path d="m937.272 536.01 1.336-3.864-5.001 1.648z"/><path d="m363.293 509.61-3.665-2.217-2.273 5.967z"/><path d="m305.871 517.931-4.944-.653-.455 4.063z"/><path d="m383.152 544.643-7.387-2.131-1.393 6.166z"/><path d="m353.688 539.84 1.336-3.864-5.001 1.648z"/><path d="m81.889 612.661 3.6631 2.22 2.2786-5.965z"/><path d="m139.319 604.39 4.943.658.458-4.062z"/><path d="m62.0617 577.609 7.3852 2.138 1.3981-6.164z"/><path d="m91.521 582.439-1.3391 3.863 5.0022-1.643z"/><path d="m1045.21 573.463-3.67-2.216-2.27 5.966z"/><path d="m987.783 581.785-4.944-.654-.454 4.063z"/><path d="m1065.06 608.497-7.38-2.131-1.4 6.165z"/><path d="m1035.6 603.694 1.34-3.864-5 1.647z"/><path d="m461.621 577.293-3.665-2.216-2.273 5.966z"/><path d="m404.199 585.615-4.944-.654-.454 4.063z"/><path d="m481.48 612.327-7.387-2.131-1.393 6.165z"/><path d="m452.016 607.524 1.336-3.864-5.001 1.647z"/><path d="m-16.3806 544.887 3.6632 2.22 2.2786-5.964z"/><path d="m41.0491 536.617 4.9432.658.4585-4.063z"/><path d="m-36.2079 509.836 7.3853 2.138 1.398-6.164z"/><path d="m-6.74854 514.666-1.33904 3.862 5.00217-1.643z"/><path d="m1225.26 500.674-3.66-2.216-2.28 5.966z"/><path d="m1167.84 508.996-4.95-.654-.45 4.063z"/><path d="m1245.12 535.708-7.39-2.131-1.39 6.165z"/><path d="m1215.66 530.905 1.33-3.865-5 1.648z"/><path d="m641.676 504.502-3.665-2.216-2.273 5.966z"/><path d="m584.254 512.824-4.944-.654-.455 4.063z"/><path d="m661.535 539.536-7.388-2.131-1.392 6.165z"/><path d="m632.071 534.733 1.336-3.864-5.001 1.647z"/><path d="m759.159 578.571-3.666-2.217-2.273 5.967z"/><path d="m701.736 586.892-4.944-.653-.454 4.063z"/><path d="m779.017 613.604-7.387-2.131-1.393 6.165z"/><path d="m749.553 608.801 1.336-3.864-5.001 1.648z"/><path d="m247.282 600.836 4.031-1.448-3.199-5.526z"/><path d="m277.015 551.012 3.624-3.426-2.868-2.914z"/><path d="m207.567 594.171 6.311-4.391-3.909-4.968z"/><path d="m229.867 574.325 2.158 3.472 1.873-4.921z"/><path d="m197.983 521.541-4.032 1.445 3.194 5.528z"/><path d="m168.205 571.339-3.627 3.423 2.865 2.917z"/><path d="m237.692 528.241-6.315 4.386 3.905 4.971z"/><path d="m215.374 548.068-2.155-3.474-1.877 4.919z"/><path d="m1151.64 548.742 2.89 3.16 3.86-5.084z"/><path d="m1209.07 556.947 4.56 2.021 1.59-3.77z"/><path d="m1142.46 509.531 6.49 4.127 3.07-5.523z"/><path d="m1169.37 522.446-2.37 3.331 5.27-.171z"/><path d="m568.053 552.572 2.892 3.16 3.863-5.084z"/><path d="m625.492 560.777 4.559 2.021 1.582-3.77z"/><path d="m558.877 513.361 6.487 4.127 3.074-5.522z"/><path d="m585.792 526.276-2.371 3.331 5.262-.171z"/><path d="m1110.53 555.701-2.8-3.24-4.01 4.972z"/><path d="m1053.35 545.876-4.5-2.149-1.69 3.724z"/><path d="m1118.59 595.156-6.36-4.309-3.23 5.434z"/><path d="m1092.06 581.486 2.46-3.263-5.26.022z"/><path d="m526.947 559.533-2.801-3.24-4.005 4.972z"/><path d="m469.763 549.708-4.5-2.149-1.688 3.724z"/><path d="m535.011 598.989-6.367-4.31-3.23 5.434z"/><path d="m508.473 585.318 2.464-3.263-5.265.022z"/><path d="m549.24 610.087 3.467 2.515 2.763-5.756z"/><path d="m607.156 606.585 4.872 1.064.792-4.011z"/><path d="m532.373 573.519 7.184 2.74 1.902-6.027z"/><path d="m561.333 580.764-1.653 3.739 5.121-1.225z"/></g><path d="m398.119 650.989 3.527-3.694 4.156 3.969z" fill="#acdeb6"/><path d="m394.628 675.908-4.534-.799 1.447 4.031z" fill="#acdeb6"/><path d="m1079 674.173-2.72 4.321-4.86-3.064z" fill="#acdeb6"/><path d="m1077.47 649.058 4.61-.118-2.22-3.664z" fill="#acdeb6"/><path d="m11.864 681.542-1.3992 4.913-5.52663-1.574z" fill="#acdeb6"/><path d="m3.33667 657.87 4.38401-1.407-3.15979-2.892z" fill="#acdeb6"/><path d="m67.5528 646.038 1.2597-4.95 5.569 1.417z" fill="#acdeb6"/><path d="m76.7459 669.46-4.3425 1.531 3.2403 2.801z" fill="#acdeb6"/><path d="m651.137 649.868 1.259-4.95 5.569 1.417z" fill="#acdeb6"/><path d="m660.33 673.29-4.343 1.531 3.241 2.801z" fill="#acdeb6"/><path d="m243.506 653.028-.145-5.106-4.413 2.041z" fill="#acdeb6"/><path d="m827.092 656.864-.145-5.106-4.413 2.041z" fill="#acdeb6"/><path d="m515.158 654.463-.144-5.106-4.414 2.041z" fill="#acdeb6"/><path d="m291.461 652.829-4.318-2.727-.767 4.801z" fill="#acdeb6"/><path d="m875.045 656.661-4.318-2.727-.767 4.801z" fill="#acdeb6"/><path d="m1053.57 654.611-.61-5.072-4.21 2.435z" fill="#acdeb6"/><path d="m922.041 634.946-.609-5.071-4.209 2.435z" fill="#acdeb6"/><path d="m112.175 628.574-4.95-1.26.754 4.804z" fill="#acdeb6"/><path d="m695.759 632.406-4.95-1.26.754 4.804z" fill="#acdeb6"/><path d="m561.659 636.254-4.95-1.26.754 4.804z" fill="#acdeb6"/><path d="m234.434 625.823 6.527 4.925-6.274 4.01z" fill="#acdeb6"/><path d="m818.018 629.653 6.527 4.926-6.274 4.009z" fill="#acdeb6"/><path d="m752.264 631.653 6.527 4.926-6.274 4.009z" fill="#acdeb6"/><path d="m1148.06 645.365-6.53-4.92 6.27-4.016z" fill="#acdeb6"/><path d="m506.082 627.253 6.527 4.925-6.274 4.01z" fill="#acdeb6"/><path d="m263.817 645.188 7.728-2.672-.17 7.445z" fill="#acdeb6"/><path d="m847.399 649.016 7.728-2.671-.17 7.444z" fill="#acdeb6"/><path d="m971.379 639.02-7.726 2.678.164-7.444z" fill="#acdeb6"/><path d="m790.571 646.033 7.728-2.671-.17 7.444z" fill="#acdeb6"/><path d="m1171.03 636.075-7.72 2.678.16-7.444z" fill="#acdeb6"/><path d="m1042.05 628.342 6.95 4.31-5.88 4.565z" fill="#acdeb6"/><path d="m667.105 633.676 6.525-4.928 2.138 7.132z" fill="#acdeb6"/><path d="m520.491 714.652-3.831-1.915 3.831-5.108z" fill="#e7e88c"/><path d="m496.866 661.657-3.192-3.831 3.192-2.554z" fill="#e7e88c"/><path d="m560.716 712.737-5.747-5.108 4.47-4.47z" fill="#e7e88c"/><path d="m540.922 690.39-2.554 3.192-1.277-5.108z" fill="#e7e88c"/><path d="m769.837 642.512 3.883 1.806-3.685 5.215z" fill="#e7e88c"/><path d="m794.949 694.818 3.3 3.739-3.119 2.643z" fill="#e7e88c"/><path d="m729.682 645.564 5.888 4.943-4.341 4.594z" fill="#e7e88c"/><path d="m750.099 667.343 2.462-3.264 1.421 5.07z" fill="#e7e88c"/><path d="m457.901 640.115 3.884 1.807-3.685 5.214z" fill="#e7e88c"/><path d="m483.014 692.421 3.299 3.74-3.119 2.643z" fill="#e7e88c"/><path d="m417.746 643.167 5.889 4.944-4.342 4.594z" fill="#e7e88c"/><path d="m438.163 664.946 2.463-3.263 1.421 5.07z" fill="#e7e88c"/><path d="m388.944 629.895 3.884 1.806-3.685 5.214z" fill="#e7e88c"/><path d="m414.057 682.201 3.299 3.739-3.119 2.643z" fill="#e7e88c"/><path d="m348.789 632.947 5.889 4.943-4.342 4.594z" fill="#e7e88c"/><path d="m369.206 654.725 2.463-3.263 1.421 5.07z" fill="#e7e88c"/><path d="m1110 674.087-3.66 2.219-2.28-5.964z" fill="#e7e88c"/><path d="m1052.57 665.816-4.94.658-.46-4.062z" fill="#e7e88c"/><path d="m1129.83 639.035-7.38 2.138-1.4-6.164z" fill="#e7e88c"/><path d="m1100.37 643.865 1.34 3.863-5-1.644z" fill="#e7e88c"/><path d="m246.345 629.78 3.665-2.217 2.274 5.967z" fill="#e7e88c"/><path d="m303.768 638.101 4.943-.653.455 4.063z" fill="#e7e88c"/><path d="m226.487 664.813 7.387-2.131 1.393 6.165z" fill="#e7e88c"/><path d="m255.95 660.01-1.335-3.864 5.001 1.648z" fill="#e7e88c"/><path d="m829.929 633.61 3.665-2.217 2.274 5.967z" fill="#e7e88c"/><path d="m887.352 641.931 4.943-.653.455 4.063z" fill="#e7e88c"/><path d="m810.071 668.643 7.387-2.131 1.393 6.166z" fill="#e7e88c"/><path d="m839.534 663.84-1.335-3.864 5.001 1.648z" fill="#e7e88c"/><path d="m1209.6 668.887-3.66 2.22-2.28-5.964z" fill="#e7e88c"/><path d="m1152.17 660.617-4.94.658-.46-4.063z" fill="#e7e88c"/><path d="m1229.43 633.836-7.38 2.138-1.4-6.164z" fill="#e7e88c"/><path d="m1199.97 638.666 1.34 3.862-5-1.643z" fill="#e7e88c"/><path d="m-32.0375 624.674 3.6651-2.216 2.2734 5.966z" fill="#e7e88c"/><path d="m25.3848 632.996 4.9438-.654.4548 4.063z" fill="#e7e88c"/><path d="m-51.896 659.708 7.3872-2.131 1.3925 6.165z" fill="#e7e88c"/><path d="m-22.4324 654.905-1.3356-3.865 5.0007 1.648z" fill="#e7e88c"/><path d="m551.547 628.502 3.665-2.216 2.273 5.966z" fill="#e7e88c"/><path d="m608.969 636.824 4.944-.654.454 4.063z" fill="#e7e88c"/><path d="m531.688 663.536 7.387-2.131 1.393 6.165z" fill="#e7e88c"/><path d="m561.152 658.733-1.336-3.864 5.001 1.647z" fill="#e7e88c"/><path d="m995.24 645.541 4.032 1.445-3.194 5.528z" fill="#e7e88c"/><path d="m1025.02 695.339 3.62 3.423-2.86 2.917z" fill="#e7e88c"/><path d="m955.531 652.241 6.314 4.386-3.904 4.971z" fill="#e7e88c"/><path d="m977.849 672.068 2.154-3.474 1.878 4.919z" fill="#e7e88c"/><path d="m41.5875 672.742-2.8915 3.16-3.8633-5.084z" fill="#e7e88c"/><path d="m-15.8516 680.947-4.5589 2.021-1.5819-3.77z" fill="#e7e88c"/><path d="m50.7633 633.531-6.4866 4.127-3.0743-5.523z" fill="#e7e88c"/><path d="m23.8491 646.446 2.3708 3.331-5.2623-.171z" fill="#e7e88c"/><path d="m625.17 676.572-2.892 3.16-3.863-5.084z" fill="#e7e88c"/><path d="m567.73 684.777-4.558 2.021-1.582-3.77z" fill="#e7e88c"/><path d="m634.345 637.361-6.486 4.127-3.075-5.522z" fill="#e7e88c"/><path d="m607.431 650.276 2.371 3.331-5.262-.171z" fill="#e7e88c"/><path d="m244 538c-58 47-151-20-244 33v84c3.66667-5.667 31.0803-18.037 78.5-56.5 45-36.5 157.5 13.5 228.5-36.5 51-35 103 0 155-65h-73c-49 43-87-6-145 41z" fill="#fff0e1"/><g filter="url(#a)"><path d="m450.131 260.8-138.197 235.53h1354.066l-130.22-170.842-81.06-174.16-35.88 97.861-102.32-197.381-111.62 99.52-115.61-139.328-209.95 237.189-82.387-82.933-58.468 94.544-106.306-149.28-112.95 238.848z" fill="#b2dda5"/></g><path d="m1115.18 115.668-24.5-87.0801 36.76 44.784z" fill="#fff" fill-opacity=".3"/><path d="m813.603 225.253-12.141-50.101 48.35 50.736z" fill="#fff" fill-opacity=".3"/><path d="m636.054 187.817-44.115 30.686 40.439-90.398z" fill="#fff" fill-opacity=".3"/><path d="m731.63 269.926-35.536-19.904v-32.344z" fill="#fff" fill-opacity=".3"/><path d="m510.924 354.955-25.733 16.586-9.191-60.541z" fill="#fff" fill-opacity=".3"/><g filter="url(#b)"><path d="m870.138 228.535-246.952 198.522 36.585 60.964 573.169-23.448 124.73-37.516-165.9-358.6586-210.768 315.1466z" fill="#35675b"/></g><path d="m1130.5 174.538 57.59-85.4208-7.96 58.0528z" fill="#000" fill-opacity=".2"/><path d="m791.248 301.596 79.342-63.854-36.332 58.309z" fill="#000" fill-opacity=".2"/><path d="m809.5 277.5c-22-11-26.5-45-48-54-1 1.667-3.8 6.3-7 11.5 24 18 20 40.5 43.5 51.5.833-.833 4.7-3.8 11.5-9z" fill="#eee1d2"/><g filter="url(#c)"><path d="m352.873 331.05-143.873 165.951h1398.18l-156.85-97.066-92.52-127.199-91.18 100.584-96.64-144.033-204.282 242.665-76.879-120.55-142.775 48.533-129.596-90.803-173.527 120.549z" fill="#91d7b9"/></g><path d="m286.812 426.979 66.172-76.417v43.192z" fill="#fff" fill-opacity=".3"/><path d="m516.574 392.095 98.032-71.433-18.381 71.433z" fill="#fff" fill-opacity=".3"/><path d="m1181.36 333.945-8.58-82.23 62.49 94.69z" fill="#fff" fill-opacity=".3"/><path d="m890.455 417.774-7.555-61.606 47.598 70.636z" fill="#fff" fill-opacity=".3"/><path d="m1100 121.5c-42.5-2.5-87.5 32-98-11-1.5 1.667-6 6.7-12 13.5 25.5 52 87-10.5 147.5 26 1-1.833 4.5-7.9 10.5-17.5-1.83-2.833-14-9-48-11z" fill="#eee1d2"/><path clip-rule="evenodd" d="m788.52 151.051h13.058c4.985 0 9.026 4.041 9.026 9.026 0 1.268-.261 2.475-.733 3.57h10.249c4.985 0 9.026 4.041 9.026 9.026 0 1.705-.473 3.3-1.294 4.66h3.603c6.042 0 10.94 4.898 10.94 10.94 0 6.043-4.898 10.941-10.94 10.941h-149.88c-6.042 0-10.94-4.898-10.94-10.941 0-6.042 4.898-10.94 10.94-10.94h3.598c-.822-1.36-1.295-2.955-1.295-4.66 0-4.985 4.041-9.026 9.026-9.026h10.255c-.472-1.095-.733-2.302-.733-3.57 0-4.985 4.041-9.026 9.026-9.026h13.053c.153-4.851 4.133-8.737 9.021-8.737h45.972c4.888 0 8.869 3.886 9.022 8.737z" fill="#fff6f0" fill-opacity=".9" fill-rule="evenodd"/><path clip-rule="evenodd" d="m695.406 121.511h14.72c5.623 0 10.181 4.558 10.181 10.181 0 1.417-.29 2.767-.814 3.994h11.552c5.623 0 10.181 4.558 10.181 10.181 0 1.921-.532 3.717-1.456 5.25h4.06c6.815 0 12.34 5.525 12.34 12.341 0 6.815-5.525 12.34-12.34 12.34h-169.062c-6.815 0-12.34-5.525-12.34-12.34 0-6.816 5.525-12.341 12.34-12.341h4.056c-.925-1.533-1.457-3.329-1.457-5.25 0-5.623 4.558-10.181 10.181-10.181h11.549c-.523-1.227-.813-2.577-.813-3.994 0-5.623 4.558-10.181 10.181-10.181h14.732c.161-5.482 4.656-9.876 10.176-9.876h51.856c5.521 0 10.015 4.394 10.177 9.876z" fill="#fff1e8" fill-opacity=".8" fill-rule="evenodd"/><path clip-rule="evenodd" d="m1132.86 109.519h15.03c5.37 0 9.73 4.358 9.73 9.735 0 1.36-.28 2.655-.78 3.831h11.84c5.38 0 9.74 4.359 9.74 9.736 0 1.84-.51 3.562-1.4 5.03h4.45c6.52 0 11.81 5.283 11.81 11.801 0 6.517-5.29 11.8-11.81 11.8h-169.02c-6.52 0-11.8-5.283-11.8-11.8 0-6.518 5.28-11.801 11.8-11.801h4.45c-.89-1.468-1.4-3.19-1.4-5.03 0-5.377 4.36-9.736 9.74-9.736h11.85c-.51-1.176-.79-2.471-.79-3.831 0-5.377 4.36-9.735 9.74-9.735h15.02c.16-5.238 4.46-9.435 9.74-9.435h52.33c5.27 0 9.57 4.197 9.73 9.435z" fill="#fff6f0" fill-opacity=".9" fill-rule="evenodd"/><path clip-rule="evenodd" d="m1112.37 73.4266h10.41c3.73 0 6.75 3.0201 6.75 6.7456 0 .9396-.2 1.8343-.54 2.647h8.2c3.73 0 6.75 3.0201 6.75 6.7457 0 1.2723-.35 2.4625-.97 3.4781h3.09c4.51 0 8.17 3.6607 8.17 8.177 0 4.515-3.66 8.176-8.17 8.176h-117.12c-4.52 0-8.18-3.661-8.18-8.176 0-4.5163 3.66-8.177 8.18-8.177h3.08c-.61-1.0156-.96-2.2058-.96-3.4781 0-3.7256 3.02-6.7457 6.74-6.7457h8.2c-.34-.8127-.54-1.7074-.54-2.647 0-3.7255 3.02-6.7456 6.75-6.7456h10.42c.1-3.6322 3.08-6.5438 6.74-6.5438h36.26c3.66 0 6.63 2.9116 6.74 6.5438z" fill="#fff1e8" fill-opacity=".8" fill-rule="evenodd"/><path clip-rule="evenodd" d="m1256.16 91.8362h15.03c5.37 0 9.73 4.3588 9.73 9.7358 0 1.36-.28 2.655-.78 3.831h11.84c5.38 0 9.74 4.359 9.74 9.735 0 1.841-.51 3.562-1.4 5.03h4.46c6.51 0 11.8 5.284 11.8 11.801s-5.29 11.801-11.8 11.801h-169.03c-6.52 0-11.8-5.284-11.8-11.801s5.28-11.801 11.8-11.801h4.45c-.89-1.468-1.4-3.189-1.4-5.03 0-5.376 4.36-9.735 9.74-9.735h11.85c-.51-1.176-.79-2.471-.79-3.831 0-5.377 4.36-9.7358 9.74-9.7358h15.03c.16-5.2372 4.45-9.4339 9.73-9.4339h52.33c5.27 0 9.57 4.1967 9.73 9.4339z" fill="#fff1e8" fill-opacity=".8" fill-rule="evenodd"/><g filter="url(#d)"><path d="m997.703 30.0028c-2.197-3.8187-5.858-9.4105-19.406-10.0925 4.211-.8183 14.097-.9547 19.406 3.2733 4.397-4.6371 6.227-6.001 23.797-11.1836-16.1 4.7496-19.11 9.9263-23.793 17.9969z" fill="#000"/></g><g filter="url(#e)"><path d="m1012.84 51.6054c-1.47-4.5826-3.91-11.2927-12.94-12.111 2.81-.982 9.4-1.1457 12.94 3.9279 2.93-5.5646 4.15-7.2012 15.86-13.4203-10.73 5.6995-12.74 11.9115-15.86 21.5962z" fill="#000"/></g><g filter="url(#f)"><path d="m984.033 58.8076c-1.464-2.2913-3.905-5.6464-12.937-6.0555 2.807-.491 9.398-.5729 12.937 1.9639 2.93-2.7822 4.15-3.6006 15.867-6.7101-10.738 2.8497-12.741 5.9557-15.864 10.7981z" fill="#000"/></g><path d="m1092.5 217.5c-76 0-129 42.5-185-.5-1.167 1.5-5.4 6.2-11 13 73 47.5 122 6.5 183.5 6 1-1.833 4.5-8.1 12.5-18.5z" fill="#eee1d2"/><g filter="url(#g)"><path d="m789.561 368.318 478.749-173.937" stroke="#000" stroke-width="3.37742"/></g><g filter="url(#h)"><path d="m788.715 269.529 478.745-173.9372" stroke="#000" stroke-width="3.37742"/></g><g filter="url(#i)"><rect fill="#000" height="114.516" rx="9.81562" width="123.241" x="1049.62" y="305.463"/><rect fill="#89cdd3" height="55.0765" rx="4.3625" width="44.7156" x="1058.35" y="312.006"/><rect fill="#89cdd3" height="55.0765" rx="4.3625" width="44.7156" x="1119.42" y="312.006"/><path d="m1111.24 313.098v100.882" stroke="#89cdd3" stroke-width="2.18125"/><path d="m1113.96 309.279-31.62-31.62 31.62-31.62" stroke="#000" stroke-width="4.42235"/><rect fill="#000" height="12.8248" rx="6.41241" transform="matrix(.94315249 -.33236032 .33236032 .94315249 -20.146377 374.233729)" width="53.5104" x="1083.91" y="246.01"/></g><path d="m335 469.001c5.999 18.5 32 11 39 28h31.5c0-22-67.154-25.947-49.499-34 23.999-10.947 25.999-15 29.999-23.5 4.784-10.167 13.5-25 46.5-22-1.167-1.333-.8-.9-8-8.5-14.5-6-41.499 8.5-53.5 26.5-9 13.5-41.513 16.5-36 33.5z" fill="#f0e3d5"/><path d="m427 392c9.5 14.5 25.5 5 36 24 1.833-1.334 7-5 13-9-14-22.5-45.5-13.5-38-28 5.847-11.305 17.5-26 3.5-37.5-10.435-8.572-22 3-31-13-1 1.667-5 8-8 13 2.5 3 3.7 4.7 12.5 7.5 5.5 1.75 20.375-1 22.5 7.5 2 8-20.561 20.145-10.5 35.5z" fill="#eee1d2"/><path d="m427 300c18.5 5 31.5-6.5 47.5-8 1 1.167 4 4.9 8 10.5-32.5 7.5-41 17.5-62 8.5 1-1.5 2.5-4.5 6.5-11z" fill="#eee1d2"/><path d="m652 250.5c-45.5 19-73 42-103.5 38-1.667 3.167-3.4 7-9 19 36 10.5 68-19 120-40 31-11.5 21.5-33 48-50.5-1.167-1.5-4.5-7-10-14-28 18.5-26 39.357-45.5 47.5z" fill="#eee1d2"/><path d="m732 259h63v238h-63z" fill="#f4e97d"/><g filter="url(#j)"><path d="m63.9386 509.918v-43.479c0-1.059-.7338-1.974-1.7608-2.196l-11.1378-2.405c-1.3867-.3-2.6943.766-2.6943 2.195v42.677c0 1.003.6593 1.884 1.6156 2.159l11.1378 3.207c1.423.41 2.8395-.667 2.8395-2.158z" fill="#d1c870"/><path d="m91.5269 458.191-27.5874 7.697v45.079l27.5874-8.246z" fill="#f4e97d"/><path clip-rule="evenodd" d="m49.5449 467.791 1.9875.207-.1196 1.122-.7255-.076v.555h-1.1424zm4.7006.489 2.713.282-.1196 1.122-2.713-.282zm5.4261.564 1.8678.194v1.605h-1.1423v-.589l-.8451-.088zm-10.1267 5.48v-2.362h1.1424v2.362zm11.9945-1.487v2.194h-1.1423v-2.194zm-11.9945 6.212v-2.362h1.1424v2.362zm11.9945-1.824v2.195h-1.1423v-2.195zm-11.9945 6.549v-2.362h1.1424v2.362zm11.9945-2.16v2.194h-1.1423v-2.194zm0 4.388v2.194h-1.1423v-2.194zm-11.9945 2.498v-2.363h1.1424v2.363zm11.9945 1.89v2.194h-1.1423v-2.194zm-11.9945 2.835v-2.363h1.1424v2.363zm11.9945 1.553v2.194h-1.1423v-2.194zm-11.9945 3.172v-2.363h1.1424v2.363zm11.9945 1.217v2.194h-1.1423v-2.194zm-11.9945 3.508v-2.362h1.1424v2.362zm11.9945.88v2.194h-1.1423v-2.194zm-11.9945 1.483h1.1424v.746l.9307.242-.2907 1.091-1.7824-.463zm7.2085 3.49-2.7131-.706.2907-1.091 2.7131.705zm4.786-.585v1.829l-2.073-.539.2907-1.091.64.166v-.365z" fill="#f4e97d" fill-rule="evenodd"/><path d="m90.9721 440.197-44.6557 11.664 3.446 18.953 41.7621-12.796z" fill="#539882"/><path d="m58.3785 461.049c0 5.392-4.1142 9.763-9.1893 9.763-5.075 0-9.1892-4.371-9.1892-9.763 0-5.393 4.1142-9.764 9.1892-9.764 5.0751 0 9.1893 4.371 9.1893 9.764z" fill="#35675b"/><path clip-rule="evenodd" d="m48.3452 468.293c3.2883 0 6.2371-3.175 6.2371-7.463 0-4.289-2.9488-7.463-6.2371-7.463s-6.2372 3.174-6.2372 7.463c0 4.288 2.9489 7.463 6.2372 7.463zm0 .933c3.9746 0 7.1967-3.759 7.1967-8.396s-3.2221-8.396-7.1967-8.396c-3.9747 0-7.1968 3.759-7.1968 8.396s3.2221 8.396 7.1968 8.396z" fill="#539882" fill-rule="evenodd"/><path clip-rule="evenodd" d="m47.7452 466.164c2.4662 0 4.6779-2.268 4.6779-5.331s-2.2117-5.331-4.6779-5.331-4.6779 2.268-4.6779 5.331 2.2117 5.331 4.6779 5.331zm0 .666c2.981 0 5.3975-2.685 5.3975-5.997s-2.4165-5.997-5.3975-5.997-5.3975 2.685-5.3975 5.997 2.4165 5.997 5.3975 5.997z" fill="#539882" fill-rule="evenodd"/><path d="m50.7455 460.833c0 1.987-1.611 3.598-3.5983 3.598s-3.5984-1.611-3.5984-3.598c0-1.988 1.6111-3.599 3.5984-3.599s3.5983 1.611 3.5983 3.599z" fill="#539882"/><path d="m55.541 449.399c6.8121-1.776 13.6243 10.533 8.5151 17.186 3.9737-1.109 17.0302-4.989 28.3837-8.316 4.1982-5.125-1.3061-12.145-6.6465-16.242-.8071-.619-1.8691-.783-2.8501-.489-4.458 1.338-15.5735 4.781-27.4022 7.861z" fill="#d1c870"/><path d="m76.9635 442.6c-10.4834 2.57-22.0698 5.654-22.6217 7.196 4.414-1.028 5.7014-1.028 5.5175-1.028h7.1727l14.8972-4.112c-.1839-.172-1.4344-.823-4.9657-2.056z" fill="#d1c870"/><path clip-rule="evenodd" d="m100.522 544.557c1.656 0 2.999 1.353 2.999 3.022v4.75c0 1.669-1.343 3.023-2.999 3.023s-2.9986-1.354-2.9986-3.023v-4.75c0-1.669 1.3426-3.022 2.9986-3.022z" fill="#ffc7a1" fill-rule="evenodd"/><path d="m97.5234 551.383v-2.029h2.3989v2.398c-.4442-.061-1.5459-.221-2.3989-.369z" fill="#ebc8b1"/><path d="m90.7584 548.046c-.4478-6.942-1.8806-24.076-4.0299-37.075h23.2835c-.448 7.094 1.791 27.005 0 37.075-4.925 3.89-13.2088 2.746-19.2536 0z" fill="#d1c870"/><path clip-rule="evenodd" d="m79.53 545.752c1.9873 0 3.5984 1.353 3.5984 3.023v4.749c0 1.67-1.6111 3.023-3.5984 3.023s-3.5984-1.353-3.5984-3.023v-4.749c0-1.67 1.6111-3.023 3.5984-3.023z" fill="#ffc7a1" fill-rule="evenodd"/><path d="m75.9316 553.778v-2.03h2.3989v2.399c-.4442-.062-1.5459-.222-2.3989-.369z" fill="#ebc8b1"/><path d="m70.2961 549.321c-.4398-6.732-1.8471-23.347-3.9582-35.952l26.388 3.107c-.4398 6.88-1.7592 23.08-3.5184 32.845-4.8378 3.772-12.9741 2.663-18.9114 0z" fill="#f4e97d"/><path d="m70.3944 549.234c-.4507-6.93-1.893-24.034-4.0565-37.011l6.5355 1.599c-.4507 7.082 3.1551 26.731 1.3522 36.783-1.8029-.457-2.2537-.685-3.8312-1.371z" fill="#d1c870"/><path clip-rule="evenodd" d="m122.102 504.026c.178.158.342.303.488.432v-.001c.629.556.921.74 1.274.963h.001c.093.059.19.121.299.192.696.458-.225 1.767-.921 1.309-.476-.313-.948-.643-1.299-.913l-.131.12.772.682.424.375c.795.703-.225 1.767-.921 1.309-.564-.372-1.13-.881-1.493-1.245l-.168.154c.463.487.713.683 1.009.914.087.068.177.139.278.222.646.525-.017 1.732-1.061 1.045-.615-.404-1.042-.848-1.33-1.147-.104-.107-.189-.195-.259-.257l.014-.011c-.934-.925-2.421-2.479-2.444-2.844-.024-.399 2.372-2.149 3.573-2.974s0 0 0-.001c1.761.142 3.631.401 3.335 1.297-.119.36-.682.375-1.44.379z" fill="#ffc7a1" fill-rule="evenodd"/><path clip-rule="evenodd" d="m96.4437 465.63c2.0624-.846 4.4203.14 5.2663 2.202 4.625 11.27 7.676 17.435 10.547 21.873 2.674 4.133 5.241 6.86 9.165 11.027.251.266.507.538.769.816l-5.881 5.531c-.295-.314-.586-.622-.872-.926-3.833-4.067-6.875-7.295-9.959-12.063-3.289-5.085-6.5674-11.814-11.2371-23.193-.8463-2.062.1395-4.42 2.2018-5.267z" fill="#35675b" fill-rule="evenodd"/><path clip-rule="evenodd" d="m100.513 466.5c.344-.141.737.023.878.367 4.644 11.317 7.741 17.669 10.737 22.328 2.806 4.363 5.532 7.257 9.422 11.387.257.274.52.552.788.837l-.98.922c-.274-.291-.543-.576-.807-.856-3.874-4.113-6.679-7.091-9.554-11.562-3.066-4.767-6.201-11.214-10.851-22.546-.141-.343.023-.736.367-.877z" fill="#407967" fill-rule="evenodd"/><path d="m86.2229 557.843-3.6206-3.714-1.1829.158c-1.4421.192-2.907.123-4.3245-.204l-.7715-.178c-.0482.895-.318 3.045-.3952 4.478 2.1658 1.619 6.7856 1.381 9.8361.908.695-.107.9495-.944.4586-1.448z" fill="#35675b"/><path d="m107.301 555.724-3.621-3.714-1.182.158c-1.443.192-2.9074.123-4.325-.204l-.7715-.178c-.0482.895-.318 3.045-.3951 4.478 2.1657 1.619 6.7856 1.381 9.8356.908.695-.108.95-.944.459-1.448z" fill="#35675b"/><path d="m60.3398 512.844c1.0553-11.627 7.417-38.595 24.4217-53.453 2.7135 0 10.2209 1.268 18.5425 6.341-1.357 12.231 5.879 32.163 12.211 47.112-8.141 8.153-34.8237 12.23-55.1752 0z" fill="#539882"/><path d="m103.177 467.369c.158 1.741 2.571 12.009 4.351 16.559l-6.117.425-2.2834-9.564z" fill="#539882"/><path d="m60.3398 512.186c1.0481-11.483 7.3662-38.116 24.2543-52.79 1.7966 0 .4492-.224.4492 2.237-12.5763 17.224-21.1102 38.474-17.517 54.132-3.5932-1.566-4.267-2.013-7.1865-3.579z" fill="#468677"/><path d="m93.7704 397.321c4.5677 5.941 1.5847 15.898-6.6628 22.239-8.2475 6.34-18.6363 6.664-23.2041.723s-1.5848-15.898 6.6627-22.239 18.6364-6.664 23.2042-.723z" fill="#c5c5c5"/><path d="m69.4691 412.537c1.4029-2.317 7.5961-8.94 18.9695-11.745l-2.9156 9.616c-3.9839 1.073-12.7721 3.001-16.0539 2.129z" fill="#539882"/><path d="m81.883 408.014c17.3456-26.34 46.91-.646 39.277 19.006-18.016-7.905-33.6912-15.964-39.277-19.006z" fill="#e1e1e1"/><path d="m113.125 415.697c4.401 5.261 6.208 9.039 7.634 10.197 1.14.926 1.034 1.735.838 2.023.428 1.846 1.49 5.794 2.318 6.816-1.509.649-2.146.891-2.276.931l-2.577-6.964z" fill="#ffc7a1"/><path d="m127.796 448.823c-2.68-4.797 1.469-13.107-6.049-15.707l-1.094 15.1c.315.762 2.43 1.5 7.143.607z" fill="#ffc7a1"/><path d="m119.661 428.737c5.277 17.09-1.221 34.271-14.514 38.375-13.2918 4.104-28.3445-6.424-33.6208-23.514s1.2219-34.27 14.514-38.374c13.2922-4.104 28.3448 6.423 33.6208 23.513z" fill="#ffc7a1"/><path d="m125.486 431.336c.684 2.215-.301 4.486-2.2 5.072-1.899.587-3.993-.734-4.676-2.949-.684-2.216.3-4.487 2.199-5.073s3.993.734 4.677 2.95z" fill="#fff"/><path d="m123.017 430.321c.195.633-.159 1.305-.792 1.5-.633.196-1.305-.159-1.5-.792s.159-1.305.792-1.5 1.305.159 1.5.792z" fill="#000"/><g filter="url(#k)"><path d="m125.93 436.844c.195.633-.929 1.542-2.511 2.03-1.583.489-3.024.372-3.219-.261-.196-.633.928-1.542 2.511-2.031 1.582-.488 3.023-.371 3.219.262z" fill="#fca"/></g><path clip-rule="evenodd" d="m127.748 435.743c.307-1.421.239-3.423-.433-5.601-.673-2.179-1.745-3.87-2.8-4.871-1.129-1.071-1.751-.964-1.82-.943-.068.021-.642.284-.971 1.804-.307 1.422-.239 3.423.433 5.602.673 2.179 1.745 3.87 2.801 4.871 1.128 1.07 1.75.964 1.819.943.068-.022.642-.285.971-1.805zm-.181 4.363c2.848-.879 3.89-5.697 2.326-10.761-1.563-5.063-5.139-8.455-7.988-7.576-2.848.879-3.89 5.697-2.326 10.761 1.563 5.064 5.139 8.456 7.988 7.576z" fill="#91d7b9" fill-rule="evenodd"/><path d="m126.344 439.546c-4.607-2.652-5.666-9.876-13.151-19.151l4.808 25.776c1.308-.921 4.808-3.534 8.343-6.625z" fill="#ffc7a1"/><path d="m80.4429 452.142c.7817 2.532-.8937 5.297-3.742 6.177-2.8483.879-5.791-.461-6.5727-2.993-.7816-2.531.8937-5.297 3.742-6.176s5.791.46 6.5727 2.992z" fill="#ffc7a1"/><path d="m129.443 458.926c2.977-4.739-2.63-11.003-5.018-16.257-7.595 4.455-27.2848 16.539-35.1022 22.75 10.4405 5.303 34.6962 2.142 40.1202-6.493z" fill="#ffc7a1"/><path clip-rule="evenodd" d="m118.486 429.923c-.676-1.199-1.38-2.45-2.117-3.719l.827-.47c.753 1.296 1.462 2.556 2.138 3.757 1.008 1.791 1.942 3.451 2.838 4.904.744 1.209 1.451 2.256 2.134 3.095.687.842 1.331 1.451 1.945 1.809l.534.311-3.157 2.968-.653-.671 2.277-2.141c-.574-.429-1.135-1.006-1.691-1.687-.72-.884-1.45-1.969-2.204-3.193-.902-1.464-1.854-3.156-2.871-4.963z" fill="#ffb685" fill-rule="evenodd"/><path clip-rule="evenodd" d="m120.322 436.882c-.95.549-2.096 1.368-3.645 2.82l-1.803-2.078c1.663-1.559 2.964-2.504 4.113-3.168.893-.516 1.694-.859 2.411-1.165.188-.081.371-.159.548-.237l1.091 2.55c-.222.098-.433.188-.639.276-.696.299-1.326.568-2.076 1.002z" fill="#91d7b9" fill-rule="evenodd"/><circle cx="120.211" cy="448.797" fill="#ff8281" r="3.51898" transform="matrix(.95549796 -.29499771 .29499771 .95549796 -127.044452 55.434352)"/><g mask="url(#l)"><circle cx="119.354" cy="453.971" fill="#ff6564" r="3.51898" transform="matrix(.95549796 -.29499771 .29499771 .95549796 -128.608909 55.411792)"/></g><path d="m111.276 446.678c.585 1.896-.517 3.919-2.461 4.519s-3.994-.45-4.58-2.345c-.585-1.896.517-3.919 2.461-4.519s3.994.45 4.58 2.345z" fill="#fca7a7"/><path clip-rule="evenodd" d="m108.506 449.529c4.035-1.245 6.636-6.136 5.022-11.364s-6.519-7.802-10.555-6.556c-4.0347 1.246-6.636 6.137-5.0219 11.365s6.5199 7.801 10.5549 6.555zm.772 2.501c5.697-1.759 8.731-8.316 6.776-14.645-1.954-6.33-8.156-10.035-13.853-8.277-5.6962 1.759-8.7301 8.316-6.7759 14.646 1.9542 6.329 8.1559 10.035 13.8529 8.276z" fill="#91d7b9" fill-rule="evenodd"/><path d="m111.117 437.652c.782 2.532-.637 5.218-3.169 6-2.532.781-5.218-.637-5.999-3.169-.782-2.532.637-5.218 3.169-6 2.531-.782 5.217.637 5.999 3.169z" fill="#fff"/><path d="m74.0827 448.878c3.0398.693 18.6741.996 27.7533-29.086-1.706-3.747-8.044-11.411-19.7442-12.089-18.5293 10.15-10.7681 40.628-8.0091 41.175z" fill="#e1e1e1"/><path d="m119.393 423.803c-5.642 1.016-9.944-4.43-18.102-3.846-2.4512-4.082-6.6155-10.008-19.6064-12.577 6.5898-5.663 31.1624-4.78 37.7084 16.423z" fill="#e1e1e1"/><path d="m73.3553 448.057c-28.0357-13.629-9.7074-43.919 9.3733-41.365-4.3091 19.721-8.213 35.767-9.3733 41.365z" fill="#e1e1e1"/><path d="m79.7424 458.011c.2931.95-.2389 1.957-1.1883 2.25-.9495.293-1.9568-.239-2.2499-1.188-.2931-.95.2389-1.957 1.1883-2.25.9495-.293 1.9568.239 2.2499 1.188z" fill="#539882"/><path d="m62.6414 431.069c-.7671-3.41-.4977-5.315 2.2491-13.037-.5245 3.645.2743 6.789 1.3784 9.128.5864 1.243.3233 4.052-.8911 4.525-.792.309-2.5396.259-2.7364-.616z" fill="#c4c4c4"/><path clip-rule="evenodd" d="m100.403 419.19c-.084-.49.251-.957.746-1.043 1.501-.259 3.139.001 4.752.445 1.506.415 3.081 1.019 4.6 1.601.114.043.227.087.341.13 1.646.63 3.216 1.217 4.664 1.56 1.456.346 2.669.415 3.633.117.48-.148.989.116 1.135.591.147.475-.124.98-.605 1.128-1.43.442-3.026.289-4.6-.084-1.583-.376-3.264-1.007-4.894-1.631-.107-.041-.214-.082-.321-.123-1.541-.59-3.036-1.163-4.453-1.553-1.522-.42-2.849-.597-3.95-.407-.496.086-.965-.242-1.048-.731z" fill="#c4c4c4" fill-rule="evenodd"/><path d="m111.247 402.522c-2.4-1.607-6.756-3.592-12.1611-3.833 3.1841.832 5.7211 2.741 8.4061 6.095.676.845 1.942.958 2.965.36 1.215-.712 1.889-1.887.79-2.622z" fill="#f0f0f0"/><g clip-rule="evenodd" fill-rule="evenodd"><path d="m68.6676 402.033c.1853.172.2121.467.06.658l-.0108.013c-1.3142 1.648-4.5947 5.761-4.184 11.3.0191.257-.1592.472-.3981.48-.239.008-.4482-.194-.4673-.451-.4387-5.917 3.0333-10.269 4.3535-11.923.0121-.015.024-.03.0358-.045.1521-.191.4256-.205.6109-.032z" fill="#a8a8a8"/><path d="m85.2639 394.496c-.0023-.252.183-.446.4138-.433 2.0793.118 4.6428 1.095 6.7335 3.474.1648.188.1674.477.0058.646s-.4262.154-.5911-.033c-1.9134-2.178-4.2544-3.067-6.14-3.173-.2308-.013-.4198-.228-.422-.481z" fill="#e1e1e1"/><path d="m105.772 421.975c.336.364.313.931-.051 1.267l-7.4622 6.885c-.3641.336-.9316.313-1.2675-.051-.336-.364-.3131-.932.051-1.268l7.4627-6.884c.364-.336.931-.313 1.267.051z" fill="#969696"/><path d="m121.993 421.337c-.081.489-.543.819-1.031.738l-7.599-1.259c-.489-.081-.819-.542-.738-1.031s.542-.819 1.031-.738l7.599 1.258c.489.081.819.543.738 1.032z" fill="#969696"/><path d="m69.4753 449.126c-.1225-.653.3642-1.305 1.0871-1.458l25.6582-5.407.4438 2.363-25.6582 5.408c-.7229.152-1.4083-.253-1.5309-.906z" fill="#91d7b9"/></g><path d="m88.8377 442.74c-11.0588 10.474-14.7719 4.325-17.5227 4.233 5.9316-3.714 14.1533-4.369 17.5227-4.233z" fill="#e1e1e1"/><path clip-rule="evenodd" d="m96.832 424.787c.4424.248.61.813.3743 1.262-3.2888 6.264-5.79 10.272-8.4189 13.216-2.6475 2.965-5.3902 4.814-9.0882 6.819-.44.238-.9913.064-1.2313-.39-.2401-.454-.078-1.016.362-1.254 3.606-1.955 6.1525-3.688 8.6088-6.439 2.475-2.772 4.8922-6.616 8.1657-12.851.2357-.449.7853-.612 1.2276-.363z" fill="#c4c4c4" fill-rule="evenodd"/><path d="m98.3101 416.497c-1.6669-2.408-7.3244-7.871-16.3441-9.568-.9804-.184-3.6421-.58-6.593.331 6.4509-.043 15.0541 3.146 22.9371 9.237z" fill="#c4c4c4"/><path clip-rule="evenodd" d="m75.259 451.627c.0787.206-.0321.439-.2475.52-1.154.434-1.5898 1.023-1.7314 1.525-.1488.528.0003 1.052.1882 1.369.1129.19.0426.437-.157.55-.1996.114-.4529.052-.5658-.139-.2668-.449-.487-1.191-.2662-1.974.2279-.808.9005-1.572 2.2471-2.078.2154-.081.4538.021.5326.227z" fill="#ffb685" fill-rule="evenodd"/><path d="m108.318 486.38c0 2.318-1.88 4.198-4.198 4.198-2.319 0-4.1981-1.88-4.1981-4.198 0-2.319 1.8791-4.198 4.1981-4.198 2.318 0 4.198 1.879 4.198 4.198z" fill="#539882"/><path d="m91.5273 489.769c2.0242.97 5.3975 1.359 7.1968-.388-.6747 2.717-5.6225 3.493-7.1968.388z" fill="#468677"/><path clip-rule="evenodd" d="m98.6656 489.465c.0835.104.0767.266-.0152.361-1.2616 1.304-2.4354 1.918-3.6033 1.952-1.1645.034-2.2803-.51-3.4238-1.42-.1018-.081-.1265-.241-.0553-.357.0713-.115.2115-.143.3132-.062 1.1055.879 2.1261 1.358 3.1544 1.328 1.0249-.03 2.1001-.567 3.3123-1.82.0919-.095.2341-.087.3177.018z" fill="#35675b" fill-rule="evenodd"/><path clip-rule="evenodd" d="m82.3711 467.618c-1.1481-.865-2.9674-1.473-5.7754-1.223-.9387.084-1.7689-.595-1.8542-1.517-.0853-.921.6065-1.736 1.5452-1.82 3.45-.307 6.182.41 8.1629 1.903 1.9739 1.487 3.0101 3.6 3.3492 5.726.3367 2.111.0038 4.315-.8436 6.144-.8384 1.81-2.284 3.453-4.3186 4.073-.9001.275-1.8565-.219-2.1362-1.103-.2797-.883.2234-1.822 1.1235-2.096.81-.247 1.64-1 2.2239-2.261.5749-1.241.8109-2.782.5786-4.239-.2298-1.441-.9003-2.716-2.0553-3.587z" fill="#d1c870" fill-rule="evenodd"/><path clip-rule="evenodd" d="m60.0137 448.647c-.2969-.065-.5889-.097-.8731-.097l.0001-1.154c.3577 0 .7196.041 1.0816.121zm3.1395 1.913c-.4696-.493-.9635-.896-1.4644-1.209l.5231-1.001c.5808.362 1.144.823 1.6726 1.379zm2.1196 3.339c-.2732-.654-.5836-1.25-.9216-1.787l.8697-.654c.3736.594.714 1.249 1.012 1.962zm1.0422 3.964c-.0948-.715-.2277-1.391-.3931-2.027l1.0152-.315c.1785.687.3211 1.413.4224 2.177zm.1109 4.167c.0504-.724.0656-1.422.0491-2.092l1.055-.031c.0175.711.0014 1.448-.0518 2.211zm-.4138 3.121c.0675-.35.1271-.695.1794-1.035l1.0408.191c-.0547.356-.117.716-.1874 1.081z" fill="#f4e97d" fill-rule="evenodd"/><path clip-rule="evenodd" d="m83.9213 429.973c.1103-.21.2117-.404.3018-.576h.0005c.389-.744.5961-1.02.8465-1.355.066-.088.135-.18.2111-.286.4867-.676-.8406-1.57-1.3273-.894-.3327.463-.6555.939-.8872 1.316l-.1658-.066.4771-.911.2626-.502c.4915-.94-.8407-1.57-1.3273-.894-.3948.548-.7413 1.225-.9505 1.695l-.2118-.084c.2581-.619.4218-.891.6156-1.213.0567-.094.1161-.193.1811-.306.416-.722-.6346-1.612-1.3646-.598-.4299.597-.6708 1.164-.8333 1.546-.0582.137-.1064.25-.1496.333l.0178.005c-.5427 1.198-1.3768 3.179-1.2678 3.528.1195.381 2.9823 1.161 4.3988 1.503 0 .001.0001.001.0002.001 1.5949-.761 3.249-1.67 2.6525-2.402-.2396-.294-.7706-.106-1.4804.16z" fill="#ffc7a1" fill-rule="evenodd"/><path clip-rule="evenodd" d="m82.3298 475.716c2.0708-.884 3.0129-3.254 2.1044-5.293-4.6905-10.531-5.6355-17.182-5.0973-22.314.4753-4.531 2.0889-8.144 4.1817-12.829.3496-.783.7125-1.595 1.0858-2.447l-7.5231-3.213c-.3254.742-.6603 1.487-.9976 2.237-2.0898 4.647-4.2755 9.507-4.8925 15.39-.7331 6.989.7171 15.089 5.7441 26.375.9086 2.04 3.3237 2.977 5.3945 2.094z" fill="#35675b" fill-rule="evenodd"/><circle cx="107.198" cy="438.077" fill="#000" r="1.72298"/></g></svg>