<svg fill="none" height="648" viewBox="0 0 1194 648" width="1194" xmlns="http://www.w3.org/2000/svg" xmlns:xlink="http://www.w3.org/1999/xlink"><filter id="a" color-interpolation-filters="sRGB" filterUnits="userSpaceOnUse" height="581.61" width="1615.67" x="62.3281" y="0"><feFlood flood-opacity="0" result="BackgroundImageFix"/><feColorMatrix in="SourceAlpha" type="matrix" values="0 0 0 0 0 0 0 0 0 0 0 0 0 0 0 0 0 0 127 0"/><feOffset dx="8"/><feGaussianBlur stdDeviation="2"/><feColorMatrix type="matrix" values="0 0 0 0 0 0 0 0 0 0 0 0 0 0 0 0 0 0 0.2 0"/><feBlend in2="BackgroundImageFix" mode="normal" result="effect1_dropShadow"/><feBlend in="SourceGraphic" in2="effect1_dropShadow" mode="normal" result="shape"/></filter><filter id="b" color-interpolation-filters="sRGB" filterUnits="userSpaceOnUse" height="504.974" width="881.875" x="430.957" y="66.793"><feFlood flood-opacity="0" result="BackgroundImageFix"/><feColorMatrix in="SourceAlpha" type="matrix" values="0 0 0 0 0 0 0 0 0 0 0 0 0 0 0 0 0 0 127 0"/><feOffset dx="8"/><feGaussianBlur stdDeviation="2"/><feColorMatrix type="matrix" values="0 0 0 0 0 0 0 0 0 0 0 0 0 0 0 0 0 0 0.2 0"/><feBlend in2="BackgroundImageFix" mode="normal" result="effect1_dropShadow"/><feBlend in="SourceGraphic" in2="effect1_dropShadow" mode="normal" result="shape"/></filter><filter id="c" color-interpolation-filters="sRGB" filterUnits="userSpaceOnUse" height="408.66" width="1782" x="-140" y="257.34"><feFlood flood-opacity="0" result="BackgroundImageFix"/><feColorMatrix in="SourceAlpha" type="matrix" values="0 0 0 0 0 0 0 0 0 0 0 0 0 0 0 0 0 0 127 0"/><feOffset dx="8"/><feGaussianBlur stdDeviation="2"/><feColorMatrix type="matrix" values="0 0 0 0 0 0 0 0 0 0 0 0 0 0 0 0 0 0 0.2 0"/><feBlend in2="BackgroundImageFix" mode="normal" result="effect1_dropShadow"/><feBlend in="SourceGraphic" in2="effect1_dropShadow" mode="normal" result="shape"/></filter><filter id="d" color-interpolation-filters="sRGB" filterUnits="userSpaceOnUse" height="221.942" width="1229.68" x="-26.3398" y="136.029"><feFlood flood-opacity="0" result="BackgroundImageFix"/><feColorMatrix in="SourceAlpha" type="matrix" values="0 0 0 0 0 0 0 0 0 0 0 0 0 0 0 0 0 0 127 0"/><feOffset dx="4" dy="2"/><feGaussianBlur stdDeviation="2"/><feColorMatrix type="matrix" values="0 0 0 0 0 0 0 0 0 0 0 0 0 0 0 0 0 0 0.2 0"/><feBlend in2="BackgroundImageFix" mode="normal" result="effect1_dropShadow"/><feBlend in="SourceGraphic" in2="effect1_dropShadow" mode="normal" result="shape"/></filter><filter id="e" color-interpolation-filters="sRGB" filterUnits="userSpaceOnUse" height="208.948" width="1212.65" x="-10.3223" y="19.0254"><feFlood flood-opacity="0" result="BackgroundImageFix"/><feColorMatrix in="SourceAlpha" type="matrix" values="0 0 0 0 0 0 0 0 0 0 0 0 0 0 0 0 0 0 127 0"/><feOffset dx="4" dy="2"/><feGaussianBlur stdDeviation="2"/><feColorMatrix type="matrix" values="0 0 0 0 0 0 0 0 0 0 0 0 0 0 0 0 0 0 0.2 0"/><feBlend in2="BackgroundImageFix" mode="normal" result="effect1_dropShadow"/><feBlend in="SourceGraphic" in2="effect1_dropShadow" mode="normal" result="shape"/></filter><filter id="f" color-interpolation-filters="sRGB" filterUnits="userSpaceOnUse" height="364.129" width="243.661" x="720" y="180.953"><feFlood flood-opacity="0" result="BackgroundImageFix"/><feColorMatrix in="SourceAlpha" type="matrix" values="0 0 0 0 0 0 0 0 0 0 0 0 0 0 0 0 0 0 127 0"/><feOffset dx="6.33057" dy="6.33057"/><feGaussianBlur stdDeviation="3.16529"/><feColorMatrix type="matrix" values="0 0 0 0 0 0 0 0 0 0 0 0 0 0 0 0 0 0 0.2 0"/><feBlend in2="BackgroundImageFix" mode="normal" result="effect1_dropShadow"/><feBlend in="SourceGraphic" in2="effect1_dropShadow" mode="normal" result="shape"/></filter><filter id="g" color-interpolation-filters="sRGB" filterUnits="userSpaceOnUse" height="151.951" width="72.7096" x="867.688" y="333.26"><feFlood flood-opacity="0" result="BackgroundImageFix"/><feColorMatrix in="SourceAlpha" type="matrix" values="0 0 0 0 0 0 0 0 0 0 0 0 0 0 0 0 0 0 127 0"/><feOffset dx="3.384" dy="-1.692"/><feGaussianBlur stdDeviation="1.692"/><feColorMatrix type="matrix" values="0 0 0 0 0 0 0 0 0 0 0 0 0 0 0 0 0 0 0.2 0"/><feBlend in2="BackgroundImageFix" mode="normal" result="effect1_dropShadow"/><feBlend in="SourceGraphic" in2="effect1_dropShadow" mode="normal" result="shape"/></filter><filter id="h" color-interpolation-filters="sRGB" filterUnits="userSpaceOnUse" height="21.5491" width="23.5598" x="867.049" y="371.035"><feFlood flood-opacity="0" result="BackgroundImageFix"/><feBlend in="SourceGraphic" in2="BackgroundImageFix" mode="normal" result="shape"/><feGaussianBlur result="effect1_foregroundBlur" stdDeviation="4.5283"/></filter><mask id="i" height="104" maskUnits="userSpaceOnUse" width="84" x="851" y="330"><rect fill="#89cdd3" height="103.235" rx="8.17699" width="83.8142" x="851" y="330"/></mask><g filter="url(#a)"><path d="m226 298.663-163.6719 278.947h1603.6719l-154.23-202.335-96-206.264-42.49 115.901-121.18-233.766-132.2 117.865-136.917-165.011-248.655 280.912-97.574-98.221-69.246 111.972-125.901-176.798-133.771 282.876z" fill="#b2dda5"/></g><g fill="#fff" fill-opacity=".3"><path d="m1166.04 145.445 81.99-74.6481-28.3 104.1141z"/><path d="m1013.65 126.777-29.029-103.1325 43.539 53.0393z"/><path d="m656.474 256.564-14.378-59.337 57.262 60.089z"/><path d="m446.194 212.227-52.247 36.342 47.893-107.061z"/><path d="m559.392 309.471-42.087-23.573v-38.306z"/><path d="m267.684 373.317-30.477 19.644-10.885-71.701z"/></g><g filter="url(#b)"><path d="m723.432 260.449-292.475 235.117 43.33 72.201 678.833-27.77 147.71-44.431-196.48-424.773-249.617 373.239z" fill="#35675b"/></g><path d="m1031.79 196.5 68.21-101.168-9.44 68.755z" fill="#000" fill-opacity=".2"/><path d="m630 346.978 93.967-75.624-43.029 69.057z" fill="#000" fill-opacity=".2"/><path d="m1204.49 401.791-18.87-126.705 47.17 97.239z" fill="#2a5249"/><g filter="url(#c)"><path d="m110.816 381.675-250.816 280.325h1770l-219.43-198.867-109.57-150.415-83 150.415-139.45-201.793-218.55 254.66-114.432-110.258-169.094 57.391-153.485-107.376-205.514 142.551z" fill="#91d7b9"/></g><path d="m32.5781 495.111 78.3699-90.363v51.075z" fill="#fff" fill-opacity=".3"/><path d="m304.691 453.861 116.103-84.47-21.769 84.47z" fill="#fff" fill-opacity=".3"/><path d="m1092.02 385.1-10.16-97.239 74.01 111.972z" fill="#fff" fill-opacity=".3"/><path d="m747.492 484.227-8.947-72.85 56.372 83.527z" fill="#fff" fill-opacity=".3"/><g filter="url(#d)"><path d="m-26 350 1221-210" stroke="#000" stroke-width="4"/></g><g filter="url(#e)"><path d="m-10 220 1204-197" stroke="#000" stroke-width="4"/></g><g filter="url(#f)"><rect fill="#000" height="214.646" rx="18.3982" width="231" x="720" y="317.775"/><rect fill="#89cdd3" height="103.235" rx="8.17699" width="83.8142" x="736.355" y="330.041"/><rect fill="#89cdd3" height="103.235" rx="8.17699" width="83.8142" x="850.834" y="330.041"/><path d="m835.502 332.084v189.093" stroke="#89cdd3" stroke-width="4.0885"/><path d="m840.596 324.93-59.268-59.268 59.268-59.267" stroke="#000" stroke-width="8.28918"/><rect fill="#000" height="24.0386" rx="12.0193" transform="matrix(.98656663 -.16335937 .16335937 .98656663 -21.703597 130.744751)" width="100.299" x="784.123" y="197.338"/></g><g mask="url(#i)"><g filter="url(#g)"><path clip-rule="evenodd" d="m902.627 406.602c-1.663-.89-3.732-.263-4.622 1.4-4.863 9.086-7.962 14.012-10.76 17.499-2.606 3.249-5.002 5.322-8.663 8.491-.234.203-.473.409-.717.621l4.472 5.162c.276-.239.547-.474.814-.705 3.576-3.092 6.414-5.547 9.421-9.295 3.206-3.996 6.545-9.376 11.455-18.551.89-1.663.263-3.732-1.4-4.622z" fill="#35675b" fill-rule="evenodd"/><path clip-rule="evenodd" d="m899.124 406.984c-.277-.148-.622-.044-.77.233-4.884 9.125-8.037 14.204-10.96 17.868-2.737 3.43-5.281 5.631-8.91 8.771-.241.208-.486.42-.736.637l.746.86c.256-.221.506-.438.752-.651 3.615-3.128 6.233-5.393 9.037-8.907 2.991-3.749 6.184-8.904 11.074-18.041.149-.277.044-.622-.233-.77z" fill="#407967" fill-rule="evenodd"/><path d="m931.895 445.356c-.893-9.836-6.275-32.651-20.661-45.221-2.296 0-8.647 1.073-15.687 5.365 1.148 10.347-4.974 27.209-10.33 39.856 6.887 6.898 29.46 10.347 46.678 0z" fill="#539882"/><path d="m895.659 406.885c-.134 1.473-2.175 10.159-3.681 14.009l5.175.36 1.932-8.092z" fill="#539882"/><path d="m931.895 444.8c-.887-9.715-6.232-32.247-20.52-44.661-1.52 0-.38-.189-.38 1.893 10.64 14.571 17.86 32.549 14.82 45.795 3.04-1.324 3.61-1.703 6.08-3.027z" fill="#468677"/><path d="m887.24 363.168c-3.723 4.45-5.252 7.647-6.458 8.626-.965.784-.875 1.468-.709 1.712-.362 1.562-1.26 4.902-1.961 5.767 1.276.548 1.815.753 1.925.787l2.181-5.892z" fill="#ffc7a1"/><g filter="url(#h)"><path d="m876.405 381.061c-.165.535.786 1.304 2.125 1.718 1.339.413 2.558.314 2.723-.222.166-.535-.786-1.304-2.124-1.717-1.339-.414-2.558-.315-2.724.221z" fill="#fca"/></g><path d="m907.788 386.047c9.356 8.861 12.497 3.659 14.824 3.582-5.018-3.142-11.973-3.697-14.824-3.582z" fill="#e1e1e1"/><path d="m891.307 422.968c0 1.961 1.59 3.551 3.552 3.551 1.961 0 3.551-1.59 3.551-3.551 0-1.962-1.59-3.552-3.551-3.552-1.962 0-3.552 1.59-3.552 3.552z" fill="#539882"/><path d="m905.514 425.836c-1.713.821-4.567 1.149-6.089-.328.571 2.298 4.757 2.955 6.089.328z" fill="#468677"/><path clip-rule="evenodd" d="m899.475 425.579c-.071.088-.065.225.013.305 1.067 1.104 2.06 1.623 3.048 1.652.985.029 1.929-.432 2.897-1.202.086-.068.107-.203.046-.301-.06-.098-.179-.122-.265-.053-.935.744-1.798 1.149-2.668 1.123-.867-.025-1.777-.479-2.802-1.539-.078-.08-.199-.074-.269.015z" fill="#35675b" fill-rule="evenodd"/><path clip-rule="evenodd" d="m915.037 407.035c-1.904-.008-3.43 1.517-3.408 3.406.115 9.752-1.38 15.236-3.518 19.042-1.888 3.36-4.352 5.626-7.547 8.564-.534.491-1.088 1-1.664 1.537l4.767 5.017c.502-.468 1.012-.934 1.525-1.404 3.181-2.909 6.507-5.952 8.958-10.315 2.911-5.184 4.499-11.962 4.376-22.413-.022-1.889-1.584-3.427-3.489-3.434z" fill="#35675b" fill-rule="evenodd"/><path d="m893.103 348.641c-2.795 5.691 1.344 13.449 9.244 17.328 7.9 3.88 16.57 2.411 19.364-3.28 2.795-5.691-1.344-13.449-9.244-17.329-7.9-3.879-16.57-2.41-19.364 3.281z" fill="#c5c5c5"/><path d="m915.804 357.194c-1.551-1.687-7.795-6.144-17.696-6.568l4.026 7.487c3.483.223 11.094.352 13.67-.919z" fill="#539882"/><path d="m904.752 355.522c-18.789-18.944-39.011 7.308-29.395 22.329 13.619-9.569 25.271-18.873 29.395-22.329z" fill="#e1e1e1"/><path d="m873.499 397.037c1.42-4.425-3.411-10.624 2.389-14.037l3.432 12.34c-.134.684-1.764 1.65-5.821 1.697z" fill="#ffc7a1"/><path d="m876.889 379.023c-1.518 15.055 6.744 28.217 18.453 29.398 11.71 1.18 22.433-10.067 23.951-25.122 1.517-15.055-6.744-28.217-18.454-29.398-11.709-1.18-22.432 10.067-23.95 25.122z" fill="#ffc7a1"/><path d="m872.492 382.151c-.197 1.952 1 3.671 2.673 3.839 1.673.169 3.188-1.276 3.385-3.228.197-1.951-1-3.67-2.673-3.839-1.672-.169-3.188 1.277-3.385 3.228z" fill="#fff"/><path d="m873.523 382.587c-.056.558.351 1.055.908 1.112.558.056 1.056-.351 1.112-.908.056-.558-.35-1.055-.908-1.112-.558-.056-1.055.351-1.112.908z" fill="#000"/><path clip-rule="evenodd" d="m871.351 386.186c-.493-1.128-.771-2.799-.578-4.718.194-1.919.8-3.501 1.508-4.508.757-1.076 1.29-1.092 1.351-1.086.06.006.58.128 1.107 1.334.492 1.128.771 2.799.577 4.718-.193 1.919-.8 3.501-1.507 4.508-.757 1.076-1.291 1.092-1.351 1.086-.061-.006-.581-.128-1.107-1.334zm.879 3.588c-2.509-.253-4.178-4.074-3.729-8.535.45-4.461 2.849-7.872 5.358-7.619s4.179 4.074 3.729 8.535-2.848 7.872-5.358 7.619z" fill="#91d7b9" fill-rule="evenodd"/><path d="m873.156 389.105c3.377-2.97 3.047-9.138 7.703-18.082l.324 22.181c-1.239-.545-4.579-2.127-8.027-4.099z" fill="#ffc7a1"/><path d="m913.325 391.872c-.225 2.231 1.627 4.244 4.136 4.497s4.725-1.35 4.95-3.581c.225-2.23-1.627-4.243-4.136-4.496s-4.726 1.35-4.95 3.58z" fill="#ffc7a1"/><path d="m873.822 405.695c-3.261-3.433.342-9.566 1.444-14.322 7.043 2.424 25.393 9.154 32.914 12.997-7.771 6.144-28.416 7.579-34.358 1.325z" fill="#ffc7a1"/><path d="m876.768 394.758c1.691 1.694 2.961 3.385 5.922.424" stroke="#ff8281" stroke-linecap="round" stroke-width=".846"/><path clip-rule="evenodd" d="m878.06 379.808c.36-1.107.734-2.262 1.134-3.438l-.765-.252c-.407 1.201-.785 2.365-1.145 3.474-.536 1.654-1.033 3.186-1.533 4.542-.415 1.127-.826 2.113-1.253 2.923-.428.813-.86 1.426-1.31 1.825l-.39.348 3.114 1.933.429-.666-2.247-1.394c.405-.452.774-1.024 1.121-1.682.449-.854.873-1.876 1.294-3.017.503-1.365 1.01-2.927 1.551-4.596z" fill="#ffb685" fill-rule="evenodd"/><path clip-rule="evenodd" d="m877.699 385.886c.88.297 1.967.785 3.495 1.73l1.148-2.025c-1.641-1.015-2.877-1.581-3.941-1.94-.827-.278-1.549-.428-2.194-.562-.17-.036-.335-.07-.494-.105l-.479 2.297c.2.044.391.084.576.122.627.131 1.195.25 1.889.483z" fill="#91d7b9" fill-rule="evenodd"/><path d="m886.841 392.5c-.169 1.669 1.083 3.163 2.796 3.336 1.713.172 3.237-1.041 3.406-2.711.168-1.67-1.084-3.163-2.796-3.336-1.713-.173-3.238 1.041-3.406 2.711z" fill="#fca7a7"/><path clip-rule="evenodd" d="m889.615 394.4c-3.554-.359-6.53-3.98-6.065-8.586.464-4.605 4.102-7.56 7.657-7.201 3.555.358 6.53 3.979 6.065 8.585-.464 4.606-4.102 7.56-7.657 7.202zm-.222 2.202c-5.018-.506-8.631-5.436-8.068-11.012.562-5.576 5.086-9.686 10.104-9.18s8.631 5.436 8.069 11.012c-.563 5.576-5.086 9.686-10.105 9.18z" fill="#91d7b9" fill-rule="evenodd"/><path d="m885.463 384.99c-.225 2.23 1.401 4.22 3.631 4.445 2.231.225 4.221-1.401 4.446-3.631s-1.401-4.221-3.631-4.446c-2.231-.224-4.221 1.401-4.446 3.632z" fill="#fff"/><path d="m918.054 388.105c-2.405 1.083-15.32 3.948-27.88-19.48.789-3.393 4.763-10.809 14.353-13.328 17.064 5.32 15.724 31.893 13.527 32.808z" fill="#e1e1e1"/><path d="m876.286 374.887c4.849-.101 7.506-5.336 14.369-6.216 1.35-3.795 3.813-9.406 14.156-13.709-6.411-3.595-26.642 1.247-28.525 19.925z" fill="#e1e1e1"/><path d="m918.519 387.301c20.971-15.991.706-38.046-14.69-32.737 6.871 15.635 12.792 28.289 14.69 32.737z" fill="#e1e1e1"/><path d="m914.887 396.625c-.085.836.525 1.583 1.362 1.667.836.085 1.582-.525 1.667-1.362.084-.836-.526-1.582-1.362-1.667-.836-.084-1.583.526-1.667 1.362z" fill="#539882"/><path d="m924.564 371.421c.066-2.956-.476-4.491-4.046-10.436 1.045 2.935.908 5.677.384 7.801-.279 1.129.409 3.414 1.495 3.603.709.124 2.15-.209 2.167-.968z" fill="#c4c4c4"/><path clip-rule="evenodd" d="m891.261 367.885c-.013-.42-.368-.751-.794-.739-1.287.035-2.603.525-3.866 1.163-1.179.596-2.385 1.36-3.547 2.097-.087.055-.174.11-.261.165-1.26.798-2.464 1.547-3.607 2.073-1.149.531-2.144.791-2.993.705-.423-.043-.801.262-.843.68s.267.792.69.834c1.26.127 2.558-.266 3.801-.839 1.25-.576 2.538-1.381 3.786-2.171.082-.052.164-.103.246-.155 1.179-.747 2.323-1.472 3.433-2.033 1.192-.602 2.263-.972 3.208-.998.426-.011.76-.362.747-.782z" fill="#c4c4c4" fill-rule="evenodd"/><path d="m879.481 355.874c1.722-1.734 5.003-4.109 9.445-5.212-2.502 1.222-4.286 3.23-5.952 6.46-.42.813-1.451 1.12-2.399.794-1.127-.387-1.882-1.249-1.094-2.042z" fill="#f0f0f0"/><g clip-rule="evenodd" fill-rule="evenodd"><path d="m914.709 348.35c-.124.174-.097.423.061.556l.011.009c1.365 1.147 4.774 4.009 5.359 8.671.027.217.211.365.411.332.199-.033.339-.236.312-.452-.626-4.981-4.233-8.009-5.604-9.16-.013-.011-.025-.021-.038-.031-.158-.133-.387-.1-.512.075z" fill="#a8a8a8"/><path d="m899.688 344.871c-.041-.209-.227-.339-.416-.29-1.705.446-3.667 1.684-5.003 4.007-.105.183-.059.424.103.537s.379.056.485-.127c1.222-2.126 3.015-3.254 4.561-3.658.189-.049.31-.259.27-.469z" fill="#e1e1e1"/><path d="m887.275 371.095c-.218.358-.104.824.254 1.042l7.34 4.462c.358.218.825.104 1.043-.254.217-.359.104-.825-.255-1.043l-7.34-4.462c-.358-.217-.824-.104-1.042.255z" fill="#969696"/><path d="m873.714 373.276c.149.392.587.589.979.44l6.091-2.315c.392-.148.589-.587.44-.978-.149-.392-.588-.589-.979-.44l-6.091 2.314c-.392.149-.589.587-.44.979z" fill="#969696"/><path d="m921.916 387.54c-.007-.562-.52-1.022-1.145-1.027l-22.183-.194.027 2.034 22.183.194c.625.006 1.126-.445 1.118-1.007z" fill="#91d7b9"/><path d="m895.159 371.927c-.325.28-.37.776-.099 1.109 3.775 4.645 6.519 7.551 9.192 9.553 2.691 2.016 5.275 3.091 8.677 4.135.405.124.832-.113.956-.529.123-.417-.105-.856-.51-.98-3.318-1.018-5.719-2.03-8.216-3.9-2.516-1.885-5.164-4.669-8.921-9.292-.271-.333-.754-.376-1.079-.096z" fill="#c4c4c4"/></g><path d="m892.546 365.303c.98-2.276 4.758-7.752 11.955-10.668.782-.317 2.923-1.09 5.522-.828-5.357 1.043-11.958 5.126-17.477 11.496z" fill="#c4c4c4"/><path clip-rule="evenodd" d="m917.538 390.579c-.031.184.1.358.292.39 1.029.166 1.489.582 1.691.975.211.412.175.872.073 1.166-.062.177.037.37.222.43.184.061.384-.033.446-.209.146-.418.204-1.07-.11-1.682-.324-.633-1.009-1.153-2.211-1.348-.192-.031-.373.093-.403.278z" fill="#ffb685" fill-rule="evenodd"/><circle fill="#000" r="1.45764" transform="matrix(-.980272 .197656 .197656 .980272 889.633 385.529)"/></g></g></svg>