<svg fill="none" height="551" viewBox="0 0 1052 551" width="1052" xmlns="http://www.w3.org/2000/svg" xmlns:xlink="http://www.w3.org/1999/xlink"><filter id="a" color-interpolation-filters="sRGB" filterUnits="userSpaceOnUse" height="209" width="115.736" x="220" y="333"><feFlood flood-opacity="0" result="BackgroundImageFix"/><feColorMatrix in="SourceAlpha" type="matrix" values="0 0 0 0 0 0 0 0 0 0 0 0 0 0 0 0 0 0 127 0"/><feOffset dx="8" dy="-4"/><feGaussianBlur stdDeviation="6"/><feColorMatrix type="matrix" values="0 0 0 0 0 0 0 0 0 0 0 0 0 0 0 0 0 0 0.1 0"/><feBlend in2="BackgroundImageFix" mode="normal" result="effect1_dropShadow"/><feBlend in="SourceGraphic" in2="effect1_dropShadow" mode="normal" result="shape"/></filter><filter id="b" color-interpolation-filters="sRGB" filterUnits="userSpaceOnUse" height="238.618" width="132.137" x="528.433" y="310.516"><feFlood flood-opacity="0" result="BackgroundImageFix"/><feColorMatrix in="SourceAlpha" type="matrix" values="0 0 0 0 0 0 0 0 0 0 0 0 0 0 0 0 0 0 127 0"/><feOffset dx="9.13369" dy="-4.56685"/><feGaussianBlur stdDeviation="6.85027"/><feColorMatrix type="matrix" values="0 0 0 0 0 0 0 0 0 0 0 0 0 0 0 0 0 0 0.1 0"/><feBlend in2="BackgroundImageFix" mode="normal" result="effect1_dropShadow"/><feBlend in="SourceGraphic" in2="effect1_dropShadow" mode="normal" result="shape"/></filter><filter id="c" color-interpolation-filters="sRGB" filterUnits="userSpaceOnUse" height="166.941" width="118.313" x="101.051" y="383.204"><feFlood flood-opacity="0" result="BackgroundImageFix"/><feColorMatrix in="SourceAlpha" type="matrix" values="0 0 0 0 0 0 0 0 0 0 0 0 0 0 0 0 0 0 127 0"/><feOffset dx="5.89804" dy="-2.94902"/><feGaussianBlur stdDeviation="4.42353"/><feColorMatrix type="matrix" values="0 0 0 0 0 0 0 0 0 0 0 0 0 0 0 0 0 0 0.1 0"/><feBlend in2="BackgroundImageFix" mode="normal" result="effect1_dropShadow"/><feBlend in="SourceGraphic" in2="effect1_dropShadow" mode="normal" result="shape"/></filter><filter id="d" color-interpolation-filters="sRGB" filterUnits="userSpaceOnUse" height="166.941" width="118.313" x="689.051" y="378.205"><feFlood flood-opacity="0" result="BackgroundImageFix"/><feColorMatrix in="SourceAlpha" type="matrix" values="0 0 0 0 0 0 0 0 0 0 0 0 0 0 0 0 0 0 127 0"/><feOffset dx="5.89804" dy="-2.94902"/><feGaussianBlur stdDeviation="4.42353"/><feColorMatrix type="matrix" values="0 0 0 0 0 0 0 0 0 0 0 0 0 0 0 0 0 0 0.1 0"/><feBlend in2="BackgroundImageFix" mode="normal" result="effect1_dropShadow"/><feBlend in="SourceGraphic" in2="effect1_dropShadow" mode="normal" result="shape"/></filter><filter id="e" color-interpolation-filters="sRGB" filterUnits="userSpaceOnUse" height="101.063" width="71.6248" x="865.215" y="444.859"><feFlood flood-opacity="0" result="BackgroundImageFix"/><feColorMatrix in="SourceAlpha" type="matrix" values="0 0 0 0 0 0 0 0 0 0 0 0 0 0 0 0 0 0 127 0"/><feOffset dx="3.57056" dy="-1.78528"/><feGaussianBlur stdDeviation="2.67792"/><feColorMatrix type="matrix" values="0 0 0 0 0 0 0 0 0 0 0 0 0 0 0 0 0 0 0.1 0"/><feBlend in2="BackgroundImageFix" mode="normal" result="effect1_dropShadow"/><feBlend in="SourceGraphic" in2="effect1_dropShadow" mode="normal" result="shape"/></filter><filter id="f" color-interpolation-filters="sRGB" filterUnits="userSpaceOnUse" height="195.104" width="138.274" x="354.6" y="354.036"><feFlood flood-opacity="0" result="BackgroundImageFix"/><feColorMatrix in="SourceAlpha" type="matrix" values="0 0 0 0 0 0 0 0 0 0 0 0 0 0 0 0 0 0 127 0"/><feOffset dx="6.89304" dy="-3.44652"/><feGaussianBlur stdDeviation="5.16978"/><feColorMatrix type="matrix" values="0 0 0 0 0 0 0 0 0 0 0 0 0 0 0 0 0 0 0.1 0"/><feBlend in2="BackgroundImageFix" mode="normal" result="effect1_dropShadow"/><feBlend in="SourceGraphic" in2="effect1_dropShadow" mode="normal" result="shape"/></filter><filter id="g" color-interpolation-filters="sRGB" filterUnits="userSpaceOnUse" height="205" width="213" x="647" y="19"><feFlood flood-opacity="0" result="BackgroundImageFix"/><feColorMatrix in="SourceAlpha" type="matrix" values="0 0 0 0 0 0 0 0 0 0 0 0 0 0 0 0 0 0 127 0"/><feOffset dx="12" dy="4"/><feGaussianBlur stdDeviation="2"/><feColorMatrix type="matrix" values="0 0 0 0 0 0 0 0 0 0 0 0 0 0 0 0 0 0 0.1 0"/><feBlend in2="BackgroundImageFix" mode="normal" result="effect1_dropShadow"/><feBlend in="SourceGraphic" in2="effect1_dropShadow" mode="normal" result="shape"/></filter><filter id="h" color-interpolation-filters="sRGB" filterUnits="userSpaceOnUse" height="50.1695" width="88.1356" x="316" y="76"><feFlood flood-opacity="0" result="BackgroundImageFix"/><feColorMatrix in="SourceAlpha" type="matrix" values="0 0 0 0 0 0 0 0 0 0 0 0 0 0 0 0 0 0 127 0"/><feOffset dx="5.42373" dy="2.71186"/><feGaussianBlur stdDeviation="1.35593"/><feColorMatrix type="matrix" values="0 0 0 0 0 0 0 0 0 0 0 0 0 0 0 0 0 0 0.1 0"/><feBlend in2="BackgroundImageFix" mode="normal" result="effect1_dropShadow"/><feBlend in="SourceGraphic" in2="effect1_dropShadow" mode="normal" result="shape"/></filter><filter id="i" color-interpolation-filters="sRGB" filterUnits="userSpaceOnUse" height="41.3898" width="72.7119" x="247" y="115"><feFlood flood-opacity="0" result="BackgroundImageFix"/><feColorMatrix in="SourceAlpha" type="matrix" values="0 0 0 0 0 0 0 0 0 0 0 0 0 0 0 0 0 0 127 0"/><feOffset dx="4.47458" dy="2.23729"/><feGaussianBlur stdDeviation="1.11864"/><feColorMatrix type="matrix" values="0 0 0 0 0 0 0 0 0 0 0 0 0 0 0 0 0 0 0.1 0"/><feBlend in2="BackgroundImageFix" mode="normal" result="effect1_dropShadow"/><feBlend in="SourceGraphic" in2="effect1_dropShadow" mode="normal" result="shape"/></filter><filter id="j" color-interpolation-filters="sRGB" filterUnits="userSpaceOnUse" height="28.8912" width="32.3506" x="834.506" y="465"><feFlood flood-opacity="0" result="BackgroundImageFix"/><feColorMatrix in="SourceAlpha" type="matrix" values="0 0 0 0 0 0 0 0 0 0 0 0 0 0 0 0 0 0 127 0"/><feOffset dx="4" dy="-2"/><feGaussianBlur stdDeviation=".5"/><feColorMatrix type="matrix" values="0 0 0 0 0 0 0 0 0 0 0 0 0 0 0 0 0 0 0.1 0"/><feBlend in2="BackgroundImageFix" mode="normal" result="effect1_dropShadow"/><feBlend in="SourceGraphic" in2="effect1_dropShadow" mode="normal" result="shape"/></filter><filter id="k" color-interpolation-filters="sRGB" filterUnits="userSpaceOnUse" height="127" width="301" x="731" y="0"><feFlood flood-opacity="0" result="BackgroundImageFix"/><feColorMatrix in="SourceAlpha" type="matrix" values="0 0 0 0 0 0 0 0 0 0 0 0 0 0 0 0 0 0 127 0"/><feOffset dx="4" dy="4"/><feGaussianBlur stdDeviation="2"/><feColorMatrix type="matrix" values="0 0 0 0 0 0 0 0 0 0 0 0 0 0 0 0 0 0 0.1 0"/><feBlend in2="BackgroundImageFix" mode="normal" result="effect1_dropShadow"/><feBlend in="SourceGraphic" in2="effect1_dropShadow" mode="normal" result="shape"/></filter><filter id="l" color-interpolation-filters="sRGB" filterUnits="userSpaceOnUse" height="35" width="532" x="0" y="513"><feFlood flood-opacity="0" result="BackgroundImageFix"/><feColorMatrix in="SourceAlpha" type="matrix" values="0 0 0 0 0 0 0 0 0 0 0 0 0 0 0 0 0 0 127 0"/><feOffset dx="10"/><feGaussianBlur stdDeviation="1"/><feColorMatrix type="matrix" values="0 0 0 0 0.4125 0 0 0 0 0.4125 0 0 0 0 0.4125 0 0 0 0.1 0"/><feBlend in2="BackgroundImageFix" mode="normal" result="effect1_dropShadow"/><feBlend in="SourceGraphic" in2="effect1_dropShadow" mode="normal" result="shape"/></filter><filter id="m" color-interpolation-filters="sRGB" filterUnits="userSpaceOnUse" height="35" width="532" x="520" y="513"><feFlood flood-opacity="0" result="BackgroundImageFix"/><feColorMatrix in="SourceAlpha" type="matrix" values="0 0 0 0 0 0 0 0 0 0 0 0 0 0 0 0 0 0 127 0"/><feOffset dx="10"/><feGaussianBlur stdDeviation="1"/><feColorMatrix type="matrix" values="0 0 0 0 0.4125 0 0 0 0 0.4125 0 0 0 0 0.4125 0 0 0 0.1 0"/><feBlend in2="BackgroundImageFix" mode="normal" result="effect1_dropShadow"/><feBlend in="SourceGraphic" in2="effect1_dropShadow" mode="normal" result="shape"/></filter><filter id="n" color-interpolation-filters="sRGB" filterUnits="userSpaceOnUse" height="25.6409" width="33.8232" x="489.609" y="485.059"><feFlood flood-opacity="0" result="BackgroundImageFix"/><feColorMatrix in="SourceAlpha" type="matrix" values="0 0 0 0 0 0 0 0 0 0 0 0 0 0 0 0 0 0 127 0"/><feOffset dx="4" dy="-2"/><feGaussianBlur stdDeviation=".5"/><feColorMatrix type="matrix" values="0 0 0 0 0 0 0 0 0 0 0 0 0 0 0 0 0 0 0.1 0"/><feBlend in2="BackgroundImageFix" mode="normal" result="effect1_dropShadow"/><feBlend in="SourceGraphic" in2="effect1_dropShadow" mode="normal" result="shape"/></filter><g filter="url(#a)"><path d="m252.54 514.889 9.46 19.111h37.427l11.212-15.289 5.097-161.302-91.736 32.872z" fill="#f3e8cb"/><path d="m288.979 506.48 21.788-141.808-4.205 151.746z" fill="#c1dd9b"/><path d="m261.841 420.095-34.019-27.521 7.263 22.17z" fill="#e3e687"/><path d="m244.258 366.2-20.258 24.081 91.736-32.872-25.228-8.409z" fill="#91d7b9"/><path d="m269.486 448.38-15.672 12.231 8.409 19.494z" fill="#a2daaf"/></g><g filter="url(#b)"><path d="m565.584 518.18 10.801 21.82h42.731l12.801-17.456 5.819-184.16-104.736 37.53z" fill="#f3e8cb"/><path d="m607.188 508.579 24.875-161.903-4.801 173.25z" fill="#e3e687"/><path d="m576.203 409.953-38.839-31.421 8.291 25.311z" fill="#a2daaf"/><path d="m556.129 348.421-23.129 27.493 104.736-37.53-28.803-9.601z" fill="#91d7b9"/><path d="m584.931 442.247-17.892 13.965 9.601 22.256z" fill="#e3e687"/></g><path d="m719.143 528.767 7.226-21.044-53.538 2.786 1.072 20.612z" fill="#000"/><path d="m628.663 533.475-9.371-20.181 53.539-2.785 1.072 20.612z" fill="#000"/><path d="m672.56 515.622-5.557-106.809" stroke="#000" stroke-width="2.14443"/><g fill="#000"><path d="m675.825 502.837-4.902-94.228 50.142 91.874z"/><path d="m668.137 503.237-4.903-94.227-40.337 96.581z"/><path d="m274.791 539.354 10.296-19.725-53.352-5.262-2.026 20.541z"/><path d="m184.627 530.461-6.244-21.356 53.352 5.262-2.026 20.541z"/></g><path d="m230.701 519.382 10.498-106.437" stroke="#000" stroke-width="2.14443"/><path d="m235.844 507.23 9.261-93.899 35.822 98.346z" fill="#000"/><path d="m228.183 506.475 9.261-93.9-54.344 89.453z" fill="#000"/><g filter="url(#c)"><path d="m127.97 518.581 3.092 15.415 26.653 7.14 10.902-8.75 34.398-113.899-71.6 5.911z" fill="#f3e8cb"/><path d="m155.524 519.543 42.567-96.832-31.941 107.263z" fill="#e3e687"/><path d="m152.676 452.848-18.976-26.088.943 17.173z" fill="#a2daaf"/><path d="m150.436 411.114-19.021 13.284 71.6-5.91-16.361-10.801z" fill="#91d7b9"/><path d="m152.725 474.449-13.494 5.722 2.27 15.486z" fill="#e3e687"/></g><g filter="url(#d)"><path d="m715.97 513.582 3.092 15.415 26.653 7.14 10.902-8.75 34.398-113.899-71.6 5.911z" fill="#f3e8cb"/><path d="m743.524 514.544 42.567-96.832-31.941 107.263z" fill="#e3e687"/><path d="m740.676 447.849-18.976-26.088.943 17.173z" fill="#a2daaf"/><path d="m738.436 406.115-19.021 13.284 71.6-5.91-16.361-10.801z" fill="#91d7b9"/><path d="m740.725 469.45-13.494 5.722 2.27 15.486z" fill="#e3e687"/></g><g filter="url(#e)"><path d="m881.511 526.814 1.872 9.332 16.135 4.322 6.599-5.296 20.825-68.952-43.345 3.578z" fill="#f3e8cb"/><path d="m898.192 527.397 25.769-58.62-19.336 64.935z" fill="#91d7b9"/><path d="m896.468 487.021-11.488-15.793.57 10.396z" fill="#e3e687"/><path d="m895.111 461.755-11.514 8.042 43.345-3.578-9.905-6.539z" fill="#91d7b9"/><path d="m896.497 500.098-8.169 3.463 1.375 9.376z" fill="#a2daaf"/></g><g filter="url(#f)"><path d="m447.626 512.252-3.612 18.016-31.15 8.343-12.741-10.225-40.201-133.114 83.678 6.908z" fill="#f3e8cb"/><path d="m415.424 513.377-49.748-113.168 37.329 125.359z" fill="#e3e687"/><path d="m418.752 435.43 22.178-30.49-1.102 20.071z" fill="#a2daaf"/><path d="m421.37 386.654 22.23 15.526-83.679-6.908 19.122-12.623z" fill="#91d7b9"/><path d="m418.696 460.675 15.77 6.687-2.653 18.099z" fill="#e3e687"/></g><g filter="url(#g)"><circle cx="745.5" cy="117.5" fill="#ffbd3a" r="98.5"/></g><g filter="url(#h)"><path d="m351.932 120.746c-4.068-9.492-10.847-23.3901-35.932-25.085 7.797-2.0339 26.102-2.3729 35.932 8.136 8.136-11.5258 11.526-14.9156 44.068-27.797-29.823 11.805-35.387 24.672-44.061 44.731z" fill="#000"/></g><g filter="url(#i)"><path d="m276.644 151.915c-3.356-7.83-8.949-19.296-29.644-20.695 6.432-1.678 21.534-1.957 29.644 6.712 6.712-9.508 9.509-12.305 36.356-22.932-24.604 9.739-29.194 20.354-36.351 36.903z" fill="#000"/></g><g filter="url(#j)"><g fill="#000"><path d="m840.767 487.546c2.501-16.552 14.995-17.969 17.367-15.271z"/><path d="m840.767 487.546c16.667-.442 19.716-12.599 17.367-15.271z"/><path d="m840.767 487.546.25 6.346-6.511-7.405z"/></g><circle cx="852.417" cy="474.933" fill="#fff" r="1.06735" transform="matrix(.66033334 .75097262 -.75097262 .66033334 646.199318 -478.822925)"/></g><g fill="#fff6f0" filter="url(#k)"><rect height="45.7692" rx="22.8846" width="293" x="731" y="73.2305"/><rect height="37.7596" rx="18.8798" width="247.807" x="753.597" y="44.625"/><rect height="37.7596" rx="18.8798" width="184.537" x="785.231" y="18.3076"/><rect height="37.7596" rx="18.8798" width="109.216" x="822.892"/></g><path d="m716.143 529.767 7.226-21.044-53.538 2.786 1.072 20.612z" fill="#000"/><path d="m625.663 534.475-9.371-20.181 53.539-2.785 1.072 20.612z" fill="#000"/><path d="m669.56 516.622-5.557-106.809" stroke="#000" stroke-width="2.14443"/><path d="m672.825 503.837-4.902-94.228 50.142 91.874z" fill="#000"/><path d="m665.137 504.237-4.903-94.227-40.337 96.581z" fill="#000"/><path d="m271.791 540.354 10.296-19.725-53.352-5.262-2.026 20.541z" fill="#000"/><path d="m181.627 531.461-6.244-21.356 53.352 5.262-2.026 20.541z" fill="#000"/><path d="m227.701 520.382 10.498-106.437" stroke="#000" stroke-width="2.14443"/><path d="m232.844 508.23 9.261-93.899 35.822 98.346z" fill="#000"/><path d="m225.183 507.475 9.261-93.9-54.344 89.453z" fill="#000"/><g filter="url(#l)"><path clip-rule="evenodd" d="m499.25 515.049c-1.454 8.766-9.071 15.451-18.25 15.451-9.196 0-16.825-6.709-18.258-15.5h-.484c-1.433 8.791-9.062 15.5-18.258 15.5s-16.825-6.709-18.258-15.5h-.484c-1.433 8.791-9.062 15.5-18.258 15.5s-16.825-6.709-18.258-15.5h-.484c-1.433 8.791-9.062 15.5-18.258 15.5s-16.825-6.709-18.258-15.5h-.484c-1.433 8.791-9.062 15.5-18.258 15.5s-16.825-6.709-18.258-15.5h-.484c-1.433 8.791-9.062 15.5-18.258 15.5s-16.825-6.709-18.258-15.5h-.484c-1.433 8.791-9.062 15.5-18.258 15.5s-16.825-6.709-18.258-15.5h-.484c-1.433 8.791-9.062 15.5-18.258 15.5s-16.825-6.709-18.258-15.5h-.484c-1.433 8.791-9.062 15.5-18.258 15.5s-16.825-6.709-18.258-15.5h-.484c-1.433 8.791-9.062 15.5-18.258 15.5s-16.825-6.709-18.258-15.5h-.484c-1.433 8.791-9.062 15.5-18.258 15.5s-16.8246-6.709-18.258-15.5h-.484c-1.4334 8.791-9.0622 15.5-18.258 15.5s-16.8246-6.709-18.258-15.5h-.484c-1.4334 8.791-9.0622 15.5-18.258 15.5s-16.8246-6.709-18.258-15.5h-.4838c-1.4331 8.791-9.06204 15.501-18.2582 15.501v15.499h520v-15.667c-.818.11-1.652.167-2.5.167-9.179 0-16.796-6.685-18.25-15.451z" fill="#89cdd3" fill-rule="evenodd"/></g><g filter="url(#m)"><path clip-rule="evenodd" d="m1019.25 515.049c-1.45 8.766-9.07 15.451-18.25 15.451-9.196 0-16.825-6.709-18.258-15.5h-.484c-1.433 8.791-9.062 15.5-18.258 15.5s-16.825-6.709-18.258-15.5h-.484c-1.433 8.791-9.062 15.5-18.258 15.5s-16.825-6.709-18.258-15.5h-.484c-1.433 8.791-9.062 15.5-18.258 15.5s-16.825-6.709-18.258-15.5h-.484c-1.433 8.791-9.062 15.5-18.258 15.5s-16.825-6.709-18.258-15.5h-.484c-1.433 8.791-9.062 15.5-18.258 15.5s-16.825-6.709-18.258-15.5h-.484c-1.433 8.791-9.062 15.5-18.258 15.5s-16.825-6.709-18.258-15.5h-.484c-1.433 8.791-9.062 15.5-18.258 15.5s-16.825-6.709-18.258-15.5h-.484c-1.433 8.791-9.062 15.5-18.258 15.5s-16.825-6.709-18.258-15.5h-.484c-1.433 8.791-9.062 15.5-18.258 15.5s-16.825-6.709-18.258-15.5h-.484c-1.433 8.791-9.062 15.5-18.258 15.5s-16.825-6.709-18.258-15.5h-.484c-1.433 8.791-9.062 15.5-18.258 15.5s-16.825-6.709-18.258-15.5h-.484c-1.433 8.791-9.062 15.5-18.258 15.5s-16.825-6.709-18.258-15.5h-.484c-1.433 8.791-9.062 15.501-18.258 15.501v15.499h520v-15.667c-.82.11-1.65.167-2.5.167-9.18 0-16.8-6.685-18.25-15.451z" fill="#89cdd3" fill-rule="evenodd"/></g><g filter="url(#n)"><g fill="#000"><path d="m495.531 494.325c16.469-2.998 21.859 8.362 20.075 11.481z"/><path d="m495.531 494.325c5.819 15.624 18.308 14.569 20.075 11.481z"/><path d="m495.531 494.325-5.922 2.293 4.895-8.559z"/></g><circle cx="511.239" cy="501.259" fill="#fff" r="1.06735" transform="matrix(-.49644378 .86806888 -.86806888 -.49644378 1200.167758 306.315249)"/></g></svg>