<svg width="1052" height="551" viewBox="0 0 1052 551" fill="none" xmlns="http://www.w3.org/2000/svg">
<g filter="url(#filter0_d)">
<path d="M252.54 514.889L262 534H299.427L310.639 518.711L315.736 357.409L224 390.281L252.54 514.889Z" fill="#F3E8CB"/>
<path d="M288.979 506.48L310.767 364.672L306.562 516.418L288.979 506.48Z" fill="#C1DD9B"/>
<path d="M261.841 420.095L227.822 392.574L235.085 414.744L261.841 420.095Z" fill="#E3E687"/>
<path d="M244.258 366.2L224 390.281L315.736 357.409L290.508 349L244.258 366.2Z" fill="#91D7B9"/>
<path d="M269.486 448.38L253.814 460.611L262.223 480.105L269.486 448.38Z" fill="#A2DAAF"/>
</g>
<g filter="url(#filter1_d)">
<path d="M565.584 518.18L576.385 540H619.116L631.917 522.544L637.736 338.384L533 375.914L565.584 518.18Z" fill="#F3E8CB"/>
<path d="M607.188 508.579L632.063 346.676L627.262 519.926L607.188 508.579Z" fill="#E3E687"/>
<path d="M576.203 409.953L537.364 378.532L545.655 403.843L576.203 409.953Z" fill="#A2DAAF"/>
<path d="M556.129 348.421L533 375.914L637.736 338.384L608.933 328.783L556.129 348.421Z" fill="#91D7B9"/>
<path d="M584.931 442.247L567.039 456.212L576.64 478.468L584.931 442.247Z" fill="#E3E687"/>
</g>
<path d="M719.143 528.767L726.369 507.723L672.831 510.509L673.903 531.121L719.143 528.767Z" fill="black"/>
<path d="M628.663 533.475L619.292 513.294L672.831 510.509L673.903 531.121L628.663 533.475Z" fill="black"/>
<path d="M672.56 515.622L667.003 408.813" stroke="black" stroke-width="2.14443"/>
<path d="M675.825 502.837L670.923 408.609L721.065 500.483L675.825 502.837Z" fill="black"/>
<path d="M668.137 503.237L663.234 409.01L622.897 505.591L668.137 503.237Z" fill="black"/>
<path d="M274.791 539.354L285.087 519.629L231.735 514.367L229.709 534.908L274.791 539.354Z" fill="black"/>
<path d="M184.627 530.461L178.383 509.105L231.735 514.367L229.709 534.908L184.627 530.461Z" fill="black"/>
<path d="M230.701 519.382L241.199 412.945" stroke="black" stroke-width="2.14443"/>
<path d="M235.844 507.23L245.105 413.331L280.927 511.677L235.844 507.23Z" fill="black"/>
<path d="M228.183 506.475L237.444 412.575L183.1 502.028L228.183 506.475Z" fill="black"/>
<g filter="url(#filter2_d)">
<path d="M127.97 518.581L131.062 533.996L157.715 541.136L168.617 532.386L203.015 418.487L131.415 424.398L127.97 518.581Z" fill="#F3E8CB"/>
<path d="M155.524 519.543L198.091 422.711L166.15 529.974L155.524 519.543Z" fill="#E3E687"/>
<path d="M152.676 452.848L133.7 426.76L134.643 443.933L152.676 452.848Z" fill="#A2DAAF"/>
<path d="M150.436 411.114L131.415 424.398L203.015 418.488L186.654 407.687L150.436 411.114Z" fill="#91D7B9"/>
<path d="M152.725 474.449L139.231 480.171L141.501 495.657L152.725 474.449Z" fill="#E3E687"/>
</g>
<g filter="url(#filter3_d)">
<path d="M715.97 513.582L719.062 528.997L745.715 536.137L756.617 527.387L791.015 413.488L719.415 419.399L715.97 513.582Z" fill="#F3E8CB"/>
<path d="M743.524 514.544L786.091 417.712L754.15 524.975L743.524 514.544Z" fill="#E3E687"/>
<path d="M740.676 447.849L721.7 421.761L722.643 438.934L740.676 447.849Z" fill="#A2DAAF"/>
<path d="M738.436 406.115L719.415 419.399L791.015 413.489L774.654 402.688L738.436 406.115Z" fill="#91D7B9"/>
<path d="M740.725 469.45L727.231 475.172L729.501 490.658L740.725 469.45Z" fill="#E3E687"/>
</g>
<g filter="url(#filter4_d)">
<path d="M881.511 526.814L883.383 536.146L899.518 540.468L906.117 535.172L926.942 466.22L883.597 469.798L881.511 526.814Z" fill="#F3E8CB"/>
<path d="M898.192 527.397L923.961 468.777L904.625 533.712L898.192 527.397Z" fill="#91D7B9"/>
<path d="M896.468 487.021L884.98 471.228L885.55 481.624L896.468 487.021Z" fill="#E3E687"/>
<path d="M895.111 461.755L883.597 469.797L926.942 466.219L917.037 459.68L895.111 461.755Z" fill="#91D7B9"/>
<path d="M896.497 500.098L888.328 503.561L889.703 512.937L896.497 500.098Z" fill="#A2DAAF"/>
</g>
<g filter="url(#filter5_d)">
<path d="M447.626 512.252L444.014 530.268L412.864 538.611L400.123 528.386L359.922 395.272L443.6 402.18L447.626 512.252Z" fill="#F3E8CB"/>
<path d="M415.424 513.377L365.676 400.209L403.005 525.568L415.424 513.377Z" fill="#E3E687"/>
<path d="M418.752 435.43L440.93 404.94L439.828 425.011L418.752 435.43Z" fill="#A2DAAF"/>
<path d="M421.37 386.654L443.6 402.18L359.921 395.272L379.043 382.649L421.37 386.654Z" fill="#91D7B9"/>
<path d="M418.696 460.675L434.466 467.362L431.813 485.461L418.696 460.675Z" fill="#E3E687"/>
</g>
<g filter="url(#filter6_d)">
<circle cx="745.5" cy="117.5" r="98.5" fill="#FFBD3A"/>
</g>
<g filter="url(#filter7_d)">
<path d="M351.932 120.746C347.864 111.254 341.085 97.3559 316 95.661C323.797 93.6271 342.102 93.2881 351.932 103.797C360.068 92.2712 363.458 88.8814 396 76C366.177 87.805 360.613 100.672 351.939 120.731L351.932 120.746Z" fill="black"/>
</g>
<g filter="url(#filter8_d)">
<path d="M276.644 151.915C273.288 144.085 267.695 132.619 247 131.22C253.432 129.542 268.534 129.263 276.644 137.932C283.356 128.424 286.153 125.627 313 115C288.396 124.739 283.806 135.354 276.649 151.903L276.644 151.915Z" fill="black"/>
</g>
<g filter="url(#filter9_d)">
<path d="M840.767 487.546C843.268 470.994 855.762 469.577 858.134 472.275L840.767 487.546Z" fill="black"/>
<path d="M840.767 487.546C857.434 487.104 860.483 474.947 858.134 472.275L840.767 487.546Z" fill="black"/>
<path d="M840.767 487.546L841.017 493.892L834.506 486.487L840.767 487.546Z" fill="black"/>
<circle cx="852.417" cy="474.933" r="1.06735" transform="rotate(48.6747 852.417 474.933)" fill="white"/>
</g>
<g filter="url(#filter10_d)">
<rect x="731" y="73.2305" width="293" height="45.7692" rx="22.8846" fill="#FFF6F0"/>
<rect x="753.597" y="44.625" width="247.807" height="37.7596" rx="18.8798" fill="#FFF6F0"/>
<rect x="785.231" y="18.3076" width="184.537" height="37.7596" rx="18.8798" fill="#FFF6F0"/>
<rect x="822.892" width="109.216" height="37.7596" rx="18.8798" fill="#FFF6F0"/>
</g>
<path d="M716.143 529.767L723.369 508.723L669.831 511.509L670.903 532.121L716.143 529.767Z" fill="black"/>
<path d="M625.663 534.475L616.292 514.294L669.831 511.509L670.903 532.121L625.663 534.475Z" fill="black"/>
<path d="M669.56 516.622L664.003 409.813" stroke="black" stroke-width="2.14443"/>
<path d="M672.825 503.837L667.923 409.609L718.065 501.483L672.825 503.837Z" fill="black"/>
<path d="M665.137 504.237L660.234 410.01L619.897 506.591L665.137 504.237Z" fill="black"/>
<path d="M271.791 540.354L282.087 520.629L228.735 515.367L226.709 535.908L271.791 540.354Z" fill="black"/>
<path d="M181.627 531.461L175.383 510.105L228.735 515.367L226.709 535.908L181.627 531.461Z" fill="black"/>
<path d="M227.701 520.382L238.199 413.945" stroke="black" stroke-width="2.14443"/>
<path d="M232.844 508.23L242.105 414.331L277.927 512.677L232.844 508.23Z" fill="black"/>
<path d="M225.183 507.475L234.444 413.575L180.1 503.028L225.183 507.475Z" fill="black"/>
<g filter="url(#filter11_d)">
<path fill-rule="evenodd" clip-rule="evenodd" d="M499.25 515.049C497.796 523.815 490.179 530.5 481 530.5C471.804 530.5 464.175 523.791 462.742 515H462.258C460.825 523.791 453.196 530.5 444 530.5C434.804 530.5 427.175 523.791 425.742 515H425.258C423.825 523.791 416.196 530.5 407 530.5C397.804 530.5 390.175 523.791 388.742 515H388.258C386.825 523.791 379.196 530.5 370 530.5C360.804 530.5 353.175 523.791 351.742 515H351.258C349.825 523.791 342.196 530.5 333 530.5C323.804 530.5 316.175 523.791 314.742 515H314.258C312.825 523.791 305.196 530.5 296 530.5C286.804 530.5 279.175 523.791 277.742 515H277.258C275.825 523.791 268.196 530.5 259 530.5C249.804 530.5 242.175 523.791 240.742 515H240.258C238.825 523.791 231.196 530.5 222 530.5C212.804 530.5 205.175 523.791 203.742 515H203.258C201.825 523.791 194.196 530.5 185 530.5C175.804 530.5 168.175 523.791 166.742 515H166.258C164.825 523.791 157.196 530.5 148 530.5C138.804 530.5 131.175 523.791 129.742 515H129.258C127.825 523.791 120.196 530.5 111 530.5C101.804 530.5 94.1754 523.791 92.742 515H92.258C90.8246 523.791 83.1958 530.5 74 530.5C64.8042 530.5 57.1754 523.791 55.742 515H55.258C53.8246 523.791 46.1958 530.5 37 530.5C27.8042 530.5 20.1754 523.791 18.742 515H18.2582C16.8251 523.791 9.19616 530.501 0 530.501V546H520V530.333C519.182 530.443 518.348 530.5 517.5 530.5C508.321 530.5 500.704 523.815 499.25 515.049Z" fill="#89CDD3"/>
</g>
<g filter="url(#filter12_d)">
<path fill-rule="evenodd" clip-rule="evenodd" d="M1019.25 515.049C1017.8 523.815 1010.18 530.5 1001 530.5C991.804 530.5 984.175 523.791 982.742 515H982.258C980.825 523.791 973.196 530.5 964 530.5C954.804 530.5 947.175 523.791 945.742 515H945.258C943.825 523.791 936.196 530.5 927 530.5C917.804 530.5 910.175 523.791 908.742 515H908.258C906.825 523.791 899.196 530.5 890 530.5C880.804 530.5 873.175 523.791 871.742 515H871.258C869.825 523.791 862.196 530.5 853 530.5C843.804 530.5 836.175 523.791 834.742 515H834.258C832.825 523.791 825.196 530.5 816 530.5C806.804 530.5 799.175 523.791 797.742 515H797.258C795.825 523.791 788.196 530.5 779 530.5C769.804 530.5 762.175 523.791 760.742 515H760.258C758.825 523.791 751.196 530.5 742 530.5C732.804 530.5 725.175 523.791 723.742 515H723.258C721.825 523.791 714.196 530.5 705 530.5C695.804 530.5 688.175 523.791 686.742 515H686.258C684.825 523.791 677.196 530.5 668 530.5C658.804 530.5 651.175 523.791 649.742 515H649.258C647.825 523.791 640.196 530.5 631 530.5C621.804 530.5 614.175 523.791 612.742 515H612.258C610.825 523.791 603.196 530.5 594 530.5C584.804 530.5 577.175 523.791 575.742 515H575.258C573.825 523.791 566.196 530.5 557 530.5C547.804 530.5 540.175 523.791 538.742 515H538.258C536.825 523.791 529.196 530.501 520 530.501V546H1040V530.333C1039.18 530.443 1038.35 530.5 1037.5 530.5C1028.32 530.5 1020.7 523.815 1019.25 515.049Z" fill="#89CDD3"/>
</g>
<g filter="url(#filter13_d)">
<path d="M495.531 494.325C512 491.327 517.39 502.687 515.606 505.806L495.531 494.325Z" fill="black"/>
<path d="M495.531 494.325C501.35 509.949 513.839 508.894 515.606 505.806L495.531 494.325Z" fill="black"/>
<path d="M495.531 494.325L489.609 496.618L494.504 488.059L495.531 494.325Z" fill="black"/>
<circle cx="511.239" cy="501.259" r="1.06735" transform="rotate(119.765 511.239 501.259)" fill="white"/>
</g>
<defs>
<filter id="filter0_d" x="220" y="333" width="115.736" height="209" filterUnits="userSpaceOnUse" color-interpolation-filters="sRGB">
<feFlood flood-opacity="0" result="BackgroundImageFix"/>
<feColorMatrix in="SourceAlpha" type="matrix" values="0 0 0 0 0 0 0 0 0 0 0 0 0 0 0 0 0 0 127 0"/>
<feOffset dx="8" dy="-4"/>
<feGaussianBlur stdDeviation="6"/>
<feColorMatrix type="matrix" values="0 0 0 0 0 0 0 0 0 0 0 0 0 0 0 0 0 0 0.1 0"/>
<feBlend mode="normal" in2="BackgroundImageFix" result="effect1_dropShadow"/>
<feBlend mode="normal" in="SourceGraphic" in2="effect1_dropShadow" result="shape"/>
</filter>
<filter id="filter1_d" x="528.433" y="310.516" width="132.137" height="238.618" filterUnits="userSpaceOnUse" color-interpolation-filters="sRGB">
<feFlood flood-opacity="0" result="BackgroundImageFix"/>
<feColorMatrix in="SourceAlpha" type="matrix" values="0 0 0 0 0 0 0 0 0 0 0 0 0 0 0 0 0 0 127 0"/>
<feOffset dx="9.13369" dy="-4.56685"/>
<feGaussianBlur stdDeviation="6.85027"/>
<feColorMatrix type="matrix" values="0 0 0 0 0 0 0 0 0 0 0 0 0 0 0 0 0 0 0.1 0"/>
<feBlend mode="normal" in2="BackgroundImageFix" result="effect1_dropShadow"/>
<feBlend mode="normal" in="SourceGraphic" in2="effect1_dropShadow" result="shape"/>
</filter>
<filter id="filter2_d" x="101.051" y="383.204" width="118.313" height="166.941" filterUnits="userSpaceOnUse" color-interpolation-filters="sRGB">
<feFlood flood-opacity="0" result="BackgroundImageFix"/>
<feColorMatrix in="SourceAlpha" type="matrix" values="0 0 0 0 0 0 0 0 0 0 0 0 0 0 0 0 0 0 127 0"/>
<feOffset dx="5.89804" dy="-2.94902"/>
<feGaussianBlur stdDeviation="4.42353"/>
<feColorMatrix type="matrix" values="0 0 0 0 0 0 0 0 0 0 0 0 0 0 0 0 0 0 0.1 0"/>
<feBlend mode="normal" in2="BackgroundImageFix" result="effect1_dropShadow"/>
<feBlend mode="normal" in="SourceGraphic" in2="effect1_dropShadow" result="shape"/>
</filter>
<filter id="filter3_d" x="689.051" y="378.205" width="118.313" height="166.941" filterUnits="userSpaceOnUse" color-interpolation-filters="sRGB">
<feFlood flood-opacity="0" result="BackgroundImageFix"/>
<feColorMatrix in="SourceAlpha" type="matrix" values="0 0 0 0 0 0 0 0 0 0 0 0 0 0 0 0 0 0 127 0"/>
<feOffset dx="5.89804" dy="-2.94902"/>
<feGaussianBlur stdDeviation="4.42353"/>
<feColorMatrix type="matrix" values="0 0 0 0 0 0 0 0 0 0 0 0 0 0 0 0 0 0 0.1 0"/>
<feBlend mode="normal" in2="BackgroundImageFix" result="effect1_dropShadow"/>
<feBlend mode="normal" in="SourceGraphic" in2="effect1_dropShadow" result="shape"/>
</filter>
<filter id="filter4_d" x="865.215" y="444.859" width="71.6248" height="101.063" filterUnits="userSpaceOnUse" color-interpolation-filters="sRGB">
<feFlood flood-opacity="0" result="BackgroundImageFix"/>
<feColorMatrix in="SourceAlpha" type="matrix" values="0 0 0 0 0 0 0 0 0 0 0 0 0 0 0 0 0 0 127 0"/>
<feOffset dx="3.57056" dy="-1.78528"/>
<feGaussianBlur stdDeviation="2.67792"/>
<feColorMatrix type="matrix" values="0 0 0 0 0 0 0 0 0 0 0 0 0 0 0 0 0 0 0.1 0"/>
<feBlend mode="normal" in2="BackgroundImageFix" result="effect1_dropShadow"/>
<feBlend mode="normal" in="SourceGraphic" in2="effect1_dropShadow" result="shape"/>
</filter>
<filter id="filter5_d" x="354.6" y="354.036" width="138.274" height="195.104" filterUnits="userSpaceOnUse" color-interpolation-filters="sRGB">
<feFlood flood-opacity="0" result="BackgroundImageFix"/>
<feColorMatrix in="SourceAlpha" type="matrix" values="0 0 0 0 0 0 0 0 0 0 0 0 0 0 0 0 0 0 127 0"/>
<feOffset dx="6.89304" dy="-3.44652"/>
<feGaussianBlur stdDeviation="5.16978"/>
<feColorMatrix type="matrix" values="0 0 0 0 0 0 0 0 0 0 0 0 0 0 0 0 0 0 0.1 0"/>
<feBlend mode="normal" in2="BackgroundImageFix" result="effect1_dropShadow"/>
<feBlend mode="normal" in="SourceGraphic" in2="effect1_dropShadow" result="shape"/>
</filter>
<filter id="filter6_d" x="647" y="19" width="213" height="205" filterUnits="userSpaceOnUse" color-interpolation-filters="sRGB">
<feFlood flood-opacity="0" result="BackgroundImageFix"/>
<feColorMatrix in="SourceAlpha" type="matrix" values="0 0 0 0 0 0 0 0 0 0 0 0 0 0 0 0 0 0 127 0"/>
<feOffset dx="12" dy="4"/>
<feGaussianBlur stdDeviation="2"/>
<feColorMatrix type="matrix" values="0 0 0 0 0 0 0 0 0 0 0 0 0 0 0 0 0 0 0.1 0"/>
<feBlend mode="normal" in2="BackgroundImageFix" result="effect1_dropShadow"/>
<feBlend mode="normal" in="SourceGraphic" in2="effect1_dropShadow" result="shape"/>
</filter>
<filter id="filter7_d" x="316" y="76" width="88.1356" height="50.1695" filterUnits="userSpaceOnUse" color-interpolation-filters="sRGB">
<feFlood flood-opacity="0" result="BackgroundImageFix"/>
<feColorMatrix in="SourceAlpha" type="matrix" values="0 0 0 0 0 0 0 0 0 0 0 0 0 0 0 0 0 0 127 0"/>
<feOffset dx="5.42373" dy="2.71186"/>
<feGaussianBlur stdDeviation="1.35593"/>
<feColorMatrix type="matrix" values="0 0 0 0 0 0 0 0 0 0 0 0 0 0 0 0 0 0 0.1 0"/>
<feBlend mode="normal" in2="BackgroundImageFix" result="effect1_dropShadow"/>
<feBlend mode="normal" in="SourceGraphic" in2="effect1_dropShadow" result="shape"/>
</filter>
<filter id="filter8_d" x="247" y="115" width="72.7119" height="41.3898" filterUnits="userSpaceOnUse" color-interpolation-filters="sRGB">
<feFlood flood-opacity="0" result="BackgroundImageFix"/>
<feColorMatrix in="SourceAlpha" type="matrix" values="0 0 0 0 0 0 0 0 0 0 0 0 0 0 0 0 0 0 127 0"/>
<feOffset dx="4.47458" dy="2.23729"/>
<feGaussianBlur stdDeviation="1.11864"/>
<feColorMatrix type="matrix" values="0 0 0 0 0 0 0 0 0 0 0 0 0 0 0 0 0 0 0.1 0"/>
<feBlend mode="normal" in2="BackgroundImageFix" result="effect1_dropShadow"/>
<feBlend mode="normal" in="SourceGraphic" in2="effect1_dropShadow" result="shape"/>
</filter>
<filter id="filter9_d" x="834.506" y="465" width="32.3506" height="28.8912" filterUnits="userSpaceOnUse" color-interpolation-filters="sRGB">
<feFlood flood-opacity="0" result="BackgroundImageFix"/>
<feColorMatrix in="SourceAlpha" type="matrix" values="0 0 0 0 0 0 0 0 0 0 0 0 0 0 0 0 0 0 127 0"/>
<feOffset dx="4" dy="-2"/>
<feGaussianBlur stdDeviation="0.5"/>
<feColorMatrix type="matrix" values="0 0 0 0 0 0 0 0 0 0 0 0 0 0 0 0 0 0 0.1 0"/>
<feBlend mode="normal" in2="BackgroundImageFix" result="effect1_dropShadow"/>
<feBlend mode="normal" in="SourceGraphic" in2="effect1_dropShadow" result="shape"/>
</filter>
<filter id="filter10_d" x="731" y="0" width="301" height="127" filterUnits="userSpaceOnUse" color-interpolation-filters="sRGB">
<feFlood flood-opacity="0" result="BackgroundImageFix"/>
<feColorMatrix in="SourceAlpha" type="matrix" values="0 0 0 0 0 0 0 0 0 0 0 0 0 0 0 0 0 0 127 0"/>
<feOffset dx="4" dy="4"/>
<feGaussianBlur stdDeviation="2"/>
<feColorMatrix type="matrix" values="0 0 0 0 0 0 0 0 0 0 0 0 0 0 0 0 0 0 0.1 0"/>
<feBlend mode="normal" in2="BackgroundImageFix" result="effect1_dropShadow"/>
<feBlend mode="normal" in="SourceGraphic" in2="effect1_dropShadow" result="shape"/>
</filter>
<filter id="filter11_d" x="0" y="513" width="532" height="35" filterUnits="userSpaceOnUse" color-interpolation-filters="sRGB">
<feFlood flood-opacity="0" result="BackgroundImageFix"/>
<feColorMatrix in="SourceAlpha" type="matrix" values="0 0 0 0 0 0 0 0 0 0 0 0 0 0 0 0 0 0 127 0"/>
<feOffset dx="10"/>
<feGaussianBlur stdDeviation="1"/>
<feColorMatrix type="matrix" values="0 0 0 0 0.4125 0 0 0 0 0.4125 0 0 0 0 0.4125 0 0 0 0.1 0"/>
<feBlend mode="normal" in2="BackgroundImageFix" result="effect1_dropShadow"/>
<feBlend mode="normal" in="SourceGraphic" in2="effect1_dropShadow" result="shape"/>
</filter>
<filter id="filter12_d" x="520" y="513" width="532" height="35" filterUnits="userSpaceOnUse" color-interpolation-filters="sRGB">
<feFlood flood-opacity="0" result="BackgroundImageFix"/>
<feColorMatrix in="SourceAlpha" type="matrix" values="0 0 0 0 0 0 0 0 0 0 0 0 0 0 0 0 0 0 127 0"/>
<feOffset dx="10"/>
<feGaussianBlur stdDeviation="1"/>
<feColorMatrix type="matrix" values="0 0 0 0 0.4125 0 0 0 0 0.4125 0 0 0 0 0.4125 0 0 0 0.1 0"/>
<feBlend mode="normal" in2="BackgroundImageFix" result="effect1_dropShadow"/>
<feBlend mode="normal" in="SourceGraphic" in2="effect1_dropShadow" result="shape"/>
</filter>
<filter id="filter13_d" x="489.609" y="485.059" width="33.8232" height="25.6409" filterUnits="userSpaceOnUse" color-interpolation-filters="sRGB">
<feFlood flood-opacity="0" result="BackgroundImageFix"/>
<feColorMatrix in="SourceAlpha" type="matrix" values="0 0 0 0 0 0 0 0 0 0 0 0 0 0 0 0 0 0 127 0"/>
<feOffset dx="4" dy="-2"/>
<feGaussianBlur stdDeviation="0.5"/>
<feColorMatrix type="matrix" values="0 0 0 0 0 0 0 0 0 0 0 0 0 0 0 0 0 0 0.1 0"/>
<feBlend mode="normal" in2="BackgroundImageFix" result="effect1_dropShadow"/>
<feBlend mode="normal" in="SourceGraphic" in2="effect1_dropShadow" result="shape"/>
</filter>
</defs>
</svg>
