<svg fill="none" height="559" viewBox="0 0 1212 559" width="1212" xmlns="http://www.w3.org/2000/svg" xmlns:xlink="http://www.w3.org/1999/xlink"><filter id="a" color-interpolation-filters="sRGB" filterUnits="userSpaceOnUse" height="69.4194" width="25.8305" x="187" y="345.695"><feFlood flood-opacity="0" result="BackgroundImageFix"/><feColorMatrix in="SourceAlpha" type="matrix" values="0 0 0 0 0 0 0 0 0 0 0 0 0 0 0 0 0 0 127 0"/><feOffset dx="2.15253" dy="-2.15253"/><feGaussianBlur stdDeviation="1.07627"/><feColorMatrix type="matrix" values="0 0 0 0 0 0 0 0 0 0 0 0 0 0 0 0 0 0 0.2 0"/><feBlend in2="BackgroundImageFix" mode="normal" result="effect1_dropShadow"/><feBlend in="SourceGraphic" in2="effect1_dropShadow" mode="normal" result="shape"/></filter><filter id="b" color-interpolation-filters="sRGB" filterUnits="userSpaceOnUse" height="205" width="213" x="674" y="129"><feFlood flood-opacity="0" result="BackgroundImageFix"/><feColorMatrix in="SourceAlpha" type="matrix" values="0 0 0 0 0 0 0 0 0 0 0 0 0 0 0 0 0 0 127 0"/><feOffset dx="12" dy="4"/><feGaussianBlur stdDeviation="2"/><feColorMatrix type="matrix" values="0 0 0 0 0 0 0 0 0 0 0 0 0 0 0 0 0 0 0.1 0"/><feBlend in2="BackgroundImageFix" mode="normal" result="effect1_dropShadow"/><feBlend in="SourceGraphic" in2="effect1_dropShadow" mode="normal" result="shape"/></filter><filter id="c" color-interpolation-filters="sRGB" filterUnits="userSpaceOnUse" height="129" width="48" x="700" y="148"><feFlood flood-opacity="0" result="BackgroundImageFix"/><feColorMatrix in="SourceAlpha" type="matrix" values="0 0 0 0 0 0 0 0 0 0 0 0 0 0 0 0 0 0 127 0"/><feOffset dx="4" dy="-4"/><feGaussianBlur stdDeviation="2"/><feColorMatrix type="matrix" values="0 0 0 0 0 0 0 0 0 0 0 0 0 0 0 0 0 0 0.2 0"/><feBlend in2="BackgroundImageFix" mode="normal" result="effect1_dropShadow"/><feBlend in="SourceGraphic" in2="effect1_dropShadow" mode="normal" result="shape"/></filter><filter id="d" color-interpolation-filters="sRGB" filterUnits="userSpaceOnUse" height="312" width="1127" x="85" y="243"><feFlood flood-opacity="0" result="BackgroundImageFix"/><feColorMatrix in="SourceAlpha" type="matrix" values="0 0 0 0 0 0 0 0 0 0 0 0 0 0 0 0 0 0 127 0"/><feOffset dx="12"/><feGaussianBlur stdDeviation="5"/><feColorMatrix type="matrix" values="0 0 0 0 0 0 0 0 0 0 0 0 0 0 0 0 0 0 0.1 0"/><feBlend in2="BackgroundImageFix" mode="normal" result="effect1_dropShadow"/><feBlend in="SourceGraphic" in2="effect1_dropShadow" mode="normal" result="shape"/></filter><filter id="e" color-interpolation-filters="sRGB" filterUnits="userSpaceOnUse" height="129" width="48" x="918" y="297"><feFlood flood-opacity="0" result="BackgroundImageFix"/><feColorMatrix in="SourceAlpha" type="matrix" values="0 0 0 0 0 0 0 0 0 0 0 0 0 0 0 0 0 0 127 0"/><feOffset dx="4" dy="-4"/><feGaussianBlur stdDeviation="2"/><feColorMatrix type="matrix" values="0 0 0 0 0 0 0 0 0 0 0 0 0 0 0 0 0 0 0.2 0"/><feBlend in2="BackgroundImageFix" mode="normal" result="effect1_dropShadow"/><feBlend in="SourceGraphic" in2="effect1_dropShadow" mode="normal" result="shape"/></filter><filter id="f" color-interpolation-filters="sRGB" filterUnits="userSpaceOnUse" height="277.488" width="623.882" x="338.75" y="270.75"><feFlood flood-opacity="0" result="BackgroundImageFix"/><feColorMatrix in="SourceAlpha" type="matrix" values="0 0 0 0 0 0 0 0 0 0 0 0 0 0 0 0 0 0 127 0"/><feOffset dx="12" dy="-4"/><feGaussianBlur stdDeviation="6.125"/><feColorMatrix type="matrix" values="0 0 0 0 0 0 0 0 0 0 0 0 0 0 0 0 0 0 0.1 0"/><feBlend in2="BackgroundImageFix" mode="normal" result="effect1_dropShadow"/><feBlend in="SourceGraphic" in2="effect1_dropShadow" mode="normal" result="shape"/></filter><filter id="g" color-interpolation-filters="sRGB" filterUnits="userSpaceOnUse" height="185.658" width="1165.5" x=".748485" y="367.748"><feFlood flood-opacity="0" result="BackgroundImageFix"/><feColorMatrix in="SourceAlpha" type="matrix" values="0 0 0 0 0 0 0 0 0 0 0 0 0 0 0 0 0 0 127 0"/><feOffset dx="12" dy="-4"/><feGaussianBlur stdDeviation="6.12576"/><feColorMatrix type="matrix" values="0 0 0 0 0 0 0 0 0 0 0 0 0 0 0 0 0 0 0.1 0"/><feBlend in2="BackgroundImageFix" mode="normal" result="effect1_dropShadow"/><feBlend in="SourceGraphic" in2="effect1_dropShadow" mode="normal" result="shape"/></filter><filter id="h" color-interpolation-filters="sRGB" filterUnits="userSpaceOnUse" height="151.51" width="56.3758" x="535" y="393.604"><feFlood flood-opacity="0" result="BackgroundImageFix"/><feColorMatrix in="SourceAlpha" type="matrix" values="0 0 0 0 0 0 0 0 0 0 0 0 0 0 0 0 0 0 127 0"/><feOffset dx="4.69799" dy="-4.69799"/><feGaussianBlur stdDeviation="2.34899"/><feColorMatrix type="matrix" values="0 0 0 0 0 0 0 0 0 0 0 0 0 0 0 0 0 0 0.2 0"/><feBlend in2="BackgroundImageFix" mode="normal" result="effect1_dropShadow"/><feBlend in="SourceGraphic" in2="effect1_dropShadow" mode="normal" result="shape"/></filter><filter id="i" color-interpolation-filters="sRGB" filterUnits="userSpaceOnUse" height="151.51" width="56.3758" x="358" y="393.604"><feFlood flood-opacity="0" result="BackgroundImageFix"/><feColorMatrix in="SourceAlpha" type="matrix" values="0 0 0 0 0 0 0 0 0 0 0 0 0 0 0 0 0 0 127 0"/><feOffset dx="4.69799" dy="-4.69799"/><feGaussianBlur stdDeviation="2.34899"/><feColorMatrix type="matrix" values="0 0 0 0 0 0 0 0 0 0 0 0 0 0 0 0 0 0 0.2 0"/><feBlend in2="BackgroundImageFix" mode="normal" result="effect1_dropShadow"/><feBlend in="SourceGraphic" in2="effect1_dropShadow" mode="normal" result="shape"/></filter><filter id="j" color-interpolation-filters="sRGB" filterUnits="userSpaceOnUse" height="157.357" width="129.107" x="412" y="401"><feFlood flood-opacity="0" result="BackgroundImageFix"/><feColorMatrix in="SourceAlpha" type="matrix" values="0 0 0 0 0 0 0 0 0 0 0 0 0 0 0 0 0 0 127 0"/><feOffset dx="6.73549" dy="6.73549"/><feGaussianBlur stdDeviation="3.36774"/><feColorMatrix type="matrix" values="0 0 0 0 0 0 0 0 0 0 0 0 0 0 0 0 0 0 0.16 0"/><feBlend in2="BackgroundImageFix" mode="normal" result="effect1_dropShadow"/><feBlend in="SourceGraphic" in2="effect1_dropShadow" mode="normal" result="shape"/></filter><g fill="#000" filter="url(#a)"><path d="m189.152 403.275h17.2203v11.8389h-17.2203z"/><path d="m190.229 391.437h15.0677v11.8389h-15.0677z"/><path d="m191.305 381.75h12.9152v9.68639h-12.9152z"/><path d="m192.381 371.525h10.7627v10.2245h-10.7627z"/><path d="m193.996 362.377h7.53386v9.14826h-7.53386z"/><path d="m197.873 358.61 3.852 3.767h-7.705z"/><path d="m193.335 361.007c.286.314 1.079.822 1.969.342v1.028h-1.284c-.228-.115-.685-.548-.685-1.37z"/><path d="m195.047 359.295c.286.314 1.079.822 1.969.342v1.028h-1.284c-.228-.114-.685-.548-.685-1.37z"/><path d="m202.325 361.007c-.286.314-1.079.822-1.97.342v1.028h1.285c.228-.115.685-.548.685-1.37z"/><path d="m200.612 359.295c-.285.314-1.079.822-1.969.342v1.028h1.284c.229-.114.685-.548.685-1.37z"/><path d="m187 398.97c.936.986 3.538 2.583 6.458 1.076v3.229h-4.212c-.749-.359-2.246-1.722-2.246-4.305z"/><path d="m188.076 388.207c.936.987 3.538 2.583 6.458 1.076v3.229h-4.212c-.748-.359-2.246-1.722-2.246-4.305z"/><path d="m189.152 377.444c.936.987 3.538 2.583 6.458 1.077v3.228h-4.211c-.749-.358-2.247-1.722-2.247-4.305z"/><path d="m190.229 367.221c.936.986 3.537 2.583 6.457 1.076v3.229h-4.211c-.749-.359-2.246-1.722-2.246-4.305z"/><path d="m208.525 398.97c-.936.986-3.537 2.583-6.457 1.076v3.229h4.211c.749-.359 2.246-1.722 2.246-4.305z"/><path d="m207.449 388.207c-.936.987-3.538 2.583-6.458 1.076v3.229h4.212c.749-.359 2.246-1.722 2.246-4.305z"/><path d="m206.373 377.444c-.936.987-3.538 2.583-6.458 1.077v3.228h4.212c.748-.358 2.246-1.722 2.246-4.305z"/><path d="m205.297 367.221c-.936.986-3.538 2.583-6.458 1.076v3.229h4.211c.749-.359 2.247-1.722 2.247-4.305z"/><path d="m197.763 350v10.763h-1.077z"/><path d="m197.763 350v10.763h1.076z"/></g><g filter="url(#b)"><circle cx="772.5" cy="227.5" fill="#ffbd3a" r="98.5"/></g><g fill="#000" filter="url(#c)"><path d="m704 255h32v22h-32z"/><path d="m706 233h28v22h-28z"/><path d="m708 215h24v18h-24z"/><path d="m710 196h20v19h-20z"/><path d="m713 179h14v17h-14z"/><path d="m720.205 172 7.159 7h-14.319z"/><path d="m711.772 176.454c.531.583 2.005 1.527 3.66.636v1.91h-2.387c-.424-.213-1.273-1.019-1.273-2.546z"/><path d="m714.954 173.272c.531.584 2.005 1.528 3.659.637v1.909h-2.386c-.424-.212-1.273-1.018-1.273-2.546z"/><path d="m728.477 176.454c-.53.583-2.005 1.527-3.659.636v1.91h2.386c.424-.213 1.273-1.019 1.273-2.546z"/><path d="m725.295 173.272c-.53.584-2.004 1.528-3.659.637v1.909h2.386c.425-.212 1.273-1.018 1.273-2.546z"/><path d="m700 247c1.739 1.833 6.574 4.8 12 2v6h-7.826c-1.391-.667-4.174-3.2-4.174-8z"/><path d="m702 227c1.739 1.833 6.574 4.8 12 2v6h-7.826c-1.391-.667-4.174-3.2-4.174-8z"/><path d="m704 207c1.739 1.833 6.574 4.8 12 2v6h-7.826c-1.391-.667-4.174-3.2-4.174-8z"/><path d="m706 188c1.739 1.833 6.574 4.8 12 2v6h-7.826c-1.391-.667-4.174-3.2-4.174-8z"/><path d="m740 247c-1.739 1.833-6.574 4.8-12 2v6h7.826c1.391-.667 4.174-3.2 4.174-8z"/><path d="m738 227c-1.739 1.833-6.574 4.8-12 2v6h7.826c1.391-.667 4.174-3.2 4.174-8z"/><path d="m736 207c-1.739 1.833-6.574 4.8-12 2v6h7.826c1.391-.667 4.174-3.2 4.174-8z"/><path d="m734 188c-1.739 1.833-6.574 4.8-12 2v6h7.826c1.391-.667 4.174-3.2 4.174-8z"/><path d="m720 156v20h-2z"/><path d="m720 156v20h2z"/></g><g filter="url(#d)"><path d="m197.777 403-112.777 142h1105l-106.27-103-66.15-105-29.278 59-83.498-119-91.09 60-94.342-84-171.335 143-67.232-50-47.714 57-86.751-90-92.174 144z" fill="#b2dda5"/></g><g fill="#000" filter="url(#e)"><path d="m922 404h32v22h-32z"/><path d="m924 382h28v22h-28z"/><path d="m926 364h24v18h-24z"/><path d="m928 345h20v19h-20z"/><path d="m931 328h14v17h-14z"/><path d="m938.205 321 7.159 7h-14.319z"/><path d="m929.772 325.454c.531.583 2.005 1.527 3.66.636v1.91h-2.387c-.424-.213-1.273-1.019-1.273-2.546z"/><path d="m932.954 322.272c.531.584 2.005 1.528 3.659.637v1.909h-2.386c-.424-.212-1.273-1.018-1.273-2.546z"/><path d="m946.477 325.454c-.53.583-2.005 1.527-3.659.636v1.91h2.386c.424-.213 1.273-1.019 1.273-2.546z"/><path d="m943.295 322.272c-.53.584-2.004 1.528-3.659.637v1.909h2.386c.425-.212 1.273-1.018 1.273-2.546z"/><path d="m918 396c1.739 1.833 6.574 4.8 12 2v6h-7.826c-1.391-.667-4.174-3.2-4.174-8z"/><path d="m920 376c1.739 1.833 6.574 4.8 12 2v6h-7.826c-1.391-.667-4.174-3.2-4.174-8z"/><path d="m922 356c1.739 1.833 6.574 4.8 12 2v6h-7.826c-1.391-.667-4.174-3.2-4.174-8z"/><path d="m924 337c1.739 1.833 6.574 4.8 12 2v6h-7.826c-1.391-.667-4.174-3.2-4.174-8z"/><path d="m958 396c-1.739 1.833-6.574 4.8-12 2v6h7.826c1.391-.667 4.174-3.2 4.174-8z"/><path d="m956 376c-1.739 1.833-6.574 4.8-12 2v6h7.826c1.391-.667 4.174-3.2 4.174-8z"/><path d="m954 356c-1.739 1.833-6.574 4.8-12 2v6h7.826c1.391-.667 4.174-3.2 4.174-8z"/><path d="m952 337c-1.739 1.833-6.574 4.8-12 2v6h7.826c1.391-.667 4.174-3.2 4.174-8z"/><path d="m938 305v20h-2z"/><path d="m938 305v20h2z"/></g><g filter="url(#f)"><path d="m540.528 383.545-201.528 119.688 29.856 36.755 467.744-14.136 101.782-22.619-135.382-216.233-172 190z" fill="#35675b"/></g><g filter="url(#g)"><path d="m118.409 445.258-117.409 99.897h1141l-128-58.431-75.5-76.569-74.408 60.548-78.87-86.703-166.703 146.076-62.738-72.567-116.513 29.215-105.758-54.66-141.608 72.566z" fill="#91d7b9"/></g><g fill="#000" filter="url(#h)"><path d="m539.698 519.275h37.5839v25.8389h-37.5839z"/><path d="m542.047 493.437h32.8859v25.8389h-32.8859z"/><path d="m544.396 472.295h28.1879v21.1409h-28.1879z"/><path d="m546.745 449.979h23.4899v22.3154h-23.4899z"/><path d="m550.268 430.014h16.443v19.9664h-16.443z"/><path d="m558.73 421.792 8.409 8.222h-16.817z"/><path d="m548.827 427.024c.623.686 2.354 1.794 4.298.748v2.242h-2.803c-.499-.249-1.495-1.196-1.495-2.99z"/><path d="m552.564 423.287c.623.685 2.354 1.794 4.297.748v2.242h-2.802c-.499-.249-1.495-1.196-1.495-2.99z"/><path d="m568.446 427.024c-.622.686-2.354 1.794-4.297.748v2.242h2.803c.498-.249 1.494-1.196 1.494-2.99z"/><path d="m564.709 423.287c-.623.685-2.354 1.794-4.298.748v2.242h2.803c.498-.249 1.495-1.196 1.495-2.99z"/><path d="m535 509.879c2.043 2.153 7.721 5.637 14.094 2.349v7.047h-9.192c-1.634-.783-4.902-3.759-4.902-9.396z"/><path d="m537.349 486.39c2.043 2.153 7.721 5.637 14.094 2.349v7.047h-9.192c-1.634-.783-4.902-3.759-4.902-9.396z"/><path d="m539.698 462.899c2.043 2.154 7.721 5.638 14.094 2.349v7.047h-9.192c-1.634-.783-4.902-3.758-4.902-9.396z"/><path d="m542.047 440.584c2.043 2.153 7.721 5.638 14.094 2.349v7.047h-9.192c-1.634-.783-4.902-3.758-4.902-9.396z"/><path d="m581.98 509.879c-2.043 2.153-7.721 5.637-14.094 2.349v7.047h9.192c1.634-.783 4.902-3.759 4.902-9.396z"/><path d="m579.631 486.39c-2.043 2.153-7.721 5.637-14.094 2.349v7.047h9.192c1.634-.783 4.902-3.759 4.902-9.396z"/><path d="m577.282 462.899c-2.043 2.154-7.721 5.638-14.094 2.349v7.047h9.192c1.634-.783 4.902-3.758 4.902-9.396z"/><path d="m574.933 440.584c-2.043 2.153-7.721 5.638-14.094 2.349v7.047h9.192c1.634-.783 4.902-3.758 4.902-9.396z"/><path d="m558.49 403v23.49h-2.349z"/><path d="m558.49 403v23.49h2.349z"/></g><g fill="#000" filter="url(#i)"><path d="m362.698 519.275h37.5839v25.8389h-37.5839z"/><path d="m365.047 493.437h32.8859v25.8389h-32.8859z"/><path d="m367.396 472.295h28.1879v21.1409h-28.1879z"/><path d="m369.745 449.979h23.4899v22.3154h-23.4899z"/><path d="m373.268 430.014h16.443v19.9664h-16.443z"/><path d="m381.73 421.792 8.409 8.222h-16.817z"/><path d="m371.827 427.024c.623.686 2.354 1.794 4.298.748v2.242h-2.803c-.499-.249-1.495-1.196-1.495-2.99z"/><path d="m375.564 423.287c.623.685 2.354 1.794 4.297.748v2.242h-2.802c-.499-.249-1.495-1.196-1.495-2.99z"/><path d="m391.446 427.024c-.622.686-2.354 1.794-4.297.748v2.242h2.803c.498-.249 1.494-1.196 1.494-2.99z"/><path d="m387.709 423.287c-.623.685-2.354 1.794-4.298.748v2.242h2.803c.498-.249 1.495-1.196 1.495-2.99z"/><path d="m358 509.879c2.043 2.153 7.721 5.637 14.094 2.349v7.047h-9.192c-1.634-.783-4.902-3.759-4.902-9.396z"/><path d="m360.349 486.39c2.043 2.153 7.721 5.637 14.094 2.349v7.047h-9.192c-1.634-.783-4.902-3.759-4.902-9.396z"/><path d="m362.698 462.899c2.043 2.154 7.721 5.638 14.094 2.349v7.047h-9.192c-1.634-.783-4.902-3.758-4.902-9.396z"/><path d="m365.047 440.584c2.043 2.153 7.721 5.638 14.094 2.349v7.047h-9.192c-1.634-.783-4.902-3.758-4.902-9.396z"/><path d="m404.98 509.879c-2.043 2.153-7.721 5.637-14.094 2.349v7.047h9.192c1.634-.783 4.902-3.759 4.902-9.396z"/><path d="m402.631 486.39c-2.043 2.153-7.721 5.637-14.094 2.349v7.047h9.192c1.634-.783 4.902-3.759 4.902-9.396z"/><path d="m400.282 462.899c-2.043 2.154-7.721 5.638-14.094 2.349v7.047h9.192c1.634-.783 4.902-3.758 4.902-9.396z"/><path d="m397.933 440.584c-2.043 2.153-7.721 5.638-14.094 2.349v7.047h9.192c1.634-.783 4.902-3.758 4.902-9.396z"/><path d="m381.49 403v23.49h-2.349z"/><path d="m381.49 403v23.49h2.349z"/></g><g fill="#000" filter="url(#j)"><path d="m527.636 482.359c-1.256 1.381-4.746 3.616-8.663 1.507v4.52h5.65c1.004-.502 3.013-2.411 3.013-6.027z"/><path d="m522.74 453.733c-1.419 1.382-5.365 3.616-9.793 1.507v4.52h6.387c1.135-.502 3.406-2.411 3.406-6.027z"/><path d="m515.206 437.16c-.873 1.381-2.096 2.26-6.027 2.26v3.767h3.931c.698-.502 2.096-2.411 2.096-6.027z"/><path d="m492.607 412.3c-.873 1.381-2.096 2.26-6.027 2.26v3.766h3.931c.699-.502 2.096-2.41 2.096-6.026z"/><path d="m484.32 401c-.874 1.381-2.096 2.26-6.027 2.26v3.767h3.931c.698-.503 2.096-2.411 2.096-6.027z"/><path d="m412 482.359c1.256 1.381 4.746 3.616 8.663 1.507v4.52h-5.65c-1.004-.502-3.013-2.411-3.013-6.027z"/><path d="m418.403 453.733c1.42 1.382 5.365 3.616 9.794 1.507v4.52h-6.387c-1.136-.502-3.407-2.411-3.407-6.027z"/><path d="m425.937 437.16c.873 1.381 2.096 2.26 6.026 2.26v3.767h-3.93c-.699-.502-2.096-2.411-2.096-6.027z"/><path d="m447.03 412.3c.873 1.381 2.096 2.26 6.026 2.26v3.766h-3.93c-.699-.502-2.096-2.41-2.096-6.026z"/><path d="m454.563 401c.873 1.381 2.096 2.26 6.027 2.26v3.767h-3.931c-.699-.503-2.096-2.411-2.096-6.027z"/><g clip-rule="evenodd" fill-rule="evenodd"><path d="m499.581 468.775h-59.198v76.111h59.198zm-29.598 21.142c-9.342 0-16.914 7.573-16.914 16.914v38.055h33.827v-38.055c0-9.341-7.572-16.914-16.913-16.914z"/><path d="m495.352 439.177h-50.74v29.598h8.457v-16.913c0-2.335 1.893-4.228 4.228-4.228s4.229 1.893 4.229 4.228v16.913h4.228v-16.913c0-2.335 1.893-4.229 4.228-4.229s4.229 1.894 4.229 4.229v16.913h4.228v-16.913c0-2.335 1.893-4.229 4.228-4.229s4.228 1.894 4.228 4.229v16.913h8.457z"/><path d="m448.841 413.807h42.283v25.37h-42.283zm4.229 8.457h12.685v12.685h-12.685zm33.826-.001h-12.685v12.685h12.685z"/><path d="m524.951 485.688h-25.37v59.198h25.37zm-13.232 11.738c-4.369 0-7.91 3.541-7.91 7.91v39.55h15.82v-39.55c0-4.369-3.542-7.91-7.91-7.91z"/><path d="m520.723 456.091h-25.37v29.598h25.37zm-14.006 8.189c-3.941 0-7.136 3.195-7.136 7.136v14.273h14.273v-14.273c0-3.941-3.196-7.136-7.137-7.136z"/><path d="m444.612 456.091h-25.371v29.598h25.371zm-11.114 8.942c-3.802 0-6.885 3.083-6.885 6.885v13.771h13.77v-13.771c0-3.802-3.082-6.885-6.885-6.885z"/><path d="m445.82 439.177h-18.121v21.142h18.121zm-7.873 6.581c-2.68 0-4.853 2.173-4.853 4.854v9.707h9.706v-9.707c0-2.681-2.172-4.854-4.853-4.854z"/><path d="m513.474 439.177h-18.121v21.142h3.02v-10.418c0-2.876 2.332-5.208 5.209-5.208 2.876 0 5.208 2.332 5.208 5.208v10.418h4.684z"/><path d="m440.384 485.688h-25.37v59.198h25.37zm-12.013 12.491c-4.299 0-7.784 3.485-7.784 7.784v38.923h15.569v-38.923c0-4.299-3.486-7.784-7.785-7.784z"/></g><path d="m459.083 403.26-10.17 10.546h21.47v-10.546z"/><path d="m480.554 403.26 10.17 10.546h-21.47v-10.546z"/></g><path d="m252 482 80-43-15 43z" fill="#fff" fill-opacity=".3"/><path d="m794.5 447-7-49.5 51 57z" fill="#fff" fill-opacity=".3"/><path d="m902 447.5 35-28v31z" fill="#fff" fill-opacity=".3"/><path d="m1024.5 424.5-6.5-73.5 26.5 44z" fill="#fff" fill-opacity=".3"/><path d="m845.5 325 56.5-38-19.5 53z" fill="#fff" fill-opacity=".3"/><path d="m753 351 47-51.5-6.5 35z" fill="#000" fill-opacity=".2"/><path d="m605.5 493.5-13.5-48.5 33 34.5z" fill="#000" fill-opacity=".2"/><g fill="#fff" fill-opacity=".3"><path d="m872 455.5-13-64.5 32.5 49.5z"/><path d="m740.5 315.5-20-52.5 30 27z"/><path d="m616.5 371-50.5 19.5 36-31.5z"/><path d="m349.5 359-36 18.5 33-54.5z"/><path d="m427.5 408.5-29-12v-19.5z"/><path d="m226.5 441-21 10-7.5-36.5z"/></g></svg>