<svg width="1212" height="559" viewBox="0 0 1212 559" fill="none" xmlns="http://www.w3.org/2000/svg">
<g filter="url(#filter0_d)">
<rect x="189.152" y="403.275" width="17.2203" height="11.8389" fill="black"/>
<rect x="190.229" y="391.437" width="15.0677" height="11.8389" fill="black"/>
<rect x="191.305" y="381.75" width="12.9152" height="9.68639" fill="black"/>
<rect x="192.381" y="371.525" width="10.7627" height="10.2245" fill="black"/>
<rect x="193.996" y="362.377" width="7.53386" height="9.14826" fill="black"/>
<path d="M197.873 358.61L201.725 362.377H194.02L197.873 358.61Z" fill="black"/>
<path d="M193.335 361.007C193.621 361.321 194.414 361.829 195.304 361.349V362.377H194.02C193.792 362.262 193.335 361.829 193.335 361.007Z" fill="black"/>
<path d="M195.047 359.295C195.333 359.609 196.126 360.117 197.016 359.637V360.665H195.732C195.504 360.551 195.047 360.117 195.047 359.295Z" fill="black"/>
<path d="M202.325 361.007C202.039 361.321 201.246 361.829 200.355 361.349V362.377H201.64C201.868 362.262 202.325 361.829 202.325 361.007Z" fill="black"/>
<path d="M200.612 359.295C200.327 359.609 199.533 360.117 198.643 359.637V360.665H199.927C200.156 360.551 200.612 360.117 200.612 359.295Z" fill="black"/>
<path d="M187 398.97C187.936 399.956 190.538 401.553 193.458 400.046V403.275H189.246C188.497 402.916 187 401.553 187 398.97Z" fill="black"/>
<path d="M188.076 388.207C189.012 389.194 191.614 390.79 194.534 389.283V392.512H190.322C189.574 392.153 188.076 390.79 188.076 388.207Z" fill="black"/>
<path d="M189.152 377.444C190.088 378.431 192.69 380.027 195.61 378.521V381.749H191.399C190.65 381.391 189.152 380.027 189.152 377.444Z" fill="black"/>
<path d="M190.229 367.221C191.165 368.207 193.766 369.804 196.686 368.297V371.526H192.475C191.726 371.167 190.229 369.804 190.229 367.221Z" fill="black"/>
<path d="M208.525 398.97C207.589 399.956 204.988 401.553 202.068 400.046V403.275H206.279C207.028 402.916 208.525 401.553 208.525 398.97Z" fill="black"/>
<path d="M207.449 388.207C206.513 389.194 203.911 390.79 200.991 389.283V392.512H205.203C205.952 392.153 207.449 390.79 207.449 388.207Z" fill="black"/>
<path d="M206.373 377.444C205.437 378.431 202.835 380.027 199.915 378.521V381.749H204.127C204.875 381.391 206.373 380.027 206.373 377.444Z" fill="black"/>
<path d="M205.297 367.221C204.361 368.207 201.759 369.804 198.839 368.297V371.526H203.05C203.799 371.167 205.297 369.804 205.297 367.221Z" fill="black"/>
<path d="M197.763 350V360.763H196.686L197.763 350Z" fill="black"/>
<path d="M197.763 350V360.763H198.839L197.763 350Z" fill="black"/>
</g>
<g filter="url(#filter1_d)">
<circle cx="772.5" cy="227.5" r="98.5" fill="#FFBD3A"/>
</g>
<g filter="url(#filter2_d)">
<rect x="704" y="255" width="32" height="22" fill="black"/>
<rect x="706" y="233" width="28" height="22" fill="black"/>
<rect x="708" y="215" width="24" height="18" fill="black"/>
<rect x="710" y="196" width="20" height="19" fill="black"/>
<rect x="713" y="179" width="14" height="17" fill="black"/>
<path d="M720.205 172L727.364 179H713.045L720.205 172Z" fill="black"/>
<path d="M711.772 176.454C712.303 177.037 713.777 177.981 715.432 177.09V179H713.045C712.621 178.787 711.772 177.981 711.772 176.454Z" fill="black"/>
<path d="M714.954 173.272C715.485 173.856 716.959 174.8 718.613 173.909V175.818H716.227C715.803 175.606 714.954 174.8 714.954 173.272Z" fill="black"/>
<path d="M728.477 176.454C727.947 177.037 726.472 177.981 724.818 177.09V179H727.204C727.628 178.787 728.477 177.981 728.477 176.454Z" fill="black"/>
<path d="M725.295 173.272C724.765 173.856 723.291 174.8 721.636 173.909V175.818H724.022C724.447 175.606 725.295 174.8 725.295 173.272Z" fill="black"/>
<path d="M700 247C701.739 248.833 706.574 251.8 712 249V255H704.174C702.783 254.333 700 251.8 700 247Z" fill="black"/>
<path d="M702 227C703.739 228.833 708.574 231.8 714 229V235H706.174C704.783 234.333 702 231.8 702 227Z" fill="black"/>
<path d="M704 207C705.739 208.833 710.574 211.8 716 209V215H708.174C706.783 214.333 704 211.8 704 207Z" fill="black"/>
<path d="M706 188C707.739 189.833 712.574 192.8 718 190V196H710.174C708.783 195.333 706 192.8 706 188Z" fill="black"/>
<path d="M740 247C738.261 248.833 733.426 251.8 728 249V255H735.826C737.217 254.333 740 251.8 740 247Z" fill="black"/>
<path d="M738 227C736.261 228.833 731.426 231.8 726 229V235H733.826C735.217 234.333 738 231.8 738 227Z" fill="black"/>
<path d="M736 207C734.261 208.833 729.426 211.8 724 209V215H731.826C733.217 214.333 736 211.8 736 207Z" fill="black"/>
<path d="M734 188C732.261 189.833 727.426 192.8 722 190V196H729.826C731.217 195.333 734 192.8 734 188Z" fill="black"/>
<path d="M720 156V176H718L720 156Z" fill="black"/>
<path d="M720 156V176H722L720 156Z" fill="black"/>
</g>
<g filter="url(#filter3_d)">
<path d="M197.777 403L85 545H1190L1083.73 442L1017.58 337L988.302 396L904.804 277L813.714 337L719.372 253L548.037 396L480.805 346L433.091 403L346.34 313L254.166 457L197.777 403Z" fill="#B2DDA5"/>
</g>
<g filter="url(#filter4_d)">
<rect x="922" y="404" width="32" height="22" fill="black"/>
<rect x="924" y="382" width="28" height="22" fill="black"/>
<rect x="926" y="364" width="24" height="18" fill="black"/>
<rect x="928" y="345" width="20" height="19" fill="black"/>
<rect x="931" y="328" width="14" height="17" fill="black"/>
<path d="M938.205 321L945.364 328H931.045L938.205 321Z" fill="black"/>
<path d="M929.772 325.454C930.303 326.037 931.777 326.981 933.432 326.09V328H931.045C930.621 327.787 929.772 326.981 929.772 325.454Z" fill="black"/>
<path d="M932.954 322.272C933.485 322.856 934.959 323.8 936.613 322.909V324.818H934.227C933.803 324.606 932.954 323.8 932.954 322.272Z" fill="black"/>
<path d="M946.477 325.454C945.947 326.037 944.472 326.981 942.818 326.09V328H945.204C945.628 327.787 946.477 326.981 946.477 325.454Z" fill="black"/>
<path d="M943.295 322.272C942.765 322.856 941.291 323.8 939.636 322.909V324.818H942.022C942.447 324.606 943.295 323.8 943.295 322.272Z" fill="black"/>
<path d="M918 396C919.739 397.833 924.574 400.8 930 398V404H922.174C920.783 403.333 918 400.8 918 396Z" fill="black"/>
<path d="M920 376C921.739 377.833 926.574 380.8 932 378V384H924.174C922.783 383.333 920 380.8 920 376Z" fill="black"/>
<path d="M922 356C923.739 357.833 928.574 360.8 934 358V364H926.174C924.783 363.333 922 360.8 922 356Z" fill="black"/>
<path d="M924 337C925.739 338.833 930.574 341.8 936 339V345H928.174C926.783 344.333 924 341.8 924 337Z" fill="black"/>
<path d="M958 396C956.261 397.833 951.426 400.8 946 398V404H953.826C955.217 403.333 958 400.8 958 396Z" fill="black"/>
<path d="M956 376C954.261 377.833 949.426 380.8 944 378V384H951.826C953.217 383.333 956 380.8 956 376Z" fill="black"/>
<path d="M954 356C952.261 357.833 947.426 360.8 942 358V364H949.826C951.217 363.333 954 360.8 954 356Z" fill="black"/>
<path d="M952 337C950.261 338.833 945.426 341.8 940 339V345H947.826C949.217 344.333 952 341.8 952 337Z" fill="black"/>
<path d="M938 305V325H936L938 305Z" fill="black"/>
<path d="M938 305V325H940L938 305Z" fill="black"/>
</g>
<g filter="url(#filter5_d)">
<path d="M540.528 383.545L339 503.233L368.856 539.988L836.6 525.852L938.382 503.233L803 287L631 477L540.528 383.545Z" fill="#35675B"/>
</g>
<g filter="url(#filter6_d)">
<path d="M118.409 445.258L1 545.155H1142L1014 486.724L938.5 410.155L864.092 470.703L785.222 384L618.519 530.076L555.781 457.509L439.268 486.724L333.51 432.064L191.902 504.63L118.409 445.258Z" fill="#91D7B9"/>
</g>
<g filter="url(#filter7_d)">
<rect x="539.698" y="519.275" width="37.5839" height="25.8389" fill="black"/>
<rect x="542.047" y="493.437" width="32.8859" height="25.8389" fill="black"/>
<rect x="544.396" y="472.295" width="28.1879" height="21.1409" fill="black"/>
<rect x="546.745" y="449.979" width="23.4899" height="22.3154" fill="black"/>
<rect x="550.268" y="430.014" width="16.443" height="19.9664" fill="black"/>
<path d="M558.73 421.792L567.139 430.014H550.322L558.73 421.792Z" fill="black"/>
<path d="M548.827 427.024C549.45 427.71 551.181 428.818 553.125 427.772V430.014H550.322C549.823 429.765 548.827 428.818 548.827 427.024Z" fill="black"/>
<path d="M552.564 423.287C553.187 423.972 554.918 425.081 556.861 424.035V426.277H554.059C553.56 426.028 552.564 425.081 552.564 423.287Z" fill="black"/>
<path d="M568.446 427.024C567.824 427.71 566.092 428.818 564.149 427.772V430.014H566.952C567.45 429.765 568.446 428.818 568.446 427.024Z" fill="black"/>
<path d="M564.709 423.287C564.086 423.972 562.355 425.081 560.411 424.035V426.277H563.214C563.712 426.028 564.709 425.081 564.709 423.287Z" fill="black"/>
<path d="M535 509.879C537.043 512.032 542.721 515.516 549.094 512.228V519.275H539.902C538.268 518.492 535 515.516 535 509.879Z" fill="black"/>
<path d="M537.349 486.39C539.392 488.543 545.07 492.027 551.443 488.739V495.786H542.251C540.617 495.003 537.349 492.027 537.349 486.39Z" fill="black"/>
<path d="M539.698 462.899C541.741 465.053 547.419 468.537 553.792 465.248V472.295H544.6C542.966 471.512 539.698 468.537 539.698 462.899Z" fill="black"/>
<path d="M542.047 440.584C544.09 442.737 549.768 446.222 556.141 442.933V449.98H546.949C545.315 449.197 542.047 446.222 542.047 440.584Z" fill="black"/>
<path d="M581.98 509.879C579.937 512.032 574.259 515.516 567.886 512.228V519.275H577.078C578.712 518.492 581.98 515.516 581.98 509.879Z" fill="black"/>
<path d="M579.631 486.39C577.588 488.543 571.91 492.027 565.537 488.739V495.786H574.729C576.363 495.003 579.631 492.027 579.631 486.39Z" fill="black"/>
<path d="M577.282 462.899C575.239 465.053 569.561 468.537 563.188 465.248V472.295H572.38C574.014 471.512 577.282 468.537 577.282 462.899Z" fill="black"/>
<path d="M574.933 440.584C572.89 442.737 567.212 446.222 560.839 442.933V449.98H570.031C571.665 449.197 574.933 446.222 574.933 440.584Z" fill="black"/>
<path d="M558.49 403V426.49H556.141L558.49 403Z" fill="black"/>
<path d="M558.49 403V426.49H560.839L558.49 403Z" fill="black"/>
</g>
<g filter="url(#filter8_d)">
<rect x="362.698" y="519.275" width="37.5839" height="25.8389" fill="black"/>
<rect x="365.047" y="493.437" width="32.8859" height="25.8389" fill="black"/>
<rect x="367.396" y="472.295" width="28.1879" height="21.1409" fill="black"/>
<rect x="369.745" y="449.979" width="23.4899" height="22.3154" fill="black"/>
<rect x="373.268" y="430.014" width="16.443" height="19.9664" fill="black"/>
<path d="M381.73 421.792L390.139 430.014H373.322L381.73 421.792Z" fill="black"/>
<path d="M371.827 427.024C372.45 427.71 374.181 428.818 376.125 427.772V430.014H373.322C372.823 429.765 371.827 428.818 371.827 427.024Z" fill="black"/>
<path d="M375.564 423.287C376.187 423.972 377.918 425.081 379.861 424.035V426.277H377.059C376.56 426.028 375.564 425.081 375.564 423.287Z" fill="black"/>
<path d="M391.446 427.024C390.824 427.71 389.092 428.818 387.149 427.772V430.014H389.952C390.45 429.765 391.446 428.818 391.446 427.024Z" fill="black"/>
<path d="M387.709 423.287C387.086 423.972 385.355 425.081 383.411 424.035V426.277H386.214C386.712 426.028 387.709 425.081 387.709 423.287Z" fill="black"/>
<path d="M358 509.879C360.043 512.032 365.721 515.516 372.094 512.228V519.275H362.902C361.268 518.492 358 515.516 358 509.879Z" fill="black"/>
<path d="M360.349 486.39C362.392 488.543 368.07 492.027 374.443 488.739V495.786H365.251C363.617 495.003 360.349 492.027 360.349 486.39Z" fill="black"/>
<path d="M362.698 462.899C364.741 465.053 370.419 468.537 376.792 465.248V472.295H367.6C365.966 471.512 362.698 468.537 362.698 462.899Z" fill="black"/>
<path d="M365.047 440.584C367.09 442.737 372.768 446.222 379.141 442.933V449.98H369.949C368.315 449.197 365.047 446.222 365.047 440.584Z" fill="black"/>
<path d="M404.98 509.879C402.937 512.032 397.259 515.516 390.886 512.228V519.275H400.078C401.712 518.492 404.98 515.516 404.98 509.879Z" fill="black"/>
<path d="M402.631 486.39C400.588 488.543 394.91 492.027 388.537 488.739V495.786H397.729C399.363 495.003 402.631 492.027 402.631 486.39Z" fill="black"/>
<path d="M400.282 462.899C398.239 465.053 392.561 468.537 386.188 465.248V472.295H395.38C397.014 471.512 400.282 468.537 400.282 462.899Z" fill="black"/>
<path d="M397.933 440.584C395.89 442.737 390.212 446.222 383.839 442.933V449.98H393.031C394.665 449.197 397.933 446.222 397.933 440.584Z" fill="black"/>
<path d="M381.49 403V426.49H379.141L381.49 403Z" fill="black"/>
<path d="M381.49 403V426.49H383.839L381.49 403Z" fill="black"/>
</g>
<g filter="url(#filter9_d)">
<path d="M527.636 482.359C526.38 483.74 522.89 485.975 518.973 483.866V488.386H524.623C525.627 487.884 527.636 485.975 527.636 482.359Z" fill="black"/>
<path d="M522.74 453.733C521.321 455.115 517.375 457.349 512.947 455.24V459.76H519.334C520.469 459.258 522.74 457.349 522.74 453.733Z" fill="black"/>
<path d="M515.206 437.16C514.333 438.541 513.11 439.42 509.179 439.42V443.187H513.11C513.808 442.685 515.206 440.776 515.206 437.16Z" fill="black"/>
<path d="M492.607 412.3C491.734 413.681 490.511 414.56 486.58 414.56V418.326H490.511C491.21 417.824 492.607 415.916 492.607 412.3Z" fill="black"/>
<path d="M484.32 401C483.446 402.381 482.224 403.26 478.293 403.26V407.027H482.224C482.922 406.524 484.32 404.616 484.32 401Z" fill="black"/>
<path d="M412 482.359C413.256 483.74 416.746 485.975 420.663 483.866V488.386H415.013C414.009 487.884 412 485.975 412 482.359Z" fill="black"/>
<path d="M418.403 453.733C419.823 455.115 423.768 457.349 428.197 455.24V459.76H421.81C420.674 459.258 418.403 457.349 418.403 453.733Z" fill="black"/>
<path d="M425.937 437.16C426.81 438.541 428.033 439.42 431.963 439.42V443.187H428.033C427.334 442.685 425.937 440.776 425.937 437.16Z" fill="black"/>
<path d="M447.03 412.3C447.903 413.681 449.126 414.56 453.056 414.56V418.326H449.126C448.427 417.824 447.03 415.916 447.03 412.3Z" fill="black"/>
<path d="M454.563 401C455.436 402.381 456.659 403.26 460.59 403.26V407.027H456.659C455.96 406.524 454.563 404.616 454.563 401Z" fill="black"/>
<path fill-rule="evenodd" clip-rule="evenodd" d="M499.581 468.775H440.383V544.886H499.581V468.775ZM469.983 489.917C460.641 489.917 453.069 497.49 453.069 506.831V544.886H486.896V506.831C486.896 497.49 479.324 489.917 469.983 489.917Z" fill="black"/>
<path fill-rule="evenodd" clip-rule="evenodd" d="M495.352 439.177H444.612V468.775L453.069 468.775V451.862C453.069 449.527 454.962 447.634 457.297 447.634C459.632 447.634 461.526 449.527 461.526 451.862V468.775L465.754 468.775V451.862C465.754 449.527 467.647 447.633 469.982 447.633C472.317 447.633 474.211 449.527 474.211 451.862V468.775H478.439V451.862C478.439 449.527 480.332 447.633 482.667 447.633C485.002 447.633 486.895 449.527 486.895 451.862V468.775L495.352 468.775V439.177Z" fill="black"/>
<path fill-rule="evenodd" clip-rule="evenodd" d="M448.841 413.807H491.124V439.177H448.841V413.807ZM453.07 422.264H465.755V434.949H453.07V422.264ZM486.896 422.263H474.211V434.948H486.896V422.263Z" fill="black"/>
<path fill-rule="evenodd" clip-rule="evenodd" d="M524.951 485.688H499.581V544.886H524.951V485.688ZM511.719 497.426C507.35 497.426 503.809 500.967 503.809 505.336V544.886H519.629V505.336C519.629 500.967 516.087 497.426 511.719 497.426Z" fill="black"/>
<path fill-rule="evenodd" clip-rule="evenodd" d="M520.723 456.091H495.353V485.689H520.723V456.091ZM506.717 464.28C502.776 464.28 499.581 467.475 499.581 471.416V485.689H513.854V471.416C513.854 467.475 510.658 464.28 506.717 464.28Z" fill="black"/>
<path fill-rule="evenodd" clip-rule="evenodd" d="M444.612 456.091H419.241V485.689H444.612V456.091ZM433.498 465.033C429.696 465.033 426.613 468.116 426.613 471.918V485.689H440.383V471.918C440.383 468.116 437.301 465.033 433.498 465.033Z" fill="black"/>
<path fill-rule="evenodd" clip-rule="evenodd" d="M445.82 439.177H427.699V460.319H445.82V439.177ZM437.947 445.758C435.267 445.758 433.094 447.931 433.094 450.612V460.319H442.8V450.612C442.8 447.931 440.628 445.758 437.947 445.758Z" fill="black"/>
<path fill-rule="evenodd" clip-rule="evenodd" d="M513.474 439.177H495.353V460.319H498.373V449.901C498.373 447.025 500.705 444.693 503.582 444.693C506.458 444.693 508.79 447.025 508.79 449.901V460.319H513.474V439.177Z" fill="black"/>
<path fill-rule="evenodd" clip-rule="evenodd" d="M440.384 485.688H415.014V544.886H440.384V485.688ZM428.371 498.179C424.072 498.179 420.587 501.664 420.587 505.963V544.886H436.156V505.963C436.156 501.664 432.67 498.179 428.371 498.179Z" fill="black"/>
<path d="M459.083 403.26L448.913 413.806H470.383V403.26H459.083Z" fill="black"/>
<path d="M480.554 403.26L490.724 413.806H469.254V403.26H480.554Z" fill="black"/>
</g>
<path d="M252 482L332 439L317 482H252Z" fill="white" fill-opacity="0.3"/>
<path d="M794.5 447L787.5 397.5L838.5 454.5L794.5 447Z" fill="white" fill-opacity="0.3"/>
<path d="M902 447.5L937 419.5V450.5L902 447.5Z" fill="white" fill-opacity="0.3"/>
<path d="M1024.5 424.5L1018 351L1044.5 395L1024.5 424.5Z" fill="white" fill-opacity="0.3"/>
<path d="M845.5 325L902 287L882.5 340L845.5 325Z" fill="white" fill-opacity="0.3"/>
<path d="M753 351L800 299.5L793.5 334.5L753 351Z" fill="black" fill-opacity="0.2"/>
<path d="M605.5 493.5L592 445L625 479.5L605.5 493.5Z" fill="black" fill-opacity="0.2"/>
<path d="M872 455.5L859 391L891.5 440.5L872 455.5Z" fill="white" fill-opacity="0.3"/>
<path d="M740.5 315.5L720.5 263L750.5 290L740.5 315.5Z" fill="white" fill-opacity="0.3"/>
<path d="M616.5 371L566 390.5L602 359L616.5 371Z" fill="white" fill-opacity="0.3"/>
<path d="M349.5 359L313.5 377.5L346.5 323L349.5 359Z" fill="white" fill-opacity="0.3"/>
<path d="M427.5 408.5L398.5 396.5V377L427.5 408.5Z" fill="white" fill-opacity="0.3"/>
<path d="M226.5 441L205.5 451L198 414.5L226.5 441Z" fill="white" fill-opacity="0.3"/>
<defs>
<filter id="filter0_d" x="187" y="345.695" width="25.8305" height="69.4194" filterUnits="userSpaceOnUse" color-interpolation-filters="sRGB">
<feFlood flood-opacity="0" result="BackgroundImageFix"/>
<feColorMatrix in="SourceAlpha" type="matrix" values="0 0 0 0 0 0 0 0 0 0 0 0 0 0 0 0 0 0 127 0"/>
<feOffset dx="2.15253" dy="-2.15253"/>
<feGaussianBlur stdDeviation="1.07627"/>
<feColorMatrix type="matrix" values="0 0 0 0 0 0 0 0 0 0 0 0 0 0 0 0 0 0 0.2 0"/>
<feBlend mode="normal" in2="BackgroundImageFix" result="effect1_dropShadow"/>
<feBlend mode="normal" in="SourceGraphic" in2="effect1_dropShadow" result="shape"/>
</filter>
<filter id="filter1_d" x="674" y="129" width="213" height="205" filterUnits="userSpaceOnUse" color-interpolation-filters="sRGB">
<feFlood flood-opacity="0" result="BackgroundImageFix"/>
<feColorMatrix in="SourceAlpha" type="matrix" values="0 0 0 0 0 0 0 0 0 0 0 0 0 0 0 0 0 0 127 0"/>
<feOffset dx="12" dy="4"/>
<feGaussianBlur stdDeviation="2"/>
<feColorMatrix type="matrix" values="0 0 0 0 0 0 0 0 0 0 0 0 0 0 0 0 0 0 0.1 0"/>
<feBlend mode="normal" in2="BackgroundImageFix" result="effect1_dropShadow"/>
<feBlend mode="normal" in="SourceGraphic" in2="effect1_dropShadow" result="shape"/>
</filter>
<filter id="filter2_d" x="700" y="148" width="48" height="129" filterUnits="userSpaceOnUse" color-interpolation-filters="sRGB">
<feFlood flood-opacity="0" result="BackgroundImageFix"/>
<feColorMatrix in="SourceAlpha" type="matrix" values="0 0 0 0 0 0 0 0 0 0 0 0 0 0 0 0 0 0 127 0"/>
<feOffset dx="4" dy="-4"/>
<feGaussianBlur stdDeviation="2"/>
<feColorMatrix type="matrix" values="0 0 0 0 0 0 0 0 0 0 0 0 0 0 0 0 0 0 0.2 0"/>
<feBlend mode="normal" in2="BackgroundImageFix" result="effect1_dropShadow"/>
<feBlend mode="normal" in="SourceGraphic" in2="effect1_dropShadow" result="shape"/>
</filter>
<filter id="filter3_d" x="85" y="243" width="1127" height="312" filterUnits="userSpaceOnUse" color-interpolation-filters="sRGB">
<feFlood flood-opacity="0" result="BackgroundImageFix"/>
<feColorMatrix in="SourceAlpha" type="matrix" values="0 0 0 0 0 0 0 0 0 0 0 0 0 0 0 0 0 0 127 0"/>
<feOffset dx="12"/>
<feGaussianBlur stdDeviation="5"/>
<feColorMatrix type="matrix" values="0 0 0 0 0 0 0 0 0 0 0 0 0 0 0 0 0 0 0.1 0"/>
<feBlend mode="normal" in2="BackgroundImageFix" result="effect1_dropShadow"/>
<feBlend mode="normal" in="SourceGraphic" in2="effect1_dropShadow" result="shape"/>
</filter>
<filter id="filter4_d" x="918" y="297" width="48" height="129" filterUnits="userSpaceOnUse" color-interpolation-filters="sRGB">
<feFlood flood-opacity="0" result="BackgroundImageFix"/>
<feColorMatrix in="SourceAlpha" type="matrix" values="0 0 0 0 0 0 0 0 0 0 0 0 0 0 0 0 0 0 127 0"/>
<feOffset dx="4" dy="-4"/>
<feGaussianBlur stdDeviation="2"/>
<feColorMatrix type="matrix" values="0 0 0 0 0 0 0 0 0 0 0 0 0 0 0 0 0 0 0.2 0"/>
<feBlend mode="normal" in2="BackgroundImageFix" result="effect1_dropShadow"/>
<feBlend mode="normal" in="SourceGraphic" in2="effect1_dropShadow" result="shape"/>
</filter>
<filter id="filter5_d" x="338.75" y="270.75" width="623.882" height="277.488" filterUnits="userSpaceOnUse" color-interpolation-filters="sRGB">
<feFlood flood-opacity="0" result="BackgroundImageFix"/>
<feColorMatrix in="SourceAlpha" type="matrix" values="0 0 0 0 0 0 0 0 0 0 0 0 0 0 0 0 0 0 127 0"/>
<feOffset dx="12" dy="-4"/>
<feGaussianBlur stdDeviation="6.125"/>
<feColorMatrix type="matrix" values="0 0 0 0 0 0 0 0 0 0 0 0 0 0 0 0 0 0 0.1 0"/>
<feBlend mode="normal" in2="BackgroundImageFix" result="effect1_dropShadow"/>
<feBlend mode="normal" in="SourceGraphic" in2="effect1_dropShadow" result="shape"/>
</filter>
<filter id="filter6_d" x="0.748485" y="367.748" width="1165.5" height="185.658" filterUnits="userSpaceOnUse" color-interpolation-filters="sRGB">
<feFlood flood-opacity="0" result="BackgroundImageFix"/>
<feColorMatrix in="SourceAlpha" type="matrix" values="0 0 0 0 0 0 0 0 0 0 0 0 0 0 0 0 0 0 127 0"/>
<feOffset dx="12" dy="-4"/>
<feGaussianBlur stdDeviation="6.12576"/>
<feColorMatrix type="matrix" values="0 0 0 0 0 0 0 0 0 0 0 0 0 0 0 0 0 0 0.1 0"/>
<feBlend mode="normal" in2="BackgroundImageFix" result="effect1_dropShadow"/>
<feBlend mode="normal" in="SourceGraphic" in2="effect1_dropShadow" result="shape"/>
</filter>
<filter id="filter7_d" x="535" y="393.604" width="56.3758" height="151.51" filterUnits="userSpaceOnUse" color-interpolation-filters="sRGB">
<feFlood flood-opacity="0" result="BackgroundImageFix"/>
<feColorMatrix in="SourceAlpha" type="matrix" values="0 0 0 0 0 0 0 0 0 0 0 0 0 0 0 0 0 0 127 0"/>
<feOffset dx="4.69799" dy="-4.69799"/>
<feGaussianBlur stdDeviation="2.34899"/>
<feColorMatrix type="matrix" values="0 0 0 0 0 0 0 0 0 0 0 0 0 0 0 0 0 0 0.2 0"/>
<feBlend mode="normal" in2="BackgroundImageFix" result="effect1_dropShadow"/>
<feBlend mode="normal" in="SourceGraphic" in2="effect1_dropShadow" result="shape"/>
</filter>
<filter id="filter8_d" x="358" y="393.604" width="56.3758" height="151.51" filterUnits="userSpaceOnUse" color-interpolation-filters="sRGB">
<feFlood flood-opacity="0" result="BackgroundImageFix"/>
<feColorMatrix in="SourceAlpha" type="matrix" values="0 0 0 0 0 0 0 0 0 0 0 0 0 0 0 0 0 0 127 0"/>
<feOffset dx="4.69799" dy="-4.69799"/>
<feGaussianBlur stdDeviation="2.34899"/>
<feColorMatrix type="matrix" values="0 0 0 0 0 0 0 0 0 0 0 0 0 0 0 0 0 0 0.2 0"/>
<feBlend mode="normal" in2="BackgroundImageFix" result="effect1_dropShadow"/>
<feBlend mode="normal" in="SourceGraphic" in2="effect1_dropShadow" result="shape"/>
</filter>
<filter id="filter9_d" x="412" y="401" width="129.107" height="157.357" filterUnits="userSpaceOnUse" color-interpolation-filters="sRGB">
<feFlood flood-opacity="0" result="BackgroundImageFix"/>
<feColorMatrix in="SourceAlpha" type="matrix" values="0 0 0 0 0 0 0 0 0 0 0 0 0 0 0 0 0 0 127 0"/>
<feOffset dx="6.73549" dy="6.73549"/>
<feGaussianBlur stdDeviation="3.36774"/>
<feColorMatrix type="matrix" values="0 0 0 0 0 0 0 0 0 0 0 0 0 0 0 0 0 0 0.16 0"/>
<feBlend mode="normal" in2="BackgroundImageFix" result="effect1_dropShadow"/>
<feBlend mode="normal" in="SourceGraphic" in2="effect1_dropShadow" result="shape"/>
</filter>
</defs>
</svg>
