<svg width="1041" height="561" viewBox="0 0 1041 561" fill="none" xmlns="http://www.w3.org/2000/svg">
<g filter="url(#filter0_d)">
<path d="M45.3205 510L0 545H1010L974.391 510H45.3205Z" fill="#91D7B9"/>
<path d="M127.5 475L89 510H947L916.75 475H127.5Z" fill="#A2DAAF"/>
<path d="M224.41 440L193 475H893L868.32 440H224.41Z" fill="#B2DDA5"/>
<path d="M302.218 405L277 440H839L819.186 405H302.218Z" fill="#C3E09B"/>
<path d="M351.112 370.575L331.398 405.363H770.749L755.259 370.575H351.112Z" fill="#D3E391"/>
<path d="M381.828 335.787L368.762 370.574H659.945L649.679 335.787H381.828Z" fill="#E3E687"/>
<path d="M408.373 301L400.973 335.787H565.891L560.076 301H408.373Z" fill="#F4E97D"/>
</g>
<g filter="url(#filter1_d)">
<rect x="456.798" y="283.45" width="2.4364" height="22.9718" fill="black"/>
<rect x="498.027" y="283.45" width="2.4364" height="22.9718" fill="black"/>
<path d="M451.352 249.785L474.497 239.131L501.124 249.785V285.3H451.352V249.785Z" fill="black"/>
<rect x="451.645" y="282.162" width="2.4364" height="22.6237" fill="black"/>
<rect x="492.874" y="282.162" width="2.4364" height="22.6237" fill="black"/>
<rect x="448.566" y="279.39" width="55.341" height="6.96114" fill="black"/>
<g filter="url(#filter2_i)">
<rect x="480.936" y="262.335" width="10.7898" height="8.70142" fill="white"/>
</g>
<g filter="url(#filter3_i)">
<rect x="459.704" y="262.335" width="10.7898" height="17.0548" fill="white"/>
</g>
<path d="M441.981 253.817L474.836 239L509.624 253.817" stroke="black" stroke-width="5.15368"/>
</g>
<path d="M503.5 284L503.5 271" stroke="black"/>
<path d="M500.5 284L500.5 271" stroke="black"/>
<path d="M497.5 284L497.5 271" stroke="black"/>
<path d="M494.5 284L494.5 271" stroke="black"/>
<path d="M491.5 284L491.5 271" stroke="black"/>
<path d="M488.5 284L488.5 271" stroke="black"/>
<path d="M485.5 284L485.5 271" stroke="black"/>
<path d="M482.5 284L482.5 271" stroke="black"/>
<path d="M479.5 284L479.5 271" stroke="black"/>
<path d="M476.5 284L476.5 271" stroke="black"/>
<path d="M473.5 284L473.5 271" stroke="black"/>
<path d="M470.5 284L470.5 271" stroke="black"/>
<path d="M467.5 284L467.5 271" stroke="black"/>
<path d="M464.5 284L464.5 271" stroke="black"/>
<path d="M461.5 284L461.5 271" stroke="black"/>
<path d="M458.5 284L458.5 271" stroke="black"/>
<path d="M455.5 284L455.5 271" stroke="black"/>
<path d="M452.5 284L452.5 271" stroke="black"/>
<path d="M449.5 284L449.5 271" stroke="black"/>
<path d="M448 271L505 271" stroke="black"/>
<rect x="456" y="522" width="3" height="23" fill="black"/>
<rect x="497" y="522" width="3" height="23" fill="black"/>
<path d="M450.37 488.786L473.516 478.132L500.142 488.786V524.301H450.37V488.786Z" fill="black"/>
<rect x="451" y="521" width="3" height="24" fill="black"/>
<rect x="492" y="521" width="3" height="24" fill="black"/>
<rect x="447.585" y="518.39" width="55.341" height="6.96114" fill="black"/>
<rect x="479.954" y="501.335" width="10.7898" height="8.70142" fill="white"/>
<rect x="458.723" y="501.335" width="10.7898" height="17.0548" fill="white"/>
<path d="M441 492.817L473.855 478L508.642 492.817" stroke="black" stroke-width="5.15368"/>
<path d="M502 525V511" stroke="black"/>
<path d="M499 525V511" stroke="black"/>
<path d="M496 525V511" stroke="black"/>
<path d="M493 525V511" stroke="black"/>
<path d="M490 525V511" stroke="black"/>
<path d="M487 525V511" stroke="black"/>
<path d="M484 525V511" stroke="black"/>
<path d="M481 525V511" stroke="black"/>
<path d="M478 525V511" stroke="black"/>
<path d="M475 525V511" stroke="black"/>
<path d="M472 525V511" stroke="black"/>
<path d="M469 525V511" stroke="black"/>
<path d="M466 525V511" stroke="black"/>
<path d="M463 525V511" stroke="black"/>
<path d="M460 525V511" stroke="black"/>
<path d="M457 525V511" stroke="black"/>
<path d="M454 525V511" stroke="black"/>
<path d="M451 525V511" stroke="black"/>
<path d="M448 525V511" stroke="black"/>
<path d="M446.5 511H503.5" stroke="black"/>
<rect x="385" y="418" width="3" height="23" fill="black"/>
<rect x="426" y="418" width="3" height="23" fill="black"/>
<path d="M379.37 384.786L402.516 374.132L429.142 384.786V420.301H379.37V384.786Z" fill="black"/>
<rect x="380" y="417" width="3" height="24" fill="black"/>
<rect x="421" y="417" width="3" height="24" fill="black"/>
<rect x="376.585" y="414.39" width="55.341" height="6.96114" fill="black"/>
<rect x="408.954" y="397.335" width="10.7898" height="8.70142" fill="white"/>
<rect x="387.723" y="397.335" width="10.7898" height="17.0548" fill="white"/>
<path d="M370 388.817L402.855 374L437.642 388.817" stroke="black" stroke-width="5.15368"/>
<path d="M431 421V407" stroke="black"/>
<path d="M428 421V407" stroke="black"/>
<path d="M425 421V407" stroke="black"/>
<path d="M422 421V407" stroke="black"/>
<path d="M419 421V407" stroke="black"/>
<path d="M416 421V407" stroke="black"/>
<path d="M413 421V407" stroke="black"/>
<path d="M410 421V407" stroke="black"/>
<path d="M407 421V407" stroke="black"/>
<path d="M404 421V407" stroke="black"/>
<path d="M401 421V407" stroke="black"/>
<path d="M398 421V407" stroke="black"/>
<path d="M395 421V407" stroke="black"/>
<path d="M392 421V407" stroke="black"/>
<path d="M389 421V407" stroke="black"/>
<path d="M386 421V407" stroke="black"/>
<path d="M383 421V407" stroke="black"/>
<path d="M380 421V407" stroke="black"/>
<path d="M377 421V407" stroke="black"/>
<path d="M375.5 407H432.5" stroke="black"/>
<rect x="734" y="452" width="3" height="23" fill="black"/>
<rect x="775" y="452" width="3" height="23" fill="black"/>
<path d="M728.37 418.786L751.516 408.132L778.142 418.786V454.301H728.37V418.786Z" fill="black"/>
<rect x="729" y="451" width="3" height="24" fill="black"/>
<rect x="770" y="451" width="3" height="24" fill="black"/>
<rect x="725.585" y="448.39" width="55.341" height="6.96114" fill="black"/>
<rect x="757.954" y="431.335" width="10.7898" height="8.70142" fill="white"/>
<rect x="736.723" y="431.335" width="10.7898" height="17.0548" fill="white"/>
<path d="M719 422.817L751.855 408L786.642 422.817" stroke="black" stroke-width="5.15368"/>
<path d="M780 455V441" stroke="black"/>
<path d="M777 455V441" stroke="black"/>
<path d="M774 455V441" stroke="black"/>
<path d="M771 455V441" stroke="black"/>
<path d="M768 455V441" stroke="black"/>
<path d="M765 455V441" stroke="black"/>
<path d="M762 455V441" stroke="black"/>
<path d="M759 455V441" stroke="black"/>
<path d="M756 455V441" stroke="black"/>
<path d="M753 455V441" stroke="black"/>
<path d="M750 455V441" stroke="black"/>
<path d="M747 455V441" stroke="black"/>
<path d="M744 455V441" stroke="black"/>
<path d="M741 455V441" stroke="black"/>
<path d="M738 455V441" stroke="black"/>
<path d="M735 455V441" stroke="black"/>
<path d="M732 455V441" stroke="black"/>
<path d="M729 455V441" stroke="black"/>
<path d="M726 455V441" stroke="black"/>
<path d="M724.5 441H781.5" stroke="black"/>
<rect x="640.643" y="522" width="3" height="23" fill="black"/>
<rect x="681.643" y="522" width="3" height="23" fill="black"/>
<path d="M635.013 488.786L658.158 478.132L684.785 488.786V524.301H635.013V488.786Z" fill="black"/>
<rect x="635.643" y="521" width="3" height="24" fill="black"/>
<rect x="676.643" y="521" width="3" height="24" fill="black"/>
<rect x="632.228" y="518.39" width="55.341" height="6.96114" fill="black"/>
<rect x="664.597" y="501.335" width="10.7898" height="8.70142" fill="white"/>
<rect x="643.365" y="501.335" width="10.7898" height="17.0548" fill="white"/>
<path d="M625.643 492.817L658.497 478L693.285 492.817" stroke="black" stroke-width="5.15368"/>
<path d="M686.643 525V511" stroke="black"/>
<path d="M683.643 525V511" stroke="black"/>
<path d="M680.643 525V511" stroke="black"/>
<path d="M677.643 525V511" stroke="black"/>
<path d="M674.643 525V511" stroke="black"/>
<path d="M671.643 525V511" stroke="black"/>
<path d="M668.643 525V511" stroke="black"/>
<path d="M665.643 525V511" stroke="black"/>
<path d="M662.643 525V511" stroke="black"/>
<path d="M659.643 525V511" stroke="black"/>
<path d="M656.643 525V511" stroke="black"/>
<path d="M653.643 525V511" stroke="black"/>
<path d="M650.643 525V511" stroke="black"/>
<path d="M647.643 525V511" stroke="black"/>
<path d="M644.643 525V511" stroke="black"/>
<path d="M641.643 525V511" stroke="black"/>
<path d="M638.643 525V511" stroke="black"/>
<path d="M635.643 525V511" stroke="black"/>
<path d="M632.643 525V511" stroke="black"/>
<path d="M631.143 511H688.143" stroke="black"/>
<path d="M517.5 488.615L567.5 478L617.5 488.615V524H517.5V488.615Z" fill="black"/>
<rect x="549.5" y="522" width="3" height="23" fill="black"/>
<rect x="614.5" y="522" width="3" height="23" fill="black"/>
<rect x="517.5" y="521" width="3" height="24" fill="black"/>
<rect x="581.5" y="521" width="3" height="24" fill="black"/>
<rect x="517.5" y="518" width="100" height="7" fill="black"/>
<rect x="555.5" y="501" width="4" height="9" fill="white"/>
<rect x="548.5" y="501" width="4" height="9" fill="white"/>
<rect x="541.5" y="501" width="4" height="9" fill="white"/>
<rect x="534.5" y="501" width="4" height="9" fill="white"/>
<rect x="527.5" y="501" width="4" height="9" fill="white"/>
<rect x="520.5" y="501" width="4" height="9" fill="white"/>
<rect x="576.29" y="501" width="4" height="9" fill="white"/>
<rect x="583.29" y="501" width="4" height="9" fill="white"/>
<rect x="590.29" y="501" width="4" height="9" fill="white"/>
<rect x="597.29" y="501" width="4" height="9" fill="white"/>
<rect x="604.29" y="501" width="4" height="9" fill="white"/>
<rect x="611.29" y="501" width="4" height="9" fill="white"/>
<rect x="562.5" y="501" width="10.7898" height="17.0548" fill="white"/>
<path d="M513 492L566.3 478L622 492" stroke="black" stroke-width="5.15368"/>
<path d="M594.592 525L594.592 511" stroke="black"/>
<path d="M591.776 525L591.776 511" stroke="black"/>
<path d="M588.961 525L588.961 511" stroke="black"/>
<path d="M586.145 525L586.145 511" stroke="black"/>
<path d="M583.329 525L583.329 511" stroke="black"/>
<path d="M580.513 525L580.513 511" stroke="black"/>
<path d="M577.697 525L577.697 511" stroke="black"/>
<path d="M574.882 525L574.882 511" stroke="black"/>
<path d="M572.066 525L572.066 511" stroke="black"/>
<path d="M569.25 525L569.25 511" stroke="black"/>
<path d="M566.434 525L566.434 511" stroke="black"/>
<path d="M563.618 525L563.618 511" stroke="black"/>
<path d="M560.803 525L560.803 511" stroke="black"/>
<path d="M557.987 525L557.987 511" stroke="black"/>
<path d="M555.171 525L555.171 511" stroke="black"/>
<path d="M552.355 525L552.355 511" stroke="black"/>
<path d="M549.539 525L549.539 511" stroke="black"/>
<path d="M546.724 525L546.724 511" stroke="black"/>
<path d="M543.908 525L543.908 511" stroke="black"/>
<path d="M542.5 511L596 511" stroke="black"/>
<rect x="551.5" y="463" width="30" height="30" fill="black"/>
<path d="M566.5 453L581.5 463H551.5L566.5 453Z" fill="black"/>
<path d="M548 466.5L566.5 453.5L585.5 466.5" stroke="black" stroke-width="4"/>
<rect x="571.5" y="468" width="4" height="9" fill="white"/>
<rect x="564.5" y="468" width="4" height="9" fill="white"/>
<rect x="557.5" y="468" width="4" height="9" fill="white"/>
<g filter="url(#filter4_d)">
<rect x="719" y="157" width="293" height="40" rx="20" fill="#FFF6F0"/>
<rect x="741.596" y="132" width="247.807" height="33" rx="16.5" fill="#FFF6F0"/>
<rect x="773.231" y="109" width="184.537" height="33" rx="16.5" fill="#FFF6F0"/>
<rect x="810.892" y="93" width="109.216" height="33" rx="16.5" fill="#FFF6F0"/>
</g>
<g filter="url(#filter5_d)">
<rect x="39" y="79.2305" width="293" height="45.7692" rx="22.8846" fill="#FFF5EE"/>
<rect x="61.5967" y="50.625" width="247.807" height="37.7596" rx="18.8798" fill="#FFF5EE"/>
<rect x="93.2314" y="24.3076" width="184.537" height="37.7596" rx="18.8798" fill="#FFF5EE"/>
<rect x="130.892" y="6" width="109.216" height="37.7596" rx="18.8798" fill="#FFF5EE"/>
</g>
<defs>
<filter id="filter0_d" x="0" y="285.539" width="1040.92" height="274.922" filterUnits="userSpaceOnUse" color-interpolation-filters="sRGB">
<feFlood flood-opacity="0" result="BackgroundImageFix"/>
<feColorMatrix in="SourceAlpha" type="matrix" values="0 0 0 0 0 0 0 0 0 0 0 0 0 0 0 0 0 0 127 0"/>
<feOffset dx="15.4611"/>
<feGaussianBlur stdDeviation="7.73053"/>
<feColorMatrix type="matrix" values="0 0 0 0 0 0 0 0 0 0 0 0 0 0 0 0 0 0 0.1 0"/>
<feBlend mode="normal" in2="BackgroundImageFix" result="effect1_dropShadow"/>
<feBlend mode="normal" in="SourceGraphic" in2="effect1_dropShadow" result="shape"/>
</filter>
<filter id="filter1_d" x="440.922" y="226.187" width="83.7112" height="82.2354" filterUnits="userSpaceOnUse" color-interpolation-filters="sRGB">
<feFlood flood-opacity="0" result="BackgroundImageFix"/>
<feColorMatrix in="SourceAlpha" type="matrix" values="0 0 0 0 0 0 0 0 0 0 0 0 0 0 0 0 0 0 127 0"/>
<feOffset dx="8" dy="-4"/>
<feGaussianBlur stdDeviation="3"/>
<feColorMatrix type="matrix" values="0 0 0 0 0 0 0 0 0 0 0 0 0 0 0 0 0 0 0.1 0"/>
<feBlend mode="normal" in2="BackgroundImageFix" result="effect1_dropShadow"/>
<feBlend mode="normal" in="SourceGraphic" in2="effect1_dropShadow" result="shape"/>
</filter>
<filter id="filter2_i" x="480.936" y="262.335" width="11.8339" height="9.74559" filterUnits="userSpaceOnUse" color-interpolation-filters="sRGB">
<feFlood flood-opacity="0" result="BackgroundImageFix"/>
<feBlend mode="normal" in="SourceGraphic" in2="BackgroundImageFix" result="shape"/>
<feColorMatrix in="SourceAlpha" type="matrix" values="0 0 0 0 0 0 0 0 0 0 0 0 0 0 0 0 0 0 127 0" result="hardAlpha"/>
<feOffset dx="1.04417" dy="1.04417"/>
<feGaussianBlur stdDeviation="0.696114"/>
<feComposite in2="hardAlpha" operator="arithmetic" k2="-1" k3="1"/>
<feColorMatrix type="matrix" values="0 0 0 0 0 0 0 0 0 0 0 0 0 0 0 0 0 0 0.25 0"/>
<feBlend mode="normal" in2="shape" result="effect1_innerShadow"/>
</filter>
<filter id="filter3_i" x="459.704" y="262.335" width="11.8339" height="18.099" filterUnits="userSpaceOnUse" color-interpolation-filters="sRGB">
<feFlood flood-opacity="0" result="BackgroundImageFix"/>
<feBlend mode="normal" in="SourceGraphic" in2="BackgroundImageFix" result="shape"/>
<feColorMatrix in="SourceAlpha" type="matrix" values="0 0 0 0 0 0 0 0 0 0 0 0 0 0 0 0 0 0 127 0" result="hardAlpha"/>
<feOffset dx="1.04417" dy="1.04417"/>
<feGaussianBlur stdDeviation="0.696114"/>
<feComposite in2="hardAlpha" operator="arithmetic" k2="-1" k3="1"/>
<feColorMatrix type="matrix" values="0 0 0 0 0 0 0 0 0 0 0 0 0 0 0 0 0 0 0.25 0"/>
<feBlend mode="normal" in2="shape" result="effect1_innerShadow"/>
</filter>
<filter id="filter4_d" x="719" y="93" width="301" height="112" filterUnits="userSpaceOnUse" color-interpolation-filters="sRGB">
<feFlood flood-opacity="0" result="BackgroundImageFix"/>
<feColorMatrix in="SourceAlpha" type="matrix" values="0 0 0 0 0 0 0 0 0 0 0 0 0 0 0 0 0 0 127 0"/>
<feOffset dx="4" dy="4"/>
<feGaussianBlur stdDeviation="2"/>
<feColorMatrix type="matrix" values="0 0 0 0 0 0 0 0 0 0 0 0 0 0 0 0 0 0 0.1 0"/>
<feBlend mode="normal" in2="BackgroundImageFix" result="effect1_dropShadow"/>
<feBlend mode="normal" in="SourceGraphic" in2="effect1_dropShadow" result="shape"/>
</filter>
<filter id="filter5_d" x="39" y="6" width="301" height="127" filterUnits="userSpaceOnUse" color-interpolation-filters="sRGB">
<feFlood flood-opacity="0" result="BackgroundImageFix"/>
<feColorMatrix in="SourceAlpha" type="matrix" values="0 0 0 0 0 0 0 0 0 0 0 0 0 0 0 0 0 0 127 0"/>
<feOffset dx="4" dy="4"/>
<feGaussianBlur stdDeviation="2"/>
<feColorMatrix type="matrix" values="0 0 0 0 0 0 0 0 0 0 0 0 0 0 0 0 0 0 0.1 0"/>
<feBlend mode="normal" in2="BackgroundImageFix" result="effect1_dropShadow"/>
<feBlend mode="normal" in="SourceGraphic" in2="effect1_dropShadow" result="shape"/>
</filter>
</defs>
</svg>
