<svg width="234" height="234" viewBox="0 0 234 234" fill="none" xmlns="http://www.w3.org/2000/svg">
<g filter="url(#filter0_i)">
<circle cx="117" cy="117" r="117" fill="#539882"/>
</g>
<g filter="url(#filter1_d)">
<path d="M24.208 108.909C26.6249 77.9474 41.1319 48.7878 71.8589 45.41C102.589 42.0317 121.701 81.9531 152.615 81.9469C155.123 81.9464 172.697 81.2086 183.463 86.9865C201.899 96.8814 206.969 113.438 208.793 134.358C213.283 185.88 164.188 198.231 113.992 186.77C68.8264 176.458 20.5863 155.302 24.208 108.909Z" fill="#D7D4D2"/>
</g>
<g filter="url(#filter2_i)">
<path fill-rule="evenodd" clip-rule="evenodd" d="M61.0947 95.8226C70.9887 81.0904 84.8874 72.0543 102.836 75.6694C110.457 77.2044 117.066 80.1165 122.18 84.7314C127.311 89.3628 130.825 95.6094 132.395 103.603C133.293 108.177 133.601 112.478 133.238 116.43C133.236 116.458 133.234 116.485 133.231 116.512C132.967 119.311 132.365 121.934 131.397 124.353C130.512 126.564 129.331 128.579 127.853 130.383C130.824 132.498 135.955 136.38 141.772 140.884C145.582 143.833 146.968 147.245 146.919 150.412C146.872 153.459 145.504 156.038 144.237 157.526C144.194 157.575 144.15 157.622 144.103 157.667C141.862 159.811 136.092 164.079 130.222 166.745C119.985 171.395 109.815 173.226 100.043 171.957C90.2607 170.687 81.0033 166.327 72.5788 158.801C54.1676 142.354 47.0246 116.773 61.0947 95.8226ZM125.161 133.151C123.128 134.92 120.716 136.412 117.922 137.606C116.79 138.09 115.615 138.486 114.411 138.798C114.392 138.803 114.373 138.808 114.354 138.813C112.149 139.378 109.847 139.662 107.532 139.686C107.877 139.865 107.877 139.865 107.877 139.864L107.876 139.867L107.868 139.883C107.86 139.898 107.848 139.923 107.831 139.955C107.798 140.021 107.748 140.121 107.684 140.253C107.557 140.516 107.373 140.903 107.155 141.389C106.719 142.363 106.15 143.724 105.62 145.27C104.526 148.461 103.73 152.064 104.241 154.703C104.826 157.722 107.431 161.046 110.227 163.79C111.58 165.118 112.895 166.232 113.873 167.014C114.228 167.298 114.538 167.537 114.786 167.726C119.327 166.888 123.956 165.402 128.645 163.272C134.047 160.818 139.395 156.863 141.393 154.98C142.199 154.002 143.075 152.285 143.105 150.353C143.134 148.493 142.384 146.182 139.437 143.9C133.246 139.106 127.925 135.091 125.161 133.151ZM109.594 168.403C108.949 167.837 108.258 167.202 107.555 166.513C104.709 163.719 101.32 159.686 100.496 155.428C99.7804 151.731 100.892 147.296 102.012 144.032C102.589 142.351 103.204 140.88 103.674 139.83C103.724 139.717 103.773 139.609 103.82 139.506C100.493 139.15 97.2296 138.28 94.2811 136.963C92.7979 136.3 91.374 135.514 90.0497 134.609C89.8319 134.489 89.638 134.349 89.4651 134.197C88.442 133.454 87.485 132.638 86.6138 131.752C85.0839 133.212 83.5364 134.895 82.0833 136.523C81.0879 137.638 80.1048 139.358 79.3154 141.335C78.5316 143.299 77.9914 145.385 77.8047 147.159C77.4301 150.717 77.3011 154.175 77.3011 157.79C77.3011 157.798 77.301 157.806 77.3009 157.814C84.6 163.731 92.4109 167.119 100.534 168.174C103.501 168.559 106.524 168.635 109.594 168.403ZM73.5256 154.48C73.5891 151.915 73.7363 149.369 74.011 146.759C74.2403 144.581 74.8816 142.153 75.7727 139.921C76.6581 137.703 77.8433 135.545 79.2375 133.983C80.7631 132.273 82.4751 130.408 84.2069 128.777C82.4153 126.035 81.3806 122.817 81.4794 119.179C81.5492 116.612 81.9982 114.016 82.7911 111.553C80.8308 111.466 78.8953 111.292 77.0094 111.122C76.7368 111.098 76.4652 111.073 76.1948 111.049C73.2548 110.788 70.4227 110.567 67.5808 110.679C65.4683 110.762 62.7882 111.224 61.2364 111.987C59.903 112.643 59.318 113.374 58.4647 114.686C58.2833 114.965 58.0414 115.181 57.7674 115.328C56.1537 129.251 62.1968 143.603 73.5256 154.48ZM59.1095 108.794C59.2517 108.716 59.3991 108.64 59.5521 108.564C61.8044 107.456 65.1053 106.959 67.4305 106.867C70.5434 106.744 73.5953 106.988 76.5329 107.25C76.801 107.273 77.068 107.297 77.3341 107.321C79.717 107.535 82.021 107.742 84.3295 107.786C85.05 106.354 85.8991 105.008 86.8679 103.789C87.0855 103.515 87.3095 103.248 87.5399 102.986C87.5188 102.865 87.4951 102.732 87.4685 102.589C87.3239 101.811 87.0986 100.738 86.7767 99.5624C86.1083 97.1214 85.1117 94.5779 83.7936 93.1329C82.3813 91.5846 79.7295 90.3457 77.1423 89.4795C75.897 89.0625 74.7519 88.759 73.9181 88.5601C73.5022 88.4608 73.1665 88.3882 72.9378 88.341C72.8235 88.3174 72.7361 88.3002 72.679 88.2892C72.6505 88.2836 72.6295 88.2797 72.6166 88.2773L72.6032 88.2748L72.6016 88.2745C72.6018 88.2745 72.6019 88.2746 72.6531 87.9921C69.6168 90.786 66.8212 94.1381 64.2614 97.9496C61.9203 101.436 60.2188 105.077 59.1095 108.794ZM76.0618 85.1701C76.751 85.3568 77.5307 85.5865 78.3534 85.8619C81.014 86.7528 84.4927 88.2387 86.6118 90.5619C88.5839 92.7239 89.767 96.039 90.4559 98.5548C90.5977 99.0729 90.7224 99.5717 90.831 100.038C93.6883 98.0621 97.1379 97.0014 101.039 97.4432C102.894 97.6533 104.71 98.0169 106.4 98.6092C106.619 98.4591 106.834 98.3289 107.006 98.2246L107.007 98.2241C107.143 98.1418 107.279 98.0608 107.417 97.9786C107.74 97.7856 108.076 97.5855 108.452 97.3456C109.493 96.6807 110.643 95.8318 111.632 94.6689C113.402 92.5882 114.906 89.2206 113.608 83.3813C110.24 81.5894 106.381 80.275 102.083 79.4092C92.0927 77.3971 83.4382 79.7165 76.0618 85.1701ZM117.86 86.0986C118.212 91.0916 116.672 94.632 114.537 97.1411C113.203 98.7095 111.704 99.7955 110.504 100.561C110.458 100.591 110.412 100.62 110.367 100.648C112.343 102.091 113.93 104.104 114.889 106.893C115.627 109.038 116.073 111.479 116.01 113.886C116.452 114.083 117.197 114.3 118.279 114.478C119.597 114.695 121.182 114.82 122.826 114.867C125.33 114.939 127.819 114.826 129.538 114.635C129.68 111.511 129.385 108.073 128.652 104.338C127.225 97.0728 124.085 91.5899 119.624 87.5636C119.059 87.0536 118.471 86.5653 117.86 86.0986ZM129.11 118.51C127.244 118.674 124.945 118.744 122.717 118.681C120.97 118.631 119.202 118.496 117.659 118.242C116.906 118.118 116.135 117.955 115.419 117.729C115.255 118.277 115.054 118.811 114.814 119.329C113.905 121.29 112.434 122.987 110.294 124.112C109.197 124.689 107.959 125.098 106.577 125.327C106.768 126.862 107.607 129.183 108.981 131.266C109.746 132.427 110.61 133.408 111.496 134.082C112.295 134.689 113.032 134.989 113.69 135.042C114.63 134.788 115.544 134.474 116.423 134.098C122.207 131.626 125.899 127.822 127.855 122.935C128.406 121.56 128.824 120.084 129.11 118.51ZM107.784 135.866C107.043 135.103 106.377 134.248 105.796 133.366C104.172 130.902 102.991 127.898 102.762 125.519C102.618 125.512 102.473 125.503 102.326 125.493C98.9814 125.26 96.5569 124.068 94.9907 122.194C93.157 122.786 92.1055 124.595 91.7052 127.227C91.6157 127.814 91.5426 128.96 91.6571 129.999C91.7144 130.519 91.809 130.916 91.9157 131.174C91.9431 131.241 91.9662 131.286 91.9828 131.315C91.993 131.322 92.0033 131.329 92.0135 131.337C92.074 131.374 92.1318 131.413 92.1868 131.456C93.3025 132.217 94.5261 132.894 95.8369 133.48C99.5072 135.119 103.702 135.954 107.784 135.866ZM87.8519 127.339C87.8755 127.083 87.9038 126.851 87.934 126.653C88.3864 123.679 89.7811 120.167 93.2462 118.767C92.8162 117.167 92.7797 115.503 92.9288 114.003C93.033 112.955 93.9672 112.189 95.0154 112.294C96.0636 112.398 96.8289 113.332 96.7247 114.38C96.5357 116.281 96.7752 118.021 97.5744 119.278C98.3071 120.43 99.7076 121.486 102.592 121.687C105.259 121.873 107.169 121.445 108.519 120.735C109.853 120.035 110.764 118.996 111.354 117.725C112.572 115.097 112.413 111.421 111.282 108.134C109.764 103.721 106.029 101.848 100.61 101.234C96.2779 100.743 92.5882 102.722 89.8543 106.163C87.0953 109.635 85.4229 114.489 85.2926 119.282C85.2109 122.289 86.1515 125.008 87.8519 127.339Z" fill="#A6A6A6"/>
</g>
<defs>
<filter id="filter0_i" x="0" y="0" width="234" height="238" filterUnits="userSpaceOnUse" color-interpolation-filters="sRGB">
<feFlood flood-opacity="0" result="BackgroundImageFix"/>
<feBlend mode="normal" in="SourceGraphic" in2="BackgroundImageFix" result="shape"/>
<feColorMatrix in="SourceAlpha" type="matrix" values="0 0 0 0 0 0 0 0 0 0 0 0 0 0 0 0 0 0 127 0" result="hardAlpha"/>
<feOffset dy="4"/>
<feGaussianBlur stdDeviation="2"/>
<feComposite in2="hardAlpha" operator="arithmetic" k2="-1" k3="1"/>
<feColorMatrix type="matrix" values="0 0 0 0 0 0 0 0 0 0 0 0 0 0 0 0 0 0 0.25 0"/>
<feBlend mode="normal" in2="shape" result="effect1_innerShadow"/>
</filter>
<filter id="filter1_d" x="20.0159" y="45.207" width="193.063" height="153.508" filterUnits="userSpaceOnUse" color-interpolation-filters="sRGB">
<feFlood flood-opacity="0" result="BackgroundImageFix"/>
<feColorMatrix in="SourceAlpha" type="matrix" values="0 0 0 0 0 0 0 0 0 0 0 0 0 0 0 0 0 0 127 0"/>
<feOffset dy="4"/>
<feGaussianBlur stdDeviation="2"/>
<feColorMatrix type="matrix" values="0 0 0 0 0 0 0 0 0 0 0 0 0 0 0 0 0 0 0.25 0"/>
<feBlend mode="normal" in2="BackgroundImageFix" result="effect1_dropShadow"/>
<feBlend mode="normal" in="SourceGraphic" in2="effect1_dropShadow" result="shape"/>
</filter>
<filter id="filter2_i" x="53.6824" y="74.873" width="94.238" height="98.476" filterUnits="userSpaceOnUse" color-interpolation-filters="sRGB">
<feFlood flood-opacity="0" result="BackgroundImageFix"/>
<feBlend mode="normal" in="SourceGraphic" in2="BackgroundImageFix" result="shape"/>
<feColorMatrix in="SourceAlpha" type="matrix" values="0 0 0 0 0 0 0 0 0 0 0 0 0 0 0 0 0 0 127 0" result="hardAlpha"/>
<feOffset dx="2" dy="2"/>
<feGaussianBlur stdDeviation="0.5"/>
<feComposite in2="hardAlpha" operator="arithmetic" k2="-1" k3="1"/>
<feColorMatrix type="matrix" values="0 0 0 0 0 0 0 0 0 0 0 0 0 0 0 0 0 0 0.09 0"/>
<feBlend mode="normal" in2="shape" result="effect1_innerShadow"/>
</filter>
</defs>
</svg>
