<svg width="234" height="234" viewBox="0 0 234 234" fill="none" xmlns="http://www.w3.org/2000/svg">
<g filter="url(#filter0_i)">
<ellipse cx="116.747" cy="112.023" rx="116.747" ry="112.023" fill="#539882"/>
</g>
<g filter="url(#filter1_d)">
<path d="M173.822 132.109C203.072 109.89 185.72 125.018 214.97 102.799C204.001 74.7323 156.353 42.0625 156.353 42.0625L141.728 70.129C141.728 70.129 158.79 118.076 173.822 132.109Z" fill="#89CDD3"/>
<path d="M58.8527 132.109C29.6027 109.89 44.756 127.723 15.506 105.504C26.4747 77.4375 76.3214 42.0625 76.3214 42.0625L90.9464 70.129C90.9464 70.129 73.8839 118.076 58.8527 132.109Z" fill="#89CDD3"/>
<path d="M156.353 42.0634C156.353 42.0634 133.603 30.369 123.04 31.1486C119.384 31.1482 112.884 31.5381 108.415 31.395C94.1967 31.1486 75.9154 42.0634 75.9154 42.0634L83.2279 112.23L68.6029 193.31H163.665L149.04 112.23L156.353 42.0634Z" fill="#A6DFE4"/>
<path d="M107.603 31.1465H123.853V35.0446H107.603V31.1465Z" fill="#2C5291"/>
<path d="M115.728 112.227H104.933L90.5404 59.213L92.716 42.2429C93.1071 39.1919 94.7827 36.3731 97.4219 34.3258C100.061 32.2785 103.479 31.1465 107.021 31.1465H108.531V43.6205L104.933 59.213L115.728 112.227Z" fill="#89CDD3"/>
<path d="M115.728 112.227H126.871L141.728 59.213L139.482 42.2429C139.078 39.1919 137.349 36.3731 134.625 34.3258C131.9 32.2785 128.372 31.1465 124.716 31.1465H123.157V43.6205L126.871 59.213L115.728 112.227Z" fill="#89CDD3"/>
<path d="M116.135 119.243C115.165 119.243 114.235 119.503 113.549 119.966C112.863 120.429 104.353 108.453 104.353 109.108L97.0408 193.307H136.041L127.509 109.108C127.509 108.453 119.406 120.429 118.72 119.966C118.034 119.503 117.104 119.243 116.135 119.243Z" fill="#89CDD3"/>
<path d="M79.5717 108.721H152.697V122.754H79.5717V108.721Z" fill="#2C5291"/>
</g>
<defs>
<filter id="filter0_i" x="0" y="0" width="233.494" height="228.046" filterUnits="userSpaceOnUse" color-interpolation-filters="sRGB">
<feFlood flood-opacity="0" result="BackgroundImageFix"/>
<feBlend mode="normal" in="SourceGraphic" in2="BackgroundImageFix" result="shape"/>
<feColorMatrix in="SourceAlpha" type="matrix" values="0 0 0 0 0 0 0 0 0 0 0 0 0 0 0 0 0 0 127 0" result="hardAlpha"/>
<feOffset dy="4"/>
<feGaussianBlur stdDeviation="2"/>
<feComposite in2="hardAlpha" operator="arithmetic" k2="-1" k3="1"/>
<feColorMatrix type="matrix" values="0 0 0 0 0 0 0 0 0 0 0 0 0 0 0 0 0 0 0.25 0"/>
<feBlend mode="normal" in2="shape" result="effect1_innerShadow"/>
</filter>
<filter id="filter1_d" x="-4" y="9.46875" width="242" height="232.532" filterUnits="userSpaceOnUse" color-interpolation-filters="sRGB">
<feFlood flood-opacity="0" result="BackgroundImageFix"/>
<feColorMatrix in="SourceAlpha" type="matrix" values="0 0 0 0 0 0 0 0 0 0 0 0 0 0 0 0 0 0 127 0"/>
<feOffset dy="4"/>
<feGaussianBlur stdDeviation="2"/>
<feColorMatrix type="matrix" values="0 0 0 0 0 0 0 0 0 0 0 0 0 0 0 0 0 0 0.25 0"/>
<feBlend mode="normal" in2="BackgroundImageFix" result="effect1_dropShadow"/>
<feBlend mode="normal" in="SourceGraphic" in2="effect1_dropShadow" result="shape"/>
</filter>
</defs>
</svg>
