<svg width="234" height="234" viewBox="0 0 234 234" fill="none" xmlns="http://www.w3.org/2000/svg">
<g filter="url(#filter0_i)">
<circle cx="117" cy="117" r="117" fill="#539882"/>
</g>
<g filter="url(#filter1_d)">
<path fill-rule="evenodd" clip-rule="evenodd" d="M67.1861 74.1501C81.5335 78.1256 90.0193 92.9341 86.1584 107.343C82.7941 119.899 71.1591 128.028 58.6858 127.443L44.5679 180.132C44.4791 180.463 44.256 180.742 43.9522 180.901L38.3748 183.816C37.8154 184.108 37.1251 183.927 36.7808 183.398L33.4418 178.265C33.2522 177.974 33.1954 177.616 33.2853 177.28L37.0426 163.258C37.1325 162.922 37.3607 162.641 37.6703 162.483L42.3234 160.115C43.0147 159.764 43.209 158.866 42.725 158.26L39.8591 154.67C39.6165 154.366 39.5327 153.965 39.6334 153.589L43.6805 151.109C43.7117 150.993 43.4104 150.437 43.0274 149.731C42.4786 148.72 41.7622 147.399 41.6156 146.617C41.5637 146.34 42.2089 145.425 42.2638 145.398L47.2053 142.986C47.934 142.63 48.1222 141.677 47.5834 141.071L44.4902 137.592C44.2164 137.284 44.1158 136.859 44.2225 136.461L47.4458 124.432C36.261 118.654 30.2419 105.634 33.7875 92.9816C37.8078 78.6355 52.8282 70.1718 67.1861 74.1501ZM68.4219 91.5878C67.5724 94.7581 64.3138 96.6395 61.1436 95.79C57.9733 94.9405 56.0919 91.6819 56.9414 88.5117C57.7909 85.3414 61.0495 83.46 64.2197 84.3095C67.39 85.159 69.2714 88.4176 68.4219 91.5878Z" fill="#FFBD3A"/>
<path fill-rule="evenodd" clip-rule="evenodd" d="M80.8331 106.067C77.7344 117.631 65.8476 124.494 54.2831 121.395C42.7187 118.297 35.8558 106.41 38.9545 94.8455C42.0532 83.2811 53.94 76.4182 65.5045 79.5169C77.0689 82.6156 83.9317 94.5024 80.8331 106.067ZM68.4214 91.5898C67.5719 94.76 64.3133 96.6414 61.1431 95.7919C57.9728 94.9425 56.0914 91.6839 56.9409 88.5136C57.7904 85.3434 61.049 83.462 64.2193 84.3115C67.3895 85.1609 69.2709 88.4195 68.4214 91.5898Z" fill="#FFD072"/>
<path d="M62.9204 95.4761C62.9204 82.0835 73.7773 71.2266 87.17 71.2266C100.563 71.2266 111.42 82.0835 111.42 95.4761C111.42 95.4761 113.183 120.167 81.4382 116.639" stroke="#C4C4C4" stroke-width="3"/>
<path d="M159.257 71.3981C149.972 69.0313 112.522 91.6798 105.247 107.111C110.537 127.172 134.772 157.979 149.337 162.224C164.989 160.46 209.164 115.49 203.788 112.843C185.331 89.2353 179.395 78.6221 159.257 71.3981Z" fill="#2C5291"/>
<path d="M170.72 56.2552C160.86 51.1421 155.895 50.7436 148.455 56.2552C148.52 62.9884 150.666 66.2157 157.714 71.0254C167.246 69.2135 170.137 66.0133 170.72 56.2552Z" fill="#C4C4C4"/>
<path d="M156.611 53.1671C155.024 52.9908 151.394 55.0042 149.777 56.033H155.288C156.391 55.1512 158.198 53.3435 156.611 53.1671Z" fill="#AEADAD"/>
<path d="M156.611 53.1671C155.024 52.9908 151.394 55.0042 149.777 56.033H155.288C156.391 55.1512 158.198 53.3435 156.611 53.1671Z" fill="#AEADAD"/>
<path d="M169.619 56.4738C167.855 55.2393 163.887 54.3428 162.123 54.0488C162.123 54.0488 165.871 58.4578 167.635 58.2374C169.398 58.0169 171.382 57.7083 169.619 56.4738Z" fill="#AEADAD"/>
<path d="M157.547 58.2791C156.625 57.226 158.186 55.1808 159.949 54.0783C161.492 53.6376 162.153 58.2791 162.153 58.9372C162.153 59.5954 158.698 59.5954 157.547 58.2791Z" fill="#AEADAD"/>
<path d="M219.219 126.119C224.333 116.259 224.731 111.293 219.219 103.854C212.486 103.919 209.259 106.065 204.449 113.112C206.261 122.644 209.461 125.536 219.219 126.119Z" fill="#C4C4C4"/>
<path d="M222.307 112.012C222.484 110.424 220.47 106.794 219.441 105.178L219.441 110.689C220.323 111.791 222.131 113.599 222.307 112.012Z" fill="#AEADAD"/>
<path d="M222.307 112.012C222.484 110.424 220.47 106.794 219.441 105.178L219.441 110.689C220.323 111.791 222.131 113.599 222.307 112.012Z" fill="#AEADAD"/>
<path d="M219.001 125.019C220.235 123.255 221.132 119.287 221.426 117.523C221.426 117.523 217.017 121.271 217.237 123.035C217.457 124.798 217.766 126.782 219.001 125.019Z" fill="#AEADAD"/>
<path d="M217.195 112.945C218.248 112.024 220.294 113.584 221.396 115.348C221.837 116.891 217.195 117.552 216.537 117.552C215.879 117.552 215.879 114.097 217.195 112.945Z" fill="#AEADAD"/>
<path d="M136.992 177.264C146.851 182.377 151.817 182.776 159.257 177.264C159.192 170.531 157.045 167.304 149.998 162.494C140.466 164.306 137.575 167.506 136.992 177.264Z" fill="#C4C4C4"/>
<path d="M151.101 180.352C152.688 180.529 156.318 178.515 157.935 177.487L152.424 177.487C151.321 178.368 149.514 180.176 151.101 180.352Z" fill="#AEADAD"/>
<path d="M151.101 180.352C152.688 180.529 156.318 178.515 157.935 177.487L152.424 177.487C151.321 178.368 149.514 180.176 151.101 180.352Z" fill="#AEADAD"/>
<path d="M138.094 177.044C139.858 178.278 143.826 179.175 145.589 179.469C145.589 179.469 141.842 175.06 140.078 175.28C138.314 175.501 136.33 175.809 138.094 177.044Z" fill="#AEADAD"/>
<path d="M150.166 175.239C151.087 176.292 149.527 178.337 147.764 179.439C146.22 179.88 145.559 175.239 145.559 174.58C145.559 173.922 149.014 173.922 150.166 175.239Z" fill="#AEADAD"/>
<path d="M158.375 73.8734C152.853 73.1476 151.167 75.8592 147.353 79.8935C138.353 89.4129 154.681 111.35 154.681 111.35C154.681 111.35 174.91 89.6972 166.312 79.8935C163.448 76.628 162.697 74.4414 158.375 73.8734Z" fill="#466FB1"/>
<path d="M150.143 156.322C155.665 157.048 157.351 154.336 161.165 150.302C170.165 140.782 153.837 118.845 153.837 118.845C153.837 118.845 133.609 140.498 142.207 150.302C145.07 153.567 145.822 155.754 150.143 156.322Z" fill="#466FB1"/>
<path d="M195.631 117.143C196.357 111.621 193.645 109.934 189.611 106.12C180.091 97.121 159.257 115.318 159.257 115.318C159.257 115.318 179.807 133.677 189.611 125.079C192.876 122.215 195.063 121.464 195.631 117.143Z" fill="#466FB1"/>
<path d="M110.677 106.111C108.547 111.257 110.729 113.588 113.639 118.316C120.505 129.473 148.675 114.436 148.675 114.436C148.675 114.436 130.241 94.2357 118.546 100.003C114.651 101.924 112.344 102.084 110.677 106.111Z" fill="#466FB1"/>
</g>
<defs>
<filter id="filter0_i" x="0" y="0" width="234" height="238" filterUnits="userSpaceOnUse" color-interpolation-filters="sRGB">
<feFlood flood-opacity="0" result="BackgroundImageFix"/>
<feBlend mode="normal" in="SourceGraphic" in2="BackgroundImageFix" result="shape"/>
<feColorMatrix in="SourceAlpha" type="matrix" values="0 0 0 0 0 0 0 0 0 0 0 0 0 0 0 0 0 0 127 0" result="hardAlpha"/>
<feOffset dy="4"/>
<feGaussianBlur stdDeviation="2"/>
<feComposite in2="hardAlpha" operator="arithmetic" k2="-1" k3="1"/>
<feColorMatrix type="matrix" values="0 0 0 0 0 0 0 0 0 0 0 0 0 0 0 0 0 0 0.25 0"/>
<feBlend mode="normal" in2="shape" result="effect1_innerShadow"/>
</filter>
<filter id="filter1_d" x="7.30103" y="52.2695" width="219.904" height="146.681" filterUnits="userSpaceOnUse" color-interpolation-filters="sRGB">
<feFlood flood-opacity="0" result="BackgroundImageFix"/>
<feColorMatrix in="SourceAlpha" type="matrix" values="0 0 0 0 0 0 0 0 0 0 0 0 0 0 0 0 0 0 127 0"/>
<feOffset dy="4"/>
<feGaussianBlur stdDeviation="2"/>
<feColorMatrix type="matrix" values="0 0 0 0 0 0 0 0 0 0 0 0 0 0 0 0 0 0 0.25 0"/>
<feBlend mode="normal" in2="BackgroundImageFix" result="effect1_dropShadow"/>
<feBlend mode="normal" in="SourceGraphic" in2="effect1_dropShadow" result="shape"/>
</filter>
</defs>
</svg>
