<svg width="234" height="234" viewBox="0 0 234 234" fill="none" xmlns="http://www.w3.org/2000/svg">
<g filter="url(#filter0_i)">
<circle cx="117" cy="117" r="117" fill="#539882"/>
</g>
<path d="M35.8513 131.078C40.6432 131.314 46.54 133.42 48.7933 138.037C51.307 143.188 50.7935 149.222 52.6971 154.628C54.439 159.575 58.3052 163.407 62.7961 165.915C67.4549 168.517 72.8448 167.896 77.7537 169.501C79.6773 170.13 81.1015 171.235 82.6122 172.471C83.8218 173.461 86.9579 172.614 88.4679 172.938C93.29 173.971 93.1479 178.162 95.8088 181.488" stroke="#EFE0D5" stroke-linecap="round" stroke-linejoin="round"/>
<path d="M195.955 131.381C192.07 132.624 183.988 134.731 182.589 139.528C181.571 143.018 181.606 146.965 181.146 150.56C180.434 156.132 171.564 155.614 168.247 159.047C165.58 161.807 164.273 165.362 162.306 168.552C160.397 171.649 157.441 173.983 154.244 175.638C152.527 176.527 151.583 177.354 150.892 179.16C150.535 180.091 150.619 182.5 149.746 182.937" stroke="#EFE0D5" stroke-linecap="round" stroke-linejoin="round"/>
<g filter="url(#filter1_d)">
<path d="M25.4285 126.583L116.808 55.0957L207.666 126.583C139.197 152.114 86.8686 147.646 25.4285 126.583Z" fill="#FFF5EE"/>
<path d="M25.4285 127.389C66.9975 143.104 133.362 155.627 207.666 127.389" stroke="#FFBD3A" stroke-width="3"/>
<path d="M31.0793 124.317L117.254 56.5078L125.024 62.8649L31.0793 124.317Z" fill="#EFE0D5"/>
<path d="M200.603 123.458C199.316 125.993 185.94 129.796 179.413 131.38C185.79 128.278 197.291 123.019 200.067 122.904C200.603 123.458 200.067 122.904 200.603 123.458Z" fill="#EFE0D5"/>
</g>
<defs>
<filter id="filter0_i" x="0" y="0" width="234" height="238" filterUnits="userSpaceOnUse" color-interpolation-filters="sRGB">
<feFlood flood-opacity="0" result="BackgroundImageFix"/>
<feBlend mode="normal" in="SourceGraphic" in2="BackgroundImageFix" result="shape"/>
<feColorMatrix in="SourceAlpha" type="matrix" values="0 0 0 0 0 0 0 0 0 0 0 0 0 0 0 0 0 0 127 0" result="hardAlpha"/>
<feOffset dy="4"/>
<feGaussianBlur stdDeviation="2"/>
<feComposite in2="hardAlpha" operator="arithmetic" k2="-1" k3="1"/>
<feColorMatrix type="matrix" values="0 0 0 0 0 0 0 0 0 0 0 0 0 0 0 0 0 0 0.25 0"/>
<feBlend mode="normal" in2="shape" result="effect1_innerShadow"/>
</filter>
<filter id="filter1_d" x="20.8979" y="55.0957" width="191.301" height="98.5983" filterUnits="userSpaceOnUse" color-interpolation-filters="sRGB">
<feFlood flood-opacity="0" result="BackgroundImageFix"/>
<feColorMatrix in="SourceAlpha" type="matrix" values="0 0 0 0 0 0 0 0 0 0 0 0 0 0 0 0 0 0 127 0"/>
<feOffset dy="4"/>
<feGaussianBlur stdDeviation="2"/>
<feColorMatrix type="matrix" values="0 0 0 0 0 0 0 0 0 0 0 0 0 0 0 0 0 0 0.25 0"/>
<feBlend mode="normal" in2="BackgroundImageFix" result="effect1_dropShadow"/>
<feBlend mode="normal" in="SourceGraphic" in2="effect1_dropShadow" result="shape"/>
</filter>
</defs>
</svg>
