<svg fill="none" height="621" viewBox="0 0 568 621" width="568" xmlns="http://www.w3.org/2000/svg" xmlns:xlink="http://www.w3.org/1999/xlink"><filter id="a" color-interpolation-filters="sRGB" filterUnits="userSpaceOnUse" height="438.173" width="327.988" x="127.528" y="92"><feFlood flood-opacity="0" result="BackgroundImageFix"/><feColorMatrix in="SourceAlpha" type="matrix" values="0 0 0 0 0 0 0 0 0 0 0 0 0 0 0 0 0 0 127 0"/><feOffset dx="4" dy="7"/><feGaussianBlur stdDeviation="2"/><feColorMatrix type="matrix" values="0 0 0 0 0 0 0 0 0 0 0 0 0 0 0 0 0 0 0.25 0"/><feBlend in2="BackgroundImageFix" mode="normal" result="effect1_dropShadow"/><feBlend in="SourceGraphic" in2="effect1_dropShadow" mode="normal" result="shape"/></filter><filter id="b" color-interpolation-filters="sRGB" filterUnits="userSpaceOnUse" height="395.774" width="292.538" x="137.581" y="123.991"><feFlood flood-opacity="0" result="BackgroundImageFix"/><feColorMatrix in="SourceAlpha" type="matrix" values="0 0 0 0 0 0 0 0 0 0 0 0 0 0 0 0 0 0 127 0"/><feOffset dx="4" dy="7"/><feGaussianBlur stdDeviation="2"/><feColorMatrix type="matrix" values="0 0 0 0 0 0 0 0 0 0 0 0 0 0 0 0 0 0 0.25 0"/><feBlend in2="BackgroundImageFix" mode="normal" result="effect1_dropShadow"/><feBlend in="SourceGraphic" in2="effect1_dropShadow" mode="normal" result="shape"/></filter><filter id="c" color-interpolation-filters="sRGB" filterUnits="userSpaceOnUse" height="333.876" width="252.466" x="158.408" y="137.445"><feFlood flood-opacity="0" result="BackgroundImageFix"/><feColorMatrix in="SourceAlpha" type="matrix" values="0 0 0 0 0 0 0 0 0 0 0 0 0 0 0 0 0 0 127 0"/><feOffset dx="4" dy="7"/><feGaussianBlur stdDeviation="2"/><feColorMatrix type="matrix" values="0 0 0 0 0 0 0 0 0 0 0 0 0 0 0 0 0 0 0.25 0"/><feBlend in2="BackgroundImageFix" mode="normal" result="effect1_dropShadow"/><feBlend in="SourceGraphic" in2="effect1_dropShadow" mode="normal" result="shape"/></filter><filter id="d" color-interpolation-filters="sRGB" filterUnits="userSpaceOnUse" height="256.585" width="213.755" x="182.799" y="172.78"><feFlood flood-opacity="0" result="BackgroundImageFix"/><feColorMatrix in="SourceAlpha" type="matrix" values="0 0 0 0 0 0 0 0 0 0 0 0 0 0 0 0 0 0 127 0"/><feOffset dx="4" dy="7"/><feGaussianBlur stdDeviation="2"/><feColorMatrix type="matrix" values="0 0 0 0 0 0 0 0 0 0 0 0 0 0 0 0 0 0 0.25 0"/><feBlend in2="BackgroundImageFix" mode="normal" result="effect1_dropShadow"/><feBlend in="SourceGraphic" in2="effect1_dropShadow" mode="normal" result="shape"/></filter><filter id="e" color-interpolation-filters="sRGB" filterUnits="userSpaceOnUse" height="223.915" width="192.049" x="187.834" y="195.604"><feFlood flood-opacity="0" result="BackgroundImageFix"/><feColorMatrix in="SourceAlpha" type="matrix" values="0 0 0 0 0 0 0 0 0 0 0 0 0 0 0 0 0 0 127 0"/><feOffset dx="4" dy="7"/><feGaussianBlur stdDeviation="2"/><feColorMatrix type="matrix" values="0 0 0 0 0 0 0 0 0 0 0 0 0 0 0 0 0 0 0.25 0"/><feBlend in2="BackgroundImageFix" mode="normal" result="effect1_dropShadow"/><feBlend in="SourceGraphic" in2="effect1_dropShadow" mode="normal" result="shape"/></filter><filter id="f" color-interpolation-filters="sRGB" filterUnits="userSpaceOnUse" height="189.902" width="176.385" x="196.561" y="225.813"><feFlood flood-opacity="0" result="BackgroundImageFix"/><feColorMatrix in="SourceAlpha" type="matrix" values="0 0 0 0 0 0 0 0 0 0 0 0 0 0 0 0 0 0 127 0"/><feOffset dx="4" dy="7"/><feGaussianBlur stdDeviation="2"/><feColorMatrix type="matrix" values="0 0 0 0 0 0 0 0 0 0 0 0 0 0 0 0 0 0 0.25 0"/><feBlend in2="BackgroundImageFix" mode="normal" result="effect1_dropShadow"/><feBlend in="SourceGraphic" in2="effect1_dropShadow" mode="normal" result="shape"/></filter><filter id="g" color-interpolation-filters="sRGB" filterUnits="userSpaceOnUse" height="18.1241" width="18.3616" x="322.004" y="108.003"><feFlood flood-opacity="0" result="BackgroundImageFix"/><feColorMatrix in="SourceAlpha" type="matrix" values="0 0 0 0 0 0 0 0 0 0 0 0 0 0 0 0 0 0 127 0"/><feOffset dy="4"/><feGaussianBlur stdDeviation="2"/><feColorMatrix type="matrix" values="0 0 0 0 0 0 0 0 0 0 0 0 0 0 0 0 0 0 0.25 0"/><feBlend in2="BackgroundImageFix" mode="normal" result="effect1_dropShadow"/><feBlend in="SourceGraphic" in2="effect1_dropShadow" mode="normal" result="shape"/></filter><filter id="h" color-interpolation-filters="sRGB" filterUnits="userSpaceOnUse" height="18.1241" width="18.3616" x="212.526" y="211.692"><feFlood flood-opacity="0" result="BackgroundImageFix"/><feColorMatrix in="SourceAlpha" type="matrix" values="0 0 0 0 0 0 0 0 0 0 0 0 0 0 0 0 0 0 127 0"/><feOffset dy="4"/><feGaussianBlur stdDeviation="2"/><feColorMatrix type="matrix" values="0 0 0 0 0 0 0 0 0 0 0 0 0 0 0 0 0 0 0.25 0"/><feBlend in2="BackgroundImageFix" mode="normal" result="effect1_dropShadow"/><feBlend in="SourceGraphic" in2="effect1_dropShadow" mode="normal" result="shape"/></filter><filter id="i" color-interpolation-filters="sRGB" filterUnits="userSpaceOnUse" height="18.1241" width="18.3616" x="236.505" y="278.872"><feFlood flood-opacity="0" result="BackgroundImageFix"/><feColorMatrix in="SourceAlpha" type="matrix" values="0 0 0 0 0 0 0 0 0 0 0 0 0 0 0 0 0 0 127 0"/><feOffset dy="4"/><feGaussianBlur stdDeviation="2"/><feColorMatrix type="matrix" values="0 0 0 0 0 0 0 0 0 0 0 0 0 0 0 0 0 0 0.25 0"/><feBlend in2="BackgroundImageFix" mode="normal" result="effect1_dropShadow"/><feBlend in="SourceGraphic" in2="effect1_dropShadow" mode="normal" result="shape"/></filter><filter id="j" color-interpolation-filters="sRGB" filterUnits="userSpaceOnUse" height="18.1241" width="18.3616" x="150.333" y="366.497"><feFlood flood-opacity="0" result="BackgroundImageFix"/><feColorMatrix in="SourceAlpha" type="matrix" values="0 0 0 0 0 0 0 0 0 0 0 0 0 0 0 0 0 0 127 0"/><feOffset dy="4"/><feGaussianBlur stdDeviation="2"/><feColorMatrix type="matrix" values="0 0 0 0 0 0 0 0 0 0 0 0 0 0 0 0 0 0 0.25 0"/><feBlend in2="BackgroundImageFix" mode="normal" result="effect1_dropShadow"/><feBlend in="SourceGraphic" in2="effect1_dropShadow" mode="normal" result="shape"/></filter><filter id="k" color-interpolation-filters="sRGB" filterUnits="userSpaceOnUse" height="18.1241" width="18.3616" x="215.524" y="403.737"><feFlood flood-opacity="0" result="BackgroundImageFix"/><feColorMatrix in="SourceAlpha" type="matrix" values="0 0 0 0 0 0 0 0 0 0 0 0 0 0 0 0 0 0 127 0"/><feOffset dy="4"/><feGaussianBlur stdDeviation="2"/><feColorMatrix type="matrix" values="0 0 0 0 0 0 0 0 0 0 0 0 0 0 0 0 0 0 0.25 0"/><feBlend in2="BackgroundImageFix" mode="normal" result="effect1_dropShadow"/><feBlend in="SourceGraphic" in2="effect1_dropShadow" mode="normal" result="shape"/></filter><filter id="l" color-interpolation-filters="sRGB" filterUnits="userSpaceOnUse" height="18.1241" width="18.3616" x="301.754" y="434.406"><feFlood flood-opacity="0" result="BackgroundImageFix"/><feColorMatrix in="SourceAlpha" type="matrix" values="0 0 0 0 0 0 0 0 0 0 0 0 0 0 0 0 0 0 127 0"/><feOffset dy="4"/><feGaussianBlur stdDeviation="2"/><feColorMatrix type="matrix" values="0 0 0 0 0 0 0 0 0 0 0 0 0 0 0 0 0 0 0.25 0"/><feBlend in2="BackgroundImageFix" mode="normal" result="effect1_dropShadow"/><feBlend in="SourceGraphic" in2="effect1_dropShadow" mode="normal" result="shape"/></filter><filter id="m" color-interpolation-filters="sRGB" filterUnits="userSpaceOnUse" height="18.1241" width="18.3616" x="348.25" y="514.729"><feFlood flood-opacity="0" result="BackgroundImageFix"/><feColorMatrix in="SourceAlpha" type="matrix" values="0 0 0 0 0 0 0 0 0 0 0 0 0 0 0 0 0 0 127 0"/><feOffset dy="4"/><feGaussianBlur stdDeviation="2"/><feColorMatrix type="matrix" values="0 0 0 0 0 0 0 0 0 0 0 0 0 0 0 0 0 0 0.25 0"/><feBlend in2="BackgroundImageFix" mode="normal" result="effect1_dropShadow"/><feBlend in="SourceGraphic" in2="effect1_dropShadow" mode="normal" result="shape"/></filter><path d="m55.528 454.636c2.088 0 3.768-.6 4.968-1.416l-1.152-3.6c-.888.6-2.232 1.176-3.672 1.176-3.072 0-4.752-2.28-4.752-4.896s1.68-4.848 4.752-4.848c1.44 0 2.712.576 3.6 1.176l1.152-3.6c-1.2-.816-2.808-1.416-4.896-1.416-5.232 0-8.88 3.768-8.88 8.688 0 4.944 3.456 8.736 8.88 8.736zm6.0692-4.224c0 2.736 2.208 4.224 4.68 4.224 1.296 0 2.208-.36 2.856-1.008l.216.696h3.576v-7.8c0-2.88-1.104-5.112-5.448-5.112-2.088 0-3.792.672-5.136 1.56l1.488 2.688c.984-.48 2.064-.792 3.168-.792 1.296 0 1.92.6 1.92 1.368v.456c-.456-.192-1.32-.456-2.424-.456-2.976 0-4.896 1.656-4.896 4.176zm4.008-.144c0-.816.72-1.344 1.68-1.344s1.704.48 1.704 1.344c0 .84-.72 1.296-1.68 1.296-.936 0-1.704-.456-1.704-1.296zm9.4843 4.056h4.008v-17.352h-4.008zm10.3127-12.6h-4.008v12.6h4.008zm-2.04-.768c1.272 0 2.256-.912 2.256-2.16 0-1.272-.984-2.184-2.256-2.184s-2.232.912-2.232 2.184c0 1.248.96 2.16 2.232 2.16z" fill="#000"/><path d="m145.053 387.005-43.082 39.431" stroke="#000"/><g filter="url(#a)"><path d="m378.26 435.148v10.07l-8.167 36.026-7.385 35.132-4.923-2.462-3.916-6.377-10.964.559 17.342-27.635.447-2.238-6.825-3.468-1.006-1.566h-2.126l-2.126-2.238-2.573.559-2.462-3.132-3.356-2.686h-4.364v1.455h-1.79l-.895 2.797-4.252.447h-3.021l-1.23-2.013-1.902-2.686h-3.692l-4.811-.447-2.798 4.699-1.566-2.126-4.14 1.455-1.678 2.237-3.356 1.007-4.364-2.126h-3.58l-6.825.672-1.902-1.79-2.238-.56h-2.685v-3.468l1.007-1.679v-2.908-3.469l-2.573-2.238h-4.028l-2.909-1.902 1.79-4.699-3.133-2.461-.559-2.797-2.014-2.014-4.587-.448-1.567-1.902-1.79-2.237h-1.902l-.447-1.679-2.014 1.679-3.804-2.574-.56-2.685.56-1.343-1.679-2.349v-2.685l-2.125-3.245-3.693-2.573-3.916-1.119v-1.455l-.671-2.573-1.79.559-2.909-.559-4.475-2.461-2.35-.448-3.468.895h-3.021l-5.371-3.916h-2.797l-3.132-.447-2.909-1.902-.448-1.902-3.692-2.574-5.147-2.461-2.461 2.461-1.455 3.357h-3.244l-3.804-.783h-4.923-5.147v-3.133h-3.133l-5.146.559-1.231-4.811 1.231-2.573h-3.021l-1.902-2.014-2.35-3.021-3.468 1.119-5.259-2.461-3.244-2.238-3.357-1.119-1.343-1.343-3.02-2.461-2.014-1.79h-2.126l-1.566-1.902-2.238-2.574-1.119-1.454-1.902-1.566h-2.238l.784-2.574.783-2.909 3.132-1.79h1.231 2.685l2.014 1.119 2.014-.448.56-2.461-2.014-2.573-1.455-3.021v-2.797l1.455-2.909.895-3.581 2.014-2.125 1.454-2.35 1.79-.783h2.574l3.692-1.455v.895l1.902.56h2.685l.895 1.454 2.238-1.454 1.566-2.014 2.014-.671v-1.455l2.238-2.126-2.238-2.125 1.79-2.909h1.455l.895-2.126 1.678-.336h1.79v-1.678l-1.454-.448.447-1.342 1.567-1.343h1.79v-1.678l2.237-.336 1.231-1.566-.559-1.678 1.678-.672v-1.566l2.014-.783-2.014-2.126h3.804v-1.455l.895-.783.671-1.119-.671-.783-1.902-.671-.447 2.014-4.028.559-1.007-1.119v-1.118h3.356l.895-2.574-2.014-1.678-1.902 3.468-2.237.448-1.79-1.902v-2.014l-1.567-.895v-2.685l2.35-2.238 1.79-.895.671-2.685.448-1.902v-1.567l1.678-2.685-1.678-.783v-2.909l-1.119-3.357 1.119-2.573-1.119-.224v-3.58l.671-.336v-1.23l-.671-.56-.448-1.566v-1.566l-1.342-.672h-2.35v-.671l1.679-2.462h.671l1.342-.335 1.119 1.007 3.357-2.909.559-1.902-1.231-.895-.559-3.133-1.454-2.909-2.574-2.461v-4.14l3.133 2.238v-3.916l.559-2.574.336-2.685-1.454-2.685v-1.79h-2.238l-.336.335-1.566.784-.336-2.798-1.678-1.902-2.014.336v-2.126l1.455-1.902-1.903-2.237-.559-1.455-2.461-.224-.336-1.342-1.678-2.238 2.909-5.594 1.79-2.014v-3.021l1.566-1.007 2.462 2.126.447 2.909 1.567-1.79 2.909-2.238 2.013-2.573v-2.462l4.476-1.454-2.462-4.699-1.23-2.909-1.679-5.595v-7.272l6.825 6.489 4.028 6.378 5.147 4.251-1.119.672v1.902h2.461l2.126-6.825-3.468-5.595-3.692-.783v-2.573l8.503-4.587 8.055-4.923 4.811-5.259 3.021-4.363 3.804-2.574 3.581 1.567 5.93-2.462v-4.363-6.825l.671-7.944 3.692-9.846 6.825-6.936 10.517-2.462h3.692l3.357 6.042 5.594-1.902 2.797-4.14 1.678-9.398h3.916l2.014 2.238 9.51 1.902h3.58 8.727l9.846-10.741 10.405-5.371 8.056-9.0622h5.035l5.706-5.0348 8.503 2.3496 6.489 3.804-1.79 7.1604-6.601 4.252h-9.846l-5.93 1.902-5.929 12.083h-4.811l-8.28 9.175-7.496 7.72-3.357 8.279 1.679 8.503-4.923 13.091-5.483 1.566 2.126 2.462 7.497-1.567.783 1.567h4.811v4.587l1.454 4.923 5.259 5.706 2.909 6.377v5.706l-2.909 5.371 1.79 10.629 3.021 1.007v4.139l5.818 5.035 6.377 2.35h6.713l6.266.895 7.16-.895h3.357l7.608-1.455 5.482.783 4.475 1.567 3.693-.895 18.572 22.376 4.588 1.119 4.027-2.573h7.944l2.797 1.454h4.588 4.027l2.35-2.909 6.601 1.455 3.468-1.455h6.713l6.49 1.455v2.573l2.014 3.245-4.14 4.475-3.58 1.567-.784 8.055-2.125 1.567-3.245 2.909 2.014 5.594-4.475 7.608-1.007 5.035 1.007 4.028-1.007 3.804 3.468 4.027 2.014 7.832h4.14l4.363 8.392-.783 4.363-3.58 1.007-10.965 11.188h3.468 3.357l1.231 3.693 2.125-.784 2.574 4.028 3.916 4.811v3.58l2.014 1.903 1.119 5.423 1.23 5.094 1.679 5.818 2.125 4.251v4.364h-5.034l-1.119-1.567v-5.93-6.153l-2.686-5.483-3.244-5.817-4.699 2.573-6.713 4.923-3.692 3.021-3.469-3.021v-2.35l-2.461-1.119-2.35 3.469 3.357 3.021h-22.265l-10.517-1.343h-8.504l-4.699 4.252v5.706 5.818h3.021 5.147l6.825 1.342 3.692 4.699-.671 6.49-4.811 1.454-2.35-2.909-3.356-1.007-4.476 3.916-9.957 1.007v18.237l11.635 7.384-1.678 6.49z" fill="#f3e8cb"/></g><g filter="url(#b)"><path d="m364.681 422.895v8.561l9.104 12.64-5.482 28.866-.292 10.904-3.848 13.487-2.797 11.412-3.469-3.916-7.831-.671 4.139-8.615 8.727-18.349-4.251-3.469-9.317-12.325.38-1.903-5.803-2.948-.857-1.332h-1.807l-1.808-1.903-2.188.476-2.093-2.663-2.854-2.283h-3.711v1.236h-1.522l-.761 2.378-3.616.381h-2.568l-1.047-1.712-1.617-2.283h-3.14l-4.091-.381-2.378 3.995-1.332-1.807-3.521 1.237-1.427 1.902-2.854.856-3.71-1.807h-3.045l-5.804.57-1.617-1.521-1.903-.476h-2.283v-2.949l.856-1.427v-2.473-2.949l-2.188-1.902h-3.425l-2.474-1.617 1.522-3.995-2.663-2.093-.476-2.378-1.713-1.712-3.9-.381-1.332-1.617-1.523-1.902h-1.617l-.381-1.427-1.712 1.427-3.235-2.188-.476-2.283.476-1.141-1.427-1.998v-2.283l-1.808-2.758-3.409-2.978h-5.594l-5.147-1.343v-2.338l-9.958-7.895-13.426-.666-4.803-4.28-2.093 2.092-1.237 2.854h-2.759l-3.235-.666h-4.186-4.377v-2.663h-2.664l-4.376.475-1.047-4.09 1.047-2.188h-2.569l-1.617-1.712-1.998-2.568-2.949.951-18.363 2.434-2.759-1.903-2.854-.951-1.142-1.141-2.568-2.093-1.713-1.522h-1.808l-1.332-1.617-1.902-2.188-.952-1.236-1.617-1.332h-1.903l.666-2.188.666-2.473 2.664-1.522h1.046 2.284l1.712.951 1.713-.38.476-2.093-1.713-2.188-1.237-2.568v-2.378l1.237-2.473.761-3.044.571-5.583 1.237-1.997 1.522-.666h2.188l3.14-1.237v.761l1.617.476 7.231-2.473.761 1.236 1.903-1.236 1.332-1.712 1.713-.571v-1.237l1.902-1.807 2.33-9.24 7.85-4.252 8.261-12.307-2.797-1.902-3.133-3.58-6.825-5.706v-4.587l.56-2.574 2.032-3.974v-1.332l1.427-2.283-1.427-.666v-2.473l-.952-2.853.952-2.188-.952-.19v-3.044l.571-.286v-1.046l-.571-.476-.38-1.331v-1.332l-1.142-.571h-1.998v-.57l1.427-2.093h.571l1.142-.286.951.857 2.854-2.474.476-1.617-1.047-.761-.475-2.663-1.237-2.473-2.188-2.093v-3.519l2.664 1.902v-3.329l.475-2.188.286-2.283-1.237-2.283v-1.522h-1.903l-.285.286-1.332.665-.286-2.378-1.427-1.617-1.712.286v-1.808l1.236-1.617-1.617-1.902-.476-1.237-2.093-.19-.285-1.142-1.427-1.902 2.473-4.756 1.523-1.712v-2.569l1.332-.856 2.093 1.808.38 2.473 1.332-1.522 2.474-1.903 1.712-2.187 2.555-1.308h6.713 9.734l6.937-2.574-.895-5.37v-6.634l4.475-3.771 2.56-5.035v-3.955l3.234-2.188 3.045 1.332 5.312-8.056 3.044-12.982v-5.803l.571-6.753 3.14-8.371 5.803-5.898 8.944-2.092h3.139l2.854 5.136 4.757-1.617 2.379-3.519 1.427-7.991h3.33l1.713 1.903 8.086 1.617h3.045 7.421l8.372-9.132.857 9.132-9.229 7.99-6.002 6.941 6.002 7.613 1.427 7.229-10.003 9.101 10.003 9.51 3.312 6.042 4.49 4.811-3.426 7.475.666 1.331h4.091v3.9l1.237 4.186 4.472 4.851 2.474 5.422v4.851l-2.474 4.566 1.522 9.036 2.569.857v3.519l4.947 4.281 5.423 1.997h5.709l5.328.761 6.089-.761h2.854l6.469-1.236 4.662.665 3.806 1.332 3.139-.761 15.794 19.025 3.901.951 3.425-2.188h6.755l2.378 1.237h3.901 3.425l1.998-2.474 5.613 1.237 2.95-1.237h5.708l5.518 1.237v2.188l1.713 2.758-3.521 3.805-3.71 8.934v7.72l3.289 13.202 5.706 10.517 2.014 6.378-5.491 8.95v10.741 12.034l1.713 1.617h-5.043-6.06l-5.708 4.185-3.14 2.568-2.949-2.568v-1.997l-2.093-.952-1.998 2.949 2.854 2.568h-18.933l-6.879 1.047h-7.231l-3.996 3.614v4.852 4.946h2.569 4.377l-1.291 5.972 8.521 1.638-.571 5.517-4.091 1.236-1.998-2.473-3.52 3.592-9.894-2.355v6.495 8.629l9.894 6.278-1.427 5.517z" fill="#c1dd9b"/></g><g filter="url(#c)"><path d="m352.51 407.449v7.324l7.781 10.813v10.67l5.998 11.535-3.469 12.531-7.139-11.189-9.595-5.706-6.668-3.021.325-1.628-4.96-2.522-.732-1.139h-1.545l-1.545-1.628-1.87.407-1.789-2.278-2.44-1.953h-3.171v1.057h-1.301l-.651 2.035-3.09.325h-2.195l-.895-1.464-1.382-1.953h-2.683l-3.497-.326-2.033 3.418-1.138-1.546-3.009 1.058-1.22 1.627-2.439.732-3.172-1.546h-2.602l-4.96.488-1.382-1.301-1.627-.407h-1.951v-2.523l.732-1.221v-2.115-2.523l-1.871-1.627h-2.927l-2.114-1.384 1.301-3.417-2.277-1.791-.407-2.034-1.463-1.465-5.174-7.605-5.258-4.252v-7.998l-4.476-8.786 1.679-7.245 2.797-8.137v-5.651l-6.825 5.651h-8.615l-9.734 2.181-7.72 4.573-7.334 6.429-1.789 1.79-1.057 2.441h-2.359l-2.764-.57h-3.578-3.741v-2.278h-2.277l-3.74.407-.895-3.499.895-1.872h-2.196l-1.382-1.465-1.708-2.197-2.52.814-15.695 2.082-2.358-1.627-2.439-.814-.976-.977-2.195-1.79-1.464-1.302h-1.545l-1.139-1.383-1.626-1.872-.813-1.058-1.382-1.139h-1.627l.569-1.872.57-2.115 2.276-1.302h.895 1.952l1.463.813 1.464-.325.407-1.79-1.464-1.872-1.057-2.197v-2.034l1.057-2.116.65-2.604.488-4.776 1.057-1.709 1.301-.569h1.871l2.683-1.058v.651l1.383.407 7.385-1.776 7.17-4.028v-9.286-7.385l2.452-4.475 4.623-2.349-3.822-10.182-2.521-8.503-3.171-7.608v-9.51l2.439-3.357-2.439-9.958v-10.405-4.923-9.51l1.301-1.465v-2.197l1.138-.733 1.789 1.547.325 2.115 1.139-1.302 2.114-1.627 1.464-1.872v-1.79l3.252-1.058-1.789-3.418 4.45-1.546 6.935 6.348.406-2.279h6.262l-2.521-4.069-2.684-.569v-1.872l6.18-3.336 1.234-3.919 3.496-3.825 2.196-3.173 2.765-1.872 2.602 1.14 4.54-6.892-4.066-12.449v-4.964l.488-5.778 2.683-7.16.895-12.348 7.643-1.79h2.684l-.675-2.644 3.133-6.836 7.3 2.644h2.846l1.464 1.628 2.602-4.272h2.602 6.342l7.156-7.812.732 7.812-7.888 6.836 3.246 18.895 5.13 6.512 1.22 6.185-8.549 7.785 15.217 9.479 2.83 5.169 3.838 4.115-2.928 6.395.569 1.139h3.497v3.336l1.057 3.581 3.822 4.15 2.114 4.638v4.15l-2.114 3.906 1.301 7.731 2.196.732v3.011l4.228 3.661 4.635 1.709h4.879l4.554.651 5.204-.651h2.439l5.53-1.058 3.984.57 3.253 1.139 2.684-.651 13.498 16.275 3.334.814 2.927-1.872h5.774l2.033 1.058h3.334 2.927l1.708-2.116 12.197 3.741v5.595l6.18 6.49 4.503 16.223-3.245 1.343-2.722 4.475v11.972l2.722 3.244 3.245 10.629v2.797l-5.967 6.565v2.604l1.464 1.383h-4.31-5.179l-4.879 3.581-2.683 2.197-6.194 3.025-13.566-3.025-5.88.895h-6.18l-3.415 3.092v4.15 4.232h2.195 3.741l-1.103 9.261 7.283 1.401-.488 4.72-3.497 1.058-1.707-2.116-3.009 3.073-8.457-2.015v1.404 7.382l8.457 5.371-1.22 4.719z" fill="#356740"/></g><g filter="url(#d)"><path d="m225.203 368.241-6.601 5.707-6.154-1.679-10.741-4.028-2.014-8.279h-16.894v-10.293l3.244-8.615 13.65-6.154 7.832-11.524 3.245-4.923v-25.957l-6.154-11.076-2.909-12.42-2.014-7.384-2.125-10.293 4.139-15.216h13.65l9.846-6.602h16.447v-10.293-11.524l-2.462-3.245-2.461-19.803 8.167-8.615 13.203-3.245 4.923 15.216 4.922 14.322 6.154 11.524 11.188 10.293 7.385 21.817 6.601 15.217 7.832 7.831-10.741 15.664-3.692 11.524 10.293 4.14h2.462l9.51-23.943 7.384-9.398h14.321l13.203 14.433 15.663 3.244h16.895l6.153 7.832v15.664l-6.153 15.216v11.524l-11.524 8.615h-12.419-15.552l-6.266 11.077v13.649l-4.028 12.755 4.028 14.769 6.266 4.923-6.266 7.832-8.167 9.845h-18.573-10.629l-9.846-9.845-7.496-22.265v-23.831l3.356-12.755v-14.769l-3.356-5.035-7.832 7.497-6.154 6.153-4.922 11.077h-4.923l-13.203 7.832-8.167 5.817z" fill="#539882"/></g><g fill="#a2896d" filter="url(#e)"><path d="m246.126 221.338v-11.748l-1.679-13.986h8.168v16.671l14.209 12.531v11.636l12.531 11.636 11.412 6.713 4.364 9.063 5.594 4.363-7.944 8.168-6.154 13.202-2.573 6.713-2.573 11.077v8.391 7.944l-5.035 5.482-5.258 3.804-4.364 3.804-4.587 9.286-5.259 4.364-7.944 2.349-8.167 7.049h-5.259l-6.713 5.482h-6.041l-4.364 3.245h-7.384l-4.587-5.259h-2.909v-3.468l-3.581-4.699h-5.482-6.713l3.804-9.063 6.713-5.258 8.168-4.028 6.936-9.622 3.469-7.049 1.566-8.727v-15.104l-3.021-8.503v-6.713l-2.014-7.273-4.027-8.167-2.909-10.853v-10.181-4.923h8.95l9.399-3.245 7.831-2.349h5.035 8.392v-6.042z"/><path d="m319.969 302.118-1.79 3.468-11.412 5.818h-6.042l-.671 10.853.671 10.741 9.286 13.09 2.909 9.063-8.167 6.713-9.622 6.713v14.545 17.006l10.181 8.392h12.867l1.79-8.392 3.133-20.474 5.594-8.727v-18.126l2.014-11.971 3.804-7.832 12.195-8.168h16.111l9.063-7.608v-11.636-6.713l-10.293-5.818-8.168-3.468h-9.622l-9.286-8.503h-7.832l-3.58 11.971z"/></g><g fill="#ffbd3a" filter="url(#f)"><path d="m222.07 311.74v-4.475l-1.231-8.391-1.23-5.147 2.461-7.384v-10.517l4.364-1.455-2.909-12.419-7.832-5.37-3.021-10.518 6.937-1.118h4.699l12.866-3.693 7.161-1.118h5.93l2.126-5.93 1.566-8.392 6.825 1.791v8.95l2.573 9.51v8.951l-2.573 6.266-5.482 8.391-5.035 4.699-4.811 7.496-2.238 7.497v11.3 7.832l2.238 9.398-2.238 8.951v7.16l-5.035 8.168-5.706 11.636-4.811 1.23-9.174 5.259h-9.063l-3.804-4.14-3.244-5.93h-4.476l-1.342-1.902 9.062-7.048 7.049-6.042 3.021-5.035 2.797-6.265 3.58-6.042z"/><path d="m250.265 341.278 3.692 2.685 6.825-6.825 3.58-10.293 3.021-5.595 4.14-7.72v-7.272-7.384l4.475-7.385 6.825-8.167v-8.951l4.811-3.245 3.021-3.02-6.601-6.154-3.692-5.37-5.818-4.028h-4.923v4.028l-1.119 7.943-1.119 9.846-1.79 4.811-4.811 8.28-6.825 13.202-1.566 9.286 1.566 10.07-1.566 8.95-2.126 5.035z"/><path d="m307.661 328.075-1.007-10.181 7.273-4.364 4.475-1.79 6.154-3.244 3.916-16.112 5.034-3.02 6.602 4.363 5.929 5.147 10.406 1.79 5.818 1.454 2.685 12.308-9.622 5.594-11.077 1.23h-6.825l-6.041 6.825-4.028 5.93-1.007 7.273-1.79 5.594-1.455 4.14h-4.699l-1.79-9.734-4.923-4.14z"/><path d="m307.661 365.668-8.391 6.49.783 7.608v7.608l-.783 7.496 1.79 7.832 6.601 2.014h7.944v-5.93l1.007-10.517 3.245-11.188 1.678-7.273 1.566-4.14-1.566-5.37h-7.608z"/></g><path d="m341.48 190.578-82.514 81.784" stroke="#000"/><g fill="#000"><path d="m358.595 190.084c0-1.728-.696-3.096-2.352-3.792 1.152-.648 1.824-2.04 1.824-3.48 0-2.88-2.04-4.512-5.448-4.512h-6v16.8h6.192c3.216 0 5.784-1.608 5.784-5.016zm-5.88-1.944c1.08 0 1.656.696 1.656 1.704 0 .96-.6 1.728-1.68 1.728h-1.992v-3.432zm-.312-6.336c1.008 0 1.488.6 1.488 1.488 0 .912-.504 1.56-1.44 1.56h-1.752v-3.048zm7.318 7.032c0 3.792 2.832 6.576 6.84 6.576 3.984 0 6.912-2.832 6.912-6.624 0-3.816-2.856-6.6-6.912-6.6-3.888 0-6.84 2.832-6.84 6.648zm4.008 0c0-1.848 1.176-3.12 2.832-3.12 1.632 0 2.904 1.224 2.904 3.072 0 1.8-1.248 3.096-2.904 3.096-1.632 0-2.832-1.224-2.832-3.048zm20.069 5.616c0 1.536-1.488 1.872-2.976 1.872-1.704 0-3.12-.6-3.48-.768l-1.176 3.072c1.128.576 2.88 1.08 4.656 1.08 3.744 0 6.984-1.464 6.984-6.12v-11.088h-3.744v.984c-.36-.408-1.56-1.296-3.408-1.296-3.624 0-6.168 2.736-6.168 6.6 0 3.912 2.304 6.624 5.952 6.624 1.92 0 3.096-.96 3.36-1.272zm.12-5.688c0 1.992-1.128 3.12-2.712 3.12-1.632 0-2.712-1.272-2.712-3.12 0-1.872 1.08-3.048 2.688-3.048 1.728 0 2.736 1.368 2.736 3.048zm5.451.072c0 3.792 2.832 6.576 6.84 6.576 3.984 0 6.912-2.832 6.912-6.624 0-3.816-2.856-6.6-6.912-6.6-3.888 0-6.84 2.832-6.84 6.648zm4.008 0c0-1.848 1.176-3.12 2.832-3.12 1.632 0 2.904 1.224 2.904 3.072 0 1.8-1.248 3.096-2.904 3.096-1.632 0-2.832-1.224-2.832-3.048zm15.75-9h-4.008v2.664h-1.224v3.24h1.224v4.44c0 3.744 1.728 5.112 4.704 5.112 1.008 0 1.536-.144 1.536-.144v-3.432c-.264.024-.456.024-.672.024-.816 0-1.56-.264-1.56-1.368v-4.632h2.136v-3.24h-2.136zm3.421 11.352c0 2.736 2.208 4.224 4.68 4.224 1.296 0 2.208-.36 2.856-1.008l.216.696h3.576v-7.8c0-2.88-1.104-5.112-5.448-5.112-2.088 0-3.792.672-5.136 1.56l1.488 2.688c.984-.48 2.064-.792 3.168-.792 1.296 0 1.92.6 1.92 1.368v.456c-.456-.192-1.32-.456-2.424-.456-2.976 0-4.896 1.656-4.896 4.176zm4.008-.144c0-.816.72-1.344 1.68-1.344s1.704.48 1.704 1.344c0 .84-.72 1.296-1.68 1.296-.936 0-1.704-.456-1.704-1.296z"/><circle cx="330.697" cy="113.346" r="10.3934"/><circle cx="221.165" cy="217.036" r="10.3934"/><circle cx="244.532" cy="284.216" r="10.3934"/><circle cx="160.558" cy="371.841" r="10.3934"/><circle cx="224.086" cy="409.082" r="10.3934"/><circle cx="310.251" cy="439.751" r="10.3934"/><circle cx="356.985" cy="520.073" r="10.3934"/></g><g clip-rule="evenodd" fill="#fff" fill-rule="evenodd" filter="url(#g)"><path d="m328.835 116.6-2.476-.909-.316.746s-.302 1.205.78 1.602c1.084.399 1.708-.69 1.708-.69z"/><path d="m330.647 110.006c-1.071-.418-2.573.5-3.093 1.657-.214.476-.311.99-.392 1.497-.038.242-.066.49-.115.732-.062.303-.155.594-.248.889-.128.408.013.477.404.547l1.367.503c.14.064.412.228.552.075.124-.136.1-.385.182-.547.107-.211.227-.425.36-.623.292-.443.848-.767 1.224-1.15.466-.475.724-.951.866-1.582.189-.839-.246-1.662-1.107-1.998z"/><path d="m331.801 113.878 2.383.917s-.492 1.876-1.947 1.33c-1.455-.547-.436-2.247-.436-2.247z"/><path d="m335.2 108.116c1.017.368 1.426 1.93.998 3.053-.177.462-.459.877-.747 1.28-.139.192-.289.38-.42.579-.161.247-.295.509-.431.769-.189.362-.333.321-.649.131l-1.281-.491c-.139-.041-.436-.097-.428-.287.007-.171.193-.33.246-.491.069-.212.133-.436.176-.654.099-.487-.063-1.055-.06-1.55 0-.616.148-1.106.477-1.63.441-.702 1.298-1.005 2.119-.709z"/></g><g clip-rule="evenodd" fill="#fff" fill-rule="evenodd" filter="url(#h)"><path d="m219.357 220.289-2.476-.908-.316.745s-.302 1.206.78 1.603c1.084.398 1.708-.691 1.708-.691z"/><path d="m221.169 213.696c-1.071-.419-2.573.499-3.093 1.656-.214.476-.311.99-.392 1.497-.038.242-.066.491-.115.732-.062.303-.155.595-.248.889-.128.408.013.477.404.547l1.367.503c.14.065.412.228.552.076.124-.137.1-.386.182-.548.107-.21.227-.424.36-.622.292-.444.848-.768 1.224-1.15.466-.476.724-.952.866-1.582.189-.839-.246-1.662-1.107-1.998z"/><path d="m222.323 217.567 2.383.917s-.492 1.876-1.947 1.33c-1.455-.547-.436-2.247-.436-2.247z"/><path d="m225.722 211.805c1.017.369 1.426 1.93.998 3.054-.177.462-.459.876-.747 1.279-.139.192-.289.38-.42.579-.161.248-.295.509-.431.769-.189.363-.333.321-.649.131l-1.281-.491c-.139-.04-.436-.096-.428-.286.007-.172.193-.331.246-.492.069-.212.133-.435.176-.653.099-.488-.063-1.055-.06-1.551 0-.615.148-1.105.477-1.629.441-.703 1.298-1.005 2.119-.71z"/></g><g clip-rule="evenodd" fill="#fff" fill-rule="evenodd" filter="url(#i)"><path d="m243.336 287.469-2.477-.908-.315.745s-.302 1.206.78 1.603c1.083.398 1.707-.691 1.707-.691z"/><path d="m245.147 280.875c-1.07-.418-2.573.5-3.093 1.657-.213.476-.311.99-.391 1.497-.039.242-.066.491-.115.732-.063.303-.156.595-.248.889-.129.408.013.477.403.547l1.368.503c.139.065.412.228.552.075.124-.136.099-.385.182-.547.107-.21.227-.425.359-.623.293-.443.848-.767 1.224-1.15.467-.475.724-.951.866-1.582.189-.839-.246-1.661-1.107-1.998z"/><path d="m246.301 284.747 2.383.917s-.491 1.876-1.946 1.33c-1.456-.547-.437-2.247-.437-2.247z"/><path d="m249.7 278.985c1.017.368 1.427 1.93.998 3.054-.176.461-.458.876-.747 1.279-.138.192-.288.38-.419.579-.161.248-.295.509-.431.769-.19.362-.334.321-.649.131l-1.281-.491c-.139-.041-.436-.097-.429-.287.008-.171.193-.33.247-.491.069-.212.132-.435.175-.653.099-.488-.062-1.056-.06-1.551 0-.616.148-1.106.477-1.63.442-.702 1.299-1.005 2.119-.709z"/></g><g clip-rule="evenodd" fill="#fff" fill-rule="evenodd" filter="url(#j)"><path d="m157.163 375.094-2.476-.908-.316.745s-.302 1.206.781 1.603c1.083.398 1.707-.691 1.707-.691z"/><path d="m158.975 368.5c-1.071-.418-2.573.5-3.093 1.657-.214.476-.311.99-.392 1.497-.038.242-.066.491-.114.732-.063.303-.156.595-.249.889-.128.408.013.477.404.547l1.367.503c.14.065.412.228.553.075.123-.136.099-.385.182-.547.106-.21.226-.425.359-.623.292-.443.848-.767 1.224-1.15.466-.475.724-.951.866-1.582.189-.839-.246-1.661-1.107-1.998z"/><path d="m160.129 372.372 2.383.917s-.492 1.876-1.947 1.33c-1.455-.547-.436-2.247-.436-2.247z"/><path d="m163.528 366.61c1.017.368 1.426 1.93.998 3.054-.177.461-.458.876-.747 1.279-.138.192-.288.38-.419.579-.161.248-.296.509-.431.769-.19.362-.334.321-.65.131l-1.281-.491c-.139-.041-.436-.097-.428-.287.007-.171.193-.33.246-.491.07-.212.133-.435.176-.653.099-.488-.063-1.056-.06-1.551 0-.616.148-1.106.477-1.63.441-.702 1.299-1.005 2.119-.709z"/></g><g clip-rule="evenodd" fill="#fff" fill-rule="evenodd" filter="url(#k)"><path d="m222.355 412.334-2.477-.908-.315.745s-.302 1.206.78 1.603c1.083.398 1.707-.691 1.707-.691z"/><path d="m224.166 405.741c-1.07-.419-2.573.499-3.092 1.656-.214.476-.311.99-.392 1.497-.039.242-.066.491-.115.732-.063.303-.156.595-.248.889-.129.408.013.477.403.547l1.368.503c.139.065.412.228.552.076.124-.137.099-.386.182-.548.107-.21.227-.424.359-.623.293-.443.848-.767 1.224-1.149.467-.476.724-.952.866-1.582.189-.84-.246-1.662-1.107-1.998z"/><path d="m225.32 409.612 2.383.917s-.491 1.876-1.946 1.33c-1.455-.547-.437-2.247-.437-2.247z"/><path d="m228.719 403.85c1.017.368 1.427 1.93.998 3.054-.176.462-.458.876-.747 1.279-.138.192-.288.38-.419.579-.161.248-.295.509-.431.769-.19.362-.334.321-.649.131l-1.281-.491c-.139-.04-.436-.096-.429-.286.008-.172.193-.331.247-.492.069-.212.132-.435.175-.653.099-.488-.062-1.055-.06-1.551 0-.615.148-1.105.477-1.629.442-.703 1.299-1.005 2.119-.71z"/></g><g clip-rule="evenodd" fill="#fff" fill-rule="evenodd" filter="url(#l)"><path d="m308.585 443.003-2.477-.908-.315.745s-.302 1.206.78 1.603c1.083.398 1.707-.691 1.707-.691z"/><path d="m310.396 436.41c-1.07-.419-2.573.499-3.093 1.656-.213.476-.31.99-.391 1.497-.039.242-.066.491-.115.732-.063.303-.156.595-.248.889-.129.408.013.477.403.547l1.368.503c.139.065.412.228.552.076.124-.137.099-.386.182-.548.107-.21.227-.424.359-.623.293-.443.848-.767 1.224-1.149.467-.476.724-.952.866-1.582.189-.84-.246-1.662-1.107-1.998z"/><path d="m311.55 440.281 2.383.917s-.491 1.876-1.946 1.33c-1.456-.547-.437-2.247-.437-2.247z"/><path d="m314.949 434.519c1.017.368 1.427 1.93.998 3.054-.176.462-.458.876-.747 1.279-.138.192-.288.38-.419.579-.161.248-.295.509-.431.769-.19.362-.334.321-.649.131l-1.281-.491c-.139-.041-.436-.096-.429-.286.008-.172.193-.331.247-.492.069-.212.132-.435.175-.653.099-.488-.062-1.055-.06-1.551 0-.616.148-1.105.477-1.629.442-.703 1.299-1.005 2.119-.71z"/></g><g clip-rule="evenodd" fill="#fff" fill-rule="evenodd" filter="url(#m)"><path d="m355.081 523.326-2.477-.908-.315.745s-.302 1.206.78 1.603c1.084.398 1.707-.691 1.707-.691z"/><path d="m356.892 516.733c-1.07-.419-2.573.499-3.092 1.656-.214.477-.311.991-.392 1.497-.039.243-.066.491-.115.732-.063.303-.156.595-.248.889-.129.409.013.477.403.547l1.368.503c.139.065.412.228.552.076.124-.137.099-.386.182-.548.107-.21.227-.424.359-.622.293-.444.848-.768 1.224-1.15.467-.475.724-.952.866-1.582.189-.839-.246-1.662-1.107-1.998z"/><path d="m358.047 520.604 2.382.917s-.491 1.876-1.946 1.331c-1.455-.547-.436-2.248-.436-2.248z"/><path d="m361.445 514.842c1.017.369 1.427 1.93.998 3.054-.176.462-.458.876-.747 1.279-.138.192-.288.38-.419.579-.161.248-.295.509-.431.77-.19.362-.334.32-.649.13l-1.281-.491c-.139-.04-.436-.096-.429-.286.008-.172.193-.331.247-.492.069-.211.132-.435.175-.653.099-.488-.062-1.055-.06-1.551 0-.615.148-1.105.477-1.629.442-.703 1.299-1.005 2.119-.71z"/></g></svg>