<svg fill="none" height="621" viewBox="0 0 568 621" width="568" xmlns="http://www.w3.org/2000/svg" xmlns:xlink="http://www.w3.org/1999/xlink"><filter id="a" color-interpolation-filters="sRGB" filterUnits="userSpaceOnUse" height="551.896" width="272.214" x="170.139" y="49.5312"><feFlood flood-opacity="0" result="BackgroundImageFix"/><feColorMatrix in="SourceAlpha" type="matrix" values="0 0 0 0 0 0 0 0 0 0 0 0 0 0 0 0 0 0 127 0"/><feOffset dy="4"/><feGaussianBlur stdDeviation="2"/><feColorMatrix type="matrix" values="0 0 0 0 0 0 0 0 0 0 0 0 0 0 0 0 0 0 0.25 0"/><feBlend in2="BackgroundImageFix" mode="normal" result="effect1_dropShadow"/><feBlend in="SourceGraphic" in2="effect1_dropShadow" mode="normal" result="shape"/></filter><filter id="b" color-interpolation-filters="sRGB" filterUnits="userSpaceOnUse" height="531.114" width="249.087" x="186.14" y="64.6357"><feFlood flood-opacity="0" result="BackgroundImageFix"/><feColorMatrix in="SourceAlpha" type="matrix" values="0 0 0 0 0 0 0 0 0 0 0 0 0 0 0 0 0 0 127 0"/><feOffset dy="4"/><feGaussianBlur stdDeviation="2"/><feColorMatrix type="matrix" values="0 0 0 0 0 0 0 0 0 0 0 0 0 0 0 0 0 0 0.25 0"/><feBlend in2="BackgroundImageFix" mode="normal" result="effect1_dropShadow"/><feBlend in="SourceGraphic" in2="effect1_dropShadow" mode="normal" result="shape"/></filter><filter id="c" color-interpolation-filters="sRGB" filterUnits="userSpaceOnUse" height="510.897" width="231.398" x="198.776" y="75.249"><feFlood flood-opacity="0" result="BackgroundImageFix"/><feColorMatrix in="SourceAlpha" type="matrix" values="0 0 0 0 0 0 0 0 0 0 0 0 0 0 0 0 0 0 127 0"/><feOffset dy="4"/><feGaussianBlur stdDeviation="2"/><feColorMatrix type="matrix" values="0 0 0 0 0 0 0 0 0 0 0 0 0 0 0 0 0 0 0.25 0"/><feBlend in2="BackgroundImageFix" mode="normal" result="effect1_dropShadow"/><feBlend in="SourceGraphic" in2="effect1_dropShadow" mode="normal" result="shape"/></filter><filter id="d" color-interpolation-filters="sRGB" filterUnits="userSpaceOnUse" height="490.175" width="220.784" x="205.348" y="85.3584"><feFlood flood-opacity="0" result="BackgroundImageFix"/><feColorMatrix in="SourceAlpha" type="matrix" values="0 0 0 0 0 0 0 0 0 0 0 0 0 0 0 0 0 0 127 0"/><feOffset dy="4"/><feGaussianBlur stdDeviation="2"/><feColorMatrix type="matrix" values="0 0 0 0 0 0 0 0 0 0 0 0 0 0 0 0 0 0 0.25 0"/><feBlend in2="BackgroundImageFix" mode="normal" result="effect1_dropShadow"/><feBlend in="SourceGraphic" in2="effect1_dropShadow" mode="normal" result="shape"/></filter><filter id="e" color-interpolation-filters="sRGB" filterUnits="userSpaceOnUse" height="476.023" width="201.578" x="216.466" y="92.9395"><feFlood flood-opacity="0" result="BackgroundImageFix"/><feColorMatrix in="SourceAlpha" type="matrix" values="0 0 0 0 0 0 0 0 0 0 0 0 0 0 0 0 0 0 127 0"/><feOffset dy="4"/><feGaussianBlur stdDeviation="2"/><feColorMatrix type="matrix" values="0 0 0 0 0 0 0 0 0 0 0 0 0 0 0 0 0 0 0.25 0"/><feBlend in2="BackgroundImageFix" mode="normal" result="effect1_dropShadow"/><feBlend in="SourceGraphic" in2="effect1_dropShadow" mode="normal" result="shape"/></filter><filter id="f" color-interpolation-filters="sRGB" filterUnits="userSpaceOnUse" height="451.763" width="135.872" x="277.117" y="99.5098"><feFlood flood-opacity="0" result="BackgroundImageFix"/><feColorMatrix in="SourceAlpha" type="matrix" values="0 0 0 0 0 0 0 0 0 0 0 0 0 0 0 0 0 0 127 0"/><feOffset dy="4"/><feGaussianBlur stdDeviation="2"/><feColorMatrix type="matrix" values="0 0 0 0 0 0 0 0 0 0 0 0 0 0 0 0 0 0 0.25 0"/><feBlend in2="BackgroundImageFix" mode="normal" result="effect1_dropShadow"/><feBlend in="SourceGraphic" in2="effect1_dropShadow" mode="normal" result="shape"/></filter><filter id="g" color-interpolation-filters="sRGB" filterUnits="userSpaceOnUse" height="21.8649" width="22.1262" x="300.236" y="98.9141"><feFlood flood-opacity="0" result="BackgroundImageFix"/><feColorMatrix in="SourceAlpha" type="matrix" values="0 0 0 0 0 0 0 0 0 0 0 0 0 0 0 0 0 0 127 0"/><feOffset dy="4"/><feGaussianBlur stdDeviation="2"/><feColorMatrix type="matrix" values="0 0 0 0 0 0 0 0 0 0 0 0 0 0 0 0 0 0 0.25 0"/><feBlend in2="BackgroundImageFix" mode="normal" result="effect1_dropShadow"/><feBlend in="SourceGraphic" in2="effect1_dropShadow" mode="normal" result="shape"/></filter><filter id="h" color-interpolation-filters="sRGB" filterUnits="userSpaceOnUse" height="21.8649" width="22.1263" x="310.848" y="160.646"><feFlood flood-opacity="0" result="BackgroundImageFix"/><feColorMatrix in="SourceAlpha" type="matrix" values="0 0 0 0 0 0 0 0 0 0 0 0 0 0 0 0 0 0 127 0"/><feOffset dy="4"/><feGaussianBlur stdDeviation="2"/><feColorMatrix type="matrix" values="0 0 0 0 0 0 0 0 0 0 0 0 0 0 0 0 0 0 0.25 0"/><feBlend in2="BackgroundImageFix" mode="normal" result="effect1_dropShadow"/><feBlend in="SourceGraphic" in2="effect1_dropShadow" mode="normal" result="shape"/></filter><filter id="i" color-interpolation-filters="sRGB" filterUnits="userSpaceOnUse" height="21.8649" width="22.1263" x="289.66" y="213.982"><feFlood flood-opacity="0" result="BackgroundImageFix"/><feColorMatrix in="SourceAlpha" type="matrix" values="0 0 0 0 0 0 0 0 0 0 0 0 0 0 0 0 0 0 127 0"/><feOffset dy="4"/><feGaussianBlur stdDeviation="2"/><feColorMatrix type="matrix" values="0 0 0 0 0 0 0 0 0 0 0 0 0 0 0 0 0 0 0.25 0"/><feBlend in2="BackgroundImageFix" mode="normal" result="effect1_dropShadow"/><feBlend in="SourceGraphic" in2="effect1_dropShadow" mode="normal" result="shape"/></filter><filter id="j" color-interpolation-filters="sRGB" filterUnits="userSpaceOnUse" height="21.8648" width="22.1258" x="378.452" y="310.777"><feFlood flood-opacity="0" result="BackgroundImageFix"/><feColorMatrix in="SourceAlpha" type="matrix" values="0 0 0 0 0 0 0 0 0 0 0 0 0 0 0 0 0 0 127 0"/><feOffset dy="4"/><feGaussianBlur stdDeviation="2"/><feColorMatrix type="matrix" values="0 0 0 0 0 0 0 0 0 0 0 0 0 0 0 0 0 0 0.25 0"/><feBlend in2="BackgroundImageFix" mode="normal" result="effect1_dropShadow"/><feBlend in="SourceGraphic" in2="effect1_dropShadow" mode="normal" result="shape"/></filter><filter id="k" color-interpolation-filters="sRGB" filterUnits="userSpaceOnUse" height="21.8649" width="22.1262" x="319.646" y="242.915"><feFlood flood-opacity="0" result="BackgroundImageFix"/><feColorMatrix in="SourceAlpha" type="matrix" values="0 0 0 0 0 0 0 0 0 0 0 0 0 0 0 0 0 0 127 0"/><feOffset dy="4"/><feGaussianBlur stdDeviation="2"/><feColorMatrix type="matrix" values="0 0 0 0 0 0 0 0 0 0 0 0 0 0 0 0 0 0 0.25 0"/><feBlend in2="BackgroundImageFix" mode="normal" result="effect1_dropShadow"/><feBlend in="SourceGraphic" in2="effect1_dropShadow" mode="normal" result="shape"/></filter><filter id="l" color-interpolation-filters="sRGB" filterUnits="userSpaceOnUse" height="21.8648" width="22.1258" x="363.318" y="476.711"><feFlood flood-opacity="0" result="BackgroundImageFix"/><feColorMatrix in="SourceAlpha" type="matrix" values="0 0 0 0 0 0 0 0 0 0 0 0 0 0 0 0 0 0 127 0"/><feOffset dy="4"/><feGaussianBlur stdDeviation="2"/><feColorMatrix type="matrix" values="0 0 0 0 0 0 0 0 0 0 0 0 0 0 0 0 0 0 0.25 0"/><feBlend in2="BackgroundImageFix" mode="normal" result="effect1_dropShadow"/><feBlend in="SourceGraphic" in2="effect1_dropShadow" mode="normal" result="shape"/></filter><filter id="m" color-interpolation-filters="sRGB" filterUnits="userSpaceOnUse" height="21.8649" width="22.1263" x="229.109" y="77.6797"><feFlood flood-opacity="0" result="BackgroundImageFix"/><feColorMatrix in="SourceAlpha" type="matrix" values="0 0 0 0 0 0 0 0 0 0 0 0 0 0 0 0 0 0 127 0"/><feOffset dy="4"/><feGaussianBlur stdDeviation="2"/><feColorMatrix type="matrix" values="0 0 0 0 0 0 0 0 0 0 0 0 0 0 0 0 0 0 0.25 0"/><feBlend in2="BackgroundImageFix" mode="normal" result="effect1_dropShadow"/><feBlend in="SourceGraphic" in2="effect1_dropShadow" mode="normal" result="shape"/></filter><g filter="url(#a)"><path d="m324.584 70.7007 10.614-1.5163-5.56 10.1085v5.0543l4.549 4.0434v7.0759l2.022 6.5705 15.162 8.087 10.614 5.559 14.152-1.01-4.549 5.054-10.613 3.538-3.538 8.592h-21.228v13.141l-4.549 1.516-2.022 9.603-3.538 6.066-12.635 7.075-5.56 2.528-6.065 10.614-2.022 14.657-5.054 10.108 1.011 10.109 8.592 13.646 12.13 8.592 7.076 9.604 6.065 15.668 17.185 15.162 3.538 6.571 10.108 9.603 11.625 8.592 5.56 8.592 10.613 4.549 4.549 5.56 6.571 10.108 10.614 10.109 4.043 10.108 7.076 11.625 4.549 18.701 2.527 4.043v17.185l-1.011 18.195 8.592 9.603-8.592 11.625v11.119l-5.054 19.712-4.549 10.614-6.065 8.592-15.163 6.065-13.141 8.087-7.076 7.581-6.57 3.033-11.12 2.021-6.065-1.011-1.516-8.592-8.592 2.022-3.033-2.022-1.516 11.12-2.527 11.624-2.022 5.055h-7.076v7.076l1.011 7.075-4.549-1.01-3.538 3.032-5.054 7.582-16.679 5.054-8.592 2.021-5.054 14.658-9.604 4.549 2.022-7.582h-4.549v-6.57l2.527-26.282 9.604-2.527-4.044-12.131-9.603-7.581h-6.57v-4.043h6.57l6.065-2.528 5.56-4.043-2.022-7.581 9.098 5.054 3.032-5.054 5.56-2.022h7.076l3.033 5.054h4.548l4.044 2.022h5.559v-8.087l1.011-8.087-7.581-4.548-4.044-7.076 5.055-7.076 5.559 5.559 9.603-5.559v-5.055-4.548l8.087 1.516 3.033-4.549h8.592l9.098-9.098 2.527 5.055 9.603-2.022 1.011-15.668-1.011-15.163 5.56-17.69-7.076-16.679-1.517-14.152 4.044-19.206 2.527-8.087-1.516-15.162-6.066-2.527-3.538-7.582 3.538-5.054 1.011-8.087h-4.549l-4.043-5.56-11.625-7.075-4.549-6.571-5.559 2.022-4.044-3.538v-11.625l-6.065-5.054-4.043-8.592h-6.065l-10.614-12.131-6.065-9.097-6.065-12.636-6.571-2.022-3.032-5.054-3.538-14.152h-14.152l-7.582-7.076-18.7-10.108 5.559-4.044v-8.592l13.141 5.054 7.582-5.054 5.054-7.076 5.054-10.108-14.152-6.571 4.044-4.549-7.582-3.538 3.538-6.065-10.108-11.624-14.152-1.517-10.108 6.065-7.076 2.528-13.647-7.076-6.57-11.625 2.021-17.185h-4.548l-7.076-5.054-2.528 5.054-4.548-10.1081-9.098-12.6356 11.119-7.0759 16.679 9.603 9.098-13.141 6.571 10.6139 7.075-7.0759 12.636 7.0759 4.043-10.6139 10.109 3.538 6.57-5.5597 5.56 2.0217 7.076-7.5814v-7.0759l14.152-6.0651 6.57 9.0976h7.076l5.56 4.0434h10.614z" fill="#f3e8cb"/><path d="m324.584 70.7007 10.614-1.5163-5.56 10.1085v5.0543l4.549 4.0434v7.0759l2.022 6.5705 15.162 8.087 10.614 5.559 14.152-1.01-4.549 5.054-10.613 3.538-3.538 8.592h-21.228v13.141l-4.549 1.516-2.022 9.603-3.538 6.066-12.635 7.075-5.56 2.528-6.065 10.614-2.022 14.657-5.054 10.108 1.011 10.109 8.592 13.646 12.13 8.592 7.076 9.604 6.065 15.668 17.185 15.162 3.538 6.571 10.108 9.603 11.625 8.592 5.56 8.592 10.613 4.549 4.549 5.56 6.571 10.108 10.614 10.109 4.043 10.108 7.076 11.625 4.549 18.701 2.527 4.043v17.185l-1.011 18.195 8.592 9.603-8.592 11.625v11.119l-5.054 19.712-4.549 10.614-6.065 8.592-15.163 6.065-13.141 8.087-7.076 7.581-6.57 3.033-11.12 2.021-6.065-1.011-1.516-8.592-8.592 2.022-3.033-2.022-1.516 11.12-2.527 11.624-2.022 5.055h-7.076v7.076l1.011 7.075-4.549-1.01-3.538 3.032-5.054 7.582-16.679 5.054-8.592 2.021-5.054 14.658-9.604 4.549 2.022-7.582h-4.549v-6.57l2.527-26.282 9.604-2.527-4.044-12.131-9.603-7.581h-6.57v-4.043h6.57l6.065-2.528 5.56-4.043-2.022-7.581 9.098 5.054 3.032-5.054 5.56-2.022h7.076l3.033 5.054h4.548l4.044 2.022h5.559v-8.087l1.011-8.087-7.581-4.548-4.044-7.076 5.055-7.076 5.559 5.559 9.603-5.559v-5.055-4.548l8.087 1.516 3.033-4.549h8.592l9.098-9.098 2.527 5.055 9.603-2.022 1.011-15.668-1.011-15.163 5.56-17.69-7.076-16.679-1.517-14.152 4.044-19.206 2.527-8.087-1.516-15.162-6.066-2.527-3.538-7.582 3.538-5.054 1.011-8.087h-4.549l-4.043-5.56-11.625-7.075-4.549-6.571-5.559 2.022-4.044-3.538v-11.625l-6.065-5.054-4.043-8.592h-6.065l-10.614-12.131-6.065-9.097-6.065-12.636-6.571-2.022-3.032-5.054-3.538-14.152h-14.152l-7.582-7.076-18.7-10.108 5.559-4.044v-8.592l13.141 5.054 7.582-5.054 5.054-7.076 5.054-10.108-14.152-6.571 4.044-4.549-7.582-3.538 3.538-6.065-10.108-11.624-14.152-1.517-10.108 6.065-7.076 2.528-13.647-7.076-6.57-11.625 2.021-17.185h-4.548l-7.076-5.054-2.528 5.054-4.548-10.1081-9.098-12.6356 11.119-7.0759 16.679 9.603 9.098-13.141 6.571 10.6139 7.075-7.0759 12.636 7.0759 4.043-10.6139 10.109 3.538 6.57-5.5597 5.56 2.0217 7.076-7.5814v-7.0759l14.152-6.0651 6.57 9.0976h7.076l5.56 4.0434h10.614z" stroke="#f3e8cb" stroke-width="4"/></g><g fill="#c1dd9b" filter="url(#b)"><path d="m280.106 70.1954 12.13-5.5597 9.603 1.5163 14.657 7.5814 16.174-3.538-5.054 15.6682-1.517 16.6794 20.217 10.613 6.571 14.658-20.217 2.527-8.592 23.249-19.207 14.152-10.613 31.337-1.517 10.108 4.044 12.636 1.516 8.592-7.076 1.011-3.538-9.098-3.538-8.087-12.13-3.032-21.228-16.174 12.636-6.065 19.206-12.13-3.033-18.195-7.581-14.152-7.076-14.152-25.777-3.033-16.679 3.538-6.065-14.152-26.282-20.7219v-12.1302l26.788 2.5271 17.184 5.5597 9.603-5.0543 12.636-2.0217 13.141-5.0542z"/><path d="m306.388 250.127-5.56-11.625 5.054-5.054 6.571 6.57 10.614 13.141 6.57 12.13 13.647 11.12 7.076 10.613 9.097 10.614 12.131 7.076 2.527 6.065-7.582 3.538-5.559-4.548-5.56-4.044-7.076-9.603-7.581.506-4.044-3.033-1.516-13.141-5.56-2.527-2.021-7.076-4.549-2.022-5.56-3.538-3.538-7.581z"/><path d="m377.653 314.315-6.065 3.538-2.022 10.614 5.054 6.065 3.538 8.593 1.011 8.086-4.549 19.712-1.011 20.217 9.098 12.636-3.538 19.711-3.538 12.13 6.065 19.206-10.614 8.593-6.57 1.01-4.044-2.527-4.043 5.56-9.098 1.516-2.527 3.033h-12.636l2.528 6.065-7.582 7.076h-7.581l-4.549-3.033.505 9.098 7.076 3.033v12.13 8.592l-6.065 1.011-8.087-2.527-3.032-4.044h-9.603l-3.538 3.033-5.56 1.011-6.065-3.538 1.011 5.559-3.538 5.055-6.571 3.032-5.559.506-1.516 2.021h7.581l11.119 8.592 1.517 13.647-9.604 2.527-1.516 27.798h3.538l-1.011 9.098 6.065-2.527 2.528-12.13 7.581-5.055 19.206-8.086 8.087-8.087h4.549v-12.636l8.086-1.516 2.528-17.184 6.065-10.614 8.592-2.527 3.538 7.581 8.592 4.549 14.152-4.549 9.603-12.13 19.712-7.582 9.603-7.076 5.054-15.668 4.549-17.69 3.032-13.646 4.044-8.087-6.065-14.152-1.011-28.809-4.549-10.108-1.011-15.669-10.109-21.227-13.141-12.131-8.592-12.635z"/></g><g fill="#539882" filter="url(#c)"><path d="m227.542 99.5094-19.206-9.6031-5.56 9.6031 22.744 22.2386h13.142 26.282l14.151 9.603 5.055 17.69 3.538 23.755-3.538 10.108-21.228 10.614 14.657 13.647 8.087 1.011 4.043-14.658 13.647-34.874 19.206-16.679 6.065-14.657 7.076-1.517 3.033-4.043-13.141-8.592-5.56-13.6466 2.527-20.7224-8.592 2.0217-20.723-5.5597-14.152 6.5705-8.086 11.1194-17.185 6.5705z"/><path d="m292.237 225.36-3.538-10.108 1.01-4.044 4.549 7.582 1.516 9.097z"/><path d="m307.905 247.599-4.044-7.582 2.022-2.021 6.065 4.043 4.549 8.087 6.57 7.581 2.022 6.065-5.054-2.021-6.571-9.098z"/><path d="m332.67 277.419-2.527-6.571-2.021-3.538 3.538 1.517 7.076 6.57 4.548 5.054 6.571 10.109-3.033 4.043h-4.548l-3.033-5.559-1.516-10.109z"/><path d="m353.393 294.098-2.527 2.527 5.559 8.087 6.066 3.538 5.054 4.549 4.043-4.044-3.538-4.549-10.108-5.559z"/><path d="m372.094 326.445 1.516-8.087h5.054l6.065 3.033 5.054 9.603 9.604 9.097 8.086 11.12 5.055 13.141v13.141l8.592 14.657v18.195 12.636l5.054 9.603-9.098 28.809-9.603 16.679-14.657 15.669-14.152 4.548-11.119 12.636-14.152-5.054-8.087-3.033-10.614 6.065-6.57 2.022-3.033-19.712 7.581-3.538 6.571-8.086 10.614-7.076h6.57l6.066-5.055 5.054 2.022 14.657-6.57 5.054-8.593-7.076-18.7 7.076-20.723v-9.097l-8.086-11.12-2.022-11.119 2.022-10.614 2.527-11.119.505-10.614-3.538-12.636-3.032-7.581z"/><path d="m285.161 521.033-7.076 3.538-1.517 1.517 4.549 2.021 5.054 4.549.506 5.56 2.022 10.108-4.549 3.538-6.065 1.011-1.517 6.065v13.141l1.517 5.055 3.032 1.01.506-6.57 3.032-2.022 9.098-6.065 12.635-5.054 8.593-7.582 4.548-4.043-.505-10.108 5.054-4.044 5.56-7.581-1.516-8.087-9.098 1.516-10.614-1.516-9.603-5.054-6.57 3.538-7.076.505z"/></g><g fill="#356740" filter="url(#d)"><path d="m258.374 114.168-28.304 4.043-20.722-16.679 4.043-2.5271 14.657 4.0431 31.337 2.022 23.249-10.614 14.152-7.5813 17.69-1.5163 3.032 17.6896 3.033 16.679v16.679l-20.217 12.13-6.065 13.647-4.043-11.625v-17.184l-12.131-15.163z"/><path d="m287.183 185.432-11.625 8.087 1.011 7.076 7.076 2.022 5.56-13.647 1.011-9.097z"/><path d="m344.296 292.077-3.033-8.087 3.033 1.516 2.022 3.538z"/><path d="m364.008 306.734-9.098-7.076 12.636 7.076z"/><path d="m380.687 333.522-3.538-8.592v-3.538l7.581 4.548 4.043 9.098 7.076 8.592 7.076 8.087 5.054 13.141 1.011 19.712 9.098 9.097-2.527 17.69 1.516 13.647 5.054 7.581-1.516 6.065-7.076 16.679-7.076 16.174-7.076 7.581-11.624 10.614-9.604 3.538-4.548-1.516-3.538 11.624-4.549 3.033-7.076-6.065-10.109-4.549-10.108 4.549-8.592 3.032v-11.119l9.603-4.043 9.097-9.098 8.593-2.022 5.559-5.559 10.614 1.011 13.141-5.055 4.549-7.581-1.516-12.13-4.549-12.636 7.076-14.657v-16.679l-4.549-9.098-5.054-15.163 4.043-22.238-1.516-11.625z"/><path d="m294.259 519.518 5.054-4.549 3.538 6.571 18.701 3.538-3.033 4.548-4.548 10.614-3.033 11.625-9.098 7.076-9.603 1.011-9.603 6.57-3.538 1.011v-2.021l2.022-10.614 7.581-1.517 2.527-6.065v-13.646l-6.065-7.076-2.527-1.516 5.054-1.517 2.022-5.559z"/></g><g fill="#a2896d" filter="url(#e)"><path d="m232.596 114.167-12.13-9.603 32.853 4.549-9.098 5.054z"/><path d="m296.785 94.4557-33.358 12.6353 3.538 4.044 22.239 2.021 3.033 12.131 13.141 12.13 11.624-10.614-4.548-19.712-1.517-14.1515z"/><path d="m390.794 366.88-3.538-25.272 10.614 12.636 6.571 16.174v15.162l9.603 10.614-5.56 25.271 4.044 12.636-1.011 15.163-12.636 21.228h-6.57l3.538-11.625-3.538-21.228 6.57-16.174-3.032-25.271z"/><path d="m335.198 497.784v-5.054l9.097-5.054 12.636-5.054 6.57-8.087 5.055 2.022 8.086-3.033 10.109-2.022 5.56 5.055-8.593 10.614h-5.054l-8.087 3.032-5.559 8.592-12.636-6.065h-7.581z"/><path d="m295.269 531.648-4.549-5.054 7.076-4.044 1.517 4.044h14.151v7.076l-7.076 14.152-8.592 7.581h-5.054l4.043-11.625z"/><path d="m285.161 560.963-1.011-2.528 5.054-3.032-.505 5.054z"/></g><g fill="#ffbd3a" filter="url(#f)"><path d="m310.432 119.221-5.054-19.7112h-11.625l-12.636 4.5492 16.679 6.065v10.108l8.592 10.614z"/><path d="m397.87 441.177 3.538-9.603 5.054 9.603-1.516 13.141h-7.076z"/><path d="m402.924 411.862-2.527-19.711 5.56-1.011 3.033 9.603z"/><path d="m400.397 369.406-7.076-15.668 1.517 14.152 3.032 7.582 2.527 4.043z"/><path d="m382.707 482.116v-6.065l-8.086 1.011-9.603 5.054-5.055 2.022-2.527 6.57 7.582 2.022 4.548-6.571 4.044-4.043z"/><path d="m301.334 543.272-2.022-9.603.506-4.043 6.065-.505 3.538 3.032-3.538 7.076z"/></g><g fill="#000"><circle cx="310.233" cy="106.233" r="14.2334"/><circle cx="239.631" cy="85" r="14.2334"/><circle cx="320.622" cy="167.967" r="14.2334"/><circle cx="386.797" cy="318.096" r="14.2334"/><circle cx="329.233" cy="250.233" r="14.2334"/><circle cx="299.88" cy="221.302" r="14.2334"/><circle cx="371.982" cy="484.029" r="14.2334"/></g><g clip-rule="evenodd" fill="#fff" fill-rule="evenodd" filter="url(#g)"><path d="m308.096 110.687-3.377-1.244-.43 1.021s-.411 1.651 1.064 2.195c1.477.545 2.328-.946 2.328-.946z"/><path d="m310.565 101.658c-1.459-.574-3.508.684-4.216 2.268-.292.652-.424 1.356-.534 2.05-.053.332-.09.672-.157 1.003-.085.415-.212.814-.338 1.217-.175.559.017.653.55.749l1.865.689c.19.089.561.312.752.103.169-.187.135-.528.248-.749.146-.288.31-.582.49-.853.399-.607 1.156-1.051 1.669-1.575.636-.651.987-1.303 1.18-2.166.258-1.149-.335-2.276-1.509-2.736z"/><path d="m312.139 106.96 3.248 1.255s-.67 2.57-2.654 1.822c-1.983-.749-.594-3.077-.594-3.077z"/><path d="m316.772 99.0684c1.387.5046 1.945 2.6426 1.361 4.1816-.241.633-.625 1.2-1.018 1.753-.189.262-.393.52-.572.792-.219.34-.403.697-.587 1.054-.259.496-.455.439-.886.179l-1.746-.672c-.189-.056-.595-.133-.584-.393.01-.235.263-.452.336-.673.094-.29.18-.596.239-.895.135-.668-.085-1.445-.082-2.123 0-.843.202-1.514.651-2.232.602-.9621 1.77-1.3762 2.888-.9716z"/></g><g clip-rule="evenodd" fill="#fff" fill-rule="evenodd" filter="url(#h)"><path d="m318.708 172.42-3.377-1.244-.43 1.02s-.412 1.652 1.064 2.195c1.477.546 2.328-.945 2.328-.945z"/><path d="m321.177 163.39c-1.459-.573-3.508.684-4.216 2.268-.292.653-.424 1.357-.534 2.051-.053.331-.09.671-.157 1.002-.085.415-.212.814-.338 1.217-.176.56.017.654.55.749l1.864.689c.191.089.562.313.753.104.169-.187.135-.528.248-.75.146-.288.309-.581.49-.853.399-.607 1.156-1.051 1.669-1.574.635-.651.987-1.304 1.18-2.167.258-1.149-.335-2.276-1.509-2.736z"/><path d="m322.751 168.692 3.248 1.256s-.67 2.569-2.654 1.822c-1.983-.749-.594-3.078-.594-3.078z"/><path d="m327.384 160.801c1.387.504 1.945 2.643 1.361 4.182-.241.632-.625 1.2-1.019 1.752-.188.263-.392.52-.571.793-.22.339-.403.697-.588 1.053-.258.496-.455.44-.885.18l-1.746-.673c-.19-.056-.595-.132-.584-.392.01-.235.263-.453.336-.674.094-.289.18-.596.239-.894.135-.668-.086-1.445-.082-2.124 0-.843.202-1.514.651-2.231.601-.963 1.77-1.377 2.888-.972z"/></g><g clip-rule="evenodd" fill="#fff" fill-rule="evenodd" filter="url(#i)"><path d="m297.519 225.756-3.376-1.244-.431 1.02s-.411 1.652 1.064 2.195c1.477.546 2.328-.945 2.328-.945z"/><path d="m299.989 216.726c-1.46-.573-3.508.684-4.217 2.268-.291.653-.424 1.357-.534 2.051-.052.331-.09.671-.156 1.002-.086.415-.213.814-.339 1.217-.175.56.018.654.55.749l1.865.689c.19.089.562.313.753.104.169-.187.135-.528.248-.75.145-.288.309-.581.489-.853.399-.607 1.157-1.051 1.67-1.574.635-.651.986-1.304 1.18-2.167.258-1.149-.335-2.276-1.509-2.736z"/><path d="m301.562 222.028 3.249 1.256s-.67 2.569-2.654 1.822c-1.984-.75-.595-3.078-.595-3.078z"/><path d="m306.196 214.137c1.386.504 1.944 2.643 1.36 4.182-.24.632-.624 1.2-1.018 1.752-.189.263-.393.52-.572.793-.219.339-.402.697-.587 1.053-.259.496-.455.44-.885.179l-1.747-.672c-.189-.056-.594-.132-.584-.392.01-.235.263-.453.336-.674.094-.29.181-.596.239-.894.135-.668-.085-1.445-.081-2.124 0-.843.201-1.514.65-2.231.602-.963 1.771-1.377 2.889-.972z"/></g><g clip-rule="evenodd" fill="#fff" fill-rule="evenodd" filter="url(#j)"><path d="m386.312 322.551-3.377-1.244-.43 1.02s-.412 1.651 1.064 2.195c1.477.546 2.327-.946 2.327-.946z"/><path d="m388.781 313.521c-1.459-.573-3.508.684-4.216 2.268-.292.653-.424 1.356-.534 2.051-.053.331-.09.671-.157 1.002-.085.415-.212.814-.338 1.217-.176.56.017.654.55.749l1.864.689c.191.089.562.313.753.104.169-.187.135-.528.248-.75.146-.288.309-.581.49-.853.399-.607 1.156-1.051 1.669-1.574.635-.651.987-1.304 1.18-2.167.258-1.149-.335-2.276-1.509-2.736z"/><path d="m390.355 318.823 3.248 1.256s-.67 2.569-2.654 1.821c-1.983-.749-.594-3.077-.594-3.077z"/><path d="m394.988 310.932c1.386.504 1.944 2.643 1.36 4.182-.24.632-.624 1.2-1.018 1.752-.189.263-.393.52-.572.793-.219.339-.402.696-.587 1.053-.259.496-.455.439-.885.179l-1.747-.672c-.189-.056-.594-.132-.584-.393.01-.234.263-.452.336-.673.094-.29.181-.596.239-.894.135-.668-.085-1.445-.081-2.124 0-.843.201-1.514.65-2.232.602-.962 1.771-1.376 2.889-.971z"/></g><g clip-rule="evenodd" fill="#fff" fill-rule="evenodd" filter="url(#k)"><path d="m327.505 254.688-3.376-1.244-.43 1.021s-.412 1.651 1.064 2.195c1.477.545 2.327-.946 2.327-.946z"/><path d="m329.975 245.659c-1.459-.574-3.508.684-4.216 2.268-.292.652-.424 1.356-.535 2.05-.052.332-.089.672-.156 1.003-.085.415-.212.814-.339 1.217-.175.559.018.653.551.749l1.864.689c.19.089.562.312.753.103.169-.187.135-.528.248-.749.146-.288.309-.582.49-.853.399-.607 1.156-1.051 1.669-1.575.635-.651.986-1.303 1.18-2.166.258-1.149-.335-2.276-1.509-2.736z"/><path d="m331.549 250.961 3.248 1.255s-.67 2.57-2.654 1.822c-1.984-.749-.594-3.077-.594-3.077z"/><path d="m336.182 243.069c1.387.505 1.945 2.643 1.361 4.182-.241.633-.625 1.2-1.019 1.753-.188.262-.393.52-.571.792-.22.34-.403.697-.588 1.054-.258.496-.455.439-.885.179l-1.746-.672c-.19-.056-.595-.133-.584-.393.009-.235.263-.452.336-.673.094-.29.18-.596.239-.895.135-.668-.086-1.445-.082-2.123 0-.843.202-1.514.65-2.232.602-.962 1.771-1.376 2.889-.972z"/></g><g clip-rule="evenodd" fill="#fff" fill-rule="evenodd" filter="url(#l)"><path d="m371.177 488.484-3.376-1.244-.43 1.021s-.412 1.651 1.064 2.195c1.477.545 2.327-.946 2.327-.946z"/><path d="m373.647 479.455c-1.46-.574-3.508.683-4.217 2.268-.291.652-.423 1.356-.534 2.05-.052.332-.089.672-.156 1.003-.085.415-.213.814-.339 1.217-.175.559.018.653.55.749l1.865.689c.19.089.562.312.753.103.169-.187.135-.528.248-.75.146-.288.309-.581.49-.852.399-.607 1.156-1.051 1.669-1.575.635-.651.986-1.303 1.18-2.166.258-1.15-.335-2.276-1.509-2.736z"/><path d="m375.22 484.757 3.249 1.255s-.67 2.569-2.654 1.822c-1.984-.749-.595-3.077-.595-3.077z"/><path d="m379.853 476.865c1.387.505 1.945 2.643 1.361 4.182-.241.633-.625 1.2-1.018 1.753-.189.262-.393.52-.572.792-.219.339-.402.697-.587 1.054-.259.496-.455.439-.886.179l-1.746-.673c-.189-.055-.595-.132-.584-.392.01-.235.263-.452.336-.673.094-.29.18-.596.239-.895.135-.668-.085-1.445-.082-2.123 0-.843.202-1.514.651-2.232.602-.962 1.77-1.376 2.888-.972z"/></g><g clip-rule="evenodd" fill="#fff" fill-rule="evenodd" filter="url(#m)"><path d="m236.968 89.4531-3.376-1.2441-.43 1.0205s-.412 1.6513 1.064 2.195c1.477.5455 2.327-.9457 2.327-.9457z"/><path d="m239.438 80.4233c-1.459-.5733-3.508.6839-4.217 2.2681-.291.6526-.423 1.3564-.534 2.0507-.052.3314-.089.6716-.156 1.0022-.085.415-.213.8143-.339 1.2172-.175.5594.018.6533.55.749l1.865.6891c.19.0887.562.3123.753.1035.169-.187.135-.5281.248-.7499.146-.288.309-.5812.49-.8526.399-.6073 1.156-1.051 1.669-1.5748.635-.6507.986-1.3032 1.18-2.1663.258-1.1493-.335-2.2759-1.509-2.7362z"/><path d="m241.011 85.7256 3.249 1.2554s-.67 2.5692-2.654 1.8218c-1.984-.7491-.595-3.0772-.595-3.0772z"/><path d="m245.645 77.834c1.386.5046 1.945 2.6431 1.361 4.1821-.241.6325-.625 1.1998-1.019 1.7522-.188.2628-.393.5203-.571.7926-.22.3393-.403.6969-.588 1.0536-.258.4959-.455.4393-.885.1792l-1.747-.6725c-.189-.0557-.594-.1323-.583-.3924.009-.2349.263-.4524.335-.6734.095-.2897.181-.5959.24-.8943.135-.6682-.086-1.4451-.082-2.1237 0-.8431.202-1.5139.65-2.2316.602-.9623 1.771-1.3764 2.889-.9718z"/></g><path d="m369 66-55 27" stroke="#000"/><path d="m341 470-70-52" stroke="#000"/><path d="m392.696 48.2h-4.104v6.528h-6v-6.528h-4.104v16.8h4.104v-6.576h6v6.576h4.104zm1.964 12.888c0 2.736 2.208 4.224 4.68 4.224 1.296 0 2.208-.36 2.856-1.008l.216.696h3.576v-7.8c0-2.88-1.104-5.112-5.448-5.112-2.088 0-3.792.672-5.136 1.56l1.488 2.688c.984-.48 2.064-.792 3.168-.792 1.296 0 1.92.6 1.92 1.368v.456c-.456-.192-1.32-.456-2.424-.456-2.976 0-4.896 1.656-4.896 4.176zm4.008-.144c0-.816.72-1.344 1.68-1.344s1.704.48 1.704 1.344c0 .84-.72 1.296-1.68 1.296-.936 0-1.704-.456-1.704-1.296zm16.876 4.056h4.008v-6.984c0-2.568-.384-5.928-4.32-5.928-1.584 0-2.688.864-3.168 1.608v-1.296h-3.912v12.6h4.008v-7.512c0-1.008.624-1.8 1.728-1.8.96 0 1.656.624 1.656 1.8zm5.577-6.264c0 3.792 2.832 6.576 6.84 6.576 3.984 0 6.912-2.832 6.912-6.624 0-3.816-2.856-6.6-6.912-6.6-3.888 0-6.84 2.832-6.84 6.648zm4.008 0c0-1.848 1.176-3.12 2.832-3.12 1.632 0 2.904 1.224 2.904 3.072 0 1.8-1.248 3.096-2.904 3.096-1.632 0-2.832-1.224-2.832-3.048zm15.414-6.336h-4.008v12.6h4.008zm-2.04-.768c1.272 0 2.256-.912 2.256-2.16 0-1.272-.984-2.184-2.256-2.184s-2.232.912-2.232 2.184c0 1.248.96 2.16 2.232 2.16z" fill="#000"/><path d="m171.696 388.2h-4.104v6.528h-6v-6.528h-4.104v16.8h4.104v-6.576h6v6.576h4.104zm1.988 10.536c0 3.792 2.832 6.576 6.84 6.576 3.984 0 6.912-2.832 6.912-6.624 0-3.816-2.856-6.6-6.912-6.6-3.888 0-6.84 2.832-6.84 6.648zm4.008 0c0-1.848 1.176-3.12 2.832-3.12 1.632 0 2.904 1.224 2.904 3.072 0 1.8-1.248 3.096-2.904 3.096-1.632 0-2.832-1.224-2.832-3.048zm24.492 6.576c2.088 0 3.768-.6 4.968-1.416l-1.152-3.6c-.888.6-2.232 1.176-3.672 1.176-3.072 0-4.752-2.28-4.752-4.896s1.68-4.848 4.752-4.848c1.44 0 2.712.576 3.6 1.176l1.152-3.6c-1.2-.816-2.808-1.416-4.896-1.416-5.232 0-8.88 3.768-8.88 8.688 0 4.944 3.456 8.736 8.88 8.736zm14.181-.312h4.008v-6.984c0-2.568-.384-5.928-4.32-5.928-1.584 0-2.64.864-3.12 1.608v-6.048h-4.008v17.352h4.008v-7.512c0-1.008.672-1.8 1.776-1.8.96 0 1.656.624 1.656 1.8zm10.233-12.6h-4.008v12.6h4.008zm-2.04-.768c1.272 0 2.256-.912 2.256-2.16 0-1.272-.984-2.184-2.256-2.184s-2.232.912-2.232 2.184c0 1.248.96 2.16 2.232 2.16zm20.735 12 3.696-9.648v11.016h3.936v-16.8h-5.328l-4.2 10.632-4.176-10.632h-5.328v16.8h3.936v-11.016l3.696 9.648zm14.234-11.232h-4.008v12.6h4.008zm-2.04-.768c1.272 0 2.256-.912 2.256-2.16 0-1.272-.984-2.184-2.256-2.184s-2.232.912-2.232 2.184c0 1.248.96 2.16 2.232 2.16zm11.729 13.368h4.008v-6.984c0-2.568-.384-5.928-4.32-5.928-1.584 0-2.688.864-3.168 1.608v-1.296h-3.912v12.6h4.008v-7.512c0-1.008.624-1.8 1.728-1.8.96 0 1.656.624 1.656 1.8zm13.665 0h4.008v-6.984c0-2.568-.384-5.928-4.32-5.928-1.584 0-2.64.864-3.12 1.608v-6.048h-4.008v17.352h4.008v-7.512c0-1.008.672-1.8 1.776-1.8.96 0 1.656.624 1.656 1.8z" fill="#000"/></svg>