<svg width="568" height="621" viewBox="0 0 568 621" fill="none" xmlns="http://www.w3.org/2000/svg">
<path d="M55.528 454.636C57.616 454.636 59.296 454.036 60.496 453.22L59.344 449.62C58.456 450.22 57.112 450.796 55.672 450.796C52.6 450.796 50.92 448.516 50.92 445.9C50.92 443.284 52.6 441.052 55.672 441.052C57.112 441.052 58.384 441.628 59.272 442.228L60.424 438.628C59.224 437.812 57.616 437.212 55.528 437.212C50.296 437.212 46.648 440.98 46.648 445.9C46.648 450.844 50.104 454.636 55.528 454.636ZM61.5972 450.412C61.5972 453.148 63.8052 454.636 66.2772 454.636C67.5732 454.636 68.4852 454.276 69.1332 453.628L69.3492 454.324L72.9252 454.324L72.9252 446.524C72.9252 443.644 71.8212 441.412 67.4772 441.412C65.3892 441.412 63.6852 442.084 62.3412 442.972L63.8292 445.66C64.8132 445.18 65.8932 444.868 66.9972 444.868C68.2932 444.868 68.9172 445.468 68.9172 446.236L68.9172 446.692C68.4612 446.5 67.5972 446.236 66.4932 446.236C63.5172 446.236 61.5972 447.892 61.5972 450.412ZM65.6052 450.268C65.6052 449.452 66.3252 448.924 67.2852 448.924C68.2452 448.924 68.9892 449.404 68.9892 450.268C68.9892 451.108 68.2692 451.564 67.3092 451.564C66.3732 451.564 65.6052 451.108 65.6052 450.268ZM75.0895 454.324L79.0975 454.324L79.0975 436.972L75.0895 436.972L75.0895 454.324ZM85.4022 441.724L81.3942 441.724L81.3942 454.324L85.4022 454.324L85.4022 441.724ZM83.3622 440.956C84.6342 440.956 85.6182 440.044 85.6182 438.796C85.6182 437.524 84.6342 436.612 83.3622 436.612C82.0902 436.612 81.1302 437.524 81.1302 438.796C81.1302 440.044 82.0902 440.956 83.3622 440.956Z" fill="black"/>
<path d="M145.053 387.005L101.971 426.436" stroke="black"/>
<g filter="url(#filter0_d)">
<path d="M378.26 435.148V445.218L370.093 481.244L362.708 516.376L357.785 513.914L353.869 507.537L342.905 508.096L360.247 480.461L360.694 478.223L353.869 474.755L352.863 473.189H350.737L348.611 470.951L346.038 471.51L343.576 468.378L340.22 465.692H335.856V467.147H334.066L333.171 469.944L328.919 470.391H325.898L324.668 468.378L322.766 465.692H319.074L314.263 465.245L311.465 469.944L309.899 467.818L305.759 469.273L304.081 471.51L300.725 472.517L296.361 470.391H292.781L285.956 471.063L284.054 469.273L281.816 468.713H279.131V465.245L280.138 463.566V460.658V457.189L277.565 454.951H273.537L270.628 453.049L272.418 448.35L269.285 445.889L268.726 443.092L266.712 441.078L262.125 440.63L260.558 438.728L258.768 436.491H256.866L256.419 434.812L254.405 436.491L250.601 433.917L250.041 431.232L250.601 429.889L248.922 427.54V424.855L246.797 421.61L243.104 419.037L239.188 417.918V416.463L238.517 413.89L236.727 414.449L233.818 413.89L229.343 411.429L226.993 410.981L223.525 411.876H220.504L215.133 407.96H212.336L209.204 407.513L206.295 405.611L205.847 403.709L202.155 401.135L197.008 398.674L194.547 401.135L193.092 404.492H189.848L186.044 403.709H181.121H175.974V400.576H172.841L167.695 401.135L166.464 396.324L167.695 393.751H164.674L162.772 391.737L160.422 388.716L156.954 389.835L151.695 387.374L148.451 385.136L145.094 384.017L143.751 382.674L140.731 380.213L138.717 378.423H136.591L135.025 376.521L132.787 373.947L131.668 372.493L129.766 370.927H127.528L128.312 368.353L129.095 365.444L132.227 363.654H133.458H136.143L138.157 364.773L140.171 364.325L140.731 361.864L138.717 359.291L137.262 356.27V353.473L138.717 350.564L139.612 346.983L141.626 344.858L143.08 342.508L144.87 341.725H147.444L151.136 340.27V341.165L153.038 341.725H155.723L156.618 343.179L158.856 341.725L160.422 339.711L162.436 339.04V337.585L164.674 335.459L162.436 333.334L164.226 330.425H165.681L166.576 328.299L168.254 327.963H170.044V326.285L168.59 325.837L169.037 324.495L170.604 323.152H172.394V321.474L174.631 321.138L175.862 319.572L175.303 317.894L176.981 317.222V315.656L178.995 314.873L176.981 312.747H180.785V311.292L181.68 310.509L182.351 309.39L181.68 308.607L179.778 307.936L179.331 309.95L175.303 310.509L174.296 309.39V308.272H177.652L178.547 305.698L176.533 304.02L174.631 307.488L172.394 307.936L170.604 306.034V304.02L169.037 303.125V300.44L171.387 298.202L173.177 297.307L173.848 294.622L174.296 292.72V291.153L175.974 288.468L174.296 287.685V284.776L173.177 281.419L174.296 278.846L173.177 278.622V275.042L173.848 274.706V273.476L173.177 272.916L172.729 271.35V269.784L171.387 269.112H169.037V268.441L170.716 265.979H171.387L172.729 265.644L173.848 266.651L177.205 263.742L177.764 261.84L176.533 260.945L175.974 257.812L174.52 254.903L171.946 252.442V248.302L175.079 250.54V246.624L175.638 244.05L175.974 241.365L174.52 238.68V236.89H172.282L171.946 237.225L170.38 238.009L170.044 235.211L168.366 233.309L166.352 233.645V231.519L167.807 229.617L165.904 227.38L165.345 225.925L162.884 225.701L162.548 224.359L160.87 222.121L163.779 216.527L165.569 214.513V211.492L167.135 210.485L169.597 212.611L170.044 215.52L171.611 213.73L174.52 211.492L176.533 208.919V206.457L181.009 205.003L178.547 200.304L177.317 197.395L175.638 191.8V184.528L182.463 191.017L186.491 197.395L191.638 201.646L190.519 202.318V204.22H192.98L195.106 197.395L191.638 191.8L187.946 191.017V188.444L196.449 183.857L204.504 178.934L209.315 173.675L212.336 169.312L216.14 166.738L219.721 168.305L225.651 165.843V161.48V154.655L226.322 146.711L230.014 136.865L236.839 129.929L247.356 127.467H251.048L254.405 133.509L259.999 131.607L262.796 127.467L264.474 118.069H268.39L270.404 120.307L279.914 122.209H283.494H292.221L302.067 111.468L312.472 106.097L320.528 97.0348H325.563L331.269 92L339.772 94.3496L346.261 98.1536L344.471 105.314L337.87 109.566H328.024L322.094 111.468L316.165 123.551H311.354L303.074 132.726L295.578 140.446L292.221 148.725L293.9 157.228L288.977 170.319L283.494 171.885L285.62 174.347L293.117 172.78L293.9 174.347H298.711V178.934L300.165 183.857L305.424 189.563L308.333 195.94V201.646L305.424 207.017L307.214 217.646L310.235 218.653V222.792L316.053 227.827L322.43 230.177H329.143L335.409 231.072L342.569 230.177H345.926L353.534 228.722L359.016 229.505L363.491 231.072L367.184 230.177L385.756 252.553L390.344 253.672L394.371 251.099H402.315L405.112 252.553H409.7H413.727L416.077 249.644L422.678 251.099L426.146 249.644H432.859L439.349 251.099V253.672L441.363 256.917L437.223 261.392L433.643 262.959L432.859 271.014L430.734 272.581L427.489 275.49L429.503 281.084L425.028 288.692L424.021 293.727L425.028 297.755L424.021 301.559L427.489 305.586L429.503 313.418H433.643L438.006 321.81L437.223 326.173L433.643 327.18L422.678 338.368H426.146H429.503L430.734 342.061L432.859 341.277L435.433 345.305L439.349 350.116V353.696L441.363 355.599L442.482 361.022L443.712 366.116L445.391 371.934L447.516 376.185V380.549H442.482L441.363 378.982V373.052V366.899L438.677 361.416L435.433 355.599L430.734 358.172L424.021 363.095L420.329 366.116L416.86 363.095V360.745L414.399 359.626L412.049 363.095L415.406 366.116H393.141L382.624 364.773H374.12L369.421 369.025V374.731V380.549H372.442H377.589L384.414 381.891L388.106 386.59L387.435 393.08L382.624 394.534L380.274 391.625L376.918 390.618L372.442 394.534L362.485 395.541V413.778L374.12 421.162L372.442 427.652L378.26 435.148Z" fill="#F3E8CB"/>
</g>
<g filter="url(#filter1_d)">
<path d="M364.681 422.895V431.456L373.785 444.096L368.303 472.962L368.011 483.866L364.163 497.353L361.366 508.765L357.897 504.849L350.066 504.178L354.205 495.563L362.932 477.214L358.681 473.745L349.364 461.42L349.744 459.517L343.941 456.569L343.084 455.237H341.277L339.469 453.334L337.281 453.81L335.188 451.147L332.334 448.864H328.623V450.1H327.101L326.34 452.478L322.724 452.859H320.156L319.109 451.147L317.492 448.864H314.352L310.261 448.483L307.883 452.478L306.551 450.671L303.03 451.908L301.603 453.81L298.749 454.666L295.039 452.859H291.994L286.19 453.429L284.573 451.908L282.67 451.432H280.387V448.483L281.243 447.056V444.583V441.634L279.055 439.732H275.63L273.156 438.115L274.678 434.12L272.015 432.027L271.539 429.649L269.826 427.937L265.926 427.556L264.594 425.939L263.071 424.037H261.454L261.073 422.61L259.361 424.037L256.126 421.849L255.65 419.566L256.126 418.425L254.699 416.427V414.144L252.891 411.386L249.482 408.408H243.888L238.741 407.065V404.727L228.783 396.832L215.357 396.166L210.554 391.886L208.461 393.978L207.224 396.832H204.465L201.23 396.166H197.044H192.667V393.503H190.003L185.627 393.978L184.58 389.888L185.627 387.7H183.058L181.441 385.988L179.443 383.42L176.494 384.371L158.131 386.805L155.372 384.902L152.518 383.951L151.376 382.81L148.808 380.717L147.095 379.195H145.287L143.955 377.578L142.053 375.39L141.101 374.154L139.484 372.822H137.581L138.247 370.634L138.913 368.161L141.577 366.639H142.623H144.907L146.619 367.59L148.332 367.21L148.808 365.117L147.095 362.929L145.858 360.361V357.983L147.095 355.51L147.856 352.466L148.427 346.883L149.664 344.886L151.186 344.22H153.374L156.514 342.983V343.744L158.131 344.22L165.362 341.747L166.123 342.983L168.026 341.747L169.358 340.035L171.071 339.464V338.227L172.973 336.42L175.303 327.18L183.153 322.928L191.414 310.621L188.617 308.719L185.484 305.139L178.659 299.433V294.846L179.219 292.272L181.251 288.298V286.966L182.678 284.683L181.251 284.017V281.544L180.299 278.691L181.251 276.503L180.299 276.313V273.269L180.87 272.983V271.937L180.299 271.461L179.919 270.13V268.798L178.777 268.227H176.779V267.657L178.206 265.564H178.777L179.919 265.278L180.87 266.135L183.724 263.661L184.2 262.044L183.153 261.283L182.678 258.62L181.441 256.147L179.253 254.054V250.535L181.917 252.437V249.108L182.392 246.92L182.678 244.637L181.441 242.354V240.832H179.538L179.253 241.118L177.921 241.783L177.635 239.405L176.208 237.788L174.496 238.074V236.266L175.732 234.649L174.115 232.747L173.639 231.51L171.546 231.32L171.261 230.178L169.834 228.276L172.307 223.52L173.83 221.808V219.239L175.162 218.383L177.255 220.191L177.635 222.664L178.967 221.142L181.441 219.239L183.153 217.052L185.708 215.744H192.421H202.155L209.092 213.17L208.197 207.8V201.166L212.672 197.395L215.232 192.36V188.405L218.466 186.217L221.511 187.549L226.823 179.493L229.867 166.511V160.708L230.438 153.955L233.578 145.584L239.381 139.686L248.325 137.594H251.464L254.318 142.73L259.075 141.113L261.454 137.594L262.881 129.603H266.211L267.924 131.506L276.01 133.123H279.055H286.476L294.848 123.991L295.705 133.123L286.476 141.113L280.474 148.054L286.476 155.667L287.903 162.896L277.9 171.997L287.903 181.507L291.215 187.549L295.705 192.36L292.279 199.835L292.945 201.166H297.036V205.066L298.273 209.252L302.745 214.103L305.219 219.525V224.376L302.745 228.942L304.267 237.978L306.836 238.835V242.354L311.783 246.635L317.206 248.632H322.915L328.243 249.393L334.332 248.632H337.186L343.655 247.396L348.317 248.061L352.123 249.393L355.262 248.632L371.056 267.657L374.957 268.608L378.382 266.42H385.137L387.515 267.657H391.416H394.841L396.839 265.183L402.452 266.42L405.402 265.183H411.11L416.628 266.42V268.608L418.341 271.366L414.82 275.171L411.11 284.105V291.825L414.399 305.027L420.105 315.544L422.119 321.922L416.628 330.872V341.613V353.647L418.341 355.264H413.298H407.238L401.53 359.449L398.39 362.017L395.441 359.449V357.452L393.348 356.5L391.35 359.449L394.204 362.017H375.271L368.392 363.064H361.161L357.165 366.678V371.53V376.476H359.734H364.111L362.82 382.448L371.341 384.086L370.77 389.603L366.679 390.839L364.681 388.366L361.161 391.958L351.267 389.603V396.098V404.727L361.161 411.005L359.734 416.522L364.681 422.895Z" fill="#C1DD9B"/>
</g>
<g filter="url(#filter2_d)">
<path d="M352.51 407.449V414.773L360.291 425.586V436.256L366.289 447.791L362.82 460.322L355.681 449.133L346.086 443.427L339.418 440.406L339.743 438.778L334.783 436.256L334.051 435.117H332.506L330.961 433.489L329.091 433.896L327.302 431.618L324.862 429.665H321.691V430.722H320.39L319.739 432.757L316.649 433.082H314.454L313.559 431.618L312.177 429.665H309.494L305.997 429.339L303.964 432.757L302.826 431.211L299.817 432.269L298.597 433.896L296.158 434.628L292.986 433.082H290.384L285.424 433.57L284.042 432.269L282.415 431.862H280.464V429.339L281.196 428.118V426.003V423.48L279.325 421.853H276.398L274.284 420.469L275.585 417.052L273.308 415.261L272.901 413.227L271.438 411.762L266.264 404.157L261.006 399.905V391.907L256.53 383.121L258.209 375.876L261.006 367.739V362.088L254.181 367.739H245.566L235.832 369.92L228.112 374.493L220.778 380.922L218.989 382.712L217.932 385.153H215.573L212.809 384.583H209.231H205.49V382.305H203.213L199.473 382.712L198.578 379.213L199.473 377.341H197.277L195.895 375.876L194.187 373.679L191.667 374.493L175.972 376.575L173.614 374.948L171.175 374.134L170.199 373.157L168.004 371.367L166.54 370.065H164.995L163.856 368.682L162.23 366.81L161.417 365.752L160.035 364.613H158.408L158.977 362.741L159.547 360.626L161.823 359.324H162.718H164.67L166.133 360.137L167.597 359.812L168.004 358.022L166.54 356.15L165.483 353.953V351.919L166.54 349.803L167.19 347.199L167.678 342.423L168.735 340.714L170.036 340.145H171.907L174.59 339.087V339.738L175.973 340.145L183.358 338.369L190.528 334.341V325.055V317.67L192.98 313.195L197.603 310.846L193.781 300.664L191.26 292.161L188.089 284.553V275.043L190.528 271.686L188.089 261.728V251.323V246.4V236.89L189.39 235.425V233.228L190.528 232.495L192.317 234.042L192.642 236.157L193.781 234.855L195.895 233.228L197.359 231.356V229.566L200.611 228.508L198.822 225.09L203.272 223.544L210.207 229.892L210.613 227.613H216.875L214.354 223.544L211.67 222.975V221.103L217.85 217.767L219.084 213.848L222.58 210.023L224.776 206.85L227.541 204.978L230.143 206.118L234.683 199.226L230.617 186.777V181.813L231.105 176.035L233.788 168.875L234.683 156.527L242.326 154.737H245.01L244.335 152.093L247.468 145.257L254.768 147.901H257.614L259.078 149.529L261.68 145.257H264.282H270.624L277.78 137.445L278.512 145.257L270.624 152.093L273.87 170.988L279 177.5L280.22 183.685L271.671 191.47L286.888 200.949L289.718 206.118L293.556 210.233L290.628 216.628L291.197 217.767H294.694V221.103L295.751 224.684L299.573 228.834L301.687 233.472V237.622L299.573 241.528L300.874 249.259L303.07 249.991V253.002L307.298 256.663L311.933 258.372H316.812L321.366 259.023L326.57 258.372H329.009L334.539 257.314L338.523 257.884L341.776 259.023L344.46 258.372L357.958 274.647L361.292 275.461L364.219 273.589H369.993L372.026 274.647H375.36H378.287L379.995 272.531L392.192 276.272V281.867L398.372 288.357L402.875 304.58L399.63 305.923L396.908 310.398V322.37L399.63 325.614L402.875 336.243V339.04L396.908 345.605V348.209L398.372 349.592H394.062H388.883L384.004 353.173L381.321 355.37L375.127 358.395L361.561 355.37L355.681 356.265H349.501L346.086 359.357V363.507V367.739H348.281H352.022L350.919 377L358.202 378.401L357.714 383.121L354.217 384.179L352.51 382.063L349.501 385.136L341.044 383.121V384.525V391.907L349.501 397.278L348.281 401.997L352.51 407.449Z" fill="#356740"/>
</g>
<g filter="url(#filter3_d)">
<path d="M225.203 368.241L218.602 373.948L212.448 372.269L201.707 368.241L199.693 359.962H182.799V349.669L186.043 341.054L199.693 334.9L207.525 323.376L210.77 318.453V292.496L204.616 281.42L201.707 269L199.693 261.616L197.568 251.323L201.707 236.107H215.357L225.203 229.505H241.65V219.212V207.688L239.188 204.443L236.727 184.64L244.894 176.025L258.097 172.78L263.02 187.996L267.942 202.318L274.096 213.842L285.284 224.135L292.669 245.952L299.27 261.169L307.102 269L296.361 284.664L292.669 296.188L302.962 300.328H305.424L314.934 276.385L322.318 266.987H336.639L349.842 281.42L365.505 284.664H382.4L388.553 292.496V308.16L382.4 323.376V334.9L370.876 343.515H358.457H342.905L336.639 354.592V368.241L332.611 380.996L336.639 395.765L342.905 400.688L336.639 408.52L328.472 418.365H309.899H299.27L289.424 408.52L281.928 386.255V362.424L285.284 349.669V334.9L281.928 329.865L274.096 337.362L267.942 343.515L263.02 354.592H258.097L244.894 362.424L236.727 368.241H225.203Z" fill="#539882"/>
</g>
<g filter="url(#filter4_d)">
<path d="M246.126 221.338V209.59L244.447 195.604H252.615V212.275L266.824 224.806V236.442L279.355 248.078L290.767 254.791L295.131 263.854L300.725 268.217L292.781 276.385L286.627 289.587L284.054 296.3L281.481 307.377V315.768V323.712L276.446 329.194L271.188 332.998L266.824 336.802L262.237 346.088L256.978 350.452L249.034 352.801L240.867 359.85H235.608L228.895 365.332H222.854L218.49 368.577H211.106L206.519 363.318H203.61V359.85L200.029 355.151H194.547H187.834L191.638 346.088L198.351 340.83L206.519 336.802L213.455 327.18L216.924 320.131L218.49 311.404V296.3L215.469 287.797V281.084L213.455 273.811L209.428 265.644L206.519 254.791V244.61V239.687H215.469L224.868 236.442L232.699 234.093H237.734H246.126V228.051V221.338Z" fill="#A2896D"/>
<path d="M319.969 302.118L318.179 305.586L306.767 311.404H300.725L300.054 322.257L300.725 332.998L310.011 346.088L312.92 355.151L304.753 361.864L295.131 368.577V383.122V400.128L305.312 408.52H318.179L319.969 400.128L323.102 379.654L328.696 370.927V352.801L330.71 340.83L334.514 332.998L346.709 324.83H362.82L371.883 317.222V305.586V298.873L361.59 293.055L353.422 289.587H343.8L334.514 281.084H326.682L323.102 293.055L319.969 302.118Z" fill="#A2896D"/>
</g>
<g filter="url(#filter5_d)">
<path d="M222.07 311.74V307.265L220.839 298.874L219.609 293.727L222.07 286.343V275.826L226.434 274.371L223.525 261.952L215.693 256.582L212.672 246.064L219.609 244.946H224.308L237.174 241.253L244.335 240.135H250.265L252.391 234.205L253.957 225.813L260.782 227.604V236.554L263.355 246.064V255.015L260.782 261.281L255.3 269.672L250.265 274.371L245.454 281.867L243.216 289.364V300.664V308.496L245.454 317.894L243.216 326.845V334.005L238.181 342.173L232.475 353.809L227.664 355.039L218.49 360.298H209.427L205.623 356.158L202.379 350.228H197.903L196.561 348.326L205.623 341.278L212.672 335.236L215.693 330.201L218.49 323.936L222.07 317.894V311.74Z" fill="#FFBD3A"/>
<path d="M250.265 341.278L253.957 343.963L260.782 337.138L264.362 326.845L267.383 321.25L271.523 313.53V306.258V298.874L275.998 291.489L282.823 283.322V274.371L287.634 271.126L290.655 268.106L284.054 261.952L280.362 256.582L274.544 252.554H269.621V256.582L268.502 264.525L267.383 274.371L265.593 279.182L260.782 287.462L253.957 300.664L252.391 309.95L253.957 320.02L252.391 328.97L250.265 334.005V341.278Z" fill="#FFBD3A"/>
<path d="M307.661 328.075L306.654 317.894L313.927 313.53L318.402 311.74L324.556 308.496L328.472 292.384L333.506 289.364L340.108 293.727L346.037 298.874L356.443 300.664L362.261 302.118L364.946 314.426L355.324 320.02L344.247 321.25H337.422L331.381 328.075L327.353 334.005L326.346 341.278L324.556 346.872L323.101 351.012H318.402L316.612 341.278L311.689 337.138L307.661 328.075Z" fill="#FFBD3A"/>
<path d="M307.661 365.668L299.27 372.158L300.053 379.766V387.374L299.27 394.87L301.06 402.702L307.661 404.716H315.605V398.786L316.612 388.269L319.857 377.081L321.535 369.808L323.101 365.668L321.535 360.298H313.927L307.661 365.668Z" fill="#FFBD3A"/>
</g>
<path d="M341.48 190.578L258.966 272.362" stroke="black"/>
<path d="M358.595 190.084C358.595 188.356 357.899 186.988 356.243 186.292C357.395 185.644 358.067 184.252 358.067 182.812C358.067 179.932 356.027 178.3 352.619 178.3L346.619 178.3L346.619 195.1L352.811 195.1C356.027 195.1 358.595 193.492 358.595 190.084ZM352.715 188.14C353.795 188.14 354.371 188.836 354.371 189.844C354.371 190.804 353.771 191.572 352.691 191.572L350.699 191.572L350.699 188.14L352.715 188.14ZM352.403 181.804C353.411 181.804 353.891 182.404 353.891 183.292C353.891 184.204 353.387 184.852 352.451 184.852L350.699 184.852L350.699 181.804L352.403 181.804ZM359.721 188.836C359.721 192.628 362.553 195.412 366.561 195.412C370.545 195.412 373.473 192.58 373.473 188.788C373.473 184.972 370.617 182.188 366.561 182.188C362.673 182.188 359.721 185.02 359.721 188.836ZM363.729 188.836C363.729 186.988 364.905 185.716 366.561 185.716C368.193 185.716 369.465 186.94 369.465 188.788C369.465 190.588 368.217 191.884 366.561 191.884C364.929 191.884 363.729 190.66 363.729 188.836ZM383.798 194.452C383.798 195.988 382.31 196.324 380.822 196.324C379.118 196.324 377.702 195.724 377.342 195.556L376.166 198.628C377.294 199.204 379.046 199.708 380.822 199.708C384.566 199.708 387.806 198.244 387.806 193.588L387.806 182.5L384.062 182.5L384.062 183.484C383.702 183.076 382.502 182.188 380.654 182.188C377.03 182.188 374.486 184.924 374.486 188.788C374.486 192.7 376.79 195.412 380.438 195.412C382.358 195.412 383.534 194.452 383.798 194.14L383.798 194.452ZM383.918 188.764C383.918 190.756 382.79 191.884 381.206 191.884C379.574 191.884 378.494 190.612 378.494 188.764C378.494 186.892 379.574 185.716 381.182 185.716C382.91 185.716 383.918 187.084 383.918 188.764ZM389.369 188.836C389.369 192.628 392.201 195.412 396.209 195.412C400.193 195.412 403.121 192.58 403.121 188.788C403.121 184.972 400.265 182.188 396.209 182.188C392.321 182.188 389.369 185.02 389.369 188.836ZM393.377 188.836C393.377 186.988 394.553 185.716 396.209 185.716C397.841 185.716 399.113 186.94 399.113 188.788C399.113 190.588 397.865 191.884 396.209 191.884C394.577 191.884 393.377 190.66 393.377 188.836ZM409.127 179.836L405.119 179.836L405.119 182.5L403.895 182.5L403.895 185.74L405.119 185.74L405.119 190.18C405.119 193.924 406.847 195.292 409.823 195.292C410.831 195.292 411.359 195.148 411.359 195.148L411.359 191.716C411.095 191.74 410.903 191.74 410.687 191.74C409.871 191.74 409.127 191.476 409.127 190.372L409.127 185.74L411.263 185.74L411.263 182.5L409.127 182.5L409.127 179.836ZM412.548 191.188C412.548 193.924 414.756 195.412 417.228 195.412C418.524 195.412 419.436 195.052 420.084 194.404L420.3 195.1L423.876 195.1L423.876 187.3C423.876 184.42 422.772 182.188 418.428 182.188C416.34 182.188 414.636 182.86 413.292 183.748L414.78 186.436C415.764 185.956 416.844 185.644 417.948 185.644C419.244 185.644 419.868 186.244 419.868 187.012L419.868 187.468C419.412 187.276 418.548 187.012 417.444 187.012C414.468 187.012 412.548 188.668 412.548 191.188ZM416.556 191.044C416.556 190.228 417.276 189.7 418.236 189.7C419.196 189.7 419.94 190.18 419.94 191.044C419.94 191.884 419.22 192.34 418.26 192.34C417.324 192.34 416.556 191.884 416.556 191.044Z" fill="black"/>
<circle cx="330.697" cy="113.346" r="10.3934" fill="black"/>
<circle cx="221.165" cy="217.036" r="10.3934" fill="black"/>
<circle cx="244.532" cy="284.216" r="10.3934" fill="black"/>
<circle cx="160.558" cy="371.841" r="10.3934" fill="black"/>
<circle cx="224.086" cy="409.082" r="10.3934" fill="black"/>
<circle cx="310.251" cy="439.751" r="10.3934" fill="black"/>
<circle cx="356.985" cy="520.073" r="10.3934" fill="black"/>
<g filter="url(#filter6_d)">
<path fill-rule="evenodd" clip-rule="evenodd" d="M328.835 116.6L326.359 115.691L326.043 116.437C326.043 116.437 325.741 117.642 326.823 118.039C327.907 118.438 328.531 117.349 328.531 117.349L328.835 116.6Z" fill="white"/>
<path fill-rule="evenodd" clip-rule="evenodd" d="M330.647 110.006C329.576 109.588 328.074 110.506 327.554 111.663C327.34 112.139 327.243 112.653 327.162 113.16C327.124 113.402 327.096 113.65 327.047 113.892C326.985 114.195 326.892 114.486 326.799 114.781C326.671 115.189 326.812 115.258 327.203 115.328L328.57 115.831C328.71 115.895 328.982 116.059 329.122 115.906C329.246 115.77 329.222 115.521 329.304 115.359C329.411 115.148 329.531 114.934 329.664 114.736C329.956 114.293 330.512 113.969 330.888 113.586C331.354 113.111 331.612 112.635 331.754 112.004C331.943 111.165 331.508 110.342 330.647 110.006V110.006Z" fill="white"/>
<path fill-rule="evenodd" clip-rule="evenodd" d="M331.801 113.878L334.184 114.795C334.184 114.795 333.692 116.671 332.237 116.125C330.782 115.578 331.801 113.878 331.801 113.878V113.878Z" fill="white"/>
<path fill-rule="evenodd" clip-rule="evenodd" d="M335.2 108.116C336.217 108.484 336.626 110.046 336.198 111.169C336.021 111.631 335.739 112.046 335.451 112.449C335.312 112.641 335.162 112.829 335.031 113.028C334.87 113.275 334.736 113.537 334.6 113.797C334.411 114.159 334.267 114.118 333.951 113.928L332.67 113.437C332.531 113.396 332.234 113.34 332.242 113.15C332.249 112.979 332.435 112.82 332.488 112.659C332.557 112.447 332.621 112.223 332.664 112.005C332.763 111.518 332.601 110.95 332.604 110.455C332.604 109.839 332.752 109.349 333.081 108.825C333.522 108.123 334.379 107.82 335.2 108.116V108.116Z" fill="white"/>
</g>
<g filter="url(#filter7_d)">
<path fill-rule="evenodd" clip-rule="evenodd" d="M219.357 220.289L216.881 219.381L216.565 220.126C216.565 220.126 216.263 221.332 217.345 221.729C218.429 222.127 219.053 221.038 219.053 221.038L219.357 220.289Z" fill="white"/>
<path fill-rule="evenodd" clip-rule="evenodd" d="M221.169 213.696C220.098 213.277 218.596 214.195 218.076 215.352C217.862 215.828 217.765 216.342 217.684 216.849C217.646 217.091 217.618 217.34 217.569 217.581C217.507 217.884 217.414 218.176 217.321 218.47C217.193 218.878 217.334 218.947 217.725 219.017L219.092 219.52C219.232 219.585 219.504 219.748 219.644 219.596C219.768 219.459 219.744 219.21 219.826 219.048C219.933 218.838 220.053 218.624 220.186 218.426C220.478 217.982 221.034 217.658 221.41 217.276C221.876 216.8 222.134 216.324 222.276 215.694C222.465 214.855 222.03 214.032 221.169 213.696V213.696Z" fill="white"/>
<path fill-rule="evenodd" clip-rule="evenodd" d="M222.323 217.567L224.706 218.484C224.706 218.484 224.214 220.36 222.759 219.814C221.304 219.267 222.323 217.567 222.323 217.567V217.567Z" fill="white"/>
<path fill-rule="evenodd" clip-rule="evenodd" d="M225.722 211.805C226.739 212.174 227.148 213.735 226.72 214.859C226.543 215.321 226.261 215.735 225.973 216.138C225.834 216.33 225.684 216.518 225.553 216.717C225.392 216.965 225.258 217.226 225.122 217.486C224.933 217.849 224.789 217.807 224.473 217.617L223.192 217.126C223.053 217.086 222.756 217.03 222.764 216.84C222.771 216.668 222.957 216.509 223.01 216.348C223.079 216.136 223.143 215.913 223.186 215.695C223.285 215.207 223.123 214.64 223.126 214.144C223.126 213.529 223.274 213.039 223.603 212.515C224.044 211.812 224.901 211.51 225.722 211.805V211.805Z" fill="white"/>
</g>
<g filter="url(#filter8_d)">
<path fill-rule="evenodd" clip-rule="evenodd" d="M243.336 287.469L240.859 286.561L240.544 287.306C240.544 287.306 240.242 288.512 241.324 288.909C242.407 289.307 243.031 288.218 243.031 288.218L243.336 287.469Z" fill="white"/>
<path fill-rule="evenodd" clip-rule="evenodd" d="M245.147 280.875C244.077 280.457 242.574 281.375 242.054 282.532C241.841 283.008 241.743 283.522 241.663 284.029C241.624 284.271 241.597 284.52 241.548 284.761C241.485 285.064 241.392 285.356 241.3 285.65C241.171 286.058 241.313 286.127 241.703 286.197L243.071 286.7C243.21 286.765 243.483 286.928 243.623 286.775C243.747 286.639 243.722 286.39 243.805 286.228C243.912 286.018 244.032 285.803 244.164 285.605C244.457 285.162 245.012 284.838 245.388 284.455C245.855 283.98 246.112 283.504 246.254 282.873C246.443 282.034 246.008 281.212 245.147 280.875V280.875Z" fill="white"/>
<path fill-rule="evenodd" clip-rule="evenodd" d="M246.301 284.747L248.684 285.664C248.684 285.664 248.193 287.54 246.738 286.994C245.282 286.447 246.301 284.747 246.301 284.747V284.747Z" fill="white"/>
<path fill-rule="evenodd" clip-rule="evenodd" d="M249.7 278.985C250.717 279.353 251.127 280.915 250.698 282.039C250.522 282.5 250.24 282.915 249.951 283.318C249.813 283.51 249.663 283.698 249.532 283.897C249.371 284.145 249.237 284.406 249.101 284.666C248.911 285.028 248.767 284.987 248.452 284.797L247.171 284.306C247.032 284.265 246.735 284.209 246.742 284.019C246.75 283.848 246.935 283.689 246.989 283.528C247.058 283.316 247.121 283.093 247.164 282.875C247.263 282.387 247.102 281.819 247.104 281.324C247.104 280.708 247.252 280.218 247.581 279.694C248.023 278.992 248.88 278.689 249.7 278.985V278.985Z" fill="white"/>
</g>
<g filter="url(#filter9_d)">
<path fill-rule="evenodd" clip-rule="evenodd" d="M157.163 375.094L154.687 374.186L154.371 374.931C154.371 374.931 154.069 376.137 155.152 376.534C156.235 376.932 156.859 375.843 156.859 375.843L157.163 375.094Z" fill="white"/>
<path fill-rule="evenodd" clip-rule="evenodd" d="M158.975 368.5C157.904 368.082 156.402 369 155.882 370.157C155.668 370.633 155.571 371.147 155.49 371.654C155.452 371.896 155.424 372.145 155.376 372.386C155.313 372.689 155.22 372.981 155.127 373.275C154.999 373.683 155.14 373.752 155.531 373.822L156.898 374.325C157.038 374.39 157.31 374.553 157.451 374.4C157.574 374.264 157.55 374.015 157.633 373.853C157.739 373.643 157.859 373.428 157.992 373.23C158.284 372.787 158.84 372.463 159.216 372.08C159.682 371.605 159.94 371.129 160.082 370.498C160.271 369.659 159.836 368.837 158.975 368.5V368.5Z" fill="white"/>
<path fill-rule="evenodd" clip-rule="evenodd" d="M160.129 372.372L162.512 373.289C162.512 373.289 162.02 375.165 160.565 374.619C159.11 374.072 160.129 372.372 160.129 372.372V372.372Z" fill="white"/>
<path fill-rule="evenodd" clip-rule="evenodd" d="M163.528 366.61C164.545 366.978 164.954 368.54 164.526 369.664C164.349 370.125 164.068 370.54 163.779 370.943C163.641 371.135 163.491 371.323 163.36 371.522C163.199 371.77 163.064 372.031 162.929 372.291C162.739 372.653 162.595 372.612 162.279 372.422L160.998 371.931C160.859 371.89 160.562 371.834 160.57 371.644C160.577 371.473 160.763 371.314 160.816 371.153C160.886 370.941 160.949 370.718 160.992 370.5C161.091 370.012 160.929 369.444 160.932 368.949C160.932 368.333 161.08 367.843 161.409 367.319C161.85 366.617 162.708 366.314 163.528 366.61V366.61Z" fill="white"/>
</g>
<g filter="url(#filter10_d)">
<path fill-rule="evenodd" clip-rule="evenodd" d="M222.355 412.334L219.878 411.426L219.563 412.171C219.563 412.171 219.261 413.377 220.343 413.774C221.426 414.172 222.05 413.083 222.05 413.083L222.355 412.334Z" fill="white"/>
<path fill-rule="evenodd" clip-rule="evenodd" d="M224.166 405.741C223.096 405.322 221.593 406.24 221.074 407.397C220.86 407.873 220.763 408.387 220.682 408.894C220.643 409.136 220.616 409.385 220.567 409.626C220.504 409.929 220.411 410.221 220.319 410.515C220.19 410.923 220.332 410.992 220.722 411.062L222.09 411.565C222.229 411.63 222.502 411.793 222.642 411.641C222.766 411.504 222.741 411.255 222.824 411.093C222.931 410.883 223.051 410.669 223.183 410.47C223.476 410.027 224.031 409.703 224.407 409.321C224.874 408.845 225.131 408.369 225.273 407.739C225.462 406.899 225.027 406.077 224.166 405.741V405.741Z" fill="white"/>
<path fill-rule="evenodd" clip-rule="evenodd" d="M225.32 409.612L227.703 410.529C227.703 410.529 227.212 412.405 225.757 411.859C224.302 411.312 225.32 409.612 225.32 409.612V409.612Z" fill="white"/>
<path fill-rule="evenodd" clip-rule="evenodd" d="M228.719 403.85C229.736 404.218 230.146 405.78 229.717 406.904C229.541 407.366 229.259 407.78 228.97 408.183C228.832 408.375 228.682 408.563 228.551 408.762C228.39 409.01 228.256 409.271 228.12 409.531C227.93 409.893 227.786 409.852 227.471 409.662L226.19 409.171C226.051 409.131 225.754 409.075 225.761 408.885C225.769 408.713 225.954 408.554 226.008 408.393C226.077 408.181 226.14 407.958 226.183 407.74C226.282 407.252 226.121 406.685 226.123 406.189C226.123 405.574 226.271 405.084 226.6 404.56C227.042 403.857 227.899 403.555 228.719 403.85V403.85Z" fill="white"/>
</g>
<g filter="url(#filter11_d)">
<path fill-rule="evenodd" clip-rule="evenodd" d="M308.585 443.003L306.108 442.095L305.793 442.84C305.793 442.84 305.491 444.046 306.573 444.443C307.656 444.841 308.28 443.752 308.28 443.752L308.585 443.003Z" fill="white"/>
<path fill-rule="evenodd" clip-rule="evenodd" d="M310.396 436.41C309.326 435.991 307.823 436.909 307.303 438.066C307.09 438.542 306.993 439.056 306.912 439.563C306.873 439.805 306.846 440.054 306.797 440.295C306.734 440.598 306.641 440.89 306.549 441.184C306.42 441.592 306.562 441.661 306.952 441.731L308.32 442.234C308.459 442.299 308.732 442.462 308.872 442.31C308.996 442.173 308.971 441.924 309.054 441.762C309.161 441.552 309.281 441.338 309.413 441.139C309.706 440.696 310.261 440.372 310.637 439.99C311.104 439.514 311.361 439.038 311.503 438.408C311.692 437.568 311.257 436.746 310.396 436.41V436.41Z" fill="white"/>
<path fill-rule="evenodd" clip-rule="evenodd" d="M311.55 440.281L313.933 441.198C313.933 441.198 313.442 443.074 311.987 442.528C310.531 441.981 311.55 440.281 311.55 440.281V440.281Z" fill="white"/>
<path fill-rule="evenodd" clip-rule="evenodd" d="M314.949 434.519C315.966 434.887 316.376 436.449 315.947 437.573C315.771 438.035 315.489 438.449 315.2 438.852C315.062 439.044 314.912 439.232 314.781 439.431C314.62 439.679 314.486 439.94 314.35 440.2C314.16 440.562 314.016 440.521 313.701 440.331L312.42 439.84C312.281 439.799 311.984 439.744 311.991 439.554C311.999 439.382 312.184 439.223 312.238 439.062C312.307 438.85 312.37 438.627 312.413 438.409C312.512 437.921 312.351 437.354 312.353 436.858C312.353 436.242 312.501 435.753 312.83 435.229C313.272 434.526 314.129 434.224 314.949 434.519V434.519Z" fill="white"/>
</g>
<g filter="url(#filter12_d)">
<path fill-rule="evenodd" clip-rule="evenodd" d="M355.081 523.326L352.604 522.418L352.289 523.163C352.289 523.163 351.987 524.369 353.069 524.766C354.153 525.164 354.776 524.075 354.776 524.075L355.081 523.326Z" fill="white"/>
<path fill-rule="evenodd" clip-rule="evenodd" d="M356.892 516.733C355.822 516.314 354.319 517.232 353.8 518.389C353.586 518.866 353.489 519.38 353.408 519.886C353.369 520.129 353.342 520.377 353.293 520.618C353.23 520.921 353.137 521.213 353.045 521.507C352.916 521.916 353.058 521.984 353.448 522.054L354.816 522.557C354.955 522.622 355.228 522.785 355.368 522.633C355.492 522.496 355.467 522.247 355.55 522.085C355.657 521.875 355.777 521.661 355.909 521.463C356.202 521.019 356.757 520.695 357.133 520.313C357.6 519.838 357.857 519.361 357.999 518.731C358.188 517.892 357.753 517.069 356.892 516.733V516.733Z" fill="white"/>
<path fill-rule="evenodd" clip-rule="evenodd" d="M358.047 520.604L360.429 521.521C360.429 521.521 359.938 523.397 358.483 522.852C357.028 522.305 358.047 520.604 358.047 520.604V520.604Z" fill="white"/>
<path fill-rule="evenodd" clip-rule="evenodd" d="M361.445 514.842C362.462 515.211 362.872 516.772 362.443 517.896C362.267 518.358 361.985 518.772 361.696 519.175C361.558 519.367 361.408 519.555 361.277 519.754C361.116 520.002 360.982 520.263 360.846 520.524C360.656 520.886 360.512 520.844 360.197 520.654L358.916 520.163C358.777 520.123 358.48 520.067 358.487 519.877C358.495 519.705 358.68 519.546 358.734 519.385C358.803 519.174 358.866 518.95 358.909 518.732C359.008 518.244 358.847 517.677 358.849 517.181C358.849 516.566 358.997 516.076 359.326 515.552C359.768 514.849 360.625 514.547 361.445 514.842V514.842Z" fill="white"/>
</g>
<defs>
<filter id="filter0_d" x="127.528" y="92" width="327.988" height="438.173" filterUnits="userSpaceOnUse" color-interpolation-filters="sRGB">
<feFlood flood-opacity="0" result="BackgroundImageFix"/>
<feColorMatrix in="SourceAlpha" type="matrix" values="0 0 0 0 0 0 0 0 0 0 0 0 0 0 0 0 0 0 127 0"/>
<feOffset dx="4" dy="7"/>
<feGaussianBlur stdDeviation="2"/>
<feColorMatrix type="matrix" values="0 0 0 0 0 0 0 0 0 0 0 0 0 0 0 0 0 0 0.25 0"/>
<feBlend mode="normal" in2="BackgroundImageFix" result="effect1_dropShadow"/>
<feBlend mode="normal" in="SourceGraphic" in2="effect1_dropShadow" result="shape"/>
</filter>
<filter id="filter1_d" x="137.581" y="123.991" width="292.538" height="395.774" filterUnits="userSpaceOnUse" color-interpolation-filters="sRGB">
<feFlood flood-opacity="0" result="BackgroundImageFix"/>
<feColorMatrix in="SourceAlpha" type="matrix" values="0 0 0 0 0 0 0 0 0 0 0 0 0 0 0 0 0 0 127 0"/>
<feOffset dx="4" dy="7"/>
<feGaussianBlur stdDeviation="2"/>
<feColorMatrix type="matrix" values="0 0 0 0 0 0 0 0 0 0 0 0 0 0 0 0 0 0 0.25 0"/>
<feBlend mode="normal" in2="BackgroundImageFix" result="effect1_dropShadow"/>
<feBlend mode="normal" in="SourceGraphic" in2="effect1_dropShadow" result="shape"/>
</filter>
<filter id="filter2_d" x="158.408" y="137.445" width="252.466" height="333.876" filterUnits="userSpaceOnUse" color-interpolation-filters="sRGB">
<feFlood flood-opacity="0" result="BackgroundImageFix"/>
<feColorMatrix in="SourceAlpha" type="matrix" values="0 0 0 0 0 0 0 0 0 0 0 0 0 0 0 0 0 0 127 0"/>
<feOffset dx="4" dy="7"/>
<feGaussianBlur stdDeviation="2"/>
<feColorMatrix type="matrix" values="0 0 0 0 0 0 0 0 0 0 0 0 0 0 0 0 0 0 0.25 0"/>
<feBlend mode="normal" in2="BackgroundImageFix" result="effect1_dropShadow"/>
<feBlend mode="normal" in="SourceGraphic" in2="effect1_dropShadow" result="shape"/>
</filter>
<filter id="filter3_d" x="182.799" y="172.78" width="213.755" height="256.585" filterUnits="userSpaceOnUse" color-interpolation-filters="sRGB">
<feFlood flood-opacity="0" result="BackgroundImageFix"/>
<feColorMatrix in="SourceAlpha" type="matrix" values="0 0 0 0 0 0 0 0 0 0 0 0 0 0 0 0 0 0 127 0"/>
<feOffset dx="4" dy="7"/>
<feGaussianBlur stdDeviation="2"/>
<feColorMatrix type="matrix" values="0 0 0 0 0 0 0 0 0 0 0 0 0 0 0 0 0 0 0.25 0"/>
<feBlend mode="normal" in2="BackgroundImageFix" result="effect1_dropShadow"/>
<feBlend mode="normal" in="SourceGraphic" in2="effect1_dropShadow" result="shape"/>
</filter>
<filter id="filter4_d" x="187.834" y="195.604" width="192.049" height="223.915" filterUnits="userSpaceOnUse" color-interpolation-filters="sRGB">
<feFlood flood-opacity="0" result="BackgroundImageFix"/>
<feColorMatrix in="SourceAlpha" type="matrix" values="0 0 0 0 0 0 0 0 0 0 0 0 0 0 0 0 0 0 127 0"/>
<feOffset dx="4" dy="7"/>
<feGaussianBlur stdDeviation="2"/>
<feColorMatrix type="matrix" values="0 0 0 0 0 0 0 0 0 0 0 0 0 0 0 0 0 0 0.25 0"/>
<feBlend mode="normal" in2="BackgroundImageFix" result="effect1_dropShadow"/>
<feBlend mode="normal" in="SourceGraphic" in2="effect1_dropShadow" result="shape"/>
</filter>
<filter id="filter5_d" x="196.561" y="225.813" width="176.385" height="189.902" filterUnits="userSpaceOnUse" color-interpolation-filters="sRGB">
<feFlood flood-opacity="0" result="BackgroundImageFix"/>
<feColorMatrix in="SourceAlpha" type="matrix" values="0 0 0 0 0 0 0 0 0 0 0 0 0 0 0 0 0 0 127 0"/>
<feOffset dx="4" dy="7"/>
<feGaussianBlur stdDeviation="2"/>
<feColorMatrix type="matrix" values="0 0 0 0 0 0 0 0 0 0 0 0 0 0 0 0 0 0 0.25 0"/>
<feBlend mode="normal" in2="BackgroundImageFix" result="effect1_dropShadow"/>
<feBlend mode="normal" in="SourceGraphic" in2="effect1_dropShadow" result="shape"/>
</filter>
<filter id="filter6_d" x="322.004" y="108.003" width="18.3616" height="18.1241" filterUnits="userSpaceOnUse" color-interpolation-filters="sRGB">
<feFlood flood-opacity="0" result="BackgroundImageFix"/>
<feColorMatrix in="SourceAlpha" type="matrix" values="0 0 0 0 0 0 0 0 0 0 0 0 0 0 0 0 0 0 127 0"/>
<feOffset dy="4"/>
<feGaussianBlur stdDeviation="2"/>
<feColorMatrix type="matrix" values="0 0 0 0 0 0 0 0 0 0 0 0 0 0 0 0 0 0 0.25 0"/>
<feBlend mode="normal" in2="BackgroundImageFix" result="effect1_dropShadow"/>
<feBlend mode="normal" in="SourceGraphic" in2="effect1_dropShadow" result="shape"/>
</filter>
<filter id="filter7_d" x="212.526" y="211.692" width="18.3616" height="18.1241" filterUnits="userSpaceOnUse" color-interpolation-filters="sRGB">
<feFlood flood-opacity="0" result="BackgroundImageFix"/>
<feColorMatrix in="SourceAlpha" type="matrix" values="0 0 0 0 0 0 0 0 0 0 0 0 0 0 0 0 0 0 127 0"/>
<feOffset dy="4"/>
<feGaussianBlur stdDeviation="2"/>
<feColorMatrix type="matrix" values="0 0 0 0 0 0 0 0 0 0 0 0 0 0 0 0 0 0 0.25 0"/>
<feBlend mode="normal" in2="BackgroundImageFix" result="effect1_dropShadow"/>
<feBlend mode="normal" in="SourceGraphic" in2="effect1_dropShadow" result="shape"/>
</filter>
<filter id="filter8_d" x="236.505" y="278.872" width="18.3616" height="18.1241" filterUnits="userSpaceOnUse" color-interpolation-filters="sRGB">
<feFlood flood-opacity="0" result="BackgroundImageFix"/>
<feColorMatrix in="SourceAlpha" type="matrix" values="0 0 0 0 0 0 0 0 0 0 0 0 0 0 0 0 0 0 127 0"/>
<feOffset dy="4"/>
<feGaussianBlur stdDeviation="2"/>
<feColorMatrix type="matrix" values="0 0 0 0 0 0 0 0 0 0 0 0 0 0 0 0 0 0 0.25 0"/>
<feBlend mode="normal" in2="BackgroundImageFix" result="effect1_dropShadow"/>
<feBlend mode="normal" in="SourceGraphic" in2="effect1_dropShadow" result="shape"/>
</filter>
<filter id="filter9_d" x="150.333" y="366.497" width="18.3616" height="18.1241" filterUnits="userSpaceOnUse" color-interpolation-filters="sRGB">
<feFlood flood-opacity="0" result="BackgroundImageFix"/>
<feColorMatrix in="SourceAlpha" type="matrix" values="0 0 0 0 0 0 0 0 0 0 0 0 0 0 0 0 0 0 127 0"/>
<feOffset dy="4"/>
<feGaussianBlur stdDeviation="2"/>
<feColorMatrix type="matrix" values="0 0 0 0 0 0 0 0 0 0 0 0 0 0 0 0 0 0 0.25 0"/>
<feBlend mode="normal" in2="BackgroundImageFix" result="effect1_dropShadow"/>
<feBlend mode="normal" in="SourceGraphic" in2="effect1_dropShadow" result="shape"/>
</filter>
<filter id="filter10_d" x="215.524" y="403.737" width="18.3616" height="18.1241" filterUnits="userSpaceOnUse" color-interpolation-filters="sRGB">
<feFlood flood-opacity="0" result="BackgroundImageFix"/>
<feColorMatrix in="SourceAlpha" type="matrix" values="0 0 0 0 0 0 0 0 0 0 0 0 0 0 0 0 0 0 127 0"/>
<feOffset dy="4"/>
<feGaussianBlur stdDeviation="2"/>
<feColorMatrix type="matrix" values="0 0 0 0 0 0 0 0 0 0 0 0 0 0 0 0 0 0 0.25 0"/>
<feBlend mode="normal" in2="BackgroundImageFix" result="effect1_dropShadow"/>
<feBlend mode="normal" in="SourceGraphic" in2="effect1_dropShadow" result="shape"/>
</filter>
<filter id="filter11_d" x="301.754" y="434.406" width="18.3616" height="18.1241" filterUnits="userSpaceOnUse" color-interpolation-filters="sRGB">
<feFlood flood-opacity="0" result="BackgroundImageFix"/>
<feColorMatrix in="SourceAlpha" type="matrix" values="0 0 0 0 0 0 0 0 0 0 0 0 0 0 0 0 0 0 127 0"/>
<feOffset dy="4"/>
<feGaussianBlur stdDeviation="2"/>
<feColorMatrix type="matrix" values="0 0 0 0 0 0 0 0 0 0 0 0 0 0 0 0 0 0 0.25 0"/>
<feBlend mode="normal" in2="BackgroundImageFix" result="effect1_dropShadow"/>
<feBlend mode="normal" in="SourceGraphic" in2="effect1_dropShadow" result="shape"/>
</filter>
<filter id="filter12_d" x="348.25" y="514.729" width="18.3616" height="18.1241" filterUnits="userSpaceOnUse" color-interpolation-filters="sRGB">
<feFlood flood-opacity="0" result="BackgroundImageFix"/>
<feColorMatrix in="SourceAlpha" type="matrix" values="0 0 0 0 0 0 0 0 0 0 0 0 0 0 0 0 0 0 127 0"/>
<feOffset dy="4"/>
<feGaussianBlur stdDeviation="2"/>
<feColorMatrix type="matrix" values="0 0 0 0 0 0 0 0 0 0 0 0 0 0 0 0 0 0 0.25 0"/>
<feBlend mode="normal" in2="BackgroundImageFix" result="effect1_dropShadow"/>
<feBlend mode="normal" in="SourceGraphic" in2="effect1_dropShadow" result="shape"/>
</filter>
</defs>
</svg>
