<svg fill="none" height="621" viewBox="0 0 625 621" width="625" xmlns="http://www.w3.org/2000/svg" xmlns:xlink="http://www.w3.org/1999/xlink"><filter id="a" color-interpolation-filters="sRGB" filterUnits="userSpaceOnUse" height="248.469" width="710.606" x="32" y="189"><feFlood flood-opacity="0" result="BackgroundImageFix"/><feColorMatrix in="SourceAlpha" type="matrix" values="0 0 0 0 0 0 0 0 0 0 0 0 0 0 0 0 0 0 127 0"/><feOffset dy="4"/><feGaussianBlur stdDeviation="2.5"/><feColorMatrix type="matrix" values="0 0 0 0 0 0 0 0 0 0 0 0 0 0 0 0 0 0 0.25 0"/><feBlend in2="BackgroundImageFix" mode="normal" result="effect1_dropShadow"/><feBlend in="SourceGraphic" in2="effect1_dropShadow" mode="normal" result="shape"/></filter><filter id="b" color-interpolation-filters="sRGB" filterUnits="userSpaceOnUse" height="232.385" width="663.052" x="63.4692" y="198.208"><feFlood flood-opacity="0" result="BackgroundImageFix"/><feColorMatrix in="SourceAlpha" type="matrix" values="0 0 0 0 0 0 0 0 0 0 0 0 0 0 0 0 0 0 127 0"/><feOffset dy="4"/><feGaussianBlur stdDeviation="2.5"/><feColorMatrix type="matrix" values="0 0 0 0 0 0 0 0 0 0 0 0 0 0 0 0 0 0 0.25 0"/><feBlend in2="BackgroundImageFix" mode="normal" result="effect1_dropShadow"/><feBlend in="SourceGraphic" in2="effect1_dropShadow" mode="normal" result="shape"/></filter><filter id="c" color-interpolation-filters="sRGB" filterUnits="userSpaceOnUse" height="214.669" width="601.045" x="89.8105" y="204.152"><feFlood flood-opacity="0" result="BackgroundImageFix"/><feColorMatrix in="SourceAlpha" type="matrix" values="0 0 0 0 0 0 0 0 0 0 0 0 0 0 0 0 0 0 127 0"/><feOffset dy="4"/><feGaussianBlur stdDeviation="2.5"/><feColorMatrix type="matrix" values="0 0 0 0 0 0 0 0 0 0 0 0 0 0 0 0 0 0 0.25 0"/><feBlend in2="BackgroundImageFix" mode="normal" result="effect1_dropShadow"/><feBlend in="SourceGraphic" in2="effect1_dropShadow" mode="normal" result="shape"/></filter><filter id="d" color-interpolation-filters="sRGB" filterUnits="userSpaceOnUse" height="186.113" width="562.816" x="122.096" y="221.983"><feFlood flood-opacity="0" result="BackgroundImageFix"/><feColorMatrix in="SourceAlpha" type="matrix" values="0 0 0 0 0 0 0 0 0 0 0 0 0 0 0 0 0 0 127 0"/><feOffset dy="4"/><feGaussianBlur stdDeviation="2.5"/><feColorMatrix type="matrix" values="0 0 0 0 0 0 0 0 0 0 0 0 0 0 0 0 0 0 0.25 0"/><feBlend in2="BackgroundImageFix" mode="normal" result="effect1_dropShadow"/><feBlend in="SourceGraphic" in2="effect1_dropShadow" mode="normal" result="shape"/></filter><filter id="e" color-interpolation-filters="sRGB" filterUnits="userSpaceOnUse" height="175.507" width="379.593" x="300.19" y="227.813"><feFlood flood-opacity="0" result="BackgroundImageFix"/><feColorMatrix in="SourceAlpha" type="matrix" values="0 0 0 0 0 0 0 0 0 0 0 0 0 0 0 0 0 0 127 0"/><feOffset dy="4"/><feGaussianBlur stdDeviation="2.5"/><feColorMatrix type="matrix" values="0 0 0 0 0 0 0 0 0 0 0 0 0 0 0 0 0 0 0.25 0"/><feBlend in2="BackgroundImageFix" mode="normal" result="effect1_dropShadow"/><feBlend in="SourceGraphic" in2="effect1_dropShadow" mode="normal" result="shape"/></filter><filter id="f" color-interpolation-filters="sRGB" filterUnits="userSpaceOnUse" height="21.8649" width="21.8278" x="485.914" y="290.915"><feFlood flood-opacity="0" result="BackgroundImageFix"/><feColorMatrix in="SourceAlpha" type="matrix" values="0 0 0 0 0 0 0 0 0 0 0 0 0 0 0 0 0 0 127 0"/><feOffset dy="4"/><feGaussianBlur stdDeviation="2"/><feColorMatrix type="matrix" values="0 0 0 0 0 0 0 0 0 0 0 0 0 0 0 0 0 0 0.25 0"/><feBlend in2="BackgroundImageFix" mode="normal" result="effect1_dropShadow"/><feBlend in="SourceGraphic" in2="effect1_dropShadow" mode="normal" result="shape"/></filter><filter id="g" color-interpolation-filters="sRGB" filterUnits="userSpaceOnUse" height="21.8649" width="21.8278" x="375.914" y="253.915"><feFlood flood-opacity="0" result="BackgroundImageFix"/><feColorMatrix in="SourceAlpha" type="matrix" values="0 0 0 0 0 0 0 0 0 0 0 0 0 0 0 0 0 0 127 0"/><feOffset dy="4"/><feGaussianBlur stdDeviation="2"/><feColorMatrix type="matrix" values="0 0 0 0 0 0 0 0 0 0 0 0 0 0 0 0 0 0 0.25 0"/><feBlend in2="BackgroundImageFix" mode="normal" result="effect1_dropShadow"/><feBlend in="SourceGraphic" in2="effect1_dropShadow" mode="normal" result="shape"/></filter><filter id="h" color-interpolation-filters="sRGB" filterUnits="userSpaceOnUse" height="21.8649" width="21.8278" x="167.914" y="294.915"><feFlood flood-opacity="0" result="BackgroundImageFix"/><feColorMatrix in="SourceAlpha" type="matrix" values="0 0 0 0 0 0 0 0 0 0 0 0 0 0 0 0 0 0 127 0"/><feOffset dy="4"/><feGaussianBlur stdDeviation="2"/><feColorMatrix type="matrix" values="0 0 0 0 0 0 0 0 0 0 0 0 0 0 0 0 0 0 0.25 0"/><feBlend in2="BackgroundImageFix" mode="normal" result="effect1_dropShadow"/><feBlend in="SourceGraphic" in2="effect1_dropShadow" mode="normal" result="shape"/></filter><filter id="i" color-interpolation-filters="sRGB" filterUnits="userSpaceOnUse" height="21.8649" width="21.8278" x="139.914" y="208.915"><feFlood flood-opacity="0" result="BackgroundImageFix"/><feColorMatrix in="SourceAlpha" type="matrix" values="0 0 0 0 0 0 0 0 0 0 0 0 0 0 0 0 0 0 127 0"/><feOffset dy="4"/><feGaussianBlur stdDeviation="2"/><feColorMatrix type="matrix" values="0 0 0 0 0 0 0 0 0 0 0 0 0 0 0 0 0 0 0.25 0"/><feBlend in2="BackgroundImageFix" mode="normal" result="effect1_dropShadow"/><feBlend in="SourceGraphic" in2="effect1_dropShadow" mode="normal" result="shape"/></filter><clipPath id="j"><path d="m0 0h625v621h-625z"/></clipPath><g clip-path="url(#j)"><g fill="#f3e8cb" filter="url(#a)"><path d="m48.6554 286.973-11.6554-4.079 3.2635-5.595 7.1098.932 8.625-3.846 11.6554-4.429v1.981h4.1959l1.7484-3.03 5.8277 5.478v-4.429l-1.7484-4.429-1.9814-2.797-3.8463-5.245v-4.196l3.8463-6.877 3.7298-3.613 2.7972-4.662h3.8463v-4.196h3.8463l6.8767-5.012 6.4108-2.564 8.858-3.963 6.294-2.681h5.128l3.497-3.613h3.963l1.398-3.38 5.362-1.399 3.263 1.399 1.748-1.399 7.227-4.429 7.926-1.049 8.974 1.049 5.711-2.214h10.723l11.772-1.749 3.847-3.38 9.907-3.846h8.974l6.411-2.331 7.809 3.38 17.833 1.166 7.692 2.68 1.865 3.147 7.693-3.147 8.391-2.68 9.441-4.546v2.331l-4.545 2.215-3.264 3.613 3.264 5.361h4.545l2.215-3.963 4.196-2.331h5.012l-1.166 4.08 11.539-.933h5.595l5.011-.816 2.565 2.914 3.147 5.478h3.846l4.662 2.215 2.564-1.399 4.08 4.08 6.643-1.749 2.098-3.147 5.595 2.215 4.312 5.012h3.963l3.147 4.895h6.061l5.245 2.448 3.846 2.098 5.128 8.275 3.963 6.877 10.723 5.711 4.546 3.147h10.956 16.434 3.497v2.331l3.03 1.515 3.03-3.846 7.46 3.846 6.177 4.779 6.993 3.147 3.031 3.38 6.294 1.165 3.846 3.613 8.508 1.399 2.798 6.76 4.196 6.76 4.079-3.263 5.711 3.263 1.399 4.313 5.128 2.098 7.343 1.398h7.343l-6.294-3.496-6.294-4.313 2.448-5.478 4.895 5.478 9.208 5.362 16.667 10.723 7.11 6.993 5.128 4.662 4.196 1.515 4.779 3.73 10.14 1.049 1.748 5.828h17.6l6.178 2.797 5.711 2.797 1.515 6.061h7.809l3.38-1.748 7.343-1.748h6.993l3.963 4.429 2.797-.933 4.662 3.031v5.944l-2.797 4.895 4.08 2.914 1.049 3.264 3.38 3.729h5.944l3.846 1.049 4.429-1.049 6.76 2.914h4.429l6.527-.699 6.761 2.681 5.827 1.981 5.828-1.049v3.613l2.914 3.497 5.128 3.496 4.546 7.46h5.128l3.73 3.613 8.159-1.166 8.158 2.565 1.399 6.06-5.944 4.313-1.982 3.73-1.631 2.214-4.546-2.214-15.385 3.729h-14.22l-3.38 5.012-3.729 2.448-9.208 4.779h-6.76l3.263-4.779v-4.196h-3.263v5.944l-5.245 1.399-7.693 1.632-5.245-1.632-5.944 2.797-5.478-2.797-6.294-1.399-8.975-1.748-9.324 1.748-12.704-1.748-19.815 3.147h-7.576l-12.937 1.632-2.331 3.38h-14.22-14.219l-7.343 3.962h-16.434l-4.429-2.564 4.429-4.778 3.496-7.227 9.441-9.441 14.569-7.343 4.779-4.662 4.196-9.091-4.196-4.779-8.508-1.049 3.729-5.944-3.729-2.098-5.362-2.681-8.858 2.681-9.557-1.049h-6.877l-6.644-1.632-4.429 1.632-8.392-1.632-8.508-3.962-3.846-7.576-7.343-3.73h-3.147l-3.03-6.411h-2.798v-5.594l-4.079-7.11v-6.061l-2.098-6.527-1.515-5.828-5.945-5.244-6.06-3.73-7.46 1.049h-7.459l-5.012 1.398-6.061 3.031-9.441-3.031-6.877-2.447-3.846-1.049-3.963 1.049-5.128-3.846h-3.846l-5.245-3.264-4.08 1.865-3.147-4.429-8.158 1.282v-4.546h-5.945l-11.538-5.128-3.73-4.895-3.147-4.08-3.38-3.147h-5.245-10.14l-15.152.933-12.472-4.429-1.748-4.896v-7.226h-2.797v3.497 5.245 5.128l-2.215-5.128-3.147 3.38h-4.662l-2.214-4.896h-4.08l-3.613-2.331-5.361 2.331-4.196-2.331-5.245 1.399-6.178-2.797-2.447-3.497h-3.963l-3.38-2.914-5.944-2.331-4.896-1.748v-3.38l4.896-2.448h18.881l8.276-3.613 1.049-4.662-3.847-2.914-8.625-3.38-14.219.932-22.262-3.846-9.674 1.515-5.478-1.515-7.11-.932-.932 4.778-4.313 2.448-4.079 2.914-4.429 1.049-3.264 2.098h-4.778v3.963l-3.497 6.993h-4.429l-1.515-1.282-1.749 3.03-5.711 7.693-5.361 1.049h-6.527l-2.098-5.245-5.478 6.643-6.877-1.398-11.422 1.398-3.9632 7.809 2.9142 1.166-4.3128 6.177-5.8277-1.049-3.8463 2.914-8.7415 1.749-8.2754 7.226h-4.429v-7.226l2.4476-3.614-4.3125-1.049-12.1216 2.914z"/><path d="m181.41 285.341-4.895-1.282-2.098-1.165-7.576-1.749-5.711 5.245-3.263 3.73 2.331 6.993 3.846 4.662 1.165 2.914v2.914l-4.079 1.748-4.662-2.331-6.527-3.73 3.263 6.061 1.982 3.031 7.459 2.68h7.693 6.177l4.895-1.864 9.907-3.847.933-3.846-4.196-2.215v-4.778l5.944-2.331-5.944-2.215-3.963-3.846v-3.73z"/><path d="m507.295 281.378-1.981 3.38-3.73-1.165v-2.215l-3.38-1.282-1.515-1.748v-2.215l-2.914.7h-2.681l-2.68-1.632v-4.079l.582-2.332-2.797.35-3.497-2.914-2.447-1.515 2.447-2.331-3.38-1.748-1.165-2.448v2.448l-3.147-2.448-3.846-3.671v2.506l-3.73-1.865v-2.215l-2.331-2.914h-1.982l-3.962-1.515-1.516-.699h-3.613l-3.846 1.282-2.331-1.982-4.546-2.098-2.914-.815-1.049-1.632 2.448-2.331 4.546 1.282h4.778l5.129-1.282 4.778-1.282 4.08 5.245 2.331 4.312 2.914-2.448 2.681 2.448h3.03 3.263l.933 5.828 1.632 3.846 2.447-1.165v2.913l4.08 2.448 4.429 1.399 2.447 2.447v2.914 1.982l2.914.815 4.779 1.399h5.128l-.816 5.012z"/><path d="m422.094 233.125v3.147l-6.643-3.147v-1.166h5.128z"/><path d="m405.194 236.272v-2.215h3.613z"/><path d="m409.74 236.272v-2.215l1.865-.116 2.098.699.815 1.982-.233 1.515-3.496.932.116-1.049-.116-1.165z"/><path d="m403.446 241.633-2.098-.815.229-.583 1.286-.35.583.35z"/><path d="m396.336 232.542 3.846 2.798v.932h-1.748l-2.098-2.331-2.797-1.982-2.914-.466-2.448-.233-.816-2.098-2.098-3.263-2.331-.7h-2.914l.7-2.68h3.496l1.049 1.981 3.264 2.797 1.865 1.865h1.165z"/><path d="m386.196 231.493-.009.107 1.99.942 1.399.583 2.797.233 1.748.699 1.166 1.283v2.097h-1.748-.933l-1.049-2.097-1.165-.7-1.865-.699-2.564.466.224-2.807-.224-.107z"/><path d="m378.736 219.255-.582 2.215h-1.166l-1.049-.7-.699-1.049-1.632-.466-1.282-1.515.466-.933h2.215l1.631 1.283.816 1.165z"/><path d="m368.946 213.544h-1.399l-1.282-.583-.233-.932.233-.933h.932l1.749 1.166z"/><path d="m359.738 213.544.35-.583.466-.699 1.515-.7 1.166.467.466.466v1.632l-.933.699-1.398.233h-1.632z"/><path d="m358.689 211.562-1.049-1.282.466-.815 1.282-.35.35 1.165v.583z"/><path d="m354.493 208.299.816-2.331h.466 1.282v1.049 2.098h-1.282z"/><path d="m350.647 205.269 1.049-.7h.233 1.049l.816 1.399v1.865h-1.282l-.35-.816-1.515-.816z"/><path d="m335.844 211.329-1.398-.466 1.632-.932 2.098-1.399h2.214l.233 1.166v1.631l1.282.233.233-1.282.7-1.165-.933-1.049v-1.865h1.749l1.165 1.399v-.583l.466-2.448-2.098-2.098v-1.049l.933.233 1.865 2.098h2.098l.466 1.516-1.865.699v1.282l-1.865 2.681-1.399.349v2.215h-3.846l-1.165-1.166z"/><path d="m341.905 202.821-2.331-3.264-.233-.233-2.681.233-1.398.7.116 1.398 2.098-.349 1.166.349 1.398 1.749 1.632.699z"/><path d="m328.851 198.392h3.613l.583.583-.349.932-1.632.583-1.399.932-2.098.7-.233-1.282v-1.865z"/><path d="m315.564 194.895 2.098-.583h1.399l.466.933h1.399l1.049-.117.932.933v1.165l-1.865.117-1.748-.35-.233-.349-1.399.699h-.35l-1.282-1.399z"/><path d="m316.38 199.907v-1.165l2.331-.117.466.35v1.049l-1.398.349z"/><path d="m314.165 196.061-2.331.349h-1.981-1.748-.816l-.583-1.515.816-.349 3.73.349 2.564-1.049.349 1.049z"/><path d="m297.382 190.816.816-.583.116-.233 1.049.816 1.049.816.816 1.049 1.049.116 1.632.35 1.049 1.165v1.166l-.7.233-1.398-.816-.816-.583-1.166-.815h-1.865l-1.631-1.399z"/><path d="m300.062 200.723h-1.515l-.932-.699.233-.467 1.748-1.282 3.73-.582 2.098.699 1.049 1.282-1.515 1.399h-.117-.466l-1.515-.117z"/><path d="m259.735 303.757-2.448-.583-1.165.233v2.331l1.165.933h1.282l2.681-1.399 3.73-2.098 3.147-2.448.699-.932-.466-.933h-1.749l-3.147 2.448-2.214 2.448-1.748.582z"/><path d="m235.025 303.174 1.865-2.215h1.865l.35 1.049-1.282 1.399-1.982 1.632-2.098 1.049-1.748.583-1.282-1.166-.466-1.515.466-1.749h1.049l.582.7 1.399.233z"/><path d="m225.817 305.039-1.515.233-1.981-1.282h-.816l-1.515 1.282.583 1.399.233 1.981 1.165.583 1.399-.583 1.515-1.166 2.331-1.398 2.215-1.049v-1.049l-.35-1.049h-.583l-1.632.699z"/></g><g fill="#c1dd9b" filter="url(#b)"><path d="m79.5419 257.252v-6.061l2.2145-6.877 9.4409-5.011 5.478-5.478 11.3057-3.73 12.704-4.313 5.595-6.06 18.882-5.362 8.159-3.73h7.925l10.956-1.865h12.238l1.93 1.817 5.763-.418 7.11-7.459 16.201-3.497h15.385l16.434 2.914 7.576 2.797 7.926 1.515 11.305-4.312 6.061 6.76 5.129.583 5.245-4.08 3.38 1.865 7.692-1.515 13.637.932 5.711 6.994 9.791 2.098 9.674 3.263 5.711.233 5.944 1.515 6.294 5.129 8.159 1.399 8.625 3.263 7.692 11.073 7.343 7.109 12.122 7.227 28.789.816 22.611 8.858 18.299 12.355 12.705 11.422 11.305 5.128 9.441 4.429h20.63l10.024 9.208 10.49 8.392 10.956 6.877 9.557 5.361 18.299 4.079 7.46 4.313 1.981 7.926 14.569-3.847h16.085l8.159 8.509 6.76 11.888 6.061 9.091 14.219 1.749 20.747-5.129 12.471 6.411 7.693 14.569 15.035 4.546 4.895 8.159-17.366 2.331-10.257 1.631-7.11 7.227-7.692 2.914-4.546-8.509-8.508 3.031-5.362 5.478-8.625-2.914-8.392 2.914-9.79-1.516-10.374-1.748-17.949-1.165-7.926 4.662-11.655-3.497-13.287 3.497-15.735 6.177-17.833-2.681-19.814 2.098 2.564-10.49 11.656-4.895 10.49-11.306 12.238-7.576-7.576-9.674-4.08-9.674-9.441-4.312-13.287-1.399-18.998-1.865-17.833-5.478-11.189-6.06-6.993-8.276-11.656-5.827-2.331-13.171-4.662-12.938-3.73-4.079-8.625-4.196-14.103-.816-7.459 1.749-12.005 1.748-8.392-7.926h-16.318v-3.73h-7.925v-3.147h-10.024v-2.797l-7.11-1.981-10.023-1.632-7.926-6.644v-8.158h-9.907l-14.802 2.797h-10.257l-10.956-7.809v-7.227l-5.362-6.643h-5.361l-8.625-6.877-11.539-2.331-4.079-5.828-2.798-5.128h-10.956l-6.177-4.546-19.931 4.546-3.846-4.546h-10.723l-10.956 2.914-5.245-1.282-7.809 1.632-2.098 5.128-6.994 3.264-9.79 3.613-3.497 5.595-5.827 1.049-1.982 6.294-8.625 7.459-6.41-4.662-7.11-.583-3.264 6.177-9.091-1.282-11.4221 2.098-3.2635 6.644-6.1773 6.294-7.9257-1.982 1.049-6.993z"/><path d="m237.589 254.221-7.692-3.263 3.846-2.098 6.177-1.282h9.674l9.907-2.797 5.944 2.797 7.343 6.643v3.614 6.06h-5.594l-9.441-4.079-10.956-1.981-9.208-2.798z"/><path d="m165.093 293.85 5.361-5.478h6.993l3.264 3.38 3.729 6.294v5.827l-3.729 2.448-2.098-5.478-6.411 3.03z"/><path d="m80.5909 280.796h-1.6318l-5.478 4.196-4.3125 1.049 2.4476-6.76-3.147-4.779 5.9443-1.748 8.2753 5.944z"/></g><path d="m698.794 392.573 8.159 4.196-2.565 3.846h-6.527l-6.643 2.098-2.215 4.546-5.245-3.031-4.312 3.031-5.012-2.215-8.508-2.331-5.362 1.515-10.49 4.196-8.625 3.73-7.109-2.797-9.208-2.098h-12.588-14.569l-24.36 2.098-12.471 2.797-6.294 6.177h-8.159l-10.606-1.282-3.963-3.263 2.914-3.613 7.342-3.963 4.313-9.674 5.128-4.196 9.325-4.196-4.429-3.846-6.877-10.723-3.147-8.043-5.828-6.527-9.441-2.447-6.643-2.797-4.896-.7h-12.121-10.84l-10.956-2.098-8.508-2.914-6.644-4.429-5.128-6.643-5.245-3.031-3.73-2.797v-5.012-7.343l-4.429-7.809v-5.711l-6.061-5.361-5.944-3.264h-6.643-12.938-5.944l-9.208.583-9.907-4.08h-7.693l-5.245-2.68-4.662-2.681-7.226-1.632h-5.478l-3.264-2.447-5.361-2.914-6.061-1.282-6.294-1.049-4.895-5.828-2.564-5.711-.583-3.497-8.275-1.632-5.712-1.398-5.128 4.196-9.091 1.631-9.324-2.797-5.362-3.03-7.459-8.276-3.031-4.079h-3.963l-6.993-6.177-4.779-3.497-6.177-2.098-4.312-4.779-1.283-5.827-11.655-.583-3.613-.933-8.159-.932-7.926-2.797-8.158 1.049-7.926.583h-5.361-8.043l-11.888-.583-10.024 1.632-4.895 7.342-9.791 3.73-8.275 1.166-7.693 9.79-5.944 7.576-11.539-2.331-7.925.583-3.613 4.429-12.938.932-11.3057 5.945-2.4477-5.245-.4662-10.257 10.9561-7.459 9.7905-3.963 18.765-7.926 12.122-6.877 16.084-6.177 17.017-2.098 8.742.583 13.753-.583 7.11-4.779 1.865-3.38 8.974-2.564h4.896l6.993 1.865h6.76l10.49 1.399 8.508 1.282h5.595l6.76 4.778 6.76.816 5.828-5.012 4.546 5.012 6.293 1.282 8.043-3.263 9.324-.933 11.422 2.914 4.662 3.846 6.761 3.381 6.993.815 13.986 3.847.816 6.061 9.324 1.748 10.257 3.73h7.11l6.527 8.042 2.331 6.527 7.11 6.177 6.527 3.147 9.907 1.632h11.539 13.054l8.042 4.312 5.362 5.478 10.373.816 8.275 4.779 5.711 5.478 4.779 4.429 7.46 11.422 13.986 2.448 16.201 4.895 12.355 2.331 8.741 3.847 4.896 3.496 6.294 7.227 4.079 3.846 8.159 1.515 4.778 4.662 6.411 3.497 8.975 2.331h6.76l2.68 4.312v6.994l6.294 2.797h7.227l13.287-2.797 12.588 2.797 5.128 5.362 3.73 5.361v10.49l7.343 4.662h13.52l18.415-2.448h14.453l7.343 9.092z" fill="#356740"/><g fill="#539882" filter="url(#c)"><path d="m567.32 394.902 6.061-7.226-13.986-8.625 2.331-8.742-7.693-8.858v-8.741l-13.87 1.398-8.042-8.042h-12.588-14.919-10.606l-12.355-5.245-9.907-13.287-5.361-6.294v-12.588l-7.11-1.398-3.963-3.614-2.214-8.042v-4.545h-17.833-18.299l-20.98-7.693-6.877 2.797-9.557-3.38-9.674-4.545-5.362-2.448h-6.293l-8.975-6.41-7.226-8.276-11.889-5.827-10.956-.816-6.294 4.778-10.14-.815-7.46-5.012-5.128-11.539-10.024-5.012-14.569-7.926-5.921-7.143-7.832-1.365-13.87-3.497-6.294-2.331-14.453 1.749-7.925 1.981-5.828-5.595 5.828-7.576 8.508 2.565h15.851 14.686l7.504 6.149 6.366 2.709 6.294 2.331h11.655 15.968 15.269l6.993 4.662h15.968l2.564 5.361 5.711 4.663h4.313l13.637 3.263 6.643 6.644 3.264 6.993 10.606 5.944 8.975 4.313 6.294 2.331 3.963 3.38 5.594.583 5.362.699h14.336l16.317 8.042 13.87 4.313 4.546 2.797 7.226 5.478 4.196 6.41 9.907 7.809 19.581 3.963 10.723 5.012 20.164 3.963 3.031 10.024 11.305 1.981 12.938 9.324 10.956 3.963h10.023v9.325 6.643l9.908 1.632 15.268-4.313h17.949v7.343l4.313 11.889 3.263 7.925 12.705-2.214h12.238 15.968l13.87-2.331v10.956 9.907l-3.963 3.613-12.588-3.613h-13.287l-5.012 3.613-12.937 3.38-14.57-1.632h-9.324-11.888-8.975l-5.711 1.632h-14.22-11.655-4.662l-.933 5.245h-3.38v-6.877l3.38-8.042z"/><path d="m121.735 236.855 17.25-11.306 12.82-5.594 12.705-4.896 5.594 8.159-13.054 7.46-7.692.932-10.373 10.257-9.208 5.944-13.287-4.312-8.043 8.625-13.6365-1.632v-2.681l12.3545-7.926z"/><path d="m249.944 251.541 8.975-1.049 4.895 2.331h3.38v4.429 1.865l-7.343-1.865-4.895-1.282h-6.644l-4.429-2.215z"/></g><g fill="#a2896d" filter="url(#d)"><path d="m480.255 316.693 3.613-4.779 8.042-2.448 9.907 5.478 11.539 5.129 14.453 3.613 6.643 5.711v9.091h-13.753l-15.851-1.282-16.551-3.729-8.042-8.742z"/><path d="m411.488 271.47 6.877 2.447 4.778 1.516 11.889 3.147 4.662 3.496-1.981 2.914h-12.355l-14.569-4.196-13.521-2.214 3.147-8.276z"/><path d="m346.451 242.215 8.508 7.226 2.448-4.196v-5.711l7.459 9.091 4.429 8.392 13.521 4.779 3.846 5.711-12.821 2.098-17.25-.816-13.054-12.588-8.742-9.441h-10.023l-18.532 5.362-4.779-8.625-10.606-9.091-14.803-7.46 11.539-3.963 16.667 1.282 9.325 2.681h8.741l11.539 5.944 5.128 4.313z"/><path d="m592.963 399.096h-15.386l-4.312-5.594 6.177-5.711-1.865-5.478-5.361-5.478 2.797-11.772 7.343-2.798h11.422l14.919-2.331 11.423 1.516v8.042l2.913 10.257 9.208 4.895h15.152l18.532-2.331 13.987 1.049-3.38 10.023h-17.833-12.588l-13.87 3.264h-12.121-17.6z"/><path d="m573.265 359.934-7.693 2.331-5.478-3.729v-5.478l-4.196-4.08h-10.606v-7.11l2.098-4.662 9.907 1.282 5.128 4.663 12.588-1.283v7.11z"/><path d="m128.495 242.215-1.399-3.73 6.993-5.711 6.294-5.245 7.693-2.564-7.693 10.14-6.294 7.11z"/><path d="m456.944 290.235-1.748-4.429 3.263 1.515 5.129 2.914 2.564 3.73 5.827 2.564.7 6.76-2.098 2.448-8.509-3.847-5.128-2.797z"/></g><g fill="#ffbd3a" filter="url(#e)"><path d="m605.55 364.133 8.392 6.876 3.147 4.313 3.613 2.797 1.166 7.576 2.331 3.264-3.497 3.729-16.9-2.564-11.189 4.196h-8.742v-7.343l-2.797-12.471v-5.828h11.539z"/><path d="m564.756 350.146 3.497-2.447 3.03-.7v4.546l-.932 5.361h-3.497l-2.098-2.797z"/><path d="m549.021 342.454 1.049-3.38h3.031l3.613 1.748 2.098 3.03-1.049 2.681-3.613-.932-4.08-1.749z"/><path d="m532.238 331.614.582 5.245-5.944-1.049-10.723-1.632-7.11-2.564v-4.429l-6.993-1.748-4.779 3.613-7.576-.699v-6.644l-4.312-3.147 7.576-3.73 2.214 3.147 11.539 2.448 5.362 2.797 7.692 3.38h7.11z"/><path d="m305.19 236.739v-5.828l.583-1.748 12.005-.35 5.595 3.031v3.38l-3.264 4.312h-7.576l-6.177-.699z"/><path d="m348.665 254.572-4.079-6.061.699-3.613 4.429 4.662 7.226 3.73 3.963-3.73 5.595 6.644 5.478 4.545 8.275 2.681-8.275 1.748-12.588-1.748-7.226-3.73z"/><path d="m415.217 279.398 1.049-2.681 2.098 1.166h11.19l5.011 3.729-5.011 2.098-6.644-2.098z"/><path d="m656.834 388.492 5.245-3.729 3.963-.466 6.294.815 2.447 1.632-3.147 5.129-3.496.582h-6.061l-4.662-2.331z"/></g><g fill="#000"><circle cx="497.233" cy="298.233" r="14.2334"/><circle cx="387.233" cy="261.233" r="14.2334"/><circle cx="179.233" cy="302.233" r="14.2334"/><circle cx="151.233" cy="216.233" r="14.2334"/></g><g clip-rule="evenodd" fill="#fff" fill-rule="evenodd" filter="url(#f)"><path d="m493.692 302.688-3.305-1.244-.421 1.021s-.403 1.651 1.041 2.195c1.446.545 2.279-.946 2.279-.946z"/><path d="m496.109 293.659c-1.428-.574-3.433.684-4.127 2.268-.285.652-.415 1.356-.523 2.05-.051.332-.088.672-.153 1.003-.083.415-.208.814-.331 1.217-.172.559.017.653.538.749l1.825.689c.187.089.55.312.737.103.166-.187.133-.528.243-.749.143-.288.303-.582.479-.853.391-.607 1.132-1.051 1.634-1.575.622-.651.966-1.303 1.156-2.166.252-1.149-.328-2.276-1.478-2.736z"/><path d="m497.65 298.961 3.18 1.255s-.656 2.57-2.598 1.822c-1.942-.749-.582-3.077-.582-3.077z"/><path d="m502.185 291.069c1.357.505 1.904 2.643 1.332 4.182-.236.633-.611 1.2-.997 1.753-.184.262-.384.52-.559.792-.215.34-.394.697-.575 1.054-.253.496-.446.439-.867.179l-1.709-.672c-.186-.056-.582-.133-.572-.393.01-.235.258-.452.329-.673.092-.29.176-.596.234-.895.132-.668-.084-1.445-.08-2.123 0-.843.197-1.514.637-2.232.589-.962 1.733-1.376 2.827-.972z"/></g><g clip-rule="evenodd" fill="#fff" fill-rule="evenodd" filter="url(#g)"><path d="m383.692 265.688-3.305-1.244-.421 1.021s-.403 1.651 1.041 2.195c1.446.545 2.279-.946 2.279-.946z"/><path d="m386.109 256.659c-1.428-.574-3.433.684-4.127 2.268-.285.652-.415 1.356-.523 2.05-.051.332-.088.672-.153 1.003-.083.415-.208.814-.331 1.217-.172.559.017.653.538.749l1.825.689c.187.089.55.312.737.103.166-.187.133-.528.243-.749.143-.288.303-.582.479-.853.391-.607 1.132-1.051 1.634-1.575.622-.651.966-1.303 1.156-2.166.252-1.149-.328-2.276-1.478-2.736z"/><path d="m387.65 261.961 3.18 1.255s-.656 2.57-2.598 1.822c-1.942-.749-.582-3.077-.582-3.077z"/><path d="m392.185 254.069c1.357.505 1.904 2.643 1.332 4.182-.236.633-.611 1.2-.997 1.753-.184.262-.384.52-.559.792-.215.34-.394.697-.575 1.054-.253.496-.446.439-.867.179l-1.709-.672c-.186-.056-.582-.133-.572-.393.01-.235.258-.452.329-.673.092-.29.176-.596.234-.895.132-.668-.084-1.445-.08-2.123 0-.843.197-1.514.637-2.232.589-.962 1.733-1.376 2.827-.972z"/></g><g clip-rule="evenodd" fill="#fff" fill-rule="evenodd" filter="url(#h)"><path d="m175.692 306.688-3.305-1.244-.421 1.021s-.403 1.651 1.041 2.195c1.446.545 2.279-.946 2.279-.946z"/><path d="m178.109 297.659c-1.428-.574-3.433.684-4.127 2.268-.285.652-.415 1.356-.523 2.05-.051.332-.088.672-.153 1.003-.083.415-.208.814-.331 1.217-.172.559.017.653.538.749l1.825.689c.187.089.55.312.737.103.166-.187.133-.528.243-.749.143-.288.303-.582.479-.853.391-.607 1.132-1.051 1.634-1.575.622-.651.966-1.303 1.156-2.166.252-1.149-.328-2.276-1.478-2.736z"/><path d="m179.65 302.961 3.18 1.255s-.656 2.57-2.598 1.822c-1.942-.749-.582-3.077-.582-3.077z"/><path d="m184.185 295.069c1.357.505 1.904 2.643 1.332 4.182-.236.633-.611 1.2-.997 1.753-.184.262-.384.52-.559.792-.215.34-.394.697-.575 1.054-.253.496-.446.439-.867.179l-1.709-.672c-.186-.056-.582-.133-.572-.393.01-.235.258-.452.329-.673.092-.29.176-.596.234-.895.132-.668-.084-1.445-.08-2.123 0-.843.197-1.514.637-2.232.589-.962 1.733-1.376 2.827-.972z"/></g><g clip-rule="evenodd" fill="#fff" fill-rule="evenodd" filter="url(#i)"><path d="m147.692 220.688-3.305-1.244-.421 1.021s-.403 1.651 1.041 2.195c1.446.545 2.279-.946 2.279-.946z"/><path d="m150.109 211.659c-1.428-.574-3.433.684-4.127 2.268-.285.652-.415 1.356-.523 2.05-.051.332-.088.672-.153 1.003-.083.415-.208.814-.331 1.217-.172.559.017.653.538.749l1.825.689c.187.089.55.312.737.103.166-.187.133-.528.243-.749.143-.288.303-.582.479-.853.391-.607 1.132-1.051 1.634-1.575.622-.651.966-1.303 1.156-2.166.252-1.149-.328-2.276-1.478-2.736z"/><path d="m151.65 216.961 3.18 1.255s-.656 2.57-2.598 1.822c-1.942-.749-.582-3.077-.582-3.077z"/><path d="m156.185 209.069c1.357.505 1.904 2.643 1.332 4.182-.236.633-.611 1.2-.997 1.753-.184.262-.384.52-.559.792-.215.34-.394.697-.575 1.054-.253.496-.446.439-.867.179l-1.709-.672c-.186-.056-.582-.133-.572-.393.01-.235.258-.452.329-.673.092-.29.176-.596.234-.895.132-.668-.084-1.445-.08-2.123 0-.843.197-1.514.637-2.232.589-.962 1.733-1.376 2.827-.972z"/></g><path d="m234 169-55 27" stroke="#000"/><path d="m257.696 151.2h-4.104v6.528h-6v-6.528h-4.104v16.8h4.104v-6.576h6v6.576h4.104zm1.964 12.888c0 2.736 2.208 4.224 4.68 4.224 1.296 0 2.208-.36 2.856-1.008l.216.696h3.576v-7.8c0-2.88-1.104-5.112-5.448-5.112-2.088 0-3.792.672-5.136 1.56l1.488 2.688c.984-.48 2.064-.792 3.168-.792 1.296 0 1.92.6 1.92 1.368v.456c-.456-.192-1.32-.456-2.424-.456-2.976 0-4.896 1.656-4.896 4.176zm4.008-.144c0-.816.72-1.344 1.68-1.344s1.704.48 1.704 1.344c0 .84-.72 1.296-1.68 1.296-.936 0-1.704-.456-1.704-1.296zm12.7-8.544h-4.296l4.32 12.6h4.656l4.248-12.6h-4.176l-2.376 8.352zm9.495 8.688c0 2.736 2.208 4.224 4.68 4.224 1.296 0 2.208-.36 2.856-1.008l.216.696h3.576v-7.8c0-2.88-1.104-5.112-5.448-5.112-2.088 0-3.792.672-5.136 1.56l1.488 2.688c.984-.48 2.064-.792 3.168-.792 1.296 0 1.92.6 1.92 1.368v.456c-.456-.192-1.32-.456-2.424-.456-2.976 0-4.896 1.656-4.896 4.176zm4.008-.144c0-.816.72-1.344 1.68-1.344s1.704.48 1.704 1.344c0 .84-.72 1.296-1.68 1.296-.936 0-1.704-.456-1.704-1.296zm16.876 4.056h4.008v-6.984c0-2.568-.384-5.928-4.32-5.928-1.584 0-2.688.864-3.168 1.608v-1.296h-3.912v12.6h4.008v-7.512c0-1.008.624-1.8 1.728-1.8.96 0 1.656.624 1.656 1.8zm5.553-3.912c0 2.736 2.208 4.224 4.68 4.224 1.296 0 2.208-.36 2.856-1.008l.216.696h3.576v-7.8c0-2.88-1.104-5.112-5.448-5.112-2.088 0-3.792.672-5.136 1.56l1.488 2.688c.984-.48 2.064-.792 3.168-.792 1.296 0 1.92.6 1.92 1.368v.456c-.456-.192-1.32-.456-2.424-.456-2.976 0-4.896 1.656-4.896 4.176zm4.008-.144c0-.816.72-1.344 1.68-1.344s1.704.48 1.704 1.344c0 .84-.72 1.296-1.68 1.296-.936 0-1.704-.456-1.704-1.296z" fill="#000"/></g></svg>