<svg width="625" height="621" viewBox="0 0 625 621" fill="none" xmlns="http://www.w3.org/2000/svg">
<g clip-path="url(#clip0)">
<g filter="url(#filter0_d)">
<path d="M48.6554 286.973L37 282.894L40.2635 277.299L47.3733 278.231L55.9983 274.385L67.6537 269.956V271.937H71.8496L73.598 268.907L79.4257 274.385V269.956L77.6773 265.527L75.6959 262.73L71.8496 257.485V253.289L75.6959 246.412L79.4257 242.799L82.2229 238.137H86.0692V233.941H89.9155L96.7922 228.929L103.203 226.365L112.061 222.402L118.355 219.721H123.483L126.98 216.108H130.943L132.341 212.728L137.703 211.329L140.966 212.728L142.714 211.329L149.941 206.9L157.867 205.851L166.841 206.9L172.552 204.686H183.275L195.047 202.937L198.894 199.557L208.801 195.711H217.775L224.186 193.38L231.995 196.76L249.828 197.926L257.52 200.606L259.385 203.753L267.078 200.606L275.469 197.926L284.91 193.38V195.711L280.365 197.926L277.101 201.539L280.365 206.9H284.91L287.125 202.937L291.321 200.606H296.333L295.167 204.686L306.706 203.753H312.301L317.312 202.937L319.877 205.851L323.024 211.329H326.87L331.532 213.544L334.096 212.145L338.176 216.225L344.819 214.476L346.917 211.329L352.512 213.544L356.824 218.556H360.787L363.934 223.451H369.995L375.24 225.899L379.086 227.997L384.214 236.272L388.177 243.149L398.9 248.86L403.446 252.007H414.402H430.836H434.333V254.338L437.363 255.853L440.393 252.007L447.853 255.853L454.03 260.632L461.023 263.779L464.054 267.159L470.348 268.324L474.194 271.937L482.702 273.336L485.5 280.096L489.696 286.856L493.775 283.593L499.486 286.856L500.885 291.169L506.013 293.267L513.356 294.665H520.699L514.405 291.169L508.111 286.856L510.559 281.378L515.454 286.856L524.662 292.218L541.329 302.941L548.439 309.934L553.567 314.596L557.763 316.111L562.542 319.841L572.682 320.89L574.43 326.718H592.03L598.208 329.515L603.919 332.312L605.434 338.373H613.243L616.623 336.625L623.966 334.877H630.959L634.922 339.306L637.719 338.373L642.381 341.404V347.348L639.584 352.243L643.664 355.157L644.713 358.421L648.093 362.15H654.037L657.883 363.199L662.312 362.15L669.072 365.064H673.501L680.028 364.365L686.789 367.046L692.616 369.027L698.444 367.978V371.591L701.358 375.088L706.486 378.584L711.032 386.044H716.16L719.89 389.657L728.049 388.491L736.207 391.056L737.606 397.116L731.662 401.429L729.68 405.159L728.049 407.373L723.503 405.159L708.118 408.888H693.898L690.518 413.9L686.789 416.348L677.581 421.127H670.821L674.084 416.348V412.152H670.821V418.096L665.576 419.495L657.883 421.127L652.638 419.495L646.694 422.292L641.216 419.495L634.922 418.096L625.947 416.348L616.623 418.096L603.919 416.348L584.104 419.495H576.528L563.591 421.127L561.26 424.507H547.04H532.821L525.478 428.469H509.044L504.615 425.905L509.044 421.127L512.54 413.9L521.981 404.459L536.55 397.116L541.329 392.454L545.525 383.363L541.329 378.584L532.821 377.535L536.55 371.591L532.821 369.493L527.459 366.812L518.601 369.493L509.044 368.444H502.167L495.523 366.812L491.094 368.444L482.702 366.812L474.194 362.85L470.348 355.274L463.005 351.544H459.858L456.828 345.133H454.03V339.539L449.951 332.429V326.368L447.853 319.841L446.338 314.013L440.393 308.769L434.333 305.039L426.873 306.088H419.414L414.402 307.486L408.341 310.517L398.9 307.486L392.023 305.039L388.177 303.99L384.214 305.039L379.086 301.193H375.24L369.995 297.929L365.915 299.794L362.768 295.365L354.61 296.647V292.101H348.665L337.127 286.973L333.397 282.078L330.25 277.998L326.87 274.851H321.625H311.485L296.333 275.784L283.861 271.355L282.113 266.459V259.233H279.316V262.73V267.975V273.103L277.101 267.975L273.954 271.355H269.292L267.078 266.459H262.998L259.385 264.128L254.024 266.459L249.828 264.128L244.583 265.527L238.405 262.73L235.958 259.233H231.995L228.615 256.319L222.671 253.988L217.775 252.24V248.86L222.671 246.412H241.552L249.828 242.799L250.877 238.137L247.03 235.223L238.405 231.843L224.186 232.775L201.924 228.929L192.25 230.444L186.772 228.929L179.662 227.997L178.73 232.775L174.417 235.223L170.338 238.137L165.909 239.186L162.645 241.284H157.867V245.247L154.37 252.24H149.941L148.426 250.958L146.677 253.988L140.966 261.681L135.605 262.73H129.078L126.98 257.485L121.502 264.128L114.625 262.73L103.203 264.128L99.2398 271.937L102.154 273.103L97.8412 279.28L92.0135 278.231L88.1672 281.145L79.4257 282.894L71.1503 290.12H66.7213V282.894L69.1689 279.28L64.8564 278.231L52.7348 281.145L48.6554 286.973Z" fill="#F3E8CB"/>
<path d="M181.41 285.341L176.515 284.059L174.417 282.894L166.841 281.145L161.13 286.39L157.867 290.12L160.198 297.113L164.044 301.775L165.209 304.689V307.603L161.13 309.351L156.468 307.02L149.941 303.29L153.204 309.351L155.186 312.382L162.645 315.062H170.338H176.515L181.41 313.198L191.317 309.351L192.25 305.505L188.054 303.29V298.512L193.998 296.181L188.054 293.966L184.091 290.12V286.39L181.41 285.341Z" fill="#F3E8CB"/>
<path d="M507.295 281.378L505.314 284.758L501.584 283.593V281.378L498.204 280.096L496.689 278.348V276.133L493.775 276.833H491.094L488.414 275.201V271.122L488.996 268.79L486.199 269.14L482.702 266.226L480.255 264.711L482.702 262.38L479.322 260.632L478.157 258.184V260.632L475.01 258.184L471.164 254.513V257.019L467.434 255.154V252.939L465.103 250.025H463.121L459.159 248.51L457.643 247.811H454.03L450.184 249.093L447.853 247.111L443.307 245.013L440.393 244.198L439.344 242.566L441.792 240.235L446.338 241.517H451.116L456.245 240.235L461.023 238.953L465.103 244.198L467.434 248.51L470.348 246.062L473.029 248.51H476.059H479.322L480.255 254.338L481.887 258.184L484.334 257.019V259.932L488.414 262.38L492.843 263.779L495.29 266.226V269.14V271.122L498.204 271.937L502.983 273.336H508.111L507.295 278.348V281.378Z" fill="#F3E8CB"/>
<path d="M422.094 233.125V236.272L415.451 233.125V231.959H420.579L422.094 233.125Z" fill="#F3E8CB"/>
<path d="M405.194 236.272V234.057H408.807L405.194 236.272Z" fill="#F3E8CB"/>
<path d="M409.74 236.272V234.057L411.605 233.941L413.703 234.64L414.518 236.622L414.285 238.137L410.789 239.069L410.905 238.02L410.789 236.855L409.74 236.272Z" fill="#F3E8CB"/>
<path d="M403.446 241.633L401.348 240.818L401.577 240.235L402.863 239.885L403.446 240.235V241.633Z" fill="#F3E8CB"/>
<path d="M396.336 232.542L400.182 235.34V236.272H398.434L396.336 233.941L393.539 231.959L390.625 231.493L388.177 231.26L387.361 229.162L385.263 225.899L382.932 225.199H380.018L380.718 222.519H384.214L385.263 224.5L388.527 227.297L390.392 229.162H391.557L396.336 232.542Z" fill="#F3E8CB"/>
<path d="M386.196 231.493L386.187 231.6L388.177 232.542L389.576 233.125L392.373 233.358L394.121 234.057L395.287 235.34V237.437H393.539H392.606L391.557 235.34L390.392 234.64L388.527 233.941L385.963 234.407L386.187 231.6L385.963 231.493H386.196Z" fill="#F3E8CB"/>
<path d="M378.736 219.255L378.154 221.47H376.988L375.939 220.77L375.24 219.721L373.608 219.255L372.326 217.74L372.792 216.807H375.007L376.638 218.09L377.454 219.255H378.736Z" fill="#F3E8CB"/>
<path d="M368.946 213.544H367.547L366.265 212.961L366.032 212.029L366.265 211.096H367.197L368.946 212.262V213.544Z" fill="#F3E8CB"/>
<path d="M359.738 213.544L360.088 212.961L360.554 212.262L362.069 211.562L363.235 212.029L363.701 212.495V214.127L362.768 214.826L361.37 215.059H359.738V213.544Z" fill="#F3E8CB"/>
<path d="M358.689 211.562L357.64 210.28L358.106 209.465L359.388 209.115L359.738 210.28V210.863L358.689 211.562Z" fill="#F3E8CB"/>
<path d="M354.493 208.299L355.309 205.968H355.775H357.057V207.017V209.115H355.775L354.493 208.299Z" fill="#F3E8CB"/>
<path d="M350.647 205.269L351.696 204.569H351.929H352.978L353.794 205.968V207.833H352.512L352.162 207.017L350.647 206.201V205.269Z" fill="#F3E8CB"/>
<path d="M335.844 211.329L334.446 210.863L336.078 209.931L338.176 208.532H340.39L340.623 209.698V211.329L341.905 211.562L342.138 210.28L342.838 209.115L341.905 208.066V206.201H343.654L344.819 207.6V207.017L345.285 204.569L343.187 202.471V201.422L344.12 201.655L345.985 203.753H348.083L348.549 205.269L346.684 205.968V207.25L344.819 209.931L343.42 210.28V212.495H339.574L338.409 211.329H335.844Z" fill="#F3E8CB"/>
<path d="M341.905 202.821L339.574 199.557L339.341 199.324L336.66 199.557L335.262 200.257L335.378 201.655L337.476 201.306L338.642 201.655L340.04 203.404L341.672 204.103L341.905 202.821Z" fill="#F3E8CB"/>
<path d="M328.851 198.392H332.464L333.047 198.975L332.698 199.907L331.066 200.49L329.667 201.422L327.569 202.122L327.336 200.84V198.975L328.851 198.392Z" fill="#F3E8CB"/>
<path d="M315.564 194.895L317.662 194.312H319.061L319.527 195.245H320.926L321.975 195.128L322.907 196.061V197.226L321.042 197.343L319.294 196.993L319.061 196.644L317.662 197.343H317.312L316.03 195.944L315.564 194.895Z" fill="#F3E8CB"/>
<path d="M316.38 199.907V198.742L318.711 198.625L319.177 198.975V200.024L317.779 200.373L316.38 199.907Z" fill="#F3E8CB"/>
<path d="M314.165 196.061L311.834 196.41H309.853H308.105H307.289L306.706 194.895L307.522 194.546L311.252 194.895L313.816 193.846L314.165 194.895V196.061Z" fill="#F3E8CB"/>
<path d="M297.382 190.816L298.198 190.233L298.314 190L299.363 190.816L300.412 191.632L301.228 192.681L302.277 192.797L303.909 193.147L304.958 194.312V195.478L304.258 195.711L302.86 194.895L302.044 194.312L300.878 193.497H299.013L297.382 192.098V190.816Z" fill="#F3E8CB"/>
<path d="M300.062 200.723H298.547L297.615 200.024L297.848 199.557L299.596 198.275L303.326 197.693L305.424 198.392L306.473 199.674L304.958 201.073H304.841H304.375L302.86 200.956L300.062 200.723Z" fill="#F3E8CB"/>
<path d="M259.735 303.757L257.287 303.174L256.122 303.407V305.738L257.287 306.671H258.569L261.25 305.272L264.98 303.174L268.127 300.726L268.826 299.794L268.36 298.861H266.611L263.464 301.309L261.25 303.757L259.502 304.339L259.735 303.757Z" fill="#F3E8CB"/>
<path d="M235.025 303.174L236.89 300.959H238.755L239.105 302.008L237.823 303.407L235.841 305.039L233.743 306.088L231.995 306.671L230.713 305.505L230.247 303.99L230.713 302.241H231.762L232.344 302.941L233.743 303.174H235.025Z" fill="#F3E8CB"/>
<path d="M225.817 305.039L224.302 305.272L222.321 303.99H221.505L219.99 305.272L220.573 306.671L220.806 308.652L221.971 309.235L223.37 308.652L224.885 307.486L227.216 306.088L229.431 305.039V303.99L229.081 302.941H228.498L226.866 303.64L225.817 305.039Z" fill="#F3E8CB"/>
</g>
<g filter="url(#filter1_d)">
<path d="M79.5419 257.252V251.191L81.7564 244.314L91.1973 239.303L96.6753 233.825L107.981 230.095L120.685 225.782L126.28 219.722L145.162 214.36L153.321 210.63H161.246L172.202 208.765H184.44L186.37 210.582L192.133 210.164L199.243 202.705L215.444 199.208H230.829L247.263 202.122L254.839 204.919L262.765 206.434L274.07 202.122L280.131 208.882L285.26 209.465L290.505 205.385L293.885 207.25L301.577 205.735L315.214 206.667L320.925 213.661L330.716 215.759L340.39 219.022L346.101 219.255L352.045 220.77L358.339 225.899L366.498 227.298L375.123 230.561L382.815 241.634L390.158 248.743L402.28 255.97L431.069 256.786L453.68 265.644L471.979 277.999L484.684 289.421L495.989 294.549L505.43 298.978H526.06L536.084 308.186L546.574 316.578L557.53 323.455L567.087 328.816L585.386 332.895L592.846 337.208L594.827 345.134L609.396 341.287H625.481L633.64 349.796L640.4 361.684L646.461 370.775L660.68 372.524L681.427 367.395L693.898 373.806L701.591 388.375L716.626 392.921L721.521 401.08L704.155 403.411L693.898 405.042L686.788 412.269L679.096 415.183L674.55 406.674L666.042 409.705L660.68 415.183L652.055 412.269L643.663 415.183L633.873 413.667L623.499 411.919L605.55 410.754L597.624 415.416L585.969 411.919L572.682 415.416L556.947 421.593L539.114 418.912L519.3 421.01L521.864 410.52L533.52 405.625L544.01 394.319L556.248 386.743L548.672 377.069L544.592 367.395L535.151 363.083L521.864 361.684L502.866 359.819L485.033 354.341L473.844 348.281L466.851 340.005L455.195 334.178L452.864 321.007L448.202 308.069L444.472 303.99L435.847 299.794L421.744 298.978L414.285 300.727L402.28 302.475L393.888 294.549H377.57V290.819H369.645V287.672H359.621V284.875L352.511 282.894L342.488 281.262L334.562 274.618V266.46H324.655L309.853 269.257H299.596L288.64 261.448V254.221L283.278 247.578H277.917L269.292 240.701L257.753 238.37L253.674 232.542L250.876 227.414H239.92L233.743 222.868L213.812 227.414L209.966 222.868H199.243L188.287 225.782L183.042 224.5L175.233 226.132L173.135 231.26L166.141 234.524L156.351 238.137L152.854 243.732L147.027 244.781L145.045 251.075L136.42 258.534L130.01 253.872L122.9 253.289L119.636 259.466L110.545 258.184L99.1229 260.282L95.8594 266.926L89.6821 273.22L81.7564 271.238L82.8054 264.245L79.5419 257.252Z" fill="#C1DD9B"/>
<path d="M237.589 254.221L229.897 250.958L233.743 248.86L239.92 247.578H249.594L259.501 244.781L265.445 247.578L272.788 254.221V257.835V263.895H267.194L257.753 259.816L246.797 257.835L237.589 255.037V254.221Z" fill="#C1DD9B"/>
<path d="M165.093 293.85L170.454 288.372H177.447L180.711 291.752L184.44 298.046V303.873L180.711 306.321L178.613 300.843L172.202 303.873L165.093 293.85Z" fill="#C1DD9B"/>
<path d="M80.5909 280.796H78.9591L73.4811 284.992L69.1686 286.041L71.6162 279.281L68.4692 274.502L74.4135 272.754L82.6888 278.698L80.5909 280.796Z" fill="#C1DD9B"/>
</g>
<path d="M698.794 392.573L706.953 396.769L704.388 400.615H697.861L691.218 402.713L689.003 407.259L683.758 404.228L679.446 407.259L674.434 405.044L665.926 402.713L660.564 404.228L650.074 408.424L641.449 412.154L634.34 409.357L625.132 407.259H612.544H597.975L573.615 409.357L561.144 412.154L554.85 418.331H546.691L536.085 417.049L532.122 413.786L535.036 410.173L542.378 406.21L546.691 396.536L551.819 392.34L561.144 388.144L556.715 384.298L549.838 373.575L546.691 365.532L540.863 359.005L531.422 356.558L524.779 353.761L519.883 353.061H507.762H496.922L485.966 350.963L477.458 348.049L470.814 343.62L465.686 336.977L460.441 333.946L456.711 331.149V326.137V318.794L452.282 310.985V305.274L446.221 299.913L440.277 296.649H433.634H420.696H414.752L405.544 297.232L395.637 293.152H387.944L382.699 290.472L378.037 287.791L370.811 286.159H365.333L362.069 283.712L356.708 280.798L350.647 279.516L344.353 278.467L339.458 272.639L336.894 266.928L336.311 263.431L328.036 261.799L322.324 260.401L317.196 264.597L308.105 266.228L298.781 263.431L293.419 260.401L285.96 252.125L282.929 248.046H278.966L271.973 241.869L267.194 238.372L261.017 236.274L256.705 231.495L255.422 225.668L243.767 225.085L240.154 224.152L231.995 223.22L224.069 220.423L215.911 221.472L207.985 222.055H202.624H194.581L182.693 221.472L172.669 223.104L167.774 230.446L157.983 234.176L149.708 235.342L142.015 245.132L136.071 252.708L124.532 250.377L116.607 250.96L112.994 255.389L100.056 256.321L88.7503 262.266L86.3026 257.021L85.8364 246.764L96.7925 239.305L106.583 235.342L125.348 227.416L137.47 220.539L153.554 214.362L170.571 212.264L179.313 212.847L193.066 212.264L200.176 207.485L202.041 204.105L211.015 201.541H215.911L222.904 203.406H229.664L240.154 204.805L248.662 206.087H254.257L261.017 210.865L267.777 211.681L273.605 206.669L278.151 211.681L284.444 212.963L292.487 209.7L301.811 208.767L313.233 211.681L317.895 215.527L324.656 218.908L331.649 219.723L345.635 223.57L346.451 229.631L355.775 231.379L366.032 235.109H373.142L379.669 243.151L382 249.678L389.11 255.855L395.637 259.002L405.544 260.634H417.083H430.137L438.179 264.946L443.541 270.424L453.914 271.24L462.189 276.019L467.9 281.497L472.679 285.926L480.139 297.348L494.125 299.796L510.326 304.691L522.681 307.022L531.422 310.869L536.318 314.365L542.612 321.592L546.691 325.438L554.85 326.953L559.628 331.615L566.039 335.112L575.014 337.443H581.774L584.454 341.755V348.749L590.748 351.546H597.975L611.262 348.749L623.85 351.546L628.978 356.908L632.708 362.269V372.759L640.051 377.421H653.571L671.986 374.973H686.439L693.782 384.065L698.794 392.573Z" fill="#356740"/>
<g filter="url(#filter2_d)">
<path d="M567.32 394.902L573.381 387.676L559.395 379.051L561.726 370.309L554.033 361.451V352.71L540.163 354.108L532.121 346.066H519.533H504.614H494.008L481.653 340.821L471.746 327.534L466.385 321.24V308.652L459.275 307.254L455.312 303.64L453.098 295.598V291.053H435.265H416.966L395.986 283.36L389.109 286.157L379.552 282.777L369.878 278.232L364.516 275.784H358.223L349.248 269.374L342.022 261.098L330.133 255.271L319.177 254.455L312.883 259.233L302.743 258.418L295.283 253.406L290.155 241.867L280.131 236.855L265.562 228.929L259.641 221.786L251.809 220.421L237.939 216.924L231.645 214.593L217.192 216.342L209.267 218.323L203.439 212.728L209.267 205.152L217.775 207.717H233.626H248.312L255.816 213.866L262.182 216.575L268.476 218.906H280.131H296.099H311.368L318.361 223.568H334.329L336.893 228.929L342.604 233.592H346.917L360.554 236.855L367.197 243.499L370.461 250.492L381.067 256.436L390.042 260.749L396.336 263.08L400.299 266.46L405.893 267.043L411.255 267.742H425.591L441.908 275.784L455.778 280.097L460.324 282.894L467.55 288.372L471.746 294.782L481.653 302.591L501.234 306.554L511.957 311.566L532.121 315.529L535.152 325.553L546.457 327.534L559.395 336.858L570.351 340.821H580.374V350.146V356.789L590.282 358.421L605.55 354.108H623.499V361.451L627.812 373.34L631.075 381.265L643.78 379.051H656.018H671.986L685.856 376.72V387.676V397.583L681.893 401.196L669.305 397.583H656.018L651.006 401.196L638.069 404.576L623.499 402.944H614.175H602.287H593.312L587.601 404.576H573.381H561.726H557.064L556.131 409.821H552.751V402.944L556.131 394.902H567.32Z" fill="#539882"/>
<path d="M121.735 236.855L138.985 225.549L151.805 219.955L164.51 215.059L170.104 223.218L157.05 230.678L149.358 231.61L138.985 241.867L129.777 247.811L116.49 243.499L108.447 252.124L94.8105 250.492V247.811L107.165 239.885L121.735 236.855Z" fill="#539882"/>
<path d="M249.944 251.541L258.919 250.492L263.814 252.823H267.194V257.252V259.117L259.851 257.252L254.956 255.97H248.312L243.883 253.755L249.944 251.541Z" fill="#539882"/>
</g>
<g filter="url(#filter3_d)">
<path d="M480.255 316.693L483.868 311.914L491.91 309.466L501.817 314.944L513.356 320.073L527.809 323.686L534.452 329.397V338.488H520.699L504.848 337.206L488.297 333.477L480.255 324.735V316.693Z" fill="#A2896D"/>
<path d="M411.488 271.47L418.365 273.917L423.143 275.433L435.032 278.58L439.694 282.076L437.713 284.99H425.358L410.789 280.794L397.268 278.58L400.415 270.304L411.488 271.47Z" fill="#A2896D"/>
<path d="M346.451 242.215L354.959 249.441L357.407 245.245V239.534L364.866 248.625L369.295 257.017L382.816 261.796L386.662 267.507L373.841 269.605L356.591 268.789L343.537 256.201L334.795 246.76H324.772L306.24 252.122L301.461 243.497L290.855 234.406L276.052 226.946L287.591 222.983L304.258 224.265L313.583 226.946H322.324L333.863 232.89L338.991 237.203L346.451 242.215Z" fill="#A2896D"/>
<path d="M592.963 399.096H577.577L573.265 393.502L579.442 387.791L577.577 382.313L572.216 376.835L575.013 365.063L582.356 362.265H593.778L608.697 359.934L620.12 361.45V369.492L623.033 379.749L632.241 384.644H647.393L665.925 382.313L679.912 383.362L676.532 393.385H658.699H646.111L632.241 396.649H620.12H602.52L592.963 399.096Z" fill="#A2896D"/>
<path d="M573.265 359.934L565.572 362.265L560.094 358.536V353.058L555.898 348.978H545.292V341.868L547.39 337.206L557.297 338.488L562.425 343.151L575.013 341.868V348.978L573.265 359.934Z" fill="#A2896D"/>
<path d="M128.495 242.215L127.096 238.485L134.089 232.774L140.383 227.529L148.076 224.965L140.383 235.105L134.089 242.215H128.495Z" fill="#A2896D"/>
<path d="M456.944 290.235L455.196 285.806L458.459 287.321L463.588 290.235L466.152 293.965L471.979 296.529L472.679 303.289L470.581 305.737L462.072 301.89L456.944 299.093V290.235Z" fill="#A2896D"/>
</g>
<g filter="url(#filter4_d)">
<path d="M605.55 364.133L613.942 371.009L617.089 375.322L620.702 378.119L621.868 385.695L624.199 388.959L620.702 392.688L603.802 390.124L592.613 394.32H583.871V386.977L581.074 374.506V368.678H592.613L605.55 364.133Z" fill="#FFBD3A"/>
<path d="M564.756 350.146L568.253 347.699L571.283 346.999V351.545L570.351 356.906H566.854L564.756 354.109V350.146Z" fill="#FFBD3A"/>
<path d="M549.021 342.454L550.07 339.074H553.101L556.714 340.822L558.812 343.852L557.763 346.533L554.15 345.601L550.07 343.852L549.021 342.454Z" fill="#FFBD3A"/>
<path d="M532.238 331.614L532.82 336.859L526.876 335.81L516.153 334.178L509.043 331.614V327.185L502.05 325.437L497.271 329.05L489.695 328.351V321.707L485.383 318.56L492.959 314.83L495.173 317.977L506.712 320.425L512.074 323.222L519.766 326.602H526.876L532.238 331.614Z" fill="#FFBD3A"/>
<path d="M305.19 236.739V230.911L305.773 229.163L317.778 228.813L323.373 231.844V235.224L320.109 239.536H312.533L306.356 238.837L305.19 236.739Z" fill="#FFBD3A"/>
<path d="M348.665 254.572L344.586 248.511L345.285 244.898L349.714 249.56L356.94 253.29L360.903 249.56L366.498 256.204L371.976 260.749L380.251 263.43L371.976 265.178L359.388 263.43L352.162 259.7L348.665 254.572Z" fill="#FFBD3A"/>
<path d="M415.217 279.398L416.266 276.717L418.364 277.883H429.554L434.565 281.612L429.554 283.71L422.91 281.612L415.217 279.398Z" fill="#FFBD3A"/>
<path d="M656.834 388.492L662.079 384.763L666.042 384.297L672.336 385.112L674.783 386.744L671.636 391.873L668.14 392.455H662.079L657.417 390.124L656.834 388.492Z" fill="#FFBD3A"/>
</g>
<circle cx="497.233" cy="298.233" r="14.2334" fill="black"/>
<circle cx="387.233" cy="261.233" r="14.2334" fill="black"/>
<circle cx="179.233" cy="302.233" r="14.2334" fill="black"/>
<circle cx="151.233" cy="216.233" r="14.2334" fill="black"/>
<g filter="url(#filter5_d)">
<path fill-rule="evenodd" clip-rule="evenodd" d="M493.692 302.688L490.387 301.444L489.966 302.465C489.966 302.465 489.563 304.116 491.007 304.66C492.453 305.205 493.286 303.714 493.286 303.714L493.692 302.688Z" fill="white"/>
<path fill-rule="evenodd" clip-rule="evenodd" d="M496.109 293.659C494.681 293.085 492.676 294.343 491.982 295.927C491.697 296.579 491.567 297.283 491.459 297.977C491.408 298.309 491.371 298.649 491.306 298.98C491.223 299.395 491.098 299.794 490.975 300.197C490.803 300.756 490.992 300.85 491.513 300.946L493.338 301.635C493.525 301.724 493.888 301.947 494.075 301.738C494.241 301.551 494.208 301.21 494.318 300.989C494.461 300.701 494.621 300.407 494.797 300.136C495.188 299.529 495.929 299.085 496.431 298.561C497.053 297.91 497.397 297.258 497.587 296.395C497.839 295.246 497.259 294.119 496.109 293.659V293.659Z" fill="white"/>
<path fill-rule="evenodd" clip-rule="evenodd" d="M497.65 298.961L500.83 300.216C500.83 300.216 500.174 302.786 498.232 302.038C496.29 301.289 497.65 298.961 497.65 298.961V298.961Z" fill="white"/>
<path fill-rule="evenodd" clip-rule="evenodd" d="M502.185 291.069C503.542 291.574 504.089 293.712 503.517 295.251C503.281 295.884 502.906 296.451 502.52 297.004C502.336 297.266 502.136 297.524 501.961 297.796C501.746 298.136 501.567 298.493 501.386 298.85C501.133 299.346 500.94 299.289 500.519 299.029L498.81 298.357C498.624 298.301 498.228 298.224 498.238 297.964C498.248 297.729 498.496 297.512 498.567 297.291C498.659 297.001 498.743 296.695 498.801 296.396C498.933 295.728 498.717 294.951 498.721 294.273C498.721 293.43 498.918 292.759 499.358 292.041C499.947 291.079 501.091 290.665 502.185 291.069V291.069Z" fill="white"/>
</g>
<g filter="url(#filter6_d)">
<path fill-rule="evenodd" clip-rule="evenodd" d="M383.692 265.688L380.387 264.444L379.966 265.465C379.966 265.465 379.563 267.116 381.007 267.66C382.453 268.205 383.286 266.714 383.286 266.714L383.692 265.688Z" fill="white"/>
<path fill-rule="evenodd" clip-rule="evenodd" d="M386.109 256.659C384.681 256.085 382.676 257.343 381.982 258.927C381.697 259.579 381.567 260.283 381.459 260.977C381.408 261.309 381.371 261.649 381.306 261.98C381.223 262.395 381.098 262.794 380.975 263.197C380.803 263.756 380.992 263.85 381.513 263.946L383.338 264.635C383.525 264.724 383.888 264.947 384.075 264.738C384.241 264.551 384.208 264.21 384.318 263.989C384.461 263.701 384.621 263.407 384.797 263.136C385.188 262.529 385.929 262.085 386.431 261.561C387.053 260.91 387.397 260.258 387.587 259.395C387.839 258.246 387.259 257.119 386.109 256.659V256.659Z" fill="white"/>
<path fill-rule="evenodd" clip-rule="evenodd" d="M387.65 261.961L390.83 263.216C390.83 263.216 390.174 265.786 388.232 265.038C386.29 264.289 387.65 261.961 387.65 261.961V261.961Z" fill="white"/>
<path fill-rule="evenodd" clip-rule="evenodd" d="M392.185 254.069C393.542 254.574 394.089 256.712 393.517 258.251C393.281 258.884 392.906 259.451 392.52 260.004C392.336 260.266 392.136 260.524 391.961 260.796C391.746 261.136 391.567 261.493 391.386 261.85C391.133 262.346 390.94 262.289 390.519 262.029L388.81 261.357C388.624 261.301 388.228 261.224 388.238 260.964C388.248 260.729 388.496 260.512 388.567 260.291C388.659 260.001 388.743 259.695 388.801 259.396C388.933 258.728 388.717 257.951 388.721 257.273C388.721 256.43 388.918 255.759 389.358 255.041C389.947 254.079 391.091 253.665 392.185 254.069V254.069Z" fill="white"/>
</g>
<g filter="url(#filter7_d)">
<path fill-rule="evenodd" clip-rule="evenodd" d="M175.692 306.688L172.387 305.444L171.966 306.465C171.966 306.465 171.563 308.116 173.007 308.66C174.453 309.205 175.286 307.714 175.286 307.714L175.692 306.688Z" fill="white"/>
<path fill-rule="evenodd" clip-rule="evenodd" d="M178.109 297.659C176.681 297.085 174.676 298.343 173.982 299.927C173.697 300.579 173.567 301.283 173.459 301.977C173.408 302.309 173.371 302.649 173.306 302.98C173.223 303.395 173.098 303.794 172.975 304.197C172.803 304.756 172.992 304.85 173.513 304.946L175.338 305.635C175.525 305.724 175.888 305.947 176.075 305.738C176.241 305.551 176.208 305.21 176.318 304.989C176.461 304.701 176.621 304.407 176.797 304.136C177.188 303.529 177.929 303.085 178.431 302.561C179.053 301.91 179.397 301.258 179.587 300.395C179.839 299.246 179.259 298.119 178.109 297.659V297.659Z" fill="white"/>
<path fill-rule="evenodd" clip-rule="evenodd" d="M179.65 302.961L182.83 304.216C182.83 304.216 182.174 306.786 180.232 306.038C178.29 305.289 179.65 302.961 179.65 302.961V302.961Z" fill="white"/>
<path fill-rule="evenodd" clip-rule="evenodd" d="M184.185 295.069C185.542 295.574 186.089 297.712 185.517 299.251C185.281 299.884 184.906 300.451 184.52 301.004C184.336 301.266 184.136 301.524 183.961 301.796C183.746 302.136 183.567 302.493 183.386 302.85C183.133 303.346 182.94 303.289 182.519 303.029L180.81 302.357C180.624 302.301 180.228 302.224 180.238 301.964C180.248 301.729 180.496 301.512 180.567 301.291C180.659 301.001 180.743 300.695 180.801 300.396C180.933 299.728 180.717 298.951 180.721 298.273C180.721 297.43 180.918 296.759 181.358 296.041C181.947 295.079 183.091 294.665 184.185 295.069V295.069Z" fill="white"/>
</g>
<g filter="url(#filter8_d)">
<path fill-rule="evenodd" clip-rule="evenodd" d="M147.692 220.688L144.387 219.444L143.966 220.465C143.966 220.465 143.563 222.116 145.007 222.66C146.453 223.205 147.286 221.714 147.286 221.714L147.692 220.688Z" fill="white"/>
<path fill-rule="evenodd" clip-rule="evenodd" d="M150.109 211.659C148.681 211.085 146.676 212.343 145.982 213.927C145.697 214.579 145.567 215.283 145.459 215.977C145.408 216.309 145.371 216.649 145.306 216.98C145.223 217.395 145.098 217.794 144.975 218.197C144.803 218.756 144.992 218.85 145.513 218.946L147.338 219.635C147.525 219.724 147.888 219.947 148.075 219.738C148.241 219.551 148.208 219.21 148.318 218.989C148.461 218.701 148.621 218.407 148.797 218.136C149.188 217.529 149.929 217.085 150.431 216.561C151.053 215.91 151.397 215.258 151.587 214.395C151.839 213.246 151.259 212.119 150.109 211.659V211.659Z" fill="white"/>
<path fill-rule="evenodd" clip-rule="evenodd" d="M151.65 216.961L154.83 218.216C154.83 218.216 154.174 220.786 152.232 220.038C150.29 219.289 151.65 216.961 151.65 216.961V216.961Z" fill="white"/>
<path fill-rule="evenodd" clip-rule="evenodd" d="M156.185 209.069C157.542 209.574 158.089 211.712 157.517 213.251C157.281 213.884 156.906 214.451 156.52 215.004C156.336 215.266 156.136 215.524 155.961 215.796C155.746 216.136 155.567 216.493 155.386 216.85C155.133 217.346 154.94 217.289 154.519 217.029L152.81 216.357C152.624 216.301 152.228 216.224 152.238 215.964C152.248 215.729 152.496 215.512 152.567 215.291C152.659 215.001 152.743 214.695 152.801 214.396C152.933 213.728 152.717 212.951 152.721 212.273C152.721 211.43 152.918 210.759 153.358 210.041C153.947 209.079 155.091 208.665 156.185 209.069V209.069Z" fill="white"/>
</g>
<path d="M234 169L179 196" stroke="black"/>
<path d="M257.696 151.2H253.592V157.728H247.592V151.2H243.488V168H247.592V161.424H253.592V168H257.696V151.2ZM259.66 164.088C259.66 166.824 261.868 168.312 264.34 168.312C265.636 168.312 266.548 167.952 267.196 167.304L267.412 168H270.988V160.2C270.988 157.32 269.884 155.088 265.54 155.088C263.452 155.088 261.748 155.76 260.404 156.648L261.892 159.336C262.876 158.856 263.956 158.544 265.06 158.544C266.356 158.544 266.98 159.144 266.98 159.912V160.368C266.524 160.176 265.66 159.912 264.556 159.912C261.58 159.912 259.66 161.568 259.66 164.088ZM263.668 163.944C263.668 163.128 264.388 162.6 265.348 162.6C266.308 162.6 267.052 163.08 267.052 163.944C267.052 164.784 266.332 165.24 265.372 165.24C264.436 165.24 263.668 164.784 263.668 163.944ZM276.368 155.4H272.072L276.392 168H281.048L285.296 155.4H281.12L278.744 163.752L276.368 155.4ZM285.863 164.088C285.863 166.824 288.071 168.312 290.543 168.312C291.839 168.312 292.751 167.952 293.399 167.304L293.615 168H297.191V160.2C297.191 157.32 296.087 155.088 291.743 155.088C289.655 155.088 287.951 155.76 286.607 156.648L288.095 159.336C289.079 158.856 290.159 158.544 291.263 158.544C292.559 158.544 293.183 159.144 293.183 159.912V160.368C292.727 160.176 291.863 159.912 290.759 159.912C287.783 159.912 285.863 161.568 285.863 164.088ZM289.871 163.944C289.871 163.128 290.591 162.6 291.551 162.6C292.511 162.6 293.255 163.08 293.255 163.944C293.255 164.784 292.535 165.24 291.575 165.24C290.639 165.24 289.871 164.784 289.871 163.944ZM306.747 168H310.755V161.016C310.755 158.448 310.371 155.088 306.435 155.088C304.851 155.088 303.747 155.952 303.267 156.696V155.4H299.355V168H303.363V160.488C303.363 159.48 303.987 158.688 305.091 158.688C306.051 158.688 306.747 159.312 306.747 160.488V168ZM312.3 164.088C312.3 166.824 314.508 168.312 316.98 168.312C318.276 168.312 319.188 167.952 319.836 167.304L320.052 168H323.628V160.2C323.628 157.32 322.524 155.088 318.18 155.088C316.092 155.088 314.388 155.76 313.044 156.648L314.532 159.336C315.516 158.856 316.596 158.544 317.7 158.544C318.996 158.544 319.62 159.144 319.62 159.912V160.368C319.164 160.176 318.3 159.912 317.196 159.912C314.22 159.912 312.3 161.568 312.3 164.088ZM316.308 163.944C316.308 163.128 317.028 162.6 317.988 162.6C318.948 162.6 319.692 163.08 319.692 163.944C319.692 164.784 318.972 165.24 318.012 165.24C317.076 165.24 316.308 164.784 316.308 163.944Z" fill="black"/>
</g>
<defs>
<filter id="filter0_d" x="32" y="189" width="710.606" height="248.469" filterUnits="userSpaceOnUse" color-interpolation-filters="sRGB">
<feFlood flood-opacity="0" result="BackgroundImageFix"/>
<feColorMatrix in="SourceAlpha" type="matrix" values="0 0 0 0 0 0 0 0 0 0 0 0 0 0 0 0 0 0 127 0"/>
<feOffset dy="4"/>
<feGaussianBlur stdDeviation="2.5"/>
<feColorMatrix type="matrix" values="0 0 0 0 0 0 0 0 0 0 0 0 0 0 0 0 0 0 0.25 0"/>
<feBlend mode="normal" in2="BackgroundImageFix" result="effect1_dropShadow"/>
<feBlend mode="normal" in="SourceGraphic" in2="effect1_dropShadow" result="shape"/>
</filter>
<filter id="filter1_d" x="63.4692" y="198.208" width="663.052" height="232.385" filterUnits="userSpaceOnUse" color-interpolation-filters="sRGB">
<feFlood flood-opacity="0" result="BackgroundImageFix"/>
<feColorMatrix in="SourceAlpha" type="matrix" values="0 0 0 0 0 0 0 0 0 0 0 0 0 0 0 0 0 0 127 0"/>
<feOffset dy="4"/>
<feGaussianBlur stdDeviation="2.5"/>
<feColorMatrix type="matrix" values="0 0 0 0 0 0 0 0 0 0 0 0 0 0 0 0 0 0 0.25 0"/>
<feBlend mode="normal" in2="BackgroundImageFix" result="effect1_dropShadow"/>
<feBlend mode="normal" in="SourceGraphic" in2="effect1_dropShadow" result="shape"/>
</filter>
<filter id="filter2_d" x="89.8105" y="204.152" width="601.045" height="214.669" filterUnits="userSpaceOnUse" color-interpolation-filters="sRGB">
<feFlood flood-opacity="0" result="BackgroundImageFix"/>
<feColorMatrix in="SourceAlpha" type="matrix" values="0 0 0 0 0 0 0 0 0 0 0 0 0 0 0 0 0 0 127 0"/>
<feOffset dy="4"/>
<feGaussianBlur stdDeviation="2.5"/>
<feColorMatrix type="matrix" values="0 0 0 0 0 0 0 0 0 0 0 0 0 0 0 0 0 0 0.25 0"/>
<feBlend mode="normal" in2="BackgroundImageFix" result="effect1_dropShadow"/>
<feBlend mode="normal" in="SourceGraphic" in2="effect1_dropShadow" result="shape"/>
</filter>
<filter id="filter3_d" x="122.096" y="221.983" width="562.816" height="186.113" filterUnits="userSpaceOnUse" color-interpolation-filters="sRGB">
<feFlood flood-opacity="0" result="BackgroundImageFix"/>
<feColorMatrix in="SourceAlpha" type="matrix" values="0 0 0 0 0 0 0 0 0 0 0 0 0 0 0 0 0 0 127 0"/>
<feOffset dy="4"/>
<feGaussianBlur stdDeviation="2.5"/>
<feColorMatrix type="matrix" values="0 0 0 0 0 0 0 0 0 0 0 0 0 0 0 0 0 0 0.25 0"/>
<feBlend mode="normal" in2="BackgroundImageFix" result="effect1_dropShadow"/>
<feBlend mode="normal" in="SourceGraphic" in2="effect1_dropShadow" result="shape"/>
</filter>
<filter id="filter4_d" x="300.19" y="227.813" width="379.593" height="175.507" filterUnits="userSpaceOnUse" color-interpolation-filters="sRGB">
<feFlood flood-opacity="0" result="BackgroundImageFix"/>
<feColorMatrix in="SourceAlpha" type="matrix" values="0 0 0 0 0 0 0 0 0 0 0 0 0 0 0 0 0 0 127 0"/>
<feOffset dy="4"/>
<feGaussianBlur stdDeviation="2.5"/>
<feColorMatrix type="matrix" values="0 0 0 0 0 0 0 0 0 0 0 0 0 0 0 0 0 0 0.25 0"/>
<feBlend mode="normal" in2="BackgroundImageFix" result="effect1_dropShadow"/>
<feBlend mode="normal" in="SourceGraphic" in2="effect1_dropShadow" result="shape"/>
</filter>
<filter id="filter5_d" x="485.914" y="290.915" width="21.8278" height="21.8649" filterUnits="userSpaceOnUse" color-interpolation-filters="sRGB">
<feFlood flood-opacity="0" result="BackgroundImageFix"/>
<feColorMatrix in="SourceAlpha" type="matrix" values="0 0 0 0 0 0 0 0 0 0 0 0 0 0 0 0 0 0 127 0"/>
<feOffset dy="4"/>
<feGaussianBlur stdDeviation="2"/>
<feColorMatrix type="matrix" values="0 0 0 0 0 0 0 0 0 0 0 0 0 0 0 0 0 0 0.25 0"/>
<feBlend mode="normal" in2="BackgroundImageFix" result="effect1_dropShadow"/>
<feBlend mode="normal" in="SourceGraphic" in2="effect1_dropShadow" result="shape"/>
</filter>
<filter id="filter6_d" x="375.914" y="253.915" width="21.8278" height="21.8649" filterUnits="userSpaceOnUse" color-interpolation-filters="sRGB">
<feFlood flood-opacity="0" result="BackgroundImageFix"/>
<feColorMatrix in="SourceAlpha" type="matrix" values="0 0 0 0 0 0 0 0 0 0 0 0 0 0 0 0 0 0 127 0"/>
<feOffset dy="4"/>
<feGaussianBlur stdDeviation="2"/>
<feColorMatrix type="matrix" values="0 0 0 0 0 0 0 0 0 0 0 0 0 0 0 0 0 0 0.25 0"/>
<feBlend mode="normal" in2="BackgroundImageFix" result="effect1_dropShadow"/>
<feBlend mode="normal" in="SourceGraphic" in2="effect1_dropShadow" result="shape"/>
</filter>
<filter id="filter7_d" x="167.914" y="294.915" width="21.8278" height="21.8649" filterUnits="userSpaceOnUse" color-interpolation-filters="sRGB">
<feFlood flood-opacity="0" result="BackgroundImageFix"/>
<feColorMatrix in="SourceAlpha" type="matrix" values="0 0 0 0 0 0 0 0 0 0 0 0 0 0 0 0 0 0 127 0"/>
<feOffset dy="4"/>
<feGaussianBlur stdDeviation="2"/>
<feColorMatrix type="matrix" values="0 0 0 0 0 0 0 0 0 0 0 0 0 0 0 0 0 0 0.25 0"/>
<feBlend mode="normal" in2="BackgroundImageFix" result="effect1_dropShadow"/>
<feBlend mode="normal" in="SourceGraphic" in2="effect1_dropShadow" result="shape"/>
</filter>
<filter id="filter8_d" x="139.914" y="208.915" width="21.8278" height="21.8649" filterUnits="userSpaceOnUse" color-interpolation-filters="sRGB">
<feFlood flood-opacity="0" result="BackgroundImageFix"/>
<feColorMatrix in="SourceAlpha" type="matrix" values="0 0 0 0 0 0 0 0 0 0 0 0 0 0 0 0 0 0 127 0"/>
<feOffset dy="4"/>
<feGaussianBlur stdDeviation="2"/>
<feColorMatrix type="matrix" values="0 0 0 0 0 0 0 0 0 0 0 0 0 0 0 0 0 0 0.25 0"/>
<feBlend mode="normal" in2="BackgroundImageFix" result="effect1_dropShadow"/>
<feBlend mode="normal" in="SourceGraphic" in2="effect1_dropShadow" result="shape"/>
</filter>
<clipPath id="clip0">
<rect width="625" height="621" fill="white"/>
</clipPath>
</defs>
</svg>
