<svg width="568" height="621" viewBox="0 0 568 621" fill="none" xmlns="http://www.w3.org/2000/svg">
<g filter="url(#filter0_d)">
<path d="M518.637 101.403L521.597 110.482C521.667 110.696 516.758 112.808 514.295 113.837L513.308 109.495L508.966 108.113L506.993 107.324H504.23V108.705L502.256 109.495L501.269 108.113H500.085L499.493 109.495L497.322 114.626L496.533 118.376L493.967 120.547C493.441 120.481 492.428 119.678 492.586 116.994C492.744 114.31 491.204 116.797 490.415 118.376L487.257 122.323L485.086 122.915V129.033L484.494 130.02L482.521 131.401L483.113 132.388H480.745L479.758 131.401L475.614 132.388V134.361H473.837L472.653 138.9L472.061 141.269L470.877 137.914L470.088 140.085L469.298 141.269L470.877 142.848L468.509 145.018V147.979L466.338 149.36L463.772 147.979L461.404 150.742V154.097V158.241L459.233 162.188L458.444 163.175L456.865 161.596H454.497L453.313 164.951L450.747 169.885L449.563 170.872L446.8 175.016L443.642 182.91C444.103 183.371 445.024 184.726 445.024 186.463V191.594L448.773 195.936H450.747L452.129 198.699H454.497L455.286 200.277L454.497 204.224L452.721 206.001L450.747 214.881L448.773 223.368L449.958 228.104L449.563 232.446V237.972L452.721 241.919L450.747 245.669L449.958 247.839V250.997L447.984 252.181H445.024H439.695L437.13 253.563L434.959 255.536L431.801 256.128L427.065 258.102L423.512 260.273L421.144 262.641L418.381 268.364L416.21 266.785V265.207H411.474V267.575L410.29 271.522L408.316 275.074V279.021L401.211 287.902H395.685L392.133 291.455L385.62 297.77H382.858L380.292 299.941H378.516L377.726 301.322H374.569H372.398L370.819 302.704H369.635L367.464 304.085L368.253 306.848L370.819 309.019V312.769L368.253 316.124L366.872 315.137L363.912 317.11L361.543 317.9L360.754 319.281L359.175 320.465H357.991L356.215 321.452L352.07 324.413H348.715L346.15 327.373V330.53L343.782 329.938L340.624 326.386L338.453 327.965L336.282 330.53H331.743L323.257 328.952L320.099 331.912L315.955 333.885L311.021 343.951L309.639 348.49L300.956 345.332L294.641 351.253L292.864 348.49L284.576 357.568L285.168 364.081L287.536 368.225L289.707 374.738L285.168 383.224L289.707 399.407H287.536L285.168 392.697V388.158L281.418 392.697H274.905L281.418 395.854H274.905V409.669L279.444 413.814L281.418 411.643L285.168 415.195H292.864L294.641 419.339L302.535 417.366L306.679 426.247L313.586 433.549L317.731 439.272L321.678 445.587H327.796L336.677 457.626L341.019 453.087L346.544 459.205L349.307 467.099L341.019 470.257V482.492L334.703 488.61L323.257 495.123L312.008 498.083H298.982H287.536H272.537H259.512L244.316 507.556L240.763 513.872L237.605 519.2L228.133 524.923L225.567 529.66L221.225 533.212V546.04L218.265 549.395L208.397 543.277L204.253 540.909V537.159L197.148 539.725L193.201 542.488H185.702L182.741 543.277L184.912 549.395V551.961L182.741 553.145L181.162 550.382L177.018 546.04L176.031 540.909L174.847 539.725L172.282 535.383H167.15L170.703 538.738L172.282 543.277H169.124L163.795 537.949L159.454 532.028L157.283 530.647V526.897L154.52 526.108H149.191L144.455 523.739H141.692V527.686L145.836 529.66H149.191L150.178 530.647L153.138 532.028V534.791L149.191 535.383H145.836V536.37V539.725L146.626 543.277L144.455 547.422V550.382L141.692 549.395L140.705 547.816L138.929 549.395L137.745 547.422L135.179 549.395L134.587 551.961L133.206 554.329H130.64H127.482L125.114 556.5V554.329V549.395H127.482H130.64V547.816H127.482V546.04L128.864 544.659L133.206 544.264H135.771L137.153 543.277V541.896H134.587L135.179 537.949V536.37L133.206 535.383H130.64H130.245L128.864 537.949L130.64 540.909L127.482 539.725L125.114 540.909L126.693 542.488L125.114 544.659L120.575 546.04V544.659H115.246L120.575 539.725V536.37L117.615 534.791H115.246L112.089 539.725H107.747L103.997 537.159L100.05 534.791L98.6688 533.212V532.028L102.616 529.66L104.787 530.647H110.707L112.089 527.686H107.747L105.971 524.923L108.734 522.753H114.062V524.923L116.825 526.108L117.615 522.753L118.799 519.2L115.246 518.411H108.734L100.05 521.174L94.327 518.411L89.9852 513.872L88.9985 517.029L82.4858 518.411L74.197 515.648V513.872L79.9202 512.293L82.4858 510.122L86.0382 507.556L88.0117 504.793L89.9852 505.583L92.7482 508.74L98.6688 504.793L94.327 505.583L89.9852 503.215L88.0117 495.123L91.5641 488.61L94.327 482.492H97.8794L100.05 476.572L97.8794 472.033L95.7085 468.48L101.432 472.033L103.997 470.257H107.747L106.958 467.099V462.757L110.707 464.928H118.799L122.351 461.77L129.851 459.6L133.206 459.205L135.179 460.586L137.153 463.744L139.916 462.757L142.481 464.928L148.007 467.099L145.836 462.757L138.929 457.626L135.179 456.442L133.206 453.087H130.64V456.442L125.114 457.626L121.562 458.415L117.615 457.626L116.825 450.127L113.273 454.863L108.734 450.127V442.232L115.246 430.391L119.588 422.892V415.195L122.351 413.814L123.535 409.669H130.64L127.68 406.117L130.64 399.407L129.259 395.854L133.206 392.697L125.114 390.921L123.535 388.158L126.298 383.224L131.824 376.514V372.567L119.588 380.264L116.825 376.514L115.246 372.567H110.707L108.734 375.724L106.958 374.738L97.4847 368.225H92.3535L90.7747 364.081L85.0514 358.949H81.4991V364.081L77.552 369.212L70.2499 371.58V370.593L73.0129 364.081L67.8817 359.936L67.0923 355.2L65.9081 351.253L54.4617 349.476V347.108L51.304 345.529L47.3569 340.595L52.2908 339.411L53.0802 335.267L54.4617 328.952L52.2908 323.228L65.9081 310.993L70.2499 305.269L77.552 303.098L80.5123 296.98L90.7747 285.929L92.3535 289.086L103.011 290.27L104.195 285.929L102.221 282.179L119.588 270.338L127.877 273.101L132.614 269.154V263.233L141.494 258.497H142.481H149.586L146.428 255.339L150.77 249.616L155.112 247.247L159.256 248.629L164.979 244.879L167.348 248.629L173.466 246.261L171.689 243.892L175.637 242.708L178.992 237.38L181.755 231.064V227.315L186.294 224.946L193.201 220.999L197.345 215.868L200.306 206.001L208.595 200.277L212.344 201.659L211.16 195.738L214.12 181.726L217.278 173.043L222.015 170.477L225.764 169.096L223.396 163.767L231.882 169.096L234.645 166.135L242.145 159.82L250.631 167.319L249.644 170.477L261.485 180.147L254.973 183.897L264.248 185.278L276.089 188.041L287.141 189.226L295.035 192.975L309.245 193.765L313.784 190.212L321.481 193.765L328.191 199.291L333.322 197.909L338.65 190.212L342.4 183.108V176.2L335.493 169.096L333.322 165.148L329.375 158.241L325.822 154.097L323.652 146.005L324.441 140.282L342.4 136.335L354.241 138.308L363.912 139.098L365.293 135.348L372.99 136.335L378.91 134.164L390.752 136.335L392.528 130.02H397.659L401.409 124.888L407.527 122.323L412.658 118.968V113.047V106.14L417.986 101.403L426.867 95.4827L436.932 104.561L437.919 100.614L440.09 95.4827L448.379 98.2457L450.55 93.7066V83.2468L453.51 79.8918L451.931 78.5104L455.089 73.1818L452.523 71.2083L455.878 63.3142L458.444 55.0253L459.233 46.5391L461.009 42L467.127 43.5788L472.061 45.7497L476.403 43.5788L480.745 44.1709L477.982 50.4862L490.415 52.4597L489.428 56.9988L488.244 68.248L500.677 79.8918L508.177 85.6151L518.637 101.403Z" fill="#F3E8CB"/>
</g>
<g filter="url(#filter1_d)">
<path d="M314.179 452.692V476.375H320.297L322.073 466.31H328.783L330.954 476.375V486.242H309.442L297.798 491.966L280.826 489.795L260.893 491.966L255.367 497.097L238 504.794L232.08 517.029L215.897 525.91L203.266 533.805H191.622H180.768V529.068L163.203 525.91L156.493 520.582L144.455 519.398L138.929 520.582V529.068L137.153 532.028H131.232H124.522L120.18 529.068L122.154 525.91V517.029H117.22L112.878 511.504H100.05L106.366 506.57L101.432 502.031L100.05 494.136V489.795L110.707 486.242L116.036 476.375L122.154 470.257L129.259 471.441H140.508H146.428L151.757 476.375H162.019L159.454 473.02L154.52 471.441V465.126L148.994 460.586V454.863L134.39 445.785H122.154L120.18 433.746L124.522 427.234L127.877 417.761L137.153 414.998L134.39 410.459V400.196L138.929 387.763L137.153 381.842L140.508 374.54L135.574 368.817L122.154 372.764L112.878 364.673H100.05L91.5641 356.581L82.6832 350.858L65.9082 346.319L58.2114 340.004V334.083L62.9479 323.623V315.926L70.6447 309.414L82.6832 305.861L89.9853 299.546L98.2741 294.612L109.721 296.191V288.494L114.852 280.995L122.154 277.443L135.574 275.074L144.85 268.167L146.428 265.601L152.941 263.825H155.507L158.072 252.773H169.321L181.755 249.024L186.294 237.577L193.201 230.078L200.306 220.605L205.042 212.513L209.976 205.606L217.87 204.422V198.699V183.7L227.935 175.214L244.118 176.595L251.618 187.844L259.117 191.199H270.761L290.694 195.738L306.087 198.699L315.955 196.922L329.77 205.606L339.835 200.277L341.413 191.199L349.11 180.542L346.742 173.635L341.413 166.727L335.69 161.596L329.77 153.899L332.335 150.939L336.874 155.676H344.571V146.597L342.598 143.045L355.623 141.861L365.293 143.045H375.95H386.805L397.659 137.124L402.198 131.401L405.948 127.059L412.855 129.033L415.618 119.955L420.947 111.074L432.196 107.127H439.893L443.445 100.022H454.102L455.878 90.7464L457.654 81.0761L466.338 72.3925L476.995 65.8799L486.468 77.129L493.967 84.0364L505.809 87.3914L507.98 98.2458L505.809 103.377H497.125L495.941 111.074L490.02 113.245L482.718 119.955L478.574 127.059L474.035 129.033L466.338 135.743V143.045H461.207L455.878 152.913L450.747 155.676L444.826 167.912L438.709 180.542V191.199L444.826 200.277L447.984 205.606L443.445 220.605V232.051V245.471L436.735 249.418H420.157L402.001 259.089L395.291 273.298L385.818 284.745L366.675 291.455L353.255 302.901V319.084H342.795H329.572H319.902H314.179L307.469 339.214L301.745 331.517L282.799 339.214L277.076 349.674L271.353 361.12V378.29L260.893 403.946L271.353 423.089L289.509 429.799L314.179 452.692Z" fill="#C1DD9B"/>
</g>
<g filter="url(#filter2_d)">
<path d="M481.732 85.8121L476.995 80.0889H466.141L459.234 91.7327L457.457 100.219V104.758H451.734L441.077 111.665L428.644 115.81L423.513 127.848V134.558H410.882L402.791 144.623L394.896 148.965L388.384 151.925H367.464H353.058L350.295 164.556L353.058 177.581V187.844L345.558 193.764L343.585 206.79L322.468 209.355L297.207 206.198H285.365L271.353 201.264L256.749 198.106L246.289 196.133L237.606 187.844L228.528 183.897L224.581 190.804L228.528 203.435L219.449 213.105L208.595 218.039L206.621 225.736L203.661 235.011L198.333 243.695L191.623 252.181L185.899 257.312L165.177 259.286L162.02 270.535L152.349 277.245L143.666 282.968L127.877 284.547L119.391 290.467L117.22 301.519L108.734 299.348H100.643L92.1565 309.413L80.9074 311.979L68.4741 321.057V331.32V341.187L82.2888 338.424L94.7221 351.055L103.011 358.554L112.681 363.093H119.391H127.877H140.705L144.85 372.566L141.89 387.96V396.644V403.748L143.666 417.958L139.324 428.023L137.745 438.877L150.178 445.587L159.257 454.863L162.02 463.152L164.388 469.664L169.914 473.217L175.242 476.177L181.755 476.966L183.136 479.927L181.755 482.295L170.703 479.927L157.283 480.716L150.178 478.743L139.916 475.388L125.115 479.927V488.018L117.22 495.912L132.022 512.687H146.823L171.887 517.424L195.372 523.147L222.41 512.687L238.987 495.912L251.815 488.018L266.222 482.492H291.286H307.864V468.283L291.286 453.481L270.959 436.312L256.157 424.076L251.815 403.748V386.579L260.499 366.448L266.222 349.279L280.234 323.425L302.338 311.19H322.468L342.203 306.058L345.558 292.836L361.149 287.705L370.425 283.955L381.871 277.245L388.384 268.759L394.896 261.851L396.87 251.984V243.497L402.791 239.748H425.881L428.644 229.288L434.959 222.775L437.722 209.75L434.959 196.922L431.999 180.542L437.722 165.543L447.59 149.557L459.234 134.558L470.483 122.717L479.364 111.665L492.192 103.969L494.56 91.7327L481.732 85.8121Z" fill="#356740"/>
</g>
<g filter="url(#filter3_d)">
<path d="M138.929 481.111L133.995 487.031L129.456 498.478L136.955 505.977H151.559L164.387 509.135H177.61L192.214 513.279L207.016 509.135L213.134 501.044V494.136L218.265 487.031L225.764 485.65L240.368 481.111L260.696 477.361L284.575 473.217H294.048V468.678L288.128 458.415L267.011 443.416L256.749 436.904L248.262 429.799L244.118 402.959V393.091L248.262 366.054L259.117 348.095L267.011 334.083L273.524 318.492L288.128 306.651L297.798 300.927H324.638L336.479 292.441L347.729 280.797L369.832 275.271L382.857 259.088L384.831 244.682L391.936 236.195L403.185 231.262L417.394 229.683L423.512 223.367L427.854 203.04L425.683 191.791V176.2L429.828 166.332L433.775 157.846L439.498 146.202L434.367 139.492H420.749L409.5 149.163L389.962 159.228H377.726H362.53L366.477 174.227L362.53 194.949L357.201 212.118L342.795 214.092L317.928 218.631L302.535 216.46L284.97 214.092L267.011 212.118L259.117 214.092L236.224 203.04L228.527 214.092L214.712 233.827L195.964 255.141L184.912 264.417H177.61L170.505 272.311L165.769 280.797L151.559 287.902L144.455 289.678H131.232L127.877 298.362L126.495 302.111L119.983 308.821L116.233 316.716H104.589L99.2607 325.004V336.254L107.155 345.332L116.233 353.226L127.877 355.989H142.284L151.559 358.357L153.928 370.988L155.506 380.658L151.559 395.854L157.875 405.525V421.905L153.928 439.272L161.23 445.982L170.505 456.639L177.61 466.704L184.912 470.059L190.833 473.217L195.964 477.361L201.884 481.111L207.016 484.071V487.031H199.714H186.886L179.386 485.65H170.505H161.23H151.559L144.455 484.071L138.929 481.111Z" fill="#539882"/>
<path d="M442.261 135.348L437.327 131.401L434.367 124.888L437.327 117.783L450.944 113.244L458.049 113.442L461.601 117.783V122.125L455.286 128.638L450.155 133.966L442.261 135.348Z" fill="#539882"/>
<path d="M472.258 104.956L465.154 102.193V95.6799L470.482 86.4043L475.811 87.9831L478.574 92.917L487.455 94.6931V99.0349L480.942 103.179L472.258 104.956Z" fill="#539882"/>
</g>
<g filter="url(#filter4_d)">
<path d="M137.152 497.688L141.099 487.426L143.468 485.452L146.625 488.215H152.941H163.006L169.518 490.386H179.781L187.477 491.176L193.99 491.965H200.503L204.845 489.597L209.976 492.755L208.594 498.478V502.03L205.831 504.596L201.095 506.767L198.135 508.345H192.214H188.464L182.544 506.767L178.399 504.596H172.676H166.558H159.453L155.506 503.806L151.164 502.03L145.836 500.451H141.889H139.521L137.152 497.688Z" fill="#A2896D"/>
<path d="M215.699 484.071L211.555 483.282V479.927L203.463 476.374L196.95 471.44L192.609 467.888L183.925 461.375L176.623 455.455L175.636 449.929L164.584 440.259L160.045 435.325L163.4 428.22L162.216 412.629L160.045 402.367V398.814L157.874 389.933L162.216 376.513V366.448L175.636 361.515L182.544 366.448L193.99 371.382L201.095 381.25L231.093 389.933H239.973L240.368 396.249L238.395 405.13L240.368 410.656L242.144 422.497L243.328 431.378L245.105 438.285L256.946 442.232L268.195 449.929L271.55 454.271L276.879 458.81L285.167 461.375L288.917 464.73V470.454L285.167 471.44H280.826H271.55H265.827H259.906L247.67 475.387L238.395 477.953L234.25 478.742L224.975 481.308L219.054 483.282L215.699 484.071Z" fill="#A2896D"/>
<path d="M259.906 339.411L248.854 354.41H231.093L221.817 357.173L213.528 361.515L200.503 357.173L193.99 348.095L189.056 334.675L175.636 330.333L157.874 339.411L137.152 330.333L132.219 325.202L122.746 312.966L129.258 307.045L132.219 299.546L133.6 293.822H137.547L144.257 294.809H149.388L160.045 289.283L164.387 284.547L173.071 281.784V277.245L176.031 269.943H180.767L189.056 267.18L198.135 260.864L205.042 253.562L213.528 246.26L221.817 233.827L226.159 229.88L231.093 217.249L239.973 210.539L243.328 216.065L258.525 220.012L267.011 222.183H284.181H293.061H313.389L324.638 226.328L337.269 224.354L350.097 222.183L362.925 217.249L367.464 205.408L369.24 193.962L371.016 183.897V174.226L369.24 165.543H378.91H393.909L401.803 159.03L411.276 154.294L421.144 151.531L424.696 155.872L422.92 165.543L421.144 177.187L416.605 196.527L419.368 214.486L411.276 226.328L401.803 224.354L387.988 231.854L381.673 236.59L378.91 246.26V255.141L374.371 263.43L361.543 270.14L352.07 274.877L342.597 277.245L336.282 282.968L330.559 289.283L324.638 294.809L318.125 295.993H308.455H297.798H291.877L282.404 305.072L272.931 312.966L268.195 317.11L264.248 330.333L259.906 339.411Z" fill="#A2896D"/>
<path d="M439.103 127.256L440.484 119.954L444.234 118.573L447.194 116.797H453.51L455.483 118.573V122.915L452.128 124.888L447.194 130.019H442.261L439.103 127.256Z" fill="#A2896D"/>
<path d="M472.653 101.008H467.916V97.0612L470.679 91.1406H473.64L475.416 93.5089L479.166 95.285L481.731 98.64L478.376 101.008H472.653Z" fill="#A2896D"/>
</g>
<g filter="url(#filter5_d)">
<path d="M232.277 235.998L237.606 227.709H254.183L276.089 230.275L292.667 233.433H318.718H345.36H361.938L368.451 246.063L364.109 257.904L352.268 264.22L337.269 272.311L318.718 285.731L311.218 287.705L297.206 281.587L284.97 285.731L276.089 295.402L261.88 308.23L254.183 322.636L251.026 333.688L241.947 340.99L225.567 344.74H210.173L202.674 328.952L194.977 317.505L178.202 312.769L163.598 328.952L148.402 324.215L144.06 312.769L153.928 299.546L170.703 292.047L189.057 278.627L206.424 269.746L212.147 257.904L225.567 246.063L232.277 235.998Z" fill="#FFBD3A"/>
<path d="M391.738 223.565H371.608L373.582 213.895V205.606L376.345 193.173V180.937V170.28L391.738 168.701L411.671 165.148V173.832V187.252L401.014 213.895L391.738 223.565Z" fill="#FFBD3A"/>
<path d="M253.788 466.112L227.935 467.691L213.726 470.454L198.924 459.402L187.083 452.495L175.045 441.64L165.374 435.522L168.532 425.655V420.129L165.374 408.09V395.854V374.343L170.703 369.212L178.202 382.04L189.057 392.894L198.924 408.09L213.726 413.814L233.264 415.984L235.04 432.957L246.092 450.916L259.314 456.837L266.419 463.152L253.788 466.112Z" fill="#FFBD3A"/>
<path d="M146.428 495.123L147.415 491.373L156.296 492.952H160.835V496.11V499.268L154.322 498.281L149.586 496.899L146.428 495.123Z" fill="#FFBD3A"/>
</g>
<circle cx="243.233" cy="219.233" r="14.2334" fill="black"/>
<g filter="url(#filter6_d)">
<path fill-rule="evenodd" clip-rule="evenodd" d="M239.692 223.688L236.387 222.444L235.966 223.465C235.966 223.465 235.563 225.116 237.007 225.66C238.453 226.205 239.286 224.714 239.286 224.714L239.692 223.688Z" fill="white"/>
<path fill-rule="evenodd" clip-rule="evenodd" d="M242.109 214.659C240.681 214.085 238.676 215.343 237.982 216.927C237.697 217.579 237.567 218.283 237.459 218.977C237.408 219.309 237.371 219.649 237.306 219.98C237.223 220.395 237.098 220.794 236.975 221.197C236.803 221.756 236.992 221.85 237.513 221.946L239.338 222.635C239.525 222.724 239.888 222.947 240.075 222.738C240.241 222.551 240.208 222.21 240.318 221.989C240.461 221.701 240.621 221.407 240.797 221.136C241.188 220.529 241.929 220.085 242.431 219.561C243.053 218.91 243.397 218.258 243.587 217.395C243.839 216.246 243.259 215.119 242.109 214.659V214.659Z" fill="white"/>
<path fill-rule="evenodd" clip-rule="evenodd" d="M243.65 219.961L246.83 221.216C246.83 221.216 246.174 223.786 244.232 223.038C242.29 222.289 243.65 219.961 243.65 219.961V219.961Z" fill="white"/>
<path fill-rule="evenodd" clip-rule="evenodd" d="M248.185 212.069C249.542 212.574 250.089 214.712 249.517 216.251C249.281 216.884 248.906 217.451 248.52 218.004C248.336 218.266 248.136 218.524 247.961 218.796C247.746 219.136 247.567 219.493 247.386 219.85C247.133 220.346 246.94 220.289 246.519 220.029L244.81 219.357C244.624 219.301 244.228 219.224 244.238 218.964C244.248 218.729 244.496 218.512 244.567 218.291C244.659 218.001 244.743 217.695 244.801 217.396C244.933 216.728 244.717 215.951 244.721 215.273C244.721 214.43 244.918 213.759 245.358 213.041C245.947 212.079 247.091 211.665 248.185 212.069V212.069Z" fill="white"/>
</g>
<circle cx="131.233" cy="364.233" r="14.2334" fill="black"/>
<g filter="url(#filter7_d)">
<path fill-rule="evenodd" clip-rule="evenodd" d="M127.692 368.688L124.387 367.444L123.966 368.465C123.966 368.465 123.563 370.116 125.007 370.66C126.453 371.205 127.286 369.714 127.286 369.714L127.692 368.688Z" fill="white"/>
<path fill-rule="evenodd" clip-rule="evenodd" d="M130.109 359.659C128.681 359.085 126.676 360.343 125.982 361.927C125.697 362.579 125.567 363.283 125.459 363.977C125.408 364.309 125.371 364.649 125.306 364.98C125.223 365.395 125.098 365.794 124.975 366.197C124.803 366.756 124.992 366.85 125.513 366.946L127.338 367.635C127.525 367.724 127.888 367.947 128.075 367.738C128.241 367.551 128.208 367.21 128.318 366.989C128.461 366.701 128.621 366.407 128.797 366.136C129.188 365.529 129.929 365.085 130.431 364.561C131.053 363.91 131.397 363.258 131.587 362.395C131.839 361.246 131.259 360.119 130.109 359.659V359.659Z" fill="white"/>
<path fill-rule="evenodd" clip-rule="evenodd" d="M131.65 364.961L134.83 366.216C134.83 366.216 134.174 368.786 132.232 368.038C130.29 367.289 131.65 364.961 131.65 364.961V364.961Z" fill="white"/>
<path fill-rule="evenodd" clip-rule="evenodd" d="M136.185 357.069C137.542 357.574 138.089 359.712 137.517 361.251C137.281 361.884 136.906 362.451 136.52 363.004C136.336 363.266 136.136 363.524 135.961 363.796C135.746 364.136 135.567 364.493 135.386 364.85C135.133 365.346 134.94 365.289 134.519 365.029L132.81 364.357C132.624 364.301 132.228 364.224 132.238 363.964C132.248 363.729 132.496 363.512 132.567 363.291C132.659 363.001 132.743 362.695 132.801 362.396C132.933 361.728 132.717 360.951 132.721 360.273C132.721 359.43 132.918 358.759 133.358 358.041C133.947 357.079 135.091 356.665 136.185 357.069V357.069Z" fill="white"/>
</g>
<circle cx="338.233" cy="238.233" r="14.2334" fill="black"/>
<g filter="url(#filter8_d)">
<path fill-rule="evenodd" clip-rule="evenodd" d="M334.692 242.688L331.387 241.444L330.966 242.465C330.966 242.465 330.563 244.116 332.007 244.66C333.453 245.205 334.286 243.714 334.286 243.714L334.692 242.688Z" fill="white"/>
<path fill-rule="evenodd" clip-rule="evenodd" d="M337.109 233.659C335.681 233.085 333.676 234.343 332.982 235.927C332.697 236.579 332.567 237.283 332.459 237.977C332.408 238.309 332.371 238.649 332.306 238.98C332.223 239.395 332.098 239.794 331.975 240.197C331.803 240.756 331.992 240.85 332.513 240.946L334.338 241.635C334.525 241.724 334.888 241.947 335.075 241.738C335.241 241.551 335.208 241.21 335.318 240.989C335.461 240.701 335.621 240.407 335.797 240.136C336.188 239.529 336.929 239.085 337.431 238.561C338.053 237.91 338.397 237.258 338.587 236.395C338.839 235.246 338.259 234.119 337.109 233.659V233.659Z" fill="white"/>
<path fill-rule="evenodd" clip-rule="evenodd" d="M338.65 238.961L341.83 240.216C341.83 240.216 341.174 242.786 339.232 242.038C337.29 241.289 338.65 238.961 338.65 238.961V238.961Z" fill="white"/>
<path fill-rule="evenodd" clip-rule="evenodd" d="M343.185 231.069C344.542 231.574 345.089 233.712 344.517 235.251C344.281 235.884 343.906 236.451 343.52 237.004C343.336 237.266 343.136 237.524 342.961 237.796C342.746 238.136 342.567 238.493 342.386 238.85C342.133 239.346 341.94 239.289 341.519 239.029L339.81 238.357C339.624 238.301 339.228 238.224 339.238 237.964C339.248 237.729 339.496 237.512 339.567 237.291C339.659 237.001 339.743 236.695 339.801 236.396C339.933 235.728 339.717 234.951 339.721 234.273C339.721 233.43 339.918 232.759 340.358 232.041C340.947 231.079 342.091 230.665 343.185 231.069V231.069Z" fill="white"/>
</g>
<circle cx="439.233" cy="245.233" r="14.2334" fill="black"/>
<g filter="url(#filter9_d)">
<path fill-rule="evenodd" clip-rule="evenodd" d="M435.692 249.688L432.387 248.444L431.966 249.465C431.966 249.465 431.563 251.116 433.007 251.66C434.453 252.205 435.286 250.714 435.286 250.714L435.692 249.688Z" fill="white"/>
<path fill-rule="evenodd" clip-rule="evenodd" d="M438.109 240.659C436.681 240.085 434.676 241.343 433.982 242.927C433.697 243.579 433.567 244.283 433.459 244.977C433.408 245.309 433.371 245.649 433.306 245.98C433.223 246.395 433.098 246.794 432.975 247.197C432.803 247.756 432.992 247.85 433.513 247.946L435.338 248.635C435.525 248.724 435.888 248.947 436.075 248.738C436.241 248.551 436.208 248.21 436.318 247.989C436.461 247.701 436.621 247.407 436.797 247.136C437.188 246.529 437.929 246.085 438.431 245.561C439.053 244.91 439.397 244.258 439.587 243.395C439.839 242.246 439.259 241.119 438.109 240.659V240.659Z" fill="white"/>
<path fill-rule="evenodd" clip-rule="evenodd" d="M439.65 245.961L442.83 247.216C442.83 247.216 442.174 249.786 440.232 249.038C438.29 248.289 439.65 245.961 439.65 245.961V245.961Z" fill="white"/>
<path fill-rule="evenodd" clip-rule="evenodd" d="M444.185 238.069C445.542 238.574 446.089 240.712 445.517 242.251C445.281 242.884 444.906 243.451 444.52 244.004C444.336 244.266 444.136 244.524 443.961 244.796C443.746 245.136 443.567 245.493 443.386 245.85C443.133 246.346 442.94 246.289 442.519 246.029L440.81 245.357C440.624 245.301 440.228 245.224 440.238 244.964C440.248 244.729 440.496 244.512 440.567 244.291C440.659 244.001 440.743 243.695 440.801 243.396C440.933 242.728 440.717 241.951 440.721 241.273C440.721 240.43 440.918 239.759 441.358 239.041C441.947 238.079 443.091 237.665 444.185 238.069V238.069Z" fill="white"/>
</g>
<circle cx="435.233" cy="112.233" r="14.2334" fill="black"/>
<g filter="url(#filter10_d)">
<path fill-rule="evenodd" clip-rule="evenodd" d="M431.692 116.688L428.387 115.444L427.966 116.465C427.966 116.465 427.563 118.116 429.007 118.66C430.453 119.205 431.286 117.714 431.286 117.714L431.692 116.688Z" fill="white"/>
<path fill-rule="evenodd" clip-rule="evenodd" d="M434.109 107.659C432.681 107.085 430.676 108.343 429.982 109.927C429.697 110.579 429.567 111.283 429.459 111.977C429.408 112.309 429.371 112.649 429.306 112.98C429.223 113.395 429.098 113.794 428.975 114.197C428.803 114.756 428.992 114.85 429.513 114.946L431.338 115.635C431.525 115.724 431.888 115.947 432.075 115.738C432.241 115.551 432.208 115.21 432.318 114.989C432.461 114.701 432.621 114.407 432.797 114.136C433.188 113.529 433.929 113.085 434.431 112.561C435.053 111.91 435.397 111.258 435.587 110.395C435.839 109.246 435.259 108.119 434.109 107.659V107.659Z" fill="white"/>
<path fill-rule="evenodd" clip-rule="evenodd" d="M435.65 112.961L438.83 114.216C438.83 114.216 438.174 116.786 436.232 116.038C434.29 115.289 435.65 112.961 435.65 112.961V112.961Z" fill="white"/>
<path fill-rule="evenodd" clip-rule="evenodd" d="M440.185 105.069C441.542 105.574 442.089 107.712 441.517 109.251C441.281 109.884 440.906 110.451 440.52 111.004C440.336 111.266 440.136 111.524 439.961 111.796C439.746 112.136 439.567 112.493 439.386 112.85C439.133 113.346 438.94 113.289 438.519 113.029L436.81 112.357C436.624 112.301 436.228 112.224 436.238 111.964C436.248 111.729 436.496 111.512 436.567 111.291C436.659 111.001 436.743 110.695 436.801 110.396C436.933 109.728 436.717 108.951 436.721 108.273C436.721 107.43 436.918 106.759 437.358 106.041C437.947 105.079 439.091 104.665 440.185 105.069V105.069Z" fill="white"/>
</g>
<circle cx="259.233" cy="437.233" r="14.2334" fill="black"/>
<g filter="url(#filter11_d)">
<path fill-rule="evenodd" clip-rule="evenodd" d="M255.692 441.688L252.387 440.444L251.966 441.465C251.966 441.465 251.563 443.116 253.007 443.66C254.453 444.205 255.286 442.714 255.286 442.714L255.692 441.688Z" fill="white"/>
<path fill-rule="evenodd" clip-rule="evenodd" d="M258.109 432.659C256.681 432.085 254.676 433.343 253.982 434.927C253.697 435.579 253.567 436.283 253.459 436.977C253.408 437.309 253.371 437.649 253.306 437.98C253.223 438.395 253.098 438.794 252.975 439.197C252.803 439.756 252.992 439.85 253.513 439.946L255.338 440.635C255.525 440.724 255.888 440.947 256.075 440.738C256.241 440.551 256.208 440.21 256.318 439.989C256.461 439.701 256.621 439.407 256.797 439.136C257.188 438.529 257.929 438.085 258.431 437.561C259.053 436.91 259.397 436.258 259.587 435.395C259.839 434.246 259.259 433.119 258.109 432.659V432.659Z" fill="white"/>
<path fill-rule="evenodd" clip-rule="evenodd" d="M259.65 437.961L262.83 439.216C262.83 439.216 262.174 441.786 260.232 441.038C258.29 440.289 259.65 437.961 259.65 437.961V437.961Z" fill="white"/>
<path fill-rule="evenodd" clip-rule="evenodd" d="M264.185 430.069C265.542 430.574 266.089 432.712 265.517 434.251C265.281 434.884 264.906 435.451 264.52 436.004C264.336 436.266 264.136 436.524 263.961 436.796C263.746 437.136 263.567 437.493 263.386 437.85C263.133 438.346 262.94 438.289 262.519 438.029L260.81 437.357C260.624 437.301 260.228 437.224 260.238 436.964C260.248 436.729 260.496 436.512 260.567 436.291C260.659 436.001 260.743 435.695 260.801 435.396C260.933 434.728 260.717 433.951 260.721 433.273C260.721 432.43 260.918 431.759 261.358 431.041C261.947 430.079 263.091 429.665 264.185 430.069V430.069Z" fill="white"/>
</g>
<circle cx="113.233" cy="485.233" r="14.2334" fill="black"/>
<g filter="url(#filter12_d)">
<path fill-rule="evenodd" clip-rule="evenodd" d="M109.692 489.688L106.387 488.444L105.966 489.465C105.966 489.465 105.563 491.116 107.007 491.66C108.453 492.205 109.286 490.714 109.286 490.714L109.692 489.688Z" fill="white"/>
<path fill-rule="evenodd" clip-rule="evenodd" d="M112.109 480.659C110.681 480.085 108.676 481.343 107.982 482.927C107.697 483.579 107.567 484.283 107.459 484.977C107.408 485.309 107.371 485.649 107.306 485.98C107.223 486.395 107.098 486.794 106.975 487.197C106.803 487.756 106.992 487.85 107.513 487.946L109.338 488.635C109.525 488.724 109.888 488.947 110.075 488.738C110.241 488.551 110.208 488.21 110.318 487.989C110.461 487.701 110.621 487.407 110.797 487.136C111.188 486.529 111.929 486.085 112.431 485.561C113.053 484.91 113.397 484.258 113.587 483.395C113.839 482.246 113.259 481.119 112.109 480.659V480.659Z" fill="white"/>
<path fill-rule="evenodd" clip-rule="evenodd" d="M113.65 485.961L116.83 487.216C116.83 487.216 116.174 489.786 114.232 489.038C112.29 488.289 113.65 485.961 113.65 485.961V485.961Z" fill="white"/>
<path fill-rule="evenodd" clip-rule="evenodd" d="M118.185 478.069C119.542 478.574 120.089 480.712 119.517 482.251C119.281 482.884 118.906 483.451 118.52 484.004C118.336 484.266 118.136 484.524 117.961 484.796C117.746 485.136 117.567 485.493 117.386 485.85C117.133 486.346 116.94 486.289 116.519 486.029L114.81 485.357C114.624 485.301 114.228 485.224 114.238 484.964C114.248 484.729 114.496 484.512 114.567 484.291C114.659 484.001 114.743 483.695 114.801 483.396C114.933 482.728 114.717 481.951 114.721 481.273C114.721 480.43 114.918 479.759 115.358 479.041C115.947 478.079 117.091 477.665 118.185 478.069V478.069Z" fill="white"/>
</g>
<circle cx="158.233" cy="523.233" r="14.2334" fill="black"/>
<g filter="url(#filter13_d)">
<path fill-rule="evenodd" clip-rule="evenodd" d="M154.692 527.688L151.387 526.444L150.966 527.465C150.966 527.465 150.563 529.116 152.007 529.66C153.453 530.205 154.286 528.714 154.286 528.714L154.692 527.688Z" fill="white"/>
<path fill-rule="evenodd" clip-rule="evenodd" d="M157.109 518.659C155.681 518.085 153.676 519.343 152.982 520.927C152.697 521.579 152.567 522.283 152.459 522.977C152.408 523.309 152.371 523.649 152.306 523.98C152.223 524.395 152.098 524.794 151.975 525.197C151.803 525.756 151.992 525.85 152.513 525.946L154.338 526.635C154.525 526.724 154.888 526.947 155.075 526.738C155.241 526.551 155.208 526.21 155.318 525.989C155.461 525.701 155.621 525.407 155.797 525.136C156.188 524.529 156.929 524.085 157.431 523.561C158.053 522.91 158.397 522.258 158.587 521.395C158.839 520.246 158.259 519.119 157.109 518.659V518.659Z" fill="white"/>
<path fill-rule="evenodd" clip-rule="evenodd" d="M158.65 523.961L161.83 525.216C161.83 525.216 161.174 527.786 159.232 527.038C157.29 526.289 158.65 523.961 158.65 523.961V523.961Z" fill="white"/>
<path fill-rule="evenodd" clip-rule="evenodd" d="M163.185 516.069C164.542 516.574 165.089 518.712 164.517 520.251C164.281 520.884 163.906 521.451 163.52 522.004C163.336 522.266 163.136 522.524 162.961 522.796C162.746 523.136 162.567 523.493 162.386 523.85C162.133 524.346 161.94 524.289 161.519 524.029L159.81 523.357C159.624 523.301 159.228 523.224 159.238 522.964C159.248 522.729 159.496 522.512 159.567 522.291C159.659 522.001 159.743 521.695 159.801 521.396C159.933 520.728 159.717 519.951 159.721 519.273C159.721 518.43 159.918 517.759 160.358 517.041C160.947 516.079 162.091 515.665 163.185 516.069V516.069Z" fill="white"/>
</g>
<path d="M88 231L120 342" stroke="black"/>
<path d="M52.96 208.624C52.96 205.312 50.944 203.2 47.536 203.2H41.488V220H45.592V214.12H47.56C50.824 214.12 52.96 211.888 52.96 208.624ZM46.984 206.728C48.112 206.728 48.76 207.496 48.76 208.624C48.76 209.776 48.136 210.592 46.936 210.592H45.592V206.728H46.984ZM67.051 207.4H62.875L60.547 214.648L58.315 207.4H54.019L58.723 219.592L57.019 224.296H60.811L67.051 207.4ZM67.7149 213.736C67.7149 217.528 70.5469 220.312 74.5549 220.312C78.5389 220.312 81.4669 217.48 81.4669 213.688C81.4669 209.872 78.6109 207.088 74.5549 207.088C70.6669 207.088 67.7149 209.92 67.7149 213.736ZM71.7229 213.736C71.7229 211.888 72.8989 210.616 74.5549 210.616C76.1869 210.616 77.4589 211.84 77.4589 213.688C77.4589 215.488 76.2109 216.784 74.5549 216.784C72.9229 216.784 71.7229 215.56 71.7229 213.736ZM90.5206 220H94.5286V213.016C94.5286 210.448 94.1446 207.088 90.2086 207.088C88.6246 207.088 87.5206 207.952 87.0406 208.696V207.4H83.1286V220H87.1366V212.488C87.1366 211.48 87.7606 210.688 88.8646 210.688C89.8246 210.688 90.5206 211.312 90.5206 212.488V220ZM105.41 219.352C105.41 220.888 103.922 221.224 102.434 221.224C100.73 221.224 99.3138 220.624 98.9538 220.456L97.7778 223.528C98.9058 224.104 100.658 224.608 102.434 224.608C106.178 224.608 109.418 223.144 109.418 218.488V207.4H105.674V208.384C105.314 207.976 104.114 207.088 102.266 207.088C98.6418 207.088 96.0978 209.824 96.0978 213.688C96.0978 217.6 98.4018 220.312 102.05 220.312C103.97 220.312 105.146 219.352 105.41 219.04V219.352ZM105.53 213.664C105.53 215.656 104.402 216.784 102.818 216.784C101.186 216.784 100.106 215.512 100.106 213.664C100.106 211.792 101.186 210.616 102.794 210.616C104.522 210.616 105.53 211.984 105.53 213.664ZM123.653 207.4H119.477L117.149 214.648L114.917 207.4H110.621L115.325 219.592L113.621 224.296H117.413L123.653 207.4ZM124.293 216.088C124.293 218.824 126.501 220.312 128.973 220.312C130.269 220.312 131.181 219.952 131.829 219.304L132.045 220H135.621V212.2C135.621 209.32 134.517 207.088 130.173 207.088C128.085 207.088 126.381 207.76 125.037 208.648L126.525 211.336C127.509 210.856 128.589 210.544 129.693 210.544C130.989 210.544 131.613 211.144 131.613 211.912V212.368C131.157 212.176 130.293 211.912 129.189 211.912C126.213 211.912 124.293 213.568 124.293 216.088ZM128.301 215.944C128.301 215.128 129.021 214.6 129.98 214.6C130.941 214.6 131.685 215.08 131.685 215.944C131.685 216.784 130.965 217.24 130.005 217.24C129.069 217.24 128.301 216.784 128.301 215.944ZM145.177 220H149.185V213.016C149.185 210.448 148.801 207.088 144.865 207.088C143.281 207.088 142.177 207.952 141.697 208.696V207.4H137.785V220H141.793V212.488C141.793 211.48 142.417 210.688 143.521 210.688C144.481 210.688 145.177 211.312 145.177 212.488V220ZM160.066 219.352C160.066 220.888 158.578 221.224 157.09 221.224C155.386 221.224 153.97 220.624 153.61 220.456L152.434 223.528C153.562 224.104 155.314 224.608 157.09 224.608C160.834 224.608 164.074 223.144 164.074 218.488V207.4H160.33V208.384C159.97 207.976 158.77 207.088 156.922 207.088C153.298 207.088 150.754 209.824 150.754 213.688C150.754 217.6 153.058 220.312 156.706 220.312C158.626 220.312 159.802 219.352 160.066 219.04V219.352ZM160.186 213.664C160.186 215.656 159.058 216.784 157.474 216.784C155.842 216.784 154.762 215.512 154.762 213.664C154.762 211.792 155.842 210.616 157.45 210.616C159.178 210.616 160.186 211.984 160.186 213.664Z" fill="black"/>
<path d="M446 267L465 335" stroke="black"/>
<path d="M430.808 342.872V339.2H419.456V342.872H423.08V356H427.184V342.872H430.808ZM431.738 352.088C431.738 354.824 433.946 356.312 436.418 356.312C437.714 356.312 438.626 355.952 439.274 355.304L439.49 356H443.066V348.2C443.066 345.32 441.962 343.088 437.618 343.088C435.53 343.088 433.826 343.76 432.482 344.648L433.97 347.336C434.954 346.856 436.034 346.544 437.138 346.544C438.434 346.544 439.058 347.144 439.058 347.912V348.368C438.602 348.176 437.738 347.912 436.634 347.912C433.658 347.912 431.738 349.568 431.738 352.088ZM435.746 351.944C435.746 351.128 436.466 350.6 437.426 350.6C438.386 350.6 439.13 351.08 439.13 351.944C439.13 352.784 438.41 353.24 437.45 353.24C436.514 353.24 435.746 352.784 435.746 351.944ZM452.622 356H456.63V349.016C456.63 346.448 456.246 343.088 452.31 343.088C450.726 343.088 449.622 343.952 449.142 344.696V343.4H445.23V356H449.238V348.488C449.238 347.48 449.862 346.688 450.966 346.688C451.926 346.688 452.622 347.312 452.622 348.488V356ZM465.303 352.784C463.455 352.784 462.207 351.536 462.207 349.688C462.207 348.008 463.263 346.688 465.159 346.688C466.095 346.688 466.983 347.048 467.679 347.624L468.759 344.24C467.871 343.616 466.647 343.088 465.015 343.088C461.127 343.088 458.199 345.848 458.199 349.712C458.199 353.576 461.031 356.312 465.039 356.312C466.623 356.312 467.895 355.76 468.735 355.184L467.679 351.896C467.127 352.352 466.239 352.784 465.303 352.784ZM477.772 356H481.78V349.016C481.78 346.448 481.396 343.088 477.46 343.088C475.876 343.088 474.82 343.952 474.34 344.696V338.648H470.332V356H474.34V348.488C474.34 347.48 475.012 346.688 476.116 346.688C477.076 346.688 477.772 347.312 477.772 348.488V356ZM483.348 349.736C483.348 353.528 486.18 356.312 490.188 356.312C494.172 356.312 497.1 353.48 497.1 349.688C497.1 345.872 494.244 343.088 490.188 343.088C486.3 343.088 483.348 345.92 483.348 349.736ZM487.356 349.736C487.356 347.888 488.532 346.616 490.188 346.616C491.82 346.616 493.092 347.84 493.092 349.688C493.092 351.488 491.844 352.784 490.188 352.784C488.556 352.784 487.356 351.56 487.356 349.736ZM506.153 356H510.161V349.016C510.161 346.448 509.777 343.088 505.841 343.088C504.257 343.088 503.153 343.952 502.673 344.696V343.4H498.761V356H502.769V348.488C502.769 347.48 503.393 346.688 504.497 346.688C505.457 346.688 506.153 347.312 506.153 348.488V356Z" fill="black"/>
<defs>
<filter id="filter0_d" x="46.3569" y="42" width="482.241" height="524.5" filterUnits="userSpaceOnUse" color-interpolation-filters="sRGB">
<feFlood flood-opacity="0" result="BackgroundImageFix"/>
<feColorMatrix in="SourceAlpha" type="matrix" values="0 0 0 0 0 0 0 0 0 0 0 0 0 0 0 0 0 0 127 0"/>
<feOffset dx="3" dy="6"/>
<feGaussianBlur stdDeviation="2"/>
<feColorMatrix type="matrix" values="0 0 0 0 0 0 0 0 0 0 0 0 0 0 0 0 0 0 0.25 0"/>
<feBlend mode="normal" in2="BackgroundImageFix" result="effect1_dropShadow"/>
<feBlend mode="normal" in="SourceGraphic" in2="effect1_dropShadow" result="shape"/>
</filter>
<filter id="filter1_d" x="57.2114" y="65.8799" width="457.768" height="477.925" filterUnits="userSpaceOnUse" color-interpolation-filters="sRGB">
<feFlood flood-opacity="0" result="BackgroundImageFix"/>
<feColorMatrix in="SourceAlpha" type="matrix" values="0 0 0 0 0 0 0 0 0 0 0 0 0 0 0 0 0 0 127 0"/>
<feOffset dx="3" dy="6"/>
<feGaussianBlur stdDeviation="2"/>
<feColorMatrix type="matrix" values="0 0 0 0 0 0 0 0 0 0 0 0 0 0 0 0 0 0 0.25 0"/>
<feBlend mode="normal" in2="BackgroundImageFix" result="effect1_dropShadow"/>
<feBlend mode="normal" in="SourceGraphic" in2="effect1_dropShadow" result="shape"/>
</filter>
<filter id="filter2_d" x="67.4741" y="80.0889" width="434.086" height="453.058" filterUnits="userSpaceOnUse" color-interpolation-filters="sRGB">
<feFlood flood-opacity="0" result="BackgroundImageFix"/>
<feColorMatrix in="SourceAlpha" type="matrix" values="0 0 0 0 0 0 0 0 0 0 0 0 0 0 0 0 0 0 127 0"/>
<feOffset dx="3" dy="6"/>
<feGaussianBlur stdDeviation="2"/>
<feColorMatrix type="matrix" values="0 0 0 0 0 0 0 0 0 0 0 0 0 0 0 0 0 0 0.25 0"/>
<feBlend mode="normal" in2="BackgroundImageFix" result="effect1_dropShadow"/>
<feBlend mode="normal" in="SourceGraphic" in2="effect1_dropShadow" result="shape"/>
</filter>
<filter id="filter3_d" x="98.2607" y="86.4043" width="396.194" height="436.875" filterUnits="userSpaceOnUse" color-interpolation-filters="sRGB">
<feFlood flood-opacity="0" result="BackgroundImageFix"/>
<feColorMatrix in="SourceAlpha" type="matrix" values="0 0 0 0 0 0 0 0 0 0 0 0 0 0 0 0 0 0 127 0"/>
<feOffset dx="3" dy="6"/>
<feGaussianBlur stdDeviation="2"/>
<feColorMatrix type="matrix" values="0 0 0 0 0 0 0 0 0 0 0 0 0 0 0 0 0 0 0.25 0"/>
<feBlend mode="normal" in2="BackgroundImageFix" result="effect1_dropShadow"/>
<feBlend mode="normal" in="SourceGraphic" in2="effect1_dropShadow" result="shape"/>
</filter>
<filter id="filter4_d" x="121.746" y="91.1406" width="366.986" height="427.205" filterUnits="userSpaceOnUse" color-interpolation-filters="sRGB">
<feFlood flood-opacity="0" result="BackgroundImageFix"/>
<feColorMatrix in="SourceAlpha" type="matrix" values="0 0 0 0 0 0 0 0 0 0 0 0 0 0 0 0 0 0 127 0"/>
<feOffset dx="3" dy="6"/>
<feGaussianBlur stdDeviation="2"/>
<feColorMatrix type="matrix" values="0 0 0 0 0 0 0 0 0 0 0 0 0 0 0 0 0 0 0.25 0"/>
<feBlend mode="normal" in2="BackgroundImageFix" result="effect1_dropShadow"/>
<feBlend mode="normal" in="SourceGraphic" in2="effect1_dropShadow" result="shape"/>
</filter>
<filter id="filter5_d" x="143.06" y="165.148" width="275.611" height="344.119" filterUnits="userSpaceOnUse" color-interpolation-filters="sRGB">
<feFlood flood-opacity="0" result="BackgroundImageFix"/>
<feColorMatrix in="SourceAlpha" type="matrix" values="0 0 0 0 0 0 0 0 0 0 0 0 0 0 0 0 0 0 127 0"/>
<feOffset dx="3" dy="6"/>
<feGaussianBlur stdDeviation="2"/>
<feColorMatrix type="matrix" values="0 0 0 0 0 0 0 0 0 0 0 0 0 0 0 0 0 0 0.25 0"/>
<feBlend mode="normal" in2="BackgroundImageFix" result="effect1_dropShadow"/>
<feBlend mode="normal" in="SourceGraphic" in2="effect1_dropShadow" result="shape"/>
</filter>
<filter id="filter6_d" x="231.914" y="211.915" width="21.8278" height="21.8649" filterUnits="userSpaceOnUse" color-interpolation-filters="sRGB">
<feFlood flood-opacity="0" result="BackgroundImageFix"/>
<feColorMatrix in="SourceAlpha" type="matrix" values="0 0 0 0 0 0 0 0 0 0 0 0 0 0 0 0 0 0 127 0"/>
<feOffset dy="4"/>
<feGaussianBlur stdDeviation="2"/>
<feColorMatrix type="matrix" values="0 0 0 0 0 0 0 0 0 0 0 0 0 0 0 0 0 0 0.25 0"/>
<feBlend mode="normal" in2="BackgroundImageFix" result="effect1_dropShadow"/>
<feBlend mode="normal" in="SourceGraphic" in2="effect1_dropShadow" result="shape"/>
</filter>
<filter id="filter7_d" x="119.914" y="356.915" width="21.8278" height="21.8649" filterUnits="userSpaceOnUse" color-interpolation-filters="sRGB">
<feFlood flood-opacity="0" result="BackgroundImageFix"/>
<feColorMatrix in="SourceAlpha" type="matrix" values="0 0 0 0 0 0 0 0 0 0 0 0 0 0 0 0 0 0 127 0"/>
<feOffset dy="4"/>
<feGaussianBlur stdDeviation="2"/>
<feColorMatrix type="matrix" values="0 0 0 0 0 0 0 0 0 0 0 0 0 0 0 0 0 0 0.25 0"/>
<feBlend mode="normal" in2="BackgroundImageFix" result="effect1_dropShadow"/>
<feBlend mode="normal" in="SourceGraphic" in2="effect1_dropShadow" result="shape"/>
</filter>
<filter id="filter8_d" x="326.914" y="230.915" width="21.8278" height="21.8649" filterUnits="userSpaceOnUse" color-interpolation-filters="sRGB">
<feFlood flood-opacity="0" result="BackgroundImageFix"/>
<feColorMatrix in="SourceAlpha" type="matrix" values="0 0 0 0 0 0 0 0 0 0 0 0 0 0 0 0 0 0 127 0"/>
<feOffset dy="4"/>
<feGaussianBlur stdDeviation="2"/>
<feColorMatrix type="matrix" values="0 0 0 0 0 0 0 0 0 0 0 0 0 0 0 0 0 0 0.25 0"/>
<feBlend mode="normal" in2="BackgroundImageFix" result="effect1_dropShadow"/>
<feBlend mode="normal" in="SourceGraphic" in2="effect1_dropShadow" result="shape"/>
</filter>
<filter id="filter9_d" x="427.914" y="237.915" width="21.8278" height="21.8649" filterUnits="userSpaceOnUse" color-interpolation-filters="sRGB">
<feFlood flood-opacity="0" result="BackgroundImageFix"/>
<feColorMatrix in="SourceAlpha" type="matrix" values="0 0 0 0 0 0 0 0 0 0 0 0 0 0 0 0 0 0 127 0"/>
<feOffset dy="4"/>
<feGaussianBlur stdDeviation="2"/>
<feColorMatrix type="matrix" values="0 0 0 0 0 0 0 0 0 0 0 0 0 0 0 0 0 0 0.25 0"/>
<feBlend mode="normal" in2="BackgroundImageFix" result="effect1_dropShadow"/>
<feBlend mode="normal" in="SourceGraphic" in2="effect1_dropShadow" result="shape"/>
</filter>
<filter id="filter10_d" x="423.914" y="104.915" width="21.8278" height="21.8649" filterUnits="userSpaceOnUse" color-interpolation-filters="sRGB">
<feFlood flood-opacity="0" result="BackgroundImageFix"/>
<feColorMatrix in="SourceAlpha" type="matrix" values="0 0 0 0 0 0 0 0 0 0 0 0 0 0 0 0 0 0 127 0"/>
<feOffset dy="4"/>
<feGaussianBlur stdDeviation="2"/>
<feColorMatrix type="matrix" values="0 0 0 0 0 0 0 0 0 0 0 0 0 0 0 0 0 0 0.25 0"/>
<feBlend mode="normal" in2="BackgroundImageFix" result="effect1_dropShadow"/>
<feBlend mode="normal" in="SourceGraphic" in2="effect1_dropShadow" result="shape"/>
</filter>
<filter id="filter11_d" x="247.914" y="429.915" width="21.8278" height="21.8649" filterUnits="userSpaceOnUse" color-interpolation-filters="sRGB">
<feFlood flood-opacity="0" result="BackgroundImageFix"/>
<feColorMatrix in="SourceAlpha" type="matrix" values="0 0 0 0 0 0 0 0 0 0 0 0 0 0 0 0 0 0 127 0"/>
<feOffset dy="4"/>
<feGaussianBlur stdDeviation="2"/>
<feColorMatrix type="matrix" values="0 0 0 0 0 0 0 0 0 0 0 0 0 0 0 0 0 0 0.25 0"/>
<feBlend mode="normal" in2="BackgroundImageFix" result="effect1_dropShadow"/>
<feBlend mode="normal" in="SourceGraphic" in2="effect1_dropShadow" result="shape"/>
</filter>
<filter id="filter12_d" x="101.914" y="477.915" width="21.8278" height="21.8649" filterUnits="userSpaceOnUse" color-interpolation-filters="sRGB">
<feFlood flood-opacity="0" result="BackgroundImageFix"/>
<feColorMatrix in="SourceAlpha" type="matrix" values="0 0 0 0 0 0 0 0 0 0 0 0 0 0 0 0 0 0 127 0"/>
<feOffset dy="4"/>
<feGaussianBlur stdDeviation="2"/>
<feColorMatrix type="matrix" values="0 0 0 0 0 0 0 0 0 0 0 0 0 0 0 0 0 0 0.25 0"/>
<feBlend mode="normal" in2="BackgroundImageFix" result="effect1_dropShadow"/>
<feBlend mode="normal" in="SourceGraphic" in2="effect1_dropShadow" result="shape"/>
</filter>
<filter id="filter13_d" x="146.914" y="515.915" width="21.8278" height="21.8649" filterUnits="userSpaceOnUse" color-interpolation-filters="sRGB">
<feFlood flood-opacity="0" result="BackgroundImageFix"/>
<feColorMatrix in="SourceAlpha" type="matrix" values="0 0 0 0 0 0 0 0 0 0 0 0 0 0 0 0 0 0 127 0"/>
<feOffset dy="4"/>
<feGaussianBlur stdDeviation="2"/>
<feColorMatrix type="matrix" values="0 0 0 0 0 0 0 0 0 0 0 0 0 0 0 0 0 0 0.25 0"/>
<feBlend mode="normal" in2="BackgroundImageFix" result="effect1_dropShadow"/>
<feBlend mode="normal" in="SourceGraphic" in2="effect1_dropShadow" result="shape"/>
</filter>
</defs>
</svg>
