<svg width="568" height="621" viewBox="0 0 568 621" fill="none" xmlns="http://www.w3.org/2000/svg">
<g filter="url(#filter0_d)">
<path d="M324.584 70.7007L335.198 69.1844L329.638 79.2929V84.3472L334.187 88.3906V95.4665L336.209 102.037L351.371 110.124L361.985 115.683L376.137 114.673L371.588 119.727L360.975 123.265L357.437 131.857H336.209V144.998L331.66 146.514L329.638 156.117L326.1 162.183L313.465 169.258L307.905 171.786L301.84 182.4L299.818 197.057L294.764 207.165L295.775 217.274L304.367 230.92L316.497 239.512L323.573 249.116L329.638 264.784L346.823 279.946L350.361 286.517L360.469 296.12L372.094 304.712L377.654 313.304L388.267 317.853L392.816 323.413L399.387 333.521L410.001 343.63L414.044 353.738L421.12 365.363L425.669 384.064L428.196 388.107V405.292L427.185 423.487L435.777 433.09L427.185 444.715V455.834L422.131 475.546L417.582 486.16L411.517 494.752L396.354 500.817L383.213 508.904L376.137 516.485L369.567 519.518L358.447 521.539L352.382 520.528L350.866 511.936L342.274 513.958L339.241 511.936L337.725 523.056L335.198 534.68L333.176 539.735H326.1V546.811L327.111 553.886L322.562 552.876L319.024 555.908L313.97 563.49L297.291 568.544L288.699 570.565L283.645 585.223L274.041 589.772L276.063 582.19H271.514V575.62L274.041 549.338L283.645 546.811L279.601 534.68L269.998 527.099H263.428V523.056H269.998L276.063 520.528L281.623 516.485L279.601 508.904L288.699 513.958L291.731 508.904L297.291 506.882H304.367L307.4 511.936H311.948L315.992 513.958H321.551V505.871L322.562 497.784L314.981 493.236L310.937 486.16L315.992 479.084L321.551 484.643L331.154 479.084V474.029V469.481L339.241 470.997L342.274 466.448H350.866L359.964 457.35L362.491 462.405L372.094 460.383L373.105 444.715L372.094 429.552L377.654 411.862L370.578 395.183L369.061 381.031L373.105 361.825L375.632 353.738L374.116 338.576L368.05 336.049L364.512 328.467L368.05 323.413L369.061 315.326H364.512L360.469 309.766L348.844 302.691L344.295 296.12L338.736 298.142L334.692 294.604V282.979L328.627 277.925L324.584 269.333H318.519L307.905 257.202L301.84 248.105L295.775 235.469L289.204 233.447L286.172 228.393L282.634 214.241H268.482L260.9 207.165L242.2 197.057L247.759 193.013V184.421L260.9 189.475L268.482 184.421L273.536 177.345L278.59 167.237L264.438 160.666L268.482 156.117L260.9 152.579L264.438 146.514L254.33 134.89L240.178 133.373L230.07 139.438L222.994 141.966L209.347 134.89L202.777 123.265L204.798 106.08H200.25L193.174 101.026L190.646 106.08L186.098 95.9719L177 83.3363L188.119 76.2604L204.798 85.8634L213.896 72.7224L220.467 83.3363L227.542 76.2604L240.178 83.3363L244.221 72.7224L254.33 76.2604L260.9 70.7007L266.46 72.7224L273.536 65.141V58.0651L287.688 52L294.258 61.0976H301.334L306.894 65.141H317.508L324.584 70.7007Z" fill="#F3E8CB"/>
<path d="M324.584 70.7007L335.198 69.1844L329.638 79.2929V84.3472L334.187 88.3906V95.4665L336.209 102.037L351.371 110.124L361.985 115.683L376.137 114.673L371.588 119.727L360.975 123.265L357.437 131.857H336.209V144.998L331.66 146.514L329.638 156.117L326.1 162.183L313.465 169.258L307.905 171.786L301.84 182.4L299.818 197.057L294.764 207.165L295.775 217.274L304.367 230.92L316.497 239.512L323.573 249.116L329.638 264.784L346.823 279.946L350.361 286.517L360.469 296.12L372.094 304.712L377.654 313.304L388.267 317.853L392.816 323.413L399.387 333.521L410.001 343.63L414.044 353.738L421.12 365.363L425.669 384.064L428.196 388.107V405.292L427.185 423.487L435.777 433.09L427.185 444.715V455.834L422.131 475.546L417.582 486.16L411.517 494.752L396.354 500.817L383.213 508.904L376.137 516.485L369.567 519.518L358.447 521.539L352.382 520.528L350.866 511.936L342.274 513.958L339.241 511.936L337.725 523.056L335.198 534.68L333.176 539.735H326.1V546.811L327.111 553.886L322.562 552.876L319.024 555.908L313.97 563.49L297.291 568.544L288.699 570.565L283.645 585.223L274.041 589.772L276.063 582.19H271.514V575.62L274.041 549.338L283.645 546.811L279.601 534.68L269.998 527.099H263.428V523.056H269.998L276.063 520.528L281.623 516.485L279.601 508.904L288.699 513.958L291.731 508.904L297.291 506.882H304.367L307.4 511.936H311.948L315.992 513.958H321.551V505.871L322.562 497.784L314.981 493.236L310.937 486.16L315.992 479.084L321.551 484.643L331.154 479.084V474.029V469.481L339.241 470.997L342.274 466.448H350.866L359.964 457.35L362.491 462.405L372.094 460.383L373.105 444.715L372.094 429.552L377.654 411.862L370.578 395.183L369.061 381.031L373.105 361.825L375.632 353.738L374.116 338.576L368.05 336.049L364.512 328.467L368.05 323.413L369.061 315.326H364.512L360.469 309.766L348.844 302.691L344.295 296.12L338.736 298.142L334.692 294.604V282.979L328.627 277.925L324.584 269.333H318.519L307.905 257.202L301.84 248.105L295.775 235.469L289.204 233.447L286.172 228.393L282.634 214.241H268.482L260.9 207.165L242.2 197.057L247.759 193.013V184.421L260.9 189.475L268.482 184.421L273.536 177.345L278.59 167.237L264.438 160.666L268.482 156.117L260.9 152.579L264.438 146.514L254.33 134.89L240.178 133.373L230.07 139.438L222.994 141.966L209.347 134.89L202.777 123.265L204.798 106.08H200.25L193.174 101.026L190.646 106.08L186.098 95.9719L177 83.3363L188.119 76.2604L204.798 85.8634L213.896 72.7224L220.467 83.3363L227.542 76.2604L240.178 83.3363L244.221 72.7224L254.33 76.2604L260.9 70.7007L266.46 72.7224L273.536 65.141V58.0651L287.688 52L294.258 61.0976H301.334L306.894 65.141H317.508L324.584 70.7007Z" stroke="#F3E8CB" stroke-width="4"/>
</g>
<g filter="url(#filter1_d)">
<path d="M280.106 70.1954L292.236 64.6357L301.839 66.152L316.496 73.7334L332.67 70.1954L327.616 85.8636L326.099 102.543L346.316 113.156L352.887 127.814L332.67 130.341L324.078 153.59L304.871 167.742L294.258 199.079L292.741 209.187L296.785 221.823L298.301 230.415L291.225 231.426L287.687 222.328L284.149 214.241L272.019 211.209L250.791 195.035L263.427 188.97L282.633 176.84L279.6 158.645L272.019 144.493L264.943 130.341L239.166 127.308L222.487 130.846L216.422 116.694L190.14 95.9721V83.8419L216.928 86.369L234.112 91.9287L243.715 86.8744L256.351 84.8527L269.492 79.7985L280.106 70.1954Z" fill="#C1DD9B"/>
<path d="M306.388 250.127L300.828 238.502L305.882 233.448L312.453 240.018L323.067 253.159L329.637 265.289L343.284 276.409L350.36 287.022L359.457 297.636L371.588 304.712L374.115 310.777L366.533 314.315L360.974 309.767L355.414 305.723L348.338 296.12L340.757 296.626L336.713 293.593L335.197 280.452L329.637 277.925L327.616 270.849L323.067 268.827L317.507 265.289L313.969 257.708L306.388 250.127Z" fill="#C1DD9B"/>
<path d="M377.653 314.315L371.588 317.853L369.566 328.467L374.62 334.532L378.158 343.125L379.169 351.211L374.62 370.923L373.609 391.14L382.707 403.776L379.169 423.487L375.631 435.617L381.696 454.823L371.082 463.416L364.512 464.426L360.468 461.899L356.425 467.459L347.327 468.975L344.8 472.008H332.164L334.692 478.073L327.11 485.149H319.529L314.98 482.116L315.485 491.214L322.561 494.247V506.377V514.969L316.496 515.98L308.409 513.453L305.377 509.409H295.774L292.236 512.442L286.676 513.453L280.611 509.915L281.622 515.474L278.084 520.529L271.513 523.561L265.954 524.067L264.438 526.088H272.019L283.138 534.68L284.655 548.327L275.051 550.854L273.535 578.652H277.073L276.062 587.75L282.127 585.223L284.655 573.093L292.236 568.038L311.442 559.952L319.529 551.865H324.078V539.229L332.164 537.713L334.692 520.529L340.757 509.915L349.349 507.388L352.887 514.969L361.479 519.518L375.631 514.969L385.234 502.839L404.946 495.257L414.549 488.181L419.603 472.513L424.152 454.823L427.184 441.177L431.228 433.09L425.163 418.938L424.152 390.129L419.603 380.021L418.592 364.352L408.483 343.125L395.342 330.994L386.75 318.359L377.653 314.315Z" fill="#C1DD9B"/>
</g>
<g filter="url(#filter2_d)">
<path d="M227.542 99.5094L208.336 89.9063L202.776 99.5094L225.52 121.748H238.662H264.944L279.095 131.351L284.15 149.041L287.688 172.796L284.15 182.904L262.922 193.518L277.579 207.165L285.666 208.176L289.709 193.518L303.356 158.644L322.562 141.965L328.627 127.308L335.703 125.791L338.736 121.748L325.595 113.156L320.035 99.5094L322.562 78.787L313.97 80.8087L293.247 75.249L279.095 81.8195L271.009 92.9389L253.824 99.5094H227.542Z" fill="#539882"/>
<path d="M292.237 225.36L288.699 215.252L289.709 211.208L294.258 218.79L295.774 227.887L292.237 225.36Z" fill="#539882"/>
<path d="M307.905 247.599L303.861 240.017L305.883 237.996L311.948 242.039L316.497 250.126L323.067 257.707L325.089 263.772L320.035 261.751L313.464 252.653L307.905 247.599Z" fill="#539882"/>
<path d="M332.67 277.419L330.143 270.848L328.122 267.31L331.66 268.827L338.736 275.397L343.284 280.451L349.855 290.56L346.822 294.603H342.274L339.241 289.044L337.725 278.935L332.67 277.419Z" fill="#539882"/>
<path d="M353.393 294.098L350.866 296.625L356.425 304.712L362.491 308.25L367.545 312.799L371.588 308.755L368.05 304.206L357.942 298.647L353.393 294.098Z" fill="#539882"/>
<path d="M372.094 326.445L373.61 318.358H378.664L384.729 321.391L389.783 330.994L399.387 340.091L407.473 351.211L412.528 364.352V377.493L421.12 392.15V410.345V422.981L426.174 432.584L417.076 461.393L407.473 478.072L392.816 493.741L378.664 498.289L367.545 510.925L353.393 505.871L345.306 502.838L334.692 508.903L328.122 510.925L325.089 491.213L332.67 487.675L339.241 479.589L349.855 472.513H356.425L362.491 467.458L367.545 469.48L382.202 462.91L387.256 454.317L380.18 435.617L387.256 414.894V405.797L379.17 394.677L377.148 383.558L379.17 372.944L381.697 361.825L382.202 351.211L378.664 338.575L375.632 330.994L372.094 326.445Z" fill="#539882"/>
<path d="M285.161 521.033L278.085 524.571L276.568 526.088L281.117 528.109L286.171 532.658L286.677 538.218L288.699 548.326L284.15 551.864L278.085 552.875L276.568 558.94V572.081L278.085 577.136L281.117 578.146L281.623 571.576L284.655 569.554L293.753 563.489L306.388 558.435L314.981 550.853L319.529 546.81L319.024 536.702L324.078 532.658L329.638 525.077L328.122 516.99L319.024 518.506L308.41 516.99L298.807 511.936L292.237 515.474L285.161 515.979V521.033Z" fill="#539882"/>
</g>
<g filter="url(#filter3_d)">
<path d="M258.374 114.168L230.07 118.211L209.348 101.532L213.391 99.0049L228.048 103.048L259.385 105.07L282.634 94.456L296.786 86.8747L314.476 85.3584L317.508 103.048L320.541 119.727V136.406L300.324 148.536L294.259 162.183L290.216 150.558V133.374L278.085 118.211L258.374 114.168Z" fill="#356740"/>
<path d="M287.183 185.432L275.558 193.519L276.569 200.595L283.645 202.617L289.205 188.97L290.216 179.873L287.183 185.432Z" fill="#356740"/>
<path d="M344.296 292.077L341.263 283.99L344.296 285.506L346.318 289.044L344.296 292.077Z" fill="#356740"/>
<path d="M364.008 306.734L354.91 299.658L367.546 306.734H364.008Z" fill="#356740"/>
<path d="M380.687 333.522L377.149 324.93V321.392L384.73 325.94L388.773 335.038L395.849 343.63L402.925 351.717L407.979 364.858L408.99 384.57L418.088 393.667L415.561 411.357L417.077 425.004L422.131 432.585L420.615 438.65L413.539 455.329L406.463 471.503L399.387 479.084L387.763 489.698L378.159 493.236L373.611 491.72L370.073 503.344L365.524 506.377L358.448 500.312L348.339 495.763L338.231 500.312L329.639 503.344V492.225L339.242 488.182L348.339 479.084L356.932 477.062L362.491 471.503L373.105 472.514L386.246 467.459L390.795 459.878L389.279 447.748L384.73 435.112L391.806 420.455V403.776L387.257 394.678L382.203 379.515L386.246 357.277L384.73 345.652L380.687 333.522Z" fill="#356740"/>
<path d="M294.259 519.518L299.313 514.969L302.851 521.54L321.552 525.078L318.519 529.626L313.971 540.24L310.938 551.865L301.84 558.941L292.237 559.952L282.634 566.522L279.096 567.533V565.512L281.118 554.898L288.699 553.381L291.226 547.316V533.67L285.161 526.594L282.634 525.078L287.688 523.561L289.71 518.002L294.259 519.518Z" fill="#356740"/>
</g>
<g filter="url(#filter4_d)">
<path d="M232.596 114.167L220.466 104.564L253.319 109.113L244.221 114.167H232.596Z" fill="#A2896D"/>
<path d="M296.785 94.4557L263.427 107.091L266.965 111.135L289.204 113.156L292.237 125.287L305.378 137.417L317.002 126.803L312.454 107.091L310.937 92.9395L296.785 94.4557Z" fill="#A2896D"/>
<path d="M390.794 366.88L387.256 341.608L397.87 354.244L404.441 370.418V385.58L414.044 396.194L408.484 421.465L412.528 434.101L411.517 449.264L398.881 470.492H392.311L395.849 458.867L392.311 437.639L398.881 421.465L395.849 396.194L390.794 366.88Z" fill="#A2896D"/>
<path d="M335.198 497.784V492.73L344.295 487.676L356.931 482.622L363.501 474.535L368.556 476.557L376.642 473.524L386.751 471.502L392.311 476.557L383.718 487.171H378.664L370.577 490.203L365.018 498.795L352.382 492.73H344.801L335.198 497.784Z" fill="#A2896D"/>
<path d="M295.269 531.648L290.72 526.594L297.796 522.55L299.313 526.594H313.464V533.67L306.388 547.822L297.796 555.403H292.742L296.785 543.778L295.269 531.648Z" fill="#A2896D"/>
<path d="M285.161 560.963L284.15 558.435L289.204 555.403L288.699 560.457L285.161 560.963Z" fill="#A2896D"/>
</g>
<g filter="url(#filter5_d)">
<path d="M310.432 119.221L305.378 99.5098H293.753L281.117 104.059L297.796 110.124V120.232L306.388 130.846L310.432 119.221Z" fill="#FFBD3A"/>
<path d="M397.87 441.177L401.408 431.574L406.462 441.177L404.946 454.318H397.87V441.177Z" fill="#FFBD3A"/>
<path d="M402.924 411.862L400.397 392.151L405.957 391.14L408.99 400.743L402.924 411.862Z" fill="#FFBD3A"/>
<path d="M400.397 369.406L393.321 353.738L394.838 367.89L397.87 375.472L400.397 379.515V369.406Z" fill="#FFBD3A"/>
<path d="M382.707 482.116V476.051L374.621 477.062L365.018 482.116L359.963 484.138L357.436 490.708L365.018 492.73L369.566 486.159L373.61 482.116H382.707Z" fill="#FFBD3A"/>
<path d="M301.334 543.272L299.312 533.669L299.818 529.626L305.883 529.121L309.421 532.153L305.883 539.229L301.334 543.272Z" fill="#FFBD3A"/>
</g>
<circle cx="310.233" cy="106.233" r="14.2334" fill="black"/>
<circle cx="239.631" cy="85" r="14.2334" fill="black"/>
<circle cx="320.622" cy="167.967" r="14.2334" fill="black"/>
<circle cx="386.797" cy="318.096" r="14.2334" fill="black"/>
<circle cx="329.233" cy="250.233" r="14.2334" fill="black"/>
<circle cx="299.88" cy="221.302" r="14.2334" fill="black"/>
<circle cx="371.982" cy="484.029" r="14.2334" fill="black"/>
<g filter="url(#filter6_d)">
<path fill-rule="evenodd" clip-rule="evenodd" d="M308.096 110.687L304.719 109.443L304.289 110.464C304.289 110.464 303.878 112.115 305.353 112.659C306.83 113.204 307.681 111.713 307.681 111.713L308.096 110.687Z" fill="white"/>
<path fill-rule="evenodd" clip-rule="evenodd" d="M310.565 101.658C309.106 101.084 307.057 102.342 306.349 103.926C306.057 104.578 305.925 105.282 305.815 105.976C305.762 106.308 305.725 106.648 305.658 106.979C305.573 107.394 305.446 107.793 305.32 108.196C305.145 108.755 305.337 108.849 305.87 108.945L307.735 109.634C307.925 109.723 308.296 109.946 308.487 109.737C308.656 109.55 308.622 109.209 308.735 108.988C308.881 108.7 309.045 108.406 309.225 108.135C309.624 107.528 310.381 107.084 310.894 106.56C311.53 105.909 311.881 105.257 312.074 104.394C312.332 103.245 311.739 102.118 310.565 101.658V101.658Z" fill="white"/>
<path fill-rule="evenodd" clip-rule="evenodd" d="M312.139 106.96L315.387 108.215C315.387 108.215 314.717 110.785 312.733 110.037C310.75 109.288 312.139 106.96 312.139 106.96V106.96Z" fill="white"/>
<path fill-rule="evenodd" clip-rule="evenodd" d="M316.772 99.0684C318.159 99.573 318.717 101.711 318.133 103.25C317.892 103.883 317.508 104.45 317.115 105.003C316.926 105.265 316.722 105.523 316.543 105.795C316.324 106.135 316.14 106.492 315.956 106.849C315.697 107.345 315.501 107.288 315.07 107.028L313.324 106.356C313.135 106.3 312.729 106.223 312.74 105.963C312.75 105.728 313.003 105.511 313.076 105.29C313.17 105 313.256 104.694 313.315 104.395C313.45 103.727 313.23 102.95 313.233 102.272C313.233 101.429 313.435 100.758 313.884 100.04C314.486 99.0779 315.654 98.6638 316.772 99.0684V99.0684Z" fill="white"/>
</g>
<g filter="url(#filter7_d)">
<path fill-rule="evenodd" clip-rule="evenodd" d="M318.708 172.42L315.331 171.176L314.901 172.196C314.901 172.196 314.489 173.848 315.965 174.391C317.442 174.937 318.293 173.446 318.293 173.446L318.708 172.42Z" fill="white"/>
<path fill-rule="evenodd" clip-rule="evenodd" d="M321.177 163.39C319.718 162.817 317.669 164.074 316.961 165.658C316.669 166.311 316.537 167.015 316.427 167.709C316.374 168.04 316.337 168.38 316.27 168.711C316.185 169.126 316.058 169.525 315.932 169.928C315.756 170.488 315.949 170.582 316.482 170.677L318.346 171.366C318.537 171.455 318.908 171.679 319.099 171.47C319.268 171.283 319.234 170.942 319.347 170.72C319.493 170.432 319.656 170.139 319.837 169.867C320.236 169.26 320.993 168.816 321.506 168.293C322.141 167.642 322.493 166.989 322.686 166.126C322.944 164.977 322.351 163.85 321.177 163.39V163.39Z" fill="white"/>
<path fill-rule="evenodd" clip-rule="evenodd" d="M322.751 168.692L325.999 169.948C325.999 169.948 325.329 172.517 323.345 171.77C321.362 171.021 322.751 168.692 322.751 168.692V168.692Z" fill="white"/>
<path fill-rule="evenodd" clip-rule="evenodd" d="M327.384 160.801C328.771 161.305 329.329 163.444 328.745 164.983C328.504 165.615 328.12 166.183 327.726 166.735C327.538 166.998 327.334 167.255 327.155 167.528C326.935 167.867 326.752 168.225 326.567 168.581C326.309 169.077 326.112 169.021 325.682 168.761L323.936 168.088C323.746 168.032 323.341 167.956 323.352 167.696C323.362 167.461 323.615 167.243 323.688 167.022C323.782 166.733 323.868 166.426 323.927 166.128C324.062 165.46 323.841 164.683 323.845 164.004C323.845 163.161 324.047 162.49 324.496 161.773C325.097 160.81 326.266 160.396 327.384 160.801V160.801Z" fill="white"/>
</g>
<g filter="url(#filter8_d)">
<path fill-rule="evenodd" clip-rule="evenodd" d="M297.519 225.756L294.143 224.512L293.712 225.532C293.712 225.532 293.301 227.184 294.776 227.727C296.253 228.273 297.104 226.782 297.104 226.782L297.519 225.756Z" fill="white"/>
<path fill-rule="evenodd" clip-rule="evenodd" d="M299.989 216.726C298.529 216.153 296.481 217.41 295.772 218.994C295.481 219.647 295.348 220.351 295.238 221.045C295.186 221.376 295.148 221.716 295.082 222.047C294.996 222.462 294.869 222.861 294.743 223.264C294.568 223.824 294.761 223.918 295.293 224.013L297.158 224.702C297.348 224.791 297.72 225.015 297.911 224.806C298.08 224.619 298.046 224.278 298.159 224.056C298.304 223.768 298.468 223.475 298.648 223.203C299.047 222.596 299.805 222.152 300.318 221.629C300.953 220.978 301.304 220.325 301.498 219.462C301.756 218.313 301.163 217.186 299.989 216.726V216.726Z" fill="white"/>
<path fill-rule="evenodd" clip-rule="evenodd" d="M301.562 222.028L304.811 223.284C304.811 223.284 304.141 225.853 302.157 225.106C300.173 224.356 301.562 222.028 301.562 222.028V222.028Z" fill="white"/>
<path fill-rule="evenodd" clip-rule="evenodd" d="M306.196 214.137C307.582 214.641 308.14 216.78 307.556 218.319C307.316 218.951 306.932 219.519 306.538 220.071C306.349 220.334 306.145 220.591 305.966 220.864C305.747 221.203 305.564 221.561 305.379 221.917C305.12 222.413 304.924 222.357 304.494 222.096L302.747 221.424C302.558 221.368 302.153 221.292 302.163 221.032C302.173 220.797 302.426 220.579 302.499 220.358C302.593 220.068 302.68 219.762 302.738 219.464C302.873 218.796 302.653 218.019 302.657 217.34C302.657 216.497 302.858 215.826 303.307 215.109C303.909 214.146 305.078 213.732 306.196 214.137V214.137Z" fill="white"/>
</g>
<g filter="url(#filter9_d)">
<path fill-rule="evenodd" clip-rule="evenodd" d="M386.312 322.551L382.935 321.307L382.505 322.327C382.505 322.327 382.093 323.978 383.569 324.522C385.046 325.068 385.896 323.576 385.896 323.576L386.312 322.551Z" fill="white"/>
<path fill-rule="evenodd" clip-rule="evenodd" d="M388.781 313.521C387.322 312.948 385.273 314.205 384.565 315.789C384.273 316.442 384.141 317.145 384.031 317.84C383.978 318.171 383.941 318.511 383.874 318.842C383.789 319.257 383.662 319.656 383.536 320.059C383.36 320.619 383.553 320.713 384.086 320.808L385.95 321.497C386.141 321.586 386.512 321.81 386.703 321.601C386.872 321.414 386.838 321.073 386.951 320.851C387.097 320.563 387.26 320.27 387.441 319.998C387.84 319.391 388.597 318.947 389.11 318.424C389.745 317.773 390.097 317.12 390.29 316.257C390.548 315.108 389.955 313.981 388.781 313.521V313.521Z" fill="white"/>
<path fill-rule="evenodd" clip-rule="evenodd" d="M390.355 318.823L393.603 320.079C393.603 320.079 392.933 322.648 390.949 321.9C388.966 321.151 390.355 318.823 390.355 318.823V318.823Z" fill="white"/>
<path fill-rule="evenodd" clip-rule="evenodd" d="M394.988 310.932C396.374 311.436 396.932 313.575 396.348 315.114C396.108 315.746 395.724 316.314 395.33 316.866C395.141 317.129 394.937 317.386 394.758 317.659C394.539 317.998 394.356 318.355 394.171 318.712C393.912 319.208 393.716 319.151 393.286 318.891L391.539 318.219C391.35 318.163 390.945 318.087 390.955 317.826C390.965 317.592 391.218 317.374 391.291 317.153C391.385 316.863 391.472 316.557 391.53 316.259C391.665 315.591 391.445 314.814 391.449 314.135C391.449 313.292 391.65 312.621 392.099 311.903C392.701 310.941 393.87 310.527 394.988 310.932V310.932Z" fill="white"/>
</g>
<g filter="url(#filter10_d)">
<path fill-rule="evenodd" clip-rule="evenodd" d="M327.505 254.688L324.129 253.444L323.699 254.465C323.699 254.465 323.287 256.116 324.763 256.66C326.24 257.205 327.09 255.714 327.09 255.714L327.505 254.688Z" fill="white"/>
<path fill-rule="evenodd" clip-rule="evenodd" d="M329.975 245.659C328.516 245.085 326.467 246.343 325.759 247.927C325.467 248.579 325.335 249.283 325.224 249.977C325.172 250.309 325.135 250.649 325.068 250.98C324.983 251.395 324.856 251.794 324.729 252.197C324.554 252.756 324.747 252.85 325.28 252.946L327.144 253.635C327.334 253.724 327.706 253.947 327.897 253.738C328.066 253.551 328.032 253.21 328.145 252.989C328.291 252.701 328.454 252.407 328.635 252.136C329.034 251.529 329.791 251.085 330.304 250.561C330.939 249.91 331.29 249.258 331.484 248.395C331.742 247.246 331.149 246.119 329.975 245.659V245.659Z" fill="white"/>
<path fill-rule="evenodd" clip-rule="evenodd" d="M331.549 250.961L334.797 252.216C334.797 252.216 334.127 254.786 332.143 254.038C330.159 253.289 331.549 250.961 331.549 250.961V250.961Z" fill="white"/>
<path fill-rule="evenodd" clip-rule="evenodd" d="M336.182 243.069C337.569 243.574 338.127 245.712 337.543 247.251C337.302 247.884 336.918 248.451 336.524 249.004C336.336 249.266 336.131 249.524 335.953 249.796C335.733 250.136 335.55 250.493 335.365 250.85C335.107 251.346 334.91 251.289 334.48 251.029L332.734 250.357C332.544 250.301 332.139 250.224 332.15 249.964C332.159 249.729 332.413 249.512 332.486 249.291C332.58 249.001 332.666 248.695 332.725 248.396C332.86 247.728 332.639 246.951 332.643 246.273C332.643 245.43 332.845 244.759 333.293 244.041C333.895 243.079 335.064 242.665 336.182 243.069V243.069Z" fill="white"/>
</g>
<g filter="url(#filter11_d)">
<path fill-rule="evenodd" clip-rule="evenodd" d="M371.177 488.484L367.801 487.24L367.371 488.261C367.371 488.261 366.959 489.912 368.435 490.456C369.912 491.001 370.762 489.51 370.762 489.51L371.177 488.484Z" fill="white"/>
<path fill-rule="evenodd" clip-rule="evenodd" d="M373.647 479.455C372.187 478.881 370.139 480.138 369.43 481.723C369.139 482.375 369.007 483.079 368.896 483.773C368.844 484.105 368.807 484.445 368.74 484.776C368.655 485.191 368.527 485.59 368.401 485.993C368.226 486.552 368.419 486.646 368.951 486.742L370.816 487.431C371.006 487.52 371.378 487.743 371.569 487.534C371.738 487.347 371.704 487.006 371.817 486.784C371.963 486.496 372.126 486.203 372.307 485.932C372.706 485.325 373.463 484.881 373.976 484.357C374.611 483.706 374.962 483.054 375.156 482.191C375.414 481.041 374.821 479.915 373.647 479.455V479.455Z" fill="white"/>
<path fill-rule="evenodd" clip-rule="evenodd" d="M375.22 484.757L378.469 486.012C378.469 486.012 377.799 488.581 375.815 487.834C373.831 487.085 375.22 484.757 375.22 484.757V484.757Z" fill="white"/>
<path fill-rule="evenodd" clip-rule="evenodd" d="M379.853 476.865C381.24 477.37 381.798 479.508 381.214 481.047C380.973 481.68 380.589 482.247 380.196 482.8C380.007 483.062 379.803 483.32 379.624 483.592C379.405 483.931 379.222 484.289 379.037 484.646C378.778 485.142 378.582 485.085 378.151 484.825L376.405 484.152C376.216 484.097 375.81 484.02 375.821 483.76C375.831 483.525 376.084 483.308 376.157 483.087C376.251 482.797 376.337 482.491 376.396 482.192C376.531 481.524 376.311 480.747 376.314 480.069C376.314 479.226 376.516 478.555 376.965 477.837C377.567 476.875 378.735 476.461 379.853 476.865V476.865Z" fill="white"/>
</g>
<g filter="url(#filter12_d)">
<path fill-rule="evenodd" clip-rule="evenodd" d="M236.968 89.4531L233.592 88.209L233.162 89.2295C233.162 89.2295 232.75 90.8808 234.226 91.4245C235.703 91.97 236.553 90.4788 236.553 90.4788L236.968 89.4531Z" fill="white"/>
<path fill-rule="evenodd" clip-rule="evenodd" d="M239.438 80.4233C237.979 79.85 235.93 81.1072 235.221 82.6914C234.93 83.344 234.798 84.0478 234.687 84.7421C234.635 85.0735 234.598 85.4137 234.531 85.7443C234.446 86.1593 234.318 86.5586 234.192 86.9615C234.017 87.5209 234.21 87.6148 234.742 87.7105L236.607 88.3996C236.797 88.4883 237.169 88.7119 237.36 88.5031C237.529 88.3161 237.495 87.975 237.608 87.7532C237.754 87.4652 237.917 87.172 238.098 86.9006C238.497 86.2933 239.254 85.8496 239.767 85.3258C240.402 84.6751 240.753 84.0226 240.947 83.1595C241.205 82.0102 240.612 80.8836 239.438 80.4233V80.4233Z" fill="white"/>
<path fill-rule="evenodd" clip-rule="evenodd" d="M241.011 85.7256L244.26 86.981C244.26 86.981 243.59 89.5502 241.606 88.8028C239.622 88.0537 241.011 85.7256 241.011 85.7256V85.7256Z" fill="white"/>
<path fill-rule="evenodd" clip-rule="evenodd" d="M245.645 77.834C247.031 78.3386 247.59 80.4771 247.006 82.0161C246.765 82.6486 246.381 83.2159 245.987 83.7683C245.799 84.0311 245.594 84.2886 245.416 84.5609C245.196 84.9002 245.013 85.2578 244.828 85.6145C244.57 86.1104 244.373 86.0538 243.943 85.7937L242.196 85.1212C242.007 85.0655 241.602 84.9889 241.613 84.7288C241.622 84.4939 241.876 84.2764 241.948 84.0554C242.043 83.7657 242.129 83.4595 242.188 83.1611C242.323 82.4929 242.102 81.716 242.106 81.0374C242.106 80.1943 242.308 79.5235 242.756 78.8058C243.358 77.8435 244.527 77.4294 245.645 77.834V77.834Z" fill="white"/>
</g>
<path d="M369 66L314 93" stroke="black"/>
<path d="M341 470L271 418" stroke="black"/>
<path d="M392.696 48.2H388.592V54.728H382.592V48.2H378.488V65H382.592V58.424H388.592V65H392.696V48.2ZM394.66 61.088C394.66 63.824 396.868 65.312 399.34 65.312C400.636 65.312 401.548 64.952 402.196 64.304L402.412 65H405.988V57.2C405.988 54.32 404.884 52.088 400.54 52.088C398.452 52.088 396.748 52.76 395.404 53.648L396.892 56.336C397.876 55.856 398.956 55.544 400.06 55.544C401.356 55.544 401.98 56.144 401.98 56.912V57.368C401.524 57.176 400.66 56.912 399.556 56.912C396.58 56.912 394.66 58.568 394.66 61.088ZM398.668 60.944C398.668 60.128 399.388 59.6 400.348 59.6C401.308 59.6 402.052 60.08 402.052 60.944C402.052 61.784 401.332 62.24 400.372 62.24C399.436 62.24 398.668 61.784 398.668 60.944ZM415.544 65H419.552V58.016C419.552 55.448 419.168 52.088 415.232 52.088C413.648 52.088 412.544 52.952 412.064 53.696V52.4H408.152V65H412.16V57.488C412.16 56.48 412.784 55.688 413.888 55.688C414.848 55.688 415.544 56.312 415.544 57.488V65ZM421.121 58.736C421.121 62.528 423.953 65.312 427.961 65.312C431.945 65.312 434.873 62.48 434.873 58.688C434.873 54.872 432.017 52.088 427.961 52.088C424.073 52.088 421.121 54.92 421.121 58.736ZM425.129 58.736C425.129 56.888 426.305 55.616 427.961 55.616C429.593 55.616 430.865 56.84 430.865 58.688C430.865 60.488 429.617 61.784 427.961 61.784C426.329 61.784 425.129 60.56 425.129 58.736ZM440.543 52.4H436.535V65H440.543V52.4ZM438.503 51.632C439.775 51.632 440.759 50.72 440.759 49.472C440.759 48.2 439.775 47.288 438.503 47.288C437.231 47.288 436.271 48.2 436.271 49.472C436.271 50.72 437.231 51.632 438.503 51.632Z" fill="black"/>
<path d="M171.696 388.2H167.592V394.728H161.592V388.2H157.488V405H161.592V398.424H167.592V405H171.696V388.2ZM173.684 398.736C173.684 402.528 176.516 405.312 180.524 405.312C184.508 405.312 187.436 402.48 187.436 398.688C187.436 394.872 184.58 392.088 180.524 392.088C176.636 392.088 173.684 394.92 173.684 398.736ZM177.692 398.736C177.692 396.888 178.868 395.616 180.524 395.616C182.156 395.616 183.428 396.84 183.428 398.688C183.428 400.488 182.18 401.784 180.524 401.784C178.892 401.784 177.692 400.56 177.692 398.736ZM202.184 405.312C204.272 405.312 205.952 404.712 207.152 403.896L206 400.296C205.112 400.896 203.768 401.472 202.328 401.472C199.256 401.472 197.576 399.192 197.576 396.576C197.576 393.96 199.256 391.728 202.328 391.728C203.768 391.728 205.04 392.304 205.928 392.904L207.08 389.304C205.88 388.488 204.272 387.888 202.184 387.888C196.952 387.888 193.304 391.656 193.304 396.576C193.304 401.52 196.76 405.312 202.184 405.312ZM216.365 405H220.373V398.016C220.373 395.448 219.989 392.088 216.053 392.088C214.469 392.088 213.413 392.952 212.933 393.696V387.648H208.925V405H212.933V397.488C212.933 396.48 213.605 395.688 214.709 395.688C215.669 395.688 216.365 396.312 216.365 397.488V405ZM226.598 392.4H222.59V405H226.598V392.4ZM224.558 391.632C225.83 391.632 226.814 390.72 226.814 389.472C226.814 388.2 225.83 387.288 224.558 387.288C223.286 387.288 222.326 388.2 222.326 389.472C222.326 390.72 223.286 391.632 224.558 391.632ZM245.293 403.632L248.989 393.984V405H252.925V388.2H247.597L243.397 398.832L239.221 388.2H233.893V405H237.829V393.984L241.525 403.632H245.293ZM259.527 392.4H255.519V405H259.527V392.4ZM257.487 391.632C258.759 391.632 259.743 390.72 259.743 389.472C259.743 388.2 258.759 387.288 257.487 387.288C256.215 387.288 255.255 388.2 255.255 389.472C255.255 390.72 256.215 391.632 257.487 391.632ZM269.216 405H273.224V398.016C273.224 395.448 272.84 392.088 268.904 392.088C267.32 392.088 266.216 392.952 265.736 393.696V392.4H261.824V405H265.832V397.488C265.832 396.48 266.456 395.688 267.56 395.688C268.52 395.688 269.216 396.312 269.216 397.488V405ZM282.881 405H286.889V398.016C286.889 395.448 286.505 392.088 282.569 392.088C280.985 392.088 279.929 392.952 279.449 393.696V387.648H275.441V405H279.449V397.488C279.449 396.48 280.121 395.688 281.225 395.688C282.185 395.688 282.881 396.312 282.881 397.488V405Z" fill="black"/>
<defs>
<filter id="filter0_d" x="170.139" y="49.5312" width="272.214" height="551.896" filterUnits="userSpaceOnUse" color-interpolation-filters="sRGB">
<feFlood flood-opacity="0" result="BackgroundImageFix"/>
<feColorMatrix in="SourceAlpha" type="matrix" values="0 0 0 0 0 0 0 0 0 0 0 0 0 0 0 0 0 0 127 0"/>
<feOffset dy="4"/>
<feGaussianBlur stdDeviation="2"/>
<feColorMatrix type="matrix" values="0 0 0 0 0 0 0 0 0 0 0 0 0 0 0 0 0 0 0.25 0"/>
<feBlend mode="normal" in2="BackgroundImageFix" result="effect1_dropShadow"/>
<feBlend mode="normal" in="SourceGraphic" in2="effect1_dropShadow" result="shape"/>
</filter>
<filter id="filter1_d" x="186.14" y="64.6357" width="249.087" height="531.114" filterUnits="userSpaceOnUse" color-interpolation-filters="sRGB">
<feFlood flood-opacity="0" result="BackgroundImageFix"/>
<feColorMatrix in="SourceAlpha" type="matrix" values="0 0 0 0 0 0 0 0 0 0 0 0 0 0 0 0 0 0 127 0"/>
<feOffset dy="4"/>
<feGaussianBlur stdDeviation="2"/>
<feColorMatrix type="matrix" values="0 0 0 0 0 0 0 0 0 0 0 0 0 0 0 0 0 0 0.25 0"/>
<feBlend mode="normal" in2="BackgroundImageFix" result="effect1_dropShadow"/>
<feBlend mode="normal" in="SourceGraphic" in2="effect1_dropShadow" result="shape"/>
</filter>
<filter id="filter2_d" x="198.776" y="75.249" width="231.398" height="510.897" filterUnits="userSpaceOnUse" color-interpolation-filters="sRGB">
<feFlood flood-opacity="0" result="BackgroundImageFix"/>
<feColorMatrix in="SourceAlpha" type="matrix" values="0 0 0 0 0 0 0 0 0 0 0 0 0 0 0 0 0 0 127 0"/>
<feOffset dy="4"/>
<feGaussianBlur stdDeviation="2"/>
<feColorMatrix type="matrix" values="0 0 0 0 0 0 0 0 0 0 0 0 0 0 0 0 0 0 0.25 0"/>
<feBlend mode="normal" in2="BackgroundImageFix" result="effect1_dropShadow"/>
<feBlend mode="normal" in="SourceGraphic" in2="effect1_dropShadow" result="shape"/>
</filter>
<filter id="filter3_d" x="205.348" y="85.3584" width="220.784" height="490.175" filterUnits="userSpaceOnUse" color-interpolation-filters="sRGB">
<feFlood flood-opacity="0" result="BackgroundImageFix"/>
<feColorMatrix in="SourceAlpha" type="matrix" values="0 0 0 0 0 0 0 0 0 0 0 0 0 0 0 0 0 0 127 0"/>
<feOffset dy="4"/>
<feGaussianBlur stdDeviation="2"/>
<feColorMatrix type="matrix" values="0 0 0 0 0 0 0 0 0 0 0 0 0 0 0 0 0 0 0.25 0"/>
<feBlend mode="normal" in2="BackgroundImageFix" result="effect1_dropShadow"/>
<feBlend mode="normal" in="SourceGraphic" in2="effect1_dropShadow" result="shape"/>
</filter>
<filter id="filter4_d" x="216.466" y="92.9395" width="201.578" height="476.023" filterUnits="userSpaceOnUse" color-interpolation-filters="sRGB">
<feFlood flood-opacity="0" result="BackgroundImageFix"/>
<feColorMatrix in="SourceAlpha" type="matrix" values="0 0 0 0 0 0 0 0 0 0 0 0 0 0 0 0 0 0 127 0"/>
<feOffset dy="4"/>
<feGaussianBlur stdDeviation="2"/>
<feColorMatrix type="matrix" values="0 0 0 0 0 0 0 0 0 0 0 0 0 0 0 0 0 0 0.25 0"/>
<feBlend mode="normal" in2="BackgroundImageFix" result="effect1_dropShadow"/>
<feBlend mode="normal" in="SourceGraphic" in2="effect1_dropShadow" result="shape"/>
</filter>
<filter id="filter5_d" x="277.117" y="99.5098" width="135.872" height="451.763" filterUnits="userSpaceOnUse" color-interpolation-filters="sRGB">
<feFlood flood-opacity="0" result="BackgroundImageFix"/>
<feColorMatrix in="SourceAlpha" type="matrix" values="0 0 0 0 0 0 0 0 0 0 0 0 0 0 0 0 0 0 127 0"/>
<feOffset dy="4"/>
<feGaussianBlur stdDeviation="2"/>
<feColorMatrix type="matrix" values="0 0 0 0 0 0 0 0 0 0 0 0 0 0 0 0 0 0 0.25 0"/>
<feBlend mode="normal" in2="BackgroundImageFix" result="effect1_dropShadow"/>
<feBlend mode="normal" in="SourceGraphic" in2="effect1_dropShadow" result="shape"/>
</filter>
<filter id="filter6_d" x="300.236" y="98.9141" width="22.1262" height="21.8649" filterUnits="userSpaceOnUse" color-interpolation-filters="sRGB">
<feFlood flood-opacity="0" result="BackgroundImageFix"/>
<feColorMatrix in="SourceAlpha" type="matrix" values="0 0 0 0 0 0 0 0 0 0 0 0 0 0 0 0 0 0 127 0"/>
<feOffset dy="4"/>
<feGaussianBlur stdDeviation="2"/>
<feColorMatrix type="matrix" values="0 0 0 0 0 0 0 0 0 0 0 0 0 0 0 0 0 0 0.25 0"/>
<feBlend mode="normal" in2="BackgroundImageFix" result="effect1_dropShadow"/>
<feBlend mode="normal" in="SourceGraphic" in2="effect1_dropShadow" result="shape"/>
</filter>
<filter id="filter7_d" x="310.848" y="160.646" width="22.1263" height="21.8649" filterUnits="userSpaceOnUse" color-interpolation-filters="sRGB">
<feFlood flood-opacity="0" result="BackgroundImageFix"/>
<feColorMatrix in="SourceAlpha" type="matrix" values="0 0 0 0 0 0 0 0 0 0 0 0 0 0 0 0 0 0 127 0"/>
<feOffset dy="4"/>
<feGaussianBlur stdDeviation="2"/>
<feColorMatrix type="matrix" values="0 0 0 0 0 0 0 0 0 0 0 0 0 0 0 0 0 0 0.25 0"/>
<feBlend mode="normal" in2="BackgroundImageFix" result="effect1_dropShadow"/>
<feBlend mode="normal" in="SourceGraphic" in2="effect1_dropShadow" result="shape"/>
</filter>
<filter id="filter8_d" x="289.66" y="213.982" width="22.1263" height="21.8649" filterUnits="userSpaceOnUse" color-interpolation-filters="sRGB">
<feFlood flood-opacity="0" result="BackgroundImageFix"/>
<feColorMatrix in="SourceAlpha" type="matrix" values="0 0 0 0 0 0 0 0 0 0 0 0 0 0 0 0 0 0 127 0"/>
<feOffset dy="4"/>
<feGaussianBlur stdDeviation="2"/>
<feColorMatrix type="matrix" values="0 0 0 0 0 0 0 0 0 0 0 0 0 0 0 0 0 0 0.25 0"/>
<feBlend mode="normal" in2="BackgroundImageFix" result="effect1_dropShadow"/>
<feBlend mode="normal" in="SourceGraphic" in2="effect1_dropShadow" result="shape"/>
</filter>
<filter id="filter9_d" x="378.452" y="310.777" width="22.1258" height="21.8648" filterUnits="userSpaceOnUse" color-interpolation-filters="sRGB">
<feFlood flood-opacity="0" result="BackgroundImageFix"/>
<feColorMatrix in="SourceAlpha" type="matrix" values="0 0 0 0 0 0 0 0 0 0 0 0 0 0 0 0 0 0 127 0"/>
<feOffset dy="4"/>
<feGaussianBlur stdDeviation="2"/>
<feColorMatrix type="matrix" values="0 0 0 0 0 0 0 0 0 0 0 0 0 0 0 0 0 0 0.25 0"/>
<feBlend mode="normal" in2="BackgroundImageFix" result="effect1_dropShadow"/>
<feBlend mode="normal" in="SourceGraphic" in2="effect1_dropShadow" result="shape"/>
</filter>
<filter id="filter10_d" x="319.646" y="242.915" width="22.1262" height="21.8649" filterUnits="userSpaceOnUse" color-interpolation-filters="sRGB">
<feFlood flood-opacity="0" result="BackgroundImageFix"/>
<feColorMatrix in="SourceAlpha" type="matrix" values="0 0 0 0 0 0 0 0 0 0 0 0 0 0 0 0 0 0 127 0"/>
<feOffset dy="4"/>
<feGaussianBlur stdDeviation="2"/>
<feColorMatrix type="matrix" values="0 0 0 0 0 0 0 0 0 0 0 0 0 0 0 0 0 0 0.25 0"/>
<feBlend mode="normal" in2="BackgroundImageFix" result="effect1_dropShadow"/>
<feBlend mode="normal" in="SourceGraphic" in2="effect1_dropShadow" result="shape"/>
</filter>
<filter id="filter11_d" x="363.318" y="476.711" width="22.1258" height="21.8648" filterUnits="userSpaceOnUse" color-interpolation-filters="sRGB">
<feFlood flood-opacity="0" result="BackgroundImageFix"/>
<feColorMatrix in="SourceAlpha" type="matrix" values="0 0 0 0 0 0 0 0 0 0 0 0 0 0 0 0 0 0 127 0"/>
<feOffset dy="4"/>
<feGaussianBlur stdDeviation="2"/>
<feColorMatrix type="matrix" values="0 0 0 0 0 0 0 0 0 0 0 0 0 0 0 0 0 0 0.25 0"/>
<feBlend mode="normal" in2="BackgroundImageFix" result="effect1_dropShadow"/>
<feBlend mode="normal" in="SourceGraphic" in2="effect1_dropShadow" result="shape"/>
</filter>
<filter id="filter12_d" x="229.109" y="77.6797" width="22.1263" height="21.8649" filterUnits="userSpaceOnUse" color-interpolation-filters="sRGB">
<feFlood flood-opacity="0" result="BackgroundImageFix"/>
<feColorMatrix in="SourceAlpha" type="matrix" values="0 0 0 0 0 0 0 0 0 0 0 0 0 0 0 0 0 0 127 0"/>
<feOffset dy="4"/>
<feGaussianBlur stdDeviation="2"/>
<feColorMatrix type="matrix" values="0 0 0 0 0 0 0 0 0 0 0 0 0 0 0 0 0 0 0.25 0"/>
<feBlend mode="normal" in2="BackgroundImageFix" result="effect1_dropShadow"/>
<feBlend mode="normal" in="SourceGraphic" in2="effect1_dropShadow" result="shape"/>
</filter>
</defs>
</svg>
