<svg fill="none" height="176" viewBox="0 0 280 176" width="280" xmlns="http://www.w3.org/2000/svg" xmlns:xlink="http://www.w3.org/1999/xlink"><filter id="a" color-interpolation-filters="sRGB" filterUnits="userSpaceOnUse" height="63.9442" width="63.9442" x="170.843" y="3.37056"><feFlood flood-opacity="0" result="BackgroundImageFix"/><feColorMatrix in="SourceAlpha" type="matrix" values="0 0 0 0 0 0 0 0 0 0 0 0 0 0 0 0 0 0 127 0"/><feOffset dx="2.31472" dy="-1.15736"/><feGaussianBlur stdDeviation="1.73604"/><feColorMatrix type="matrix" values="0 0 0 0 0 0 0 0 0 0 0 0 0 0 0 0 0 0 0.1 0"/><feBlend in2="BackgroundImageFix" mode="normal" result="effect1_dropShadow"/><feBlend in="SourceGraphic" in2="effect1_dropShadow" mode="normal" result="shape"/></filter><filter id="b" color-interpolation-filters="sRGB" filterUnits="userSpaceOnUse" height="89.5" width="86" x="-19" y="53"><feFlood flood-opacity="0" result="BackgroundImageFix"/><feColorMatrix in="SourceAlpha" type="matrix" values="0 0 0 0 0 0 0 0 0 0 0 0 0 0 0 0 0 0 127 0"/><feOffset dx="4"/><feGaussianBlur stdDeviation="2"/><feColorMatrix type="matrix" values="0 0 0 0 0 0 0 0 0 0 0 0 0 0 0 0 0 0 0.2 0"/><feBlend in2="BackgroundImageFix" mode="normal" result="effect1_dropShadow"/><feBlend in="SourceGraphic" in2="effect1_dropShadow" mode="normal" result="shape"/></filter><filter id="c" color-interpolation-filters="sRGB" filterUnits="userSpaceOnUse" height="14.5" width="20.5" x="0" y="85"><feFlood flood-opacity="0" result="BackgroundImageFix"/><feColorMatrix in="SourceAlpha" type="matrix" values="0 0 0 0 0 0 0 0 0 0 0 0 0 0 0 0 0 0 127 0"/><feOffset dx="1"/><feGaussianBlur stdDeviation=".5"/><feColorMatrix type="matrix" values="0 0 0 0 0 0 0 0 0 0 0 0 0 0 0 0 0 0 0.2 0"/><feBlend in2="BackgroundImageFix" mode="normal" result="effect1_dropShadow"/><feBlend in="SourceGraphic" in2="effect1_dropShadow" mode="normal" result="shape"/></filter><filter id="d" color-interpolation-filters="sRGB" filterUnits="userSpaceOnUse" height="14.5" width="20.5" x="23" y="85"><feFlood flood-opacity="0" result="BackgroundImageFix"/><feColorMatrix in="SourceAlpha" type="matrix" values="0 0 0 0 0 0 0 0 0 0 0 0 0 0 0 0 0 0 127 0"/><feOffset dx="1"/><feGaussianBlur stdDeviation=".5"/><feColorMatrix type="matrix" values="0 0 0 0 0 0 0 0 0 0 0 0 0 0 0 0 0 0 0.2 0"/><feBlend in2="BackgroundImageFix" mode="normal" result="effect1_dropShadow"/><feBlend in="SourceGraphic" in2="effect1_dropShadow" mode="normal" result="shape"/></filter><filter id="e" color-interpolation-filters="sRGB" filterUnits="userSpaceOnUse" height="14.5" width="20.5" x="10" y="90"><feFlood flood-opacity="0" result="BackgroundImageFix"/><feColorMatrix in="SourceAlpha" type="matrix" values="0 0 0 0 0 0 0 0 0 0 0 0 0 0 0 0 0 0 127 0"/><feOffset dx="1"/><feGaussianBlur stdDeviation=".5"/><feColorMatrix type="matrix" values="0 0 0 0 0 0 0 0 0 0 0 0 0 0 0 0 0 0 0.2 0"/><feBlend in2="BackgroundImageFix" mode="normal" result="effect1_dropShadow"/><feBlend in="SourceGraphic" in2="effect1_dropShadow" mode="normal" result="shape"/></filter><filter id="f" color-interpolation-filters="sRGB" filterUnits="userSpaceOnUse" height="14.5" width="21.5" x="-6" y="125"><feFlood flood-opacity="0" result="BackgroundImageFix"/><feColorMatrix in="SourceAlpha" type="matrix" values="0 0 0 0 0 0 0 0 0 0 0 0 0 0 0 0 0 0 127 0"/><feOffset dx="2"/><feGaussianBlur stdDeviation=".5"/><feColorMatrix type="matrix" values="0 0 0 0 0 0 0 0 0 0 0 0 0 0 0 0 0 0 0.2 0"/><feBlend in2="BackgroundImageFix" mode="normal" result="effect1_dropShadow"/><feBlend in="SourceGraphic" in2="effect1_dropShadow" mode="normal" result="shape"/></filter><filter id="g" color-interpolation-filters="sRGB" filterUnits="userSpaceOnUse" height="14.5" width="21.5" x="24" y="125"><feFlood flood-opacity="0" result="BackgroundImageFix"/><feColorMatrix in="SourceAlpha" type="matrix" values="0 0 0 0 0 0 0 0 0 0 0 0 0 0 0 0 0 0 127 0"/><feOffset dx="2"/><feGaussianBlur stdDeviation=".5"/><feColorMatrix type="matrix" values="0 0 0 0 0 0 0 0 0 0 0 0 0 0 0 0 0 0 0.2 0"/><feBlend in2="BackgroundImageFix" mode="normal" result="effect1_dropShadow"/><feBlend in="SourceGraphic" in2="effect1_dropShadow" mode="normal" result="shape"/></filter><filter id="h" color-interpolation-filters="sRGB" filterUnits="userSpaceOnUse" height="89.5" width="86" x="61" y="53"><feFlood flood-opacity="0" result="BackgroundImageFix"/><feColorMatrix in="SourceAlpha" type="matrix" values="0 0 0 0 0 0 0 0 0 0 0 0 0 0 0 0 0 0 127 0"/><feOffset dx="4"/><feGaussianBlur stdDeviation="2"/><feColorMatrix type="matrix" values="0 0 0 0 0 0 0 0 0 0 0 0 0 0 0 0 0 0 0.2 0"/><feBlend in2="BackgroundImageFix" mode="normal" result="effect1_dropShadow"/><feBlend in="SourceGraphic" in2="effect1_dropShadow" mode="normal" result="shape"/></filter><filter id="i" color-interpolation-filters="sRGB" filterUnits="userSpaceOnUse" height="14.5" width="20.5" x="80" y="85"><feFlood flood-opacity="0" result="BackgroundImageFix"/><feColorMatrix in="SourceAlpha" type="matrix" values="0 0 0 0 0 0 0 0 0 0 0 0 0 0 0 0 0 0 127 0"/><feOffset dx="1"/><feGaussianBlur stdDeviation=".5"/><feColorMatrix type="matrix" values="0 0 0 0 0 0 0 0 0 0 0 0 0 0 0 0 0 0 0.2 0"/><feBlend in2="BackgroundImageFix" mode="normal" result="effect1_dropShadow"/><feBlend in="SourceGraphic" in2="effect1_dropShadow" mode="normal" result="shape"/></filter><filter id="j" color-interpolation-filters="sRGB" filterUnits="userSpaceOnUse" height="14.5" width="20.5" x="103" y="85"><feFlood flood-opacity="0" result="BackgroundImageFix"/><feColorMatrix in="SourceAlpha" type="matrix" values="0 0 0 0 0 0 0 0 0 0 0 0 0 0 0 0 0 0 127 0"/><feOffset dx="1"/><feGaussianBlur stdDeviation=".5"/><feColorMatrix type="matrix" values="0 0 0 0 0 0 0 0 0 0 0 0 0 0 0 0 0 0 0.2 0"/><feBlend in2="BackgroundImageFix" mode="normal" result="effect1_dropShadow"/><feBlend in="SourceGraphic" in2="effect1_dropShadow" mode="normal" result="shape"/></filter><filter id="k" color-interpolation-filters="sRGB" filterUnits="userSpaceOnUse" height="14.5" width="20.5" x="90" y="90"><feFlood flood-opacity="0" result="BackgroundImageFix"/><feColorMatrix in="SourceAlpha" type="matrix" values="0 0 0 0 0 0 0 0 0 0 0 0 0 0 0 0 0 0 127 0"/><feOffset dx="1"/><feGaussianBlur stdDeviation=".5"/><feColorMatrix type="matrix" values="0 0 0 0 0 0 0 0 0 0 0 0 0 0 0 0 0 0 0.2 0"/><feBlend in2="BackgroundImageFix" mode="normal" result="effect1_dropShadow"/><feBlend in="SourceGraphic" in2="effect1_dropShadow" mode="normal" result="shape"/></filter><filter id="l" color-interpolation-filters="sRGB" filterUnits="userSpaceOnUse" height="14.5" width="21.5" x="74" y="125"><feFlood flood-opacity="0" result="BackgroundImageFix"/><feColorMatrix in="SourceAlpha" type="matrix" values="0 0 0 0 0 0 0 0 0 0 0 0 0 0 0 0 0 0 127 0"/><feOffset dx="2"/><feGaussianBlur stdDeviation=".5"/><feColorMatrix type="matrix" values="0 0 0 0 0 0 0 0 0 0 0 0 0 0 0 0 0 0 0.2 0"/><feBlend in2="BackgroundImageFix" mode="normal" result="effect1_dropShadow"/><feBlend in="SourceGraphic" in2="effect1_dropShadow" mode="normal" result="shape"/></filter><filter id="m" color-interpolation-filters="sRGB" filterUnits="userSpaceOnUse" height="14.5" width="21.5" x="104" y="125"><feFlood flood-opacity="0" result="BackgroundImageFix"/><feColorMatrix in="SourceAlpha" type="matrix" values="0 0 0 0 0 0 0 0 0 0 0 0 0 0 0 0 0 0 127 0"/><feOffset dx="2"/><feGaussianBlur stdDeviation=".5"/><feColorMatrix type="matrix" values="0 0 0 0 0 0 0 0 0 0 0 0 0 0 0 0 0 0 0.2 0"/><feBlend in2="BackgroundImageFix" mode="normal" result="effect1_dropShadow"/><feBlend in="SourceGraphic" in2="effect1_dropShadow" mode="normal" result="shape"/></filter><filter id="n" color-interpolation-filters="sRGB" filterUnits="userSpaceOnUse" height="89.5" width="86" x="141" y="53"><feFlood flood-opacity="0" result="BackgroundImageFix"/><feColorMatrix in="SourceAlpha" type="matrix" values="0 0 0 0 0 0 0 0 0 0 0 0 0 0 0 0 0 0 127 0"/><feOffset dx="4"/><feGaussianBlur stdDeviation="2"/><feColorMatrix type="matrix" values="0 0 0 0 0 0 0 0 0 0 0 0 0 0 0 0 0 0 0.2 0"/><feBlend in2="BackgroundImageFix" mode="normal" result="effect1_dropShadow"/><feBlend in="SourceGraphic" in2="effect1_dropShadow" mode="normal" result="shape"/></filter><filter id="o" color-interpolation-filters="sRGB" filterUnits="userSpaceOnUse" height="14.5" width="20.5" x="160" y="85"><feFlood flood-opacity="0" result="BackgroundImageFix"/><feColorMatrix in="SourceAlpha" type="matrix" values="0 0 0 0 0 0 0 0 0 0 0 0 0 0 0 0 0 0 127 0"/><feOffset dx="1"/><feGaussianBlur stdDeviation=".5"/><feColorMatrix type="matrix" values="0 0 0 0 0 0 0 0 0 0 0 0 0 0 0 0 0 0 0.2 0"/><feBlend in2="BackgroundImageFix" mode="normal" result="effect1_dropShadow"/><feBlend in="SourceGraphic" in2="effect1_dropShadow" mode="normal" result="shape"/></filter><filter id="p" color-interpolation-filters="sRGB" filterUnits="userSpaceOnUse" height="14.5" width="20.5" x="183" y="85"><feFlood flood-opacity="0" result="BackgroundImageFix"/><feColorMatrix in="SourceAlpha" type="matrix" values="0 0 0 0 0 0 0 0 0 0 0 0 0 0 0 0 0 0 127 0"/><feOffset dx="1"/><feGaussianBlur stdDeviation=".5"/><feColorMatrix type="matrix" values="0 0 0 0 0 0 0 0 0 0 0 0 0 0 0 0 0 0 0.2 0"/><feBlend in2="BackgroundImageFix" mode="normal" result="effect1_dropShadow"/><feBlend in="SourceGraphic" in2="effect1_dropShadow" mode="normal" result="shape"/></filter><filter id="q" color-interpolation-filters="sRGB" filterUnits="userSpaceOnUse" height="14.5" width="20.5" x="170" y="90"><feFlood flood-opacity="0" result="BackgroundImageFix"/><feColorMatrix in="SourceAlpha" type="matrix" values="0 0 0 0 0 0 0 0 0 0 0 0 0 0 0 0 0 0 127 0"/><feOffset dx="1"/><feGaussianBlur stdDeviation=".5"/><feColorMatrix type="matrix" values="0 0 0 0 0 0 0 0 0 0 0 0 0 0 0 0 0 0 0.2 0"/><feBlend in2="BackgroundImageFix" mode="normal" result="effect1_dropShadow"/><feBlend in="SourceGraphic" in2="effect1_dropShadow" mode="normal" result="shape"/></filter><filter id="r" color-interpolation-filters="sRGB" filterUnits="userSpaceOnUse" height="14.5" width="21.5" x="154" y="125"><feFlood flood-opacity="0" result="BackgroundImageFix"/><feColorMatrix in="SourceAlpha" type="matrix" values="0 0 0 0 0 0 0 0 0 0 0 0 0 0 0 0 0 0 127 0"/><feOffset dx="2"/><feGaussianBlur stdDeviation=".5"/><feColorMatrix type="matrix" values="0 0 0 0 0 0 0 0 0 0 0 0 0 0 0 0 0 0 0.2 0"/><feBlend in2="BackgroundImageFix" mode="normal" result="effect1_dropShadow"/><feBlend in="SourceGraphic" in2="effect1_dropShadow" mode="normal" result="shape"/></filter><filter id="s" color-interpolation-filters="sRGB" filterUnits="userSpaceOnUse" height="14.5" width="21.5" x="184" y="125"><feFlood flood-opacity="0" result="BackgroundImageFix"/><feColorMatrix in="SourceAlpha" type="matrix" values="0 0 0 0 0 0 0 0 0 0 0 0 0 0 0 0 0 0 127 0"/><feOffset dx="2"/><feGaussianBlur stdDeviation=".5"/><feColorMatrix type="matrix" values="0 0 0 0 0 0 0 0 0 0 0 0 0 0 0 0 0 0 0.2 0"/><feBlend in2="BackgroundImageFix" mode="normal" result="effect1_dropShadow"/><feBlend in="SourceGraphic" in2="effect1_dropShadow" mode="normal" result="shape"/></filter><filter id="t" color-interpolation-filters="sRGB" filterUnits="userSpaceOnUse" height="89.5" width="86" x="221" y="53"><feFlood flood-opacity="0" result="BackgroundImageFix"/><feColorMatrix in="SourceAlpha" type="matrix" values="0 0 0 0 0 0 0 0 0 0 0 0 0 0 0 0 0 0 127 0"/><feOffset dx="4"/><feGaussianBlur stdDeviation="2"/><feColorMatrix type="matrix" values="0 0 0 0 0 0 0 0 0 0 0 0 0 0 0 0 0 0 0.2 0"/><feBlend in2="BackgroundImageFix" mode="normal" result="effect1_dropShadow"/><feBlend in="SourceGraphic" in2="effect1_dropShadow" mode="normal" result="shape"/></filter><filter id="u" color-interpolation-filters="sRGB" filterUnits="userSpaceOnUse" height="14.5" width="20.5" x="240" y="85"><feFlood flood-opacity="0" result="BackgroundImageFix"/><feColorMatrix in="SourceAlpha" type="matrix" values="0 0 0 0 0 0 0 0 0 0 0 0 0 0 0 0 0 0 127 0"/><feOffset dx="1"/><feGaussianBlur stdDeviation=".5"/><feColorMatrix type="matrix" values="0 0 0 0 0 0 0 0 0 0 0 0 0 0 0 0 0 0 0.2 0"/><feBlend in2="BackgroundImageFix" mode="normal" result="effect1_dropShadow"/><feBlend in="SourceGraphic" in2="effect1_dropShadow" mode="normal" result="shape"/></filter><filter id="v" color-interpolation-filters="sRGB" filterUnits="userSpaceOnUse" height="14.5" width="20.5" x="263" y="85"><feFlood flood-opacity="0" result="BackgroundImageFix"/><feColorMatrix in="SourceAlpha" type="matrix" values="0 0 0 0 0 0 0 0 0 0 0 0 0 0 0 0 0 0 127 0"/><feOffset dx="1"/><feGaussianBlur stdDeviation=".5"/><feColorMatrix type="matrix" values="0 0 0 0 0 0 0 0 0 0 0 0 0 0 0 0 0 0 0.2 0"/><feBlend in2="BackgroundImageFix" mode="normal" result="effect1_dropShadow"/><feBlend in="SourceGraphic" in2="effect1_dropShadow" mode="normal" result="shape"/></filter><filter id="w" color-interpolation-filters="sRGB" filterUnits="userSpaceOnUse" height="14.5" width="20.5" x="250" y="90"><feFlood flood-opacity="0" result="BackgroundImageFix"/><feColorMatrix in="SourceAlpha" type="matrix" values="0 0 0 0 0 0 0 0 0 0 0 0 0 0 0 0 0 0 127 0"/><feOffset dx="1"/><feGaussianBlur stdDeviation=".5"/><feColorMatrix type="matrix" values="0 0 0 0 0 0 0 0 0 0 0 0 0 0 0 0 0 0 0.2 0"/><feBlend in2="BackgroundImageFix" mode="normal" result="effect1_dropShadow"/><feBlend in="SourceGraphic" in2="effect1_dropShadow" mode="normal" result="shape"/></filter><filter id="x" color-interpolation-filters="sRGB" filterUnits="userSpaceOnUse" height="14.5" width="21.5" x="234" y="125"><feFlood flood-opacity="0" result="BackgroundImageFix"/><feColorMatrix in="SourceAlpha" type="matrix" values="0 0 0 0 0 0 0 0 0 0 0 0 0 0 0 0 0 0 127 0"/><feOffset dx="2"/><feGaussianBlur stdDeviation=".5"/><feColorMatrix type="matrix" values="0 0 0 0 0 0 0 0 0 0 0 0 0 0 0 0 0 0 0.2 0"/><feBlend in2="BackgroundImageFix" mode="normal" result="effect1_dropShadow"/><feBlend in="SourceGraphic" in2="effect1_dropShadow" mode="normal" result="shape"/></filter><filter id="y" color-interpolation-filters="sRGB" filterUnits="userSpaceOnUse" height="14.5" width="21.5" x="264" y="125"><feFlood flood-opacity="0" result="BackgroundImageFix"/><feColorMatrix in="SourceAlpha" type="matrix" values="0 0 0 0 0 0 0 0 0 0 0 0 0 0 0 0 0 0 127 0"/><feOffset dx="2"/><feGaussianBlur stdDeviation=".5"/><feColorMatrix type="matrix" values="0 0 0 0 0 0 0 0 0 0 0 0 0 0 0 0 0 0 0.2 0"/><feBlend in2="BackgroundImageFix" mode="normal" result="effect1_dropShadow"/><feBlend in="SourceGraphic" in2="effect1_dropShadow" mode="normal" result="shape"/></filter><mask id="z" height="176" maskUnits="userSpaceOnUse" width="280" x="0" y="0"><path d="m0 0h280v176h-280z" fill="#fff"/></mask><mask id="A" height="38" maskUnits="userSpaceOnUse" width="281" x="0" y="138"><path d="m0 138h281v38h-281z" fill="#f4e97d"/></mask><mask id="B" height="58" maskUnits="userSpaceOnUse" width="326" x="-6" y="129"><path d="m-6 129h325.286v57.1195h-325.286z" fill="#89cdd3"/></mask><path d="m0 0h280v176h-280z" fill="#2c5291"/><g mask="url(#z)"><path d="m-1 138h281v38h-281z" fill="#f4e97d"/><g mask="url(#A)"><g mask="url(#B)"><path d="m13.1737 153.807h-1.0726v1.206z" fill="#acdeb6"/><path d="m17.4644 156.891.5363-.805.4023.805z" fill="#acdeb6"/><path d="m135.726 153.004h-1.073v1.207z" fill="#acdeb6"/><path d="m140.017 156.088.536-.805.402.805z" fill="#acdeb6"/><path d="m72.6624 158.061 1.0722.031.0341-1.206z" fill="#acdeb6"/><path d="m68.4606 154.858-.5589.789-.3793-.816z" fill="#acdeb6"/><path d="m195.215 157.259 1.072.03.034-1.206z" fill="#acdeb6"/><path d="m191.013 154.055-.559.789-.379-.816z" fill="#acdeb6"/><path d="m272.262 150.16-1.072-.031-.035 1.206z" fill="#acdeb6"/><path d="m276.461 153.368.56-.789.379.816z" fill="#acdeb6"/><path d="m7.15652 158.567 1.07224.031.03411-1.207z" fill="#acdeb6"/><path d="m2.95474 155.363-.55886.789-.37935-.815z" fill="#acdeb6"/><path d="m129.709 157.763 1.072.03.034-1.206z" fill="#acdeb6"/><path d="m125.507 154.559-.559.789-.379-.816z" fill="#acdeb6"/><path d="m113.514 160.875.741.775.873-.833z" fill="#acdeb6"/><path d="m112.781 155.642-.952.168.304-.847z" fill="#acdeb6"/><path d="m22.021 146.981 1.0723.031.0341-1.207z" fill="#acdeb6"/><path d="m17.8192 143.777-.5588.789-.3794-.815z" fill="#acdeb6"/><path d="m144.573 146.179 1.073.03.034-1.206z" fill="#acdeb6"/><path d="m140.371 142.975-.558.789-.38-.816z" fill="#acdeb6"/><path d="m88.4197 152.2.5727.907 1.0204-.644z" fill="#acdeb6"/><path d="m88.7362 146.926-.9666-.024.4654-.77z" fill="#acdeb6"/><path d="m210.972 151.398.573.907 1.02-.645z" fill="#acdeb6"/><path d="m211.288 146.123-.966-.024.465-.769z" fill="#acdeb6"/><path d="m256.5 156.007-.572-.907-1.021.643z" fill="#acdeb6"/><path d="m256.179 161.281.966.025-.466.769z" fill="#acdeb6"/><path d="m101.892 151.217-1.065-.127-.143 1.198z" fill="#acdeb6"/><path d="m105.787 154.787.628-.735.304.846z" fill="#acdeb6"/><path d="m224.444 150.414-1.065-.127-.143 1.198z" fill="#acdeb6"/><path d="m228.339 153.984.628-.735.304.847z" fill="#acdeb6"/><path d="m243.027 156.976 1.065.128.144-1.199z" fill="#acdeb6"/><path d="m239.135 153.402-.628.735-.304-.847z" fill="#acdeb6"/><path d="m54.9631 143.879-1.0652-.127-.1428 1.198z" fill="#acdeb6"/><path d="m58.8584 147.449.6278-.735.3042.846z" fill="#acdeb6"/><path d="m177.516 143.072-1.066-.127-.142 1.199z" fill="#acdeb6"/><path d="m181.411 146.643.628-.736.304.847z" fill="#acdeb6"/><path d="m32.4005 154.461-.2938-1.031-1.1606.33z" fill="#acdeb6"/><path d="m30.6098 159.433.9206.295-.6635.607z" fill="#acdeb6"/><path d="m154.953 153.657-.294-1.032-1.161.331z" fill="#acdeb6"/><path d="m153.162 158.628.921.295-.664.608z" fill="#acdeb6"/><path d="m53.4623 156.869.2645 1.039 1.1695-.297z" fill="#acdeb6"/><path d="m55.3928 151.95-.9119-.321.6804-.589z" fill="#acdeb6"/><path d="m176.015 156.062.264 1.04 1.17-.298z" fill="#acdeb6"/><path d="m177.945 151.143-.912-.321.681-.588z" fill="#acdeb6"/><path d="m44.0958 161.916.2646 1.039 1.1694-.298z" fill="#acdeb6"/><path d="m46.0264 156.997-.912-.322.6805-.588z" fill="#acdeb6"/><path d="m166.648 161.113.265 1.039 1.169-.297z" fill="#acdeb6"/><path d="m168.579 156.194-.912-.321.68-.588z" fill="#acdeb6"/><path d="m40.0731 151.992.2645 1.039 1.1695-.297z" fill="#acdeb6"/><path d="m42.0037 147.073-.912-.321.6805-.589z" fill="#acdeb6"/><path d="m162.626 151.189.264 1.04 1.17-.298z" fill="#acdeb6"/><path d="m164.556 146.27-.912-.321.681-.588z" fill="#acdeb6"/><path d="m4.72656 151.661v-1.073l.93859.402z" fill="#acdeb6"/><path d="m127.279 150.858v-1.073l.938.402z" fill="#acdeb6"/><path d="m81.0459 160.447-.0303 1.073-.9268-.429z" fill="#acdeb6"/><path d="m203.598 159.645-.03 1.072-.927-.429z" fill="#acdeb6"/><path d="m263.881 147.766.032-1.073.926.43z" fill="#acdeb6"/><path d="m15.5398 160.949-.0303 1.072-.9268-.428z" fill="#acdeb6"/><path d="m138.092 160.147-.03 1.072-.927-.429z" fill="#acdeb6"/><path d="m120.739 145.924-.031 1.072-.927-.429z" fill="#acdeb6"/><path d="m91.1159 160.49-.9069.572-.1611-1.008z" fill="#acdeb6"/><path d="m213.668 159.685-.907.573-.161-1.009z" fill="#acdeb6"/><path d="m253.811 147.716.908-.571.16 1.008z" fill="#acdeb6"/><path d="m250.636 152.638.907-.572.16 1.009z" fill="#acdeb6"/><path d="m67.5447 149.908-.907.572-.161-1.008z" fill="#acdeb6"/><path d="m190.097 149.105-.907.573-.161-1.009z" fill="#acdeb6"/><path d="m277.373 158.318.907-.572.16 1.009z" fill="#acdeb6"/><path d="m93.7577 148.087.1271-1.066.8843.511z" fill="#acdeb6"/><path d="m216.31 147.284.127-1.065.884.51z" fill="#acdeb6"/><path d="m251.158 160.115-.128 1.065-.884-.512z" fill="#acdeb6"/><path d="m223.538 164.244-.128 1.065-.884-.512z" fill="#acdeb6"/><path d="m32.1498 145.749 1.0316-.294-.1298 1.013z" fill="#acdeb6"/><path d="m154.702 144.946 1.032-.294-.13 1.013z" fill="#acdeb6"/><path d="m53.4663 165.581-1.0395.265.1583-1.009z" fill="#acdeb6"/><path d="m176.019 164.778-1.04.265.158-1.009z" fill="#acdeb6"/><path d="m25.3054 164.775-1.0395.264.1583-1.009z" fill="#acdeb6"/><path d="m147.858 163.968-1.04.264.158-1.008z" fill="#acdeb6"/><path d="m6.4695 145.896-1.34084 1.073 1.34084.805z" fill="#acdeb6"/><path d="m129.022 145.094-1.341 1.072 1.341.805z" fill="#acdeb6"/><path d="m79.1404 166.161 1.3706-1.034-1.3175-.842z" fill="#acdeb6"/><path d="m201.693 165.357 1.37-1.035-1.317-.842z" fill="#acdeb6"/><path d="m265.792 142.057-1.372 1.033 1.317.843z" fill="#acdeb6"/><path d="m65.3323 165.741 1.3706-1.034-1.3175-.842z" fill="#acdeb6"/><path d="m187.885 164.935 1.37-1.035-1.317-.842z" fill="#acdeb6"/><path d="m279.6 142.486-1.372 1.033 1.317.844z" fill="#acdeb6"/><path d="m73.9136 146.163 1.3706-1.034-1.3175-.842z" fill="#acdeb6"/><path d="m196.466 145.361 1.37-1.035-1.317-.842z" fill="#acdeb6"/><path d="m271.001 162.057-1.372 1.033 1.317.843z" fill="#acdeb6"/><path d="m13.6343 166.663 1.3706-1.034-1.3175-.842z" fill="#acdeb6"/><path d="m136.187 165.859 1.37-1.035-1.317-.842z" fill="#acdeb6"/><path d="m85.3107 162.095 1.6229.561-.0357-1.563z" fill="#acdeb6"/><path d="m207.863 161.288 1.623.561-.036-1.563z" fill="#acdeb6"/><path d="m259.618 146.117-1.623-.563.035 1.564z" fill="#acdeb6"/><path d="m233.899 163.39-1.623-.562.035 1.563z" fill="#acdeb6"/><path d="m233.63 144.429-1.622-.562.034 1.563z" fill="#acdeb6"/><path d="m73.3773 162.72 1.6229.561-.0357-1.563z" fill="#acdeb6"/><path d="m195.93 161.917 1.622.561-.035-1.563z" fill="#acdeb6"/><path d="m271.552 145.5-1.622-.563.034 1.563z" fill="#acdeb6"/><path d="m245.565 143.814-1.623-.562.035 1.563z" fill="#acdeb6"/><path d="m69.0866 144.216 1.6228.561-.0357-1.563z" fill="#acdeb6"/><path d="m191.639 143.413 1.623.561-.036-1.563z" fill="#acdeb6"/><path d="m275.826 164.007-1.622-.562.034 1.563z" fill="#acdeb6"/><path d="m96.1715 142.571-1.4584.906 1.2361.958z" fill="#acdeb6"/><path d="m218.724 141.764-1.459.907 1.236.957z" fill="#acdeb6"/><path d="m248.74 165.633 1.459-.905-1.236-.959z" fill="#acdeb6"/><path d="m38.1724 145.846-1.3989-.996-.4064 1.51z" fill="#acdeb6"/><path d="m160.725 145.042-1.399-.996-.406 1.51z" fill="#acdeb6"/><path d="m47.4486 165.316 1.3702 1.035.449-1.498z" fill="#acdeb6"/><path d="m170.001 164.511 1.37 1.035.449-1.498z" fill="#acdeb6"/><g fill="#e7e88c"><path d="m16.6601 148.311-.8045.402.8045 1.072z"/><path d="m11.699 159.439-.6704.805.6704.536z"/><path d="m25.1073 148.713-1.2067 1.072.9386.939z"/><path d="m20.9507 153.406-.5363-.671-.2682 1.073z"/><path d="m139.212 147.508-.804.402.804 1.073z"/><path d="m134.251 158.637-.67.804.67.537z"/><path d="m147.66 147.91-1.207 1.073.938.938z"/><path d="m143.503 152.603-.536-.67-.269 1.072z"/><path d="m69.0224 163.46.8155-.379-.7738-1.095z"/><path d="m74.2961 152.476.6928-.786-.6549-.555z"/><path d="m60.5898 162.819 1.2366-1.038-.9116-.965z"/><path d="m64.8774 158.246.5172.685.2984-1.065z"/><path d="m191.575 162.657.815-.379-.774-1.095z"/><path d="m196.848 151.673.693-.785-.655-.555z"/><path d="m183.142 162.016 1.237-1.038-.912-.965z"/><path d="m187.43 157.443.517.685.298-1.065z"/><path d="m275.907 144.766-.816.378.773 1.096z"/><path d="m270.624 155.745-.694.785.655.556z"/><path d="m284.339 145.414-1.237 1.037.91.966z"/><path d="m280.047 149.984-.516-.686-.299 1.064z"/><path d="m3.51625 163.966.81555-.38-.77385-1.095z"/><path d="m8.78995 152.982.69289-.786-.65499-.555z"/><path d="m-4.91625 163.325 1.23659-1.038-.91168-.965z"/><path d="m-.62867 158.751.517168.686.298382-1.065z"/><path d="m126.069 163.159.815-.379-.774-1.095z"/><path d="m131.342 152.175.693-.785-.655-.555z"/><path d="m117.636 162.518 1.237-1.038-.912-.965z"/><path d="m121.924 157.945.517.685.298-1.065z"/><path d="m111.588 165.306.815-.38-.774-1.095z"/><path d="m116.861 154.321.693-.785-.655-.555z"/><path d="m103.155 164.665 1.237-1.038-.912-.965z"/><path d="m107.443 160.091.517.686.298-1.065z"/><path d="m81.9103 152.19.7697.465.4774-1.253z"/><path d="m93.969 150.442 1.0382.137.0955-.853z"/><path d="m77.74 144.833 1.5513.447.2925-1.295z"/><path d="m83.9274 145.841-.2805.812 1.0501-.346z"/><path d="m204.463 151.383.769.465.478-1.253z"/><path d="m216.521 149.635 1.038.138.096-.854z"/><path d="m200.292 144.026 1.552.447.292-1.294z"/><path d="m206.48 145.035-.281.811 1.05-.346z"/><path d="m263.01 156.024-.77-.466-.478 1.252z"/><path d="m250.949 157.761-1.038-.138-.096.853z"/><path d="m267.173 163.385-1.551-.449-.293 1.294z"/><path d="m260.987 162.371.281-.812-1.05.345z"/><path d="m81.6418 165.328.7696.466.4774-1.253z"/><path d="m93.7004 163.581 1.0382.137.0955-.853z"/><path d="m77.4715 157.971 1.5513.448.2924-1.295z"/><path d="m83.6588 158.98-.2805.811 1.0502-.346z"/><path d="m204.194 164.526.77.465.477-1.253z"/><path d="m216.253 162.778 1.038.137.095-.853z"/><path d="m200.024 157.168 1.551.448.292-1.295z"/><path d="m206.211 158.177-.28.812 1.05-.346z"/><path d="m263.29 142.885-.77-.466-.478 1.253z"/><path d="m251.229 144.622-1.038-.138-.096.853z"/><path d="m267.453 150.246-1.551-.449-.293 1.295z"/><path d="m261.267 149.232.281-.811-1.05.345z"/><path d="m60.9931 151.115.7696.466.4774-1.253z"/><path d="m73.0517 149.368 1.0382.137.0955-.853z"/><path d="m56.8228 143.758 1.5513.448.2924-1.295z"/><path d="m63.0101 144.767-.2804.811 1.0501-.346z"/><path d="m183.545 150.313.77.465.477-1.253z"/><path d="m195.604 148.565 1.038.137.096-.853z"/><path d="m179.375 142.956 1.551.447.293-1.295z"/><path d="m185.562 143.964-.28.812 1.05-.346z"/><path d="m283.926 157.116-.77-.466-.478 1.252z"/><path d="m271.865 158.853-1.038-.139-.096.854z"/><path d="m288.089 164.477-1.551-.449-.293 1.294z"/><path d="m281.903 163.462.281-.811-1.05.345z"/><path d="m23.1816 166.403.7696.465.4774-1.253z"/><path d="m35.2402 164.655 1.0382.137.0955-.853z"/><path d="m19.0113 159.045 1.5513.448.2924-1.295z"/><path d="m25.1986 160.054-.2805.812 1.0502-.346z"/><path d="m145.734 165.598.769.465.478-1.253z"/><path d="m157.792 163.85 1.039.138.095-.854z"/><path d="m141.564 158.241 1.551.447.292-1.294z"/><path d="m147.751 159.249-.281.812 1.051-.346z"/><path d="m-1.48959 150.85.769669.465.477398-1.253z"/><path d="m10.5691 149.102 1.0382.138.0955-.854z"/><path d="m-5.65987 143.493 1.5513.447.29243-1.294z"/><path d="m.527474 144.501-.280476.812 1.050142-.346z"/><path d="m121.063 150.043.769.466.478-1.253z"/><path d="m133.121 148.296 1.039.137.095-.853z"/><path d="m116.892 142.686 1.552.448.292-1.295z"/><path d="m123.08 143.695-.281.811 1.05-.346z"/><path d="m106.004 146.173-.846.304.672 1.16z"/><path d="m99.7602 156.636-.7609.719.6022.612z"/><path d="m114.344 147.572-1.325.923.821 1.043z"/><path d="m109.661 151.74-.453-.729-.393 1.033z"/><path d="m228.557 145.37-.847.304.672 1.161z"/><path d="m222.313 155.833-.761.72.602.612z"/><path d="m236.897 146.77-1.325.922.821 1.043z"/><path d="m232.214 150.937-.453-.729-.393 1.034z"/><path d="m238.91 162.02.847-.304-.671-1.161z"/><path d="m245.163 151.562.762-.719-.602-.612z"/><path d="m230.571 160.612 1.326-.921-.82-1.043z"/><path d="m235.258 156.449.452.73.394-1.033z"/><path d="m38.6424 156.307-.6073-.664-.8112 1.068z"/><path d="m26.5802 154.584-.9574-.425-.3322.792z"/><path d="m40.5693 164.541-1.3622-.867-.6456 1.16z"/><path d="m34.9173 161.829.4979-.7-1.1051.036z"/><path d="m161.195 155.504-.607-.664-.811 1.068z"/><path d="m149.133 153.781-.957-.424-.333.791z"/><path d="m163.122 163.738-1.362-.866-.646 1.159z"/><path d="m157.47 161.026.498-.699-1.105.036z"/><path d="m47.2748 154.845.5882.681.8411-1.045z"/><path d="m59.2834 156.908.945.452.3545-.782z"/><path d="m45.5814 146.56 1.3371.905.6782-1.142z"/><path d="m51.1544 149.43-.5174.686 1.1057-.005z"/><path d="m169.827 154.042.588.681.841-1.044z"/><path d="m181.836 156.106.945.451.354-.782z"/><path d="m168.134 145.757 1.337.905.678-1.141z"/><path d="m173.707 148.628-.518.685 1.106-.005z"/><path d="m42.5939 144.232-.7282-.528-.5803 1.209z"/><path d="m30.4314 144.968-1.0231-.224-.1663.843z"/><path d="m46.1359 151.911-1.5086-.575-.3994 1.266z"/><path d="m40.0542 150.39.3472-.785-1.0753.257z"/><path d="m165.146 143.425-.728-.528-.58 1.209z"/><path d="m152.984 144.161-1.023-.223-.167.842z"/><path d="m168.688 151.105-1.508-.576-.4 1.266z"/><path d="m162.606 149.583.348-.785-1.076.257z"/></g><path d="m41.6827 137.242.2646 1.039 1.1694-.297z" fill="#acdeb6"/><path d="m43.6133 132.323-.9119-.321.6804-.589z" fill="#acdeb6"/><path d="m221.125 139.57-.128 1.065-.884-.512z" fill="#acdeb6"/><path d="m51.0532 140.907-1.0395.265.1583-1.009z" fill="#acdeb6"/><path d="m173.605 140.105-1.039.264.158-1.009z" fill="#acdeb6"/><path d="m22.8923 140.101-1.0395.264.1583-1.009z" fill="#acdeb6"/><path d="m145.445 139.294-1.04.265.158-1.009z" fill="#acdeb6"/><path d="m76.7273 141.487 1.3706-1.034-1.3175-.842z" fill="#acdeb6"/><path d="m199.28 140.683 1.37-1.035-1.317-.842z" fill="#acdeb6"/><path d="m62.9192 141.068 1.3706-1.035-1.3175-.842z" fill="#acdeb6"/><path d="m185.471 140.261 1.371-1.034-1.317-.842z" fill="#acdeb6"/><path d="m268.588 137.383-1.372 1.033 1.317.843z" fill="#acdeb6"/><path d="m11.2212 141.989 1.3706-1.034-1.3175-.842z" fill="#acdeb6"/><path d="m133.773 141.185 1.371-1.035-1.317-.842z" fill="#acdeb6"/><path d="m82.8976 137.421 1.6229.561-.0357-1.563z" fill="#acdeb6"/><path d="m231.486 138.716-1.623-.562.035 1.563z" fill="#acdeb6"/><path d="m70.9642 138.046 1.6229.561-.0357-1.563z" fill="#acdeb6"/><path d="m193.516 137.243 1.623.561-.035-1.563z" fill="#acdeb6"/><path d="m273.413 139.334-1.622-.563.034 1.563z" fill="#acdeb6"/><path d="m246.326 140.959 1.46-.905-1.236-.959z" fill="#acdeb6"/><path d="m45.0355 140.642 1.3702 1.035.449-1.498z" fill="#acdeb6"/><path d="m167.588 139.837 1.37 1.035.449-1.498z" fill="#acdeb6"/><path d="m66.6093 138.786.8155-.379-.7738-1.095z" fill="#e7e88c"/><path d="m71.883 127.802.6929-.785-.655-.555z" fill="#e7e88c"/><path d="m58.1768 138.145 1.2366-1.038-.9117-.965z" fill="#e7e88c"/><path d="m62.4643 133.572.5172.685.2984-1.065z" fill="#e7e88c"/><path d="m189.162 137.983.815-.379-.774-1.095z" fill="#e7e88c"/><path d="m194.435 126.999.693-.785-.655-.555z" fill="#e7e88c"/><path d="m180.729 137.343 1.237-1.039-.912-.964z" fill="#e7e88c"/><path d="m185.017 132.769.517.685.298-1.064z" fill="#e7e88c"/><path d="m1.10317 139.292.81555-.379-.77386-1.095z" fill="#e7e88c"/><path d="m6.37687 128.308.69289-.785-.65499-.556z" fill="#e7e88c"/><path d="m-7.32934 138.651 1.23659-1.038-.91168-.965z" fill="#e7e88c"/><path d="m-3.04176 134.078.51717.685.29838-1.065z" fill="#e7e88c"/><path d="m123.655 138.485.816-.379-.774-1.095z" fill="#e7e88c"/><path d="m128.929 127.501.693-.785-.655-.555z" fill="#e7e88c"/><path d="m115.223 137.844 1.236-1.038-.911-.964z" fill="#e7e88c"/><path d="m119.51 133.271.518.685.298-1.064z" fill="#e7e88c"/><path d="m109.174 140.632.816-.38-.774-1.095z" fill="#e7e88c"/><path d="m114.448 129.648.693-.786-.655-.555z" fill="#e7e88c"/><path d="m100.742 139.991 1.237-1.038-.912-.965z" fill="#e7e88c"/><path d="m105.03 135.417.517.686.298-1.065z" fill="#e7e88c"/><path d="m260.596 131.35-.769-.466-.478 1.253z" fill="#e7e88c"/><path d="m248.536 133.087-1.038-.138-.096.853z" fill="#e7e88c"/><path d="m264.76 138.711-1.551-.449-.293 1.294z" fill="#e7e88c"/><path d="m258.574 137.697.281-.811-1.051.345z" fill="#e7e88c"/><path d="m79.2287 140.654.7696.466.4774-1.253z" fill="#e7e88c"/><path d="m91.2873 138.907 1.0382.137.0955-.853z" fill="#e7e88c"/><path d="m75.0584 133.297 1.5513.448.2924-1.295z" fill="#e7e88c"/><path d="m81.2457 134.306-.2804.812 1.0501-.346z" fill="#e7e88c"/><path d="m201.781 139.852.77.465.477-1.253z" fill="#e7e88c"/><path d="m213.84 138.104 1.038.137.095-.853z" fill="#e7e88c"/><path d="m197.611 132.495 1.551.447.292-1.295z" fill="#e7e88c"/><path d="m203.798 133.503-.28.812 1.05-.346z" fill="#e7e88c"/><path d="m281.512 132.442-.769-.466-.478 1.252z" fill="#e7e88c"/><path d="m269.452 134.179-1.038-.138-.096.853z" fill="#e7e88c"/><path d="m285.676 139.803-1.551-.449-.293 1.294z" fill="#e7e88c"/><path d="m279.49 138.789.281-.812-1.051.345z" fill="#e7e88c"/><path d="m20.7685 141.729.7696.465.4774-1.253z" fill="#e7e88c"/><path d="m32.8271 139.981 1.0382.137.0955-.853z" fill="#e7e88c"/><path d="m16.5982 134.372 1.5513.447.2924-1.295z" fill="#e7e88c"/><path d="m22.7855 135.38-.2804.812 1.0501-.346z" fill="#e7e88c"/><path d="m143.321 140.924.769.465.478-1.253z" fill="#e7e88c"/><path d="m155.379 139.176 1.039.138.095-.853z" fill="#e7e88c"/><path d="m139.15 133.567 1.552.448.292-1.295z" fill="#e7e88c"/><path d="m145.338 134.576-.281.811 1.05-.346z" fill="#e7e88c"/><path d="m36.2293 131.633-.6072-.664-.8113 1.068z" fill="#e7e88c"/><path d="m24.1671 129.91-.9574-.425-.3322.792z" fill="#e7e88c"/><path d="m38.1562 139.867-1.3622-.866-.6456 1.159z" fill="#e7e88c"/><path d="m32.5042 137.155.4979-.699-1.1051.036z" fill="#e7e88c"/><path d="m158.782 130.83-.607-.663-.811 1.067z" fill="#e7e88c"/><path d="m146.72 129.107-.958-.424-.332.791z" fill="#e7e88c"/><path d="m160.709 139.065-1.362-.867-.646 1.16z" fill="#e7e88c"/><path d="m155.057 136.352.498-.699-1.105.036z" fill="#e7e88c"/><path d="m38.1326 175.633 1.0722-.031.0352 1.206z" fill="#acdeb6"/><path d="m33.9337 178.841-.5596-.789-.3786.816z" fill="#acdeb6"/><path d="m165.822 171.651-1.072.031-.035-1.207z" fill="#acdeb6"/><path d="m170.024 168.447.558.789.38-.815z" fill="#acdeb6"/><path d="m221.975 177.673-.572.907-1.021-.644z" fill="#acdeb6"/><path d="m221.659 172.399.966-.024-.465-.77z" fill="#acdeb6"/><path d="m99.4231 176.87-.5728.907-1.0203-.644z" fill="#acdeb6"/><path d="m99.1066 171.596.9664-.024-.4653-.77z" fill="#acdeb6"/><path d="m8.5765 172.814.57194-.908 1.02086.644z" fill="#acdeb6"/><path d="m8.89771 178.088-.96657.025.46612.769z" fill="#acdeb6"/><path d="m85.9512 175.887 1.0652-.127.1429 1.198z" fill="#acdeb6"/><path d="m82.0559 179.457-.6278-.735-.3042.846z" fill="#acdeb6"/><path d="m255.432 169.352 1.065-.127.143 1.198z" fill="#acdeb6"/><path d="m251.537 172.922-.628-.735-.304.846z" fill="#acdeb6"/><path d="m132.879 168.545 1.066-.127.142 1.198z" fill="#acdeb6"/><path d="m128.984 172.115-.628-.735-.304.846z" fill="#acdeb6"/><path d="m134.381 181.535-.265 1.039-1.169-.297z" fill="#acdeb6"/><path d="m132.45 176.616.912-.321-.68-.589z" fill="#acdeb6"/><path d="m18.9334 176.844.2636-1.039 1.1698.296z" fill="#acdeb6"/><path d="m20.8683 181.761-.9116.323.681.587z" fill="#acdeb6"/><path d="m270.322 177.464-.265 1.04-1.169-.298z" fill="#acdeb6"/><path d="m268.391 172.546.912-.322-.68-.588z" fill="#acdeb6"/><path d="m147.769 176.662-.264 1.039-1.17-.297z" fill="#acdeb6"/><path d="m145.839 171.743.912-.321-.681-.589z" fill="#acdeb6"/><path d="m183.116 176.33v-1.072l-.938.402z" fill="#acdeb6"/><path d="m46.5137 173.238-.0313-1.072-.9264.429z" fill="#acdeb6"/><path d="m189.656 171.397.031 1.072.927-.429z" fill="#acdeb6"/><path d="m56.584 173.189-.9075-.572-.1601 1.009z" fill="#acdeb6"/><path d="m242.85 175.38.907.573.161-1.008z" fill="#acdeb6"/><path d="m120.298 174.578.907.572.161-1.008z" fill="#acdeb6"/><path d="m216.637 173.559-.127-1.065-.884.511z" fill="#acdeb6"/><path d="m94.085 172.757-.127-1.066-.8843.511z" fill="#acdeb6"/><path d="m278.245 171.222-1.031-.294.129 1.013z" fill="#acdeb6"/><path d="m155.693 170.419-1.032-.294.13 1.013z" fill="#acdeb6"/><path d="m18.9294 168.129-1.0398-.264.1593 1.009z" fill="#acdeb6"/><path d="m181.373 170.566 1.341 1.073-1.341.805z" fill="#acdeb6"/><path d="m44.6033 167.529 1.3716 1.033-1.3168.844z" fill="#acdeb6"/><path d="m30.7955 167.959 1.3715 1.033-1.3168.843z" fill="#acdeb6"/><path d="m236.481 171.636-1.37-1.034 1.317-.842z" fill="#acdeb6"/><path d="m113.929 170.833-1.37-1.034 1.317-.842z" fill="#acdeb6"/><path d="m50.7773 171.589 1.6224-.562-.0344 1.563z" fill="#acdeb6"/><path d="m76.7648 169.902 1.6224-.562-.0343 1.563z" fill="#acdeb6"/><path d="m38.8434 170.972 1.6224-.562-.0343 1.563z" fill="#acdeb6"/><path d="m64.8305 169.287 1.6224-.563-.0343 1.564z" fill="#acdeb6"/><path d="m241.308 169.691-1.622.56.035-1.563z" fill="#acdeb6"/><path d="m118.756 168.886-1.623.561.036-1.563z" fill="#acdeb6"/><path d="m214.224 168.044 1.458.906-1.236.957z" fill="#acdeb6"/><path d="m91.6713 167.237 1.4584.906-1.2361.958z" fill="#acdeb6"/><path d="m272.223 171.319 1.398-.996.407 1.51z" fill="#acdeb6"/><path d="m149.67 170.514 1.399-.996.406 1.51z" fill="#acdeb6"/><path d="m12.9124 168.399 1.3693-1.036.4503 1.498z" fill="#acdeb6"/><path d="m.491048 170.255 1.369282-1.036.45032 1.497z" fill="#acdeb6"/><path d="m171.183 172.98.804.403-.804 1.072z" fill="#e7e88c"/><path d="m176.144 184.109.67.805-.67.536z" fill="#e7e88c"/><path d="m162.735 173.383 1.207 1.072-.938.939z" fill="#e7e88c"/><path d="m166.892 178.076.536-.671.269 1.073z" fill="#e7e88c"/><path d="m118.82 188.13-.815-.379.774-1.095z" fill="#e7e88c"/><path d="m113.547 177.146-.693-.786.655-.555z" fill="#e7e88c"/><path d="m127.253 187.489-1.237-1.038.912-.965z" fill="#e7e88c"/><path d="m122.965 182.915-.517.686-.298-1.065z" fill="#e7e88c"/><path d="m34.4878 170.238.8159.379-.7729 1.096z" fill="#e7e88c"/><path d="m39.7713 181.218.6936.785-.6545.555z" fill="#e7e88c"/><path d="m26.0559 170.887 1.2375 1.037-.9108.965z" fill="#e7e88c"/><path d="m30.3476 175.457.5165-.686.2993 1.064z" fill="#e7e88c"/><path d="m228.485 177.662-.77.466-.477-1.253z" fill="#e7e88c"/><path d="m216.426 175.915-1.038.137-.096-.853z" fill="#e7e88c"/><path d="m232.655 170.305-1.551.448-.293-1.295z" fill="#e7e88c"/><path d="m226.468 171.314.28.811-1.05-.346z" fill="#e7e88c"/><path d="m105.932 176.856-.769.465-.478-1.253z" fill="#e7e88c"/><path d="m93.8738 175.108-1.0382.137-.0955-.853z" fill="#e7e88c"/><path d="m110.103 169.499-1.552.447-.292-1.295z" fill="#e7e88c"/><path d="m103.915 170.507.281.812-1.05-.346z" fill="#e7e88c"/><path d="m47.1055 168.358.7692-.466.4785 1.252z" fill="#e7e88c"/><path d="m59.1657 170.095 1.038-.138.0963.853z" fill="#e7e88c"/><path d="m42.9417 175.719 1.5509-.449.2936 1.294z" fill="#e7e88c"/><path d="m49.1282 174.705-.2812-.812 1.0504.345z" fill="#e7e88c"/><path d="m249.402 176.588-.77.466-.477-1.253z" fill="#e7e88c"/><path d="m237.343 174.841-1.038.137-.095-.853z" fill="#e7e88c"/><path d="m253.572 169.231-1.551.448-.293-1.295z" fill="#e7e88c"/><path d="m247.385 170.24.28.811-1.05-.346z" fill="#e7e88c"/><path d="m126.85 175.785-.77.466-.477-1.253z" fill="#e7e88c"/><path d="m114.791 174.038-1.038.137-.096-.853z" fill="#e7e88c"/><path d="m131.02 168.428-1.551.448-.293-1.295z" fill="#e7e88c"/><path d="m124.833 169.437.28.811-1.05-.346z" fill="#e7e88c"/><path d="m189.332 175.516-.769.465-.478-1.253z" fill="#e7e88c"/><path d="m177.274 173.768-1.038.138-.096-.854z" fill="#e7e88c"/><path d="m193.503 168.159-1.552.447-.292-1.294z" fill="#e7e88c"/><path d="m187.315 169.167.281.812-1.05-.346z" fill="#e7e88c"/><path d="m204.391 171.645.846.305-.672 1.16z" fill="#e7e88c"/><path d="m210.635 182.109.761.719-.602.612z" fill="#e7e88c"/><path d="m196.051 173.045 1.325.922-.821 1.043z" fill="#e7e88c"/><path d="m200.734 177.213.453-.729.393 1.033z" fill="#e7e88c"/><path d="m81.838 170.843.8465.304-.6718 1.16z" fill="#e7e88c"/><path d="m88.082 181.306.761.719-.6022.612z" fill="#e7e88c"/><path d="m73.4979 172.242 1.3252.923-.8208 1.043z" fill="#e7e88c"/><path d="m78.1809 176.41.4532-.729.3933 1.033z" fill="#e7e88c"/><path d="m71.4851 187.492-.8468-.303.6708-1.161z" fill="#e7e88c"/><path d="m65.2318 177.035-.7616-.719.6016-.613z" fill="#e7e88c"/><path d="m79.824 186.085-1.3261-.921.8199-1.044z" fill="#e7e88c"/><path d="m75.1373 181.922-.4525.729-.3943-1.033z" fill="#e7e88c"/><path d="m6.39098 167.364.89932.016-.26274 1.315z" fill="#e7e88c"/><path d="m15.6695 175.262.952.436-.3733.773z" fill="#e7e88c"/><path d="m-1.05537 171.373 1.551535.447-.441565 1.251z" fill="#e7e88c"/><path d="m4.71962 173.812.19445-.836.70487.852z" fill="#e7e88c"/><path d="m263.12 180.318-.588.68-.841-1.044z" fill="#e7e88c"/><path d="m251.112 182.381-.945.451-.355-.782z" fill="#e7e88c"/><path d="m264.814 172.032-1.338.905-.678-1.141z" fill="#e7e88c"/><path d="m259.241 174.903.517.685-1.106-.004z" fill="#e7e88c"/><path d="m140.568 179.515-.588.681-.841-1.045z" fill="#e7e88c"/><path d="m128.559 181.578-.945.452-.354-.782z" fill="#e7e88c"/><path d="m142.261 171.23-1.337.904-.678-1.141z" fill="#e7e88c"/><path d="m136.688 174.1.518.686-1.106-.005z" fill="#e7e88c"/><path d="m267.801 169.705.728-.528.581 1.209z" fill="#e7e88c"/><path d="m279.964 170.44 1.023-.223.166.842z" fill="#e7e88c"/><path d="m264.259 177.384 1.509-.575.399 1.265z" fill="#e7e88c"/><path d="m270.341 175.863-.347-.785 1.075.257z" fill="#e7e88c"/><path d="m145.249 168.898.728-.528.58 1.209z" fill="#e7e88c"/><path d="m157.411 169.634 1.023-.224.167.843z" fill="#e7e88c"/><path d="m141.707 176.577 1.508-.575.4 1.266z" fill="#e7e88c"/><path d="m147.789 175.056-.348-.785 1.076.257z" fill="#e7e88c"/></g></g><g filter="url(#a)"><circle cx="200.5" cy="36.5" fill="#ffbd3a" r="28.5"/></g><g filter="url(#b)"><g filter="url(#c)"><g fill="#c1dd9b"><circle cx="3" cy="88" r="2"/><circle cx="7" cy="88" r="2"/><circle cx="11" cy="88" r="2"/><circle cx="15" cy="88" r="2"/></g><path d="m3.5 98.5-3.5-9.5h18.5l-3 9.5z" fill="#35675b"/></g><g filter="url(#d)"><g fill="#f4e97d"><circle cx="26" cy="88" r="2"/><circle cx="30" cy="88" r="2"/><circle cx="34" cy="88" r="2"/><circle cx="38" cy="88" r="2"/></g><path d="m26.5 98.5-3.5-9.5h18.5l-3 9.5z" fill="#539882"/></g><g fill="#91d7b9"><path d="m-12 98h64v40h-64z"/><path d="m48 73h4v32h-4z"/><path d="m42 73h4v32h-4z"/></g><path clip-rule="evenodd" d="m-19 73 15.5-16h23 .5 23l15.5 16h-38.5-.5z" fill="#2c5291" fill-rule="evenodd"/><path d="m3 57h-7l-15 16h14z" fill="#f4e97d"/><path d="m37 57h7l15 16h-14z" fill="#f4e97d"/><path d="m9.5 57h-6.5l-8 16h12.5z" fill="#2c5291"/><path d="m31 57h6.5l8 16h-12.5z" fill="#2c5291"/><path d="m17 57h-7.5l-2 16h8.5z" fill="#f4e97d"/><path d="m24 57h7.5l2 16h-8.5z" fill="#f4e97d"/><g filter="url(#e)"><g fill="#ecb549"><circle cx="13" cy="93" r="2"/><circle cx="17" cy="93" r="2"/><circle cx="21" cy="93" r="2"/><circle cx="25" cy="93" r="2"/></g><path d="m13.5 103.5-3.5-9.5h18.5l-3 9.5z" fill="#89cdd3"/></g><g filter="url(#f)"><g fill="#ecb549"><circle cx="1" cy="128" r="2"/><circle cx="5" cy="128" r="2"/><circle cx="9" cy="128" r="2"/></g><path d="m-2.5 138.5-3.5-9.5h18.5l-3 9.5z" fill="#89cdd3"/></g><path d="m-14 103h68v4h-68z" fill="#35675b"/><g filter="url(#g)"><g fill="#f4e97d"><circle cx="27" cy="128" r="2"/><circle cx="31" cy="128" r="2"/><circle cx="35" cy="128" r="2"/><circle cx="39" cy="128" r="2"/></g><path d="m27.5 138.5-3.5-9.5h18.5l-3 9.5z" fill="#539882"/></g></g><g filter="url(#h)"><g filter="url(#i)"><g fill="#c1dd9b"><circle cx="83" cy="88" r="2"/><circle cx="87" cy="88" r="2"/><circle cx="91" cy="88" r="2"/><circle cx="95" cy="88" r="2"/></g><path d="m83.5 98.5-3.5-9.5h18.5l-3 9.5z" fill="#35675b"/></g><g filter="url(#j)"><g fill="#f4e97d"><circle cx="106" cy="88" r="2"/><circle cx="110" cy="88" r="2"/><circle cx="114" cy="88" r="2"/><circle cx="118" cy="88" r="2"/></g><path d="m106.5 98.5-3.5-9.5h18.5l-3 9.5z" fill="#539882"/></g><g fill="#91d7b9"><path d="m68 98h64v40h-64z"/><path d="m68 73h4v32h-4z"/><path d="m128 73h4v32h-4z"/><path d="m122 73h4v32h-4z"/><path d="m74 73h4v32h-4z"/></g><path clip-rule="evenodd" d="m61 73 15.5-16h23 .5 23l15.5 16h-38.5-.5z" fill="#2c5291" fill-rule="evenodd"/><path d="m83 57h-7l-15 16h14z" fill="#f4e97d"/><path d="m117 57h7l15 16h-14z" fill="#f4e97d"/><path d="m89.5 57h-6.5l-8 16h12.5z" fill="#2c5291"/><path d="m111 57h6.5l8 16h-12.5z" fill="#2c5291"/><path d="m97 57h-7.5l-2 16h8.5z" fill="#f4e97d"/><path d="m104 57h7.5l2 16h-8.5z" fill="#f4e97d"/><g filter="url(#k)"><g fill="#ecb549"><circle cx="93" cy="93" r="2"/><circle cx="97" cy="93" r="2"/><circle cx="101" cy="93" r="2"/><circle cx="105" cy="93" r="2"/></g><path d="m93.5 103.5-3.5-9.5h18.5l-3 9.5z" fill="#89cdd3"/></g><g filter="url(#l)"><g fill="#ecb549"><circle cx="77" cy="128" r="2"/><circle cx="81" cy="128" r="2"/><circle cx="85" cy="128" r="2"/><circle cx="89" cy="128" r="2"/></g><path d="m77.5 138.5-3.5-9.5h18.5l-3 9.5z" fill="#89cdd3"/></g><path d="m66 103h68v4h-68z" fill="#35675b"/><g filter="url(#m)"><g fill="#f4e97d"><circle cx="107" cy="128" r="2"/><circle cx="111" cy="128" r="2"/><circle cx="115" cy="128" r="2"/><circle cx="119" cy="128" r="2"/></g><path d="m107.5 138.5-3.5-9.5h18.5l-3 9.5z" fill="#539882"/></g></g><g filter="url(#n)"><g filter="url(#o)"><g fill="#c1dd9b"><circle cx="163" cy="88" r="2"/><circle cx="167" cy="88" r="2"/><circle cx="171" cy="88" r="2"/><circle cx="175" cy="88" r="2"/></g><path d="m163.5 98.5-3.5-9.5h18.5l-3 9.5z" fill="#35675b"/></g><g filter="url(#p)"><g fill="#f4e97d"><circle cx="186" cy="88" r="2"/><circle cx="190" cy="88" r="2"/><circle cx="194" cy="88" r="2"/><circle cx="198" cy="88" r="2"/></g><path d="m186.5 98.5-3.5-9.5h18.5l-3 9.5z" fill="#539882"/></g><g fill="#91d7b9"><path d="m148 98h64v40h-64z"/><path d="m148 73h4v32h-4z"/><path d="m208 73h4v32h-4z"/><path d="m202 73h4v32h-4z"/><path d="m154 73h4v32h-4z"/></g><path clip-rule="evenodd" d="m141 73 15.5-16h23 .5 23l15.5 16h-38.5-.5z" fill="#2c5291" fill-rule="evenodd"/><path d="m163 57h-7l-15 16h14z" fill="#f4e97d"/><path d="m197 57h7l15 16h-14z" fill="#f4e97d"/><path d="m169.5 57h-6.5l-8 16h12.5z" fill="#2c5291"/><path d="m191 57h6.5l8 16h-12.5z" fill="#2c5291"/><path d="m177 57h-7.5l-2 16h8.5z" fill="#f4e97d"/><path d="m184 57h7.5l2 16h-8.5z" fill="#f4e97d"/><g filter="url(#q)"><g fill="#ecb549"><circle cx="173" cy="93" r="2"/><circle cx="177" cy="93" r="2"/><circle cx="181" cy="93" r="2"/><circle cx="185" cy="93" r="2"/></g><path d="m173.5 103.5-3.5-9.5h18.5l-3 9.5z" fill="#89cdd3"/></g><g filter="url(#r)"><g fill="#ecb549"><circle cx="157" cy="128" r="2"/><circle cx="161" cy="128" r="2"/><circle cx="165" cy="128" r="2"/><circle cx="169" cy="128" r="2"/></g><path d="m157.5 138.5-3.5-9.5h18.5l-3 9.5z" fill="#89cdd3"/></g><path d="m146 103h68v4h-68z" fill="#35675b"/><g filter="url(#s)"><g fill="#f4e97d"><circle cx="187" cy="128" r="2"/><circle cx="191" cy="128" r="2"/><circle cx="195" cy="128" r="2"/><circle cx="199" cy="128" r="2"/></g><path d="m187.5 138.5-3.5-9.5h18.5l-3 9.5z" fill="#539882"/></g></g><g filter="url(#t)"><g filter="url(#u)"><g fill="#c1dd9b"><circle cx="243" cy="88" r="2"/><circle cx="247" cy="88" r="2"/><circle cx="251" cy="88" r="2"/><circle cx="255" cy="88" r="2"/></g><path d="m243.5 98.5-3.5-9.5h18.5l-3 9.5z" fill="#35675b"/></g><g filter="url(#v)"><g fill="#f4e97d"><circle cx="266" cy="88" r="2"/><circle cx="270" cy="88" r="2"/><circle cx="274" cy="88" r="2"/><circle cx="278" cy="88" r="2"/></g><path d="m266.5 98.5-3.5-9.5h18.5l-3 9.5z" fill="#539882"/></g><g fill="#91d7b9"><path d="m228 98h64v40h-64z"/><path d="m228 73h4v32h-4z"/><path d="m234 73h4v32h-4z"/></g><path clip-rule="evenodd" d="m221 73 15.5-16h23 .5 23l15.5 16h-38.5-.5z" fill="#2c5291" fill-rule="evenodd"/><path d="m243 57h-7l-15 16h14z" fill="#f4e97d"/><path d="m277 57h7l15 16h-14z" fill="#f4e97d"/><path d="m249.5 57h-6.5l-8 16h12.5z" fill="#2c5291"/><path d="m271 57h6.5l8 16h-12.5z" fill="#2c5291"/><path d="m257 57h-7.5l-2 16h8.5z" fill="#f4e97d"/><path d="m264 57h7.5l2 16h-8.5z" fill="#f4e97d"/><g filter="url(#w)"><g fill="#ecb549"><circle cx="253" cy="93" r="2"/><circle cx="257" cy="93" r="2"/><circle cx="261" cy="93" r="2"/><circle cx="265" cy="93" r="2"/></g><path d="m253.5 103.5-3.5-9.5h18.5l-3 9.5z" fill="#89cdd3"/></g><g filter="url(#x)"><g fill="#ecb549"><circle cx="237" cy="128" r="2"/><circle cx="241" cy="128" r="2"/><circle cx="245" cy="128" r="2"/><circle cx="249" cy="128" r="2"/></g><path d="m237.5 138.5-3.5-9.5h18.5l-3 9.5z" fill="#89cdd3"/></g><path d="m226 103h68v4h-68z" fill="#35675b"/><g filter="url(#y)"><g fill="#f4e97d"><circle cx="267" cy="128" r="2"/><circle cx="271" cy="128" r="2"/><circle cx="275" cy="128" r="2"/><circle cx="279" cy="128" r="2"/></g><path d="m267.5 138.5-3.5-9.5h18.5l-3 9.5z" fill="#539882"/></g></g></g></svg>