<svg fill="none" height="176" viewBox="0 0 280 176" width="280" xmlns="http://www.w3.org/2000/svg" xmlns:xlink="http://www.w3.org/1999/xlink"><filter id="a" color-interpolation-filters="sRGB" filterUnits="userSpaceOnUse" height="43.4928" width="42.1794" x="62.7502" y="99.0098"><feFlood flood-opacity="0" result="BackgroundImageFix"/><feColorMatrix in="SourceAlpha" type="matrix" values="0 0 0 0 0 0 0 0 0 0 0 0 0 0 0 0 0 0 127 0"/><feOffset dx="4"/><feGaussianBlur stdDeviation="2"/><feColorMatrix type="matrix" values="0 0 0 0 0 0 0 0 0 0 0 0 0 0 0 0 0 0 0.2 0"/><feBlend in2="BackgroundImageFix" mode="normal" result="effect1_dropShadow"/><feBlend in="SourceGraphic" in2="effect1_dropShadow" mode="normal" result="shape"/></filter><mask id="b" height="176" maskUnits="userSpaceOnUse" width="280" x="0" y="0"><path d="m0 0h280v176h-280z" fill="#c1dd9b"/></mask><path d="m0 0h280v176h-280z" fill="#2c5291"/><g mask="url(#b)"><path d="m213.763 65.1211h157.747v560.88h-157.747z" fill="#000"/><path d="m292.605-12 78.529 76.7842h-157.058z" fill="#e3e687"/><path d="m231.529 71.7656v513.9214" stroke="#e3e687" stroke-dasharray="3.88 3.88" stroke-width="2"/><path d="m255.959 71.7656v513.9214" stroke="#e3e687" stroke-dasharray="3.88 3.88" stroke-width="2"/><path d="m280.39 71.7656v513.9214" stroke="#e3e687" stroke-dasharray="3.88 3.88" stroke-width="2"/><path d="m57.7695 145.746h155.995v480.253h-155.995z" fill="#000"/><g stroke-dasharray="3.88 3.88" stroke-width="2"><path d="m74.4702 150.631v435.055" stroke="#f4e97d"/><path d="m98.8997 150.631v435.055" stroke="#f4e97d"/><path d="m123.333 150.631v435.055" stroke="#f4e97d"/><path d="m147.763 150.631v435.055" stroke="#f4e97d"/><path d="m172.195 150.631v435.055" stroke="#f4e97d"/><path d="m196.626 150.631v435.055" stroke="#f4e97d"/></g><path d="m-99.9783 65.1211h157.747v560.88h-157.747z" fill="#000"/><path d="m69.2361 36.8633c-5.817 6.3987-21.9882 16.7529-40.1372 6.9804v20.9411h26.1764c4.6536-2.3268 13.9608-11.1686 13.9608-27.9215z" fill="#e3e687"/><path d="m34.3333 1.96289c-5.817 6.39868-21.9882 16.75291-40.13724 6.98038v20.94113h26.17644c4.6536-2.3268 13.9608-11.1686 13.9608-27.92151z" fill="#e3e687"/><path d="m-21.51-12 78.5293 76.7842h-157.0583z" fill="#a2daaf"/><path d="m15.1375 71.7656v513.9214" stroke="#e3e687" stroke-dasharray="3.88 3.88" stroke-width="2"/><path d="m39.5679 71.7656v513.9214" stroke="#e3e687" stroke-dasharray="3.88 3.88" stroke-width="2"/></g><g filter="url(#a)"><g fill="#91d7b9"><path d="m65.8174 120.975h28.0447v17.528h-28.0447z"/><path d="m65.8174 110.02h1.7528v14.0224h-1.7528z"/><path d="m92.1094 110.02h1.7528v14.0224h-1.7528z"/><path d="m89.4802 110.02h1.7528v14.0224h-1.7528z"/><path d="m68.4468 110.02h1.7528v14.0224h-1.7528z"/></g><path clip-rule="evenodd" d="m62.7502 110.021 6.7921-7.011h10.0785.2192 10.0785l6.792 7.011h-17.0897z" fill="#2c5291" fill-rule="evenodd"/><path d="m72.3906 103.01h-3.0674l-6.573 7.011h6.1348z" fill="#f4e97d"/><path d="m87.2893 103.01h3.0674l6.573 7.011h-6.1348z" fill="#f4e97d"/><path d="m75.2386 103.01h-2.8482l-3.5056 7.011h5.4775z" fill="#2c5291"/><path d="m84.66 103.01h2.8483l3.5056 7.011h-5.4775z" fill="#2c5291"/><path d="m78.5254 103.01h-3.2865l-.8764 7.011h3.7247z" fill="#f4e97d"/><path d="m81.5927 103.01h3.2865l.8764 7.011h-3.7247z" fill="#f4e97d"/><path d="m64.9412 123.166h29.7975v1.7528h-29.7975z" fill="#35675b"/><path d="m70.0051 133.434h1.116c1.368 0 2.226-.756 2.226-2.1 0-1.314-.852-2.1-2.226-2.1h-1.116zm.846-.732v-2.73h.3c.798 0 1.314.48 1.314 1.362 0 .906-.516 1.368-1.314 1.368zm3.0856.732h.846v-1.644h.45l.816 1.644h.936l-.996-1.842c.384-.21.636-.6.636-1.11 0-.69-.504-1.248-1.422-1.248h-1.266zm.846-2.358v-1.11h.354c.384 0 .618.21.618.546 0 .372-.27.564-.576.564zm2.6638 2.358h.846v-4.2h-.846zm4.2923 0h.84v-4.2h-.834v2.868l-1.794-2.868h-.858v4.2h.834v-2.844zm1.6374 0h.846v-2.04l1.41 2.04h.972l-1.56-2.19 1.512-2.01h-.948l-1.386 1.92v-1.92h-.846zm4.8674-4.278c-.804 0-1.32.486-1.32 1.194 0 1.344 1.812 1.224 1.812 1.944 0 .27-.186.432-.498.432-.378 0-.612-.258-.726-.534l-.714.348c.12.342.492.972 1.392.972.876 0 1.404-.54 1.404-1.278 0-1.302-1.824-1.2-1.824-1.896 0-.228.168-.402.456-.402.366 0 .522.258.612.456l.702-.318c-.102-.306-.45-.918-1.296-.918z" fill="#539882"/></g><path d="m57.9077 138.117h156.17v8.47432h-156.17z" fill="#539882"/><path d="m65.5293 79.2028.2358-9.5129 5.4893 1.912z" fill="#ecb549"/><path d="m74.4484 81.65-.2755-9.5118 5.584 1.6143z" fill="#91d7b9"/><path d="m83.3492 84.1925-.5553-9.4996 5.6291 1.4494z" fill="#ecb549"/><path d="m92.6743 86.4597-1.0693-9.4555 5.6994 1.1421z" fill="#91d7b9"/><path d="m102.552 87.675-1.572-9.3852 5.753.837z" fill="#ecb549"/><path d="m112.015 89.186-1.861-9.3322 5.776.6589z" fill="#91d7b9"/><path d="m121.787 89.8713-2.273-9.2405 5.799.4022z" fill="#ecb549"/><path d="m131.526 90.892-2.797-9.6748 5.668.6026z" fill="#91d7b9"/><path d="m140.674 90.4336-3.101-8.9964 5.811-.1252z" fill="#ecb549"/><path d="m150.249 89.8231-3.363-8.9015 5.805-.2958z" fill="#91d7b9"/><path d="m160.57 88.7401-3.839-8.707 5.781-.6087z" fill="#ecb549"/><path d="m170.983 87.6396-4.382-8.4471 5.731-.9725z" fill="#91d7b9"/><path d="m181.833 85.2836-5.246-7.939 5.596-1.5704z" fill="#ecb549"/><path d="m191.518 82.8617-5.246-7.939 5.596-1.5703z" fill="#91d7b9"/><path d="m201.45 80.3642-5.581-7.7075 5.524-1.8081z" fill="#ecb549"/><path d="m211.615 76.6963-5.946-7.4298 5.431-2.0721z" fill="#2c5291"/><path d="m57.3025 65.4805c25.2212 11.9044 92.0065 28.5705 157.3805 0" stroke="#000"/><path d="m71.9473 121.725s.1915.064.1915-.191c0-.235-.054-3.435-.0639-3.952 0-.05 0-.084 0-.134 0-.447-.2873-.766-.415-.958-.1276-.223-.2553-1.149-.2553-1.724 0-.574-.032-.574.0957-.638s-.0638-.224-.0638-.224h-.8619s-.1437.144-.0479.208c.0957.064.0957.127.0957.415 0 .287.032.798 0 1.181-.0319.383-.0957.606-.1915.766s-.415.607-.415 1.022v4.15s-.0319.127.1596.127c.1916 0 1.7718-.048 1.7718-.048z" fill="#8b3321"/><path d="m70.5745 114.094c.3078.039.6195.039.9273 0z" fill="#7c2516"/><path d="m70.5745 114.094c.0772.006.1545.01.2317.013.0773.002.1545.004.2318.003.0772-.001.1548 0 .2321-.005.0772-.005.1542-.008.2317-.011-.038.006-.0766.012-.1149.017s-.0773.01-.1159.012c-.0772.007-.1551.009-.2327.011s-.1555-.003-.233-.009c-.0776-.005-.1547-.016-.2308-.031z" fill="#7c2516"/><path d="m70.6537 114.207.1277.032v2.139l-.3512.702-.0957 4.533h-.1277v-4.437l.4469-.894z" fill="#fff" opacity=".3"/><path clip-rule="evenodd" d="m70.6376 114.186.1596.039v2.156l-.3512.702-.096 4.545h-.1593v-4.457l.4469-.894zm.0319.04v2.059l-.4469.894v4.417h.0961l.0955-4.521.3511-.702v-2.123z" fill="#7c2516" fill-rule="evenodd" opacity=".3"/><path d="m70.1753 117.494.0319 2.809s.8939.128 1.66 0v-2.809s-.7023.096-1.6919 0z" fill="#da251d"/><path clip-rule="evenodd" d="m71.8832 117.477v2.841l-.0133.002c-.3847.064-.801.064-1.1207.048-.16-.008-.296-.02-.392-.03-.048-.005-.086-.01-.112-.013-.013-.001-.0231-.003-.0298-.004-.0034 0-.006-.001-.0077-.001h-.002-.0006-.0001s0 0 .0023-.016l-.0023.016-.0135-.002-.0323-2.841.0177.002c.4939.048.9162.048 1.2149.036.1493-.006.2677-.015.3488-.023.0405-.003.0717-.007.0927-.009.0105-.001.0185-.002.0238-.003.0027 0 .0047-.001.006-.001h.0015.0005zm-.0319.036c-.0041 0-.0089.001-.0143.002-.0213.002-.0527.005-.0935.009-.0815.008-.2005.017-.3505.023-.2962.012-.7135.012-1.2015-.035l.0316 2.778c.0065.001.0152.002.026.003.0259.004.0637.008.1115.013.0955.01.2309.022.3902.03.315.016.7228.016 1.1005-.045z" fill="#7c2516" fill-rule="evenodd"/><path d="m71.0195 118.086.2037.413.4555.066-.3295.321.0776.453-.4073-.214-.407.214.0775-.453-.3294-.321.4555-.066z" fill="#feff02"/><path d="m74.3686 121.725s.1916.064.1916-.191c0-.235-.054-3.435-.0639-3.952 0-.05 0-.084 0-.134 0-.447-.2873-.766-.415-.958-.1277-.223-.2554-1.149-.2554-1.724 0-.574-.0319-.574.0958-.638s-.0638-.224-.0638-.224h-.862s-.1436.144-.0478.208c.0957.064.0957.127.0957.415 0 .287.032.798 0 1.181-.0319.383-.0957.606-.1915.766s-.415.607-.415 1.022v4.15s-.0319.127.1596.127c.1916 0 1.7717-.048 1.7717-.048z" fill="#8b3321"/><path d="m72.9961 114.094c.3079.039.6195.039.9274 0z" fill="#7c2516"/><path d="m72.9961 114.094c.0772.006.1545.01.2318.013.0772.002.1545.004.2317.003.0773-.001.1548 0 .2321-.005.0772-.005.1542-.008.2318-.011-.038.006-.0767.012-.115.017s-.0772.01-.1158.012c-.0773.007-.1552.009-.2328.011-.0775.002-.1554-.003-.233-.009-.0775-.005-.1546-.016-.2308-.031z" fill="#7c2516"/><path d="m73.0751 114.207.1277.032v2.139l-.3512.702-.0957 4.533h-.1277v-4.437l.4469-.894z" fill="#fff" opacity=".3"/><path clip-rule="evenodd" d="m73.0587 114.186.1597.039v2.156l-.3513.702-.096 4.545h-.1593v-4.457l.4469-.894zm.032.04v2.059l-.447.894v4.417h.0961l.0956-4.521.351-.702v-2.123z" fill="#7c2516" fill-rule="evenodd" opacity=".3"/><path d="m72.5969 117.494.0319 2.809s.8939.128 1.66 0v-2.809s-.7023.096-1.6919 0z" fill="#da251d"/><path clip-rule="evenodd" d="m74.3046 117.477v2.841l-.0133.002c-.3847.064-.801.064-1.1208.048-.1599-.008-.2959-.02-.3919-.03-.048-.005-.086-.01-.112-.013-.013-.001-.0231-.003-.0298-.004-.0034 0-.006-.001-.0078-.001h-.0019-.0007s0 0 .0023-.016l-.0023.016-.0136-.002-.0322-2.841.0177.002c.4939.048.9162.048 1.2149.036.1493-.006.2677-.015.3488-.023.0405-.003.0717-.007.0927-.009.0105-.001.0185-.002.0238-.003.0027 0 .0047-.001.006-.001h.0015.0005zm-.0319.036c-.0041 0-.0089.001-.0143.002-.0213.002-.0527.005-.0935.009-.0815.008-.2005.017-.3505.023-.2963.012-.7135.012-1.2015-.035l.0316 2.778c.0064.001.0152.002.026.003.0259.004.0637.008.1114.013.0956.01.231.022.3902.03.315.016.7228.016 1.1006-.045z" fill="#7c2516" fill-rule="evenodd"/><path d="m73.4409 118.086.2036.413.4556.066-.3295.321.0776.453-.4073-.214-.407.214.0775-.453-.3294-.321.4555-.066z" fill="#feff02"/><path d="m73.1577 122.934s.1915.064.1915-.191c0-.235-.0539-3.435-.0638-3.952 0-.05 0-.084 0-.134 0-.447-.2873-.766-.415-.958-.1277-.223-.2554-1.149-.2554-1.724 0-.574-.0319-.574.0958-.638s-.0639-.224-.0639-.224h-.8619s-.1436.144-.0479.208c.0958.064.0958.127.0958.415 0 .287.0319.798 0 1.181s-.0958.606-.1915.766c-.0958.16-.415.607-.415 1.022v4.15s-.032.127.1596.127c.1915 0 1.7717-.048 1.7717-.048z" fill="#8b3321"/><path d="m71.7849 115.307c.3079.039.6195.039.9274 0z" fill="#7c2516"/><path d="m71.7849 115.307c.0773.006.1545.01.2318.013.0772.002.1545.004.2317.003.0773-.001.1549 0 .2321-.005.0773-.005.1542-.008.2318-.011-.038.006-.0766.012-.1149.017-.0384.005-.0773.009-.1159.012-.0773.007-.1552.009-.2327.011-.0776.001-.1555-.003-.2331-.009-.0775-.006-.1546-.016-.2308-.031z" fill="#7c2516"/><path d="m71.8644 115.418.1277.032v2.139l-.3512.702-.0957 4.533h-.1277v-4.437l.4469-.894z" fill="#fff" opacity=".3"/><path clip-rule="evenodd" d="m71.8485 115.395.1596.039v2.156l-.3512.702-.096 4.545h-.1593v-4.457l.4469-.894zm.032.04v2.059l-.447.894v4.417h.0961l.0956-4.521.351-.702v-2.123z" fill="#7c2516" fill-rule="evenodd" opacity=".3"/><path d="m71.386 118.705.0319 2.809s.8939.128 1.66 0v-2.809s-.7023.096-1.6919 0z" fill="#da251d"/><path clip-rule="evenodd" d="m73.0937 118.686v2.841l-.0134.002c-.3847.064-.801.064-1.1207.048-.1599-.008-.2959-.02-.3919-.03-.048-.005-.086-.01-.1121-.013-.013-.001-.023-.003-.0298-.004-.0034 0-.006-.001-.0077-.001h-.002-.0006s0 0 .0022-.016l-.0022.016-.0136-.002-.0323-2.841.0177.002c.494.048.9162.048 1.2149.036.1494-.006.2678-.015.3488-.023.0406-.003.0718-.007.0928-.009.0105-.001.0185-.002.0238-.003.0027 0 .0047-.001.006-.001h.0015.0004zm-.032.036c-.0041 0-.0088.001-.0143.002-.0212.002-.0526.005-.0934.009-.0816.008-.2006.017-.3505.023-.2963.012-.7135.012-1.2015-.035l.0315 2.778c.0065.001.0152.002.0261.003.0258.004.0636.008.1114.013.0955.01.2309.022.3902.03.315.016.7228.016 1.1005-.045z" fill="#7c2516" fill-rule="evenodd"/><path d="m72.2299 119.297.2037.413.4555.066-.3294.321.0776.453-.4074-.214-.407.214.0776-.453-.3295-.321.4556-.066z" fill="#feff02"/><path d="m76.7895 122.934s.1916.064.1916-.191c0-.235-.054-3.435-.0639-3.952 0-.05 0-.084 0-.134 0-.447-.2873-.766-.415-.958-.1277-.223-.2554-1.149-.2554-1.724 0-.574-.0319-.574.0958-.638s-.0638-.224-.0638-.224h-.862s-.1436.144-.0478.208c.0957.064.0957.127.0957.415 0 .287.032.798 0 1.181-.0319.383-.0957.606-.1915.766s-.415.607-.415 1.022v4.15s-.0319.127.1596.127 1.7717-.048 1.7717-.048z" fill="#8b3321"/><path d="m75.417 115.307c.3079.039.6195.039.9274 0z" fill="#7c2516"/><path d="m75.417 115.307c.0772.006.1545.01.2318.013.0772.002.1545.004.2317.003.0773-.001.1548 0 .2321-.005.0772-.005.1542-.008.2318-.011-.038.006-.0767.012-.115.017s-.0772.009-.1158.012c-.0773.007-.1552.009-.2328.011-.0775.001-.1554-.003-.233-.009-.0775-.006-.1546-.016-.2308-.031z" fill="#7c2516"/><path d="m75.4962 115.418.1277.032v2.139l-.3511.702-.0958 4.533h-.1277v-4.437l.4469-.894z" fill="#fff" opacity=".3"/><path clip-rule="evenodd" d="m75.4806 115.395.1596.039v2.156l-.3512.702-.096 4.545h-.1593v-4.457l.4469-.894zm.0319.04v2.059l-.4469.894v4.417h.0961l.0955-4.521.3511-.702v-2.123z" fill="#7c2516" fill-rule="evenodd" opacity=".3"/><path d="m75.0181 118.705.0319 2.809s.8938.128 1.66 0v-2.809s-.7023.096-1.6919 0z" fill="#da251d"/><path clip-rule="evenodd" d="m76.7258 118.686v2.841l-.0134.002c-.3847.064-.801.064-1.1207.048-.16-.008-.2959-.02-.3919-.03-.048-.005-.086-.01-.1121-.013-.013-.001-.023-.003-.0298-.004-.0034 0-.006-.001-.0077-.001h-.002-.0006c-.0001 0-.0001 0 .0022-.016l-.0022.016-.0136-.002-.0323-2.841.0177.002c.494.048.9162.048 1.2149.036.1493-.006.2678-.015.3488-.023.0406-.003.0717-.007.0928-.009.0105-.001.0184-.002.0238-.003.0026 0 .0046-.001.006-.001h.0015.0004zm-.032.036c-.0041 0-.0088.001-.0143.002-.0212.002-.0527.005-.0934.009-.0816.008-.2006.017-.3505.023-.2963.012-.7135.012-1.2016-.035l.0316 2.778c.0065.001.0152.002.0261.003.0258.004.0636.008.1114.013.0955.01.2309.022.3902.03.315.016.7228.016 1.1005-.045z" fill="#7c2516" fill-rule="evenodd"/><path d="m75.862 119.297.2037.413.4555.066-.3294.321.0776.453-.4074-.214-.407.214.0776-.453-.3295-.321.4556-.066z" fill="#feff02"/><path d="m90.1064 121.725s.1916.064.1916-.191c0-.235-.054-3.435-.0639-3.952 0-.05 0-.084 0-.134 0-.447-.2873-.766-.415-.958-.1277-.223-.2554-1.149-.2554-1.724 0-.574-.0319-.574.0958-.638s-.0638-.224-.0638-.224h-.862s-.1436.144-.0478.208c.0957.064.0957.127.0957.415 0 .287.032.798 0 1.181-.0319.383-.0957.606-.1915.766s-.415.607-.415 1.022v4.15s-.0319.127.1596.127 1.7717-.048 1.7717-.048z" fill="#8b3321"/><path d="m88.7336 114.094c.3079.039.6195.039.9274 0z" fill="#7c2516"/><path d="m88.7336 114.094c.0773.006.1545.01.2318.013.0773.002.1545.004.2318.003.0772-.001.1548 0 .232-.005.0773-.005.1542-.008.2318-.011-.038.006-.0766.012-.1149.017s-.0773.01-.1159.012c-.0773.007-.1551.009-.2327.011s-.1555-.003-.2331-.009c-.0775-.005-.1546-.016-.2308-.031z" fill="#7c2516"/><path d="m88.8129 114.207.1277.032v2.139l-.3512.702-.0957 4.533h-.1277v-4.437l.4469-.894z" fill="#fff" opacity=".3"/><path clip-rule="evenodd" d="m88.7968 114.186.1596.039v2.156l-.3512.702-.0961 4.545h-.1592v-4.457l.4469-.894zm.0319.04v2.059l-.4469.894v4.417h.0961l.0955-4.521.3511-.702v-2.123z" fill="#7c2516" fill-rule="evenodd" opacity=".3"/><path d="m88.335 117.494.0319 2.809s.8938.128 1.66 0v-2.809s-.7023.096-1.6919 0z" fill="#da251d"/><path clip-rule="evenodd" d="m90.0426 117.477v2.841l-.0133.002c-.3847.064-.801.064-1.1207.048-.16-.008-.2959-.02-.3919-.03-.048-.005-.0861-.01-.1121-.013-.013-.001-.023-.003-.0298-.004-.0034 0-.006-.001-.0077-.001h-.002-.0006-.0001s0 0 .0023-.016l-.0023.016-.0135-.002-.0323-2.841.0177.002c.494.048.9162.048 1.2149.036.1493-.006.2678-.015.3488-.023.0405-.003.0717-.007.0927-.009.0106-.001.0185-.002.0239-.003.0026 0 .0046-.001.006-.001h.0015.0004zm-.0319.036c-.0041 0-.0089.001-.0143.002-.0213.002-.0527.005-.0935.009-.0815.008-.2005.017-.3504.023-.2963.012-.7135.012-1.2016-.035l.0316 2.778c.0065.001.0152.002.0261.003.0258.004.0636.008.1114.013.0955.01.2309.022.3902.03.315.016.7228.016 1.1005-.045z" fill="#7c2516" fill-rule="evenodd"/><path d="m89.1787 118.086.2036.413.4556.066-.3295.321.0776.453-.4073-.214-.4071.214.0776-.453-.3294-.321.4555-.066z" fill="#feff02"/><path d="m91.3171 122.934s.1916.064.1916-.191c0-.235-.054-3.435-.0639-3.952 0-.05 0-.084 0-.134 0-.447-.2873-.766-.415-.958-.1277-.223-.2554-1.149-.2554-1.724 0-.574-.0319-.574.0958-.638s-.0638-.224-.0638-.224h-.862s-.1436.144-.0478.208c.0957.064.0957.127.0957.415 0 .287.0319.798 0 1.181s-.0957.606-.1915.766-.415.607-.415 1.022v4.15s-.0319.127.1596.127 1.7717-.048 1.7717-.048z" fill="#8b3321"/><path d="m89.9443 115.307c.3079.039.6195.039.9274 0z" fill="#7c2516"/><path d="m89.9443 115.307c.0773.006.1545.01.2318.013.0773.002.1545.004.2318.003.0772-.001.1548 0 .232-.005.0773-.005.1542-.008.2318-.011-.038.006-.0766.012-.1149.017s-.0773.009-.1159.012c-.0773.007-.1552.009-.2327.011-.0776.001-.1555-.003-.2331-.009-.0775-.006-.1546-.016-.2308-.031z" fill="#7c2516"/><path d="m90.0238 115.418.1277.032v2.139l-.3511.702-.0958 4.533h-.1277v-4.437l.4469-.894z" fill="#fff" opacity=".3"/><path clip-rule="evenodd" d="m90.008 115.395.1596.039v2.156l-.3513.702-.096 4.545h-.1593v-4.457l.447-.894zm.0319.04v2.059l-.4469.894v4.417h.0961l.0955-4.521.351-.702v-2.123z" fill="#7c2516" fill-rule="evenodd" opacity=".3"/><path d="m89.5454 118.705.0319 2.809s.8939.128 1.66 0v-2.809s-.7023.096-1.6919 0z" fill="#da251d"/><path clip-rule="evenodd" d="m91.2531 118.686v2.841l-.0133.002c-.3847.064-.801.064-1.1208.048-.1599-.008-.2959-.02-.3919-.03-.048-.005-.086-.01-.112-.013-.0131-.001-.0231-.003-.0299-.004-.0034 0-.0059-.001-.0077-.001h-.0019-.0007s0 0 .0022-.016l-.0022.016-.0136-.002-.0322-2.841.0177.002c.4939.048.9161.048 1.2148.036.1494-.006.2678-.015.3489-.023.0405-.003.0717-.007.0927-.009.0105-.001.0185-.002.0238-.003.0027 0 .0047-.001.006-.001h.0015.0005zm-.0319.036c-.0041 0-.0089.001-.0144.002-.0212.002-.0526.005-.0934.009-.0816.008-.2005.017-.3505.023-.2963.012-.7135.012-1.2015-.035l.0315 2.778c.0065.001.0153.002.0261.003.0259.004.0637.008.1114.013.0956.01.2309.022.3902.03.315.016.7228.016 1.1006-.045z" fill="#7c2516" fill-rule="evenodd"/><path d="m90.3894 119.297.2036.413.4556.066-.3295.321.0776.453-.4073-.214-.4071.214.0776-.453-.3294-.321.4555-.066z" fill="#feff02"/><path d="m84.0535 121.725s.1915.064.1915-.191c0-.235-.054-3.435-.0639-3.952 0-.05 0-.084 0-.134 0-.447-.2873-.766-.415-.958-.1276-.223-.2553-1.149-.2553-1.724 0-.574-.032-.574.0957-.638s-.0638-.224-.0638-.224h-.8619s-.1437.144-.0479.208c.0957.064.0957.127.0957.415 0 .287.032.798 0 1.181-.0319.383-.0957.606-.1915.766s-.415.607-.415 1.022v4.15s-.0319.127.1596.127c.1916 0 1.7718-.048 1.7718-.048z" fill="#8b3321"/><path d="m82.6807 114.094c.3078.039.6195.039.9273 0z" fill="#7c2516"/><path d="m82.6807 114.094c.0772.006.1545.01.2317.013.0773.002.1545.004.2318.003.0772-.001.1548 0 .2321-.005.0772-.005.1542-.008.2317-.011-.038.006-.0766.012-.1149.017s-.0772.01-.1159.012c-.0772.007-.1551.009-.2327.011s-.1555-.003-.233-.009c-.0776-.005-.1547-.016-.2308-.031z" fill="#7c2516"/><path d="m82.7599 114.207.1277.032v2.139l-.3512.702-.0957 4.533h-.1277v-4.437l.4469-.894z" fill="#fff" opacity=".3"/><path clip-rule="evenodd" d="m82.7436 114.186.1596.039v2.156l-.3513.702-.096 4.545h-.1593v-4.457l.447-.894zm.0319.04v2.059l-.4469.894v4.417h.0961l.0955-4.521.351-.702v-2.123z" fill="#7c2516" fill-rule="evenodd" opacity=".3"/><path d="m82.2817 117.494.032 2.809s.8938.128 1.66 0v-2.809s-.7023.096-1.692 0z" fill="#da251d"/><path clip-rule="evenodd" d="m83.9894 117.477v2.841l-.0133.002c-.3847.064-.801.064-1.1207.048-.16-.008-.296-.02-.392-.03-.048-.005-.086-.01-.112-.013-.013-.001-.0231-.003-.0298-.004-.0034 0-.006-.001-.0077-.001h-.002-.0006-.0001s0 0 .0023-.016l-.0023.016-.0135-.002-.0323-2.841.0177.002c.4939.048.9162.048 1.2149.036.1493-.006.2677-.015.3488-.023.0405-.003.0717-.007.0927-.009.0105-.001.0185-.002.0238-.003.0027 0 .0047-.001.006-.001h.0015.0005zm-.0319.036c-.0041 0-.0089.001-.0143.002-.0213.002-.0527.005-.0935.009-.0815.008-.2005.017-.3505.023-.2962.012-.7134.012-1.2015-.035l.0316 2.778c.0065.001.0152.002.026.003.0259.004.0637.008.1115.013.0955.01.2309.022.3902.03.315.016.7228.016 1.1005-.045z" fill="#7c2516" fill-rule="evenodd"/><path d="m83.1257 118.086.2037.413.4555.066-.3294.321.0775.453-.4073-.214-.407.214.0775-.453-.3294-.321.4555-.066z" fill="#feff02"/><path d="m82.8428 122.934s.1915.064.1915-.191c0-.235-.054-3.435-.0638-3.952 0-.05 0-.084 0-.134 0-.447-.2874-.766-.415-.958-.1277-.223-.2554-1.149-.2554-1.724 0-.574-.032-.574.0957-.638s-.0638-.224-.0638-.224h-.8619s-.1437.144-.0479.208.0958.127.0958.415c0 .287.0319.798 0 1.181-.032.383-.0958.606-.1916.766s-.415.607-.415 1.022v4.15s-.0319.127.1596.127c.1916 0 1.7718-.048 1.7718-.048z" fill="#8b3321"/><path d="m81.47 115.307c.3078.039.6195.039.9273 0z" fill="#7c2516"/><path d="m81.47 115.307c.0772.006.1545.01.2317.013.0773.002.1545.004.2318.003.0772-.001.1548 0 .2321-.005.0772-.005.1542-.008.2317-.011-.038.006-.0766.012-.1149.017s-.0772.009-.1159.012c-.0772.007-.1551.009-.2327.011-.0776.001-.1555-.003-.233-.009-.0776-.006-.1546-.016-.2308-.031z" fill="#7c2516"/><path d="m81.5495 115.418.1277.032v2.139l-.3512.702-.0958 4.533h-.1277v-4.437l.447-.894z" fill="#fff" opacity=".3"/><path clip-rule="evenodd" d="m81.5336 115.395.1596.039v2.156l-.3512.702-.096 4.545h-.1593v-4.457l.4469-.894zm.0319.04v2.059l-.4469.894v4.417h.0961l.0955-4.521.3511-.702v-2.123z" fill="#7c2516" fill-rule="evenodd" opacity=".3"/><path d="m81.071 118.705.032 2.809s.8938.128 1.66 0v-2.809s-.7023.096-1.692 0z" fill="#da251d"/><path clip-rule="evenodd" d="m82.7787 118.686v2.841l-.0133.002c-.3847.064-.801.064-1.1207.048-.16-.008-.2959-.02-.3919-.03-.048-.005-.0861-.01-.1121-.013-.013-.001-.023-.003-.0298-.004-.0034 0-.006-.001-.0077-.001h-.002-.0006-.0001s0 0 .0023-.016l-.0023.016-.0135-.002-.0323-2.841.0177.002c.4939.048.9162.048 1.2149.036.1493-.006.2678-.015.3488-.023.0405-.003.0717-.007.0927-.009.0105-.001.0185-.002.0238-.003.0027 0 .0047-.001.006-.001h.0015.0005zm-.0319.036c-.0041 0-.0089.001-.0143.002-.0213.002-.0527.005-.0935.009-.0815.008-.2005.017-.3504.023-.2963.012-.7135.012-1.2016-.035l.0316 2.778c.0065.001.0152.002.0261.003.0258.004.0636.008.1114.013.0955.01.2309.022.3902.03.315.016.7228.016 1.1005-.045z" fill="#7c2516" fill-rule="evenodd"/><path d="m81.915 119.297.2037.413.4555.066-.3294.321.0775.453-.4073-.214-.407.214.0775-.453-.3294-.321.4555-.066z" fill="#feff02"/><g stroke="#000"><path d="m200.156 124.801c-.193 1.923-.422 4.873-.504 7.644m.504 6.883c-.331-.662-.483-2.097-.524-3.861m.02-3.022h-7.101c-.033.797-.08 1.916-.124 3.022m7.225-3.022c-.031 1.056-.041 2.085-.02 3.022m-7.345 3.861c0-.3.067-2.064.14-3.861m0 0h7.205"/><path d="m164.442 124.801c.193 1.923.422 4.873.504 7.644m-.504 6.883c.331-.662.483-2.097.524-3.861m-.02-3.022h7.1c.034.797.081 1.916.125 3.022m-7.225-3.022c.031 1.056.041 2.085.02 3.022m7.345 3.861c0-.3-.067-2.064-.14-3.861m0 0h-7.205"/><path d="m177.154 138.118 5.448-10.895 4.842 10.895"/></g><ellipse cx="182.602" cy="126.011" fill="#539882" rx="12.1062" ry="1.21062"/><path d="m149.31 123.59c-.193 1.923-.422 4.873-.504 7.644m.504 6.883c-.331-.662-.483-2.097-.524-3.861m.02-3.022h-7.101c-.033.797-.08 1.916-.124 3.022m7.225-3.022c-.031 1.056-.041 2.085-.02 3.022m-7.345 3.861c0-.299.067-2.063.14-3.861m0 0h7.205" stroke="#000"/><path d="m113.596 123.59c.193 1.923.422 4.873.504 7.644m-.504 6.883c.331-.662.483-2.097.524-3.861m-.02-3.022h7.101c.033.797.08 1.916.124 3.022m-7.225-3.022c.031 1.056.041 2.085.02 3.022m7.345 3.861c0-.299-.067-2.063-.14-3.861m0 0h-7.205" stroke="#000"/><path d="m126.308 138.116 5.448-10.895 4.842 10.895" stroke="#000"/><ellipse cx="131.756" cy="126.011" fill="#539882" rx="12.1062" ry="1.21062"/><path d="m126.425 126.569s.192.064.192-.191c0-.235-.054-3.436-.064-3.952 0-.051 0-.084 0-.135 0-.446-.288-.766-.415-.957-.128-.224-.256-1.149-.256-1.724s-.032-.575.096-.638c.128-.064-.064-.224-.064-.224h-.862s-.143.144-.048.208c.096.063.096.127.096.415 0 .287.032.798 0 1.181s-.096.606-.191.766c-.096.159-.415.606-.415 1.021v4.15s-.032.128.159.128c.192 0 1.772-.048 1.772-.048z" fill="#8b3321"/><path d="m125.053 118.939c.308.04.619.04.927 0z" fill="#7c2516"/><path d="m125.053 118.939c.077.007.154.011.231.014.078.002.155.004.232.003.078-.002.155 0 .232-.005.078-.005.155-.008.232-.012-.038.007-.077.013-.115.018s-.077.009-.116.012c-.077.007-.155.009-.232.011-.078.001-.156-.003-.233-.009-.078-.006-.155-.016-.231-.032z" fill="#7c2516"/><path d="m125.132 119.051.128.032v2.139l-.351.702-.096 4.533h-.127v-4.437l.446-.894z" fill="#fff" opacity=".3"/><path clip-rule="evenodd" d="m125.116 119.029.16.04v2.155l-.352.703-.096 4.545h-.159v-4.457l.447-.894zm.032.041v2.059l-.447.893v4.418h.096l.096-4.521.351-.702v-2.123z" fill="#7c2516" fill-rule="evenodd" opacity=".3"/><path d="m124.654 122.34.031 2.809s.894.128 1.66 0v-2.809s-.702.096-1.691 0z" fill="#da251d"/><path clip-rule="evenodd" d="m126.361 122.32v2.841l-.013.003c-.385.064-.801.064-1.121.048-.16-.008-.296-.02-.392-.03-.048-.005-.086-.01-.112-.013-.013-.002-.023-.003-.03-.004-.003 0-.006-.001-.007-.001h-.002-.001s0 0 .002-.016l-.002.016-.014-.002-.032-2.841.018.002c.494.048.916.048 1.215.036.149-.006.268-.015.349-.023.04-.004.071-.007.092-.009.011-.002.019-.003.024-.003.003-.001.005-.001.006-.001h.002zm-.032.037c-.004 0-.009.001-.014.001-.021.003-.053.006-.093.01-.082.007-.201.016-.351.022-.296.012-.713.012-1.201-.034l.031 2.778c.007.001.015.002.026.003.026.003.064.008.112.013.095.01.231.022.39.03.315.016.723.016 1.1-.046z" fill="#7c2516" fill-rule="evenodd"/><path d="m125.498 122.932.203.412.456.066-.33.322.078.453-.407-.214-.408.214.078-.453-.329-.322.455-.066z" fill="#feff02"/><path d="m179.692 126.569s.192.064.192-.191c0-.235-.054-3.436-.064-3.952 0-.051 0-.084 0-.135 0-.446-.287-.766-.415-.957-.128-.224-.255-1.149-.255-1.724s-.032-.575.095-.638c.128-.064-.063-.224-.063-.224h-.862s-.144.144-.048.208c.096.063.096.127.096.415 0 .287.031.798 0 1.181-.032.383-.096.606-.192.766-.096.159-.415.606-.415 1.021v4.15s-.032.128.16.128c.191 0 1.771-.048 1.771-.048z" fill="#8b3321"/><path d="m178.32 118.939c.307.04.619.04.927 0z" fill="#7c2516"/><path d="m178.32 118.939c.077.007.154.011.231.014.078.002.155.004.232.003.077-.002.155 0 .232-.005s.154-.008.232-.012c-.038.007-.077.013-.115.018s-.077.009-.116.012c-.077.007-.155.009-.233.011-.077.001-.155-.003-.233-.009-.077-.006-.154-.016-.23-.032z" fill="#7c2516"/><path d="m178.399 119.051.128.032v2.139l-.351.702-.096 4.533h-.128v-4.437l.447-.894z" fill="#fff" opacity=".3"/><path clip-rule="evenodd" d="m178.383 119.029.16.04v2.155l-.351.703-.096 4.545h-.16v-4.457l.447-.894zm.032.041v2.059l-.447.893v4.418h.096l.096-4.521.351-.702v-2.123z" fill="#7c2516" fill-rule="evenodd" opacity=".3"/><path d="m177.921 122.34.032 2.809s.893.128 1.66 0v-2.809s-.703.096-1.692 0z" fill="#da251d"/><path clip-rule="evenodd" d="m179.629 122.32v2.841l-.014.003c-.384.064-.801.064-1.12.048-.16-.008-.296-.02-.392-.03-.048-.005-.086-.01-.112-.013-.013-.002-.023-.003-.03-.004-.004 0-.006-.001-.008-.001h-.002-.001s0 0 .003-.016l-.003.016-.013-.002-.032-2.841.017.002c.494.048.916.048 1.215.036.149-.006.268-.015.349-.023.04-.004.072-.007.093-.009.01-.002.018-.003.023-.003.003-.001.005-.001.007-.001h.001zm-.032.037c-.004 0-.009.001-.015.001-.021.003-.052.006-.093.01-.082.007-.201.016-.351.022-.296.012-.713.012-1.201-.034l.031 2.778c.007.001.016.002.027.003.025.003.063.008.111.013.095.01.231.022.39.03.315.016.723.016 1.101-.046z" fill="#7c2516" fill-rule="evenodd"/><path d="m178.765 122.932.203.412.456.066-.33.322.078.453-.407-.214-.407.214.077-.453-.329-.322.455-.066z" fill="#feff02"/><path d="m177.271 126.569s.192.064.192-.191c0-.235-.054-3.436-.064-3.952 0-.051 0-.084 0-.135 0-.446-.288-.766-.415-.957-.128-.224-.256-1.149-.256-1.724s-.032-.575.096-.638c.128-.064-.064-.224-.064-.224h-.862s-.143.144-.048.208c.096.063.096.127.096.415 0 .287.032.798 0 1.181s-.096.606-.191.766c-.096.159-.415.606-.415 1.021v4.15s-.032.128.159.128c.192 0 1.772-.048 1.772-.048z" fill="#8b3321"/><path d="m175.898 118.939c.308.04.62.04.928 0z" fill="#7c2516"/><path d="m175.898 118.939c.078.007.155.011.232.014.077.002.155.004.232.003.077-.002.155 0 .232-.005s.154-.008.232-.012c-.038.007-.077.013-.115.018s-.077.009-.116.012c-.077.007-.155.009-.233.011-.077.001-.155-.003-.233-.009-.077-.006-.154-.016-.231-.032z" fill="#7c2516"/><path d="m175.978 119.051.128.032v2.139l-.351.702-.096 4.533h-.128v-4.437l.447-.894z" fill="#fff" opacity=".3"/><path clip-rule="evenodd" d="m175.962 119.029.16.04v2.155l-.352.703-.096 4.545h-.159v-4.457l.447-.894zm.032.041v2.059l-.447.893v4.418h.096l.096-4.521.351-.702v-2.123z" fill="#7c2516" fill-rule="evenodd" opacity=".3"/><path d="m175.5 122.34.031 2.809s.894.128 1.66 0v-2.809s-.702.096-1.691 0z" fill="#da251d"/><path clip-rule="evenodd" d="m177.207 122.32v2.841l-.013.003c-.385.064-.801.064-1.121.048-.16-.008-.296-.02-.392-.03-.048-.005-.086-.01-.112-.013-.013-.002-.023-.003-.03-.004-.003 0-.006-.001-.007-.001h-.002-.001s0 0 .002-.016l-.002.016-.014-.002-.032-2.841.018.002c.494.048.916.048 1.215.036.149-.006.268-.015.349-.023.04-.004.071-.007.092-.009.011-.002.019-.003.024-.003.003-.001.005-.001.006-.001h.002zm-.032.037c-.004 0-.009.001-.014.001-.021.003-.053.006-.094.01-.081.007-.2.016-.35.022-.296.012-.713.012-1.202-.034l.032 2.778c.007.001.015.002.026.003.026.003.064.008.112.013.095.01.23.022.39.03.315.016.723.016 1.1-.046z" fill="#7c2516" fill-rule="evenodd"/><path d="m176.343 122.932.204.412.456.066-.33.322.078.453-.408-.214-.407.214.078-.453-.329-.322.455-.066z" fill="#feff02"/><path d="m138.531 126.569s.192.064.192-.191c0-.235-.054-3.436-.064-3.952 0-.051 0-.084 0-.135 0-.446-.287-.766-.415-.957-.128-.224-.255-1.149-.255-1.724s-.032-.575.095-.638c.128-.064-.064-.224-.064-.224h-.861s-.144.144-.048.208c.095.063.095.127.095.415 0 .287.032.798 0 1.181-.031.383-.095.606-.191.766-.096.159-.415.606-.415 1.021v4.15s-.032.128.16.128c.191 0 1.771-.048 1.771-.048z" fill="#8b3321"/><path d="m137.159 118.939c.308.04.619.04.927 0z" fill="#7c2516"/><path d="m137.159 118.939c.077.007.154.011.231.014.078.002.155.004.232.003.077-.002.155 0 .232-.005.078-.005.154-.008.232-.012-.038.007-.077.013-.115.018s-.077.009-.116.012c-.077.007-.155.009-.232.011-.078.001-.156-.003-.234-.009-.077-.006-.154-.016-.23-.032z" fill="#7c2516"/><path d="m137.239 119.051.127.032v2.139l-.351.702-.096 4.533h-.127v-4.437l.447-.894z" fill="#fff" opacity=".3"/><path clip-rule="evenodd" d="m137.222 119.029.16.04v2.155l-.351.703-.096 4.545h-.16v-4.457l.447-.894zm.032.041v2.059l-.447.893v4.418h.096l.096-4.521.351-.702v-2.123z" fill="#7c2516" fill-rule="evenodd" opacity=".3"/><path d="m136.76 122.34.032 2.809s.894.128 1.66 0v-2.809s-.703.096-1.692 0z" fill="#da251d"/><path clip-rule="evenodd" d="m138.467 122.32v2.841l-.013.003c-.385.064-.801.064-1.121.048-.16-.008-.296-.02-.392-.03-.048-.005-.086-.01-.112-.013-.013-.002-.023-.003-.029-.004-.004 0-.006-.001-.008-.001h-.002-.001s0 0 .002-.016l-.002.016-.013-.002-.033-2.841.018.002c.494.048.916.048 1.215.036.149-.006.268-.015.349-.023.04-.004.072-.007.093-.009.01-.002.018-.003.023-.003.003-.001.005-.001.006-.001h.002zm-.031.037c-.005 0-.009.001-.015.001-.021.003-.052.006-.093.01-.082.007-.201.016-.351.022-.296.012-.713.012-1.201-.034l.031 2.778c.007.001.016.002.026.003.026.003.064.008.112.013.095.01.231.022.39.03.315.016.723.016 1.101-.046z" fill="#7c2516" fill-rule="evenodd"/><path d="m137.603 122.932.204.412.456.066-.33.322.078.453-.408-.214-.407.214.078-.453-.329-.322.455-.066z" fill="#feff02"/><path d="m191.798 126.569s.192.064.192-.191c0-.235-.054-3.436-.064-3.952 0-.051 0-.084 0-.135 0-.446-.287-.766-.415-.957-.128-.224-.255-1.149-.255-1.724s-.032-.575.095-.638c.128-.064-.063-.224-.063-.224h-.862s-.144.144-.048.208c.096.063.096.127.096.415 0 .287.031.798 0 1.181-.032.383-.096.606-.192.766-.096.159-.415.606-.415 1.021v4.15s-.032.128.16.128c.191 0 1.771-.048 1.771-.048z" fill="#8b3321"/><path d="m190.426 118.939c.307.04.619.04.927 0z" fill="#7c2516"/><path d="m190.426 118.939c.077.007.154.011.231.014.078.002.155.004.232.003.077-.002.155 0 .232-.005s.154-.008.232-.012c-.038.007-.077.013-.115.018s-.077.009-.116.012c-.077.007-.155.009-.233.011-.077.001-.155-.003-.233-.009-.077-.006-.154-.016-.23-.032z" fill="#7c2516"/><path d="m190.505 119.051.128.032v2.139l-.351.702-.096 4.533h-.128v-4.437l.447-.894z" fill="#fff" opacity=".3"/><path clip-rule="evenodd" d="m190.489 119.029.16.04v2.155l-.351.703-.096 4.545h-.16v-4.457l.447-.894zm.032.041v2.059l-.447.893v4.418h.096l.096-4.521.351-.702v-2.123z" fill="#7c2516" fill-rule="evenodd" opacity=".3"/><path d="m190.027 122.34.032 2.809s.893.128 1.66 0v-2.809s-.703.096-1.692 0z" fill="#da251d"/><path clip-rule="evenodd" d="m191.735 122.32v2.841l-.014.003c-.384.064-.801.064-1.121.048-.159-.008-.295-.02-.391-.03-.048-.005-.086-.01-.112-.013-.014-.002-.024-.003-.03-.004-.004 0-.006-.001-.008-.001h-.002-.001s0 0 .003-.016l-.003.016-.013-.002-.033-2.841.018.002c.494.048.916.048 1.215.036.149-.006.268-.015.349-.023.04-.004.072-.007.093-.009.01-.002.018-.003.023-.003.003-.001.005-.001.006-.001h.002zm-.032.037c-.004 0-.009.001-.015.001-.021.003-.052.006-.093.01-.082.007-.201.016-.351.022-.296.012-.713.012-1.201-.034l.031 2.778c.007.001.016.002.026.003.026.003.064.008.112.013.095.01.231.022.39.03.315.016.723.016 1.101-.046z" fill="#7c2516" fill-rule="evenodd"/><path d="m190.871 122.932.203.412.456.066-.33.322.078.453-.407-.214-.407.214.077-.453-.329-.322.455-.066z" fill="#feff02"/></svg>