<svg fill="none" height="176" viewBox="0 0 280 176" width="280" xmlns="http://www.w3.org/2000/svg" xmlns:xlink="http://www.w3.org/1999/xlink"><filter id="a" color-interpolation-filters="sRGB" filterUnits="userSpaceOnUse" height="116.961" width="328.863" x="0" y="3.08423"><feFlood flood-opacity="0" result="BackgroundImageFix"/><feColorMatrix in="SourceAlpha" type="matrix" values="0 0 0 0 0 0 0 0 0 0 0 0 0 0 0 0 0 0 127 0"/><feOffset dx="3.45263"/><feGaussianBlur stdDeviation=".863158"/><feColorMatrix type="matrix" values="0 0 0 0 0 0 0 0 0 0 0 0 0 0 0 0 0 0 0.25 0"/><feBlend in2="BackgroundImageFix" mode="normal" result="effect1_dropShadow"/><feBlend in="SourceGraphic" in2="effect1_dropShadow" mode="normal" result="shape"/></filter><filter id="b" color-interpolation-filters="sRGB" filterUnits="userSpaceOnUse" height="82.1337" width="253.985" x="74.9287" y="58.8403"><feFlood flood-opacity="0" result="BackgroundImageFix"/><feColorMatrix in="SourceAlpha" type="matrix" values="0 0 0 0 0 0 0 0 0 0 0 0 0 0 0 0 0 0 127 0"/><feOffset dx="2.61499" dy="-2.61499"/><feGaussianBlur stdDeviation="1.30749"/><feColorMatrix type="matrix" values="0 0 0 0 0 0 0 0 0 0 0 0 0 0 0 0 0 0 0.25 0"/><feBlend in2="BackgroundImageFix" mode="normal" result="effect1_dropShadow"/><feBlend in="SourceGraphic" in2="effect1_dropShadow" mode="normal" result="shape"/></filter><mask id="c" height="176" maskUnits="userSpaceOnUse" width="280" x="0" y="0"><path d="m0 0h280v176h-280z" fill="#c4c4c4"/></mask><mask id="d" height="58" maskUnits="userSpaceOnUse" width="326" x="-23" y="119"><path d="m-23 119h325.286v57.1195h-325.286z" fill="#89cdd3"/></mask><path d="m0 0h280v176h-280z" fill="#89cdd3"/><g mask="url(#c)"><g filter="url(#a)"><path d="m211.735 18.5312h28.0651v99.7871h-28.0651z" fill="#e3e687"/><path d="m225.762 4.81055 13.971 13.66085h-27.943z" fill="#e3e687"/><path d="m214.896 19.7129v91.4321" stroke="#000" stroke-dasharray="1.67 1.67" stroke-width=".863158"/><path d="m219.243 19.7129v91.4321" stroke="#000" stroke-dasharray="1.67 1.67" stroke-width=".863158"/><path d="m223.589 19.7129v91.4321" stroke="#000" stroke-dasharray="1.67 1.67" stroke-width=".863158"/><path d="m227.936 19.7129v91.4321" stroke="#000" stroke-dasharray="1.67 1.67" stroke-width=".863158"/><path d="m232.283 19.7129v91.4321" stroke="#000" stroke-dasharray="1.67 1.67" stroke-width=".863158"/><path d="m236.629 19.7129v91.4321" stroke="#000" stroke-dasharray="1.67 1.67" stroke-width=".863158"/><path d="m183.982 32.875h27.7533v85.4427h-27.7533z" fill="#f4e97d"/><path d="m197.821 19.5234 13.971 13.6608h-27.943z" fill="#f4e97d"/><path d="m186.954 33.7441v77.4019" stroke="#000" stroke-dasharray="1.67 1.67" stroke-width=".863158"/><path d="m191.3 33.7441v77.4019" stroke="#000" stroke-dasharray="1.67 1.67" stroke-width=".863158"/><path d="m195.646 33.7441v77.4019" stroke="#000" stroke-dasharray="1.67 1.67" stroke-width=".863158"/><path d="m199.993 33.7441v77.4019" stroke="#000" stroke-dasharray="1.67 1.67" stroke-width=".863158"/><path d="m204.34 33.7441v77.4019" stroke="#000" stroke-dasharray="1.67 1.67" stroke-width=".863158"/><path d="m208.687 33.7441v77.4019" stroke="#000" stroke-dasharray="1.67 1.67" stroke-width=".863158"/><path d="m267.554 40.6719h28.0651v77.6468h-28.0651z" fill="#a2daaf"/><path d="m281.648 27.1641 13.971 13.6608h-27.942z" fill="#a2daaf"/><path d="m270.781 41.6758v69.4712" stroke="#000" stroke-dasharray="1.67 1.67" stroke-width=".863158"/><path d="m275.127 41.6758v69.4712" stroke="#000" stroke-dasharray="1.67 1.67" stroke-width=".863158"/><path d="m279.474 41.6758v69.4712" stroke="#000" stroke-dasharray="1.67 1.67" stroke-width=".863158"/><path d="m155.917 18.5312h28.0651v99.7871h-28.0651z" fill="#e3e687"/><path d="m169.878 4.81055 13.971 13.66085h-27.943z" fill="#e3e687"/><path d="m159.01 19.7129v91.4331" stroke="#000" stroke-dasharray="1.67 1.67" stroke-width=".863158"/><path d="m163.357 19.7129v91.4331" stroke="#000" stroke-dasharray="1.67 1.67" stroke-width=".863158"/><path d="m167.704 19.7129v91.4331" stroke="#000" stroke-dasharray="1.67 1.67" stroke-width=".863158"/><path d="m172.051 19.7129v91.4331" stroke="#000" stroke-dasharray="1.67 1.67" stroke-width=".863158"/><path d="m176.397 19.7129v91.4331" stroke="#000" stroke-dasharray="1.67 1.67" stroke-width=".863158"/><path d="m180.743 19.7129v91.4331" stroke="#000" stroke-dasharray="1.67 1.67" stroke-width=".863158"/><path d="m153.423 13.5039c1.035 1.1384 3.912 2.9805 7.14 1.2419v3.7257h-4.657c-.828-.414-2.483-1.9871-2.483-4.9676z" fill="#e3e687"/><path d="m159.633 7.29492c1.034 1.1384 3.912 2.98058 7.14 1.24189v3.72569h-4.657c-.828-.414-2.483-1.987-2.483-4.96758z" fill="#e3e687"/><path d="m186.023 13.5039c-1.035 1.1384-3.912 2.9805-7.141 1.2419v3.7257h4.657c.828-.414 2.484-1.9871 2.484-4.9676z" fill="#e3e687"/><path d="m179.813 7.29492c-1.035 1.1384-3.912 2.98058-7.141 1.24189v3.72569h4.657c.828-.414 2.484-1.987 2.484-4.96758z" fill="#e3e687"/><path d="m239.8 25.3906h27.7533v92.9267h-27.7533z" fill="#b2dda5"/><path d="m253.705 11.6406 13.971 13.6608h-27.943z" fill="#b2dda5"/><path d="m242.838 26.4238v84.7222" stroke="#000" stroke-dasharray="1.67 1.67" stroke-width=".863158"/><path d="m247.184 26.4238v84.7222" stroke="#000" stroke-dasharray="1.67 1.67" stroke-width=".863158"/><path d="m251.531 26.4238v84.7222" stroke="#000" stroke-dasharray="1.67 1.67" stroke-width=".863158"/><path d="m255.877 26.4238v84.7222" stroke="#000" stroke-dasharray="1.67 1.67" stroke-width=".863158"/><path d="m260.224 26.4238v84.7222" stroke="#000" stroke-dasharray="1.67 1.67" stroke-width=".863158"/><path d="m264.571 26.4238v84.7222" stroke="#000" stroke-dasharray="1.67 1.67" stroke-width=".863158"/><path d="m237.249 20.0898c1.035 1.1384 3.912 2.9806 7.141 1.2419v3.7257h-4.657c-.828-.414-2.484-1.987-2.484-4.9676z" fill="#b2dda5"/><path d="m243.459 13.8809c1.035 1.1384 3.912 2.9805 7.141 1.2419v3.7256h-4.657c-.828-.4139-2.484-1.987-2.484-4.9675z" fill="#b2dda5"/><path d="m269.849 20.0898c-1.035 1.1384-3.912 2.9806-7.141 1.2419v3.7257h4.657c.828-.414 2.484-1.987 2.484-4.9676z" fill="#b2dda5"/><path d="m263.639 13.8809c-1.035 1.1384-3.912 2.9805-7.141 1.2419v3.7256h4.657c.828-.4139 2.484-1.987 2.484-4.9675z" fill="#b2dda5"/><path d="m0 0h31.2516v79.1706h-31.2516z" fill="#d3e391" transform="matrix(-1 0 0 1 156.258 39.1113)"/><path d="m0 0h31.2516v79.1706h-31.2516z" fill="#b2dda5" transform="matrix(-1 0 0 1 93.7546 39.1113)"/><path d="m0 0h31.2516v71.5313h-31.2516z" fill="#a2daaf" transform="matrix(-1 0 0 1 62.5032 46.75)"/><path d="m0 0h31.2516v63.1976h-31.2516z" fill="#c3e09b" transform="matrix(-1 0 0 1 125.006 55.084)"/><path d="m0 0h31.2516v54.1694h-31.2516z" fill="#91d7b9" transform="matrix(-1 0 0 1 31.2515 64.1113)"/><path d="m140.632 23.832-15.626 15.2786h31.252z" fill="#d3e391"/><path d="m78.1289 23.832-15.6258 15.2786h31.2515z" fill="#b2dda5"/><path d="m46.8262 31.5684-15.7526 15.9684h31.5053z" fill="#a2daaf"/><path d="m109.38 39.8047-15.6254 15.2785h31.2514z" fill="#c3e09b"/><path d="m15.6257 48.834-15.62578774 15.2785h31.25158774z" fill="#91d7b9"/><g stroke="#000" stroke-width=".863158"><path d="m152.786 40.5v71.879" stroke-dasharray="1.87 1.87"/><path d="m147.924 40.5v71.879" stroke-dasharray="1.87 1.87"/><path d="m143.062 40.5v71.879" stroke-dasharray="1.87 1.87"/><path d="m138.201 40.5v71.879" stroke-dasharray="1.87 1.87"/><path d="m133.34 40.5v71.879" stroke-dasharray="1.87 1.87"/><path d="m128.479 40.5v71.879" stroke-dasharray="1.87 1.87"/><path d="m90.2827 40.5v71.879" stroke-dasharray="1.87 1.87"/><path d="m85.4211 40.5v71.879" stroke-dasharray="1.87 1.87"/><path d="m80.5598 40.5v71.879" stroke-dasharray="1.87 1.87"/><path d="m75.6987 40.5v71.879" stroke-dasharray="1.87 1.87"/><path d="m70.8376 40.5v71.879" stroke-dasharray="1.87 1.87"/><path d="m65.9763 40.5v71.879" stroke-dasharray="1.87 1.87"/><path d="m59.031 48.0059v64.9431" stroke-dasharray="1.87 1.87"/><path d="m54.1697 48.0059v64.9431" stroke-dasharray="1.87 1.87"/><path d="m49.3076 48.0059v64.9431" stroke-dasharray="1.87 1.87"/><path d="m44.4465 48.0059v64.9431" stroke-dasharray="1.87 1.87"/><path d="m39.5852 48.0059v64.9431" stroke-dasharray="1.87 1.87"/><path d="m34.7241 48.0059v64.9431" stroke-dasharray="1.87 1.87"/><path d="m121.534 56.1934v57.3766" stroke-dasharray="1.87 1.87"/><path d="m116.673 56.1934v57.3766" stroke-dasharray="1.87 1.87"/><path d="m111.811 56.1934v57.3766" stroke-dasharray="1.87 1.87"/><path d="m106.95 56.1934v57.3766" stroke-dasharray="1.87 1.87"/><path d="m102.089 56.1934v57.3766" stroke-dasharray="1.87 1.87"/><path d="m97.2275 56.1934v57.3766" stroke-dasharray="1.87 1.87"/><path d="m27.7795 65.0625v49.1805" stroke-dasharray="1.87 1.87"/><path d="m22.9177 65.0625v49.1805" stroke-dasharray="1.87 1.87"/><path d="m18.0566 65.0625v49.1805" stroke-dasharray="1.87 1.87"/><path d="m13.1953 65.0625v49.1805" stroke-dasharray="1.87 1.87"/><path d="m8.33423 65.0625v49.1805" stroke-dasharray="1.87 1.87"/><path d="m3.47314 65.0625v49.1805" stroke-dasharray="1.87 1.87"/></g><path d="m159.035 33.5547c-1.157 1.2732-4.375 3.3335-7.986 1.3889v4.1669h5.208c.926-.463 2.778-2.2223 2.778-5.5558z" fill="#d3e391"/><path d="m152.09 26.6094c-1.157 1.2732-4.375 3.3335-7.986 1.3889v4.1669h5.208c.926-.463 2.778-2.2223 2.778-5.5558z" fill="#d3e391"/><path d="m122.574 33.5547c1.158 1.2732 4.375 3.3335 7.987 1.3889v4.1669h-5.209c-.926-.463-2.778-2.2223-2.778-5.5558z" fill="#d3e391"/><path d="m129.52 26.6094c1.157 1.2732 4.375 3.3335 7.987 1.3889v4.1669h-5.209c-.926-.463-2.778-2.2223-2.778-5.5558z" fill="#d3e391"/><path d="m65.2808 41.8887c-1.1575 1.2732-4.3753 3.3335-7.9865 1.3889v4.1669h5.2085c.926-.463 2.778-2.2223 2.778-5.5558z" fill="#a2daaf"/><path d="m58.3359 34.9434c-1.1574 1.2732-4.3752 3.3335-7.9865 1.3889v4.1669h5.2086c.926-.463 2.7779-2.2223 2.7779-5.5558z" fill="#a2daaf"/><path d="m28.8198 41.8887c1.1575 1.2732 4.3752 3.3335 7.9865 1.3889v4.1669h-5.2086c-.9259-.463-2.7779-2.2223-2.7779-5.5558z" fill="#a2daaf"/><path d="m35.7656 34.9434c1.1575 1.2732 4.3752 3.3335 7.9865 1.3889v4.1669h-5.2086c-.9259-.463-2.7779-2.2223-2.7779-5.5558z" fill="#a2daaf"/></g><path d="m0 119h328v57h-328z" fill="#f4e97d"/><g mask="url(#d)"><path d="m-3.82626 143.807h-1.07267v1.206z" fill="#acdeb6"/><path d="m.464411 146.891.536329-.805.40226.805z" fill="#acdeb6"/><path d="m118.726 143.004h-1.073v1.207z" fill="#acdeb6"/><path d="m123.017 146.088.536-.805.402.805z" fill="#acdeb6"/><path d="m55.6624 148.061 1.0722.031.0341-1.206z" fill="#acdeb6"/><path d="m51.4606 144.858-.5589.789-.3793-.816z" fill="#acdeb6"/><path d="m178.215 147.259 1.072.03.034-1.206z" fill="#acdeb6"/><path d="m174.013 144.055-.559.789-.379-.816z" fill="#acdeb6"/><path d="m255.262 140.16-1.072-.031-.035 1.206z" fill="#acdeb6"/><path d="m259.461 143.368.56-.789.379.816z" fill="#acdeb6"/><path d="m112.709 147.763 1.072.03.034-1.206z" fill="#acdeb6"/><path d="m108.507 144.559-.559.789-.379-.816z" fill="#acdeb6"/><path d="m96.5141 150.875.7408.775.8727-.833z" fill="#acdeb6"/><path d="m95.781 145.642-.9522.168.304-.847z" fill="#acdeb6"/><path d="m5.02102 136.981 1.07224.031.03411-1.207z" fill="#acdeb6"/><path d="m.819245 133.777-.558862.789-.379347-.815z" fill="#acdeb6"/><path d="m127.573 136.179 1.073.03.034-1.206z" fill="#acdeb6"/><path d="m123.371 132.975-.558.789-.38-.816z" fill="#acdeb6"/><path d="m71.4197 142.2.5727.907 1.0204-.644z" fill="#acdeb6"/><path d="m71.7362 136.926-.9666-.024.4654-.77z" fill="#acdeb6"/><path d="m193.972 141.398.573.907 1.02-.645z" fill="#acdeb6"/><path d="m194.288 136.123-.966-.024.465-.769z" fill="#acdeb6"/><path d="m239.5 146.007-.572-.907-1.021.643z" fill="#acdeb6"/><path d="m239.179 151.281.966.025-.466.769z" fill="#acdeb6"/><path d="m84.8918 141.217-1.0651-.127-.1429 1.198z" fill="#acdeb6"/><path d="m88.7871 144.787.6278-.735.3042.846z" fill="#acdeb6"/><path d="m207.444 140.414-1.065-.127-.143 1.198z" fill="#acdeb6"/><path d="m211.339 143.984.628-.735.304.847z" fill="#acdeb6"/><path d="m226.027 146.976 1.065.128.144-1.199z" fill="#acdeb6"/><path d="m222.135 143.402-.628.735-.304-.847z" fill="#acdeb6"/><path d="m37.9631 133.879-1.0652-.127-.1428 1.198z" fill="#acdeb6"/><path d="m41.8584 137.449.6278-.735.3042.846z" fill="#acdeb6"/><path d="m160.516 133.072-1.066-.127-.142 1.199z" fill="#acdeb6"/><path d="m164.411 136.643.628-.736.304.847z" fill="#acdeb6"/><path d="m272.949 154.358 1.065.128.144-1.198z" fill="#acdeb6"/><path d="m269.057 150.785-.628.734-.304-.846z" fill="#acdeb6"/><path d="m15.4005 144.461-.2938-1.031-1.1606.33z" fill="#acdeb6"/><path d="m13.6098 149.433.9206.295-.6635.607z" fill="#acdeb6"/><path d="m137.953 143.657-.294-1.032-1.161.331z" fill="#acdeb6"/><path d="m136.162 148.628.921.295-.664.608z" fill="#acdeb6"/><path d="m36.4623 146.869.2645 1.039 1.1695-.297z" fill="#acdeb6"/><path d="m38.3928 141.95-.9119-.321.6804-.589z" fill="#acdeb6"/><path d="m159.015 146.062.264 1.04 1.17-.298z" fill="#acdeb6"/><path d="m160.945 141.143-.912-.321.681-.588z" fill="#acdeb6"/><path d="m274.462 141.372-.264-1.04-1.17.297z" fill="#acdeb6"/><path d="m272.527 146.289.912.322-.681.588z" fill="#acdeb6"/><path d="m27.0958 151.916.2646 1.039 1.1694-.298z" fill="#acdeb6"/><path d="m29.0264 146.997-.912-.322.6805-.588z" fill="#acdeb6"/><path d="m149.648 151.113.265 1.039 1.169-.297z" fill="#acdeb6"/><path d="m151.579 146.194-.912-.321.68-.588z" fill="#acdeb6"/><path d="m23.0731 141.992.2645 1.039 1.1695-.297z" fill="#acdeb6"/><path d="m25.0037 137.073-.912-.321.6805-.589z" fill="#acdeb6"/><path d="m145.626 141.189.264 1.04 1.17-.298z" fill="#acdeb6"/><path d="m147.556 136.27-.912-.321.681-.588z" fill="#acdeb6"/><path d="m110.279 140.858v-1.073l.938.402z" fill="#acdeb6"/><path d="m64.0459 150.447-.0303 1.073-.9268-.429z" fill="#acdeb6"/><path d="m186.598 149.645-.03 1.072-.927-.429z" fill="#acdeb6"/><path d="m246.881 137.766.032-1.073.926.43z" fill="#acdeb6"/><path d="m121.092 150.147-.03 1.072-.927-.429z" fill="#acdeb6"/><path d="m103.739 135.924-.031 1.072-.927-.429z" fill="#acdeb6"/><path d="m74.1159 150.49-.9069.572-.1611-1.008z" fill="#acdeb6"/><path d="m196.668 149.685-.907.573-.161-1.009z" fill="#acdeb6"/><path d="m236.811 137.716.908-.571.16 1.008z" fill="#acdeb6"/><path d="m233.636 142.638.907-.572.16 1.009z" fill="#acdeb6"/><path d="m50.5447 139.908-.907.572-.161-1.008z" fill="#acdeb6"/><path d="m173.097 139.105-.907.573-.161-1.009z" fill="#acdeb6"/><path d="m260.373 148.318.907-.572.16 1.009z" fill="#acdeb6"/><path d="m76.7577 138.087.1271-1.066.8843.511z" fill="#acdeb6"/><path d="m199.31 137.284.127-1.065.884.51z" fill="#acdeb6"/><path d="m234.158 150.115-.128 1.065-.884-.512z" fill="#acdeb6"/><path d="m206.538 154.244-.128 1.065-.884-.512z" fill="#acdeb6"/><path d="m277.869 145.236-.128 1.065-.884-.512z" fill="#acdeb6"/><path d="m15.1498 135.749 1.0316-.294-.1298 1.013z" fill="#acdeb6"/><path d="m137.702 134.946 1.032-.294-.13 1.013z" fill="#acdeb6"/><path d="m36.4663 155.581-1.0395.265.1583-1.009z" fill="#acdeb6"/><path d="m159.019 154.778-1.04.265.158-1.009z" fill="#acdeb6"/><path d="m274.466 132.656 1.039-.263-.159 1.008z" fill="#acdeb6"/><path d="m8.30541 154.775-1.03954.264.15836-1.009z" fill="#acdeb6"/><path d="m130.858 153.968-1.04.264.158-1.008z" fill="#acdeb6"/><path d="m112.022 135.094-1.341 1.072 1.341.805z" fill="#acdeb6"/><path d="m62.1404 156.161 1.3706-1.034-1.3175-.842z" fill="#acdeb6"/><path d="m184.693 155.357 1.37-1.035-1.317-.842z" fill="#acdeb6"/><path d="m248.792 132.057-1.372 1.033 1.317.843z" fill="#acdeb6"/><path d="m48.3323 155.741 1.3706-1.034-1.3175-.842z" fill="#acdeb6"/><path d="m170.885 154.935 1.37-1.035-1.317-.842z" fill="#acdeb6"/><path d="m262.6 132.486-1.372 1.033 1.317.844z" fill="#acdeb6"/><path d="m56.9136 136.163 1.3706-1.034-1.3175-.842z" fill="#acdeb6"/><path d="m179.466 135.361 1.37-1.035-1.317-.842z" fill="#acdeb6"/><path d="m254.001 152.057-1.372 1.033 1.317.843z" fill="#acdeb6"/><path d="m119.187 155.859 1.37-1.035-1.317-.842z" fill="#acdeb6"/><path d="m68.3107 152.095 1.6229.561-.0357-1.563z" fill="#acdeb6"/><path d="m190.863 151.288 1.623.561-.036-1.563z" fill="#acdeb6"/><path d="m242.618 136.117-1.623-.563.035 1.564z" fill="#acdeb6"/><path d="m216.899 153.39-1.623-.562.035 1.563z" fill="#acdeb6"/><path d="m216.63 134.429-1.622-.562.034 1.563z" fill="#acdeb6"/><path d="m56.3773 152.72 1.6229.561-.0357-1.563z" fill="#acdeb6"/><path d="m178.93 151.917 1.622.561-.035-1.563z" fill="#acdeb6"/><path d="m254.552 135.5-1.622-.563.034 1.563z" fill="#acdeb6"/><path d="m228.565 133.814-1.623-.562.035 1.563z" fill="#acdeb6"/><path d="m52.0866 134.216 1.6228.561-.0357-1.563z" fill="#acdeb6"/><path d="m174.639 133.413 1.623.561-.036-1.563z" fill="#acdeb6"/><path d="m258.826 154.007-1.622-.562.034 1.563z" fill="#acdeb6"/><path d="m79.1715 132.571-1.4584.906 1.2361.958z" fill="#acdeb6"/><path d="m201.724 131.764-1.459.907 1.236.957z" fill="#acdeb6"/><path d="m231.74 155.633 1.459-.905-1.236-.959z" fill="#acdeb6"/><path d="m275.451 150.752 1.459-.905-1.235-.959z" fill="#acdeb6"/><path d="m21.1724 135.846-1.3989-.996-.4064 1.51z" fill="#acdeb6"/><path d="m143.725 135.042-1.399-.996-.406 1.51z" fill="#acdeb6"/><path d="m30.4486 155.316 1.3702 1.035.449-1.498z" fill="#acdeb6"/><path d="m153.001 154.511 1.37 1.035.449-1.498z" fill="#acdeb6"/><path d="m280.483 132.927-1.37-1.036-.45 1.497z" fill="#acdeb6"/><g fill="#e7e88c"><path d="m-.339932 138.311-.804498.402.804498 1.072z"/><path d="m-5.30102 149.439-.67042.805.67042.536z"/><path d="m8.10732 138.713-1.20675 1.072.93859.939z"/><path d="m3.95074 143.406-.53634-.671-.26816 1.073z"/><path d="m122.212 137.508-.804.402.804 1.073z"/><path d="m117.251 148.637-.67.804.67.537z"/><path d="m130.66 137.91-1.207 1.073.938.938z"/><path d="m126.503 142.603-.536-.67-.269 1.072z"/><path d="m52.0224 153.46.8155-.379-.7738-1.095z"/><path d="m57.2961 142.476.6928-.786-.6549-.555z"/><path d="m43.5898 152.819 1.2366-1.038-.9116-.965z"/><path d="m47.8774 148.246.5172.685.2984-1.065z"/><path d="m174.575 152.657.815-.379-.774-1.095z"/><path d="m179.848 141.673.693-.785-.655-.555z"/><path d="m166.142 152.016 1.237-1.038-.912-.965z"/><path d="m170.43 147.443.517.685.298-1.065z"/><path d="m258.907 134.766-.816.378.773 1.096z"/><path d="m253.624 145.745-.694.785.655.556z"/><path d="m267.339 135.414-1.237 1.037.91.966z"/><path d="m263.047 139.984-.516-.686-.299 1.064z"/><path d="m109.069 153.159.815-.379-.774-1.095z"/><path d="m114.342 142.175.693-.785-.655-.555z"/><path d="m100.636 152.518 1.237-1.038-.912-.965z"/><path d="m104.924 147.945.517.685.298-1.065z"/><path d="m94.5875 155.306.8156-.38-.7739-1.095z"/><path d="m99.8612 144.321.6928-.785-.6549-.555z"/><path d="m86.155 154.665 1.2366-1.038-.9117-.965z"/><path d="m90.4426 150.091.5172.686.2984-1.065z"/><path d="m64.9103 142.19.7697.465.4774-1.253z"/><path d="m76.969 140.442 1.0382.137.0955-.853z"/><path d="m60.74 134.833 1.5513.447.2925-1.295z"/><path d="m66.9274 135.841-.2805.812 1.0501-.346z"/><path d="m187.463 141.383.769.465.478-1.253z"/><path d="m199.521 139.635 1.038.138.096-.854z"/><path d="m183.292 134.026 1.552.447.292-1.294z"/><path d="m189.48 135.035-.281.811 1.05-.346z"/><path d="m246.01 146.024-.77-.466-.478 1.252z"/><path d="m233.949 147.761-1.038-.138-.096.853z"/><path d="m250.173 153.385-1.551-.449-.293 1.294z"/><path d="m243.987 152.371.281-.812-1.05.345z"/><path d="m64.6418 155.328.7696.466.4774-1.253z"/><path d="m76.7004 153.581 1.0382.137.0955-.853z"/><path d="m60.4715 147.971 1.5513.448.2924-1.295z"/><path d="m66.6588 148.98-.2805.811 1.0502-.346z"/><path d="m187.194 154.526.77.465.477-1.253z"/><path d="m199.253 152.778 1.038.137.095-.853z"/><path d="m183.024 147.168 1.551.448.292-1.295z"/><path d="m189.211 148.177-.28.812 1.05-.346z"/><path d="m246.29 132.885-.77-.466-.478 1.253z"/><path d="m234.229 134.622-1.038-.138-.096.853z"/><path d="m250.453 140.246-1.551-.449-.293 1.295z"/><path d="m244.267 139.232.281-.811-1.05.345z"/><path d="m43.9931 141.115.7696.466.4774-1.253z"/><path d="m56.0517 139.368 1.0382.137.0955-.853z"/><path d="m39.8228 133.758 1.5513.448.2924-1.295z"/><path d="m46.0101 134.767-.2804.811 1.0501-.346z"/><path d="m166.545 140.313.77.465.477-1.253z"/><path d="m178.604 138.565 1.038.137.096-.853z"/><path d="m162.375 132.956 1.551.447.293-1.295z"/><path d="m168.562 133.964-.28.812 1.05-.346z"/><path d="m266.926 147.116-.77-.466-.478 1.252z"/><path d="m254.865 148.853-1.038-.139-.096.854z"/><path d="m271.089 154.477-1.551-.449-.293 1.294z"/><path d="m264.903 153.462.281-.811-1.05.345z"/><path d="m6.18155 156.403.76967.465.4774-1.253z"/><path d="m18.2402 154.655 1.0382.137.0955-.853z"/><path d="m2.01127 149.045 1.5513.448.29244-1.295z"/><path d="m8.19862 150.054-.28048.812 1.05015-.346z"/><path d="m128.734 155.598.769.465.478-1.253z"/><path d="m140.792 153.85 1.039.138.095-.854z"/><path d="m124.564 148.241 1.551.447.292-1.294z"/><path d="m130.751 149.249-.281.812 1.051-.346z"/><path d="m104.063 140.043.769.466.478-1.253z"/><path d="m116.121 138.296 1.039.137.095-.853z"/><path d="m99.8924 132.686 1.5516.448.292-1.295z"/><path d="m106.08 133.695-.281.811 1.05-.346z"/><path d="m89.0042 136.173-.8464.304.6718 1.16z"/><path d="m82.7602 146.636-.7609.719.6022.612z"/><path d="m97.3444 137.572-1.3252.923.8208 1.043z"/><path d="m92.6614 141.74-.4532-.729-.3933 1.033z"/><path d="m211.557 135.37-.847.304.672 1.161z"/><path d="m205.313 145.833-.761.72.602.612z"/><path d="m219.897 136.77-1.325.922.821 1.043z"/><path d="m215.214 140.937-.453-.729-.393 1.034z"/><path d="m221.91 152.02.847-.304-.671-1.161z"/><path d="m228.163 141.562.762-.719-.602-.612z"/><path d="m213.571 150.612 1.326-.921-.82-1.043z"/><path d="m218.258 146.449.452.73.394-1.033z"/><path d="m287.004 131.892-.899.015.262 1.315z"/><path d="m277.726 139.789-.952.437.373.773z"/><path d="m294.45 135.9-1.551.447.441 1.252z"/><path d="m288.675 138.34-.194-.837-.705.852z"/><path d="m21.6424 146.307-.6073-.664-.8112 1.068z"/><path d="m9.58018 144.584-.95737-.425-.33219.792z"/><path d="m23.5693 154.541-1.3622-.867-.6456 1.16z"/><path d="m17.9173 151.829.4979-.7-1.1051.036z"/><path d="m144.195 145.504-.607-.664-.811 1.068z"/><path d="m132.133 143.781-.957-.424-.333.791z"/><path d="m146.122 153.738-1.362-.866-.646 1.159z"/><path d="m140.47 151.026.498-.699-1.105.036z"/><path d="m30.2748 144.845.5882.681.8411-1.045z"/><path d="m42.2834 146.908.945.452.3545-.782z"/><path d="m28.5814 136.56 1.3371.905.6782-1.142z"/><path d="m34.1544 139.43-.5174.686 1.1057-.005z"/><path d="m152.827 144.042.588.681.841-1.044z"/><path d="m164.836 146.106.945.451.354-.782z"/><path d="m151.134 135.757 1.337.905.678-1.141z"/><path d="m156.707 138.628-.518.685 1.106-.005z"/><path d="m280.648 143.398-.588-.681-.842 1.044z"/><path d="m268.641 141.324-.945-.452-.355.782z"/><path d="m282.334 151.685-1.337-.906-.679 1.141z"/><path d="m276.763 148.809.518-.684-1.106.004z"/><path d="m25.5939 134.232-.7282-.528-.5803 1.209z"/><path d="m13.4314 134.968-1.0231-.224-.1663.843z"/><path d="m29.1359 141.911-1.5086-.575-.3994 1.266z"/><path d="m23.0542 140.39.3472-.785-1.0753.257z"/><path d="m148.146 133.425-.728-.528-.58 1.209z"/><path d="m135.984 134.161-1.023-.223-.167.842z"/><path d="m151.688 141.105-1.508-.576-.4 1.266z"/><path d="m145.606 139.583.348-.785-1.076.257z"/></g><path d="m116.313 118.33h-1.073v1.207z" fill="#acdeb6"/><path d="m120.604 121.414.536-.805.402.805z" fill="#acdeb6"/><path d="m53.2493 123.388 1.0722.03.0341-1.206z" fill="#acdeb6"/><path d="m49.0475 120.184-.5588.789-.3794-.816z" fill="#acdeb6"/><path d="m175.802 122.585 1.072.03.034-1.206z" fill="#acdeb6"/><path d="m171.6 119.381-.559.789-.379-.816z" fill="#acdeb6"/><path d="m110.296 123.089 1.072.03.034-1.206z" fill="#acdeb6"/><path d="m106.094 119.885-.559.789-.379-.816z" fill="#acdeb6"/><path d="m94.101 126.201.7408.776.8727-.834z" fill="#acdeb6"/><path d="m93.3679 120.968-.9522.168.304-.847z" fill="#acdeb6"/><path d="m237.087 121.333-.572-.907-1.021.643z" fill="#acdeb6"/><path d="m236.766 126.607.966.025-.466.769z" fill="#acdeb6"/><path d="m82.4787 116.543-1.0651-.127-.1429 1.198z" fill="#acdeb6"/><path d="m86.374 120.113.6278-.735.3042.846z" fill="#acdeb6"/><path d="m205.031 115.74-1.065-.127-.143 1.199z" fill="#acdeb6"/><path d="m208.926 119.311.628-.736.304.847z" fill="#acdeb6"/><path d="m223.614 122.302 1.065.128.144-1.198z" fill="#acdeb6"/><path d="m219.722 118.728-.629.735-.303-.847z" fill="#acdeb6"/><path d="m270.536 129.685 1.065.127.144-1.198z" fill="#acdeb6"/><path d="m266.644 126.111-.629.735-.303-.847z" fill="#acdeb6"/><path d="m12.9874 119.788-.2938-1.032-1.1606.33z" fill="#acdeb6"/><path d="m11.1967 124.759.9206.295-.6635.607z" fill="#acdeb6"/><path d="m135.54 118.983-.294-1.032-1.161.331z" fill="#acdeb6"/><path d="m133.749 123.954.921.296-.664.607z" fill="#acdeb6"/><path d="m34.0492 122.195.2645 1.039 1.1695-.297z" fill="#acdeb6"/><path d="m35.9797 117.276-.9119-.321.6805-.588z" fill="#acdeb6"/><path d="m156.601 121.388.265 1.04 1.169-.298z" fill="#acdeb6"/><path d="m158.532 116.47-.912-.322.68-.588z" fill="#acdeb6"/><path d="m272.049 116.698-.264-1.04-1.17.297z" fill="#acdeb6"/><path d="m270.114 121.615.911.322-.681.588z" fill="#acdeb6"/><path d="m24.6827 127.242.2646 1.039 1.1694-.297z" fill="#acdeb6"/><path d="m26.6133 122.323-.9119-.321.6804-.589z" fill="#acdeb6"/><path d="m147.235 126.439.265 1.04 1.169-.298z" fill="#acdeb6"/><path d="m149.166 121.52-.912-.321.68-.588z" fill="#acdeb6"/><path d="m61.6329 125.773-.0304 1.073-.9268-.429z" fill="#acdeb6"/><path d="m184.185 124.971-.03 1.072-.927-.429z" fill="#acdeb6"/><path d="m118.679 125.473-.03 1.072-.927-.429z" fill="#acdeb6"/><path d="m71.7029 125.816-.907.573-.161-1.009z" fill="#acdeb6"/><path d="m194.255 125.011-.907.573-.161-1.008z" fill="#acdeb6"/><path d="m257.96 123.644.907-.572.16 1.009z" fill="#acdeb6"/><path d="m231.745 125.441-.128 1.065-.884-.511z" fill="#acdeb6"/><path d="m204.125 129.57-.128 1.065-.884-.512z" fill="#acdeb6"/><path d="m275.456 120.562-.128 1.065-.884-.511z" fill="#acdeb6"/><path d="m34.0532 130.907-1.0395.265.1583-1.009z" fill="#acdeb6"/><path d="m156.605 130.105-1.039.264.158-1.009z" fill="#acdeb6"/><path d="m5.89232 130.101-1.03954.264.15836-1.009z" fill="#acdeb6"/><path d="m128.445 129.294-1.04.265.158-1.009z" fill="#acdeb6"/><path d="m59.7273 131.487 1.3706-1.034-1.3175-.842z" fill="#acdeb6"/><path d="m182.28 130.683 1.37-1.035-1.317-.842z" fill="#acdeb6"/><path d="m45.9192 131.068 1.3706-1.035-1.3175-.842z" fill="#acdeb6"/><path d="m168.471 130.261 1.371-1.034-1.317-.842z" fill="#acdeb6"/><path d="m251.588 127.383-1.372 1.033 1.317.843z" fill="#acdeb6"/><path d="m116.773 131.185 1.371-1.035-1.317-.842z" fill="#acdeb6"/><path d="m65.8976 127.421 1.6229.561-.0357-1.563z" fill="#acdeb6"/><path d="m188.45 126.614 1.623.561-.036-1.563z" fill="#acdeb6"/><path d="m214.486 128.716-1.623-.562.035 1.563z" fill="#acdeb6"/><path d="m53.9642 128.046 1.6229.561-.0357-1.563z" fill="#acdeb6"/><path d="m176.516 127.243 1.623.561-.035-1.563z" fill="#acdeb6"/><path d="m256.413 129.334-1.622-.563.034 1.563z" fill="#acdeb6"/><path d="m229.326 130.959 1.46-.905-1.236-.959z" fill="#acdeb6"/><path d="m273.038 126.078 1.459-.905-1.235-.958z" fill="#acdeb6"/><path d="m28.0355 130.642 1.3702 1.035.449-1.498z" fill="#acdeb6"/><path d="m150.588 129.837 1.37 1.035.449-1.498z" fill="#acdeb6"/><path d="m-2.75302 113.637-.8045.402.8045 1.073z" fill="#e7e88c"/><path d="m-7.7141 124.766-.67042.804.67042.536z" fill="#e7e88c"/><path d="m5.69424 114.039-1.20675 1.073.93858.938z" fill="#e7e88c"/><path d="m1.53765 118.732-.53633-.671-.268169 1.073z" fill="#e7e88c"/><path d="m119.799 112.834-.804.402.804 1.073z" fill="#e7e88c"/><path d="m114.838 123.963-.67.804.67.537z" fill="#e7e88c"/><path d="m128.246 113.236-1.206 1.073.938.938z" fill="#e7e88c"/><path d="m124.09 117.929-.536-.67-.269 1.072z" fill="#e7e88c"/><path d="m49.6093 128.786.8155-.379-.7738-1.095z" fill="#e7e88c"/><path d="m54.883 117.802.6929-.785-.655-.555z" fill="#e7e88c"/><path d="m41.1768 128.145 1.2366-1.038-.9117-.965z" fill="#e7e88c"/><path d="m45.4643 123.572.5172.685.2984-1.065z" fill="#e7e88c"/><path d="m172.162 127.983.815-.379-.774-1.095z" fill="#e7e88c"/><path d="m177.435 116.999.693-.785-.655-.555z" fill="#e7e88c"/><path d="m163.729 127.343 1.237-1.039-.912-.964z" fill="#e7e88c"/><path d="m168.017 122.769.517.685.298-1.064z" fill="#e7e88c"/><path d="m256.494 110.092-.816.379.773 1.095z" fill="#e7e88c"/><path d="m251.211 121.071-.694.785.655.556z" fill="#e7e88c"/><path d="m264.926 110.74-1.237 1.037.91.966z" fill="#e7e88c"/><path d="m260.634 115.31-.516-.686-.3 1.065z" fill="#e7e88c"/><path d="m106.655 128.485.816-.379-.774-1.095z" fill="#e7e88c"/><path d="m111.929 117.501.693-.785-.655-.555z" fill="#e7e88c"/><path d="m98.2229 127.844 1.2366-1.038-.9117-.964z" fill="#e7e88c"/><path d="m102.51 123.271.518.685.298-1.064z" fill="#e7e88c"/><path d="m92.1745 130.632.8155-.38-.7738-1.095z" fill="#e7e88c"/><path d="m97.4482 119.648.6928-.786-.6549-.555z" fill="#e7e88c"/><path d="m83.7419 129.991 1.2366-1.038-.9116-.965z" fill="#e7e88c"/><path d="m88.0295 125.417.5172.686.2984-1.065z" fill="#e7e88c"/><path d="m243.596 121.35-.769-.466-.478 1.253z" fill="#e7e88c"/><path d="m231.536 123.087-1.038-.138-.096.853z" fill="#e7e88c"/><path d="m247.76 128.711-1.551-.449-.293 1.294z" fill="#e7e88c"/><path d="m241.574 127.697.281-.811-1.051.345z" fill="#e7e88c"/><path d="m62.2287 130.654.7696.466.4774-1.253z" fill="#e7e88c"/><path d="m74.2873 128.907 1.0382.137.0955-.853z" fill="#e7e88c"/><path d="m58.0584 123.297 1.5513.448.2924-1.295z" fill="#e7e88c"/><path d="m64.2457 124.306-.2804.812 1.0501-.346z" fill="#e7e88c"/><path d="m184.781 129.852.77.465.477-1.253z" fill="#e7e88c"/><path d="m196.84 128.104 1.038.137.095-.853z" fill="#e7e88c"/><path d="m180.611 122.495 1.551.447.292-1.295z" fill="#e7e88c"/><path d="m186.798 123.503-.28.812 1.05-.346z" fill="#e7e88c"/><path d="m264.512 122.442-.769-.466-.478 1.252z" fill="#e7e88c"/><path d="m252.452 124.179-1.038-.138-.096.853z" fill="#e7e88c"/><path d="m268.676 129.803-1.551-.449-.293 1.294z" fill="#e7e88c"/><path d="m262.49 128.789.281-.812-1.051.345z" fill="#e7e88c"/><path d="m3.76846 131.729.76968.465.47739-1.253z" fill="#e7e88c"/><path d="m15.8271 129.981 1.0382.137.0955-.853z" fill="#e7e88c"/><path d="m-.401814 124.372 1.551304.447.29243-1.295z" fill="#e7e88c"/><path d="m5.78553 125.38-.28047.812 1.05014-.346z" fill="#e7e88c"/><path d="m126.321 130.924.769.465.478-1.253z" fill="#e7e88c"/><path d="m138.379 129.176 1.039.138.095-.853z" fill="#e7e88c"/><path d="m122.15 123.567 1.552.448.292-1.295z" fill="#e7e88c"/><path d="m128.338 124.576-.281.811 1.05-.346z" fill="#e7e88c"/><path d="m86.5912 111.499-.8465.304.6718 1.16z" fill="#e7e88c"/><path d="m80.3472 121.962-.761.719.6022.612z" fill="#e7e88c"/><path d="m94.9313 112.899-1.3252.922.8208 1.043z" fill="#e7e88c"/><path d="m90.2483 117.066-.4532-.729-.3933 1.033z" fill="#e7e88c"/><path d="m209.144 110.696-.847.304.672 1.161z" fill="#e7e88c"/><path d="m202.9 121.159-.761.72.602.612z" fill="#e7e88c"/><path d="m217.484 112.096-1.325.922.821 1.043z" fill="#e7e88c"/><path d="m212.801 116.264-.453-.73-.393 1.034z" fill="#e7e88c"/><path d="m219.497 127.346.847-.304-.671-1.161z" fill="#e7e88c"/><path d="m225.75 116.888.762-.719-.602-.612z" fill="#e7e88c"/><path d="m211.158 125.939 1.326-.921-.82-1.044z" fill="#e7e88c"/><path d="m215.845 121.775.452.73.394-1.033z" fill="#e7e88c"/><path d="m19.2293 121.633-.6072-.664-.8113 1.068z" fill="#e7e88c"/><path d="m7.16709 119.91-.95736-.425-.33219.792z" fill="#e7e88c"/><path d="m21.1562 129.867-1.3622-.866-.6456 1.159z" fill="#e7e88c"/><path d="m15.5042 127.155.4979-.699-1.1051.036z" fill="#e7e88c"/><path d="m141.782 120.83-.607-.663-.811 1.067z" fill="#e7e88c"/><path d="m129.72 119.107-.958-.424-.332.791z" fill="#e7e88c"/><path d="m143.709 129.065-1.362-.867-.646 1.16z" fill="#e7e88c"/><path d="m138.057 126.352.498-.699-1.105.036z" fill="#e7e88c"/><path d="m27.8617 120.171.5882.681.8412-1.044z" fill="#e7e88c"/><path d="m39.8704 122.235.9449.451.3545-.782z" fill="#e7e88c"/><path d="m26.1683 111.886 1.3372.905.6781-1.141z" fill="#e7e88c"/><path d="m31.7414 114.757-.5175.685 1.1057-.005z" fill="#e7e88c"/><path d="m150.414 119.369.588.68.841-1.044z" fill="#e7e88c"/><path d="m162.423 121.432.945.451.354-.782z" fill="#e7e88c"/><path d="m148.721 111.083 1.337.905.678-1.141z" fill="#e7e88c"/><path d="m154.294 113.954-.518.685 1.106-.005z" fill="#e7e88c"/><path d="m278.235 118.724-.588-.681-.842 1.044z" fill="#e7e88c"/><path d="m266.228 116.65-.945-.452-.355.782z" fill="#e7e88c"/><path d="m279.921 127.011-1.337-.906-.679 1.141z" fill="#e7e88c"/><path d="m274.35 124.136.518-.685-1.106.004z" fill="#e7e88c"/><path d="m280.221 169.279h1.073v1.207z" fill="#acdeb6"/><path d="m275.931 172.363-.537-.804-.402.804z" fill="#acdeb6"/><path d="m157.669 168.477h1.073v1.206z" fill="#acdeb6"/><path d="m153.378 171.56-.536-.804-.402.804z" fill="#acdeb6"/><path d="m220.733 173.534-1.073.03-.034-1.206z" fill="#acdeb6"/><path d="m224.934 170.33.559.789.38-.815z" fill="#acdeb6"/><path d="m98.1804 172.731-1.0722.031-.0342-1.207z" fill="#acdeb6"/><path d="m102.382 169.527.559.789.379-.815z" fill="#acdeb6"/><path d="m21.1326 165.633 1.0722-.031.0352 1.206z" fill="#acdeb6"/><path d="m16.9337 168.841-.5596-.789-.3786.816z" fill="#acdeb6"/><path d="m163.686 173.235-1.072.031-.034-1.207z" fill="#acdeb6"/><path d="m167.888 170.031.559.789.379-.815z" fill="#acdeb6"/><path d="m179.881 176.347-.741.776-.873-.833z" fill="#acdeb6"/><path d="m180.614 171.114.952.168-.304-.846z" fill="#acdeb6"/><path d="m271.374 162.454-1.072.03-.034-1.206z" fill="#acdeb6"/><path d="m275.576 159.25.559.789.379-.815z" fill="#acdeb6"/><path d="m148.822 161.651-1.072.031-.035-1.207z" fill="#acdeb6"/><path d="m153.024 158.447.558.789.38-.815z" fill="#acdeb6"/><path d="m204.975 167.673-.572.907-1.021-.644z" fill="#acdeb6"/><path d="m204.659 162.399.966-.024-.465-.77z" fill="#acdeb6"/><path d="m82.4231 166.87-.5728.907-1.0203-.644z" fill="#acdeb6"/><path d="m82.1066 161.596.9666-.024-.4655-.77z" fill="#acdeb6"/><path d="m36.8951 171.48.5719-.908 1.0209.644z" fill="#acdeb6"/><path d="m37.2163 176.754-.9666.025.4662.769z" fill="#acdeb6"/><path d="m191.503 166.69 1.065-.128.143 1.199z" fill="#acdeb6"/><path d="m187.608 170.26-.628-.736-.304.847z" fill="#acdeb6"/><path d="m68.9512 165.887 1.0652-.127.1429 1.198z" fill="#acdeb6"/><path d="m65.0559 169.457-.6278-.735-.3042.846z" fill="#acdeb6"/><path d="m50.368 172.448-1.065.128-.144-1.198z" fill="#acdeb6"/><path d="m54.2601 168.874.6285.735.3034-.847z" fill="#acdeb6"/><path d="m238.432 159.352 1.065-.127.143 1.198z" fill="#acdeb6"/><path d="m234.537 162.922-.628-.735-.304.846z" fill="#acdeb6"/><path d="m115.879 158.545 1.066-.127.142 1.198z" fill="#acdeb6"/><path d="m111.984 162.115-.628-.735-.304.846z" fill="#acdeb6"/><path d="m260.995 169.934.293-1.032 1.161.331z" fill="#acdeb6"/><path d="m262.785 174.905-.92.296.663.607z" fill="#acdeb6"/><path d="m138.442 169.129.294-1.031 1.161.33z" fill="#acdeb6"/><path d="m140.233 174.101-.921.295.664.607z" fill="#acdeb6"/><path d="m239.933 172.341-.264 1.04-1.17-.298z" fill="#acdeb6"/><path d="m238.003 167.423.912-.322-.681-.588z" fill="#acdeb6"/><path d="m117.381 171.535-.265 1.039-1.169-.297z" fill="#acdeb6"/><path d="m115.45 166.616.912-.321-.68-.589z" fill="#acdeb6"/><path d="m1.93341 166.844.26361-1.039 1.16975.296z" fill="#acdeb6"/><path d="m3.86833 171.761-.91163.323.68098.587z" fill="#acdeb6"/><path d="m249.299 177.388-.264 1.04-1.17-.298z" fill="#acdeb6"/><path d="m247.369 172.47.912-.322-.681-.588z" fill="#acdeb6"/><path d="m126.747 176.585-.265 1.04-1.169-.298z" fill="#acdeb6"/><path d="m124.816 171.667.912-.322-.68-.588z" fill="#acdeb6"/><path d="m253.322 167.464-.265 1.04-1.169-.298z" fill="#acdeb6"/><path d="m251.391 162.546.912-.322-.68-.588z" fill="#acdeb6"/><path d="m130.769 166.662-.264 1.039-1.17-.297z" fill="#acdeb6"/><path d="m128.839 161.743.912-.321-.681-.589z" fill="#acdeb6"/><path d="m166.116 166.33v-1.072l-.938.402z" fill="#acdeb6"/><path d="m212.349 175.92.03 1.072.927-.428z" fill="#acdeb6"/><path d="m89.7971 175.117.0303 1.072.9268-.428z" fill="#acdeb6"/><path d="m29.5137 163.238-.0313-1.072-.9264.429z" fill="#acdeb6"/><path d="m155.303 175.619.03 1.072.927-.428z" fill="#acdeb6"/><path d="m172.656 161.397.031 1.072.927-.429z" fill="#acdeb6"/><path d="m202.279 175.962.907.573.161-1.008z" fill="#acdeb6"/><path d="m79.7268 175.158.907.572.161-1.008z" fill="#acdeb6"/><path d="m39.584 163.189-.9075-.572-.1601 1.009z" fill="#acdeb6"/><path d="m42.7595 168.111-.9074-.572-.1602 1.009z" fill="#acdeb6"/><path d="m225.85 165.38.907.573.161-1.008z" fill="#acdeb6"/><path d="m103.298 164.578.907.572.161-1.008z" fill="#acdeb6"/><path d="m16.0222 173.791-.9075-.572-.1601 1.008z" fill="#acdeb6"/><path d="m199.637 163.559-.127-1.065-.884.511z" fill="#acdeb6"/><path d="m77.085 162.757-.127-1.066-.8843.511z" fill="#acdeb6"/><path d="m42.237 175.587.128 1.065.8839-.511z" fill="#acdeb6"/><path d="m261.245 161.222-1.031-.294.129 1.013z" fill="#acdeb6"/><path d="m138.693 160.419-1.032-.294.13 1.013z" fill="#acdeb6"/><path d="m1.92942 158.129-1.039772-.264.159262 1.009z" fill="#acdeb6"/><path d="m164.373 160.566 1.341 1.073-1.341.805z" fill="#acdeb6"/><path d="m27.6033 157.529 1.3716 1.033-1.3168.844z" fill="#acdeb6"/><path d="m13.7955 157.959 1.3715 1.033-1.3168.843z" fill="#acdeb6"/><path d="m219.481 161.636-1.37-1.034 1.317-.842z" fill="#acdeb6"/><path d="m96.9292 160.833-1.3707-1.034 1.3176-.842z" fill="#acdeb6"/><path d="m85.5321 176.761-1.6229.561.0357-1.563z" fill="#acdeb6"/><path d="m33.7773 161.589 1.6224-.562-.0344 1.563z" fill="#acdeb6"/><path d="m59.7648 159.902 1.6224-.562-.0343 1.563z" fill="#acdeb6"/><path d="m21.8434 160.972 1.6224-.562-.0343 1.563z" fill="#acdeb6"/><path d="m47.8305 159.287 1.6224-.563-.0343 1.564z" fill="#acdeb6"/><path d="m224.308 159.691-1.622.56.035-1.563z" fill="#acdeb6"/><path d="m101.756 158.886-1.623.561.036-1.563z" fill="#acdeb6"/><path d="m197.224 158.044 1.458.906-1.236.957z" fill="#acdeb6"/><path d="m74.6713 157.237 1.4584.906-1.2361.958z" fill="#acdeb6"/><path d="m.944052 176.225-1.459225-.905 1.235285-.959z" fill="#acdeb6"/><path d="m255.223 161.319 1.398-.996.407 1.51z" fill="#acdeb6"/><path d="m132.67 160.514 1.399-.996.406 1.51z" fill="#acdeb6"/><path d="m276.735 163.783.804.402-.804 1.073z" fill="#e7e88c"/><path d="m281.696 174.912.67.805-.67.536z" fill="#e7e88c"/><path d="m268.288 164.185 1.206 1.073-.938.939z" fill="#e7e88c"/><path d="m272.444 168.878.537-.67.268 1.073z" fill="#e7e88c"/><path d="m154.183 162.98.804.403-.804 1.072z" fill="#e7e88c"/><path d="m159.144 174.109.67.805-.67.536z" fill="#e7e88c"/><path d="m145.735 163.383 1.207 1.072-.938.939z" fill="#e7e88c"/><path d="m149.892 168.076.536-.671.269 1.073z" fill="#e7e88c"/><path d="m224.373 178.933-.816-.38.774-1.095z" fill="#e7e88c"/><path d="m219.099 167.948-.693-.785.655-.555z" fill="#e7e88c"/><path d="m232.805 178.292-1.236-1.038.911-.965z" fill="#e7e88c"/><path d="m228.518 173.718-.518.685-.298-1.064z" fill="#e7e88c"/><path d="m101.82 178.13-.815-.379.774-1.095z" fill="#e7e88c"/><path d="m96.5467 167.146-.6929-.786.655-.555z" fill="#e7e88c"/><path d="m110.253 177.489-1.237-1.038.912-.965z" fill="#e7e88c"/><path d="m105.965 172.915-.517.686-.298-1.065z" fill="#e7e88c"/><path d="m17.4878 160.238.8159.379-.7729 1.096z" fill="#e7e88c"/><path d="m22.7713 171.218.6936.785-.6545.555z" fill="#e7e88c"/><path d="m9.0559 160.887 1.2375 1.037-.9108.965z" fill="#e7e88c"/><path d="m13.3476 165.457.5165-.686.2993 1.064z" fill="#e7e88c"/><path d="m167.327 178.632-.816-.38.774-1.095z" fill="#e7e88c"/><path d="m162.053 167.648-.693-.786.655-.555z" fill="#e7e88c"/><path d="m175.759 177.991-1.237-1.038.912-.965z" fill="#e7e88c"/><path d="m171.471 173.417-.517.686-.298-1.065z" fill="#e7e88c"/><path d="m181.807 180.778-.815-.379.774-1.095z" fill="#e7e88c"/><path d="m176.534 169.794-.693-.785.655-.555z" fill="#e7e88c"/><path d="m190.24 180.137-1.237-1.038.912-.964z" fill="#e7e88c"/><path d="m185.952 175.564-.517.685-.298-1.064z" fill="#e7e88c"/><path d="m211.485 167.662-.77.466-.477-1.253z" fill="#e7e88c"/><path d="m199.426 165.915-1.038.137-.096-.853z" fill="#e7e88c"/><path d="m215.655 160.305-1.551.448-.293-1.295z" fill="#e7e88c"/><path d="m209.468 161.314.28.811-1.05-.346z" fill="#e7e88c"/><path d="m88.9325 166.856-.7697.465-.4774-1.253z" fill="#e7e88c"/><path d="m76.8738 165.108-1.0382.137-.0955-.853z" fill="#e7e88c"/><path d="m93.1027 159.499-1.5513.447-.2924-1.295z" fill="#e7e88c"/><path d="m86.9154 160.507.2805.812-1.0502-.346z" fill="#e7e88c"/><path d="m30.3855 171.497.7693-.466.4785 1.252z" fill="#e7e88c"/><path d="m42.4457 173.233 1.0381-.138.0962.853z" fill="#e7e88c"/><path d="m26.2218 178.857 1.5509-.449.2936 1.295z" fill="#e7e88c"/><path d="m32.4082 177.843-.2812-.811 1.0505.345z" fill="#e7e88c"/><path d="m211.753 180.801-.769.465-.478-1.253z" fill="#e7e88c"/><path d="m199.695 179.053-1.039.138-.095-.854z" fill="#e7e88c"/><path d="m215.924 173.444-1.552.447-.292-1.294z" fill="#e7e88c"/><path d="m209.736 174.453.281.811-1.05-.346z" fill="#e7e88c"/><path d="m89.201 179.998-.7697.466-.4774-1.253z" fill="#e7e88c"/><path d="m77.1424 178.251-1.0382.137-.0955-.853z" fill="#e7e88c"/><path d="m93.3713 172.641-1.5513.448-.2924-1.295z" fill="#e7e88c"/><path d="m87.184 173.65.2804.811-1.0501-.346z" fill="#e7e88c"/><path d="m30.1055 158.358.7692-.466.4785 1.252z" fill="#e7e88c"/><path d="m42.1657 160.095 1.038-.138.0963.853z" fill="#e7e88c"/><path d="m25.9417 165.719 1.5509-.449.2936 1.294z" fill="#e7e88c"/><path d="m32.1282 164.705-.2812-.812 1.0504.345z" fill="#e7e88c"/><path d="m232.402 166.588-.77.466-.477-1.253z" fill="#e7e88c"/><path d="m220.343 164.841-1.038.137-.095-.853z" fill="#e7e88c"/><path d="m236.572 159.231-1.551.448-.293-1.295z" fill="#e7e88c"/><path d="m230.385 160.24.28.811-1.05-.346z" fill="#e7e88c"/><path d="m109.85 165.785-.77.466-.477-1.253z" fill="#e7e88c"/><path d="m97.791 164.038-1.0382.137-.0955-.853z" fill="#e7e88c"/><path d="m114.02 158.428-1.551.448-.293-1.295z" fill="#e7e88c"/><path d="m107.833 159.437.28.811-1.05-.346z" fill="#e7e88c"/><path d="m9.46948 172.588.76922-.466.4786 1.253z" fill="#e7e88c"/><path d="m21.5297 174.325 1.0381-.138.0962.853z" fill="#e7e88c"/><path d="m5.30576 179.949 1.5509-.449.29359 1.295z" fill="#e7e88c"/><path d="m11.4922 178.935-.2812-.811 1.0505.345z" fill="#e7e88c"/><path d="m270.213 181.875-.769.466-.478-1.253z" fill="#e7e88c"/><path d="m258.155 180.128-1.038.137-.096-.853z" fill="#e7e88c"/><path d="m274.384 174.518-1.552.448-.292-1.295z" fill="#e7e88c"/><path d="m268.196 175.527.281.811-1.05-.346z" fill="#e7e88c"/><path d="m147.661 181.07-.769.466-.478-1.253z" fill="#e7e88c"/><path d="m135.603 179.323-1.039.137-.095-.853z" fill="#e7e88c"/><path d="m151.832 173.713-1.552.448-.292-1.295z" fill="#e7e88c"/><path d="m145.644 174.722.281.812-1.051-.346z" fill="#e7e88c"/><path d="m172.332 165.516-.769.465-.478-1.253z" fill="#e7e88c"/><path d="m160.274 163.768-1.038.138-.096-.854z" fill="#e7e88c"/><path d="m176.503 158.159-1.552.447-.292-1.294z" fill="#e7e88c"/><path d="m170.315 159.167.281.812-1.05-.346z" fill="#e7e88c"/><path d="m187.391 161.645.846.305-.672 1.16z" fill="#e7e88c"/><path d="m193.635 172.109.761.719-.602.612z" fill="#e7e88c"/><path d="m179.051 163.045 1.325.922-.821 1.043z" fill="#e7e88c"/><path d="m183.734 167.213.453-.729.393 1.033z" fill="#e7e88c"/><path d="m64.838 160.843.8465.304-.6718 1.16z" fill="#e7e88c"/><path d="m71.082 171.306.761.719-.6022.612z" fill="#e7e88c"/><path d="m56.4979 162.242 1.3252.923-.8208 1.043z" fill="#e7e88c"/><path d="m61.1809 166.41.4532-.729.3933 1.033z" fill="#e7e88c"/><path d="m54.4851 177.492-.8468-.303.6708-1.161z" fill="#e7e88c"/><path d="m48.2318 167.035-.7616-.719.6016-.613z" fill="#e7e88c"/><path d="m62.824 176.085-1.3261-.921.8199-1.044z" fill="#e7e88c"/><path d="m58.1373 171.922-.4525.729-.3943-1.033z" fill="#e7e88c"/><path d="m254.753 171.779.607-.663.811 1.067z" fill="#e7e88c"/><path d="m266.815 170.056.957-.424.332.792z" fill="#e7e88c"/><path d="m252.826 180.014 1.362-.867.646 1.16z" fill="#e7e88c"/><path d="m258.478 177.302-.498-.7 1.105.036z" fill="#e7e88c"/><path d="m132.2 170.977.607-.664.811 1.068z" fill="#e7e88c"/><path d="m144.262 169.254.957-.425.333.792z" fill="#e7e88c"/><path d="m130.273 179.211 1.362-.867.646 1.16z" fill="#e7e88c"/><path d="m135.925 176.499-.498-.7 1.105.036z" fill="#e7e88c"/><path d="m246.12 170.318-.588.68-.841-1.044z" fill="#e7e88c"/><path d="m234.112 172.381-.945.451-.355-.782z" fill="#e7e88c"/><path d="m247.814 162.032-1.338.905-.678-1.141z" fill="#e7e88c"/><path d="m242.241 164.903.517.685-1.106-.004z" fill="#e7e88c"/><path d="m123.568 169.515-.588.681-.841-1.045z" fill="#e7e88c"/><path d="m111.559 171.578-.945.452-.354-.782z" fill="#e7e88c"/><path d="m125.261 161.23-1.337.904-.678-1.141z" fill="#e7e88c"/><path d="m119.688 164.1.518.686-1.106-.005z" fill="#e7e88c"/><path d="m-4.25259 168.871.58762-.681.84207 1.043z" fill="#e7e88c"/><path d="m7.75423 166.797.94459-.452.35513.781z" fill="#e7e88c"/><path d="m-5.93858 177.158 1.33633-.906.67914 1.14z" fill="#e7e88c"/><path d="m-.368099 174.282-.518054-.685 1.105674.004z" fill="#e7e88c"/><path d="m250.801 159.705.728-.528.581 1.209z" fill="#e7e88c"/><path d="m262.964 160.44 1.023-.223.166.842z" fill="#e7e88c"/><path d="m247.259 167.384 1.509-.575.399 1.265z" fill="#e7e88c"/><path d="m253.341 165.863-.347-.785 1.075.257z" fill="#e7e88c"/><path d="m128.249 158.898.728-.528.58 1.209z" fill="#e7e88c"/><path d="m140.411 159.634 1.023-.224.167.843z" fill="#e7e88c"/><path d="m124.707 166.577 1.508-.575.4 1.266z" fill="#e7e88c"/><path d="m130.789 165.056-.348-.785 1.076.257z" fill="#e7e88c"/></g><g filter="url(#b)"><path d="m74.9287 87.1862c0-2.7888 2.2607-5.0495 5.0495-5.0495h238.2808c2.788 0 5.049 2.2607 5.049 5.0495v53.7878h-243.2003c-2.8603 0-5.179-2.319-5.179-5.179z" fill="#000"/><path d="m79.1907 99.6209c0-1.632 1.3229-2.9549 2.9548-2.9549h16.8899v19.699h-19.8447z" fill="#89cdd3"/><path d="m74.9287 86.8152c0-2.5838 2.0947-4.6785 4.6785-4.6785h243.7008v11.1137h-248.3793z" fill="#539882"/><g fill="#89cdd3"><path d="m143.828 96.5195h22.9632v19.9453h-22.9632z"/><path d="m174.317 96.5195h22.9632v19.9453h-22.9632z"/><path d="m204.806 96.5195h22.9632v19.9453h-22.9632z"/><path d="m235.297 96.5195h22.9632v19.9453h-22.9632z"/><path d="m265.785 96.5195h22.9632v19.9453h-22.9632z"/></g><path d="m103.571 96.4199h34.5865v44.3229h-34.5865z" fill="#539882"/><path d="m120.722 96.4199v44.3231" stroke="#000" stroke-width=".984954"/><rect fill="#89cdd3" height="30.0411" rx="1.72367" width="11.9068" x="105.839" y="98.3887"/><rect fill="#89cdd3" height="30.0411" rx="1.72367" width="11.9068" x="123.699" y="98.3887"/><path d="m138.528 126.592h185.156" stroke="#539882" stroke-width="4.57623"/><path d="m165.644 82.7932-17.562-9.1525 17.562-9.1524" stroke="#000" stroke-width=".938714"/><path d="m165.374 82.7913 17.562-9.1525-17.562-9.1525" stroke="#000" stroke-width=".938714"/><path d="m277.647 82.7932-17.563-9.1525 17.563-9.1524" stroke="#000" stroke-width=".938714"/><path d="m277.378 82.7913 17.562-9.1525-17.562-9.1525" stroke="#000" stroke-width=".938714"/></g><path d="m-.5 63.5059h323.895" stroke="#000" stroke-width="1.30749"/></g></svg>