<svg width="280" height="176" viewBox="0 0 280 176" fill="none" xmlns="http://www.w3.org/2000/svg">
<rect width="280" height="176" fill="#89CDD3"/>
<mask id="mask0" mask-type="alpha" maskUnits="userSpaceOnUse" x="0" y="0" width="280" height="176">
<rect width="280" height="176" fill="#C4C4C4"/>
</mask>
<g mask="url(#mask0)">
<g filter="url(#filter0_d)">
<rect x="211.735" y="18.5312" width="28.0651" height="99.7871" fill="#E3E687"/>
<path d="M225.762 4.81055L239.733 18.4714H211.79L225.762 4.81055Z" fill="#E3E687"/>
<path d="M214.896 19.7129V111.145" stroke="black" stroke-width="0.863158" stroke-dasharray="1.67 1.67"/>
<path d="M219.243 19.7129V111.145" stroke="black" stroke-width="0.863158" stroke-dasharray="1.67 1.67"/>
<path d="M223.589 19.7129V111.145" stroke="black" stroke-width="0.863158" stroke-dasharray="1.67 1.67"/>
<path d="M227.936 19.7129V111.145" stroke="black" stroke-width="0.863158" stroke-dasharray="1.67 1.67"/>
<path d="M232.283 19.7129V111.145" stroke="black" stroke-width="0.863158" stroke-dasharray="1.67 1.67"/>
<path d="M236.629 19.7129V111.145" stroke="black" stroke-width="0.863158" stroke-dasharray="1.67 1.67"/>
<rect x="183.982" y="32.875" width="27.7533" height="85.4427" fill="#F4E97D"/>
<path d="M197.821 19.5234L211.792 33.1842H183.849L197.821 19.5234Z" fill="#F4E97D"/>
<path d="M186.954 33.7441V111.146" stroke="black" stroke-width="0.863158" stroke-dasharray="1.67 1.67"/>
<path d="M191.3 33.7441V111.146" stroke="black" stroke-width="0.863158" stroke-dasharray="1.67 1.67"/>
<path d="M195.646 33.7441V111.146" stroke="black" stroke-width="0.863158" stroke-dasharray="1.67 1.67"/>
<path d="M199.993 33.7441V111.146" stroke="black" stroke-width="0.863158" stroke-dasharray="1.67 1.67"/>
<path d="M204.34 33.7441V111.146" stroke="black" stroke-width="0.863158" stroke-dasharray="1.67 1.67"/>
<path d="M208.687 33.7441V111.146" stroke="black" stroke-width="0.863158" stroke-dasharray="1.67 1.67"/>
<rect x="267.554" y="40.6719" width="28.0651" height="77.6468" fill="#A2DAAF"/>
<path d="M281.648 27.1641L295.619 40.8249H267.677L281.648 27.1641Z" fill="#A2DAAF"/>
<path d="M270.781 41.6758V111.147" stroke="black" stroke-width="0.863158" stroke-dasharray="1.67 1.67"/>
<path d="M275.127 41.6758V111.147" stroke="black" stroke-width="0.863158" stroke-dasharray="1.67 1.67"/>
<path d="M279.474 41.6758V111.147" stroke="black" stroke-width="0.863158" stroke-dasharray="1.67 1.67"/>
<rect x="155.917" y="18.5312" width="28.0651" height="99.7871" fill="#E3E687"/>
<path d="M169.878 4.81055L183.849 18.4714H155.906L169.878 4.81055Z" fill="#E3E687"/>
<path d="M159.01 19.7129V111.146" stroke="black" stroke-width="0.863158" stroke-dasharray="1.67 1.67"/>
<path d="M163.357 19.7129V111.146" stroke="black" stroke-width="0.863158" stroke-dasharray="1.67 1.67"/>
<path d="M167.704 19.7129V111.146" stroke="black" stroke-width="0.863158" stroke-dasharray="1.67 1.67"/>
<path d="M172.051 19.7129V111.146" stroke="black" stroke-width="0.863158" stroke-dasharray="1.67 1.67"/>
<path d="M176.397 19.7129V111.146" stroke="black" stroke-width="0.863158" stroke-dasharray="1.67 1.67"/>
<path d="M180.743 19.7129V111.146" stroke="black" stroke-width="0.863158" stroke-dasharray="1.67 1.67"/>
<path d="M153.423 13.5039C154.458 14.6423 157.335 16.4844 160.563 14.7458V18.4715H155.906C155.078 18.0575 153.423 16.4844 153.423 13.5039Z" fill="#E3E687"/>
<path d="M159.633 7.29492C160.667 8.43332 163.545 10.2755 166.773 8.53681V12.2625H162.116C161.288 11.8485 159.633 10.2755 159.633 7.29492Z" fill="#E3E687"/>
<path d="M186.023 13.5039C184.988 14.6423 182.111 16.4844 178.882 14.7458V18.4715H183.539C184.367 18.0575 186.023 16.4844 186.023 13.5039Z" fill="#E3E687"/>
<path d="M179.813 7.29492C178.778 8.43332 175.901 10.2755 172.672 8.53681V12.2625H177.329C178.157 11.8485 179.813 10.2755 179.813 7.29492Z" fill="#E3E687"/>
<rect x="239.8" y="25.3906" width="27.7533" height="92.9267" fill="#B2DDA5"/>
<path d="M253.705 11.6406L267.676 25.3014H239.733L253.705 11.6406Z" fill="#B2DDA5"/>
<path d="M242.838 26.4238V111.146" stroke="black" stroke-width="0.863158" stroke-dasharray="1.67 1.67"/>
<path d="M247.184 26.4238V111.146" stroke="black" stroke-width="0.863158" stroke-dasharray="1.67 1.67"/>
<path d="M251.531 26.4238V111.146" stroke="black" stroke-width="0.863158" stroke-dasharray="1.67 1.67"/>
<path d="M255.877 26.4238V111.146" stroke="black" stroke-width="0.863158" stroke-dasharray="1.67 1.67"/>
<path d="M260.224 26.4238V111.146" stroke="black" stroke-width="0.863158" stroke-dasharray="1.67 1.67"/>
<path d="M264.571 26.4238V111.146" stroke="black" stroke-width="0.863158" stroke-dasharray="1.67 1.67"/>
<path d="M237.249 20.0898C238.284 21.2282 241.161 23.0704 244.39 21.3317V25.0574H239.733C238.905 24.6434 237.249 23.0704 237.249 20.0898Z" fill="#B2DDA5"/>
<path d="M243.459 13.8809C244.494 15.0193 247.371 16.8614 250.6 15.1228V18.8484H245.943C245.115 18.4345 243.459 16.8614 243.459 13.8809Z" fill="#B2DDA5"/>
<path d="M269.849 20.0898C268.814 21.2282 265.937 23.0704 262.708 21.3317V25.0574H267.365C268.193 24.6434 269.849 23.0704 269.849 20.0898Z" fill="#B2DDA5"/>
<path d="M263.639 13.8809C262.604 15.0193 259.727 16.8614 256.498 15.1228V18.8484H261.155C261.983 18.4345 263.639 16.8614 263.639 13.8809Z" fill="#B2DDA5"/>
<rect width="31.2516" height="79.1706" transform="matrix(-1 0 0 1 156.258 39.1113)" fill="#D3E391"/>
<rect width="31.2516" height="79.1706" transform="matrix(-1 0 0 1 93.7546 39.1113)" fill="#B2DDA5"/>
<rect width="31.2516" height="71.5313" transform="matrix(-1 0 0 1 62.5032 46.75)" fill="#A2DAAF"/>
<rect width="31.2516" height="63.1976" transform="matrix(-1 0 0 1 125.006 55.084)" fill="#C3E09B"/>
<rect width="31.2516" height="54.1694" transform="matrix(-1 0 0 1 31.2515 64.1113)" fill="#91D7B9"/>
<path d="M140.632 23.832L125.006 39.1106H156.258L140.632 23.832Z" fill="#D3E391"/>
<path d="M78.1289 23.832L62.5031 39.1106H93.7546L78.1289 23.832Z" fill="#B2DDA5"/>
<path d="M46.8262 31.5684L31.0736 47.5368H62.5789L46.8262 31.5684Z" fill="#A2DAAF"/>
<path d="M109.38 39.8047L93.7546 55.0832H125.006L109.38 39.8047Z" fill="#C3E09B"/>
<path d="M15.6257 48.834L-8.7738e-05 64.1125H31.2515L15.6257 48.834Z" fill="#91D7B9"/>
<path d="M152.786 40.5V112.379" stroke="black" stroke-width="0.863158" stroke-dasharray="1.87 1.87"/>
<path d="M147.924 40.5V112.379" stroke="black" stroke-width="0.863158" stroke-dasharray="1.87 1.87"/>
<path d="M143.062 40.5V112.379" stroke="black" stroke-width="0.863158" stroke-dasharray="1.87 1.87"/>
<path d="M138.201 40.5V112.379" stroke="black" stroke-width="0.863158" stroke-dasharray="1.87 1.87"/>
<path d="M133.34 40.5V112.379" stroke="black" stroke-width="0.863158" stroke-dasharray="1.87 1.87"/>
<path d="M128.479 40.5V112.379" stroke="black" stroke-width="0.863158" stroke-dasharray="1.87 1.87"/>
<path d="M90.2827 40.5V112.379" stroke="black" stroke-width="0.863158" stroke-dasharray="1.87 1.87"/>
<path d="M85.4211 40.5V112.379" stroke="black" stroke-width="0.863158" stroke-dasharray="1.87 1.87"/>
<path d="M80.5598 40.5V112.379" stroke="black" stroke-width="0.863158" stroke-dasharray="1.87 1.87"/>
<path d="M75.6987 40.5V112.379" stroke="black" stroke-width="0.863158" stroke-dasharray="1.87 1.87"/>
<path d="M70.8376 40.5V112.379" stroke="black" stroke-width="0.863158" stroke-dasharray="1.87 1.87"/>
<path d="M65.9763 40.5V112.379" stroke="black" stroke-width="0.863158" stroke-dasharray="1.87 1.87"/>
<path d="M59.031 48.0059V112.949" stroke="black" stroke-width="0.863158" stroke-dasharray="1.87 1.87"/>
<path d="M54.1697 48.0059V112.949" stroke="black" stroke-width="0.863158" stroke-dasharray="1.87 1.87"/>
<path d="M49.3076 48.0059V112.949" stroke="black" stroke-width="0.863158" stroke-dasharray="1.87 1.87"/>
<path d="M44.4465 48.0059V112.949" stroke="black" stroke-width="0.863158" stroke-dasharray="1.87 1.87"/>
<path d="M39.5852 48.0059V112.949" stroke="black" stroke-width="0.863158" stroke-dasharray="1.87 1.87"/>
<path d="M34.7241 48.0059V112.949" stroke="black" stroke-width="0.863158" stroke-dasharray="1.87 1.87"/>
<path d="M121.534 56.1934V113.57" stroke="black" stroke-width="0.863158" stroke-dasharray="1.87 1.87"/>
<path d="M116.673 56.1934V113.57" stroke="black" stroke-width="0.863158" stroke-dasharray="1.87 1.87"/>
<path d="M111.811 56.1934V113.57" stroke="black" stroke-width="0.863158" stroke-dasharray="1.87 1.87"/>
<path d="M106.95 56.1934V113.57" stroke="black" stroke-width="0.863158" stroke-dasharray="1.87 1.87"/>
<path d="M102.089 56.1934V113.57" stroke="black" stroke-width="0.863158" stroke-dasharray="1.87 1.87"/>
<path d="M97.2275 56.1934V113.57" stroke="black" stroke-width="0.863158" stroke-dasharray="1.87 1.87"/>
<path d="M27.7795 65.0625V114.243" stroke="black" stroke-width="0.863158" stroke-dasharray="1.87 1.87"/>
<path d="M22.9177 65.0625V114.243" stroke="black" stroke-width="0.863158" stroke-dasharray="1.87 1.87"/>
<path d="M18.0566 65.0625V114.243" stroke="black" stroke-width="0.863158" stroke-dasharray="1.87 1.87"/>
<path d="M13.1953 65.0625V114.243" stroke="black" stroke-width="0.863158" stroke-dasharray="1.87 1.87"/>
<path d="M8.33423 65.0625V114.243" stroke="black" stroke-width="0.863158" stroke-dasharray="1.87 1.87"/>
<path d="M3.47314 65.0625V114.243" stroke="black" stroke-width="0.863158" stroke-dasharray="1.87 1.87"/>
<path d="M159.035 33.5547C157.878 34.8279 154.66 36.8882 151.049 34.9436V39.1105H156.257C157.183 38.6475 159.035 36.8882 159.035 33.5547Z" fill="#D3E391"/>
<path d="M152.09 26.6094C150.933 27.8826 147.715 29.9429 144.104 27.9983V32.1652H149.312C150.238 31.7022 152.09 29.9429 152.09 26.6094Z" fill="#D3E391"/>
<path d="M122.574 33.5547C123.732 34.8279 126.949 36.8882 130.561 34.9436V39.1105H125.352C124.426 38.6475 122.574 36.8882 122.574 33.5547Z" fill="#D3E391"/>
<path d="M129.52 26.6094C130.677 27.8826 133.895 29.9429 137.507 27.9983V32.1652H132.298C131.372 31.7022 129.52 29.9429 129.52 26.6094Z" fill="#D3E391"/>
<path d="M65.2808 41.8887C64.1233 43.1619 60.9055 45.2222 57.2943 43.2776V47.4445H62.5028C63.4288 46.9815 65.2808 45.2222 65.2808 41.8887Z" fill="#A2DAAF"/>
<path d="M58.3359 34.9434C57.1785 36.2166 53.9607 38.2769 50.3494 36.3323V40.4992H55.558C56.484 40.0362 58.3359 38.2769 58.3359 34.9434Z" fill="#A2DAAF"/>
<path d="M28.8198 41.8887C29.9773 43.1619 33.195 45.2222 36.8063 43.2776V47.4445H31.5977C30.6718 46.9815 28.8198 45.2222 28.8198 41.8887Z" fill="#A2DAAF"/>
<path d="M35.7656 34.9434C36.9231 36.2166 40.1408 38.2769 43.7521 36.3323V40.4992H38.5435C37.6176 40.0362 35.7656 38.2769 35.7656 34.9434Z" fill="#A2DAAF"/>
</g>
<rect y="119" width="328" height="57" fill="#F4E97D"/>
<mask id="mask1" mask-type="alpha" maskUnits="userSpaceOnUse" x="-23" y="119" width="326" height="58">
<rect x="-23" y="119" width="325.286" height="57.1195" fill="#89CDD3"/>
</mask>
<g mask="url(#mask1)">
<path d="M-3.82626 143.807H-4.89893V145.013L-3.82626 143.807Z" fill="#ACDEB6"/>
<path d="M0.464411 146.891L1.00074 146.086L1.403 146.891H0.464411Z" fill="#ACDEB6"/>
<path d="M118.726 143.004H117.653V144.211L118.726 143.004Z" fill="#ACDEB6"/>
<path d="M123.017 146.088L123.553 145.283L123.955 146.088H123.017Z" fill="#ACDEB6"/>
<path d="M55.6624 148.061L56.7346 148.092L56.7687 146.886L55.6624 148.061Z" fill="#ACDEB6"/>
<path d="M51.4606 144.858L50.9017 145.647L50.5224 144.831L51.4606 144.858Z" fill="#ACDEB6"/>
<path d="M178.215 147.259L179.287 147.289L179.321 146.083L178.215 147.259Z" fill="#ACDEB6"/>
<path d="M174.013 144.055L173.454 144.844L173.075 144.028L174.013 144.055Z" fill="#ACDEB6"/>
<path d="M255.262 140.16L254.19 140.129L254.155 141.335L255.262 140.16Z" fill="#ACDEB6"/>
<path d="M259.461 143.368L260.021 142.579L260.4 143.395L259.461 143.368Z" fill="#ACDEB6"/>
<path d="M112.709 147.763L113.781 147.793L113.815 146.587L112.709 147.763Z" fill="#ACDEB6"/>
<path d="M108.507 144.559L107.948 145.348L107.569 144.532L108.507 144.559Z" fill="#ACDEB6"/>
<path d="M96.5141 150.875L97.2549 151.65L98.1276 150.817L96.5141 150.875Z" fill="#ACDEB6"/>
<path d="M95.781 145.642L94.8288 145.81L95.1328 144.963L95.781 145.642Z" fill="#ACDEB6"/>
<path d="M5.02102 136.981L6.09326 137.012L6.12737 135.805L5.02102 136.981Z" fill="#ACDEB6"/>
<path d="M0.819245 133.777L0.260383 134.566L-0.118964 133.751L0.819245 133.777Z" fill="#ACDEB6"/>
<path d="M127.573 136.179L128.646 136.209L128.68 135.003L127.573 136.179Z" fill="#ACDEB6"/>
<path d="M123.371 132.975L122.813 133.764L122.433 132.948L123.371 132.975Z" fill="#ACDEB6"/>
<path d="M71.4197 142.2L71.9924 143.107L73.0128 142.463L71.4197 142.2Z" fill="#ACDEB6"/>
<path d="M71.7362 136.926L70.7696 136.902L71.235 136.132L71.7362 136.926Z" fill="#ACDEB6"/>
<path d="M193.972 141.398L194.545 142.305L195.565 141.66L193.972 141.398Z" fill="#ACDEB6"/>
<path d="M194.288 136.123L193.322 136.099L193.787 135.33L194.288 136.123Z" fill="#ACDEB6"/>
<path d="M239.5 146.007L238.928 145.1L237.907 145.743L239.5 146.007Z" fill="#ACDEB6"/>
<path d="M239.179 151.281L240.145 151.306L239.679 152.075L239.179 151.281Z" fill="#ACDEB6"/>
<path d="M84.8918 141.217L83.8267 141.09L83.6838 142.288L84.8918 141.217Z" fill="#ACDEB6"/>
<path d="M88.7871 144.787L89.4149 144.052L89.7191 144.898L88.7871 144.787Z" fill="#ACDEB6"/>
<path d="M207.444 140.414L206.379 140.287L206.236 141.485L207.444 140.414Z" fill="#ACDEB6"/>
<path d="M211.339 143.984L211.967 143.249L212.271 144.096L211.339 143.984Z" fill="#ACDEB6"/>
<path d="M226.027 146.976L227.092 147.104L227.236 145.905L226.027 146.976Z" fill="#ACDEB6"/>
<path d="M222.135 143.402L221.507 144.137L221.203 143.29L222.135 143.402Z" fill="#ACDEB6"/>
<path d="M37.9631 133.879L36.8979 133.752L36.7551 134.95L37.9631 133.879Z" fill="#ACDEB6"/>
<path d="M41.8584 137.449L42.4862 136.714L42.7904 137.56L41.8584 137.449Z" fill="#ACDEB6"/>
<path d="M160.516 133.072L159.45 132.945L159.308 134.144L160.516 133.072Z" fill="#ACDEB6"/>
<path d="M164.411 136.643L165.039 135.907L165.343 136.754L164.411 136.643Z" fill="#ACDEB6"/>
<path d="M272.949 154.358L274.014 154.486L274.158 153.288L272.949 154.358Z" fill="#ACDEB6"/>
<path d="M269.057 150.785L268.429 151.519L268.125 150.673L269.057 150.785Z" fill="#ACDEB6"/>
<path d="M15.4005 144.461L15.1067 143.43L13.9461 143.76L15.4005 144.461Z" fill="#ACDEB6"/>
<path d="M13.6098 149.433L14.5304 149.728L13.8669 150.335L13.6098 149.433Z" fill="#ACDEB6"/>
<path d="M137.953 143.657L137.659 142.625L136.498 142.956L137.953 143.657Z" fill="#ACDEB6"/>
<path d="M136.162 148.628L137.083 148.923L136.419 149.531L136.162 148.628Z" fill="#ACDEB6"/>
<path d="M36.4623 146.869L36.7268 147.908L37.8963 147.611L36.4623 146.869Z" fill="#ACDEB6"/>
<path d="M38.3928 141.95L37.4809 141.629L38.1613 141.04L38.3928 141.95Z" fill="#ACDEB6"/>
<path d="M159.015 146.062L159.279 147.102L160.449 146.804L159.015 146.062Z" fill="#ACDEB6"/>
<path d="M160.945 141.143L160.033 140.822L160.714 140.234L160.945 141.143Z" fill="#ACDEB6"/>
<path d="M274.462 141.372L274.198 140.332L273.028 140.629L274.462 141.372Z" fill="#ACDEB6"/>
<path d="M272.527 146.289L273.439 146.611L272.758 147.199L272.527 146.289Z" fill="#ACDEB6"/>
<path d="M27.0958 151.916L27.3604 152.955L28.5298 152.657L27.0958 151.916Z" fill="#ACDEB6"/>
<path d="M29.0264 146.997L28.1144 146.675L28.7949 146.087L29.0264 146.997Z" fill="#ACDEB6"/>
<path d="M149.648 151.113L149.913 152.152L151.082 151.855L149.648 151.113Z" fill="#ACDEB6"/>
<path d="M151.579 146.194L150.667 145.873L151.347 145.285L151.579 146.194Z" fill="#ACDEB6"/>
<path d="M23.0731 141.992L23.3376 143.031L24.5071 142.734L23.0731 141.992Z" fill="#ACDEB6"/>
<path d="M25.0037 137.073L24.0917 136.752L24.7722 136.163L25.0037 137.073Z" fill="#ACDEB6"/>
<path d="M145.626 141.189L145.89 142.229L147.06 141.931L145.626 141.189Z" fill="#ACDEB6"/>
<path d="M147.556 136.27L146.644 135.949L147.325 135.361L147.556 136.27Z" fill="#ACDEB6"/>
<path d="M110.279 140.858V139.785L111.217 140.187L110.279 140.858Z" fill="#ACDEB6"/>
<path d="M64.0459 150.447L64.0156 151.52L63.0888 151.091L64.0459 150.447Z" fill="#ACDEB6"/>
<path d="M186.598 149.645L186.568 150.717L185.641 150.288L186.598 149.645Z" fill="#ACDEB6"/>
<path d="M246.881 137.766L246.913 136.693L247.839 137.123L246.881 137.766Z" fill="#ACDEB6"/>
<path d="M121.092 150.147L121.062 151.219L120.135 150.79L121.092 150.147Z" fill="#ACDEB6"/>
<path d="M103.739 135.924L103.708 136.996L102.781 136.567L103.739 135.924Z" fill="#ACDEB6"/>
<path d="M74.1159 150.49L73.209 151.062L73.0479 150.054L74.1159 150.49Z" fill="#ACDEB6"/>
<path d="M196.668 149.685L195.761 150.258L195.6 149.249L196.668 149.685Z" fill="#ACDEB6"/>
<path d="M236.811 137.716L237.719 137.145L237.879 138.153L236.811 137.716Z" fill="#ACDEB6"/>
<path d="M233.636 142.638L234.543 142.066L234.703 143.075L233.636 142.638Z" fill="#ACDEB6"/>
<path d="M50.5447 139.908L49.6377 140.48L49.4767 139.472L50.5447 139.908Z" fill="#ACDEB6"/>
<path d="M173.097 139.105L172.19 139.678L172.029 138.669L173.097 139.105Z" fill="#ACDEB6"/>
<path d="M260.373 148.318L261.28 147.746L261.44 148.755L260.373 148.318Z" fill="#ACDEB6"/>
<path d="M76.7577 138.087L76.8848 137.021L77.7691 137.532L76.7577 138.087Z" fill="#ACDEB6"/>
<path d="M199.31 137.284L199.437 136.219L200.321 136.729L199.31 137.284Z" fill="#ACDEB6"/>
<path d="M234.158 150.115L234.03 151.18L233.146 150.668L234.158 150.115Z" fill="#ACDEB6"/>
<path d="M206.538 154.244L206.41 155.309L205.526 154.797L206.538 154.244Z" fill="#ACDEB6"/>
<path d="M277.869 145.236L277.741 146.301L276.857 145.789L277.869 145.236Z" fill="#ACDEB6"/>
<path d="M15.1498 135.749L16.1814 135.455L16.0516 136.468L15.1498 135.749Z" fill="#ACDEB6"/>
<path d="M137.702 134.946L138.734 134.652L138.604 135.665L137.702 134.946Z" fill="#ACDEB6"/>
<path d="M36.4663 155.581L35.4268 155.846L35.5851 154.837L36.4663 155.581Z" fill="#ACDEB6"/>
<path d="M159.019 154.778L157.979 155.043L158.137 154.034L159.019 154.778Z" fill="#ACDEB6"/>
<path d="M274.466 132.656L275.505 132.393L275.346 133.401L274.466 132.656Z" fill="#ACDEB6"/>
<path d="M8.30541 154.775L7.26587 155.039L7.42423 154.03L8.30541 154.775Z" fill="#ACDEB6"/>
<path d="M130.858 153.968L129.818 154.232L129.976 153.224L130.858 153.968Z" fill="#ACDEB6"/>
<path d="M112.022 135.094L110.681 136.166L112.022 136.971V135.094Z" fill="#ACDEB6"/>
<path d="M62.1404 156.161L63.511 155.127L62.1935 154.285L62.1404 156.161Z" fill="#ACDEB6"/>
<path d="M184.693 155.357L186.063 154.322L184.746 153.48L184.693 155.357Z" fill="#ACDEB6"/>
<path d="M248.792 132.057L247.42 133.09L248.737 133.933L248.792 132.057Z" fill="#ACDEB6"/>
<path d="M48.3323 155.741L49.7029 154.707L48.3854 153.865L48.3323 155.741Z" fill="#ACDEB6"/>
<path d="M170.885 154.935L172.255 153.9L170.938 153.058L170.885 154.935Z" fill="#ACDEB6"/>
<path d="M262.6 132.486L261.228 133.519L262.545 134.363L262.6 132.486Z" fill="#ACDEB6"/>
<path d="M56.9136 136.163L58.2842 135.129L56.9667 134.287L56.9136 136.163Z" fill="#ACDEB6"/>
<path d="M179.466 135.361L180.836 134.326L179.519 133.484L179.466 135.361Z" fill="#ACDEB6"/>
<path d="M254.001 152.057L252.629 153.09L253.946 153.933L254.001 152.057Z" fill="#ACDEB6"/>
<path d="M119.187 155.859L120.557 154.824L119.24 153.982L119.187 155.859Z" fill="#ACDEB6"/>
<path d="M68.3107 152.095L69.9336 152.656L69.8979 151.093L68.3107 152.095Z" fill="#ACDEB6"/>
<path d="M190.863 151.288L192.486 151.849L192.45 150.286L190.863 151.288Z" fill="#ACDEB6"/>
<path d="M242.618 136.117L240.995 135.554L241.03 137.118L242.618 136.117Z" fill="#ACDEB6"/>
<path d="M216.899 153.39L215.276 152.828L215.311 154.391L216.899 153.39Z" fill="#ACDEB6"/>
<path d="M216.63 134.429L215.008 133.867L215.042 135.43L216.63 134.429Z" fill="#ACDEB6"/>
<path d="M56.3773 152.72L58.0002 153.281L57.9645 151.718L56.3773 152.72Z" fill="#ACDEB6"/>
<path d="M178.93 151.917L180.552 152.478L180.517 150.915L178.93 151.917Z" fill="#ACDEB6"/>
<path d="M254.552 135.5L252.93 134.937L252.964 136.5L254.552 135.5Z" fill="#ACDEB6"/>
<path d="M228.565 133.814L226.942 133.252L226.977 134.815L228.565 133.814Z" fill="#ACDEB6"/>
<path d="M52.0866 134.216L53.7094 134.777L53.6737 133.214L52.0866 134.216Z" fill="#ACDEB6"/>
<path d="M174.639 133.413L176.262 133.974L176.226 132.411L174.639 133.413Z" fill="#ACDEB6"/>
<path d="M258.826 154.007L257.204 153.445L257.238 155.008L258.826 154.007Z" fill="#ACDEB6"/>
<path d="M79.1715 132.571L77.7131 133.477L78.9492 134.435L79.1715 132.571Z" fill="#ACDEB6"/>
<path d="M201.724 131.764L200.265 132.671L201.501 133.628L201.724 131.764Z" fill="#ACDEB6"/>
<path d="M231.74 155.633L233.199 154.728L231.963 153.769L231.74 155.633Z" fill="#ACDEB6"/>
<path d="M275.451 150.752L276.91 149.847L275.675 148.888L275.451 150.752Z" fill="#ACDEB6"/>
<path d="M21.1724 135.846L19.7735 134.85L19.3671 136.36L21.1724 135.846Z" fill="#ACDEB6"/>
<path d="M143.725 135.042L142.326 134.046L141.92 135.556L143.725 135.042Z" fill="#ACDEB6"/>
<path d="M30.4486 155.316L31.8188 156.351L32.2678 154.853L30.4486 155.316Z" fill="#ACDEB6"/>
<path d="M153.001 154.511L154.371 155.546L154.82 154.048L153.001 154.511Z" fill="#ACDEB6"/>
<path d="M280.483 132.927L279.113 131.891L278.663 133.388L280.483 132.927Z" fill="#ACDEB6"/>
<path d="M-0.339932 138.311L-1.14443 138.713L-0.339932 139.785V138.311Z" fill="#E7E88C"/>
<path d="M-5.30102 149.439L-5.97144 150.244L-5.30102 150.78V149.439Z" fill="#E7E88C"/>
<path d="M8.10732 138.713L6.90057 139.785L7.83916 140.724L8.10732 138.713Z" fill="#E7E88C"/>
<path d="M3.95074 143.406L3.4144 142.735L3.14624 143.808L3.95074 143.406Z" fill="#E7E88C"/>
<path d="M122.212 137.508L121.408 137.91L122.212 138.983V137.508Z" fill="#E7E88C"/>
<path d="M117.251 148.637L116.581 149.441L117.251 149.978V148.637Z" fill="#E7E88C"/>
<path d="M130.66 137.91L129.453 138.983L130.391 139.921L130.66 137.91Z" fill="#E7E88C"/>
<path d="M126.503 142.603L125.967 141.933L125.698 143.005L126.503 142.603Z" fill="#E7E88C"/>
<path d="M52.0224 153.46L52.8379 153.081L52.0641 151.986L52.0224 153.46Z" fill="#E7E88C"/>
<path d="M57.2961 142.476L57.9889 141.69L57.334 141.135L57.2961 142.476Z" fill="#E7E88C"/>
<path d="M43.5898 152.819L44.8264 151.781L43.9148 150.816L43.5898 152.819Z" fill="#E7E88C"/>
<path d="M47.8774 148.246L48.3946 148.931L48.693 147.866L47.8774 148.246Z" fill="#E7E88C"/>
<path d="M174.575 152.657L175.39 152.278L174.616 151.183L174.575 152.657Z" fill="#E7E88C"/>
<path d="M179.848 141.673L180.541 140.888L179.886 140.333L179.848 141.673Z" fill="#E7E88C"/>
<path d="M166.142 152.016L167.379 150.978L166.467 150.013L166.142 152.016Z" fill="#E7E88C"/>
<path d="M170.43 147.443L170.947 148.128L171.245 147.063L170.43 147.443Z" fill="#E7E88C"/>
<path d="M258.907 134.766L258.091 135.144L258.864 136.24L258.907 134.766Z" fill="#E7E88C"/>
<path d="M253.624 145.745L252.93 146.53L253.585 147.086L253.624 145.745Z" fill="#E7E88C"/>
<path d="M267.339 135.414L266.102 136.451L267.012 137.417L267.339 135.414Z" fill="#E7E88C"/>
<path d="M263.047 139.984L262.531 139.298L262.232 140.362L263.047 139.984Z" fill="#E7E88C"/>
<path d="M109.069 153.159L109.884 152.78L109.11 151.685L109.069 153.159Z" fill="#E7E88C"/>
<path d="M114.342 142.175L115.035 141.39L114.38 140.835L114.342 142.175Z" fill="#E7E88C"/>
<path d="M100.636 152.518L101.873 151.48L100.961 150.515L100.636 152.518Z" fill="#E7E88C"/>
<path d="M104.924 147.945L105.441 148.63L105.739 147.565L104.924 147.945Z" fill="#E7E88C"/>
<path d="M94.5875 155.306L95.4031 154.926L94.6292 153.831L94.5875 155.306Z" fill="#E7E88C"/>
<path d="M99.8612 144.321L100.554 143.536L99.8991 142.981L99.8612 144.321Z" fill="#E7E88C"/>
<path d="M86.155 154.665L87.3916 153.627L86.4799 152.662L86.155 154.665Z" fill="#E7E88C"/>
<path d="M90.4426 150.091L90.9598 150.777L91.2582 149.712L90.4426 150.091Z" fill="#E7E88C"/>
<path d="M64.9103 142.19L65.68 142.655L66.1574 141.402L64.9103 142.19Z" fill="#E7E88C"/>
<path d="M76.969 140.442L78.0072 140.579L78.1027 139.726L76.969 140.442Z" fill="#E7E88C"/>
<path d="M60.74 134.833L62.2913 135.28L62.5838 133.985L60.74 134.833Z" fill="#E7E88C"/>
<path d="M66.9274 135.841L66.6469 136.653L67.697 136.307L66.9274 135.841Z" fill="#E7E88C"/>
<path d="M187.463 141.383L188.232 141.848L188.71 140.595L187.463 141.383Z" fill="#E7E88C"/>
<path d="M199.521 139.635L200.559 139.773L200.655 138.919L199.521 139.635Z" fill="#E7E88C"/>
<path d="M183.292 134.026L184.844 134.473L185.136 133.179L183.292 134.026Z" fill="#E7E88C"/>
<path d="M189.48 135.035L189.199 135.846L190.249 135.5L189.48 135.035Z" fill="#E7E88C"/>
<path d="M246.01 146.024L245.24 145.558L244.762 146.81L246.01 146.024Z" fill="#E7E88C"/>
<path d="M233.949 147.761L232.911 147.623L232.815 148.476L233.949 147.761Z" fill="#E7E88C"/>
<path d="M250.173 153.385L248.622 152.936L248.329 154.23L250.173 153.385Z" fill="#E7E88C"/>
<path d="M243.987 152.371L244.268 151.559L243.218 151.904L243.987 152.371Z" fill="#E7E88C"/>
<path d="M64.6418 155.328L65.4114 155.794L65.8888 154.541L64.6418 155.328Z" fill="#E7E88C"/>
<path d="M76.7004 153.581L77.7386 153.718L77.8341 152.865L76.7004 153.581Z" fill="#E7E88C"/>
<path d="M60.4715 147.971L62.0228 148.419L62.3152 147.124L60.4715 147.971Z" fill="#E7E88C"/>
<path d="M66.6588 148.98L66.3783 149.791L67.4285 149.445L66.6588 148.98Z" fill="#E7E88C"/>
<path d="M187.194 154.526L187.964 154.991L188.441 153.738L187.194 154.526Z" fill="#E7E88C"/>
<path d="M199.253 152.778L200.291 152.915L200.386 152.062L199.253 152.778Z" fill="#E7E88C"/>
<path d="M183.024 147.168L184.575 147.616L184.867 146.321L183.024 147.168Z" fill="#E7E88C"/>
<path d="M189.211 148.177L188.931 148.989L189.981 148.643L189.211 148.177Z" fill="#E7E88C"/>
<path d="M246.29 132.885L245.52 132.419L245.042 133.672L246.29 132.885Z" fill="#E7E88C"/>
<path d="M234.229 134.622L233.191 134.484L233.095 135.337L234.229 134.622Z" fill="#E7E88C"/>
<path d="M250.453 140.246L248.902 139.797L248.609 141.092L250.453 140.246Z" fill="#E7E88C"/>
<path d="M244.267 139.232L244.548 138.421L243.498 138.766L244.267 139.232Z" fill="#E7E88C"/>
<path d="M43.9931 141.115L44.7627 141.581L45.2401 140.328L43.9931 141.115Z" fill="#E7E88C"/>
<path d="M56.0517 139.368L57.0899 139.505L57.1854 138.652L56.0517 139.368Z" fill="#E7E88C"/>
<path d="M39.8228 133.758L41.3741 134.206L41.6665 132.911L39.8228 133.758Z" fill="#E7E88C"/>
<path d="M46.0101 134.767L45.7297 135.578L46.7798 135.232L46.0101 134.767Z" fill="#E7E88C"/>
<path d="M166.545 140.313L167.315 140.778L167.792 139.525L166.545 140.313Z" fill="#E7E88C"/>
<path d="M178.604 138.565L179.642 138.702L179.738 137.849L178.604 138.565Z" fill="#E7E88C"/>
<path d="M162.375 132.956L163.926 133.403L164.219 132.108L162.375 132.956Z" fill="#E7E88C"/>
<path d="M168.562 133.964L168.282 134.776L169.332 134.43L168.562 133.964Z" fill="#E7E88C"/>
<path d="M266.926 147.116L266.156 146.65L265.678 147.902L266.926 147.116Z" fill="#E7E88C"/>
<path d="M254.865 148.853L253.827 148.714L253.731 149.568L254.865 148.853Z" fill="#E7E88C"/>
<path d="M271.089 154.477L269.538 154.028L269.245 155.322L271.089 154.477Z" fill="#E7E88C"/>
<path d="M264.903 153.462L265.184 152.651L264.134 152.996L264.903 153.462Z" fill="#E7E88C"/>
<path d="M6.18155 156.403L6.95122 156.868L7.42862 155.615L6.18155 156.403Z" fill="#E7E88C"/>
<path d="M18.2402 154.655L19.2784 154.792L19.3739 153.939L18.2402 154.655Z" fill="#E7E88C"/>
<path d="M2.01127 149.045L3.56257 149.493L3.85501 148.198L2.01127 149.045Z" fill="#E7E88C"/>
<path d="M8.19862 150.054L7.91814 150.866L8.96829 150.52L8.19862 150.054Z" fill="#E7E88C"/>
<path d="M128.734 155.598L129.503 156.063L129.981 154.81L128.734 155.598Z" fill="#E7E88C"/>
<path d="M140.792 153.85L141.831 153.988L141.926 153.134L140.792 153.85Z" fill="#E7E88C"/>
<path d="M124.564 148.241L126.115 148.688L126.407 147.394L124.564 148.241Z" fill="#E7E88C"/>
<path d="M130.751 149.249L130.47 150.061L131.521 149.715L130.751 149.249Z" fill="#E7E88C"/>
<path d="M104.063 140.043L104.832 140.509L105.31 139.256L104.063 140.043Z" fill="#E7E88C"/>
<path d="M116.121 138.296L117.16 138.433L117.255 137.58L116.121 138.296Z" fill="#E7E88C"/>
<path d="M99.8924 132.686L101.444 133.134L101.736 131.839L99.8924 132.686Z" fill="#E7E88C"/>
<path d="M106.08 133.695L105.799 134.506L106.849 134.16L106.08 133.695Z" fill="#E7E88C"/>
<path d="M89.0042 136.173L88.1578 136.477L88.8296 137.637L89.0042 136.173Z" fill="#E7E88C"/>
<path d="M82.7602 146.636L81.9993 147.355L82.6015 147.967L82.7602 146.636Z" fill="#E7E88C"/>
<path d="M97.3444 137.572L96.0192 138.495L96.84 139.538L97.3444 137.572Z" fill="#E7E88C"/>
<path d="M92.6614 141.74L92.2082 141.011L91.8149 142.044L92.6614 141.74Z" fill="#E7E88C"/>
<path d="M211.557 135.37L210.71 135.674L211.382 136.835L211.557 135.37Z" fill="#E7E88C"/>
<path d="M205.313 145.833L204.552 146.553L205.154 147.165L205.313 145.833Z" fill="#E7E88C"/>
<path d="M219.897 136.77L218.572 137.692L219.393 138.735L219.897 136.77Z" fill="#E7E88C"/>
<path d="M215.214 140.937L214.761 140.208L214.368 141.242L215.214 140.937Z" fill="#E7E88C"/>
<path d="M221.91 152.02L222.757 151.716L222.086 150.555L221.91 152.02Z" fill="#E7E88C"/>
<path d="M228.163 141.562L228.925 140.843L228.323 140.231L228.163 141.562Z" fill="#E7E88C"/>
<path d="M213.571 150.612L214.897 149.691L214.077 148.648L213.571 150.612Z" fill="#E7E88C"/>
<path d="M218.258 146.449L218.71 147.179L219.104 146.146L218.258 146.449Z" fill="#E7E88C"/>
<path d="M287.004 131.892L286.105 131.907L286.367 133.222L287.004 131.892Z" fill="#E7E88C"/>
<path d="M277.726 139.789L276.774 140.226L277.147 140.999L277.726 139.789Z" fill="#E7E88C"/>
<path d="M294.45 135.9L292.899 136.347L293.34 137.599L294.45 135.9Z" fill="#E7E88C"/>
<path d="M288.675 138.34L288.481 137.503L287.776 138.355L288.675 138.34Z" fill="#E7E88C"/>
<path d="M21.6424 146.307L21.0351 145.643L20.2239 146.711L21.6424 146.307Z" fill="#E7E88C"/>
<path d="M9.58018 144.584L8.62281 144.159L8.29062 144.951L9.58018 144.584Z" fill="#E7E88C"/>
<path d="M23.5693 154.541L22.2071 153.674L21.5615 154.834L23.5693 154.541Z" fill="#E7E88C"/>
<path d="M17.9173 151.829L18.4152 151.129L17.3101 151.165L17.9173 151.829Z" fill="#E7E88C"/>
<path d="M144.195 145.504L143.588 144.84L142.777 145.908L144.195 145.504Z" fill="#E7E88C"/>
<path d="M132.133 143.781L131.176 143.357L130.843 144.148L132.133 143.781Z" fill="#E7E88C"/>
<path d="M146.122 153.738L144.76 152.872L144.114 154.031L146.122 153.738Z" fill="#E7E88C"/>
<path d="M140.47 151.026L140.968 150.327L139.863 150.363L140.47 151.026Z" fill="#E7E88C"/>
<path d="M30.2748 144.845L30.863 145.526L31.7041 144.481L30.2748 144.845Z" fill="#E7E88C"/>
<path d="M42.2834 146.908L43.2284 147.36L43.5829 146.578L42.2834 146.908Z" fill="#E7E88C"/>
<path d="M28.5814 136.56L29.9185 137.465L30.5967 136.323L28.5814 136.56Z" fill="#E7E88C"/>
<path d="M34.1544 139.43L33.637 140.116L34.7427 140.111L34.1544 139.43Z" fill="#E7E88C"/>
<path d="M152.827 144.042L153.415 144.723L154.256 143.679L152.827 144.042Z" fill="#E7E88C"/>
<path d="M164.836 146.106L165.781 146.557L166.135 145.775L164.836 146.106Z" fill="#E7E88C"/>
<path d="M151.134 135.757L152.471 136.662L153.149 135.521L151.134 135.757Z" fill="#E7E88C"/>
<path d="M156.707 138.628L156.189 139.313L157.295 139.308L156.707 138.628Z" fill="#E7E88C"/>
<path d="M280.648 143.398L280.06 142.717L279.218 143.761L280.648 143.398Z" fill="#E7E88C"/>
<path d="M268.641 141.324L267.696 140.872L267.341 141.654L268.641 141.324Z" fill="#E7E88C"/>
<path d="M282.334 151.685L280.997 150.779L280.318 151.92L282.334 151.685Z" fill="#E7E88C"/>
<path d="M276.763 148.809L277.281 148.125L276.175 148.129L276.763 148.809Z" fill="#E7E88C"/>
<path d="M25.5939 134.232L24.8657 133.704L24.2854 134.913L25.5939 134.232Z" fill="#E7E88C"/>
<path d="M13.4314 134.968L12.4083 134.744L12.242 135.587L13.4314 134.968Z" fill="#E7E88C"/>
<path d="M29.1359 141.911L27.6273 141.336L27.2279 142.602L29.1359 141.911Z" fill="#E7E88C"/>
<path d="M23.0542 140.39L23.4014 139.605L22.3261 139.862L23.0542 140.39Z" fill="#E7E88C"/>
<path d="M148.146 133.425L147.418 132.897L146.838 134.106L148.146 133.425Z" fill="#E7E88C"/>
<path d="M135.984 134.161L134.961 133.938L134.794 134.78L135.984 134.161Z" fill="#E7E88C"/>
<path d="M151.688 141.105L150.18 140.529L149.78 141.795L151.688 141.105Z" fill="#E7E88C"/>
<path d="M145.606 139.583L145.954 138.798L144.878 139.055L145.606 139.583Z" fill="#E7E88C"/>
<path d="M116.313 118.33H115.24V119.537L116.313 118.33Z" fill="#ACDEB6"/>
<path d="M120.604 121.414L121.14 120.609L121.542 121.414H120.604Z" fill="#ACDEB6"/>
<path d="M53.2493 123.388L54.3215 123.418L54.3556 122.212L53.2493 123.388Z" fill="#ACDEB6"/>
<path d="M49.0475 120.184L48.4887 120.973L48.1093 120.157L49.0475 120.184Z" fill="#ACDEB6"/>
<path d="M175.802 122.585L176.874 122.615L176.908 121.409L175.802 122.585Z" fill="#ACDEB6"/>
<path d="M171.6 119.381L171.041 120.17L170.662 119.354L171.6 119.381Z" fill="#ACDEB6"/>
<path d="M110.296 123.089L111.368 123.119L111.402 121.913L110.296 123.089Z" fill="#ACDEB6"/>
<path d="M106.094 119.885L105.535 120.674L105.156 119.858L106.094 119.885Z" fill="#ACDEB6"/>
<path d="M94.101 126.201L94.8418 126.977L95.7145 126.143L94.101 126.201Z" fill="#ACDEB6"/>
<path d="M93.3679 120.968L92.4157 121.136L92.7197 120.289L93.3679 120.968Z" fill="#ACDEB6"/>
<path d="M237.087 121.333L236.515 120.426L235.494 121.069L237.087 121.333Z" fill="#ACDEB6"/>
<path d="M236.766 126.607L237.732 126.632L237.266 127.401L236.766 126.607Z" fill="#ACDEB6"/>
<path d="M82.4787 116.543L81.4136 116.416L81.2707 117.614L82.4787 116.543Z" fill="#ACDEB6"/>
<path d="M86.374 120.113L87.0018 119.378L87.306 120.224L86.374 120.113Z" fill="#ACDEB6"/>
<path d="M205.031 115.74L203.966 115.613L203.823 116.812L205.031 115.74Z" fill="#ACDEB6"/>
<path d="M208.926 119.311L209.554 118.575L209.858 119.422L208.926 119.311Z" fill="#ACDEB6"/>
<path d="M223.614 122.302L224.679 122.43L224.823 121.232L223.614 122.302Z" fill="#ACDEB6"/>
<path d="M219.722 118.728L219.093 119.463L218.79 118.616L219.722 118.728Z" fill="#ACDEB6"/>
<path d="M270.536 129.685L271.601 129.812L271.745 128.614L270.536 129.685Z" fill="#ACDEB6"/>
<path d="M266.644 126.111L266.015 126.846L265.712 125.999L266.644 126.111Z" fill="#ACDEB6"/>
<path d="M12.9874 119.788L12.6936 118.756L11.533 119.086L12.9874 119.788Z" fill="#ACDEB6"/>
<path d="M11.1967 124.759L12.1173 125.054L11.4538 125.661L11.1967 124.759Z" fill="#ACDEB6"/>
<path d="M135.54 118.983L135.246 117.951L134.085 118.282L135.54 118.983Z" fill="#ACDEB6"/>
<path d="M133.749 123.954L134.67 124.25L134.006 124.857L133.749 123.954Z" fill="#ACDEB6"/>
<path d="M34.0492 122.195L34.3137 123.234L35.4832 122.937L34.0492 122.195Z" fill="#ACDEB6"/>
<path d="M35.9797 117.276L35.0678 116.955L35.7483 116.367L35.9797 117.276Z" fill="#ACDEB6"/>
<path d="M156.601 121.388L156.866 122.428L158.035 122.13L156.601 121.388Z" fill="#ACDEB6"/>
<path d="M158.532 116.47L157.62 116.148L158.3 115.56L158.532 116.47Z" fill="#ACDEB6"/>
<path d="M272.049 116.698L271.785 115.658L270.615 115.955L272.049 116.698Z" fill="#ACDEB6"/>
<path d="M270.114 121.615L271.025 121.937L270.344 122.525L270.114 121.615Z" fill="#ACDEB6"/>
<path d="M24.6827 127.242L24.9473 128.281L26.1167 127.984L24.6827 127.242Z" fill="#ACDEB6"/>
<path d="M26.6133 122.323L25.7014 122.002L26.3818 121.413L26.6133 122.323Z" fill="#ACDEB6"/>
<path d="M147.235 126.439L147.5 127.479L148.669 127.181L147.235 126.439Z" fill="#ACDEB6"/>
<path d="M149.166 121.52L148.254 121.199L148.934 120.611L149.166 121.52Z" fill="#ACDEB6"/>
<path d="M61.6329 125.773L61.6025 126.846L60.6757 126.417L61.6329 125.773Z" fill="#ACDEB6"/>
<path d="M184.185 124.971L184.155 126.043L183.228 125.614L184.185 124.971Z" fill="#ACDEB6"/>
<path d="M118.679 125.473L118.649 126.545L117.722 126.116L118.679 125.473Z" fill="#ACDEB6"/>
<path d="M71.7029 125.816L70.7959 126.389L70.6349 125.38L71.7029 125.816Z" fill="#ACDEB6"/>
<path d="M194.255 125.011L193.348 125.584L193.187 124.576L194.255 125.011Z" fill="#ACDEB6"/>
<path d="M257.96 123.644L258.867 123.072L259.027 124.081L257.96 123.644Z" fill="#ACDEB6"/>
<path d="M231.745 125.441L231.617 126.506L230.733 125.995L231.745 125.441Z" fill="#ACDEB6"/>
<path d="M204.125 129.57L203.997 130.635L203.113 130.123L204.125 129.57Z" fill="#ACDEB6"/>
<path d="M275.456 120.562L275.328 121.627L274.444 121.116L275.456 120.562Z" fill="#ACDEB6"/>
<path d="M34.0532 130.907L33.0137 131.172L33.172 130.163L34.0532 130.907Z" fill="#ACDEB6"/>
<path d="M156.605 130.105L155.566 130.369L155.724 129.36L156.605 130.105Z" fill="#ACDEB6"/>
<path d="M5.89232 130.101L4.85278 130.365L5.01114 129.356L5.89232 130.101Z" fill="#ACDEB6"/>
<path d="M128.445 129.294L127.405 129.559L127.563 128.55L128.445 129.294Z" fill="#ACDEB6"/>
<path d="M59.7273 131.487L61.0979 130.453L59.7804 129.611L59.7273 131.487Z" fill="#ACDEB6"/>
<path d="M182.28 130.683L183.65 129.648L182.333 128.806L182.28 130.683Z" fill="#ACDEB6"/>
<path d="M45.9192 131.068L47.2898 130.033L45.9723 129.191L45.9192 131.068Z" fill="#ACDEB6"/>
<path d="M168.471 130.261L169.842 129.227L168.525 128.385L168.471 130.261Z" fill="#ACDEB6"/>
<path d="M251.588 127.383L250.216 128.416L251.533 129.259L251.588 127.383Z" fill="#ACDEB6"/>
<path d="M116.773 131.185L118.144 130.15L116.827 129.308L116.773 131.185Z" fill="#ACDEB6"/>
<path d="M65.8976 127.421L67.5205 127.982L67.4848 126.419L65.8976 127.421Z" fill="#ACDEB6"/>
<path d="M188.45 126.614L190.073 127.175L190.037 125.612L188.45 126.614Z" fill="#ACDEB6"/>
<path d="M214.486 128.716L212.863 128.154L212.898 129.717L214.486 128.716Z" fill="#ACDEB6"/>
<path d="M53.9642 128.046L55.5871 128.607L55.5514 127.044L53.9642 128.046Z" fill="#ACDEB6"/>
<path d="M176.516 127.243L178.139 127.804L178.104 126.241L176.516 127.243Z" fill="#ACDEB6"/>
<path d="M256.413 129.334L254.791 128.771L254.825 130.334L256.413 129.334Z" fill="#ACDEB6"/>
<path d="M229.326 130.959L230.786 130.054L229.55 129.095L229.326 130.959Z" fill="#ACDEB6"/>
<path d="M273.038 126.078L274.497 125.173L273.262 124.215L273.038 126.078Z" fill="#ACDEB6"/>
<path d="M28.0355 130.642L29.4057 131.677L29.8547 130.179L28.0355 130.642Z" fill="#ACDEB6"/>
<path d="M150.588 129.837L151.958 130.872L152.407 129.374L150.588 129.837Z" fill="#ACDEB6"/>
<path d="M-2.75302 113.637L-3.55752 114.039L-2.75302 115.112V113.637Z" fill="#E7E88C"/>
<path d="M-7.7141 124.766L-8.38452 125.57L-7.7141 126.106V124.766Z" fill="#E7E88C"/>
<path d="M5.69424 114.039L4.48749 115.112L5.42607 116.05L5.69424 114.039Z" fill="#E7E88C"/>
<path d="M1.53765 118.732L1.00132 118.061L0.733151 119.134L1.53765 118.732Z" fill="#E7E88C"/>
<path d="M119.799 112.834L118.995 113.236L119.799 114.309V112.834Z" fill="#E7E88C"/>
<path d="M114.838 123.963L114.168 124.767L114.838 125.304V123.963Z" fill="#E7E88C"/>
<path d="M128.246 113.236L127.04 114.309L127.978 115.247L128.246 113.236Z" fill="#E7E88C"/>
<path d="M124.09 117.929L123.554 117.259L123.285 118.331L124.09 117.929Z" fill="#E7E88C"/>
<path d="M49.6093 128.786L50.4248 128.407L49.651 127.312L49.6093 128.786Z" fill="#E7E88C"/>
<path d="M54.883 117.802L55.5759 117.017L54.9209 116.462L54.883 117.802Z" fill="#E7E88C"/>
<path d="M41.1768 128.145L42.4134 127.107L41.5017 126.142L41.1768 128.145Z" fill="#E7E88C"/>
<path d="M45.4643 123.572L45.9815 124.257L46.2799 123.192L45.4643 123.572Z" fill="#E7E88C"/>
<path d="M172.162 127.983L172.977 127.604L172.203 126.509L172.162 127.983Z" fill="#E7E88C"/>
<path d="M177.435 116.999L178.128 116.214L177.473 115.659L177.435 116.999Z" fill="#E7E88C"/>
<path d="M163.729 127.343L164.966 126.304L164.054 125.34L163.729 127.343Z" fill="#E7E88C"/>
<path d="M168.017 122.769L168.534 123.454L168.832 122.39L168.017 122.769Z" fill="#E7E88C"/>
<path d="M256.494 110.092L255.678 110.471L256.451 111.566L256.494 110.092Z" fill="#E7E88C"/>
<path d="M251.211 121.071L250.517 121.856L251.172 122.412L251.211 121.071Z" fill="#E7E88C"/>
<path d="M264.926 110.74L263.689 111.777L264.599 112.743L264.926 110.74Z" fill="#E7E88C"/>
<path d="M260.634 115.31L260.118 114.624L259.818 115.689L260.634 115.31Z" fill="#E7E88C"/>
<path d="M106.655 128.485L107.471 128.106L106.697 127.011L106.655 128.485Z" fill="#E7E88C"/>
<path d="M111.929 117.501L112.622 116.716L111.967 116.161L111.929 117.501Z" fill="#E7E88C"/>
<path d="M98.2229 127.844L99.4595 126.806L98.5478 125.842L98.2229 127.844Z" fill="#E7E88C"/>
<path d="M102.51 123.271L103.028 123.956L103.326 122.892L102.51 123.271Z" fill="#E7E88C"/>
<path d="M92.1745 130.632L92.99 130.252L92.2162 129.157L92.1745 130.632Z" fill="#E7E88C"/>
<path d="M97.4482 119.648L98.141 118.862L97.4861 118.307L97.4482 119.648Z" fill="#E7E88C"/>
<path d="M83.7419 129.991L84.9785 128.953L84.0669 127.988L83.7419 129.991Z" fill="#E7E88C"/>
<path d="M88.0295 125.417L88.5467 126.103L88.8451 125.038L88.0295 125.417Z" fill="#E7E88C"/>
<path d="M243.596 121.35L242.827 120.884L242.349 122.137L243.596 121.35Z" fill="#E7E88C"/>
<path d="M231.536 123.087L230.498 122.949L230.402 123.802L231.536 123.087Z" fill="#E7E88C"/>
<path d="M247.76 128.711L246.209 128.262L245.916 129.556L247.76 128.711Z" fill="#E7E88C"/>
<path d="M241.574 127.697L241.855 126.886L240.804 127.231L241.574 127.697Z" fill="#E7E88C"/>
<path d="M62.2287 130.654L62.9983 131.12L63.4757 129.867L62.2287 130.654Z" fill="#E7E88C"/>
<path d="M74.2873 128.907L75.3255 129.044L75.421 128.191L74.2873 128.907Z" fill="#E7E88C"/>
<path d="M58.0584 123.297L59.6097 123.745L59.9021 122.45L58.0584 123.297Z" fill="#E7E88C"/>
<path d="M64.2457 124.306L63.9653 125.118L65.0154 124.772L64.2457 124.306Z" fill="#E7E88C"/>
<path d="M184.781 129.852L185.551 130.317L186.028 129.064L184.781 129.852Z" fill="#E7E88C"/>
<path d="M196.84 128.104L197.878 128.241L197.973 127.388L196.84 128.104Z" fill="#E7E88C"/>
<path d="M180.611 122.495L182.162 122.942L182.454 121.647L180.611 122.495Z" fill="#E7E88C"/>
<path d="M186.798 123.503L186.518 124.315L187.568 123.969L186.798 123.503Z" fill="#E7E88C"/>
<path d="M264.512 122.442L263.743 121.976L263.265 123.228L264.512 122.442Z" fill="#E7E88C"/>
<path d="M252.452 124.179L251.414 124.041L251.318 124.894L252.452 124.179Z" fill="#E7E88C"/>
<path d="M268.676 129.803L267.125 129.354L266.832 130.648L268.676 129.803Z" fill="#E7E88C"/>
<path d="M262.49 128.789L262.771 127.977L261.72 128.322L262.49 128.789Z" fill="#E7E88C"/>
<path d="M3.76846 131.729L4.53814 132.194L5.01553 130.941L3.76846 131.729Z" fill="#E7E88C"/>
<path d="M15.8271 129.981L16.8653 130.118L16.9608 129.265L15.8271 129.981Z" fill="#E7E88C"/>
<path d="M-0.401814 124.372L1.14949 124.819L1.44192 123.524L-0.401814 124.372Z" fill="#E7E88C"/>
<path d="M5.78553 125.38L5.50506 126.192L6.5552 125.846L5.78553 125.38Z" fill="#E7E88C"/>
<path d="M126.321 130.924L127.09 131.389L127.568 130.136L126.321 130.924Z" fill="#E7E88C"/>
<path d="M138.379 129.176L139.418 129.314L139.513 128.461L138.379 129.176Z" fill="#E7E88C"/>
<path d="M122.15 123.567L123.702 124.015L123.994 122.72L122.15 123.567Z" fill="#E7E88C"/>
<path d="M128.338 124.576L128.057 125.387L129.107 125.041L128.338 124.576Z" fill="#E7E88C"/>
<path d="M86.5912 111.499L85.7447 111.803L86.4165 112.963L86.5912 111.499Z" fill="#E7E88C"/>
<path d="M80.3472 121.962L79.5862 122.681L80.1884 123.293L80.3472 121.962Z" fill="#E7E88C"/>
<path d="M94.9313 112.899L93.6061 113.821L94.4269 114.864L94.9313 112.899Z" fill="#E7E88C"/>
<path d="M90.2483 117.066L89.7951 116.337L89.4018 117.37L90.2483 117.066Z" fill="#E7E88C"/>
<path d="M209.144 110.696L208.297 111L208.969 112.161L209.144 110.696Z" fill="#E7E88C"/>
<path d="M202.9 121.159L202.139 121.879L202.741 122.491L202.9 121.159Z" fill="#E7E88C"/>
<path d="M217.484 112.096L216.159 113.018L216.98 114.061L217.484 112.096Z" fill="#E7E88C"/>
<path d="M212.801 116.264L212.348 115.534L211.955 116.568L212.801 116.264Z" fill="#E7E88C"/>
<path d="M219.497 127.346L220.344 127.042L219.673 125.881L219.497 127.346Z" fill="#E7E88C"/>
<path d="M225.75 116.888L226.512 116.169L225.91 115.557L225.75 116.888Z" fill="#E7E88C"/>
<path d="M211.158 125.939L212.484 125.018L211.664 123.974L211.158 125.939Z" fill="#E7E88C"/>
<path d="M215.845 121.775L216.297 122.505L216.691 121.472L215.845 121.775Z" fill="#E7E88C"/>
<path d="M19.2293 121.633L18.6221 120.969L17.8108 122.037L19.2293 121.633Z" fill="#E7E88C"/>
<path d="M7.16709 119.91L6.20973 119.485L5.87754 120.277L7.16709 119.91Z" fill="#E7E88C"/>
<path d="M21.1562 129.867L19.794 129.001L19.1484 130.16L21.1562 129.867Z" fill="#E7E88C"/>
<path d="M15.5042 127.155L16.0021 126.456L14.897 126.492L15.5042 127.155Z" fill="#E7E88C"/>
<path d="M141.782 120.83L141.175 120.167L140.364 121.234L141.782 120.83Z" fill="#E7E88C"/>
<path d="M129.72 119.107L128.762 118.683L128.43 119.474L129.72 119.107Z" fill="#E7E88C"/>
<path d="M143.709 129.065L142.347 128.198L141.701 129.358L143.709 129.065Z" fill="#E7E88C"/>
<path d="M138.057 126.352L138.555 125.653L137.45 125.689L138.057 126.352Z" fill="#E7E88C"/>
<path d="M27.8617 120.171L28.4499 120.852L29.2911 119.808L27.8617 120.171Z" fill="#E7E88C"/>
<path d="M39.8704 122.235L40.8153 122.686L41.1698 121.904L39.8704 122.235Z" fill="#E7E88C"/>
<path d="M26.1683 111.886L27.5055 112.791L28.1836 111.65L26.1683 111.886Z" fill="#E7E88C"/>
<path d="M31.7414 114.757L31.2239 115.442L32.3296 115.437L31.7414 114.757Z" fill="#E7E88C"/>
<path d="M150.414 119.369L151.002 120.049L151.843 119.005L150.414 119.369Z" fill="#E7E88C"/>
<path d="M162.423 121.432L163.368 121.883L163.722 121.101L162.423 121.432Z" fill="#E7E88C"/>
<path d="M148.721 111.083L150.058 111.988L150.736 110.847L148.721 111.083Z" fill="#E7E88C"/>
<path d="M154.294 113.954L153.776 114.639L154.882 114.634L154.294 113.954Z" fill="#E7E88C"/>
<path d="M278.235 118.724L277.647 118.043L276.805 119.087L278.235 118.724Z" fill="#E7E88C"/>
<path d="M266.228 116.65L265.283 116.198L264.928 116.98L266.228 116.65Z" fill="#E7E88C"/>
<path d="M279.921 127.011L278.584 126.105L277.905 127.246L279.921 127.011Z" fill="#E7E88C"/>
<path d="M274.35 124.136L274.868 123.451L273.762 123.455L274.35 124.136Z" fill="#E7E88C"/>
<path d="M280.221 169.279H281.294V170.486L280.221 169.279Z" fill="#ACDEB6"/>
<path d="M275.931 172.363L275.394 171.559L274.992 172.363H275.931Z" fill="#ACDEB6"/>
<path d="M157.669 168.477H158.742V169.683L157.669 168.477Z" fill="#ACDEB6"/>
<path d="M153.378 171.56L152.842 170.756L152.44 171.56H153.378Z" fill="#ACDEB6"/>
<path d="M220.733 173.534L219.66 173.564L219.626 172.358L220.733 173.534Z" fill="#ACDEB6"/>
<path d="M224.934 170.33L225.493 171.119L225.873 170.304L224.934 170.33Z" fill="#ACDEB6"/>
<path d="M98.1804 172.731L97.1082 172.762L97.074 171.555L98.1804 172.731Z" fill="#ACDEB6"/>
<path d="M102.382 169.527L102.941 170.316L103.32 169.501L102.382 169.527Z" fill="#ACDEB6"/>
<path d="M21.1326 165.633L22.2048 165.602L22.24 166.808L21.1326 165.633Z" fill="#ACDEB6"/>
<path d="M16.9337 168.841L16.3741 168.052L15.9955 168.868L16.9337 168.841Z" fill="#ACDEB6"/>
<path d="M163.686 173.235L162.614 173.266L162.58 172.059L163.686 173.235Z" fill="#ACDEB6"/>
<path d="M167.888 170.031L168.447 170.82L168.826 170.005L167.888 170.031Z" fill="#ACDEB6"/>
<path d="M179.881 176.347L179.14 177.123L178.267 176.29L179.881 176.347Z" fill="#ACDEB6"/>
<path d="M180.614 171.114L181.566 171.282L181.262 170.436L180.614 171.114Z" fill="#ACDEB6"/>
<path d="M271.374 162.454L270.302 162.484L270.268 161.278L271.374 162.454Z" fill="#ACDEB6"/>
<path d="M275.576 159.25L276.135 160.039L276.514 159.224L275.576 159.25Z" fill="#ACDEB6"/>
<path d="M148.822 161.651L147.75 161.682L147.715 160.475L148.822 161.651Z" fill="#ACDEB6"/>
<path d="M153.024 158.447L153.582 159.236L153.962 158.421L153.024 158.447Z" fill="#ACDEB6"/>
<path d="M204.975 167.673L204.403 168.58L203.382 167.936L204.975 167.673Z" fill="#ACDEB6"/>
<path d="M204.659 162.399L205.625 162.375L205.16 161.605L204.659 162.399Z" fill="#ACDEB6"/>
<path d="M82.4231 166.87L81.8503 167.777L80.83 167.133L82.4231 166.87Z" fill="#ACDEB6"/>
<path d="M82.1066 161.596L83.0732 161.572L82.6077 160.802L82.1066 161.596Z" fill="#ACDEB6"/>
<path d="M36.8951 171.48L37.467 170.572L38.4879 171.216L36.8951 171.48Z" fill="#ACDEB6"/>
<path d="M37.2163 176.754L36.2497 176.779L36.7159 177.548L37.2163 176.754Z" fill="#ACDEB6"/>
<path d="M191.503 166.69L192.568 166.562L192.711 167.761L191.503 166.69Z" fill="#ACDEB6"/>
<path d="M187.608 170.26L186.98 169.524L186.676 170.371L187.608 170.26Z" fill="#ACDEB6"/>
<path d="M68.9512 165.887L70.0164 165.76L70.1593 166.958L68.9512 165.887Z" fill="#ACDEB6"/>
<path d="M65.0559 169.457L64.4281 168.722L64.1239 169.568L65.0559 169.457Z" fill="#ACDEB6"/>
<path d="M50.368 172.448L49.303 172.576L49.159 171.378L50.368 172.448Z" fill="#ACDEB6"/>
<path d="M54.2601 168.874L54.8886 169.609L55.192 168.762L54.2601 168.874Z" fill="#ACDEB6"/>
<path d="M238.432 159.352L239.497 159.225L239.64 160.423L238.432 159.352Z" fill="#ACDEB6"/>
<path d="M234.537 162.922L233.909 162.187L233.605 163.033L234.537 162.922Z" fill="#ACDEB6"/>
<path d="M115.879 158.545L116.945 158.418L117.087 159.616L115.879 158.545Z" fill="#ACDEB6"/>
<path d="M111.984 162.115L111.356 161.38L111.052 162.226L111.984 162.115Z" fill="#ACDEB6"/>
<path d="M260.995 169.934L261.288 168.902L262.449 169.233L260.995 169.934Z" fill="#ACDEB6"/>
<path d="M262.785 174.905L261.865 175.201L262.528 175.808L262.785 174.905Z" fill="#ACDEB6"/>
<path d="M138.442 169.129L138.736 168.098L139.897 168.428L138.442 169.129Z" fill="#ACDEB6"/>
<path d="M140.233 174.101L139.312 174.396L139.976 175.003L140.233 174.101Z" fill="#ACDEB6"/>
<path d="M239.933 172.341L239.669 173.381L238.499 173.083L239.933 172.341Z" fill="#ACDEB6"/>
<path d="M238.003 167.423L238.915 167.101L238.234 166.513L238.003 167.423Z" fill="#ACDEB6"/>
<path d="M117.381 171.535L117.116 172.574L115.947 172.277L117.381 171.535Z" fill="#ACDEB6"/>
<path d="M115.45 166.616L116.362 166.295L115.682 165.706L115.45 166.616Z" fill="#ACDEB6"/>
<path d="M1.93341 166.844L2.19702 165.805L3.36677 166.101L1.93341 166.844Z" fill="#ACDEB6"/>
<path d="M3.86833 171.761L2.9567 172.084L3.63768 172.671L3.86833 171.761Z" fill="#ACDEB6"/>
<path d="M249.299 177.388L249.035 178.428L247.865 178.13L249.299 177.388Z" fill="#ACDEB6"/>
<path d="M247.369 172.47L248.281 172.148L247.6 171.56L247.369 172.47Z" fill="#ACDEB6"/>
<path d="M126.747 176.585L126.482 177.625L125.313 177.327L126.747 176.585Z" fill="#ACDEB6"/>
<path d="M124.816 171.667L125.728 171.345L125.048 170.757L124.816 171.667Z" fill="#ACDEB6"/>
<path d="M253.322 167.464L253.057 168.504L251.888 168.206L253.322 167.464Z" fill="#ACDEB6"/>
<path d="M251.391 162.546L252.303 162.224L251.623 161.636L251.391 162.546Z" fill="#ACDEB6"/>
<path d="M130.769 166.662L130.505 167.701L129.335 167.404L130.769 166.662Z" fill="#ACDEB6"/>
<path d="M128.839 161.743L129.751 161.422L129.07 160.833L128.839 161.743Z" fill="#ACDEB6"/>
<path d="M166.116 166.33V165.258L165.178 165.66L166.116 166.33Z" fill="#ACDEB6"/>
<path d="M212.349 175.92L212.379 176.992L213.306 176.564L212.349 175.92Z" fill="#ACDEB6"/>
<path d="M89.7971 175.117L89.8274 176.189L90.7542 175.761L89.7971 175.117Z" fill="#ACDEB6"/>
<path d="M29.5137 163.238L29.4824 162.166L28.556 162.595L29.5137 163.238Z" fill="#ACDEB6"/>
<path d="M155.303 175.619L155.333 176.691L156.26 176.263L155.303 175.619Z" fill="#ACDEB6"/>
<path d="M172.656 161.397L172.687 162.469L173.614 162.04L172.656 161.397Z" fill="#ACDEB6"/>
<path d="M202.279 175.962L203.186 176.535L203.347 175.527L202.279 175.962Z" fill="#ACDEB6"/>
<path d="M79.7268 175.158L80.6338 175.73L80.7948 174.722L79.7268 175.158Z" fill="#ACDEB6"/>
<path d="M39.584 163.189L38.6765 162.617L38.5164 163.626L39.584 163.189Z" fill="#ACDEB6"/>
<path d="M42.7595 168.111L41.8521 167.539L41.6919 168.548L42.7595 168.111Z" fill="#ACDEB6"/>
<path d="M225.85 165.38L226.757 165.953L226.918 164.945L225.85 165.38Z" fill="#ACDEB6"/>
<path d="M103.298 164.578L104.205 165.15L104.366 164.142L103.298 164.578Z" fill="#ACDEB6"/>
<path d="M16.0222 173.791L15.1147 173.219L14.9546 174.227L16.0222 173.791Z" fill="#ACDEB6"/>
<path d="M199.637 163.559L199.51 162.494L198.626 163.005L199.637 163.559Z" fill="#ACDEB6"/>
<path d="M77.085 162.757L76.958 161.691L76.0737 162.202L77.085 162.757Z" fill="#ACDEB6"/>
<path d="M42.237 175.587L42.365 176.652L43.2489 176.141L42.237 175.587Z" fill="#ACDEB6"/>
<path d="M261.245 161.222L260.214 160.928L260.343 161.941L261.245 161.222Z" fill="#ACDEB6"/>
<path d="M138.693 160.419L137.661 160.125L137.791 161.138L138.693 160.419Z" fill="#ACDEB6"/>
<path d="M1.92942 158.129L0.889648 157.865L1.04891 158.874L1.92942 158.129Z" fill="#ACDEB6"/>
<path d="M164.373 160.566L165.714 161.639L164.373 162.444V160.566Z" fill="#ACDEB6"/>
<path d="M27.6033 157.529L28.9749 158.562L27.6581 159.406L27.6033 157.529Z" fill="#ACDEB6"/>
<path d="M13.7955 157.959L15.167 158.992L13.8502 159.835L13.7955 157.959Z" fill="#ACDEB6"/>
<path d="M219.481 161.636L218.111 160.602L219.428 159.76L219.481 161.636Z" fill="#ACDEB6"/>
<path d="M96.9292 160.833L95.5585 159.799L96.8761 158.957L96.9292 160.833Z" fill="#ACDEB6"/>
<path d="M85.5321 176.761L83.9092 177.322L83.9449 175.759L85.5321 176.761Z" fill="#ACDEB6"/>
<path d="M33.7773 161.589L35.3997 161.027L35.3653 162.59L33.7773 161.589Z" fill="#ACDEB6"/>
<path d="M59.7648 159.902L61.3872 159.34L61.3529 160.903L59.7648 159.902Z" fill="#ACDEB6"/>
<path d="M21.8434 160.972L23.4658 160.41L23.4315 161.973L21.8434 160.972Z" fill="#ACDEB6"/>
<path d="M47.8305 159.287L49.4529 158.724L49.4186 160.288L47.8305 159.287Z" fill="#ACDEB6"/>
<path d="M224.308 159.691L222.686 160.251L222.721 158.688L224.308 159.691Z" fill="#ACDEB6"/>
<path d="M101.756 158.886L100.133 159.447L100.169 157.884L101.756 158.886Z" fill="#ACDEB6"/>
<path d="M197.224 158.044L198.682 158.95L197.446 159.907L197.224 158.044Z" fill="#ACDEB6"/>
<path d="M74.6713 157.237L76.1297 158.143L74.8936 159.101L74.6713 157.237Z" fill="#ACDEB6"/>
<path d="M0.944052 176.225L-0.515173 175.32L0.720112 174.361L0.944052 176.225Z" fill="#ACDEB6"/>
<path d="M255.223 161.319L256.621 160.323L257.028 161.833L255.223 161.319Z" fill="#ACDEB6"/>
<path d="M132.67 160.514L134.069 159.518L134.475 161.028L132.67 160.514Z" fill="#ACDEB6"/>
<path d="M276.735 163.783L277.539 164.185L276.735 165.258V163.783Z" fill="#E7E88C"/>
<path d="M281.696 174.912L282.366 175.717L281.696 176.253V174.912Z" fill="#E7E88C"/>
<path d="M268.288 164.185L269.494 165.258L268.556 166.197L268.288 164.185Z" fill="#E7E88C"/>
<path d="M272.444 168.878L272.981 168.208L273.249 169.281L272.444 168.878Z" fill="#E7E88C"/>
<path d="M154.183 162.98L154.987 163.383L154.183 164.455V162.98Z" fill="#E7E88C"/>
<path d="M159.144 174.109L159.814 174.914L159.144 175.45V174.109Z" fill="#E7E88C"/>
<path d="M145.735 163.383L146.942 164.455L146.004 165.394L145.735 163.383Z" fill="#E7E88C"/>
<path d="M149.892 168.076L150.428 167.405L150.697 168.478L149.892 168.076Z" fill="#E7E88C"/>
<path d="M224.373 178.933L223.557 178.553L224.331 177.458L224.373 178.933Z" fill="#E7E88C"/>
<path d="M219.099 167.948L218.406 167.163L219.061 166.608L219.099 167.948Z" fill="#E7E88C"/>
<path d="M232.805 178.292L231.569 177.254L232.48 176.289L232.805 178.292Z" fill="#E7E88C"/>
<path d="M228.518 173.718L228 174.403L227.702 173.339L228.518 173.718Z" fill="#E7E88C"/>
<path d="M101.82 178.13L101.005 177.751L101.779 176.656L101.82 178.13Z" fill="#E7E88C"/>
<path d="M96.5467 167.146L95.8538 166.36L96.5088 165.805L96.5467 167.146Z" fill="#E7E88C"/>
<path d="M110.253 177.489L109.016 176.451L109.928 175.486L110.253 177.489Z" fill="#E7E88C"/>
<path d="M105.965 172.915L105.448 173.601L105.15 172.536L105.965 172.915Z" fill="#E7E88C"/>
<path d="M17.4878 160.238L18.3037 160.617L17.5308 161.713L17.4878 160.238Z" fill="#E7E88C"/>
<path d="M22.7713 171.218L23.4649 172.003L22.8104 172.558L22.7713 171.218Z" fill="#E7E88C"/>
<path d="M9.0559 160.887L10.2934 161.924L9.3826 162.889L9.0559 160.887Z" fill="#E7E88C"/>
<path d="M13.3476 165.457L13.8641 164.771L14.1634 165.835L13.3476 165.457Z" fill="#E7E88C"/>
<path d="M167.327 178.632L166.511 178.252L167.285 177.157L167.327 178.632Z" fill="#E7E88C"/>
<path d="M162.053 167.648L161.36 166.862L162.015 166.307L162.053 167.648Z" fill="#E7E88C"/>
<path d="M175.759 177.991L174.522 176.953L175.434 175.988L175.759 177.991Z" fill="#E7E88C"/>
<path d="M171.471 173.417L170.954 174.103L170.656 173.038L171.471 173.417Z" fill="#E7E88C"/>
<path d="M181.807 180.778L180.992 180.399L181.766 179.304L181.807 180.778Z" fill="#E7E88C"/>
<path d="M176.534 169.794L175.841 169.009L176.496 168.454L176.534 169.794Z" fill="#E7E88C"/>
<path d="M190.24 180.137L189.003 179.099L189.915 178.135L190.24 180.137Z" fill="#E7E88C"/>
<path d="M185.952 175.564L185.435 176.249L185.137 175.185L185.952 175.564Z" fill="#E7E88C"/>
<path d="M211.485 167.662L210.715 168.128L210.238 166.875L211.485 167.662Z" fill="#E7E88C"/>
<path d="M199.426 165.915L198.388 166.052L198.292 165.199L199.426 165.915Z" fill="#E7E88C"/>
<path d="M215.655 160.305L214.104 160.753L213.811 159.458L215.655 160.305Z" fill="#E7E88C"/>
<path d="M209.468 161.314L209.748 162.125L208.698 161.779L209.468 161.314Z" fill="#E7E88C"/>
<path d="M88.9325 166.856L88.1628 167.321L87.6854 166.068L88.9325 166.856Z" fill="#E7E88C"/>
<path d="M76.8738 165.108L75.8356 165.245L75.7401 164.392L76.8738 165.108Z" fill="#E7E88C"/>
<path d="M93.1027 159.499L91.5514 159.946L91.259 158.651L93.1027 159.499Z" fill="#E7E88C"/>
<path d="M86.9154 160.507L87.1959 161.319L86.1457 160.973L86.9154 160.507Z" fill="#E7E88C"/>
<path d="M30.3855 171.497L31.1548 171.031L31.6333 172.283L30.3855 171.497Z" fill="#E7E88C"/>
<path d="M42.4457 173.233L43.4838 173.095L43.58 173.948L42.4457 173.233Z" fill="#E7E88C"/>
<path d="M26.2218 178.857L27.7727 178.408L28.0663 179.703L26.2218 178.857Z" fill="#E7E88C"/>
<path d="M32.4082 177.843L32.127 177.032L33.1775 177.377L32.4082 177.843Z" fill="#E7E88C"/>
<path d="M211.753 180.801L210.984 181.266L210.506 180.013L211.753 180.801Z" fill="#E7E88C"/>
<path d="M199.695 179.053L198.656 179.191L198.561 178.337L199.695 179.053Z" fill="#E7E88C"/>
<path d="M215.924 173.444L214.372 173.891L214.08 172.597L215.924 173.444Z" fill="#E7E88C"/>
<path d="M209.736 174.453L210.017 175.264L208.967 174.918L209.736 174.453Z" fill="#E7E88C"/>
<path d="M89.201 179.998L88.4313 180.464L87.9539 179.211L89.201 179.998Z" fill="#E7E88C"/>
<path d="M77.1424 178.251L76.1042 178.388L76.0087 177.535L77.1424 178.251Z" fill="#E7E88C"/>
<path d="M93.3713 172.641L91.82 173.089L91.5276 171.794L93.3713 172.641Z" fill="#E7E88C"/>
<path d="M87.184 173.65L87.4644 174.461L86.4143 174.115L87.184 173.65Z" fill="#E7E88C"/>
<path d="M30.1055 158.358L30.8747 157.892L31.3532 159.144L30.1055 158.358Z" fill="#E7E88C"/>
<path d="M42.1657 160.095L43.2037 159.957L43.3 160.81L42.1657 160.095Z" fill="#E7E88C"/>
<path d="M25.9417 165.719L27.4926 165.27L27.7862 166.564L25.9417 165.719Z" fill="#E7E88C"/>
<path d="M32.1282 164.705L31.847 163.893L32.8974 164.238L32.1282 164.705Z" fill="#E7E88C"/>
<path d="M232.402 166.588L231.632 167.054L231.155 165.801L232.402 166.588Z" fill="#E7E88C"/>
<path d="M220.343 164.841L219.305 164.978L219.21 164.125L220.343 164.841Z" fill="#E7E88C"/>
<path d="M236.572 159.231L235.021 159.679L234.728 158.384L236.572 159.231Z" fill="#E7E88C"/>
<path d="M230.385 160.24L230.665 161.051L229.615 160.705L230.385 160.24Z" fill="#E7E88C"/>
<path d="M109.85 165.785L109.08 166.251L108.603 164.998L109.85 165.785Z" fill="#E7E88C"/>
<path d="M97.791 164.038L96.7528 164.175L96.6573 163.322L97.791 164.038Z" fill="#E7E88C"/>
<path d="M114.02 158.428L112.469 158.876L112.176 157.581L114.02 158.428Z" fill="#E7E88C"/>
<path d="M107.833 159.437L108.113 160.248L107.063 159.902L107.833 159.437Z" fill="#E7E88C"/>
<path d="M9.46948 172.588L10.2387 172.122L10.7173 173.375L9.46948 172.588Z" fill="#E7E88C"/>
<path d="M21.5297 174.325L22.5678 174.187L22.664 175.04L21.5297 174.325Z" fill="#E7E88C"/>
<path d="M5.30576 179.949L6.85666 179.5L7.15025 180.795L5.30576 179.949Z" fill="#E7E88C"/>
<path d="M11.4922 178.935L11.211 178.124L12.2615 178.469L11.4922 178.935Z" fill="#E7E88C"/>
<path d="M270.213 181.875L269.444 182.341L268.966 181.088L270.213 181.875Z" fill="#E7E88C"/>
<path d="M258.155 180.128L257.117 180.265L257.021 179.412L258.155 180.128Z" fill="#E7E88C"/>
<path d="M274.384 174.518L272.832 174.966L272.54 173.671L274.384 174.518Z" fill="#E7E88C"/>
<path d="M268.196 175.527L268.477 176.338L267.427 175.992L268.196 175.527Z" fill="#E7E88C"/>
<path d="M147.661 181.07L146.892 181.536L146.414 180.283L147.661 181.07Z" fill="#E7E88C"/>
<path d="M135.603 179.323L134.564 179.46L134.469 178.607L135.603 179.323Z" fill="#E7E88C"/>
<path d="M151.832 173.713L150.28 174.161L149.988 172.866L151.832 173.713Z" fill="#E7E88C"/>
<path d="M145.644 174.722L145.925 175.534L144.874 175.188L145.644 174.722Z" fill="#E7E88C"/>
<path d="M172.332 165.516L171.563 165.981L171.085 164.728L172.332 165.516Z" fill="#E7E88C"/>
<path d="M160.274 163.768L159.236 163.906L159.14 163.052L160.274 163.768Z" fill="#E7E88C"/>
<path d="M176.503 158.159L174.951 158.606L174.659 157.312L176.503 158.159Z" fill="#E7E88C"/>
<path d="M170.315 159.167L170.596 159.979L169.546 159.633L170.315 159.167Z" fill="#E7E88C"/>
<path d="M187.391 161.645L188.237 161.95L187.565 163.11L187.391 161.645Z" fill="#E7E88C"/>
<path d="M193.635 172.109L194.396 172.828L193.794 173.44L193.635 172.109Z" fill="#E7E88C"/>
<path d="M179.051 163.045L180.376 163.967L179.555 165.01L179.051 163.045Z" fill="#E7E88C"/>
<path d="M183.734 167.213L184.187 166.484L184.58 167.517L183.734 167.213Z" fill="#E7E88C"/>
<path d="M64.838 160.843L65.6845 161.147L65.0127 162.307L64.838 160.843Z" fill="#E7E88C"/>
<path d="M71.082 171.306L71.843 172.025L71.2408 172.637L71.082 171.306Z" fill="#E7E88C"/>
<path d="M56.4979 162.242L57.8231 163.165L57.0023 164.208L56.4979 162.242Z" fill="#E7E88C"/>
<path d="M61.1809 166.41L61.6341 165.681L62.0274 166.714L61.1809 166.41Z" fill="#E7E88C"/>
<path d="M54.4851 177.492L53.6383 177.189L54.3091 176.028L54.4851 177.492Z" fill="#E7E88C"/>
<path d="M48.2318 167.035L47.4702 166.316L48.0718 165.703L48.2318 167.035Z" fill="#E7E88C"/>
<path d="M62.824 176.085L61.4979 175.164L62.3178 174.12L62.824 176.085Z" fill="#E7E88C"/>
<path d="M58.1373 171.922L57.6848 172.651L57.2905 171.618L58.1373 171.922Z" fill="#E7E88C"/>
<path d="M254.753 171.779L255.36 171.116L256.171 172.183L254.753 171.779Z" fill="#E7E88C"/>
<path d="M266.815 170.056L267.772 169.632L268.104 170.424L266.815 170.056Z" fill="#E7E88C"/>
<path d="M252.826 180.014L254.188 179.147L254.834 180.307L252.826 180.014Z" fill="#E7E88C"/>
<path d="M258.478 177.302L257.98 176.602L259.085 176.638L258.478 177.302Z" fill="#E7E88C"/>
<path d="M132.2 170.977L132.807 170.313L133.618 171.381L132.2 170.977Z" fill="#E7E88C"/>
<path d="M144.262 169.254L145.219 168.829L145.552 169.621L144.262 169.254Z" fill="#E7E88C"/>
<path d="M130.273 179.211L131.635 178.344L132.281 179.504L130.273 179.211Z" fill="#E7E88C"/>
<path d="M135.925 176.499L135.427 175.799L136.532 175.835L135.925 176.499Z" fill="#E7E88C"/>
<path d="M246.12 170.318L245.532 170.998L244.691 169.954L246.12 170.318Z" fill="#E7E88C"/>
<path d="M234.112 172.381L233.167 172.832L232.812 172.05L234.112 172.381Z" fill="#E7E88C"/>
<path d="M247.814 162.032L246.476 162.937L245.798 161.796L247.814 162.032Z" fill="#E7E88C"/>
<path d="M242.241 164.903L242.758 165.588L241.652 165.584L242.241 164.903Z" fill="#E7E88C"/>
<path d="M123.568 169.515L122.98 170.196L122.139 169.151L123.568 169.515Z" fill="#E7E88C"/>
<path d="M111.559 171.578L110.614 172.03L110.26 171.248L111.559 171.578Z" fill="#E7E88C"/>
<path d="M125.261 161.23L123.924 162.134L123.246 160.993L125.261 161.23Z" fill="#E7E88C"/>
<path d="M119.688 164.1L120.206 164.786L119.1 164.781L119.688 164.1Z" fill="#E7E88C"/>
<path d="M-4.25259 168.871L-3.66497 168.19L-2.8229 169.233L-4.25259 168.871Z" fill="#E7E88C"/>
<path d="M7.75423 166.797L8.69882 166.345L9.05395 167.126L7.75423 166.797Z" fill="#E7E88C"/>
<path d="M-5.93858 177.158L-4.60225 176.252L-3.92311 177.392L-5.93858 177.158Z" fill="#E7E88C"/>
<path d="M-0.368099 174.282L-0.886153 173.597L0.219521 173.601L-0.368099 174.282Z" fill="#E7E88C"/>
<path d="M250.801 159.705L251.529 159.177L252.11 160.386L250.801 159.705Z" fill="#E7E88C"/>
<path d="M262.964 160.44L263.987 160.217L264.153 161.059L262.964 160.44Z" fill="#E7E88C"/>
<path d="M247.259 167.384L248.768 166.809L249.167 168.074L247.259 167.384Z" fill="#E7E88C"/>
<path d="M253.341 165.863L252.994 165.078L254.069 165.335L253.341 165.863Z" fill="#E7E88C"/>
<path d="M128.249 158.898L128.977 158.37L129.557 159.579L128.249 158.898Z" fill="#E7E88C"/>
<path d="M140.411 159.634L141.434 159.41L141.601 160.253L140.411 159.634Z" fill="#E7E88C"/>
<path d="M124.707 166.577L126.215 166.002L126.615 167.268L124.707 166.577Z" fill="#E7E88C"/>
<path d="M130.789 165.056L130.441 164.271L131.517 164.528L130.789 165.056Z" fill="#E7E88C"/>
</g>
<g filter="url(#filter1_d)">
<path d="M74.9287 87.1862C74.9287 84.3974 77.1894 82.1367 79.9782 82.1367H318.259C321.047 82.1367 323.308 84.3974 323.308 87.1862V140.974H80.1077C77.2474 140.974 74.9287 138.655 74.9287 135.795V87.1862Z" fill="black"/>
<path d="M79.1907 99.6209C79.1907 97.9889 80.5136 96.666 82.1455 96.666H99.0354V116.365H79.1907V99.6209Z" fill="#89CDD3"/>
<path d="M74.9287 86.8152C74.9287 84.2314 77.0234 82.1367 79.6072 82.1367H323.308V93.2504H74.9287V86.8152Z" fill="#539882"/>
<rect x="143.828" y="96.5195" width="22.9632" height="19.9453" fill="#89CDD3"/>
<rect x="174.317" y="96.5195" width="22.9632" height="19.9453" fill="#89CDD3"/>
<rect x="204.806" y="96.5195" width="22.9632" height="19.9453" fill="#89CDD3"/>
<rect x="235.297" y="96.5195" width="22.9632" height="19.9453" fill="#89CDD3"/>
<rect x="265.785" y="96.5195" width="22.9632" height="19.9453" fill="#89CDD3"/>
<rect x="103.571" y="96.4199" width="34.5865" height="44.3229" fill="#539882"/>
<path d="M120.722 96.4199V140.743" stroke="black" stroke-width="0.984954"/>
<rect x="105.839" y="98.3887" width="11.9068" height="30.0411" rx="1.72367" fill="#89CDD3"/>
<rect x="123.699" y="98.3887" width="11.9068" height="30.0411" rx="1.72367" fill="#89CDD3"/>
<path d="M138.528 126.592H323.684" stroke="#539882" stroke-width="4.57623"/>
<path d="M165.644 82.7932L148.082 73.6407L165.644 64.4883" stroke="black" stroke-width="0.938714"/>
<path d="M165.374 82.7913L182.936 73.6388L165.374 64.4863" stroke="black" stroke-width="0.938714"/>
<path d="M277.647 82.7932L260.084 73.6407L277.647 64.4883" stroke="black" stroke-width="0.938714"/>
<path d="M277.378 82.7913L294.94 73.6388L277.378 64.4863" stroke="black" stroke-width="0.938714"/>
</g>
<path d="M-0.5 63.5059H323.395" stroke="black" stroke-width="1.30749"/>
</g>
<defs>
<filter id="filter0_d" x="0" y="3.08423" width="328.863" height="116.961" filterUnits="userSpaceOnUse" color-interpolation-filters="sRGB">
<feFlood flood-opacity="0" result="BackgroundImageFix"/>
<feColorMatrix in="SourceAlpha" type="matrix" values="0 0 0 0 0 0 0 0 0 0 0 0 0 0 0 0 0 0 127 0"/>
<feOffset dx="3.45263"/>
<feGaussianBlur stdDeviation="0.863158"/>
<feColorMatrix type="matrix" values="0 0 0 0 0 0 0 0 0 0 0 0 0 0 0 0 0 0 0.25 0"/>
<feBlend mode="normal" in2="BackgroundImageFix" result="effect1_dropShadow"/>
<feBlend mode="normal" in="SourceGraphic" in2="effect1_dropShadow" result="shape"/>
</filter>
<filter id="filter1_d" x="74.9287" y="58.8403" width="253.985" height="82.1337" filterUnits="userSpaceOnUse" color-interpolation-filters="sRGB">
<feFlood flood-opacity="0" result="BackgroundImageFix"/>
<feColorMatrix in="SourceAlpha" type="matrix" values="0 0 0 0 0 0 0 0 0 0 0 0 0 0 0 0 0 0 127 0"/>
<feOffset dx="2.61499" dy="-2.61499"/>
<feGaussianBlur stdDeviation="1.30749"/>
<feColorMatrix type="matrix" values="0 0 0 0 0 0 0 0 0 0 0 0 0 0 0 0 0 0 0.25 0"/>
<feBlend mode="normal" in2="BackgroundImageFix" result="effect1_dropShadow"/>
<feBlend mode="normal" in="SourceGraphic" in2="effect1_dropShadow" result="shape"/>
</filter>
</defs>
</svg>
