<svg width="233" height="310" viewBox="0 0 233 310" fill="none" xmlns="http://www.w3.org/2000/svg">
<g filter="url(#filter0_d)">
<path d="M176.012 240.187V247.235L170.295 272.452L165.127 297.042L161.681 295.319L158.94 290.855L151.265 291.247L163.404 271.904L163.717 270.337L158.94 267.91L158.235 266.813H156.747L155.259 265.247L153.458 265.639L151.735 263.446L149.386 261.566H146.331V262.584H145.078L144.452 264.542L141.476 264.855H139.361L138.5 263.446L137.169 261.566H134.584L131.217 261.253L129.259 264.542L128.163 263.054L125.265 264.072L124.09 265.639L121.741 266.343L118.687 264.855H116.181L111.404 265.325L110.072 264.072L108.506 263.681H106.627V261.253L107.331 260.078V258.042V255.614L105.53 254.048H102.711L100.675 252.717L101.928 249.428L99.7349 247.705L99.3434 245.747L97.9337 244.337L94.7229 244.024L93.6265 242.693L92.3735 241.127H91.0422L90.7289 239.952L89.3193 241.127L86.6566 239.325L86.2651 237.446L86.6566 236.506L85.4819 234.861V232.982L83.994 230.711L81.4096 228.91L78.6687 228.127V227.108L78.1988 225.307L76.9458 225.699L74.9096 225.307L71.7771 223.584L70.1325 223.271L67.7048 223.898H65.5904L61.8313 221.157H59.8735L57.6807 220.843L55.6446 219.512L55.3313 218.181L52.747 216.38L49.1446 214.657L47.4217 216.38L46.4036 218.729H44.1325L41.4699 218.181H38.0241H34.4217V215.988H32.2289L28.6265 216.38L27.7651 213.012L28.6265 211.211H26.5121L25.1807 209.801L23.5362 207.687L21.1084 208.47L17.4277 206.747L15.1566 205.181L12.8072 204.398L11.8675 203.458L9.75302 201.735L8.34338 200.482H6.85543L5.75904 199.151L4.19278 197.349L3.40964 196.331L2.07832 195.235H0.512054L1.06025 193.434L1.60844 191.398L3.80121 190.145H4.66266H6.54217L7.95181 190.928L9.36145 190.614L9.75302 188.892L8.34338 187.09L7.32531 184.976V183.018L8.34338 180.982L8.96989 178.476L10.3795 176.988L11.3976 175.343L12.6506 174.795H14.4518L17.0362 173.777V174.404L18.3675 174.795H20.247L20.8735 175.813L22.4398 174.795L23.5362 173.386L24.9458 172.916V171.898L26.5121 170.41L24.9458 168.922L26.1988 166.886H27.2169L27.8434 165.398L29.0181 165.163H30.2711V163.988L29.253 163.675L29.5663 162.735L30.6627 161.795H31.9157V160.62L33.4819 160.386L34.3434 159.289L33.9518 158.114L35.1265 157.645V156.548L36.5362 156L35.1265 154.512H37.7892V153.494L38.4157 152.946L38.8855 152.163L38.4157 151.614L37.0843 151.145L36.7711 152.554L33.9518 152.946L33.247 152.163V151.38H35.5964L36.2229 149.578L34.8133 148.404L33.4819 150.831L31.9157 151.145L30.6627 149.813V148.404L29.5663 147.777V145.898L31.2108 144.331L32.4639 143.705L32.9337 141.825L33.247 140.494V139.398L34.4217 137.518L33.247 136.97V134.934L32.4639 132.584L33.247 130.783L32.4639 130.627V128.12L32.9337 127.886V127.024L32.4639 126.633L32.1506 125.536V124.44L31.2108 123.97H29.5663V123.5L30.741 121.777H31.2108L32.1506 121.542L32.9337 122.247L35.2831 120.211L35.6747 118.88L34.8133 118.253L34.4217 116.06L33.4036 114.024L31.6024 112.301V109.404L33.7952 110.97V108.229L34.1868 106.428L34.4217 104.548L33.4036 102.669V101.416H31.8374L31.6024 101.651L30.506 102.199L30.2711 100.241L29.0964 98.9096L27.6868 99.1446V97.6566L28.7048 96.3253L27.3735 94.759L26.9819 93.741L25.259 93.5843L25.0241 92.6446L23.8494 91.0783L25.8855 87.1627L27.1386 85.753V83.6386L28.2349 82.9337L29.9578 84.4217L30.2711 86.4578L31.3675 85.2048L33.4036 83.6386L34.8133 81.8373V80.1145L37.9458 79.0964L36.2229 75.8072L35.3615 73.7711L34.1868 69.8554V64.7651L38.9639 69.3072L41.7831 73.7711L45.3855 76.747L44.6024 77.2169V78.5482H46.3253L47.8133 73.7711L45.3855 69.8554L42.8012 69.3072V67.506L48.753 64.2952L54.3916 60.8494L57.759 57.1687L59.8735 54.1145L62.5362 52.3133L65.0422 53.4096L69.1928 51.6867V48.6325V43.8554L69.6627 38.2952L72.247 31.4036L77.0241 26.5482L84.3856 24.8253H86.9699L89.3193 29.0542L93.2349 27.7229L95.1928 24.8253L96.3675 18.247H99.1084L100.518 19.8133L107.175 21.1446H109.681H115.789L122.681 13.6265L129.964 9.86747L135.602 3.5241H139.127L143.12 0L149.072 1.64458L153.614 4.30723L152.361 9.31928L147.741 12.2952H140.849L136.699 13.6265L132.548 22.0843H129.181L123.386 28.506L118.139 33.9096L115.789 39.7048L116.964 45.6566L113.518 54.8193L109.681 55.9157L111.169 57.6386L116.416 56.5422L116.964 57.6386H120.331V60.8494L121.349 64.2952L125.03 68.2892L127.066 72.753V76.747L125.03 80.506L126.283 87.9458L128.398 88.6506V91.5482L132.47 95.0723L136.934 96.7169H141.633L146.018 97.3434L151.03 96.7169H153.38L158.705 95.6988L162.542 96.247L165.675 97.3434L168.259 96.7169L181.259 112.38L184.47 113.163L187.289 111.361H192.849L194.807 112.38H198.018H200.837L202.482 110.343L207.102 111.361L209.53 110.343H214.229L218.771 111.361V113.163L220.181 115.434L217.283 118.566L214.777 119.663L214.229 125.301L212.741 126.398L210.47 128.434L211.88 132.349L208.747 137.675L208.042 141.199L208.747 144.018L208.042 146.681L210.47 149.5L211.88 154.982H214.777L217.831 160.855L217.283 163.91L214.777 164.614L207.102 172.446H209.53H211.88L212.741 175.03L214.229 174.482L216.03 177.301L218.771 180.669V183.175L220.181 184.506L220.964 188.303L221.825 191.867L223 195.94L224.488 198.916V201.97H220.964L220.181 200.873V196.723V192.416L218.301 188.578L216.03 184.506L212.741 186.307L208.042 189.753L205.458 191.867L203.03 189.753V188.108L201.307 187.325L199.663 189.753L202.012 191.867H186.428L179.066 190.928H173.114L169.825 193.904V197.898V201.97H171.94H175.542L180.319 202.91L182.904 206.199L182.434 210.741L179.066 211.759L177.422 209.723L175.072 209.018L171.94 211.759L164.97 212.464V225.229L173.114 230.398L171.94 234.94L176.012 240.187Z" fill="#F3E8CB"/>
</g>
<g filter="url(#filter1_d)">
<path d="M166.508 231.611V237.603L172.88 246.45L169.042 266.655L168.838 274.287L166.145 283.727L164.187 291.715L161.759 288.974L156.277 288.504L159.175 282.474L165.283 269.631L162.307 267.203L155.786 258.576L156.052 257.244L151.99 255.18L151.391 254.248H150.126L148.86 252.916L147.329 253.249L145.863 251.385L143.866 249.787H141.269V250.653H140.203L139.67 252.317L137.14 252.583H135.342L134.609 251.385L133.477 249.787H131.279L128.416 249.521L126.751 252.317L125.819 251.052L123.355 251.918L122.356 253.249L120.358 253.848L117.761 252.583H115.63L111.568 252.983L110.436 251.918L109.104 251.585H107.506V249.521L108.105 248.522V246.791V244.727L106.573 243.395H104.176L102.444 242.263L103.51 239.467L101.645 238.002L101.312 236.338L100.114 235.139L97.3833 234.873L96.451 233.741L95.3855 232.409H94.2534L93.9871 231.411L92.7884 232.409L90.5242 230.878L90.1912 229.28L90.5242 228.481L89.5253 227.083V225.485L88.26 223.554L85.8735 221.47H81.9578L78.3554 220.53V218.894L71.3855 213.367L61.9879 212.901L58.6258 209.905L57.1607 211.37L56.295 213.367H54.3638L52.0996 212.901H49.1695H46.1062V211.037H44.2416L41.1783 211.37L40.4457 208.507L41.1783 206.976H39.3802L38.2481 205.777L36.8497 203.98L34.7853 204.645L21.9327 206.349L20.0015 205.017L18.0037 204.351L17.2045 203.552L15.4065 202.088L14.2078 201.022H12.9425L12.0102 199.891L10.6784 198.359L10.0124 197.494L8.88033 196.562H7.54846L8.01462 195.03L8.48077 193.299L10.3454 192.234H11.0779H12.6762L13.8749 192.9L15.0735 192.633L15.4065 191.168L14.2078 189.637L13.3421 187.839V186.175L14.2078 184.444L14.7406 182.313L15.1402 178.406L16.0059 177.008L17.0714 176.542H18.6031L20.8007 175.676V176.209L21.9328 176.542L26.9938 174.81L27.5266 175.676L28.8584 174.81L29.7908 173.612L30.9894 173.212V172.347L32.3213 171.082L33.9518 164.614L39.4468 161.639L45.2289 153.024L43.2711 151.693L41.0783 149.187L36.3012 145.193V141.982L36.6928 140.181L38.115 137.399V136.467L39.1139 134.869L38.115 134.403V132.672L37.449 130.674L38.115 129.143L37.449 129.01V126.879L37.8486 126.679V125.947L37.449 125.614L37.1826 124.682V123.75L36.3835 123.35H34.9851V122.951L35.984 121.486H36.3835L37.1826 121.286L37.8486 121.886L39.8464 120.155L40.1794 119.023L39.4468 118.49L39.1139 116.626L38.2481 114.895L36.7165 113.43V110.966L38.5811 112.298V109.968L38.9141 108.436L39.1139 106.838L38.2481 105.24V104.175H36.9163L36.7165 104.375L35.7842 104.841L35.5844 103.176L34.5855 102.045L33.3868 102.244V100.979L34.2525 99.8474L33.1204 98.5158L32.7875 97.6503L31.3224 97.5171L31.1226 96.7181L30.1237 95.3865L31.8552 92.0575L32.9207 90.859V89.0614L33.853 88.4621L35.318 89.7272L35.5844 91.4583L36.5167 90.393L38.2481 89.0614L39.4468 87.53L41.2349 86.6145H45.9337H52.747L57.6024 84.8133L56.9759 81.0542V76.411L60.1084 73.7711L61.9001 70.247V67.4787L64.1642 65.9474L66.2952 66.8795L70.0133 61.241L72.1443 52.1538V48.0924L72.5439 43.3651L74.7415 37.506L78.8037 33.378L85.0635 31.9133H87.2611L89.2589 35.5086L92.5886 34.3767L94.2534 31.9133L95.2523 26.3205H97.5831L98.7818 27.6521L104.442 28.784H106.573H111.768L117.628 22.3922L118.227 28.784L111.768 34.3767L107.566 39.2349L111.768 44.5636L112.766 49.6237L105.765 55.994L112.766 62.6506L115.084 66.8795L118.227 70.247L115.83 75.4789L116.296 76.411H119.159V79.1409L120.025 82.0704L123.155 85.466L124.887 89.2611V92.6567L123.155 95.8526L124.221 102.178L126.019 102.777V105.24L129.481 108.237L133.277 109.635H137.273L141.002 110.167L145.264 109.635H147.262L151.79 108.769L155.053 109.235L157.717 110.167L159.915 109.635L170.969 122.951L173.7 123.617L176.097 122.085H180.825L182.49 122.951H185.22H187.618L189.016 121.22L192.945 122.085L195.01 121.22H199.005L202.868 122.085V123.617L204.066 125.548L201.602 128.211L199.005 134.464V139.867L201.307 149.108L205.301 156.47L206.711 160.934L202.868 167.199V174.717V183.14L204.066 184.272H200.537H196.295L192.3 187.201L190.102 188.999L188.038 187.201V185.803L186.573 185.137L185.174 187.201L187.172 188.999H173.92L169.105 189.731H164.044L161.247 192.261V195.657V199.119H163.045H166.108L165.205 203.299L171.169 204.446L170.77 208.307L167.906 209.173L166.508 207.442L164.044 209.956L157.118 208.307V212.854V218.894L164.044 223.288L163.045 227.15L166.508 231.611Z" fill="#C1DD9B"/>
</g>
<g filter="url(#filter2_d)">
<path d="M157.988 220.799V225.925L163.434 233.493V240.962L167.633 249.036L165.205 257.807L160.208 249.975L153.492 245.981L148.824 243.867L149.052 242.727L145.58 240.962L145.068 240.164H143.986L142.905 239.025L141.596 239.31L140.344 237.715L138.636 236.348H136.416V237.089H135.506L135.05 238.513L132.888 238.74H131.351L130.725 237.715L129.757 236.348H127.879L125.431 236.12L124.008 238.513L123.212 237.43L121.106 238.171L120.252 239.31L118.544 239.823L116.325 238.74H114.503L111.031 239.082L110.064 238.171L108.925 237.886H107.559V236.12L108.072 235.266V233.785V232.019L106.763 230.88H104.714L103.234 229.912L104.144 227.52L102.551 226.267L102.266 224.843L101.242 223.818L97.6205 218.494L93.9398 215.518V209.92L90.8072 203.77L91.9819 198.699L93.9398 193.003V189.048L89.1627 193.003H83.1325L76.3193 194.53L70.9157 197.731L65.7821 202.231L64.5299 203.484L63.79 205.192H62.1394L60.2042 204.794H57.6998H55.0816V203.199H53.488L50.8698 203.484L50.2437 201.034L50.8698 199.724H49.333L48.3654 198.699L47.1701 197.161L45.4057 197.731L34.4207 199.188L32.7701 198.049L31.0625 197.479L30.3795 196.796L28.8428 195.543L27.8183 194.632H26.7368L25.94 193.663L24.8016 192.353L24.2325 191.613L23.2649 190.815H22.1265L22.5249 189.505L22.9234 188.024L24.5171 187.113H25.1431H26.5092L27.5337 187.683L28.5582 187.455L28.8428 186.202L27.8183 184.892L27.0783 183.354V181.93L27.8183 180.449L28.2736 178.626L28.6152 175.284L29.3551 174.088L30.2658 173.689H31.5748L33.4531 172.948V173.404L34.4207 173.689L39.5904 172.446L44.6089 169.627V163.127V157.958L46.3253 154.825L49.5607 153.181L46.8856 146.054L45.1211 140.102L42.9013 134.777V128.12L44.6089 125.771L42.9013 118.801V111.518V108.072V101.415L43.812 100.39V98.8522L44.6089 98.3396L45.861 99.4218L46.0887 100.903L46.8856 99.9913L48.3654 98.8522L49.3899 97.5422V96.2891L51.6666 95.5486L50.4144 93.1564L53.5287 92.0742L58.3828 96.5169L58.6674 94.9221H63.0501L61.2856 92.0742L59.4074 91.6755V90.3655L63.7331 88.0302L64.5964 85.2873L67.0438 82.6102L68.5806 80.3889L70.5158 79.0788L72.3371 79.8763L75.5149 75.0526L72.6691 66.3388V62.8643L73.0106 58.8203L74.8888 53.8081L75.5149 45.1653L80.8652 43.9122H82.7434L82.2711 42.0615L84.4639 37.277L89.5735 39.1278H91.5656L92.5901 40.2669L94.4115 37.277H96.2329H100.672L105.681 31.8091L106.193 37.277L100.672 42.0615L102.944 55.2871L106.535 59.8456L107.389 64.1744L101.405 69.6239L112.056 76.2585L114.037 79.8763L116.723 82.757L114.674 87.2328L115.072 88.0302H117.52V90.3655L118.26 92.8716L120.935 95.7765L122.415 99.0231V101.928L120.935 104.662L121.846 110.073L123.382 110.585V112.693L126.342 115.256L129.586 116.452H133.001L136.189 116.908L139.831 116.452H141.539L145.409 115.712L148.198 116.11L150.475 116.908L152.353 116.452L161.802 127.844L164.135 128.413L166.184 127.103H170.225L171.648 127.844H173.982H176.031L177.226 126.363L185.764 128.981V132.897L190.09 137.44L193.241 148.795L190.97 149.735L189.065 152.867V161.247L190.97 163.518L193.241 170.958V172.916L189.065 177.511V179.333L190.09 180.302H187.073H183.448L180.033 182.808L178.154 184.346L173.819 186.463L164.323 184.346L160.208 184.972H155.882L153.492 187.137V190.041V193.003H155.028H157.647L156.875 199.486L161.972 200.466L161.631 203.77L159.183 204.51L157.988 203.029L155.882 205.18L149.963 203.77V204.753V209.92L155.882 213.679L155.028 216.983L157.988 220.799Z" fill="#356740"/>
</g>
<g filter="url(#filter3_d)">
<path d="M68.8795 193.355L64.259 197.349L59.9518 196.175L52.4337 193.355L51.0241 187.56H39.1988V180.355L41.4699 174.325L51.0241 170.018L56.506 161.952L58.7771 158.506V140.337L54.4699 132.584L52.4337 123.892L51.0241 118.723L49.5361 111.518L52.4337 100.868H61.988L68.8795 96.247H80.3916V89.0422V80.9759L78.6687 78.7049L76.9458 64.8434L82.6627 58.8133L91.9036 56.5422L95.3494 67.1928L98.7952 77.2169L103.102 85.2832L110.934 92.488L116.102 107.759L120.723 118.41L126.205 123.892L118.687 134.855L116.102 142.922L123.307 145.819H125.03L131.687 129.06L136.855 122.482H146.88L156.12 132.584L167.084 134.855H178.91L183.217 140.337V151.301L178.91 161.952V170.018L170.843 176.048H162.151H151.265L146.88 183.801V193.355L144.06 202.283L146.88 212.621L151.265 216.066L146.88 221.548L141.163 228.44H128.163H120.723L113.831 221.548L108.584 205.964V189.283L110.934 180.355V170.018L108.584 166.494L103.102 171.741L98.7952 176.048L95.3494 183.801H91.9036L82.6627 189.283L76.9458 193.355H68.8795Z" fill="#539882"/>
</g>
<g filter="url(#filter4_d)">
<path d="M83.5241 90.5301V82.3073L82.3494 72.5181H88.0663V84.1868L98.0121 92.9579V101.102L106.783 109.247L114.771 113.946L117.825 120.289L121.741 123.343L116.181 129.06L111.874 138.301L110.072 143L108.271 150.753V156.627V162.187L104.747 166.024L101.066 168.687L98.0121 171.349L94.8012 177.849L91.1205 180.904L85.5602 182.548L79.8434 187.482H76.1627L71.4639 191.319H67.2349L64.1807 193.59H59.0121L55.8012 189.91H53.7651V187.482L51.259 184.193H47.4217H42.7229L45.3856 177.849L50.0843 174.169L55.8012 171.349L60.6566 164.614L63.0843 159.681L64.1807 153.572V143L62.0663 137.048V132.349L60.6566 127.259L57.8374 121.542L55.8012 113.946V106.819V103.374H62.0663L68.6446 101.102L74.1265 99.4579H77.6506H83.5241V95.2289V90.5301Z" fill="#A2896D"/>
<path d="M135.211 147.072L133.958 149.5L125.97 153.572H121.741L121.271 161.169L121.741 168.687L128.241 177.849L130.277 184.193L124.56 188.892L117.825 193.59V203.771V215.675L124.952 221.548H133.958L135.211 215.675L137.404 201.343L141.319 195.235V182.548L142.729 174.169L145.392 168.687L153.928 162.97H165.205L171.548 157.645V149.5V144.801L164.343 140.729L158.627 138.301H151.892L145.392 132.349H139.91L137.404 140.729L135.211 147.072Z" fill="#A2896D"/>
</g>
<g filter="url(#filter5_d)">
<path d="M66.6868 153.807V150.675L65.8253 144.801L64.9639 141.199L66.6868 136.03V128.669L69.741 127.651L67.7048 118.958L62.2229 115.199L60.1084 107.837L64.9639 107.054H68.253L77.259 104.47L82.2711 103.687H86.4217L87.9096 99.5362L89.006 93.6627L93.7831 94.9157V101.181L95.5843 107.837V114.102L93.7831 118.488L89.9458 124.361L86.4217 127.651L83.0542 132.898L81.488 138.145V146.054V151.536L83.0542 158.114L81.488 164.38V169.392L77.9639 175.108L73.9699 183.253L70.6024 184.114L64.1807 187.795H57.8374L55.1747 184.898L52.9036 180.747H49.7711L48.8313 179.416L55.1747 174.482L60.1084 170.253L62.2229 166.729L64.1807 162.343L66.6868 158.114V153.807Z" fill="#FFBD3A"/>
<path d="M86.4217 174.482L89.006 176.361L93.7831 171.584L96.2892 164.38L98.4036 160.464L101.301 155.06V149.97V144.801L104.434 139.633L109.211 133.916V127.651L112.578 125.38L114.693 123.265L110.072 118.958L107.488 115.199L103.416 112.38H99.9699V115.199L99.1868 120.759L98.4036 127.651L97.1506 131.018L93.7831 136.813L89.006 146.054L87.9096 152.554L89.006 159.602L87.9096 165.867L86.4217 169.392V174.482Z" fill="#FFBD3A"/>
<path d="M126.596 165.241L125.892 158.114L130.982 155.06L134.114 153.807L138.422 151.536L141.163 140.259L144.687 138.145L149.307 141.199L153.458 144.801L160.741 146.054L164.813 147.072L166.693 155.687L159.958 159.602L152.205 160.464H147.428L143.199 165.241L140.38 169.392L139.675 174.482L138.422 178.398L137.404 181.295H134.114L132.861 174.482L129.416 171.584L126.596 165.241Z" fill="#FFBD3A"/>
<path d="M126.596 191.554L120.723 196.096L121.271 201.422V206.747L120.723 211.994L121.976 217.476L126.596 218.886H132.157V214.735L132.861 207.373L135.133 199.542L136.307 194.452L137.404 191.554L136.307 187.795H130.982L126.596 191.554Z" fill="#FFBD3A"/>
</g>
<defs>
<filter id="filter0_d" x="0.512054" y="0" width="231.976" height="310" filterUnits="userSpaceOnUse" color-interpolation-filters="sRGB">
<feFlood flood-opacity="0" result="BackgroundImageFix"/>
<feColorMatrix in="SourceAlpha" type="matrix" values="0 0 0 0 0 0 0 0 0 0 0 0 0 0 0 0 0 0 127 0"/>
<feOffset dx="4" dy="7"/>
<feGaussianBlur stdDeviation="2"/>
<feColorMatrix type="matrix" values="0 0 0 0 0 0 0 0 0 0 0 0 0 0 0 0 0 0 0.25 0"/>
<feBlend mode="normal" in2="BackgroundImageFix" result="effect1_dropShadow"/>
<feBlend mode="normal" in="SourceGraphic" in2="effect1_dropShadow" result="shape"/>
</filter>
<filter id="filter1_d" x="7.54846" y="22.3922" width="207.162" height="280.323" filterUnits="userSpaceOnUse" color-interpolation-filters="sRGB">
<feFlood flood-opacity="0" result="BackgroundImageFix"/>
<feColorMatrix in="SourceAlpha" type="matrix" values="0 0 0 0 0 0 0 0 0 0 0 0 0 0 0 0 0 0 127 0"/>
<feOffset dx="4" dy="7"/>
<feGaussianBlur stdDeviation="2"/>
<feColorMatrix type="matrix" values="0 0 0 0 0 0 0 0 0 0 0 0 0 0 0 0 0 0 0.25 0"/>
<feBlend mode="normal" in2="BackgroundImageFix" result="effect1_dropShadow"/>
<feBlend mode="normal" in="SourceGraphic" in2="effect1_dropShadow" result="shape"/>
</filter>
<filter id="filter2_d" x="22.1265" y="31.8091" width="179.114" height="236.998" filterUnits="userSpaceOnUse" color-interpolation-filters="sRGB">
<feFlood flood-opacity="0" result="BackgroundImageFix"/>
<feColorMatrix in="SourceAlpha" type="matrix" values="0 0 0 0 0 0 0 0 0 0 0 0 0 0 0 0 0 0 127 0"/>
<feOffset dx="4" dy="7"/>
<feGaussianBlur stdDeviation="2"/>
<feColorMatrix type="matrix" values="0 0 0 0 0 0 0 0 0 0 0 0 0 0 0 0 0 0 0.25 0"/>
<feBlend mode="normal" in2="BackgroundImageFix" result="effect1_dropShadow"/>
<feBlend mode="normal" in="SourceGraphic" in2="effect1_dropShadow" result="shape"/>
</filter>
<filter id="filter3_d" x="39.1988" y="56.5422" width="152.018" height="182.898" filterUnits="userSpaceOnUse" color-interpolation-filters="sRGB">
<feFlood flood-opacity="0" result="BackgroundImageFix"/>
<feColorMatrix in="SourceAlpha" type="matrix" values="0 0 0 0 0 0 0 0 0 0 0 0 0 0 0 0 0 0 127 0"/>
<feOffset dx="4" dy="7"/>
<feGaussianBlur stdDeviation="2"/>
<feColorMatrix type="matrix" values="0 0 0 0 0 0 0 0 0 0 0 0 0 0 0 0 0 0 0.25 0"/>
<feBlend mode="normal" in2="BackgroundImageFix" result="effect1_dropShadow"/>
<feBlend mode="normal" in="SourceGraphic" in2="effect1_dropShadow" result="shape"/>
</filter>
<filter id="filter4_d" x="42.7229" y="72.5181" width="136.825" height="160.03" filterUnits="userSpaceOnUse" color-interpolation-filters="sRGB">
<feFlood flood-opacity="0" result="BackgroundImageFix"/>
<feColorMatrix in="SourceAlpha" type="matrix" values="0 0 0 0 0 0 0 0 0 0 0 0 0 0 0 0 0 0 127 0"/>
<feOffset dx="4" dy="7"/>
<feGaussianBlur stdDeviation="2"/>
<feColorMatrix type="matrix" values="0 0 0 0 0 0 0 0 0 0 0 0 0 0 0 0 0 0 0.25 0"/>
<feBlend mode="normal" in2="BackgroundImageFix" result="effect1_dropShadow"/>
<feBlend mode="normal" in="SourceGraphic" in2="effect1_dropShadow" result="shape"/>
</filter>
<filter id="filter5_d" x="48.8313" y="93.6627" width="125.861" height="136.223" filterUnits="userSpaceOnUse" color-interpolation-filters="sRGB">
<feFlood flood-opacity="0" result="BackgroundImageFix"/>
<feColorMatrix in="SourceAlpha" type="matrix" values="0 0 0 0 0 0 0 0 0 0 0 0 0 0 0 0 0 0 127 0"/>
<feOffset dx="4" dy="7"/>
<feGaussianBlur stdDeviation="2"/>
<feColorMatrix type="matrix" values="0 0 0 0 0 0 0 0 0 0 0 0 0 0 0 0 0 0 0.25 0"/>
<feBlend mode="normal" in2="BackgroundImageFix" result="effect1_dropShadow"/>
<feBlend mode="normal" in="SourceGraphic" in2="effect1_dropShadow" result="shape"/>
</filter>
</defs>
</svg>
