<svg fill="none" height="310" viewBox="0 0 233 310" width="233" xmlns="http://www.w3.org/2000/svg" xmlns:xlink="http://www.w3.org/1999/xlink"><filter id="a" color-interpolation-filters="sRGB" filterUnits="userSpaceOnUse" height="310" width="231.976" x=".512054" y="0"><feFlood flood-opacity="0" result="BackgroundImageFix"/><feColorMatrix in="SourceAlpha" type="matrix" values="0 0 0 0 0 0 0 0 0 0 0 0 0 0 0 0 0 0 127 0"/><feOffset dx="4" dy="7"/><feGaussianBlur stdDeviation="2"/><feColorMatrix type="matrix" values="0 0 0 0 0 0 0 0 0 0 0 0 0 0 0 0 0 0 0.25 0"/><feBlend in2="BackgroundImageFix" mode="normal" result="effect1_dropShadow"/><feBlend in="SourceGraphic" in2="effect1_dropShadow" mode="normal" result="shape"/></filter><filter id="b" color-interpolation-filters="sRGB" filterUnits="userSpaceOnUse" height="280.323" width="207.162" x="7.54846" y="22.3922"><feFlood flood-opacity="0" result="BackgroundImageFix"/><feColorMatrix in="SourceAlpha" type="matrix" values="0 0 0 0 0 0 0 0 0 0 0 0 0 0 0 0 0 0 127 0"/><feOffset dx="4" dy="7"/><feGaussianBlur stdDeviation="2"/><feColorMatrix type="matrix" values="0 0 0 0 0 0 0 0 0 0 0 0 0 0 0 0 0 0 0.25 0"/><feBlend in2="BackgroundImageFix" mode="normal" result="effect1_dropShadow"/><feBlend in="SourceGraphic" in2="effect1_dropShadow" mode="normal" result="shape"/></filter><filter id="c" color-interpolation-filters="sRGB" filterUnits="userSpaceOnUse" height="236.998" width="179.114" x="22.1265" y="31.8091"><feFlood flood-opacity="0" result="BackgroundImageFix"/><feColorMatrix in="SourceAlpha" type="matrix" values="0 0 0 0 0 0 0 0 0 0 0 0 0 0 0 0 0 0 127 0"/><feOffset dx="4" dy="7"/><feGaussianBlur stdDeviation="2"/><feColorMatrix type="matrix" values="0 0 0 0 0 0 0 0 0 0 0 0 0 0 0 0 0 0 0.25 0"/><feBlend in2="BackgroundImageFix" mode="normal" result="effect1_dropShadow"/><feBlend in="SourceGraphic" in2="effect1_dropShadow" mode="normal" result="shape"/></filter><filter id="d" color-interpolation-filters="sRGB" filterUnits="userSpaceOnUse" height="182.898" width="152.018" x="39.1988" y="56.5422"><feFlood flood-opacity="0" result="BackgroundImageFix"/><feColorMatrix in="SourceAlpha" type="matrix" values="0 0 0 0 0 0 0 0 0 0 0 0 0 0 0 0 0 0 127 0"/><feOffset dx="4" dy="7"/><feGaussianBlur stdDeviation="2"/><feColorMatrix type="matrix" values="0 0 0 0 0 0 0 0 0 0 0 0 0 0 0 0 0 0 0.25 0"/><feBlend in2="BackgroundImageFix" mode="normal" result="effect1_dropShadow"/><feBlend in="SourceGraphic" in2="effect1_dropShadow" mode="normal" result="shape"/></filter><filter id="e" color-interpolation-filters="sRGB" filterUnits="userSpaceOnUse" height="160.03" width="136.825" x="42.7229" y="72.5181"><feFlood flood-opacity="0" result="BackgroundImageFix"/><feColorMatrix in="SourceAlpha" type="matrix" values="0 0 0 0 0 0 0 0 0 0 0 0 0 0 0 0 0 0 127 0"/><feOffset dx="4" dy="7"/><feGaussianBlur stdDeviation="2"/><feColorMatrix type="matrix" values="0 0 0 0 0 0 0 0 0 0 0 0 0 0 0 0 0 0 0.25 0"/><feBlend in2="BackgroundImageFix" mode="normal" result="effect1_dropShadow"/><feBlend in="SourceGraphic" in2="effect1_dropShadow" mode="normal" result="shape"/></filter><filter id="f" color-interpolation-filters="sRGB" filterUnits="userSpaceOnUse" height="136.223" width="125.861" x="48.8313" y="93.6627"><feFlood flood-opacity="0" result="BackgroundImageFix"/><feColorMatrix in="SourceAlpha" type="matrix" values="0 0 0 0 0 0 0 0 0 0 0 0 0 0 0 0 0 0 127 0"/><feOffset dx="4" dy="7"/><feGaussianBlur stdDeviation="2"/><feColorMatrix type="matrix" values="0 0 0 0 0 0 0 0 0 0 0 0 0 0 0 0 0 0 0.25 0"/><feBlend in2="BackgroundImageFix" mode="normal" result="effect1_dropShadow"/><feBlend in="SourceGraphic" in2="effect1_dropShadow" mode="normal" result="shape"/></filter><g filter="url(#a)"><path d="m176.012 240.187v7.048l-5.717 25.217-5.168 24.59-3.446-1.723-2.741-4.464-7.675.392 12.139-19.343.313-1.567-4.777-2.427-.705-1.097h-1.488l-1.488-1.566-1.801.392-1.723-2.193-2.349-1.88h-3.055v1.018h-1.253l-.626 1.958-2.976.313h-2.115l-.861-1.409-1.331-1.88h-2.585l-3.367-.313-1.958 3.289-1.096-1.488-2.898 1.018-1.175 1.567-2.349.704-3.054-1.488h-2.506l-4.777.47-1.332-1.253-1.566-.391h-1.879v-2.428l.704-1.175v-2.036-2.428l-1.801-1.566h-2.819l-2.036-1.331 1.253-3.289-2.1931-1.723-.3915-1.958-1.4097-1.41-3.2108-.313-1.0964-1.331-1.253-1.566h-1.3313l-.3133-1.175-1.4096 1.175-2.6627-1.802-.3915-1.879.3915-.94-1.1747-1.645v-1.879l-1.4879-2.271-2.5844-1.801-2.7409-.783v-1.019l-.4699-1.801-1.253.392-2.0362-.392-3.1325-1.723-1.6446-.313-2.4277.627h-2.1144l-3.7591-2.741h-1.9578l-2.1928-.314-2.0361-1.331-.3133-1.331-2.5843-1.801-3.6024-1.723-1.7229 1.723-1.0181 2.349h-2.2711l-2.6626-.548h-3.4458-3.6024v-2.193h-2.1928l-3.6024.392-.8614-3.368.8614-1.801h-2.1144l-1.3314-1.41-1.6445-2.114-2.4278.783-3.6807-1.723-2.2711-1.566-2.3494-.783-.9397-.94-2.11448-1.723-1.40964-1.253h-1.48795l-1.09639-1.331-1.56626-1.802-.78314-1.018-1.33132-1.096h-1.566266l.548196-1.801.54819-2.036 2.19277-1.253h.86145 1.87951l1.40964.783 1.40964-.314.39157-1.722-1.40964-1.802-1.01807-2.114v-1.958l1.01807-2.036.62651-2.506 1.40961-1.488 1.0181-1.645 1.253-.548h1.8012l2.5844-1.018v.627l1.3313.391h1.8795l.6265 1.018 1.5663-1.018 1.0964-1.409 1.4096-.47v-1.018l1.5663-1.488-1.5663-1.488 1.253-2.036h1.0181l.6265-1.488 1.1747-.235h1.253v-1.175l-1.0181-.313.3133-.94 1.0964-.94h1.253v-1.175l1.5662-.234.8615-1.097-.3916-1.175 1.1747-.469v-1.097l1.4097-.548-1.4097-1.488h2.6627v-1.018l.6265-.548.4698-.783-.4698-.549-1.3314-.469-.3132 1.409-2.8193.392-.7048-.783v-.783h2.3494l.6265-1.802-1.4096-1.174-1.3314 2.427-1.5662.314-1.253-1.332v-1.409l-1.0964-.627v-1.879l1.6445-1.567 1.2531-.626.4698-1.88.3133-1.331v-1.096l1.1747-1.88-1.1747-.548v-2.036l-.7831-2.35.7831-1.801-.7831-.156v-2.507l.4698-.234v-.862l-.4698-.391-.3133-1.097v-1.096l-.9398-.47h-1.6445v-.47l1.1747-1.723h.4698l.9398-.235.7831.705 2.3494-2.036.3916-1.331-.8614-.627-.3916-2.193-1.0181-2.036-1.8012-1.723v-2.897l2.1928 1.566v-2.741l.3916-1.801.2349-1.88-1.0181-1.879v-1.253h-1.5662l-.235.235-1.0964.548-.2349-1.958-1.1747-1.3314-1.4096.235v-1.488l1.018-1.3313-1.3313-1.5663-.3916-1.018-1.7229-.1567-.2349-.9397-1.1747-1.5663 2.0361-3.9156 1.2531-1.4097v-2.1144l1.0963-.7049 1.7229 1.488.3133 2.0361 1.0964-1.253 2.0361-1.5662 1.4097-1.8013v-1.7228l3.1325-1.0181-1.7229-3.2892-.8614-2.0361-1.1747-3.9157v-5.0903l4.7771 4.5421 2.8192 4.4639 3.6024 2.9759-.7831.4699v1.3313h1.7229l1.488-4.7771-2.4278-3.9157-2.5843-.5482v-1.8012l5.9518-3.2108 5.6386-3.4458 3.3674-3.6807 2.1145-3.0542 2.6627-1.8012 2.506 1.0963 4.1506-1.7229v-3.0542-4.7771l.4699-5.5602 2.5843-6.8916 4.7771-4.8554 7.3615-1.7229h2.5843l2.3494 4.2289 3.9156-1.3313 1.9579-2.8976 1.1747-6.5783h2.7409l1.4096 1.5663 6.657 1.3313h2.506 6.108l6.892-7.5181 7.283-3.75903 5.638-6.34337h3.525l3.993-3.5241 5.952 1.64458 4.542 2.66265-1.253 5.01205-4.62 2.97592h-6.892l-4.15 1.3313-4.151 8.4578h-3.367l-5.795 6.4217-5.247 5.4036-2.35 5.7952 1.175 5.9518-3.446 9.1627-3.837 1.0964 1.488 1.7229 5.247-1.0964.548 1.0964h3.367v3.2108l1.018 3.4458 3.681 3.994 2.036 4.4638v3.994l-2.036 3.759 1.253 7.4398 2.115.7048v2.8976l4.072 3.5241 4.464 1.6446h4.699l4.385.6265 5.012-.6265h2.35l5.325-1.0181 3.837.5482 3.133 1.0964 2.584-.6265 13 15.6631 3.211.783 2.819-1.802h5.56l1.958 1.019h3.211 2.819l1.645-2.037 4.62 1.018 2.428-1.018h4.699l4.542 1.018v1.802l1.41 2.271-2.898 3.132-2.506 1.097-.548 5.638-1.488 1.097-2.271 2.036 1.41 3.915-3.133 5.326-.705 3.524.705 2.819-.705 2.663 2.428 2.819 1.41 5.482h2.897l3.054 5.873-.548 3.055-2.506.704-7.675 7.832h2.428 2.35l.861 2.584 1.488-.548 1.801 2.819 2.741 3.368v2.506l1.41 1.331.783 3.797.861 3.564 1.175 4.073 1.488 2.976v3.054h-3.524l-.783-1.097v-4.15-4.307l-1.88-3.838-2.271-4.072-3.289 1.801-4.699 3.446-2.584 2.114-2.428-2.114v-1.645l-1.723-.783-1.644 2.428 2.349 2.114h-15.584l-7.362-.939h-5.952l-3.289 2.976v3.994 4.072h2.115 3.602l4.777.94 2.585 3.289-.47 4.542-3.368 1.018-1.644-2.036-2.35-.705-3.132 2.741-6.97.705v12.765l8.144 5.169-1.174 4.542z" fill="#f3e8cb"/></g><g filter="url(#b)"><path d="m166.508 231.611v5.992l6.372 8.847-3.838 20.205-.204 7.632-2.693 9.44-1.958 7.988-2.428-2.741-5.482-.47 2.898-6.03 6.108-12.843-2.976-2.428-6.521-8.627.266-1.332-4.062-2.064-.599-.932h-1.265l-1.266-1.332-1.531.333-1.466-1.864-1.997-1.598h-2.597v.866h-1.066l-.533 1.664-2.53.266h-1.798l-.733-1.198-1.132-1.598h-2.198l-2.863-.266-1.665 2.796-.932-1.265-2.464.866-.999 1.331-1.998.599-2.597-1.265h-2.131l-4.062.4-1.132-1.065-1.332-.333h-1.598v-2.064l.599-.999v-1.731-2.064l-1.532-1.332h-2.397l-1.732-1.132 1.066-2.796-1.865-1.465-.333-1.664-1.198-1.199-2.7307-.266-.9323-1.132-1.0655-1.332h-1.1321l-.2663-.998-1.1987.998-2.2642-1.531-.333-1.598.333-.799-.9989-1.398v-1.598l-1.2653-1.931-2.3865-2.084h-3.9157l-3.6024-.94v-1.636l-6.9699-5.527-9.3976-.466-3.3621-2.996-1.4651 1.465-.8657 1.997h-1.9312l-2.2642-.466h-2.9301-3.0633v-1.864h-1.8646l-3.0633.333-.7326-2.863.7326-1.531h-1.7981l-1.1321-1.199-1.3984-1.797-2.0644.665-12.8526 1.704-1.9312-1.332-1.9978-.666-.7992-.799-1.798-1.464-1.1987-1.066h-1.2653l-.9323-1.131-1.3318-1.532-.666-.865-1.13207-.932h-1.33187l.46616-1.532.46615-1.731 1.86463-1.065h.7325 1.5983l1.1987.666 1.1986-.267.333-1.465-1.1987-1.531-.8657-1.798v-1.664l.8657-1.731.5328-2.131.3996-3.907.8657-1.398 1.0655-.466h1.5317l2.1976-.866v.533l1.1321.333 5.061-1.732.5328.866 1.3318-.866.9324-1.198 1.1986-.4v-.865l1.3319-1.265 1.6305-6.468 5.495-2.975 5.7821-8.615-1.9578-1.331-2.1928-2.506-4.7771-3.994v-3.211l.3916-1.801 1.4222-2.782v-.932l.9989-1.598-.9989-.466v-1.731l-.666-1.998.666-1.531-.666-.133v-2.131l.3996-.2v-.732l-.3996-.333-.2664-.932v-.932l-.7991-.4h-1.3984v-.399l.9989-1.465h.3995l.7991-.2.666.6 1.9978-1.731.333-1.132-.7326-.533-.3329-1.864-.8658-1.731-1.5316-1.465v-2.464l1.8646 1.332v-2.33l.333-1.532.1998-1.598-.8658-1.598v-1.065h-1.3318l-.1998.2-.9323.466-.1998-1.665-.9989-1.131-1.1987.199v-1.265l.8657-1.1316-1.1321-1.3316-.3329-.8655-1.4651-.1332-.1998-.799-.9989-1.3316 1.7315-3.329 1.0655-1.1985v-1.7976l.9323-.5993 1.465 1.2651.2664 1.7311.9323-1.0653 1.7314-1.3316 1.1987-1.5314 1.7881-.9155h4.6988 6.8133l4.8554-1.8012-.6265-3.7591v-4.6432l3.1325-2.6399 1.7917-3.5241v-2.7683l2.2641-1.5313 2.131.9321 3.7181-5.6385 2.131-9.0872v-4.0614l.3996-4.7273 2.1976-5.8591 4.0622-4.128 6.2598-1.4647h2.1976l1.9978 3.5953 3.3297-1.1319 1.6648-2.4634.9989-5.5928h2.3308l1.1987 1.3316 5.6602 1.1319h2.131 5.195l5.86-6.3918.599 6.3918-6.459 5.5927-4.202 4.8582 4.202 5.3287.998 5.0601-7.001 6.3703 7.001 6.6566 2.318 4.2289 3.143 3.3675-2.397 5.2319.466.9321h2.863v2.7299l.866 2.9295 3.13 3.3956 1.732 3.7951v3.3956l-1.732 3.1959 1.066 6.3254 1.798.599v2.463l3.462 2.997 3.796 1.398h3.996l3.729.532 4.262-.532h1.998l4.528-.866 3.263.466 2.664.932 2.198-.532 11.054 13.316 2.731.666 2.397-1.532h4.728l1.665.866h2.73 2.398l1.398-1.731 3.929.865 2.065-.865h3.995l3.863.865v1.532l1.198 1.931-2.464 2.663-2.597 6.253v5.403l2.302 9.241 3.994 7.362 1.41 4.464-3.843 6.265v7.518 8.423l1.198 1.132h-3.529-4.242l-3.995 2.929-2.198 1.798-2.064-1.798v-1.398l-1.465-.666-1.399 2.064 1.998 1.798h-13.252l-4.815.732h-5.061l-2.797 2.53v3.396 3.462h1.798 3.063l-.903 4.18 5.964 1.147-.399 3.861-2.864.866-1.398-1.731-2.464 2.514-6.926-1.649v4.547 6.04l6.926 4.394-.999 3.862z" fill="#c1dd9b"/></g><g filter="url(#c)"><path d="m157.988 220.799v5.126l5.446 7.568v7.469l4.199 8.074-2.428 8.771-4.997-7.832-6.716-3.994-4.668-2.114.228-1.14-3.472-1.765-.512-.798h-1.082l-1.081-1.139-1.309.285-1.252-1.595-1.708-1.367h-2.22v.741h-.91l-.456 1.424-2.162.227h-1.537l-.626-1.025-.968-1.367h-1.878l-2.448-.228-1.423 2.393-.796-1.083-2.106.741-.854 1.139-1.708.513-2.219-1.083h-1.822l-3.472.342-.967-.911-1.139-.285h-1.366v-1.766l.513-.854v-1.481-1.766l-1.309-1.139h-2.049l-1.48-.968.91-2.392-1.593-1.253-.285-1.424-1.024-1.025-3.6215-5.324-3.6807-2.976v-5.598l-3.1326-6.15 1.1747-5.071 1.9579-5.696v-3.955l-4.7771 3.955h-6.0302l-6.8132 1.527-5.4036 3.201-5.1336 4.5-1.2522 1.253-.7399 1.708h-1.6506l-1.9352-.398h-2.5044-2.6182v-1.595h-1.5936l-2.6182.285-.6261-2.45.6261-1.31h-1.5368l-.9676-1.025-1.1953-1.538-1.7644.57-10.985 1.457-1.6506-1.139-1.7076-.57-.683-.683-1.5367-1.253-1.0245-.911h-1.0815l-.7968-.969-1.1384-1.31-.5691-.74-.9676-.798h-1.1384l.3984-1.31.3985-1.481 1.5937-.911h.626 1.3661l1.0245.57 1.0245-.228.2846-1.253-1.0245-1.31-.74-1.538v-1.424l.74-1.481.4553-1.823.3416-3.342.7399-1.196.9107-.399h1.309l1.8783-.741v.456l.9676.285 5.1697-1.243 5.0185-2.819v-6.5-5.169l1.7164-3.133 3.2354-1.644-2.6751-7.127-1.7645-5.952-2.2198-5.325v-6.657l1.7076-2.349-1.7076-6.97v-7.283-3.446-6.657l.9107-1.025v-1.5378l.7969-.5126 1.2521 1.0822.2277 1.4812.7969-.9117 1.4798-1.1391 1.0245-1.31v-1.2531l2.2767-.7405-1.2522-2.3922 3.1143-1.0822 4.8541 4.4427.2846-1.5948h4.3827l-1.7645-2.8479-1.8782-.3987v-1.31l4.3257-2.3353.8633-2.7429 2.4474-2.6771 1.5368-2.2213 1.9352-1.3101 1.8213.7975 3.1778-4.8237-2.8458-8.7138v-3.4745l.3415-4.044 1.8782-5.0122.6261-8.6428 5.3503-1.2531h1.8782l-.4723-1.8507 2.1928-4.7845 5.1096 1.8508h1.9921l1.0245 1.1391 1.8214-2.9899h1.8214 4.4391l5.009-5.4679.512 5.4679-5.521 4.7845 2.272 13.2256 3.591 4.5585.854 4.3288-5.984 5.4495 10.651 6.6346 1.981 3.6178 2.686 2.8807-2.049 4.4758.398.7974h2.448v2.3353l.74 2.5061 2.675 2.9049 1.48 3.2466v2.9049l-1.48 2.734.911 5.411 1.536.512v2.108l2.96 2.563 3.244 1.196h3.415l3.188.456 3.642-.456h1.708l3.87-.74 2.789.398 2.277.798 1.878-.456 9.449 11.392 2.333.569 2.049-1.31h4.041l1.423.741h2.334 2.049l1.195-1.481 8.538 2.618v3.916l4.326 4.543 3.151 11.355-2.271.94-1.905 3.132v8.38l1.905 2.271 2.271 7.44v1.958l-4.176 4.595v1.822l1.025.969h-3.017-3.625l-3.415 2.506-1.879 1.538-4.335 2.117-9.496-2.117-4.115.626h-4.326l-2.39 2.165v2.904 2.962h1.536 2.619l-.772 6.483 5.097.98-.341 3.304-2.448.74-1.195-1.481-2.106 2.151-5.919-1.41v.983 5.167l5.919 3.759-.854 3.304z" fill="#356740"/></g><g filter="url(#d)"><path d="m68.8795 193.355-4.6205 3.994-4.3072-1.174-7.5181-2.82-1.4096-5.795h-11.8253v-7.205l2.2711-6.03 9.5542-4.307 5.4819-8.066 2.2711-3.446v-18.169l-4.3072-7.753-2.0362-8.692-1.4096-5.169-1.488-7.205 2.8976-10.65h9.5543l6.8915-4.621h11.5121v-7.2048-8.0663l-1.7229-2.271-1.7229-13.8615 5.7169-6.0301 9.2409-2.2711 3.4458 10.6506 3.4458 10.0241 4.3068 8.0663 7.832 7.2048 5.168 15.271 4.621 10.651 5.482 5.482-7.518 10.963-2.585 8.067 7.205 2.897h1.723l6.657-16.759 5.168-6.578h10.025l9.24 10.102 10.964 2.271h11.826l4.307 5.482v10.964l-4.307 10.651v8.066l-8.067 6.03h-8.692-10.886l-4.385 7.753v9.554l-2.82 8.928 2.82 10.338 4.385 3.445-4.385 5.482-5.717 6.892h-13-7.44l-6.892-6.892-5.247-15.584v-16.681l2.35-8.928v-10.337l-2.35-3.524-5.482 5.247-4.3068 4.307-3.4458 7.753h-3.4458l-9.2409 5.482-5.7169 4.072z" fill="#539882"/></g><g fill="#a2896d" filter="url(#e)"><path d="m83.5241 90.5301v-8.2228l-1.1747-9.7892h5.7169v11.6687l9.9458 8.7711v8.1441l8.7709 8.145 7.988 4.699 3.054 6.343 3.916 3.054-5.56 5.717-4.307 9.241-1.802 4.699-1.801 7.753v5.874 5.56l-3.524 3.837-3.681 2.663-3.0539 2.662-3.2109 6.5-3.6807 3.055-5.5603 1.644-5.7168 4.934h-3.6807l-4.6988 3.837h-4.229l-3.0542 2.271h-5.1686l-3.2109-3.68h-2.0361v-2.428l-2.5061-3.289h-3.8373-4.6988l2.6627-6.344 4.6987-3.68 5.7169-2.82 4.8554-6.735 2.4277-4.933 1.0964-6.109v-10.572l-2.1144-5.952v-4.699l-1.4097-5.09-2.8192-5.717-2.0362-7.596v-7.127-3.445h6.2651l6.5783-2.272 5.4819-1.6441h3.5241 5.8735v-4.229z"/><path d="m135.211 147.072-1.253 2.428-7.988 4.072h-4.229l-.47 7.597.47 7.518 6.5 9.162 2.036 6.344-5.717 4.699-6.735 4.698v10.181 11.904l7.127 5.873h9.006l1.253-5.873 2.193-14.332 3.915-6.108v-12.687l1.41-8.379 2.663-5.482 8.536-5.717h11.277l6.343-5.325v-8.145-4.699l-7.205-4.072-5.716-2.428h-6.735l-6.5-5.952h-5.482l-2.506 8.38z"/></g><g fill="#ffbd3a" filter="url(#f)"><path d="m66.6868 153.807v-3.132l-.8615-5.874-.8614-3.602 1.7229-5.169v-7.361l3.0542-1.018-2.0362-8.693-5.4819-3.759-2.1145-7.362 4.8555-.783h3.2891l9.006-2.584 5.0121-.783h4.1506l1.4879-4.1508 1.0964-5.8735 4.7771 1.253v6.2653l1.8012 6.656v6.265l-1.8012 4.386-3.8373 5.873-3.5241 3.29-3.3675 5.247-1.5662 5.247v7.909 5.482l1.5662 6.578-1.5662 6.266v5.012l-3.5241 5.716-3.994 8.145-3.3675.861-6.4217 3.681h-6.3433l-2.6627-2.897-2.2711-4.151h-3.1325l-.9398-1.331 6.3434-4.934 4.9337-4.229 2.1145-3.524 1.9578-4.386 2.5061-4.229z"/><path d="m86.4217 174.482 2.5843 1.879 4.7771-4.777 2.5061-7.204 2.1144-3.916 2.8974-5.404v-5.09-5.169l3.133-5.168 4.777-5.717v-6.265l3.367-2.271 2.115-2.115-4.621-4.307-2.584-3.759-4.072-2.819h-3.4461v2.819l-.7831 5.56-.7832 6.892-1.253 3.367-3.3675 5.795-4.7771 9.241-1.0964 6.5 1.0964 7.048-1.0964 6.265-1.4879 3.525z"/><path d="m126.596 165.241-.704-7.127 5.09-3.054 3.132-1.253 4.308-2.271 2.741-11.277 3.524-2.114 4.62 3.054 4.151 3.602 7.283 1.253 4.072 1.018 1.88 8.615-6.735 3.915-7.753.862h-4.777l-4.229 4.777-2.819 4.151-.705 5.09-1.253 3.916-1.018 2.897h-3.29l-1.253-6.813-3.445-2.898z"/><path d="m126.596 191.554-5.873 4.542.548 5.326v5.325l-.548 5.247 1.253 5.482 4.62 1.41h5.561v-4.151l.704-7.362 2.272-7.831 1.174-5.09 1.097-2.898-1.097-3.759h-5.325z"/></g></svg>