<svg fill="none" height="112" viewBox="0 0 308 112" width="308" xmlns="http://www.w3.org/2000/svg" xmlns:xlink="http://www.w3.org/1999/xlink"><filter id="a" color-interpolation-filters="sRGB" filterUnits="userSpaceOnUse" height="111.432" width="308" x="0" y="0"><feFlood flood-opacity="0" result="BackgroundImageFix"/><feColorMatrix in="SourceAlpha" type="matrix" values="0 0 0 0 0 0 0 0 0 0 0 0 0 0 0 0 0 0 127 0"/><feOffset dy="4"/><feGaussianBlur stdDeviation="2.5"/><feColorMatrix type="matrix" values="0 0 0 0 0 0 0 0 0 0 0 0 0 0 0 0 0 0 0.25 0"/><feBlend in2="BackgroundImageFix" mode="normal" result="effect1_dropShadow"/><feBlend in="SourceGraphic" in2="effect1_dropShadow" mode="normal" result="shape"/></filter><filter id="b" color-interpolation-filters="sRGB" filterUnits="userSpaceOnUse" height="104.591" width="287.773" x="13.3855" y="3.9165"><feFlood flood-opacity="0" result="BackgroundImageFix"/><feColorMatrix in="SourceAlpha" type="matrix" values="0 0 0 0 0 0 0 0 0 0 0 0 0 0 0 0 0 0 127 0"/><feOffset dy="4"/><feGaussianBlur stdDeviation="2.5"/><feColorMatrix type="matrix" values="0 0 0 0 0 0 0 0 0 0 0 0 0 0 0 0 0 0 0.25 0"/><feBlend in2="BackgroundImageFix" mode="normal" result="effect1_dropShadow"/><feBlend in="SourceGraphic" in2="effect1_dropShadow" mode="normal" result="shape"/></filter><filter id="c" color-interpolation-filters="sRGB" filterUnits="userSpaceOnUse" height="97.0551" width="261.399" x="24.5896" y="6.44485"><feFlood flood-opacity="0" result="BackgroundImageFix"/><feColorMatrix in="SourceAlpha" type="matrix" values="0 0 0 0 0 0 0 0 0 0 0 0 0 0 0 0 0 0 127 0"/><feOffset dy="4"/><feGaussianBlur stdDeviation="2.5"/><feColorMatrix type="matrix" values="0 0 0 0 0 0 0 0 0 0 0 0 0 0 0 0 0 0 0.25 0"/><feBlend in2="BackgroundImageFix" mode="normal" result="effect1_dropShadow"/><feBlend in="SourceGraphic" in2="effect1_dropShadow" mode="normal" result="shape"/></filter><filter id="d" color-interpolation-filters="sRGB" filterUnits="userSpaceOnUse" height="84.909" width="245.138" x="38.3221" y="14.0299"><feFlood flood-opacity="0" result="BackgroundImageFix"/><feColorMatrix in="SourceAlpha" type="matrix" values="0 0 0 0 0 0 0 0 0 0 0 0 0 0 0 0 0 0 127 0"/><feOffset dy="4"/><feGaussianBlur stdDeviation="2.5"/><feColorMatrix type="matrix" values="0 0 0 0 0 0 0 0 0 0 0 0 0 0 0 0 0 0 0.25 0"/><feBlend in2="BackgroundImageFix" mode="normal" result="effect1_dropShadow"/><feBlend in="SourceGraphic" in2="effect1_dropShadow" mode="normal" result="shape"/></filter><filter id="e" color-interpolation-filters="sRGB" filterUnits="userSpaceOnUse" height="80.3976" width="167.205" x="114.074" y="16.5087"><feFlood flood-opacity="0" result="BackgroundImageFix"/><feColorMatrix in="SourceAlpha" type="matrix" values="0 0 0 0 0 0 0 0 0 0 0 0 0 0 0 0 0 0 127 0"/><feOffset dy="4"/><feGaussianBlur stdDeviation="2.5"/><feColorMatrix type="matrix" values="0 0 0 0 0 0 0 0 0 0 0 0 0 0 0 0 0 0 0.25 0"/><feBlend in2="BackgroundImageFix" mode="normal" result="effect1_dropShadow"/><feBlend in="SourceGraphic" in2="effect1_dropShadow" mode="normal" result="shape"/></filter><g fill="#f3e8cb" filter="url(#a)"><path d="m9.95758 42.247-4.95758-1.7351 1.38812-2.3796 3.02412.3966 3.66866-1.636 4.9575-1.8839v.8428h1.7848l.7436-1.289 2.4788 2.3301v-1.8839l-.7437-1.8839-.8427-1.1898-1.636-2.2309v-1.7848l1.636-2.9249 1.5864-1.5369 1.1898-1.983h1.636v-1.7847h1.636l2.925-2.1318 2.7266-1.0907 3.7678-1.6855 2.6771-1.1403h2.1813l1.4873-1.5368h1.6856l.5949-1.4377 2.2805-.5949 1.3881.5949.7436-.5949 3.0737-1.88391 3.3712-.44618 3.8173.44618 2.4292-.94194h4.561l5.0072-.74364 1.636-1.4377 4.2139-1.636h3.8173l2.7267-.99151 3.3216 1.4377 7.5851.49575 3.272 1.14025.7932 1.33854 3.2724-1.33854 3.569-1.14025 4.016-1.93345v.99151l-1.934.94194-1.388 1.53685 1.388 2.28049h1.934l.942-1.68558 1.784-.99151h2.132l-.496 1.73515 4.908-.39661h2.38l2.132-.34703 1.09 1.2394 1.339 2.33009h1.636l1.983.9419 1.091-.5949 1.735 1.7351 2.826-.7436.892-1.3385 2.38.9419 1.834 2.1318h1.686l1.338 2.0821h2.578l2.231 1.0411 1.636.8924 2.181 3.5199 1.686 2.925 4.561 2.4292 1.933 1.3385h4.66 6.991 1.487v.9915l1.289.6445 1.289-1.636 3.173 1.636 2.627 2.0326 2.975 1.3386 1.289 1.4377 2.677.4957 1.636 1.5369 3.619.5949 1.19 2.8754 1.784 2.8754 1.735-1.3882 2.43 1.3882.595 1.8343 2.181.8923 3.123.5949h3.123l-2.677-1.4872-2.677-1.8343 1.041-2.3301 2.083 2.3301 3.916 2.2805 7.089 4.5609 3.025 2.9746 2.181 1.983 1.785.6445 2.032 1.5864 4.313.4462.744 2.4788h7.486l2.627 1.1898 2.43 1.1898.644 2.578h3.322l1.437-.7437 3.124-.7436h2.974l1.686 1.8839 1.19-.3966 1.983 1.2889v2.5284l-1.19 2.0822 1.735 1.2394.446 1.3881 1.438 1.5864h2.528l1.636.4462 1.884-.4462 2.875 1.2394h1.884l2.777-.2974 2.875 1.1402 2.479.8428 2.479-.4462v1.5369l1.239 1.4872 2.181 1.4873 1.934 3.1729h2.181l1.586 1.5368 3.471-.4958 3.47 1.0907.595 2.578-2.528 1.8343-.843 1.5864-.694.9419-1.934-.9419-6.544 1.5864h-6.048l-1.438 2.1318-1.586 1.0411-3.917 2.0326h-2.875l1.388-2.0326v-1.7848h-1.388v2.5284l-2.231.5949-3.272.6941-2.231-.6941-2.528 1.1898-2.33-1.1898-2.677-.5949-3.818-.7436-3.966.7436-5.403-.7436-8.428 1.3385h-3.223l-5.503.6941-.991 1.4372h-6.048-6.049l-3.123 1.686h-6.99l-1.884-1.091 1.884-2.0322 1.487-3.0737 4.016-4.0157 6.197-3.1232 2.032-1.9831 1.785-3.8669-1.785-2.0326-3.619-.4462 1.587-2.5283-1.587-.8924-2.28-1.1402-3.768 1.1402-4.065-.4462h-2.925l-2.826-.694-1.884.694-3.569-.694-3.619-1.6856-1.636-3.2225-3.124-1.5864h-1.338l-1.289-2.7266h-1.19v-2.3797l-1.735-3.0241v-2.5779l-.892-2.7763-.645-2.4788-2.528-2.2309-2.578-1.5864-3.173.4462h-3.173l-2.132.5949-2.578 1.289-4.015-1.289-2.925-1.0411-1.636-.4462-1.686.4462-2.181-1.636h-1.636l-2.231-1.3881-1.735.7932-1.339-1.8839-3.47.5453v-1.9334h-2.528l-4.908-2.1814-1.587-2.0821-1.338-1.7352-1.438-1.3385h-2.231-4.313l-6.445.3966-5.304-1.8839-.744-2.0822v-3.0737h-1.19v1.4873 2.2309 2.1813l-.942-2.1813-1.338 1.4377h-1.983l-.942-2.0822h-1.736l-1.5364-.9915-2.2805.9915-1.7847-.9915-2.2309.5949-2.6276-1.1898-1.041-1.4873h-1.6856l-1.4377-1.2394-2.5284-.9915-2.0822-.7436v-1.4377l2.0822-1.0411h8.0313l3.5199-1.5369.4462-1.983-1.636-1.2394-3.6687-1.4377-6.0482.3966-9.469-1.636-4.1148.6445-2.33-.6445-3.0241-.3966-.3967 2.0326-1.8343 1.0411-1.7351 1.2394-1.8839.4462-1.3881.8923h-2.0326v1.6856l-1.4873 2.9746h-1.8839l-.6445-.5454-.7436 1.289-2.4292 3.272-2.2805.4462h-2.7762l-.8924-2.2309-2.3301 2.8258-2.9249-.5949-4.8585.5949-1.6855 3.3216 1.2394.4957-1.8343 2.6275-2.4788-.4461-1.636 1.2394-3.7182.7436-3.5199 3.0737h-1.8839v-3.0737l1.0411-1.5369-1.8343-.4461-5.1559 1.2394z"/><path d="m66.4244 41.553-2.0822-.5453-.8924-.4958-3.2224-.7436-2.4292 2.2309-1.3881 1.5864.9915 2.9745 1.636 1.9831.4958 1.2394v1.2394l-1.7352.7436-1.983-.9915-2.7763-1.5864 1.3882 2.5779.8427 1.289 3.1729 1.1402h3.272 2.6275l2.0822-.7932 4.2139-1.636.3966-1.636-1.7847-.9419v-2.0327l2.5284-.9915-2.5284-.9419-1.6856-1.636v-1.5864z"/><path d="m205.038 39.8674-.843 1.4377-1.586-.4958v-.9419l-1.438-.5453-.644-.7437v-.9419l-1.24.2975h-1.14l-1.14-.6941v-1.7352l.248-.9915-1.19.1488-1.487-1.2394-1.041-.6445 1.041-.9915-1.438-.7437-.496-1.0411v1.0411l-1.338-1.0411-1.636-1.5616v1.0659l-1.587-.7932v-.942l-.991-1.2394h-.843l-1.686-.6445-.644-.2974h-1.537l-1.636.5453-.991-.8428-1.934-.8923-1.239-.3471-.446-.694 1.041-.9915 1.933.5453h2.033l2.181-.5453 2.033-.5454 1.735 2.2309.991 1.8343 1.24-1.0411 1.14 1.0411h1.289 1.388l.397 2.4788.694 1.636 1.041-.4957v1.2394l1.735 1.0411 1.884.5949 1.041 1.0411v1.2394.8427l1.239.3471 2.033.5949h2.181l-.347 2.1317z"/><path d="m168.798 19.343v1.3386l-2.825-1.3386v-.4957h2.181z"/><path d="m161.61 20.6816v-.942h1.537z"/><path d="m163.543 20.6816v-.942l.794-.0495.892.2974.347.8428-.099.6445-1.487.3966.049-.4462-.049-.4957z"/><path d="m160.866 22.9621-.892-.3471.097-.2478.547-.1488.248.1488z"/><path d="m157.842 19.0952 1.636 1.1898v.3966h-.744l-.892-.9915-1.19-.8428-1.239-.1983-1.041-.0992-.347-.8923-.893-1.3882-.991-.2974h-1.239l.297-1.1403h1.487l.446.8428 1.389 1.1898.793.7933h.496z"/><path d="m153.529 18.649-.004.0452.847.401.595.2478 1.19.0992.743.2974.496.5454v.8923h-.744-.396l-.446-.8923-.496-.2975-.793-.2974-1.091.1983.095-1.1942-.095-.0452z"/><path d="m150.356 13.4435-.248.942h-.495l-.447-.2975-.297-.4462-.694-.1983-.545-.6445.198-.3966h.942l.694.5454.347.4957z"/><path d="m146.192 11.0143h-.595l-.545-.2479-.1-.3966.1-.39658h.396l.744.49578z"/><path d="m142.275 11.0143.149-.2479.198-.2974.645-.2975.496.1983.198.1983v.6941l-.397.2974-.595.0992h-.694z"/><path d="m141.829 10.1715-.446-.54531.198-.34704.546-.14872.148.49576v.24787z"/><path d="m140.044 8.7834.347-.99152h.199.545v.44618.89237h-.545z"/><path d="m138.408 7.49443.447-.29746h.099.446l.347.59491v.79321h-.545l-.149-.34703-.645-.34703z"/><path d="m132.112 10.0724-.595-.19834.694-.3966.893-.59491h.942l.099.49576v.69409l.545.0991.099-.54531.298-.49576-.397-.44618v-.79322h.744l.496.59491v-.24788l.198-1.04109-.892-.89236v-.44618l.396.09915.793.89236h.893l.198.64449-.793.29745v.54533l-.793 1.14025-.595.14873v.94191h-1.636l-.496-.4957z"/><path d="m134.69 6.45334-.991-1.38813-.099-.09915-1.141.09915-.595.29746.05.59491.892-.14873.496.14873.595.74363.694.29746z"/><path d="m129.138 4.56946h1.537l.247.24787-.148.39661-.694.24788-.595.39661-.893.29745-.099-.54533v-.79322z"/><path d="m123.486 3.08218.892-.24788h.595l.199.39661h.595l.446-.04958.396.39661v.49576l-.793.04957-.743-.14872-.1-.14873-.595.29745h-.148l-.546-.59491z"/><path d="m123.833 5.21394v-.49576l.992-.04957.198.14872v.44619l-.595.14872z"/><path d="m122.891 3.57794-.991.14873h-.843-.744-.347l-.248-.64449.347-.14872 1.587.14872 1.09-.44618.149.44618z"/><path d="m115.752 1.34703.347-.24788.05-.09915.446.34703.446.34703.347.44618.446.04958.695.14873.446.49575v.49576l-.298.09915-.595-.34703-.347-.24788-.495-.34703h-.794l-.694-.59491z"/><path d="m116.893 5.56097h-.645l-.397-.29745.1-.19831.743-.54533 1.587-.24788.892.29746.446.54533-.644.59491h-.05-.198l-.645-.04958z"/><path d="m99.7393 49.386-1.0411-.2479-.4957.0991v.9915l.4957.3967h.5454l1.1404-.595 1.586-.8923 1.339-1.0411.297-.3966-.198-.3966h-.744l-1.338 1.0411-.942 1.0411-.7438.2478z"/><path d="m89.2292 49.1381.7933-.942h.7932l.1487.4462-.5453.5949-.8428.6941-.8924.4462-.7436.2479-.5454-.4958-.1983-.6445.1983-.7436h.4462l.2479.2974.5949.0992z"/><path d="m85.3128 49.9313-.6445.0991-.8428-.5453h-.347l-.6445.5453.2479.595.0991.8427.4958.2479.5949-.2479.6445-.4957.9915-.5949.9419-.4462v-.4462l-.1487-.4462h-.2479l-.6941.2975z"/></g><g fill="#c1dd9b" filter="url(#b)"><path d="m23.0952 29.6052v-2.5779l.9419-2.925 4.0157-2.1317 2.33-2.3301 4.8089-1.5864 5.4037-1.8343 2.3797-2.578 8.0313-2.2804 3.4703-1.58647h3.3711l4.6601-.79321h5.2055l.8208.77253 2.4512-.17762 3.0241-3.17285 6.8911-1.48728h6.544l6.9901 1.2394 3.2225 1.18982 3.3708.64448 4.809-1.8343 2.578 2.87539 2.181.24788 2.231-1.73515 1.438.79321 3.272-.64448 5.8.3966 2.43 2.97455 4.164.8924 4.115 1.3881 2.429.0991 2.528.6445 2.677 2.1814 3.471.5949 3.668 1.3881 3.272 4.7097 3.124 3.0241 5.156 3.0737 12.245.347 9.617 3.7678 7.784 5.255 5.404 4.8585 4.808 2.1813 4.016 1.8839h8.775l4.264 3.9165 4.461 3.5694 4.66 2.925 4.066 2.2805 7.783 1.7351 3.173 1.8343.843 3.3712 6.197-1.636h6.841l3.47 3.619 2.876 5.0567 2.578 3.8669 6.048.7437 8.824-2.1814 5.305 2.7267 3.272 6.197 6.395 1.9334 2.083 3.4703-7.387.9916-4.363.694-3.024 3.0737-3.272 1.2394-1.933-3.619-3.619 1.289-2.281 2.33-3.669-1.2394-3.569 1.2394-4.164-.6445-4.413-.7436-7.634-.4958-3.371 1.9831-4.958-1.4873-5.652 1.4873-6.692 2.6275-7.586-1.1403-8.427.8924 1.09-4.4618 4.958-2.0822 4.462-4.8089 5.205-3.2224-3.222-4.1148-1.735-4.1148-4.016-1.8343-5.652-.5949-8.081-.7932-7.585-2.33-4.759-2.578-2.975-3.5199-4.957-2.4787-.992-5.6021-1.983-5.5029-1.586-1.7352-3.669-1.7847-5.998-.347-3.173.7436-5.106.7436-3.57-3.3711h-6.941v-1.5864h-3.371v-1.3386h-4.263v-1.1898l-3.024-.8428-4.264-.6941-3.371-2.8258v-3.4703h-4.214l-6.296 1.1898h-4.363l-4.66-3.3215v-3.0737l-2.28-2.8258h-2.281l-3.668-2.925-4.9084-.9915-1.7352-2.4788-1.1898-2.1814h-4.6601l-2.6276-1.9334-8.4774 1.9334-1.636-1.9334h-4.561l-4.6601 1.2394-2.2309-.5454-3.3216.6941-.8924 2.1813-2.9745 1.3882-4.1644 1.5368-1.4872 2.3797-2.4788.4461-.8428 2.6771-3.6686 3.1729-2.7267-1.9831-3.0241-.2478-1.3881 2.6275-3.8669-.5454-4.8585.8924-1.3881 2.8258-2.6275 2.6771-3.3712-.8428.4462-2.9745z"/><path d="m90.3199 28.3163-3.2719-1.3882 1.6359-.8923 2.6276-.5453h4.1148l4.2139-1.1899 2.5288 1.1899 3.123 2.8258v1.5368 2.578h-2.38l-4.0154-1.7352-4.6602-.8428-3.9165-1.1898z"/><path d="m59.4838 45.172 2.2805-2.33h2.9745l1.3882 1.4377 1.5864 2.6771v2.4788l-1.5864 1.041-.8924-2.33-2.7267 1.289z"/><path d="m23.5414 39.6195h-.6941l-2.33 1.7848-1.8343.4462 1.041-2.8754-1.3385-2.0326 2.5284-.7437 3.5198 2.5284z"/></g><path d="m286.491 87.1627 3.471 1.7847-1.091 1.6361h-2.776l-2.826.8923-.942 1.9335-2.231-1.289-1.834 1.289-2.132-.942-3.619-.9915-2.281.6445-4.461 1.7847-3.669 1.5865-3.024-1.1899-3.917-.8923h-5.354-6.197l-10.361.8923-5.305 1.1899-2.677 2.6275h-3.47l-4.512-.5454-1.685-1.3881 1.239-1.5368 3.124-1.6856 1.834-4.1148 2.181-1.7847 3.966-1.7848-1.884-1.636-2.925-4.5609-1.338-3.4208-2.479-2.7762-4.016-1.0411-2.825-1.1898-2.083-.2975h-5.155-4.611l-4.66-.8923-3.619-1.2394-2.826-1.8839-2.181-2.8258-2.231-1.289-1.587-1.1898v-2.1318-3.1232l-1.884-3.3216v-2.4292l-2.577-2.2805-2.529-1.3881h-2.826-5.503-2.528l-3.916.2478-4.214-1.7351h-3.272l-2.231-1.1403-1.983-1.1402-3.074-.6941h-2.33l-1.388-1.0411-2.281-1.2394-2.578-.5453-2.677-.4462-2.082-2.4788-1.091-2.4292-.247-1.4872-3.52-.6941-2.43-.5949-2.181 1.7847-3.867.6941-3.966-1.1898-2.28-1.289-3.173-3.5199-1.289-1.7351h-1.686l-2.974-2.6276-2.033-1.4872-2.627-.8924-1.8347-2.0326-.5453-2.4788-4.9576-.2479-1.5369-.3966-3.4703-.3966-3.3711-1.1898-3.4703.4462-3.3712.2479h-2.2805-3.4207l-5.0567-.2479-4.2635.694-2.0822 3.1233-4.1644 1.5864-3.5199.4958-3.272 4.1644-2.5283 3.2224-4.908-.9915-3.3712.2479-1.5368 1.8838-5.5029.3966-4.8089 2.5284-1.0411-2.2309-.1983-4.3627 4.6601-3.1728 4.1644-1.6856 7.9817-3.3712 5.1559-2.9249 6.8414-2.6275 7.2381-.8924 3.7182.2479 5.8499-.2479 3.0242-2.03262.7932-1.43769 3.8173-1.09067h2.0822l2.9745.79321h2.8754l4.4618.59491 3.6191.54534h2.3796l2.8758 2.0326 2.875.34702 2.479-2.13175 1.933 2.13175 2.677.5453 3.421-1.38808 3.966-.3966 4.859 1.23938 1.983 1.636 2.875 1.4377 2.975.347 5.949 1.636.347 2.578 3.966.7436 4.362 1.5864h3.025l2.776 3.4208.991 2.7762 3.024 2.6275 2.777 1.3386 4.214.694h4.908 5.552l3.421 1.8343 2.28 2.3301 4.413.347 3.519 2.0326 2.43 2.3301 2.032 1.8839 3.173 4.8584 5.949 1.0411 6.891 2.0822 5.255.9915 3.718 1.636 2.083 1.4873 2.677 3.0737 1.735 1.636 3.47.6445 2.033 1.983 2.726 1.4873 3.818.9915h2.875l1.14 1.8343v2.9745l2.677 1.1898h3.074l5.652-1.1898 5.354 1.1898 2.181 2.2805 1.587 2.2805v4.4618l3.123 1.9831h5.751l7.833-1.0411h6.147l3.123 3.8669z" fill="#356740"/><g fill="#539882" filter="url(#c)"><path d="m230.57 88.1542 2.578-3.0737-5.949-3.6686.991-3.7182-3.272-3.7677v-3.7182l-5.899.5949-3.421-3.4207h-5.354-6.346-4.511l-5.255-2.2309-4.214-5.6517-2.281-2.6771v-5.3542l-3.024-.5949-1.686-1.5368-.941-3.4207v-1.9335h-7.586-7.783l-8.924-3.272-2.925 1.1898-4.065-1.4377-4.115-1.9334-2.28-1.0411h-2.677l-3.817-2.7267-3.074-3.5199-5.057-2.4788-4.66-.347-2.677 2.0326-4.313-.347-3.173-2.1318-2.181-4.908-4.264-2.1317-6.197-3.3712-2.5185-3.0383-3.3313-.5807-5.8995-1.4873-2.6771-.9915-6.1474.7436-3.3712.8428-2.4788-2.3796 2.4788-3.22245 3.619 1.09067h6.7424 6.2465l3.1919 2.61558 2.7072 1.1522 2.678.9915h4.957 6.792 6.494l2.975 1.983h6.792l1.09 2.2805 2.43 1.983h1.834l5.8 1.3882 2.826 2.8258 1.388 2.9745 4.512 2.5284 3.817 1.8343 2.677.9915 1.686 1.4377 2.379.2479 2.281.2974h6.098l6.94 3.4208 5.9 1.8343 1.933 1.1898 3.074 2.3301 1.785 2.7266 4.214 3.3216 8.328 1.6856 4.561 2.1317 8.577 1.6856 1.289 4.2635 4.809.8428 5.503 3.9661 4.66 1.6856h4.263v3.966 2.8258l4.214.6941 6.495-1.8343h7.634v3.1233l1.835 5.0567 1.388 3.3712 5.404-.942h5.205 6.792l5.899-.9915v4.6601 4.214l-1.685 1.5368-5.354-1.5368h-5.652l-2.132 1.5368-5.503 1.4377-6.197-.6941h-3.966-5.056-3.818l-2.429.6941h-6.048-4.958-1.983l-.396 2.2309h-1.438v-2.925l1.438-3.4207z"/><path d="m41.0416 20.9295 7.3372-4.8089 5.4534-2.3796 5.4037-2.0822 2.3797 3.4703-5.5525 3.1728-3.272.3967-4.4123 4.3626-3.9165 2.5284-5.6516-1.8343-3.4207 3.6686-5.8004-.6941v-1.1402l5.255-3.3712z"/><path d="m95.575 27.176 3.8173-.4462 2.0817.9915h1.438v1.8839.7932l-3.1231-.7932-2.0822-.5453h-2.8258l-1.8839-.9419z"/></g><g fill="#a2896d" filter="url(#d)"><path d="m193.537 54.8889 1.537-2.0326 3.42-1.0411 4.214 2.33 4.908 2.1814 6.148 1.5368 2.825 2.4292v3.8669h-5.85l-6.742-.5453-7.04-1.5864-3.42-3.7182z"/><path d="m164.287 35.6535 2.925 1.0411 2.033.6444 5.056 1.3386 1.983 1.4873-.842 1.2394h-5.256l-6.196-1.7848-5.751-.9419 1.338-3.5199z"/><path d="m136.624 23.2099 3.619 3.0737 1.041-1.7847v-2.4292l3.173 3.8669 1.884 3.5695 5.75 2.0326 1.636 2.4292-5.453.8924-7.337-.3471-5.553-5.3542-3.718-4.0156h-4.263l-7.883 2.2805-2.033-3.6686-4.511-3.8669-6.296-3.1729 4.908-1.6856 7.089.5454 3.966 1.1402h3.719l4.908 2.5284 2.181 1.8343z"/><path d="m241.476 89.9389h-6.544l-1.834-2.3796 2.628-2.4292-.794-2.3301-2.28-2.33 1.19-5.0072 3.123-1.1898h4.858l6.346-.9915 4.859.6445v3.4207l1.239 4.3627 3.917 2.0821h6.444l7.883-.9915 5.949.4462-1.438 4.2635h-7.585-5.354l-5.899 1.3882h-5.156-7.486z"/><path d="m233.098 73.2815-3.272.9915-2.33-1.5864v-2.3301l-1.785-1.7351h-4.511v-3.0242l.892-1.983 4.214.5453 2.182 1.9831 5.354-.5454v3.0242z"/><path d="m43.917 23.2099-.5949-1.5864 2.9745-2.4292 2.6771-2.2309 3.272-1.0907-3.272 4.3131-2.6771 3.0241z"/><path d="m183.622 43.6352-.744-1.8839 1.388.6445 2.181 1.2394 1.091 1.5864 2.479 1.0907.297 2.8753-.892 1.0411-3.619-1.636-2.181-1.1898z"/></g><g fill="#ffbd3a" filter="url(#e)"><path d="m246.831 75.0662 3.569 2.925 1.339 1.8343 1.536 1.1898.496 3.2224.992 1.3881-1.488 1.5865-7.188-1.0907-4.759 1.7847h-3.718v-3.1232l-1.19-5.3046v-2.4788h4.908z"/><path d="m229.479 69.1171 1.487-1.0411 1.289-.2974v1.9334l-.396 2.2805h-1.488l-.892-1.1898z"/><path d="m222.786 65.8451.447-1.4377h1.289l1.536.7437.893 1.2889-.446 1.1403-1.537-.3966-1.735-.7437z"/><path d="m215.647 61.2346.248 2.2309-2.528-.4462-4.561-.6941-3.024-1.0906v-1.8839l-2.975-.7437-2.032 1.5369-3.223-.2975v-2.8258l-1.834-1.3385 3.222-1.5864.942 1.3385 4.908 1.0411 2.281 1.1898 3.272 1.4377h3.024z"/><path d="m119.074 20.8799v-2.4788l.248-.7436 5.106-.1488 2.38 1.289v1.4377l-1.388 1.8343h-3.223l-2.627-.2975z"/><path d="m137.566 28.465-1.736-2.578.298-1.5368 1.884 1.983 3.073 1.5864 1.686-1.5864 2.38 2.8258 2.33 1.9335 3.52 1.1402-3.52.7437-5.354-.7437-3.074-1.5864z"/><path d="m165.873 39.0246.447-1.1402.892.4957h4.759l2.132 1.5865-2.132.8923-2.826-.8923z"/><path d="m268.644 85.4275 2.231-1.5864 1.685-.1983 2.678.347 1.041.6941-1.339 2.1813-1.487.2479h-2.578l-1.983-.9915z"/></g></svg>