<svg width="308" height="112" viewBox="0 0 308 112" fill="none" xmlns="http://www.w3.org/2000/svg">
<g filter="url(#filter0_d)">
<path d="M9.95758 42.247L5 40.5119L6.38812 38.1323L9.41224 38.5289L13.0809 36.8929L18.0384 35.009V35.8518H19.8232L20.5668 34.5628L23.0456 36.8929V35.009L22.3019 33.1251L21.4592 31.9353L19.8232 29.7044V27.9196L21.4592 24.9947L23.0456 23.4578L24.2354 21.4748H25.8714V19.6901H27.5074L30.4324 17.5583L33.159 16.4676L36.9268 14.7821L39.6039 13.6418H41.7852L43.2725 12.105H44.9581L45.553 10.6673L47.8335 10.0724L49.2216 10.6673L49.9652 10.0724L53.0389 8.18849L56.4101 7.74231L60.2274 8.18849L62.6566 7.24655H67.2176L72.2248 6.50291L73.8608 5.06521L78.0747 3.42921H81.892L84.6187 2.4377L87.9403 3.8754L95.5254 4.37115L98.7974 5.5114L99.5906 6.84994L102.863 5.5114L106.432 4.37115L110.448 2.4377V3.42921L108.514 4.37115L107.126 5.908L108.514 8.18849H110.448L111.39 6.50291L113.174 5.5114H115.306L114.81 7.24655L119.718 6.84994H122.098L124.23 6.50291L125.32 7.74231L126.659 10.0724H128.295L130.278 11.0143L131.369 10.4194L133.104 12.1545L135.93 11.4109L136.822 10.0724L139.202 11.0143L141.036 13.1461H142.722L144.06 15.2282H146.638L148.869 16.2693L150.505 17.1617L152.686 20.6816L154.372 23.6066L158.933 26.0358L160.866 27.3743H165.526H172.517H174.004V28.3658L175.293 29.0103L176.582 27.3743L179.755 29.0103L182.382 31.0429L185.357 32.3815L186.646 33.8192L189.323 34.3149L190.959 35.8518L194.578 36.4467L195.768 39.3221L197.552 42.1975L199.287 40.8093L201.717 42.1975L202.312 44.0318L204.493 44.9241L207.616 45.519H210.739L208.062 44.0318L205.385 42.1975L206.426 39.8674L208.509 42.1975L212.425 44.478L219.514 49.0389L222.539 52.0135L224.72 53.9965L226.505 54.641L228.537 56.2274L232.85 56.6736L233.594 59.1524H241.08L243.707 60.3422L246.137 61.532L246.781 64.11H250.103L251.54 63.3663L254.664 62.6227H257.638L259.324 64.5066L260.514 64.11L262.497 65.3989V67.9273L261.307 70.0095L263.042 71.2489L263.488 72.637L264.926 74.2234H267.454L269.09 74.6696L270.974 74.2234L273.849 75.4628H275.733L278.51 75.1654L281.385 76.3056L283.864 77.1484L286.343 76.7022V78.2391L287.582 79.7263L289.763 81.2136L291.697 84.3865H293.878L295.464 85.9233L298.935 85.4275L302.405 86.5182L303 89.0962L300.472 90.9305L299.629 92.5169L298.935 93.4588L297.001 92.5169L290.457 94.1033H284.409L282.971 96.2351L281.385 97.2762L277.468 99.3088H274.593L275.981 97.2762V95.4914H274.593V98.0198L272.362 98.6147L269.09 99.3088L266.859 98.6147L264.331 99.8045L262.001 98.6147L259.324 98.0198L255.506 97.2762L251.54 98.0198L246.137 97.2762L237.709 98.6147H234.486L228.983 99.3088L227.992 100.746H221.944H215.895L212.772 102.432H205.782L203.898 101.341L205.782 99.3088L207.269 96.2351L211.285 92.2194L217.482 89.0962L219.514 87.1131L221.299 83.2462L219.514 81.2136L215.895 80.7674L217.482 78.2391L215.895 77.3467L213.615 76.2065L209.847 77.3467L205.782 76.9005H202.857L200.031 76.2065L198.147 76.9005L194.578 76.2065L190.959 74.5209L189.323 71.2984L186.199 69.712H184.861L183.572 66.9854H182.382V64.6057L180.647 61.5816V59.0037L179.755 56.2274L179.11 53.7486L176.582 51.5177L174.004 49.9313L170.831 50.3775H167.658L165.526 50.9724L162.948 52.2614L158.933 50.9724L156.008 49.9313L154.372 49.4851L152.686 49.9313L150.505 48.2953H148.869L146.638 46.9072L144.903 47.7004L143.564 45.8165L140.094 46.3618V44.4284H137.566L132.658 42.247L131.071 40.1649L129.733 38.4297L128.295 37.0912H126.064H121.751L115.306 37.4878L110.002 35.6039L109.258 33.5217V30.448H108.068V31.9353V34.1662V36.3475L107.126 34.1662L105.788 35.6039H103.805L102.863 33.5217H101.127L99.5906 32.5302L97.3101 33.5217L95.5254 32.5302L93.2945 33.1251L90.6669 31.9353L89.6259 30.448H87.9403L86.5026 29.2086L83.9742 28.2171L81.892 27.4735V26.0358L83.9742 24.9947H92.0055L95.5254 23.4578L95.9716 21.4748L94.3356 20.2354L90.6669 18.7977L84.6187 19.1943L75.1497 17.5583L71.0349 18.2028L68.7049 17.5583L65.6808 17.1617L65.2841 19.1943L63.4498 20.2354L61.7147 21.4748L59.8308 21.921L58.4427 22.8133H56.4101V24.4989L54.9228 27.4735H53.0389L52.3944 26.9281L51.6508 28.2171L49.2216 31.4891L46.9411 31.9353H44.1649L43.2725 29.7044L40.9424 32.5302L38.0175 31.9353L33.159 32.5302L31.4735 35.8518L32.7129 36.3475L30.8786 38.975L28.3998 38.5289L26.7638 39.7683L23.0456 40.5119L19.5257 43.5856H17.6418V40.5119L18.6829 38.975L16.8486 38.5289L11.6927 39.7683L9.95758 42.247Z" fill="#F3E8CB"/>
<path d="M66.4244 41.553L64.3422 41.0077L63.4498 40.5119L60.2274 39.7683L57.7982 41.9992L56.4101 43.5856L57.4016 46.5601L59.0376 48.5432L59.5334 49.7826V51.022L57.7982 51.7656L55.8152 50.7741L53.0389 49.1877L54.4271 51.7656L55.2698 53.0546L58.4427 54.1948H61.7147H64.3422L66.4244 53.4016L70.6383 51.7656L71.0349 50.1296L69.2502 49.1877V47.155L71.7786 46.1635L69.2502 45.2216L67.5646 43.5856V41.9992L66.4244 41.553Z" fill="#F3E8CB"/>
<path d="M205.038 39.8674L204.195 41.3051L202.609 40.8093V39.8674L201.171 39.3221L200.527 38.5784V37.6365L199.287 37.934H198.147L197.007 37.2399V35.5047L197.255 34.5132L196.065 34.662L194.578 33.4226L193.537 32.7781L194.578 31.7866L193.14 31.0429L192.644 30.0018V31.0429L191.306 30.0018L189.67 28.4402V29.5061L188.083 28.7129V27.7709L187.092 26.5315H186.249L184.563 25.887L183.919 25.5896H182.382L180.746 26.1349L179.755 25.2921L177.821 24.3998L176.582 24.0527L176.136 23.3587L177.177 22.3672L179.11 22.9125H181.143L183.324 22.3672L185.357 21.8218L187.092 24.0527L188.083 25.887L189.323 24.8459L190.463 25.887H191.752H193.14L193.537 28.3658L194.231 30.0018L195.272 29.5061V30.7455L197.007 31.7866L198.891 32.3815L199.932 33.4226V34.662V35.5047L201.171 35.8518L203.204 36.4467H205.385L205.038 38.5784V39.8674Z" fill="#F3E8CB"/>
<path d="M168.798 19.343V20.6816L165.973 19.343V18.8473H168.154L168.798 19.343Z" fill="#F3E8CB"/>
<path d="M161.61 20.6816V19.7396H163.147L161.61 20.6816Z" fill="#F3E8CB"/>
<path d="M163.543 20.6816V19.7396L164.337 19.6901L165.229 19.9875L165.576 20.8303L165.477 21.4748L163.99 21.8714L164.039 21.4252L163.99 20.9295L163.543 20.6816Z" fill="#F3E8CB"/>
<path d="M160.866 22.9621L159.974 22.615L160.071 22.3672L160.618 22.2184L160.866 22.3672V22.9621Z" fill="#F3E8CB"/>
<path d="M157.842 19.0952L159.478 20.285V20.6816H158.734L157.842 19.6901L156.652 18.8473L155.413 18.649L154.372 18.5498L154.025 17.6575L153.132 16.2693L152.141 15.9719H150.902L151.199 14.8316H152.686L153.132 15.6744L154.521 16.8642L155.314 17.6575H155.81L157.842 19.0952Z" fill="#F3E8CB"/>
<path d="M153.529 18.649L153.525 18.6942L154.372 19.0952L154.967 19.343L156.157 19.4422L156.9 19.7396L157.396 20.285V21.1773H156.652H156.256L155.81 20.285L155.314 19.9875L154.521 19.6901L153.43 19.8884L153.525 18.6942L153.43 18.649H153.529Z" fill="#F3E8CB"/>
<path d="M150.356 13.4435L150.108 14.3855H149.613L149.166 14.088L148.869 13.6418L148.175 13.4435L147.63 12.799L147.828 12.4024H148.77L149.464 12.9478L149.811 13.4435H150.356Z" fill="#F3E8CB"/>
<path d="M146.192 11.0143H145.597L145.052 10.7664L144.952 10.3698L145.052 9.97322H145.448L146.192 10.469V11.0143Z" fill="#F3E8CB"/>
<path d="M142.275 11.0143L142.424 10.7664L142.622 10.469L143.267 10.1715L143.763 10.3698L143.961 10.5681V11.2622L143.564 11.5596L142.969 11.6588H142.275V11.0143Z" fill="#F3E8CB"/>
<path d="M141.829 10.1715L141.383 9.62619L141.581 9.27915L142.127 9.13043L142.275 9.62619V9.87406L141.829 10.1715Z" fill="#F3E8CB"/>
<path d="M140.044 8.7834L140.391 7.79188H140.59H141.135V8.23806V9.13043H140.59L140.044 8.7834Z" fill="#F3E8CB"/>
<path d="M138.408 7.49443L138.855 7.19697H138.954H139.4L139.747 7.79188V8.58509H139.202L139.053 8.23806L138.408 7.89103V7.49443Z" fill="#F3E8CB"/>
<path d="M132.112 10.0724L131.517 9.87406L132.211 9.47746L133.104 8.88255H134.046L134.145 9.37831V10.0724L134.69 10.1715L134.789 9.62619L135.087 9.13043L134.69 8.68425V7.89103H135.434L135.93 8.48594V8.23806L136.128 7.19697L135.236 6.30461V5.85843L135.632 5.95758L136.425 6.84994H137.318L137.516 7.49443L136.723 7.79188V8.33721L135.93 9.47746L135.335 9.62619V10.5681H133.699L133.203 10.0724H132.112Z" fill="#F3E8CB"/>
<path d="M134.69 6.45334L133.699 5.06521L133.6 4.96606L132.459 5.06521L131.864 5.36267L131.914 5.95758L132.806 5.80885L133.302 5.95758L133.897 6.70121L134.591 6.99867L134.69 6.45334Z" fill="#F3E8CB"/>
<path d="M129.138 4.56946H130.675L130.922 4.81733L130.774 5.21394L130.08 5.46182L129.485 5.85843L128.592 6.15588L128.493 5.61055V4.81733L129.138 4.56946Z" fill="#F3E8CB"/>
<path d="M123.486 3.08218L124.378 2.8343H124.973L125.172 3.23091H125.767L126.213 3.18133L126.609 3.57794V4.0737L125.816 4.12327L125.073 3.97455L124.973 3.82582L124.378 4.12327H124.23L123.684 3.52836L123.486 3.08218Z" fill="#F3E8CB"/>
<path d="M123.833 5.21394V4.71818L124.825 4.66861L125.023 4.81733V5.26352L124.428 5.41224L123.833 5.21394Z" fill="#F3E8CB"/>
<path d="M122.891 3.57794L121.9 3.72667H121.057H120.313H119.966L119.718 3.08218L120.065 2.93346L121.652 3.08218L122.742 2.636L122.891 3.08218V3.57794Z" fill="#F3E8CB"/>
<path d="M115.752 1.34703L116.099 1.09915L116.149 1L116.595 1.34703L117.041 1.69406L117.388 2.14024L117.834 2.18982L118.529 2.33855L118.975 2.8343V3.33006L118.677 3.42921L118.082 3.08218L117.735 2.8343L117.24 2.48727H116.446L115.752 1.89236V1.34703Z" fill="#F3E8CB"/>
<path d="M116.893 5.56097H116.248L115.851 5.26352L115.951 5.06521L116.694 4.51988L118.281 4.272L119.173 4.56946L119.619 5.11479L118.975 5.7097H118.925H118.727L118.082 5.66012L116.893 5.56097Z" fill="#F3E8CB"/>
<path d="M99.7393 49.386L98.6982 49.1381L98.2025 49.2372V50.2287L98.6982 50.6254H99.2436L100.384 50.0304L101.97 49.1381L103.309 48.097L103.606 47.7004L103.408 47.3038H102.664L101.326 48.3449L100.384 49.386L99.6402 49.6338L99.7393 49.386Z" fill="#F3E8CB"/>
<path d="M89.2292 49.1381L90.0225 48.1961H90.8157L90.9644 48.6423L90.4191 49.2372L89.5763 49.9313L88.6839 50.3775L87.9403 50.6254L87.3949 50.1296L87.1966 49.4851L87.3949 48.7415H87.8411L88.089 49.0389L88.6839 49.1381H89.2292Z" fill="#F3E8CB"/>
<path d="M85.3128 49.9313L84.6683 50.0304L83.8255 49.4851H83.4785L82.834 50.0304L83.0819 50.6254L83.181 51.4681L83.6768 51.716L84.2717 51.4681L84.9162 50.9724L85.9077 50.3775L86.8496 49.9313V49.4851L86.7009 49.0389H86.453L85.7589 49.3364L85.3128 49.9313Z" fill="#F3E8CB"/>
</g>
<g filter="url(#filter1_d)">
<path d="M23.0952 29.6052V27.0273L24.0371 24.1023L28.0528 21.9706L30.3828 19.6405L35.1917 18.0541L40.5954 16.2198L42.9751 13.6418L51.0064 11.3614L54.4767 9.77493H57.8478L62.5079 8.98172H67.7134L68.5342 9.75425L70.9854 9.57663L74.0095 6.40378L80.9006 4.9165H87.4446L94.4347 6.1559L97.6572 7.34572L101.028 7.9902L105.837 6.1559L108.415 9.03129L110.596 9.27917L112.827 7.54402L114.265 8.33723L117.537 7.69275L123.337 8.08935L125.767 11.0639L129.931 11.9563L134.046 13.3444L136.475 13.4435L139.003 14.088L141.68 16.2694L145.151 16.8643L148.819 18.2524L152.091 22.9621L155.215 25.9862L160.371 29.0599L172.616 29.4069L182.233 33.1747L190.017 38.4297L195.421 43.2882L200.229 45.4695L204.245 47.3534H213.02L217.284 51.2699L221.745 54.8393L226.405 57.7643L230.471 60.0448L238.254 61.7799L241.427 63.6142L242.27 66.9854L248.467 65.3494H255.308L258.778 68.9684L261.654 74.0251L264.232 77.892L270.28 78.6357L279.104 76.4543L284.409 79.181L287.681 85.378L294.076 87.3114L296.159 90.7817L288.772 91.7733L284.409 92.4673L281.385 95.541L278.113 96.7804L276.18 93.1614L272.561 94.4504L270.28 96.7804L266.611 95.541L263.042 96.7804L258.878 96.1359L254.465 95.3923L246.831 94.8965L243.46 96.8796L238.502 95.3923L232.85 96.8796L226.158 99.5071L218.572 98.3668L210.145 99.2592L211.235 94.7974L216.193 92.7152L220.655 87.9063L225.86 84.6839L222.638 80.5691L220.903 76.4543L216.887 74.62L211.235 74.0251L203.154 73.2319L195.569 70.9019L190.81 68.3239L187.835 64.804L182.878 62.3253L181.886 56.7232L179.903 51.2203L178.317 49.4851L174.648 47.7004L168.65 47.3534L165.477 48.097L160.371 48.8406L156.801 45.4695H149.86V43.8831H146.489V42.5445H142.226V41.3547L139.202 40.5119L134.938 39.8178L131.567 36.992V33.5217H127.353L121.057 34.7115H116.694L112.034 31.39V28.3163L109.754 25.4905H107.473L103.805 22.5655L98.8966 21.574L97.1614 19.0952L95.9716 16.9138H91.3115L88.6839 14.9804L80.2065 16.9138L78.5705 14.9804H74.0095L69.3494 16.2198L67.1185 15.6744L63.7969 16.3685L62.9045 18.5498L59.93 19.938L55.7656 21.4748L54.2784 23.8545L51.7996 24.3006L50.9568 26.9777L47.2882 30.1506L44.5615 28.1675L41.5374 27.9197L40.1493 30.5472L36.2824 30.0018L31.4239 30.8942L30.0358 33.72L27.4083 36.3971L24.0371 35.5543L24.4833 32.5798L23.0952 29.6052Z" fill="#C1DD9B"/>
<path d="M90.3199 28.3163L87.048 26.9281L88.6839 26.0358L91.3115 25.4905H95.4263L99.6402 24.3006L102.169 25.4905L105.292 28.3163V29.8531V32.4311H102.912L98.8966 30.6959L94.2364 29.8531L90.3199 28.6633V28.3163Z" fill="#C1DD9B"/>
<path d="M59.4838 45.172L61.7643 42.842H64.7388L66.127 44.2797L67.7134 46.9568V49.4356L66.127 50.4766L65.2346 48.1466L62.5079 49.4356L59.4838 45.172Z" fill="#C1DD9B"/>
<path d="M23.5414 39.6195H22.8473L20.5173 41.4043L18.683 41.8505L19.724 38.9751L18.3855 36.9425L20.9139 36.1988L24.4337 38.7272L23.5414 39.6195Z" fill="#C1DD9B"/>
</g>
<path d="M286.491 87.1627L289.962 88.9474L288.871 90.5835H286.095L283.269 91.4758L282.327 93.4093L280.096 92.1203L278.262 93.4093L276.13 92.4673L272.511 91.4758L270.23 92.1203L265.769 93.905L262.1 95.4915L259.076 94.3016L255.159 93.4093H249.805H243.608L233.247 94.3016L227.942 95.4915L225.265 98.119H221.795L217.283 97.5736L215.598 96.1855L216.837 94.6487L219.961 92.9631L221.795 88.8483L223.976 87.0636L227.942 85.2788L226.058 83.6428L223.133 79.0819L221.795 75.6611L219.316 72.8849L215.3 71.8438L212.475 70.654L210.392 70.3565H205.237H200.626L195.966 69.4642L192.347 68.2248L189.521 66.3409L187.34 63.5151L185.109 62.2261L183.522 61.0363V58.9045V55.7813L181.638 52.4597V50.0305L179.061 47.75L176.532 46.3619H173.706H168.203H165.675L161.759 46.6097L157.545 44.8746H154.273L152.042 43.7343L150.059 42.5941L146.985 41.9H144.655L143.267 40.8589L140.986 39.6195L138.408 39.0742L135.731 38.628L133.649 36.1492L132.558 33.72L132.311 32.2328L128.791 31.5387L126.361 30.9438L124.18 32.7285L120.313 33.4226L116.347 32.2328L114.067 30.9438L110.894 27.4239L109.605 25.6888H107.919L104.945 23.0612L102.912 21.574L100.285 20.6816L98.4503 18.649L97.905 16.1702L92.9474 15.9223L91.4105 15.5257L87.9402 15.1291L84.5691 13.9393L81.0988 14.3855L77.7276 14.6334H75.4471H72.0264L66.9697 14.3855L62.7062 15.0795L60.624 18.2028L56.4596 19.7892L52.9397 20.285L49.6677 24.4494L47.1394 27.6718L42.2314 26.6803L38.8602 26.9282L37.3234 28.812L31.8205 29.2086L27.0116 31.737L25.9705 29.5061L25.7722 25.1434L30.4323 21.9706L34.5967 20.285L42.5784 16.9138L47.7343 13.9889L54.5757 11.3614L61.8138 10.469L65.532 10.7169L71.3819 10.469L74.4061 8.43638L75.1993 6.99869L79.0166 5.90802H81.0988L84.0733 6.70123H86.9487L91.4105 7.29614L95.0296 7.84148H97.4092L100.285 9.87408L103.16 10.2211L105.639 8.08935L107.572 10.2211L110.249 10.7664L113.67 9.37832L117.636 8.98172L122.495 10.2211L124.478 11.8571L127.353 13.2948L130.328 13.6418L136.277 15.2778L136.624 17.8558L140.59 18.5994L144.952 20.1858H147.977L150.753 23.6066L151.744 26.3828L154.768 29.0103L157.545 30.3489L161.759 31.0429H166.667H172.219L175.64 32.8772L177.92 35.2073L182.333 35.5543L185.852 37.5869L188.282 39.917L190.314 41.8009L193.487 46.6593L199.436 47.7004L206.327 49.7826L211.582 50.7741L215.3 52.4101L217.383 53.8974L220.06 56.9711L221.795 58.6071L225.265 59.2516L227.298 61.2346L230.024 62.7219L233.842 63.7134H236.717L237.857 65.5477V68.5222L240.534 69.712H243.608L249.26 68.5222L254.614 69.712L256.795 71.9925L258.382 74.273V78.7348L261.505 80.7179H267.256L275.089 79.6768H281.236L284.359 83.5437L286.491 87.1627Z" fill="#356740"/>
<g filter="url(#filter2_d)">
<path d="M230.57 88.1542L233.148 85.0805L227.199 81.4119L228.19 77.6937L224.918 73.926V70.2078L219.019 70.8027L215.598 67.382H210.244H203.898H199.387L194.132 65.1511L189.918 59.4994L187.637 56.8223V51.4681L184.613 50.8732L182.927 49.3364L181.986 45.9157V43.9822H174.4H166.617L157.693 40.7102L154.768 41.9L150.703 40.4623L146.588 38.5289L144.308 37.4878H141.631L137.814 34.7611L134.74 31.2412L129.683 28.7624L125.023 28.4154L122.346 30.448L118.033 30.101L114.86 27.9692L112.679 23.0612L108.415 20.9295L102.218 17.5583L99.6995 14.52L96.3682 13.9393L90.4687 12.452L87.7916 11.4605L81.6442 12.2041L78.273 13.0469L75.7942 10.6673L78.273 7.44485L81.892 8.53552H88.6344H94.8809L98.0728 11.1511L100.78 12.3033L103.458 13.2948H108.415H115.207H121.701L124.676 15.2778H131.468L132.558 17.5583L134.988 19.5413H136.822L142.622 20.9295L145.448 23.7553L146.836 26.7298L151.348 29.2582L155.165 31.0925L157.842 32.084L159.528 33.5217L161.907 33.7696L164.188 34.067H170.286L177.226 37.4878L183.126 39.3221L185.059 40.5119L188.133 42.842L189.918 45.5686L194.132 48.8902L202.46 50.5758L207.021 52.7075L215.598 54.3931L216.887 58.6566L221.696 59.4994L227.199 63.4655L231.859 65.1511H236.122V69.1171V71.9429L240.336 72.637L246.831 70.8027H254.465V73.926L256.3 78.9827L257.688 82.3539L263.092 81.4119H268.297H275.089L280.988 80.4204V85.0805V89.2945L279.303 90.8313L273.949 89.2945H268.297L266.165 90.8313L260.662 92.269L254.465 91.5749H250.499H245.443H241.625L239.196 92.269H233.148H228.19H226.207L225.811 94.4999H224.373V91.5749L225.811 88.1542H230.57Z" fill="#539882"/>
<path d="M41.0416 20.9295L48.3788 16.1206L53.8322 13.741L59.2359 11.6588L61.6156 15.1291L56.0631 18.3019L52.7911 18.6986L48.3788 23.0612L44.4623 25.5896L38.8107 23.7553L35.39 27.4239L29.5896 26.7298V25.5896L34.8446 22.2184L41.0416 20.9295Z" fill="#539882"/>
<path d="M95.575 27.176L99.3923 26.7298L101.474 27.7213H102.912V29.6052V30.3984L99.7889 29.6052L97.7067 29.0599H94.8809L92.997 28.118L95.575 27.176Z" fill="#539882"/>
</g>
<g filter="url(#filter3_d)">
<path d="M193.537 54.8889L195.074 52.8563L198.494 51.8152L202.708 54.1452L207.616 56.3266L213.764 57.8634L216.589 60.2926V64.1595H210.739L203.997 63.6142L196.957 62.0278L193.537 58.3096V54.8889Z" fill="#A2896D"/>
<path d="M164.287 35.6535L167.212 36.6946L169.245 37.339L174.301 38.6776L176.284 40.1649L175.442 41.4043H170.186L163.99 39.6195L158.239 38.6776L159.577 35.1577L164.287 35.6535Z" fill="#A2896D"/>
<path d="M136.624 23.2099L140.243 26.2836L141.284 24.4989V22.0697L144.457 25.9366L146.341 29.5061L152.091 31.5387L153.727 33.9679L148.274 34.8603L140.937 34.5132L135.384 29.159L131.666 25.1434H127.403L119.52 27.4239L117.487 23.7553L112.976 19.8884L106.68 16.7155L111.588 15.0299L118.677 15.5753L122.643 16.7155H126.362L131.27 19.2439L133.451 21.0782L136.624 23.2099Z" fill="#A2896D"/>
<path d="M241.476 89.9389H234.932L233.098 87.5593L235.726 85.1301L234.932 82.8L232.652 80.47L233.842 75.4628L236.965 74.273H241.823L248.169 73.2815L253.028 73.926V77.3467L254.267 81.7094L258.184 83.7915H264.628L272.511 82.8L278.46 83.2462L277.022 87.5097H269.437H264.083L258.184 88.8979H253.028H245.542L241.476 89.9389Z" fill="#A2896D"/>
<path d="M233.098 73.2815L229.826 74.273L227.496 72.6866V70.3565L225.711 68.6214H221.2V65.5972L222.092 63.6142L226.306 64.1595L228.488 66.1426L233.842 65.5972V68.6214L233.098 73.2815Z" fill="#A2896D"/>
<path d="M43.917 23.2099L43.3221 21.6235L46.2966 19.1943L48.9737 16.9634L52.2457 15.8727L48.9737 20.1858L46.2966 23.2099H43.917Z" fill="#A2896D"/>
<path d="M183.622 43.6352L182.878 41.7513L184.266 42.3958L186.447 43.6352L187.538 45.2216L190.017 46.3123L190.314 49.1876L189.422 50.2287L185.803 48.5927L183.622 47.4029V43.6352Z" fill="#A2896D"/>
</g>
<g filter="url(#filter4_d)">
<path d="M246.831 75.0662L250.4 77.9912L251.739 79.8255L253.275 81.0153L253.771 84.2377L254.763 85.6258L253.275 87.2123L246.087 86.1216L241.328 87.9063H237.61V84.7831L236.42 79.4785V76.9997H241.328L246.831 75.0662Z" fill="#FFBD3A"/>
<path d="M229.479 69.1171L230.966 68.076L232.255 67.7786V69.712L231.859 71.9925H230.371L229.479 70.8027V69.1171Z" fill="#FFBD3A"/>
<path d="M222.786 65.8451L223.233 64.4074H224.522L226.058 65.1511L226.951 66.44L226.505 67.5803L224.968 67.1837L223.233 66.44L222.786 65.8451Z" fill="#FFBD3A"/>
<path d="M215.647 61.2346L215.895 63.4655L213.367 63.0193L208.806 62.3252L205.782 61.2346V59.3507L202.807 58.607L200.775 60.1439L197.552 59.8464V57.0206L195.718 55.6821L198.94 54.0957L199.882 55.4342L204.79 56.4753L207.071 57.6651L210.343 59.1028H213.367L215.647 61.2346Z" fill="#FFBD3A"/>
<path d="M119.074 20.8799V18.4011L119.322 17.6575L124.428 17.5087L126.808 18.7977V20.2354L125.42 22.0697H122.197L119.57 21.7722L119.074 20.8799Z" fill="#FFBD3A"/>
<path d="M137.566 28.465L135.83 25.887L136.128 24.3502L138.012 26.3332L141.085 27.9196L142.771 26.3332L145.151 29.159L147.481 31.0925L151.001 32.2327L147.481 32.9764L142.127 32.2327L139.053 30.6463L137.566 28.465Z" fill="#FFBD3A"/>
<path d="M165.873 39.0246L166.32 37.8844L167.212 38.3801H171.971L174.103 39.9666L171.971 40.8589L169.145 39.9666L165.873 39.0246Z" fill="#FFBD3A"/>
<path d="M268.644 85.4275L270.875 83.8411L272.56 83.6428L275.238 83.9898L276.279 84.6839L274.94 86.8652L273.453 87.1131H270.875L268.892 86.1216L268.644 85.4275Z" fill="#FFBD3A"/>
</g>
<defs>
<filter id="filter0_d" x="0" y="0" width="308" height="111.432" filterUnits="userSpaceOnUse" color-interpolation-filters="sRGB">
<feFlood flood-opacity="0" result="BackgroundImageFix"/>
<feColorMatrix in="SourceAlpha" type="matrix" values="0 0 0 0 0 0 0 0 0 0 0 0 0 0 0 0 0 0 127 0"/>
<feOffset dy="4"/>
<feGaussianBlur stdDeviation="2.5"/>
<feColorMatrix type="matrix" values="0 0 0 0 0 0 0 0 0 0 0 0 0 0 0 0 0 0 0.25 0"/>
<feBlend mode="normal" in2="BackgroundImageFix" result="effect1_dropShadow"/>
<feBlend mode="normal" in="SourceGraphic" in2="effect1_dropShadow" result="shape"/>
</filter>
<filter id="filter1_d" x="13.3855" y="3.9165" width="287.773" height="104.591" filterUnits="userSpaceOnUse" color-interpolation-filters="sRGB">
<feFlood flood-opacity="0" result="BackgroundImageFix"/>
<feColorMatrix in="SourceAlpha" type="matrix" values="0 0 0 0 0 0 0 0 0 0 0 0 0 0 0 0 0 0 127 0"/>
<feOffset dy="4"/>
<feGaussianBlur stdDeviation="2.5"/>
<feColorMatrix type="matrix" values="0 0 0 0 0 0 0 0 0 0 0 0 0 0 0 0 0 0 0.25 0"/>
<feBlend mode="normal" in2="BackgroundImageFix" result="effect1_dropShadow"/>
<feBlend mode="normal" in="SourceGraphic" in2="effect1_dropShadow" result="shape"/>
</filter>
<filter id="filter2_d" x="24.5896" y="6.44485" width="261.399" height="97.0551" filterUnits="userSpaceOnUse" color-interpolation-filters="sRGB">
<feFlood flood-opacity="0" result="BackgroundImageFix"/>
<feColorMatrix in="SourceAlpha" type="matrix" values="0 0 0 0 0 0 0 0 0 0 0 0 0 0 0 0 0 0 127 0"/>
<feOffset dy="4"/>
<feGaussianBlur stdDeviation="2.5"/>
<feColorMatrix type="matrix" values="0 0 0 0 0 0 0 0 0 0 0 0 0 0 0 0 0 0 0.25 0"/>
<feBlend mode="normal" in2="BackgroundImageFix" result="effect1_dropShadow"/>
<feBlend mode="normal" in="SourceGraphic" in2="effect1_dropShadow" result="shape"/>
</filter>
<filter id="filter3_d" x="38.3221" y="14.0299" width="245.138" height="84.909" filterUnits="userSpaceOnUse" color-interpolation-filters="sRGB">
<feFlood flood-opacity="0" result="BackgroundImageFix"/>
<feColorMatrix in="SourceAlpha" type="matrix" values="0 0 0 0 0 0 0 0 0 0 0 0 0 0 0 0 0 0 127 0"/>
<feOffset dy="4"/>
<feGaussianBlur stdDeviation="2.5"/>
<feColorMatrix type="matrix" values="0 0 0 0 0 0 0 0 0 0 0 0 0 0 0 0 0 0 0.25 0"/>
<feBlend mode="normal" in2="BackgroundImageFix" result="effect1_dropShadow"/>
<feBlend mode="normal" in="SourceGraphic" in2="effect1_dropShadow" result="shape"/>
</filter>
<filter id="filter4_d" x="114.074" y="16.5087" width="167.205" height="80.3976" filterUnits="userSpaceOnUse" color-interpolation-filters="sRGB">
<feFlood flood-opacity="0" result="BackgroundImageFix"/>
<feColorMatrix in="SourceAlpha" type="matrix" values="0 0 0 0 0 0 0 0 0 0 0 0 0 0 0 0 0 0 127 0"/>
<feOffset dy="4"/>
<feGaussianBlur stdDeviation="2.5"/>
<feColorMatrix type="matrix" values="0 0 0 0 0 0 0 0 0 0 0 0 0 0 0 0 0 0 0.25 0"/>
<feBlend mode="normal" in2="BackgroundImageFix" result="effect1_dropShadow"/>
<feBlend mode="normal" in="SourceGraphic" in2="effect1_dropShadow" result="shape"/>
</filter>
</defs>
</svg>
