<svg width="139" height="274" viewBox="0 0 139 274" fill="none" xmlns="http://www.w3.org/2000/svg">
<g filter="url(#filter0_d)">
<path d="M78.7651 11.5805L83.885 10.8491L81.2032 15.7253V18.1634L83.3974 20.1138V23.5272L84.3727 26.6967L91.6869 30.5976L96.8069 33.2795L103.634 32.7919L101.439 35.23L96.3193 36.9366L94.6126 41.0814H84.3727V47.4204L82.1784 48.1519L81.2032 52.7842L79.4965 55.7099L73.4013 59.1233L70.7194 60.3423L67.7937 65.4623L66.8184 72.5327L64.3803 77.4089L64.868 82.2851L69.0127 88.8679L74.8641 93.0127L78.2775 97.6451L81.2032 105.203L89.4927 112.517L91.1993 115.687L96.0755 120.319L101.683 124.464L104.365 128.609L109.485 130.803L111.679 133.485L114.849 138.361L119.969 143.237L121.919 148.113L125.333 153.721L127.527 162.742L128.746 164.692V172.982L128.258 181.759L132.403 186.391L128.258 191.999V197.363L125.82 206.871L123.626 211.991L120.7 216.136L113.386 219.062L107.047 222.963L103.634 226.62L100.464 228.083L95.1003 229.058L92.1746 228.57L91.4431 224.426L87.2984 225.401L85.8355 224.426L85.1041 229.789L83.885 235.397L82.9098 237.835H79.4965V241.248L79.9841 244.662L77.7898 244.174L76.0832 245.637L73.6451 249.294L65.5994 251.732L61.4546 252.708L59.0165 259.778L54.3842 261.972L55.3594 258.315H53.1651V255.146L54.3842 242.468L59.0165 241.248L57.0661 235.397L52.4337 231.74H49.2642V229.789H52.4337L55.3594 228.57L58.0413 226.62L57.0661 222.963L61.4546 225.401L62.9175 222.963L65.5994 221.988H69.0127L70.4756 224.426H72.6698L74.6203 225.401H77.3022V221.5L77.7898 217.599L74.1327 215.405L72.1822 211.991L74.6203 208.578L77.3022 211.26L81.9346 208.578V206.14V203.946L85.8355 204.677L87.2984 202.483H91.4431L95.8317 198.094L97.0507 200.532L101.683 199.557L102.171 191.999L101.683 184.685L104.365 176.152L100.952 168.106L100.22 161.279L102.171 152.014L103.39 148.113L102.658 140.799L99.7326 139.58L98.026 135.923L99.7326 133.485L100.22 129.584H98.026L96.0755 126.902L90.4679 123.489L88.2736 120.319L85.5917 121.295L83.6412 119.588V113.98L80.7155 111.542L78.7651 107.397H75.8394L70.7194 101.546L67.7937 97.1574L64.868 91.0622L61.6984 90.087L60.2356 87.6489L58.5289 80.8223H51.7023L48.0451 77.4089L39.0242 72.5327L41.7061 70.5823V66.4375L48.0451 68.8756L51.7023 66.4375L54.1404 63.0242L56.5785 58.148L49.7518 54.9785L51.7023 52.7842L48.0451 51.0776L49.7518 48.1519L44.8756 42.5443L38.049 41.8128L33.1728 44.7385L29.7595 45.9576L23.1766 42.5443L20.0071 36.9366L20.9824 28.6472H18.7881L15.3748 26.2091L14.1557 28.6472L11.9614 23.771L7.57288 17.6758L12.9367 14.2624L20.9824 18.8948L25.3709 12.5558L28.5404 17.6758L31.9538 14.2624L38.049 17.6758L39.9995 12.5558L44.8756 14.2624L48.0451 11.5805L50.727 12.5558L54.1404 8.89863V5.48531L60.967 2.5596L64.1365 6.94816H67.5499L70.2318 8.89863H75.3517L78.7651 11.5805Z" fill="#F3E8CB"/>
<path d="M78.7651 11.5805L83.885 10.8491L81.2032 15.7253V18.1634L83.3974 20.1138V23.5272L84.3727 26.6967L91.6869 30.5976L96.8069 33.2795L103.634 32.7919L101.439 35.23L96.3193 36.9366L94.6126 41.0814H84.3727V47.4204L82.1784 48.1519L81.2032 52.7842L79.4965 55.7099L73.4013 59.1233L70.7194 60.3423L67.7937 65.4623L66.8184 72.5327L64.3803 77.4089L64.868 82.2851L69.0127 88.8679L74.8641 93.0127L78.2775 97.6451L81.2032 105.203L89.4927 112.517L91.1993 115.687L96.0755 120.319L101.683 124.464L104.365 128.609L109.485 130.803L111.679 133.485L114.849 138.361L119.969 143.237L121.919 148.113L125.333 153.721L127.527 162.742L128.746 164.692V172.982L128.258 181.759L132.403 186.391L128.258 191.999V197.363L125.82 206.871L123.626 211.991L120.7 216.136L113.386 219.062L107.047 222.963L103.634 226.62L100.464 228.083L95.1003 229.058L92.1746 228.57L91.4431 224.426L87.2984 225.401L85.8355 224.426L85.1041 229.789L83.885 235.397L82.9098 237.835H79.4965V241.248L79.9841 244.662L77.7898 244.174L76.0832 245.637L73.6451 249.294L65.5994 251.732L61.4546 252.708L59.0165 259.778L54.3842 261.972L55.3594 258.315H53.1651V255.146L54.3842 242.468L59.0165 241.248L57.0661 235.397L52.4337 231.74H49.2642V229.789H52.4337L55.3594 228.57L58.0413 226.62L57.0661 222.963L61.4546 225.401L62.9175 222.963L65.5994 221.988H69.0127L70.4756 224.426H72.6698L74.6203 225.401H77.3022V221.5L77.7898 217.599L74.1327 215.405L72.1822 211.991L74.6203 208.578L77.3022 211.26L81.9346 208.578V206.14V203.946L85.8355 204.677L87.2984 202.483H91.4431L95.8317 198.094L97.0507 200.532L101.683 199.557L102.171 191.999L101.683 184.685L104.365 176.152L100.952 168.106L100.22 161.279L102.171 152.014L103.39 148.113L102.658 140.799L99.7326 139.58L98.026 135.923L99.7326 133.485L100.22 129.584H98.026L96.0755 126.902L90.4679 123.489L88.2736 120.319L85.5917 121.295L83.6412 119.588V113.98L80.7155 111.542L78.7651 107.397H75.8394L70.7194 101.546L67.7937 97.1574L64.868 91.0622L61.6984 90.087L60.2356 87.6489L58.5289 80.8223H51.7023L48.0451 77.4089L39.0242 72.5327L41.7061 70.5823V66.4375L48.0451 68.8756L51.7023 66.4375L54.1404 63.0242L56.5785 58.148L49.7518 54.9785L51.7023 52.7842L48.0451 51.0776L49.7518 48.1519L44.8756 42.5443L38.049 41.8128L33.1728 44.7385L29.7595 45.9576L23.1766 42.5443L20.0071 36.9366L20.9824 28.6472H18.7881L15.3748 26.2091L14.1557 28.6472L11.9614 23.771L7.57288 17.6758L12.9367 14.2624L20.9824 18.8948L25.3709 12.5558L28.5404 17.6758L31.9538 14.2624L38.049 17.6758L39.9995 12.5558L44.8756 14.2624L48.0451 11.5805L50.727 12.5558L54.1404 8.89863V5.48531L60.967 2.5596L64.1365 6.94816H67.5499L70.2318 8.89863H75.3517L78.7651 11.5805Z" stroke="#F3E8CB" stroke-width="4"/>
</g>
<g filter="url(#filter1_d)">
<path d="M57.3096 11.3362L63.161 8.65433L67.7934 9.38575L74.8638 13.0429L82.6657 11.3362L80.2276 18.8943L79.4962 26.94L89.2486 32.06L92.4181 39.1304L82.6657 40.3495L78.521 51.5647L69.2562 58.3913L64.1362 73.5075L63.4048 78.3837L65.3553 84.4789L66.0867 88.6236L62.6734 89.1112L60.9667 84.7227L59.2601 80.8217L53.4087 79.3589L43.1687 71.557L49.2639 68.6313L58.5286 62.7799L57.0658 54.0028L53.4087 47.1761L49.9953 40.3495L37.5611 38.8866L29.5154 40.5933L26.5897 33.7666L13.9116 23.7705V17.9191L26.8335 19.1381L35.123 21.82L39.7554 19.3819L45.8506 18.4067L52.1896 15.9686L57.3096 11.3362Z" fill="#C1DD9B"/>
<path d="M69.9877 98.1322L67.3058 92.5246L69.7438 90.0865L72.9134 93.256L78.0333 99.595L81.2029 105.446L87.7857 110.81L91.199 115.93L95.5876 121.05L101.439 124.464L102.658 127.389L99.0009 129.096L96.319 126.902L93.6371 124.951L90.2238 120.319L86.5667 120.563L84.6162 119.1L83.8848 112.761L81.2029 111.542L80.2276 108.128L78.0333 107.153L75.3515 105.446L73.6448 101.789L69.9877 98.1322Z" fill="#C1DD9B"/>
<path d="M104.365 129.096L101.439 130.803L100.464 135.923L102.902 138.848L104.609 142.993L105.096 146.894L102.902 156.402L102.414 166.155L106.803 172.25L105.096 181.759L103.389 187.61L106.315 196.875L101.195 201.019L98.0257 201.507L96.0752 200.288L94.1247 202.97L89.7362 203.701L88.5171 205.164H82.4219L83.641 208.09L79.9838 211.503H76.3267L74.1324 210.04L74.3762 214.429L77.7895 215.892V221.743V225.888L74.8638 226.376L70.9629 225.157L69.5 223.206H64.8677L63.161 224.669L60.4791 225.157L57.5534 223.45L58.041 226.132L56.3344 228.57L53.1648 230.033L50.4829 230.277L49.7515 231.252H53.4087L58.7724 235.397L59.5039 241.979L54.8715 243.198L54.1401 256.608H55.8467L55.3591 260.996L58.2848 259.777L59.5039 253.926L63.161 251.488L72.4257 247.587L76.3267 243.686H78.521V237.591L82.4219 236.859L83.641 228.57L86.5667 223.45L90.7114 222.231L92.4181 225.888L96.5628 228.082L103.389 225.888L108.022 220.037L117.53 216.379L122.163 212.966L124.601 205.408L126.795 196.875L128.258 190.292L130.208 186.391L127.283 179.564L126.795 165.667L124.601 160.791L124.113 153.233L119.237 142.993L112.898 137.142L108.753 131.046L104.365 129.096Z" fill="#C1DD9B"/>
</g>
<g filter="url(#filter2_d)">
<path d="M31.9539 25.4773L22.6892 20.8449L20.0073 25.4773L30.9787 36.2049H37.3177H49.9958L56.8224 40.8373L59.2605 49.3706L60.9672 60.8296L59.2605 65.7058L49.0205 70.8258L56.091 77.4086L59.9919 77.8962L61.9424 70.8258L68.5252 54.003L77.79 45.9573L80.7157 38.8868L84.129 38.1554L85.5919 36.2049L79.2528 32.0602L76.5709 25.4773L77.79 15.4812L73.6452 16.4564L63.6491 13.7745L56.8224 16.944L52.9215 22.3078L44.632 25.4773H31.9539Z" fill="#539882"/>
<path d="M63.1614 86.1857L61.4548 81.3095L61.9424 79.3591L64.1367 83.0162L64.8681 87.4048L63.1614 86.1857Z" fill="#539882"/>
<path d="M70.7195 96.9133L68.769 93.2562L69.7443 92.2809L72.67 94.2314L74.8643 98.1324L78.0338 101.789L79.009 104.715L76.5709 103.74L73.4014 99.3514L70.7195 96.9133Z" fill="#539882"/>
<path d="M82.6661 111.298L81.4471 108.129L80.4719 106.422L82.1785 107.153L85.5919 110.323L87.7861 112.761L90.9556 117.637L89.4928 119.588H87.2985L85.8357 116.906L85.1042 112.029L82.6661 111.298Z" fill="#539882"/>
<path d="M92.6623 119.344L91.4433 120.563L94.1252 124.464L97.0509 126.17L99.489 128.365L101.439 126.414L99.7328 124.22L94.8566 121.538L92.6623 119.344Z" fill="#539882"/>
<path d="M101.683 134.947L102.415 131.047H104.853L107.778 132.509L110.217 137.142L114.849 141.53L118.75 146.894L121.188 153.233V159.572L125.333 166.643V175.42V181.515L127.771 186.147L123.382 200.044L118.75 208.09L111.679 215.648L104.853 217.843L99.489 223.938L92.6623 221.5L88.7614 220.037L83.6414 222.962L80.4719 223.938L79.009 214.429L82.6661 212.723L85.8357 208.822L90.9556 205.408H94.1252L97.0509 202.97L99.489 203.945L106.559 200.776L108.997 196.631L105.584 187.61L108.997 177.614V173.225L105.097 167.862L104.121 162.498L105.097 157.378L106.316 152.014L106.559 146.894L104.853 140.799L103.39 137.142L101.683 134.947Z" fill="#539882"/>
<path d="M59.7481 228.814L56.3348 230.521L55.6034 231.252L57.7976 232.227L60.2357 234.422L60.4795 237.103L61.4548 241.98L59.2605 243.686L56.3348 244.174L55.6034 247.1V253.439L56.3348 255.877L57.7976 256.364L58.0414 253.195L59.5043 252.22L63.8929 249.294L69.9881 246.856L74.1328 243.199L76.3271 241.248L76.0833 236.372L78.5214 234.422L81.2033 230.764L80.4719 226.863L76.0833 227.595L70.9633 226.863L66.3309 224.425L63.1614 226.132L59.7481 226.376V228.814Z" fill="#539882"/>
</g>
<g filter="url(#filter3_d)">
<path d="M46.8261 32.549L33.1728 34.4995L23.1766 26.4538L25.1271 25.2347L32.1976 27.1852L47.3137 28.1604L58.5289 23.0404L65.3556 19.3833L73.8889 18.6519L75.3517 27.1852L76.8146 35.2309V43.2766L67.0622 49.128L64.1365 55.7108L62.1861 50.1032V41.8137L56.3346 34.4995L46.8261 32.549Z" fill="#356740"/>
<path d="M60.7232 66.926L55.1156 70.827L55.6032 74.2403L59.0165 75.2155L61.6984 68.6327L62.1861 64.2441L60.7232 66.926Z" fill="#356740"/>
<path d="M88.2736 118.37L86.8107 114.469L88.2736 115.2L89.2488 116.907L88.2736 118.37Z" fill="#356740"/>
<path d="M97.7821 125.44L93.3936 122.027L99.4888 125.44H97.7821Z" fill="#356740"/>
<path d="M105.828 138.362L104.121 134.217V132.511L107.778 134.705L109.729 139.093L113.142 143.238L116.555 147.139L118.994 153.478L119.481 162.987L123.87 167.375L122.651 175.909L123.382 182.491L125.82 186.149L125.089 189.074L121.675 197.12L118.262 204.922L114.849 208.579L109.241 213.699L104.609 215.406L102.415 214.674L100.708 220.282L98.5136 221.745L95.1003 218.819L90.2241 216.625L85.3479 218.819L81.2031 220.282V214.918L85.8355 212.968L90.2241 208.579L94.3688 207.604L97.0507 204.922L102.171 205.409L108.51 202.971L110.704 199.314L109.973 193.463L107.778 187.368L111.192 180.297V172.251L108.997 167.863L106.559 160.549L108.51 149.821L107.778 144.213L105.828 138.362Z" fill="#356740"/>
<path d="M64.1365 228.084L66.5746 225.889L68.2813 229.059L77.3022 230.766L75.8393 232.96L73.6451 238.08L72.1822 243.687L67.7937 247.101L63.1613 247.588L58.5289 250.758L56.8223 251.246V250.27L57.7975 245.15L61.4546 244.419L62.6737 241.493V234.91L59.748 231.497L58.5289 230.766L60.967 230.034L61.9422 227.352L64.1365 228.084Z" fill="#356740"/>
</g>
<g filter="url(#filter4_d)">
<path d="M34.3923 32.5484L28.5409 27.916L44.3885 30.1103L39.9999 32.5484H34.3923Z" fill="#A2896D"/>
<path d="M65.356 23.0398L49.2646 29.135L50.9713 31.0855L61.6989 32.0607L63.1618 37.9121L69.5008 43.7636L75.1084 38.6436L72.9141 29.135L72.1827 22.3084L65.356 23.0398Z" fill="#A2896D"/>
<path d="M110.704 154.453L108.998 142.262L114.118 148.358L117.287 156.159V163.474L121.92 168.594L119.238 180.784L121.188 186.879L120.701 194.194L114.605 204.434H111.436L113.143 198.826L111.436 188.586L114.605 180.784L113.143 168.594L110.704 154.453Z" fill="#A2896D"/>
<path d="M83.8855 217.599V215.161L88.2741 212.723L94.3693 210.285L97.5388 206.384L99.9769 207.359L103.878 205.896L108.754 204.921L111.436 207.359L107.291 212.479H104.853L100.952 213.942L98.2702 218.087L92.175 215.161H88.5179L83.8855 217.599Z" fill="#A2896D"/>
<path d="M64.6246 233.934L62.4303 231.496L65.8436 229.546L66.5751 231.496H73.4017V234.91L69.9884 241.736L65.8436 245.393H63.4056L65.356 239.786L64.6246 233.934Z" fill="#A2896D"/>
<path d="M59.7484 248.075L59.2608 246.856L61.6989 245.393L61.4551 247.832L59.7484 248.075Z" fill="#A2896D"/>
</g>
<g filter="url(#filter5_d)">
<path d="M71.9389 34.9853L69.5009 25.4767H63.8933L57.798 27.671L65.8437 30.5967V35.4729L69.9885 40.5929L71.9389 34.9853Z" fill="#FFBD3A"/>
<path d="M114.118 190.292L115.825 185.659L118.263 190.292L117.531 196.631H114.118V190.292Z" fill="#FFBD3A"/>
<path d="M116.556 176.151L115.337 166.642L118.019 166.154L119.482 170.787L116.556 176.151Z" fill="#FFBD3A"/>
<path d="M115.337 155.671L111.924 148.113L112.655 154.939L114.118 158.596L115.337 160.547V155.671Z" fill="#FFBD3A"/>
<path d="M106.804 210.04V207.114L102.903 207.602L98.2703 210.04L95.8322 211.015L94.6132 214.185L98.2703 215.16L100.465 211.99L102.415 210.04H106.804Z" fill="#FFBD3A"/>
<path d="M67.5504 239.541L66.5752 234.909L66.819 232.958L69.7447 232.714L71.4513 234.177L69.7447 237.59L67.5504 239.541Z" fill="#FFBD3A"/>
</g>
<defs>
<filter id="filter0_d" x="0.712219" y="0.0905762" width="138.267" height="273.537" filterUnits="userSpaceOnUse" color-interpolation-filters="sRGB">
<feFlood flood-opacity="0" result="BackgroundImageFix"/>
<feColorMatrix in="SourceAlpha" type="matrix" values="0 0 0 0 0 0 0 0 0 0 0 0 0 0 0 0 0 0 127 0"/>
<feOffset dy="4"/>
<feGaussianBlur stdDeviation="2"/>
<feColorMatrix type="matrix" values="0 0 0 0 0 0 0 0 0 0 0 0 0 0 0 0 0 0 0.25 0"/>
<feBlend mode="normal" in2="BackgroundImageFix" result="effect1_dropShadow"/>
<feBlend mode="normal" in="SourceGraphic" in2="effect1_dropShadow" result="shape"/>
</filter>
<filter id="filter1_d" x="9.91162" y="8.65433" width="124.297" height="260.342" filterUnits="userSpaceOnUse" color-interpolation-filters="sRGB">
<feFlood flood-opacity="0" result="BackgroundImageFix"/>
<feColorMatrix in="SourceAlpha" type="matrix" values="0 0 0 0 0 0 0 0 0 0 0 0 0 0 0 0 0 0 127 0"/>
<feOffset dy="4"/>
<feGaussianBlur stdDeviation="2"/>
<feColorMatrix type="matrix" values="0 0 0 0 0 0 0 0 0 0 0 0 0 0 0 0 0 0 0.25 0"/>
<feBlend mode="normal" in2="BackgroundImageFix" result="effect1_dropShadow"/>
<feBlend mode="normal" in="SourceGraphic" in2="effect1_dropShadow" result="shape"/>
</filter>
<filter id="filter2_d" x="16.0073" y="13.7745" width="115.764" height="250.59" filterUnits="userSpaceOnUse" color-interpolation-filters="sRGB">
<feFlood flood-opacity="0" result="BackgroundImageFix"/>
<feColorMatrix in="SourceAlpha" type="matrix" values="0 0 0 0 0 0 0 0 0 0 0 0 0 0 0 0 0 0 127 0"/>
<feOffset dy="4"/>
<feGaussianBlur stdDeviation="2"/>
<feColorMatrix type="matrix" values="0 0 0 0 0 0 0 0 0 0 0 0 0 0 0 0 0 0 0.25 0"/>
<feBlend mode="normal" in2="BackgroundImageFix" result="effect1_dropShadow"/>
<feBlend mode="normal" in="SourceGraphic" in2="effect1_dropShadow" result="shape"/>
</filter>
<filter id="filter3_d" x="19.1766" y="18.6519" width="110.644" height="240.594" filterUnits="userSpaceOnUse" color-interpolation-filters="sRGB">
<feFlood flood-opacity="0" result="BackgroundImageFix"/>
<feColorMatrix in="SourceAlpha" type="matrix" values="0 0 0 0 0 0 0 0 0 0 0 0 0 0 0 0 0 0 127 0"/>
<feOffset dy="4"/>
<feGaussianBlur stdDeviation="2"/>
<feColorMatrix type="matrix" values="0 0 0 0 0 0 0 0 0 0 0 0 0 0 0 0 0 0 0.25 0"/>
<feBlend mode="normal" in2="BackgroundImageFix" result="effect1_dropShadow"/>
<feBlend mode="normal" in="SourceGraphic" in2="effect1_dropShadow" result="shape"/>
</filter>
<filter id="filter4_d" x="24.5409" y="22.3084" width="101.379" height="233.767" filterUnits="userSpaceOnUse" color-interpolation-filters="sRGB">
<feFlood flood-opacity="0" result="BackgroundImageFix"/>
<feColorMatrix in="SourceAlpha" type="matrix" values="0 0 0 0 0 0 0 0 0 0 0 0 0 0 0 0 0 0 127 0"/>
<feOffset dy="4"/>
<feGaussianBlur stdDeviation="2"/>
<feColorMatrix type="matrix" values="0 0 0 0 0 0 0 0 0 0 0 0 0 0 0 0 0 0 0.25 0"/>
<feBlend mode="normal" in2="BackgroundImageFix" result="effect1_dropShadow"/>
<feBlend mode="normal" in="SourceGraphic" in2="effect1_dropShadow" result="shape"/>
</filter>
<filter id="filter5_d" x="53.798" y="25.4767" width="69.6836" height="222.064" filterUnits="userSpaceOnUse" color-interpolation-filters="sRGB">
<feFlood flood-opacity="0" result="BackgroundImageFix"/>
<feColorMatrix in="SourceAlpha" type="matrix" values="0 0 0 0 0 0 0 0 0 0 0 0 0 0 0 0 0 0 127 0"/>
<feOffset dy="4"/>
<feGaussianBlur stdDeviation="2"/>
<feColorMatrix type="matrix" values="0 0 0 0 0 0 0 0 0 0 0 0 0 0 0 0 0 0 0.25 0"/>
<feBlend mode="normal" in2="BackgroundImageFix" result="effect1_dropShadow"/>
<feBlend mode="normal" in="SourceGraphic" in2="effect1_dropShadow" result="shape"/>
</filter>
</defs>
</svg>
