<svg width="46" height="40" viewBox="0 0 46 40" fill="none" xmlns="http://www.w3.org/2000/svg">
<path d="M20.9836 26.6673C20.9836 27.1093 21.1846 27.5333 21.5424 27.8458C21.9001 28.1584 22.3853 28.334 22.8913 28.334C23.3972 28.334 23.8824 28.1584 24.2402 27.8458C24.5979 27.5333 24.7989 27.1093 24.7989 26.6673H30.5218C31.9124 26.6673 33.2154 26.3423 34.337 25.7757V33.334C34.337 34.218 33.9351 35.0659 33.2196 35.691C32.5041 36.3161 31.5337 36.6673 30.5218 36.6673H15.2607C14.2489 36.6673 13.2784 36.3161 12.5629 35.691C11.8474 35.0659 11.4455 34.218 11.4455 33.334V25.7757C12.5672 26.3423 13.8701 26.6673 15.2607 26.6673H20.9836ZM24.7989 25.0007V20.0007C24.7989 19.5586 24.5979 19.1347 24.2402 18.8221C23.8824 18.5096 23.3972 18.334 22.8913 18.334C22.3853 18.334 21.9001 18.5096 21.5424 18.8221C21.1846 19.1347 20.9836 19.5586 20.9836 20.0007V25.0007H15.2607C13.7429 25.0007 12.2873 24.4739 11.214 23.5362C10.1408 22.5985 9.53784 21.3267 9.53784 20.0007V15.0007C9.53784 13.6746 10.1408 12.4028 11.214 11.4651C12.2873 10.5274 13.7429 10.0007 15.2607 10.0007H30.5218C32.0396 10.0007 33.4952 10.5274 34.5685 11.4651C35.6417 12.4028 36.2447 13.6746 36.2447 15.0007V20.0007C36.2447 21.3267 35.6417 22.5985 34.5685 23.5362C33.4952 24.4739 32.0396 25.0007 30.5218 25.0007H24.7989ZM19.076 8.33398H15.2607C14.6026 8.33398 13.9635 8.40732 13.3531 8.54398V5.83398C13.3531 5.17094 13.6546 4.53506 14.1912 4.06622C14.7278 3.59738 15.4556 3.33398 16.2145 3.33398C16.9735 3.33398 17.7013 3.59738 18.2379 4.06622C18.7745 4.53506 19.076 5.17094 19.076 5.83398V8.33398ZM32.4294 8.54398C31.8062 8.40411 31.1652 8.33356 30.5218 8.33398H26.7065V5.83398C26.7065 5.17094 27.008 4.53506 27.5446 4.06622C28.0812 3.59738 28.8091 3.33398 29.568 3.33398C30.3269 3.33398 31.0547 3.59738 31.5913 4.06622C32.1279 4.53506 32.4294 5.17094 32.4294 5.83398V8.54398Z" fill="white"/>
</svg>
