<svg width="21" height="36" viewBox="0 0 21 36" fill="none" xmlns="http://www.w3.org/2000/svg">
<path d="M6.09198 25.4876H12.7288V23.4545C12.7288 18.6446 21 17.0579 21 9.61983C21 3.96694 16.3443 0 9.95519 0C3.76415 0 0.941038 4.21488 0 6.94215L5.44811 9.3719C5.99292 8.08265 7.13207 6.29752 9.85613 6.29752C12.4811 6.29752 14.0165 8.08265 14.0165 10.0165C14.0165 14.8264 6.09198 16.3636 6.09198 23.0579V25.4876ZM9.41038 36C11.7877 36 13.6203 34.1157 13.6203 31.8347C13.6203 29.5041 11.7877 27.5702 9.41038 27.5702C7.03302 27.5702 5.20047 29.5041 5.20047 31.8347C5.20047 34.1157 7.03302 36 9.41038 36Z" fill="black"/>
</svg>
