<svg width="39" height="39" viewBox="0 0 39 39" fill="none" xmlns="http://www.w3.org/2000/svg">
<path d="M38.5176 16.5361L34.1584 15.2361C33.857 14.1848 33.4425 13.1693 32.9222 12.2071L35.0563 8.21616C35.1363 8.06551 35.1657 7.89309 35.1399 7.72447C35.1141 7.55586 35.0346 7.40005 34.9131 7.28016L31.8031 4.16018C31.6831 4.03885 31.5271 3.95941 31.3583 3.93365C31.1896 3.90789 31.017 3.93718 30.8662 4.01718L26.8973 6.13617C25.9247 5.59103 24.8948 5.15505 23.8263 4.83617L22.525 0.533196C22.47 0.374618 22.366 0.237576 22.228 0.141797C22.0901 0.0460169 21.9252 -0.003561 21.7573 0.000199118H17.359C17.19 0.00098506 17.0257 0.0556237 16.8899 0.156163C16.7542 0.256703 16.6541 0.397897 16.6042 0.559196L15.303 4.84917C14.2255 5.16634 13.1868 5.60236 12.2059 6.14917L8.30211 4.04318C8.15132 3.96318 7.97872 3.93389 7.80995 3.95965C7.64117 3.98541 7.4852 4.06485 7.3652 4.18618L4.20311 7.26716C4.08166 7.38705 4.00214 7.54286 3.97635 7.71147C3.95057 7.88009 3.97989 8.05251 4.05997 8.20316L6.16803 12.1031C5.62157 13.0789 5.18514 14.1122 4.86676 15.1841L0.559547 16.4841C0.398089 16.5339 0.256756 16.6339 0.156118 16.7695C0.0554791 16.9051 0.000786715 17.0693 0 17.2381V21.6321C0.000786715 21.8009 0.0554791 21.9651 0.156118 22.1007C0.256756 22.2363 0.398089 22.3363 0.559547 22.3861L4.89278 23.6861C5.21465 24.7401 5.651 25.7558 6.19405 26.7151L4.05997 30.797C3.97989 30.9477 3.95057 31.1201 3.97635 31.2887C4.00214 31.4573 4.08166 31.6131 4.20311 31.733L7.31315 34.84C7.43315 34.9613 7.58912 35.0408 7.7579 35.0665C7.92667 35.0923 8.09927 35.063 8.25006 34.983L12.271 32.838C13.2222 33.3508 14.2255 33.7604 15.2639 34.06L16.5652 38.441C16.615 38.6023 16.7151 38.7435 16.8509 38.844C16.9866 38.9446 17.1509 38.9992 17.3199 39H21.7182C21.8872 38.9992 22.0515 38.9446 22.1873 38.844C22.323 38.7435 22.4231 38.6023 22.473 38.441L23.7742 34.047C24.8038 33.7459 25.7983 33.3363 26.7411 32.825L30.7881 34.983C30.9389 35.063 31.1115 35.0923 31.2803 35.0665C31.449 35.0408 31.605 34.9613 31.725 34.84L34.835 31.733C34.9565 31.6131 35.036 31.4573 35.0618 31.2887C35.0876 31.1201 35.0583 30.9477 34.9782 30.797L32.8181 26.7671C33.3351 25.8216 33.7496 24.8236 34.0543 23.7901L38.4396 22.4901C38.601 22.4403 38.7424 22.3403 38.843 22.2047C38.9436 22.0691 38.9983 21.9049 38.9991 21.7361V17.3031C39.0068 17.1415 38.9648 16.9813 38.8787 16.8442C38.7926 16.7071 38.6666 16.5996 38.5176 16.5361ZM19.5581 26.6501C18.1426 26.6501 16.7589 26.2307 15.5819 25.4451C14.4049 24.6594 13.4876 23.5428 12.9459 22.2363C12.4042 20.9298 12.2625 19.4922 12.5386 18.1052C12.8148 16.7183 13.4964 15.4443 14.4974 14.4443C15.4983 13.4444 16.7735 12.7634 18.1619 12.4875C19.5502 12.2116 20.9892 12.3532 22.297 12.8944C23.6047 13.4356 24.7225 14.352 25.5089 15.5278C26.2954 16.7036 26.7151 18.086 26.7151 19.5001C26.7151 21.3964 25.9611 23.215 24.6189 24.5559C23.2767 25.8968 21.4563 26.6501 19.5581 26.6501Z" fill="white"/>
</svg>
