<svg width="540" height="466" viewBox="0 0 540 466" fill="none" xmlns="http://www.w3.org/2000/svg">
<g filter="url(#filter0_d)">
<path d="M449.665 62.4439L480.566 58.0295L464.38 87.4587V102.173L477.623 113.945V134.545L483.509 153.674L527.653 177.218L558.553 193.404L599.754 190.461L586.511 205.175L555.61 215.475L545.31 240.49H483.509V278.748L470.266 283.162L464.38 311.12L454.08 328.778L417.293 349.378L401.107 356.735L383.45 387.636L377.564 430.308L362.849 459.737L365.792 489.166L390.807 528.896L426.122 553.911L446.723 581.868L464.38 627.483L514.41 671.627L524.71 690.756L554.139 718.714L587.982 743.728L604.168 768.743L635.069 781.986L648.312 798.172L667.441 827.602L698.342 857.031L710.113 886.46L730.714 920.303L743.957 974.747L751.314 986.519V1036.55L748.371 1089.52L773.386 1117.48L748.371 1151.32V1183.69L733.657 1241.08L720.413 1271.98L702.756 1297L658.612 1314.65L620.354 1338.2L599.754 1360.27L580.625 1369.1L548.253 1374.98L530.596 1372.04L526.181 1347.03L501.166 1352.91L492.338 1347.03L487.923 1379.4L480.566 1413.24L474.68 1427.96H454.08V1448.56L457.023 1469.16L443.78 1466.21L433.479 1475.04L418.765 1497.11L370.207 1511.83L345.192 1517.71L330.477 1560.39L302.52 1573.63L308.406 1551.56H295.162V1532.43L302.52 1455.91L330.477 1448.56L318.706 1413.24L290.748 1391.17H271.619V1379.4H290.748L308.406 1372.04L324.592 1360.27L318.706 1338.2L345.192 1352.91L354.021 1338.2L370.207 1332.31H390.807L399.636 1347.03H412.879L424.651 1352.91H440.837V1329.37L443.78 1305.82L421.708 1292.58L409.936 1271.98L424.651 1251.38L440.837 1267.57L468.794 1251.38V1236.67V1223.42L492.338 1227.84L501.166 1214.59H526.181L552.667 1188.11L560.025 1202.82L587.982 1196.94L590.925 1151.32L587.982 1107.18L604.168 1055.68L583.568 1007.12L579.154 965.918L590.925 910.003L598.283 886.46L593.868 842.316L576.211 834.959L565.911 812.887L576.211 798.172L579.154 774.629H565.911L554.139 758.443L520.295 737.843L507.052 718.714L490.866 724.599L479.095 714.299V680.456L461.437 665.741L449.665 640.726H432.008L401.107 605.411L383.45 578.925L365.792 542.139L346.663 536.253L337.835 521.538L327.534 480.338H286.334L264.262 459.737L209.818 430.308L226.004 418.536V393.522L264.262 408.236L286.334 393.522L301.048 372.921L315.763 343.492L274.562 324.363L286.334 311.12L264.262 300.82L274.562 283.162L245.133 249.319L203.932 244.905L174.503 262.562L153.903 269.919L114.173 249.319L95.0443 215.475L100.93 165.446H87.687L67.0866 150.731L59.7293 165.446L46.4862 136.017L20 99.2303L52.3721 78.6299L100.93 106.588L127.416 68.3297L146.545 99.2303L167.146 78.6299L203.932 99.2303L215.704 68.3297L245.133 78.6299L264.262 62.4439L280.448 68.3297L301.048 46.2579V25.6575L342.249 8L361.378 34.4862H381.978L398.164 46.2579H429.065L449.665 62.4439Z" fill="#F3E8CB"/>
<path d="M449.665 62.4439L480.566 58.0295L464.38 87.4587V102.173L477.623 113.945V134.545L483.509 153.674L527.653 177.218L558.553 193.404L599.754 190.461L586.511 205.175L555.61 215.475L545.31 240.49H483.509V278.748L470.266 283.162L464.38 311.12L454.08 328.778L417.293 349.378L401.107 356.735L383.45 387.636L377.564 430.308L362.849 459.737L365.792 489.166L390.807 528.896L426.122 553.911L446.723 581.868L464.38 627.483L514.41 671.627L524.71 690.756L554.139 718.714L587.982 743.728L604.168 768.743L635.069 781.986L648.312 798.172L667.441 827.602L698.342 857.031L710.113 886.46L730.714 920.303L743.957 974.747L751.314 986.519V1036.55L748.371 1089.52L773.386 1117.48L748.371 1151.32V1183.69L733.657 1241.08L720.413 1271.98L702.756 1297L658.612 1314.65L620.354 1338.2L599.754 1360.27L580.625 1369.1L548.253 1374.98L530.596 1372.04L526.181 1347.03L501.166 1352.91L492.338 1347.03L487.923 1379.4L480.566 1413.24L474.68 1427.96H454.08V1448.56L457.023 1469.16L443.78 1466.21L433.479 1475.04L418.765 1497.11L370.207 1511.83L345.192 1517.71L330.477 1560.39L302.52 1573.63L308.406 1551.56H295.162V1532.43L302.52 1455.91L330.477 1448.56L318.706 1413.24L290.748 1391.17H271.619V1379.4H290.748L308.406 1372.04L324.592 1360.27L318.706 1338.2L345.192 1352.91L354.021 1338.2L370.207 1332.31H390.807L399.636 1347.03H412.879L424.651 1352.91H440.837V1329.37L443.78 1305.82L421.708 1292.58L409.936 1271.98L424.651 1251.38L440.837 1267.57L468.794 1251.38V1236.67V1223.42L492.338 1227.84L501.166 1214.59H526.181L552.667 1188.11L560.025 1202.82L587.982 1196.94L590.925 1151.32L587.982 1107.18L604.168 1055.68L583.568 1007.12L579.154 965.918L590.925 910.003L598.283 886.46L593.868 842.316L576.211 834.959L565.911 812.887L576.211 798.172L579.154 774.629H565.911L554.139 758.443L520.295 737.843L507.052 718.714L490.866 724.599L479.095 714.299V680.456L461.437 665.741L449.665 640.726H432.008L401.107 605.411L383.45 578.925L365.792 542.139L346.663 536.253L337.835 521.538L327.534 480.338H286.334L264.262 459.737L209.818 430.308L226.004 418.536V393.522L264.262 408.236L286.334 393.522L301.048 372.921L315.763 343.492L274.562 324.363L286.334 311.12L264.262 300.82L274.562 283.162L245.133 249.319L203.932 244.905L174.503 262.562L153.903 269.919L114.173 249.319L95.0443 215.475L100.93 165.446H87.687L67.0866 150.731L59.7293 165.446L46.4862 136.017L20 99.2303L52.3721 78.6299L100.93 106.588L127.416 68.3297L146.545 99.2303L167.146 78.6299L203.932 99.2303L215.704 68.3297L245.133 78.6299L264.262 62.4439L280.448 68.3297L301.048 46.2579V25.6575L342.249 8L361.378 34.4862H381.978L398.164 46.2579H429.065L449.665 62.4439Z" stroke="#F3E8CB" stroke-width="11.6453"/>
</g>
<g filter="url(#filter1_d)">
<path d="M320.177 60.9731L355.492 44.7871L383.45 49.2015L426.122 71.2733L473.208 60.9731L458.494 106.588L454.079 155.146L512.938 186.047L532.067 228.719L473.208 236.077L448.194 303.764L392.278 344.964L361.378 436.195L356.963 465.624L368.735 502.41L373.149 527.425L352.549 530.368L342.249 503.882L331.949 480.338L296.634 471.51L234.832 424.423L271.619 406.766L327.534 371.451L318.705 318.478L296.634 277.277L276.033 236.077L200.989 227.248L152.431 237.548L134.773 196.347L58.2576 136.017V100.702L136.245 108.06L186.274 124.246L214.232 109.531L251.018 103.645L289.276 88.9308L320.177 60.9731Z" fill="#C1DD9B"/>
<path d="M396.693 584.812L380.507 550.968L395.221 536.254L414.35 555.383L445.251 593.641L464.38 628.956L504.109 661.328L524.709 692.228L551.196 723.129L586.511 743.729L593.868 761.387L571.796 771.687L555.61 758.444L539.424 746.672L518.824 718.714L496.752 720.186L484.98 711.357L480.566 673.099L464.38 665.742L458.494 645.142L445.251 639.256L429.065 628.956L418.765 606.884L396.693 584.812Z" fill="#C1DD9B"/>
<path d="M604.168 771.687L586.511 781.987L580.625 812.888L595.339 830.545L605.64 855.56L608.582 879.103L595.339 936.49L592.396 995.348L618.883 1032.13L608.582 1089.52L598.282 1124.84L615.94 1180.75L585.039 1205.77L565.91 1208.71L554.139 1201.35L542.367 1217.54L515.881 1221.95L508.523 1230.78H471.737L479.094 1248.44L457.022 1269.04H434.951L421.707 1260.21L423.179 1286.7L443.779 1295.53V1330.84V1355.86L426.122 1358.8L402.579 1351.44L393.75 1339.67H365.792L355.492 1348.5L339.306 1351.44L321.648 1341.14L324.591 1357.33L314.291 1372.04L295.162 1380.87L278.976 1382.34L274.562 1388.23H296.634L329.006 1413.24L333.42 1452.97L305.462 1460.33L301.048 1541.26H311.348L308.405 1567.75L326.063 1560.39L333.42 1525.07L355.492 1510.36L411.407 1486.81L434.951 1463.27H448.194V1426.49L471.737 1422.07L479.094 1372.04L496.752 1341.14L521.767 1333.78L532.067 1355.86L557.081 1369.1L598.282 1355.86L626.24 1320.54L683.627 1298.47L711.584 1277.87L726.299 1232.25L739.542 1180.75L748.371 1141.02L760.143 1117.48L742.485 1076.28L739.542 992.405L726.299 962.976L723.356 917.361L693.927 855.56L655.669 820.245L630.654 783.458L604.168 771.687Z" fill="#C1DD9B"/>
</g>
<g filter="url(#filter2_d)">
<path d="M167.145 146.315L111.23 118.358L95.0437 146.315L161.259 211.06H199.517H276.033L317.234 239.017L331.948 290.518L342.249 359.677L331.948 389.106L270.147 420.007L312.819 459.736L336.363 462.679L348.134 420.007L387.864 318.476L443.779 269.918L461.437 227.246L482.037 222.831L490.866 211.06L452.608 186.045L436.422 146.315L443.779 85.9857L418.764 91.8716L358.435 75.6855L317.234 94.8145L293.69 127.187L243.661 146.315H167.145Z" fill="#539882"/>
<path d="M355.492 512.708L345.191 483.279L348.134 471.508L361.377 493.579L365.792 520.066L355.492 512.708Z" fill="#539882"/>
<path d="M401.107 577.452L389.335 555.381L395.221 549.495L412.878 561.266L426.122 584.81L445.25 606.882L451.136 624.539L436.422 618.653L417.293 592.167L401.107 577.452Z" fill="#539882"/>
<path d="M473.208 664.268L465.851 645.139L459.965 634.839L470.265 639.254L490.866 658.383L504.109 673.097L523.238 702.526L514.409 714.298H501.166L492.337 698.112L487.923 668.683L473.208 664.268Z" fill="#539882"/>
<path d="M533.538 712.826L526.181 720.184L542.367 743.727L560.024 754.027L574.739 767.27L586.51 755.499L576.21 742.256L546.781 726.07L533.538 712.826Z" fill="#539882"/>
<path d="M587.982 807L592.396 783.456H607.111L624.768 792.285L639.483 820.243L667.441 846.729L690.984 879.101L705.698 917.359V955.617L730.713 998.289V1051.26V1088.05L745.428 1116.01L718.942 1199.88L690.984 1248.44L648.312 1294.05L607.111 1307.3L574.739 1344.08L533.538 1329.37L509.995 1320.54L479.094 1338.2L459.965 1344.08L451.136 1286.69L473.208 1276.39L492.337 1252.85L523.238 1232.25H542.367L560.024 1217.54L574.739 1223.42L617.411 1204.29L632.126 1179.28L611.525 1124.83L632.126 1064.5V1038.02L608.582 1005.65L602.696 973.274L608.582 942.374L615.94 910.002L617.411 879.101L607.111 842.315L598.282 820.243L587.982 807Z" fill="#539882"/>
<path d="M334.891 1373.51L314.291 1383.81L309.876 1388.23L323.12 1394.11L337.834 1407.35L339.306 1423.54L345.191 1452.97L331.948 1463.27L314.291 1466.21L309.876 1483.87V1522.13L314.291 1536.84L323.12 1539.79L324.591 1520.66L333.42 1514.77L359.906 1497.11L396.692 1482.4L421.707 1460.33L434.95 1448.56L433.479 1419.13L448.193 1407.35L464.379 1385.28L459.965 1361.74L433.479 1366.15L402.578 1361.74L374.621 1347.02L355.492 1357.32L334.891 1358.8V1373.51Z" fill="#539882"/>
</g>
<g filter="url(#filter3_d)">
<path d="M256.906 188.992L174.505 200.764L114.175 152.206L125.946 144.848L168.619 156.62L259.849 162.506L327.536 131.605L368.737 109.534L420.238 105.119L429.067 156.62L437.895 205.178V253.736L379.037 289.051L361.38 328.781L349.608 294.937V244.908L314.293 200.764L256.906 188.992Z" fill="#356740"/>
<path d="M340.779 396.468L306.936 420.011L309.879 440.611L330.479 446.497L346.665 406.768L349.608 380.282L340.779 396.468Z" fill="#356740"/>
<path d="M507.054 706.945L498.225 683.402L507.054 687.816L512.94 698.116L507.054 706.945Z" fill="#356740"/>
<path d="M564.441 749.617L537.954 729.017L574.741 749.617H564.441Z" fill="#356740"/>
<path d="M612.999 827.605L602.699 802.59V792.29L624.77 805.533L636.542 832.019L657.142 857.034L677.743 880.577L692.457 918.835L695.4 976.222L721.887 1002.71L714.529 1054.21L718.944 1093.94L733.658 1116.01L729.244 1133.67L708.643 1182.23L688.043 1229.31L667.443 1251.38L633.599 1282.28L605.641 1292.58L592.398 1288.17L582.098 1322.01L568.855 1330.84L548.255 1313.19L518.825 1299.94L489.396 1313.19L464.382 1322.01V1289.64L492.339 1277.87L518.825 1251.38L543.84 1245.5L560.026 1229.31L590.927 1232.26L629.185 1217.54L642.428 1195.47L638.013 1160.15L624.77 1123.37L645.371 1080.7V1032.14L632.128 1005.65L617.413 961.507L629.185 896.763L624.77 862.919L612.999 827.605Z" fill="#356740"/>
<path d="M361.38 1369.1L376.094 1355.86L386.394 1374.99L440.838 1385.29L432.01 1398.53L418.766 1429.43L409.938 1463.27L383.451 1483.87L355.494 1486.82L327.536 1505.95L317.236 1508.89V1503L323.122 1472.1L345.194 1467.69L352.551 1450.03V1410.3L334.893 1389.7L327.536 1385.29L342.251 1380.87L348.136 1364.69L361.38 1369.1Z" fill="#356740"/>
</g>
<g filter="url(#filter4_d)">
<path d="M181.861 188.989L146.546 161.031L242.191 174.274L215.704 188.989H181.861Z" fill="#A2896D"/>
<path d="M368.736 131.602L271.62 168.388L281.92 180.16L346.664 186.046L355.493 221.361L393.751 256.676L427.594 225.775L414.351 168.388L409.937 127.188L368.736 131.602Z" fill="#A2896D"/>
<path d="M642.427 924.717L632.127 851.144L663.027 887.931L682.156 935.017V979.161L710.114 1010.06L693.928 1083.63L705.7 1120.42L702.757 1164.56L665.97 1226.37H646.841L657.141 1192.52L646.841 1130.72L665.97 1083.63L657.141 1010.06L642.427 924.717Z" fill="#A2896D"/>
<path d="M480.567 1305.82V1291.11L507.053 1276.4L543.839 1261.68L562.968 1238.14L577.683 1244.02L601.226 1235.19L630.655 1229.31L646.841 1244.02L621.827 1274.92H607.112L583.569 1283.75L567.383 1308.77L530.596 1291.11H508.524L480.567 1305.82Z" fill="#A2896D"/>
<path d="M364.322 1404.41L351.078 1389.7L371.679 1377.93L376.093 1389.7H417.294V1410.3L396.694 1451.5L371.679 1473.57H356.964L368.736 1439.73L364.322 1404.41Z" fill="#A2896D"/>
<path d="M334.892 1489.76L331.949 1482.4L346.664 1473.57L345.193 1488.29L334.892 1489.76Z" fill="#A2896D"/>
</g>
<g filter="url(#filter5_d)">
<path d="M408.464 203.703L393.75 146.316H359.906L323.12 159.56L371.678 177.217V206.646L396.693 237.547L408.464 203.703Z" fill="#FFBD3A"/>
<path d="M663.026 1141.02L673.327 1113.06L688.041 1141.02L683.627 1179.28H663.026V1141.02Z" fill="#FFBD3A"/>
<path d="M677.741 1055.68L670.384 998.29L686.57 995.347L695.398 1023.3L677.741 1055.68Z" fill="#FFBD3A"/>
<path d="M670.384 932.074L649.783 886.459L654.198 927.66L663.026 949.732L670.384 961.504V932.074Z" fill="#FFBD3A"/>
<path d="M618.883 1260.21V1242.55L595.339 1245.49L567.382 1260.21L552.667 1266.1L545.31 1285.22L567.382 1291.11L580.625 1271.98L592.396 1260.21H618.883Z" fill="#FFBD3A"/>
<path d="M381.978 1438.26L376.092 1410.3L377.564 1398.53L395.221 1397.05L405.521 1405.88L395.221 1426.48L381.978 1438.26Z" fill="#FFBD3A"/>
</g>
<defs>
<filter id="filter0_d" x="0.026557" y="0.8125" width="792.504" height="1606.75" filterUnits="userSpaceOnUse" color-interpolation-filters="sRGB">
<feFlood flood-opacity="0" result="BackgroundImageFix"/>
<feColorMatrix in="SourceAlpha" type="matrix" values="0 0 0 0 0 0 0 0 0 0 0 0 0 0 0 0 0 0 127 0"/>
<feOffset dy="11.6453"/>
<feGaussianBlur stdDeviation="5.82266"/>
<feColorMatrix type="matrix" values="0 0 0 0 0 0 0 0 0 0 0 0 0 0 0 0 0 0 0.25 0"/>
<feBlend mode="normal" in2="BackgroundImageFix" result="effect1_dropShadow"/>
<feBlend mode="normal" in="SourceGraphic" in2="effect1_dropShadow" result="shape"/>
</filter>
<filter id="filter1_d" x="46.6123" y="44.7871" width="725.176" height="1546.25" filterUnits="userSpaceOnUse" color-interpolation-filters="sRGB">
<feFlood flood-opacity="0" result="BackgroundImageFix"/>
<feColorMatrix in="SourceAlpha" type="matrix" values="0 0 0 0 0 0 0 0 0 0 0 0 0 0 0 0 0 0 127 0"/>
<feOffset dy="11.6453"/>
<feGaussianBlur stdDeviation="5.82266"/>
<feColorMatrix type="matrix" values="0 0 0 0 0 0 0 0 0 0 0 0 0 0 0 0 0 0 0.25 0"/>
<feBlend mode="normal" in2="BackgroundImageFix" result="effect1_dropShadow"/>
<feBlend mode="normal" in="SourceGraphic" in2="effect1_dropShadow" result="shape"/>
</filter>
<filter id="filter2_d" x="83.3984" y="75.6855" width="673.675" height="1487.39" filterUnits="userSpaceOnUse" color-interpolation-filters="sRGB">
<feFlood flood-opacity="0" result="BackgroundImageFix"/>
<feColorMatrix in="SourceAlpha" type="matrix" values="0 0 0 0 0 0 0 0 0 0 0 0 0 0 0 0 0 0 127 0"/>
<feOffset dy="11.6453"/>
<feGaussianBlur stdDeviation="5.82266"/>
<feColorMatrix type="matrix" values="0 0 0 0 0 0 0 0 0 0 0 0 0 0 0 0 0 0 0.25 0"/>
<feBlend mode="normal" in2="BackgroundImageFix" result="effect1_dropShadow"/>
<feBlend mode="normal" in="SourceGraphic" in2="effect1_dropShadow" result="shape"/>
</filter>
<filter id="filter3_d" x="102.529" y="105.119" width="642.774" height="1427.06" filterUnits="userSpaceOnUse" color-interpolation-filters="sRGB">
<feFlood flood-opacity="0" result="BackgroundImageFix"/>
<feColorMatrix in="SourceAlpha" type="matrix" values="0 0 0 0 0 0 0 0 0 0 0 0 0 0 0 0 0 0 127 0"/>
<feOffset dy="11.6453"/>
<feGaussianBlur stdDeviation="5.82266"/>
<feColorMatrix type="matrix" values="0 0 0 0 0 0 0 0 0 0 0 0 0 0 0 0 0 0 0.25 0"/>
<feBlend mode="normal" in2="BackgroundImageFix" result="effect1_dropShadow"/>
<feBlend mode="normal" in="SourceGraphic" in2="effect1_dropShadow" result="shape"/>
</filter>
<filter id="filter4_d" x="134.901" y="127.188" width="586.859" height="1385.86" filterUnits="userSpaceOnUse" color-interpolation-filters="sRGB">
<feFlood flood-opacity="0" result="BackgroundImageFix"/>
<feColorMatrix in="SourceAlpha" type="matrix" values="0 0 0 0 0 0 0 0 0 0 0 0 0 0 0 0 0 0 127 0"/>
<feOffset dy="11.6453"/>
<feGaussianBlur stdDeviation="5.82266"/>
<feColorMatrix type="matrix" values="0 0 0 0 0 0 0 0 0 0 0 0 0 0 0 0 0 0 0.25 0"/>
<feBlend mode="normal" in2="BackgroundImageFix" result="effect1_dropShadow"/>
<feBlend mode="normal" in="SourceGraphic" in2="effect1_dropShadow" result="shape"/>
</filter>
<filter id="filter5_d" x="311.475" y="146.316" width="395.569" height="1315.23" filterUnits="userSpaceOnUse" color-interpolation-filters="sRGB">
<feFlood flood-opacity="0" result="BackgroundImageFix"/>
<feColorMatrix in="SourceAlpha" type="matrix" values="0 0 0 0 0 0 0 0 0 0 0 0 0 0 0 0 0 0 127 0"/>
<feOffset dy="11.6453"/>
<feGaussianBlur stdDeviation="5.82266"/>
<feColorMatrix type="matrix" values="0 0 0 0 0 0 0 0 0 0 0 0 0 0 0 0 0 0 0.25 0"/>
<feBlend mode="normal" in2="BackgroundImageFix" result="effect1_dropShadow"/>
<feBlend mode="normal" in="SourceGraphic" in2="effect1_dropShadow" result="shape"/>
</filter>
</defs>
</svg>
