<svg width="82" height="22" viewBox="0 0 82 22" fill="none" xmlns="http://www.w3.org/2000/svg">
<g clip-path="url(#clip0)">
<path d="M11.8628 2.4832C11.8628 3.3582 11.1501 4.0582 10.2593 4.0582C9.36846 4.0582 8.6558 3.3582 8.6558 2.4832C8.6558 1.6082 9.36846 0.908203 10.2593 0.908203C11.1501 0.908203 11.8628 1.6082 11.8628 2.4832ZM10.2593 5.31237C9.33877 5.31237 8.59642 6.04154 8.59642 6.9457C8.59642 7.84987 9.33877 8.57904 10.2593 8.57904C11.1798 8.57904 11.9221 7.84987 11.9221 6.9457C11.9221 6.04154 11.1798 5.31237 10.2593 5.31237ZM10.2593 9.70195C9.30907 9.70195 8.52218 10.4603 8.52218 11.4082C8.52218 12.3415 9.29422 13.1145 10.2593 13.1145C11.2243 13.1145 11.9964 12.3415 11.9964 11.4082C11.9964 10.4749 11.2243 9.70195 10.2593 9.70195ZM10.2593 14.2374C9.33877 14.2374 8.59642 14.9665 8.59642 15.8707C8.59642 16.7749 9.33877 17.504 10.2593 17.504C11.1798 17.504 11.9221 16.7749 11.9221 15.8707C11.937 14.9665 11.1798 14.2374 10.2593 14.2374ZM10.2593 18.7582C9.36846 18.7582 8.6558 19.4582 8.6558 20.3332C8.6558 21.2082 9.36846 21.9082 10.2593 21.9082C11.1501 21.9082 11.8628 21.2082 11.8628 20.3332C11.8628 19.4582 11.1501 18.7582 10.2593 18.7582ZM14.6837 5.09362C13.6444 5.09362 12.7981 5.92487 12.7981 6.9457C12.7981 7.96654 13.6444 8.79779 14.6837 8.79779C15.723 8.79779 16.5693 7.96654 16.5693 6.9457C16.5693 5.92487 15.723 5.09362 14.6837 5.09362ZM14.6837 9.49779C13.6147 9.49779 12.7387 10.3582 12.7387 11.4082C12.7387 12.4582 13.6147 13.3186 14.6837 13.3186C15.7527 13.3186 16.6286 12.4582 16.6286 11.4082C16.6286 10.3582 15.7527 9.49779 14.6837 9.49779ZM14.6837 14.0186C13.6444 14.0186 12.7981 14.8499 12.7981 15.8707C12.7981 16.8915 13.6444 17.7228 14.6837 17.7228C15.723 17.7228 16.5693 16.8915 16.5693 15.8707C16.5693 14.8499 15.723 14.0186 14.6837 14.0186ZM19.212 9.27904C18.0243 9.27904 17.0444 10.227 17.0444 11.4082C17.0444 12.5895 18.0094 13.5374 19.212 13.5374C20.3998 13.5374 21.3797 12.5895 21.3797 11.4082C21.3797 10.227 20.4146 9.27904 19.212 9.27904ZM5.79033 5.51654C4.98859 5.51654 4.33533 6.1582 4.33533 6.9457C4.33533 7.7332 4.98859 8.37487 5.79033 8.37487C6.59207 8.37487 7.24534 7.7332 7.24534 6.9457C7.24534 6.1582 6.59207 5.51654 5.79033 5.51654ZM5.79033 9.9207C4.94405 9.9207 4.27594 10.5915 4.27594 11.4082C4.27594 12.2395 4.9589 12.8957 5.79033 12.8957C6.62176 12.8957 7.30473 12.2395 7.30473 11.4082C7.30473 10.577 6.62176 9.9207 5.79033 9.9207ZM5.79033 14.4415C4.98859 14.4415 4.33533 15.0832 4.33533 15.8707C4.33533 16.6582 4.98859 17.2999 5.79033 17.2999C6.59207 17.2999 7.24534 16.6582 7.24534 15.8707C7.24534 15.0832 6.59207 14.4415 5.79033 14.4415ZM1.30654 10.1249C0.579033 10.1249 0 10.6936 0 11.4082C0 12.1228 0.579033 12.6915 1.30654 12.6915C2.03404 12.6915 2.61307 12.1228 2.61307 11.4082C2.61307 10.6936 2.01919 10.1249 1.30654 10.1249Z" fill="white"/>
<path d="M37.8008 8.63867C37.6523 8.63867 37.5187 8.76992 37.5187 8.91576V20.0428C37.5187 20.1887 37.6523 20.3199 37.8008 20.3199H39.1667C39.3152 20.3199 39.4488 20.1887 39.4488 20.0428V8.91576C39.4488 8.76992 39.3152 8.63867 39.1667 8.63867H37.8008Z" fill="white"/>
<path d="M38.4835 3.97266C37.7708 3.97266 37.1769 4.54141 37.1769 5.25599C37.1769 5.95599 37.756 6.53932 38.4835 6.53932C39.1961 6.53932 39.79 5.97057 39.79 5.25599C39.79 4.54141 39.1961 3.97266 38.4835 3.97266Z" fill="white"/>
<path d="M66.9008 8.63867C66.7523 8.63867 66.6187 8.76992 66.6187 8.91576V20.0428C66.6187 20.1887 66.7523 20.3199 66.9008 20.3199H68.2667C68.4152 20.3199 68.5488 20.1887 68.5488 20.0428V8.91576C68.5488 8.76992 68.4152 8.63867 68.2667 8.63867H66.9008Z" fill="white"/>
<path d="M67.5837 3.97266C66.871 3.97266 66.2623 4.54141 66.2623 5.25599C66.2623 5.95599 66.8562 6.53932 67.5837 6.53932C68.2963 6.53932 68.8754 5.97057 68.8754 5.25599C68.8902 4.54141 68.2963 3.97266 67.5837 3.97266Z" fill="white"/>
<path d="M81.3767 19.3573C81.4213 19.3135 81.451 19.2552 81.451 19.1677C81.451 19.124 81.451 19.0948 81.4361 19.0656C81.4213 19.0365 81.4064 19.0073 81.3767 18.9927C81.347 18.9635 81.3025 18.9344 81.2579 18.9198C81.2134 18.9052 81.154 18.8906 81.0946 18.8906H80.7086V19.8531H80.8274V19.4594H81.0501L81.3619 19.8531H81.5103L81.1837 19.4448C81.2579 19.4302 81.3173 19.401 81.3767 19.3573ZM80.8125 19.3573V18.9927H81.0798C81.154 18.9927 81.2134 19.0073 81.2579 19.0365C81.3025 19.0656 81.3173 19.1094 81.3173 19.1677C81.3173 19.226 81.2876 19.2698 81.2431 19.299C81.1986 19.3281 81.1392 19.3427 81.0501 19.3427H80.8125V19.3573Z" fill="white"/>
<path d="M81.035 18.4375C80.5005 18.4375 80.0699 18.8604 80.0699 19.3854C80.0699 19.9104 80.5005 20.3333 81.035 20.3333C81.5695 20.3333 82.0001 19.9104 82.0001 19.3854C82.0001 18.8604 81.5695 18.4375 81.035 18.4375ZM81.035 20.2313C80.5599 20.2313 80.1739 19.8521 80.1739 19.3854C80.1739 18.9188 80.5599 18.5396 81.035 18.5396C81.5101 18.5396 81.8961 18.9188 81.8961 19.3854C81.8961 19.8521 81.5101 20.2313 81.035 20.2313Z" fill="white"/>
<path d="M49.0546 10.5346C49.2031 10.5346 49.3367 10.4034 49.3367 10.2576V8.91589C49.3367 8.77005 49.2031 8.6388 49.0546 8.6388H46.1446V4.3513C46.1446 4.20547 46.011 4.07422 45.8625 4.07422H44.4966C44.3481 4.07422 44.2145 4.20547 44.2145 4.3513V8.6388H42.7446C42.5961 8.6388 42.4625 8.77005 42.4625 8.91589V10.2576C42.4625 10.4034 42.5961 10.5346 42.7446 10.5346H44.2145V17.0242C44.2145 18.993 45.5655 20.3201 47.5699 20.3201H49.0397C49.1882 20.3201 49.3218 20.1888 49.3218 20.043V18.7013C49.3218 18.5555 49.1882 18.4242 49.0397 18.4242H47.7332C46.783 18.4242 46.1297 17.7534 46.1297 16.8055V10.5346H49.0546Z" fill="white"/>
<path d="M77.8581 10.5346C78.0066 10.5346 78.1402 10.4034 78.1402 10.2576V8.91589C78.1402 8.77005 78.0066 8.6388 77.8581 8.6388H74.9481V4.3513C74.9481 4.20547 74.8145 4.07422 74.666 4.07422H73.3001C73.1516 4.07422 73.018 4.20547 73.018 4.3513V8.6388H71.563C71.4145 8.6388 71.2809 8.77005 71.2809 8.91589V10.2576C71.2809 10.4034 71.4145 10.5346 71.563 10.5346H73.0328V17.0242C73.0328 18.993 74.3839 20.3201 76.3882 20.3201H77.8581C78.0066 20.3201 78.1402 20.1888 78.1402 20.043V18.7013C78.1402 18.5555 78.0066 18.4242 77.8581 18.4242H76.5516C75.6013 18.4242 74.9481 17.7534 74.9481 16.8055V10.5346H77.8581Z" fill="white"/>
<path d="M29.1894 10.5344V20.0573C29.1894 20.2031 29.323 20.3344 29.4715 20.3344H30.8374C30.9859 20.3344 31.1195 20.2031 31.1195 20.0573V10.5344H34.3264C34.4749 10.5344 34.6085 10.4031 34.6085 10.2573V8.91563C34.6085 8.76979 34.4749 8.63854 34.3264 8.63854H31.1195V6.07188C31.1195 5.10938 31.8025 4.38021 32.723 4.38021H34.3264C34.4749 4.38021 34.6085 4.24896 34.6085 4.10312V2.76146C34.6085 2.61562 34.4749 2.48438 34.3264 2.48438H32.8417C30.8226 2.48438 29.1894 4.08854 29.1894 6.07188V8.63854H27.7195C27.5711 8.63854 27.4374 8.76979 27.4374 8.91563V10.2573C27.4374 10.4031 27.5711 10.5344 27.7195 10.5344H29.1894Z" fill="white"/>
<path d="M62.3131 9.99479C61.2442 8.85729 59.7446 8.24479 58.0817 8.24479C56.597 8.24479 55.0381 8.90104 54.1324 9.83437V2.76146C54.1324 2.61562 53.9988 2.48438 53.8503 2.48438H52.4844C52.336 2.48438 52.2023 2.61562 52.2023 2.76146V14.4865C52.2023 18.8177 55.1569 20.7719 58.0817 20.7719C61.0066 20.7719 63.9612 18.8323 63.9612 14.4865C63.9612 12.6927 63.3821 11.1469 62.3131 9.99479ZM58.0817 18.876C55.1717 18.876 54.1324 16.6156 54.1324 14.4865C54.1324 11.876 55.7211 10.126 58.0817 10.126C60.4424 10.126 62.031 11.876 62.031 14.4865C62.031 16.6156 60.9918 18.876 58.0817 18.876Z" fill="white"/>
</g>
<defs>
<clipPath id="clip0">
<rect width="82" height="21" fill="white" transform="translate(0 0.908203)"/>
</clipPath>
</defs>
</svg>
