<svg width="37" height="31" viewBox="0 0 37 31" fill="none" xmlns="http://www.w3.org/2000/svg">
<path d="M25.9 5.47059H29.6V31H7.4V5.47059H11.1V3.64706C11.1 2.6798 11.4898 1.75215 12.1837 1.0682C12.8776 0.384242 13.8187 0 14.8 0H22.2C23.1813 0 24.1224 0.384242 24.8163 1.0682C25.5102 1.75215 25.9 2.6798 25.9 3.64706V5.47059ZM31.45 5.47059H33.3C34.2813 5.47059 35.2224 5.85483 35.9163 6.53879C36.6102 7.22274 37 8.15039 37 9.11765V27.3529C37 28.3202 36.6102 29.2478 35.9163 29.9318C35.2224 30.6158 34.2813 31 33.3 31H31.45V5.47059ZM5.55 5.47059V31H3.7C2.7187 31 1.77759 30.6158 1.0837 29.9318C0.38982 29.2478 0 28.3202 0 27.3529V9.11765C0 7.11176 1.665 5.47059 3.7 5.47059H5.55ZM14.8 3.64706V5.47059H22.2V3.64706H14.8Z" fill="#FFBD3A"/>
</svg>
