<svg width="105" height="120" viewBox="0 0 105 120" fill="none" xmlns="http://www.w3.org/2000/svg">
<g filter="url(#filter0_i)">
<circle cx="52.5" cy="68.5" r="48.5" fill="#FFBD3A"/>
</g>
<circle cx="52.5" cy="68.5" r="50" stroke="black" stroke-width="3"/>
<mask id="mask0" mask-type="alpha" maskUnits="userSpaceOnUse" x="0" y="0" width="105" height="117">
<ellipse cx="52.5" cy="58.5" rx="52.5" ry="58.5" fill="#C4C4C4"/>
</mask>
<g mask="url(#mask0)">
<path d="M33.465 111.658V72.4479C33.465 71.8642 33.0573 71.3599 32.4866 71.2376L21.3361 68.8482C20.5655 68.683 19.8389 69.2705 19.8389 70.0585V108.472C19.8389 109.025 20.2052 109.511 20.7366 109.662L31.8872 112.848C32.6779 113.074 33.465 112.48 33.465 111.658Z" fill="#D1C870"/>
<path d="M57.7983 65.6074L33.4658 72.4205V112.326L57.7983 105.026V65.6074Z" fill="#F4E97D"/>
<path d="M31.0325 109.892V75.8268L21.7861 74.8535V107.459L31.0325 109.892Z" stroke="#F4E97D" stroke-width="0.618913" stroke-dasharray="1.24 1.24"/>
<path d="M57.3131 50.0352L20.8145 59.7681V77.2875L57.7998 65.6079L57.3131 50.0352Z" fill="#539882"/>
<ellipse cx="21.2997" cy="68.5273" rx="7.29974" ry="8.75968" fill="#35675B"/>
<path d="M26.882 68.0419C26.882 71.9771 24.2319 75.0838 21.0567 75.0838C17.8816 75.0838 15.2315 71.9771 15.2315 68.0419C15.2315 64.1068 17.8816 61.0001 21.0567 61.0001C24.2319 61.0001 26.882 64.1068 26.882 68.0419Z" stroke="#539882" stroke-width="0.515761"/>
<path d="M24.6781 68.0406C24.6781 70.9264 22.7347 73.2047 20.4063 73.2047C18.0778 73.2047 16.1344 70.9264 16.1344 68.0406C16.1344 65.1549 18.0778 62.8766 20.4063 62.8766C22.7347 62.8766 24.6781 65.1549 24.6781 68.0406Z" stroke="#539882" stroke-width="0.378224"/>
<ellipse cx="19.7587" cy="68.0413" rx="2.83879" ry="3.40654" fill="#539882"/>
<path d="M26.165 58.3075C32.0048 56.7484 37.8447 67.5538 33.4648 73.3937C36.8713 72.4204 48.0642 69.0138 57.7972 66.0939C61.5016 61.4635 56.3943 55.0708 51.698 51.527C51.2514 51.19 50.6726 51.0971 50.1373 51.26C46.6916 52.3085 36.7622 55.4816 26.165 58.3075Z" fill="#D1C870"/>
<path d="M44.6587 51.9805C35.4122 54.4138 25.1928 57.3335 24.7061 58.7936C28.5992 57.8203 29.7348 57.8203 29.5725 57.8203H35.899L49.0385 53.9271C48.8763 53.7648 47.7733 53.1483 44.6587 51.9805Z" fill="#D1C870"/>
<g filter="url(#filter1_d)">
<path d="M56.7425 143.947C56.3515 138.017 55.1004 123.381 53.2236 112.277H73.5547C73.1637 118.338 75.1186 135.345 73.5547 143.947C69.2539 147.27 62.0208 146.293 56.7425 143.947Z" fill="#D1C870"/>
<path d="M38.7581 145.902C38.3671 139.972 37.116 125.336 35.2393 114.232L58.6981 116.969C58.3072 123.03 57.1342 137.3 55.5703 145.902C51.2695 149.225 44.0364 148.248 38.7581 145.902Z" fill="#F4E97D"/>
<path d="M38.7581 145.902C38.3671 139.972 37.116 125.336 35.2393 114.232L40.9085 115.601C40.5175 121.661 43.6454 138.473 42.0814 147.075C40.5175 146.684 40.1265 146.488 38.7581 145.902Z" fill="#D1C870"/>
<path fill-rule="evenodd" clip-rule="evenodd" d="M84.1421 105.942L84.5678 106.318L84.5692 106.317C85.1174 106.802 85.3721 106.962 85.68 107.157C85.7612 107.208 85.846 107.262 85.9409 107.324C86.5476 107.723 85.7448 108.864 85.1381 108.465C84.7229 108.192 84.3115 107.904 84.0053 107.669L83.8911 107.774L84.9338 108.695C85.6264 109.308 84.7377 110.235 84.131 109.836C83.6387 109.512 83.1458 109.069 82.8291 108.751L82.6827 108.886C83.0863 109.31 83.3044 109.481 83.5627 109.683L83.5627 109.683C83.6383 109.742 83.7173 109.804 83.8054 109.876C84.3687 110.334 83.7902 111.386 82.8802 110.788C82.3443 110.435 81.9719 110.049 81.7206 109.788C81.6305 109.694 81.5561 109.617 81.4952 109.563L81.5068 109.554C80.6924 108.748 79.3952 107.392 79.3756 107.075C79.3542 106.727 81.4429 105.201 82.49 104.482L82.4907 104.482C82.4907 104.482 82.4906 104.482 82.4906 104.481C84.0262 104.605 85.6559 104.83 85.3979 105.612C85.2942 105.926 84.8034 105.939 84.1421 105.942Z" fill="#FFDAC1"/>
<path d="M65.1808 74.8754C64.7116 73.7321 63.4045 73.1857 62.2612 73.6548C61.118 74.124 60.5715 75.4311 61.0407 76.5744L65.1808 74.8754ZM61.0407 76.5744C65.1044 86.477 67.926 92.2536 70.7269 96.5835C73.5421 100.936 76.3032 103.766 80.0271 107.725L83.2869 104.659C79.4996 100.633 77.0388 98.1017 74.4844 94.1529C71.9156 90.1817 69.2197 84.7175 65.1808 74.8754L61.0407 76.5744Z" fill="#35675B"/>
<path d="M65.8887 73.6303C65.8105 73.4398 65.5927 73.3487 65.4021 73.4269C65.2116 73.5051 65.1205 73.723 65.1987 73.9135L65.8887 73.6303ZM65.1987 73.9135C69.2518 83.79 71.9785 89.3949 74.64 93.5337C77.3043 97.6768 79.898 100.341 83.6484 104.328L84.1917 103.817C80.4308 99.8189 77.8877 97.2051 75.2673 93.1303C72.6442 89.0512 69.9384 83.4985 65.8887 73.6303L65.1987 73.9135Z" fill="#407967"/>
<path d="M30.5469 113.45C31.4592 103.415 36.959 80.1386 51.6599 67.3145C54.0058 67.3145 60.4961 68.4092 67.6901 72.7882C66.5172 83.3447 72.7729 100.548 78.2466 113.45C71.209 120.488 48.1411 124.007 30.5469 113.45Z" fill="#539882"/>
<path d="M30.5469 113.451C31.4592 103.416 36.959 80.1393 51.6599 67.3152C53.2238 67.3152 52.0509 67.1196 52.0509 69.27C41.1034 84.3228 33.6747 102.894 36.8026 116.579C33.6747 115.21 33.0883 114.819 30.5469 113.451Z" fill="#468677"/>
<ellipse cx="58.9304" cy="21.1011" rx="16.4212" ry="11.8294" transform="rotate(-20.3964 58.9304 21.1011)" fill="#C5C5C5"/>
<path d="M50.1738 21.8627C51.9332 20.2988 58.7754 16.389 68.9409 16.9754L64.0537 24.2087C60.4697 24.0784 52.6761 23.4266 50.1738 21.8627Z" fill="#539882"/>
<path d="M62.0986 20.8269C82.8207 3.0372 100.415 32.5563 89.2718 47.2181C76.604 35.8015 65.8781 24.867 62.0986 20.8269Z" fill="#E1E1E1"/>
<path d="M85.5566 35.293C88.098 40.9622 88.6845 44.6765 89.6619 46.045C90.4439 47.1397 90.1181 47.8044 89.8574 47.9999C89.7271 49.6941 89.5838 53.3563 90.0529 54.4511C88.489 54.6075 87.8374 54.6466 87.707 54.6466L87.3161 47.9999L85.5566 35.293Z" fill="#FEE1CE"/>
<path d="M89.4651 67.5485C88.4877 62.8567 93.9614 56.992 88.4877 52.8867L83.7959 65.2026C83.8611 65.9194 85.3989 67.0793 89.4651 67.5485Z" fill="#FEE1CE"/>
<ellipse cx="66.2045" cy="48.1952" rx="21.895" ry="27.7597" fill="#FFDAC1"/>
<ellipse cx="88.6853" cy="51.5171" rx="2.93236" ry="3.71432" fill="white"/>
<circle cx="88.6858" cy="51.5188" r="1.36844" fill="black"/>
<g filter="url(#filter2_f)">
<ellipse cx="88.2172" cy="56.5657" rx="2.54138" ry="1.36844" fill="#FFCCAA"/>
</g>
<path d="M95.1699 51.5174C95.1699 53.7358 94.6665 55.7073 93.8903 57.0979C93.1005 58.5131 92.1275 59.1777 91.224 59.1777C90.3205 59.1777 89.3476 58.5131 88.5577 57.0979C87.7816 55.7073 87.2781 53.7358 87.2781 51.5174C87.2781 49.2991 87.7816 47.3275 88.5577 45.9369C89.3476 44.5218 90.3205 43.8572 91.224 43.8572C92.1275 43.8572 93.1005 44.5218 93.8903 45.9369C94.6665 47.3275 95.1699 49.2991 95.1699 51.5174Z" stroke="#91D7B9" stroke-width="1.49173"/>
<path d="M90.5982 58.9265C87.4427 55.5323 88.4187 49.2429 84.5693 39.5918L81.9447 62.2988C83.2713 61.8687 86.8592 60.5921 90.5982 58.9265Z" fill="#FFDAC1"/>
<circle cx="44.5041" cy="57.7736" r="4.49629" fill="#FFDAC1"/>
<path d="M88.6525 75.4801C92.3991 72.2394 88.1583 65.3972 87.5118 60.3145C79.9421 62.1044 61.3203 67.258 53.1055 70.48C60.5341 77.7131 81.8259 81.385 88.6525 75.4801Z" fill="#FFDAC1"/>
<path d="M86.1436 45.6523C87.512 51.7126 88.294 56.9908 90.0534 58.9457C88.8022 59.5713 87.7075 60.1187 87.3165 60.3142" stroke="#FFCCAA" stroke-width="0.497244"/>
<path d="M81.6475 55.1033C85.1663 53.4725 86.7302 53.4725 88.4896 53.2773" stroke="#91D7B9" stroke-width="1.49173"/>
<path d="M86.0681 63.4064C83.9179 65.166 81.9029 64.543 80.79 63.0156" stroke="#FF8080" stroke-width="0.497244" stroke-linecap="round"/>
<g filter="url(#filter3_f)">
<ellipse cx="72.1878" cy="60.473" rx="5.66923" ry="2.55115" fill="#FFCCAA"/>
</g>
<path d="M82.2696 54.6465C82.2696 60.2561 78.2362 64.6526 73.4365 64.6526C68.6367 64.6526 64.6033 60.2561 64.6033 54.6465C64.6033 49.037 68.6367 44.6404 73.4365 44.6404C78.2362 44.6404 82.2696 49.037 82.2696 54.6465Z" stroke="#91D7B9" stroke-width="1.49173"/>
<circle cx="74.2192" cy="53.4721" r="3.71432" fill="white"/>
<circle cx="73.8284" cy="53.4739" r="1.36844" fill="black"/>
<path d="M44.5034 53.0804C46.8493 54.4488 59.7516 58.7496 74.9999 35.8772C74.5438 32.2932 71.2465 24.2259 61.7066 20.6289C43.7214 24.3432 42.353 51.9074 44.5034 53.0804Z" fill="#E1E1E1"/>
<path d="M88.8809 43.5036C83.9936 42.9171 81.8432 37.4433 75.001 35.8795C74.0236 31.9696 72.1078 26.1418 62.0986 20.8244C68.9408 17.892 88.8809 24.7365 88.8809 43.5036Z" fill="#E1E1E1"/>
<path d="M44.3077 52.8852C24.9543 34.3137 47.4363 13.7864 62.2933 20.8247C53.8481 36.1512 46.6536 48.5192 44.3077 52.8852Z" fill="#E1E1E1"/>
<circle cx="45.4809" cy="61.8784" r="1.56393" fill="#539882"/>
<path d="M39.3958 35.8655C39.6055 32.5176 40.1544 31.2069 44.8185 25.2871C43.0731 28.7778 43.2553 32.1544 43.879 34.4748C44.0722 35.1934 43.068 36.4652 42.324 36.4772C41.741 36.4867 41.0618 36.5388 40.2865 36.6556C39.8066 36.7278 39.3654 36.3498 39.3958 35.8655Z" fill="#C4C4C4"/>
<path d="M74.9248 35.2559C79.4211 35.8423 84.5038 43.0755 88.8046 43.0755" stroke="#C4C4C4" stroke-width="0.994488" stroke-linecap="round"/>
<path d="M87.252 24.2325C85.8521 22.2442 82.9776 19.3191 78.835 17.6621C81.078 19.215 82.5596 21.5292 83.8174 25.1425C84.1004 25.9556 84.9746 26.3499 85.8015 26.1101C85.9155 26.0771 86.0283 26.0486 86.1427 26.0249C87.1452 25.8181 87.8413 25.0695 87.252 24.2325Z" fill="#F0F0F0"/>
<path d="M45.0146 21.1794C46.1876 16.4876 50.2929 13.9463 51.8568 12.9688" stroke="#A8A8A8" stroke-width="0.497244" stroke-linecap="round"/>
<path d="M72.9703 14.9258C71.7974 12.5799 69.8424 11.2115 68.083 10.625" stroke="#E1E1E1" stroke-width="0.497244" stroke-linecap="round"/>
<path d="M69.2872 43.1531L77.2737 39.3374" stroke="#969696" stroke-width="0.994488" stroke-linecap="round"/>
<path d="M84.9493 39.289L90.955 42.2917" stroke="#969696" stroke-width="0.994488" stroke-linecap="round"/>
<path d="M42.1572 51.5217C41.7474 51.4797 41.3811 51.7778 41.3391 52.1876C41.2971 52.5974 41.5952 52.9636 42.005 53.0056L42.1572 51.5217ZM65.0296 53.8676L42.1572 51.5217L42.005 53.0056L64.8774 55.3515L65.0296 53.8676Z" fill="#91D7B9"/>
<path d="M58.7003 52.0687C46.3844 57.9335 44.8205 51.8733 42.4746 51.0912C48.574 49.5273 55.8332 51.0912 58.7003 52.0687Z" fill="#E1E1E1"/>
<path d="M68.8641 39.5566C60.2626 47.9627 56.7437 49.7222 49.7061 51.0906" stroke="#C4C4C4" stroke-width="0.994488" stroke-linecap="round"/>
<path d="M73.5555 32.5198C72.7736 30.1739 69.4112 24.3873 62.2171 20.7903C61.4351 20.3993 59.2847 19.4219 56.5479 19.4219C62.0216 20.9858 68.4728 25.6776 73.5555 32.5198Z" fill="#C4C4C4"/>
<path d="M44.6241 55.5879C42.1218 55.7442 41.8872 57.4776 42.0827 58.3248" stroke="#FFCCAA" stroke-width="0.497244" stroke-linecap="round"/>
<path fill-rule="evenodd" clip-rule="evenodd" d="M47.6864 111.428L47.8808 111.962L47.8831 111.961C48.1336 112.649 48.2807 112.911 48.4586 113.229C48.5055 113.313 48.5545 113.4 48.6081 113.501C48.9507 114.141 47.7008 114.76 47.3582 114.12C47.1238 113.682 46.8996 113.233 46.7429 112.88L46.5921 112.918L47.069 114.227C47.3855 115.095 46.1618 115.487 45.8191 114.846C45.5409 114.326 45.3192 113.701 45.1926 113.27L44.9991 113.319C45.151 113.884 45.2611 114.138 45.3915 114.439L45.3915 114.439C45.4297 114.527 45.4696 114.619 45.5129 114.724C45.7892 115.396 44.7788 116.044 44.2648 115.084C43.9621 114.518 43.8192 114.001 43.7228 113.652C43.6882 113.527 43.6596 113.423 43.6318 113.347L43.6466 113.344C43.3156 112.247 42.8228 110.438 42.9572 110.149C43.1044 109.833 45.668 109.489 46.9314 109.357L46.9318 109.358C46.9319 109.357 46.9321 109.357 46.9323 109.357C48.2228 110.198 49.5475 111.174 48.9478 111.737C48.7068 111.964 48.2693 111.741 47.6864 111.428Z" fill="#FFDAC1"/>
<circle cx="68.6684" cy="90.187" r="3.71432" fill="#539882"/>
<path d="M67.4944 77.2852C67.8202 78.8491 69.8403 84.3228 71.7952 88.2326L66.9079 89.4056L63.9756 80.9995L67.4944 77.2852Z" fill="#539882"/>
<path d="M57.1318 93.5101C58.8913 94.4875 61.8236 94.8786 63.3875 93.1191C62.8011 95.856 58.5003 96.638 57.1318 93.5101Z" fill="#468677"/>
<path d="M63.1938 93.1191C61.0435 95.074 59.284 94.8786 57.3291 93.5101" stroke="#35675B" stroke-width="0.248622" stroke-linecap="round"/>
<path d="M51.6197 76.0969C52.259 75.0393 51.9198 73.6637 50.8622 73.0245C49.8045 72.3852 48.429 72.7244 47.7897 73.782L51.6197 76.0969ZM47.7897 73.782C42.2953 82.8727 40.2491 89.5092 40.0882 95.3556C39.9298 101.114 41.6396 105.93 43.0556 110.933L47.3616 109.714C45.8451 104.356 44.427 100.374 44.5617 95.4787C44.694 90.6708 46.3621 84.7958 51.6197 76.0969L47.7897 73.782Z" fill="#35675B"/>
</g>
<mask id="mask1" mask-type="alpha" maskUnits="userSpaceOnUse" x="39" y="67" width="21" height="24">
<path d="M47.0937 90.423C47.0937 88.963 49.0403 84.5832 50.5002 81.6633L39.7939 74.3635V69.4971L48.5536 68.0371L57.3133 71.4437L58.7733 89.9363L47.0937 90.423Z" fill="#C4C4C4" stroke="black" stroke-width="0.618913"/>
</mask>
<g mask="url(#mask1)">
<path d="M44.6611 71.9323C55.3674 70.9591 54.3941 83.125 49.5276 84.6369" stroke="#D1C870" stroke-width="1.85674" stroke-linecap="round"/>
</g>
<path d="M35.899 71.9335C37.8457 62.687 32.979 57.3341 29.0859 57.334" stroke="#F4E97D" stroke-width="0.618913" stroke-dasharray="1.24 1.24"/>
</g>
<defs>
<filter id="filter0_i" x="1" y="17" width="103" height="104.796" filterUnits="userSpaceOnUse" color-interpolation-filters="sRGB">
<feFlood flood-opacity="0" result="BackgroundImageFix"/>
<feBlend mode="normal" in="SourceGraphic" in2="BackgroundImageFix" result="shape"/>
<feColorMatrix in="SourceAlpha" type="matrix" values="0 0 0 0 0 0 0 0 0 0 0 0 0 0 0 0 0 0 127 0" result="hardAlpha"/>
<feOffset dy="1.7963"/>
<feGaussianBlur stdDeviation="0.898148"/>
<feComposite in2="hardAlpha" operator="arithmetic" k2="-1" k3="1"/>
<feColorMatrix type="matrix" values="0 0 0 0 0 0 0 0 0 0 0 0 0 0 0 0 0 0 0.25 0"/>
<feBlend mode="normal" in2="shape" result="effect1_innerShadow"/>
</filter>
<filter id="filter1_d" x="29.309" y="1.81537" width="70.4027" height="155.356" filterUnits="userSpaceOnUse" color-interpolation-filters="sRGB">
<feFlood flood-opacity="0" result="BackgroundImageFix"/>
<feColorMatrix in="SourceAlpha" type="matrix" values="0 0 0 0 0 0 0 0 0 0 0 0 0 0 0 0 0 0 127 0"/>
<feOffset dx="1.23783"/>
<feGaussianBlur stdDeviation="1.23783"/>
<feColorMatrix type="matrix" values="0 0 0 0 0 0 0 0 0 0 0 0 0 0 0 0 0 0 0.18 0"/>
<feBlend mode="normal" in2="BackgroundImageFix" result="effect1_dropShadow"/>
<feBlend mode="normal" in="SourceGraphic" in2="effect1_dropShadow" result="shape"/>
</filter>
<filter id="filter2_f" x="84.6813" y="54.2028" width="7.07174" height="4.72585" filterUnits="userSpaceOnUse" color-interpolation-filters="sRGB">
<feFlood flood-opacity="0" result="BackgroundImageFix"/>
<feBlend mode="normal" in="SourceGraphic" in2="BackgroundImageFix" result="shape"/>
<feGaussianBlur stdDeviation="0.497244" result="effect1_foregroundBlur"/>
</filter>
<filter id="filter3_f" x="65.0765" y="56.4799" width="14.2225" height="7.98633" filterUnits="userSpaceOnUse" color-interpolation-filters="sRGB">
<feFlood flood-opacity="0" result="BackgroundImageFix"/>
<feBlend mode="normal" in="SourceGraphic" in2="BackgroundImageFix" result="shape"/>
<feGaussianBlur stdDeviation="0.721004" result="effect1_foregroundBlur"/>
</filter>
</defs>
</svg>
