<svg width="27" height="27" viewBox="0 0 27 27" fill="none" xmlns="http://www.w3.org/2000/svg">
<path d="M13.5004 5.40039C13.8584 5.40039 14.2018 5.54262 14.455 5.7958C14.7082 6.04897 14.8504 6.39235 14.8504 6.75039V12.1504H20.2504C20.6084 12.1504 20.9518 12.2926 21.205 12.5458C21.4582 12.799 21.6004 13.1423 21.6004 13.5004C21.6004 13.8584 21.4582 14.2018 21.205 14.455C20.9518 14.7082 20.6084 14.8504 20.2504 14.8504H14.8504V20.2504C14.8504 20.6084 14.7082 20.9518 14.455 21.205C14.2018 21.4582 13.8584 21.6004 13.5004 21.6004C13.1423 21.6004 12.799 21.4582 12.5458 21.205C12.2926 20.9518 12.1504 20.6084 12.1504 20.2504V14.8504H6.75039C6.39235 14.8504 6.04897 14.7082 5.7958 14.455C5.54262 14.2018 5.40039 13.8584 5.40039 13.5004C5.40039 13.1423 5.54262 12.799 5.7958 12.5458C6.04897 12.2926 6.39235 12.1504 6.75039 12.1504H12.1504V6.75039C12.1504 6.39235 12.2926 6.04897 12.5458 5.7958C12.799 5.54262 13.1423 5.40039 13.5004 5.40039Z" fill="#1E7DFE"/>
<path fill-rule="evenodd" clip-rule="evenodd" d="M4.05 27C2.97587 27 1.94574 26.5733 1.18622 25.8138C0.426695 25.0543 0 24.0241 0 22.95V4.05C0 2.97587 0.426695 1.94574 1.18622 1.18622C1.94574 0.426695 2.97587 0 4.05 0H22.95C24.0241 0 25.0543 0.426695 25.8138 1.18622C26.5733 1.94574 27 2.97587 27 4.05V22.95C27 24.0241 26.5733 25.0543 25.8138 25.8138C25.0543 26.5733 24.0241 27 22.95 27H4.05ZM2.7 22.95C2.7 23.308 2.84223 23.6514 3.09541 23.9046C3.34858 24.1578 3.69196 24.3 4.05 24.3H22.95C23.308 24.3 23.6514 24.1578 23.9046 23.9046C24.1578 23.6514 24.3 23.308 24.3 22.95V4.05C24.3 3.69196 24.1578 3.34858 23.9046 3.09541C23.6514 2.84223 23.308 2.7 22.95 2.7H4.05C3.69196 2.7 3.34858 2.84223 3.09541 3.09541C2.84223 3.34858 2.7 3.69196 2.7 4.05V22.95Z" fill="#1E7DFE"/>
</svg>
