<svg width="32" height="32" viewBox="0 0 32 32" fill="none" xmlns="http://www.w3.org/2000/svg">
<g filter="url(#filter0_d)">
<path fill-rule="evenodd" clip-rule="evenodd" d="M10.3856 19.8998L4.79904 17.7969L4.0873 19.5218C4.0873 19.5218 3.40644 22.3129 5.84754 23.232C8.29157 24.1541 9.69888 21.6336 9.69888 21.6336L10.3856 19.8998Z" fill="black"/>
<path fill-rule="evenodd" clip-rule="evenodd" d="M14.4726 4.63694C12.0578 3.66782 8.66806 5.79283 7.49598 8.47078C7.01361 9.57373 6.79449 10.7634 6.61214 11.937C6.52537 12.4973 6.4636 13.0723 6.35331 13.6311C6.21213 14.3326 6.00183 15.0076 5.793 15.6885C5.50329 16.6341 5.82241 16.7929 6.70331 16.9546L9.78867 18.1194C10.1034 18.2694 10.7181 18.6473 11.0343 18.2944C11.3137 17.9782 11.2578 17.4017 11.4446 17.0267C11.6858 16.5399 11.9564 16.0443 12.2549 15.5855C12.9152 14.559 14.1682 13.809 15.0167 12.9237C16.0682 11.8237 16.6491 10.7208 16.9697 9.26196C17.3962 7.3193 16.4153 5.41488 14.4726 4.63694Z" fill="black"/>
<path fill-rule="evenodd" clip-rule="evenodd" d="M17.0756 13.6016L22.4507 15.7236C22.4507 15.7236 21.3418 20.0663 18.0594 18.803C14.7771 17.5369 17.0756 13.6016 17.0756 13.6016Z" fill="black"/>
<path fill-rule="evenodd" clip-rule="evenodd" d="M24.7415 0.260796C27.0356 1.11374 27.9591 4.72846 26.9929 7.32994C26.5944 8.39906 25.9591 9.35788 25.3077 10.2917C24.9959 10.7358 24.6577 11.1711 24.3621 11.6314C23.9989 12.205 23.696 12.8094 23.3901 13.4123C22.9622 14.2505 22.6372 14.155 21.9254 13.7153L19.0358 12.5785C18.7226 12.4844 18.052 12.355 18.0697 11.9152C18.0859 11.5182 18.505 11.1505 18.6255 10.777C18.7814 10.2873 18.9241 9.76965 19.0211 9.26524C19.2446 8.13582 18.8799 6.82258 18.8858 5.67552C18.8858 4.25051 19.2196 3.11669 19.9623 1.90345C20.9578 0.276973 22.8916 -0.42303 24.7415 0.260796Z" fill="black"/>
</g>
<defs>
<filter id="filter0_d" x="0" y="0" width="31.3726" height="31.4349" filterUnits="userSpaceOnUse" color-interpolation-filters="sRGB">
<feFlood flood-opacity="0" result="BackgroundImageFix"/>
<feColorMatrix in="SourceAlpha" type="matrix" values="0 0 0 0 0 0 0 0 0 0 0 0 0 0 0 0 0 0 127 0"/>
<feOffset dy="4"/>
<feGaussianBlur stdDeviation="2"/>
<feColorMatrix type="matrix" values="0 0 0 0 0 0 0 0 0 0 0 0 0 0 0 0 0 0 0.25 0"/>
<feBlend mode="normal" in2="BackgroundImageFix" result="effect1_dropShadow"/>
<feBlend mode="normal" in="SourceGraphic" in2="effect1_dropShadow" result="shape"/>
</filter>
</defs>
</svg>
