<svg fill="none" height="176" viewBox="0 0 280 176" width="280" xmlns="http://www.w3.org/2000/svg" xmlns:xlink="http://www.w3.org/1999/xlink"><filter id="a" color-interpolation-filters="sRGB" filterUnits="userSpaceOnUse" height="63.9442" width="64.4721" x="194" y="-11.4721"><feFlood flood-opacity="0" result="BackgroundImageFix"/><feColorMatrix in="SourceAlpha" type="matrix" values="0 0 0 0 0 0 0 0 0 0 0 0 0 0 0 0 0 0 127 0"/><feOffset dx="4" dy="-2"/><feGaussianBlur stdDeviation="1.73604"/><feColorMatrix type="matrix" values="0 0 0 0 0 0 0 0 0 0 0 0 0 0 0 0 0 0 0.2 0"/><feBlend in2="BackgroundImageFix" mode="normal" result="effect1_dropShadow"/><feBlend in="SourceGraphic" in2="effect1_dropShadow" mode="normal" result="shape"/></filter><filter id="b" color-interpolation-filters="sRGB" filterUnits="userSpaceOnUse" height="506.464" width="558.324" x="-134.999" y="-188.25"><feFlood flood-opacity="0" result="BackgroundImageFix"/><feColorMatrix in="SourceAlpha" type="matrix" values="0 0 0 0 0 0 0 0 0 0 0 0 0 0 0 0 0 0 127 0"/><feOffset dx="4" dy="-4"/><feGaussianBlur stdDeviation="1.125"/><feColorMatrix type="matrix" values="0 0 0 0 0 0 0 0 0 0 0 0 0 0 0 0 0 0 0.2 0"/><feBlend in2="BackgroundImageFix" mode="normal" result="effect1_dropShadow"/><feBlend in="SourceGraphic" in2="effect1_dropShadow" mode="normal" result="shape"/></filter><filter id="c" color-interpolation-filters="sRGB" filterUnits="userSpaceOnUse" height="343.142" width="1075.45" x="-641.252" y="-49.2515"><feFlood flood-opacity="0" result="BackgroundImageFix"/><feColorMatrix in="SourceAlpha" type="matrix" values="0 0 0 0 0 0 0 0 0 0 0 0 0 0 0 0 0 0 127 0"/><feOffset dx="12" dy="-4"/><feGaussianBlur stdDeviation="6.12576"/><feColorMatrix type="matrix" values="0 0 0 0 0 0 0 0 0 0 0 0 0 0 0 0 0 0 0.1 0"/><feBlend in2="BackgroundImageFix" mode="normal" result="effect1_dropShadow"/><feBlend in="SourceGraphic" in2="effect1_dropShadow" mode="normal" result="shape"/></filter><filter id="d" color-interpolation-filters="sRGB" filterUnits="userSpaceOnUse" height="100.687" width="166.543" x="3.4126" y="19.2812"><feFlood flood-opacity="0" result="BackgroundImageFix"/><feColorMatrix in="SourceAlpha" type="matrix" values="0 0 0 0 0 0 0 0 0 0 0 0 0 0 0 0 0 0 127 0"/><feOffset dx="4"/><feGaussianBlur stdDeviation="1"/><feColorMatrix type="matrix" values="0 0 0 0 0 0 0 0 0 0 0 0 0 0 0 0 0 0 0.2 0"/><feBlend in2="BackgroundImageFix" mode="normal" result="effect1_dropShadow"/><feBlend in="SourceGraphic" in2="effect1_dropShadow" mode="normal" result="shape"/></filter><mask id="e" height="176" maskUnits="userSpaceOnUse" width="280" x="0" y="0"><path d="m0 0h280v176h-280z" fill="#2c5291"/></mask><path d="m0 0h280v176h-280z" fill="#2c5291"/><g mask="url(#e)"><g filter="url(#a)"><circle cx="222.5" cy="22.5" fill="#ffbd3a" r="28.5"/></g><g filter="url(#b)"><path d="m231.453 8.89201 185.622 236.64999-27.499 72.672-430.8268-27.951-93.7482-44.721 124.6963-427.542 158.4247 375.673z" fill="#35675b"/></g><path d="m266.665 65.243-35.551-45.3758 16.279 41.4352z" fill="#000" fill-opacity=".2"/><path d="m74.2523 28.0115-22.6415-53.0115 5.0386 44.2324z" fill="#000" fill-opacity=".2"/><g filter="url(#c)"><path d="m301.801 88.12 108.143 197.519h-1050.945l117.898-115.53 69.541-151.3956 68.535 119.7176 72.645-171.431 153.546 288.825 57.786-143.481 107.31697 57.765 43.23253-47.109h102.0005l82.609 82.513z" fill="#91d7b9"/></g><path d="m180 160-31-36 5.812 36z" fill="#fff" fill-opacity=".3"/></g><g fill="#000"><path d="m50 108h101v15h-101z"/><path d="m51 123c-1.0506 0-2.0909-.194-3.0615-.571s-1.8525-.929-2.5954-1.626c-.7428-.696-1.3321-1.523-1.7341-2.433-.4021-.91-.609-1.885-.609-2.87s.2069-1.96.609-2.87c.402-.91.9913-1.737 1.7341-2.433.7429-.697 1.6248-1.249 2.5954-1.626s2.0109-.571 3.0615-.571v7.5z"/><path d="m150 108c1.051 0 2.091.194 3.061.571.971.377 1.853.929 2.596 1.626.743.696 1.332 1.523 1.734 2.433s.609 1.885.609 2.87-.207 1.96-.609 2.87-.991 1.737-1.734 2.433c-.743.697-1.625 1.249-2.596 1.626-.97.377-2.01.571-3.061.571v-7.5z"/><g filter="url(#d)"><path d="m112.575 64.1659s4.505 13.8458 16.497 13.4106l29.98-1.0877s-.492 14.027 4.541 14.8451l.363 9.9931-10.393-10.6299-.745 7.0317-15.28-7.4509-1.745 7.0679-12.246-6.5603-.782 6.0324-17.315-8.3777.29 7.9947s-13.354-9.522-14.3533-9.4858c-.9993.0363-1.8899 3.0706-1.8899 3.0706s-16.3521-9.4133-18.3145-8.3414c-1.9624 1.0718-.7818 6.0323-.7818 6.0323s-42.3712-9.4699-42.4437-11.4686c-.0726-1.9987 15.9169-2.5788 15.9169-2.5788s-29.4885-12.9393-28.5617-14.9743c.9268-2.0349 11.9921-.4351 11.9921-.4351s-8.9375-25.6928-23.89136-24.1496c10.84776-4.3962 26.12796 3.0547 33.30466 7.7976-3.3606-9.8847-8.4661-12.7014-12.4998-13.5557 3.8886-3.1431 22.0581 1.201 27.3811 10.0138-1.4344-11.9559-7.5755-15.7357-11.6091-16.59 5.9235-2.2163 20.1319 3.2722 28.4892 12.9755 8.3573 9.7034 21.1471 31.2538 30.1412 30.9275 4.687-.0873 9.357-.5916 13.955-1.507z"/><path d="m147.221 105.939s-83.0543.012-78.0576-.17c4.9967-.181-16.062-1.418-21.8405 4.795-.1813-4.996 8.559-12.318 11.557-12.4268-5.0369-.3891-10.1026.1337-14.9539 1.5432 0 0 5.7423-7.2129 14.7364-7.5392-1.0719-1.9625-3.1431-3.8886-2.18-4.9242s19.3863 10.3038 22.2393 6.1977c-.1813-4.9968-2.2525-6.9229-2.2525-6.9229s8.1035 2.7079 12.2822 7.5596c3.9249-2.1437 1.8174-5.0692 1.8174-5.0692s14.2812 7.4871 16.3522 9.4133c2.925-2.1075 1.781-6.0686 1.781-6.0686s14.317 8.4861 16.28 7.4146c1.962-1.0719 1.744-7.0679 1.744-7.0679s9.285 7.6684 11.247 6.5965.746-7.0316.746-7.0316 11.246 6.5965 13.245 6.524c1.998-.0725 2.817-5.1055 2.817-5.1055s6.104 2.7805 3.324 8.885c-2.781 6.105-9.45 15.353-11.448 15.426.89-3.035.564-12.029.564-12.029z"/></g></g><ellipse cx="107.082" cy="77.2802" fill="#539882" rx="4.688" ry="2.13091" transform="matrix(.96536798 .26089205 -.26089205 .96536798 23.870256 -25.260473)"/><ellipse cx="153.5" cy="74.5" fill="#2c5291" rx="10.5" ry="9.5"/><path d="m174.897 81.7209c5.01 1.0101 7.932 3.0303 10.854 2.6262 2.922-.404 6.261-3.4343 7.514-4.8485 1.252-1.4141 7.305-2.2222 8.349-.606 1.043 1.6161-5.845-1.4142-5.845 2.8283 0 4.2424 7.514 2.0202 13.985-.6061 6.47-2.6263 17.533 1.4141 20.246 6.6667-5.218-3.0303-16.698-5.6566-22.96 0-6.261 5.6565-14.819 4.4444-19.619 1.8182-4.801-2.6263-8.767-.4041-6.471 1.6161s3.131 1.8182 6.053 1.6162c-2.922 2.2222-8.975 1.4141-12.941-3.6364-3.965-5.0505-7.514-6.2626-11.062-4.2424 2.713-5.4546 11.897-3.2323 11.897-3.2323z" fill="#f9b326"/></svg>