<svg fill="none" height="176" viewBox="0 0 280 176" width="280" xmlns="http://www.w3.org/2000/svg" xmlns:xlink="http://www.w3.org/1999/xlink"><filter id="a" color-interpolation-filters="sRGB" filterUnits="userSpaceOnUse" height="159.256" width="267.489" x="58.5107" y="3"><feFlood flood-opacity="0" result="BackgroundImageFix"/><feColorMatrix in="SourceAlpha" type="matrix" values="0 0 0 0 0 0 0 0 0 0 0 0 0 0 0 0 0 0 127 0"/><feOffset dx="12"/><feGaussianBlur stdDeviation="5"/><feColorMatrix type="matrix" values="0 0 0 0 0 0 0 0 0 0 0 0 0 0 0 0 0 0 0.1 0"/><feBlend in2="BackgroundImageFix" mode="normal" result="effect1_dropShadow"/><feBlend in="SourceGraphic" in2="effect1_dropShadow" mode="normal" result="shape"/></filter><filter id="b" color-interpolation-filters="sRGB" filterUnits="userSpaceOnUse" height="159.256" width="267.489" x="-12" y="-10"><feFlood flood-opacity="0" result="BackgroundImageFix"/><feColorMatrix in="SourceAlpha" type="matrix" values="0 0 0 0 0 0 0 0 0 0 0 0 0 0 0 0 0 0 127 0"/><feOffset dx="12"/><feGaussianBlur stdDeviation="5"/><feColorMatrix type="matrix" values="0 0 0 0 0 0 0 0 0 0 0 0 0 0 0 0 0 0 0.1 0"/><feBlend in2="BackgroundImageFix" mode="normal" result="effect1_dropShadow"/><feBlend in="SourceGraphic" in2="effect1_dropShadow" mode="normal" result="shape"/></filter><filter id="c" color-interpolation-filters="sRGB" filterUnits="userSpaceOnUse" height="145.151" width="157.66" x="159.323" y="6.39648"><feFlood flood-opacity="0" result="BackgroundImageFix"/><feColorMatrix in="SourceAlpha" type="matrix" values="0 0 0 0 0 0 0 0 0 0 0 0 0 0 0 0 0 0 127 0"/><feOffset dx="12" dy="-4"/><feGaussianBlur stdDeviation="6.125"/><feColorMatrix type="matrix" values="0 0 0 0 0 0 0 0 0 0 0 0 0 0 0 0 0 0 0.1 0"/><feBlend in2="BackgroundImageFix" mode="normal" result="effect1_dropShadow"/><feBlend in="SourceGraphic" in2="effect1_dropShadow" mode="normal" result="shape"/></filter><filter id="d" color-interpolation-filters="sRGB" filterUnits="userSpaceOnUse" height="115.494" width="124.928" x="-35.25" y="18.75"><feFlood flood-opacity="0" result="BackgroundImageFix"/><feColorMatrix in="SourceAlpha" type="matrix" values="0 0 0 0 0 0 0 0 0 0 0 0 0 0 0 0 0 0 127 0"/><feOffset dx="12" dy="-4"/><feGaussianBlur stdDeviation="6.125"/><feColorMatrix type="matrix" values="0 0 0 0 0 0 0 0 0 0 0 0 0 0 0 0 0 0 0.1 0"/><feBlend in2="BackgroundImageFix" mode="normal" result="effect1_dropShadow"/><feBlend in="SourceGraphic" in2="effect1_dropShadow" mode="normal" result="shape"/></filter><filter id="e" color-interpolation-filters="sRGB" filterUnits="userSpaceOnUse" height="101.358" width="343.503" x="-31.2515" y="35.3403"><feFlood flood-opacity="0" result="BackgroundImageFix"/><feColorMatrix in="SourceAlpha" type="matrix" values="0 0 0 0 0 0 0 0 0 0 0 0 0 0 0 0 0 0 127 0"/><feOffset dx="12" dy="-4"/><feGaussianBlur stdDeviation="6.12576"/><feColorMatrix type="matrix" values="0 0 0 0 0 0 0 0 0 0 0 0 0 0 0 0 0 0 0.1 0"/><feBlend in2="BackgroundImageFix" mode="normal" result="effect1_dropShadow"/><feBlend in="SourceGraphic" in2="effect1_dropShadow" mode="normal" result="shape"/></filter><filter id="f" color-interpolation-filters="sRGB" filterUnits="userSpaceOnUse" height="17" width="24" x="22" y="13"><feFlood flood-opacity="0" result="BackgroundImageFix"/><feColorMatrix in="SourceAlpha" type="matrix" values="0 0 0 0 0 0 0 0 0 0 0 0 0 0 0 0 0 0 127 0"/><feOffset dx="8" dy="4"/><feGaussianBlur stdDeviation="2"/><feColorMatrix type="matrix" values="0 0 0 0 0 0 0 0 0 0 0 0 0 0 0 0 0 0 0.1 0"/><feBlend in2="BackgroundImageFix" mode="normal" result="effect1_dropShadow"/><feBlend in="SourceGraphic" in2="effect1_dropShadow" mode="normal" result="shape"/></filter><filter id="g" color-interpolation-filters="sRGB" filterUnits="userSpaceOnUse" height="8.42373" width="17.1356" x="28" y="22"><feFlood flood-opacity="0" result="BackgroundImageFix"/><feColorMatrix in="SourceAlpha" type="matrix" values="0 0 0 0 0 0 0 0 0 0 0 0 0 0 0 0 0 0 127 0"/><feOffset dx="5.42373" dy="2.71186"/><feGaussianBlur stdDeviation="1.35593"/><feColorMatrix type="matrix" values="0 0 0 0 0 0 0 0 0 0 0 0 0 0 0 0 0 0 0.1 0"/><feBlend in2="BackgroundImageFix" mode="normal" result="effect1_dropShadow"/><feBlend in="SourceGraphic" in2="effect1_dropShadow" mode="normal" result="shape"/></filter><filter id="h" color-interpolation-filters="sRGB" filterUnits="userSpaceOnUse" height="8.47458" width="12.7119" x="22" y="25"><feFlood flood-opacity="0" result="BackgroundImageFix"/><feColorMatrix in="SourceAlpha" type="matrix" values="0 0 0 0 0 0 0 0 0 0 0 0 0 0 0 0 0 0 127 0"/><feOffset dx="4.47458" dy="2.23729"/><feGaussianBlur stdDeviation="1.11864"/><feColorMatrix type="matrix" values="0 0 0 0 0 0 0 0 0 0 0 0 0 0 0 0 0 0 0.1 0"/><feBlend in2="BackgroundImageFix" mode="normal" result="effect1_dropShadow"/><feBlend in="SourceGraphic" in2="effect1_dropShadow" mode="normal" result="shape"/></filter><filter id="i" color-interpolation-filters="sRGB" filterUnits="userSpaceOnUse" height="17" width="24" x="213" y="37"><feFlood flood-opacity="0" result="BackgroundImageFix"/><feColorMatrix in="SourceAlpha" type="matrix" values="0 0 0 0 0 0 0 0 0 0 0 0 0 0 0 0 0 0 127 0"/><feOffset dx="8" dy="4"/><feGaussianBlur stdDeviation="2"/><feColorMatrix type="matrix" values="0 0 0 0 0 0 0 0 0 0 0 0 0 0 0 0 0 0 0.1 0"/><feBlend in2="BackgroundImageFix" mode="normal" result="effect1_dropShadow"/><feBlend in="SourceGraphic" in2="effect1_dropShadow" mode="normal" result="shape"/></filter><filter id="j" color-interpolation-filters="sRGB" filterUnits="userSpaceOnUse" height="8.42373" width="17.1356" x="210" y="46"><feFlood flood-opacity="0" result="BackgroundImageFix"/><feColorMatrix in="SourceAlpha" type="matrix" values="0 0 0 0 0 0 0 0 0 0 0 0 0 0 0 0 0 0 127 0"/><feOffset dx="5.42373" dy="2.71186"/><feGaussianBlur stdDeviation="1.35593"/><feColorMatrix type="matrix" values="0 0 0 0 0 0 0 0 0 0 0 0 0 0 0 0 0 0 0.1 0"/><feBlend in2="BackgroundImageFix" mode="normal" result="effect1_dropShadow"/><feBlend in="SourceGraphic" in2="effect1_dropShadow" mode="normal" result="shape"/></filter><filter id="k" color-interpolation-filters="sRGB" filterUnits="userSpaceOnUse" height="8.47458" width="12.7119" x="219" y="49"><feFlood flood-opacity="0" result="BackgroundImageFix"/><feColorMatrix in="SourceAlpha" type="matrix" values="0 0 0 0 0 0 0 0 0 0 0 0 0 0 0 0 0 0 127 0"/><feOffset dx="4.47458" dy="2.23729"/><feGaussianBlur stdDeviation="1.11864"/><feColorMatrix type="matrix" values="0 0 0 0 0 0 0 0 0 0 0 0 0 0 0 0 0 0 0.1 0"/><feBlend in2="BackgroundImageFix" mode="normal" result="effect1_dropShadow"/><feBlend in="SourceGraphic" in2="effect1_dropShadow" mode="normal" result="shape"/></filter><filter id="l" color-interpolation-filters="sRGB" filterUnits="userSpaceOnUse" height="40.602" width="48.8506" x="24" y="104"><feFlood flood-opacity="0" result="BackgroundImageFix"/><feColorMatrix in="SourceAlpha" type="matrix" values="0 0 0 0 0 0 0 0 0 0 0 0 0 0 0 0 0 0 127 0"/><feOffset dx="2" dy="-1"/><feGaussianBlur stdDeviation="2"/><feColorMatrix type="matrix" values="0 0 0 0 0 0 0 0 0 0 0 0 0 0 0 0 0 0 0.25 0"/><feBlend in2="BackgroundImageFix" mode="normal" result="effect1_dropShadow"/><feBlend in="SourceGraphic" in2="effect1_dropShadow" mode="normal" result="shape"/></filter><filter id="m" color-interpolation-filters="sRGB" filterUnits="userSpaceOnUse" height="42.1865" width="48.8506" x="158.057" y="115.193"><feFlood flood-opacity="0" result="BackgroundImageFix"/><feColorMatrix in="SourceAlpha" type="matrix" values="0 0 0 0 0 0 0 0 0 0 0 0 0 0 0 0 0 0 127 0"/><feOffset dx="2" dy="-1"/><feGaussianBlur stdDeviation="2"/><feColorMatrix type="matrix" values="0 0 0 0 0 0 0 0 0 0 0 0 0 0 0 0 0 0 0.25 0"/><feBlend in2="BackgroundImageFix" mode="normal" result="effect1_dropShadow"/><feBlend in="SourceGraphic" in2="effect1_dropShadow" mode="normal" result="shape"/></filter><filter id="n" color-interpolation-filters="sRGB" filterUnits="userSpaceOnUse" height="34.127" width="42.5391" x="124" y="108"><feFlood flood-opacity="0" result="BackgroundImageFix"/><feColorMatrix in="SourceAlpha" type="matrix" values="0 0 0 0 0 0 0 0 0 0 0 0 0 0 0 0 0 0 127 0"/><feOffset dx="2" dy="-1"/><feGaussianBlur stdDeviation="2"/><feColorMatrix type="matrix" values="0 0 0 0 0 0 0 0 0 0 0 0 0 0 0 0 0 0 0.25 0"/><feBlend in2="BackgroundImageFix" mode="normal" result="effect1_dropShadow"/><feBlend in="SourceGraphic" in2="effect1_dropShadow" mode="normal" result="shape"/></filter><filter id="o" color-interpolation-filters="sRGB" filterUnits="userSpaceOnUse" height="28" width="35.6281" x="55.0005" y="111"><feFlood flood-opacity="0" result="BackgroundImageFix"/><feColorMatrix in="SourceAlpha" type="matrix" values="0 0 0 0 0 0 0 0 0 0 0 0 0 0 0 0 0 0 127 0"/><feOffset dx="2" dy="-1"/><feGaussianBlur stdDeviation="2"/><feColorMatrix type="matrix" values="0 0 0 0 0 0 0 0 0 0 0 0 0 0 0 0 0 0 0.25 0"/><feBlend in2="BackgroundImageFix" mode="normal" result="effect1_dropShadow"/><feBlend in="SourceGraphic" in2="effect1_dropShadow" mode="normal" result="shape"/></filter><filter id="p" color-interpolation-filters="sRGB" filterUnits="userSpaceOnUse" height="34.127" width="42.5391" x="229" y="128"><feFlood flood-opacity="0" result="BackgroundImageFix"/><feColorMatrix in="SourceAlpha" type="matrix" values="0 0 0 0 0 0 0 0 0 0 0 0 0 0 0 0 0 0 127 0"/><feOffset dx="1" dy="-1"/><feGaussianBlur stdDeviation="2"/><feColorMatrix type="matrix" values="0 0 0 0 0 0 0 0 0 0 0 0 0 0 0 0 0 0 0.25 0"/><feBlend in2="BackgroundImageFix" mode="normal" result="effect1_dropShadow"/><feBlend in="SourceGraphic" in2="effect1_dropShadow" mode="normal" result="shape"/></filter><mask id="q" height="176" maskUnits="userSpaceOnUse" width="280" x="0" y="0"><path d="m0 0h280v176h-280z" fill="#2c5291"/></mask><path d="m0 0h280v176h-280z" fill="#2c5291"/><g mask="url(#q)"><path clip-rule="evenodd" d="m130.307 39.0874h-2.831c-.769 0-1.393.624-1.393 1.3939 0 .1958.04.3823.113.5514h-2.267c-.77 0-1.394.624-1.394 1.3939 0 .2633.073.5096.2.7197h-1.045c-.934 0-1.69.7565-1.69 1.6896 0 .9332.756 1.6896 1.69 1.6896h29.483c.933 0 1.69-.7564 1.69-1.6896 0-.9331-.757-1.6896-1.69-1.6896h-1.044c.127-.2101.2-.4564.2-.7197 0-.7699-.624-1.3939-1.394-1.3939h-2.268c.073-.1691.113-.3556.113-.5514 0-.7699-.624-1.3939-1.394-1.3939h-2.83c-.024-.7491-.639-1.3491-1.393-1.3491h-9.462c-.755 0-1.37.6-1.394 1.3491z" fill="#fff6f0" fill-opacity=".9" fill-rule="evenodd"/><path clip-rule="evenodd" d="m148.123 34.5244h-3.192c-.868 0-1.572.704-1.572 1.5724 0 .2195.045.4286.126.6184h-2.556c-.869 0-1.573.704-1.573 1.5724 0 .2963.082.5736.225.8102h-1.178c-1.052 0-1.906.8532-1.906 1.9058s.854 1.9059 1.906 1.9059h33.257c1.053 0 1.906-.8533 1.906-1.9059s-.853-1.9058-1.906-1.9058h-1.177c.143-.2366.225-.5139.225-.8102 0-.8684-.704-1.5724-1.573-1.5724h-2.556c.081-.1898.126-.3989.126-.6184 0-.8684-.704-1.5724-1.572-1.5724h-3.194c-.025-.8462-.719-1.5244-1.572-1.5244h-10.672c-.853 0-1.547.6782-1.572 1.5244z" fill="#fff1e8" fill-opacity=".8" fill-rule="evenodd"/><path clip-rule="evenodd" d="m56.3629 22.2259h-2.5716c-.6993 0-1.2662.5669-1.2662 1.2662 0 .1779.0367.3472.1029.5008h-2.0591c-.6992 0-1.2661.5669-1.2661 1.2662 0 .239.0662.4626.1814.6534h-.9494c-.8477 0-1.5348.6871-1.5348 1.5347s.6872 1.5347 1.5348 1.5347h26.7811c.8476 0 1.5347-.6871 1.5347-1.5347s-.6871-1.5347-1.5347-1.5347h-.9482c.1152-.1908.1814-.4144.1814-.6534 0-.6993-.5668-1.2662-1.2661-1.2662h-2.0603c.0662-.1536.1029-.3229.1029-.5008 0-.6993-.5669-1.2662-1.2661-1.2662h-2.571c-.0213-.6807-.5797-1.2259-1.2655-1.2259h-8.5945c-.6858 0-1.2443.5452-1.2656 1.2259z" fill="#fff6f0" fill-opacity=".9" fill-rule="evenodd"/><path clip-rule="evenodd" d="m73.7235 23.2938h-2.8994c-.7887 0-1.4282.6394-1.4282 1.4282 0 .1989.0407.3884.1143.5605h-2.3217c-.7888 0-1.4282.6395-1.4282 1.4282 0 .2693.0745.5212.2041.7362h-1.0701c-.956 0-1.7311.7751-1.7311 1.7312s.7751 1.7311 1.7312 1.7311h30.2084c.9561 0 1.7312-.775 1.7312-1.7311s-.7751-1.7312-1.7312-1.7312h-1.0693c.1296-.215.2041-.4669.2041-.7362 0-.7887-.6394-1.4282-1.4282-1.4282h-2.3211c.0735-.1721.1142-.3616.1142-.5605 0-.7888-.6394-1.4282-1.4282-1.4282h-2.9012c-.0226-.7691-.6531-1.3856-1.4276-1.3856h-9.6944c-.7745 0-1.405.6165-1.4276 1.3856z" fill="#fff1e8" fill-opacity=".8" fill-rule="evenodd"/><g filter="url(#a)"><path d="m278.945 84.5357 25.055 67.7203h-245.4891l23.6094-49.121 14.6956-50.075 6.5051 28.1374 18.55-56.7517 20.236 28.6143 20.96-40.06 38.064 68.1974 14.936-23.8452 10.6 27.1835 19.273-42.9214 20.478 68.6747z" fill="#b2dda5"/></g><path d="m95.2786 94.7888 1.4441-35.0525-5.8873 20.9838z" fill="#fff" fill-opacity=".3"/><path d="m130.629 38.5714-7.236-10.3761 2.498 14.472z" fill="#fff" fill-opacity=".3"/><path d="m158.373 42.8051 4.443-25.0375-6.665 12.8764z" fill="#fff" fill-opacity=".3"/><path d="m213.049 74.3157 2.201-14.4051-8.766 14.5878z" fill="#fff" fill-opacity=".3"/><path d="m245.238 63.5514 7.998 8.8227-7.332-25.9913z" fill="#fff" fill-opacity=".3"/><path d="m227.91 87.1592 6.443-5.7228v-9.2997z" fill="#fff" fill-opacity=".3"/><path d="m272.564 102.659 4.666 4.77 1.666-17.4075z" fill="#fff" fill-opacity=".3"/><path clip-rule="evenodd" d="m210.308 68.7516h-2.68c-.853 0-1.545.6921-1.545 1.5458 0 .2172.044.424.125.6115h-2.127c-.854 0-1.546.6922-1.546 1.5459 0 .2919.081.5649.222.7978h-.883c-1.035 0-1.874.8389-1.874 1.8738s.839 1.8738 1.874 1.8738h29.115c1.035 0 1.874-.8389 1.874-1.8738s-.839-1.8738-1.874-1.8738h-.881c.14-.2329.221-.5059.221-.7978 0-.8537-.692-1.5459-1.546-1.5459h-2.128c.08-.1875.125-.3943.125-.6115 0-.8537-.692-1.5458-1.546-1.5458h-2.678c-.026-.8315-.708-1.4977-1.545-1.4977h-9.158c-.838 0-1.52.6662-1.545 1.4977z" fill="#fff6f0" fill-opacity=".9" fill-rule="evenodd"/><path clip-rule="evenodd" d="m228.123 63.6917h-3.02c-.963 0-1.744.7807-1.744 1.7437 0 .2429.05.4743.139.6844h-2.398c-.963 0-1.744.7807-1.744 1.7437 0 .3288.091.6364.25.8989h-.995c-1.167 0-2.114.9463-2.114 2.1136s.947 2.1136 2.114 2.1136h32.841c1.168 0 2.114-.9463 2.114-2.1136s-.946-2.1136-2.114-2.1136h-.994c.159-.2625.25-.5701.25-.8989 0-.963-.781-1.7437-1.744-1.7437h-2.398c.09-.2101.14-.4415.14-.6844 0-.963-.781-1.7437-1.744-1.7437h-3.023c-.028-.939-.797-1.6917-1.743-1.6917h-10.33c-.946 0-1.715.7527-1.743 1.6917z" fill="#fff1e8" fill-opacity=".8" fill-rule="evenodd"/><g filter="url(#b)"><path d="m208.434 71.5357 25.055 67.7203h-245.4888l23.6093-49.121 14.6957-50.075 6.5046 28.1374 18.5502-56.7517 20.2366 28.6143 20.9593-40.06 38.0641 68.1974 14.936-23.8452 10.601 27.1835 19.273-42.9214 20.477 68.6743z" fill="#b2dda5"/></g><path d="m24.7679 81.7888 1.444-35.0525-5.8873 20.9838z" fill="#fff" fill-opacity=".3"/><path d="m60.1187 25.5714-7.236-10.3761 2.4973 14.472z" fill="#fff" fill-opacity=".3"/><path d="m87.8619 29.8051 4.4433-25.03752-6.6649 12.87642z" fill="#fff" fill-opacity=".3"/><path d="m142.538 61.3157 2.201-14.4051-8.766 14.5878z" fill="#fff" fill-opacity=".3"/><path d="m174.727 50.5514 7.998 8.8227-7.331-25.9913z" fill="#fff" fill-opacity=".3"/><path d="m157.399 74.1592 6.443-5.7228v-9.2997z" fill="#fff" fill-opacity=".3"/><path d="m202.054 89.6595 4.665 4.769 1.666-17.407z" fill="#fff" fill-opacity=".3"/><path clip-rule="evenodd" d="m72.3629 32.2259h-2.5716c-.6993 0-1.2662.5669-1.2662 1.2662 0 .1779.0367.3472.1029.5008h-2.0591c-.6992 0-1.2661.5669-1.2661 1.2662 0 .239.0662.4626.1814.6534h-.9494c-.8477 0-1.5348.6871-1.5348 1.5347s.6872 1.5347 1.5348 1.5347h26.7811c.8476 0 1.5347-.6871 1.5347-1.5347s-.6871-1.5347-1.5347-1.5347h-.9482c.1152-.1908.1814-.4144.1814-.6534 0-.6993-.5668-1.2662-1.2661-1.2662h-2.0603c.0662-.1536.1029-.3229.1029-.5008 0-.6993-.5669-1.2662-1.2661-1.2662h-2.571c-.0213-.6807-.5797-1.2259-1.2655-1.2259h-8.5945c-.6858 0-1.2443.5452-1.2656 1.2259z" fill="#fff6f0" fill-opacity=".9" fill-rule="evenodd"/><path clip-rule="evenodd" d="m89.7235 33.2938h-2.8994c-.7887 0-1.4282.6394-1.4282 1.4282 0 .1989.0407.3884.1143.5605h-2.3217c-.7888 0-1.4282.6395-1.4282 1.4282 0 .2693.0745.5212.2041.7362h-1.0701c-.956 0-1.7311.7751-1.7311 1.7312s.7751 1.7311 1.7312 1.7311h30.2086c.956 0 1.731-.775 1.731-1.7311s-.775-1.7312-1.731-1.7312h-1.07c.13-.215.205-.4669.205-.7362 0-.7887-.64-1.4282-1.429-1.4282h-2.321c.074-.1721.114-.3616.114-.5605 0-.7888-.639-1.4282-1.428-1.4282h-2.901c-.022-.7691-.653-1.3856-1.428-1.3856h-9.6939c-.7745 0-1.405.6165-1.4276 1.3856z" fill="#fff1e8" fill-opacity=".8" fill-rule="evenodd"/><path clip-rule="evenodd" d="m150.095 42.4853h-2.305c-.846 0-1.533.6865-1.533 1.5333 0 .2148.044.4192.124.6048h-1.813c-.847 0-1.533.6865-1.533 1.5333 0 .2897.08.5606.22.7917h-.665c-1.026 0-1.858.8321-1.858 1.8585s.832 1.8585 1.858 1.8585h26.134c1.026 0 1.859-.8321 1.859-1.8585s-.833-1.8585-1.859-1.8585h-.663c.14-.2311.22-.502.22-.7917 0-.8468-.686-1.5333-1.533-1.5333h-1.814c.079-.1856.124-.39.124-.6048 0-.8468-.687-1.5333-1.534-1.5333h-2.304c-.025-.8246-.701-1.4853-1.532-1.4853h-8.06c-.831 0-1.508.6607-1.533 1.4853z" fill="#fff6f0" fill-opacity=".9" fill-rule="evenodd"/><path clip-rule="evenodd" d="m167.456 43.7767h-2.599c-.955 0-1.729.7743-1.729 1.7295 0 .2416.05.4717.139.6806h-2.045c-.955 0-1.73.7743-1.73 1.7295 0 .3259.091.6308.247.8911h-.748c-1.157 0-2.096.9386-2.096 2.0963 0 1.1578.939 2.0964 2.096 2.0964h29.479c1.157 0 2.096-.9386 2.096-2.0964 0-1.1577-.939-2.0963-2.096-2.0963h-.747c.157-.2603.247-.5652.247-.8911 0-.9552-.775-1.7295-1.73-1.7295h-2.045c.09-.2089.139-.439.139-.6806 0-.9552-.774-1.7295-1.729-1.7295h-2.6c-.028-.9309-.791-1.6771-1.729-1.6771h-9.092c-.937 0-1.701.7462-1.728 1.6771z" fill="#fff1e8" fill-opacity=".8" fill-rule="evenodd"/><g filter="url(#c)"><path d="m247.961 68.6895 44.772 57.0795-6.633 17.529-103.915-6.742-22.612-10.787 30.077-103.1225 38.212 90.6115z" fill="#35675b"/></g><path d="m200.758 53.1641-10.442-24.5606 1.444 16.6917z" fill="#000" fill-opacity=".2"/><path d="m256.454 82.2806-8.575-10.9447 3.927 9.9942z" fill="#000" fill-opacity=".2"/><path d="m210.044 73.3-5.461-12.7863 1.215 10.6688z" fill="#000" fill-opacity=".2"/><path d="m174.32 103.005 2.888-30.7609-7.22 23.6068z" fill="#2a5249"/><g filter="url(#d)"><path d="m-1.23354 69.7251-33.76646 43.0489 5.0024 13.22 78.3716-5.085 17.0537-8.135-22.6835-77.774-28.819 68.339z" fill="#35675b"/></g><path d="m47.9985 56.5086-5.173-19.4517-.7042 12.6161z" fill="#000" fill-opacity=".2"/><path d="m-7.63899 79.975 6.46711-8.2543-2.96136 7.5375z" fill="#000" fill-opacity=".2"/><path d="m27.3627 73.2019 4.1187-9.6433-.9165 8.0463z" fill="#000" fill-opacity=".2"/><path d="m54.3056 95.6054-2.1782-23.1992 5.4455 17.804z" fill="#2a5249"/><path clip-rule="evenodd" d="m40.4711 58.2378h2.56c.7056 0 1.2777.572 1.2777 1.2777 0 .179-.0368.3494-.1033.504h2.0478c.7057 0 1.2777.5721 1.2777 1.2777 0 .2414-.0669.4672-.1833.6598h.9375c.8554 0 1.5488.6934 1.5488 1.5487 0 .8554-.6934 1.5488-1.5488 1.5488h-26.7531c-.8553 0-1.5487-.6934-1.5487-1.5488 0-.8553.6934-1.5487 1.5488-1.5487h.9357c-.1163-.1926-.1832-.4184-.1832-.6598 0-.7056.572-1.2777 1.2777-1.2777h2.0492c-.0665-.1546-.1033-.325-.1033-.504 0-.7057.5721-1.2777 1.2777-1.2777h2.5595c.0211-.6872.5848-1.2378 1.2771-1.2378h8.5713c.6923 0 1.256.5506 1.2772 1.2378z" fill="#fff6f0" fill-opacity=".9" fill-rule="evenodd"/><path clip-rule="evenodd" d="m23.1105 59.3139h2.8862c.796 0 1.4413.6453 1.4413 1.4413 0 .2013-.0413.3931-.1159.5671h2.3102c.796 0 1.4412.6453 1.4412 1.4413 0 .2716-.0751.5257-.2057.7426h1.056c.9648 0 1.747.7821 1.747 1.7469s-.7822 1.747-1.747 1.747h-30.17684c-.96482 0-1.74696-.7822-1.74696-1.747s.78214-1.7469 1.74696-1.7469h1.05501c-.13063-.2169-.20578-.471-.20578-.7426 0-.796.64527-1.4413 1.44124-1.4413h2.3099c-.07459-.174-.11588-.3658-.11588-.5671 0-.796.64526-1.4413 1.44124-1.4413h2.88821c.023-.7759.6592-1.3979 1.4406-1.3979h9.6684c.7814 0 1.4176.622 1.4406 1.3979z" fill="#fff1e8" fill-opacity=".8" fill-rule="evenodd"/><g filter="url(#e)"><path d="m255.175 80.8058 32.825 47.6412h-319l35.78616-27.866 21.10824-36.516 20.8029 28.8759 22.0505-41.3491 46.6072 69.6642 17.54-34.6074 32.574 13.9324 29.568-26.0674 39.591 34.6074z" fill="#91d7b9"/></g><path d="m262.216 92.5962-6.677-9.8892v5.5896z" fill="#fff" fill-opacity=".3"/><path d="m204.848 85.359-9.409-8.6832 1.764 8.6832z" fill="#fff" fill-opacity=".3"/><path d="m66.1543 81.638 1.957-23.6068-14.2585 27.1836z" fill="#fff" fill-opacity=".3"/><path d="m132.524 105.702 1.724-17.6864-10.86 20.2784z" fill="#fff" fill-opacity=".3"/><path d="m3.24802 118.836 1.95706-13.592-17.05438 13.592z" fill="#fff" fill-opacity=".3"/><path d="m36.0996 81.8748-9.7853-13.3533v14.784z" fill="#fff" fill-opacity=".3"/><path d="m0 128h280v48h-280z" fill="#89cdd3"/><path d="m208.036 146.395-2.036-.057-.064 2.29z" fill="#acdeb6"/><path d="m216.012 152.478 1.061-1.498.72 1.548z" fill="#acdeb6"/><path d="m61.7776 159.874 2.0354.06.0668-2.29z" fill="#acdeb6"/><path d="m53.8069 153.785-1.0623 1.497-.7187-1.549z" fill="#acdeb6"/><path d="m178.125 157.522-1.087-1.721-1.937 1.223z" fill="#acdeb6"/><path d="m177.524 167.535 1.835.045-.884 1.461z" fill="#acdeb6"/><path d="m91.6994 148.772 1.0858 1.722 1.9379-1.221z" fill="#acdeb6"/><path d="m92.3092 138.76-1.8348-.047.8848-1.461z" fill="#acdeb6"/><path d="m5.67162 165.223 1.0857 1.722 1.93797-1.221z" fill="#acdeb6"/><path d="m6.28138 155.211-1.83484-.047.88484-1.461z" fill="#acdeb6"/><path d="m152.551 159.386 2.022.241.271-2.275z" fill="#acdeb6"/><path d="m145.156 152.608-1.191 1.396-.578-1.607z" fill="#acdeb6"/><path d="m117.275 146.93-2.022-.242-.273 2.274z" fill="#acdeb6"/><path d="m124.663 153.714 1.193-1.394.576 1.607z" fill="#acdeb6"/><path d="m241.635 173.321 2.022.241.271-2.274z" fill="#acdeb6"/><path d="m234.24 166.544-1.191 1.396-.578-1.607z" fill="#acdeb6"/><path d="m28.2028 132.919-2.0216-.243-.2733 2.274z" fill="#acdeb6"/><path d="m35.5912 139.703 1.1931-1.395.5759 1.607z" fill="#acdeb6"/><path d="m244.485 148.665-.503-1.974-2.22.565z" fill="#acdeb6"/><path d="m240.82 158.002 1.731.61-1.292 1.116z" fill="#acdeb6"/><path d="m25.3316 157.571.5004 1.974 2.2205-.563z" fill="#acdeb6"/><path d="m29.0047 148.237-1.7306-.611 1.2927-1.116z" fill="#acdeb6"/><path d="m262.264 139.083-.502-1.974-2.22.565z" fill="#acdeb6"/><path d="m258.6 148.42 1.731.61-1.292 1.116z" fill="#acdeb6"/><path d="m269.9 157.919-.502-1.974-2.22.565z" fill="#acdeb6"/><path d="m266.235 167.256 1.731.61-1.291 1.116z" fill="#acdeb6"/><path d="m192.122 141.871.058-2.035 1.759.814z" fill="#acdeb6"/><path d="m77.6878 164.41-.0594 2.035-1.7587-.815z" fill="#acdeb6"/><path d="m173.006 141.79 1.722-1.087.305 1.914z" fill="#acdeb6"/><path d="m96.8037 164.51-1.7226 1.086-.304-1.915z" fill="#acdeb6"/><path d="m102.832 155.168-1.723 1.086-.304-1.915z" fill="#acdeb6"/><path d="m217.751 161.874 1.722-1.087.305 1.914z" fill="#acdeb6"/><path d="m52.0766 144.383-1.7226 1.086-.304-1.915z" fill="#acdeb6"/><path d="m167.991 165.332-.241 2.022-1.679-.97z" fill="#acdeb6"/><path d="m101.839 140.973.243-2.022 1.678.971z" fill="#acdeb6"/><path d="m154.271 133.133.243-2.022 1.678.971z" fill="#acdeb6"/><path d="m18.863 150.235.243-2.022 1.6778.971z" fill="#acdeb6"/><path d="m-1.50073 143.317.24292-2.022 1.677884.971z" fill="#acdeb6"/><path d="m244.476 132.121 1.974-.502-.301 1.915z" fill="#acdeb6"/><path d="m25.3244 174.115-1.9738.5.3023-1.914z" fill="#acdeb6"/><path d="m195.739 131.023-2.602 1.964 2.501 1.598z" fill="#acdeb6"/><path d="m74.0608 175.252 2.6036-1.961-2.4997-1.601z" fill="#acdeb6"/><path d="m221.951 131.82-2.602 1.963 2.501 1.599z" fill="#acdeb6"/><path d="m47.8493 174.436 2.6036-1.962-2.4997-1.6z" fill="#acdeb6"/><path d="m205.661 168.982-2.601 1.964 2.501 1.598z" fill="#acdeb6"/><path d="m64.1726 137.287 2.6036-1.961-2.4997-1.601z" fill="#acdeb6"/><path d="m184.026 138.744-3.081-1.065.068 2.968z" fill="#acdeb6"/><path d="m85.781 167.544 3.0798 1.068-.0651-2.968z" fill="#acdeb6"/><path d="m134.603 134.759 3.08 1.067-.065-2.967z" fill="#acdeb6"/><path d="m135.112 170.749 3.08 1.068-.065-2.968z" fill="#acdeb6"/><path d="m206.679 137.554-3.08-1.064.067 2.967z" fill="#acdeb6"/><path d="m63.1263 168.714 3.0797 1.067-.0651-2.967z" fill="#acdeb6"/><path d="m112.458 171.917 3.08 1.068-.066-2.968z" fill="#acdeb6"/><path d="m214.824 172.677-3.081-1.064.068 2.967z" fill="#acdeb6"/><path d="m55.0125 133.583 3.0798 1.068-.0652-2.968z" fill="#acdeb6"/><path d="m163.409 175.806 2.769-1.72-2.347-1.818z" fill="#acdeb6"/><path d="m106.43 130.501-2.77 1.718 2.345 1.82z" fill="#acdeb6"/><path d="m23.4539 139.765-2.7701 1.718 2.345 1.82z" fill="#acdeb6"/><path d="m273.508 169.587 2.656 1.89.772-2.866z" fill="#acdeb6"/><path d="m255.899 132.627-2.601-1.965-.852 2.844z" fill="#acdeb6"/><path d="m13.9018 173.597 2.5993 1.967.8549-2.842z" fill="#acdeb6"/><g fill="#e7e88c"><path d="m214.946 136.15-1.548.72 1.469 2.079z"/><path d="m204.935 157.001-1.315 1.491 1.243 1.053z"/><path d="m230.954 137.366-2.348 1.971 1.731 1.831z"/><path d="m222.814 146.048-.981-1.301-.567 2.021z"/><path d="m54.8588 170.11 1.5487-.719-1.4671-2.079z"/><path d="m64.8883 149.268 1.3167-1.49-1.2425-1.054z"/><path d="m38.8525 168.879 2.3492-1.968-1.729-1.833z"/><path d="m46.9993 160.205.9806 1.301.5682-2.02z"/><path d="m190.482 157.547-1.461-.884-.906 2.379z"/><path d="m167.591 160.864-1.971-.261-.181 1.62z"/><path d="m198.398 171.512-2.944-.849-.556 2.458z"/><path d="m186.653 169.598.532-1.541-1.993.657z"/><path d="m79.342 148.737 1.4603.885.9084-2.377z"/><path d="m102.236 145.44 1.97.263.183-1.62z"/><path d="m71.4381 134.764 2.944.853.5574-2.458z"/><path d="m83.1817 136.69-.5338 1.54 1.9941-.655z"/><path d="m.516051 154.396 1.219859-1.195-2.077494-1.471z"/><path d="m3.00968 131.401.74366-1.844-1.52333-.579z"/><path d="m-14.9823 158.581 1.5569-2.64-2.2419-1.151z"/><path d="m-10.2001 147.683 1.35903.9-.13915-2.094z"/><path d="m190.991 132.601-1.461-.883-.907 2.378z"/><path d="m168.1 135.919-1.971-.261-.181 1.62z"/><path d="m198.907 146.567-2.945-.849-.555 2.457z"/><path d="m187.162 144.652.532-1.54-1.993.657z"/><path d="m78.8113 173.683 1.4602.885.9084-2.378z"/><path d="m101.705 170.386 1.971.262.182-1.619z"/><path d="m70.9073 159.71 2.9441.852.5573-2.457z"/><path d="m82.651 161.635-.5338 1.54 1.994-.655z"/><path d="m230.188 159.582-1.461-.884-.906 2.379z"/><path d="m207.298 162.899-1.971-.26-.181 1.619z"/><path d="m238.105 173.548-2.945-.85-.555 2.458z"/><path d="m226.36 171.633.532-1.541-1.994.657z"/><path d="m39.6374 146.665 1.4603.885.9084-2.378z"/><path d="m62.5312 143.368 1.9706.262.1827-1.619z"/><path d="m31.7335 132.692 2.944.852.5574-2.457z"/><path d="m43.4771 134.617-.5338 1.54 1.9941-.655z"/><path d="m301.965 130.566-1.461-.883-.906 2.378z"/><path d="m279.075 133.884-1.971-.261-.182 1.62z"/><path d="m309.882 144.532-2.945-.85-.555 2.458z"/><path d="m298.136 142.617.533-1.54-1.994.657z"/><path d="m144.743 168.967 1.607-.578-1.275-2.203z"/><path d="m156.596 149.104 1.445-1.365-1.143-1.162z"/><path d="m128.911 166.31 2.516-1.751-1.558-1.98z"/><path d="m137.801 158.398.86 1.384.747-1.961z"/><path d="m125.09 137.357-1.607.576 1.273 2.204z"/><path d="m113.22 157.209-1.446 1.364 1.142 1.163z"/><path d="m140.92 140.028-2.517 1.749 1.556 1.981z"/><path d="m132.023 147.932-.859-1.385-.748 1.961z"/><path d="m1.52228 175.566 1.70717-.03-.49876-2.496z"/><path d="m19.1356 160.574 1.8071-.829-.7086-1.468z"/><path d="m-12.613 167.956 2.94522-.848-.83822-2.376z"/><path d="m-1.65044 163.326.36912 1.587 1.3380543-1.617z"/><path d="m272.616 149.728 1.152 1.26 1.541-2.027z"/><path d="m295.513 152.999 1.818.806.63-1.503z"/><path d="m268.958 134.097 2.586 1.646 1.225-2.202z"/><path d="m279.687 139.246-.945 1.327 2.098-.068z"/><path d="m256.23 152.503-1.117-1.292-1.597 1.982z"/><path d="m233.434 148.586-1.794-.857-.673 1.485z"/><path d="m259.444 168.231-2.538-1.718-1.287 2.166z"/><path d="m248.865 162.781.982-1.3-2.099.009z"/><path d="m13.5897 153.722 1.1155 1.292 1.5984-1.98z"/><path d="m36.3821 157.659 1.7931.858.6741-1.484z"/><path d="m10.3892 137.99 2.5367 1.72 1.2892-2.164z"/><path d="m20.9636 143.45-.9834 1.299 2.0988-.007z"/><path d="m265.116 172.655 1.382 1.003 1.101-2.295z"/><path d="m288.203 171.259 1.943.424.315-1.599z"/><path d="m258.392 158.078 2.864 1.092.758-2.403z"/><path d="m269.937 160.966-.659 1.49 2.041-.488z"/></g><g filter="url(#f)"><path d="m27.3898 22c-.6101-1.9091-1.6271-4.7045-5.3898-5.0455 1.1695-.409 3.9153-.4772 5.3898 1.6364 1.2204-2.3182 1.7288-3 6.6102-5.5909-4.4735 2.3744-5.3081 4.9624-6.6092 8.997z" fill="#000"/></g><g filter="url(#g)"><path d="m32.0424 25c-.4577-.6364-1.2204-1.5682-4.0424-1.6818.8771-.1364 2.9364-.1591 4.0424.5454.9152-.7727 1.2966-1 4.9576-1.8636-3.3551.7915-3.9811 1.6541-4.9569 2.999z" fill="#000"/></g><g filter="url(#h)"><path d="m24.6949 29c-.3051-.8485-.8135-2.0909-2.6949-2.2424.5847-.1818 1.9576-.2121 2.6949.7272.6102-1.0303.8644-1.3333 3.3051-2.4848-2.2367 1.0553-2.654 2.2055-3.3046 3.9987z" fill="#000"/></g><g filter="url(#i)"><path d="m219.61 46c.61-1.9091 1.627-4.7045 5.39-5.0455-1.169-.409-3.915-.4772-5.39 1.6364-1.22-2.3182-1.729-3-6.61-5.5909 4.473 2.3744 5.308 4.9624 6.609 8.997z" fill="#000"/></g><g filter="url(#j)"><path d="m214.958 49c.457-.6364 1.22-1.5682 4.042-1.6818-.877-.1364-2.936-.1591-4.042.5454-.916-.7727-1.297-1-4.958-1.8636 3.355.7915 3.981 1.6541 4.957 2.999z" fill="#000"/></g><g filter="url(#k)"><path d="m222.305 53c.305-.8485.814-2.0909 2.695-2.2424-.585-.1818-1.958-.2121-2.695.7272-.61-1.0303-.864-1.3333-3.305-2.4848 2.237 1.0553 2.654 2.2055 3.305 3.9987z" fill="#000"/></g><g filter="url(#l)"><path d="m57 137.5c3.2 2.8 3 1 3.5 1.5 2 2.5-2 2-4 2.5s-4.5-1-2-1-1.5-4-2.5-4.5-2.5-3-2-5-2-2-2-2.5-1.5-1.5-1.5-3-2.5-1.5-3-3c-.4-1.2.8333-3.5 1.5-4.5h3c.5 1.5-1.5 2.5-1.5 4.5s5.5 5 5.5 7.5 1 4 5 7.5z" fill="#f0a510"/><g clip-rule="evenodd" fill="#539882" fill-rule="evenodd"><path d="m50.4876 115.191h2.5717c.6993 0 1.2662.567 1.2662 1.266 0 .177-.0365.346-.1024.5h2.0584c.6992 0 1.2661.566 1.2661 1.266 0 .239-.0662.462-.1813.653h.9495c.8476 0 1.5348.687 1.5348 1.535 0 .847-.6872 1.534-1.5348 1.534h-26.7811c-.8476 0-1.5347-.687-1.5347-1.534 0-.848.6871-1.535 1.5347-1.535h.9479c-.1151-.191-.1813-.414-.1813-.653 0-.7.5668-1.266 1.2661-1.266h2.06c-.0659-.154-.1024-.323-.1024-.5 0-.699.5669-1.266 1.2661-1.266h2.571c.0212-.681.5797-1.226 1.2655-1.226h8.5945c.6858 0 1.2443.545 1.2655 1.226z"/><path d="m46.4876 113.226h2.5717c.6993 0 1.2662.567 1.2662 1.266 0 .178-.0367.347-.103.501h2.0591c.6993 0 1.2662.567 1.2662 1.266 0 .239-.0663.463-.1814.653h.9494c.8476 0 1.5348.688 1.5348 1.535 0 .848-.6872 1.535-1.5348 1.535h-26.7811c-.8476 0-1.5347-.687-1.5347-1.535 0-.847.6871-1.535 1.5347-1.535h.9482c-.1152-.19-.1815-.414-.1815-.653 0-.699.5669-1.266 1.2662-1.266h2.0603c-.0662-.154-.1029-.323-.1029-.501 0-.699.5669-1.266 1.2661-1.266h2.571c.0212-.681.5797-1.226 1.2655-1.226h8.5945c.6858 0 1.2443.545 1.2655 1.226z"/><path d="m50.4876 110.226h2.5717c.6993 0 1.2662.567 1.2662 1.266 0 .178-.0367.347-.103.501h2.0591c.6993 0 1.2662.567 1.2662 1.266 0 .239-.0663.463-.1814.653h.9494c.8476 0 1.5348.688 1.5348 1.535 0 .848-.6872 1.535-1.5348 1.535h-26.7811c-.8476 0-1.5347-.687-1.5347-1.535 0-.847.6871-1.535 1.5347-1.535h.9482c-.1152-.19-.1815-.414-.1815-.653 0-.699.5669-1.266 1.2662-1.266h2.0603c-.0662-.154-.1029-.323-.1029-.501 0-.699.5669-1.266 1.2661-1.266h2.571c.0212-.681.5797-1.226 1.2655-1.226h8.5945c.6858 0 1.2443.545 1.2655 1.226z"/><path d="m57.4876 113.208h2.5717c.6993 0 1.2662.567 1.2662 1.266 0 .178-.0365.347-.1024.5h2.0584c.6992 0 1.2661.567 1.2661 1.266 0 .24-.0665.464-.1821.655h.9503c.8476 0 1.5348.687 1.5348 1.535 0 .847-.6872 1.534-1.5348 1.534h-26.7811c-.8476 0-1.5347-.687-1.5347-1.534 0-.848.6871-1.535 1.5347-1.535h.9487c-.1156-.191-.1821-.415-.1821-.655 0-.699.5668-1.266 1.2661-1.266h2.06c-.0659-.153-.1024-.322-.1024-.5 0-.699.5669-1.266 1.2661-1.266h2.571c.0212-.68.5797-1.226 1.2655-1.226h8.5945c.6858 0 1.2443.546 1.2655 1.226z"/></g></g><g filter="url(#m)"><path d="m174.471 150.35c-2.583 3.378-2.743 1.574-3.134 2.162-1.467 2.847 2.356 1.566 4.415 1.66 2.059.095 4.213-1.869 1.763-1.375-2.451.494.679-4.218 1.561-4.906.881-.687 1.857-3.435.972-5.296-.886-1.862 1.565-2.356 1.466-2.846-.099-.491 1.174-1.767.878-3.238-.297-1.47 2.154-1.964 2.347-3.534.155-1.255-1.508-3.266-2.36-4.114l-2.94.593c-.194 1.569 1.964 2.154 2.36 4.114.395 1.961-4.404 5.989-3.909 8.44.494 2.45-.19 4.118-3.419 8.34z" fill="#f0a510"/><g clip-rule="evenodd" fill="#539882" fill-rule="evenodd"><path d="m176.42 126.384h-2.572c-.699 0-1.266.567-1.266 1.266 0 .178.037.347.103.5h-2.059c-.699 0-1.266.567-1.266 1.266 0 .239.066.463.181.653h-.949c-.848 0-1.535.687-1.535 1.535s.687 1.535 1.535 1.535h26.781c.848 0 1.535-.687 1.535-1.535s-.687-1.535-1.535-1.535h-.948c.115-.19.181-.414.181-.653 0-.699-.566-1.266-1.266-1.266h-2.06c.066-.153.103-.322.103-.5 0-.699-.567-1.266-1.266-1.266h-2.571c-.022-.681-.58-1.226-1.266-1.226h-8.594c-.686 0-1.245.545-1.266 1.226z"/><path d="m180.42 124.419h-2.572c-.699 0-1.266.567-1.266 1.266 0 .178.037.348.103.501h-2.059c-.699 0-1.266.567-1.266 1.266 0 .239.066.463.181.654h-.949c-.848 0-1.535.687-1.535 1.535 0 .847.687 1.534 1.535 1.534h26.781c.848 0 1.535-.687 1.535-1.534 0-.848-.687-1.535-1.535-1.535h-.948c.115-.191.181-.415.181-.654 0-.699-.567-1.266-1.266-1.266h-2.06c.066-.153.103-.323.103-.501 0-.699-.567-1.266-1.266-1.266h-2.571c-.022-.68-.58-1.226-1.266-1.226h-8.594c-.686 0-1.245.546-1.266 1.226z"/><path d="m176.42 121.419h-2.572c-.699 0-1.266.567-1.266 1.266 0 .178.037.348.103.501h-2.059c-.699 0-1.266.567-1.266 1.266 0 .239.066.463.181.654h-.949c-.848 0-1.535.687-1.535 1.535 0 .847.687 1.534 1.535 1.534h26.781c.848 0 1.535-.687 1.535-1.534 0-.848-.687-1.535-1.535-1.535h-.948c.115-.191.181-.415.181-.654 0-.699-.567-1.266-1.266-1.266h-2.06c.066-.153.103-.323.103-.501 0-.699-.567-1.266-1.266-1.266h-2.571c-.022-.68-.58-1.226-1.266-1.226h-8.594c-.686 0-1.245.546-1.266 1.226z"/><path d="m169.42 124.402h-2.572c-.699 0-1.266.567-1.266 1.266 0 .177.037.346.103.499h-2.059c-.699 0-1.266.567-1.266 1.267 0 .239.067.463.182.654h-.95c-.848 0-1.535.687-1.535 1.535s.687 1.535 1.535 1.535h26.781c.848 0 1.535-.687 1.535-1.535s-.687-1.535-1.535-1.535h-.949c.116-.191.182-.415.182-.654 0-.7-.566-1.267-1.266-1.267h-2.06c.066-.153.103-.322.103-.499 0-.699-.567-1.266-1.266-1.266h-2.571c-.022-.681-.58-1.226-1.266-1.226h-8.594c-.686 0-1.245.545-1.266 1.226z"/></g></g><g filter="url(#n)"><path d="m147.5 132.626c-1.2 1.2-.5 3.5 0 4.5.5.667 1.2 2.001 0 2.001-1.5 0-3.5-.5-2.5-1.5s0-4.5 0-5.001c0-.5 1-3.999 1-4.999s-1.5-2.5-2-2.5c-.4 0-1.5-2.667-2-4.001 1-.166 3-.3 3 .5 0 1 1 3.5 2 4.5s2 5 .5 6.5z" fill="#f0a510"/><g clip-rule="evenodd" fill="#539882" fill-rule="evenodd"><path d="m139.835 118.234h-2.174c-.592 0-1.071.48-1.071 1.071 0 .15.031.293.087.422h-1.741c-.591 0-1.07.479-1.07 1.071 0 .201.055.39.152.551h-.802c-.717 0-1.298.581-1.298 1.297 0 .717.581 1.298 1.298 1.298h22.644c.716 0 1.297-.581 1.297-1.298 0-.716-.581-1.297-1.297-1.297h-.801c.097-.161.152-.35.152-.551 0-.592-.479-1.071-1.07-1.071h-1.742c.056-.129.087-.272.087-.422 0-.591-.479-1.071-1.071-1.071h-2.173c-.018-.575-.49-1.037-1.07-1.037h-7.267c-.58 0-1.052.462-1.07 1.037z"/><path d="m143.217 116.574h-2.175c-.591 0-1.07.479-1.07 1.071 0 .15.031.292.086.422h-1.74c-.591 0-1.071.479-1.071 1.071 0 .202.056.391.154.552h-.803c-.717 0-1.298.581-1.298 1.298s.581 1.298 1.298 1.298h22.643c.717 0 1.298-.581 1.298-1.298s-.581-1.298-1.298-1.298h-.801c.097-.161.153-.35.153-.552 0-.592-.479-1.071-1.07-1.071h-1.742c.056-.13.087-.272.087-.422 0-.592-.48-1.071-1.071-1.071h-2.174c-.017-.576-.489-1.037-1.07-1.037h-7.266c-.58 0-1.053.461-1.07 1.037z"/><path d="m139.834 114.037h-2.174c-.591 0-1.071.479-1.071 1.071 0 .15.031.292.087.422h-1.74c-.592 0-1.071.479-1.071 1.07 0 .203.056.392.154.553h-.803c-.717 0-1.298.581-1.298 1.298 0 .716.581 1.297 1.298 1.297h22.643c.717 0 1.298-.581 1.298-1.297 0-.717-.581-1.298-1.298-1.298h-.802c.098-.161.154-.35.154-.553 0-.591-.479-1.07-1.071-1.07h-1.741c.056-.13.086-.272.086-.422 0-.592-.479-1.071-1.07-1.071h-2.174c-.018-.576-.49-1.037-1.07-1.037h-7.267c-.58 0-1.052.461-1.07 1.037z"/><path d="m133.916 116.559h-2.174c-.591 0-1.07.479-1.07 1.07 0 .15.03.293.086.422h-1.74c-.592 0-1.071.48-1.071 1.071 0 .202.056.391.154.553h-.803c-.717 0-1.298.581-1.298 1.297 0 .717.581 1.298 1.298 1.298h22.643c.717 0 1.298-.581 1.298-1.298 0-.716-.581-1.297-1.298-1.297h-.802c.098-.162.154-.351.154-.553 0-.591-.479-1.071-1.071-1.071h-1.741c.056-.129.086-.272.086-.422 0-.591-.479-1.07-1.07-1.07h-2.174c-.017-.576-.49-1.038-1.07-1.038h-7.267c-.58 0-1.052.462-1.07 1.038z"/></g></g><g filter="url(#o)"><path d="m67.2384 130.979c.9577.927.3991 2.704 0 3.476-.399.515-.9577 1.545 0 1.545 1.1972 0 2.7933-.386 1.9952-1.158-.7981-.773 0-3.476 0-3.863 0-.386-.7981-3.088-.7981-3.861 0-.772 1.1972-1.931 1.5962-1.931.3193 0 1.1972-2.059 1.5962-3.089-.7981-.129-2.3943-.232-2.3943.386 0 .772-.7981 2.703-1.5962 3.475-.7981.773-1.5961 3.862-.399 5.02z" fill="#f0a510"/><g clip-rule="evenodd" fill="#539882" fill-rule="evenodd"><path d="m73.5615 120.186h1.7393c.4729 0 .8563.384.8563.857 0 .12-.0248.235-.0696.339h1.3927c.4729 0 .8563.383.8563.856 0 .161-.0447.312-.1223.441h.642c.5733 0 1.038.465 1.038 1.038s-.4647 1.038-1.038 1.038h-18.1127c-.5732 0-1.0379-.465-1.0379-1.038s.4647-1.038 1.0379-1.038h.6406c-.0776-.129-.1223-.28-.1223-.441 0-.473.3834-.856.8563-.856h1.3934c-.0448-.104-.0696-.219-.0696-.339 0-.473.3834-.857.8563-.857h1.7388c.0144-.46.3921-.829.8559-.829h5.8127c.4638 0 .8415.369.8559.829z"/><path d="m70.8564 118.858h1.7393c.473 0 .8563.384.8563.857 0 .12-.0248.235-.0696.338h1.3927c.4729 0 .8563.384.8563.857 0 .161-.0446.312-.1223.441h.6421c.5732 0 1.0379.465 1.0379 1.038s-.4647 1.038-1.0379 1.038h-18.1127c-.5733 0-1.038-.465-1.038-1.038s.4647-1.038 1.038-1.038h.6406c-.0777-.129-.1224-.28-.1224-.441 0-.473.3834-.857.8564-.857h1.3933c-.0448-.103-.0696-.218-.0696-.338 0-.473.3834-.857.8564-.857h1.7387c.0144-.46.3921-.829.8559-.829h5.8127c.4638 0 .8415.369.8559.829z"/><path d="m73.5619 116.829h1.7394c.4729 0 .8563.383.8563.856 0 .121-.0248.235-.0696.339h1.3927c.4729 0 .8563.384.8563.856 0 .162-.0447.313-.1223.442h.642c.5733 0 1.038.465 1.038 1.038s-.4647 1.038-1.038 1.038h-18.1127c-.5732 0-1.0379-.465-1.0379-1.038s.4647-1.038 1.0379-1.038h.6406c-.0776-.129-.1223-.28-.1223-.442 0-.472.3834-.856.8563-.856h1.3934c-.0448-.104-.0696-.218-.0696-.339 0-.473.3834-.856.8563-.856h1.7388c.0144-.46.3921-.829.8559-.829h5.8126c.4639 0 .8416.369.8559.829z"/><path d="m78.2958 118.845h1.7394c.4729 0 .8563.383.8563.856 0 .12-.0248.235-.0696.339h1.3927c.4729 0 .8563.383.8563.856 0 .162-.0447.313-.1223.441h.642c.5733 0 1.038.465 1.038 1.038 0 .574-.4647 1.038-1.038 1.038h-18.1127c-.5732 0-1.038-.464-1.038-1.038 0-.573.4648-1.038 1.038-1.038h.6406c-.0776-.128-.1223-.279-.1223-.441 0-.473.3834-.856.8563-.856h1.3934c-.0448-.104-.0696-.219-.0696-.339 0-.473.3834-.856.8563-.856h1.7388c.0144-.461.392-.829.8559-.829h5.8126c.4638 0 .8415.368.8559.829z"/></g></g><path d="m62.5 153.5c-12 11.6-46.6667 8.167-62.5 5l-9 24h64.5c5.6667-3.333 19.1-11.4 27.5-17s21.5-2.333 27 0l10.5 9.5h62c5.5 0 12.5-10.5 26-15 14.214-4.738 20-11.5 19-19s16-6 20.5-3c3.711 2.474 16.5 5 33 9.5v-4.5c-8.167-1.333-25.7-5-30.5-9-6-5-33-6-31.5 5s-20.5 11.5-38.5 23-56-8.5-64-11.5-39-11.5-54 3z" fill="#fff0e1"/><g filter="url(#p)"><path d="m248.765 147.501c1.2-1.2.5-3.5 0-4.5-.5-.667-1.2-2.001 0-2.001 1.5 0 3.5.5 2.5 1.5s0 4.5 0 5.001c0 .5-1 3.999-1 4.999s1.5 2.5 2 2.5c.4 0 1.5 2.667 2 4.001-1 .166-3 .3-3-.5 0-1-1-3.5-2-4.5s-2-5-.5-6.5z" fill="#f0a510"/><g clip-rule="evenodd" fill="#539882" fill-rule="evenodd"><path d="m245.835 138.234h-2.174c-.592 0-1.071.48-1.071 1.071 0 .15.031.293.087.422h-1.741c-.591 0-1.07.479-1.07 1.071 0 .201.055.39.152.551h-.802c-.717 0-1.298.581-1.298 1.297 0 .717.581 1.298 1.298 1.298h22.644c.716 0 1.297-.581 1.297-1.298 0-.716-.581-1.297-1.297-1.297h-.801c.097-.161.152-.35.152-.551 0-.592-.479-1.071-1.07-1.071h-1.742c.056-.129.087-.272.087-.422 0-.591-.479-1.071-1.071-1.071h-2.173c-.018-.575-.49-1.037-1.07-1.037h-7.267c-.58 0-1.052.462-1.07 1.037z"/><path d="m249.217 136.574h-2.175c-.591 0-1.07.479-1.07 1.071 0 .15.031.292.086.422h-1.74c-.591 0-1.071.479-1.071 1.071 0 .202.056.391.154.552h-.803c-.717 0-1.298.581-1.298 1.298s.581 1.298 1.298 1.298h22.643c.717 0 1.298-.581 1.298-1.298s-.581-1.298-1.298-1.298h-.801c.097-.161.153-.35.153-.552 0-.592-.479-1.071-1.07-1.071h-1.742c.056-.13.087-.272.087-.422 0-.592-.48-1.071-1.071-1.071h-2.174c-.017-.576-.489-1.037-1.07-1.037h-7.266c-.58 0-1.053.461-1.07 1.037z"/><path d="m245.834 134.037h-2.174c-.591 0-1.071.479-1.071 1.071 0 .15.031.292.087.422h-1.74c-.592 0-1.071.479-1.071 1.07 0 .203.056.392.154.553h-.803c-.717 0-1.298.581-1.298 1.298 0 .716.581 1.297 1.298 1.297h22.643c.717 0 1.298-.581 1.298-1.297 0-.717-.581-1.298-1.298-1.298h-.802c.098-.161.154-.35.154-.553 0-.591-.479-1.07-1.071-1.07h-1.741c.056-.13.086-.272.086-.422 0-.592-.479-1.071-1.07-1.071h-2.174c-.018-.576-.49-1.037-1.07-1.037h-7.267c-.58 0-1.052.461-1.07 1.037z"/><path d="m239.916 136.559h-2.174c-.591 0-1.07.479-1.07 1.07 0 .15.03.293.086.422h-1.74c-.592 0-1.071.48-1.071 1.071 0 .202.056.391.154.553h-.803c-.717 0-1.298.581-1.298 1.297 0 .717.581 1.298 1.298 1.298h22.643c.717 0 1.298-.581 1.298-1.298 0-.716-.581-1.297-1.298-1.297h-.802c.098-.162.154-.351.154-.553 0-.591-.479-1.071-1.071-1.071h-1.741c.056-.129.086-.272.086-.422 0-.591-.479-1.07-1.07-1.07h-2.174c-.017-.576-.49-1.038-1.07-1.038h-7.267c-.58 0-1.052.462-1.07 1.038z"/></g></g></g></svg>