<svg fill="none" height="176" viewBox="0 0 280 176" width="280" xmlns="http://www.w3.org/2000/svg" xmlns:xlink="http://www.w3.org/1999/xlink"><filter id="a" color-interpolation-filters="sRGB" filterUnits="userSpaceOnUse" height="220" width="580" x="-45" y="-78"><feFlood flood-opacity="0" result="BackgroundImageFix"/><feColorMatrix in="SourceAlpha" type="matrix" values="0 0 0 0 0 0 0 0 0 0 0 0 0 0 0 0 0 0 127 0"/><feOffset dy="-4"/><feGaussianBlur stdDeviation="2"/><feColorMatrix type="matrix" values="0 0 0 0 0 0 0 0 0 0 0 0 0 0 0 0 0 0 0.25 0"/><feBlend in2="BackgroundImageFix" mode="normal" result="effect1_dropShadow"/><feBlend in="SourceGraphic" in2="effect1_dropShadow" mode="normal" result="shape"/></filter><filter id="b" color-interpolation-filters="sRGB" filterUnits="userSpaceOnUse" height="168" width="232" x="-124" y="-22"><feFlood flood-opacity="0" result="BackgroundImageFix"/><feColorMatrix in="SourceAlpha" type="matrix" values="0 0 0 0 0 0 0 0 0 0 0 0 0 0 0 0 0 0 127 0"/><feOffset dx="2"/><feGaussianBlur stdDeviation="2"/><feColorMatrix type="matrix" values="0 0 0 0 0 0 0 0 0 0 0 0 0 0 0 0 0 0 0.25 0"/><feBlend in2="BackgroundImageFix" mode="normal" result="effect1_dropShadow"/><feBlend in="SourceGraphic" in2="effect1_dropShadow" mode="normal" result="shape"/></filter><filter id="c" color-interpolation-filters="sRGB" filterUnits="userSpaceOnUse" height="99.0005" width="121.01" x="87.0825" y="49"><feFlood flood-opacity="0" result="BackgroundImageFix"/><feColorMatrix in="SourceAlpha" type="matrix" values="0 0 0 0 0 0 0 0 0 0 0 0 0 0 0 0 0 0 127 0"/><feOffset dy="4"/><feGaussianBlur stdDeviation="2"/><feColorMatrix type="matrix" values="0 0 0 0 0 0 0 0 0 0 0 0 0 0 0 0 0 0 0.25 0"/><feBlend in2="BackgroundImageFix" mode="normal" result="effect1_dropShadow"/><feBlend in="SourceGraphic" in2="effect1_dropShadow" mode="normal" result="shape"/></filter><filter id="d" color-interpolation-filters="sRGB" filterUnits="userSpaceOnUse" height="140" width="136.567" x="82" y="3"><feFlood flood-opacity="0" result="BackgroundImageFix"/><feColorMatrix in="SourceAlpha" type="matrix" values="0 0 0 0 0 0 0 0 0 0 0 0 0 0 0 0 0 0 127 0"/><feOffset dx="4"/><feGaussianBlur stdDeviation=".5"/><feColorMatrix type="matrix" values="0 0 0 0 0 0 0 0 0 0 0 0 0 0 0 0 0 0 0.2 0"/><feBlend in2="BackgroundImageFix" mode="normal" result="effect1_dropShadow"/><feBlend in="SourceGraphic" in2="effect1_dropShadow" mode="normal" result="shape"/></filter><filter id="e" color-interpolation-filters="sRGB" filterUnits="userSpaceOnUse" height="57.7384" width="24.4419" x="140.385" y="-4"><feFlood flood-opacity="0" result="BackgroundImageFix"/><feColorMatrix in="SourceAlpha" type="matrix" values="0 0 0 0 0 0 0 0 0 0 0 0 0 0 0 0 0 0 127 0"/><feOffset dx="4" dy="-4"/><feGaussianBlur stdDeviation="2"/><feColorMatrix type="matrix" values="0 0 0 0 0 0 0 0 0 0 0 0 0 0 0 0 0 0 0.2 0"/><feBlend in2="BackgroundImageFix" mode="normal" result="effect1_dropShadow"/><feBlend in="SourceGraphic" in2="effect1_dropShadow" mode="normal" result="shape"/></filter><filter id="f" color-interpolation-filters="sRGB" filterUnits="userSpaceOnUse" height="57.7384" width="24.4419" x="127.115" y="15.9043"><feFlood flood-opacity="0" result="BackgroundImageFix"/><feColorMatrix in="SourceAlpha" type="matrix" values="0 0 0 0 0 0 0 0 0 0 0 0 0 0 0 0 0 0 127 0"/><feOffset dx="4" dy="-4"/><feGaussianBlur stdDeviation="2"/><feColorMatrix type="matrix" values="0 0 0 0 0 0 0 0 0 0 0 0 0 0 0 0 0 0 0.2 0"/><feBlend in2="BackgroundImageFix" mode="normal" result="effect1_dropShadow"/><feBlend in="SourceGraphic" in2="effect1_dropShadow" mode="normal" result="shape"/></filter><filter id="g" color-interpolation-filters="sRGB" filterUnits="userSpaceOnUse" height="57.7384" width="24.4419" x="153.654" y="15.9043"><feFlood flood-opacity="0" result="BackgroundImageFix"/><feColorMatrix in="SourceAlpha" type="matrix" values="0 0 0 0 0 0 0 0 0 0 0 0 0 0 0 0 0 0 127 0"/><feOffset dx="4" dy="-4"/><feGaussianBlur stdDeviation="2"/><feColorMatrix type="matrix" values="0 0 0 0 0 0 0 0 0 0 0 0 0 0 0 0 0 0 0.2 0"/><feBlend in2="BackgroundImageFix" mode="normal" result="effect1_dropShadow"/><feBlend in="SourceGraphic" in2="effect1_dropShadow" mode="normal" result="shape"/></filter><filter id="h" color-interpolation-filters="sRGB" filterUnits="userSpaceOnUse" height="23.2373" width="13.0375" x="180.192" y="46.4238"><feFlood flood-opacity="0" result="BackgroundImageFix"/><feColorMatrix in="SourceAlpha" type="matrix" values="0 0 0 0 0 0 0 0 0 0 0 0 0 0 0 0 0 0 127 0"/><feOffset dx="4" dy="-4"/><feGaussianBlur stdDeviation="2"/><feColorMatrix type="matrix" values="0 0 0 0 0 0 0 0 0 0 0 0 0 0 0 0 0 0 0.2 0"/><feBlend in2="BackgroundImageFix" mode="normal" result="effect1_dropShadow"/><feBlend in="SourceGraphic" in2="effect1_dropShadow" mode="normal" result="shape"/></filter><filter id="i" color-interpolation-filters="sRGB" filterUnits="userSpaceOnUse" height="23.2373" width="13.0375" x="111.192" y="46.4238"><feFlood flood-opacity="0" result="BackgroundImageFix"/><feColorMatrix in="SourceAlpha" type="matrix" values="0 0 0 0 0 0 0 0 0 0 0 0 0 0 0 0 0 0 127 0"/><feOffset dx="4" dy="-4"/><feGaussianBlur stdDeviation="2"/><feColorMatrix type="matrix" values="0 0 0 0 0 0 0 0 0 0 0 0 0 0 0 0 0 0 0.2 0"/><feBlend in2="BackgroundImageFix" mode="normal" result="effect1_dropShadow"/><feBlend in="SourceGraphic" in2="effect1_dropShadow" mode="normal" result="shape"/></filter><filter id="j" color-interpolation-filters="sRGB" filterUnits="userSpaceOnUse" height="57.7384" width="22.7983" x="198.769" y="83.5762"><feFlood flood-opacity="0" result="BackgroundImageFix"/><feColorMatrix in="SourceAlpha" type="matrix" values="0 0 0 0 0 0 0 0 0 0 0 0 0 0 0 0 0 0 127 0"/><feOffset dx="4" dy="-4"/><feGaussianBlur stdDeviation="2"/><feColorMatrix type="matrix" values="0 0 0 0 0 0 0 0 0 0 0 0 0 0 0 0 0 0 0.2 0"/><feBlend in2="BackgroundImageFix" mode="normal" result="effect1_dropShadow"/><feBlend in="SourceGraphic" in2="effect1_dropShadow" mode="normal" result="shape"/></filter><filter id="k" color-interpolation-filters="sRGB" filterUnits="userSpaceOnUse" height="57.7384" width="22.7982" x="82" y="83.5762"><feFlood flood-opacity="0" result="BackgroundImageFix"/><feColorMatrix in="SourceAlpha" type="matrix" values="0 0 0 0 0 0 0 0 0 0 0 0 0 0 0 0 0 0 127 0"/><feOffset dx="4" dy="-4"/><feGaussianBlur stdDeviation="2"/><feColorMatrix type="matrix" values="0 0 0 0 0 0 0 0 0 0 0 0 0 0 0 0 0 0 0.2 0"/><feBlend in2="BackgroundImageFix" mode="normal" result="effect1_dropShadow"/><feBlend in="SourceGraphic" in2="effect1_dropShadow" mode="normal" result="shape"/></filter><filter id="l" color-interpolation-filters="sRGB" filterUnits="userSpaceOnUse" height="6" width="10" x="252" y="157"><feFlood flood-opacity="0" result="BackgroundImageFix"/><feColorMatrix in="SourceAlpha" type="matrix" values="0 0 0 0 0 0 0 0 0 0 0 0 0 0 0 0 0 0 127 0"/><feOffset dy="1"/><feGaussianBlur stdDeviation=".5"/><feColorMatrix type="matrix" values="0 0 0 0 0 0 0 0 0 0 0 0 0 0 0 0 0 0 0.25 0"/><feBlend in2="BackgroundImageFix" mode="normal" result="effect1_dropShadow"/><feBlend in="SourceGraphic" in2="effect1_dropShadow" mode="normal" result="shape"/></filter><filter id="m" color-interpolation-filters="sRGB" filterUnits="userSpaceOnUse" height="6.98514" width="9.76596" x="227.619" y="157.834"><feFlood flood-opacity="0" result="BackgroundImageFix"/><feColorMatrix in="SourceAlpha" type="matrix" values="0 0 0 0 0 0 0 0 0 0 0 0 0 0 0 0 0 0 127 0"/><feOffset dy="1"/><feGaussianBlur stdDeviation=".5"/><feColorMatrix type="matrix" values="0 0 0 0 0 0 0 0 0 0 0 0 0 0 0 0 0 0 0.25 0"/><feBlend in2="BackgroundImageFix" mode="normal" result="effect1_dropShadow"/><feBlend in="SourceGraphic" in2="effect1_dropShadow" mode="normal" result="shape"/></filter><filter id="n" color-interpolation-filters="sRGB" filterUnits="userSpaceOnUse" height="6.51868" width="9.93217" x="213.541" y="168.777"><feFlood flood-opacity="0" result="BackgroundImageFix"/><feColorMatrix in="SourceAlpha" type="matrix" values="0 0 0 0 0 0 0 0 0 0 0 0 0 0 0 0 0 0 127 0"/><feOffset dy="1"/><feGaussianBlur stdDeviation=".5"/><feColorMatrix type="matrix" values="0 0 0 0 0 0 0 0 0 0 0 0 0 0 0 0 0 0 0.25 0"/><feBlend in2="BackgroundImageFix" mode="normal" result="effect1_dropShadow"/><feBlend in="SourceGraphic" in2="effect1_dropShadow" mode="normal" result="shape"/></filter><filter id="o" color-interpolation-filters="sRGB" filterUnits="userSpaceOnUse" height="6.63817" width="9.9954" x="59.8521" y="151.451"><feFlood flood-opacity="0" result="BackgroundImageFix"/><feColorMatrix in="SourceAlpha" type="matrix" values="0 0 0 0 0 0 0 0 0 0 0 0 0 0 0 0 0 0 127 0"/><feOffset dy="1"/><feGaussianBlur stdDeviation=".5"/><feColorMatrix type="matrix" values="0 0 0 0 0 0 0 0 0 0 0 0 0 0 0 0 0 0 0.25 0"/><feBlend in2="BackgroundImageFix" mode="normal" result="effect1_dropShadow"/><feBlend in="SourceGraphic" in2="effect1_dropShadow" mode="normal" result="shape"/></filter><filter id="p" color-interpolation-filters="sRGB" filterUnits="userSpaceOnUse" height="5" width="10" x="13" y="166"><feFlood flood-opacity="0" result="BackgroundImageFix"/><feColorMatrix in="SourceAlpha" type="matrix" values="0 0 0 0 0 0 0 0 0 0 0 0 0 0 0 0 0 0 127 0"/><feOffset dy="1"/><feGaussianBlur stdDeviation=".5"/><feColorMatrix type="matrix" values="0 0 0 0 0 0 0 0 0 0 0 0 0 0 0 0 0 0 0.25 0"/><feBlend in2="BackgroundImageFix" mode="normal" result="effect1_dropShadow"/><feBlend in="SourceGraphic" in2="effect1_dropShadow" mode="normal" result="shape"/></filter><mask id="q" height="176" maskUnits="userSpaceOnUse" width="280" x="0" y="0"><path d="m0 0h280v176h-280z" fill="#89cdd3"/></mask><mask id="r" height="34" maskUnits="userSpaceOnUse" width="280" x="0" y="142"><path d="m0 142h280v34h-280z" fill="#89cdd3"/></mask><path d="m0 0h280v176h-280z" fill="#89cdd3"/><path d="m0 0h280v176h-280z" fill="#e7e88c"/><g mask="url(#q)"><g filter="url(#a)"><path d="m477.565 94.4828 53.435 47.5172h-572v-99.908l64.3652-112.092 81.3668 37.7701 122.768 27.7299 36.324 61.2126 35.176 49.7874 55.907-22.9828 52.22-13.4023 12.145 3.6552z" fill="#91d7b9"/></g><g filter="url(#b)"><path d="m-28.2609-18 66.9566 72.0611 63.3043 87.9389h-224v-65.9542z" fill="#539882"/></g><path d="m47.1145 104.158 3.8249-20.8019-11.9875-21.5071-77.4919-88.849z" fill="#000" fill-opacity=".13"/><path d="m244.405 38.2095-48.043-69.2095 6.876 38.6098z" fill="#000" fill-opacity=".2"/><g fill="#ffb03a" filter="url(#c)"><path d="m181.092 71.3416v-3.6248l18.191 2.0417c1.367.1535 1.671 2.0061.425 2.5884l4.384-1.0053v68.6584h-23z"/><path d="m114.083 71.3416v-3.6248l-14.8599 1.6678c-1.1582.13-1.1716 1.8086-.0156 1.957l-6.5.5189-1.625 68.1395h23.0005z"/><path d="m113.419 59.9716 11.397-2.132c3.888-.7274 7.676-1.9136 11.285-3.5338l11.818-5.3058 10.695 4.994c3.911 1.8261 8.042 3.1381 12.29 3.9033l11.515 2.0743v80.0284h-69z"/></g><g fill="#000" filter="url(#d)"><g filter="url(#e)"><path d="m142.028 44.6953h13.1536v9.04313h-13.1536z"/><path d="m142.852 35.6484h11.5094v9.04313h-11.5094z"/><path d="m143.673 28.252h9.86523v7.39892h-9.86523z"/><path d="m144.495 20.4434h8.22102v7.80997h-8.22102z"/><path d="m145.729 13.4512h5.75472v6.98787h-5.75472z"/><path d="m148.69 10.5742 2.943 2.8774h-5.885z"/><path d="m145.223 12.4043c.218.2398.824.6278 1.504.2616v.7847h-.981c-.174-.0872-.523-.4185-.523-1.0463z"/><path d="m146.531 11.0977c.218.2397.824.6277 1.504.2615v.7848h-.981c-.174-.0872-.523-.4186-.523-1.0463z"/><path d="m152.09 12.4043c-.218.2398-.824.6278-1.504.2616v.7847h.981c.174-.0872.523-.4185.523-1.0463z"/><path d="m150.782 11.0977c-.218.2397-.824.6277-1.504.2615v.7848h.981c.174-.0872.523-.4186.523-1.0463z"/><path d="m140.385 41.4082c.715.7536 2.702 1.973 4.932.8221v2.4663h-3.217c-.571-.274-1.715-1.3154-1.715-3.2884z"/><path d="m141.207 33.1836c.715.7536 2.702 1.973 4.933.8221v2.4663h-3.217c-.572-.274-1.716-1.3154-1.716-3.2884z"/><path d="m142.028 24.9648c.715.7536 2.703 1.9731 4.933.8221v2.4664h-3.217c-.572-.2741-1.716-1.3154-1.716-3.2885z"/><path d="m142.852 17.1543c.714.7536 2.702 1.973 4.932.8221v2.4663h-3.217c-.572-.274-1.715-1.3154-1.715-3.2884z"/><path d="m156.827 41.4082c-.715.7536-2.703 1.973-4.933.8221v2.4663h3.217c.572-.274 1.716-1.3154 1.716-3.2884z"/><path d="m156.005 33.1836c-.715.7536-2.702 1.973-4.932.8221v2.4663h3.217c.572-.274 1.715-1.3154 1.715-3.2884z"/><path d="m155.183 24.9648c-.715.7536-2.703 1.9731-4.933.8221v2.4664h3.217c.572-.2741 1.716-1.3154 1.716-3.2885z"/><path d="m154.36 17.1543c-.715.7536-2.702 1.973-4.932.8221v2.4663h3.217c.572-.274 1.715-1.3154 1.715-3.2884z"/><path d="m148.605 4v8.221h-.822z"/><path d="m148.605 4v8.221h.822z"/></g><g filter="url(#f)"><path d="m128.759 64.5996h13.1536v9.04313h-13.1536z"/><path d="m129.582 55.5527h11.5094v9.04313h-11.5094z"/><path d="m130.404 48.1562h9.86523v7.39892h-9.86523z"/><path d="m131.226 40.3477h8.22102v7.80997h-8.22102z"/><path d="m132.459 33.3555h5.75472v6.98787h-5.75472z"/><path d="m135.421 30.4785 2.943 2.8774h-5.886z"/><path d="m131.954 32.3086c.218.2398.824.6278 1.504.2616v.7847h-.981c-.174-.0872-.523-.4185-.523-1.0463z"/><path d="m133.262 31.002c.218.2397.824.6277 1.504.2615v.7848h-.981c-.174-.0872-.523-.4186-.523-1.0463z"/><path d="m138.821 32.3086c-.218.2398-.824.6278-1.504.2616v.7847h.981c.174-.0872.523-.4185.523-1.0463z"/><path d="m137.513 31.002c-.218.2397-.824.6277-1.504.2615v.7848h.981c.174-.0872.523-.4186.523-1.0463z"/><path d="m127.115 61.3125c.715.7536 2.702 1.973 4.933.8221v2.4663h-3.217c-.572-.274-1.716-1.3154-1.716-3.2884z"/><path d="m127.938 53.0879c.714.7536 2.702 1.973 4.932.8221v2.4663h-3.217c-.572-.274-1.715-1.3154-1.715-3.2884z"/><path d="m128.759 44.8691c.715.7536 2.702 1.9731 4.932.8221v2.4664h-3.217c-.571-.2741-1.715-1.3154-1.715-3.2885z"/><path d="m129.582 37.0586c.715.7536 2.702 1.973 4.933.8221v2.4663h-3.217c-.572-.274-1.716-1.3154-1.716-3.2884z"/><path d="m143.557 61.3125c-.715.7536-2.702 1.973-4.932.8221v2.4663h3.216c.572-.274 1.716-1.3154 1.716-3.2884z"/><path d="m142.736 53.0879c-.715.7536-2.702 1.973-4.933.8221v2.4663h3.217c.572-.274 1.716-1.3154 1.716-3.2884z"/><path d="m141.913 44.8691c-.715.7536-2.702 1.9731-4.933.8221v2.4664h3.217c.572-.2741 1.716-1.3154 1.716-3.2885z"/><path d="m141.091 37.0586c-.715.7536-2.702 1.973-4.933.8221v2.4663h3.217c.572-.274 1.716-1.3154 1.716-3.2884z"/><path d="m135.336 23.9043v8.221h-.822z"/><path d="m135.336 23.9043v8.221h.822z"/></g><g filter="url(#g)"><path d="m155.297 64.5996h13.1536v9.04313h-13.1536z"/><path d="m156.121 55.5527h11.5094v9.04313h-11.5094z"/><path d="m156.942 48.1562h9.86523v7.39892h-9.86523z"/><path d="m157.764 40.3477h8.22102v7.80997h-8.22102z"/><path d="m158.998 33.3555h5.75472v6.98787h-5.75472z"/><path d="m161.959 30.4785 2.943 2.8774h-5.885z"/><path d="m158.493 32.3086c.218.2398.824.6278 1.504.2616v.7847h-.981c-.175-.0872-.523-.4185-.523-1.0463z"/><path d="m159.801 31.002c.218.2397.824.6277 1.504.2615v.7848h-.981c-.174-.0872-.523-.4186-.523-1.0463z"/><path d="m165.359 32.3086c-.218.2398-.824.6278-1.504.2616v.7847h.981c.175-.0872.523-.4185.523-1.0463z"/><path d="m164.051 31.002c-.218.2397-.824.6277-1.504.2615v.7848h.981c.174-.0872.523-.4186.523-1.0463z"/><path d="m153.654 61.3125c.715.7536 2.702 1.973 4.932.8221v2.4663h-3.216c-.572-.274-1.716-1.3154-1.716-3.2884z"/><path d="m154.476 53.0879c.715.7536 2.702 1.973 4.933.8221v2.4663h-3.217c-.572-.274-1.716-1.3154-1.716-3.2884z"/><path d="m155.297 44.8691c.715.7536 2.703 1.9731 4.933.8221v2.4664h-3.217c-.572-.2741-1.716-1.3154-1.716-3.2885z"/><path d="m156.121 37.0586c.714.7536 2.702 1.973 4.932.8221v2.4663h-3.217c-.572-.274-1.715-1.3154-1.715-3.2884z"/><path d="m170.096 61.3125c-.715.7536-2.703 1.973-4.933.8221v2.4663h3.217c.572-.274 1.716-1.3154 1.716-3.2884z"/><path d="m169.274 53.0879c-.714.7536-2.702 1.973-4.932.8221v2.4663h3.217c.572-.274 1.715-1.3154 1.715-3.2884z"/><path d="m168.452 44.8691c-.715.7536-2.703 1.9731-4.933.8221v2.4664h3.217c.572-.2741 1.716-1.3154 1.716-3.2885z"/><path d="m167.629 37.0586c-.714.7536-2.702 1.973-4.932.8221v2.4663h3.217c.572-.274 1.715-1.3154 1.715-3.2884z"/><path d="m161.874 23.9043v8.221h-.822z"/><path d="m161.874 23.9043v8.221h.822z"/></g><g filter="url(#h)"><path d="m180.696 66.8906h4.02981v2.77049h-4.02981z"/><path d="m180.948 64.1211h3.52608v2.77049h-3.52608z"/><path d="m181.2 61.8535h3.02236v2.26677h-3.02236z"/><path d="m181.452 59.4609h2.51863v2.3927h-2.51863z"/><path d="m181.83 57.3203h1.76304v2.14083h-1.76304z"/><path d="m182.737 56.4375.902.8815h-1.804z"/><path d="m181.675 56.998c.067.0735.252.1924.461.0802v.2404h-.301c-.053-.0267-.16-.1282-.16-.3206z"/><path d="m182.076 56.5977c.066.0734.252.1923.46.0801v.2404h-.3c-.053-.0267-.16-.1282-.16-.3205z"/><path d="m183.779 56.998c-.067.0735-.253.1924-.461.0802v.2404h.301c.053-.0267.16-.1282.16-.3206z"/><path d="m183.377 56.5977c-.066.0734-.252.1923-.46.0801v.2404h.3c.054-.0267.16-.1282.16-.3205z"/><path d="m180.192 65.8848c.219.2308.828.6044 1.512.2518v.7556h-.986c-.175-.0839-.526-.403-.526-1.0074z"/><path d="m180.444 63.3652c.219.2309.828.6045 1.512.2519v.7556h-.986c-.175-.084-.526-.403-.526-1.0075z"/><path d="m180.696 60.8477c.219.2308.828.6044 1.511.2518v.7556h-.986c-.175-.0839-.525-.403-.525-1.0074z"/><path d="m180.948 58.4531c.219.2309.828.6045 1.511.2519v.7556h-.986c-.175-.084-.525-.403-.525-1.0075z"/><path d="m185.23 65.8848c-.219.2308-.828.6044-1.511.2518v.7556h.985c.176-.0839.526-.403.526-1.0074z"/><path d="m184.978 63.3652c-.219.2309-.828.6045-1.511.2519v.7556h.985c.176-.084.526-.403.526-1.0075z"/><path d="m184.726 60.8477c-.219.2308-.828.6044-1.512.2518v.7556h.986c.175-.0839.526-.403.526-1.0074z"/><path d="m184.474 58.4531c-.219.2309-.828.6045-1.512.2519v.7556h.986c.175-.084.526-.403.526-1.0075z"/><path d="m182.711 54.4238v2.5187h-.252z"/><path d="m182.711 54.4238v2.5187h.252z"/></g><g filter="url(#i)"><path d="m111.696 66.8906h4.02981v2.77049h-4.02981z"/><path d="m111.948 64.1211h3.52608v2.77049h-3.52608z"/><path d="m112.2 61.8535h3.02236v2.26677h-3.02236z"/><path d="m112.452 59.4609h2.51863v2.3927h-2.51863z"/><path d="m112.83 57.3203h1.76304v2.14083h-1.76304z"/><path d="m113.737 56.4375.902.8815h-1.804z"/><path d="m112.675 56.998c.067.0735.252.1924.461.0802v.2404h-.301c-.053-.0267-.16-.1282-.16-.3206z"/><path d="m113.076 56.5977c.066.0734.252.1923.46.0801v.2404h-.3c-.053-.0267-.16-.1282-.16-.3205z"/><path d="m114.779 56.998c-.067.0735-.253.1924-.461.0802v.2404h.301c.053-.0267.16-.1282.16-.3206z"/><path d="m114.377 56.5977c-.066.0734-.252.1923-.46.0801v.2404h.3c.054-.0267.16-.1282.16-.3205z"/><path d="m111.192 65.8848c.219.2308.828.6044 1.512.2518v.7556h-.986c-.175-.0839-.526-.403-.526-1.0074z"/><path d="m111.444 63.3652c.219.2309.828.6045 1.512.2519v.7556h-.986c-.175-.084-.526-.403-.526-1.0075z"/><path d="m111.696 60.8477c.219.2308.828.6044 1.511.2518v.7556h-.986c-.175-.0839-.525-.403-.525-1.0074z"/><path d="m111.948 58.4531c.219.2309.828.6045 1.511.2519v.7556h-.986c-.175-.084-.525-.403-.525-1.0075z"/><path d="m116.23 65.8848c-.219.2308-.828.6044-1.511.2518v.7556h.985c.176-.0839.526-.403.526-1.0074z"/><path d="m115.978 63.3652c-.219.2309-.828.6045-1.511.2519v.7556h.985c.176-.084.526-.403.526-1.0075z"/><path d="m115.726 60.8477c-.219.2308-.828.6044-1.512.2518v.7556h.986c.175-.0839.526-.403.526-1.0074z"/><path d="m115.474 58.4531c-.219.2309-.828.6045-1.512.2519v.7556h.986c.175-.084.526-.403.526-1.0075z"/><path d="m113.711 54.4238v2.5187h-.252z"/><path d="m113.711 54.4238v2.5187h.252z"/></g><path d="m82.2075 139h131v3h-131z"/><g filter="url(#j)"><path d="m198.769 132.271h13.1536v9.04313h-13.1536z"/><path d="m199.592 123.225h11.5094v9.04313h-11.5094z"/><path d="m200.414 115.828h9.86523v7.39892h-9.86523z"/><path d="m201.236 108.02h8.22102v7.80997h-8.22102z"/><path d="m202.469 101.027h5.75472v6.98787h-5.75472z"/><path d="m205.43 98.1504 2.943 2.8776h-5.886z"/><path d="m201.964 99.9805c.218.2395.824.6275 1.504.2615v.785h-.981c-.174-.087-.523-.419-.523-1.0465z"/><path d="m203.272 98.6738c.218.2398.824.6278 1.504.2616v.7847h-.981c-.174-.0871-.523-.4185-.523-1.0463z"/><path d="m208.831 99.9805c-.218.2395-.824.6275-1.505.2615v.785h.981c.175-.087.524-.419.524-1.0465z"/><path d="m207.522 98.6738c-.218.2398-.824.6278-1.504.2616v.7847h.981c.175-.0871.523-.4185.523-1.0463z"/><path d="m213.567 128.984c-.714.754-2.702 1.973-4.932.822v2.467h3.217c.572-.274 1.715-1.316 1.715-3.289z"/><path d="m212.746 120.76c-.715.753-2.703 1.973-4.933.822v2.466h3.217c.572-.274 1.716-1.315 1.716-3.288z"/><path d="m211.923 112.541c-.715.754-2.702 1.973-4.933.822v2.466h3.217c.572-.274 1.716-1.315 1.716-3.288z"/><path d="m211.101 104.73c-.715.754-2.703 1.974-4.933.823v2.466h3.217c.572-.274 1.716-1.315 1.716-3.289z"/><path d="m205.404 91.5762v7.9615h-1.327z"/><path d="m205.404 91.5762v7.9615h1.326z"/></g><g filter="url(#k)"><path d="m0 0h13.1536v9.04313h-13.1536z" transform="matrix(-1 0 0 1 96.7983 132.271)"/><path d="m0 0h11.5094v9.04313h-11.5094z" transform="matrix(-1 0 0 1 95.9756 123.225)"/><path d="m0 0h9.86523v7.39892h-9.86523z" transform="matrix(-1 0 0 1 95.1533 115.828)"/><path d="m0 0h8.22102v7.80997h-8.22102z" transform="matrix(-1 0 0 1 94.3315 108.02)"/><path d="m0 0h5.75472v6.98787h-5.75472z" transform="matrix(-1 0 0 1 93.0981 101.027)"/><path d="m90.1373 98.1504-2.9428 2.8776h5.8856z"/><path d="m93.6035 99.9805c-.218.2395-.824.6275-1.5041.2615v.785h.981c.1743-.087.5231-.419.5231-1.0465z"/><path d="m92.2954 98.6738c-.218.2398-.824.6278-1.5041.2616v.7847h.981c.1743-.0871.5231-.4185.5231-1.0463z"/><path d="m86.7368 99.9805c.218.2395.824.6275 1.5041.2615v.785h-.9809c-.1744-.087-.5232-.419-.5232-1.0465z"/><path d="m88.0449 98.6738c.218.2398.824.6278 1.5041.2616v.7847h-.9809c-.1744-.0871-.5232-.4185-.5232-1.0463z"/><path d="m82 128.984c.7149.754 2.7022 1.973 4.9326.822v2.467h-3.2169c-.5719-.274-1.7157-1.316-1.7157-3.289z"/><path d="m82.8218 120.76c.7148.753 2.7022 1.973 4.9326.822v2.466h-3.2169c-.5719-.274-1.7157-1.315-1.7157-3.288z"/><path d="m83.6445 112.541c.7149.754 2.7022 1.973 4.9326.822v2.466h-3.2169c-.5719-.274-1.7157-1.315-1.7157-3.288z"/><path d="m84.4668 104.73c.7149.754 2.7022 1.974 4.9326.823v2.466h-3.2169c-.5719-.274-1.7157-1.315-1.7157-3.289z"/><path d="m90.1638 91.5762v7.9615h1.3269z"/><path d="m90.1638 91.5762v7.9615h-1.3269z"/></g><g clip-rule="evenodd" fill-rule="evenodd"><path d="m181.519 71.4178v-3.7264l20.069 2.3156c1.94.2239 3.903.1139 5.806-.3252l-2.875 1.736v70.5812h-23zm5.308 11.5331 6.192-4.9824 6.192 4.9824v19.5921h-12.384zm5.971 31.1831-5.971 3.98v23.885h11.942v-23.885z"/><path d="m114.51 71.4178v-3.7264l-20.0691 2.3156c-1.9398.2239-3.9035.1139-5.8061-.3252l2.875 1.736v70.5812h23.0002zm-5.308 11.5331-6.192-4.9824-6.1923 4.9824v19.5921h12.3843zm-5.971 31.1831 5.971 3.98v23.885h-11.942v-23.885z"/><path d="m113.846 59.73 11.269-2.1671c3.973-.764 7.838-2.0072 11.511-3.7024l11.72-5.4093 10.592 5.0843c3.979 1.9097 8.193 3.2843 12.533 4.0879l11.375 2.1066v82.269h-15.923v-34.5l-5.308-6.635-13.269-2.6534-11.279 2.6534-7.298 6.635v34.5h-15.923zm35.163 5.9709 5.972 3.3174v23.8846h-11.943v-23.8846zm17.914 11.2789-3.981-2.6539-3.981 2.6539v15.9231h7.962zm-33.173-2.6539 3.981 2.6539v15.9231h-7.962v-15.9231z"/></g></g><path d="m0 142h280v34h-280z" fill="#89cdd3"/><g mask="url(#r)"><path d="m262.931 158.74h.955v-1.65z" fill="#acdeb6"/><path d="m259.112 154.522-.478 1.1-.358-1.1z" fill="#acdeb6"/><path d="m153.834 159.84h.955v-1.651z" fill="#acdeb6"/><path d="m150.015 155.621-.478 1.101-.358-1.101z" fill="#acdeb6"/><path d="m209.974 152.92-.955-.041-.03 1.65z" fill="#acdeb6"/><path d="m213.714 157.303.498-1.079.337 1.115z" fill="#acdeb6"/><path d="m100.876 154.02-.9546-.041-.0304 1.65z" fill="#acdeb6"/><path d="m104.616 158.403.498-1.08.338 1.116z" fill="#acdeb6"/><path d="m32.2877 163.733.9545.042.0313-1.65z" fill="#acdeb6"/><path d="m28.5498 159.345-.4982 1.078-.337-1.116z" fill="#acdeb6"/><path d="m268.288 152.231-.955-.042-.03 1.65z" fill="#acdeb6"/><path d="m272.028 156.614.498-1.08.338 1.116z" fill="#acdeb6"/><path d="m159.19 153.331-.954-.042-.031 1.65z" fill="#acdeb6"/><path d="m162.931 157.713.497-1.079.338 1.116z" fill="#acdeb6"/><path d="m173.607 149.073-.66-1.061-.777 1.14z" fill="#acdeb6"/><path d="m174.259 156.231.848-.23-.271 1.158z" fill="#acdeb6"/><path d="m255.055 168.077-.954-.042-.031 1.65z" fill="#acdeb6"/><path d="m258.796 172.459.497-1.079.338 1.116z" fill="#acdeb6"/><path d="m145.958 169.176-.955-.041-.03 1.65z" fill="#acdeb6"/><path d="m149.698 173.559.498-1.079.338 1.115z" fill="#acdeb6"/><path d="m195.946 160.938-.509-1.241-.909.882z" fill="#acdeb6"/><path d="m195.665 168.153.86.032-.414 1.053z" fill="#acdeb6"/><path d="m86.8497 162.039-.5099-1.24-.9083.881z" fill="#acdeb6"/><path d="m86.5679 169.254.8605.033-.4143 1.053z" fill="#acdeb6"/><path d="m46.3195 155.733.5091 1.242.9088-.881z" fill="#acdeb6"/><path d="m46.6054 148.519-.8604-.034.4149-1.052z" fill="#acdeb6"/><path d="m5.9762 167.587.50915 1.241.90882-.88z" fill="#acdeb6"/><path d="m6.26215 160.372-.86045-.034.41495-1.052z" fill="#acdeb6"/><path d="m183.953 162.283.948.174.128-1.639z" fill="#acdeb6"/><path d="m180.486 157.4-.559 1.005-.271-1.157z" fill="#acdeb6"/><path d="m74.856 163.381.9482.174.1272-1.639z" fill="#acdeb6"/><path d="m71.3884 158.497-.5589 1.006-.2708-1.158z" fill="#acdeb6"/><path d="m58.3133 154.406-.9481-.176-.1281 1.639z" fill="#acdeb6"/><path d="m61.7781 159.294.5595-1.005.2701 1.158z" fill="#acdeb6"/><path d="m225.73 172.322.948.174.127-1.639z" fill="#acdeb6"/><path d="m222.262 167.439-.559 1.005-.271-1.157z" fill="#acdeb6"/><path d="m116.633 173.424.948.174.127-1.639z" fill="#acdeb6"/><path d="m113.165 168.54-.559 1.006-.27-1.158z" fill="#acdeb6"/><path d="m16.5423 144.31-.9481-.175-.1281 1.639z" fill="#acdeb6"/><path d="m20.0071 149.198.5595-1.005.2701 1.158z" fill="#acdeb6"/><path d="m245.816 157.849.261 1.411 1.033-.452z" fill="#acdeb6"/><path d="m247.41 151.048-.82-.404.591-.83z" fill="#acdeb6"/><path d="m136.718 158.948.261 1.411 1.034-.452z" fill="#acdeb6"/><path d="m138.312 152.148-.82-.404.591-.831z" fill="#acdeb6"/><path d="m117.969 155.656-.236-1.422-1.041.407z" fill="#acdeb6"/><path d="m116.25 162.385.812.439-.606.805z" fill="#acdeb6"/><path d="m15.196 162.074.2347 1.422 1.0413-.406z" fill="#acdeb6"/><path d="m16.9185 155.348-.8116-.441.6063-.804z" fill="#acdeb6"/><path d="m235.404 147.65-.236-1.421-1.041.407z" fill="#acdeb6"/><path d="m233.685 154.379.812.439-.606.805z" fill="#acdeb6"/><path d="m126.307 148.752-.236-1.422-1.041.407z" fill="#acdeb6"/><path d="m124.588 155.48.812.44-.606.804z" fill="#acdeb6"/><path d="m129.888 162.324-.236-1.422-1.041.407z" fill="#acdeb6"/><path d="m128.169 169.052.812.44-.606.805z" fill="#acdeb6"/><path d="m270.451 161.675v1.468l-.836-.551z" fill="#acdeb6"/><path d="m161.354 162.777v1.467l-.836-.55z" fill="#acdeb6"/><path d="m202.511 149.658.027-1.467.825.587z" fill="#acdeb6"/><path d="m93.4134 150.762.027-1.467.8251.586z" fill="#acdeb6"/><path d="m39.749 167.002-.0278 1.467-.8247-.588z" fill="#acdeb6"/><path d="m260.825 148.971.027-1.467.825.586z" fill="#acdeb6"/><path d="m151.727 150.072.027-1.467.825.587z" fill="#acdeb6"/><path d="m276.273 168.426.027-1.467.825.586z" fill="#acdeb6"/><path d="m167.176 169.523.027-1.466.825.586z" fill="#acdeb6"/><path d="m193.546 149.602.807-.784.143 1.38z" fill="#acdeb6"/><path d="m84.449 150.703.8073-.783.1434 1.379z" fill="#acdeb6"/><path d="m48.7131 167.073-.8078.782-.1426-1.379z" fill="#acdeb6"/><path d="m51.5403 160.343-.8079.782-.1425-1.38z" fill="#acdeb6"/><path d="m214.53 164.074.807-.783.143 1.379z" fill="#acdeb6"/><path d="m105.432 165.174.807-.783.144 1.379z" fill="#acdeb6"/><path d="m27.7385 152.571-.8078.783-.1426-1.38z" fill="#acdeb6"/><path d="m191.195 166.565-.113 1.456-.788-.698z" fill="#acdeb6"/><path d="m82.097 167.666-.1131 1.457-.7873-.698z" fill="#acdeb6"/><path d="m51.075 150.113.114-1.457.7868.7z" fill="#acdeb6"/><path d="m75.6629 144.465.114-1.457.7868.699z" fill="#acdeb6"/><path d="m12.1625 156.787.1139-1.457.7868.7z" fill="#acdeb6"/><path d="m2.61313 151.803.11392-1.457.78685.699z" fill="#acdeb6"/><path d="m246.038 169.764-.918.402.115-1.385z" fill="#acdeb6"/><path d="m136.941 170.864-.919.402.116-1.386z" fill="#acdeb6"/><path d="m227.062 142.635.926-.362-.141 1.38z" fill="#acdeb6"/><path d="m117.965 143.735.925-.362-.141 1.38z" fill="#acdeb6"/><path d="m15.1932 173.995-.9256.36.1418-1.379z" fill="#acdeb6"/><path d="m252.131 143.741.926-.362-.141 1.38z" fill="#acdeb6"/><path d="m143.034 144.84.925-.361-.141 1.379z" fill="#acdeb6"/><path d="m268.899 169.562 1.194-1.467-1.194-1.1z" fill="#acdeb6"/><path d="m159.802 170.662 1.194-1.467-1.194-1.101z" fill="#acdeb6"/><path d="m204.207 141.845-1.22 1.415 1.173 1.152z" fill="#acdeb6"/><path d="m95.1092 142.944-1.2202 1.415 1.1729 1.152z" fill="#acdeb6"/><path d="m38.0481 174.814 1.221-1.413-1.1723-1.154z" fill="#acdeb6"/><path d="m107.402 143.519-1.22 1.414 1.173 1.152z" fill="#acdeb6"/><path d="m25.7556 174.226 1.221-1.413-1.1723-1.154z" fill="#acdeb6"/><path d="m208.86 169.196-1.22 1.415 1.172 1.152z" fill="#acdeb6"/><path d="m99.7625 170.296-1.2202 1.415 1.1729 1.152z" fill="#acdeb6"/><path d="m33.4109 147.458 1.2209-1.413-1.1722-1.153z" fill="#acdeb6"/><path d="m262.521 141.155-1.22 1.415 1.173 1.152z" fill="#acdeb6"/><path d="m153.424 142.255-1.22 1.415 1.173 1.152z" fill="#acdeb6"/><path d="m198.714 147.406-1.445-.767.032 2.138z" fill="#acdeb6"/><path d="m89.6168 148.508-1.4447-.768.0318 2.139z" fill="#acdeb6"/><path d="m43.5442 169.261 1.4443.769-.0306-2.138z" fill="#acdeb6"/><path d="m66.4397 145.636 1.4443.769-.0305-2.138z" fill="#acdeb6"/><path d="m66.678 171.569 1.4443.77-.0306-2.139z" fill="#acdeb6"/><path d="m100.24 147.65-1.4448-.767.0317 2.138z" fill="#acdeb6"/><path d="m32.9197 170.103 1.4443.769-.0306-2.138z" fill="#acdeb6"/><path d="m56.054 172.411 1.4443.77-.0306-2.139z" fill="#acdeb6"/><path d="m213.157 171.859-1.445-.767.032 2.138z" fill="#acdeb6"/><path d="m104.059 172.959-1.445-.767.032 2.138z" fill="#acdeb6"/><path d="m29.115 144.788 1.4443.769-.0306-2.138z" fill="#acdeb6"/><path d="m189.046 174.113 1.298-1.24-1.1-1.31z" fill="#acdeb6"/><path d="m79.9486 175.214 1.2983-1.239-1.1005-1.31z" fill="#acdeb6"/><path d="m53.2276 142.566-1.299 1.238 1.0996 1.312z" fill="#acdeb6"/><path d="m14.3155 149.242-1.299 1.238 1.0996 1.312z" fill="#acdeb6"/><path d="m240.677 169.633 1.245 1.362.362-2.066z" fill="#acdeb6"/><path d="m131.58 170.732 1.245 1.362.362-2.065z" fill="#acdeb6"/><path d="m123.322 144.1-1.22-1.416-.399 2.049z" fill="#acdeb6"/><path d="m9.83606 173.623 1.21894 1.417.4009-2.048z" fill="#acdeb6"/><path d="m-.982785 143.941 1.218948 1.417.400881-2.048z" fill="#acdeb6"/><path d="m-1.22107 171.085 1.2189522 1.418.4008798-2.049z" fill="#acdeb6"/><g fill="#e7e88c"><path d="m259.828 166.26.716-.55-.716-1.468z"/><path d="m264.244 151.037.597-1.101-.597-.733z"/><path d="m252.308 165.71 1.074-1.468-.836-1.284z"/><path d="m256.008 159.29.477.917.239-1.467z"/><path d="m150.73 167.361.717-.55-.717-1.467z"/><path d="m155.147 152.138.597-1.1-.597-.734z"/><path d="m143.211 166.811 1.074-1.467-.836-1.284z"/><path d="m146.911 160.392.477.917.239-1.468z"/><path d="m104.117 146.638-.726.519.689 1.497z"/><path d="m99.422 161.663-.6168 1.074.583.759z"/><path d="m111.623 147.514-1.1 1.42.811 1.32z"/><path d="m107.807 153.77-.461-.937-.265 1.456z"/><path d="m29.0426 171.109.7263-.518-.688-1.498z"/><path d="m33.746 156.091.6175-1.074-.5827-.76z"/><path d="m21.5364 170.222 1.1017-1.418-.8109-1.321z"/><path d="m25.3569 163.972.4598.938.2665-1.456z"/><path d="m271.528 144.849-.726.519.689 1.497z"/><path d="m266.834 159.874-.617 1.074.583.759z"/><path d="m279.035 145.725-1.101 1.42.812 1.32z"/><path d="m275.218 151.981-.46-.937-.266 1.456z"/><path d="m162.431 145.95-.726.519.689 1.498z"/><path d="m157.736 160.975-.616 1.074.583.76z"/><path d="m169.938 146.827-1.101 1.42.812 1.32z"/><path d="m166.121 153.083-.46-.938-.266 1.457z"/><path d="m175.323 143.015-.726.519.689 1.497z"/><path d="m170.628 158.04-.617 1.074.583.759z"/><path d="m182.829 143.891-1.1 1.42.811 1.32z"/><path d="m179.013 150.147-.461-.937-.265 1.456z"/><path d="m201.741 160.957-.685-.637-.425 1.714z"/><path d="m191.006 163.347-.924-.188-.085 1.167z"/><path d="m205.454 171.02-1.381-.612-.261 1.771z"/><path d="m199.946 169.64.249-1.11-.935.474z"/><path d="m92.6441 162.056-.6852-.636-.425 1.713z"/><path d="m81.9093 164.447-.9242-.188-.085 1.167z"/><path d="m96.3565 172.12-1.381-.612-.2603 1.771z"/><path d="m90.8485 170.74.2497-1.11-.9349.473z"/><path d="m40.5247 155.708.6848.637.426-1.713z"/><path d="m51.2609 153.332.9241.189.0857-1.167z"/><path d="m36.8181 145.639 1.3807.614.2613-1.771z"/><path d="m42.3254 147.026-.2503 1.11.9351-.472z"/><path d="m3.55882 159.785.57206-.86-.97425-1.06z"/><path d="m4.72822 143.215.34874-1.328-.71437-.418z"/><path d="m-3.70922 162.801.73012-1.902-1.05132-.829z"/><path d="m-1.46656 154.949.637315.648-.065253-1.509z"/><path d="m201.98 142.98-.685-.637-.425 1.714z"/><path d="m191.245 145.371-.924-.188-.085 1.167z"/><path d="m205.692 153.044-1.381-.613-.26 1.771z"/><path d="m200.184 151.664.25-1.11-.935.473z"/><path d="m92.8829 144.082-.6852-.637-.425 1.714z"/><path d="m82.1481 146.472-.9242-.188-.085 1.167z"/><path d="m96.5953 154.145-1.381-.612-.2603 1.771z"/><path d="m91.0872 152.765.2497-1.11-.9348.474z"/><path d="m40.2757 173.684.6848.638.426-1.713z"/><path d="m51.0118 171.308.9241.19.0857-1.167z"/><path d="m36.5691 163.616 1.3806.614.2614-1.771z"/><path d="m42.0764 165.003-.2504 1.109.9352-.472z"/><path d="m220.362 162.423-.685-.636-.425 1.714z"/><path d="m209.627 164.814-.924-.188-.085 1.167z"/><path d="m224.074 172.487-1.381-.612-.26 1.771z"/><path d="m218.566 171.107.25-1.11-.935.474z"/><path d="m111.265 163.523-.685-.637-.425 1.714z"/><path d="m100.53 165.913-.9243-.187-.085 1.167z"/><path d="m114.977 173.587-1.381-.613-.26 1.771z"/><path d="m109.469 172.207.25-1.11-.935.473z"/><path d="m21.9051 154.216.6848.637.426-1.713z"/><path d="m32.6412 151.84.9241.189.0857-1.167z"/><path d="m18.1985 144.147 1.3806.614.2614-1.771z"/><path d="m23.7057 145.534-.2503 1.11.9351-.472z"/><path d="m254.023 141.513-.686-.636-.425 1.713z"/><path d="m243.288 143.904-.924-.188-.085 1.167z"/><path d="m257.735 151.577-1.381-.612-.26 1.771z"/><path d="m252.227 150.197.25-1.11-.935.473z"/><path d="m144.925 142.615-.685-.637-.425 1.714z"/><path d="m134.19 145.005-.924-.188-.085 1.168z"/><path d="m148.637 152.678-1.381-.612-.26 1.771z"/><path d="m143.129 151.299.25-1.11-.935.473z"/><path d="m275.985 162.789-.685-.637-.425 1.714z"/><path d="m265.25 165.179-.924-.188-.085 1.167z"/><path d="m279.697 172.852-1.381-.612-.26 1.771z"/><path d="m274.189 171.472.25-1.109-.935.473z"/><path d="m166.888 163.89-.685-.636-.425 1.713z"/><path d="m156.153 166.281-.924-.188-.085 1.167z"/><path d="m170.6 173.954-1.381-.612-.26 1.771z"/><path d="m165.092 172.574.25-1.11-.935.473z"/><path d="m71.1944 170.285.7535-.416-.598-1.587z"/><path d="m76.7529 155.973.6774-.984-.5361-.838z"/><path d="m63.7699 168.37 1.1798-1.261-.7308-1.427z"/><path d="m67.9388 162.67.4034.997.3501-1.414z"/><path d="m61.9784 147.509-.7538.415.5972 1.588z"/><path d="m56.4116 161.814-.6779.983.5355.838z"/><path d="m69.4018 149.434-1.1805 1.259.7299 1.428z"/><path d="m65.2296 155.129-.4028-.998-.351 1.413z"/><path d="m4.03098 175.04.80059-.021-.2339-1.798z"/><path d="m12.2908 164.237.8475-.597-.3323-1.057z"/><path d="m-2.59784 169.557 1.38119-.611-.39308-1.712z"/><path d="m2.54312 166.22.1731 1.144.62749-1.165z"/><path d="m240.259 155.322.54.907.722-1.46z"/><path d="m250.997 157.679.852.58.296-1.083z"/><path d="m238.543 144.058 1.213 1.186.575-1.587z"/><path d="m243.575 147.768-.443.957.983-.049z"/><path d="m131.161 156.423.541.908.722-1.46z"/><path d="m141.899 158.78.852.581.296-1.083z"/><path d="m129.446 145.16 1.212 1.185.575-1.586z"/><path d="m134.477 148.87-.443.956.984-.049z"/><path d="m232.574 157.321-.523-.931-.749 1.428z"/><path d="m221.884 154.498-.841-.617-.316 1.07z"/><path d="m234.082 168.654-1.191-1.237-.603 1.56z"/><path d="m229.12 164.727.461-.937-.984.007z"/><path d="m123.477 158.422-.524-.93-.748 1.428z"/><path d="m112.787 155.6-.841-.617-.316 1.069z"/><path d="m124.984 169.756-1.19-1.238-.604 1.561z"/><path d="m120.023 165.829.461-.937-.984.006z"/><path d="m9.68988 159.301.52312.931.7496-1.427z"/><path d="m20.3785 162.138.8409.618.3161-1.069z"/><path d="m8.18899 147.965 1.18962 1.239.60458-1.56z"/><path d="m13.1479 151.899-.4612.936.9843-.005z"/><path d="m127.644 172.944.648.722.517-1.653z"/><path d="m138.471 171.938.911.305.148-1.152z"/><path d="m124.491 162.439 1.343.787.356-1.731z"/><path d="m129.905 164.52-.309 1.074.957-.351z"/></g></g><path d="m128.912 142h39.214l-2.28 5.985c-1.289 3.383.099 7.2 3.26 8.965 5.483 3.06 4.793 11.157-1.127 13.247l-16.444 5.803h-60.3275l36.1985-7.665c5.75-1.218 6.915-8.913 1.783-11.778-2.757-1.539-3.968-4.868-2.844-7.819z" fill="#799b99"/><g filter="url(#l)"><path d="m261 159c0 .75-3.5.25-3.5.25s2 1.5-.5 1.75c-2.209 0-4-.895-4-2s1.791-2 4-2 4 .895 4 2z" fill="#539882"/></g><g filter="url(#m)"><path d="m228.63 161.406c-.236-.842 3.291-1.225 3.291-1.225s-2.398-1.145-.07-2.1c2.128-.597 4.134-.075 4.482 1.165.347 1.241-1.095 2.73-3.222 3.326-2.127.597-4.133.075-4.481-1.166z" fill="#539882"/></g><g filter="url(#n)"><path d="m222.47 170.459c.12.819-3.423.778-3.423.778s2.218 1.349-.216 1.983c-2.186.319-4.101-.401-4.277-1.607s1.453-2.442 3.639-2.761 4.101.401 4.277 1.607z" fill="#539882"/></g><g filter="url(#o)"><path d="m68.8462 153.94c-.0363.868-3.509.143-3.509.143s1.9255 1.821-.5845 2.005c-2.2072-.092-3.953-1.204-3.8995-2.483.0536-1.279 1.8863-2.241 4.0935-2.149 2.2072.093 3.9531 1.205 3.8995 2.484z" fill="#539882"/></g><g filter="url(#p)"><path d="m22 167.5c0 .562-3.5.188-3.5.188s2 1.124-.5 1.312c-2.2091 0-4-.672-4-1.5s1.7909-1.5 4-1.5 4 .672 4 1.5z" fill="#539882"/></g></g></svg>