<svg fill="none" height="684" viewBox="0 0 1194 684" width="1194" xmlns="http://www.w3.org/2000/svg" xmlns:xlink="http://www.w3.org/1999/xlink"><filter id="a" color-interpolation-filters="sRGB" filterUnits="userSpaceOnUse" height="280.857" width="448" x="763" y="268"><feFlood flood-opacity="0" result="BackgroundImageFix"/><feColorMatrix in="SourceAlpha" type="matrix" values="0 0 0 0 0 0 0 0 0 0 0 0 0 0 0 0 0 0 127 0"/><feOffset dx="8"/><feGaussianBlur stdDeviation="4"/><feColorMatrix type="matrix" values="0 0 0 0 0 0 0 0 0 0 0 0 0 0 0 0 0 0 0.2 0"/><feBlend in2="BackgroundImageFix" mode="normal" result="effect1_dropShadow"/><feBlend in="SourceGraphic" in2="effect1_dropShadow" mode="normal" result="shape"/></filter><filter id="b" color-interpolation-filters="sRGB" filterUnits="userSpaceOnUse" height="205" width="213" x="754" y="129"><feFlood flood-opacity="0" result="BackgroundImageFix"/><feColorMatrix in="SourceAlpha" type="matrix" values="0 0 0 0 0 0 0 0 0 0 0 0 0 0 0 0 0 0 127 0"/><feOffset dx="12" dy="4"/><feGaussianBlur stdDeviation="2"/><feColorMatrix type="matrix" values="0 0 0 0 0 0 0 0 0 0 0 0 0 0 0 0 0 0 0.1 0"/><feBlend in2="BackgroundImageFix" mode="normal" result="effect1_dropShadow"/><feBlend in="SourceGraphic" in2="effect1_dropShadow" mode="normal" result="shape"/></filter><filter id="c" color-interpolation-filters="sRGB" filterUnits="userSpaceOnUse" height="450.531" width="1206" x="0" y="98"><feFlood flood-opacity="0" result="BackgroundImageFix"/><feColorMatrix in="SourceAlpha" type="matrix" values="0 0 0 0 0 0 0 0 0 0 0 0 0 0 0 0 0 0 127 0"/><feOffset dx="8" dy="-1"/><feGaussianBlur stdDeviation="2"/><feColorMatrix type="matrix" values="0 0 0 0 0 0 0 0 0 0 0 0 0 0 0 0 0 0 0.2 0"/><feBlend in2="BackgroundImageFix" mode="normal" result="effect1_dropShadow"/><feBlend in="SourceGraphic" in2="effect1_dropShadow" mode="normal" result="shape"/></filter><filter id="d" color-interpolation-filters="sRGB" filterUnits="userSpaceOnUse" height="580.816" width="554.487" x="328" y="7"><feFlood flood-opacity="0" result="BackgroundImageFix"/><feColorMatrix in="SourceAlpha" type="matrix" values="0 0 0 0 0 0 0 0 0 0 0 0 0 0 0 0 0 0 127 0"/><feOffset dx="8"/><feGaussianBlur stdDeviation="4"/><feColorMatrix type="matrix" values="0 0 0 0 0 0 0 0 0 0 0 0 0 0 0 0 0 0 0.2 0"/><feBlend in2="BackgroundImageFix" mode="normal" result="effect1_dropShadow"/><feBlend in="SourceGraphic" in2="effect1_dropShadow" mode="normal" result="shape"/></filter><filter id="e" color-interpolation-filters="sRGB" filterUnits="userSpaceOnUse" height="111.108" width="79.7287" x="562" y="461"><feFlood flood-opacity="0" result="BackgroundImageFix"/><feColorMatrix in="SourceAlpha" type="matrix" values="0 0 0 0 0 0 0 0 0 0 0 0 0 0 0 0 0 0 127 0"/><feOffset dx="2"/><feGaussianBlur stdDeviation="2"/><feColorMatrix type="matrix" values="0 0 0 0 0 0 0 0 0 0 0 0 0 0 0 0 0 0 0.2 0"/><feBlend in2="BackgroundImageFix" mode="normal" result="effect1_dropShadow"/><feBlend in="SourceGraphic" in2="effect1_dropShadow" mode="normal" result="shape"/></filter><linearGradient id="f"><stop offset="0" stop-color="#ffbd3a"/><stop offset="1" stop-color="#ff993a"/></linearGradient><linearGradient id="g" gradientUnits="userSpaceOnUse" x1="781.465" x2="781.465" xlink:href="#f" y1="283.93" y2="569.45"/><linearGradient id="h" gradientUnits="userSpaceOnUse" x1="413.068" x2="413.068" xlink:href="#f" y1="283.93" y2="569.45"/><linearGradient id="i" gradientUnits="userSpaceOnUse" x1="598.625" x2="598.625" xlink:href="#f" y1="210" y2="569.45"/><path d="m67.501 578.5h-4v4.5z" fill="#acdeb6"/><path d="m83.501 590 2-3 1.5 3z" fill="#acdeb6"/><path d="m524.501 575.5h-4v4.5z" fill="#acdeb6"/><path d="m540.501 587 2-3 1.5 3z" fill="#acdeb6"/><path d="m289.337 594.367 3.998.113.127-4.498z" fill="#acdeb6"/><path d="m273.668 582.42-2.084 2.942-1.415-3.041z" fill="#acdeb6"/><path d="m746.337 591.367 3.998.113.127-4.498z" fill="#acdeb6"/><path d="m730.668 579.42-2.084 2.942-1.415-3.041z" fill="#acdeb6"/><path d="m1033.65 564.892-4-.117-.13 4.498z" fill="#acdeb6"/><path d="m1049.31 576.854 2.08-2.941 1.41 3.043z" fill="#acdeb6"/><path d="m45.0631 596.246 3.9984.113.1272-4.498z" fill="#acdeb6"/><path d="m29.3946 584.299-2.084 2.942-1.4146-3.041z" fill="#acdeb6"/><path d="m502.063 593.246 3.999.113.127-4.498z" fill="#acdeb6"/><path d="m486.395 581.299-2.084 2.942-1.415-3.041z" fill="#acdeb6"/><path d="m441.672 604.855 2.763 2.893 3.254-3.108z" fill="#acdeb6"/><path d="m438.939 585.342-3.551.625 1.133-3.156z" fill="#acdeb6"/><path d="m100.493 553.047 3.998.113.127-4.498z" fill="#acdeb6"/><path d="m84.8243 541.099-2.084 2.943-1.4146-3.042z" fill="#acdeb6"/><path d="m557.493 550.047 3.998.113.127-4.498z" fill="#acdeb6"/><path d="m541.824 538.099-2.084 2.943-1.414-3.042z" fill="#acdeb6"/><path d="m348.095 572.509 2.135 3.382 3.805-2.403z" fill="#acdeb6"/><path d="m349.275 552.84-3.604-.089 1.735-2.87z" fill="#acdeb6"/><path d="m805.095 569.509 2.135 3.382 3.805-2.403z" fill="#acdeb6"/><path d="m806.275 549.84-3.604-.089 1.735-2.87z" fill="#acdeb6"/><path d="m974.869 586.698-2.133-3.384-3.807 2.4z" fill="#acdeb6"/><path d="m973.671 606.366 3.605.092-1.739 2.869z" fill="#acdeb6"/><path d="m1143.86 554.384-2.13-3.384-3.81 2.399z" fill="#acdeb6"/><path d="m1142.66 574.052 3.61.092-1.74 2.869z" fill="#acdeb6"/><path d="m398.332 568.845-3.972-.474-.533 4.468z" fill="#acdeb6"/><path d="m412.858 582.158 2.341-2.742 1.134 3.157z" fill="#acdeb6"/><path d="m855.332 565.845-3.972-.474-.533 4.468z" fill="#acdeb6"/><path d="m869.858 579.158 2.341-2.742 1.134 3.157z" fill="#acdeb6"/><path d="m924.629 590.318 3.972.477.536-4.468z" fill="#acdeb6"/><path d="m910.115 576.991-2.343 2.74-1.132-3.157z" fill="#acdeb6"/><path d="m223.334 541.474-3.972-.474-.533 4.468z" fill="#acdeb6"/><path d="m237.86 554.787 2.341-2.742 1.134 3.157z" fill="#acdeb6"/><path d="m680.335 538.474-3.972-.474-.533 4.468z" fill="#acdeb6"/><path d="m694.861 551.787 2.341-2.742 1.134 3.157z" fill="#acdeb6"/><path d="m1099.6 617.843 3.97.477.54-4.468z" fill="#acdeb6"/><path d="m1085.09 604.517-2.34 2.739-1.14-3.157z" fill="#acdeb6"/><path d="m139.198 580.933-1.095-3.847-4.328 1.233z" fill="#acdeb6"/><path d="m132.521 599.471 3.433 1.102-2.475 2.264z" fill="#acdeb6"/><path d="m596.198 577.933-1.095-3.847-4.328 1.233z" fill="#acdeb6"/><path d="m589.521 596.471 3.433 1.102-2.475 2.264z" fill="#acdeb6"/><path d="m217.736 589.909.987 3.876 4.361-1.11z" fill="#acdeb6"/><path d="m224.935 571.567-3.4-1.199 2.537-2.193z" fill="#acdeb6"/><path d="m674.736 586.909.987 3.876 4.361-1.11z" fill="#acdeb6"/><path d="m681.935 568.567-3.4-1.199 2.537-2.193z" fill="#acdeb6"/><path d="m1105.24 569.416-.98-3.877-4.36 1.106z" fill="#acdeb6"/><path d="m1098.03 587.752 3.4 1.201-2.54 2.192z" fill="#acdeb6"/><path d="m182.81 608.733.987 3.876 4.361-1.109z" fill="#acdeb6"/><path d="m190.009 590.391-3.4-1.198 2.537-2.194z" fill="#acdeb6"/><path d="m639.81 605.733.987 3.876 4.361-1.109z" fill="#acdeb6"/><path d="m647.009 587.391-3.4-1.198 2.537-2.194z" fill="#acdeb6"/><path d="m167.81 571.733.987 3.876 4.361-1.109z" fill="#acdeb6"/><path d="m175.009 553.391-3.4-1.198 2.537-2.194z" fill="#acdeb6"/><path d="m624.81 568.733.987 3.876 4.361-1.109z" fill="#acdeb6"/><path d="m632.009 550.391-3.4-1.198 2.537-2.194z" fill="#acdeb6"/><path d="m36.001 570.5v-4l3.5 1.5z" fill="#acdeb6"/><path d="m493.001 567.5v-4l3.5 1.5z" fill="#acdeb6"/><path d="m320.597 603.256-.113 3.998-3.456-1.598z" fill="#acdeb6"/><path d="m777.597 600.256-.113 3.998-3.456-1.598z" fill="#acdeb6"/><path d="m1002.39 555.977.12-3.998 3.46 1.601z" fill="#acdeb6"/><path d="m76.324 605.134-.1131 3.999-3.4562-1.599z" fill="#acdeb6"/><path d="m533.324 602.134-.113 3.999-3.456-1.599z" fill="#acdeb6"/><path d="m11.6131 552.099-.1131 3.999-3.4562-1.599z" fill="#acdeb6"/><path d="m468.613 549.099-.113 3.999-3.456-1.599z" fill="#acdeb6"/><path d="m358.15 603.415-3.382 2.136-.601-3.76z" fill="#acdeb6"/><path d="m815.15 600.415-3.382 2.136-.601-3.76z" fill="#acdeb6"/><path d="m964.843 555.783 3.384-2.133.597 3.761z" fill="#acdeb6"/><path d="m953.001 574.133 3.384-2.133.597 3.761z" fill="#acdeb6"/><path d="m270.252 563.96-3.382 2.136-.6-3.761z" fill="#acdeb6"/><path d="m727.252 560.96-3.382 2.136-.6-3.761z" fill="#acdeb6"/><path d="m1052.7 595.318 3.39-2.132.6 3.76z" fill="#acdeb6"/><path d="m368.001 557.169.474-3.972 3.297 1.904z" fill="#acdeb6"/><path d="m825.001 554.169.474-3.972 3.297 1.904z" fill="#acdeb6"/><path d="m954.95 602.021-.477 3.971-3.296-1.907z" fill="#acdeb6"/><path d="m851.953 617.417-.477 3.972-3.296-1.907z" fill="#acdeb6"/><path d="m1117.95 583.825-.48 3.972-3.29-1.907z" fill="#acdeb6"/><path d="m1157.95 597.417-.47 3.972-3.3-1.907z" fill="#acdeb6"/><path d="m138.263 548.447 3.847-1.095-.484 3.777z" fill="#acdeb6"/><path d="m595.264 545.447 3.847-1.095-.484 3.777z" fill="#acdeb6"/><path d="m217.752 622.408-3.876.987.591-3.762z" fill="#acdeb6"/><path d="m674.752 619.408-3.876.987.591-3.762z" fill="#acdeb6"/><path d="m1105.26 536.915 3.87-.983-.59 3.761z" fill="#acdeb6"/><path d="m112.741 619.392-3.877.987.591-3.762z" fill="#acdeb6"/><path d="m569.741 616.392-3.877.987.591-3.762z" fill="#acdeb6"/><path d="m42.501 549-5 4 5 3z" fill="#acdeb6"/><path d="m499.501 546-5 4 5 3z" fill="#acdeb6"/><path d="m313.492 624.562 5.111-3.857-4.913-3.14z" fill="#acdeb6"/><path d="m770.492 621.562 5.111-3.857-4.913-3.14z" fill="#acdeb6"/><path d="m1009.52 534.677-5.12 3.853 4.91 3.144z" fill="#acdeb6"/><path d="m262.001 622.997 5.111-3.857-4.913-3.14z" fill="#acdeb6"/><path d="m719.001 619.997 5.111-3.857-4.913-3.14z" fill="#acdeb6"/><path d="m1061.01 536.286-5.12 3.853 4.91 3.144z" fill="#acdeb6"/><path d="m294.001 549.997 5.111-3.857-4.913-3.14z" fill="#acdeb6"/><path d="m751.001 546.997 5.111-3.857-4.913-3.14z" fill="#acdeb6"/><path d="m1028.94 609.259-5.11 3.853 4.91 3.144z" fill="#acdeb6"/><path d="m69.2188 626.441 5.1111-3.857-4.9132-3.141z" fill="#acdeb6"/><path d="m526.219 623.441 5.111-3.857-4.913-3.141z" fill="#acdeb6"/><path d="m336.501 609.397 6.052 2.092-.133-5.829z" fill="#acdeb6"/><path d="m793.501 606.397 6.052 2.092-.133-5.829z" fill="#acdeb6"/><path d="m986.496 549.82-6.05-2.097.128 5.829z" fill="#acdeb6"/><path d="m890.589 614.23-6.05-2.097.128 5.829z" fill="#acdeb6"/><path d="m889.589 543.529-6.05-2.097.128 5.829z" fill="#acdeb6"/><path d="m292.001 611.737 6.052 2.092-.133-5.829z" fill="#acdeb6"/><path d="m749.001 608.737 6.052 2.092-.133-5.829z" fill="#acdeb6"/><path d="m1031 547.521-6.05-2.097.13 5.829z" fill="#acdeb6"/><path d="m934.092 541.23-6.05-2.097.128 5.829z" fill="#acdeb6"/><path d="m276.001 542.737 6.052 2.092-.133-5.829z" fill="#acdeb6"/><path d="m733.001 539.737 6.052 2.092-.133-5.829z" fill="#acdeb6"/><path d="m1046.94 616.535-6.05-2.098.13 5.83z" fill="#acdeb6"/><path d="m377.002 536.592-5.439 3.38 4.61 3.571z" fill="#acdeb6"/><path d="m834.002 533.592-5.439 3.38 4.61 3.571z" fill="#acdeb6"/><path d="m945.931 622.589 5.442-3.375-4.607-3.575z" fill="#acdeb6"/><path d="m1108.93 604.394 5.44-3.375-4.6-3.575z" fill="#acdeb6"/><path d="m160.722 548.809-5.216-3.713-1.516 5.63z" fill="#acdeb6"/><path d="m617.722 545.809-5.216-3.713-1.516 5.63z" fill="#acdeb6"/><path d="m195.313 621.412 5.109 3.859 1.675-5.585z" fill="#acdeb6"/><path d="m652.313 618.412 5.109 3.859 1.675-5.585z" fill="#acdeb6"/><path d="m1127.7 537.931-5.11-3.864-1.68 5.584z" fill="#acdeb6"/><path d="m1173.01 618.847-5.1-3.864-1.68 5.584z" fill="#acdeb6"/><path d="m1174.01 544.847-5.1-3.864-1.68 5.584z" fill="#acdeb6"/><g fill="#e7e88c"><path d="m80.501 558-3 1.5 3 4z"/><path d="m62.001 599.5-2.5 3 2.5 2z"/><path d="m112.001 559.5-4.5 4 3.5 3.5z"/><path d="m96.501 577-2-2.5-1 4z"/><path d="m537.501 555-3 1.5 3 4z"/><path d="m519.001 596.5-2.5 3 2.5 2z"/><path d="m569.001 556.5-4.5 4 3.5 3.5z"/><path d="m553.501 574-2-2.5-1 4z"/><path d="m275.762 614.492 3.042-1.414-2.886-4.083z"/><path d="m295.428 573.532 2.584-2.928-2.443-2.07z"/><path d="m244.317 612.102 4.612-3.871-3.4-3.597z"/><path d="m260.306 595.048 1.928 2.555 1.113-3.97z"/><path d="m732.762 611.492 3.042-1.414-2.886-4.083z"/><path d="m752.428 570.532 2.584-2.928-2.443-2.07z"/><path d="m701.317 609.102 4.612-3.871-3.4-3.597z"/><path d="m717.306 592.048 1.928 2.555 1.113-3.97z"/><path d="m1047.24 544.78-3.04 1.412 2.88 4.086z"/><path d="m1027.54 585.723-2.59 2.926 2.44 2.072z"/><path d="m1078.68 547.198-4.61 3.867 3.39 3.601z"/><path d="m1062.68 564.239-1.93-2.558-1.11 3.97z"/><path d="m31.4889 616.371 3.0412-1.414-2.8858-4.084z"/><path d="m51.1546 575.411 2.5838-2.928-2.4425-2.07z"/><path d="m.0438523 613.981 4.6112777-3.871-3.39967-3.597z"/><path d="m16.0323 596.927 1.9286 2.555 1.1127-3.97z"/><path d="m488.489 613.371 3.041-1.414-2.886-4.084z"/><path d="m508.155 572.411 2.583-2.928-2.442-2.07z"/><path d="m457.044 610.981 4.611-3.871-3.4-3.597z"/><path d="m473.032 593.927 1.929 2.555 1.113-3.97z"/><path d="m434.489 621.371 3.041-1.414-2.886-4.084z"/><path d="m454.155 580.411 2.583-2.928-2.442-2.07z"/><path d="m403.044 618.981 4.611-3.871-3.4-3.597z"/><path d="m419.032 601.927 1.929 2.555 1.113-3.97z"/><path d="m323.82 572.463 2.87 1.736 1.781-4.673z"/><path d="m368.787 565.946 3.872.512.356-3.182z"/><path d="m308.269 545.028 5.785 1.669 1.091-4.828z"/><path d="m331.342 548.79-1.046 3.025 3.916-1.29z"/><path d="m780.82 569.463 2.87 1.736 1.781-4.673z"/><path d="m825.787 562.946 3.872.512.356-3.182z"/><path d="m765.269 542.028 5.785 1.669 1.091-4.828z"/><path d="m788.342 545.79-1.046 3.025 3.916-1.29z"/><path d="m999.144 586.766-2.868-1.738-1.785 4.67z"/><path d="m954.172 593.243-3.871-.516-.359 3.182z"/><path d="m1014.67 614.214-5.78-1.674-1.1 4.827z"/><path d="m991.602 610.432 1.048-3.025-3.917 1.287z"/><path d="m1153.99 575.649-2.39 2.347 4.08 2.889z"/><path d="m1149.09 620.821-1.46 3.622 2.99 1.138z"/><path d="m1184.44 567.428-3.06 5.186 4.4 2.26z"/><path d="m1175.04 588.835-2.67-1.767.28 4.114z"/><path d="m322.82 621.463 2.87 1.736 1.781-4.673z"/><path d="m367.787 614.946 3.872.512.356-3.182z"/><path d="m307.269 594.028 5.785 1.669 1.091-4.828z"/><path d="m330.342 597.79-1.046 3.025 3.916-1.29z"/><path d="m779.82 618.463 2.87 1.736 1.781-4.673z"/><path d="m824.787 611.946 3.872.512.356-3.182z"/><path d="m764.269 591.028 5.785 1.669 1.091-4.828z"/><path d="m787.342 594.79-1.046 3.025 3.916-1.29z"/><path d="m1000.19 537.766-2.871-1.738-1.785 4.67z"/><path d="m955.215 544.243-3.871-.516-.359 3.182z"/><path d="m1015.71 565.214-5.78-1.674-1.09 4.827z"/><path d="m992.645 561.432 1.048-3.025-3.917 1.287z"/><path d="m245.82 568.463 2.87 1.736 1.781-4.673z"/><path d="m290.787 561.946 3.872.512.356-3.182z"/><path d="m230.269 541.028 5.785 1.669 1.091-4.828z"/><path d="m253.342 544.79-1.046 3.025 3.916-1.29z"/><path d="m702.82 565.463 2.87 1.736 1.781-4.673z"/><path d="m747.787 558.946 3.872.512.356-3.182z"/><path d="m687.269 538.028 5.785 1.669 1.091-4.828z"/><path d="m710.342 541.79-1.046 3.025 3.916-1.29z"/><path d="m1077.14 590.836-2.87-1.738-1.78 4.671z"/><path d="m1032.17 597.313-3.87-.516-.36 3.182z"/><path d="m1092.67 618.285-5.79-1.674-1.09 4.827z"/><path d="m1069.6 614.503 1.05-3.025-3.92 1.287z"/><path d="m104.82 625.463 2.87 1.736 1.781-4.673z"/><path d="m149.787 618.946 3.872.512.356-3.182z"/><path d="m89.2693 598.028 5.7848 1.669 1.0905-4.828z"/><path d="m112.342 601.79-1.046 3.025 3.916-1.29z"/><path d="m561.82 622.463 2.87 1.736 1.781-4.673z"/><path d="m606.787 615.946 3.872.512.356-3.182z"/><path d="m546.269 595.028 5.785 1.669 1.091-4.828z"/><path d="m569.342 598.79-1.046 3.025 3.916-1.29z"/><path d="m12.8203 567.463 2.8701 1.736 1.7803-4.673z"/><path d="m57.7873 560.946 3.8714.512.3562-3.182z"/><path d="m-2.73075 540.028 5.78483 1.669 1.0905-4.828z"/><path d="m20.342 543.79-1.0459 3.025 3.916-1.29z"/><path d="m469.82 564.463 2.87 1.736 1.781-4.673z"/><path d="m514.787 557.946 3.872.512.356-3.182z"/><path d="m454.269 537.028 5.785 1.669 1.091-4.828z"/><path d="m477.342 540.79-1.046 3.025 3.916-1.29z"/><path d="m413.669 550.028-3.157 1.134 2.505 4.327z"/><path d="m390.385 589.045-2.838 2.683 2.246 2.282z"/><path d="m444.769 555.247-4.942 3.439 3.061 3.89z"/><path d="m427.306 570.789-1.69-2.72-1.466 3.854z"/><path d="m870.669 547.028-3.157 1.134 2.505 4.327z"/><path d="m847.385 586.045-2.838 2.683 2.246 2.282z"/><path d="m901.769 552.247-4.942 3.439 3.061 3.89z"/><path d="m884.306 567.789-1.69-2.72-1.466 3.854z"/><path d="m909.276 609.122 3.157-1.132-2.501-4.329z"/><path d="m932.595 570.125 2.84-2.68-2.244-2.284z"/><path d="m878.18 603.875 4.945-3.435-3.058-3.893z"/><path d="m895.657 588.349 1.687 2.72 1.47-3.852z"/><path d="m1152.01 534.064-3.35.058.98 4.903z"/><path d="m1117.41 563.515-3.55 1.627 1.4 2.883z"/><path d="m1179.78 549.012-5.78 1.666 1.64 4.668z"/><path d="m1158.25 558.109-.73-3.119-2.63 3.177z"/><path d="m162.475 587.82-2.265-2.474-3.025 3.98z"/><path d="m117.495 581.395-3.57-1.583-1.239 2.952z"/><path d="m169.66 618.526-5.079-3.232-2.408 4.325z"/><path d="m148.584 608.412 1.856-2.608-4.12.134z"/><path d="m619.475 584.82-2.265-2.474-3.025 3.98z"/><path d="m574.495 578.395-3.57-1.583-1.239 2.952z"/><path d="m626.66 615.526-5.079-3.232-2.408 4.325z"/><path d="m605.584 605.412 1.856-2.608-4.12.134z"/><path d="m194.664 582.367 2.193 2.538 3.137-3.894z"/><path d="m239.444 590.062 3.524 1.683 1.322-2.917z"/><path d="m188.349 551.47 4.987 3.375 2.528-4.255z"/><path d="m209.131 562.176-1.929 2.555 4.123-.018z"/><path d="m651.664 579.367 2.193 2.538 3.137-3.894z"/><path d="m696.444 587.062 3.524 1.683 1.322-2.917z"/><path d="m645.349 548.47 4.987 3.375 2.528-4.255z"/><path d="m666.131 559.176-1.929 2.555 4.123-.018z"/><path d="m1128.31 576.975-2.19-2.539-3.14 3.891z"/><path d="m1083.54 569.241-3.53-1.686-1.32 2.915z"/><path d="m1134.6 607.878-4.99-3.379-2.53 4.253z"/><path d="m1113.82 597.154 1.94-2.553-4.13.013z"/><path d="m177.208 542.784-2.715-1.969-2.164 4.507z"/><path d="m131.854 545.527-3.815-.834-.62 3.141z"/><path d="m190.416 571.42-5.625-2.146-1.489 4.721z"/><path d="m167.738 565.747 1.295-2.928-4.01.959z"/><path d="m634.208 539.784-2.715-1.969-2.164 4.507z"/><path d="m588.854 542.527-3.815-.834-.62 3.141z"/><path d="m647.416 568.42-5.625-2.146-1.489 4.721z"/><path d="m624.738 562.747 1.295-2.928-4.01.959z"/></g><path d="m1126.72 673.5h4v4.5z" fill="#acdeb6"/><path d="m1110.72 685-2-3-1.5 3z" fill="#acdeb6"/><path d="m669.72 670.5h4v4.5z" fill="#acdeb6"/><path d="m653.72 682-2-3-1.5 3z" fill="#acdeb6"/><path d="m904.884 689.367-3.998.113-.127-4.498z" fill="#acdeb6"/><path d="m920.553 677.42 2.084 2.942 1.414-3.041z" fill="#acdeb6"/><path d="m447.884 686.367-3.998.113-.127-4.498z" fill="#acdeb6"/><path d="m463.553 674.42 2.084 2.942 1.414-3.041z" fill="#acdeb6"/><path d="m160.573 659.892 3.998-.117.132 4.498z" fill="#acdeb6"/><path d="m144.915 671.854-2.087-2.941-1.411 3.043z" fill="#acdeb6"/><path d="m1149.16 691.246-4 .113-.13-4.498z" fill="#acdeb6"/><path d="m1164.83 679.299 2.08 2.942 1.41-3.041z" fill="#acdeb6"/><path d="m692.158 688.246-3.999.113-.127-4.498z" fill="#acdeb6"/><path d="m707.826 676.299 2.084 2.942 1.415-3.041z" fill="#acdeb6"/><path d="m752.549 699.855-2.763 2.893-3.254-3.108z" fill="#acdeb6"/><path d="m755.282 680.342 3.551.625-1.134-3.156z" fill="#acdeb6"/><path d="m1093.73 648.047-4 .113-.13-4.498z" fill="#acdeb6"/><path d="m1109.4 636.099 2.08 2.943 1.42-3.042z" fill="#acdeb6"/><path d="m636.728 645.047-3.999.113-.127-4.498z" fill="#acdeb6"/><path d="m652.396 633.099 2.084 2.943 1.415-3.042z" fill="#acdeb6"/><path d="m846.126 667.509-2.136 3.382-3.805-2.403z" fill="#acdeb6"/><path d="m844.946 647.84 3.604-.089-1.735-2.87z" fill="#acdeb6"/><path d="m389.126 664.509-2.136 3.382-3.805-2.403z" fill="#acdeb6"/><path d="m387.946 644.84 3.604-.089-1.735-2.87z" fill="#acdeb6"/><path d="m219.352 681.698 2.132-3.384 3.807 2.4z" fill="#acdeb6"/><path d="m220.549 701.366-3.604.092 1.738 2.869z" fill="#acdeb6"/><path d="m50.3584 649.384 2.1328-3.384 3.807 2.399z" fill="#acdeb6"/><path d="m51.5562 669.052-3.6043.092 1.7382 2.869z" fill="#acdeb6"/><path d="m795.888 663.845 3.972-.474.533 4.468z" fill="#acdeb6"/><path d="m781.363 677.158-2.341-2.742-1.135 3.157z" fill="#acdeb6"/><path d="m338.888 660.845 3.972-.474.533 4.468z" fill="#acdeb6"/><path d="m324.363 674.158-2.341-2.742-1.135 3.157z" fill="#acdeb6"/><path d="m269.592 685.318-3.972.477-.537-4.468z" fill="#acdeb6"/><path d="m284.105 671.991 2.344 2.74 1.131-3.157z" fill="#acdeb6"/><path d="m970.887 636.474 3.971-.474.533 4.468z" fill="#acdeb6"/><path d="m956.361 649.787-2.341-2.742-1.135 3.157z" fill="#acdeb6"/><path d="m513.886 633.474 3.971-.474.533 4.468z" fill="#acdeb6"/><path d="m499.36 646.787-2.341-2.742-1.134 3.157z" fill="#acdeb6"/><path d="m1055.02 675.933 1.1-3.847 4.33 1.233z" fill="#acdeb6"/><path d="m1061.7 694.471-3.43 1.102 2.47 2.264z" fill="#acdeb6"/><path d="m598.023 672.933 1.095-3.847 4.328 1.233z" fill="#acdeb6"/><path d="m604.7 691.471-3.433 1.102 2.475 2.264z" fill="#acdeb6"/><path d="m976.484 684.909-.986 3.876-4.361-1.11z" fill="#acdeb6"/><path d="m969.285 666.567 3.401-1.199-2.537-2.193z" fill="#acdeb6"/><path d="m519.484 681.909-.986 3.876-4.361-1.11z" fill="#acdeb6"/><path d="m512.285 663.567 3.401-1.199-2.537-2.193z" fill="#acdeb6"/><path d="m88.977 664.416.983-3.877 4.362 1.106z" fill="#acdeb6"/><path d="m96.1923 682.752-3.3995 1.201 2.5394 2.192z" fill="#acdeb6"/><path d="m1011.41 703.733-.99 3.876-4.36-1.109z" fill="#acdeb6"/><path d="m1004.21 685.391 3.4-1.198-2.54-2.194z" fill="#acdeb6"/><path d="m554.41 700.733-.986 3.876-4.361-1.109z" fill="#acdeb6"/><path d="m547.211 682.391 3.401-1.198-2.538-2.194z" fill="#acdeb6"/><path d="m1026.41 666.733-.99 3.876-4.36-1.109z" fill="#acdeb6"/><path d="m1019.21 648.391 3.4-1.198-2.54-2.194z" fill="#acdeb6"/><path d="m569.41 663.733-.986 3.876-4.361-1.109z" fill="#acdeb6"/><path d="m562.211 645.391 3.401-1.198-2.538-2.194z" fill="#acdeb6"/><path d="m1158.22 665.5v-4l-3.5 1.5z" fill="#acdeb6"/><path d="m701.22 662.5v-4l-3.5 1.5z" fill="#acdeb6"/><path d="m191.827 650.977-.117-3.998-3.455 1.601z" fill="#acdeb6"/><path d="m1182.61 647.099.11 3.999 3.46-1.599z" fill="#acdeb6"/><path d="m725.608 644.099.113 3.999 3.456-1.599z" fill="#acdeb6"/><path d="m229.378 650.783-3.384-2.133-.597 3.761z" fill="#acdeb6"/><path d="m241.22 669.133-3.384-2.133-.597 3.761z" fill="#acdeb6"/><path d="m923.969 658.96 3.382 2.136.6-3.761z" fill="#acdeb6"/><path d="m466.969 655.96 3.382 2.136.6-3.761z" fill="#acdeb6"/><path d="m826.22 652.169-.474-3.972-3.298 1.904z" fill="#acdeb6"/><path d="m369.22 649.169-.474-3.972-3.298 1.904z" fill="#acdeb6"/><path d="m76.2709 678.825.4771 3.972 3.2961-1.907z" fill="#acdeb6"/><path d="m1055.96 643.447-3.85-1.095.48 3.777z" fill="#acdeb6"/><path d="m598.956 640.447-3.847-1.095.484 3.777z" fill="#acdeb6"/><path d="m88.9642 631.915-3.8773-.983.5939 3.761z" fill="#acdeb6"/><path d="m1151.72 644 5 4-5 3z" fill="#acdeb6"/><path d="m694.72 641 5 4-5 3z" fill="#acdeb6"/><path d="m184.702 629.677 5.115 3.853-4.911 3.144z" fill="#acdeb6"/><path d="m133.212 631.286 5.115 3.853-4.911 3.144z" fill="#acdeb6"/><path d="m900.22 644.997-5.111-3.857 4.913-3.14z" fill="#acdeb6"/><path d="m443.22 641.997-5.111-3.857 4.913-3.14z" fill="#acdeb6"/><path d="m207.725 644.82 6.05-2.097-.128 5.829z" fill="#acdeb6"/><path d="m304.632 638.529 6.05-2.097-.128 5.829z" fill="#acdeb6"/><path d="m163.222 642.521 6.05-2.097-.128 5.829z" fill="#acdeb6"/><path d="m260.129 636.23 6.05-2.097-.128 5.829z" fill="#acdeb6"/><path d="m918.22 637.737-6.052 2.092.133-5.829z" fill="#acdeb6"/><path d="m461.22 634.737-6.052 2.092.133-5.829z" fill="#acdeb6"/><path d="m817.219 631.592 5.438 3.38-4.609 3.571z" fill="#acdeb6"/><path d="m360.219 628.592 5.438 3.38-4.609 3.571z" fill="#acdeb6"/><path d="m1033.5 643.809 5.22-3.713 1.51 5.63z" fill="#acdeb6"/><path d="m576.499 640.809 5.216-3.713 1.516 5.63z" fill="#acdeb6"/><path d="m66.5252 632.931 5.106-3.864 1.6793 5.584z" fill="#acdeb6"/><path d="m20.2058 639.847 5.1061-3.864 1.6793 5.584z" fill="#acdeb6"/><path d="m1113.72 653 3 1.5-3 4z" fill="#e7e88c"/><path d="m1132.22 694.5 2.5 3-2.5 2z" fill="#e7e88c"/><path d="m1082.22 654.5 4.5 4-3.5 3.5z" fill="#e7e88c"/><path d="m1097.72 672 2-2.5 1 4z" fill="#e7e88c"/><path d="m656.72 650 3 1.5-3 4z" fill="#e7e88c"/><path d="m675.22 691.5 2.5 3-2.5 2z" fill="#e7e88c"/><path d="m625.22 651.5 4.5 4-3.5 3.5z" fill="#e7e88c"/><path d="m640.72 669 2-2.5 1 4z" fill="#e7e88c"/><path d="m918.458 709.492-3.041-1.414 2.886-4.083z" fill="#e7e88c"/><path d="m898.793 668.532-2.584-2.928 2.442-2.07z" fill="#e7e88c"/><path d="m949.903 707.102-4.611-3.871 3.4-3.597z" fill="#e7e88c"/><path d="m933.915 690.048-1.929 2.555-1.112-3.97z" fill="#e7e88c"/><path d="m461.458 706.492-3.041-1.414 2.886-4.083z" fill="#e7e88c"/><path d="m441.793 665.532-2.584-2.928 2.442-2.07z" fill="#e7e88c"/><path d="m492.903 704.102-4.611-3.871 3.4-3.597z" fill="#e7e88c"/><path d="m476.915 687.048-1.929 2.555-1.112-3.97z" fill="#e7e88c"/><path d="m146.981 639.78 3.042 1.412-2.882 4.086z" fill="#e7e88c"/><path d="m166.683 680.723 2.586 2.926-2.44 2.072z" fill="#e7e88c"/><path d="m115.538 642.198 4.614 3.867-3.396 3.601z" fill="#e7e88c"/><path d="m131.541 659.239 1.927-2.558 1.116 3.97z" fill="#e7e88c"/><path d="m1162.73 711.371-3.04-1.414 2.89-4.084z" fill="#e7e88c"/><path d="m1143.07 670.411-2.59-2.928 2.44-2.07z" fill="#e7e88c"/><path d="m1194.18 708.981-4.61-3.871 3.4-3.597z" fill="#e7e88c"/><path d="m1178.19 691.927-1.93 2.555-1.11-3.97z" fill="#e7e88c"/><path d="m705.732 708.371-3.041-1.414 2.885-4.084z" fill="#e7e88c"/><path d="m686.066 667.411-2.584-2.928 2.443-2.07z" fill="#e7e88c"/><path d="m737.177 705.981-4.611-3.871 3.399-3.597z" fill="#e7e88c"/><path d="m721.188 688.927-1.928 2.555-1.113-3.97z" fill="#e7e88c"/><path d="m759.732 716.371-3.041-1.414 2.885-4.084z" fill="#e7e88c"/><path d="m740.066 675.411-2.584-2.928 2.443-2.07z" fill="#e7e88c"/><path d="m791.177 713.981-4.611-3.871 3.399-3.597z" fill="#e7e88c"/><path d="m775.188 696.927-1.928 2.555-1.113-3.97z" fill="#e7e88c"/><path d="m870.4 667.463-2.87 1.736-1.78-4.673z" fill="#e7e88c"/><path d="m825.433 660.946-3.871.512-.356-3.182z" fill="#e7e88c"/><path d="m885.951 640.028-5.784 1.669-1.091-4.828z" fill="#e7e88c"/><path d="m862.879 643.79 1.046 3.025-3.916-1.29z" fill="#e7e88c"/><path d="m413.4 664.463-2.87 1.736-1.78-4.673z" fill="#e7e88c"/><path d="m368.433 657.946-3.871.512-.356-3.182z" fill="#e7e88c"/><path d="m428.951 637.028-5.784 1.669-1.091-4.828z" fill="#e7e88c"/><path d="m405.879 640.79 1.046 3.025-3.916-1.29z" fill="#e7e88c"/><path d="m195.076 681.766 2.869-1.738 1.784 4.67z" fill="#e7e88c"/><path d="m240.049 688.243 3.871-.516.359 3.182z" fill="#e7e88c"/><path d="m179.55 709.214 5.783-1.674 1.095 4.827z" fill="#e7e88c"/><path d="m202.619 705.432-1.048-3.025 3.917 1.287z" fill="#e7e88c"/><path d="m40.2292 670.649 2.3963 2.347-4.081 2.889z" fill="#e7e88c"/><path d="m45.1277 715.821 1.4609 3.622-2.9925 1.138z" fill="#e7e88c"/><path d="m9.78396 662.428 3.05844 5.186-4.40389 2.26z" fill="#e7e88c"/><path d="m19.1783 683.835 2.6697-1.767-.2734 4.114z" fill="#e7e88c"/><path d="m414.4 713.463-2.87 1.736-1.78-4.673z" fill="#e7e88c"/><path d="m369.433 706.946-3.871.512-.356-3.182z" fill="#e7e88c"/><path d="m429.951 686.028-5.784 1.669-1.091-4.828z" fill="#e7e88c"/><path d="m406.879 689.79 1.046 3.025-3.916-1.29z" fill="#e7e88c"/><path d="m194.033 632.766 2.869-1.738 1.784 4.67z" fill="#e7e88c"/><path d="m239.006 639.243 3.871-.516.359 3.182z" fill="#e7e88c"/><path d="m178.507 660.214 5.783-1.674 1.095 4.827z" fill="#e7e88c"/><path d="m201.576 656.432-1.048-3.025 3.917 1.287z" fill="#e7e88c"/><path d="m948.4 663.463-2.87 1.736-1.78-4.673z" fill="#e7e88c"/><path d="m903.433 656.946-3.871.512-.356-3.182z" fill="#e7e88c"/><path d="m963.951 636.028-5.784 1.669-1.091-4.828z" fill="#e7e88c"/><path d="m940.879 639.79 1.046 3.025-3.916-1.29z" fill="#e7e88c"/><path d="m491.4 660.463-2.87 1.736-1.78-4.673z" fill="#e7e88c"/><path d="m446.433 653.946-3.871.512-.356-3.182z" fill="#e7e88c"/><path d="m506.951 633.028-5.784 1.669-1.091-4.828z" fill="#e7e88c"/><path d="m483.879 636.79 1.046 3.025-3.916-1.29z" fill="#e7e88c"/><path d="m117.08 685.836 2.869-1.738 1.784 4.671z" fill="#e7e88c"/><path d="m162.053 692.313 3.871-.516.359 3.182z" fill="#e7e88c"/><path d="m101.554 713.285 5.783-1.674 1.095 4.827z" fill="#e7e88c"/><path d="m124.623 709.503-1.049-3.025 3.918 1.287z" fill="#e7e88c"/><path d="m1181.4 662.463-2.87 1.736-1.78-4.673z" fill="#e7e88c"/><path d="m1136.43 655.946-3.87.512-.35-3.182z" fill="#e7e88c"/><path d="m1196.95 635.028-5.78 1.669-1.09-4.828z" fill="#e7e88c"/><path d="m1173.88 638.79 1.04 3.025-3.91-1.29z" fill="#e7e88c"/><path d="m724.4 659.463-2.87 1.736-1.78-4.673z" fill="#e7e88c"/><path d="m679.433 652.946-3.871.512-.356-3.182z" fill="#e7e88c"/><path d="m739.951 632.028-5.784 1.669-1.091-4.828z" fill="#e7e88c"/><path d="m716.879 635.79 1.046 3.025-3.916-1.29z" fill="#e7e88c"/><path d="m780.552 645.028 3.157 1.134-2.506 4.327z" fill="#e7e88c"/><path d="m803.836 684.045 2.838 2.683-2.246 2.282z" fill="#e7e88c"/><path d="m749.451 650.247 4.942 3.439-3.061 3.89z" fill="#e7e88c"/><path d="m766.914 665.789 1.69-2.72 1.467 3.854z" fill="#e7e88c"/><path d="m323.552 642.028 3.157 1.134-2.506 4.327z" fill="#e7e88c"/><path d="m346.836 681.045 2.838 2.683-2.246 2.282z" fill="#e7e88c"/><path d="m292.451 647.247 4.942 3.439-3.061 3.89z" fill="#e7e88c"/><path d="m309.914 662.789 1.69-2.72 1.467 3.854z" fill="#e7e88c"/><path d="m284.945 704.122-3.158-1.132 2.502-4.329z" fill="#e7e88c"/><path d="m261.626 665.125-2.84-2.68 2.244-2.284z" fill="#e7e88c"/><path d="m316.041 698.875-4.945-3.435 3.057-3.893z" fill="#e7e88c"/><path d="m298.564 683.349-1.688 2.72-1.47-3.852z" fill="#e7e88c"/><path d="m42.2071 629.064 3.3536.058-.9798 4.903z" fill="#e7e88c"/><path d="m76.8068 658.515 3.55 1.627-1.392 2.883z" fill="#e7e88c"/><path d="m14.4395 644.012 5.7857 1.666-1.6466 4.668z" fill="#e7e88c"/><path d="m35.9745 653.109.7252-3.119 2.6284 3.177z" fill="#e7e88c"/><path d="m1031.75 682.82 2.26-2.474 3.03 3.98z" fill="#e7e88c"/><path d="m1076.73 676.395 3.57-1.583 1.23 2.952z" fill="#e7e88c"/><path d="m1024.56 713.526 5.08-3.232 2.41 4.325z" fill="#e7e88c"/><path d="m1045.64 703.412-1.86-2.608 4.12.134z" fill="#e7e88c"/><path d="m574.746 679.82 2.264-2.474 3.026 3.98z" fill="#e7e88c"/><path d="m619.726 673.395 3.57-1.583 1.239 2.952z" fill="#e7e88c"/><path d="m567.56 710.526 5.08-3.232 2.408 4.325z" fill="#e7e88c"/><path d="m588.637 700.412-1.857-2.608 4.121.134z" fill="#e7e88c"/><path d="m999.557 677.367-2.194 2.538-3.136-3.894z" fill="#e7e88c"/><path d="m954.776 685.062-3.524 1.683-1.321-2.917z" fill="#e7e88c"/><path d="m1005.87 646.47-4.98 3.375-2.534-4.255z" fill="#e7e88c"/><path d="m985.089 657.176 1.93 2.555-4.123-.018z" fill="#e7e88c"/><path d="m542.557 674.367-2.194 2.538-3.136-3.894z" fill="#e7e88c"/><path d="m497.776 682.062-3.524 1.683-1.321-2.917z" fill="#e7e88c"/><path d="m548.871 643.47-4.986 3.375-2.529-4.255z" fill="#e7e88c"/><path d="m528.089 654.176 1.93 2.555-4.123-.018z" fill="#e7e88c"/><path d="m65.9115 671.975 2.1913-2.539 3.1401 3.891z" fill="#e7e88c"/><path d="m110.685 664.241 3.523-1.686 1.324 2.915z" fill="#e7e88c"/><path d="m59.6244 702.878 4.9832-3.379 2.5326 4.253z" fill="#e7e88c"/><path d="m80.3969 692.154-1.9319-2.553 4.1231.013z" fill="#e7e88c"/><path d="m1017.01 637.784 2.72-1.969 2.16 4.507z" fill="#e7e88c"/><path d="m1062.37 640.527 3.81-.834.62 3.141z" fill="#e7e88c"/><path d="m1003.8 666.42 5.63-2.146 1.49 4.721z" fill="#e7e88c"/><path d="m1026.48 660.747-1.29-2.928 4.01.959z" fill="#e7e88c"/><path d="m560.012 634.784 2.716-1.969 2.164 4.507z" fill="#e7e88c"/><path d="m605.366 637.527 3.816-.834.62 3.141z" fill="#e7e88c"/><path d="m546.804 663.42 5.626-2.146 1.489 4.721z" fill="#e7e88c"/><path d="m569.483 657.747-1.295-2.928 4.01.959z" fill="#e7e88c"/><g filter="url(#a)"><path d="m989 276 84 110 84-50 38 36v168.857h-432v-224.857l132 80z" fill="#539882"/></g><g filter="url(#b)"><circle cx="852.5" cy="227.5" fill="#ffbd3a" r="98.5"/></g><g filter="url(#c)"><path d="m960.777 403.108 121.683 43.235 111.54-64.343v163.531h-1194v-208.549l134.357-233.982 169.847 78.842 256.266 57.884 75.823 127.776 73.427 103.926 116.7-47.974 109.007-27.976z" fill="#91d7b9"/></g><path d="m54 278 81-150 11 75z" fill="#b2e3ce"/><path d="m161 448 26-184 158 268z" fill="#b2e3ce"/><path d="m994 487-58-78 128 49z" fill="#b2e3ce"/><path d="m382 253-70-51 134 31z" fill="#b2e3ce"/><g filter="url(#d)"><path d="m734.397 298.248v-14.318l74.565 8.077c5.428.588 6.602 7.967 1.625 10.212l17.946-3.971v271.202h-94.136z" fill="url(#g)"/><path d="m460.136 298.248v-14.318l-60.822 6.588c-4.594.498-4.645 7.162-.06 7.73l-26.603 2.049-6.651 269.153h94.136z" fill="url(#h)"/><path d="m457.422 253.338 47.313-8.542c15.474-2.794 30.575-7.362 45.003-13.613l48.887-21.183 44.325 19.974c15.646 7.05 32.116 12.105 49.024 15.044l47.855 8.32v316.112h-282.407z" fill="url(#i)"/><g fill="#000"><path d="m573.688 181.559h53.836v37.0122h-53.836z"/><path d="m577.057 144.533h47.1065v37.0122h-47.1065z"/><path d="m580.423 114.262h40.377v30.2827h-40.377z"/><path d="m583.784 82.3008h33.6475v31.9651h-33.6475z"/><path d="m588.832 53.6816h23.5532v28.6004h-23.5532z"/><path d="m600.953 41.9062 12.044 11.7768h-24.089z"/><path d="m586.767 49.3984c.892.9814 3.372 2.5695 6.156 1.0706v3.2119h-4.015c-.714-.3569-2.141-1.713-2.141-4.2825z"/><path d="m592.123 44.0508c.892.9814 3.372 2.5694 6.156 1.0706v3.2118h-4.015c-.713-.3569-2.141-1.713-2.141-4.2824z"/><path d="m614.869 49.3984c-.892.9814-3.372 2.5695-6.156 1.0706v3.2119h4.015c.714-.3569 2.141-1.713 2.141-4.2825z"/><path d="m609.517 44.0508c-.893.9814-3.373 2.5694-6.156 1.0706v3.2118h4.014c.714-.3569 2.142-1.713 2.142-4.2824z"/><path d="m566.961 168.107c2.926 3.085 11.06 8.076 20.188 3.365v10.094h-13.166c-2.341-1.121-7.022-5.383-7.022-13.459z"/><path d="m570.326 134.445c2.926 3.085 11.06 8.076 20.189 3.365v10.094h-13.167c-2.34-1.121-7.022-5.383-7.022-13.459z"/><path d="m573.688 100.807c2.926 3.084 11.06 8.075 20.189 3.364v10.095h-13.166c-2.341-1.122-7.023-5.384-7.023-13.459z"/><path d="m577.057 68.8379c2.926 3.0843 11.059 8.0754 20.188 3.3647v10.0943h-13.166c-2.341-1.1216-7.022-5.3836-7.022-13.459z"/><path d="m634.258 168.107c-2.926 3.085-11.06 8.076-20.189 3.365v10.094h13.167c2.34-1.121 7.022-5.383 7.022-13.459z"/><path d="m630.892 134.445c-2.926 3.085-11.06 8.076-20.189 3.365v10.094h13.167c2.34-1.121 7.022-5.383 7.022-13.459z"/><path d="m627.526 100.807c-2.926 3.084-11.059 8.075-20.188 3.364v10.095h13.166c2.341-1.122 7.022-5.384 7.022-13.459z"/><path d="m624.16 68.8379c-2.926 3.0843-11.06 8.0754-20.188 3.3647v10.0943h13.166c2.341-1.1216 7.022-5.3836 7.022-13.459z"/><path d="m600.606 15v33.6475h-3.365z"/><path d="m600.604 15v33.6475h3.365z"/><path d="m519.379 263.025h53.836v37.0122h-53.836z"/><path d="m522.747 226h47.1065v37.0122h-47.1065z"/><path d="m526.113 195.729h40.377v30.2827h-40.377z"/><path d="m529.475 163.768h33.6475v31.9651h-33.6475z"/><path d="m534.522 135.148h23.5532v28.6004h-23.5532z"/><path d="m546.643 123.373 12.044 11.777h-24.088z"/><path d="m532.456 130.865c.892.982 3.372 2.57 6.156 1.071v3.212h-4.015c-.713-.357-2.141-1.713-2.141-4.283z"/><path d="m537.812 125.518c.893.981 3.373 2.569 6.157 1.07v3.212h-4.015c-.714-.357-2.142-1.713-2.142-4.282z"/><path d="m560.559 130.865c-.893.982-3.373 2.57-6.156 1.071v3.212h4.014c.714-.357 2.142-1.713 2.142-4.283z"/><path d="m555.206 125.518c-.892.981-3.372 2.569-6.156 1.07v3.212h4.015c.714-.357 2.141-1.713 2.141-4.282z"/><path d="m512.651 249.574c2.926 3.085 11.06 8.076 20.189 3.365v10.094h-13.167c-2.34-1.121-7.022-5.383-7.022-13.459z"/><path d="m516.017 215.912c2.925 3.084 11.059 8.076 20.188 3.365v10.094h-13.166c-2.341-1.121-7.022-5.383-7.022-13.459z"/><path d="m519.379 182.273c2.926 3.085 11.06 8.076 20.188 3.365v10.094h-13.166c-2.341-1.121-7.022-5.383-7.022-13.459z"/><path d="m522.747 150.305c2.926 3.084 11.06 8.075 20.189 3.364v10.095h-13.167c-2.341-1.122-7.022-5.384-7.022-13.459z"/><path d="m579.948 249.574c-2.926 3.085-11.06 8.076-20.188 3.365v10.094h13.166c2.341-1.121 7.022-5.383 7.022-13.459z"/><path d="m576.582 215.912c-2.926 3.084-11.06 8.076-20.188 3.365v10.094h13.166c2.341-1.121 7.022-5.383 7.022-13.459z"/><path d="m573.217 182.273c-2.926 3.085-11.06 8.076-20.189 3.365v10.094h13.167c2.34-1.121 7.022-5.383 7.022-13.459z"/><path d="m569.851 150.305c-2.926 3.084-11.06 8.075-20.189 3.364v10.095h13.167c2.34-1.122 7.022-5.384 7.022-13.459z"/><path d="m546.296 96.4668v33.6472h-3.364z"/><path d="m546.294 96.4668v33.6472h3.365z"/><path d="m627.998 263.025h53.836v37.0122h-53.836z"/><path d="m631.366 226h47.1065v37.0122h-47.1065z"/><path d="m634.732 195.729h40.377v30.2827h-40.377z"/><path d="m638.094 163.768h33.6475v31.9651h-33.6475z"/><path d="m643.142 135.148h23.5532v28.6004h-23.5532z"/><path d="m655.262 123.373 12.044 11.777h-24.088z"/><path d="m641.075 130.865c.892.982 3.373 2.57 6.156 1.071v3.212h-4.015c-.713-.357-2.141-1.713-2.141-4.283z"/><path d="m646.432 125.518c.892.981 3.372 2.569 6.156 1.07v3.212h-4.015c-.714-.357-2.141-1.713-2.141-4.282z"/><path d="m669.178 130.865c-.892.982-3.373 2.57-6.156 1.071v3.212h4.015c.713-.357 2.141-1.713 2.141-4.283z"/><path d="m663.825 125.518c-.892.981-3.372 2.569-6.156 1.07v3.212h4.015c.714-.357 2.141-1.713 2.141-4.282z"/><path d="m621.271 249.574c2.925 3.085 11.059 8.076 20.188 3.365v10.094h-13.166c-2.341-1.121-7.022-5.383-7.022-13.459z"/><path d="m624.636 215.912c2.926 3.084 11.06 8.076 20.188 3.365v10.094h-13.166c-2.341-1.121-7.022-5.383-7.022-13.459z"/><path d="m627.998 182.273c2.926 3.085 11.06 8.076 20.189 3.365v10.094h-13.167c-2.341-1.121-7.022-5.383-7.022-13.459z"/><path d="m631.366 150.305c2.926 3.084 11.06 8.075 20.189 3.364v10.095h-13.167c-2.34-1.122-7.022-5.384-7.022-13.459z"/><path d="m688.567 249.574c-2.925 3.085-11.059 8.076-20.188 3.365v10.094h13.166c2.341-1.121 7.022-5.383 7.022-13.459z"/><path d="m685.201 215.912c-2.926 3.084-11.06 8.076-20.188 3.365v10.094h13.166c2.341-1.121 7.022-5.383 7.022-13.459z"/><path d="m681.836 182.273c-2.926 3.085-11.06 8.076-20.189 3.365v10.094h13.167c2.341-1.121 7.022-5.383 7.022-13.459z"/><path d="m678.47 150.305c-2.926 3.084-11.06 8.075-20.189 3.364v10.095h13.167c2.34-1.122 7.022-5.384 7.022-13.459z"/><path d="m654.916 96.4668v33.6472h-3.365z"/><path d="m654.914 96.4668v33.6472h3.364z"/><path d="m731.949 272.402h16.4934v11.3392h-16.4934z"/><path d="m732.979 261.068h14.4317v11.3392h-14.4317z"/><path d="m734.012 251.789h12.3701v9.27755h-12.3701z"/><path d="m735.042 241.996h10.3084v9.79297h-10.3084z"/><path d="m736.59 233.232h7.21587v8.76213h-7.21587z"/><path d="m740.304 229.621 3.69 3.608h-7.38z"/><path d="m735.953 231.914c.273.301 1.033.787 1.886.328v.984h-1.23c-.219-.109-.656-.525-.656-1.312z"/><path d="m737.596 230.275c.273.301 1.033.788 1.886.328v.984h-1.23c-.219-.109-.656-.524-.656-1.312z"/><path d="m744.562 231.914c-.273.301-1.033.787-1.885.328v.984h1.23c.218-.109.655-.525.655-1.312z"/><path d="m742.924 230.275c-.274.301-1.033.788-1.886.328v.984h1.23c.218-.109.656-.524.656-1.312z"/><path d="m729.887 268.285c.896.945 3.388 2.474 6.185 1.031v3.093h-4.034c-.717-.344-2.151-1.65-2.151-4.124z"/><path d="m730.917 257.975c.896.945 3.388 2.474 6.185 1.03v3.093h-4.034c-.717-.344-2.151-1.649-2.151-4.123z"/><path d="m731.949 247.672c.897.945 3.389 2.474 6.185 1.031v3.092h-4.033c-.718-.343-2.152-1.649-2.152-4.123z"/><path d="m732.979 237.871c.897.945 3.389 2.474 6.186 1.031v3.092h-4.034c-.717-.343-2.152-1.649-2.152-4.123z"/><path d="m750.503 268.285c-.896.945-3.388 2.474-6.185 1.031v3.093h4.034c.717-.344 2.151-1.65 2.151-4.124z"/><path d="m749.472 257.975c-.897.945-3.389 2.474-6.185 1.03v3.093h4.033c.717-.344 2.152-1.649 2.152-4.123z"/><path d="m748.44 247.672c-.896.945-3.388 2.474-6.185 1.031v3.092h4.034c.717-.343 2.151-1.649 2.151-4.123z"/><path d="m747.409 237.871c-.896.945-3.388 2.474-6.185 1.031v3.092h4.034c.717-.343 2.151-1.649 2.151-4.123z"/><path d="m740.194 221.379v10.308h-1.031z"/><path d="m740.195 221.379v10.308h1.031z"/><path d="m449.544 272.402h16.4934v11.3392h-16.4934z"/><path d="m450.574 261.068h14.4317v11.3392h-14.4317z"/><path d="m451.606 251.789h12.3701v9.27755h-12.3701z"/><path d="m452.637 241.996h10.3084v9.79297h-10.3084z"/><path d="m454.185 233.232h7.21587v8.76213h-7.21587z"/><path d="m457.899 229.621 3.69 3.608h-7.38z"/><path d="m453.55 231.914c.273.301 1.033.787 1.886.328v.984h-1.23c-.219-.109-.656-.525-.656-1.312z"/><path d="m455.192 230.275c.274.301 1.034.788 1.886.328v.984h-1.23c-.218-.109-.656-.524-.656-1.312z"/><path d="m462.159 231.914c-.273.301-1.033.787-1.886.328v.984h1.23c.219-.109.656-.525.656-1.312z"/><path d="m460.521 230.275c-.274.301-1.034.788-1.886.328v.984h1.23c.218-.109.656-.524.656-1.312z"/><path d="m447.481 268.285c.897.945 3.389 2.474 6.185 1.031v3.093h-4.033c-.717-.344-2.152-1.65-2.152-4.124z"/><path d="m448.512 257.975c.896.945 3.388 2.474 6.185 1.03v3.093h-4.034c-.717-.344-2.151-1.649-2.151-4.123z"/><path d="m449.544 247.672c.896.945 3.388 2.474 6.185 1.031v3.092h-4.034c-.717-.343-2.151-1.649-2.151-4.123z"/><path d="m450.574 237.871c.897.945 3.389 2.474 6.185 1.031v3.092h-4.033c-.718-.343-2.152-1.649-2.152-4.123z"/><path d="m468.098 268.285c-.897.945-3.389 2.474-6.185 1.031v3.093h4.033c.717-.344 2.152-1.65 2.152-4.124z"/><path d="m467.066 257.975c-.896.945-3.388 2.474-6.185 1.03v3.093h4.034c.717-.344 2.151-1.649 2.151-4.123z"/><path d="m466.035 247.672c-.896.945-3.388 2.474-6.185 1.031v3.092h4.034c.717-.343 2.151-1.649 2.151-4.123z"/><path d="m465.004 237.871c-.896.945-3.388 2.474-6.185 1.031v3.092h4.034c.717-.343 2.151-1.649 2.151-4.123z"/><path d="m457.789 221.379v10.308h-1.031z"/><path d="m457.789 221.379v10.308h1.031z"/><path d="m805.922 540h53.836v37.0122h-53.836z"/><path d="m809.292 502.975h47.1065v37.0122h-47.1065z"/><path d="m812.657 472.703h40.377v30.2827h-40.377z"/><path d="m816.018 440.742h33.6475v31.9651h-33.6475z"/><path d="m821.066 412.123h23.5532v28.6004h-23.5532z"/><path d="m833.187 400.348 12.044 11.776h-24.088z"/><path d="m819 407.84c.892.981 3.372 2.569 6.156 1.07v3.212h-4.015c-.714-.357-2.141-1.713-2.141-4.282z"/><path d="m824.356 402.492c.893.982 3.373 2.57 6.156 1.071v3.212h-4.014c-.714-.357-2.142-1.713-2.142-4.283z"/><path d="m847.103 407.84c-.893.981-3.373 2.569-6.156 1.07v3.212h4.014c.714-.357 2.142-1.713 2.142-4.282z"/><path d="m841.75 402.492c-.892.982-3.372 2.57-6.156 1.071v3.212h4.015c.714-.357 2.141-1.713 2.141-4.283z"/><path d="m866.487 526.549c-2.926 3.084-11.059 8.075-20.188 3.365v10.094h13.166c2.341-1.122 7.022-5.384 7.022-13.459z"/><path d="m863.126 492.887c-2.926 3.084-11.06 8.075-20.189 3.364v10.095h13.167c2.341-1.122 7.022-5.384 7.022-13.459z"/><path d="m859.761 459.248c-2.926 3.084-11.06 8.075-20.189 3.365v10.094h13.167c2.34-1.122 7.022-5.384 7.022-13.459z"/><path d="m856.396 427.279c-2.926 3.085-11.06 8.076-20.189 3.365v10.094h13.166c2.341-1.121 7.023-5.383 7.023-13.459z"/><path d="m833.076 373.441v32.586h-5.43z"/><path d="m833.078 373.441v32.586h5.431z"/><path d="m0 0h53.836v37.0122h-53.836z" transform="matrix(-1 0 0 1 388.565 540)"/><path d="m0 0h47.1065v37.0122h-47.1065z" transform="matrix(-1 0 0 1 385.195 502.975)"/><path d="m0 0h40.377v30.2827h-40.377z" transform="matrix(-1 0 0 1 381.83 472.703)"/><path d="m0 0h33.6475v31.9651h-33.6475z" transform="matrix(-1 0 0 1 378.47 440.742)"/><path d="m0 0h23.5532v28.6004h-23.5532z" transform="matrix(-1 0 0 1 373.421 412.123)"/><path d="m361.3 400.348-12.044 11.776h24.089z"/><path d="m375.489 407.84c-.892.981-3.372 2.569-6.156 1.07v3.212h4.015c.714-.357 2.141-1.713 2.141-4.282z"/><path d="m370.133 402.492c-.892.982-3.373 2.57-6.156 1.071v3.212h4.015c.713-.357 2.141-1.713 2.141-4.283z"/><path d="m347.387 407.84c.892.981 3.372 2.569 6.156 1.07v3.212h-4.015c-.714-.357-2.141-1.713-2.141-4.282z"/><path d="m352.739 402.492c.892.982 3.373 2.57 6.156 1.071v3.212h-4.015c-.713-.357-2.141-1.713-2.141-4.283z"/><path d="m328 526.549c2.926 3.084 11.06 8.075 20.188 3.365v10.094h-13.166c-2.341-1.122-7.022-5.384-7.022-13.459z"/><path d="m331.361 492.887c2.926 3.084 11.06 8.075 20.189 3.364v10.095h-13.167c-2.34-1.122-7.022-5.384-7.022-13.459z"/><path d="m334.727 459.248c2.925 3.084 11.059 8.075 20.188 3.365v10.094h-13.166c-2.341-1.122-7.022-5.384-7.022-13.459z"/><path d="m338.092 427.279c2.926 3.085 11.06 8.076 20.188 3.365v10.094h-13.166c-2.341-1.121-7.022-5.383-7.022-13.459z"/><path d="m361.411 373.441v32.586h5.431z"/><path d="m361.409 373.441v32.586h-5.43z"/><path clip-rule="evenodd" d="m735.319 290.933v-15.251l82.139 9.477c7.94.916 15.977.466 23.764-1.331l-11.767 7.105v288.879h-94.136zm21.724 47.206 25.344-20.393 25.345 20.393v80.188h-50.689zm24.439 127.621-24.439 16.293v97.756h48.878v-97.756z" fill-rule="evenodd"/><path clip-rule="evenodd" d="m461.058 290.933v-15.251l-82.139 9.477c-7.94.916-15.977.466-23.764-1.331l11.767 7.105v288.879h94.136zm-21.723 47.206-25.345-20.393-25.344 20.393v80.188h50.689zm-24.439 127.621 24.439 16.293v97.756h-48.879v-97.756z" fill-rule="evenodd"/><path clip-rule="evenodd" d="m458.341 243.098 46.123-8.87c16.259-3.126 32.078-8.215 47.111-15.153l47.969-22.139 43.353 20.809c16.284 7.816 33.531 13.442 51.292 16.731l46.559 8.622v336.716h-65.171v-141.203l-21.723-27.154-54.31-10.862-46.162 10.862-29.87 27.154v141.203h-65.171zm143.92 24.438 24.439 13.577v97.757h-48.879v-97.757zm73.318 46.163-16.293-10.862-16.293 10.862v65.17h32.586zm-135.773-10.862 16.292 10.862v65.17h-32.585v-65.17z" fill-rule="evenodd"/><path d="m329 567.537h536.164v12.2786h-536.164z"/></g></g><path d="m1043 365-52.5-68.5-14 22z" fill="#447b6a"/><g filter="url(#e)"><circle cx="599.736" cy="470.013" fill="#539882" r="5.0133"/><path clip-rule="evenodd" d="m598.173 470.919c.31-.541.893-.905 1.561-.905.669 0 1.253.364 1.563.906.325-.322.772-.521 1.266-.521.874 0 1.602.622 1.765 1.448.148.029.288.076.42.139.234-.111.496-.173.772-.173.994 0 1.799.805 1.799 1.799 0 .086-.006.17-.017.252.269-.159.582-.251.917-.251.994 0 1.8.806 1.8 1.8 0 .242-.048.473-.135.684.812.174 1.42.895 1.42 1.759 0 .515-.216.979-.562 1.307.634.278 1.076.911 1.076 1.648 0 .538-.236 1.021-.61 1.35.374.33.61.813.61 1.351 0 .526-.226 1-.586 1.329.048.492.072.992.072 1.498 0 7.242-5.007 13.112-11.183 13.112-6.177 0-11.184-5.87-11.184-13.112 0-.381.014-.758.041-1.131-.698-.247-1.198-.913-1.198-1.696 0-.538.236-1.021.61-1.351-.374-.329-.61-.812-.61-1.35 0-.771.485-1.429 1.167-1.685-.324-.326-.524-.774-.524-1.27 0-.994.806-1.8 1.8-1.8.04 0 .08.002.12.004-.078-.201-.12-.419-.12-.647 0-.994.806-1.8 1.799-1.8.18 0 .353.026.516.075-.001-.025-.001-.05-.001-.076 0-.994.805-1.799 1.799-1.799.281 0 .547.064.784.179.102-.897.864-1.593 1.787-1.593.494 0 .941.198 1.266.52z" fill="#91d7b9" fill-rule="evenodd"/><path clip-rule="evenodd" d="m596.119 498.422h3.745 3.746c11.471 0 20.769 9.299 20.769 20.769v25.877h-24.515-24.514v-25.877c0-11.47 9.298-20.769 20.769-20.769z" fill="#91d7b9" fill-rule="evenodd"/><rect fill="#91d7b9" height="23.0395" rx="11.5197" width="71.7287" x="564" y="545.068"/><path clip-rule="evenodd" d="m592.226 483.97c.478-.957 1.123-1.579 1.794-1.827.658-.244 1.376-.143 2.063.417.697.569 1.365 1.616 1.858 3.265.492 1.645.803 3.869.803 6.764v.257h.257.771.065.77.258v-.257c0-2.895.311-5.119.803-6.764.493-1.649 1.161-2.696 1.858-3.265.686-.56 1.405-.661 2.063-.417.67.248 1.315.87 1.794 1.827l.46-.23c-.517-1.034-1.246-1.772-2.076-2.08-.843-.312-1.751-.163-2.566.502-.806.657-1.516 1.813-2.025 3.516-.496 1.656-.807 3.849-.825 6.654h-.514-.065-.514c-.018-2.805-.33-4.998-.825-6.654-.509-1.703-1.219-2.859-2.025-3.516-.815-.665-1.724-.814-2.566-.502-.83.308-1.559 1.046-2.076 2.08z" fill="#539882" fill-rule="evenodd"/><circle cx="599.865" cy="481.453" fill="#539882" r="1.28546"/><path d="m597.68 494.309c1.285 1.221 3.021 1.285 4.37 0" stroke="#539882" stroke-width=".514184"/><g fill="#539882"><path clip-rule="evenodd" d="m592.744 498.75c-2.242 18.749-9.16 23.538-14.242 27.055-1.193.826-2.284 1.581-3.19 2.431v-8.983c0-10.335 7.548-18.906 17.432-20.503z" fill-rule="evenodd"/><path clip-rule="evenodd" d="m575.312 536.346c12.932-3.57 25.104-13.149 29.819-37.869 10.743.796 19.211 9.765 19.211 20.712v25.876h-24.515-24.515z" fill-rule="evenodd"/><path d="m586.752 568.094c-8.741 0-5.142-12.801-11.44-23.01h26.48v23.01z"/><path d="m612.72 568.094c8.741 0 5.141-12.801 11.44-23.01h-26.48v23.01z"/></g><path d="m607.706 495.786c3.278 3.535 1.286-3.15 3.471-8.163h-4.242c0 1.221-1.956 5.222.771 8.163z" fill="#91d7b9"/><path d="m592.538 495.786c-3.278 3.535-1.285-3.15-3.471-8.163h4.242c0 1.221 1.956 5.222-.771 8.163z" fill="#91d7b9"/><path d="m610.277 502.277c-7.199 30.851-23.824 39.25-31.237 39.593" stroke="#91d7b9" stroke-linecap="round" stroke-width=".771277"/><path d="m614.132 505.492c-7.198 30.851-23.824 39.25-31.236 39.592" stroke="#91d7b9" stroke-linecap="round" stroke-width=".771277"/><path d="m578.269 532.424c5.31 4.71 14.818 8.898 18.908 10.402" stroke="#91d7b9" stroke-width="8.22695"/><path d="m614.262 537.115c-5.311 4.711-6.065 4.208-10.155 5.713" stroke="#91d7b9" stroke-width="8.22695"/><ellipse cx="600.764" cy="542.577" fill="#91d7b9" rx="7.96986" ry="5.84885"/><path d="m596.137 521.367c-6.942 3.407-10.605.579-11.441 0" stroke="#539882" stroke-width=".514184"/><path d="m591.444 536.665c-2.442-2.571-2.699-4.821-8.42-8.163l-3.535 4.178 9.834 7.712c.236-.385.99-1.671 2.121-3.727z" fill="#91d7b9"/><path d="m584.31 523.039c.977 3.342.407 5.42 0 6.042 3.92 2.314 3.985 5.077 7.198 6.813" stroke="#539882" stroke-width=".514184"/><path d="m576.212 536.409c-1.928-1.864-2.314-5.078-.643-14.397" stroke="#539882" stroke-width=".514184"/><path d="m575.055 525.158.579-.836v3.6l-1.029.964z" fill="#539882"/><path d="m574.734 528.76.707-.643.385.836.322 1.799-.322 3.664-.257.964-.385-.707-.45-.964-.193-1.093z" fill="#91d7b9"/><path d="m616.897 544.314c-.9-2.936-4.165-9.68-10.027-13.176l4.564-1.8 6.427 2.699 4.949 7.327z" fill="#539882"/><path d="m594.658 498.678c3.407 5.206 8.613 4.177 10.862 0" stroke="#539882" stroke-width=".771277"/><path d="m590.866 499.451c5.64 8.619 14.259 6.917 17.983 0" stroke="#539882" stroke-width="1.27691"/><path d="m591.767 486.854c.45.321 4.949-.322 5.463.578" stroke="#539882" stroke-linecap="round" stroke-width=".385638"/><path d="m607.642 486.854c-.45.321-4.949-.322-5.464.578" stroke="#539882" stroke-linecap="round" stroke-width=".385638"/><path clip-rule="evenodd" d="m599.737 469.885c.669 0 1.252.364 1.562.905.325-.321.773-.52 1.266-.52.994 0 1.8.806 1.8 1.8l-.001.025c.327-.333.782-.539 1.285-.539.994 0 1.8.805 1.8 1.799 0 .159-.02.313-.059.46.248-.13.531-.203.831-.203.994 0 1.799.806 1.799 1.8 0 .188-.029.37-.082.541.849.144 1.497.883 1.497 1.774 0 .583-.277 1.101-.707 1.43.642.275 1.092.912 1.092 1.655 0 .518-.219.984-.569 1.313.497.32.827.878.827 1.514 0 .994-.806 1.799-1.8 1.799s-1.8-.805-1.8-1.799c0-.518.219-.985.569-1.313-.497-.321-.826-.879-.826-1.514 0-.311.079-.604.217-.859-.569-.184-1.015-.644-1.178-1.223-.279.178-.612.282-.968.282-.811 0-1.496-.536-1.721-1.273-.292.601-.908 1.015-1.621 1.015-.853 0-1.568-.593-1.753-1.39-.229.731-.911 1.261-1.717 1.261-.703 0-1.311-.402-1.607-.989-.297.587-.905.989-1.607.989-.537 0-1.018-.235-1.348-.607-.295.59-.905.994-1.609.994-.546 0-1.034-.243-1.364-.626-.166.536-.575.965-1.098 1.158.254.31.406.706.406 1.138 0 .545-.243 1.034-.626 1.364.457.326.754.861.754 1.465 0 .994-.805 1.799-1.799 1.799s-1.8-.805-1.8-1.799c0-.545.242-1.034.625-1.364-.456-.326-.754-.861-.754-1.465 0-.775.49-1.436 1.177-1.689-.253-.31-.405-.706-.405-1.138 0-.994.806-1.8 1.8-1.8.015 0 .03.001.044.001-.111-.234-.173-.496-.173-.772 0-.994.806-1.8 1.799-1.8.18 0 .353.026.516.075-.001-.025-.001-.05-.001-.076 0-.994.805-1.799 1.799-1.799.336 0 .65.091.919.251.127-.869.876-1.537 1.78-1.537.472 0 .9.181 1.221.477.296-.587.905-.99 1.608-.99z" fill="#539882" fill-rule="evenodd"/><path d="m600.636 536.406c-3.021 2.057.964 1.993 2.7 3.342" stroke="#539882" stroke-width=".257092"/><path d="m599.029 546.178c1.851.36 3.728.15 4.435 0" stroke="#539882" stroke-width=".257092"/><path d="m599.093 544.184c1.851.36 3.728.15 4.435 0" stroke="#539882" stroke-width=".257092"/><path d="m599.093 542.127c1.851.36 3.728.15 4.435 0" stroke="#539882" stroke-width=".257092"/></g></svg>