<svg fill="none" height="684" viewBox="0 0 1194 684" width="1194" xmlns="http://www.w3.org/2000/svg" xmlns:xlink="http://www.w3.org/1999/xlink"><filter id="a" color-interpolation-filters="sRGB" filterUnits="userSpaceOnUse" height="280.857" width="448" x="763" y="268"><feFlood flood-opacity="0" result="BackgroundImageFix"/><feColorMatrix in="SourceAlpha" type="matrix" values="0 0 0 0 0 0 0 0 0 0 0 0 0 0 0 0 0 0 127 0"/><feOffset dx="8"/><feGaussianBlur stdDeviation="4"/><feColorMatrix type="matrix" values="0 0 0 0 0 0 0 0 0 0 0 0 0 0 0 0 0 0 0.2 0"/><feBlend in2="BackgroundImageFix" mode="normal" result="effect1_dropShadow"/><feBlend in="SourceGraphic" in2="effect1_dropShadow" mode="normal" result="shape"/></filter><filter id="b" color-interpolation-filters="sRGB" filterUnits="userSpaceOnUse" height="205" width="213" x="754" y="129"><feFlood flood-opacity="0" result="BackgroundImageFix"/><feColorMatrix in="SourceAlpha" type="matrix" values="0 0 0 0 0 0 0 0 0 0 0 0 0 0 0 0 0 0 127 0"/><feOffset dx="12" dy="4"/><feGaussianBlur stdDeviation="2"/><feColorMatrix type="matrix" values="0 0 0 0 0 0 0 0 0 0 0 0 0 0 0 0 0 0 0.1 0"/><feBlend in2="BackgroundImageFix" mode="normal" result="effect1_dropShadow"/><feBlend in="SourceGraphic" in2="effect1_dropShadow" mode="normal" result="shape"/></filter><filter id="c" color-interpolation-filters="sRGB" filterUnits="userSpaceOnUse" height="450.531" width="1206" x="0" y="98"><feFlood flood-opacity="0" result="BackgroundImageFix"/><feColorMatrix in="SourceAlpha" type="matrix" values="0 0 0 0 0 0 0 0 0 0 0 0 0 0 0 0 0 0 127 0"/><feOffset dx="8" dy="-1"/><feGaussianBlur stdDeviation="2"/><feColorMatrix type="matrix" values="0 0 0 0 0 0 0 0 0 0 0 0 0 0 0 0 0 0 0.2 0"/><feBlend in2="BackgroundImageFix" mode="normal" result="effect1_dropShadow"/><feBlend in="SourceGraphic" in2="effect1_dropShadow" mode="normal" result="shape"/></filter><filter id="d" color-interpolation-filters="sRGB" filterUnits="userSpaceOnUse" height="580.816" width="554.487" x="328" y="7"><feFlood flood-opacity="0" result="BackgroundImageFix"/><feColorMatrix in="SourceAlpha" type="matrix" values="0 0 0 0 0 0 0 0 0 0 0 0 0 0 0 0 0 0 127 0"/><feOffset dx="8"/><feGaussianBlur stdDeviation="4"/><feColorMatrix type="matrix" values="0 0 0 0 0 0 0 0 0 0 0 0 0 0 0 0 0 0 0.2 0"/><feBlend in2="BackgroundImageFix" mode="normal" result="effect1_dropShadow"/><feBlend in="SourceGraphic" in2="effect1_dropShadow" mode="normal" result="shape"/></filter><filter id="e" color-interpolation-filters="sRGB" filterUnits="userSpaceOnUse" height="111.108" width="79.7287" x="562" y="461"><feFlood flood-opacity="0" result="BackgroundImageFix"/><feColorMatrix in="SourceAlpha" type="matrix" values="0 0 0 0 0 0 0 0 0 0 0 0 0 0 0 0 0 0 127 0"/><feOffset dx="2"/><feGaussianBlur stdDeviation="2"/><feColorMatrix type="matrix" values="0 0 0 0 0 0 0 0 0 0 0 0 0 0 0 0 0 0 0.2 0"/><feBlend in2="BackgroundImageFix" mode="normal" result="effect1_dropShadow"/><feBlend in="SourceGraphic" in2="effect1_dropShadow" mode="normal" result="shape"/></filter><filter id="f" color-interpolation-filters="sRGB" filterUnits="userSpaceOnUse" height="152.886" width="116.772" x="449" y="447"><feFlood flood-opacity="0" result="BackgroundImageFix"/><feColorMatrix in="SourceAlpha" type="matrix" values="0 0 0 0 0 0 0 0 0 0 0 0 0 0 0 0 0 0 127 0"/><feOffset dx="4"/><feGaussianBlur stdDeviation="2"/><feColorMatrix type="matrix" values="0 0 0 0 0 0 0 0 0 0 0 0 0 0 0 0 0 0 0.2 0"/><feBlend in2="BackgroundImageFix" mode="normal" result="effect1_dropShadow"/><feBlend in="SourceGraphic" in2="effect1_dropShadow" mode="normal" result="shape"/></filter><filter id="g" color-interpolation-filters="sRGB" filterUnits="userSpaceOnUse" height="24.8617" width="27.7444" x="534.397" y="493.748"><feFlood flood-opacity="0" result="BackgroundImageFix"/><feBlend in="SourceGraphic" in2="BackgroundImageFix" mode="normal" result="shape"/><feGaussianBlur result="effect1_foregroundBlur" stdDeviation="5.35261"/></filter><linearGradient id="h"><stop offset="0" stop-color="#ffbd3a"/><stop offset="1" stop-color="#ff993a"/></linearGradient><linearGradient id="i" gradientUnits="userSpaceOnUse" x1="781.465" x2="781.465" xlink:href="#h" y1="283.93" y2="569.45"/><linearGradient id="j" gradientUnits="userSpaceOnUse" x1="413.068" x2="413.068" xlink:href="#h" y1="283.93" y2="569.45"/><linearGradient id="k" gradientUnits="userSpaceOnUse" x1="598.625" x2="598.625" xlink:href="#h" y1="210" y2="569.45"/><path d="m67.5 585.5h-4v4.5z" fill="#acdeb6"/><path d="m83.5 597 2-3 1.5 3z" fill="#acdeb6"/><path d="m524.5 582.5h-4v4.5z" fill="#acdeb6"/><path d="m540.5 594 2-3 1.5 3z" fill="#acdeb6"/><path d="m289.336 601.367 3.998.113.127-4.498z" fill="#acdeb6"/><path d="m273.667 589.42-2.084 2.942-1.415-3.041z" fill="#acdeb6"/><path d="m746.336 598.367 3.998.113.127-4.498z" fill="#acdeb6"/><path d="m730.667 586.42-2.084 2.942-1.415-3.041z" fill="#acdeb6"/><path d="m1033.65 571.892-4-.117-.13 4.498z" fill="#acdeb6"/><path d="m1049.3 583.854 2.09-2.941 1.41 3.043z" fill="#acdeb6"/><path d="m45.0621 603.246 3.9984.113.1273-4.498z" fill="#acdeb6"/><path d="m29.3936 591.299-2.084 2.942-1.4146-3.041z" fill="#acdeb6"/><path d="m502.062 600.246 3.999.113.127-4.498z" fill="#acdeb6"/><path d="m486.394 588.299-2.084 2.942-1.415-3.041z" fill="#acdeb6"/><path d="m441.671 611.855 2.763 2.893 3.254-3.108z" fill="#acdeb6"/><path d="m438.938 592.342-3.551.625 1.133-3.156z" fill="#acdeb6"/><path d="m100.492 560.047 3.998.113.127-4.498z" fill="#acdeb6"/><path d="m84.8233 548.099-2.084 2.943-1.4146-3.042z" fill="#acdeb6"/><path d="m557.492 557.047 3.998.113.127-4.498z" fill="#acdeb6"/><path d="m541.823 545.099-2.084 2.943-1.414-3.042z" fill="#acdeb6"/><path d="m348.095 579.509 2.135 3.382 3.805-2.403z" fill="#acdeb6"/><path d="m349.275 559.84-3.604-.089 1.735-2.87z" fill="#acdeb6"/><path d="m805.095 576.509 2.135 3.382 3.805-2.403z" fill="#acdeb6"/><path d="m806.275 556.84-3.604-.089 1.735-2.87z" fill="#acdeb6"/><path d="m974.868 593.698-2.133-3.384-3.807 2.4z" fill="#acdeb6"/><path d="m973.67 613.366 3.605.092-1.739 2.869z" fill="#acdeb6"/><path d="m1143.86 561.384-2.13-3.384-3.81 2.399z" fill="#acdeb6"/><path d="m1142.66 581.052 3.61.092-1.74 2.869z" fill="#acdeb6"/><path d="m398.331 575.845-3.972-.474-.532 4.468z" fill="#acdeb6"/><path d="m412.857 589.158 2.341-2.742 1.134 3.157z" fill="#acdeb6"/><path d="m855.331 572.845-3.972-.474-.532 4.468z" fill="#acdeb6"/><path d="m869.857 586.158 2.341-2.742 1.134 3.157z" fill="#acdeb6"/><path d="m924.628 597.318 3.972.477.536-4.468z" fill="#acdeb6"/><path d="m910.114 583.991-2.343 2.74-1.132-3.157z" fill="#acdeb6"/><path d="m223.333 548.474-3.972-.474-.533 4.468z" fill="#acdeb6"/><path d="m237.859 561.787 2.341-2.742 1.134 3.157z" fill="#acdeb6"/><path d="m680.333 545.474-3.972-.474-.533 4.468z" fill="#acdeb6"/><path d="m694.859 558.787 2.341-2.742 1.134 3.157z" fill="#acdeb6"/><path d="m1099.6 624.843 3.97.477.54-4.468z" fill="#acdeb6"/><path d="m1085.09 611.517-2.35 2.739-1.13-3.157z" fill="#acdeb6"/><path d="m139.197 587.933-1.095-3.847-4.328 1.233z" fill="#acdeb6"/><path d="m132.52 606.471 3.433 1.102-2.475 2.264z" fill="#acdeb6"/><path d="m596.197 584.933-1.095-3.847-4.328 1.233z" fill="#acdeb6"/><path d="m589.52 603.471 3.433 1.102-2.475 2.264z" fill="#acdeb6"/><path d="m217.735 596.909.987 3.876 4.361-1.11z" fill="#acdeb6"/><path d="m224.934 578.567-3.4-1.199 2.537-2.193z" fill="#acdeb6"/><path d="m674.736 593.909.987 3.876 4.361-1.11z" fill="#acdeb6"/><path d="m681.935 575.567-3.4-1.199 2.537-2.193z" fill="#acdeb6"/><path d="m1105.24 576.416-.98-3.877-4.36 1.106z" fill="#acdeb6"/><path d="m1098.03 594.752 3.4 1.201-2.54 2.192z" fill="#acdeb6"/><path d="m182.808 615.733.987 3.876 4.361-1.109z" fill="#acdeb6"/><path d="m190.007 597.391-3.4-1.198 2.537-2.194z" fill="#acdeb6"/><path d="m639.808 612.733.987 3.876 4.361-1.109z" fill="#acdeb6"/><path d="m647.007 594.391-3.4-1.198 2.537-2.194z" fill="#acdeb6"/><path d="m167.808 578.733.987 3.876 4.361-1.109z" fill="#acdeb6"/><path d="m175.007 560.391-3.4-1.198 2.537-2.194z" fill="#acdeb6"/><path d="m624.808 575.733.987 3.876 4.361-1.109z" fill="#acdeb6"/><path d="m632.007 557.391-3.4-1.198 2.537-2.194z" fill="#acdeb6"/><path d="m36 577.5v-4l3.5 1.5z" fill="#acdeb6"/><path d="m493 574.5v-4l3.5 1.5z" fill="#acdeb6"/><path d="m320.596 610.256-.113 3.998-3.456-1.598z" fill="#acdeb6"/><path d="m777.596 607.256-.113 3.998-3.456-1.598z" fill="#acdeb6"/><path d="m1002.39 562.977.12-3.998 3.45 1.601z" fill="#acdeb6"/><path d="m76.323 612.134-.113 3.999-3.4562-1.599z" fill="#acdeb6"/><path d="m533.323 609.134-.113 3.999-3.456-1.599z" fill="#acdeb6"/><path d="m11.6121 559.099-.1131 3.999-3.45618-1.599z" fill="#acdeb6"/><path d="m468.612 556.099-.113 3.999-3.456-1.599z" fill="#acdeb6"/><path d="m358.149 610.415-3.382 2.136-.601-3.76z" fill="#acdeb6"/><path d="m815.149 607.415-3.382 2.136-.601-3.76z" fill="#acdeb6"/><path d="m964.842 562.783 3.384-2.133.597 3.761z" fill="#acdeb6"/><path d="m953 581.133 3.384-2.133.597 3.761z" fill="#acdeb6"/><path d="m270.251 570.96-3.382 2.136-.6-3.761z" fill="#acdeb6"/><path d="m727.251 567.96-3.382 2.136-.6-3.761z" fill="#acdeb6"/><path d="m1052.7 602.318 3.39-2.132.6 3.76z" fill="#acdeb6"/><path d="m368 564.169.474-3.972 3.297 1.904z" fill="#acdeb6"/><path d="m825 561.169.474-3.972 3.297 1.904z" fill="#acdeb6"/><path d="m954.949 609.021-.477 3.971-3.296-1.907z" fill="#acdeb6"/><path d="m851.952 624.417-.477 3.972-3.296-1.907z" fill="#acdeb6"/><path d="m1117.95 590.825-.48 3.972-3.29-1.907z" fill="#acdeb6"/><path d="m1157.95 604.417-.48 3.972-3.29-1.907z" fill="#acdeb6"/><path d="m138.262 555.447 3.847-1.095-.484 3.777z" fill="#acdeb6"/><path d="m595.262 552.447 3.847-1.095-.484 3.777z" fill="#acdeb6"/><path d="m217.751 629.408-3.876.987.591-3.762z" fill="#acdeb6"/><path d="m674.751 626.408-3.876.987.591-3.762z" fill="#acdeb6"/><path d="m1105.26 543.915 3.87-.983-.59 3.761z" fill="#acdeb6"/><path d="m112.74 626.392-3.877.987.591-3.762z" fill="#acdeb6"/><path d="m569.74 623.392-3.877.987.591-3.762z" fill="#acdeb6"/><path d="m42.5 556-5 4 5 3z" fill="#acdeb6"/><path d="m499.5 553-5 4 5 3z" fill="#acdeb6"/><path d="m313.491 631.562 5.111-3.857-4.913-3.14z" fill="#acdeb6"/><path d="m770.491 628.562 5.111-3.857-4.913-3.14z" fill="#acdeb6"/><path d="m1009.52 541.677-5.12 3.853 4.91 3.144z" fill="#acdeb6"/><path d="m262 629.997 5.111-3.857-4.913-3.14z" fill="#acdeb6"/><path d="m719 626.997 5.111-3.857-4.913-3.14z" fill="#acdeb6"/><path d="m1061.01 543.286-5.12 3.853 4.91 3.144z" fill="#acdeb6"/><path d="m294 556.997 5.111-3.857-4.913-3.14z" fill="#acdeb6"/><path d="m751 553.997 5.111-3.857-4.913-3.14z" fill="#acdeb6"/><path d="m1028.94 616.259-5.11 3.853 4.91 3.144z" fill="#acdeb6"/><path d="m69.2178 633.441 5.1111-3.857-4.9132-3.141z" fill="#acdeb6"/><path d="m526.218 630.441 5.111-3.857-4.913-3.141z" fill="#acdeb6"/><path d="m336.5 616.397 6.052 2.092-.133-5.829z" fill="#acdeb6"/><path d="m793.5 613.397 6.052 2.092-.133-5.829z" fill="#acdeb6"/><path d="m986.495 556.82-6.05-2.097.128 5.829z" fill="#acdeb6"/><path d="m890.588 621.23-6.05-2.097.128 5.829z" fill="#acdeb6"/><path d="m889.588 550.529-6.05-2.097.128 5.829z" fill="#acdeb6"/><path d="m292 618.737 6.052 2.092-.133-5.829z" fill="#acdeb6"/><path d="m749 615.737 6.052 2.092-.133-5.829z" fill="#acdeb6"/><path d="m1031 554.521-6.05-2.097.13 5.829z" fill="#acdeb6"/><path d="m934.091 548.23-6.05-2.097.128 5.829z" fill="#acdeb6"/><path d="m276 549.737 6.052 2.092-.133-5.829z" fill="#acdeb6"/><path d="m733 546.737 6.052 2.092-.133-5.829z" fill="#acdeb6"/><path d="m1046.94 623.535-6.05-2.098.12 5.83z" fill="#acdeb6"/><path d="m377.001 543.592-5.439 3.38 4.61 3.571z" fill="#acdeb6"/><path d="m834.001 540.592-5.439 3.38 4.61 3.571z" fill="#acdeb6"/><path d="m945.93 629.589 5.442-3.375-4.607-3.575z" fill="#acdeb6"/><path d="m1108.93 611.394 5.44-3.375-4.6-3.575z" fill="#acdeb6"/><path d="m160.721 555.809-5.216-3.713-1.516 5.63z" fill="#acdeb6"/><path d="m617.721 552.809-5.216-3.713-1.516 5.63z" fill="#acdeb6"/><path d="m195.312 628.412 5.109 3.859 1.675-5.585z" fill="#acdeb6"/><path d="m652.312 625.412 5.109 3.859 1.675-5.585z" fill="#acdeb6"/><path d="m1127.69 544.931-5.1-3.864-1.68 5.584z" fill="#acdeb6"/><path d="m1173.01 625.847-5.1-3.864-1.68 5.584z" fill="#acdeb6"/><path d="m1174.01 551.847-5.1-3.864-1.68 5.584z" fill="#acdeb6"/><g fill="#e7e88c"><path d="m80.5 565-3 1.5 3 4z"/><path d="m62 606.5-2.5 3 2.5 2z"/><path d="m112 566.5-4.5 4 3.5 3.5z"/><path d="m96.5 584-2-2.5-1 4z"/><path d="m537.5 562-3 1.5 3 4z"/><path d="m519 603.5-2.5 3 2.5 2z"/><path d="m569 563.5-4.5 4 3.5 3.5z"/><path d="m553.5 581-2-2.5-1 4z"/><path d="m275.761 621.492 3.042-1.414-2.886-4.083z"/><path d="m295.427 580.532 2.584-2.928-2.443-2.07z"/><path d="m244.316 619.102 4.612-3.871-3.4-3.597z"/><path d="m260.305 602.048 1.928 2.555 1.113-3.97z"/><path d="m732.76 618.492 3.042-1.414-2.886-4.083z"/><path d="m752.426 577.532 2.584-2.928-2.443-2.07z"/><path d="m701.315 616.102 4.612-3.871-3.4-3.597z"/><path d="m717.304 599.048 1.928 2.555 1.113-3.97z"/><path d="m1047.24 551.78-3.04 1.412 2.88 4.086z"/><path d="m1027.54 592.723-2.59 2.926 2.44 2.072z"/><path d="m1078.68 554.198-4.61 3.867 3.39 3.601z"/><path d="m1062.68 571.239-1.93-2.558-1.11 3.97z"/><path d="m31.4879 623.371 3.0412-1.414-2.8857-4.084z"/><path d="m51.1536 582.411 2.5838-2.928-2.4424-2.07z"/><path d="m.0428758 620.981 4.6112742-3.871-3.39966-3.597z"/><path d="m16.0314 603.927 1.9285 2.555 1.1127-3.97z"/><path d="m488.487 620.371 3.041-1.414-2.886-4.084z"/><path d="m508.153 579.411 2.583-2.928-2.442-2.07z"/><path d="m457.042 617.981 4.611-3.871-3.399-3.597z"/><path d="m473.03 600.927 1.929 2.555 1.113-3.97z"/><path d="m434.487 628.371 3.041-1.414-2.886-4.084z"/><path d="m454.153 587.411 2.583-2.928-2.442-2.07z"/><path d="m403.042 625.981 4.611-3.871-3.399-3.597z"/><path d="m419.03 608.927 1.929 2.555 1.113-3.97z"/><path d="m323.819 579.463 2.87 1.736 1.781-4.673z"/><path d="m368.786 572.946 3.872.512.356-3.182z"/><path d="m308.268 552.028 5.785 1.669 1.091-4.828z"/><path d="m331.341 555.79-1.046 3.025 3.916-1.29z"/><path d="m780.819 576.463 2.87 1.736 1.781-4.673z"/><path d="m825.786 569.946 3.872.512.356-3.182z"/><path d="m765.268 549.028 5.785 1.669 1.091-4.828z"/><path d="m788.341 552.79-1.046 3.025 3.916-1.29z"/><path d="m999.143 593.766-2.868-1.738-1.785 4.67z"/><path d="m954.171 600.243-3.871-.516-.359 3.182z"/><path d="m1014.67 621.214-5.78-1.674-1.1 4.827z"/><path d="m991.601 617.432 1.048-3.025-3.917 1.287z"/><path d="m1153.99 582.649-2.4 2.347 4.09 2.889z"/><path d="m1149.09 627.821-1.46 3.622 2.99 1.138z"/><path d="m1184.44 574.428-3.06 5.186 4.4 2.26z"/><path d="m1175.04 595.835-2.67-1.767.28 4.114z"/><path d="m322.819 628.463 2.87 1.736 1.781-4.673z"/><path d="m367.786 621.946 3.872.512.356-3.182z"/><path d="m307.268 601.028 5.785 1.669 1.091-4.828z"/><path d="m330.341 604.79-1.046 3.025 3.916-1.29z"/><path d="m779.819 625.463 2.87 1.736 1.781-4.673z"/><path d="m824.786 618.946 3.872.512.356-3.182z"/><path d="m764.268 598.028 5.785 1.669 1.091-4.828z"/><path d="m787.341 601.79-1.046 3.025 3.916-1.29z"/><path d="m1000.19 544.766-2.871-1.738-1.785 4.67z"/><path d="m955.215 551.243-3.871-.516-.359 3.182z"/><path d="m1015.71 572.214-5.78-1.674-1.09 4.827z"/><path d="m992.645 568.432 1.048-3.025-3.917 1.287z"/><path d="m245.819 575.463 2.87 1.736 1.781-4.673z"/><path d="m290.786 568.946 3.872.512.356-3.182z"/><path d="m230.268 548.028 5.785 1.669 1.091-4.828z"/><path d="m253.341 551.79-1.046 3.025 3.916-1.29z"/><path d="m702.819 572.463 2.87 1.736 1.781-4.673z"/><path d="m747.786 565.946 3.872.512.356-3.182z"/><path d="m687.268 545.028 5.785 1.669 1.091-4.828z"/><path d="m710.341 548.79-1.046 3.025 3.916-1.29z"/><path d="m1077.14 597.836-2.87-1.738-1.78 4.671z"/><path d="m1032.17 604.313-3.87-.516-.36 3.182z"/><path d="m1092.67 625.285-5.79-1.674-1.09 4.827z"/><path d="m1069.6 621.503 1.05-3.025-3.92 1.287z"/><path d="m104.819 632.463 2.87 1.736 1.781-4.673z"/><path d="m149.786 625.946 3.872.512.356-3.182z"/><path d="m89.2683 605.028 5.7848 1.669 1.0905-4.828z"/><path d="m112.341 608.79-1.046 3.025 3.916-1.29z"/><path d="m561.819 629.463 2.87 1.736 1.781-4.673z"/><path d="m606.786 622.946 3.872.512.356-3.182z"/><path d="m546.268 602.028 5.785 1.669 1.091-4.828z"/><path d="m569.341 605.79-1.046 3.025 3.916-1.29z"/><path d="m12.8193 574.463 2.8702 1.736 1.7802-4.673z"/><path d="m57.7863 567.946 3.8715.512.3561-3.182z"/><path d="m-2.73173 547.028 5.78484 1.669 1.09049-4.828z"/><path d="m20.341 550.79-1.0459 3.025 3.916-1.29z"/><path d="m469.819 571.463 2.87 1.736 1.781-4.673z"/><path d="m514.786 564.946 3.872.512.356-3.182z"/><path d="m454.268 544.028 5.785 1.669 1.091-4.828z"/><path d="m477.341 547.79-1.046 3.025 3.916-1.29z"/><path d="m413.668 557.028-3.157 1.134 2.505 4.327z"/><path d="m390.384 596.045-2.838 2.683 2.246 2.282z"/><path d="m444.768 562.247-4.942 3.439 3.061 3.89z"/><path d="m427.305 577.789-1.69-2.72-1.466 3.854z"/><path d="m870.668 554.028-3.157 1.134 2.505 4.327z"/><path d="m847.384 593.045-2.838 2.683 2.246 2.282z"/><path d="m901.768 559.247-4.942 3.439 3.061 3.89z"/><path d="m884.305 574.789-1.69-2.72-1.466 3.854z"/><path d="m909.275 616.122 3.157-1.132-2.501-4.329z"/><path d="m932.594 577.125 2.84-2.68-2.244-2.284z"/><path d="m878.179 610.875 4.945-3.435-3.058-3.893z"/><path d="m895.656 595.349 1.687 2.72 1.47-3.852z"/><path d="m1152.01 541.064-3.35.058.98 4.903z"/><path d="m1117.41 570.515-3.55 1.627 1.39 2.883z"/><path d="m1179.78 556.012-5.79 1.666 1.65 4.668z"/><path d="m1158.25 565.109-.73-3.119-2.63 3.177z"/><path d="m162.474 594.82-2.265-2.474-3.025 3.98z"/><path d="m117.494 588.395-3.57-1.583-1.239 2.952z"/><path d="m169.659 625.526-5.079-3.232-2.408 4.325z"/><path d="m148.583 615.412 1.857-2.608-4.121.134z"/><path d="m619.474 591.82-2.265-2.474-3.025 3.98z"/><path d="m574.494 585.395-3.57-1.583-1.239 2.952z"/><path d="m626.659 622.526-5.079-3.232-2.408 4.325z"/><path d="m605.583 612.412 1.857-2.608-4.121.134z"/><path d="m194.663 589.367 2.193 2.538 3.137-3.894z"/><path d="m239.444 597.062 3.523 1.683 1.322-2.917z"/><path d="m188.348 558.47 4.987 3.375 2.528-4.255z"/><path d="m209.13 569.176-1.929 2.555 4.123-.018z"/><path d="m651.663 586.367 2.193 2.538 3.137-3.894z"/><path d="m696.444 594.062 3.523 1.683 1.322-2.917z"/><path d="m645.348 555.47 4.987 3.375 2.528-4.255z"/><path d="m666.13 566.176-1.929 2.555 4.123-.018z"/><path d="m1128.31 583.975-2.19-2.539-3.14 3.891z"/><path d="m1083.53 576.241-3.52-1.686-1.32 2.915z"/><path d="m1134.6 614.878-4.99-3.379-2.53 4.253z"/><path d="m1113.82 604.154 1.93-2.553-4.12.013z"/><path d="m177.207 549.784-2.715-1.969-2.164 4.507z"/><path d="m131.853 552.527-3.815-.834-.62 3.141z"/><path d="m190.415 578.42-5.625-2.146-1.489 4.721z"/><path d="m167.737 572.747 1.295-2.928-4.01.959z"/><path d="m634.207 546.784-2.715-1.969-2.164 4.507z"/><path d="m588.853 549.527-3.815-.834-.62 3.141z"/><path d="m647.415 575.42-5.625-2.146-1.489 4.721z"/><path d="m624.737 569.747 1.295-2.928-4.01.959z"/></g><path d="m1126.72 680.5h4v4.5z" fill="#acdeb6"/><path d="m1110.72 692-2-3-1.5 3z" fill="#acdeb6"/><path d="m669.719 677.5h4v4.5z" fill="#acdeb6"/><path d="m653.719 689-2-3-1.5 3z" fill="#acdeb6"/><path d="m447.883 693.367-3.998.113-.127-4.498z" fill="#acdeb6"/><path d="m463.552 681.42 2.084 2.942 1.414-3.041z" fill="#acdeb6"/><path d="m160.572 666.892 3.998-.117.132 4.498z" fill="#acdeb6"/><path d="m144.914 678.854-2.086-2.941-1.412 3.043z" fill="#acdeb6"/><path d="m692.157 695.246-3.999.113-.127-4.498z" fill="#acdeb6"/><path d="m707.825 683.299 2.084 2.942 1.415-3.041z" fill="#acdeb6"/><path d="m1093.73 655.047-4 .113-.13-4.498z" fill="#acdeb6"/><path d="m1109.4 643.099 2.08 2.943 1.41-3.042z" fill="#acdeb6"/><path d="m636.727 652.047-3.998.113-.128-4.498z" fill="#acdeb6"/><path d="m652.395 640.099 2.084 2.943 1.415-3.042z" fill="#acdeb6"/><path d="m846.124 674.509-2.136 3.382-3.805-2.403z" fill="#acdeb6"/><path d="m844.944 654.84 3.604-.089-1.735-2.87z" fill="#acdeb6"/><path d="m389.124 671.509-2.136 3.382-3.805-2.403z" fill="#acdeb6"/><path d="m387.944 651.84 3.604-.089-1.735-2.87z" fill="#acdeb6"/><path d="m50.3575 656.384 2.1327-3.384 3.807 2.399z" fill="#acdeb6"/><path d="m51.5553 676.052-3.6044.092 1.7382 2.869z" fill="#acdeb6"/><path d="m795.888 670.845 3.971-.474.533 4.468z" fill="#acdeb6"/><path d="m781.362 684.158-2.341-2.742-1.135 3.157z" fill="#acdeb6"/><path d="m338.888 667.845 3.971-.474.533 4.468z" fill="#acdeb6"/><path d="m324.362 681.158-2.341-2.742-1.135 3.157z" fill="#acdeb6"/><path d="m269.591 692.318-3.972.477-.537-4.468z" fill="#acdeb6"/><path d="m284.104 678.991 2.344 2.74 1.131-3.157z" fill="#acdeb6"/><path d="m970.886 643.474 3.971-.474.533 4.468z" fill="#acdeb6"/><path d="m956.36 656.787-2.341-2.742-1.134 3.157z" fill="#acdeb6"/><path d="m513.886 640.474 3.971-.474.533 4.468z" fill="#acdeb6"/><path d="m499.36 653.787-2.341-2.742-1.134 3.157z" fill="#acdeb6"/><path d="m1055.02 682.933 1.1-3.847 4.33 1.233z" fill="#acdeb6"/><path d="m1061.7 701.471-3.43 1.102 2.47 2.264z" fill="#acdeb6"/><path d="m598.022 679.933 1.095-3.847 4.328 1.233z" fill="#acdeb6"/><path d="m604.699 698.471-3.433 1.102 2.475 2.264z" fill="#acdeb6"/><path d="m976.484 691.909-.987 3.876-4.361-1.11z" fill="#acdeb6"/><path d="m969.285 673.567 3.4-1.199-2.537-2.193z" fill="#acdeb6"/><path d="m519.483 688.909-.987 3.876-4.361-1.11z" fill="#acdeb6"/><path d="m512.284 670.567 3.4-1.199-2.537-2.193z" fill="#acdeb6"/><path d="m88.976 671.416.983-3.877 4.362 1.106z" fill="#acdeb6"/><path d="m96.1913 689.752-3.3995 1.201 2.5394 2.192z" fill="#acdeb6"/><path d="m1026.41 673.733-.99 3.876-4.36-1.109z" fill="#acdeb6"/><path d="m1019.21 655.391 3.4-1.198-2.54-2.194z" fill="#acdeb6"/><path d="m569.41 670.733-.986 3.876-4.361-1.109z" fill="#acdeb6"/><path d="m562.211 652.391 3.401-1.198-2.538-2.194z" fill="#acdeb6"/><path d="m1158.22 672.5v-4l-3.5 1.5z" fill="#acdeb6"/><path d="m701.219 669.5v-4l-3.5 1.5z" fill="#acdeb6"/><path d="m191.826 657.977-.117-3.998-3.455 1.601z" fill="#acdeb6"/><path d="m1182.61 654.099.11 3.999 3.46-1.599z" fill="#acdeb6"/><path d="m725.607 651.099.113 3.999 3.456-1.599z" fill="#acdeb6"/><path d="m229.377 657.783-3.384-2.133-.597 3.761z" fill="#acdeb6"/><path d="m241.219 676.133-3.384-2.133-.597 3.761z" fill="#acdeb6"/><path d="m923.968 665.96 3.382 2.136.6-3.761z" fill="#acdeb6"/><path d="m466.968 662.96 3.382 2.136.6-3.761z" fill="#acdeb6"/><path d="m826.219 659.169-.474-3.972-3.298 1.904z" fill="#acdeb6"/><path d="m369.219 656.169-.474-3.972-3.298 1.904z" fill="#acdeb6"/><path d="m1055.96 650.447-3.85-1.095.48 3.777z" fill="#acdeb6"/><path d="m598.956 647.447-3.847-1.095.484 3.777z" fill="#acdeb6"/><path d="m88.9633 638.915-3.8774-.983.5939 3.761z" fill="#acdeb6"/><path d="m1151.72 651 5 4-5 3z" fill="#acdeb6"/><path d="m694.719 648 5 4-5 3z" fill="#acdeb6"/><path d="m184.701 636.677 5.115 3.853-4.911 3.144z" fill="#acdeb6"/><path d="m133.211 638.286 5.115 3.853-4.911 3.144z" fill="#acdeb6"/><path d="m900.219 651.997-5.111-3.857 4.913-3.14z" fill="#acdeb6"/><path d="m443.219 648.997-5.111-3.857 4.913-3.14z" fill="#acdeb6"/><path d="m207.724 651.82 6.05-2.097-.128 5.829z" fill="#acdeb6"/><path d="m304.631 645.529 6.05-2.097-.128 5.829z" fill="#acdeb6"/><path d="m163.221 649.521 6.05-2.097-.128 5.829z" fill="#acdeb6"/><path d="m260.128 643.23 6.05-2.097-.128 5.829z" fill="#acdeb6"/><path d="m918.219 644.737-6.052 2.092.133-5.829z" fill="#acdeb6"/><path d="m461.219 641.737-6.052 2.092.133-5.829z" fill="#acdeb6"/><path d="m817.218 638.592 5.438 3.38-4.609 3.571z" fill="#acdeb6"/><path d="m360.218 635.592 5.438 3.38-4.609 3.571z" fill="#acdeb6"/><path d="m1033.5 650.809 5.21-3.713 1.52 5.63z" fill="#acdeb6"/><path d="m576.498 647.809 5.216-3.713 1.516 5.63z" fill="#acdeb6"/><path d="m66.5252 639.931 5.106-3.864 1.6793 5.584z" fill="#acdeb6"/><path d="m20.2048 646.847 5.1061-3.864 1.6793 5.584z" fill="#acdeb6"/><path d="m1113.72 660 3 1.5-3 4z" fill="#e7e88c"/><path d="m1132.22 701.5 2.5 3-2.5 2z" fill="#e7e88c"/><path d="m1082.22 661.5 4.5 4-3.5 3.5z" fill="#e7e88c"/><path d="m1097.72 679 2-2.5 1 4z" fill="#e7e88c"/><path d="m656.719 657 3 1.5-3 4z" fill="#e7e88c"/><path d="m675.219 698.5 2.5 3-2.5 2z" fill="#e7e88c"/><path d="m625.219 658.5 4.5 4-3.5 3.5z" fill="#e7e88c"/><path d="m640.719 676 2-2.5 1 4z" fill="#e7e88c"/><path d="m918.457 716.492-3.041-1.414 2.886-4.083z" fill="#e7e88c"/><path d="m898.792 675.532-2.584-2.928 2.442-2.07z" fill="#e7e88c"/><path d="m949.902 714.102-4.611-3.871 3.4-3.597z" fill="#e7e88c"/><path d="m933.914 697.048-1.929 2.555-1.112-3.97z" fill="#e7e88c"/><path d="m461.458 713.492-3.041-1.414 2.886-4.083z" fill="#e7e88c"/><path d="m441.793 672.532-2.584-2.928 2.442-2.07z" fill="#e7e88c"/><path d="m492.903 711.102-4.611-3.871 3.4-3.597z" fill="#e7e88c"/><path d="m476.915 694.048-1.929 2.555-1.112-3.97z" fill="#e7e88c"/><path d="m146.98 646.78 3.042 1.412-2.882 4.086z" fill="#e7e88c"/><path d="m166.682 687.723 2.586 2.926-2.44 2.072z" fill="#e7e88c"/><path d="m115.537 649.198 4.614 3.867-3.396 3.601z" fill="#e7e88c"/><path d="m131.54 666.239 1.927-2.558 1.116 3.97z" fill="#e7e88c"/><path d="m1162.73 718.371-3.04-1.414 2.89-4.084z" fill="#e7e88c"/><path d="m1143.07 677.411-2.59-2.928 2.44-2.07z" fill="#e7e88c"/><path d="m1194.18 715.981-4.62-3.871 3.4-3.597z" fill="#e7e88c"/><path d="m1178.19 698.927-1.93 2.555-1.11-3.97z" fill="#e7e88c"/><path d="m705.732 715.371-3.041-1.414 2.885-4.084z" fill="#e7e88c"/><path d="m686.066 674.411-2.584-2.928 2.443-2.07z" fill="#e7e88c"/><path d="m737.177 712.981-4.611-3.871 3.399-3.597z" fill="#e7e88c"/><path d="m721.188 695.927-1.928 2.555-1.113-3.97z" fill="#e7e88c"/><path d="m759.732 723.371-3.041-1.414 2.885-4.084z" fill="#e7e88c"/><path d="m740.066 682.411-2.584-2.928 2.443-2.07z" fill="#e7e88c"/><path d="m791.177 720.981-4.611-3.871 3.399-3.597z" fill="#e7e88c"/><path d="m775.188 703.927-1.928 2.555-1.113-3.97z" fill="#e7e88c"/><path d="m870.399 674.463-2.87 1.736-1.78-4.673z" fill="#e7e88c"/><path d="m825.432 667.946-3.871.512-.356-3.182z" fill="#e7e88c"/><path d="m885.95 647.028-5.784 1.669-1.091-4.828z" fill="#e7e88c"/><path d="m862.878 650.79 1.046 3.025-3.916-1.29z" fill="#e7e88c"/><path d="m413.399 671.463-2.87 1.736-1.78-4.673z" fill="#e7e88c"/><path d="m368.432 664.946-3.871.512-.356-3.182z" fill="#e7e88c"/><path d="m428.95 644.028-5.784 1.669-1.091-4.828z" fill="#e7e88c"/><path d="m405.878 647.79 1.046 3.025-3.916-1.29z" fill="#e7e88c"/><path d="m40.2282 677.649 2.3963 2.347-4.081 2.889z" fill="#e7e88c"/><path d="m45.1267 722.821 1.4609 3.622-2.9924 1.138z" fill="#e7e88c"/><path d="m9.78299 669.428 3.05841 5.186-4.40387 2.26z" fill="#e7e88c"/><path d="m19.1773 690.835 2.6697-1.767-.2734 4.114z" fill="#e7e88c"/><path d="m194.031 639.766 2.869-1.738 1.784 4.67z" fill="#e7e88c"/><path d="m239.004 646.243 3.871-.516.359 3.182z" fill="#e7e88c"/><path d="m178.505 667.214 5.783-1.674 1.095 4.827z" fill="#e7e88c"/><path d="m201.574 663.432-1.048-3.025 3.917 1.287z" fill="#e7e88c"/><path d="m948.399 670.463-2.87 1.736-1.78-4.673z" fill="#e7e88c"/><path d="m903.432 663.946-3.871.512-.356-3.182z" fill="#e7e88c"/><path d="m963.95 643.028-5.784 1.669-1.091-4.828z" fill="#e7e88c"/><path d="m940.878 646.79 1.046 3.025-3.916-1.29z" fill="#e7e88c"/><path d="m491.399 667.463-2.87 1.736-1.78-4.673z" fill="#e7e88c"/><path d="m446.432 660.946-3.871.512-.356-3.182z" fill="#e7e88c"/><path d="m506.95 640.028-5.784 1.669-1.091-4.828z" fill="#e7e88c"/><path d="m483.878 643.79 1.046 3.025-3.916-1.29z" fill="#e7e88c"/><path d="m1181.4 669.463-2.87 1.736-1.78-4.673z" fill="#e7e88c"/><path d="m1136.43 662.946-3.87.512-.36-3.182z" fill="#e7e88c"/><path d="m1196.95 642.028-5.78 1.669-1.09-4.828z" fill="#e7e88c"/><path d="m1173.88 645.79 1.04 3.025-3.91-1.29z" fill="#e7e88c"/><path d="m724.399 666.463-2.87 1.736-1.78-4.673z" fill="#e7e88c"/><path d="m679.432 659.946-3.871.512-.356-3.182z" fill="#e7e88c"/><path d="m739.95 639.028-5.784 1.669-1.091-4.828z" fill="#e7e88c"/><path d="m716.878 642.79 1.046 3.025-3.916-1.29z" fill="#e7e88c"/><path d="m780.551 652.028 3.157 1.134-2.506 4.327z" fill="#e7e88c"/><path d="m803.835 691.045 2.838 2.683-2.246 2.282z" fill="#e7e88c"/><path d="m749.45 657.247 4.942 3.439-3.061 3.89z" fill="#e7e88c"/><path d="m766.913 672.789 1.69-2.72 1.467 3.854z" fill="#e7e88c"/><path d="m323.551 649.028 3.157 1.134-2.506 4.327z" fill="#e7e88c"/><path d="m346.835 688.045 2.838 2.683-2.246 2.282z" fill="#e7e88c"/><path d="m292.45 654.247 4.942 3.439-3.061 3.89z" fill="#e7e88c"/><path d="m309.913 669.789 1.69-2.72 1.467 3.854z" fill="#e7e88c"/><path d="m284.944 711.122-3.158-1.132 2.502-4.329z" fill="#e7e88c"/><path d="m261.625 672.125-2.84-2.68 2.244-2.284z" fill="#e7e88c"/><path d="m316.04 705.875-4.945-3.435 3.057-3.893z" fill="#e7e88c"/><path d="m298.563 690.349-1.688 2.72-1.47-3.852z" fill="#e7e88c"/><path d="m42.2061 636.064 3.3536.058-.9798 4.903z" fill="#e7e88c"/><path d="m76.8058 665.515 3.55 1.627-1.3919 2.883z" fill="#e7e88c"/><path d="m14.4385 651.012 5.7857 1.666-1.6466 4.668z" fill="#e7e88c"/><path d="m35.9736 660.109.7251-3.119 2.6285 3.177z" fill="#e7e88c"/><path d="m1031.74 689.82 2.27-2.474 3.02 3.98z" fill="#e7e88c"/><path d="m1076.73 683.395 3.57-1.583 1.23 2.952z" fill="#e7e88c"/><path d="m1024.56 720.526 5.08-3.232 2.41 4.325z" fill="#e7e88c"/><path d="m1045.64 710.412-1.86-2.608 4.12.134z" fill="#e7e88c"/><path d="m574.745 686.82 2.264-2.474 3.026 3.98z" fill="#e7e88c"/><path d="m619.725 680.395 3.57-1.583 1.239 2.952z" fill="#e7e88c"/><path d="m567.56 717.526 5.079-3.232 2.408 4.325z" fill="#e7e88c"/><path d="m588.636 707.412-1.857-2.608 4.121.134z" fill="#e7e88c"/><path d="m999.556 684.367-2.194 2.538-3.136-3.894z" fill="#e7e88c"/><path d="m954.775 692.062-3.524 1.683-1.321-2.917z" fill="#e7e88c"/><path d="m1005.87 653.47-4.99 3.375-2.525-4.255z" fill="#e7e88c"/><path d="m985.088 664.176 1.93 2.555-4.123-.018z" fill="#e7e88c"/><path d="m542.556 681.367-2.194 2.538-3.136-3.894z" fill="#e7e88c"/><path d="m497.775 689.062-3.524 1.683-1.321-2.917z" fill="#e7e88c"/><path d="m548.87 650.47-4.986 3.375-2.529-4.255z" fill="#e7e88c"/><path d="m528.088 661.176 1.93 2.555-4.123-.018z" fill="#e7e88c"/><path d="m65.9106 678.975 2.1912-2.539 3.1401 3.891z" fill="#e7e88c"/><path d="m110.684 671.241 3.523-1.686 1.324 2.915z" fill="#e7e88c"/><path d="m59.6235 709.878 4.9832-3.379 2.5325 4.253z" fill="#e7e88c"/><path d="m80.3959 699.154-1.9318-2.553 4.1231.013z" fill="#e7e88c"/><path d="m1017.01 644.784 2.72-1.969 2.16 4.507z" fill="#e7e88c"/><path d="m1062.37 647.527 3.81-.834.62 3.141z" fill="#e7e88c"/><path d="m1003.8 673.42 5.63-2.146 1.49 4.721z" fill="#e7e88c"/><path d="m1026.48 667.747-1.29-2.928 4.01.959z" fill="#e7e88c"/><path d="m560.011 641.784 2.716-1.969 2.164 4.507z" fill="#e7e88c"/><path d="m605.365 644.527 3.816-.834.62 3.141z" fill="#e7e88c"/><path d="m546.803 670.42 5.626-2.146 1.489 4.721z" fill="#e7e88c"/><path d="m569.482 664.747-1.295-2.928 4.01.959z" fill="#e7e88c"/><g filter="url(#a)"><path d="m989 276 84 110 84-50 38 36v168.857h-432v-224.857l132 80z" fill="#539882"/></g><g filter="url(#b)"><circle cx="852.5" cy="227.5" fill="#ffbd3a" r="98.5"/></g><g filter="url(#c)"><path d="m960.777 403.108 121.683 43.235 111.54-64.343v163.531h-1194v-208.549l134.357-233.982 169.847 78.842 256.266 57.884 75.823 127.776 73.427 103.926 116.7-47.974 109.007-27.976z" fill="#91d7b9"/></g><path d="m54 278 81-150 11 75z" fill="#b2e3ce"/><path d="m161 448 26-184 158 268z" fill="#b2e3ce"/><path d="m994 487-58-78 128 49z" fill="#b2e3ce"/><path d="m382 253-70-51 134 31z" fill="#b2e3ce"/><g filter="url(#d)"><path d="m734.397 298.248v-14.318l74.565 8.077c5.428.588 6.602 7.967 1.625 10.212l17.946-3.971v271.202h-94.136z" fill="url(#i)"/><path d="m460.136 298.248v-14.318l-60.822 6.588c-4.594.498-4.645 7.162-.06 7.73l-26.603 2.049-6.651 269.153h94.136z" fill="url(#j)"/><path d="m457.422 253.338 47.313-8.542c15.474-2.794 30.575-7.362 45.003-13.613l48.887-21.183 44.325 19.974c15.646 7.05 32.116 12.105 49.024 15.044l47.855 8.32v316.112h-282.407z" fill="url(#k)"/><g fill="#000"><path d="m573.688 181.559h53.836v37.0122h-53.836z"/><path d="m577.057 144.533h47.1065v37.0122h-47.1065z"/><path d="m580.423 114.262h40.377v30.2827h-40.377z"/><path d="m583.784 82.3008h33.6475v31.9651h-33.6475z"/><path d="m588.832 53.6816h23.5532v28.6004h-23.5532z"/><path d="m600.953 41.9062 12.044 11.7768h-24.089z"/><path d="m586.767 49.3984c.892.9814 3.372 2.5695 6.156 1.0706v3.2119h-4.015c-.714-.3569-2.141-1.713-2.141-4.2825z"/><path d="m592.123 44.0508c.892.9814 3.372 2.5694 6.156 1.0706v3.2118h-4.015c-.713-.3569-2.141-1.713-2.141-4.2824z"/><path d="m614.869 49.3984c-.892.9814-3.372 2.5695-6.156 1.0706v3.2119h4.015c.714-.3569 2.141-1.713 2.141-4.2825z"/><path d="m609.517 44.0508c-.893.9814-3.373 2.5694-6.156 1.0706v3.2118h4.014c.714-.3569 2.142-1.713 2.142-4.2824z"/><path d="m566.961 168.107c2.926 3.085 11.06 8.076 20.188 3.365v10.094h-13.166c-2.341-1.121-7.022-5.383-7.022-13.459z"/><path d="m570.326 134.445c2.926 3.085 11.06 8.076 20.189 3.365v10.094h-13.167c-2.34-1.121-7.022-5.383-7.022-13.459z"/><path d="m573.688 100.807c2.926 3.084 11.06 8.075 20.189 3.364v10.095h-13.166c-2.341-1.122-7.023-5.384-7.023-13.459z"/><path d="m577.057 68.8379c2.926 3.0843 11.059 8.0754 20.188 3.3647v10.0943h-13.166c-2.341-1.1216-7.022-5.3836-7.022-13.459z"/><path d="m634.258 168.107c-2.926 3.085-11.06 8.076-20.189 3.365v10.094h13.167c2.34-1.121 7.022-5.383 7.022-13.459z"/><path d="m630.892 134.445c-2.926 3.085-11.06 8.076-20.189 3.365v10.094h13.167c2.34-1.121 7.022-5.383 7.022-13.459z"/><path d="m627.526 100.807c-2.926 3.084-11.059 8.075-20.188 3.364v10.095h13.166c2.341-1.122 7.022-5.384 7.022-13.459z"/><path d="m624.16 68.8379c-2.926 3.0843-11.06 8.0754-20.188 3.3647v10.0943h13.166c2.341-1.1216 7.022-5.3836 7.022-13.459z"/><path d="m600.606 15v33.6475h-3.365z"/><path d="m600.604 15v33.6475h3.365z"/><path d="m519.379 263.025h53.836v37.0122h-53.836z"/><path d="m522.747 226h47.1065v37.0122h-47.1065z"/><path d="m526.113 195.729h40.377v30.2827h-40.377z"/><path d="m529.475 163.768h33.6475v31.9651h-33.6475z"/><path d="m534.522 135.148h23.5532v28.6004h-23.5532z"/><path d="m546.643 123.373 12.044 11.777h-24.088z"/><path d="m532.456 130.865c.892.982 3.372 2.57 6.156 1.071v3.212h-4.015c-.713-.357-2.141-1.713-2.141-4.283z"/><path d="m537.812 125.518c.893.981 3.373 2.569 6.157 1.07v3.212h-4.015c-.714-.357-2.142-1.713-2.142-4.282z"/><path d="m560.559 130.865c-.893.982-3.373 2.57-6.156 1.071v3.212h4.014c.714-.357 2.142-1.713 2.142-4.283z"/><path d="m555.206 125.518c-.892.981-3.372 2.569-6.156 1.07v3.212h4.015c.714-.357 2.141-1.713 2.141-4.282z"/><path d="m512.651 249.574c2.926 3.085 11.06 8.076 20.189 3.365v10.094h-13.167c-2.34-1.121-7.022-5.383-7.022-13.459z"/><path d="m516.017 215.912c2.925 3.084 11.059 8.076 20.188 3.365v10.094h-13.166c-2.341-1.121-7.022-5.383-7.022-13.459z"/><path d="m519.379 182.273c2.926 3.085 11.06 8.076 20.188 3.365v10.094h-13.166c-2.341-1.121-7.022-5.383-7.022-13.459z"/><path d="m522.747 150.305c2.926 3.084 11.06 8.075 20.189 3.364v10.095h-13.167c-2.341-1.122-7.022-5.384-7.022-13.459z"/><path d="m579.948 249.574c-2.926 3.085-11.06 8.076-20.188 3.365v10.094h13.166c2.341-1.121 7.022-5.383 7.022-13.459z"/><path d="m576.582 215.912c-2.926 3.084-11.06 8.076-20.188 3.365v10.094h13.166c2.341-1.121 7.022-5.383 7.022-13.459z"/><path d="m573.217 182.273c-2.926 3.085-11.06 8.076-20.189 3.365v10.094h13.167c2.34-1.121 7.022-5.383 7.022-13.459z"/><path d="m569.851 150.305c-2.926 3.084-11.06 8.075-20.189 3.364v10.095h13.167c2.34-1.122 7.022-5.384 7.022-13.459z"/><path d="m546.296 96.4668v33.6472h-3.364z"/><path d="m546.294 96.4668v33.6472h3.365z"/><path d="m627.998 263.025h53.836v37.0122h-53.836z"/><path d="m631.366 226h47.1065v37.0122h-47.1065z"/><path d="m634.732 195.729h40.377v30.2827h-40.377z"/><path d="m638.094 163.768h33.6475v31.9651h-33.6475z"/><path d="m643.142 135.148h23.5532v28.6004h-23.5532z"/><path d="m655.262 123.373 12.044 11.777h-24.088z"/><path d="m641.075 130.865c.892.982 3.373 2.57 6.156 1.071v3.212h-4.015c-.713-.357-2.141-1.713-2.141-4.283z"/><path d="m646.432 125.518c.892.981 3.372 2.569 6.156 1.07v3.212h-4.015c-.714-.357-2.141-1.713-2.141-4.282z"/><path d="m669.178 130.865c-.892.982-3.373 2.57-6.156 1.071v3.212h4.015c.713-.357 2.141-1.713 2.141-4.283z"/><path d="m663.825 125.518c-.892.981-3.372 2.569-6.156 1.07v3.212h4.015c.714-.357 2.141-1.713 2.141-4.282z"/><path d="m621.271 249.574c2.925 3.085 11.059 8.076 20.188 3.365v10.094h-13.166c-2.341-1.121-7.022-5.383-7.022-13.459z"/><path d="m624.636 215.912c2.926 3.084 11.06 8.076 20.188 3.365v10.094h-13.166c-2.341-1.121-7.022-5.383-7.022-13.459z"/><path d="m627.998 182.273c2.926 3.085 11.06 8.076 20.189 3.365v10.094h-13.167c-2.341-1.121-7.022-5.383-7.022-13.459z"/><path d="m631.366 150.305c2.926 3.084 11.06 8.075 20.189 3.364v10.095h-13.167c-2.34-1.122-7.022-5.384-7.022-13.459z"/><path d="m688.567 249.574c-2.925 3.085-11.059 8.076-20.188 3.365v10.094h13.166c2.341-1.121 7.022-5.383 7.022-13.459z"/><path d="m685.201 215.912c-2.926 3.084-11.06 8.076-20.188 3.365v10.094h13.166c2.341-1.121 7.022-5.383 7.022-13.459z"/><path d="m681.836 182.273c-2.926 3.085-11.06 8.076-20.189 3.365v10.094h13.167c2.341-1.121 7.022-5.383 7.022-13.459z"/><path d="m678.47 150.305c-2.926 3.084-11.06 8.075-20.189 3.364v10.095h13.167c2.34-1.122 7.022-5.384 7.022-13.459z"/><path d="m654.916 96.4668v33.6472h-3.365z"/><path d="m654.914 96.4668v33.6472h3.364z"/><path d="m731.949 272.402h16.4934v11.3392h-16.4934z"/><path d="m732.979 261.068h14.4317v11.3392h-14.4317z"/><path d="m734.012 251.789h12.3701v9.27755h-12.3701z"/><path d="m735.042 241.996h10.3084v9.79297h-10.3084z"/><path d="m736.59 233.232h7.21587v8.76213h-7.21587z"/><path d="m740.304 229.621 3.69 3.608h-7.38z"/><path d="m735.953 231.914c.273.301 1.033.787 1.886.328v.984h-1.23c-.219-.109-.656-.525-.656-1.312z"/><path d="m737.596 230.275c.273.301 1.033.788 1.886.328v.984h-1.23c-.219-.109-.656-.524-.656-1.312z"/><path d="m744.562 231.914c-.273.301-1.033.787-1.885.328v.984h1.23c.218-.109.655-.525.655-1.312z"/><path d="m742.924 230.275c-.274.301-1.033.788-1.886.328v.984h1.23c.218-.109.656-.524.656-1.312z"/><path d="m729.887 268.285c.896.945 3.388 2.474 6.185 1.031v3.093h-4.034c-.717-.344-2.151-1.65-2.151-4.124z"/><path d="m730.917 257.975c.896.945 3.388 2.474 6.185 1.03v3.093h-4.034c-.717-.344-2.151-1.649-2.151-4.123z"/><path d="m731.949 247.672c.897.945 3.389 2.474 6.185 1.031v3.092h-4.033c-.718-.343-2.152-1.649-2.152-4.123z"/><path d="m732.979 237.871c.897.945 3.389 2.474 6.186 1.031v3.092h-4.034c-.717-.343-2.152-1.649-2.152-4.123z"/><path d="m750.503 268.285c-.896.945-3.388 2.474-6.185 1.031v3.093h4.034c.717-.344 2.151-1.65 2.151-4.124z"/><path d="m749.472 257.975c-.897.945-3.389 2.474-6.185 1.03v3.093h4.033c.717-.344 2.152-1.649 2.152-4.123z"/><path d="m748.44 247.672c-.896.945-3.388 2.474-6.185 1.031v3.092h4.034c.717-.343 2.151-1.649 2.151-4.123z"/><path d="m747.409 237.871c-.896.945-3.388 2.474-6.185 1.031v3.092h4.034c.717-.343 2.151-1.649 2.151-4.123z"/><path d="m740.194 221.379v10.308h-1.031z"/><path d="m740.195 221.379v10.308h1.031z"/><path d="m449.544 272.402h16.4934v11.3392h-16.4934z"/><path d="m450.574 261.068h14.4317v11.3392h-14.4317z"/><path d="m451.606 251.789h12.3701v9.27755h-12.3701z"/><path d="m452.637 241.996h10.3084v9.79297h-10.3084z"/><path d="m454.185 233.232h7.21587v8.76213h-7.21587z"/><path d="m457.899 229.621 3.69 3.608h-7.38z"/><path d="m453.55 231.914c.273.301 1.033.787 1.886.328v.984h-1.23c-.219-.109-.656-.525-.656-1.312z"/><path d="m455.192 230.275c.274.301 1.034.788 1.886.328v.984h-1.23c-.218-.109-.656-.524-.656-1.312z"/><path d="m462.159 231.914c-.273.301-1.033.787-1.886.328v.984h1.23c.219-.109.656-.525.656-1.312z"/><path d="m460.521 230.275c-.274.301-1.034.788-1.886.328v.984h1.23c.218-.109.656-.524.656-1.312z"/><path d="m447.481 268.285c.897.945 3.389 2.474 6.185 1.031v3.093h-4.033c-.717-.344-2.152-1.65-2.152-4.124z"/><path d="m448.512 257.975c.896.945 3.388 2.474 6.185 1.03v3.093h-4.034c-.717-.344-2.151-1.649-2.151-4.123z"/><path d="m449.544 247.672c.896.945 3.388 2.474 6.185 1.031v3.092h-4.034c-.717-.343-2.151-1.649-2.151-4.123z"/><path d="m450.574 237.871c.897.945 3.389 2.474 6.185 1.031v3.092h-4.033c-.718-.343-2.152-1.649-2.152-4.123z"/><path d="m468.098 268.285c-.897.945-3.389 2.474-6.185 1.031v3.093h4.033c.717-.344 2.152-1.65 2.152-4.124z"/><path d="m467.066 257.975c-.896.945-3.388 2.474-6.185 1.03v3.093h4.034c.717-.344 2.151-1.649 2.151-4.123z"/><path d="m466.035 247.672c-.896.945-3.388 2.474-6.185 1.031v3.092h4.034c.717-.343 2.151-1.649 2.151-4.123z"/><path d="m465.004 237.871c-.896.945-3.388 2.474-6.185 1.031v3.092h4.034c.717-.343 2.151-1.649 2.151-4.123z"/><path d="m457.789 221.379v10.308h-1.031z"/><path d="m457.789 221.379v10.308h1.031z"/><path d="m805.922 540h53.836v37.0122h-53.836z"/><path d="m809.292 502.975h47.1065v37.0122h-47.1065z"/><path d="m812.657 472.703h40.377v30.2827h-40.377z"/><path d="m816.018 440.742h33.6475v31.9651h-33.6475z"/><path d="m821.066 412.123h23.5532v28.6004h-23.5532z"/><path d="m833.187 400.348 12.044 11.776h-24.088z"/><path d="m819 407.84c.892.981 3.372 2.569 6.156 1.07v3.212h-4.015c-.714-.357-2.141-1.713-2.141-4.282z"/><path d="m824.356 402.492c.893.982 3.373 2.57 6.156 1.071v3.212h-4.014c-.714-.357-2.142-1.713-2.142-4.283z"/><path d="m847.103 407.84c-.893.981-3.373 2.569-6.156 1.07v3.212h4.014c.714-.357 2.142-1.713 2.142-4.282z"/><path d="m841.75 402.492c-.892.982-3.372 2.57-6.156 1.071v3.212h4.015c.714-.357 2.141-1.713 2.141-4.283z"/><path d="m866.487 526.549c-2.926 3.084-11.059 8.075-20.188 3.365v10.094h13.166c2.341-1.122 7.022-5.384 7.022-13.459z"/><path d="m863.126 492.887c-2.926 3.084-11.06 8.075-20.189 3.364v10.095h13.167c2.341-1.122 7.022-5.384 7.022-13.459z"/><path d="m859.761 459.248c-2.926 3.084-11.06 8.075-20.189 3.365v10.094h13.167c2.34-1.122 7.022-5.384 7.022-13.459z"/><path d="m856.396 427.279c-2.926 3.085-11.06 8.076-20.189 3.365v10.094h13.166c2.341-1.121 7.023-5.383 7.023-13.459z"/><path d="m833.076 373.441v32.586h-5.43z"/><path d="m833.078 373.441v32.586h5.431z"/><path d="m0 0h53.836v37.0122h-53.836z" transform="matrix(-1 0 0 1 388.565 540)"/><path d="m0 0h47.1065v37.0122h-47.1065z" transform="matrix(-1 0 0 1 385.195 502.975)"/><path d="m0 0h40.377v30.2827h-40.377z" transform="matrix(-1 0 0 1 381.83 472.703)"/><path d="m0 0h33.6475v31.9651h-33.6475z" transform="matrix(-1 0 0 1 378.47 440.742)"/><path d="m0 0h23.5532v28.6004h-23.5532z" transform="matrix(-1 0 0 1 373.421 412.123)"/><path d="m361.3 400.348-12.044 11.776h24.089z"/><path d="m375.489 407.84c-.892.981-3.372 2.569-6.156 1.07v3.212h4.015c.714-.357 2.141-1.713 2.141-4.282z"/><path d="m370.133 402.492c-.892.982-3.373 2.57-6.156 1.071v3.212h4.015c.713-.357 2.141-1.713 2.141-4.283z"/><path d="m347.387 407.84c.892.981 3.372 2.569 6.156 1.07v3.212h-4.015c-.714-.357-2.141-1.713-2.141-4.282z"/><path d="m352.739 402.492c.892.982 3.373 2.57 6.156 1.071v3.212h-4.015c-.713-.357-2.141-1.713-2.141-4.283z"/><path d="m328 526.549c2.926 3.084 11.06 8.075 20.188 3.365v10.094h-13.166c-2.341-1.122-7.022-5.384-7.022-13.459z"/><path d="m331.361 492.887c2.926 3.084 11.06 8.075 20.189 3.364v10.095h-13.167c-2.34-1.122-7.022-5.384-7.022-13.459z"/><path d="m334.727 459.248c2.925 3.084 11.059 8.075 20.188 3.365v10.094h-13.166c-2.341-1.122-7.022-5.384-7.022-13.459z"/><path d="m338.092 427.279c2.926 3.085 11.06 8.076 20.188 3.365v10.094h-13.166c-2.341-1.121-7.022-5.383-7.022-13.459z"/><path d="m361.411 373.441v32.586h5.431z"/><path d="m361.409 373.441v32.586h-5.43z"/><path clip-rule="evenodd" d="m735.319 290.933v-15.251l82.139 9.477c7.94.916 15.977.466 23.764-1.331l-11.767 7.105v288.879h-94.136zm21.724 47.206 25.344-20.393 25.345 20.393v80.188h-50.689zm24.439 127.621-24.439 16.293v97.756h48.878v-97.756z" fill-rule="evenodd"/><path clip-rule="evenodd" d="m461.058 290.933v-15.251l-82.139 9.477c-7.94.916-15.977.466-23.764-1.331l11.767 7.105v288.879h94.136zm-21.723 47.206-25.345-20.393-25.344 20.393v80.188h50.689zm-24.439 127.621 24.439 16.293v97.756h-48.879v-97.756z" fill-rule="evenodd"/><path clip-rule="evenodd" d="m458.341 243.098 46.123-8.87c16.259-3.126 32.078-8.215 47.111-15.153l47.969-22.139 43.353 20.809c16.284 7.816 33.531 13.442 51.292 16.731l46.559 8.622v336.716h-65.171v-141.203l-21.723-27.154-54.31-10.862-46.162 10.862-29.87 27.154v141.203h-65.171zm143.92 24.438 24.439 13.577v97.757h-48.879v-97.757zm73.318 46.163-16.293-10.862-16.293 10.862v65.17h32.586zm-135.773-10.862 16.292 10.862v65.17h-32.585v-65.17z" fill-rule="evenodd"/><path d="m329 567.537h536.164v12.2786h-536.164z"/></g></g><g filter="url(#e)"><circle cx="599.736" cy="470.013" fill="#539882" r="5.0133"/><path clip-rule="evenodd" d="m598.173 470.919c.31-.541.893-.905 1.561-.905.669 0 1.253.364 1.563.906.325-.322.772-.521 1.266-.521.874 0 1.602.622 1.765 1.448.148.029.288.076.42.139.234-.111.496-.173.772-.173.994 0 1.799.805 1.799 1.799 0 .086-.006.17-.017.252.269-.159.582-.251.917-.251.994 0 1.8.806 1.8 1.8 0 .242-.048.473-.135.684.812.174 1.42.895 1.42 1.759 0 .515-.216.979-.562 1.307.634.278 1.076.911 1.076 1.648 0 .538-.236 1.021-.61 1.35.374.33.61.813.61 1.351 0 .526-.226 1-.586 1.329.048.492.072.992.072 1.498 0 7.242-5.007 13.112-11.183 13.112-6.177 0-11.184-5.87-11.184-13.112 0-.381.014-.758.041-1.131-.698-.247-1.198-.913-1.198-1.696 0-.538.236-1.021.61-1.351-.374-.329-.61-.812-.61-1.35 0-.771.485-1.429 1.167-1.685-.324-.326-.524-.774-.524-1.27 0-.994.806-1.8 1.8-1.8.04 0 .08.002.12.004-.078-.201-.12-.419-.12-.647 0-.994.806-1.8 1.799-1.8.18 0 .353.026.516.075-.001-.025-.001-.05-.001-.076 0-.994.805-1.799 1.799-1.799.281 0 .547.064.784.179.102-.897.864-1.593 1.787-1.593.494 0 .941.198 1.266.52z" fill="#91d7b9" fill-rule="evenodd"/><path clip-rule="evenodd" d="m596.119 498.422h3.745 3.746c11.471 0 20.769 9.299 20.769 20.769v25.877h-24.515-24.514v-25.877c0-11.47 9.298-20.769 20.769-20.769z" fill="#91d7b9" fill-rule="evenodd"/><rect fill="#91d7b9" height="23.0395" rx="11.5197" width="71.7287" x="564" y="545.068"/><path clip-rule="evenodd" d="m592.226 483.97c.478-.957 1.123-1.579 1.794-1.827.658-.244 1.376-.143 2.063.417.697.569 1.365 1.616 1.858 3.265.492 1.645.803 3.869.803 6.764v.257h.257.771.065.77.258v-.257c0-2.895.311-5.119.803-6.764.493-1.649 1.161-2.696 1.858-3.265.686-.56 1.405-.661 2.063-.417.67.248 1.315.87 1.794 1.827l.46-.23c-.517-1.034-1.246-1.772-2.076-2.08-.843-.312-1.751-.163-2.566.502-.806.657-1.516 1.813-2.025 3.516-.496 1.656-.807 3.849-.825 6.654h-.514-.065-.514c-.018-2.805-.33-4.998-.825-6.654-.509-1.703-1.219-2.859-2.025-3.516-.815-.665-1.724-.814-2.566-.502-.83.308-1.559 1.046-2.076 2.08z" fill="#539882" fill-rule="evenodd"/><circle cx="599.865" cy="481.453" fill="#539882" r="1.28546"/><path d="m597.68 494.309c1.285 1.221 3.021 1.285 4.37 0" stroke="#539882" stroke-width=".514184"/><g fill="#539882"><path clip-rule="evenodd" d="m592.744 498.75c-2.242 18.749-9.16 23.538-14.242 27.055-1.193.826-2.284 1.581-3.19 2.431v-8.983c0-10.335 7.548-18.906 17.432-20.503z" fill-rule="evenodd"/><path clip-rule="evenodd" d="m575.312 536.346c12.932-3.57 25.104-13.149 29.819-37.869 10.743.796 19.211 9.765 19.211 20.712v25.876h-24.515-24.515z" fill-rule="evenodd"/><path d="m586.752 568.094c-8.741 0-5.142-12.801-11.44-23.01h26.48v23.01z"/><path d="m612.72 568.094c8.741 0 5.141-12.801 11.44-23.01h-26.48v23.01z"/></g><path d="m607.706 495.786c3.278 3.535 1.286-3.15 3.471-8.163h-4.242c0 1.221-1.956 5.222.771 8.163z" fill="#91d7b9"/><path d="m592.538 495.786c-3.278 3.535-1.285-3.15-3.471-8.163h4.242c0 1.221 1.956 5.222-.771 8.163z" fill="#91d7b9"/><path d="m610.277 502.277c-7.199 30.851-23.824 39.25-31.237 39.593" stroke="#91d7b9" stroke-linecap="round" stroke-width=".771277"/><path d="m614.132 505.492c-7.198 30.851-23.824 39.25-31.236 39.592" stroke="#91d7b9" stroke-linecap="round" stroke-width=".771277"/><path d="m578.269 532.424c5.31 4.71 14.818 8.898 18.908 10.402" stroke="#91d7b9" stroke-width="8.22695"/><path d="m614.262 537.115c-5.311 4.711-6.065 4.208-10.155 5.713" stroke="#91d7b9" stroke-width="8.22695"/><ellipse cx="600.764" cy="542.577" fill="#91d7b9" rx="7.96986" ry="5.84885"/><path d="m596.137 521.367c-6.942 3.407-10.605.579-11.441 0" stroke="#539882" stroke-width=".514184"/><path d="m591.444 536.665c-2.442-2.571-2.699-4.821-8.42-8.163l-3.535 4.178 9.834 7.712c.236-.385.99-1.671 2.121-3.727z" fill="#91d7b9"/><path d="m584.31 523.039c.977 3.342.407 5.42 0 6.042 3.92 2.314 3.985 5.077 7.198 6.813" stroke="#539882" stroke-width=".514184"/><path d="m576.212 536.409c-1.928-1.864-2.314-5.078-.643-14.397" stroke="#539882" stroke-width=".514184"/><path d="m575.055 525.158.579-.836v3.6l-1.029.964z" fill="#539882"/><path d="m574.734 528.76.707-.643.385.836.322 1.799-.322 3.664-.257.964-.385-.707-.45-.964-.193-1.093z" fill="#91d7b9"/><path d="m616.897 544.314c-.9-2.936-4.165-9.68-10.027-13.176l4.564-1.8 6.427 2.699 4.949 7.327z" fill="#539882"/><path d="m594.658 498.678c3.407 5.206 8.613 4.177 10.862 0" stroke="#539882" stroke-width=".771277"/><path d="m590.866 499.451c5.64 8.619 14.259 6.917 17.983 0" stroke="#539882" stroke-width="1.27691"/><path d="m591.767 486.854c.45.321 4.949-.322 5.463.578" stroke="#539882" stroke-linecap="round" stroke-width=".385638"/><path d="m607.642 486.854c-.45.321-4.949-.322-5.464.578" stroke="#539882" stroke-linecap="round" stroke-width=".385638"/><path clip-rule="evenodd" d="m599.737 469.885c.669 0 1.252.364 1.562.905.325-.321.773-.52 1.266-.52.994 0 1.8.806 1.8 1.8l-.001.025c.327-.333.782-.539 1.285-.539.994 0 1.8.805 1.8 1.799 0 .159-.02.313-.059.46.248-.13.531-.203.831-.203.994 0 1.799.806 1.799 1.8 0 .188-.029.37-.082.541.849.144 1.497.883 1.497 1.774 0 .583-.277 1.101-.707 1.43.642.275 1.092.912 1.092 1.655 0 .518-.219.984-.569 1.313.497.32.827.878.827 1.514 0 .994-.806 1.799-1.8 1.799s-1.8-.805-1.8-1.799c0-.518.219-.985.569-1.313-.497-.321-.826-.879-.826-1.514 0-.311.079-.604.217-.859-.569-.184-1.015-.644-1.178-1.223-.279.178-.612.282-.968.282-.811 0-1.496-.536-1.721-1.273-.292.601-.908 1.015-1.621 1.015-.853 0-1.568-.593-1.753-1.39-.229.731-.911 1.261-1.717 1.261-.703 0-1.311-.402-1.607-.989-.297.587-.905.989-1.607.989-.537 0-1.018-.235-1.348-.607-.295.59-.905.994-1.609.994-.546 0-1.034-.243-1.364-.626-.166.536-.575.965-1.098 1.158.254.31.406.706.406 1.138 0 .545-.243 1.034-.626 1.364.457.326.754.861.754 1.465 0 .994-.805 1.799-1.799 1.799s-1.8-.805-1.8-1.799c0-.545.242-1.034.625-1.364-.456-.326-.754-.861-.754-1.465 0-.775.49-1.436 1.177-1.689-.253-.31-.405-.706-.405-1.138 0-.994.806-1.8 1.8-1.8.015 0 .03.001.044.001-.111-.234-.173-.496-.173-.772 0-.994.806-1.8 1.799-1.8.18 0 .353.026.516.075-.001-.025-.001-.05-.001-.076 0-.994.805-1.799 1.799-1.799.336 0 .65.091.919.251.127-.869.876-1.537 1.78-1.537.472 0 .9.181 1.221.477.296-.587.905-.99 1.608-.99z" fill="#539882" fill-rule="evenodd"/><path d="m600.636 536.406c-3.021 2.057.964 1.993 2.7 3.342" stroke="#539882" stroke-width=".257092"/><path d="m599.029 546.178c1.851.36 3.728.15 4.435 0" stroke="#539882" stroke-width=".257092"/><path d="m599.093 544.184c1.851.36 3.728.15 4.435 0" stroke="#539882" stroke-width=".257092"/><path d="m599.093 542.127c1.851.36 3.728.15 4.435 0" stroke="#539882" stroke-width=".257092"/></g><path d="m1043 365-52.5-68.5-14 22z" fill="#447b6a"/><g filter="url(#f)"><path d="m475.693 579.693c5.5-2 3.5-4.5 4.343-14.693l26.388 3.107c-.44 6.88 2.769 39.286-30.732 23.286-2.499-3-2-8.7.001-11.7z" fill="#d1c870"/><path clip-rule="evenodd" d="m482.1 587.047c.022 1.741-1.314 3.169-2.983 3.19l-4.75.059c-1.669.021-3.04-1.374-3.061-3.115-.022-1.74 1.313-3.169 2.983-3.189l4.749-.06c1.669-.021 3.04 1.374 3.062 3.115z" fill="#ffc7a1" fill-rule="evenodd"/><path d="m470.094 593.935 3.669-3.667-.173-1.181c-.21-1.439-.159-2.905.15-4.326l.169-.774c-.897-.037-3.05-.28-4.484-.339-1.591 2.186-1.296 6.802-.785 9.846.117.694.956.938 1.454.441z" fill="#35675b"/><path clip-rule="evenodd" d="m462.863 585.149c.078 1.739-1.211 3.21-2.879 3.285l-4.745.212c-1.667.075-3.083-1.274-3.16-3.014-.078-1.739 1.21-3.209 2.878-3.284l4.745-.213c1.668-.074 3.083 1.275 3.161 3.014z" fill="#ffc7a1" fill-rule="evenodd"/><path d="m457.999 579.801c5.501-2 3.501-4.5 4.344-14.694l26.388 3.107c-.44 6.88 2.768 39.286-30.732 23.286-2.499-3-2-8.699 0-11.699z" fill="#f4e97d"/><path d="m458.008 579.801c2.5-.5 5.663-3.023 3.5-16l7.362 1.759c-.451 7.083-1.869 18.741-12.369 23.241-1-1.5 0-7.5 1.507-9z" fill="#d1c870"/><path clip-rule="evenodd" d="m545.029 538.371c.237-.026.455-.051.648-.073.834-.094 1.166-.188 1.569-.3.106-.03.217-.061.343-.094.806-.209 1.16 1.351.354 1.561-.552.143-1.113.272-1.549.352l.002.177 1.023-.115.563-.064c1.054-.119 1.16 1.351.354 1.561-.654.17-1.411.249-1.925.274l.002.228c.671-.017.984-.072 1.355-.136.108-.019.222-.039.351-.059.823-.127 1.274 1.175.064 1.489-.712.185-1.327.205-1.742.218-.149.005-.272.009-.365.02l.001-.018c-1.312.073-3.463.135-3.748-.092-.313-.249-.006-3.201.187-4.645v-.001c1.286-1.212 2.73-2.426 3.197-1.605.188.329-.178.757-.684 1.322z" fill="#ffc7a1" fill-rule="evenodd"/><path clip-rule="evenodd" d="m499.337 531.679c.755-2.098 3.067-3.187 5.164-2.433 11.464 4.121 18.085 5.989 23.302 6.833 4.86.787 8.604.709 14.327.589.365-.007.738-.015 1.12-.023l.164 8.071c-.431.009-.855.018-1.272.027-5.587.119-10.022.213-15.628-.694-5.978-.967-13.169-3.045-24.744-7.206-2.098-.754-3.187-3.066-2.433-5.164z" fill="#35675b" fill-rule="evenodd"/><path clip-rule="evenodd" d="m502.71 529.241c.126-.349.511-.531.861-.405 11.511 4.138 18.302 6.098 23.768 6.997 5.118.842 9.093.759 14.765.64.376-.008.759-.016 1.15-.024l.027 1.346c-.4.008-.792.016-1.176.024-5.649.119-9.74.205-14.985-.658-5.592-.92-12.477-2.915-24.004-7.059-.35-.126-.531-.511-.406-.861z" fill="#407967" fill-rule="evenodd"/><path d="m451.085 592.424 3.549-3.783-.211-1.175c-.257-1.432-.253-2.899.01-4.329l.144-.779c-.897-.008-3.057-.181-4.492-.194-1.52 2.236-1.076 6.84-.467 9.867.139.689.986.906 1.467.393z" fill="#35675b"/><path d="m459.643 561.64c4.971-10.563 20.179-33.725 41.242-41.865 2.55.929 9.17 4.69 15.252 12.305-5.461 11.028-5.484 32.232-4.651 48.445-10.44 4.875-36.907-.427-51.843-18.885z" fill="#539882"/><path d="m459.248 561.731c4.915-10.43 20.587-34 41.478-42.007 1.688.615.499-.057-.344 2.255-17.712 11.879-33.302 29.665-35.285 45.608-2.84-2.701-3.642-3.386-5.849-5.856z" fill="#468677"/><path d="m504.319 538.118c0 2.319-1.88 4.198-4.198 4.198-2.319 0-4.198-1.879-4.198-4.198s1.879-4.198 4.198-4.198c2.318 0 4.198 1.879 4.198 4.198z" fill="#539882"/><path clip-rule="evenodd" d="m542.152 549.835c.238-.013.456-.025.65-.036v-.001c.838-.046 1.175-.12 1.583-.21.108-.024.22-.048.348-.074.817-.163 1.082 1.415.265 1.578-.559.112-1.126.209-1.565.264l-.009.178 1.028-.057.565-.032c1.059-.059 1.082 1.415.265 1.578-.662.133-1.422.168-1.937.164l-.01.228c.67.021.985-.015 1.358-.059.11-.012.224-.025.354-.038.829-.08 1.205 1.245-.02 1.49-.722.144-1.337.129-1.752.119-.149-.004-.272-.007-.365-.002l.002-.018c-1.315-.001-3.464-.062-3.736-.305-.298-.267.176-3.196.451-4.627 0 0 0 0-.001 0 1.353-1.137 2.865-2.267 3.284-1.422.169.34-.221.746-.758 1.282z" fill="#ffc7a1" fill-rule="evenodd"/><path clip-rule="evenodd" d="m499.849 532.36c1.661-1.519 4.208-1.397 5.689.274 7.647 8.627 13.312 12.239 18.206 13.871 4.322 1.442 8.279 1.467 13.41 1.5.857.006 1.747.011 2.677.024l-.187 8.178c-.81-.01-1.627-.014-2.449-.017-5.095-.019-10.424-.04-16.035-1.912-6.667-2.224-13.442-6.895-21.637-16.14-1.481-1.671-1.336-4.258.326-5.778z" fill="#35675b" fill-rule="evenodd"/><path d="m523.86 462.645c3.848 6.431-.27 15.975-9.197 21.316s-19.284 4.458-23.132-1.973c-3.847-6.431.27-15.974 9.198-21.316 8.927-5.341 19.283-4.458 23.131 1.973z" fill="#c5c5c5"/><path d="m497.957 474.942c1.663-2.139 8.582-8 20.204-9.466l-4.011 9.213c-4.081.603-13.034 1.499-16.193.253z" fill="#539882"/><path d="m510.811 471.889c20.284-24.151 46.669 4.799 36.808 23.433-16.978-9.942-31.613-19.764-36.808-23.433z" fill="#e1e1e1"/><path d="m540.951 483.143c3.761 5.735 5.118 9.697 6.4 11.013 1.025 1.052.825 1.843.598 2.107.21 1.883.807 5.927 1.511 7.039-1.573.469-2.234.636-2.368.66l-1.752-7.216z" fill="#ffc7a1"/><path d="m551.682 517.748c-2.106-5.075 2.979-12.848-4.186-16.303l-2.838 14.872c.224.793 2.239 1.771 7.024 1.431z" fill="#ffc7a1"/><path d="m545.933 496.853c3.258 17.587-5.189 33.898-18.868 36.432-13.678 2.535-27.408-9.668-30.666-27.254-3.259-17.587 5.189-33.898 18.867-36.432s27.408 9.668 30.667 27.254z" fill="#ffc7a1"/><g filter="url(#g)"><path d="m551.218 505.632c.121.651-1.102 1.424-2.73 1.725-1.628.302-3.046.019-3.167-.633-.121-.651 1.102-1.424 2.73-1.725 1.628-.302 3.046-.019 3.167.633z" fill="#fca"/></g><path clip-rule="evenodd" d="m553.15 504.75c.471-1.376.635-3.372.22-5.614s-1.284-4.046-2.216-5.163c-.997-1.194-1.627-1.161-1.698-1.147-.07.013-.671.207-1.174 1.679-.47 1.376-.635 3.372-.219 5.614.415 2.242 1.284 4.046 2.216 5.163.997 1.194 1.627 1.161 1.698 1.148.07-.014.671-.208 1.173-1.68zm-.686 4.313c2.932-.543 4.525-5.208 3.56-10.419-.966-5.211-4.125-8.995-7.056-8.452-2.931.544-4.524 5.208-3.559 10.419.966 5.211 4.124 8.995 7.055 8.452z" fill="#83c1a7" fill-rule="evenodd"/><path d="m551.314 508.364c-4.268-3.169-4.482-10.466-10.84-20.548l1.784 26.16c1.407-.762 5.187-2.952 9.056-5.612z" fill="#ffc7a1"/><path d="m504.263 515.552c.483 2.605-1.502 5.157-4.433 5.701-2.931.543-5.699-1.129-6.182-3.735-.482-2.605 1.503-5.157 4.434-5.701 2.931-.543 5.698 1.129 6.181 3.735z" fill="#ffc7a1"/><path d="m552.147 527.973c3.507-4.361-1.336-11.234-3.099-16.73-8.06 3.544-29.018 13.263-37.504 18.526 9.755 6.477 34.214 6.152 40.603-1.796z" fill="#ffc7a1"/><path clip-rule="evenodd" d="m544.626 497.895c-.531-1.269-1.086-2.593-1.671-3.939l.876-.371c.598 1.374 1.156 2.708 1.688 3.98.793 1.895 1.529 3.652 2.25 5.2.599 1.287 1.179 2.409 1.761 3.321.584.917 1.153 1.596 1.721 2.023l.495.371-3.48 2.581-.571-.742 2.51-1.862c-.52-.493-1.011-1.131-1.483-1.872-.613-.962-1.213-2.125-1.82-3.427-.726-1.559-1.475-3.35-2.276-5.263z" fill="#ffb685" fill-rule="evenodd"/><path clip-rule="evenodd" d="m545.643 505.019c-1.008.436-2.241 1.117-3.948 2.379l-1.55-2.273c1.833-1.356 3.235-2.144 4.453-2.67.947-.409 1.782-.656 2.529-.877.197-.058.387-.115.572-.172l.789 2.659c-.232.072-.453.137-.668.201-.726.215-1.383.41-2.177.753z" fill="#91d7b9" fill-rule="evenodd"/><path d="m542 516.797c2.5-.5 1.831-.201 4-.996" stroke="#ff8281" stroke-linecap="round"/><path d="m535.521 513.701c.362 1.951-.967 3.832-2.968 4.203-2 .371-3.915-.91-4.277-2.861-.361-1.95.968-3.832 2.968-4.202 2.001-.371 3.916.91 4.277 2.86z" fill="#fca7a7"/><path clip-rule="evenodd" d="m532.439 516.212c4.153-.769 7.304-5.326 6.307-10.706s-5.571-8.505-9.723-7.735c-4.153.769-7.304 5.325-6.307 10.705s5.571 8.505 9.723 7.736zm.477 2.573c5.862-1.086 9.636-7.247 8.43-13.76-1.207-6.514-6.938-10.914-12.8-9.828-5.862 1.087-9.636 7.247-8.429 13.761 1.207 6.513 6.937 10.913 12.799 9.827z" fill="#91d7b9" fill-rule="evenodd"/><path d="m498.325 511.571c2.939 1.041 18.432 3.155 30.94-25.67-1.261-3.92-6.667-12.268-18.209-14.298-19.582 7.933-15.408 39.104-12.731 39.968z" fill="#e1e1e1"/><path d="m546.237 491.921c-5.721.355-9.363-5.553-17.533-5.92-1.962-4.338-5.41-10.707-18.016-14.766 7.203-4.86 31.507-1.133 35.549 20.686z" fill="#e1e1e1"/><path d="m497.698 510.671c-26.266-16.789-4.548-44.748 14.108-39.998-6.568 19.089-12.307 34.573-14.108 39.998z" fill="#e1e1e1"/><path d="m502.886 521.299c.181.977-.464 1.916-1.441 2.097s-1.916-.464-2.097-1.441.465-1.916 1.442-2.097 1.915.464 2.096 1.441z" fill="#35675b"/><path d="m489.028 492.555c-.367-3.476.122-5.337 3.746-12.689-.944 3.56-.515 6.776.31 9.227.438 1.303-.149 4.062-1.41 4.391-.822.215-2.552-.037-2.646-.929z" fill="#c4c4c4"/><path clip-rule="evenodd" d="m527.909 485.136c-.026-.496.361-.921.863-.949 1.52-.084 3.117.365 4.668.993 1.447.587 2.942 1.37 4.383 2.124.108.056.216.113.323.169 1.563.817 3.054 1.581 4.452 2.09 1.406.512 2.603.722 3.595.538.494-.092.969.23 1.059.718.091.489-.237.959-.732 1.051-1.471.273-3.039-.064-4.559-.618-1.529-.557-3.125-1.378-4.672-2.187-.102-.053-.203-.106-.304-.159-1.462-.765-2.881-1.508-4.243-2.06-1.463-.593-2.76-.923-3.877-.862-.502.028-.93-.352-.956-.848z" fill="#c4c4c4" fill-rule="evenodd"/><path d="m540.614 469.838c-2.198-1.874-6.294-4.351-11.635-5.217 3.067 1.195 5.365 3.386 7.642 7.028.574.918 1.819 1.178 2.904.702 1.29-.566 2.095-1.655 1.089-2.513z" fill="#f0f0f0"/><g clip-rule="evenodd" fill-rule="evenodd"><path d="m498.381 464.414c.164.193.156.489-.017.661l-.012.012c-1.497 1.484-5.232 5.189-5.467 10.738-.011.258-.213.451-.451.431s-.422-.245-.412-.503c.251-5.927 4.204-9.847 5.708-11.337.013-.014.027-.027.04-.04.174-.172.447-.155.611.038z" fill="#a8a8a8"/><path d="m515.738 458.853c.027-.251.233-.422.461-.382 2.052.358 4.484 1.626 6.285 4.232.142.205.111.493-.069.642s-.441.104-.583-.102c-1.648-2.385-3.87-3.539-5.731-3.864-.228-.039-.39-.275-.363-.526z" fill="#e1e1e1"/><path d="m532.921 488.526c.291.4.203.961-.198 1.253l-8.211 5.973c-.4.291-.961.202-1.253-.198-.291-.401-.203-.962.198-1.253l8.211-5.973c.4-.291.961-.203 1.253.198z" fill="#969696"/><path d="m549.105 489.774c-.137.476-.634.751-1.11.614l-7.401-2.132c-.476-.137-.751-.634-.614-1.11s.634-.751 1.11-.614l7.402 2.132c.476.137.75.634.613 1.11z" fill="#969696"/><path d="m493.719 511.284c-.046-.663.513-1.255 1.249-1.322l26.112-2.395.167 2.399-26.113 2.395c-.735.068-1.369-.415-1.415-1.077z" fill="#91d7b9"/></g><path d="m513.692 507.186c-12.199 9.12-15.174 2.582-17.896 2.172 6.323-3.001 14.565-2.699 17.896-2.172z" fill="#e1e1e1"/><path clip-rule="evenodd" d="m523.714 490.281c.411.297.512.878.226 1.297-3.994 5.84-6.943 9.531-9.895 12.15-2.974 2.638-5.913 4.156-9.818 5.719-.465.186-.992-.052-1.178-.531s.04-1.017.505-1.203c3.808-1.524 6.539-2.95 9.298-5.397 2.779-2.467 5.626-6.004 9.601-11.817.286-.419.851-.516 1.261-.218z" fill="#c4c4c4" fill-rule="evenodd"/><path d="m526.144 482.219c-1.376-2.586-6.362-8.668-15.124-11.4-.952-.297-3.55-.999-6.586-.436 6.412.705 14.587 4.871 21.71 11.836z" fill="#c4c4c4"/><path clip-rule="evenodd" d="m499.174 514.438c.054.214-.083.432-.306.488-1.197.296-1.698.832-1.897 1.314-.209.506-.121 1.045.028 1.381.09.202-.008.439-.219.528-.212.09-.456-.001-.546-.203-.213-.478-.346-1.24-.036-1.992.321-.777 1.077-1.457 2.473-1.803.224-.056.449.073.503.287z" fill="#ffb685" fill-rule="evenodd"/><path d="m526.5 506.801c3.6 1.6 7.167-.667 8.5-2" stroke="#ffb685" stroke-linecap="round"/></g></svg>