<svg fill="none" height="684" viewBox="0 0 1194 684" width="1194" xmlns="http://www.w3.org/2000/svg" xmlns:xlink="http://www.w3.org/1999/xlink"><filter id="a" color-interpolation-filters="sRGB" filterUnits="userSpaceOnUse" height="280.857" width="448" x="763" y="268"><feFlood flood-opacity="0" result="BackgroundImageFix"/><feColorMatrix in="SourceAlpha" type="matrix" values="0 0 0 0 0 0 0 0 0 0 0 0 0 0 0 0 0 0 127 0"/><feOffset dx="8"/><feGaussianBlur stdDeviation="4"/><feColorMatrix type="matrix" values="0 0 0 0 0 0 0 0 0 0 0 0 0 0 0 0 0 0 0.2 0"/><feBlend in2="BackgroundImageFix" mode="normal" result="effect1_dropShadow"/><feBlend in="SourceGraphic" in2="effect1_dropShadow" mode="normal" result="shape"/></filter><filter id="b" color-interpolation-filters="sRGB" filterUnits="userSpaceOnUse" height="205" width="213" x="754" y="129"><feFlood flood-opacity="0" result="BackgroundImageFix"/><feColorMatrix in="SourceAlpha" type="matrix" values="0 0 0 0 0 0 0 0 0 0 0 0 0 0 0 0 0 0 127 0"/><feOffset dx="12" dy="4"/><feGaussianBlur stdDeviation="2"/><feColorMatrix type="matrix" values="0 0 0 0 0 0 0 0 0 0 0 0 0 0 0 0 0 0 0.1 0"/><feBlend in2="BackgroundImageFix" mode="normal" result="effect1_dropShadow"/><feBlend in="SourceGraphic" in2="effect1_dropShadow" mode="normal" result="shape"/></filter><filter id="c" color-interpolation-filters="sRGB" filterUnits="userSpaceOnUse" height="450.531" width="1206" x="0" y="98"><feFlood flood-opacity="0" result="BackgroundImageFix"/><feColorMatrix in="SourceAlpha" type="matrix" values="0 0 0 0 0 0 0 0 0 0 0 0 0 0 0 0 0 0 127 0"/><feOffset dx="8" dy="-1"/><feGaussianBlur stdDeviation="2"/><feColorMatrix type="matrix" values="0 0 0 0 0 0 0 0 0 0 0 0 0 0 0 0 0 0 0.2 0"/><feBlend in2="BackgroundImageFix" mode="normal" result="effect1_dropShadow"/><feBlend in="SourceGraphic" in2="effect1_dropShadow" mode="normal" result="shape"/></filter><filter id="d" color-interpolation-filters="sRGB" filterUnits="userSpaceOnUse" height="580.816" width="554.485" x="328" y="7"><feFlood flood-opacity="0" result="BackgroundImageFix"/><feColorMatrix in="SourceAlpha" type="matrix" values="0 0 0 0 0 0 0 0 0 0 0 0 0 0 0 0 0 0 127 0"/><feOffset dx="8"/><feGaussianBlur stdDeviation="4"/><feColorMatrix type="matrix" values="0 0 0 0 0 0 0 0 0 0 0 0 0 0 0 0 0 0 0.2 0"/><feBlend in2="BackgroundImageFix" mode="normal" result="effect1_dropShadow"/><feBlend in="SourceGraphic" in2="effect1_dropShadow" mode="normal" result="shape"/></filter><filter id="e" color-interpolation-filters="sRGB" filterUnits="userSpaceOnUse" height="111.108" width="79.7287" x="562" y="461"><feFlood flood-opacity="0" result="BackgroundImageFix"/><feColorMatrix in="SourceAlpha" type="matrix" values="0 0 0 0 0 0 0 0 0 0 0 0 0 0 0 0 0 0 127 0"/><feOffset dx="2"/><feGaussianBlur stdDeviation="2"/><feColorMatrix type="matrix" values="0 0 0 0 0 0 0 0 0 0 0 0 0 0 0 0 0 0 0.2 0"/><feBlend in2="BackgroundImageFix" mode="normal" result="effect1_dropShadow"/><feBlend in="SourceGraphic" in2="effect1_dropShadow" mode="normal" result="shape"/></filter><filter id="f" color-interpolation-filters="sRGB" filterUnits="userSpaceOnUse" height="185.376" width="104.724" x="398" y="428"><feFlood flood-opacity="0" result="BackgroundImageFix"/><feColorMatrix in="SourceAlpha" type="matrix" values="0 0 0 0 0 0 0 0 0 0 0 0 0 0 0 0 0 0 127 0"/><feOffset dx="4"/><feGaussianBlur stdDeviation="3"/><feColorMatrix type="matrix" values="0 0 0 0 0 0 0 0 0 0 0 0 0 0 0 0 0 0 0.2 0"/><feBlend in2="BackgroundImageFix" mode="normal" result="effect1_dropShadow"/><feBlend in="SourceGraphic" in2="effect1_dropShadow" mode="normal" result="shape"/></filter><filter id="g" color-interpolation-filters="sRGB" filterUnits="userSpaceOnUse" height="25.4718" width="27.8485" x="469.142" y="472.43"><feFlood flood-opacity="0" result="BackgroundImageFix"/><feBlend in="SourceGraphic" in2="BackgroundImageFix" mode="normal" result="shape"/><feGaussianBlur result="effect1_foregroundBlur" stdDeviation="5.35261"/></filter><linearGradient id="h"><stop offset="0" stop-color="#ffbd3a"/><stop offset="1" stop-color="#ff993a"/></linearGradient><linearGradient id="i" gradientUnits="userSpaceOnUse" x1="781.466" x2="781.466" xlink:href="#h" y1="283.93" y2="569.45"/><linearGradient id="j" gradientUnits="userSpaceOnUse" x1="413.069" x2="413.069" xlink:href="#h" y1="283.93" y2="569.45"/><linearGradient id="k" gradientUnits="userSpaceOnUse" x1="598.625" x2="598.625" xlink:href="#h" y1="210" y2="569.45"/><path d="m67.5 589.5h-4v4.5z" fill="#acdeb6"/><path d="m83.5 601 2-3 1.5 3z" fill="#acdeb6"/><path d="m524.5 586.5h-4v4.5z" fill="#acdeb6"/><path d="m540.5 598 2-3 1.5 3z" fill="#acdeb6"/><path d="m289.336 605.367 3.998.113.127-4.498z" fill="#acdeb6"/><path d="m273.667 593.42-2.084 2.942-1.415-3.041z" fill="#acdeb6"/><path d="m746.336 602.367 3.998.113.127-4.498z" fill="#acdeb6"/><path d="m730.667 590.42-2.084 2.942-1.415-3.041z" fill="#acdeb6"/><path d="m1033.65 575.892-4-.117-.13 4.498z" fill="#acdeb6"/><path d="m1049.3 587.854 2.09-2.941 1.41 3.043z" fill="#acdeb6"/><path d="m45.0621 607.246 3.9984.113.1273-4.498z" fill="#acdeb6"/><path d="m29.3936 595.299-2.084 2.942-1.4146-3.041z" fill="#acdeb6"/><path d="m502.062 604.246 3.999.113.127-4.498z" fill="#acdeb6"/><path d="m486.394 592.299-2.084 2.942-1.415-3.041z" fill="#acdeb6"/><path d="m441.671 615.855 2.763 2.893 3.254-3.108z" fill="#acdeb6"/><path d="m438.938 596.342-3.551.625 1.133-3.156z" fill="#acdeb6"/><path d="m100.492 564.047 3.998.113.127-4.498z" fill="#acdeb6"/><path d="m84.8233 552.099-2.084 2.943-1.4146-3.042z" fill="#acdeb6"/><path d="m557.492 561.047 3.998.113.127-4.498z" fill="#acdeb6"/><path d="m541.823 549.099-2.084 2.943-1.414-3.042z" fill="#acdeb6"/><path d="m348.095 583.509 2.135 3.382 3.805-2.403z" fill="#acdeb6"/><path d="m349.275 563.84-3.604-.089 1.735-2.87z" fill="#acdeb6"/><path d="m805.095 580.509 2.135 3.382 3.805-2.403z" fill="#acdeb6"/><path d="m806.275 560.84-3.604-.089 1.735-2.87z" fill="#acdeb6"/><path d="m974.869 597.698-2.133-3.384-3.807 2.4z" fill="#acdeb6"/><path d="m973.671 617.366 3.605.092-1.739 2.869z" fill="#acdeb6"/><path d="m1143.86 565.384-2.13-3.384-3.81 2.399z" fill="#acdeb6"/><path d="m1142.66 585.052 3.61.092-1.74 2.869z" fill="#acdeb6"/><path d="m398.331 579.845-3.972-.474-.532 4.468z" fill="#acdeb6"/><path d="m412.857 593.158 2.341-2.742 1.134 3.157z" fill="#acdeb6"/><path d="m855.331 576.845-3.972-.474-.532 4.468z" fill="#acdeb6"/><path d="m869.857 590.158 2.341-2.742 1.134 3.157z" fill="#acdeb6"/><path d="m924.628 601.318 3.972.477.536-4.468z" fill="#acdeb6"/><path d="m910.114 587.991-2.343 2.74-1.132-3.157z" fill="#acdeb6"/><path d="m223.333 552.474-3.972-.474-.533 4.468z" fill="#acdeb6"/><path d="m237.859 565.787 2.341-2.742 1.134 3.157z" fill="#acdeb6"/><path d="m680.333 549.474-3.972-.474-.533 4.468z" fill="#acdeb6"/><path d="m694.859 562.787 2.341-2.742 1.134 3.157z" fill="#acdeb6"/><path d="m1099.6 628.843 3.97.477.54-4.468z" fill="#acdeb6"/><path d="m1085.09 615.517-2.35 2.739-1.13-3.157z" fill="#acdeb6"/><path d="m139.197 591.933-1.095-3.847-4.328 1.233z" fill="#acdeb6"/><path d="m132.52 610.471 3.433 1.102-2.475 2.264z" fill="#acdeb6"/><path d="m596.197 588.933-1.095-3.847-4.328 1.233z" fill="#acdeb6"/><path d="m589.52 607.471 3.433 1.102-2.475 2.264z" fill="#acdeb6"/><path d="m217.735 600.909.987 3.876 4.361-1.11z" fill="#acdeb6"/><path d="m224.934 582.567-3.4-1.199 2.537-2.193z" fill="#acdeb6"/><path d="m674.736 597.909.987 3.876 4.361-1.11z" fill="#acdeb6"/><path d="m681.935 579.567-3.4-1.199 2.537-2.193z" fill="#acdeb6"/><path d="m1105.24 580.416-.98-3.877-4.36 1.106z" fill="#acdeb6"/><path d="m1098.03 598.752 3.4 1.201-2.54 2.192z" fill="#acdeb6"/><path d="m182.808 619.733.987 3.876 4.361-1.109z" fill="#acdeb6"/><path d="m190.007 601.391-3.4-1.198 2.537-2.194z" fill="#acdeb6"/><path d="m639.808 616.733.987 3.876 4.361-1.109z" fill="#acdeb6"/><path d="m647.007 598.391-3.4-1.198 2.537-2.194z" fill="#acdeb6"/><path d="m167.808 582.733.987 3.876 4.361-1.109z" fill="#acdeb6"/><path d="m175.007 564.391-3.4-1.198 2.537-2.194z" fill="#acdeb6"/><path d="m624.808 579.733.987 3.876 4.361-1.109z" fill="#acdeb6"/><path d="m632.007 561.391-3.4-1.198 2.537-2.194z" fill="#acdeb6"/><path d="m36 581.5v-4l3.5 1.5z" fill="#acdeb6"/><path d="m493 578.5v-4l3.5 1.5z" fill="#acdeb6"/><path d="m320.597 614.256-.113 3.998-3.456-1.598z" fill="#acdeb6"/><path d="m777.597 611.256-.113 3.998-3.456-1.598z" fill="#acdeb6"/><path d="m1002.39 566.977.12-3.998 3.45 1.601z" fill="#acdeb6"/><path d="m76.323 616.134-.113 3.999-3.4562-1.599z" fill="#acdeb6"/><path d="m533.322 613.134-.113 3.999-3.456-1.599z" fill="#acdeb6"/><path d="m11.6121 563.099-.1131 3.999-3.45618-1.599z" fill="#acdeb6"/><path d="m468.611 560.099-.113 3.999-3.456-1.599z" fill="#acdeb6"/><path d="m358.148 614.415-3.382 2.136-.601-3.76z" fill="#acdeb6"/><path d="m815.148 611.415-3.382 2.136-.601-3.76z" fill="#acdeb6"/><path d="m964.841 566.783 3.384-2.133.597 3.761z" fill="#acdeb6"/><path d="m953.001 585.133 3.384-2.133.597 3.761z" fill="#acdeb6"/><path d="m270.251 574.96-3.382 2.136-.6-3.761z" fill="#acdeb6"/><path d="m727.251 571.96-3.382 2.136-.6-3.761z" fill="#acdeb6"/><path d="m1052.7 606.318 3.39-2.132.6 3.76z" fill="#acdeb6"/><path d="m367.999 568.169.474-3.972 3.297 1.904z" fill="#acdeb6"/><path d="m824.999 565.169.474-3.972 3.297 1.904z" fill="#acdeb6"/><path d="m954.95 613.021-.477 3.971-3.296-1.907z" fill="#acdeb6"/><path d="m851.952 628.417-.477 3.972-3.296-1.907z" fill="#acdeb6"/><path d="m1117.95 594.825-.48 3.972-3.29-1.907z" fill="#acdeb6"/><path d="m1157.95 608.417-.48 3.972-3.29-1.907z" fill="#acdeb6"/><path d="m138.262 559.447 3.847-1.095-.484 3.777z" fill="#acdeb6"/><path d="m595.262 556.447 3.847-1.095-.484 3.777z" fill="#acdeb6"/><path d="m217.751 633.408-3.876.987.591-3.762z" fill="#acdeb6"/><path d="m674.751 630.408-3.876.987.591-3.762z" fill="#acdeb6"/><path d="m1105.26 547.915 3.87-.983-.59 3.761z" fill="#acdeb6"/><path d="m112.74 630.392-3.877.987.591-3.762z" fill="#acdeb6"/><path d="m569.74 627.392-3.877.987.591-3.762z" fill="#acdeb6"/><path d="m42.5 560-5 4 5 3z" fill="#acdeb6"/><path d="m499.5 557-5 4 5 3z" fill="#acdeb6"/><path d="m313.49 635.562 5.111-3.857-4.913-3.14z" fill="#acdeb6"/><path d="m770.49 632.562 5.111-3.857-4.913-3.14z" fill="#acdeb6"/><path d="m1009.52 545.677-5.12 3.853 4.91 3.144z" fill="#acdeb6"/><path d="m262 633.997 5.111-3.857-4.913-3.14z" fill="#acdeb6"/><path d="m719 630.997 5.111-3.857-4.913-3.14z" fill="#acdeb6"/><path d="m1061.01 547.286-5.12 3.853 4.91 3.144z" fill="#acdeb6"/><path d="m294 560.997 5.111-3.857-4.913-3.14z" fill="#acdeb6"/><path d="m751 557.997 5.111-3.857-4.913-3.14z" fill="#acdeb6"/><path d="m1028.94 620.259-5.11 3.853 4.91 3.144z" fill="#acdeb6"/><path d="m69.2178 637.441 5.1111-3.857-4.9132-3.141z" fill="#acdeb6"/><path d="m526.217 634.441 5.111-3.857-4.913-3.141z" fill="#acdeb6"/><path d="m336.5 620.397 6.052 2.092-.133-5.829z" fill="#acdeb6"/><path d="m793.5 617.397 6.052 2.092-.133-5.829z" fill="#acdeb6"/><path d="m986.494 560.82-6.05-2.097.128 5.829z" fill="#acdeb6"/><path d="m890.588 625.23-6.05-2.097.128 5.829z" fill="#acdeb6"/><path d="m889.588 554.529-6.05-2.097.128 5.829z" fill="#acdeb6"/><path d="m292 622.737 6.052 2.092-.133-5.829z" fill="#acdeb6"/><path d="m749 619.737 6.052 2.092-.133-5.829z" fill="#acdeb6"/><path d="m1031 558.521-6.05-2.097.13 5.829z" fill="#acdeb6"/><path d="m934.09 552.23-6.05-2.097.128 5.829z" fill="#acdeb6"/><path d="m276 553.737 6.052 2.092-.133-5.829z" fill="#acdeb6"/><path d="m733 550.737 6.052 2.092-.133-5.829z" fill="#acdeb6"/><path d="m1046.94 627.535-6.05-2.098.12 5.83z" fill="#acdeb6"/><path d="m377 547.592-5.438 3.38 4.609 3.571z" fill="#acdeb6"/><path d="m834 544.592-5.438 3.38 4.609 3.571z" fill="#acdeb6"/><path d="m945.93 633.589 5.442-3.375-4.607-3.575z" fill="#acdeb6"/><path d="m1108.93 615.394 5.44-3.375-4.6-3.575z" fill="#acdeb6"/><path d="m160.721 559.809-5.216-3.713-1.516 5.63z" fill="#acdeb6"/><path d="m617.721 556.809-5.216-3.713-1.516 5.63z" fill="#acdeb6"/><path d="m195.312 632.412 5.109 3.859 1.675-5.585z" fill="#acdeb6"/><path d="m652.312 629.412 5.109 3.859 1.675-5.585z" fill="#acdeb6"/><path d="m1127.69 548.931-5.1-3.864-1.68 5.584z" fill="#acdeb6"/><path d="m1173.01 629.847-5.1-3.864-1.68 5.584z" fill="#acdeb6"/><path d="m1174.01 555.847-5.1-3.864-1.68 5.584z" fill="#acdeb6"/><g fill="#e7e88c"><path d="m80.5 569-3 1.5 3 4z"/><path d="m62 610.5-2.5 3 2.5 2z"/><path d="m112 570.5-4.5 4 3.5 3.5z"/><path d="m96.5 588-2-2.5-1 4z"/><path d="m537.5 566-3 1.5 3 4z"/><path d="m519 607.5-2.5 3 2.5 2z"/><path d="m569 567.5-4.5 4 3.5 3.5z"/><path d="m553.5 585-2-2.5-1 4z"/><path d="m275.76 625.492 3.042-1.414-2.886-4.083z"/><path d="m295.426 584.532 2.584-2.928-2.443-2.07z"/><path d="m244.315 623.102 4.612-3.871-3.4-3.597z"/><path d="m260.304 606.048 1.928 2.555 1.113-3.97z"/><path d="m732.76 622.492 3.042-1.414-2.886-4.083z"/><path d="m752.426 581.532 2.584-2.928-2.443-2.07z"/><path d="m701.315 620.102 4.612-3.871-3.4-3.597z"/><path d="m717.304 603.048 1.928 2.555 1.113-3.97z"/><path d="m1047.24 555.78-3.04 1.412 2.88 4.086z"/><path d="m1027.54 596.723-2.59 2.926 2.44 2.072z"/><path d="m1078.68 558.198-4.61 3.867 3.39 3.601z"/><path d="m1062.68 575.239-1.93-2.558-1.11 3.97z"/><path d="m31.4879 627.371 3.0412-1.414-2.8857-4.084z"/><path d="m51.1536 586.411 2.5838-2.928-2.4424-2.07z"/><path d="m.0428758 624.981 4.6112742-3.871-3.39966-3.597z"/><path d="m16.0314 607.927 1.9285 2.555 1.1127-3.97z"/><path d="m488.487 624.371 3.041-1.414-2.886-4.084z"/><path d="m508.153 583.411 2.583-2.928-2.442-2.07z"/><path d="m457.042 621.981 4.611-3.871-3.399-3.597z"/><path d="m473.03 604.927 1.929 2.555 1.113-3.97z"/><path d="m434.487 632.371 3.041-1.414-2.886-4.084z"/><path d="m454.153 591.411 2.583-2.928-2.442-2.07z"/><path d="m403.042 629.981 4.611-3.871-3.399-3.597z"/><path d="m419.03 612.927 1.929 2.555 1.113-3.97z"/><path d="m323.818 583.463 2.87 1.736 1.781-4.673z"/><path d="m368.785 576.946 3.872.512.356-3.182z"/><path d="m308.267 556.028 5.785 1.669 1.091-4.828z"/><path d="m331.34 559.79-1.046 3.025 3.916-1.29z"/><path d="m780.818 580.463 2.87 1.736 1.781-4.673z"/><path d="m825.785 573.946 3.872.512.356-3.182z"/><path d="m765.267 553.028 5.785 1.669 1.091-4.828z"/><path d="m788.34 556.79-1.046 3.025 3.916-1.29z"/><path d="m999.142 597.766-2.868-1.738-1.785 4.67z"/><path d="m954.17 604.243-3.871-.516-.359 3.182z"/><path d="m1014.67 625.214-5.78-1.674-1.1 4.827z"/><path d="m991.6 621.432 1.048-3.025-3.917 1.287z"/><path d="m1153.99 586.649-2.4 2.347 4.09 2.889z"/><path d="m1149.09 631.821-1.46 3.622 2.99 1.138z"/><path d="m1184.44 578.428-3.06 5.186 4.4 2.26z"/><path d="m1175.04 599.835-2.67-1.767.28 4.114z"/><path d="m322.818 632.463 2.87 1.736 1.781-4.673z"/><path d="m367.785 625.946 3.872.512.356-3.182z"/><path d="m307.267 605.028 5.785 1.669 1.091-4.828z"/><path d="m330.34 608.79-1.046 3.025 3.916-1.29z"/><path d="m779.818 629.463 2.87 1.736 1.781-4.673z"/><path d="m824.785 622.946 3.872.512.356-3.182z"/><path d="m764.267 602.028 5.785 1.669 1.091-4.828z"/><path d="m787.34 605.79-1.046 3.025 3.916-1.29z"/><path d="m1000.19 548.766-2.871-1.738-1.785 4.67z"/><path d="m955.215 555.243-3.871-.516-.359 3.182z"/><path d="m1015.71 576.214-5.78-1.674-1.09 4.827z"/><path d="m992.645 572.432 1.048-3.025-3.917 1.287z"/><path d="m245.819 579.463 2.87 1.736 1.781-4.673z"/><path d="m290.786 572.946 3.872.512.356-3.182z"/><path d="m230.268 552.028 5.785 1.669 1.091-4.828z"/><path d="m253.341 555.79-1.046 3.025 3.916-1.29z"/><path d="m702.818 576.463 2.87 1.736 1.781-4.673z"/><path d="m747.785 569.946 3.872.512.356-3.182z"/><path d="m687.267 549.028 5.785 1.669 1.091-4.828z"/><path d="m710.34 552.79-1.046 3.025 3.916-1.29z"/><path d="m1077.14 601.836-2.87-1.738-1.78 4.671z"/><path d="m1032.17 608.313-3.87-.516-.36 3.182z"/><path d="m1092.67 629.285-5.79-1.674-1.09 4.827z"/><path d="m1069.6 625.503 1.05-3.025-3.92 1.287z"/><path d="m104.819 636.463 2.87 1.736 1.781-4.673z"/><path d="m149.786 629.946 3.872.512.356-3.182z"/><path d="m89.2683 609.028 5.7848 1.669 1.0905-4.828z"/><path d="m112.341 612.79-1.046 3.025 3.916-1.29z"/><path d="m561.818 633.463 2.87 1.736 1.781-4.673z"/><path d="m606.785 626.946 3.872.512.356-3.182z"/><path d="m546.267 606.028 5.785 1.669 1.091-4.828z"/><path d="m569.34 609.79-1.046 3.025 3.916-1.29z"/><path d="m12.8193 578.463 2.8702 1.736 1.7802-4.673z"/><path d="m57.7863 571.946 3.8715.512.3561-3.182z"/><path d="m-2.73173 551.028 5.78484 1.669 1.09049-4.828z"/><path d="m20.341 554.79-1.0459 3.025 3.916-1.29z"/><path d="m469.818 575.463 2.87 1.736 1.781-4.673z"/><path d="m514.785 568.946 3.872.512.356-3.182z"/><path d="m454.267 548.028 5.785 1.669 1.091-4.828z"/><path d="m477.34 551.79-1.046 3.025 3.916-1.29z"/><path d="m413.667 561.028-3.157 1.134 2.505 4.327z"/><path d="m390.383 600.045-2.838 2.683 2.246 2.282z"/><path d="m444.767 566.247-4.942 3.439 3.061 3.89z"/><path d="m427.304 581.789-1.69-2.72-1.466 3.854z"/><path d="m870.667 558.028-3.157 1.134 2.505 4.327z"/><path d="m847.383 597.045-2.838 2.683 2.246 2.282z"/><path d="m901.767 563.247-4.942 3.439 3.061 3.89z"/><path d="m884.304 578.789-1.69-2.72-1.466 3.854z"/><path d="m909.275 620.122 3.157-1.132-2.501-4.329z"/><path d="m932.594 581.125 2.84-2.68-2.244-2.284z"/><path d="m878.179 614.875 4.945-3.435-3.058-3.893z"/><path d="m895.656 599.349 1.687 2.72 1.47-3.852z"/><path d="m1152.01 545.064-3.35.058.98 4.903z"/><path d="m1117.41 574.515-3.55 1.627 1.4 2.883z"/><path d="m1179.78 560.012-5.78 1.666 1.64 4.668z"/><path d="m1158.25 569.109-.73-3.119-2.63 3.177z"/><path d="m162.474 598.82-2.265-2.474-3.025 3.98z"/><path d="m117.494 592.395-3.57-1.583-1.239 2.952z"/><path d="m169.659 629.526-5.079-3.232-2.408 4.325z"/><path d="m148.583 619.412 1.857-2.608-4.121.134z"/><path d="m619.475 595.82-2.265-2.474-3.025 3.98z"/><path d="m574.495 589.395-3.57-1.583-1.239 2.952z"/><path d="m626.66 626.526-5.079-3.232-2.408 4.325z"/><path d="m605.584 616.412 1.856-2.608-4.12.134z"/><path d="m194.663 593.367 2.193 2.538 3.137-3.894z"/><path d="m239.444 601.062 3.523 1.683 1.322-2.917z"/><path d="m188.348 562.47 4.987 3.375 2.528-4.255z"/><path d="m209.13 573.176-1.929 2.555 4.123-.018z"/><path d="m651.663 590.367 2.193 2.538 3.137-3.894z"/><path d="m696.444 598.062 3.523 1.683 1.322-2.917z"/><path d="m645.348 559.47 4.987 3.375 2.528-4.255z"/><path d="m666.13 570.176-1.929 2.555 4.123-.018z"/><path d="m1128.31 587.975-2.19-2.539-3.14 3.891z"/><path d="m1083.54 580.241-3.53-1.686-1.32 2.915z"/><path d="m1134.6 618.878-4.99-3.379-2.53 4.253z"/><path d="m1113.82 608.154 1.94-2.553-4.13.013z"/><path d="m177.207 553.784-2.715-1.969-2.164 4.507z"/><path d="m131.853 556.527-3.815-.834-.62 3.141z"/><path d="m190.415 582.42-5.625-2.146-1.489 4.721z"/><path d="m167.737 576.747 1.295-2.928-4.01.959z"/><path d="m634.208 550.784-2.715-1.969-2.164 4.507z"/><path d="m588.854 553.527-3.815-.834-.62 3.141z"/><path d="m647.416 579.42-5.625-2.146-1.489 4.721z"/><path d="m624.738 573.747 1.295-2.928-4.01.959z"/></g><path d="m669.719 681.5h4v4.5z" fill="#acdeb6"/><path d="m653.719 693-2-3-1.5 3z" fill="#acdeb6"/><path d="m160.572 670.892 3.998-.117.132 4.498z" fill="#acdeb6"/><path d="m144.914 682.854-2.086-2.941-1.412 3.043z" fill="#acdeb6"/><path d="m1093.73 659.047-4 .113-.13-4.498z" fill="#acdeb6"/><path d="m1109.4 647.099 2.08 2.943 1.41-3.042z" fill="#acdeb6"/><path d="m636.727 656.047-3.998.113-.128-4.498z" fill="#acdeb6"/><path d="m652.395 644.099 2.084 2.943 1.415-3.042z" fill="#acdeb6"/><path d="m846.124 678.509-2.136 3.382-3.805-2.403z" fill="#acdeb6"/><path d="m844.944 658.84 3.604-.089-1.735-2.87z" fill="#acdeb6"/><path d="m389.124 675.509-2.136 3.382-3.805-2.403z" fill="#acdeb6"/><path d="m387.944 655.84 3.604-.089-1.735-2.87z" fill="#acdeb6"/><path d="m50.3575 660.384 2.1327-3.384 3.807 2.399z" fill="#acdeb6"/><path d="m51.5553 680.052-3.6044.092 1.7382 2.869z" fill="#acdeb6"/><path d="m795.888 674.845 3.971-.474.533 4.468z" fill="#acdeb6"/><path d="m781.362 688.158-2.341-2.742-1.135 3.157z" fill="#acdeb6"/><path d="m338.888 671.845 3.971-.474.533 4.468z" fill="#acdeb6"/><path d="m324.362 685.158-2.341-2.742-1.135 3.157z" fill="#acdeb6"/><path d="m269.591 696.318-3.972.477-.537-4.468z" fill="#acdeb6"/><path d="m284.104 682.991 2.344 2.74 1.131-3.157z" fill="#acdeb6"/><path d="m970.886 647.474 3.971-.474.533 4.468z" fill="#acdeb6"/><path d="m956.36 660.787-2.341-2.742-1.134 3.157z" fill="#acdeb6"/><path d="m513.886 644.474 3.971-.474.533 4.468z" fill="#acdeb6"/><path d="m499.36 657.787-2.341-2.742-1.134 3.157z" fill="#acdeb6"/><path d="m1055.02 686.933 1.1-3.847 4.33 1.233z" fill="#acdeb6"/><path d="m1061.7 705.471-3.43 1.102 2.47 2.264z" fill="#acdeb6"/><path d="m598.022 683.933 1.095-3.847 4.328 1.233z" fill="#acdeb6"/><path d="m604.699 702.471-3.433 1.102 2.475 2.264z" fill="#acdeb6"/><path d="m976.483 695.909-.987 3.876-4.361-1.11z" fill="#acdeb6"/><path d="m969.284 677.567 3.4-1.199-2.537-2.193z" fill="#acdeb6"/><path d="m519.483 692.909-.987 3.876-4.361-1.11z" fill="#acdeb6"/><path d="m512.284 674.567 3.4-1.199-2.537-2.193z" fill="#acdeb6"/><path d="m88.976 675.416.983-3.877 4.362 1.106z" fill="#acdeb6"/><path d="m96.1913 693.752-3.3995 1.201 2.5394 2.192z" fill="#acdeb6"/><path d="m1026.41 677.733-.99 3.876-4.36-1.109z" fill="#acdeb6"/><path d="m1019.21 659.391 3.4-1.198-2.54-2.194z" fill="#acdeb6"/><path d="m569.41 674.733-.986 3.876-4.361-1.109z" fill="#acdeb6"/><path d="m562.211 656.391 3.401-1.198-2.538-2.194z" fill="#acdeb6"/><path d="m1158.22 676.5v-4l-3.5 1.5z" fill="#acdeb6"/><path d="m701.219 673.5v-4l-3.5 1.5z" fill="#acdeb6"/><path d="m191.826 661.977-.117-3.998-3.455 1.601z" fill="#acdeb6"/><path d="m1182.61 658.099.11 3.999 3.46-1.599z" fill="#acdeb6"/><path d="m725.608 655.099.113 3.999 3.456-1.599z" fill="#acdeb6"/><path d="m229.377 661.783-3.384-2.133-.597 3.761z" fill="#acdeb6"/><path d="m241.219 680.133-3.384-2.133-.597 3.761z" fill="#acdeb6"/><path d="m923.968 669.96 3.382 2.136.6-3.761z" fill="#acdeb6"/><path d="m466.968 666.96 3.382 2.136.6-3.761z" fill="#acdeb6"/><path d="m826.22 663.169-.474-3.972-3.298 1.904z" fill="#acdeb6"/><path d="m369.22 660.169-.474-3.972-3.298 1.904z" fill="#acdeb6"/><path d="m1055.96 654.447-3.85-1.095.48 3.777z" fill="#acdeb6"/><path d="m598.956 651.447-3.847-1.095.484 3.777z" fill="#acdeb6"/><path d="m88.9633 642.915-3.8774-.983.5939 3.761z" fill="#acdeb6"/><path d="m1151.72 655 5 4-5 3z" fill="#acdeb6"/><path d="m694.719 652 5 4-5 3z" fill="#acdeb6"/><path d="m184.701 640.677 5.115 3.853-4.911 3.144z" fill="#acdeb6"/><path d="m133.211 642.286 5.115 3.853-4.911 3.144z" fill="#acdeb6"/><path d="m900.219 655.997-5.111-3.857 4.913-3.14z" fill="#acdeb6"/><path d="m443.219 652.997-5.111-3.857 4.913-3.14z" fill="#acdeb6"/><path d="m207.724 655.82 6.05-2.097-.128 5.829z" fill="#acdeb6"/><path d="m304.631 649.529 6.05-2.097-.128 5.829z" fill="#acdeb6"/><path d="m163.221 653.521 6.05-2.097-.128 5.829z" fill="#acdeb6"/><path d="m260.128 647.23 6.05-2.097-.128 5.829z" fill="#acdeb6"/><path d="m918.219 648.737-6.052 2.092.133-5.829z" fill="#acdeb6"/><path d="m461.219 645.737-6.052 2.092.133-5.829z" fill="#acdeb6"/><path d="m817.219 642.592 5.438 3.38-4.609 3.571z" fill="#acdeb6"/><path d="m360.219 639.592 5.438 3.38-4.609 3.571z" fill="#acdeb6"/><path d="m1033.5 654.809 5.21-3.713 1.52 5.63z" fill="#acdeb6"/><path d="m576.498 651.809 5.216-3.713 1.516 5.63z" fill="#acdeb6"/><path d="m66.5252 643.931 5.106-3.864 1.6793 5.584z" fill="#acdeb6"/><path d="m20.2048 650.847 5.1061-3.864 1.6793 5.584z" fill="#acdeb6"/><path d="m1113.72 664 3 1.5-3 4z" fill="#e7e88c"/><path d="m1132.22 705.5 2.5 3-2.5 2z" fill="#e7e88c"/><path d="m1082.22 665.5 4.5 4-3.5 3.5z" fill="#e7e88c"/><path d="m1097.72 683 2-2.5 1 4z" fill="#e7e88c"/><path d="m656.719 661 3 1.5-3 4z" fill="#e7e88c"/><path d="m675.219 702.5 2.5 3-2.5 2z" fill="#e7e88c"/><path d="m625.219 662.5 4.5 4-3.5 3.5z" fill="#e7e88c"/><path d="m640.719 680 2-2.5 1 4z" fill="#e7e88c"/><path d="m918.458 720.492-3.041-1.414 2.886-4.083z" fill="#e7e88c"/><path d="m898.793 679.532-2.584-2.928 2.442-2.07z" fill="#e7e88c"/><path d="m949.903 718.102-4.611-3.871 3.4-3.597z" fill="#e7e88c"/><path d="m933.915 701.048-1.929 2.555-1.112-3.97z" fill="#e7e88c"/><path d="m461.458 717.492-3.041-1.414 2.886-4.083z" fill="#e7e88c"/><path d="m441.793 676.532-2.584-2.928 2.442-2.07z" fill="#e7e88c"/><path d="m492.903 715.102-4.611-3.871 3.4-3.597z" fill="#e7e88c"/><path d="m476.915 698.048-1.929 2.555-1.112-3.97z" fill="#e7e88c"/><path d="m146.98 650.78 3.042 1.412-2.882 4.086z" fill="#e7e88c"/><path d="m166.682 691.723 2.586 2.926-2.44 2.072z" fill="#e7e88c"/><path d="m115.537 653.198 4.614 3.867-3.396 3.601z" fill="#e7e88c"/><path d="m131.54 670.239 1.927-2.558 1.116 3.97z" fill="#e7e88c"/><path d="m1162.73 722.371-3.04-1.414 2.89-4.084z" fill="#e7e88c"/><path d="m1143.07 681.411-2.59-2.928 2.44-2.07z" fill="#e7e88c"/><path d="m1194.18 719.981-4.61-3.871 3.4-3.597z" fill="#e7e88c"/><path d="m1178.19 702.927-1.93 2.555-1.11-3.97z" fill="#e7e88c"/><path d="m705.732 719.371-3.041-1.414 2.885-4.084z" fill="#e7e88c"/><path d="m686.066 678.411-2.584-2.928 2.443-2.07z" fill="#e7e88c"/><path d="m737.177 716.981-4.611-3.871 3.399-3.597z" fill="#e7e88c"/><path d="m721.188 699.927-1.928 2.555-1.113-3.97z" fill="#e7e88c"/><path d="m759.732 727.371-3.041-1.414 2.885-4.084z" fill="#e7e88c"/><path d="m740.066 686.411-2.584-2.928 2.443-2.07z" fill="#e7e88c"/><path d="m791.177 724.981-4.611-3.871 3.399-3.597z" fill="#e7e88c"/><path d="m775.188 707.927-1.928 2.555-1.113-3.97z" fill="#e7e88c"/><path d="m870.4 678.463-2.87 1.736-1.78-4.673z" fill="#e7e88c"/><path d="m825.433 671.946-3.871.512-.356-3.182z" fill="#e7e88c"/><path d="m885.951 651.028-5.784 1.669-1.091-4.828z" fill="#e7e88c"/><path d="m862.879 654.79 1.046 3.025-3.916-1.29z" fill="#e7e88c"/><path d="m413.4 675.463-2.87 1.736-1.78-4.673z" fill="#e7e88c"/><path d="m368.433 668.946-3.871.512-.356-3.182z" fill="#e7e88c"/><path d="m428.951 648.028-5.784 1.669-1.091-4.828z" fill="#e7e88c"/><path d="m405.879 651.79 1.046 3.025-3.916-1.29z" fill="#e7e88c"/><path d="m40.2282 681.649 2.3963 2.347-4.081 2.889z" fill="#e7e88c"/><path d="m45.1267 726.821 1.4609 3.622-2.9924 1.138z" fill="#e7e88c"/><path d="m9.78299 673.428 3.05841 5.186-4.40387 2.26z" fill="#e7e88c"/><path d="m19.1773 694.835 2.6697-1.767-.2734 4.114z" fill="#e7e88c"/><path d="m194.031 643.766 2.869-1.738 1.784 4.67z" fill="#e7e88c"/><path d="m239.004 650.243 3.871-.516.359 3.182z" fill="#e7e88c"/><path d="m178.505 671.214 5.783-1.674 1.095 4.827z" fill="#e7e88c"/><path d="m201.574 667.432-1.048-3.025 3.917 1.287z" fill="#e7e88c"/><path d="m948.4 674.463-2.87 1.736-1.78-4.673z" fill="#e7e88c"/><path d="m903.433 667.946-3.871.512-.356-3.182z" fill="#e7e88c"/><path d="m963.951 647.028-5.784 1.669-1.091-4.828z" fill="#e7e88c"/><path d="m940.879 650.79 1.046 3.025-3.916-1.29z" fill="#e7e88c"/><path d="m491.4 671.463-2.87 1.736-1.78-4.673z" fill="#e7e88c"/><path d="m446.433 664.946-3.871.512-.356-3.182z" fill="#e7e88c"/><path d="m506.951 644.028-5.784 1.669-1.091-4.828z" fill="#e7e88c"/><path d="m483.879 647.79 1.046 3.025-3.916-1.29z" fill="#e7e88c"/><path d="m1181.4 673.463-2.87 1.736-1.78-4.673z" fill="#e7e88c"/><path d="m1136.43 666.946-3.87.512-.36-3.182z" fill="#e7e88c"/><path d="m1196.95 646.028-5.79 1.669-1.09-4.828z" fill="#e7e88c"/><path d="m1173.88 649.79 1.04 3.025-3.91-1.29z" fill="#e7e88c"/><path d="m724.4 670.463-2.87 1.736-1.78-4.673z" fill="#e7e88c"/><path d="m679.433 663.946-3.871.512-.356-3.182z" fill="#e7e88c"/><path d="m739.951 643.028-5.784 1.669-1.091-4.828z" fill="#e7e88c"/><path d="m716.879 646.79 1.046 3.025-3.916-1.29z" fill="#e7e88c"/><path d="m780.552 656.028 3.157 1.134-2.506 4.327z" fill="#e7e88c"/><path d="m803.836 695.045 2.838 2.683-2.246 2.282z" fill="#e7e88c"/><path d="m749.451 661.247 4.942 3.439-3.061 3.89z" fill="#e7e88c"/><path d="m766.914 676.789 1.69-2.72 1.467 3.854z" fill="#e7e88c"/><path d="m323.552 653.028 3.157 1.134-2.506 4.327z" fill="#e7e88c"/><path d="m346.836 692.045 2.838 2.683-2.246 2.282z" fill="#e7e88c"/><path d="m292.451 658.247 4.942 3.439-3.061 3.89z" fill="#e7e88c"/><path d="m309.914 673.789 1.69-2.72 1.467 3.854z" fill="#e7e88c"/><path d="m284.944 715.122-3.158-1.132 2.502-4.329z" fill="#e7e88c"/><path d="m261.625 676.125-2.84-2.68 2.244-2.284z" fill="#e7e88c"/><path d="m316.04 709.875-4.945-3.435 3.057-3.893z" fill="#e7e88c"/><path d="m298.563 694.349-1.688 2.72-1.47-3.852z" fill="#e7e88c"/><path d="m42.2061 640.064 3.3536.058-.9798 4.903z" fill="#e7e88c"/><path d="m76.8058 669.515 3.55 1.627-1.3919 2.883z" fill="#e7e88c"/><path d="m14.4385 655.012 5.7857 1.666-1.6466 4.668z" fill="#e7e88c"/><path d="m35.9736 664.109.7251-3.119 2.6285 3.177z" fill="#e7e88c"/><path d="m574.744 690.82 2.264-2.474 3.026 3.98z" fill="#e7e88c"/><path d="m619.724 684.395 3.57-1.583 1.239 2.952z" fill="#e7e88c"/><path d="m567.559 721.526 5.079-3.232 2.408 4.325z" fill="#e7e88c"/><path d="m588.635 711.412-1.857-2.608 4.121.134z" fill="#e7e88c"/><path d="m999.556 688.367-2.194 2.538-3.136-3.894z" fill="#e7e88c"/><path d="m954.775 696.062-3.524 1.683-1.321-2.917z" fill="#e7e88c"/><path d="m1005.87 657.47-4.99 3.375-2.525-4.255z" fill="#e7e88c"/><path d="m985.088 668.176 1.93 2.555-4.123-.018z" fill="#e7e88c"/><path d="m542.556 685.367-2.194 2.538-3.136-3.894z" fill="#e7e88c"/><path d="m497.775 693.062-3.524 1.683-1.321-2.917z" fill="#e7e88c"/><path d="m548.87 654.47-4.986 3.375-2.529-4.255z" fill="#e7e88c"/><path d="m528.088 665.176 1.93 2.555-4.123-.018z" fill="#e7e88c"/><path d="m65.9106 682.975 2.1912-2.539 3.1401 3.891z" fill="#e7e88c"/><path d="m110.684 675.241 3.523-1.686 1.324 2.915z" fill="#e7e88c"/><path d="m59.6235 713.878 4.9832-3.379 2.5325 4.253z" fill="#e7e88c"/><path d="m80.3959 703.154-1.9318-2.553 4.1231.013z" fill="#e7e88c"/><path d="m1017.01 648.784 2.72-1.969 2.16 4.507z" fill="#e7e88c"/><path d="m1062.36 651.527 3.82-.834.62 3.141z" fill="#e7e88c"/><path d="m1003.8 677.42 5.63-2.146 1.49 4.721z" fill="#e7e88c"/><path d="m1026.48 671.747-1.29-2.928 4.01.959z" fill="#e7e88c"/><path d="m560.011 645.784 2.715-1.969 2.164 4.507z" fill="#e7e88c"/><path d="m605.364 648.527 3.816-.834.62 3.141z" fill="#e7e88c"/><path d="m546.802 674.42 5.626-2.146 1.489 4.721z" fill="#e7e88c"/><path d="m569.481 668.747-1.295-2.928 4.01.959z" fill="#e7e88c"/><g filter="url(#a)"><path d="m989 276 84 110 84-50 38 36v168.857h-432v-224.857l132 80z" fill="#539882"/></g><g filter="url(#b)"><circle cx="852.5" cy="227.5" fill="#ffbd3a" r="98.5"/></g><g filter="url(#c)"><path d="m960.777 403.108 121.683 43.235 111.54-64.343v163.531h-1194v-208.549l134.357-233.982 169.847 78.842 256.266 57.884 75.823 127.776 73.427 103.926 116.7-47.974 109.007-27.976z" fill="#91d7b9"/></g><path d="m54 278 81-150 11 75z" fill="#b2e3ce"/><path d="m161 448 26-184 158 268z" fill="#b2e3ce"/><path d="m994 487-58-78 128 49z" fill="#b2e3ce"/><path d="m382 253-70-51 134 31z" fill="#b2e3ce"/><g filter="url(#d)"><path d="m734.398 298.248v-14.318l74.565 8.077c5.427.588 6.602 7.967 1.625 10.212l17.946-3.971v271.202h-94.136z" fill="url(#i)"/><path d="m460.137 298.248v-14.318l-60.822 6.588c-4.594.498-4.645 7.162-.06 7.73l-26.603 2.049-6.651 269.153h94.136z" fill="url(#j)"/><path d="m457.422 253.338 47.313-8.542c15.474-2.794 30.575-7.362 45.003-13.613l48.887-21.183 44.325 19.974c15.646 7.05 32.116 12.105 49.024 15.044l47.855 8.32v316.112h-282.407z" fill="url(#k)"/><g fill="#000"><path d="m573.688 181.559h53.836v37.0122h-53.836z"/><path d="m577.057 144.533h47.1065v37.0122h-47.1065z"/><path d="m580.422 114.262h40.377v30.2827h-40.377z"/><path d="m583.783 82.3008h33.6475v31.9651h-33.6475z"/><path d="m588.832 53.6816h23.5532v28.6004h-23.5532z"/><path d="m600.953 41.9062 12.044 11.7768h-24.089z"/><path d="m586.766 49.3984c.892.9814 3.372 2.5695 6.156 1.0706v3.2119h-4.015c-.714-.3569-2.141-1.713-2.141-4.2825z"/><path d="m592.121 44.0508c.892.9814 3.373 2.5694 6.156 1.0706v3.2118h-4.015c-.713-.3569-2.141-1.713-2.141-4.2824z"/><path d="m614.867 49.3984c-.892.9814-3.372 2.5695-6.156 1.0706v3.2119h4.015c.714-.3569 2.141-1.713 2.141-4.2825z"/><path d="m609.516 44.0508c-.893.9814-3.373 2.5694-6.156 1.0706v3.2118h4.014c.714-.3569 2.142-1.713 2.142-4.2824z"/><path d="m566.961 168.107c2.926 3.085 11.06 8.076 20.188 3.365v10.094h-13.166c-2.341-1.121-7.022-5.383-7.022-13.459z"/><path d="m570.326 134.445c2.926 3.085 11.06 8.076 20.189 3.365v10.094h-13.167c-2.34-1.121-7.022-5.383-7.022-13.459z"/><path d="m573.688 100.807c2.925 3.084 11.059 8.075 20.188 3.364v10.095h-13.166c-2.341-1.122-7.022-5.384-7.022-13.459z"/><path d="m577.057 68.8379c2.926 3.0843 11.059 8.0754 20.188 3.3647v10.0943h-13.166c-2.341-1.1216-7.022-5.3836-7.022-13.459z"/><path d="m634.258 168.107c-2.926 3.085-11.06 8.076-20.189 3.365v10.094h13.167c2.34-1.121 7.022-5.383 7.022-13.459z"/><path d="m630.893 134.445c-2.926 3.085-11.06 8.076-20.189 3.365v10.094h13.166c2.341-1.121 7.023-5.383 7.023-13.459z"/><path d="m627.525 100.807c-2.925 3.084-11.059 8.075-20.188 3.364v10.095h13.166c2.341-1.122 7.022-5.384 7.022-13.459z"/><path d="m624.16 68.8379c-2.926 3.0843-11.06 8.0754-20.188 3.3647v10.0943h13.166c2.341-1.1216 7.022-5.3836 7.022-13.459z"/><path d="m600.607 15v33.6475h-3.365z"/><path d="m600.604 15v33.6475h3.365z"/><path d="m519.377 263.025h53.836v37.0122h-53.836z"/><path d="m522.746 226h47.1065v37.0122h-47.1065z"/><path d="m526.111 195.729h40.377v30.2827h-40.377z"/><path d="m529.473 163.768h33.6475v31.9651h-33.6475z"/><path d="m534.521 135.148h23.5532v28.6004h-23.5532z"/><path d="m546.642 123.373 12.044 11.777h-24.088z"/><path d="m532.455 130.865c.892.982 3.372 2.57 6.156 1.071v3.212h-4.015c-.713-.357-2.141-1.713-2.141-4.283z"/><path d="m537.811 125.518c.892.981 3.372 2.569 6.156 1.07v3.212h-4.015c-.714-.357-2.141-1.713-2.141-4.282z"/><path d="m560.557 130.865c-.893.982-3.373 2.57-6.156 1.071v3.212h4.014c.714-.357 2.142-1.713 2.142-4.283z"/><path d="m555.205 125.518c-.892.981-3.372 2.569-6.156 1.07v3.212h4.015c.714-.357 2.141-1.713 2.141-4.282z"/><path d="m512.65 249.574c2.926 3.085 11.06 8.076 20.189 3.365v10.094h-13.167c-2.34-1.121-7.022-5.383-7.022-13.459z"/><path d="m516.016 215.912c2.925 3.084 11.059 8.076 20.188 3.365v10.094h-13.166c-2.341-1.121-7.022-5.383-7.022-13.459z"/><path d="m519.377 182.273c2.926 3.085 11.06 8.076 20.188 3.365v10.094h-13.166c-2.341-1.121-7.022-5.383-7.022-13.459z"/><path d="m522.746 150.305c2.926 3.084 11.06 8.075 20.189 3.364v10.095h-13.167c-2.341-1.122-7.022-5.384-7.022-13.459z"/><path d="m579.947 249.574c-2.926 3.085-11.06 8.076-20.188 3.365v10.094h13.166c2.341-1.121 7.022-5.383 7.022-13.459z"/><path d="m576.582 215.912c-2.926 3.084-11.06 8.076-20.188 3.365v10.094h13.166c2.341-1.121 7.022-5.383 7.022-13.459z"/><path d="m573.215 182.273c-2.926 3.085-11.06 8.076-20.189 3.365v10.094h13.167c2.34-1.121 7.022-5.383 7.022-13.459z"/><path d="m569.85 150.305c-2.926 3.084-11.06 8.075-20.189 3.364v10.095h13.167c2.34-1.122 7.022-5.384 7.022-13.459z"/><path d="m546.296 96.4668v33.6472h-3.364z"/><path d="m546.293 96.4668v33.6472h3.365z"/><path d="m627.998 263.025h53.836v37.0122h-53.836z"/><path d="m631.367 226h47.1065v37.0122h-47.1065z"/><path d="m634.732 195.729h40.377v30.2827h-40.377z"/><path d="m638.094 163.768h33.6475v31.9651h-33.6475z"/><path d="m643.143 135.148h23.5532v28.6004h-23.5532z"/><path d="m655.263 123.373 12.044 11.777h-24.088z"/><path d="m641.076 130.865c.892.982 3.373 2.57 6.156 1.071v3.212h-4.015c-.713-.357-2.141-1.713-2.141-4.283z"/><path d="m646.432 125.518c.892.981 3.372 2.569 6.156 1.07v3.212h-4.015c-.714-.357-2.141-1.713-2.141-4.282z"/><path d="m669.178 130.865c-.892.982-3.373 2.57-6.156 1.071v3.212h4.015c.713-.357 2.141-1.713 2.141-4.283z"/><path d="m663.826 125.518c-.892.981-3.372 2.569-6.156 1.07v3.212h4.015c.714-.357 2.141-1.713 2.141-4.282z"/><path d="m621.271 249.574c2.926 3.085 11.06 8.076 20.189 3.365v10.094h-13.166c-2.341-1.121-7.023-5.383-7.023-13.459z"/><path d="m624.637 215.912c2.926 3.084 11.059 8.076 20.188 3.365v10.094h-13.166c-2.341-1.121-7.022-5.383-7.022-13.459z"/><path d="m627.998 182.273c2.926 3.085 11.06 8.076 20.189 3.365v10.094h-13.167c-2.341-1.121-7.022-5.383-7.022-13.459z"/><path d="m631.367 150.305c2.926 3.084 11.06 8.075 20.189 3.364v10.095h-13.167c-2.34-1.122-7.022-5.384-7.022-13.459z"/><path d="m688.568 249.574c-2.926 3.085-11.059 8.076-20.188 3.365v10.094h13.166c2.341-1.121 7.022-5.383 7.022-13.459z"/><path d="m685.203 215.912c-2.926 3.084-11.06 8.076-20.188 3.365v10.094h13.166c2.341-1.121 7.022-5.383 7.022-13.459z"/><path d="m681.836 182.273c-2.926 3.085-11.06 8.076-20.189 3.365v10.094h13.167c2.341-1.121 7.022-5.383 7.022-13.459z"/><path d="m678.471 150.305c-2.926 3.084-11.06 8.075-20.189 3.364v10.095h13.167c2.34-1.122 7.022-5.384 7.022-13.459z"/><path d="m654.917 96.4668v33.6472h-3.364z"/><path d="m654.915 96.4668v33.6472h3.364z"/><path d="m731.949 272.402h16.4934v11.3392h-16.4934z"/><path d="m732.98 261.068h14.4317v11.3392h-14.4317z"/><path d="m734.012 251.789h12.3701v9.27755h-12.3701z"/><path d="m735.043 241.996h10.3084v9.79297h-10.3084z"/><path d="m736.59 233.232h7.21587v8.76213h-7.21587z"/><path d="m740.303 229.621 3.69 3.608h-7.38z"/><path d="m735.953 231.914c.273.301 1.033.787 1.886.328v.984h-1.23c-.219-.109-.656-.525-.656-1.312z"/><path d="m737.596 230.275c.273.301 1.033.788 1.886.328v.984h-1.23c-.219-.109-.656-.524-.656-1.312z"/><path d="m744.562 231.914c-.273.301-1.033.787-1.885.328v.984h1.23c.218-.109.655-.525.655-1.312z"/><path d="m742.924 230.275c-.274.301-1.033.788-1.886.328v.984h1.23c.218-.109.656-.524.656-1.312z"/><path d="m729.887 268.285c.896.945 3.388 2.474 6.185 1.031v3.093h-4.034c-.717-.344-2.151-1.65-2.151-4.124z"/><path d="m730.918 257.975c.896.945 3.388 2.474 6.185 1.03v3.093h-4.034c-.717-.344-2.151-1.649-2.151-4.123z"/><path d="m731.949 247.672c.897.945 3.389 2.474 6.185 1.031v3.092h-4.033c-.718-.343-2.152-1.649-2.152-4.123z"/><path d="m732.98 237.871c.897.945 3.389 2.474 6.186 1.031v3.092h-4.034c-.717-.343-2.152-1.649-2.152-4.123z"/><path d="m750.502 268.285c-.896.945-3.388 2.474-6.185 1.031v3.093h4.034c.717-.344 2.151-1.65 2.151-4.124z"/><path d="m749.473 257.975c-.897.945-3.389 2.474-6.185 1.03v3.093h4.033c.717-.344 2.152-1.649 2.152-4.123z"/><path d="m748.439 247.672c-.896.945-3.388 2.474-6.185 1.031v3.092h4.034c.717-.343 2.151-1.649 2.151-4.123z"/><path d="m747.41 237.871c-.896.945-3.388 2.474-6.185 1.031v3.092h4.034c.717-.343 2.151-1.649 2.151-4.123z"/><path d="m740.195 221.379v10.308h-1.031z"/><path d="m740.196 221.379v10.308h1.031z"/><path d="m449.545 272.402h16.4934v11.3392h-16.4934z"/><path d="m450.576 261.068h14.4317v11.3392h-14.4317z"/><path d="m451.607 251.789h12.3701v9.27755h-12.3701z"/><path d="m452.639 241.996h10.3084v9.79297h-10.3084z"/><path d="m454.186 233.232h7.21587v8.76213h-7.21587z"/><path d="m457.899 229.621 3.69 3.608h-7.38z"/><path d="m453.551 231.914c.273.301 1.033.787 1.886.328v.984h-1.23c-.219-.109-.656-.525-.656-1.312z"/><path d="m455.193 230.275c.274.301 1.034.788 1.886.328v.984h-1.23c-.218-.109-.656-.524-.656-1.312z"/><path d="m462.16 231.914c-.273.301-1.033.787-1.886.328v.984h1.23c.219-.109.656-.525.656-1.312z"/><path d="m460.521 230.275c-.273.301-1.033.788-1.885.328v.984h1.229c.219-.109.656-.524.656-1.312z"/><path d="m447.482 268.285c.897.945 3.389 2.474 6.185 1.031v3.093h-4.033c-.717-.344-2.152-1.65-2.152-4.124z"/><path d="m448.514 257.975c.896.945 3.388 2.474 6.185 1.03v3.093h-4.034c-.717-.344-2.151-1.649-2.151-4.123z"/><path d="m449.545 247.672c.896.945 3.388 2.474 6.185 1.031v3.092h-4.034c-.717-.343-2.151-1.649-2.151-4.123z"/><path d="m450.576 237.871c.897.945 3.388 2.474 6.185 1.031v3.092h-4.034c-.717-.343-2.151-1.649-2.151-4.123z"/><path d="m468.098 268.285c-.897.945-3.389 2.474-6.185 1.031v3.093h4.033c.717-.344 2.152-1.65 2.152-4.124z"/><path d="m467.068 257.975c-.896.945-3.388 2.474-6.185 1.03v3.093h4.034c.717-.344 2.151-1.649 2.151-4.123z"/><path d="m466.035 247.672c-.896.945-3.388 2.474-6.185 1.031v3.092h4.034c.717-.343 2.151-1.649 2.151-4.123z"/><path d="m465.006 237.871c-.897.945-3.388 2.474-6.185 1.031v3.092h4.034c.717-.343 2.151-1.649 2.151-4.123z"/><path d="m457.791 221.379v10.308h-1.031z"/><path d="m457.791 221.379v10.308h1.031z"/><path d="m805.922 540h53.836v37.0122h-53.836z"/><path d="m809.291 502.975h47.1065v37.0122h-47.1065z"/><path d="m812.658 472.703h40.377v30.2827h-40.377z"/><path d="m816.018 440.742h33.6475v31.9651h-33.6475z"/><path d="m821.066 412.123h23.5532v28.6004h-23.5532z"/><path d="m833.187 400.348 12.044 11.776h-24.088z"/><path d="m819 407.84c.892.981 3.372 2.569 6.156 1.07v3.212h-4.015c-.714-.357-2.141-1.713-2.141-4.282z"/><path d="m824.355 402.492c.893.982 3.373 2.57 6.156 1.071v3.212h-4.014c-.714-.357-2.142-1.713-2.142-4.283z"/><path d="m847.102 407.84c-.893.981-3.373 2.569-6.156 1.07v3.212h4.014c.714-.357 2.142-1.713 2.142-4.282z"/><path d="m841.75 402.492c-.892.982-3.372 2.57-6.156 1.071v3.212h4.015c.714-.357 2.141-1.713 2.141-4.283z"/><path d="m866.486 526.549c-2.926 3.084-11.059 8.075-20.188 3.365v10.094h13.166c2.341-1.122 7.022-5.384 7.022-13.459z"/><path d="m863.125 492.887c-2.926 3.084-11.06 8.075-20.188 3.364v10.095h13.166c2.341-1.122 7.022-5.384 7.022-13.459z"/><path d="m859.762 459.248c-2.926 3.084-11.06 8.075-20.189 3.365v10.094h13.167c2.34-1.122 7.022-5.384 7.022-13.459z"/><path d="m856.395 427.279c-2.926 3.085-11.06 8.076-20.189 3.365v10.094h13.166c2.341-1.121 7.023-5.383 7.023-13.459z"/><path d="m833.075 373.441v32.586h-5.43z"/><path d="m833.077 373.441v32.586h5.431z"/><path d="m0 0h53.836v37.0122h-53.836z" transform="matrix(-1 0 0 1 388.564 540)"/><path d="m0 0h47.1065v37.0122h-47.1065z" transform="matrix(-1 0 0 1 385.195 502.975)"/><path d="m0 0h40.377v30.2827h-40.377z" transform="matrix(-1 0 0 1 381.828 472.703)"/><path d="m0 0h33.6475v31.9651h-33.6475z" transform="matrix(-1 0 0 1 378.469 440.742)"/><path d="m0 0h23.5532v28.6004h-23.5532z" transform="matrix(-1 0 0 1 373.42 412.123)"/><path d="m361.299 400.348-12.044 11.776h24.089z"/><path d="m375.488 407.84c-.892.981-3.372 2.569-6.156 1.07v3.212h4.015c.714-.357 2.141-1.713 2.141-4.282z"/><path d="m370.133 402.492c-.892.982-3.373 2.57-6.156 1.071v3.212h4.015c.713-.357 2.141-1.713 2.141-4.283z"/><path d="m347.387 407.84c.892.981 3.372 2.569 6.156 1.07v3.212h-4.015c-.714-.357-2.141-1.713-2.141-4.282z"/><path d="m352.738 402.492c.892.982 3.373 2.57 6.156 1.071v3.212h-4.015c-.713-.357-2.141-1.713-2.141-4.283z"/><path d="m328 526.549c2.926 3.084 11.06 8.075 20.188 3.365v10.094h-13.166c-2.341-1.122-7.022-5.384-7.022-13.459z"/><path d="m331.361 492.887c2.926 3.084 11.06 8.075 20.189 3.364v10.095h-13.167c-2.34-1.122-7.022-5.384-7.022-13.459z"/><path d="m334.725 459.248c2.925 3.084 11.059 8.075 20.188 3.365v10.094h-13.166c-2.341-1.122-7.022-5.384-7.022-13.459z"/><path d="m338.092 427.279c2.926 3.085 11.06 8.076 20.188 3.365v10.094h-13.166c-2.341-1.121-7.022-5.383-7.022-13.459z"/><path d="m361.411 373.441v32.586h5.431z"/><path d="m361.409 373.441v32.586h-5.43z"/><path clip-rule="evenodd" d="m735.318 290.933v-15.251l82.139 9.477c7.94.916 15.977.466 23.764-1.331l-11.767 7.105v288.879h-94.136zm21.724 47.206 25.344-20.393 25.345 20.393v80.188h-50.689zm24.439 127.621-24.439 16.293v97.756h48.878v-97.756z" fill-rule="evenodd"/><path clip-rule="evenodd" d="m461.059 290.933v-15.251l-82.139 9.477c-7.94.916-15.977.466-23.764-1.331l11.767 7.105v288.879h94.136zm-21.723 47.206-25.345-20.393-25.344 20.393v80.188h50.689zm-24.44 127.621 24.44 16.293v97.756h-48.879v-97.756z" fill-rule="evenodd"/><path clip-rule="evenodd" d="m458.342 243.098 46.123-8.87c16.259-3.126 32.078-8.215 47.111-15.153l47.969-22.139 43.353 20.809c16.284 7.816 33.531 13.442 51.292 16.731l46.559 8.622v336.716h-65.171v-141.203l-21.724-27.154-54.309-10.862-46.162 10.862-29.87 27.154v141.203h-65.171zm143.919 24.438 24.44 13.577v97.757h-48.879v-97.757zm73.319 46.163-16.293-10.862-16.293 10.862v65.17h32.586zm-135.773-10.862 16.292 10.862v65.17h-32.585v-65.17z" fill-rule="evenodd"/><path d="m329 567.537h536.164v12.2786h-536.164z"/></g></g><g filter="url(#e)"><circle cx="599.736" cy="470.013" fill="#539882" r="5.0133"/><path clip-rule="evenodd" d="m598.174 470.919c.31-.541.893-.905 1.561-.905.669 0 1.253.364 1.563.906.325-.322.772-.521 1.266-.521.874 0 1.602.622 1.765 1.448.148.029.288.076.42.139.234-.111.496-.173.772-.173.994 0 1.799.805 1.799 1.799 0 .086-.006.17-.017.252.268-.159.582-.251.917-.251.994 0 1.8.806 1.8 1.8 0 .242-.048.473-.135.684.812.174 1.42.895 1.42 1.759 0 .515-.216.979-.562 1.307.634.278 1.076.911 1.076 1.648 0 .538-.236 1.021-.61 1.35.374.33.61.813.61 1.351 0 .526-.226 1-.586 1.329.048.492.072.992.072 1.498 0 7.242-5.007 13.112-11.183 13.112-6.177 0-11.184-5.87-11.184-13.112 0-.381.014-.758.041-1.131-.698-.247-1.198-.913-1.198-1.696 0-.538.236-1.021.61-1.351-.374-.329-.61-.812-.61-1.35 0-.771.485-1.429 1.167-1.685-.324-.326-.524-.774-.524-1.27 0-.994.806-1.8 1.8-1.8.04 0 .08.002.12.004-.078-.201-.12-.419-.12-.647 0-.994.805-1.8 1.799-1.8.18 0 .353.026.516.075-.001-.025-.001-.05-.001-.076 0-.994.805-1.799 1.799-1.799.281 0 .547.064.784.179.102-.897.864-1.593 1.787-1.593.494 0 .94.198 1.266.52z" fill="#91d7b9" fill-rule="evenodd"/><path clip-rule="evenodd" d="m596.119 498.422h3.745 3.746c11.471 0 20.769 9.299 20.769 20.769v25.877h-24.515-24.514v-25.877c0-11.47 9.298-20.769 20.769-20.769z" fill="#91d7b9" fill-rule="evenodd"/><rect fill="#91d7b9" height="23.0395" rx="11.5197" width="71.7287" x="564" y="545.068"/><path clip-rule="evenodd" d="m592.226 483.97c.478-.957 1.123-1.579 1.794-1.827.658-.244 1.376-.143 2.063.417.697.569 1.365 1.616 1.858 3.265.492 1.645.803 3.869.803 6.764v.257h.257.771.065.77.258v-.257c0-2.895.311-5.119.803-6.764.493-1.649 1.161-2.696 1.858-3.265.686-.56 1.405-.661 2.063-.417.67.248 1.315.87 1.794 1.827l.46-.23c-.517-1.034-1.246-1.772-2.076-2.08-.843-.312-1.751-.163-2.566.502-.806.657-1.516 1.813-2.025 3.516-.496 1.656-.807 3.849-.825 6.654h-.514-.065-.514c-.018-2.805-.33-4.998-.825-6.654-.509-1.703-1.219-2.859-2.025-3.516-.815-.665-1.724-.814-2.566-.502-.83.308-1.559 1.046-2.076 2.08z" fill="#539882" fill-rule="evenodd"/><circle cx="599.864" cy="481.453" fill="#539882" r="1.28546"/><path d="m597.68 494.309c1.285 1.221 3.021 1.285 4.37 0" stroke="#539882" stroke-width=".514184"/><g fill="#539882"><path clip-rule="evenodd" d="m592.743 498.75c-2.242 18.749-9.16 23.538-14.242 27.055-1.192.826-2.284 1.581-3.19 2.431v-8.983c0-10.335 7.548-18.906 17.432-20.503z" fill-rule="evenodd"/><path clip-rule="evenodd" d="m575.312 536.346c12.932-3.57 25.104-13.149 29.819-37.869 10.743.796 19.211 9.765 19.211 20.712v25.876h-24.515-24.515z" fill-rule="evenodd"/><path d="m586.751 568.094c-8.741 0-5.142-12.801-11.44-23.01h26.48v23.01z"/><path d="m612.72 568.094c8.741 0 5.141-12.801 11.44-23.01h-26.48v23.01z"/></g><path d="m607.706 495.786c3.278 3.535 1.286-3.15 3.471-8.163h-4.242c0 1.221-1.956 5.222.771 8.163z" fill="#91d7b9"/><path d="m592.538 495.786c-3.278 3.535-1.285-3.15-3.471-8.163h4.242c0 1.221 1.956 5.222-.771 8.163z" fill="#91d7b9"/><path d="m610.276 502.277c-7.199 30.851-23.824 39.25-31.237 39.593" stroke="#91d7b9" stroke-linecap="round" stroke-width=".771277"/><path d="m614.133 505.492c-7.198 30.851-23.824 39.25-31.237 39.592" stroke="#91d7b9" stroke-linecap="round" stroke-width=".771277"/><path d="m578.27 532.424c5.31 4.71 14.818 8.898 18.908 10.402" stroke="#91d7b9" stroke-width="8.22695"/><path d="m614.262 537.115c-5.311 4.711-6.065 4.208-10.155 5.713" stroke="#91d7b9" stroke-width="8.22695"/><ellipse cx="600.765" cy="542.577" fill="#91d7b9" rx="7.96986" ry="5.84885"/><path d="m596.136 521.367c-6.942 3.407-10.605.579-11.441 0" stroke="#539882" stroke-width=".514184"/><path d="m591.445 536.665c-2.442-2.571-2.699-4.821-8.42-8.163l-3.535 4.178 9.834 7.712c.236-.385.99-1.671 2.121-3.727z" fill="#91d7b9"/><path d="m584.311 523.039c.976 3.342.407 5.42 0 6.042 3.92 2.314 3.984 5.077 7.198 6.813" stroke="#539882" stroke-width=".514184"/><path d="m576.212 536.409c-1.928-1.864-2.314-5.078-.643-14.397" stroke="#539882" stroke-width=".514184"/><path d="m575.055 525.158.579-.836v3.6l-1.029.964z" fill="#539882"/><path d="m574.734 528.76.707-.643.385.836.322 1.799-.322 3.664-.257.964-.385-.707-.45-.964-.193-1.093z" fill="#91d7b9"/><path d="m616.896 544.314c-.9-2.936-4.165-9.68-10.027-13.176l4.564-1.8 6.427 2.699 4.949 7.327z" fill="#539882"/><path d="m594.658 498.678c3.407 5.206 8.613 4.177 10.862 0" stroke="#539882" stroke-width=".771277"/><path d="m590.865 499.451c5.64 8.619 14.259 6.917 17.983 0" stroke="#539882" stroke-width="1.27691"/><path d="m591.766 486.854c.45.321 4.949-.322 5.463.578" stroke="#539882" stroke-linecap="round" stroke-width=".385638"/><path d="m607.641 486.854c-.45.321-4.949-.322-5.464.578" stroke="#539882" stroke-linecap="round" stroke-width=".385638"/><path clip-rule="evenodd" d="m599.736 469.885c.669 0 1.252.364 1.562.905.325-.321.773-.52 1.266-.52.994 0 1.8.806 1.8 1.8l-.001.025c.327-.333.782-.539 1.285-.539.994 0 1.8.805 1.8 1.799 0 .159-.02.313-.059.46.248-.13.531-.203.831-.203.994 0 1.799.806 1.799 1.8 0 .188-.029.37-.082.541.849.144 1.497.883 1.497 1.774 0 .583-.277 1.101-.706 1.43.641.275 1.091.912 1.091 1.655 0 .518-.219.984-.569 1.313.497.32.827.878.827 1.514 0 .994-.806 1.799-1.8 1.799s-1.8-.805-1.8-1.799c0-.518.219-.985.569-1.313-.497-.321-.826-.879-.826-1.514 0-.311.079-.604.217-.859-.569-.184-1.015-.644-1.178-1.223-.279.178-.612.282-.968.282-.811 0-1.496-.536-1.721-1.273-.292.601-.908 1.015-1.621 1.015-.853 0-1.567-.593-1.753-1.39-.229.731-.911 1.261-1.717 1.261-.703 0-1.311-.402-1.607-.989-.297.587-.905.989-1.607.989-.537 0-1.018-.235-1.348-.607-.295.59-.905.994-1.609.994-.546 0-1.034-.243-1.364-.626-.166.536-.575.965-1.098 1.158.254.31.406.706.406 1.138 0 .545-.243 1.034-.626 1.364.457.326.754.861.754 1.465 0 .994-.805 1.799-1.799 1.799s-1.8-.805-1.8-1.799c0-.545.243-1.034.625-1.364-.456-.326-.754-.861-.754-1.465 0-.775.49-1.436 1.177-1.689-.253-.31-.405-.706-.405-1.138 0-.994.806-1.8 1.8-1.8.015 0 .03.001.044.001-.111-.234-.173-.496-.173-.772 0-.994.806-1.8 1.8-1.8.179 0 .352.026.515.075-.001-.025-.001-.05-.001-.076 0-.994.805-1.799 1.799-1.799.336 0 .65.091.919.251.127-.869.876-1.537 1.78-1.537.472 0 .9.181 1.221.477.296-.587.905-.99 1.608-.99z" fill="#539882" fill-rule="evenodd"/><path d="m600.635 536.406c-3.021 2.057.964 1.993 2.7 3.342" stroke="#539882" stroke-width=".257092"/><path d="m599.029 546.178c1.851.36 3.728.15 4.435 0" stroke="#539882" stroke-width=".257092"/><path d="m599.094 544.184c1.851.36 3.728.15 4.435 0" stroke="#539882" stroke-width=".257092"/><path d="m599.094 542.127c1.851.36 3.728.15 4.435 0" stroke="#539882" stroke-width=".257092"/></g><path d="m1043 365-52.5-68.5-14 22z" fill="#447b6a"/><g filter="url(#f)"><path d="m423.939 557.355v-43.479c0-1.059-.734-1.973-1.761-2.195l-11.138-2.406c-1.387-.299-2.694.766-2.694 2.196v42.677c0 1.002.659 1.883 1.615 2.159l11.138 3.207c1.423.41 2.84-.667 2.84-2.159z" fill="#d1c870"/><path d="m451.527 505.629-27.588 7.696v45.08l27.588-8.246z" fill="#f4e97d"/><path clip-rule="evenodd" d="m409.545 515.229 1.987.206-.119 1.122-.726-.075v.555h-1.142zm4.7.488 2.714.282-.12 1.123-2.713-.283zm5.427.564 1.867.195v1.605h-1.142v-.589l-.845-.088zm-10.127 5.481v-2.363h1.142v2.363zm11.994-1.487v2.194h-1.142v-2.194zm-11.994 6.212v-2.363h1.142v2.363zm11.994-1.824v2.194h-1.142v-2.194zm-11.994 6.549v-2.363h1.142v2.363zm11.994-2.161v2.194h-1.142v-2.194zm0 4.388v2.195h-1.142v-2.195zm-11.994 2.498v-2.362h1.142v2.362zm11.994 1.891v2.194h-1.142v-2.194zm-11.994 2.834v-2.362h1.142v2.362zm11.994 1.554v2.194h-1.142v-2.194zm-11.994 3.171v-2.362h1.142v2.362zm11.994 1.217v2.194h-1.142v-2.194zm-11.994 3.509v-2.363h1.142v2.363zm11.994.879v2.194h-1.142v-2.194zm-11.994 1.483h1.142v.747l.931.241-.291 1.092-1.782-.464zm7.208 3.49-2.713-.705.291-1.091 2.713.705zm4.786-.585v1.829l-2.073-.539.291-1.091.64.167v-.366z" fill="#f4e97d" fill-rule="evenodd"/><path d="m450.972 487.635-44.656 11.664 3.446 18.952 41.762-12.796z" fill="#539882"/><path d="m418.378 508.486c0 5.392-4.114 9.764-9.189 9.764s-9.189-4.372-9.189-9.764 4.114-9.763 9.189-9.763 9.189 4.371 9.189 9.763z" fill="#35675b"/><path clip-rule="evenodd" d="m408.345 515.731c3.288 0 6.237-3.175 6.237-7.464 0-4.288-2.949-7.463-6.237-7.463s-6.237 3.175-6.237 7.463c0 4.289 2.949 7.464 6.237 7.464zm0 .932c3.975 0 7.197-3.759 7.197-8.396s-3.222-8.396-7.197-8.396c-3.974 0-7.197 3.759-7.197 8.396s3.223 8.396 7.197 8.396z" fill="#539882" fill-rule="evenodd"/><path clip-rule="evenodd" d="m407.745 513.602c2.466 0 4.678-2.268 4.678-5.331s-2.212-5.331-4.678-5.331-4.678 2.268-4.678 5.331 2.212 5.331 4.678 5.331zm0 .666c2.981 0 5.398-2.685 5.398-5.997s-2.417-5.998-5.398-5.998-5.397 2.686-5.397 5.998 2.416 5.997 5.397 5.997z" fill="#539882" fill-rule="evenodd"/><path d="m410.746 508.27c0 1.988-1.611 3.599-3.599 3.599-1.987 0-3.598-1.611-3.598-3.599 0-1.987 1.611-3.598 3.598-3.598 1.988 0 3.599 1.611 3.599 3.598z" fill="#539882"/><path d="m415.541 496.837c6.812-1.776 13.624 10.533 8.515 17.185 3.974-1.108 17.03-4.989 28.384-8.315 4.198-5.125-1.306-12.145-6.647-16.242-.807-.62-1.869-.783-2.85-.489-4.458 1.338-15.573 4.78-27.402 7.861z" fill="#d1c870"/><path d="m436.963 490.037c-10.483 2.57-22.069 5.655-22.621 7.197 4.414-1.028 5.701-1.028 5.517-1.028h7.173l14.897-4.113c-.184-.171-1.434-.822-4.966-2.056z" fill="#d1c870"/><path clip-rule="evenodd" d="m460.522 591.994c1.656 0 2.999 1.353 2.999 3.023v4.75c0 1.669-1.343 3.022-2.999 3.022s-2.999-1.353-2.999-3.022v-4.75c0-1.67 1.343-3.023 2.999-3.023z" fill="#ffc7a1" fill-rule="evenodd"/><path d="m457.523 598.821v-2.03h2.399v2.399c-.444-.062-1.546-.222-2.399-.369z" fill="#ebc8b1"/><path d="m450.756 595.483c-.447-6.942-1.88-24.076-4.029-37.075h23.283c-.448 7.095 1.791 27.005 0 37.075-4.925 3.891-13.209 2.746-19.254 0z" fill="#d1c870"/><path clip-rule="evenodd" d="m439.532 593.189c1.987 0 3.598 1.354 3.598 3.023v4.75c0 1.669-1.611 3.023-3.598 3.023s-3.598-1.354-3.598-3.023v-4.75c0-1.669 1.611-3.023 3.598-3.023z" fill="#ffc7a1" fill-rule="evenodd"/><path d="m435.934 601.215v-2.029h2.398v2.398c-.444-.061-1.545-.221-2.398-.369z" fill="#ebc8b1"/><path d="m430.298 596.758c-.44-6.732-1.847-23.346-3.958-35.951l26.388 3.107c-.44 6.879-1.759 23.079-3.519 32.844-4.837 3.773-12.974 2.663-18.911 0z" fill="#f4e97d"/><path d="m430.396 596.672c-.45-6.93-1.893-24.035-4.056-37.012l6.535 1.599c-.45 7.083 3.155 26.731 1.353 36.784-1.803-.457-2.254-.686-3.832-1.371z" fill="#d1c870"/><path clip-rule="evenodd" d="m484.794 530.918c.238.004.457.007.652.009.839.011 1.181-.04 1.594-.101.109-.016.223-.033.352-.05.826-.106.981 1.486.155 1.593-.565.073-1.138.131-1.58.155l-.021.176 1.03.014.567.008c1.06.014.981 1.486.155 1.592-.671.087-1.431.07-1.944.03l-.027.227c.668.067.985.052 1.361.035.11-.005.225-.01.355-.014.833-.023 1.117 1.325-.122 1.485-.73.094-1.343.037-1.757-.002-.148-.014-.27-.025-.363-.027l.003-.017c-1.311-.092-3.453-.3-3.707-.562-.279-.286.396-3.176.768-4.585h.001-.001c1.428-1.041 3.014-2.065 3.374-1.192.145.351-.273.729-.845 1.226z" fill="#ffc7a1" fill-rule="evenodd"/><path clip-rule="evenodd" d="m440.302 518.544c1.011-1.987 3.442-2.777 5.428-1.766 10.856 5.528 17.19 8.212 22.26 9.704 4.722 1.389 8.447 1.782 14.139 2.382.364.038.735.077 1.115.117l-.851 8.028c-.428-.045-.85-.089-1.265-.133-5.558-.583-9.969-1.046-15.417-2.65-5.81-1.709-12.683-4.673-23.644-10.254-1.986-1.011-2.777-3.442-1.765-5.428z" fill="#35675b" fill-rule="evenodd"/><path clip-rule="evenodd" d="m443.954 516.55c.169-.331.574-.463.905-.294 10.901 5.55 17.392 8.346 22.702 9.924 4.972 1.478 8.926 1.894 14.568 2.488.374.04.754.08 1.143.121l-.141 1.338c-.398-.042-.788-.083-1.17-.123-5.619-.592-9.689-1.02-14.784-2.534-5.432-1.615-12.013-4.457-22.929-10.015-.331-.169-.462-.574-.294-.905z" fill="#407967" fill-rule="evenodd"/><path d="m446.223 605.281-3.621-3.714-1.183.157c-1.442.193-2.907.124-4.324-.204l-.772-.178c-.048.896-.318 3.046-.395 4.479 2.166 1.618 6.786 1.381 9.836.908.695-.108.95-.945.459-1.448z" fill="#35675b"/><path d="m467.301 603.162-3.621-3.715-1.182.158c-1.443.192-2.907.123-4.325-.204l-.771-.178c-.049.896-.319 3.046-.396 4.479 2.166 1.618 6.786 1.381 9.836.908.695-.108.95-.945.459-1.448z" fill="#35675b"/><path d="m420.34 560.281c1.055-11.627 7.417-38.595 24.421-53.453 2.714 0 10.221 1.268 18.543 6.342-1.357 12.231 5.879 32.162 12.211 47.111-8.141 8.154-34.824 12.231-55.175 0z" fill="#539882"/><path d="m463.177 514.806c.158 1.742 2.571 12.009 4.351 16.559l-6.117.426-2.283-9.564z" fill="#539882"/><path d="m420.34 559.623c1.048-11.482 7.366-38.116 24.254-52.79 1.797 0 .449-.223.449 2.237-12.576 17.224-21.11 38.474-17.517 54.132-3.593-1.565-4.267-2.013-7.186-3.579z" fill="#468677"/><path d="m453.77 444.758c4.568 5.942 1.585 15.898-6.662 22.239-8.248 6.341-18.637 6.665-23.204.724-4.568-5.942-1.585-15.898 6.662-22.239 8.248-6.341 18.637-6.665 23.204-.724z" fill="#c5c5c5"/><path d="m429.469 459.975c1.403-2.318 7.596-8.941 18.97-11.745l-2.916 9.615c-3.984 1.073-12.772 3.001-16.054 2.13z" fill="#539882"/><path d="m441.883 455.452c17.346-26.34 46.91-.647 39.277 19.005-18.016-7.905-33.691-15.964-39.277-19.005z" fill="#e1e1e1"/><path d="m473.125 463.135c4.401 5.26 6.208 9.039 7.634 10.196 1.14.926 1.034 1.735.838 2.024.428 1.846 1.49 5.794 2.318 6.816-1.509.648-2.146.891-2.276.931l-2.577-6.965z" fill="#ffc7a1"/><path d="m487.796 496.26c-2.68-4.796 1.469-13.107-6.049-15.707l-1.094 15.101c.315.762 2.43 1.499 7.143.606z" fill="#ffc7a1"/><path d="m479.661 476.175c5.277 17.09-1.221 34.271-14.514 38.374-13.292 4.104-28.344-6.423-33.621-23.513-5.276-17.09 1.222-34.271 14.514-38.375s28.345 6.424 33.621 23.514z" fill="#ffc7a1"/><path d="m485.486 478.773c.684 2.215-.301 4.487-2.2 5.073s-3.993-.735-4.676-2.95c-.684-2.215.3-4.486 2.199-5.073 1.899-.586 3.993.735 4.677 2.95z" fill="#fff"/><path d="m484.017 479.759c.195.633-.159 1.304-.792 1.5-.633.195-1.305-.16-1.5-.793s.159-1.304.792-1.5c.633-.195 1.305.16 1.5.793z" fill="#000"/><g filter="url(#g)"><path d="m485.932 484.281c.195.633-.929 1.542-2.511 2.031-1.583.488-3.024.371-3.22-.262-.195-.633.929-1.542 2.512-2.03 1.582-.489 3.023-.372 3.219.261z" fill="#fca"/></g><path clip-rule="evenodd" d="m487.748 483.181c.307-1.422.239-3.423-.433-5.602-.673-2.179-1.745-3.87-2.8-4.871-1.129-1.07-1.751-.964-1.82-.943-.068.021-.642.284-.971 1.805-.307 1.421-.239 3.422.433 5.601.673 2.179 1.745 3.87 2.801 4.871 1.128 1.07 1.75.964 1.819.943.068-.021.642-.284.971-1.804zm-.181 4.363c2.848-.88 3.89-5.697 2.326-10.761-1.563-5.064-5.139-8.456-7.988-7.576-2.848.879-3.89 5.697-2.326 10.76 1.563 5.064 5.139 8.456 7.988 7.577z" fill="#83c1a7" fill-rule="evenodd"/><path d="m486.342 486.984c-4.607-2.653-5.666-9.876-13.151-19.152l4.808 25.776c1.308-.92 4.809-3.533 8.343-6.624z" fill="#ffc7a1"/><path d="m440.443 499.579c.782 2.532-.894 5.298-3.742 6.177s-5.791-.46-6.573-2.992c-.781-2.532.894-5.297 3.742-6.177 2.849-.879 5.791.461 6.573 2.992z" fill="#ffc7a1"/><path d="m489.443 506.364c2.977-4.739-2.63-11.004-5.018-16.258-7.595 4.455-27.285 16.54-35.102 22.751 10.44 5.302 34.696 2.142 40.12-6.493z" fill="#ffc7a1"/><path clip-rule="evenodd" d="m478.486 477.361c-.676-1.2-1.38-2.45-2.117-3.72l.827-.47c.753 1.296 1.462 2.557 2.138 3.758 1.008 1.79 1.942 3.45 2.838 4.904.744 1.209 1.451 2.256 2.134 3.094.687.843 1.331 1.451 1.945 1.809l.534.312-3.157 2.967-.653-.67 2.277-2.141c-.574-.43-1.135-1.006-1.691-1.688-.72-.884-1.45-1.969-2.204-3.193-.902-1.464-1.854-3.155-2.871-4.962z" fill="#ffb685" fill-rule="evenodd"/><path clip-rule="evenodd" d="m480.322 484.319c-.95.549-2.096 1.369-3.645 2.821l-1.803-2.079c1.663-1.559 2.964-2.504 4.113-3.168.893-.516 1.694-.858 2.411-1.164.188-.081.371-.159.548-.237l1.091 2.549c-.222.098-.433.189-.639.277-.696.298-1.326.568-2.076 1.001z" fill="#91d7b9" fill-rule="evenodd"/><path d="m474 496c6 3 9.5-.5 9.5-2" stroke="#ff8281" stroke-linecap="round"/><path d="m471.276 494.116c.585 1.895-.517 3.918-2.461 4.519-1.944.6-3.994-.45-4.58-2.346-.585-1.895.517-3.918 2.461-4.518 1.944-.601 3.994.449 4.58 2.345z" fill="#fca7a7"/><path clip-rule="evenodd" d="m468.506 496.967c4.035-1.246 6.636-6.137 5.022-11.365s-6.519-7.801-10.555-6.556c-4.035 1.246-6.636 6.137-5.022 11.365s6.52 7.802 10.555 6.556zm.772 2.5c5.697-1.758 8.731-8.315 6.776-14.645-1.954-6.329-8.156-10.035-13.853-8.276-5.696 1.759-8.73 8.316-6.776 14.645 1.954 6.33 8.156 10.035 13.853 8.276z" fill="#91d7b9" fill-rule="evenodd"/><path d="m471.117 485.09c.782 2.531-.637 5.218-3.169 5.999-2.532.782-5.218-.637-5.999-3.169-.782-2.532.637-5.218 3.169-5.999 2.531-.782 5.217.637 5.999 3.169z" fill="#fff"/><path d="m434.083 496.315c3.039.694 18.674.996 27.753-29.085-1.706-3.748-8.044-11.412-19.744-12.09-18.53 10.151-10.768 40.628-8.009 41.175z" fill="#e1e1e1"/><path d="m479.393 471.24c-5.642 1.016-9.944-4.429-18.102-3.846-2.451-4.081-6.615-10.007-19.606-12.577 6.589-5.663 31.162-4.78 37.708 16.423z" fill="#e1e1e1"/><path d="m433.355 495.494c-28.035-13.629-9.707-43.919 9.374-41.364-4.309 19.721-8.213 35.767-9.374 41.364z" fill="#e1e1e1"/><path d="m439.742 505.449c.294.949-.239 1.956-1.188 2.249-.949.294-1.957-.238-2.25-1.188-.293-.949.239-1.957 1.189-2.25.949-.293 1.956.239 2.249 1.189z" fill="#539882"/><path d="m422.641 478.507c-.767-3.41-.497-5.315 2.25-13.038-.525 3.645.274 6.79 1.378 9.129.586 1.242.323 4.051-.891 4.524-.792.309-2.54.26-2.737-.615z" fill="#c4c4c4"/><path clip-rule="evenodd" d="m460.403 466.627c-.084-.49.251-.957.746-1.042 1.501-.26 3.139 0 4.752.445 1.506.415 3.081 1.018 4.6 1.6.114.044.227.087.341.131 1.646.63 3.216 1.216 4.664 1.56 1.456.345 2.669.414 3.633.117.48-.149.989.116 1.135.59.147.475-.124.98-.605 1.129-1.43.441-3.026.289-4.6-.085-1.583-.376-3.264-1.007-4.894-1.631-.107-.041-.214-.082-.321-.122-1.541-.591-3.036-1.163-4.453-1.554-1.522-.419-2.849-.597-3.95-.406-.496.086-.965-.242-1.048-.732z" fill="#c4c4c4" fill-rule="evenodd"/><path d="m471.247 449.959c-2.4-1.606-6.756-3.592-12.161-3.832 3.184.831 5.721 2.741 8.406 6.094.676.845 1.942.959 2.965.36 1.215-.712 1.889-1.886.79-2.622z" fill="#f0f0f0"/><g clip-rule="evenodd" fill-rule="evenodd"><path d="m428.67 449.47c.185.173.212.468.06.658l-.011.014c-1.314 1.648-4.595 5.76-4.184 11.299.019.258-.159.473-.398.481s-.449-.194-.468-.452c-.438-5.916 3.034-10.268 4.354-11.923.012-.015.024-.03.036-.044.152-.191.425-.206.611-.033z" fill="#a8a8a8"/><path d="m445.264 441.934c-.002-.252.183-.446.414-.433 2.079.117 4.643 1.094 6.733 3.474.165.187.168.477.006.646s-.426.154-.591-.034c-1.913-2.178-4.255-3.066-6.14-3.173-.231-.013-.42-.228-.422-.48z" fill="#e1e1e1"/><path d="m465.772 469.412c.336.364.313.932-.051 1.268l-7.462 6.885c-.364.335-.932.313-1.268-.052-.336-.364-.313-.931.051-1.267l7.463-6.885c.364-.336.931-.313 1.267.051z" fill="#969696"/><path d="m481.993 468.776c-.081.489-.543.82-1.031.739l-7.599-1.259c-.489-.081-.819-.543-.738-1.032.081-.488.542-.819 1.031-.738l7.599 1.259c.489.081.819.543.738 1.031z" fill="#969696"/><path d="m429.475 496.564c-.122-.653.364-1.306 1.087-1.458l25.659-5.408.443 2.364-25.658 5.408c-.723.152-1.408-.254-1.531-.906z" fill="#91d7b9"/></g><path d="m448.838 490.177c-11.059 10.474-14.772 4.326-17.523 4.234 5.932-3.714 14.153-4.37 17.523-4.234z" fill="#e1e1e1"/><path clip-rule="evenodd" d="m456.832 472.224c.442.248.61.814.374 1.262-3.289 6.265-5.79 10.272-8.419 13.217-2.647 2.965-5.39 4.814-9.088 6.818-.44.239-.991.064-1.231-.39s-.078-1.015.362-1.254c3.606-1.955 6.152-3.688 8.609-6.439 2.475-2.772 4.892-6.616 8.165-12.851.236-.448.786-.611 1.228-.363z" fill="#c4c4c4" fill-rule="evenodd"/><path d="m458.31 463.935c-1.667-2.408-7.324-7.871-16.344-9.568-.98-.185-3.642-.581-6.593.33 6.451-.043 15.054 3.147 22.937 9.238z" fill="#c4c4c4"/><path clip-rule="evenodd" d="m435.259 499.065c.079.206-.032.439-.247.52-1.155.433-1.59 1.023-1.732 1.525-.149.527 0 1.052.188 1.368.113.191.043.437-.157.551-.199.113-.453.051-.566-.139-.266-.45-.487-1.192-.266-1.975.228-.808.901-1.572 2.247-2.078.216-.08.454.021.533.228z" fill="#ffb685" fill-rule="evenodd"/><path d="m468.318 533.817c0 2.319-1.88 4.198-4.198 4.198-2.319 0-4.198-1.879-4.198-4.198 0-2.318 1.879-4.198 4.198-4.198 2.318 0 4.198 1.88 4.198 4.198z" fill="#539882"/><path d="m451.527 537.206c2.024.971 5.398 1.359 7.197-.388-.675 2.717-5.622 3.494-7.197.388z" fill="#468677"/><path clip-rule="evenodd" d="m458.666 536.902c.083.105.076.266-.016.361-1.261 1.304-2.435 1.919-3.603 1.953-1.164.034-2.28-.511-3.424-1.421-.101-.081-.126-.24-.055-.356s.211-.144.313-.063c1.106.88 2.126 1.358 3.155 1.328 1.025-.029 2.1-.566 3.312-1.819.092-.095.234-.087.318.017z" fill="#35675b" fill-rule="evenodd"/><path clip-rule="evenodd" d="m442.371 515.056c-1.148-.865-2.967-1.474-5.775-1.223-.939.083-1.769-.596-1.855-1.517-.085-.921.607-1.736 1.546-1.82 3.45-.308 6.182.41 8.163 1.902 1.974 1.487 3.01 3.601 3.349 5.727.336 2.111.004 4.314-.844 6.144-.838 1.809-2.284 3.452-4.318 4.073-.901.274-1.857-.22-2.137-1.103-.279-.884.224-1.822 1.124-2.097.81-.247 1.64-.999 2.224-2.26.575-1.241.811-2.783.578-4.239-.229-1.441-.9-2.717-2.055-3.587z" fill="#d1c870" fill-rule="evenodd"/><path clip-rule="evenodd" d="m420.014 496.085c-.297-.065-.589-.098-.873-.098v-1.153c.357 0 .719.041 1.081.121zm3.139 1.912c-.469-.493-.963-.896-1.464-1.208l.523-1.002c.581.362 1.144.824 1.673 1.379zm2.12 3.339c-.273-.654-.584-1.25-.922-1.787l.87-.653c.373.593.714 1.248 1.012 1.961zm1.042 3.965c-.095-.715-.228-1.391-.393-2.027l1.015-.315c.179.686.321 1.412.423 2.177zm.111 4.167c.05-.725.065-1.422.049-2.092l1.055-.031c.018.71.001 1.447-.052 2.21zm-.414 3.12c.068-.35.127-.695.179-1.034l1.041.191c-.054.355-.117.716-.187 1.081z" fill="#f4e97d" fill-rule="evenodd"/><path clip-rule="evenodd" d="m438.849 517.06c1.661-1.52 4.208-1.398 5.689.273 7.647 8.627 13.312 12.239 18.206 13.871 4.322 1.442 8.279 1.468 13.41 1.5.857.006 1.747.012 2.677.024l-.187 8.179c-.81-.011-1.627-.014-2.449-.018-5.095-.019-10.424-.04-16.035-1.912-6.667-2.224-13.442-6.895-21.637-16.14-1.481-1.671-1.336-4.258.326-5.777z" fill="#35675b" fill-rule="evenodd"/><circle cx="466.196" cy="486.514" fill="#000" r="1.72298"/><path d="m479 525c0-1.105.895-2 2-2h4c1.105 0 2 .895 2 2v16c0 1.657-1.343 3-3 3h-2c-1.657 0-3-1.343-3-3z" fill="#fff"/><path clip-rule="evenodd" d="m481.151 534.534c.238-.013.456-.025.65-.036.838-.047 1.175-.121 1.583-.211.108-.024.22-.048.348-.074.817-.163 1.082 1.415.265 1.578-.559.112-1.126.209-1.565.264l-.009.178 1.028-.057.565-.032c1.059-.058 1.082 1.415.265 1.579-.662.132-1.422.168-1.937.164l-.01.227c.67.021.985-.015 1.358-.058.11-.013.224-.026.354-.039.829-.08 1.205 1.245-.02 1.49-.722.144-1.337.129-1.752.119-.149-.004-.272-.007-.365-.001l.002-.019c-1.315-.001-3.464-.061-3.736-.305-.298-.266.177-3.195.451-4.627 0 0 0 0-.001 0 1.353-1.137 2.865-2.267 3.284-1.421.169.339-.221.745-.758 1.281z" fill="#ffc7a1" fill-rule="evenodd"/><path d="m481.996 515c1.5 1.5-3.5 6.5.778 6.5 3.2 0 2.222-4.5-.778-6.5z" fill="#ffb33b"/><path d="m483 522v2.5" stroke="#000" stroke-linecap="round"/></g></svg>