<svg width="36" height="36" viewBox="0 0 36 36" fill="none" xmlns="http://www.w3.org/2000/svg">
<circle cx="18" cy="18" r="16" fill="white"/>
<circle cx="18" cy="18" r="16" fill="#FFBD3A"/>
<circle cx="18" cy="18" r="16" stroke="#FFBD3A" stroke-width="4"/>
<rect x="9" y="14" width="18" height="17" rx="2" fill="black"/>
<path d="M12.5 10C12.5 7.51472 14.5147 5.5 17 5.5H19C21.4853 5.5 23.5 7.51472 23.5 10V18.5H12.5V10Z" stroke="black" stroke-width="3"/>
<path d="M21.5 20.5C21.5 22.0962 19.9978 23.5 18 23.5C16.0022 23.5 14.5 22.0962 14.5 20.5C14.5 18.9038 16.0022 17.5 18 17.5C19.9978 17.5 21.5 18.9038 21.5 20.5Z" fill="#FFBD3A" stroke="black"/>
<path d="M16 20H20L19.5 22.5L20 25H16L16.5 22.5L16 20Z" fill="#FFBD3A"/>
</svg>
