<svg fill="none" height="176" viewBox="0 0 280 176" width="280" xmlns="http://www.w3.org/2000/svg" xmlns:xlink="http://www.w3.org/1999/xlink"><filter id="a" color-interpolation-filters="sRGB" filterUnits="userSpaceOnUse" height="17.2308" width="34.1538" x="205.692" y="3"><feFlood flood-opacity="0" result="BackgroundImageFix"/><feColorMatrix in="SourceAlpha" type="matrix" values="0 0 0 0 0 0 0 0 0 0 0 0 0 0 0 0 0 0 127 0"/><feOffset dx="8" dy="4"/><feGaussianBlur stdDeviation="2"/><feColorMatrix type="matrix" values="0 0 0 0 0 0 0 0 0 0 0 0 0 0 0 0 0 0 0.1 0"/><feBlend in2="BackgroundImageFix" mode="normal" result="effect1_dropShadow"/><feBlend in="SourceGraphic" in2="effect1_dropShadow" mode="normal" result="shape"/></filter><filter id="b" color-interpolation-filters="sRGB" filterUnits="userSpaceOnUse" height="16.5007" width="22.9048" x="202" y="12.2305"><feFlood flood-opacity="0" result="BackgroundImageFix"/><feColorMatrix in="SourceAlpha" type="matrix" values="0 0 0 0 0 0 0 0 0 0 0 0 0 0 0 0 0 0 127 0"/><feOffset dx="5.42373" dy="2.71186"/><feGaussianBlur stdDeviation="1.35593"/><feColorMatrix type="matrix" values="0 0 0 0 0 0 0 0 0 0 0 0 0 0 0 0 0 0 0.1 0"/><feBlend in2="BackgroundImageFix" mode="normal" result="effect1_dropShadow"/><feBlend in="SourceGraphic" in2="effect1_dropShadow" mode="normal" result="shape"/></filter><filter id="c" color-interpolation-filters="sRGB" filterUnits="userSpaceOnUse" height="10.013" width="21.4811" x="216.77" y="21.4609"><feFlood flood-opacity="0" result="BackgroundImageFix"/><feColorMatrix in="SourceAlpha" type="matrix" values="0 0 0 0 0 0 0 0 0 0 0 0 0 0 0 0 0 0 127 0"/><feOffset dx="4.47458" dy="2.23729"/><feGaussianBlur stdDeviation="1.11864"/><feColorMatrix type="matrix" values="0 0 0 0 0 0 0 0 0 0 0 0 0 0 0 0 0 0 0.1 0"/><feBlend in2="BackgroundImageFix" mode="normal" result="effect1_dropShadow"/><feBlend in="SourceGraphic" in2="effect1_dropShadow" mode="normal" result="shape"/></filter><filter id="d" color-interpolation-filters="sRGB" filterUnits="userSpaceOnUse" height="15.5173" width="22.023" x="56" y="19"><feFlood flood-opacity="0" result="BackgroundImageFix"/><feColorMatrix in="SourceAlpha" type="matrix" values="0 0 0 0 0 0 0 0 0 0 0 0 0 0 0 0 0 0 127 0"/><feOffset dx="8" dy="4"/><feGaussianBlur stdDeviation="2"/><feColorMatrix type="matrix" values="0 0 0 0 0 0 0 0 0 0 0 0 0 0 0 0 0 0 0.1 0"/><feBlend in2="BackgroundImageFix" mode="normal" result="effect1_dropShadow"/><feBlend in="SourceGraphic" in2="effect1_dropShadow" mode="normal" result="shape"/></filter><filter id="e" color-interpolation-filters="sRGB" filterUnits="userSpaceOnUse" height="7.92949" width="15.6529" x="61.0117" y="26.5176"><feFlood flood-opacity="0" result="BackgroundImageFix"/><feColorMatrix in="SourceAlpha" type="matrix" values="0 0 0 0 0 0 0 0 0 0 0 0 0 0 0 0 0 0 127 0"/><feOffset dx="5.42373" dy="2.71186"/><feGaussianBlur stdDeviation="1.35593"/><feColorMatrix type="matrix" values="0 0 0 0 0 0 0 0 0 0 0 0 0 0 0 0 0 0 0.1 0"/><feBlend in2="BackgroundImageFix" mode="normal" result="effect1_dropShadow"/><feBlend in="SourceGraphic" in2="effect1_dropShadow" mode="normal" result="shape"/></filter><filter id="f" color-interpolation-filters="sRGB" filterUnits="userSpaceOnUse" height="7.81559" width="11.7234" x="56" y="29.0234"><feFlood flood-opacity="0" result="BackgroundImageFix"/><feColorMatrix in="SourceAlpha" type="matrix" values="0 0 0 0 0 0 0 0 0 0 0 0 0 0 0 0 0 0 127 0"/><feOffset dx="4.47458" dy="2.23729"/><feGaussianBlur stdDeviation="1.11864"/><feColorMatrix type="matrix" values="0 0 0 0 0 0 0 0 0 0 0 0 0 0 0 0 0 0 0.1 0"/><feBlend in2="BackgroundImageFix" mode="normal" result="effect1_dropShadow"/><feBlend in="SourceGraphic" in2="effect1_dropShadow" mode="normal" result="shape"/></filter><filter id="g" color-interpolation-filters="sRGB" filterUnits="userSpaceOnUse" height="597.349" width="1039.79" x="-145" y="-91"><feFlood flood-opacity="0" result="BackgroundImageFix"/><feColorMatrix in="SourceAlpha" type="matrix" values="0 0 0 0 0 0 0 0 0 0 0 0 0 0 0 0 0 0 127 0"/><feOffset dx="12"/><feGaussianBlur stdDeviation="5"/><feColorMatrix type="matrix" values="0 0 0 0 0 0 0 0 0 0 0 0 0 0 0 0 0 0 0.1 0"/><feBlend in2="BackgroundImageFix" mode="normal" result="effect1_dropShadow"/><feBlend in="SourceGraphic" in2="effect1_dropShadow" mode="normal" result="shape"/></filter><filter id="h" color-interpolation-filters="sRGB" filterUnits="userSpaceOnUse" height="524.714" width="576.574" x="-172.25" y="-207.25"><feFlood flood-opacity="0" result="BackgroundImageFix"/><feColorMatrix in="SourceAlpha" type="matrix" values="0 0 0 0 0 0 0 0 0 0 0 0 0 0 0 0 0 0 127 0"/><feOffset dx="12" dy="-4"/><feGaussianBlur stdDeviation="6.125"/><feColorMatrix type="matrix" values="0 0 0 0 0 0 0 0 0 0 0 0 0 0 0 0 0 0 0.1 0"/><feBlend in2="BackgroundImageFix" mode="normal" result="effect1_dropShadow"/><feBlend in="SourceGraphic" in2="effect1_dropShadow" mode="normal" result="shape"/></filter><filter id="i" color-interpolation-filters="sRGB" filterUnits="userSpaceOnUse" height="343.142" width="1075.45" x="-675.252" y="-88.2515"><feFlood flood-opacity="0" result="BackgroundImageFix"/><feColorMatrix in="SourceAlpha" type="matrix" values="0 0 0 0 0 0 0 0 0 0 0 0 0 0 0 0 0 0 127 0"/><feOffset dx="12" dy="-4"/><feGaussianBlur stdDeviation="6.12576"/><feColorMatrix type="matrix" values="0 0 0 0 0 0 0 0 0 0 0 0 0 0 0 0 0 0 0.1 0"/><feBlend in2="BackgroundImageFix" mode="normal" result="effect1_dropShadow"/><feBlend in="SourceGraphic" in2="effect1_dropShadow" mode="normal" result="shape"/></filter><filter id="j" color-interpolation-filters="sRGB" filterUnits="userSpaceOnUse" height="52.2373" width="50.9188" x="54.9404" y="105.764"><feFlood flood-opacity="0" result="BackgroundImageFix"/><feColorMatrix in="SourceAlpha" type="matrix" values="0 0 0 0 0 0 0 0 0 0 0 0 0 0 0 0 0 0 127 0"/><feOffset dx="2" dy="3"/><feGaussianBlur stdDeviation="1"/><feColorMatrix type="matrix" values="0 0 0 0 0 0 0 0 0 0 0 0 0 0 0 0 0 0 0.25 0"/><feBlend in2="BackgroundImageFix" mode="normal" result="effect1_dropShadow"/><feBlend in="SourceGraphic" in2="effect1_dropShadow" mode="normal" result="shape"/></filter><filter id="k" color-interpolation-filters="sRGB" filterUnits="userSpaceOnUse" height="6.26942" width="7.65408" x="81.8281" y="124.049"><feFlood flood-opacity="0" result="BackgroundImageFix"/><feBlend in="SourceGraphic" in2="BackgroundImageFix" mode="normal" result="shape"/><feColorMatrix in="SourceAlpha" result="hardAlpha" type="matrix" values="0 0 0 0 0 0 0 0 0 0 0 0 0 0 0 0 0 0 127 0"/><feOffset dx="1.5" dy="1"/><feGaussianBlur stdDeviation=".25"/><feComposite in2="hardAlpha" k2="-1" k3="1" operator="arithmetic"/><feColorMatrix type="matrix" values="0 0 0 0 0 0 0 0 0 0 0 0 0 0 0 0 0 0 0.25 0"/><feBlend in2="shape" mode="normal" result="effect1_innerShadow"/></filter><filter id="l" color-interpolation-filters="sRGB" filterUnits="userSpaceOnUse" height="11.8081" width="7.65408" x="67.751" y="124.049"><feFlood flood-opacity="0" result="BackgroundImageFix"/><feBlend in="SourceGraphic" in2="BackgroundImageFix" mode="normal" result="shape"/><feColorMatrix in="SourceAlpha" result="hardAlpha" type="matrix" values="0 0 0 0 0 0 0 0 0 0 0 0 0 0 0 0 0 0 127 0"/><feOffset dx="1.5" dy="1"/><feGaussianBlur stdDeviation=".25"/><feComposite in2="hardAlpha" k2="-1" k3="1" operator="arithmetic"/><feColorMatrix type="matrix" values="0 0 0 0 0 0 0 0 0 0 0 0 0 0 0 0 0 0 0.25 0"/><feBlend in2="shape" mode="normal" result="effect1_innerShadow"/></filter><filter id="m" color-interpolation-filters="sRGB" filterUnits="userSpaceOnUse" height="52.2373" width="50.9188" x="177.367" y="105.764"><feFlood flood-opacity="0" result="BackgroundImageFix"/><feColorMatrix in="SourceAlpha" type="matrix" values="0 0 0 0 0 0 0 0 0 0 0 0 0 0 0 0 0 0 127 0"/><feOffset dx="2" dy="3"/><feGaussianBlur stdDeviation="1"/><feColorMatrix type="matrix" values="0 0 0 0 0 0 0 0 0 0 0 0 0 0 0 0 0 0 0.25 0"/><feBlend in2="BackgroundImageFix" mode="normal" result="effect1_dropShadow"/><feBlend in="SourceGraphic" in2="effect1_dropShadow" mode="normal" result="shape"/></filter><filter id="n" color-interpolation-filters="sRGB" filterUnits="userSpaceOnUse" height="6.26942" width="7.65408" x="204.254" y="124.049"><feFlood flood-opacity="0" result="BackgroundImageFix"/><feBlend in="SourceGraphic" in2="BackgroundImageFix" mode="normal" result="shape"/><feColorMatrix in="SourceAlpha" result="hardAlpha" type="matrix" values="0 0 0 0 0 0 0 0 0 0 0 0 0 0 0 0 0 0 127 0"/><feOffset dx="1.5" dy="1"/><feGaussianBlur stdDeviation=".25"/><feComposite in2="hardAlpha" k2="-1" k3="1" operator="arithmetic"/><feColorMatrix type="matrix" values="0 0 0 0 0 0 0 0 0 0 0 0 0 0 0 0 0 0 0.25 0"/><feBlend in2="shape" mode="normal" result="effect1_innerShadow"/></filter><filter id="o" color-interpolation-filters="sRGB" filterUnits="userSpaceOnUse" height="11.8081" width="7.65408" x="190.177" y="124.049"><feFlood flood-opacity="0" result="BackgroundImageFix"/><feBlend in="SourceGraphic" in2="BackgroundImageFix" mode="normal" result="shape"/><feColorMatrix in="SourceAlpha" result="hardAlpha" type="matrix" values="0 0 0 0 0 0 0 0 0 0 0 0 0 0 0 0 0 0 127 0"/><feOffset dx="1.5" dy="1"/><feGaussianBlur stdDeviation=".25"/><feComposite in2="hardAlpha" k2="-1" k3="1" operator="arithmetic"/><feColorMatrix type="matrix" values="0 0 0 0 0 0 0 0 0 0 0 0 0 0 0 0 0 0 0.25 0"/><feBlend in2="shape" mode="normal" result="effect1_innerShadow"/></filter><filter id="p" color-interpolation-filters="sRGB" filterUnits="userSpaceOnUse" height="68.1016" width="77.5545" x="103.084" y="89.8984"><feFlood flood-opacity="0" result="BackgroundImageFix"/><feColorMatrix in="SourceAlpha" type="matrix" values="0 0 0 0 0 0 0 0 0 0 0 0 0 0 0 0 0 0 127 0"/><feOffset dx="2" dy="3"/><feGaussianBlur stdDeviation="1"/><feColorMatrix type="matrix" values="0 0 0 0 0 0 0 0 0 0 0 0 0 0 0 0 0 0 0.25 0"/><feBlend in2="BackgroundImageFix" mode="normal" result="effect1_dropShadow"/><feBlend in="SourceGraphic" in2="effect1_dropShadow" mode="normal" result="shape"/></filter><filter id="q" color-interpolation-filters="sRGB" filterUnits="userSpaceOnUse" height="11.8081" width="63.3499" x="108.712" y="123.826"><feFlood flood-opacity="0" result="BackgroundImageFix"/><feBlend in="SourceGraphic" in2="BackgroundImageFix" mode="normal" result="shape"/><feColorMatrix in="SourceAlpha" result="hardAlpha" type="matrix" values="0 0 0 0 0 0 0 0 0 0 0 0 0 0 0 0 0 0 127 0"/><feOffset dx="1.5" dy="1"/><feGaussianBlur stdDeviation=".25"/><feComposite in2="hardAlpha" k2="-1" k3="1" operator="arithmetic"/><feColorMatrix type="matrix" values="0 0 0 0 0 0 0 0 0 0 0 0 0 0 0 0 0 0 0.25 0"/><feBlend in2="shape" mode="normal" result="effect1_innerShadow"/></filter><filter id="r" color-interpolation-filters="sRGB" filterUnits="userSpaceOnUse" height="6.46739" width="3.15217" x="142.527" y="101.945"><feFlood flood-opacity="0" result="BackgroundImageFix"/><feBlend in="SourceGraphic" in2="BackgroundImageFix" mode="normal" result="shape"/><feColorMatrix in="SourceAlpha" result="hardAlpha" type="matrix" values="0 0 0 0 0 0 0 0 0 0 0 0 0 0 0 0 0 0 127 0"/><feOffset dx="1.5" dy="1"/><feGaussianBlur stdDeviation=".25"/><feComposite in2="hardAlpha" k2="-1" k3="1" operator="arithmetic"/><feColorMatrix type="matrix" values="0 0 0 0 0 0 0 0 0 0 0 0 0 0 0 0 0 0 0.25 0"/><feBlend in2="shape" mode="normal" result="effect1_innerShadow"/></filter><filter id="s" color-interpolation-filters="sRGB" filterUnits="userSpaceOnUse" height="6.46739" width="3.15217" x="137.886" y="101.945"><feFlood flood-opacity="0" result="BackgroundImageFix"/><feBlend in="SourceGraphic" in2="BackgroundImageFix" mode="normal" result="shape"/><feColorMatrix in="SourceAlpha" result="hardAlpha" type="matrix" values="0 0 0 0 0 0 0 0 0 0 0 0 0 0 0 0 0 0 127 0"/><feOffset dx="1.5" dy="1"/><feGaussianBlur stdDeviation=".25"/><feComposite in2="hardAlpha" k2="-1" k3="1" operator="arithmetic"/><feColorMatrix type="matrix" values="0 0 0 0 0 0 0 0 0 0 0 0 0 0 0 0 0 0 0.25 0"/><feBlend in2="shape" mode="normal" result="effect1_innerShadow"/></filter><filter id="t" color-interpolation-filters="sRGB" filterUnits="userSpaceOnUse" height="6.46739" width="3.15217" x="133.245" y="101.945"><feFlood flood-opacity="0" result="BackgroundImageFix"/><feBlend in="SourceGraphic" in2="BackgroundImageFix" mode="normal" result="shape"/><feColorMatrix in="SourceAlpha" result="hardAlpha" type="matrix" values="0 0 0 0 0 0 0 0 0 0 0 0 0 0 0 0 0 0 127 0"/><feOffset dx="1.5" dy="1"/><feGaussianBlur stdDeviation=".25"/><feComposite in2="hardAlpha" k2="-1" k3="1" operator="arithmetic"/><feColorMatrix type="matrix" values="0 0 0 0 0 0 0 0 0 0 0 0 0 0 0 0 0 0 0.25 0"/><feBlend in2="shape" mode="normal" result="effect1_innerShadow"/></filter><mask id="u" height="176" maskUnits="userSpaceOnUse" width="280" x="0" y="0"><path d="m0 0h280v176h-280z" fill="#2c5291"/></mask><path d="m0 0h280v176h-280z" fill="#2c5291"/><g filter="url(#a)"><path d="m217.896 12.2308c1.126-1.9581 3.004-4.82521 9.95-5.17486-2.159-.41958-7.228-.48951-9.95 1.67833-2.253-2.37763-3.192-3.07693-12.204-5.73427 8.259 2.4353 9.8 5.08961 12.202 9.2277z" fill="#000"/></g><g filter="url(#b)"><path d="m210.136 23.3074c.751-2.3497 2.003-5.7902 6.634-6.2098-1.44-.5035-4.819-.5874-6.634 2.014-1.502-2.8532-2.128-3.6923-8.136-6.8811 5.506 2.9223 6.533 6.1075 8.135 11.0732z" fill="#000"/></g><g filter="url(#c)"><path d="m224.905 26.9994c.751-1.1748 2.003-2.8951 6.634-3.1049-1.44-.2517-4.819-.2937-6.634 1.007-1.502-1.4266-2.128-1.8462-8.136-3.4406 5.506 1.4612 6.533 3.0538 8.135 5.5367z" fill="#000"/></g><g filter="url(#d)"><path d="m60.5019 26.5173c-.5097-1.5946-1.3591-3.9295-4.5019-4.2143.9768-.3417 3.2702-.3986 4.5019 1.3668 1.0193-1.9362 1.444-2.5057 5.5211-4.6698-3.7365 1.9832-4.4335 4.1448-5.5203 7.5148z" fill="#000"/></g><g filter="url(#e)"><path d="m64.3881 29.0233c-.3822-.5315-1.0193-1.3098-3.3764-1.4047.7326-.1139 2.4527-.1329 3.3764.4556.7645-.6454 1.083-.8353 4.1409-1.5566-2.8024.6611-3.3252 1.3816-4.1403 2.5049z" fill="#000"/></g><g filter="url(#f)"><path d="m58.2509 32.3644c-.2548-.7087-.6795-1.7464-2.2509-1.8729.4884-.1519 1.6351-.1772 2.2509.6074.5097-.8605.722-1.1137 2.7606-2.0755-1.8682.8815-2.2168 1.8422-2.7602 3.3399z" fill="#000"/></g><g mask="url(#u)"><g filter="url(#g)"><path d="m768.91 215.584 103.876 280.765h-1017.786l97.8832-203.654 60.9273-207.6082 26.9679 116.6562 76.9086-235.2896 83.899 118.6334 86.897-166.0868 157.812 282.743 61.926-98.861 43.947 112.702 79.905-177.9505 84.899 284.7205z" fill="#b2dda5"/></g><path d="m7.43734 258.097 5.98696-145.326-24.4084 86.998z" fill="#fff" fill-opacity=".3"/><path d="m154 25.0189-30-43.0189 10.354 60z" fill="#fff" fill-opacity=".3"/><path d="m269.022 42.5777 18.421-103.8043-27.632 53.3851z" fill="#fff" fill-opacity=".3"/><g filter="url(#h)"><path d="m194.452-.107986 185.622 236.649986-27.499 72.672-430.8268-27.951-93.7482-44.721 124.6963-427.542 158.4247 375.673z" fill="#35675b"/></g><path d="m229.664 56.243-35.551-45.3758 16.279 41.4352z" fill="#000" fill-opacity=".2"/><path d="m37.2514 19.0115-22.6415-53.0115 5.0385 44.2324z" fill="#000" fill-opacity=".2"/><g filter="url(#i)"><path d="m267.802 49.12 108.142 197.519h-1050.944l117.897-115.53 69.541-151.3956 68.535 119.718 72.646-171.4314 153.545 288.825 57.787-143.481 107.3165 57.765 97.4108-108.0764 130.4317 143.4804z" fill="#91d7b9"/></g><path d="m291 98-22-41v23.1739z" fill="#fff" fill-opacity=".3"/><path d="m102 68-31-36 5.8125 36z" fill="#fff" fill-opacity=".3"/><g filter="url(#j)"><path d="m65.9458 137.75h1.98913v15.25h-1.98913z" fill="#000"/><path d="m93.1304 137.75h1.98913v15.25h-1.98913z" fill="#000"/><path d="m62.2129 115.726 15.3467-7.064 17.6544 7.064v23.548h-33.0011z" fill="#000"/><path d="m62.6304 137.088h1.98913v15.913h-1.98913z" fill="#000"/><path d="m89.8154 137.088h1.98913v15.913h-1.98913z" fill="#000"/><path d="m60.3662 135.357h36.6935v4.61554h-36.6935z" fill="#000"/><g filter="url(#k)"><path d="m81.8281 124.049h7.15408v5.76942h-7.15408z" fill="#ffb03a"/></g><g filter="url(#l)"><path d="m67.751 124.049h7.15408v11.3081h-7.15408z" fill="#ffb03a"/></g><g stroke="#000"><path d="m56 118.4 21.7841-9.824 23.0659 9.824" stroke-width="5.15368"/><path d="m96.4458 139.738v-9.283"/><path d="m94.4565 139.738v-9.283"/><path d="m92.4678 139.738v-9.283"/><path d="m90.4785 139.738v-9.283"/><path d="m88.4893 139.738v-9.283"/><path d="m86.5 139.738v-9.283"/><path d="m84.5112 139.738v-9.283"/><path d="m82.522 139.738v-9.283"/><path d="m80.5327 139.738v-9.283"/><path d="m78.5439 139.738v-9.283"/><path d="m76.5547 139.738v-9.283"/><path d="m74.5654 139.738v-9.283"/><path d="m72.5762 139.738v-9.283"/><path d="m70.5874 139.738v-9.283"/><path d="m68.5981 139.738v-9.283"/><path d="m66.6089 139.738v-9.283"/><path d="m64.6196 139.738v-9.283"/><path d="m62.6309 139.738v-9.283"/><path d="m60.6416 139.738v-9.283"/><path d="m59.647 130.455h37.7935"/></g></g><g filter="url(#m)"><path d="m188.372 137.75h1.98913v15.25h-1.98913z" fill="#000"/><path d="m215.557 137.75h1.98913v15.25h-1.98913z" fill="#000"/><path d="m184.639 115.726 15.347-7.064 17.654 7.064v23.548h-33.001z" fill="#000"/><path d="m185.057 137.088h1.98913v15.913h-1.98913z" fill="#000"/><path d="m212.242 137.088h1.98913v15.913h-1.98913z" fill="#000"/><path d="m182.792 135.357h36.6935v4.61554h-36.6935z" fill="#000"/><g filter="url(#n)"><path d="m204.254 124.049h7.15408v5.76942h-7.15408z" fill="#ffb03a"/></g><g filter="url(#o)"><path d="m190.177 124.049h7.15408v11.3081h-7.15408z" fill="#ffb03a"/></g><g stroke="#000"><path d="m178.426 118.4 21.784-9.824 23.066 9.824" stroke-width="5.15368"/><path d="m218.872 139.738v-9.283"/><path d="m216.883 139.738v-9.283"/><path d="m214.894 139.738v-9.283"/><path d="m212.905 139.738v-9.283"/><path d="m210.916 139.738v-9.283"/><path d="m208.926 139.738v-9.283"/><path d="m206.938 139.738v-9.283"/><path d="m204.948 139.738v-9.283"/><path d="m202.959 139.738v-9.283"/><path d="m200.97 139.738v-9.283"/><path d="m198.981 139.738v-9.283"/><path d="m196.992 139.738v-9.283"/><path d="m195.002 139.738v-9.283"/><path d="m193.014 139.738v-9.283"/><path d="m191.024 139.738v-9.283"/><path d="m189.035 139.738v-9.283"/><path d="m187.046 139.738v-9.283"/><path d="m185.057 139.738v-9.283"/><path d="m183.068 139.738v-9.283"/><path d="m182.073 130.455h37.794"/></g></g><g filter="url(#p)"><path d="m106.723 115.615 33.152-7.039 33.152 7.039v23.461h-66.304z" fill="#000"/><path d="m127.94 137.75h1.98913v15.25h-1.98913z" fill="#000"/><path d="m171.039 137.75h1.98913v15.25h-1.98913z" fill="#000"/><path d="m106.723 137.086h1.98913v15.913h-1.98913z" fill="#000"/><path d="m149.158 137.086h1.98913v15.913h-1.98913z" fill="#000"/><path d="m106.723 135.098h66.3043v4.6413h-66.3043z" fill="#000"/><g fill="#ffb03a" filter="url(#q)"><path d="m131.918 123.826h2.65217v5.96739h-2.65217z"/><path d="m127.277 123.826h2.65217v5.96739h-2.65217z"/><path d="m122.636 123.826h2.65217v5.96739h-2.65217z"/><path d="m117.995 123.826h2.65217v5.96739h-2.65217z"/><path d="m113.353 123.826h2.65217v5.96739h-2.65217z"/><path d="m108.712 123.826h2.65217v5.96739h-2.65217z"/><path d="m145.703 123.826h2.65217v5.96739h-2.65217z"/><path d="m150.345 123.826h2.65217v5.96739h-2.65217z"/><path d="m154.986 123.826h2.65217v5.96739h-2.65217z"/><path d="m159.627 123.826h2.65217v5.96739h-2.65217z"/><path d="m164.269 123.826h2.65217v5.96739h-2.65217z"/><path d="m168.91 123.826h2.65217v5.96739h-2.65217z"/><path d="m136.56 123.826h7.15408v11.3081h-7.15408z"/></g><g stroke="#000"><path d="m103.739 117.859 35.34-9.283 36.932 9.283" stroke-width="5.15368"/><path d="m157.838 139.738v-9.283"/><path d="m155.971 139.738v-9.283"/><path d="m154.104 139.738v-9.283"/><path d="m152.237 139.738v-9.283"/><path d="m150.37 139.738v-9.283"/><path d="m148.503 139.738v-9.283"/><path d="m146.636 139.738v-9.283"/><path d="m144.77 139.738v-9.283"/><path d="m142.902 139.738v-9.283"/><path d="m141.035 139.738v-9.283"/><path d="m139.168 139.738v-9.283"/><path d="m137.301 139.738v-9.283"/><path d="m135.435 139.738v-9.283"/><path d="m133.567 139.738v-9.283"/><path d="m131.7 139.738v-9.283"/><path d="m129.833 139.738v-9.283"/><path d="m127.966 139.738v-9.283"/><path d="m126.099 139.738v-9.283"/><path d="m124.232 139.738v-9.283"/><path d="m123.299 130.455h35.473"/></g><path d="m129.267 98.6309h19.8913v19.8913h-19.8913z" fill="#000"/><path d="m139.212 92 9.946 6.6304h-19.891z" fill="#000"/><path d="m126.946 100.952 12.266-8.62 12.598 8.62" stroke="#000" stroke-width="4"/><g filter="url(#r)"><path d="m142.527 101.945h2.65217v5.96739h-2.65217z" fill="#ffb03a"/></g><g filter="url(#s)"><path d="m137.886 101.945h2.65217v5.96739h-2.65217z" fill="#ffb03a"/></g><g filter="url(#t)"><path d="m133.245 101.945h2.65217v5.96739h-2.65217z" fill="#ffb03a"/></g></g><g clip-rule="evenodd" fill-rule="evenodd"><path d="m230.16 155.263h-11.031c-2.999 0-5.431 2.432-5.431 5.431 0 .759.156 1.482.437 2.138h-8.829c-2.999 0-5.431 2.431-5.431 5.431 0 1.026.285 1.986.78 2.805h-4.072c-3.636 0-6.583 2.947-6.583 6.583s2.947 6.583 6.583 6.583h114.875c3.636 0 6.583-2.947 6.583-6.583s-2.947-6.583-6.583-6.583h-4.071c.495-.819.78-1.779.78-2.805 0-3-2.431-5.431-5.431-5.431h-8.831c.281-.656.436-1.379.436-2.138 0-2.999-2.431-5.431-5.431-5.431h-11.028c-.088-2.922-2.485-5.263-5.428-5.263h-36.866c-2.943 0-5.339 2.341-5.428 5.263z" fill="#fff6f0" fill-opacity=".9"/><path d="m47.1589 149.263h-11.0305c-2.9994 0-5.431 2.432-5.431 5.431 0 .759.1556 1.482.4367 2.138h-8.8288c-2.9995 0-5.4311 2.431-5.4311 5.431 0 1.026.2848 1.986.7797 2.805h-4.0721c-3.6357 0-6.58305 2.947-6.58305 6.583s2.94736 6.583 6.58305 6.583h114.8752c3.636 0 6.583-2.947 6.583-6.583s-2.947-6.583-6.583-6.583h-4.07c.494-.819.779-1.779.779-2.805 0-3-2.431-5.431-5.431-5.431h-8.831c.281-.656.436-1.379.436-2.138 0-2.999-2.431-5.431-5.431-5.431h-11.0277c-.0886-2.922-2.4851-5.263-5.4285-5.263h-36.8654c-2.9433 0-5.3399 2.341-5.4285 5.263z" fill="#fff6f0" fill-opacity=".9"/><path d="m99.825 147.65h-7.6394c-2.0783 0-3.7631 1.685-3.7631 3.764 0 .524.1073 1.023.301 1.477h-6.1175c-2.0783 0-3.7631 1.684-3.7631 3.763 0 .709.1965 1.373.5381 1.94h-2.8196c-2.5192 0-4.5614 2.042-4.5614 4.561s2.0422 4.561 4.5614 4.561h79.5946c2.52 0 4.562-2.042 4.562-4.561s-2.042-4.561-4.562-4.561h-2.817c.341-.567.538-1.231.538-1.94 0-2.079-1.685-3.763-3.763-3.763h-6.116c.194-.454.301-.953.301-1.477 0-2.079-1.685-3.764-3.763-3.764h-7.645c-.059-2.026-1.721-3.65-3.761-3.65h-25.544c-2.04 0-3.7014 1.624-3.761 3.65z" fill="#fff0e7" fill-opacity=".8"/><path d="m167.825 149.65h-7.639c-2.079 0-3.763 1.685-3.763 3.764 0 .524.107 1.023.3 1.477h-6.117c-2.078 0-3.763 1.684-3.763 3.763 0 .709.196 1.373.538 1.94h-2.82c-2.519 0-4.561 2.042-4.561 4.561s2.042 4.561 4.561 4.561h79.595c2.52 0 4.562-2.042 4.562-4.561s-2.042-4.561-4.562-4.561h-2.817c.341-.567.538-1.231.538-1.94 0-2.079-1.685-3.763-3.763-3.763h-6.116c.194-.454.301-.953.301-1.477 0-2.079-1.685-3.764-3.763-3.764h-7.645c-.059-2.026-1.721-3.65-3.761-3.65h-25.544c-2.04 0-3.701 1.624-3.761 3.65z" fill="#fff0e7" fill-opacity=".8"/><path d="m-11.8411 139.92h-11.0305c-2.9994 0-5.431 2.431-5.431 5.431 0 .758.1556 1.481.4367 2.137h-8.8288c-2.9995 0-5.4311 2.431-5.4311 5.431 0 1.026.2848 1.986.7797 2.805h-4.0721c-3.6357 0-6.5831 2.948-6.5831 6.583 0 3.636 2.9474 6.583 6.5831 6.583h114.8751c3.6358 0 6.5831-2.947 6.5831-6.583 0-3.635-2.9473-6.583-6.5831-6.583h-4.0704c.4949-.819.7797-1.779.7797-2.805 0-3-2.4316-5.431-5.4311-5.431h-8.8314c.281-.656.4367-1.379.4367-2.137 0-3-2.4316-5.431-5.4311-5.431h-11.028c-.0886-2.922-2.4851-5.264-5.4285-5.264h-36.86537c-2.94338 0-5.33993 2.342-5.42853 5.264z" fill="#fff0e7" fill-opacity=".9"/><path d="m1.04424 163.496h-5.23073c-1.42238 0-2.57545 1.153-2.57545 2.576 0 .359.0738.702.20709 1.013h-4.18675c-1.4224 0-2.5755 1.153-2.5755 2.576 0 .486.1351.942.3697 1.33h-1.9309c-1.7241 0-3.1217 1.397-3.1217 3.122 0 1.724 1.3976 3.121 3.1217 3.121h54.4748c1.7241 0 3.1218-1.397 3.1218-3.121 0-1.725-1.3977-3.122-3.1218-3.122h-1.9303c.2347-.388.3697-.844.3697-1.33 0-1.423-1.1531-2.576-2.5754-2.576h-4.1879c.1333-.311.2071-.654.2071-1.013 0-1.423-1.1531-2.576-2.5755-2.576h-5.2296c-.0419-1.386-1.1784-2.496-2.5742-2.496h-17.4819c-1.39584 0-2.53231 1.11-2.57426 2.496z" fill="#fff0e7" fill-opacity=".9"/><path d="m211.167 145.502h-5.814c-1.581 0-2.862 1.281-2.862 2.862 0 .403.083.786.233 1.133h-4.655c-1.581 0-2.863 1.281-2.863 2.862 0 .541.15 1.046.41 1.477h-2.146c-1.917 0-3.47 1.553-3.47 3.47 0 1.916 1.553 3.469 3.47 3.469h60.546c1.916 0 3.469-1.553 3.469-3.469 0-1.917-1.553-3.47-3.469-3.47h-2.143c.26-.431.409-.936.409-1.477 0-1.581-1.281-2.862-2.862-2.862h-4.658c.15-.347.233-.73.233-1.133 0-1.581-1.282-2.862-2.863-2.862h-5.812c-.048-1.539-1.311-2.772-2.861-2.772h-19.43c-1.551 0-2.813 1.233-2.862 2.772z" fill="#fff0e7" fill-opacity=".9"/><path d="m121.167 152.771h-5.814c-1.581 0-2.862 1.282-2.862 2.863 0 .402.083.785.233 1.132h-4.655c-1.581 0-2.863 1.282-2.863 2.863 0 .54.15 1.045.41 1.476h-2.146c-1.917 0-3.47 1.554-3.47 3.47s1.553 3.47 3.47 3.47h60.546c1.916 0 3.469-1.554 3.469-3.47s-1.553-3.47-3.469-3.47h-2.143c.26-.431.409-.936.409-1.476 0-1.581-1.281-2.863-2.862-2.863h-4.658c.15-.347.233-.73.233-1.132 0-1.581-1.282-2.863-2.863-2.863h-5.812c-.048-1.538-1.311-2.771-2.861-2.771h-19.43c-1.551 0-2.813 1.233-2.862 2.771z" fill="#fff6f0" fill-opacity=".9"/><path d="m247.752 136.132h-6.554c-1.784 0-3.229 1.446-3.229 3.229 0 .45.092.878.258 1.267h-5.249c-1.783 0-3.229 1.446-3.229 3.229 0 .609.169 1.179.462 1.665h-2.419c-2.162 0-3.914 1.752-3.914 3.914 0 2.161 1.752 3.913 3.914 3.913h68.294c2.162 0 3.914-1.752 3.914-3.913 0-2.162-1.752-3.914-3.914-3.914h-2.417c.293-.486.461-1.056.461-1.665 0-1.783-1.445-3.229-3.229-3.229h-5.247c.166-.389.258-.817.258-1.267 0-1.783-1.446-3.229-3.229-3.229h-6.559c-.051-1.738-1.476-3.132-3.227-3.132h-21.917c-1.751 0-3.176 1.394-3.228 3.132z" fill="#fff1e8" fill-opacity=".8"/><path d="m199.53 153.545c2.018 0 3.653 1.635 3.653 3.653 0 .509-.104.993-.292 1.434h5.937c2.018 0 3.653 1.635 3.653 3.653 0 .688-.19 1.332-.521 1.882h2.734c2.446 0 4.428 1.982 4.428 4.428 0 2.445-1.982 4.428-4.428 4.428h-77.266c-2.446 0-4.428-1.983-4.428-4.428 0-2.446 1.982-4.428 4.428-4.428h2.737c-.332-.55-.522-1.194-.522-1.882 0-2.018 1.635-3.653 3.653-3.653h5.938c-.188-.441-.292-.925-.292-1.434 0-2.018 1.636-3.653 3.653-3.653z" fill="#fff1e8" fill-opacity=".8"/></g></g></svg>