<svg fill="none" height="198" viewBox="0 0 283 198" width="283" xmlns="http://www.w3.org/2000/svg" xmlns:xlink="http://www.w3.org/1999/xlink"><filter id="a" color-interpolation-filters="sRGB" filterUnits="userSpaceOnUse" height="183.893" width="310.92" x="71.9629" y="2"><feFlood flood-opacity="0" result="BackgroundImageFix"/><feColorMatrix in="SourceAlpha" type="matrix" values="0 0 0 0 0 0 0 0 0 0 0 0 0 0 0 0 0 0 127 0"/><feOffset dx="12"/><feGaussianBlur stdDeviation="5"/><feColorMatrix type="matrix" values="0 0 0 0 0 0 0 0 0 0 0 0 0 0 0 0 0 0 0.1 0"/><feBlend in2="BackgroundImageFix" mode="normal" result="effect1_dropShadow"/><feBlend in="SourceGraphic" in2="effect1_dropShadow" mode="normal" result="shape"/></filter><filter id="b" color-interpolation-filters="sRGB" filterUnits="userSpaceOnUse" height="166.496" width="181.218" x="138.125" y="14.834"><feFlood flood-opacity="0" result="BackgroundImageFix"/><feColorMatrix in="SourceAlpha" type="matrix" values="0 0 0 0 0 0 0 0 0 0 0 0 0 0 0 0 0 0 127 0"/><feOffset dx="12" dy="-4"/><feGaussianBlur stdDeviation="6.125"/><feColorMatrix type="matrix" values="0 0 0 0 0 0 0 0 0 0 0 0 0 0 0 0 0 0 0.1 0"/><feBlend in2="BackgroundImageFix" mode="normal" result="effect1_dropShadow"/><feBlend in="SourceGraphic" in2="effect1_dropShadow" mode="normal" result="shape"/></filter><filter id="c" color-interpolation-filters="sRGB" filterUnits="userSpaceOnUse" height="114.955" width="322.836" x="49.7485" y="69.2758"><feFlood flood-opacity="0" result="BackgroundImageFix"/><feColorMatrix in="SourceAlpha" type="matrix" values="0 0 0 0 0 0 0 0 0 0 0 0 0 0 0 0 0 0 127 0"/><feOffset dx="12" dy="-4"/><feGaussianBlur stdDeviation="6.12576"/><feColorMatrix type="matrix" values="0 0 0 0 0 0 0 0 0 0 0 0 0 0 0 0 0 0 0.1 0"/><feBlend in2="BackgroundImageFix" mode="normal" result="effect1_dropShadow"/><feBlend in="SourceGraphic" in2="effect1_dropShadow" mode="normal" result="shape"/></filter><filter id="d" color-interpolation-filters="sRGB" filterUnits="userSpaceOnUse" height="17" width="24" x="110.188" y="68"><feFlood flood-opacity="0" result="BackgroundImageFix"/><feColorMatrix in="SourceAlpha" type="matrix" values="0 0 0 0 0 0 0 0 0 0 0 0 0 0 0 0 0 0 127 0"/><feOffset dx="8" dy="4"/><feGaussianBlur stdDeviation="2"/><feColorMatrix type="matrix" values="0 0 0 0 0 0 0 0 0 0 0 0 0 0 0 0 0 0 0.1 0"/><feBlend in2="BackgroundImageFix" mode="normal" result="effect1_dropShadow"/><feBlend in="SourceGraphic" in2="effect1_dropShadow" mode="normal" result="shape"/></filter><filter id="e" color-interpolation-filters="sRGB" filterUnits="userSpaceOnUse" height="8.42373" width="17.1356" x="116.188" y="77"><feFlood flood-opacity="0" result="BackgroundImageFix"/><feColorMatrix in="SourceAlpha" type="matrix" values="0 0 0 0 0 0 0 0 0 0 0 0 0 0 0 0 0 0 127 0"/><feOffset dx="5.42373" dy="2.71186"/><feGaussianBlur stdDeviation="1.35593"/><feColorMatrix type="matrix" values="0 0 0 0 0 0 0 0 0 0 0 0 0 0 0 0 0 0 0.1 0"/><feBlend in2="BackgroundImageFix" mode="normal" result="effect1_dropShadow"/><feBlend in="SourceGraphic" in2="effect1_dropShadow" mode="normal" result="shape"/></filter><filter id="f" color-interpolation-filters="sRGB" filterUnits="userSpaceOnUse" height="8.47458" width="12.7119" x="110.188" y="80"><feFlood flood-opacity="0" result="BackgroundImageFix"/><feColorMatrix in="SourceAlpha" type="matrix" values="0 0 0 0 0 0 0 0 0 0 0 0 0 0 0 0 0 0 127 0"/><feOffset dx="4.47458" dy="2.23729"/><feGaussianBlur stdDeviation="1.11864"/><feColorMatrix type="matrix" values="0 0 0 0 0 0 0 0 0 0 0 0 0 0 0 0 0 0 0.1 0"/><feBlend in2="BackgroundImageFix" mode="normal" result="effect1_dropShadow"/><feBlend in="SourceGraphic" in2="effect1_dropShadow" mode="normal" result="shape"/></filter><filter id="g" color-interpolation-filters="sRGB" filterUnits="userSpaceOnUse" height="13" width="24" x="210.188" y="36"><feFlood flood-opacity="0" result="BackgroundImageFix"/><feColorMatrix in="SourceAlpha" type="matrix" values="0 0 0 0 0 0 0 0 0 0 0 0 0 0 0 0 0 0 127 0"/><feOffset dx="8" dy="4"/><feGaussianBlur stdDeviation="2"/><feColorMatrix type="matrix" values="0 0 0 0 0 0 0 0 0 0 0 0 0 0 0 0 0 0 0.1 0"/><feBlend in2="BackgroundImageFix" mode="normal" result="effect1_dropShadow"/><feBlend in="SourceGraphic" in2="effect1_dropShadow" mode="normal" result="shape"/></filter><filter id="h" color-interpolation-filters="sRGB" filterUnits="userSpaceOnUse" height="11.4237" width="16.1356" x="216.188" y="41"><feFlood flood-opacity="0" result="BackgroundImageFix"/><feColorMatrix in="SourceAlpha" type="matrix" values="0 0 0 0 0 0 0 0 0 0 0 0 0 0 0 0 0 0 127 0"/><feOffset dx="5.42373" dy="2.71186"/><feGaussianBlur stdDeviation="1.35593"/><feColorMatrix type="matrix" values="0 0 0 0 0 0 0 0 0 0 0 0 0 0 0 0 0 0 0.1 0"/><feBlend in2="BackgroundImageFix" mode="normal" result="effect1_dropShadow"/><feBlend in="SourceGraphic" in2="effect1_dropShadow" mode="normal" result="shape"/></filter><filter id="i" color-interpolation-filters="sRGB" filterUnits="userSpaceOnUse" height="7.47458" width="14.7119" x="208.188" y="46"><feFlood flood-opacity="0" result="BackgroundImageFix"/><feColorMatrix in="SourceAlpha" type="matrix" values="0 0 0 0 0 0 0 0 0 0 0 0 0 0 0 0 0 0 127 0"/><feOffset dx="4.47458" dy="2.23729"/><feGaussianBlur stdDeviation="1.11864"/><feColorMatrix type="matrix" values="0 0 0 0 0 0 0 0 0 0 0 0 0 0 0 0 0 0 0.1 0"/><feBlend in2="BackgroundImageFix" mode="normal" result="effect1_dropShadow"/><feBlend in="SourceGraphic" in2="effect1_dropShadow" mode="normal" result="shape"/></filter><filter id="j" color-interpolation-filters="sRGB" filterUnits="userSpaceOnUse" height="41.2932" width="66.8571" x=".339355" y="156.088"><feFlood flood-opacity="0" result="BackgroundImageFix"/><feBlend in="SourceGraphic" in2="BackgroundImageFix" mode="normal" result="shape"/><feGaussianBlur result="effect1_foregroundBlur" stdDeviation="7"/></filter><filter id="k" color-interpolation-filters="sRGB" filterUnits="userSpaceOnUse" height="93.7254" width="53.2622" x="14.7202" y="94.1581"><feFlood flood-opacity="0" result="BackgroundImageFix"/><feColorMatrix in="SourceAlpha" type="matrix" values="0 0 0 0 0 0 0 0 0 0 0 0 0 0 0 0 0 0 127 0"/><feOffset dx="5.67975"/><feGaussianBlur stdDeviation="5.67975"/><feColorMatrix type="matrix" values="0 0 0 0 0 0 0 0 0 0 0 0 0 0 0 0 0 0 0.18 0"/><feBlend in2="BackgroundImageFix" mode="normal" result="effect1_dropShadow"/><feBlend in="SourceGraphic" in2="effect1_dropShadow" mode="normal" result="shape"/></filter><filter id="l" color-interpolation-filters="sRGB" filterUnits="userSpaceOnUse" height="10.3607" width="11.5878" x="41.929" y="119.374"><feFlood flood-opacity="0" result="BackgroundImageFix"/><feBlend in="SourceGraphic" in2="BackgroundImageFix" mode="normal" result="shape"/><feGaussianBlur result="effect1_foregroundBlur" stdDeviation="2.2816"/></filter><filter id="m" color-interpolation-filters="sRGB" filterUnits="userSpaceOnUse" height="16.1044" width="18.1771" x="31.5904" y="120.551"><feFlood flood-opacity="0" result="BackgroundImageFix"/><feBlend in="SourceGraphic" in2="BackgroundImageFix" mode="normal" result="shape"/><feGaussianBlur result="effect1_foregroundBlur" stdDeviation="3.30832"/></filter><mask id="n" height="176" maskUnits="userSpaceOnUse" width="280" x="3" y="0"><path d="m3 0h280v176h-280z" fill="#89cdd3"/></mask><mask id="o" height="4" maskUnits="userSpaceOnUse" width="4" x="45" y="129"><circle cx="46.7073" cy="130.963" fill="#ff8281" r="1.5" transform="matrix(.95549796 -.29499771 .29499771 .95549796 -36.555215 19.606667)"/></mask><mask height="12" maskUnits="userSpaceOnUse" width="10" x="25" y="134"><path d="m29.127 145.036c0-.701.9439-2.801 1.6518-4.202l-5.1914-3.501v-2.334l4.2475-.7 4.2476 1.634.7079 8.869z" fill="#c4c4c4"/></mask><mask id="p" height="13" maskUnits="userSpaceOnUse" width="11" x="25" y="133"><path clip-rule="evenodd" d="m30.1057 133.789 4.4555 1.792.7405 9.702-6.1671.265v-.255c0-.223.0692-.529.1695-.863.1026-.342.2457-.739.4096-1.155.3003-.762.6746-1.6 1.0093-2.302l-5.1356-3.622v-2.783zm-4.0453 1.193v2.11l5.27 3.717-.0924.191c-.3529.73-.764 1.641-1.0863 2.459-.1612.41-.2989.793-.3959 1.116-.0542.18-.0934.335-.1178.462l5.1536-.222-.6785-8.889-4.0578-1.632z" fill="#000" fill-rule="evenodd"/></mask><path d="m3 0h280v176h-280z" fill="#89cdd3"/><g mask="url(#n)"><g filter="url(#a)"><path d="m101.45 96.1915-29.4871 79.7015h288.9201l-27.787-57.812-17.295-58.9338-7.655 33.1154-21.832-66.792-23.817 33.6766-24.667-47.1472-44.799 80.2626-17.579-28.0639-12.475 31.9928-22.683-50.5149-24.1 80.8234z" fill="#b2dda5"/></g><g fill="#fff" fill-opacity=".3"><path d="m270.808 52.4144 14.773-21.3285-5.099 29.7477z"/><path d="m243.354 47.0803-5.229-29.467 7.843 15.1545z"/><path d="m179.005 84.1627-2.59-16.9537 10.316 17.1686z"/><path d="m141.121 71.495-9.413 10.3836 8.628-30.5895z"/><path d="m161.515 99.2798-7.583-6.7353v-10.9449z"/><path d="m108.96 117.522-5.491 5.613-1.961-20.487z"/></g><g filter="url(#b)"><path d="m191.068 85.2727-52.693 67.1783 7.807 20.629 122.299-7.934 26.612-12.695-35.397-121.367-44.972 106.643z" fill="#35675b"/></g><path d="m246.622 67.0014 12.289-28.9057-1.7 19.6447z" fill="#000" fill-opacity=".2"/><path d="m174.235 109.996 16.93-21.6073-7.753 19.7313z" fill="#000" fill-opacity=".2"/><path d="m277.737 125.657-3.399-36.2019 8.498 27.7829z" fill="#2a5249"/><g filter="url(#c)"><path d="m80.6985 119.91-30.6985 56.07h298.333l-33.468-32.796-19.741-42.977-19.455 33.985-20.622-48.6647-43.587 81.9887-16.404-40.73-30.464 16.398-27.652-30.68-37.0256 40.73z" fill="#91d7b9"/></g><path d="m66.603 152.321 14.1192-25.819v14.593z" fill="#fff" fill-opacity=".3"/><path d="m115.627 140.535 20.918-24.135-3.922 24.135z" fill="#fff" fill-opacity=".3"/><path d="m257.473 120.889-1.83-27.7835 13.335 31.9925z" fill="#fff" fill-opacity=".3"/><path d="m195.403 149.211-1.612-20.815 10.156 23.866z" fill="#fff" fill-opacity=".3"/><path clip-rule="evenodd" d="m165.557 63.4389h2.831c.77 0 1.394.6241 1.394 1.394 0 .1958-.04.3822-.113.5513h2.267c.77 0 1.394.6241 1.394 1.394 0 .2633-.073.5096-.2.7197h1.045c.933 0 1.69.7564 1.69 1.6896 0 .9331-.757 1.6896-1.69 1.6896h-29.483c-.934 0-1.69-.7565-1.69-1.6896 0-.9332.756-1.6896 1.69-1.6896h1.044c-.127-.2101-.2-.4564-.2-.7197 0-.7699.624-1.394 1.394-1.394h2.268c-.073-.1691-.113-.3555-.113-.5513 0-.7699.624-1.394 1.393-1.394h2.831c.024-.7491.638-1.3491 1.393-1.3491h9.462c.755 0 1.37.6 1.393 1.3491z" fill="#fff6f0" fill-opacity=".9" fill-rule="evenodd"/><path clip-rule="evenodd" d="m147.742 58.876h3.192c.868 0 1.572.704 1.572 1.5723 0 .2196-.045.4287-.126.6185h2.556c.868 0 1.572.704 1.572 1.5723 0 .2964-.082.5736-.224.8102h1.178c1.052 0 1.905.8533 1.905 1.9059 0 1.0525-.853 1.9058-1.905 1.9058h-33.257c-1.053 0-1.906-.8533-1.906-1.9058 0-1.0526.853-1.9059 1.906-1.9059h1.177c-.143-.2366-.225-.5138-.225-.8102 0-.8683.704-1.5723 1.572-1.5723h2.557c-.082-.1898-.127-.3989-.127-.6185 0-.8683.704-1.5723 1.573-1.5723h3.194c.025-.8462.719-1.5244 1.571-1.5244h10.673c.852 0 1.546.6782 1.572 1.5244z" fill="#fff1e8" fill-opacity=".8" fill-rule="evenodd"/><path clip-rule="evenodd" d="m258.593 44.2861h4.609c1.253 0 2.269 1.016 2.269 2.2692 0 .3167-.065.6181-.182.8919h3.688c1.253 0 2.269 1.016 2.269 2.2692 0 .4291-.119.8303-.326 1.1725h1.702c1.519 0 2.751 1.2315 2.751 2.7506s-1.232 2.7506-2.751 2.7506h-47.998c-1.519 0-2.75-1.2315-2.75-2.7506s1.231-2.7506 2.75-2.7506h1.701c-.207-.3422-.326-.7434-.326-1.1725 0-1.2532 1.016-2.2692 2.269-2.2692h3.69c-.117-.2738-.182-.5752-.182-.8919 0-1.2532 1.016-2.2692 2.269-2.2692h4.608c.036-1.2213 1.038-2.2002 2.268-2.2002h15.403c1.23 0 2.232.9789 2.269 2.2002z" fill="#fff6f0" fill-opacity=".9" fill-rule="evenodd"/><path clip-rule="evenodd" d="m252.903 35.8721h3.192c.869 0 1.573.7039 1.573 1.5723 0 .2196-.045.4287-.127.6185h2.557c.868 0 1.572.704 1.572 1.5723 0 .2964-.082.5736-.225.8102h1.178c1.053 0 1.906.8533 1.906 1.9059 0 1.0525-.853 1.9058-1.906 1.9058h-33.257c-1.052 0-1.906-.8533-1.906-1.9058 0-1.0526.854-1.9059 1.906-1.9059h1.177c-.142-.2366-.224-.5138-.224-.8102 0-.8683.704-1.5723 1.572-1.5723h2.556c-.081-.1898-.126-.3989-.126-.6185 0-.8684.704-1.5723 1.572-1.5723h3.194c.026-.8462.72-1.5244 1.572-1.5244h10.673c.852 0 1.546.6782 1.571 1.5244z" fill="#fff1e8" fill-opacity=".8" fill-rule="evenodd"/><path clip-rule="evenodd" d="m292.837 40.165h4.609c1.253 0 2.269 1.016 2.269 2.2692 0 .3167-.064.6181-.182.8919h3.689c1.253 0 2.269 1.016 2.269 2.2692 0 .4291-.119.8303-.326 1.1725h1.702c1.519 0 2.75 1.2315 2.75 2.7506s-1.231 2.7506-2.75 2.7506h-47.998c-1.519 0-2.751-1.2315-2.751-2.7506s1.232-2.7506 2.751-2.7506h1.701c-.207-.3422-.326-.7434-.326-1.1725 0-1.2532 1.016-2.2692 2.269-2.2692h3.69c-.118-.2738-.182-.5752-.182-.8919 0-1.2532 1.016-2.2692 2.269-2.2692h4.607c.037-1.2213 1.038-2.2002 2.269-2.2002h15.403c1.23 0 2.232.9789 2.268 2.2002z" fill="#fff1e8" fill-opacity=".8" fill-rule="evenodd"/><g filter="url(#d)"><path d="m115.578 77c-.61-1.9091-1.627-4.7045-5.39-5.0455 1.169-.409 3.915-.4772 5.39 1.6364 1.22-2.3182 1.729-3 6.61-5.5909-4.473 2.3744-5.308 4.9624-6.609 8.997z" fill="#000"/></g><g filter="url(#e)"><path d="m120.23 80c-.457-.6364-1.22-1.5682-4.042-1.6818.877-.1364 2.936-.1591 4.042.5454.916-.7727 1.297-1 4.958-1.8636-3.355.7915-3.981 1.6541-4.957 2.999z" fill="#000"/></g><g filter="url(#f)"><path d="m112.883 84c-.305-.8485-.814-2.0909-2.695-2.2424.585-.1818 1.958-.2121 2.695.7272.61-1.0303.864-1.3333 3.305-2.4848-2.237 1.0553-2.654 2.2055-3.305 3.9987z" fill="#000"/></g><g filter="url(#g)"><path d="m215.578 41c-.61-1.0606-1.627-2.6136-5.39-2.803 1.169-.2273 3.915-.2652 5.39.9091 1.22-1.2879 1.729-1.6667 6.61-3.1061-4.473 1.3191-5.308 2.7569-6.609 4.9983z" fill="#000"/></g><g filter="url(#h)"><path d="m219.781 47c-.407-1.2727-1.085-3.1364-3.593-3.3636.78-.2728 2.61-.3182 3.593 1.0909.814-1.5455 1.153-2 4.407-3.7273-2.982 1.5829-3.539 3.3082-4.406 5.998z" fill="#000"/></g><g filter="url(#i)"><path d="m211.781 49c-.407-.6364-1.085-1.5682-3.593-1.6818.78-.1364 2.61-.1591 3.593.5454.814-.7727 1.153-1 4.407-1.8636-2.982.7915-3.539 1.6541-4.406 2.999z" fill="#000"/></g></g><g filter="url(#j)" opacity=".03"><path d="m53.1965 176.735c0 3.67-8.6985 6.646-19.4286 6.646s-19.4285-2.976-19.4285-6.646c0-3.671 8.6984-6.647 19.4285-6.647s19.4286 2.976 19.4286 6.647z" fill="#000"/></g><path d="m22.5187 155.327v-18.534c0-.451-.3128-.841-.7506-.935l-4.7476-1.026c-.591-.128-1.1484.327-1.1484.936v18.191c0 .428.281.803.6886.921l4.7476 1.367c.6066.174 1.2104-.285 1.2104-.92z" fill="#d1c870"/><path d="m34.2784 133.277-11.7594 3.281v19.216l11.7594-3.515z" fill="#f4e97d"/><path clip-rule="evenodd" d="m16.3838 137.369.8472.088-.051.479-.3093-.033v.237h-.4869zm2.0036.208 1.1565.121-.051.478-1.1564-.12zm2.313.241.7962.083v.684h-.487v-.251l-.3602-.038zm-4.3166 2.336v-1.007h.4869v1.007zm5.1128-.634v.935h-.487v-.935zm-5.1128 2.648v-1.007h.4869v1.007zm5.1128-.777v.935h-.487v-.935zm-5.1128 2.791v-1.007h.4869v1.007zm5.1128-.921v.935h-.487v-.935zm0 1.871v.935h-.487v-.935zm-5.1128 1.064v-1.007h.4869v1.007zm5.1128.806v.935h-.487v-.935zm-5.1128 1.209v-1.008h.4869v1.008zm5.1128.662v.935h-.487v-.935zm-5.1128 1.352v-1.007h.4869v1.007zm5.1128.518v.936h-.487v-.936zm-5.1128 1.496v-1.007h.4869v1.007zm5.1128.375v.935h-.487v-.935zm-5.1128.632h.4869v.318l.3967.103-.1239.465-.7597-.197zm3.0727 1.488-1.1565-.301.1239-.465 1.1565.3zm2.0401-.25v.78l-.8837-.23.1239-.465.2728.071v-.156z" fill="#f4e97d" fill-rule="evenodd"/><path d="m34.0431 125.607-17.6593 4.748v8.546l17.8947-5.697z" fill="#539882"/><path d="m19.9626 134.557c0 2.4-1.6024 4.346-3.579 4.346s-3.5789-1.946-3.5789-4.346 1.6023-4.346 3.5789-4.346 3.579 1.946 3.579 4.346z" fill="#35675b"/><g fill="#539882"><path clip-rule="evenodd" d="m16.3836 137.481c1.4017 0 2.6586-1.353 2.6586-3.181s-1.2569-3.182-2.6586-3.182-2.6587 1.354-2.6587 3.182 1.257 3.181 2.6587 3.181zm0 .398c1.6942 0 3.0677-1.603 3.0677-3.579 0-1.977-1.3735-3.579-3.0677-3.579s-3.0677 1.602-3.0677 3.579c0 1.976 1.3735 3.579 3.0677 3.579z" fill-rule="evenodd"/><path clip-rule="evenodd" d="m16.1279 136.573c1.0513 0 1.994-.967 1.994-2.272 0-1.306-.9427-2.273-1.994-2.273s-1.994.967-1.994 2.273c0 1.305.9427 2.272 1.994 2.272zm0 .284c1.2707 0 2.3008-1.145 2.3008-2.556 0-1.412-1.0301-2.557-2.3008-2.557s-2.3008 1.145-2.3008 2.557c0 1.411 1.0301 2.556 2.3008 2.556z" fill-rule="evenodd"/><path d="m17.4065 134.299c0 .848-.6867 1.534-1.5338 1.534s-1.5338-.686-1.5338-1.534c0-.847.6867-1.533 1.5338-1.533s1.5338.686 1.5338 1.533z"/></g><path d="m18.9399 129.53c2.9038-.757 5.8075 4.49 3.6297 7.326 1.6938-.473 7.2593-2.127 12.0988-3.545 1.7895-2.184-.5567-5.177-2.8331-6.923-.344-.264-.7967-.334-1.2149-.208-1.9003.57-6.6384 2.037-11.6805 3.35z" fill="#d1c870"/><path d="m28.0714 126.631c-4.4686 1.096-9.4074 2.41-9.6427 3.068 1.8815-.439 2.4303-.439 2.3519-.439h3.0574l6.3501-1.753c-.0784-.073-.6114-.35-2.1167-.876z" fill="#d1c870"/><g filter="url(#k)"><path clip-rule="evenodd" d="m38.1132 170.092c.7059 0 1.2782.577 1.2782 1.288v2.025c0 .711-.5723 1.288-1.2782 1.288-.706 0-1.2782-.577-1.2782-1.288v-2.025c0-.711.5722-1.288 1.2782-1.288z" fill="#ffdac1" fill-rule="evenodd"/><path d="m36.835 173.002v-.865h1.0225v1.022c-.1893-.026-.6589-.094-1.0225-.157z" fill="#ebc8b1"/><path d="m33.9507 171.579c-.1909-2.959-.8016-10.263-1.7178-15.804h9.9249c-.1909 3.025.7634 11.512 0 15.804-2.0995 1.658-5.6305 1.171-8.2071 0z" fill="#d1c870"/><path clip-rule="evenodd" d="m29.1652 170.602c.8471 0 1.5338.576 1.5338 1.288v2.025c0 .711-.6867 1.288-1.5338 1.288s-1.5339-.577-1.5339-1.288v-2.025c0-.712.6868-1.288 1.5339-1.288z" fill="#ffdac1" fill-rule="evenodd"/><path d="m27.6313 174.023v-.865h1.0226v1.023c-.1893-.026-.659-.095-1.0226-.158z" fill="#ebc8b1"/><path d="m25.2287 172.123c-.1874-2.869-.7873-9.951-1.6872-15.324l11.2481 1.324c-.1874 2.933-.7499 9.838-1.4997 14-2.0622 1.609-5.5303 1.136-8.0612 0z" fill="#f4e97d"/><path d="m25.2706 172.575c-.1921-2.954-.8069-10.245-1.7291-15.776l2.7858.682c-.1921 3.019 1.3449 11.394.5764 15.679-.7685-.195-.9606-.292-1.6331-.585z" fill="#d1c870"/><path clip-rule="evenodd" d="m47.3122 152.815c.0761.067.146.129.2082.184h.0001c.268.237.3925.316.5431.411h.0001c.0396.025.0811.051.1275.081.2966.196-.0959.753-.3926.558-.2029-.133-.4041-.274-.5538-.389l-.0557.051.329.291.181.16c.3386.299-.0959.753-.3926.558-.2407-.159-.4818-.376-.6366-.531l-.0715.066c.1972.207.3038.291.43.39.037.028.0756.059.1187.094.2754.224-.0074.738-.4524.446-.2621-.173-.4442-.362-.567-.489-.044-.046-.0805-.084-.1102-.11l.0059-.005c-.3982-.394-1.0322-1.057-1.0418-1.212-.0105-.17 1.0109-.916 1.5228-1.268h.0002c.7508.06 1.5477.171 1.4215.553-.0507.153-.2906.159-.6139.161z" fill="#ffdac1" fill-rule="evenodd"/><path clip-rule="evenodd" d="m36.3752 136.449c.8791-.361 1.8842.059 2.245.938 1.9714 4.804 3.272 7.432 4.4955 9.324 1.1397 1.762 2.2342 2.924 3.9069 4.7.1068.113.2159.229.3275.348l-2.5066 2.358c-.1259-.134-.2498-.266-.3718-.395-1.6337-1.734-2.9304-3.11-4.2453-5.142-1.402-2.168-2.7992-5.036-4.7897-9.886-.3608-.88.0594-1.885.9385-2.245z" fill="#35675b" fill-rule="evenodd"/><path clip-rule="evenodd" d="m38.1096 136.82c.1465-.06.314.01.3741.157 1.9797 4.824 3.2998 7.531 4.577 9.518 1.196 1.859 2.3579 3.093 4.0161 4.853.1097.117.2216.236.3358.357l-.4177.393c-.1168-.124-.2314-.246-.3438-.365-1.6513-1.753-2.8473-3.023-4.0727-4.928-1.3068-2.032-2.643-4.78-4.6252-9.611-.0602-.146.0099-.314.1564-.374z" fill="#407967" fill-rule="evenodd"/><path d="m32.0175 175.756-1.5433-1.583-.5042.067c-.6147.082-1.2391.053-1.8434-.087l-.3288-.076c-.0205.382-.1356 1.298-.1684 1.909.9231.69 2.8923.589 4.1927.387.2962-.046.4047-.402.1954-.617z" fill="#35675b"/><path d="m41.0024 174.852-1.5433-1.584-.5042.068c-.6147.082-1.2392.052-1.8434-.087l-.3288-.076c-.0206.382-.1356 1.298-.1685 1.909.9232.69 2.8924.589 4.1927.387.2963-.046.4047-.403.1955-.617z" fill="#35675b"/><path d="m20.9849 156.574c.4498-4.956 3.1615-16.452 10.4099-22.785 1.1567 0 4.3568.541 7.9039 2.703-.5783 5.214 2.5061 13.71 5.205 20.082-3.47 3.476-14.8438 5.213-23.5188 0z" fill="#539882"/><path d="m20.9849 156.294c.4467-4.895 3.1399-16.248 10.3386-22.503.7658 0 .1914-.095.1914.954-5.3607 7.342-8.9984 16.4-7.4667 23.074-1.5317-.667-1.8189-.858-3.0633-1.525z" fill="#468677"/><path d="m35.2355 107.331c1.9471 2.532.6755 6.777-2.8401 9.479-3.5155 2.703-7.9439 2.841-9.8909.309-1.9471-2.533-.6756-6.777 2.84-9.48s7.9439-2.841 9.891-.308z" fill="#c5c5c5"/><path d="m24.8768 113.818c.598-.988 3.2379-3.811 8.0859-5.007l-1.2428 4.099c-1.6982.457-5.4442 1.279-6.8431.908z" fill="#539882"/><path d="m30.1681 111.89c7.3937-11.228 19.9959-.276 16.7423 8.101-7.6794-3.369-14.3613-6.805-16.7423-8.101z" fill="#e1e1e1"/><path d="m43.4854 115.164c1.8759 2.242 2.6463 3.853 3.2539 4.346.486.395.4407.74.3573.863.1823.787.635 2.47.9881 2.905-.6431.277-.9147.38-.9701.397l-1.0986-2.968z" fill="#fee1ce"/><path d="m49.7397 129.285c-1.1424-2.045.6264-5.587-2.5783-6.695l-.4663 6.436c.1343.325 1.0356.639 3.0446.259z" fill="#fee1ce"/><path d="m46.272 120.723c2.2491 7.284-.5208 14.608-6.1867 16.357s-12.0823-2.738-14.3314-10.023c-2.249-7.284.5209-14.608 6.1868-16.357s12.0822 2.738 14.3313 10.023z" fill="#ffdac1"/><path d="m48.754 121.83c.2915.945-.1283 1.913-.9377 2.163-.8094.249-1.7019-.313-1.9935-1.258-.2915-.944.1283-1.912.9377-2.162s1.7019.313 1.9935 1.257z" fill="#fff"/><path d="m47.7021 121.888c.0833.27-.0679.556-.3377.639-.2698.084-.5561-.067-.6394-.337s.0679-.556.3377-.64c.2698-.083.5561.068.6394.338z" fill="#000"/><g filter="url(#l)"><path d="m48.944 124.178c.0833.27-.3959.657-1.0704.865-.6746.209-1.2889.159-1.3722-.111s.396-.657 1.0705-.866c.6745-.208 1.2888-.158 1.3721.112z" fill="#fca"/></g><path clip-rule="evenodd" d="m49.7185 123.709c.131-.605.1022-1.458-.1846-2.387-.2867-.929-.7438-1.65-1.1936-2.076-.481-.457-.7462-.411-.7754-.402s-.2738.121-.4139.769c-.131.606-.1022 1.459.1846 2.387.2867.929.7438 1.65 1.1936 2.077.481.456.7462.411.7754.402.0293-.009.2738-.121.4139-.77zm-.0771 1.86c1.2141-.375 1.6581-2.428.9917-4.587-.6664-2.158-2.1908-3.604-3.405-3.229-1.2141.375-1.6581 2.428-.9917 4.587.6664 2.158 2.1908 3.604 3.405 3.229z" fill="#91d7b9" fill-rule="evenodd"/><path d="m49.1202 125.33c-1.9638-1.131-2.415-4.21-5.6056-8.164l2.0491 10.987c.5578-.392 2.0499-1.506 3.5565-2.823z" fill="#ffdac1"/><path d="m29.5542 130.7c.3332 1.079-.3809 2.258-1.595 2.633-1.2142.375-2.4685-.196-2.8017-1.275-.3332-1.08.3809-2.258 1.5951-2.633 1.2141-.375 2.4684.196 2.8016 1.275z" fill="#ffdac1"/><path d="m50.5024 133.458c1.2689-2.02-1.6559-4.555-2.6738-6.794-3.2376 1.898-11.0957 6.914-14.428 9.562 4.4504 2.26 14.7898.913 17.1018-2.768z" fill="#ffdac1"/><path clip-rule="evenodd" d="m45.7708 121.228c-.2879-.512-.588-1.045-.9022-1.586l.3525-.2c.3209.552.6232 1.089.9114 1.602.4296.763.8278 1.47 1.2095 2.09.3174.515.6184.961.9098 1.319.2926.359.5673.618.829.771l.2275.133-1.3456 1.265-.2782-.286.9706-.913c-.2449-.183-.484-.429-.7208-.719-.307-.377-.6183-.839-.9396-1.361-.3845-.624-.7903-1.345-1.2239-2.115z" fill="#fca" fill-rule="evenodd"/><path clip-rule="evenodd" d="m46.5535 124.194c-.4051.234-.8936.584-1.554 1.203l-.7684-.886c.709-.665 1.2635-1.068 1.7533-1.351.3806-.22.722-.366 1.0274-.496.0804-.035.1583-.068.2338-.101l.4652 1.087c-.0947.041-.1848.08-.2726.118-.2966.127-.5652.242-.8847.426z" fill="#91d7b9" fill-rule="evenodd"/><circle cx="46.7073" cy="130.963" fill="#ff8281" r="1.5" transform="matrix(.95549796 -.29499771 .29499771 .95549796 -36.555215 19.606667)"/><g mask="url(#o)"><circle cx="46.3416" cy="133.17" fill="#ff6564" r="1.5" transform="matrix(.95549796 -.29499771 .29499771 .95549796 -37.222549 19.597002)"/></g><g filter="url(#m)"><path d="m43.1217 127.85c.2082.674-.7165 1.559-2.0656 1.975-1.349.417-2.6114.208-2.8197-.467-.2082-.674.7166-1.559 2.0656-1.975 1.349-.417 2.6114-.208 2.8197.467z" fill="#fca"/></g><path clip-rule="evenodd" d="m41.5168 129.585c1.72-.531 2.8288-2.615 2.1408-4.844-.688-2.228-2.7792-3.325-4.4992-2.794s-2.8288 2.616-2.1408 4.844c.688 2.229 2.7792 3.326 4.4992 2.794zm.3291 1.066c2.4282-.749 3.7214-3.544 2.8884-6.242s-3.4767-4.278-5.905-3.528c-2.4282.75-3.7214 3.544-2.8884 6.243.833 2.698 3.4767 4.277 5.905 3.527z" fill="#91d7b9" fill-rule="evenodd"/><path d="m42.6297 124.523c.3332 1.079-.2716 2.224-1.3508 2.557s-2.2242-.271-2.5574-1.351c-.3332-1.079.2715-2.224 1.3508-2.557 1.0792-.333 2.2242.272 2.5574 1.351z" fill="#fff"/><path d="m41.5771 124.581c.1249.405.1005.772-.5066.959-.607.188-.8341-.102-.959-.506-.125-.405-.1005-.772.5065-.959.6071-.188.8341.101.9591.506z" fill="#000"/><path d="m26.8435 129.308c1.2957.295 7.96.424 11.8302-12.398-.7274-1.598-3.4289-4.865-8.4162-5.154-7.8983 4.327-4.5901 17.318-3.414 17.552z" fill="#e1e1e1"/><path d="m46.1575 118.619c-2.4051.433-4.2387-1.888-7.7162-1.639-1.0449-1.74-2.82-4.266-8.3575-5.361 2.809-2.414 13.2833-2.038 16.0737 7z" fill="#e1e1e1"/><path d="m26.5332 128.958c-11.9505-5.809-4.1379-18.721 3.9955-17.632-1.8368 8.407-3.5009 15.246-3.9955 17.632z" fill="#e1e1e1"/><path d="m29.2558 133.2c.1249.405-.1019.834-.5066.959s-.834-.102-.959-.506c-.1249-.405.1018-.834.5066-.959.4047-.125.834.102.959.506z" fill="#539882"/><path d="m21.9663 121.717c-.3269-1.453-.2121-2.265.9587-5.557-.2235 1.554.117 2.894.5876 3.891.25.53.1378 1.727-.3798 1.929-.3376.131-1.0826.11-1.1665-.263z" fill="#c4c4c4"/><path clip-rule="evenodd" d="m38.0626 116.652c-.0355-.209.1071-.408.3184-.444.6395-.111 1.3379 0 2.0253.189.642.177 1.3133.435 1.9607.683.0486.018.097.037.1453.055.7019.269 1.3713.519 1.9881.665.6206.148 1.1377.177 1.5486.05.2049-.063.4217.05.4841.252.0625.202-.053.418-.2579.481-.6094.188-1.2899.123-1.9609-.036-.6748-.16-1.3912-.429-2.0862-.695-.0456-.018-.0912-.035-.1367-.053-.6568-.251-1.2941-.495-1.8981-.662-.6486-.179-1.2143-.254-1.684-.173-.2112.037-.4113-.103-.4467-.312z" fill="#c4c4c4" fill-rule="evenodd"/><path d="m42.6853 109.548c-1.0231-.685-2.88-1.531-5.1838-1.634 1.3573.355 2.4385 1.168 3.5829 2.598.2883.36.8282.408 1.2639.153.5181-.303.8055-.804.337-1.117z" fill="#f0f0f0"/><g clip-rule="evenodd" fill-rule="evenodd"><path d="m24.5355 109.339c.079.074.0904.2.0256.281l-.0046.006c-.5602.702-1.9586 2.455-1.7835 4.816.0081.11-.0679.201-.1697.205-.1019.003-.1911-.083-.1992-.193-.187-2.522 1.293-4.377 1.8557-5.082.0052-.006.0103-.013.0153-.019.0648-.081.1814-.087.2604-.014z" fill="#a8a8a8"/><path d="m31.6089 106.128c-.001-.108.078-.19.1764-.185.8863.05 1.9791.467 2.8702 1.481.0703.08.0714.203.0025.275s-.1817.066-.2519-.014c-.8157-.928-1.8135-1.307-2.6173-1.352-.0984-.006-.1789-.098-.1799-.205z" fill="#e1e1e1"/><path d="m40.3513 117.84c.1432.156.1334.398-.0218.541l-3.1809 2.934c-.1552.144-.3971.134-.5403-.021-.1432-.156-.1334-.397.0218-.541l3.1809-2.934c.1552-.143.3971-.134.5403.021z" fill="#969696"/><path d="m47.2654 117.569c-.0345.208-.2314.349-.4397.314l-3.239-.536c-.2083-.035-.3492-.232-.3147-.44s.2314-.349.4397-.315l3.239.537c.2083.034.3492.231.3147.44z" fill="#969696"/><path d="m24.8792 129.413c-.0522-.278.1552-.556.4634-.621l10.937-2.305.1892 1.007-10.937 2.305c-.3082.065-.6003-.108-.6526-.386z" fill="#91d7b9"/></g><path d="m33.1326 126.692c-4.7139 4.464-6.2967 1.844-7.4693 1.804 2.5284-1.583 6.033-1.862 7.4693-1.804z" fill="#e1e1e1"/><path clip-rule="evenodd" d="m36.5401 119.038c.1886.106.26.347.1595.538-1.4019 2.67-2.468 4.379-3.5886 5.634-1.1286 1.264-2.2976 2.052-3.8739 2.906-.1876.102-.4226.028-.5249-.166-.1023-.193-.0332-.433.1543-.534 1.5371-.834 2.6226-1.573 3.6696-2.745 1.055-1.182 2.0853-2.82 3.4807-5.478.1005-.191.3347-.261.5233-.155z" fill="#c4c4c4" fill-rule="evenodd"/><path d="m37.1702 115.506c-.7105-1.027-3.1221-3.355-6.9668-4.079-.4179-.078-1.5525-.247-2.8103.141 2.7497-.018 6.4169 1.342 9.7771 3.938z" fill="#c4c4c4"/><path clip-rule="evenodd" d="m27.3449 130.48c.0336.088-.0137.187-.1055.221-.4919.185-.6777.436-.738.65-.0634.225.0001.449.0802.584.0481.081.0182.186-.0669.234-.0851.049-.1931.022-.2412-.059-.1137-.192-.2076-.508-.1135-.841.0972-.345.3839-.671.9579-.886.0918-.035.1934.009.227.097z" fill="#fca" fill-rule="evenodd"/><path clip-rule="evenodd" d="m27.4114 122.596c.0347-.096.0667-.183.095-.261h.0002c.1225-.336.1945-.465.2814-.62.023-.041.0469-.084.0731-.133.1676-.313-.4436-.616-.6111-.303-.1146.214-.2242.434-.3008.606l-.0738-.018.1503-.412.0826-.227c.1548-.425-.4436-.616-.6111-.303-.1359.254-.2442.559-.3061.77l-.0943-.024c.0743-.276.1281-.4.1918-.547.0187-.043.0382-.088.0593-.14.1351-.328-.3589-.645-.6102-.175-.148.276-.2179.529-.265.7-.0169.061-.0309.111-.0445.149l.0078.001c-.1619.537-.4027 1.421-.337 1.562.072.154 1.3255.323 1.9432.387.0001.001.0001.001.0002.001.631-.412 1.2787-.889.9855-1.164-.1178-.111-.3316-.002-.6165.151z" fill="#ffdac1" fill-rule="evenodd"/><path d="m41.4359 145.293c0 .989-.8012 1.79-1.7895 1.79s-1.7895-.801-1.7895-1.79c0-.988.8012-1.789 1.7895-1.789s1.7895.801 1.7895 1.789z" fill="#539882"/><path d="m39.1863 138.904c.1704.726 1.2271 3.266 2.2496 5.08l-2.5564.544-1.5338-3.9z" fill="#539882"/><path d="m34.2783 146.738c.8628.413 2.3008.579 3.0677-.166-.2876 1.158-2.3966 1.489-3.0677.166z" fill="#468677"/><path clip-rule="evenodd" d="m37.3211 146.608c.0356.044.0327.113-.0065.154-.5378.556-1.0381.818-1.5359.832-.4964.015-.9721-.217-1.4595-.605-.0434-.035-.0539-.103-.0235-.152.0303-.05.0901-.062.1335-.027.4712.375.9062.579 1.3446.566.4368-.013.8951-.241 1.4118-.775.0392-.041.0998-.038.1355.007z" fill="#35675b" fill-rule="evenodd"/><path clip-rule="evenodd" d="m29.3149 142.012c.8251-.49 1.0898-1.544.591-2.355-2.5748-4.185-3.3487-6.942-3.4103-9.141-.0544-1.941.424-3.558 1.0444-5.656.1036-.35.2112-.714.321-1.095l-3.3597-.934c-.0957.332-.1952.666-.2955 1.002-.6213 2.081-1.2711 4.257-1.2005 6.778.0839 2.994 1.1528 6.335 3.9124 10.821.4987.81 1.572 1.07 2.3972.58z" fill="#35675b" fill-rule="evenodd"/></g><g mask="url(#p)"><path clip-rule="evenodd" d="m30.3768 137.296c-.4894-.369-1.2649-.628-2.4618-.522-.4001.036-.754-.253-.7904-.646s.2585-.74.6587-.776c1.4706-.131 2.6351.175 3.4795.811.8414.634 1.2831 1.535 1.4276 2.441.1435.9.0016 1.839-.3596 2.619-.3573.771-.9735 1.472-1.8408 1.736-.3837.117-.7914-.093-.9106-.47s.0952-.777.4789-.894c.3453-.105.6991-.426.948-.963.245-.529.3456-1.186.2466-1.807-.0979-.614-.3838-1.158-.8761-1.529z" fill="#d1c870" fill-rule="evenodd"/></g><path clip-rule="evenodd" d="m20.8463 129.209c-.1266-.028-.2511-.042-.3722-.042v-.491c.1525 0 .3068.017.4611.051zm1.3382.815c-.2002-.21-.4107-.382-.6242-.515l.223-.427c.2476.154.4876.351.713.588zm.9035 1.423c-.1164-.278-.2488-.532-.3928-.761l.3707-.279c.1592.253.3043.532.4314.836zm.4443 1.69c-.0404-.304-.0971-.593-.1676-.864l.4327-.134c.0761.293.1369.602.1801.928zm.0472 1.777c.0215-.309.028-.607.021-.892l.4497-.013c.0074.302.0006.617-.0221.942zm-.1763 1.33c.0287-.149.0541-.297.0764-.441l.4437.081c-.0233.152-.0499.305-.0799.461z" fill="#f4e97d" fill-rule="evenodd"/></svg>