<svg fill="none" height="192" viewBox="0 0 280 192" width="280" xmlns="http://www.w3.org/2000/svg" xmlns:xlink="http://www.w3.org/1999/xlink"><filter id="a" color-interpolation-filters="sRGB" filterUnits="userSpaceOnUse" height="137.433" width="241.497" x="0" y="53.7264"><feFlood flood-opacity="0" result="BackgroundImageFix"/><feColorMatrix in="SourceAlpha" type="matrix" values="0 0 0 0 0 0 0 0 0 0 0 0 0 0 0 0 0 0 127 0"/><feOffset dx="15.4611"/><feGaussianBlur stdDeviation="7.73053"/><feColorMatrix type="matrix" values="0 0 0 0 0 0 0 0 0 0 0 0 0 0 0 0 0 0 0.1 0"/><feBlend in2="BackgroundImageFix" mode="normal" result="effect1_dropShadow"/><feBlend in="SourceGraphic" in2="effect1_dropShadow" mode="normal" result="shape"/></filter><filter id="b" color-interpolation-filters="sRGB" filterUnits="userSpaceOnUse" height="40.1508" width="41.4902" x="12.9404" y="112.188"><feFlood flood-opacity="0" result="BackgroundImageFix"/><feColorMatrix in="SourceAlpha" type="matrix" values="0 0 0 0 0 0 0 0 0 0 0 0 0 0 0 0 0 0 127 0"/><feOffset dx="8" dy="-4"/><feGaussianBlur stdDeviation="3"/><feColorMatrix type="matrix" values="0 0 0 0 0 0 0 0 0 0 0 0 0 0 0 0 0 0 0.1 0"/><feBlend in2="BackgroundImageFix" mode="normal" result="effect1_dropShadow"/><feBlend in="SourceGraphic" in2="effect1_dropShadow" mode="normal" result="shape"/></filter><filter id="c" color-interpolation-filters="sRGB" filterUnits="userSpaceOnUse" height="3.77014" width="4.55498" x="28.6396" y="133.77"><feFlood flood-opacity="0" result="BackgroundImageFix"/><feBlend in="SourceGraphic" in2="BackgroundImageFix" mode="normal" result="shape"/><feColorMatrix in="SourceAlpha" result="hardAlpha" type="matrix" values="0 0 0 0 0 0 0 0 0 0 0 0 0 0 0 0 0 0 127 0"/><feOffset dx="1.5" dy="1"/><feGaussianBlur stdDeviation=".25"/><feComposite in2="hardAlpha" k2="-1" k3="1" operator="arithmetic"/><feColorMatrix type="matrix" values="0 0 0 0 0 0 0 0 0 0 0 0 0 0 0 0 0 0 0.25 0"/><feBlend in2="shape" mode="normal" result="effect1_innerShadow"/></filter><filter id="d" color-interpolation-filters="sRGB" filterUnits="userSpaceOnUse" height="6.90948" width="4.55498" x="20.6606" y="133.77"><feFlood flood-opacity="0" result="BackgroundImageFix"/><feBlend in="SourceGraphic" in2="BackgroundImageFix" mode="normal" result="shape"/><feColorMatrix in="SourceAlpha" result="hardAlpha" type="matrix" values="0 0 0 0 0 0 0 0 0 0 0 0 0 0 0 0 0 0 127 0"/><feOffset dx="1.5" dy="1"/><feGaussianBlur stdDeviation=".25"/><feComposite in2="hardAlpha" k2="-1" k3="1" operator="arithmetic"/><feColorMatrix type="matrix" values="0 0 0 0 0 0 0 0 0 0 0 0 0 0 0 0 0 0 0.25 0"/><feBlend in2="shape" mode="normal" result="effect1_innerShadow"/></filter><filter id="e" color-interpolation-filters="sRGB" filterUnits="userSpaceOnUse" height="40.1508" width="41.4902" x="128.94" y="99.1875"><feFlood flood-opacity="0" result="BackgroundImageFix"/><feColorMatrix in="SourceAlpha" type="matrix" values="0 0 0 0 0 0 0 0 0 0 0 0 0 0 0 0 0 0 127 0"/><feOffset dx="8" dy="-4"/><feGaussianBlur stdDeviation="3"/><feColorMatrix type="matrix" values="0 0 0 0 0 0 0 0 0 0 0 0 0 0 0 0 0 0 0.1 0"/><feBlend in2="BackgroundImageFix" mode="normal" result="effect1_dropShadow"/><feBlend in="SourceGraphic" in2="effect1_dropShadow" mode="normal" result="shape"/></filter><filter id="f" color-interpolation-filters="sRGB" filterUnits="userSpaceOnUse" height="3.77014" width="4.55498" x="144.64" y="120.77"><feFlood flood-opacity="0" result="BackgroundImageFix"/><feBlend in="SourceGraphic" in2="BackgroundImageFix" mode="normal" result="shape"/><feColorMatrix in="SourceAlpha" result="hardAlpha" type="matrix" values="0 0 0 0 0 0 0 0 0 0 0 0 0 0 0 0 0 0 127 0"/><feOffset dx="1.5" dy="1"/><feGaussianBlur stdDeviation=".25"/><feComposite in2="hardAlpha" k2="-1" k3="1" operator="arithmetic"/><feColorMatrix type="matrix" values="0 0 0 0 0 0 0 0 0 0 0 0 0 0 0 0 0 0 0.25 0"/><feBlend in2="shape" mode="normal" result="effect1_innerShadow"/></filter><filter id="g" color-interpolation-filters="sRGB" filterUnits="userSpaceOnUse" height="6.90948" width="4.55498" x="136.661" y="120.77"><feFlood flood-opacity="0" result="BackgroundImageFix"/><feBlend in="SourceGraphic" in2="BackgroundImageFix" mode="normal" result="shape"/><feColorMatrix in="SourceAlpha" result="hardAlpha" type="matrix" values="0 0 0 0 0 0 0 0 0 0 0 0 0 0 0 0 0 0 127 0"/><feOffset dx="1.5" dy="1"/><feGaussianBlur stdDeviation=".25"/><feComposite in2="hardAlpha" k2="-1" k3="1" operator="arithmetic"/><feColorMatrix type="matrix" values="0 0 0 0 0 0 0 0 0 0 0 0 0 0 0 0 0 0 0.25 0"/><feBlend in2="shape" mode="normal" result="effect1_innerShadow"/></filter><filter id="h" color-interpolation-filters="sRGB" filterUnits="userSpaceOnUse" height="3.77014" width="4.55498" x="60.6396" y="80.7695"><feFlood flood-opacity="0" result="BackgroundImageFix"/><feBlend in="SourceGraphic" in2="BackgroundImageFix" mode="normal" result="shape"/><feColorMatrix in="SourceAlpha" result="hardAlpha" type="matrix" values="0 0 0 0 0 0 0 0 0 0 0 0 0 0 0 0 0 0 127 0"/><feOffset dx="1.5" dy="1"/><feGaussianBlur stdDeviation=".25"/><feComposite in2="hardAlpha" k2="-1" k3="1" operator="arithmetic"/><feColorMatrix type="matrix" values="0 0 0 0 0 0 0 0 0 0 0 0 0 0 0 0 0 0 0.25 0"/><feBlend in2="shape" mode="normal" result="effect1_innerShadow"/></filter><filter id="i" color-interpolation-filters="sRGB" filterUnits="userSpaceOnUse" height="6.90948" width="4.55498" x="52.6606" y="80.7695"><feFlood flood-opacity="0" result="BackgroundImageFix"/><feBlend in="SourceGraphic" in2="BackgroundImageFix" mode="normal" result="shape"/><feColorMatrix in="SourceAlpha" result="hardAlpha" type="matrix" values="0 0 0 0 0 0 0 0 0 0 0 0 0 0 0 0 0 0 127 0"/><feOffset dx="1.5" dy="1"/><feGaussianBlur stdDeviation=".25"/><feComposite in2="hardAlpha" k2="-1" k3="1" operator="arithmetic"/><feColorMatrix type="matrix" values="0 0 0 0 0 0 0 0 0 0 0 0 0 0 0 0 0 0 0.25 0"/><feBlend in2="shape" mode="normal" result="effect1_innerShadow"/></filter><filter id="j" color-interpolation-filters="sRGB" filterUnits="userSpaceOnUse" height="63.9442" width="63.9442" x="206.843" y="8.37056"><feFlood flood-opacity="0" result="BackgroundImageFix"/><feColorMatrix in="SourceAlpha" type="matrix" values="0 0 0 0 0 0 0 0 0 0 0 0 0 0 0 0 0 0 127 0"/><feOffset dx="2.31472" dy="-1.15736"/><feGaussianBlur stdDeviation="1.73604"/><feColorMatrix type="matrix" values="0 0 0 0 0 0 0 0 0 0 0 0 0 0 0 0 0 0 0.1 0"/><feBlend in2="BackgroundImageFix" mode="normal" result="effect1_dropShadow"/><feBlend in="SourceGraphic" in2="effect1_dropShadow" mode="normal" result="shape"/></filter><filter id="k" color-interpolation-filters="sRGB" filterUnits="userSpaceOnUse" height="41.8366" width="142" x="104" y="32"><feFlood flood-opacity="0" result="BackgroundImageFix"/><feColorMatrix in="SourceAlpha" type="matrix" values="0 0 0 0 0 0 0 0 0 0 0 0 0 0 0 0 0 0 127 0"/><feOffset dx="2" dy="2"/><feGaussianBlur stdDeviation="2"/><feColorMatrix type="matrix" values="0 0 0 0 0 0 0 0 0 0 0 0 0 0 0 0 0 0 0.25 0"/><feBlend in2="BackgroundImageFix" mode="normal" result="effect1_dropShadow"/><feBlend in="SourceGraphic" in2="effect1_dropShadow" mode="normal" result="shape"/></filter><mask id="l" height="176" maskUnits="userSpaceOnUse" width="280" x="0" y="0"><path d="m0 0h280v176h-280z" fill="#89cdd3"/></mask><path d="m0 0h280v176h-280z" fill="#89cdd3"/><g filter="url(#a)"><g mask="url(#l)"><path d="m-151.968 162.545-17.032 13.154h379.575l-13.382-13.154z" fill="#91d7b9"/><path d="m-121.083 149.391-14.469 13.153h322.451l-11.369-13.153z" fill="#a2daaf"/><path d="m-84.6628 136.238-11.8045 13.154h263.0723l-9.275-13.154z" fill="#b2dda5"/><path d="m-55.4216 123.084-9.4773 13.154h211.2089l-7.446-13.154z" fill="#c3e09b"/><path d="m-37.046 110.146-7.4091 13.074h165.1161l-5.822-13.074z" fill="#d3e391"/><path d="m-25.5027 97.0723-4.9104 13.0737h109.4316l-3.8582-13.0737z" fill="#e3e687"/><path d="m-15.5265 83.998-2.7811 13.0737h61.9789l-2.1851-13.0737z" fill="#f4e97d"/><g filter="url(#b)"><g fill="#000"><path d="m19.5684 141.705h.91564v8.63318h-.91564z"/><path d="m35.063 141.705h.91564v8.63318h-.91564z"/><path d="m17.5215 129.053 8.6986-4.004 10.0066 4.004v13.347h-18.7052z"/><path d="m17.6313 141.221h.91564v8.50237h-.91564z"/><path d="m33.1265 141.221h.91564v8.50237h-.91564z"/><path d="m16.4746 140.178h20.7981v2.61611h-20.7981z"/></g><g filter="url(#c)"><path d="m28.6396 133.77h4.05498v3.27014h-4.05498z" fill="#ffb03a"/></g><g filter="url(#d)"><path d="m20.6606 133.77h4.05498v6.40948h-4.05498z" fill="#ffb03a"/></g><path d="m14 130.568 12.3474-5.568 13.0737 5.568" stroke="#000" stroke-width="5.15368"/></g><path d="m37.1196 141.913v-4.886" stroke="#000"/><path d="m35.9922 141.913v-4.886" stroke="#000"/><path d="m34.8647 141.913v-4.886" stroke="#000"/><path d="m33.7373 141.913v-4.886" stroke="#000"/><path d="m32.6099 141.913v-4.886" stroke="#000"/><path d="m31.4824 141.913v-4.886" stroke="#000"/><path d="m30.355 141.913v-4.886" stroke="#000"/><path d="m29.2275 141.913v-4.886" stroke="#000"/><path d="m28.1001 141.913v-4.886" stroke="#000"/><path d="m26.9727 141.913v-4.886" stroke="#000"/><path d="m25.8452 141.913v-4.886" stroke="#000"/><path d="m24.7178 141.913v-4.886" stroke="#000"/><path d="m23.5903 141.913v-4.886" stroke="#000"/><path d="m22.4629 141.913v-4.886" stroke="#000"/><path d="m21.3354 141.913v-4.886" stroke="#000"/><path d="m20.208 141.913v-4.886" stroke="#000"/><path d="m19.0806 141.913v-4.886" stroke="#000"/><path d="m17.9531 141.913v-4.886" stroke="#000"/><path d="m16.8257 141.913v-4.886" stroke="#000"/><path d="m16.2617 137.027h21.4216" stroke="#000"/><g filter="url(#e)"><g fill="#000"><path d="m135.568 128.705h.91564v8.63318h-.91564z"/><path d="m151.063 128.705h.91564v8.63318h-.91564z"/><path d="m133.521 116.053 8.699-4.004 10.007 4.004v13.347h-18.706z"/><path d="m133.631 128.221h.91564v8.50237h-.91564z"/><path d="m149.126 128.221h.91564v8.50237h-.91564z"/><path d="m132.475 127.178h20.7981v2.61611h-20.7981z"/></g><g filter="url(#f)"><path d="m144.64 120.77h4.05498v3.27014h-4.05498z" fill="#ffb03a"/></g><g filter="url(#g)"><path d="m136.661 120.77h4.05498v6.40948h-4.05498z" fill="#ffb03a"/></g><path d="m130 117.568 12.347-5.568 13.074 5.568" stroke="#000" stroke-width="5.15368"/></g><path d="m153.12 128.913v-4.886" stroke="#000"/><path d="m151.992 128.913v-4.886" stroke="#000"/><path d="m150.865 128.913v-4.886" stroke="#000"/><path d="m149.737 128.913v-4.886" stroke="#000"/><path d="m148.61 128.913v-4.886" stroke="#000"/><path d="m147.482 128.913v-4.886" stroke="#000"/><path d="m146.355 128.913v-4.886" stroke="#000"/><path d="m145.228 128.913v-4.886" stroke="#000"/><path d="m144.1 128.913v-4.886" stroke="#000"/><path d="m142.973 128.913v-4.886" stroke="#000"/><path d="m141.845 128.913v-4.886" stroke="#000"/><path d="m140.718 128.913v-4.886" stroke="#000"/><path d="m139.59 128.913v-4.886" stroke="#000"/><path d="m138.463 128.913v-4.886" stroke="#000"/><path d="m137.335 128.913v-4.886" stroke="#000"/><path d="m136.208 128.913v-4.886" stroke="#000"/><path d="m135.081 128.913v-4.886" stroke="#000"/><path d="m133.953 128.913v-4.886" stroke="#000"/><path d="m132.826 128.913v-4.886" stroke="#000"/><path d="m132.262 124.027h21.421" stroke="#000"/><path d="m51.6372 88.5352h1.12745v8.64379h-1.12745z" fill="#000"/><path d="m67.0459 88.5352h1.12745v8.64379h-1.12745z" fill="#000"/><path d="m49.5215 76.0529 8.6986-4.0041 10.0066 4.0041v13.3471h-18.7052z" fill="#000"/><path d="m49.7583 88.1602h1.12745v9.01961h-1.12745z" fill="#000"/><path d="m65.1665 88.1602h1.12745v9.01961h-1.12745z" fill="#000"/><path d="m48.4746 87.1797h20.7981v2.61611h-20.7981z" fill="#000"/><g filter="url(#h)"><path d="m60.6396 80.7695h4.05498v3.27014h-4.05498z" fill="#ffb03a"/></g><g filter="url(#i)"><path d="m52.6606 80.7695h4.05498v6.40948h-4.05498z" fill="#ffb03a"/></g><g stroke="#000"><path d="m46 77.5684 12.3474-5.5684 13.0737 5.5684" stroke-width="5.15368"/><path d="m68.9248 89.6638v-5.2615"/><path d="m67.7974 89.6638v-5.2615"/><path d="m66.6699 89.6638v-5.2615"/><path d="m65.5425 89.6638v-5.2615"/><path d="m64.415 89.6638v-5.2615"/><path d="m63.2876 89.6638v-5.2615"/><path d="m62.1602 89.6638v-5.2615"/><path d="m61.0327 89.6638v-5.2615"/><path d="m59.9053 89.6638v-5.2615"/><path d="m58.7778 89.6638v-5.2615"/><path d="m57.6504 89.6638v-5.2615"/><path d="m56.5229 89.6638v-5.2615"/><path d="m55.3955 89.6638v-5.2615"/><path d="m54.2681 89.6638v-5.2615"/><path d="m53.1406 89.6638v-5.2615"/><path d="m52.0132 89.6638v-5.2615"/><path d="m50.8857 89.6638v-5.2615"/><path d="m49.7583 89.6638v-5.2615"/><path d="m48.6309 89.6638v-5.2615"/><path d="m48.0669 84.4023h21.4216"/></g></g></g><g filter="url(#j)"><circle cx="236.5" cy="41.5" fill="#ffbd3a" r="28.5"/></g><path d="m79.6421 99.3867s.8206.5662 1.2822.5662-1.3335.2061-1.3335.2061z" fill="#f9b326"/><path d="m75.6366 108.371.198.963s.8827.628 1.3945.662c.5119.035-1.8863-.231-1.8863-.231l.162-1.36z" fill="#f9b326"/><path d="m71 104.353s1.0257 3.911 3.744 4.117c2.7182.206 5.5903-.412 4.8723-5.404-.2565-1.853-.0513-2.419.1025-2.882.0932-.2668.0932-.5572 0-.8237 0 0-.0512-.3603-.4615-.3603s-.3078.5661-.3078.8749c0 .3091.1026 2.2131-.359 2.9341-.4616.72-1.5899 2.264-3.6927 2.161-2.1027-.103-3.4362-.72-3.4362-.72l.1026.257z" fill="#fff"/><path d="m79.4878 99.7469c.0567 0 .1026-.0461.1026-.103 0-.0568-.0459-.1029-.1026-.1029-.0566 0-.1025.0461-.1025.1029 0 .0569.0459.103.1025.103z" fill="#000"/><path d="m80.6162 100.003c.0284 0 .0513-.0119.0513-.0261s-.0229-.0257-.0513-.0257c-.0283 0-.0513.0115-.0513.0257s.023.0261.0513.0261z" fill="#c68614"/><path d="m77.533 108.219.2626.947s.9231.566 1.436.566-1.8976-.103-1.8976-.103l.0697-1.368z" fill="#f9b326"/><path d="m77.8472 104.996s-2.7695 1.338-4.1543.978c-1.3847-.36.6668 2.162 2.1028 1.595 1.4361-.566 2.0515-2.573 2.0515-2.573z" fill="#f9f5ed"/><path d="m84.3579 99.3867s-.8206.5662-1.2822.5662 1.3335.2061 1.3335.2061z" fill="#f9b326"/><path d="m88.3634 108.371-.198.963s-.8827.628-1.3945.662c-.5119.035 1.8863-.231 1.8863-.231l-.162-1.36z" fill="#f9b326"/><path d="m93 104.353s-1.0257 3.911-3.744 4.117c-2.7182.206-5.5903-.412-4.8723-5.404.2565-1.853.0513-2.419-.1025-2.882-.0932-.2668-.0932-.5572 0-.8237 0 0 .0512-.3603.4615-.3603s.3078.5661.3078.8749c0 .3091-.1026 2.2131.359 2.9341.4616.72 1.5899 2.264 3.6927 2.161 2.1027-.103 3.4362-.72 3.4362-.72l-.1026.257z" fill="#fff"/><path d="m84.5122 99.7469c-.0567 0-.1026-.0461-.1026-.103 0-.0568.0459-.1029.1026-.1029.0566 0 .1025.0461.1025.1029 0 .0569-.0459.103-.1025.103z" fill="#000"/><path d="m83.3838 100.003c-.0284 0-.0513-.0119-.0513-.0261s.0229-.0257.0513-.0257c.0283 0 .0513.0115.0513.0257s-.023.0261-.0513.0261z" fill="#c68614"/><path d="m86.467 108.219-.2626.947s-.9231.566-1.436.566 1.8976-.103 1.8976-.103l-.0697-1.368z" fill="#f9b326"/><path d="m86.1528 104.996s2.7695 1.338 4.1543.978c1.3847-.36-.6668 2.162-2.1028 1.595-1.4361-.566-2.0515-2.573-2.0515-2.573z" fill="#f9f5ed"/><path d="m96.543 105.176s-.3283.257-.5129.257.5334.094.5334.094z" fill="#f9b326"/><path d="m98.1451 109.26-.0791.437s-.3531.286-.5578.302c-.2048.015.7545-.106.7545-.106l-.0648-.618z" fill="#f9b326"/><path d="m100 107.433s-.4103 1.778-1.4976 1.872c-1.0873.093-2.2361-.188-1.9489-2.457.1026-.842.0205-1.099-.041-1.31-.0373-.121-.0373-.253 0-.374 0 0 .0205-.164.1846-.164s.1231.257.1231.398c0 .14-.041 1.006.1436 1.333.1846.328.636 1.03 1.4771.983s1.3745-.328 1.3745-.328l-.0411.117z" fill="#f4e97d"/><path d="m96.605 105.34c-.0227 0-.0411-.021-.0411-.047s.0184-.047.0411-.047c.0226 0 .041.021.041.047s-.0184.047-.041.047z" fill="#000"/><path d="m96.1533 105.455c-.0113 0-.0205-.005-.0205-.012 0-.006.0092-.011.0205-.011s.0205.005.0205.011c0 .007-.0092.012-.0205.012z" fill="#c68614"/><path d="m97.3867 109.189-.105.431s-.3693.257-.5744.257c-.2052 0 .759-.047.759-.047l-.0279-.621z" fill="#f9b326"/><path d="m97.2609 107.725s1.1078.608 1.6617.444-.2667.983-.8411.725c-.5744-.257-.8206-1.169-.8206-1.169z" fill="#fff7ac"/><path d="m102.543 105.176s-.328.257-.513.257.533.094.533.094z" fill="#f9b326"/><path d="m104.145 109.26-.079.437s-.353.286-.558.302c-.205.015.755-.106.755-.106l-.065-.618z" fill="#f9b326"/><path d="m106 107.433s-.41 1.778-1.498 1.872c-1.087.093-2.236-.188-1.948-2.457.102-.842.02-1.099-.042-1.31-.037-.121-.037-.253 0-.374 0 0 .021-.164.185-.164s.123.257.123.398c0 .14-.041 1.006.144 1.333.184.328.636 1.03 1.477.983s1.374-.328 1.374-.328l-.041.117z" fill="#f4e97d"/><path d="m102.605 105.34c-.023 0-.041-.021-.041-.047s.018-.047.041-.047.041.021.041.047-.018.047-.041.047z" fill="#000"/><path d="m102.153 105.455c-.011 0-.02-.005-.02-.012 0-.006.009-.011.02-.011.012 0 .021.005.021.011 0 .007-.009.012-.021.012z" fill="#c68614"/><path d="m103.387 109.189-.105.431s-.37.257-.575.257.759-.047.759-.047l-.028-.621z" fill="#f9b326"/><path d="m103.261 107.725s1.108.608 1.662.444-.267.983-.841.725c-.575-.257-.821-1.169-.821-1.169z" fill="#fff7ac"/><path d="m108.543 105.176s-.328.257-.513.257.533.094.533.094z" fill="#f9b326"/><path d="m110.145 109.26-.079.437s-.353.286-.558.302c-.205.015.755-.106.755-.106l-.065-.618z" fill="#f9b326"/><path d="m112 107.433s-.41 1.778-1.498 1.872c-1.087.093-2.236-.188-1.948-2.457.102-.842.02-1.099-.042-1.31-.037-.121-.037-.253 0-.374 0 0 .021-.164.185-.164s.123.257.123.398c0 .14-.041 1.006.144 1.333.184.328.636 1.03 1.477.983s1.374-.328 1.374-.328l-.041.117z" fill="#f4e97d"/><path d="m108.605 105.34c-.023 0-.041-.021-.041-.047s.018-.047.041-.047.041.021.041.047-.018.047-.041.047z" fill="#000"/><path d="m108.153 105.455c-.011 0-.02-.005-.02-.012 0-.006.009-.011.02-.011.012 0 .021.005.021.011 0 .007-.009.012-.021.012z" fill="#c68614"/><path d="m109.387 109.189-.105.431s-.37.257-.575.257.759-.047.759-.047l-.028-.621z" fill="#f9b326"/><path d="m109.261 107.725s1.108.608 1.662.444-.267.983-.841.725c-.575-.257-.821-1.169-.821-1.169z" fill="#fff7ac"/><g clip-rule="evenodd" fill-rule="evenodd" filter="url(#k)"><path d="m214.216 49.2393h7.081c1.926 0 3.487 1.5612 3.487 3.487 0 .4873-.1.9513-.281 1.3725h5.67c1.926 0 3.487 1.5612 3.487 3.487 0 .6575-.182 1.2726-.499 1.7975h2.612c2.335 0 4.227 1.8923 4.227 4.2266s-1.892 4.2267-4.227 4.2267h-73.755c-2.334 0-4.226-1.8924-4.226-4.2267s1.892-4.2266 4.226-4.2266h2.612c-.317-.5249-.499-1.14-.499-1.7975 0-1.9258 1.561-3.487 3.487-3.487h5.67c-.181-.4212-.281-.8852-.281-1.3725 0-1.9258 1.562-3.487 3.487-3.487h7.082c.055-1.8772 1.594-3.3819 3.485-3.3819h23.669c1.891 0 3.43 1.5047 3.486 3.3819z" fill="#fff6f0"/><path d="m169.645 37.8144h7.988c2.172 0 3.933 1.761 3.933 3.9333 0 .5503-.113 1.0742-.317 1.5498h6.396c2.172 0 3.933 1.761 3.933 3.9333 0 .7414-.205 1.4349-.562 2.0268h2.946c2.633 0 4.767 2.1346 4.767 4.7676 0 2.6331-2.134 4.7676-4.767 4.7676h-83.194c-2.633 0-4.768-2.1345-4.768-4.7676 0-2.633 2.135-4.7676 4.768-4.7676h2.945c-.357-.5919-.562-1.2854-.562-2.0268 0-2.1723 1.761-3.9333 3.934-3.9333h6.396c-.205-.4756-.318-.9995-.318-1.5498 0-2.1723 1.761-3.9333 3.934-3.9333h7.987c.062-2.1173 1.799-3.8144 3.931-3.8144h26.699c2.132 0 3.868 1.6971 3.931 3.8144z" fill="#fff1e8"/></g></svg>