<svg width="858" height="129" viewBox="0 0 858 129" fill="none" xmlns="http://www.w3.org/2000/svg">
<rect x="288.648" y="39" width="292" height="84" stroke="black" stroke-width="2"/>
<path d="M221.653 46.0943C221.705 46.6441 222.192 47.048 222.742 46.9963L231.703 46.1538C232.252 46.1021 232.656 45.6145 232.605 45.0646C232.553 44.5148 232.065 44.1109 231.515 44.1626L223.55 44.9114L222.802 36.9466C222.75 36.3967 222.262 35.9929 221.712 36.0446C221.163 36.0963 220.759 36.5839 220.81 37.1338L221.653 46.0943ZM289.332 50.2708C282.666 44.027 271.317 36.2637 258.893 33.3029C246.404 30.3267 232.773 32.2072 221.878 45.3628L223.419 46.6385C233.724 34.1941 246.51 32.408 258.429 35.2484C270.413 38.1043 281.464 45.641 287.965 51.7305L289.332 50.2708Z" fill="black"/>
<path d="M1.85444 63H4.39244V56.88L8.62244 63H11.5384L6.85844 56.43L11.3944 50.4H8.55044L4.39244 56.16V50.4H1.85444V63ZM12.6947 63H15.1787V49.986H12.6947V63ZM17.1419 63H19.6259V53.586H17.1419V63ZM16.9259 51.318C16.9259 52.128 17.5559 52.74 18.3659 52.74C19.1939 52.74 19.8239 52.128 19.8239 51.318C19.8239 50.508 19.1939 49.896 18.3659 49.896C17.5559 49.896 16.9259 50.508 16.9259 51.318ZM21.5892 63H24.0732V58.14L27.2232 63H30.1392L26.5752 57.852L29.8872 53.586H27.0972L24.0732 57.546V49.986H21.5892V63ZM35.1121 58.32C35.1121 61.164 37.2361 63.234 40.1701 63.234C43.1221 63.234 45.2461 61.164 45.2461 58.32C45.2461 55.476 43.0501 53.352 40.1701 53.352C37.3081 53.352 35.1121 55.458 35.1121 58.32ZM37.5961 58.32C37.5961 56.7 38.6761 55.548 40.1701 55.548C41.6641 55.548 42.7621 56.718 42.7621 58.32C42.7621 59.922 41.6641 61.038 40.1701 61.038C38.6941 61.038 37.5961 59.922 37.5961 58.32ZM46.6732 66.366H49.1572V62.028C49.3912 62.334 50.3272 63.234 51.9472 63.234C54.6472 63.234 56.4112 61.2 56.4112 58.284C56.4112 55.404 54.5032 53.352 51.8032 53.352C50.2012 53.352 49.2652 54.252 49.0132 54.576V53.586H46.6732V66.366ZM49.0852 58.266C49.0852 56.772 49.9852 55.548 51.4972 55.548C52.9012 55.548 53.9092 56.592 53.9092 58.266C53.9092 59.904 52.9372 61.038 51.4972 61.038C50.1292 61.038 49.0852 60.03 49.0852 58.266ZM64.7837 50.904L63.8117 49.824C62.7137 50.634 61.8137 52.11 61.8137 53.748C61.8137 54.81 62.5337 55.404 63.3977 55.404C64.2437 55.404 64.9097 54.702 64.9097 53.856C64.9097 53.208 64.4777 52.542 63.6677 52.362C63.7577 51.786 64.4057 51.156 64.7837 50.904ZM66.5947 63H69.1327V57.798H74.3707V63H76.9087V50.4H74.3707V55.512H69.1327V50.4H66.5947V63ZM78.5472 60.084C78.5472 62.064 80.1672 63.234 82.0752 63.234C83.1552 63.234 83.8752 62.91 84.3612 62.388L84.5232 63H86.7192V57.042C86.7192 54.936 85.8192 53.352 82.7952 53.352C81.3552 53.352 79.9332 53.892 79.0872 54.468L80.0232 56.16C80.7252 55.8 81.5892 55.494 82.5252 55.494C83.6232 55.494 84.2352 56.052 84.2352 56.88V57.492C83.8932 57.258 83.1552 56.97 82.2012 56.97C80.0052 56.97 78.5472 58.23 78.5472 60.084ZM81.0312 60.012C81.0312 59.238 81.6972 58.698 82.6512 58.698C83.6052 58.698 84.2892 59.184 84.2892 60.012C84.2892 60.804 83.6052 61.308 82.6692 61.308C81.7332 61.308 81.0312 60.786 81.0312 60.012ZM93.5118 53.352C92.2878 53.352 91.3878 54.036 90.9918 54.684V53.586H88.5618V63H91.0458V57.348C91.0458 56.34 91.6938 55.584 92.7198 55.584C93.5658 55.584 94.2858 56.232 94.2858 57.276V63H96.7698V57.564C96.7698 55.566 96.1938 53.352 93.5118 53.352ZM98.1121 58.32C98.1121 61.164 100.236 63.234 103.17 63.234C106.122 63.234 108.246 61.164 108.246 58.32C108.246 55.476 106.05 53.352 103.17 53.352C100.308 53.352 98.1121 55.458 98.1121 58.32ZM100.596 58.32C100.596 56.7 101.676 55.548 103.17 55.548C104.664 55.548 105.762 56.718 105.762 58.32C105.762 59.922 104.664 61.038 103.17 61.038C101.694 61.038 100.596 59.922 100.596 58.32ZM109.673 63H112.157V53.586H109.673V63ZM109.457 51.318C109.457 52.128 110.087 52.74 110.897 52.74C111.725 52.74 112.355 52.128 112.355 51.318C112.355 50.508 111.725 49.896 110.897 49.896C110.087 49.896 109.457 50.508 109.457 51.318ZM118.063 58.32C118.063 61.164 120.187 63.234 123.121 63.234C126.073 63.234 128.197 61.164 128.197 58.32C128.197 55.476 126.001 53.352 123.121 53.352C120.259 53.352 118.063 55.458 118.063 58.32ZM120.547 58.32C120.547 56.7 121.627 55.548 123.121 55.548C124.615 55.548 125.713 56.718 125.713 58.32C125.713 59.922 124.615 61.038 123.121 61.038C121.645 61.038 120.547 59.922 120.547 58.32ZM134.574 53.352C133.35 53.352 132.45 54.036 132.054 54.684V53.586H129.624V63H132.108V57.348C132.108 56.34 132.756 55.584 133.782 55.584C134.628 55.584 135.348 56.232 135.348 57.276V63H137.832V57.564C137.832 55.566 137.256 53.352 134.574 53.352ZM139.931 53.586H138.923V55.602H139.913V59.31C139.913 61.866 140.903 63.126 143.153 63.126C143.837 63.126 144.215 63.036 144.215 63.036V60.912C144.017 60.93 143.927 60.93 143.765 60.93C142.811 60.93 142.379 60.642 142.379 59.238V55.602H144.143V53.586H142.379V51.606H139.931V53.586ZM154.907 49.986H152.423V54.576C152.189 54.252 151.253 53.352 149.633 53.352C146.933 53.352 145.169 55.386 145.169 58.302C145.169 61.2 147.077 63.234 149.777 63.234C151.379 63.234 152.315 62.334 152.567 62.028V63H154.907V49.986ZM152.495 58.32C152.495 59.814 151.595 61.038 150.083 61.038C148.679 61.038 147.671 59.994 147.671 58.32C147.671 56.682 148.643 55.548 150.083 55.548C151.451 55.548 152.495 56.556 152.495 58.32ZM156.349 58.32C156.349 61.146 158.275 63.234 161.299 63.234C163.639 63.234 164.899 61.83 165.259 61.164L163.621 59.922C163.351 60.318 162.613 61.074 161.335 61.074C159.949 61.074 158.941 60.174 158.887 58.914H165.511C165.529 58.734 165.529 58.554 165.529 58.374C165.529 55.296 163.873 53.352 160.957 53.352C158.275 53.352 156.349 55.476 156.349 58.32ZM158.959 57.294C159.067 56.214 159.823 55.386 160.993 55.386C162.127 55.386 162.955 56.142 163.009 57.294H158.959ZM166.908 63H169.392V58.14L172.542 63H175.458L171.894 57.852L175.206 53.586H172.416L169.392 57.546V49.986H166.908V63ZM176.488 63H178.972V58.14L182.122 63H185.038L181.474 57.852L184.786 53.586H181.996L178.972 57.546V49.986H176.488V63ZM185.564 58.32C185.564 61.146 187.49 63.234 190.514 63.234C192.854 63.234 194.114 61.83 194.474 61.164L192.836 59.922C192.566 60.318 191.828 61.074 190.55 61.074C189.164 61.074 188.156 60.174 188.102 58.914H194.726C194.744 58.734 194.744 58.554 194.744 58.374C194.744 55.296 193.088 53.352 190.172 53.352C187.49 53.352 185.564 55.476 185.564 58.32ZM188.174 57.294C188.282 56.214 189.038 55.386 190.208 55.386C191.342 55.386 192.17 56.142 192.224 57.294H188.174ZM201.072 53.352C199.848 53.352 198.948 54.036 198.552 54.684V53.586H196.122V63H198.606V57.348C198.606 56.34 199.254 55.584 200.28 55.584C201.126 55.584 201.846 56.232 201.846 57.276V63H204.33V57.564C204.33 55.566 203.754 53.352 201.072 53.352ZM205.272 54.324L206.244 55.404C207.342 54.594 208.242 53.118 208.242 51.48C208.242 50.418 207.522 49.824 206.658 49.824C205.812 49.824 205.146 50.526 205.146 51.372C205.146 52.02 205.578 52.686 206.388 52.866C206.298 53.442 205.65 54.072 205.272 54.324ZM1.09844 76.32C1.09844 79.164 3.22244 81.234 6.15644 81.234C9.10844 81.234 11.2324 79.164 11.2324 76.32C11.2324 73.476 9.03644 71.352 6.15644 71.352C3.29444 71.352 1.09844 73.458 1.09844 76.32ZM3.58244 76.32C3.58244 74.7 4.66244 73.548 6.15644 73.548C7.65044 73.548 8.74844 74.718 8.74844 76.32C8.74844 77.922 7.65044 79.038 6.15644 79.038C4.68044 79.038 3.58244 77.922 3.58244 76.32ZM26.1055 74.79C26.1055 72.774 25.0435 71.352 22.9015 71.352C21.6415 71.352 20.6695 71.892 20.1115 72.756C19.6255 71.892 18.7435 71.352 17.5375 71.352C16.2595 71.352 15.4315 72.036 15.0895 72.684V71.586H12.6595V81H15.1435V75.366C15.1435 74.25 15.7915 73.584 16.6735 73.584C17.5915 73.584 18.1315 74.214 18.1315 75.276V81H20.6155V75.384C20.6155 74.25 21.2455 73.584 22.1455 73.584C23.0635 73.584 23.6215 74.25 23.6215 75.366V81H26.1055V74.79ZM32.6689 71.586H31.6609V73.602H32.6509V77.31C32.6509 79.866 33.6409 81.126 35.8909 81.126C36.5749 81.126 36.9529 81.036 36.9529 81.036V78.912C36.7549 78.93 36.6649 78.93 36.5029 78.93C35.5489 78.93 35.1169 78.642 35.1169 77.238V73.602H36.8809V71.586H35.1169V69.606H32.6689V71.586ZM37.925 76.32C37.925 79.146 39.851 81.234 42.875 81.234C45.215 81.234 46.475 79.83 46.835 79.164L45.197 77.922C44.927 78.318 44.189 79.074 42.911 79.074C41.525 79.074 40.517 78.174 40.463 76.914H47.087C47.105 76.734 47.105 76.554 47.105 76.374C47.105 73.296 45.449 71.352 42.533 71.352C39.851 71.352 37.925 73.476 37.925 76.32ZM40.535 75.294C40.643 74.214 41.399 73.386 42.569 73.386C43.703 73.386 44.531 74.142 44.585 75.294H40.535ZM59.8066 73.134V71.586H52.6066V73.656H56.7286L52.4806 79.47V81H59.8606V78.93H55.5586L59.8066 73.134ZM61.3685 81H63.8525V71.586H61.3685V81ZM61.1525 69.318C61.1525 70.128 61.7825 70.74 62.5925 70.74C63.4205 70.74 64.0505 70.128 64.0505 69.318C64.0505 68.508 63.4205 67.896 62.5925 67.896C61.7825 67.896 61.1525 68.508 61.1525 69.318ZM65.3118 76.32C65.3118 79.146 67.2378 81.234 70.2618 81.234C72.6018 81.234 73.8618 79.83 74.2218 79.164L72.5838 77.922C72.3138 78.318 71.5758 79.074 70.2978 79.074C68.9118 79.074 67.9038 78.174 67.8498 76.914H74.4738C74.4918 76.734 74.4918 76.554 74.4918 76.374C74.4918 73.296 72.8358 71.352 69.9198 71.352C67.2378 71.352 65.3118 73.476 65.3118 76.32ZM67.9218 75.294C68.0298 74.214 68.7858 73.386 69.9558 73.386C71.0898 73.386 71.9178 74.142 71.9718 75.294H67.9218ZM80.8204 71.352C79.5964 71.352 78.6964 72.036 78.3004 72.684V71.586H75.8704V81H78.3544V75.348C78.3544 74.34 79.0024 73.584 80.0284 73.584C80.8744 73.584 81.5944 74.232 81.5944 75.276V81H84.0784V75.564C84.0784 73.566 83.5024 71.352 80.8204 71.352ZM98.6155 81H101.388L104.214 71.586H101.514L99.8395 78.264L98.0575 71.586H95.7175L93.9175 78.264L92.2615 71.586H89.5615L92.3695 81H95.1415L96.8875 74.97L98.6155 81ZM104.81 76.32C104.81 79.146 106.736 81.234 109.76 81.234C112.1 81.234 113.36 79.83 113.72 79.164L112.082 77.922C111.812 78.318 111.074 79.074 109.796 79.074C108.41 79.074 107.402 78.174 107.348 76.914H113.972C113.99 76.734 113.99 76.554 113.99 76.374C113.99 73.296 112.334 71.352 109.418 71.352C106.736 71.352 104.81 73.476 104.81 76.32ZM107.42 75.294C107.528 74.214 108.284 73.386 109.454 73.386C110.588 73.386 111.416 74.142 111.47 75.294H107.42ZM115.368 81H117.852V67.986H115.368V81ZM119.816 81H122.3V76.14L125.45 81H128.366L124.802 75.852L128.114 71.586H125.324L122.3 75.546V67.986H119.816V81ZM128.892 76.32C128.892 79.146 130.818 81.234 133.842 81.234C136.182 81.234 137.442 79.83 137.802 79.164L136.164 77.922C135.894 78.318 135.156 79.074 133.878 79.074C132.492 79.074 131.484 78.174 131.43 76.914H138.054C138.072 76.734 138.072 76.554 138.072 76.374C138.072 73.296 136.416 71.352 133.5 71.352C130.818 71.352 128.892 73.476 128.892 76.32ZM131.502 75.294C131.61 74.214 132.366 73.386 133.536 73.386C134.67 73.386 135.498 74.142 135.552 75.294H131.502ZM1.08044 96.084C1.08044 98.064 2.70044 99.234 4.60844 99.234C5.68844 99.234 6.40844 98.91 6.89444 98.388L7.05644 99H9.25244V93.042C9.25244 90.936 8.35244 89.352 5.32844 89.352C3.88844 89.352 2.46644 89.892 1.62044 90.468L2.55644 92.16C3.25844 91.8 4.12244 91.494 5.05844 91.494C6.15644 91.494 6.76844 92.052 6.76844 92.88V93.492C6.42644 93.258 5.68844 92.97 4.73444 92.97C2.53844 92.97 1.08044 94.23 1.08044 96.084ZM3.56444 96.012C3.56444 95.238 4.23044 94.698 5.18444 94.698C6.13844 94.698 6.82244 95.184 6.82244 96.012C6.82244 96.804 6.13844 97.308 5.20244 97.308C4.26644 97.308 3.56444 96.786 3.56444 96.012ZM15.739 97.038C14.173 97.038 13.057 95.904 13.057 94.302C13.057 92.79 14.047 91.548 15.649 91.548C16.711 91.548 17.431 92.07 17.845 92.448L18.547 90.36C17.935 89.892 16.963 89.352 15.577 89.352C12.715 89.352 10.573 91.458 10.573 94.32C10.573 97.182 12.661 99.234 15.595 99.234C16.963 99.234 17.989 98.658 18.529 98.226L17.863 96.192C17.449 96.534 16.693 97.038 15.739 97.038ZM20.1533 89.586H19.1453V91.602H20.1353V95.31C20.1353 97.866 21.1253 99.126 23.3753 99.126C24.0593 99.126 24.4373 99.036 24.4373 99.036V96.912C24.2393 96.93 24.1493 96.93 23.9873 96.93C23.0333 96.93 22.6013 96.642 22.6013 95.238V91.602H24.3653V89.586H22.6013V87.606H20.1533V89.586ZM25.9134 99H28.3974V89.586H25.9134V99ZM25.6974 87.318C25.6974 88.128 26.3274 88.74 27.1374 88.74C27.9654 88.74 28.5954 88.128 28.5954 87.318C28.5954 86.508 27.9654 85.896 27.1374 85.896C26.3274 85.896 25.6974 86.508 25.6974 87.318ZM35.7067 99L39.0727 89.586H36.4267L34.2667 96.354L32.1067 89.586H29.4607L32.8267 99H35.7067ZM40.1165 99H42.6005V89.586H40.1165V99ZM39.9005 87.318C39.9005 88.128 40.5305 88.74 41.3405 88.74C42.1685 88.74 42.7985 88.128 42.7985 87.318C42.7985 86.508 42.1685 85.896 41.3405 85.896C40.5305 85.896 39.9005 86.508 39.9005 87.318ZM44.7978 89.586H43.7898V91.602H44.7798V95.31C44.7798 97.866 45.7698 99.126 48.0198 99.126C48.7038 99.126 49.0818 99.036 49.0818 99.036V96.912C48.8838 96.93 48.7938 96.93 48.6318 96.93C47.6778 96.93 47.2458 96.642 47.2458 95.238V91.602H49.0098V89.586H47.2458V87.606H44.7978V89.586ZM50.0539 94.32C50.0539 97.146 51.9799 99.234 55.0039 99.234C57.3439 99.234 58.6039 97.83 58.9639 97.164L57.3259 95.922C57.0559 96.318 56.3179 97.074 55.0399 97.074C53.6539 97.074 52.6459 96.174 52.5919 94.914H59.2159C59.2339 94.734 59.2339 94.554 59.2339 94.374C59.2339 91.296 57.5779 89.352 54.6619 89.352C51.9799 89.352 50.0539 91.476 50.0539 94.32ZM52.6639 93.294C52.7719 92.214 53.5279 91.386 54.6979 91.386C55.8319 91.386 56.6599 92.142 56.7139 93.294H52.6639ZM60.6126 99H63.0966V89.586H60.6126V99ZM60.3966 87.318C60.3966 88.128 61.0266 88.74 61.8366 88.74C62.6646 88.74 63.2946 88.128 63.2946 87.318C63.2946 86.508 62.6646 85.896 61.8366 85.896C61.0266 85.896 60.3966 86.508 60.3966 87.318ZM65.2939 89.586H64.2859V91.602H65.2759V95.31C65.2759 97.866 66.2659 99.126 68.5159 99.126C69.1999 99.126 69.5779 99.036 69.5779 99.036V96.912C69.3799 96.93 69.2899 96.93 69.1279 96.93C68.1739 96.93 67.7419 96.642 67.7419 95.238V91.602H69.5059V89.586H67.7419V87.606H65.2939V89.586ZM70.55 94.32C70.55 97.146 72.476 99.234 75.5 99.234C77.84 99.234 79.1 97.83 79.46 97.164L77.822 95.922C77.552 96.318 76.814 97.074 75.536 97.074C74.15 97.074 73.142 96.174 73.088 94.914H79.712C79.73 94.734 79.73 94.554 79.73 94.374C79.73 91.296 78.074 89.352 75.158 89.352C72.476 89.352 70.55 91.476 70.55 94.32ZM73.16 93.294C73.268 92.214 74.024 91.386 75.194 91.386C76.328 91.386 77.156 92.142 77.21 93.294H73.16ZM86.0587 89.352C84.8347 89.352 83.9347 90.036 83.5387 90.684V89.586H81.1087V99H83.5927V93.348C83.5927 92.34 84.2407 91.584 85.2667 91.584C86.1127 91.584 86.8327 92.232 86.8327 93.276V99H89.3167V93.564C89.3167 91.566 88.7407 89.352 86.0587 89.352ZM95.6458 99.018C95.6458 99.864 95.2498 100.332 94.3498 100.332C94.1698 100.332 93.9178 100.296 93.9178 100.296V102.402C93.9178 102.402 94.2418 102.438 94.5298 102.438C96.5638 102.438 98.1298 101.61 98.1298 99.126V89.586H95.6458V99.018ZM95.4298 87.318C95.4298 88.128 96.0598 88.74 96.8698 88.74C97.6978 88.74 98.3278 88.128 98.3278 87.318C98.3278 86.508 97.6978 85.896 96.8698 85.896C96.0598 85.896 95.4298 86.508 95.4298 87.318ZM99.5891 94.32C99.5891 97.146 101.515 99.234 104.539 99.234C106.879 99.234 108.139 97.83 108.499 97.164L106.861 95.922C106.591 96.318 105.853 97.074 104.575 97.074C103.189 97.074 102.181 96.174 102.127 94.914H108.751C108.769 94.734 108.769 94.554 108.769 94.374C108.769 91.296 107.113 89.352 104.197 89.352C101.515 89.352 99.5891 91.476 99.5891 94.32ZM102.199 93.294C102.307 92.214 103.063 91.386 104.233 91.386C105.367 91.386 106.195 92.142 106.249 93.294H102.199ZM114.613 99H117.097V89.586H114.613V99ZM114.397 87.318C114.397 88.128 115.027 88.74 115.837 88.74C116.665 88.74 117.295 88.128 117.295 87.318C117.295 86.508 116.665 85.896 115.837 85.896C115.027 85.896 114.397 86.508 114.397 87.318ZM124.01 89.352C122.786 89.352 121.886 90.036 121.49 90.684V89.586H119.06V99H121.544V93.348C121.544 92.34 122.192 91.584 123.218 91.584C124.064 91.584 124.784 92.232 124.784 93.276V99H127.268V93.564C127.268 91.566 126.692 89.352 124.01 89.352ZM133.831 99H136.369V93.798H141.607V99H144.145V86.4H141.607V91.512H136.369V86.4H133.831V99ZM145.784 96.084C145.784 98.064 147.404 99.234 149.312 99.234C150.392 99.234 151.112 98.91 151.598 98.388L151.76 99H153.956V93.042C153.956 90.936 153.056 89.352 150.032 89.352C148.592 89.352 147.17 89.892 146.324 90.468L147.26 92.16C147.962 91.8 148.826 91.494 149.762 91.494C150.86 91.494 151.472 92.052 151.472 92.88V93.492C151.13 93.258 150.392 92.97 149.438 92.97C147.242 92.97 145.784 94.23 145.784 96.084ZM148.268 96.012C148.268 95.238 148.934 94.698 149.888 94.698C150.842 94.698 151.526 95.184 151.526 96.012C151.526 96.804 150.842 97.308 149.906 97.308C148.97 97.308 148.268 96.786 148.268 96.012ZM160.748 89.352C159.524 89.352 158.624 90.036 158.228 90.684V89.586H155.798V99H158.282V93.348C158.282 92.34 158.93 91.584 159.956 91.584C160.802 91.584 161.522 92.232 161.522 93.276V99H164.006V93.564C164.006 91.566 163.43 89.352 160.748 89.352ZM165.348 94.32C165.348 97.164 167.472 99.234 170.406 99.234C173.358 99.234 175.482 97.164 175.482 94.32C175.482 91.476 173.286 89.352 170.406 89.352C167.544 89.352 165.348 91.458 165.348 94.32ZM167.832 94.32C167.832 92.7 168.912 91.548 170.406 91.548C171.9 91.548 172.998 92.718 172.998 94.32C172.998 95.922 171.9 97.038 170.406 97.038C168.93 97.038 167.832 95.922 167.832 94.32ZM176.91 99H179.394V89.586H176.91V99ZM176.694 87.318C176.694 88.128 177.324 88.74 178.134 88.74C178.962 88.74 179.592 88.128 179.592 87.318C179.592 86.508 178.962 85.896 178.134 85.896C177.324 85.896 176.694 86.508 176.694 87.318ZM185.822 99H188.306V94.14L191.456 99H194.372L190.808 93.852L194.12 89.586H191.33L188.306 93.546V85.986H185.822V99ZM194.862 96.084C194.862 98.064 196.482 99.234 198.39 99.234C199.47 99.234 200.19 98.91 200.676 98.388L200.838 99H203.034V93.042C203.034 90.936 202.134 89.352 199.11 89.352C197.67 89.352 196.248 89.892 195.402 90.468L196.338 92.16C197.04 91.8 197.904 91.494 198.84 91.494C199.938 91.494 200.55 92.052 200.55 92.88V93.492C200.208 93.258 199.47 92.97 198.516 92.97C196.32 92.97 194.862 94.23 194.862 96.084ZM197.346 96.012C197.346 95.238 198.012 94.698 198.966 94.698C199.92 94.698 200.604 95.184 200.604 96.012C200.604 96.804 199.92 97.308 198.984 97.308C198.048 97.308 197.346 96.786 197.346 96.012ZM209.826 89.352C208.602 89.352 207.702 90.036 207.306 90.684V89.586H204.876V99H207.36V93.348C207.36 92.34 208.008 91.584 209.034 91.584C209.88 91.584 210.6 92.232 210.6 93.276V99H213.084V93.564C213.084 91.566 212.508 89.352 209.826 89.352ZM10.8364 103.986H8.35244V108.576C8.11844 108.252 7.18244 107.352 5.56244 107.352C2.86244 107.352 1.09844 109.386 1.09844 112.302C1.09844 115.2 3.00644 117.234 5.70644 117.234C7.30844 117.234 8.24444 116.334 8.49644 116.028V117H10.8364V103.986ZM8.42444 112.32C8.42444 113.814 7.52444 115.038 6.01244 115.038C4.60844 115.038 3.60044 113.994 3.60044 112.32C3.60044 110.682 4.57244 109.548 6.01244 109.548C7.38044 109.548 8.42444 110.556 8.42444 112.32ZM12.2605 112.32C12.2605 115.164 14.3845 117.234 17.3185 117.234C20.2705 117.234 22.3945 115.164 22.3945 112.32C22.3945 109.476 20.1985 107.352 17.3185 107.352C14.4565 107.352 12.2605 109.458 12.2605 112.32ZM14.7445 112.32C14.7445 110.7 15.8245 109.548 17.3185 109.548C18.8125 109.548 19.9105 110.718 19.9105 112.32C19.9105 113.922 18.8125 115.038 17.3185 115.038C15.8425 115.038 14.7445 113.922 14.7445 112.32ZM23.3176 112.32C23.3176 115.146 25.2436 117.234 28.2676 117.234C30.6076 117.234 31.8676 115.83 32.2276 115.164L30.5896 113.922C30.3196 114.318 29.5816 115.074 28.3036 115.074C26.9176 115.074 25.9096 114.174 25.8556 112.914H32.4796C32.4976 112.734 32.4976 112.554 32.4976 112.374C32.4976 109.296 30.8416 107.352 27.9256 107.352C25.2436 107.352 23.3176 109.476 23.3176 112.32ZM25.9276 111.294C26.0356 110.214 26.7916 109.386 27.9616 109.386C29.0956 109.386 29.9236 110.142 29.9776 111.294H25.9276ZM38.8263 107.352C37.6023 107.352 36.7023 108.036 36.3063 108.684V107.586H33.8763V117H36.3603V111.348C36.3603 110.34 37.0083 109.584 38.0343 109.584C38.8803 109.584 39.6003 110.232 39.6003 111.276V117H42.0843V111.564C42.0843 109.566 41.5083 107.352 38.8263 107.352ZM45.1726 117.234C46.0366 117.234 46.7026 116.55 46.7026 115.722C46.7026 114.876 46.0366 114.174 45.1726 114.174C44.3086 114.174 43.6426 114.876 43.6426 115.722C43.6426 116.55 44.3086 117.234 45.1726 117.234Z" fill="black"/>
<path d="M625.854 45.6445H628.392V39.5245L632.622 45.6445H635.538L630.858 39.0745L635.394 33.0445H632.55L628.392 38.8045V33.0445H625.854V45.6445ZM636.695 45.6445H639.179V32.6305H636.695V45.6445ZM641.142 45.6445H643.626V36.2305H641.142V45.6445ZM640.926 33.9625C640.926 34.7725 641.556 35.3845 642.366 35.3845C643.194 35.3845 643.824 34.7725 643.824 33.9625C643.824 33.1525 643.194 32.5405 642.366 32.5405C641.556 32.5405 640.926 33.1525 640.926 33.9625ZM645.589 45.6445H648.073V40.7845L651.223 45.6445H654.139L650.575 40.4965L653.887 36.2305H651.097L648.073 40.1905V32.6305H645.589V45.6445ZM664.584 35.9965C663.36 35.9965 662.46 36.6805 662.064 37.3285V36.2305H659.634V45.6445H662.118V39.9925C662.118 38.9845 662.766 38.2285 663.792 38.2285C664.638 38.2285 665.358 38.8765 665.358 39.9205V45.6445H667.842V40.2085C667.842 38.2105 667.266 35.9965 664.584 35.9965ZM669.184 40.9645C669.184 43.8085 671.308 45.8785 674.242 45.8785C677.194 45.8785 679.318 43.8085 679.318 40.9645C679.318 38.1205 677.122 35.9965 674.242 35.9965C671.38 35.9965 669.184 38.1025 669.184 40.9645ZM671.668 40.9645C671.668 39.3445 672.748 38.1925 674.242 38.1925C675.736 38.1925 676.834 39.3625 676.834 40.9645C676.834 42.5665 675.736 43.6825 674.242 43.6825C672.766 43.6825 671.668 42.5665 671.668 40.9645ZM681.429 48.2365C682.275 48.7045 683.589 49.1005 684.885 49.1005C687.657 49.1005 689.943 47.9665 689.943 44.4565V36.2305H687.603V37.2205C687.333 36.8605 686.379 35.9965 684.795 35.9965C682.113 35.9965 680.205 38.0485 680.205 40.9465C680.205 43.8445 681.987 45.8785 684.705 45.8785C686.343 45.8785 687.261 44.9425 687.459 44.6725V45.1045C687.459 46.5625 686.217 46.9765 684.867 46.9765C683.571 46.9765 682.491 46.4905 682.185 46.3285L681.429 48.2365ZM687.531 40.9285C687.531 42.6025 686.559 43.6825 685.119 43.6825C683.715 43.6825 682.707 42.5845 682.707 40.9285C682.707 39.2725 683.697 38.1925 685.101 38.1925C686.559 38.1925 687.531 39.3265 687.531 40.9285ZM705.266 39.4345C705.266 37.4185 704.204 35.9965 702.062 35.9965C700.802 35.9965 699.83 36.5365 699.272 37.4005C698.786 36.5365 697.904 35.9965 696.698 35.9965C695.42 35.9965 694.592 36.6805 694.25 37.3285V36.2305H691.82V45.6445H694.304V40.0105C694.304 38.8945 694.952 38.2285 695.834 38.2285C696.752 38.2285 697.292 38.8585 697.292 39.9205V45.6445H699.776V40.0285C699.776 38.8945 700.406 38.2285 701.306 38.2285C702.224 38.2285 702.782 38.8945 702.782 40.0105V45.6445H705.266V39.4345ZM706.59 42.7285C706.59 44.7085 708.21 45.8785 710.118 45.8785C711.198 45.8785 711.918 45.5545 712.404 45.0325L712.566 45.6445H714.762V39.6865C714.762 37.5805 713.862 35.9965 710.838 35.9965C709.398 35.9965 707.976 36.5365 707.13 37.1125L708.066 38.8045C708.768 38.4445 709.632 38.1385 710.568 38.1385C711.666 38.1385 712.278 38.6965 712.278 39.5245V40.1365C711.936 39.9025 711.198 39.6145 710.244 39.6145C708.048 39.6145 706.59 40.8745 706.59 42.7285ZM709.074 42.6565C709.074 41.8825 709.74 41.3425 710.694 41.3425C711.648 41.3425 712.332 41.8285 712.332 42.6565C712.332 43.4485 711.648 43.9525 710.712 43.9525C709.776 43.9525 709.074 43.4305 709.074 42.6565ZM716.065 42.7285C716.065 44.7085 717.685 45.8785 719.593 45.8785C720.673 45.8785 721.393 45.5545 721.879 45.0325L722.041 45.6445H724.237V39.6865C724.237 37.5805 723.337 35.9965 720.313 35.9965C718.873 35.9965 717.451 36.5365 716.605 37.1125L717.541 38.8045C718.243 38.4445 719.107 38.1385 720.043 38.1385C721.141 38.1385 721.753 38.6965 721.753 39.5245V40.1365C721.411 39.9025 720.673 39.6145 719.719 39.6145C717.523 39.6145 716.065 40.8745 716.065 42.7285ZM718.549 42.6565C718.549 41.8825 719.215 41.3425 720.169 41.3425C721.123 41.3425 721.807 41.8285 721.807 42.6565C721.807 43.4485 721.123 43.9525 720.187 43.9525C719.251 43.9525 718.549 43.4305 718.549 42.6565ZM726.079 45.6445H728.563V32.6305H726.079V45.6445ZM733.407 45.8785C735.441 45.8785 737.025 44.7265 737.025 42.8905C737.025 39.5245 732.561 40.2445 732.561 38.7505C732.561 38.2825 732.957 37.9945 733.533 37.9945C734.415 37.9945 734.937 38.5345 735.225 38.8945L736.863 37.6705C736.413 36.9325 735.423 35.9965 733.641 35.9965C731.715 35.9965 730.221 37.0405 730.221 38.7865C730.221 42.1345 734.667 41.5765 734.667 43.0165C734.667 43.5565 734.217 43.8625 733.515 43.8625C732.453 43.8625 731.823 43.3765 731.355 42.8365L729.897 44.1325C730.401 44.9425 731.553 45.8785 733.407 45.8785ZM625.098 58.9645C625.098 61.8085 627.222 63.8785 630.156 63.8785C633.108 63.8785 635.232 61.8085 635.232 58.9645C635.232 56.1205 633.036 53.9965 630.156 53.9965C627.294 53.9965 625.098 56.1025 625.098 58.9645ZM627.582 58.9645C627.582 57.3445 628.662 56.1925 630.156 56.1925C631.65 56.1925 632.748 57.3625 632.748 58.9645C632.748 60.5665 631.65 61.6825 630.156 61.6825C628.68 61.6825 627.582 60.5665 627.582 58.9645ZM636.66 67.0105H639.144V62.6725C639.378 62.9785 640.313 63.8785 641.934 63.8785C644.634 63.8785 646.398 61.8445 646.398 58.9285C646.398 56.0485 644.49 53.9965 641.79 53.9965C640.188 53.9965 639.252 54.8965 639 55.2205V54.2305H636.66V67.0105ZM639.072 58.9105C639.072 57.4165 639.972 56.1925 641.484 56.1925C642.888 56.1925 643.896 57.2365 643.896 58.9105C643.896 60.5485 642.924 61.6825 641.484 61.6825C640.116 61.6825 639.072 60.6745 639.072 58.9105ZM657.272 53.9965C656.048 53.9965 655.184 54.6805 654.788 55.3285V50.6305H652.304V63.6445H654.788V57.9925C654.788 56.9845 655.454 56.2285 656.498 56.2285C657.344 56.2285 658.064 56.8765 658.064 57.9205V63.6445H660.53V58.2085C660.53 56.2105 659.972 53.9965 657.272 53.9965ZM661.907 58.9645C661.907 61.7905 663.833 63.8785 666.857 63.8785C669.197 63.8785 670.457 62.4745 670.817 61.8085L669.179 60.5665C668.909 60.9625 668.171 61.7185 666.893 61.7185C665.507 61.7185 664.499 60.8185 664.445 59.5585H671.069C671.087 59.3785 671.087 59.1985 671.087 59.0185C671.087 55.9405 669.431 53.9965 666.515 53.9965C663.833 53.9965 661.907 56.1205 661.907 58.9645ZM664.517 57.9385C664.625 56.8585 665.381 56.0305 666.551 56.0305C667.685 56.0305 668.513 56.7865 668.567 57.9385H664.517ZM672.7 54.2305H671.692V56.2465H672.682V59.9545C672.682 62.5105 673.672 63.7705 675.922 63.7705C676.606 63.7705 676.984 63.6805 676.984 63.6805V61.5565C676.786 61.5745 676.696 61.5745 676.534 61.5745C675.58 61.5745 675.148 61.2865 675.148 59.8825V56.2465H676.912V54.2305H675.148V52.2505H672.7V54.2305ZM630.966 81.6445L634.332 72.2305H631.686L629.526 78.9985L627.366 72.2305H624.72L628.086 81.6445H630.966ZM640.398 71.9965C639.156 71.9965 638.22 72.6625 637.806 73.5985V72.2305H635.376V81.6445H637.86V77.5405C637.86 75.6685 638.544 74.5165 640.398 74.5165V71.9965ZM641.323 78.7285C641.323 80.7085 642.943 81.8785 644.851 81.8785C645.931 81.8785 646.651 81.5545 647.137 81.0325L647.299 81.6445H649.495V75.6865C649.495 73.5805 648.595 71.9965 645.571 71.9965C644.131 71.9965 642.709 72.5365 641.863 73.1125L642.799 74.8045C643.501 74.4445 644.365 74.1385 645.301 74.1385C646.399 74.1385 647.011 74.6965 647.011 75.5245V76.1365C646.669 75.9025 645.931 75.6145 644.977 75.6145C642.781 75.6145 641.323 76.8745 641.323 78.7285ZM643.807 78.6565C643.807 77.8825 644.473 77.3425 645.427 77.3425C646.381 77.3425 647.065 77.8285 647.065 78.6565C647.065 79.4485 646.381 79.9525 645.445 79.9525C644.509 79.9525 643.807 79.4305 643.807 78.6565ZM650.797 78.7285C650.797 80.7085 652.417 81.8785 654.325 81.8785C655.405 81.8785 656.125 81.5545 656.611 81.0325L656.773 81.6445H658.969V75.6865C658.969 73.5805 658.069 71.9965 655.045 71.9965C653.605 71.9965 652.183 72.5365 651.337 73.1125L652.273 74.8045C652.975 74.4445 653.839 74.1385 654.775 74.1385C655.873 74.1385 656.485 74.6965 656.485 75.5245V76.1365C656.143 75.9025 655.405 75.6145 654.451 75.6145C652.255 75.6145 650.797 76.8745 650.797 78.7285ZM653.281 78.6565C653.281 77.8825 653.947 77.3425 654.901 77.3425C655.855 77.3425 656.539 77.8285 656.539 78.6565C656.539 79.4485 655.855 79.9525 654.919 79.9525C653.983 79.9525 653.281 79.4305 653.281 78.6565ZM661.496 84.2365C662.342 84.7045 663.656 85.1005 664.952 85.1005C667.724 85.1005 670.01 83.9665 670.01 80.4565V72.2305H667.67V73.2205C667.4 72.8605 666.446 71.9965 664.862 71.9965C662.18 71.9965 660.272 74.0485 660.272 76.9465C660.272 79.8445 662.054 81.8785 664.772 81.8785C666.41 81.8785 667.328 80.9425 667.526 80.6725V81.1045C667.526 82.5625 666.284 82.9765 664.934 82.9765C663.638 82.9765 662.558 82.4905 662.252 82.3285L661.496 84.2365ZM667.598 76.9285C667.598 78.6025 666.626 79.6825 665.186 79.6825C663.782 79.6825 662.774 78.5845 662.774 76.9285C662.774 75.2725 663.764 74.1925 665.168 74.1925C666.626 74.1925 667.598 75.3265 667.598 76.9285ZM672.12 72.2305H671.112V74.2465H672.102V77.9545C672.102 80.5105 673.092 81.7705 675.342 81.7705C676.026 81.7705 676.404 81.6805 676.404 81.6805V79.5565C676.206 79.5745 676.116 79.5745 675.954 79.5745C675 79.5745 674.568 79.2865 674.568 77.8825V74.2465H676.332V72.2305H674.568V70.2505H672.12V72.2305ZM677.376 76.9645C677.376 79.7905 679.302 81.8785 682.326 81.8785C684.666 81.8785 685.926 80.4745 686.286 79.8085L684.648 78.5665C684.378 78.9625 683.64 79.7185 682.362 79.7185C680.976 79.7185 679.968 78.8185 679.914 77.5585H686.538C686.556 77.3785 686.556 77.1985 686.556 77.0185C686.556 73.9405 684.9 71.9965 681.984 71.9965C679.302 71.9965 677.376 74.1205 677.376 76.9645ZM679.986 75.9385C680.094 74.8585 680.85 74.0305 682.02 74.0305C683.154 74.0305 683.982 74.7865 684.036 75.9385H679.986ZM687.935 81.6445H690.419V76.7845L693.569 81.6445H696.485L692.921 76.4965L696.233 72.2305H693.443L690.419 76.1905V68.6305H687.935V81.6445ZM697.011 76.9645C697.011 79.7905 698.937 81.8785 701.961 81.8785C704.301 81.8785 705.561 80.4745 705.921 79.8085L704.283 78.5665C704.013 78.9625 703.275 79.7185 701.997 79.7185C700.611 79.7185 699.603 78.8185 699.549 77.5585H706.173C706.191 77.3785 706.191 77.1985 706.191 77.0185C706.191 73.9405 704.535 71.9965 701.619 71.9965C698.937 71.9965 697.011 74.1205 697.011 76.9645ZM699.621 75.9385C699.729 74.8585 700.485 74.0305 701.655 74.0305C702.789 74.0305 703.617 74.7865 703.671 75.9385H699.621ZM712.52 71.9965C711.296 71.9965 710.396 72.6805 710 73.3285V72.2305H707.57V81.6445H710.054V75.9925C710.054 74.9845 710.702 74.2285 711.728 74.2285C712.574 74.2285 713.294 74.8765 713.294 75.9205V81.6445H715.778V76.2085C715.778 74.2105 715.202 71.9965 712.52 71.9965ZM721.585 76.9645C721.585 79.8085 723.709 81.8785 726.643 81.8785C729.595 81.8785 731.719 79.8085 731.719 76.9645C731.719 74.1205 729.523 71.9965 726.643 71.9965C723.781 71.9965 721.585 74.1025 721.585 76.9645ZM724.069 76.9645C724.069 75.3445 725.149 74.1925 726.643 74.1925C728.137 74.1925 729.235 75.3625 729.235 76.9645C729.235 78.5665 728.137 79.6825 726.643 79.6825C725.167 79.6825 724.069 78.5665 724.069 76.9645ZM746.592 75.4345C746.592 73.4185 745.53 71.9965 743.388 71.9965C742.128 71.9965 741.156 72.5365 740.598 73.4005C740.112 72.5365 739.23 71.9965 738.024 71.9965C736.746 71.9965 735.918 72.6805 735.576 73.3285V72.2305H733.146V81.6445H735.63V76.0105C735.63 74.8945 736.278 74.2285 737.16 74.2285C738.078 74.2285 738.618 74.8585 738.618 75.9205V81.6445H741.102V76.0285C741.102 74.8945 741.732 74.2285 742.632 74.2285C743.55 74.2285 744.108 74.8945 744.108 76.0105V81.6445H746.592V75.4345ZM634.836 86.6305H632.352V91.2205C632.118 90.8965 631.182 89.9965 629.562 89.9965C626.862 89.9965 625.098 92.0305 625.098 94.9465C625.098 97.8445 627.006 99.8785 629.706 99.8785C631.308 99.8785 632.244 98.9785 632.496 98.6725V99.6445H634.836V86.6305ZM632.424 94.9645C632.424 96.4585 631.524 97.6825 630.012 97.6825C628.608 97.6825 627.6 96.6385 627.6 94.9645C627.6 93.3265 628.572 92.1925 630.012 92.1925C631.38 92.1925 632.424 93.2005 632.424 94.9645ZM636.279 94.9645C636.279 97.7905 638.205 99.8785 641.229 99.8785C643.569 99.8785 644.829 98.4745 645.189 97.8085L643.551 96.5665C643.281 96.9625 642.543 97.7185 641.265 97.7185C639.879 97.7185 638.871 96.8185 638.817 95.5585H645.441C645.459 95.3785 645.459 95.1985 645.459 95.0185C645.459 91.9405 643.803 89.9965 640.887 89.9965C638.205 89.9965 636.279 92.1205 636.279 94.9645ZM638.889 93.9385C638.997 92.8585 639.753 92.0305 640.923 92.0305C642.057 92.0305 642.885 92.7865 642.939 93.9385H638.889ZM651.302 99.6445H653.786V90.2305H651.302V99.6445ZM651.086 87.9625C651.086 88.7725 651.716 89.3845 652.526 89.3845C653.354 89.3845 653.984 88.7725 653.984 87.9625C653.984 87.1525 653.354 86.5405 652.526 86.5405C651.716 86.5405 651.086 87.1525 651.086 87.9625ZM660.699 89.9965C659.475 89.9965 658.575 90.6805 658.179 91.3285V90.2305H655.749V99.6445H658.233V93.9925C658.233 92.9845 658.881 92.2285 659.907 92.2285C660.753 92.2285 661.473 92.8765 661.473 93.9205V99.6445H663.957V94.2085C663.957 92.2105 663.381 89.9965 660.699 89.9965ZM668.702 99.8785C670.736 99.8785 672.32 98.7265 672.32 96.8905C672.32 93.5245 667.856 94.2445 667.856 92.7505C667.856 92.2825 668.252 91.9945 668.828 91.9945C669.71 91.9945 670.232 92.5345 670.52 92.8945L672.158 91.6705C671.708 90.9325 670.718 89.9965 668.936 89.9965C667.01 89.9965 665.516 91.0405 665.516 92.7865C665.516 96.1345 669.962 95.5765 669.962 97.0165C669.962 97.5565 669.512 97.8625 668.81 97.8625C667.748 97.8625 667.118 97.3765 666.65 96.8365L665.192 98.1325C665.696 98.9425 666.848 99.8785 668.702 99.8785ZM673.878 90.2305H672.87V92.2465H673.86V95.9545C673.86 98.5105 674.85 99.7705 677.1 99.7705C677.784 99.7705 678.162 99.6805 678.162 99.6805V97.5565C677.964 97.5745 677.874 97.5745 677.712 97.5745C676.758 97.5745 676.326 97.2865 676.326 95.8825V92.2465H678.09V90.2305H676.326V88.2505H673.878V90.2305ZM684.66 89.9965C683.418 89.9965 682.482 90.6625 682.068 91.5985V90.2305H679.638V99.6445H682.122V95.5405C682.122 93.6685 682.806 92.5165 684.66 92.5165V89.9965ZM689.31 99.8785C690.534 99.8785 691.434 99.1945 691.83 98.5465V99.6445H694.26V90.2305H691.776V95.8825C691.776 96.8905 691.128 97.6465 690.102 97.6465C689.256 97.6465 688.536 96.9985 688.536 95.9545V90.2305H686.052V95.6665C686.052 97.6645 686.628 99.8785 689.31 99.8785ZM700.77 97.6825C699.204 97.6825 698.088 96.5485 698.088 94.9465C698.088 93.4345 699.078 92.1925 700.68 92.1925C701.742 92.1925 702.462 92.7145 702.876 93.0925L703.578 91.0045C702.966 90.5365 701.994 89.9965 700.608 89.9965C697.746 89.9965 695.604 92.1025 695.604 94.9645C695.604 97.8265 697.692 99.8785 700.626 99.8785C701.994 99.8785 703.02 99.3025 703.56 98.8705L702.894 96.8365C702.48 97.1785 701.724 97.6825 700.77 97.6825ZM705.185 90.2305H704.177V92.2465H705.167V95.9545C705.167 98.5105 706.157 99.7705 708.407 99.7705C709.091 99.7705 709.469 99.6805 709.469 99.6805V97.5565C709.271 97.5745 709.181 97.5745 709.019 97.5745C708.065 97.5745 707.633 97.2865 707.633 95.8825V92.2465H709.397V90.2305H707.633V88.2505H705.185V90.2305ZM710.945 99.6445H713.429V90.2305H710.945V99.6445ZM710.729 87.9625C710.729 88.7725 711.359 89.3845 712.169 89.3845C712.997 89.3845 713.627 88.7725 713.627 87.9625C713.627 87.1525 712.997 86.5405 712.169 86.5405C711.359 86.5405 710.729 87.1525 710.729 87.9625ZM714.888 94.9645C714.888 97.7905 716.814 99.8785 719.838 99.8785C722.178 99.8785 723.438 98.4745 723.798 97.8085L722.16 96.5665C721.89 96.9625 721.152 97.7185 719.874 97.7185C718.488 97.7185 717.48 96.8185 717.426 95.5585H724.05C724.068 95.3785 724.068 95.1985 724.068 95.0185C724.068 91.9405 722.412 89.9965 719.496 89.9965C716.814 89.9965 714.888 92.1205 714.888 94.9645ZM717.498 93.9385C717.606 92.8585 718.362 92.0305 719.532 92.0305C720.666 92.0305 721.494 92.7865 721.548 93.9385H717.498ZM728.327 99.8785C730.361 99.8785 731.945 98.7265 731.945 96.8905C731.945 93.5245 727.481 94.2445 727.481 92.7505C727.481 92.2825 727.877 91.9945 728.453 91.9945C729.335 91.9945 729.857 92.5345 730.145 92.8945L731.783 91.6705C731.333 90.9325 730.343 89.9965 728.561 89.9965C726.635 89.9965 725.141 91.0405 725.141 92.7865C725.141 96.1345 729.587 95.5765 729.587 97.0165C729.587 97.5565 729.137 97.8625 728.435 97.8625C727.373 97.8625 726.743 97.3765 726.275 96.8365L724.817 98.1325C725.321 98.9425 726.473 99.8785 728.327 99.8785ZM737.968 90.2305H736.96V92.2465H737.95V95.9545C737.95 98.5105 738.94 99.7705 741.19 99.7705C741.874 99.7705 742.252 99.6805 742.252 99.6805V97.5565C742.054 97.5745 741.964 97.5745 741.802 97.5745C740.848 97.5745 740.416 97.2865 740.416 95.8825V92.2465H742.18V90.2305H740.416V88.2505H737.968V90.2305ZM743.224 94.9645C743.224 97.7905 745.15 99.8785 748.174 99.8785C750.514 99.8785 751.774 98.4745 752.134 97.8085L750.496 96.5665C750.226 96.9625 749.488 97.7185 748.21 97.7185C746.824 97.7185 745.816 96.8185 745.762 95.5585H752.386C752.404 95.3785 752.404 95.1985 752.404 95.0185C752.404 91.9405 750.748 89.9965 747.832 89.9965C745.15 89.9965 743.224 92.1205 743.224 94.9645ZM745.834 93.9385C745.942 92.8585 746.698 92.0305 747.868 92.0305C749.002 92.0305 749.83 92.7865 749.884 93.9385H745.834ZM630.966 117.645L634.332 108.231H631.686L629.526 114.999L627.366 108.231H624.72L628.086 117.645H630.966ZM634.872 112.965C634.872 115.791 636.798 117.879 639.822 117.879C642.162 117.879 643.422 116.475 643.782 115.809L642.144 114.567C641.874 114.963 641.136 115.719 639.858 115.719C638.472 115.719 637.464 114.819 637.41 113.559H644.034C644.052 113.379 644.052 113.199 644.052 113.019C644.052 109.941 642.396 107.997 639.48 107.997C636.798 107.997 634.872 110.121 634.872 112.965ZM637.482 111.939C637.59 110.859 638.346 110.031 639.516 110.031C640.65 110.031 641.478 110.787 641.532 111.939H637.482ZM650.453 107.997C649.211 107.997 648.275 108.663 647.861 109.599V108.231H645.431V117.645H647.915V113.541C647.915 111.669 648.599 110.517 650.453 110.517V107.997ZM660.67 117.645H663.442L666.268 108.231H663.568L661.894 114.909L660.112 108.231H657.772L655.972 114.909L654.316 108.231H651.616L654.424 117.645H657.196L658.942 111.615L660.67 117.645ZM667.368 117.645H669.852V108.231H667.368V117.645ZM667.152 105.963C667.152 106.773 667.782 107.385 668.592 107.385C669.42 107.385 670.05 106.773 670.05 105.963C670.05 105.153 669.42 104.541 668.592 104.541C667.782 104.541 667.152 105.153 667.152 105.963ZM671.816 117.663C671.816 118.509 671.42 118.977 670.52 118.977C670.34 118.977 670.088 118.941 670.088 118.941V121.047C670.088 121.047 670.412 121.083 670.7 121.083C672.734 121.083 674.3 120.255 674.3 117.771V108.231H671.816V117.663ZM671.6 105.963C671.6 106.773 672.23 107.385 673.04 107.385C673.868 107.385 674.498 106.773 674.498 105.963C674.498 105.153 673.868 104.541 673.04 104.541C672.23 104.541 671.6 105.153 671.6 105.963ZM685.479 104.631H682.995V109.221C682.761 108.897 681.825 107.997 680.205 107.997C677.505 107.997 675.741 110.031 675.741 112.947C675.741 115.845 677.649 117.879 680.349 117.879C681.951 117.879 682.887 116.979 683.139 116.673V117.645H685.479V104.631ZM683.067 112.965C683.067 114.459 682.167 115.683 680.655 115.683C679.251 115.683 678.243 114.639 678.243 112.965C678.243 111.327 679.215 110.193 680.655 110.193C682.023 110.193 683.067 111.201 683.067 112.965ZM686.921 112.965C686.921 115.791 688.847 117.879 691.871 117.879C694.211 117.879 695.471 116.475 695.831 115.809L694.193 114.567C693.923 114.963 693.185 115.719 691.907 115.719C690.521 115.719 689.513 114.819 689.459 113.559H696.083C696.101 113.379 696.101 113.199 696.101 113.019C696.101 109.941 694.445 107.997 691.529 107.997C688.847 107.997 686.921 110.121 686.921 112.965ZM689.531 111.939C689.639 110.859 690.395 110.031 691.565 110.031C692.699 110.031 693.527 110.787 693.581 111.939H689.531ZM702.502 107.997C701.26 107.997 700.324 108.663 699.91 109.599V108.231H697.48V117.645H699.964V113.541C699.964 111.669 700.648 110.517 702.502 110.517V107.997ZM703.111 112.965C703.111 115.791 705.037 117.879 708.061 117.879C710.401 117.879 711.661 116.475 712.021 115.809L710.383 114.567C710.113 114.963 709.375 115.719 708.097 115.719C706.711 115.719 705.703 114.819 705.649 113.559H712.273C712.291 113.379 712.291 113.199 712.291 113.019C712.291 109.941 710.635 107.997 707.719 107.997C705.037 107.997 703.111 110.121 703.111 112.965ZM705.721 111.939C705.829 110.859 706.585 110.031 707.755 110.031C708.889 110.031 709.717 110.787 709.771 111.939H705.721ZM718.619 107.997C717.395 107.997 716.495 108.681 716.099 109.329V108.231H713.669V117.645H716.153V111.993C716.153 110.985 716.801 110.229 717.827 110.229C718.673 110.229 719.393 110.877 719.393 111.921V117.645H721.877V112.209C721.877 110.211 721.301 107.997 718.619 107.997Z" fill="black"/>
<rect x="761.648" y="13.6445" width="95" height="105" stroke="black" stroke-width="2"/>
<path d="M724.757 23.097C725.007 23.5895 725.609 23.786 726.101 23.536L734.126 19.4618C734.619 19.2118 734.815 18.6099 734.565 18.1174C734.315 17.625 733.713 17.4284 733.221 17.6785L726.087 21.3L722.466 14.1667C722.216 13.6742 721.614 13.4777 721.122 13.7277C720.629 13.9777 720.433 14.5796 720.683 15.072L724.757 23.097ZM762.574 22.2665C760.887 18.1322 758.57 13.5705 755.829 9.66664C753.106 5.78698 749.884 2.44164 746.348 0.902444C744.56 0.124279 742.674 -0.199458 740.741 0.124934C738.809 0.449162 736.907 1.40773 735.066 3.06719C731.415 6.3583 727.915 12.4824 724.698 22.3339L726.599 22.9547C729.782 13.2063 733.148 7.48873 736.405 4.55275C738.019 3.09867 739.582 2.34735 741.072 2.09736C742.561 1.84753 744.054 2.08525 745.549 2.73625C748.58 4.05539 751.541 7.03922 754.192 10.8158C756.827 14.5682 759.077 18.9898 760.723 23.0222L762.574 22.2665Z" fill="black"/>
</svg>
