<svg width="275" height="119" viewBox="0 0 275 119" fill="none" xmlns="http://www.w3.org/2000/svg">
<g filter="url(#filter0_d)">
<rect x="22" y="29" width="249" height="82" fill="#539882"/>
</g>
<path d="M38.66 42H35.24V56H38.66V50.36L42.74 56H46.66L41.32 48.7L46.56 42H42.74L38.66 47.4V42ZM47.753 56H51.093V41.54H47.753V56ZM56.3469 45.5H53.0069V56H56.3469V45.5ZM54.6469 44.86C55.7069 44.86 56.5269 44.1 56.5269 43.06C56.5269 42 55.7069 41.24 54.6469 41.24C53.5869 41.24 52.7869 42 52.7869 43.06C52.7869 44.1 53.5869 44.86 54.6469 44.86ZM68.1808 45.5H64.4408L61.6008 49.72V41.54H58.2608V56H61.6008V51.1L64.5408 56H68.4608L64.8008 50.3L68.1808 45.5ZM72.8184 50.78C72.8184 53.94 75.1784 56.26 78.5184 56.26C81.8384 56.26 84.2784 53.9 84.2784 50.74C84.2784 47.56 81.8984 45.24 78.5184 45.24C75.2784 45.24 72.8184 47.6 72.8184 50.78ZM76.1584 50.78C76.1584 49.24 77.1384 48.18 78.5184 48.18C79.8784 48.18 80.9384 49.2 80.9384 50.74C80.9384 52.24 79.8984 53.32 78.5184 53.32C77.1584 53.32 76.1584 52.3 76.1584 50.78ZM88.9031 50.72C88.9031 49.32 89.7231 48.16 91.1631 48.16C92.5031 48.16 93.4231 49.16 93.4231 50.72C93.4231 52.26 92.5231 53.32 91.1631 53.32C89.8431 53.32 88.9031 52.38 88.9031 50.72ZM88.7831 45.5H85.6631V59.74H89.0031V55.2C89.2231 55.46 90.2031 56.26 91.8031 56.26C94.8431 56.26 96.7631 54 96.7631 50.74C96.7631 47.52 94.6431 45.24 91.6231 45.24C90.0831 45.24 89.0831 45.98 88.7831 46.32V45.5ZM108.289 56H111.629V50.18C111.629 48.04 111.309 45.24 108.029 45.24C106.709 45.24 105.829 45.96 105.429 46.58V41.54H102.089V56H105.429V49.74C105.429 48.9 105.989 48.24 106.909 48.24C107.709 48.24 108.289 48.76 108.289 49.74V56ZM123.256 51.62C123.276 51.38 123.276 51.16 123.276 50.96C123.276 47.38 121.456 45.24 118.116 45.24C115.036 45.24 112.956 47.7 112.956 50.78C112.956 53.88 115.076 56.26 118.536 56.26C121.256 56.26 122.696 54.56 122.996 53.94L120.796 52.24C120.596 52.54 119.856 53.36 118.596 53.36C117.356 53.36 116.456 52.56 116.376 51.62H123.256ZM118.176 47.94C119.216 47.94 119.836 48.66 119.876 49.5H116.476C116.556 48.76 117.076 47.94 118.176 47.94ZM128.228 43.28H124.888V45.5H123.868V48.2H124.888V51.9C124.888 55.02 126.328 56.16 128.808 56.16C129.648 56.16 130.088 56.04 130.088 56.04V53.18C129.868 53.2 129.708 53.2 129.528 53.2C128.848 53.2 128.228 52.98 128.228 52.06V48.2H130.008V45.5H128.228V43.28ZM141.605 45.24C140.305 45.24 139.325 45.88 138.825 46.9V45.5H135.565V56H138.905V51.36C138.905 49.78 139.445 48.6 141.065 48.6C141.305 48.6 141.465 48.62 141.605 48.64V45.24ZM146.208 45.5H142.868V51.32C142.868 53.46 143.188 56.26 146.468 56.26C147.788 56.26 148.708 55.54 149.108 54.92V56H152.368V45.5H149.028V51.76C149.028 52.6 148.508 53.26 147.588 53.26C146.788 53.26 146.208 52.74 146.208 51.76V45.5ZM161.438 55.46C161.438 56.74 160.198 57.02 158.958 57.02C157.538 57.02 156.358 56.52 156.058 56.38L155.078 58.94C156.018 59.42 157.478 59.84 158.958 59.84C162.078 59.84 164.778 58.62 164.778 54.74V45.5H161.658V46.32C161.358 45.98 160.358 45.24 158.818 45.24C155.798 45.24 153.678 47.52 153.678 50.74C153.678 54 155.598 56.26 158.638 56.26C160.238 56.26 161.218 55.46 161.438 55.2V55.46ZM161.538 50.72C161.538 52.38 160.598 53.32 159.278 53.32C157.918 53.32 157.018 52.26 157.018 50.72C157.018 49.16 157.918 48.18 159.258 48.18C160.698 48.18 161.538 49.32 161.538 50.72ZM174.48 47.52V45.5H166.3V48.28H170.28L166.2 54V56H174.52V53.22H170.38L174.48 47.52ZM175.474 52.74C175.474 55.02 177.314 56.26 179.374 56.26C180.454 56.26 181.214 55.96 181.754 55.42L181.934 56H184.914V49.5C184.914 47.1 183.994 45.24 180.374 45.24C178.634 45.24 177.214 45.8 176.094 46.54L177.334 48.78C178.154 48.38 179.054 48.12 179.974 48.12C181.054 48.12 181.574 48.62 181.574 49.26V49.64C181.194 49.48 180.474 49.26 179.554 49.26C177.074 49.26 175.474 50.64 175.474 52.74ZM178.814 52.62C178.814 51.94 179.414 51.5 180.214 51.5C181.014 51.5 181.634 51.9 181.634 52.62C181.634 53.32 181.034 53.7 180.234 53.7C179.454 53.7 178.814 53.32 178.814 52.62ZM196.638 45.5H192.898L190.058 49.72V41.54H186.718V56H190.058V51.1L192.998 56H196.918L193.258 50.3L196.638 45.5ZM201.23 45.5H197.89V55.88C197.89 56.54 197.55 57 196.57 57C196.35 57 196.09 56.96 196.09 56.96V59.78C196.09 59.78 196.47 59.84 196.83 59.84C199.35 59.84 201.23 58.86 201.23 56.04V45.5ZM199.53 44.86C200.59 44.86 201.41 44.1 201.41 43.06C201.41 42 200.59 41.24 199.53 41.24C198.47 41.24 197.67 42 197.67 43.06C197.67 44.1 198.47 44.86 199.53 44.86ZM212.924 51.62C212.944 51.38 212.944 51.16 212.944 50.96C212.944 47.38 211.124 45.24 207.784 45.24C204.704 45.24 202.624 47.7 202.624 50.78C202.624 53.88 204.744 56.26 208.204 56.26C210.924 56.26 212.364 54.56 212.664 53.94L210.464 52.24C210.264 52.54 209.524 53.36 208.264 53.36C207.024 53.36 206.124 52.56 206.044 51.62H212.924ZM207.844 47.94C208.884 47.94 209.504 48.66 209.544 49.5H206.144C206.224 48.76 206.744 47.94 207.844 47.94ZM217.662 50.78C217.662 53.94 220.022 56.26 223.362 56.26C226.682 56.26 229.122 53.9 229.122 50.74C229.122 47.56 226.742 45.24 223.362 45.24C220.122 45.24 217.662 47.6 217.662 50.78ZM221.002 50.78C221.002 49.24 221.982 48.18 223.362 48.18C224.722 48.18 225.782 49.2 225.782 50.74C225.782 52.24 224.742 53.32 223.362 53.32C222.002 53.32 221.002 52.3 221.002 50.78ZM239.727 49.74C239.727 48.84 240.227 48.24 241.007 48.24C241.807 48.24 242.287 48.8 242.287 49.74V56H245.627V49.02C245.627 46.8 244.487 45.24 242.067 45.24C240.707 45.24 239.727 45.8 239.087 46.62C238.527 45.76 237.607 45.24 236.367 45.24C234.967 45.24 234.127 45.94 233.767 46.58V45.5H230.507V56H233.847V49.74C233.847 48.78 234.347 48.24 235.127 48.24C235.927 48.24 236.387 48.8 236.387 49.74V56H239.727V49.74ZM38.58 63.28H35.24V65.5H34.22V68.2H35.24V71.9C35.24 75.02 36.68 76.16 39.16 76.16C40 76.16 40.44 76.04 40.44 76.04V73.18C40.22 73.2 40.06 73.2 39.88 73.2C39.2 73.2 38.58 72.98 38.58 72.06V68.2H40.36V65.5H38.58V63.28ZM51.7713 71.62C51.7913 71.38 51.7913 71.16 51.7913 70.96C51.7913 67.38 49.9713 65.24 46.6313 65.24C43.5513 65.24 41.4713 67.7 41.4713 70.78C41.4713 73.88 43.5913 76.26 47.0513 76.26C49.7713 76.26 51.2113 74.56 51.5113 73.94L49.3113 72.24C49.1113 72.54 48.3713 73.36 47.1113 73.36C45.8713 73.36 44.9713 72.56 44.8913 71.62H51.7713ZM46.6913 67.94C47.7313 67.94 48.3513 68.66 48.3913 69.5H44.9913C45.0713 68.76 45.5913 67.94 46.6913 67.94ZM64.9098 67.52V65.5H56.7298V68.28H60.7098L56.6298 74V76H64.9498V73.22H60.8098L64.9098 67.52ZM69.8039 65.5H66.4639V76H69.8039V65.5ZM68.1039 64.86C69.1639 64.86 69.9839 64.1 69.9839 63.06C69.9839 62 69.1639 61.24 68.1039 61.24C67.0439 61.24 66.2439 62 66.2439 63.06C66.2439 64.1 67.0439 64.86 68.1039 64.86ZM81.4978 71.62C81.5178 71.38 81.5178 71.16 81.5178 70.96C81.5178 67.38 79.6978 65.24 76.3578 65.24C73.2778 65.24 71.1978 67.7 71.1978 70.78C71.1978 73.88 73.3178 76.26 76.7778 76.26C79.4978 76.26 80.9378 74.56 81.2378 73.94L79.0378 72.24C78.8378 72.54 78.0978 73.36 76.8378 73.36C75.5978 73.36 74.6978 72.56 74.6178 71.62H81.4978ZM76.4178 67.94C77.4578 67.94 78.0778 68.66 78.1178 69.5H74.7178C74.7978 68.76 75.3178 67.94 76.4178 67.94ZM89.0106 76H92.3506V70.18C92.3506 68.04 92.0306 65.24 88.7506 65.24C87.4306 65.24 86.5106 65.96 86.1106 66.58V65.5H82.8506V76H86.1906V69.74C86.1906 68.9 86.7106 68.24 87.6306 68.24C88.4306 68.24 89.0106 68.76 89.0106 69.74V76ZM107.004 76H110.764L113.704 65.5H110.064L108.644 72.36L107.064 65.5H103.944L102.364 72.36L100.944 65.5H97.3041L100.244 76H104.004L105.504 70.06L107.004 76ZM124.584 71.62C124.604 71.38 124.604 71.16 124.604 70.96C124.604 67.38 122.784 65.24 119.444 65.24C116.364 65.24 114.284 67.7 114.284 70.78C114.284 73.88 116.404 76.26 119.864 76.26C122.584 76.26 124.024 74.56 124.324 73.94L122.124 72.24C121.924 72.54 121.184 73.36 119.924 73.36C118.684 73.36 117.784 72.56 117.704 71.62H124.584ZM119.504 67.94C120.544 67.94 121.164 68.66 121.204 69.5H117.804C117.884 68.76 118.404 67.94 119.504 67.94ZM125.937 76H129.277V61.54H125.937V76ZM141.11 65.5H137.37L134.53 69.72V61.54H131.19V76H134.53V71.1L137.47 76H141.39L137.73 70.3L141.11 65.5ZM152.142 71.62C152.162 71.38 152.162 71.16 152.162 70.96C152.162 67.38 150.342 65.24 147.002 65.24C143.922 65.24 141.842 67.7 141.842 70.78C141.842 73.88 143.962 76.26 147.422 76.26C150.142 76.26 151.582 74.56 151.882 73.94L149.682 72.24C149.482 72.54 148.742 73.36 147.482 73.36C146.242 73.36 145.342 72.56 145.262 71.62H152.142ZM147.062 67.94C148.102 67.94 148.722 68.66 148.762 69.5H145.362C145.442 68.76 145.962 67.94 147.062 67.94ZM160.781 76.26C163.181 76.26 165.061 74.94 165.061 72.8C165.061 69 160.221 69.76 160.221 68.44C160.221 68.12 160.501 67.92 160.981 67.92C161.801 67.92 162.401 68.42 162.721 68.74L164.881 67.04C164.261 66.2 163.121 65.24 161.121 65.24C158.841 65.24 157.081 66.46 157.081 68.48C157.081 72.3 161.881 71.78 161.881 72.98C161.881 73.36 161.581 73.56 160.941 73.56C159.881 73.56 159.181 73.14 158.621 72.64L156.741 74.46C157.361 75.3 158.781 76.26 160.781 76.26ZM165.768 70.78C165.768 73.94 168.128 76.26 171.468 76.26C174.788 76.26 177.228 73.9 177.228 70.74C177.228 67.56 174.848 65.24 171.468 65.24C168.228 65.24 165.768 67.6 165.768 70.78ZM169.108 70.78C169.108 69.24 170.088 68.18 171.468 68.18C172.828 68.18 173.888 69.2 173.888 70.74C173.888 72.24 172.848 73.32 171.468 73.32C170.108 73.32 169.108 72.3 169.108 70.78ZM181.872 65.5H178.532V71.32C178.532 73.46 178.852 76.26 182.132 76.26C183.452 76.26 184.372 75.54 184.772 74.92V76H188.032V65.5H184.692V71.76C184.692 72.6 184.172 73.26 183.252 73.26C182.452 73.26 181.872 72.74 181.872 71.76V65.5ZM192.562 65.5H188.982L192.582 76H196.462L200.002 65.5H196.522L194.542 72.46L192.562 65.5ZM210.814 71.62C210.834 71.38 210.834 71.16 210.834 70.96C210.834 67.38 209.014 65.24 205.674 65.24C202.594 65.24 200.514 67.7 200.514 70.78C200.514 73.88 202.634 76.26 206.094 76.26C208.814 76.26 210.254 74.56 210.554 73.94L208.354 72.24C208.154 72.54 207.414 73.36 206.154 73.36C204.914 73.36 204.014 72.56 203.934 71.62H210.814ZM205.734 67.94C206.774 67.94 207.394 68.66 207.434 69.5H204.034C204.114 68.76 204.634 67.94 205.734 67.94ZM218.327 76H221.667V70.18C221.667 68.04 221.347 65.24 218.067 65.24C216.747 65.24 215.827 65.96 215.427 66.58V65.5H212.167V76H215.507V69.74C215.507 68.9 216.027 68.24 216.947 68.24C217.747 68.24 218.327 68.76 218.327 69.74V76ZM226.855 65.5H223.515V76H226.855V65.5ZM225.155 64.86C226.215 64.86 227.035 64.1 227.035 63.06C227.035 62 226.215 61.24 225.155 61.24C224.095 61.24 223.295 62 223.295 63.06C223.295 64.1 224.095 64.86 225.155 64.86ZM234.809 65.24C233.509 65.24 232.529 65.88 232.029 66.9V65.5H228.769V76H232.109V71.36C232.109 69.78 232.649 68.6 234.269 68.6C234.509 68.6 234.669 68.62 234.809 68.64V65.24ZM239.511 76.26C241.911 76.26 243.791 74.94 243.791 72.8C243.791 69 238.951 69.76 238.951 68.44C238.951 68.12 239.231 67.92 239.711 67.92C240.531 67.92 241.131 68.42 241.451 68.74L243.611 67.04C242.991 66.2 241.851 65.24 239.851 65.24C237.571 65.24 235.811 66.46 235.811 68.48C235.811 72.3 240.611 71.78 240.611 72.98C240.611 73.36 240.311 73.56 239.671 73.56C238.611 73.56 237.911 73.14 237.351 72.64L235.471 74.46C236.091 75.3 237.511 76.26 239.511 76.26ZM38.3 85.5H34.96V95.88C34.96 96.54 34.62 97 33.64 97C33.42 97 33.16 96.96 33.16 96.96V99.78C33.16 99.78 33.54 99.84 33.9 99.84C36.42 99.84 38.3 98.86 38.3 96.04V85.5ZM36.6 84.86C37.66 84.86 38.48 84.1 38.48 83.06C38.48 82 37.66 81.24 36.6 81.24C35.54 81.24 34.74 82 34.74 83.06C34.74 84.1 35.54 84.86 36.6 84.86ZM49.9939 91.62C50.0139 91.38 50.0139 91.16 50.0139 90.96C50.0139 87.38 48.1939 85.24 44.8539 85.24C41.7739 85.24 39.6939 87.7 39.6939 90.78C39.6939 93.88 41.8139 96.26 45.2739 96.26C47.9939 96.26 49.4339 94.56 49.7339 93.94L47.5339 92.24C47.3339 92.54 46.5939 93.36 45.3339 93.36C44.0939 93.36 43.1939 92.56 43.1139 91.62H49.9939ZM44.9139 87.94C45.9539 87.94 46.5739 88.66 46.6139 89.5H43.2139C43.2939 88.76 43.8139 87.94 44.9139 87.94ZM54.7125 92.74C54.7125 95.02 56.5525 96.26 58.6125 96.26C59.6925 96.26 60.4525 95.96 60.9925 95.42L61.1725 96H64.1525V89.5C64.1525 87.1 63.2325 85.24 59.6125 85.24C57.8725 85.24 56.4525 85.8 55.3325 86.54L56.5725 88.78C57.3925 88.38 58.2925 88.12 59.2125 88.12C60.2925 88.12 60.8125 88.62 60.8125 89.26V89.64C60.4325 89.48 59.7125 89.26 58.7925 89.26C56.3125 89.26 54.7125 90.64 54.7125 92.74ZM58.0525 92.62C58.0525 91.94 58.6525 91.5 59.4525 91.5C60.2525 91.5 60.8725 91.9 60.8725 92.62C60.8725 93.32 60.2725 93.7 59.4725 93.7C58.6925 93.7 58.0525 93.32 58.0525 92.62ZM65.9561 96H69.2961V81.54H65.9561V96ZM81.3358 96H84.6758V90.18C84.6758 88.04 84.3558 85.24 81.0758 85.24C79.7558 85.24 78.8758 85.96 78.4758 86.58V81.54H75.1358V96H78.4758V89.74C78.4758 88.9 79.0358 88.24 79.9558 88.24C80.7558 88.24 81.3358 88.76 81.3358 89.74V96ZM96.3025 91.62C96.3225 91.38 96.3225 91.16 96.3225 90.96C96.3225 87.38 94.5025 85.24 91.1625 85.24C88.0825 85.24 86.0025 87.7 86.0025 90.78C86.0025 93.88 88.1225 96.26 91.5825 96.26C94.3025 96.26 95.7425 94.56 96.0425 93.94L93.8425 92.24C93.6425 92.54 92.9025 93.36 91.6425 93.36C90.4025 93.36 89.5025 92.56 89.4225 91.62H96.3025ZM91.2225 87.94C92.2625 87.94 92.8825 88.66 92.9225 89.5H89.5225C89.6025 88.76 90.1225 87.94 91.2225 87.94ZM100.895 90.78C100.895 89.12 101.835 88.18 103.155 88.18C104.515 88.18 105.415 89.24 105.415 90.78C105.415 92.34 104.495 93.34 103.155 93.34C101.715 93.34 100.895 92.18 100.895 90.78ZM100.775 95.18C101.075 95.52 102.075 96.26 103.615 96.26C106.635 96.26 108.755 93.98 108.755 90.76C108.755 87.5 106.835 85.24 103.795 85.24C102.195 85.24 101.215 86.04 100.995 86.3V81.54H97.6553V96H100.775V95.18ZM113.775 83.28H110.435V85.5H109.415V88.2H110.435V91.9C110.435 95.02 111.875 96.16 114.355 96.16C115.195 96.16 115.635 96.04 115.635 96.04V93.18C115.415 93.2 115.255 93.2 115.075 93.2C114.395 93.2 113.775 92.98 113.775 92.06V88.2H115.555V85.5H113.775V83.28ZM123.792 85.5H120.212L123.812 96H127.692L131.232 85.5H127.752L125.772 92.46L123.792 85.5ZM142.045 91.62C142.065 91.38 142.065 91.16 142.065 90.96C142.065 87.38 140.245 85.24 136.905 85.24C133.825 85.24 131.745 87.7 131.745 90.78C131.745 93.88 133.865 96.26 137.325 96.26C140.045 96.26 141.485 94.56 141.785 93.94L139.585 92.24C139.385 92.54 138.645 93.36 137.385 93.36C136.145 93.36 135.245 92.56 135.165 91.62H142.045ZM136.965 87.94C138.005 87.94 138.625 88.66 138.665 89.5H135.265C135.345 88.76 135.865 87.94 136.965 87.94ZM149.438 85.24C148.138 85.24 147.158 85.88 146.658 86.9V85.5H143.398V96H146.738V91.36C146.738 89.78 147.278 88.6 148.898 88.6C149.138 88.6 149.298 88.62 149.438 88.64V85.24ZM158.836 87.52V85.5H150.656V88.28H154.636L150.556 94V96H158.876V93.22H154.736L158.836 87.52ZM159.83 92.74C159.83 95.02 161.67 96.26 163.73 96.26C164.81 96.26 165.57 95.96 166.11 95.42L166.29 96H169.27V89.5C169.27 87.1 168.35 85.24 164.73 85.24C162.99 85.24 161.57 85.8 160.45 86.54L161.69 88.78C162.51 88.38 163.41 88.12 164.33 88.12C165.41 88.12 165.93 88.62 165.93 89.26V89.64C165.55 89.48 164.83 89.26 163.91 89.26C161.43 89.26 159.83 90.64 159.83 92.74ZM163.17 92.62C163.17 91.94 163.77 91.5 164.57 91.5C165.37 91.5 165.99 91.9 165.99 92.62C165.99 93.32 165.39 93.7 164.59 93.7C163.81 93.7 163.17 93.32 163.17 92.62ZM180.293 89.74C180.293 88.84 180.793 88.24 181.573 88.24C182.373 88.24 182.853 88.8 182.853 89.74V96H186.193V89.02C186.193 86.8 185.053 85.24 182.633 85.24C181.273 85.24 180.293 85.8 179.653 86.62C179.093 85.76 178.173 85.24 176.933 85.24C175.533 85.24 174.693 85.94 174.333 86.58V85.5H171.073V96H174.413V89.74C174.413 88.78 174.913 88.24 175.693 88.24C176.493 88.24 176.953 88.8 176.953 89.74V96H180.293V89.74ZM197.806 91.62C197.826 91.38 197.826 91.16 197.826 90.96C197.826 87.38 196.006 85.24 192.666 85.24C189.586 85.24 187.506 87.7 187.506 90.78C187.506 93.88 189.626 96.26 193.086 96.26C195.806 96.26 197.246 94.56 197.546 93.94L195.346 92.24C195.146 92.54 194.406 93.36 193.146 93.36C191.906 93.36 191.006 92.56 190.926 91.62H197.806ZM192.726 87.94C193.766 87.94 194.386 88.66 194.426 89.5H191.026C191.106 88.76 191.626 87.94 192.726 87.94ZM199.159 96H202.499V81.54H199.159V96ZM211.753 90.78C211.753 92.18 210.933 93.34 209.493 93.34C208.153 93.34 207.233 92.34 207.233 90.78C207.233 89.24 208.133 88.18 209.493 88.18C210.813 88.18 211.753 89.12 211.753 90.78ZM211.873 96H214.993V81.54H211.653V86.3C211.433 86.04 210.453 85.24 208.853 85.24C205.813 85.24 203.893 87.5 203.893 90.76C203.893 93.98 206.013 96.26 209.033 96.26C210.573 96.26 211.573 95.52 211.873 95.18V96ZM218.553 96.26C219.653 96.26 220.553 95.36 220.553 94.28C220.553 93.18 219.653 92.28 218.553 92.28C217.453 92.28 216.573 93.18 216.573 94.28C216.573 95.36 217.453 96.26 218.553 96.26Z" fill="#FFF6F0"/>
<circle cx="22" cy="22" r="22" fill="black"/>
<path d="M20.208 26C20.208 26.2984 20.3441 26.5845 20.5863 26.7955C20.8286 27.0065 21.1571 27.125 21.4997 27.125C21.8422 27.125 22.1708 27.0065 22.413 26.7955C22.6553 26.5845 22.7913 26.2984 22.7913 26H26.6663C27.608 26 28.4902 25.7806 29.2497 25.3981V30.5C29.2497 31.0967 28.9775 31.669 28.493 32.091C28.0086 32.5129 27.3515 32.75 26.6663 32.75H16.333C15.6479 32.75 14.9908 32.5129 14.5063 32.091C14.0218 31.669 13.7497 31.0967 13.7497 30.5V25.3981C14.5092 25.7806 15.3914 26 16.333 26H20.208ZM22.7913 24.875V21.5C22.7913 21.2016 22.6553 20.9155 22.413 20.7045C22.1708 20.4935 21.8422 20.375 21.4997 20.375C21.1571 20.375 20.8286 20.4935 20.5863 20.7045C20.3441 20.9155 20.208 21.2016 20.208 21.5V24.875H16.333C15.3053 24.875 14.3197 24.5194 13.593 23.8865C12.8663 23.2536 12.458 22.3951 12.458 21.5V18.125C12.458 17.2299 12.8663 16.3714 13.593 15.7385C14.3197 15.1056 15.3053 14.75 16.333 14.75H26.6663C27.6941 14.75 28.6797 15.1056 29.4064 15.7385C30.1331 16.3714 30.5413 17.2299 30.5413 18.125V21.5C30.5413 22.3951 30.1331 23.2536 29.4064 23.8865C28.6797 24.5194 27.6941 24.875 26.6663 24.875H22.7913ZM18.9163 13.625H16.333C15.8874 13.625 15.4547 13.6745 15.0413 13.7667V11.9375C15.0413 11.4899 15.2455 11.0607 15.6088 10.7443C15.9722 10.4278 16.465 10.25 16.9788 10.25C17.4927 10.25 17.9855 10.4278 18.3489 10.7443C18.7122 11.0607 18.9163 11.4899 18.9163 11.9375V13.625ZM27.958 13.7667C27.536 13.6723 27.102 13.6247 26.6663 13.625H24.083V11.9375C24.083 11.4899 24.2871 11.0607 24.6505 10.7443C25.0138 10.4278 25.5067 10.25 26.0205 10.25C26.5344 10.25 27.0272 10.4278 27.3905 10.7443C27.7539 11.0607 27.958 11.4899 27.958 11.9375V13.7667V13.7667Z" fill="white"/>
<defs>
<filter id="filter0_d" x="18" y="29" width="257" height="90" filterUnits="userSpaceOnUse" color-interpolation-filters="sRGB">
<feFlood flood-opacity="0" result="BackgroundImageFix"/>
<feColorMatrix in="SourceAlpha" type="matrix" values="0 0 0 0 0 0 0 0 0 0 0 0 0 0 0 0 0 0 127 0"/>
<feOffset dy="4"/>
<feGaussianBlur stdDeviation="2"/>
<feColorMatrix type="matrix" values="0 0 0 0 0 0 0 0 0 0 0 0 0 0 0 0 0 0 0.25 0"/>
<feBlend mode="normal" in2="BackgroundImageFix" result="effect1_dropShadow"/>
<feBlend mode="normal" in="SourceGraphic" in2="effect1_dropShadow" result="shape"/>
</filter>
</defs>
</svg>
