<svg width="379" height="122" viewBox="0 0 379 122" fill="none" xmlns="http://www.w3.org/2000/svg">
<g filter="url(#filter0_d)">
<rect x="67" y="30" width="308" height="84" fill="#539882"/>
</g>
<g filter="url(#filter1_d)">
<g clip-path="url(#clip0)">
<rect x="4" width="157" height="37" rx="18.5" fill="black"/>
<path d="M39.419 12.231C37.677 12.231 36.559 13.284 36.559 14.818C36.559 17.73 40.485 17.47 40.485 19.03C40.485 19.615 40.082 19.966 39.406 19.966C38.587 19.966 38.08 19.407 37.833 18.809L36.286 19.563C36.546 20.304 37.352 21.669 39.302 21.669C41.2 21.669 42.344 20.499 42.344 18.9C42.344 16.079 38.392 16.3 38.392 14.792C38.392 14.298 38.756 13.921 39.38 13.921C40.173 13.921 40.511 14.48 40.706 14.909L42.227 14.22C42.006 13.557 41.252 12.231 39.419 12.231ZM43.6503 14.701H42.9223V16.157H43.6373V18.835C43.6373 20.681 44.3523 21.591 45.9773 21.591C46.4713 21.591 46.7443 21.526 46.7443 21.526V19.992C46.6013 20.005 46.5363 20.005 46.4193 20.005C45.7303 20.005 45.4183 19.797 45.4183 18.783V16.157H46.6923V14.701H45.4183V13.271H43.6503V14.701ZM47.4204 19.394C47.4204 20.824 48.5904 21.669 49.9684 21.669C50.7484 21.669 51.2684 21.435 51.6194 21.058L51.7364 21.5H53.3224V17.197C53.3224 15.676 52.6724 14.532 50.4884 14.532C49.4484 14.532 48.4214 14.922 47.8104 15.338L48.4864 16.56C48.9934 16.3 49.6174 16.079 50.2934 16.079C51.0864 16.079 51.5284 16.482 51.5284 17.08V17.522C51.2814 17.353 50.7484 17.145 50.0594 17.145C48.4734 17.145 47.4204 18.055 47.4204 19.394ZM49.2144 19.342C49.2144 18.783 49.6954 18.393 50.3844 18.393C51.0734 18.393 51.5674 18.744 51.5674 19.342C51.5674 19.914 51.0734 20.278 50.3974 20.278C49.7214 20.278 49.2144 19.901 49.2144 19.342ZM61.3092 12.101H59.5152V15.416C59.3462 15.182 58.6702 14.532 57.5002 14.532C55.5502 14.532 54.2762 16.001 54.2762 18.107C54.2762 20.2 55.6542 21.669 57.6042 21.669C58.7612 21.669 59.4372 21.019 59.6192 20.798V21.5H61.3092V12.101ZM59.5672 18.12C59.5672 19.199 58.9172 20.083 57.8252 20.083C56.8112 20.083 56.0832 19.329 56.0832 18.12C56.0832 16.937 56.7852 16.118 57.8252 16.118C58.8132 16.118 59.5672 16.846 59.5672 18.12ZM65.5623 18.12C65.5623 20.174 67.0963 21.669 69.2153 21.669C71.3473 21.669 72.8813 20.174 72.8813 18.12C72.8813 16.066 71.2953 14.532 69.2153 14.532C67.1483 14.532 65.5623 16.053 65.5623 18.12ZM67.3563 18.12C67.3563 16.95 68.1363 16.118 69.2153 16.118C70.2943 16.118 71.0873 16.963 71.0873 18.12C71.0873 19.277 70.2943 20.083 69.2153 20.083C68.1493 20.083 67.3563 19.277 67.3563 18.12ZM77.487 14.532C76.603 14.532 75.953 15.026 75.667 15.494V14.701H73.912V21.5H75.706V17.418C75.706 16.69 76.174 16.144 76.915 16.144C77.526 16.144 78.046 16.612 78.046 17.366V21.5H79.84V17.574C79.84 16.131 79.424 14.532 77.487 14.532ZM81.3554 14.701H80.6274V16.157H81.3424V18.835C81.3424 20.681 82.0574 21.591 83.6824 21.591C84.1764 21.591 84.4494 21.526 84.4494 21.526V19.992C84.3064 20.005 84.2414 20.005 84.1244 20.005C83.4354 20.005 83.1234 19.797 83.1234 18.783V16.157H84.3974V14.701H83.1234V13.271H81.3554V14.701ZM92.1715 12.101H90.3775V15.416C90.2085 15.182 89.5325 14.532 88.3625 14.532C86.4125 14.532 85.1385 16.001 85.1385 18.107C85.1385 20.2 86.5165 21.669 88.4665 21.669C89.6235 21.669 90.2995 21.019 90.4815 20.798V21.5H92.1715V12.101ZM90.4295 18.12C90.4295 19.199 89.7795 20.083 88.6875 20.083C87.6735 20.083 86.9455 19.329 86.9455 18.12C86.9455 16.937 87.6475 16.118 88.6875 16.118C89.6755 16.118 90.4295 16.846 90.4295 18.12ZM93.213 18.12C93.213 20.161 94.604 21.669 96.788 21.669C98.478 21.669 99.388 20.655 99.648 20.174L98.465 19.277C98.27 19.563 97.737 20.109 96.814 20.109C95.813 20.109 95.085 19.459 95.046 18.549H99.83C99.843 18.419 99.843 18.289 99.843 18.159C99.843 15.936 98.647 14.532 96.541 14.532C94.604 14.532 93.213 16.066 93.213 18.12ZM95.098 17.379C95.176 16.599 95.722 16.001 96.567 16.001C97.386 16.001 97.984 16.547 98.023 17.379H95.098ZM100.839 21.5H102.633V17.99L104.908 21.5H107.014L104.44 17.782L106.832 14.701H104.817L102.633 17.561V12.101H100.839V21.5ZM107.758 21.5H109.552V17.99L111.827 21.5H113.933L111.359 17.782L113.751 14.701H111.736L109.552 17.561V12.101H107.758V21.5ZM114.313 18.12C114.313 20.161 115.704 21.669 117.888 21.669C119.578 21.669 120.488 20.655 120.748 20.174L119.565 19.277C119.37 19.563 118.837 20.109 117.914 20.109C116.913 20.109 116.185 19.459 116.146 18.549H120.93C120.943 18.419 120.943 18.289 120.943 18.159C120.943 15.936 119.747 14.532 117.641 14.532C115.704 14.532 114.313 16.066 114.313 18.12ZM116.198 17.379C116.276 16.599 116.822 16.001 117.667 16.001C118.486 16.001 119.084 16.547 119.123 17.379H116.198ZM125.513 14.532C124.629 14.532 123.979 15.026 123.693 15.494V14.701H121.938V21.5H123.732V17.418C123.732 16.69 124.2 16.144 124.941 16.144C125.552 16.144 126.072 16.612 126.072 17.366V21.5H127.866V17.574C127.866 16.131 127.45 14.532 125.513 14.532Z" fill="white"/>
</g>
</g>
<path d="M83.66 43H80.24V57H83.66V51.36L87.74 57H91.66L86.32 49.7L91.56 43H87.74L83.66 48.4V43ZM92.753 57H96.093V42.54H92.753V57ZM101.347 46.5H98.0069V57H101.347V46.5ZM99.6469 45.86C100.707 45.86 101.527 45.1 101.527 44.06C101.527 43 100.707 42.24 99.6469 42.24C98.5869 42.24 97.7869 43 97.7869 44.06C97.7869 45.1 98.5869 45.86 99.6469 45.86ZM113.181 46.5H109.441L106.601 50.72V42.54H103.261V57H106.601V52.1L109.541 57H113.461L109.801 51.3L113.181 46.5ZM117.818 51.78C117.818 54.94 120.178 57.26 123.518 57.26C126.838 57.26 129.278 54.9 129.278 51.74C129.278 48.56 126.898 46.24 123.518 46.24C120.278 46.24 117.818 48.6 117.818 51.78ZM121.158 51.78C121.158 50.24 122.138 49.18 123.518 49.18C124.878 49.18 125.938 50.2 125.938 51.74C125.938 53.24 124.898 54.32 123.518 54.32C122.158 54.32 121.158 53.3 121.158 51.78ZM133.903 51.72C133.903 50.32 134.723 49.16 136.163 49.16C137.503 49.16 138.423 50.16 138.423 51.72C138.423 53.26 137.523 54.32 136.163 54.32C134.843 54.32 133.903 53.38 133.903 51.72ZM133.783 46.5H130.663V60.74H134.003V56.2C134.223 56.46 135.203 57.26 136.803 57.26C139.843 57.26 141.763 55 141.763 51.74C141.763 48.52 139.643 46.24 136.623 46.24C135.083 46.24 134.083 46.98 133.783 47.32V46.5ZM150.429 43.64L149.129 42.2C147.589 43.26 146.569 45.12 146.569 47.14C146.569 48.56 147.509 49.3 148.609 49.3C149.709 49.3 150.589 48.4 150.589 47.3C150.589 46.46 150.049 45.6 149.009 45.36C149.129 44.64 149.889 43.94 150.429 43.64ZM156.371 42.74C153.591 42.74 151.771 44.38 151.771 46.9C151.771 51.38 157.571 51.22 157.571 53.08C157.571 53.7 157.151 54.06 156.331 54.06C155.371 54.06 154.611 53.32 154.231 52.5L151.371 53.92C151.731 54.98 152.991 57.26 156.131 57.26C159.191 57.26 161.031 55.4 161.031 52.82C161.031 48.54 155.191 48.74 155.191 46.84C155.191 46.3 155.631 45.9 156.291 45.9C157.351 45.9 157.771 46.66 158.051 47.28L160.891 45.98C160.531 44.92 159.371 42.74 156.371 42.74ZM166.197 44.28H162.857V46.5H161.837V49.2H162.857V52.9C162.857 56.02 164.297 57.16 166.777 57.16C167.617 57.16 168.057 57.04 168.057 57.04V54.18C167.837 54.2 167.677 54.2 167.497 54.2C166.817 54.2 166.197 53.98 166.197 53.06V49.2H167.977V46.5H166.197V44.28ZM169.048 53.74C169.048 56.02 170.888 57.26 172.948 57.26C174.028 57.26 174.788 56.96 175.328 56.42L175.508 57H178.488V50.5C178.488 48.1 177.568 46.24 173.948 46.24C172.208 46.24 170.788 46.8 169.668 47.54L170.908 49.78C171.728 49.38 172.628 49.12 173.548 49.12C174.628 49.12 175.148 49.62 175.148 50.26V50.64C174.768 50.48 174.048 50.26 173.128 50.26C170.648 50.26 169.048 51.64 169.048 53.74ZM172.388 53.62C172.388 52.94 172.988 52.5 173.788 52.5C174.588 52.5 175.208 52.9 175.208 53.62C175.208 54.32 174.608 54.7 173.808 54.7C173.028 54.7 172.388 54.32 172.388 53.62ZM187.632 51.78C187.632 53.18 186.812 54.34 185.372 54.34C184.032 54.34 183.112 53.34 183.112 51.78C183.112 50.24 184.012 49.18 185.372 49.18C186.692 49.18 187.632 50.12 187.632 51.78ZM187.752 57H190.872V42.54H187.532V47.3C187.312 47.04 186.332 46.24 184.732 46.24C181.692 46.24 179.772 48.5 179.772 51.76C179.772 54.98 181.892 57.26 184.912 57.26C186.452 57.26 187.452 56.52 187.752 56.18V57ZM196.178 51.78C196.178 54.94 198.538 57.26 201.878 57.26C205.198 57.26 207.638 54.9 207.638 51.74C207.638 48.56 205.258 46.24 201.878 46.24C198.638 46.24 196.178 48.6 196.178 51.78ZM199.518 51.78C199.518 50.24 200.498 49.18 201.878 49.18C203.238 49.18 204.298 50.2 204.298 51.74C204.298 53.24 203.258 54.32 201.878 54.32C200.518 54.32 199.518 53.3 199.518 51.78ZM215.183 57H218.523V51.18C218.523 49.04 218.203 46.24 214.923 46.24C213.603 46.24 212.683 46.96 212.283 47.58V46.5H209.023V57H212.363V50.74C212.363 49.9 212.883 49.24 213.803 49.24C214.603 49.24 215.183 49.76 215.183 50.74V57ZM223.99 44.28H220.65V46.5H219.63V49.2H220.65V52.9C220.65 56.02 222.09 57.16 224.57 57.16C225.41 57.16 225.85 57.04 225.85 57.04V54.18C225.63 54.2 225.47 54.2 225.29 54.2C224.61 54.2 223.99 53.98 223.99 53.06V49.2H225.77V46.5H223.99V44.28ZM234.741 51.78C234.741 53.18 233.921 54.34 232.481 54.34C231.141 54.34 230.221 53.34 230.221 51.78C230.221 50.24 231.121 49.18 232.481 49.18C233.801 49.18 234.741 50.12 234.741 51.78ZM234.861 57H237.981V42.54H234.641V47.3C234.421 47.04 233.441 46.24 231.841 46.24C228.801 46.24 226.881 48.5 226.881 51.76C226.881 54.98 229.001 57.26 232.021 57.26C233.561 57.26 234.561 56.52 234.861 56.18V57ZM249.681 52.62C249.701 52.38 249.701 52.16 249.701 51.96C249.701 48.38 247.881 46.24 244.541 46.24C241.461 46.24 239.381 48.7 239.381 51.78C239.381 54.88 241.501 57.26 244.961 57.26C247.681 57.26 249.121 55.56 249.421 54.94L247.221 53.24C247.021 53.54 246.281 54.36 245.021 54.36C243.781 54.36 242.881 53.56 242.801 52.62H249.681ZM244.601 48.94C245.641 48.94 246.261 49.66 246.301 50.5H242.901C242.981 49.76 243.501 48.94 244.601 48.94ZM260.954 46.5H257.214L254.374 50.72V42.54H251.034V57H254.374V52.1L257.314 57H261.234L257.574 51.3L260.954 46.5ZM272.126 46.5H268.386L265.546 50.72V42.54H262.206V57H265.546V52.1L268.486 57H272.406L268.746 51.3L272.126 46.5ZM283.158 52.62C283.178 52.38 283.178 52.16 283.178 51.96C283.178 48.38 281.358 46.24 278.018 46.24C274.938 46.24 272.858 48.7 272.858 51.78C272.858 54.88 274.978 57.26 278.438 57.26C281.158 57.26 282.598 55.56 282.898 54.94L280.698 53.24C280.498 53.54 279.758 54.36 278.498 54.36C277.258 54.36 276.358 53.56 276.278 52.62H283.158ZM278.078 48.94C279.118 48.94 279.738 49.66 279.778 50.5H276.378C276.458 49.76 276.978 48.94 278.078 48.94ZM290.671 57H294.011V51.18C294.011 49.04 293.691 46.24 290.411 46.24C289.091 46.24 288.171 46.96 287.771 47.58V46.5H284.511V57H287.851V50.74C287.851 49.9 288.371 49.24 289.291 49.24C290.091 49.24 290.671 49.76 290.671 50.74V57ZM294.893 47.86L296.193 49.3C297.733 48.24 298.753 46.38 298.753 44.36C298.753 42.94 297.813 42.2 296.713 42.2C295.613 42.2 294.733 43.1 294.733 44.2C294.733 45.04 295.273 45.9 296.313 46.14C296.193 46.86 295.433 47.56 294.893 47.86ZM303.541 51.78C303.541 54.94 305.901 57.26 309.241 57.26C312.561 57.26 315.001 54.9 315.001 51.74C315.001 48.56 312.621 46.24 309.241 46.24C306.001 46.24 303.541 48.6 303.541 51.78ZM306.881 51.78C306.881 50.24 307.861 49.18 309.241 49.18C310.601 49.18 311.661 50.2 311.661 51.74C311.661 53.24 310.621 54.32 309.241 54.32C307.881 54.32 306.881 53.3 306.881 51.78ZM325.606 50.74C325.606 49.84 326.106 49.24 326.886 49.24C327.686 49.24 328.166 49.8 328.166 50.74V57H331.506V50.02C331.506 47.8 330.366 46.24 327.946 46.24C326.586 46.24 325.606 46.8 324.966 47.62C324.406 46.76 323.486 46.24 322.246 46.24C320.846 46.24 320.006 46.94 319.646 47.58V46.5H316.386V57H319.726V50.74C319.726 49.78 320.226 49.24 321.006 49.24C321.806 49.24 322.266 49.8 322.266 50.74V57H325.606V50.74ZM340.885 44.28H337.545V46.5H336.525V49.2H337.545V52.9C337.545 56.02 338.985 57.16 341.465 57.16C342.305 57.16 342.745 57.04 342.745 57.04V54.18C342.525 54.2 342.365 54.2 342.185 54.2C341.505 54.2 340.885 53.98 340.885 53.06V49.2H342.665V46.5H340.885V44.28ZM354.076 52.62C354.096 52.38 354.096 52.16 354.096 51.96C354.096 48.38 352.276 46.24 348.936 46.24C345.856 46.24 343.776 48.7 343.776 51.78C343.776 54.88 345.896 57.26 349.356 57.26C352.076 57.26 353.516 55.56 353.816 54.94L351.616 53.24C351.416 53.54 350.676 54.36 349.416 54.36C348.176 54.36 347.276 53.56 347.196 52.62H354.076ZM348.996 48.94C350.036 48.94 350.656 49.66 350.696 50.5H347.296C347.376 49.76 347.896 48.94 348.996 48.94ZM87.82 68.52V66.5H79.64V69.28H83.62L79.54 75V77H87.86V74.22H83.72L87.82 68.52ZM92.7141 66.5H89.3741V77H92.7141V66.5ZM91.0141 65.86C92.0741 65.86 92.8941 65.1 92.8941 64.06C92.8941 63 92.0741 62.24 91.0141 62.24C89.9541 62.24 89.1541 63 89.1541 64.06C89.1541 65.1 89.9541 65.86 91.0141 65.86ZM104.408 72.62C104.428 72.38 104.428 72.16 104.428 71.96C104.428 68.38 102.608 66.24 99.268 66.24C96.188 66.24 94.108 68.7 94.108 71.78C94.108 74.88 96.228 77.26 99.688 77.26C102.408 77.26 103.848 75.56 104.148 74.94L101.948 73.24C101.748 73.54 101.008 74.36 99.748 74.36C98.508 74.36 97.608 73.56 97.528 72.62H104.408ZM99.328 68.94C100.368 68.94 100.988 69.66 101.028 70.5H97.628C97.708 69.76 98.228 68.94 99.328 68.94ZM111.921 77H115.261V71.18C115.261 69.04 114.941 66.24 111.661 66.24C110.341 66.24 109.421 66.96 109.021 67.58V66.5H105.761V77H109.101V70.74C109.101 69.9 109.621 69.24 110.541 69.24C111.341 69.24 111.921 69.76 111.921 70.74V77ZM129.914 77H133.674L136.614 66.5H132.974L131.554 73.36L129.974 66.5H126.854L125.274 73.36L123.854 66.5H120.214L123.154 77H126.914L128.414 71.06L129.914 77ZM147.494 72.62C147.514 72.38 147.514 72.16 147.514 71.96C147.514 68.38 145.694 66.24 142.354 66.24C139.274 66.24 137.194 68.7 137.194 71.78C137.194 74.88 139.314 77.26 142.774 77.26C145.494 77.26 146.934 75.56 147.234 74.94L145.034 73.24C144.834 73.54 144.094 74.36 142.834 74.36C141.594 74.36 140.694 73.56 140.614 72.62H147.494ZM142.414 68.94C143.454 68.94 144.074 69.66 144.114 70.5H140.714C140.794 69.76 141.314 68.94 142.414 68.94ZM148.847 77H152.187V62.54H148.847V77ZM164.021 66.5H160.281L157.441 70.72V62.54H154.101V77H157.441V72.1L160.381 77H164.301L160.641 71.3L164.021 66.5ZM175.053 72.62C175.073 72.38 175.073 72.16 175.073 71.96C175.073 68.38 173.253 66.24 169.913 66.24C166.833 66.24 164.753 68.7 164.753 71.78C164.753 74.88 166.873 77.26 170.333 77.26C173.053 77.26 174.493 75.56 174.793 74.94L172.593 73.24C172.393 73.54 171.653 74.36 170.393 74.36C169.153 74.36 168.253 73.56 168.173 72.62H175.053ZM169.973 68.94C171.013 68.94 171.633 69.66 171.673 70.5H168.273C168.353 69.76 168.873 68.94 169.973 68.94ZM179.771 73.74C179.771 76.02 181.611 77.26 183.671 77.26C184.751 77.26 185.511 76.96 186.051 76.42L186.231 77H189.211V70.5C189.211 68.1 188.291 66.24 184.671 66.24C182.931 66.24 181.511 66.8 180.391 67.54L181.631 69.78C182.451 69.38 183.351 69.12 184.271 69.12C185.351 69.12 185.871 69.62 185.871 70.26V70.64C185.491 70.48 184.771 70.26 183.851 70.26C181.371 70.26 179.771 71.64 179.771 73.74ZM183.111 73.62C183.111 72.94 183.711 72.5 184.511 72.5C185.311 72.5 185.931 72.9 185.931 73.62C185.931 74.32 185.331 74.7 184.531 74.7C183.751 74.7 183.111 74.32 183.111 73.62ZM196.395 74.32C194.855 74.32 193.815 73.28 193.815 71.74C193.815 70.34 194.695 69.24 196.275 69.24C197.055 69.24 197.795 69.54 198.375 70.02L199.275 67.2C198.535 66.68 197.515 66.24 196.155 66.24C192.915 66.24 190.475 68.54 190.475 71.76C190.475 74.98 192.835 77.26 196.175 77.26C197.495 77.26 198.555 76.8 199.255 76.32L198.375 73.58C197.915 73.96 197.175 74.32 196.395 74.32ZM204.205 64.28H200.865V66.5H199.845V69.2H200.865V72.9C200.865 76.02 202.305 77.16 204.785 77.16C205.625 77.16 206.065 77.04 206.065 77.04V74.18C205.845 74.2 205.685 74.2 205.505 74.2C204.825 74.2 204.205 73.98 204.205 73.06V69.2H205.985V66.5H204.205V64.28ZM210.956 66.5H207.616V77H210.956V66.5ZM209.256 65.86C210.316 65.86 211.136 65.1 211.136 64.06C211.136 63 210.316 62.24 209.256 62.24C208.196 62.24 207.396 63 207.396 64.06C207.396 65.1 208.196 65.86 209.256 65.86ZM215.55 66.5H211.97L215.57 77H219.45L222.99 66.5H219.51L217.53 73.46L215.55 66.5ZM227.363 66.5H224.023V77H227.363V66.5ZM225.663 65.86C226.723 65.86 227.543 65.1 227.543 64.06C227.543 63 226.723 62.24 225.663 62.24C224.603 62.24 223.803 63 223.803 64.06C223.803 65.1 224.603 65.86 225.663 65.86ZM232.896 64.28H229.556V66.5H228.536V69.2H229.556V72.9C229.556 76.02 230.996 77.16 233.476 77.16C234.316 77.16 234.756 77.04 234.756 77.04V74.18C234.536 74.2 234.376 74.2 234.196 74.2C233.516 74.2 232.896 73.98 232.896 73.06V69.2H234.676V66.5H232.896V64.28ZM246.088 72.62C246.108 72.38 246.108 72.16 246.108 71.96C246.108 68.38 244.288 66.24 240.948 66.24C237.868 66.24 235.788 68.7 235.788 71.78C235.788 74.88 237.908 77.26 241.368 77.26C244.088 77.26 245.528 75.56 245.828 74.94L243.628 73.24C243.428 73.54 242.688 74.36 241.428 74.36C240.188 74.36 239.288 73.56 239.208 72.62H246.088ZM241.008 68.94C242.048 68.94 242.668 69.66 242.708 70.5H239.308C239.388 69.76 239.908 68.94 241.008 68.94ZM250.78 66.5H247.44V77H250.78V66.5ZM249.08 65.86C250.14 65.86 250.96 65.1 250.96 64.06C250.96 63 250.14 62.24 249.08 62.24C248.02 62.24 247.22 63 247.22 64.06C247.22 65.1 248.02 65.86 249.08 65.86ZM256.314 64.28H252.974V66.5H251.954V69.2H252.974V72.9C252.974 76.02 254.414 77.16 256.894 77.16C257.734 77.16 258.174 77.04 258.174 77.04V74.18C257.954 74.2 257.794 74.2 257.614 74.2C256.934 74.2 256.314 73.98 256.314 73.06V69.2H258.094V66.5H256.314V64.28ZM269.506 72.62C269.526 72.38 269.526 72.16 269.526 71.96C269.526 68.38 267.706 66.24 264.366 66.24C261.286 66.24 259.206 68.7 259.206 71.78C259.206 74.88 261.326 77.26 264.786 77.26C267.506 77.26 268.946 75.56 269.246 74.94L267.046 73.24C266.846 73.54 266.106 74.36 264.846 74.36C263.606 74.36 262.706 73.56 262.626 72.62H269.506ZM264.426 68.94C265.466 68.94 266.086 69.66 266.126 70.5H262.726C262.806 69.76 263.326 68.94 264.426 68.94ZM277.018 77H280.358V71.18C280.358 69.04 280.038 66.24 276.758 66.24C275.438 66.24 274.518 66.96 274.118 67.58V66.5H270.858V77H274.198V70.74C274.198 69.9 274.718 69.24 275.638 69.24C276.438 69.24 277.018 69.76 277.018 70.74V77ZM289.472 66.5H286.132V76.88C286.132 77.54 285.792 78 284.812 78C284.592 78 284.332 77.96 284.332 77.96V80.78C284.332 80.78 284.712 80.84 285.072 80.84C287.592 80.84 289.472 79.86 289.472 77.04V66.5ZM287.772 65.86C288.832 65.86 289.652 65.1 289.652 64.06C289.652 63 288.832 62.24 287.772 62.24C286.712 62.24 285.912 63 285.912 64.06C285.912 65.1 286.712 65.86 287.772 65.86ZM301.166 72.62C301.186 72.38 301.186 72.16 301.186 71.96C301.186 68.38 299.366 66.24 296.026 66.24C292.946 66.24 290.866 68.7 290.866 71.78C290.866 74.88 292.986 77.26 296.446 77.26C299.166 77.26 300.606 75.56 300.906 74.94L298.706 73.24C298.506 73.54 297.766 74.36 296.506 74.36C295.266 74.36 294.366 73.56 294.286 72.62H301.166ZM296.086 68.94C297.126 68.94 297.746 69.66 297.786 70.5H294.386C294.466 69.76 294.986 68.94 296.086 68.94ZM309.784 66.5H306.444V77H309.784V66.5ZM308.084 65.86C309.144 65.86 309.964 65.1 309.964 64.06C309.964 63 309.144 62.24 308.084 62.24C307.024 62.24 306.224 63 306.224 64.06C306.224 65.1 307.024 65.86 308.084 65.86ZM317.858 77H321.198V71.18C321.198 69.04 320.878 66.24 317.598 66.24C316.278 66.24 315.358 66.96 314.958 67.58V66.5H311.698V77H315.038V70.74C315.038 69.9 315.558 69.24 316.478 69.24C317.278 69.24 317.858 69.76 317.858 70.74V77ZM92.08 83H88.66V88.44H83.66V83H80.24V97H83.66V91.52H88.66V97H92.08V83ZM93.7164 93.74C93.7164 96.02 95.5564 97.26 97.6164 97.26C98.6964 97.26 99.4564 96.96 99.9964 96.42L100.176 97H103.156V90.5C103.156 88.1 102.236 86.24 98.6164 86.24C96.8764 86.24 95.4564 86.8 94.3364 87.54L95.5764 89.78C96.3964 89.38 97.2964 89.12 98.2164 89.12C99.2964 89.12 99.8164 89.62 99.8164 90.26V90.64C99.4364 90.48 98.7164 90.26 97.7964 90.26C95.3164 90.26 93.7164 91.64 93.7164 93.74ZM97.0564 93.62C97.0564 92.94 97.6564 92.5 98.4564 92.5C99.2564 92.5 99.8764 92.9 99.8764 93.62C99.8764 94.32 99.2764 94.7 98.4764 94.7C97.6964 94.7 97.0564 94.32 97.0564 93.62ZM111.12 97H114.46V91.18C114.46 89.04 114.14 86.24 110.86 86.24C109.54 86.24 108.62 86.96 108.22 87.58V86.5H104.96V97H108.3V90.74C108.3 89.9 108.82 89.24 109.74 89.24C110.54 89.24 111.12 89.76 111.12 90.74V97ZM115.768 91.78C115.768 94.94 118.128 97.26 121.468 97.26C124.788 97.26 127.228 94.9 127.228 91.74C127.228 88.56 124.848 86.24 121.468 86.24C118.228 86.24 115.768 88.6 115.768 91.78ZM119.108 91.78C119.108 90.24 120.088 89.18 121.468 89.18C122.828 89.18 123.888 90.2 123.888 91.74C123.888 93.24 122.848 94.32 121.468 94.32C120.108 94.32 119.108 93.3 119.108 91.78ZM131.952 86.5H128.612V97H131.952V86.5ZM130.252 85.86C131.312 85.86 132.132 85.1 132.132 84.06C132.132 83 131.312 82.24 130.252 82.24C129.192 82.24 128.392 83 128.392 84.06C128.392 85.1 129.192 85.86 130.252 85.86ZM147.712 86.5H143.972L141.132 90.72V82.54H137.792V97H141.132V92.1L144.072 97H147.992L144.332 91.3L147.712 86.5ZM148.404 93.74C148.404 96.02 150.244 97.26 152.304 97.26C153.384 97.26 154.144 96.96 154.684 96.42L154.864 97H157.844V90.5C157.844 88.1 156.924 86.24 153.304 86.24C151.564 86.24 150.144 86.8 149.024 87.54L150.264 89.78C151.084 89.38 151.984 89.12 152.904 89.12C153.984 89.12 154.504 89.62 154.504 90.26V90.64C154.124 90.48 153.404 90.26 152.484 90.26C150.004 90.26 148.404 91.64 148.404 93.74ZM151.744 93.62C151.744 92.94 152.344 92.5 153.144 92.5C153.944 92.5 154.564 92.9 154.564 93.62C154.564 94.32 153.964 94.7 153.164 94.7C152.384 94.7 151.744 94.32 151.744 93.62ZM165.808 97H169.148V91.18C169.148 89.04 168.828 86.24 165.548 86.24C164.228 86.24 163.308 86.96 162.908 87.58V86.5H159.648V97H162.988V90.74C162.988 89.9 163.508 89.24 164.428 89.24C165.228 89.24 165.808 89.76 165.808 90.74V97ZM182.261 91.78C182.261 93.18 181.441 94.34 180.001 94.34C178.661 94.34 177.741 93.34 177.741 91.78C177.741 90.24 178.641 89.18 180.001 89.18C181.321 89.18 182.261 90.12 182.261 91.78ZM182.381 97H185.501V82.54H182.161V87.3C181.941 87.04 180.961 86.24 179.361 86.24C176.321 86.24 174.401 88.5 174.401 91.76C174.401 94.98 176.521 97.26 179.541 97.26C181.081 97.26 182.081 96.52 182.381 96.18V97ZM186.881 91.78C186.881 94.94 189.241 97.26 192.581 97.26C195.901 97.26 198.341 94.9 198.341 91.74C198.341 88.56 195.961 86.24 192.581 86.24C189.341 86.24 186.881 88.6 186.881 91.78ZM190.221 91.78C190.221 90.24 191.201 89.18 192.581 89.18C193.941 89.18 195.001 90.2 195.001 91.74C195.001 93.24 193.961 94.32 192.581 94.32C191.221 94.32 190.221 93.3 190.221 91.78ZM209.506 92.62C209.526 92.38 209.526 92.16 209.526 91.96C209.526 88.38 207.706 86.24 204.366 86.24C201.286 86.24 199.206 88.7 199.206 91.78C199.206 94.88 201.326 97.26 204.786 97.26C207.506 97.26 208.946 95.56 209.246 94.94L207.046 93.24C206.846 93.54 206.106 94.36 204.846 94.36C203.606 94.36 202.706 93.56 202.626 92.62H209.506ZM204.426 88.94C205.466 88.94 206.086 89.66 206.126 90.5H202.726C202.806 89.76 203.326 88.94 204.426 88.94ZM217.018 97H220.358V91.18C220.358 89.04 220.038 86.24 216.758 86.24C215.438 86.24 214.518 86.96 214.118 87.58V86.5H210.858V97H214.198V90.74C214.198 89.9 214.718 89.24 215.638 89.24C216.438 89.24 217.018 89.76 217.018 90.74V97Z" fill="#FFF6F0"/>
<defs>
<filter id="filter0_d" x="63" y="30" width="316" height="92" filterUnits="userSpaceOnUse" color-interpolation-filters="sRGB">
<feFlood flood-opacity="0" result="BackgroundImageFix"/>
<feColorMatrix in="SourceAlpha" type="matrix" values="0 0 0 0 0 0 0 0 0 0 0 0 0 0 0 0 0 0 127 0"/>
<feOffset dy="4"/>
<feGaussianBlur stdDeviation="2"/>
<feColorMatrix type="matrix" values="0 0 0 0 0 0 0 0 0 0 0 0 0 0 0 0 0 0 0.25 0"/>
<feBlend mode="normal" in2="BackgroundImageFix" result="effect1_dropShadow"/>
<feBlend mode="normal" in="SourceGraphic" in2="effect1_dropShadow" result="shape"/>
</filter>
<filter id="filter1_d" x="0" y="0" width="165" height="45" filterUnits="userSpaceOnUse" color-interpolation-filters="sRGB">
<feFlood flood-opacity="0" result="BackgroundImageFix"/>
<feColorMatrix in="SourceAlpha" type="matrix" values="0 0 0 0 0 0 0 0 0 0 0 0 0 0 0 0 0 0 127 0"/>
<feOffset dy="4"/>
<feGaussianBlur stdDeviation="2"/>
<feColorMatrix type="matrix" values="0 0 0 0 0 0 0 0 0 0 0 0 0 0 0 0 0 0 0.25 0"/>
<feBlend mode="normal" in2="BackgroundImageFix" result="effect1_dropShadow"/>
<feBlend mode="normal" in="SourceGraphic" in2="effect1_dropShadow" result="shape"/>
</filter>
<clipPath id="clip0">
<rect x="4" width="157" height="37" rx="18.5" fill="white"/>
</clipPath>
</defs>
</svg>
