<svg width="283" height="134" viewBox="0 0 283 134" fill="none" xmlns="http://www.w3.org/2000/svg">
<g filter="url(#filter0_d)">
<rect x="30" y="44" width="249" height="82" fill="#539882"/>
</g>
<path d="M55.08 57H51.66V62.44H46.66V57H43.24V71H46.66V65.52H51.66V71H55.08V57ZM67.0564 66.62C67.0764 66.38 67.0764 66.16 67.0764 65.96C67.0764 62.38 65.2564 60.24 61.9164 60.24C58.8364 60.24 56.7564 62.7 56.7564 65.78C56.7564 68.88 58.8764 71.26 62.3364 71.26C65.0564 71.26 66.4964 69.56 66.7964 68.94L64.5964 67.24C64.3964 67.54 63.6564 68.36 62.3964 68.36C61.1564 68.36 60.2564 67.56 60.1764 66.62H67.0564ZM61.9764 62.94C63.0164 62.94 63.6364 63.66 63.6764 64.5H60.2764C60.3564 63.76 60.8764 62.94 61.9764 62.94ZM72.0292 58.28H68.6892V60.5H67.6692V63.2H68.6892V66.9C68.6892 70.02 70.1292 71.16 72.6092 71.16C73.4492 71.16 73.8892 71.04 73.8892 71.04V68.18C73.6692 68.2 73.5092 68.2 73.3292 68.2C72.6492 68.2 72.0292 67.98 72.0292 67.06V63.2H73.8092V60.5H72.0292V58.28ZM82.9863 58.28H79.6463V60.5H78.6263V63.2H79.6463V66.9C79.6463 70.02 81.0863 71.16 83.5663 71.16C84.4063 71.16 84.8463 71.04 84.8463 71.04V68.18C84.6263 68.2 84.4663 68.2 84.2862 68.2C83.6063 68.2 82.9863 67.98 82.9863 67.06V63.2H84.7663V60.5H82.9863V58.28ZM85.8575 65.78C85.8575 68.94 88.2175 71.26 91.5575 71.26C94.8775 71.26 97.3175 68.9 97.3175 65.74C97.3175 62.56 94.9375 60.24 91.5575 60.24C88.3175 60.24 85.8575 62.6 85.8575 65.78ZM89.1975 65.78C89.1975 64.24 90.1775 63.18 91.5575 63.18C92.9175 63.18 93.9775 64.2 93.9775 65.74C93.9775 67.24 92.9375 68.32 91.5575 68.32C90.1975 68.32 89.1975 67.3 89.1975 65.78ZM102.322 58.28H98.9822V60.5H97.9622V63.2H98.9822V66.9C98.9822 70.02 100.422 71.16 102.902 71.16C103.742 71.16 104.182 71.04 104.182 71.04V68.18C103.962 68.2 103.802 68.2 103.622 68.2C102.942 68.2 102.322 67.98 102.322 67.06V63.2H104.102V60.5H102.322V58.28ZM105.173 67.74C105.173 70.02 107.013 71.26 109.073 71.26C110.153 71.26 110.913 70.96 111.453 70.42L111.633 71H114.613V64.5C114.613 62.1 113.693 60.24 110.073 60.24C108.333 60.24 106.913 60.8 105.793 61.54L107.033 63.78C107.853 63.38 108.753 63.12 109.673 63.12C110.753 63.12 111.273 63.62 111.273 64.26V64.64C110.893 64.48 110.173 64.26 109.253 64.26C106.773 64.26 105.173 65.64 105.173 67.74ZM108.513 67.62C108.513 66.94 109.113 66.5 109.913 66.5C110.713 66.5 111.333 66.9 111.333 67.62C111.333 68.32 110.733 68.7 109.933 68.7C109.153 68.7 108.513 68.32 108.513 67.62ZM115.857 67.74C115.857 70.02 117.697 71.26 119.757 71.26C120.837 71.26 121.597 70.96 122.137 70.42L122.317 71H125.297V64.5C125.297 62.1 124.377 60.24 120.757 60.24C119.017 60.24 117.597 60.8 116.477 61.54L117.717 63.78C118.537 63.38 119.437 63.12 120.357 63.12C121.437 63.12 121.957 63.62 121.957 64.26V64.64C121.577 64.48 120.857 64.26 119.937 64.26C117.457 64.26 115.857 65.64 115.857 67.74ZM119.197 67.62C119.197 66.94 119.797 66.5 120.597 66.5C121.397 66.5 122.017 66.9 122.017 67.62C122.017 68.32 121.417 68.7 120.617 68.7C119.837 68.7 119.197 68.32 119.197 67.62ZM127.101 71H130.441V56.54H127.101V71ZM135.72 67.74C135.72 70.02 137.56 71.26 139.62 71.26C140.7 71.26 141.46 70.96 142 70.42L142.18 71H145.16V64.5C145.16 62.1 144.24 60.24 140.62 60.24C138.88 60.24 137.46 60.8 136.34 61.54L137.58 63.78C138.4 63.38 139.3 63.12 140.22 63.12C141.3 63.12 141.82 63.62 141.82 64.26V64.64C141.44 64.48 140.72 64.26 139.8 64.26C137.32 64.26 135.72 65.64 135.72 67.74ZM139.06 67.62C139.06 66.94 139.66 66.5 140.46 66.5C141.26 66.5 141.88 66.9 141.88 67.62C141.88 68.32 141.28 68.7 140.48 68.7C139.7 68.7 139.06 68.32 139.06 67.62ZM146.404 67.74C146.404 70.02 148.244 71.26 150.304 71.26C151.384 71.26 152.144 70.96 152.684 70.42L152.864 71H155.844V64.5C155.844 62.1 154.924 60.24 151.304 60.24C149.564 60.24 148.144 60.8 147.024 61.54L148.264 63.78C149.084 63.38 149.984 63.12 150.904 63.12C151.984 63.12 152.504 63.62 152.504 64.26V64.64C152.124 64.48 151.404 64.26 150.484 64.26C148.004 64.26 146.404 65.64 146.404 67.74ZM149.744 67.62C149.744 66.94 150.344 66.5 151.144 66.5C151.944 66.5 152.564 66.9 152.564 67.62C152.564 68.32 151.964 68.7 151.164 68.7C150.384 68.7 149.744 68.32 149.744 67.62ZM163.808 71H167.148V65.18C167.148 63.04 166.828 60.24 163.548 60.24C162.228 60.24 161.308 60.96 160.908 61.58V60.5H157.648V71H160.988V64.74C160.988 63.9 161.508 63.24 162.428 63.24C163.228 63.24 163.808 63.76 163.808 64.74V71ZM172.615 58.28H169.275V60.5H168.255V63.2H169.275V66.9C169.275 70.02 170.715 71.16 173.195 71.16C174.035 71.16 174.475 71.04 174.475 71.04V68.18C174.255 68.2 174.095 68.2 173.915 68.2C173.235 68.2 172.615 67.98 172.615 67.06V63.2H174.395V60.5H172.615V58.28ZM175.466 67.74C175.466 70.02 177.306 71.26 179.366 71.26C180.446 71.26 181.206 70.96 181.746 70.42L181.926 71H184.906V64.5C184.906 62.1 183.986 60.24 180.366 60.24C178.626 60.24 177.206 60.8 176.086 61.54L177.326 63.78C178.146 63.38 179.046 63.12 179.966 63.12C181.046 63.12 181.566 63.62 181.566 64.26V64.64C181.186 64.48 180.466 64.26 179.546 64.26C177.066 64.26 175.466 65.64 175.466 67.74ZM178.806 67.62C178.806 66.94 179.406 66.5 180.206 66.5C181.006 66.5 181.626 66.9 181.626 67.62C181.626 68.32 181.026 68.7 180.226 68.7C179.446 68.7 178.806 68.32 178.806 67.62ZM186.71 71H190.05V56.54H186.71V71ZM203.11 70.46C203.11 71.74 201.87 72.02 200.63 72.02C199.21 72.02 198.03 71.52 197.73 71.38L196.75 73.94C197.69 74.42 199.15 74.84 200.63 74.84C203.75 74.84 206.45 73.62 206.45 69.74V60.5H203.33V61.32C203.03 60.98 202.03 60.24 200.49 60.24C197.47 60.24 195.35 62.52 195.35 65.74C195.35 69 197.27 71.26 200.31 71.26C201.91 71.26 202.89 70.46 203.11 70.2V70.46ZM203.21 65.72C203.21 67.38 202.27 68.32 200.95 68.32C199.59 68.32 198.69 67.26 198.69 65.72C198.69 64.16 199.59 63.18 200.93 63.18C202.37 63.18 203.21 64.32 203.21 65.72ZM218.072 66.62C218.092 66.38 218.092 66.16 218.092 65.96C218.092 62.38 216.272 60.24 212.932 60.24C209.852 60.24 207.772 62.7 207.772 65.78C207.772 68.88 209.892 71.26 213.352 71.26C216.072 71.26 217.512 69.56 217.812 68.94L215.612 67.24C215.412 67.54 214.672 68.36 213.412 68.36C212.172 68.36 211.272 67.56 211.192 66.62H218.072ZM212.992 62.94C214.032 62.94 214.652 63.66 214.692 64.5H211.292C211.372 63.76 211.892 62.94 212.992 62.94ZM227.285 62.52V60.5H219.105V63.28H223.085L219.005 69V71H227.325V68.22H223.185L227.285 62.52ZM238.326 66.62C238.346 66.38 238.346 66.16 238.346 65.96C238.346 62.38 236.526 60.24 233.186 60.24C230.106 60.24 228.026 62.7 228.026 65.78C228.026 68.88 230.146 71.26 233.606 71.26C236.326 71.26 237.766 69.56 238.066 68.94L235.866 67.24C235.666 67.54 234.926 68.36 233.666 68.36C232.426 68.36 231.526 67.56 231.446 66.62H238.326ZM233.246 62.94C234.286 62.94 234.906 63.66 234.946 64.5H231.546C231.626 63.76 232.146 62.94 233.246 62.94ZM243.299 58.28H239.959V60.5H238.939V63.2H239.959V66.9C239.959 70.02 241.399 71.16 243.879 71.16C244.719 71.16 245.159 71.04 245.159 71.04V68.18C244.939 68.2 244.779 68.2 244.599 68.2C243.919 68.2 243.299 67.98 243.299 67.06V63.2H245.079V60.5H243.299V58.28ZM250.33 58.28H246.99V60.5H245.97V63.2H246.99V66.9C246.99 70.02 248.43 71.16 250.91 71.16C251.75 71.16 252.19 71.04 252.19 71.04V68.18C251.97 68.2 251.81 68.2 251.63 68.2C250.95 68.2 250.33 67.98 250.33 67.06V63.2H252.11V60.5H250.33V58.28ZM263.521 66.62C263.541 66.38 263.541 66.16 263.541 65.96C263.541 62.38 261.721 60.24 258.381 60.24C255.301 60.24 253.221 62.7 253.221 65.78C253.221 68.88 255.341 71.26 258.801 71.26C261.521 71.26 262.961 69.56 263.261 68.94L261.061 67.24C260.861 67.54 260.121 68.36 258.861 68.36C257.621 68.36 256.721 67.56 256.641 66.62H263.521ZM258.441 62.94C259.481 62.94 260.101 63.66 260.141 64.5H256.741C256.821 63.76 257.341 62.94 258.441 62.94ZM46.32 91.26C48.72 91.26 50.6 89.94 50.6 87.8C50.6 84 45.76 84.76 45.76 83.44C45.76 83.12 46.04 82.92 46.52 82.92C47.34 82.92 47.94 83.42 48.26 83.74L50.42 82.04C49.8 81.2 48.66 80.24 46.66 80.24C44.38 80.24 42.62 81.46 42.62 83.48C42.62 87.3 47.42 86.78 47.42 87.98C47.42 88.36 47.12 88.56 46.48 88.56C45.42 88.56 44.72 88.14 44.16 87.64L42.28 89.46C42.9 90.3 44.32 91.26 46.32 91.26ZM55.4667 78.28H52.1267V80.5H51.1067V83.2H52.1267V86.9C52.1267 90.02 53.5667 91.16 56.0467 91.16C56.8867 91.16 57.3267 91.04 57.3267 91.04V88.18C57.1067 88.2 56.9467 88.2 56.7667 88.2C56.0867 88.2 55.4667 87.98 55.4667 87.06V83.2H57.2467V80.5H55.4667V78.28ZM58.318 87.74C58.318 90.02 60.158 91.26 62.218 91.26C63.298 91.26 64.058 90.96 64.598 90.42L64.778 91H67.758V84.5C67.758 82.1 66.838 80.24 63.218 80.24C61.478 80.24 60.058 80.8 58.938 81.54L60.178 83.78C60.998 83.38 61.898 83.12 62.818 83.12C63.898 83.12 64.418 83.62 64.418 84.26V84.64C64.038 84.48 63.318 84.26 62.398 84.26C59.918 84.26 58.318 85.64 58.318 87.74ZM61.658 87.62C61.658 86.94 62.258 86.5 63.058 86.5C63.858 86.5 64.478 86.9 64.478 87.62C64.478 88.32 63.878 88.7 63.078 88.7C62.298 88.7 61.658 88.32 61.658 87.62ZM72.8016 85.72C72.8016 84.32 73.6216 83.16 75.0616 83.16C76.4016 83.16 77.3216 84.16 77.3216 85.72C77.3216 87.26 76.4216 88.32 75.0616 88.32C73.7416 88.32 72.8016 87.38 72.8016 85.72ZM72.6816 80.5H69.5616V94.74H72.9016V90.2C73.1216 90.46 74.1016 91.26 75.7016 91.26C78.7416 91.26 80.6616 89 80.6616 85.74C80.6616 82.52 78.5416 80.24 75.5216 80.24C73.9816 80.24 72.9816 80.98 72.6816 81.32V80.5ZM85.3016 85.72C85.3016 84.32 86.1216 83.16 87.5616 83.16C88.9016 83.16 89.8216 84.16 89.8216 85.72C89.8216 87.26 88.9216 88.32 87.5616 88.32C86.2416 88.32 85.3016 87.38 85.3016 85.72ZM85.1816 80.5H82.0616V94.74H85.4016V90.2C85.6216 90.46 86.6016 91.26 88.2016 91.26C91.2416 91.26 93.1616 89 93.1616 85.74C93.1616 82.52 91.0416 80.24 88.0216 80.24C86.4816 80.24 85.4816 80.98 85.1816 81.32V80.5ZM104.342 86.62C104.362 86.38 104.362 86.16 104.362 85.96C104.362 82.38 102.542 80.24 99.2016 80.24C96.1216 80.24 94.0416 82.7 94.0416 85.78C94.0416 88.88 96.1616 91.26 99.6216 91.26C102.342 91.26 103.782 89.56 104.082 88.94L101.882 87.24C101.682 87.54 100.942 88.36 99.6816 88.36C98.4416 88.36 97.5416 87.56 97.4616 86.62H104.342ZM99.2616 82.94C100.302 82.94 100.922 83.66 100.962 84.5H97.5616C97.6416 83.76 98.1616 82.94 99.2616 82.94ZM111.854 91H115.194V85.18C115.194 83.04 114.874 80.24 111.594 80.24C110.274 80.24 109.354 80.96 108.954 81.58V80.5H105.694V91H109.034V84.74C109.034 83.9 109.554 83.24 110.474 83.24C111.274 83.24 111.854 83.76 111.854 84.74V91ZM128.308 85.78C128.308 87.18 127.488 88.34 126.048 88.34C124.708 88.34 123.788 87.34 123.788 85.78C123.788 84.24 124.688 83.18 126.048 83.18C127.368 83.18 128.308 84.12 128.308 85.78ZM128.428 91H131.548V76.54H128.208V81.3C127.988 81.04 127.008 80.24 125.408 80.24C122.368 80.24 120.448 82.5 120.448 85.76C120.448 88.98 122.568 91.26 125.588 91.26C127.128 91.26 128.128 90.52 128.428 90.18V91ZM136.808 80.5H133.468V91H136.808V80.5ZM135.108 79.86C136.168 79.86 136.988 79.1 136.988 78.06C136.988 77 136.168 76.24 135.108 76.24C134.048 76.24 133.248 77 133.248 78.06C133.248 79.1 134.048 79.86 135.108 79.86ZM148.502 86.62C148.522 86.38 148.522 86.16 148.522 85.96C148.522 82.38 146.702 80.24 143.362 80.24C140.282 80.24 138.202 82.7 138.202 85.78C138.202 88.88 140.322 91.26 143.782 91.26C146.502 91.26 147.942 89.56 148.242 88.94L146.042 87.24C145.842 87.54 145.102 88.36 143.842 88.36C142.602 88.36 141.702 87.56 141.622 86.62H148.502ZM143.422 82.94C144.462 82.94 145.082 83.66 145.122 84.5H141.722C141.802 83.76 142.322 82.94 143.422 82.94ZM157.12 80.5H153.78V90.88C153.78 91.54 153.44 92 152.46 92C152.24 92 151.98 91.96 151.98 91.96V94.78C151.98 94.78 152.36 94.84 152.72 94.84C155.24 94.84 157.12 93.86 157.12 91.04V80.5ZM155.42 79.86C156.48 79.86 157.3 79.1 157.3 78.06C157.3 77 156.48 76.24 155.42 76.24C154.36 76.24 153.56 77 153.56 78.06C153.56 79.1 154.36 79.86 155.42 79.86ZM168.814 86.62C168.834 86.38 168.834 86.16 168.834 85.96C168.834 82.38 167.014 80.24 163.674 80.24C160.594 80.24 158.514 82.7 158.514 85.78C158.514 88.88 160.634 91.26 164.094 91.26C166.814 91.26 168.254 89.56 168.554 88.94L166.354 87.24C166.154 87.54 165.414 88.36 164.154 88.36C162.914 88.36 162.014 87.56 161.934 86.62H168.814ZM163.734 82.94C164.774 82.94 165.394 83.66 165.434 84.5H162.034C162.114 83.76 162.634 82.94 163.734 82.94ZM184.013 80.5H180.273L177.433 84.72V76.54H174.093V91H177.433V86.1L180.373 91H184.293L180.633 85.3L184.013 80.5ZM184.705 87.74C184.705 90.02 186.545 91.26 188.605 91.26C189.685 91.26 190.445 90.96 190.985 90.42L191.165 91H194.145V84.5C194.145 82.1 193.225 80.24 189.605 80.24C187.865 80.24 186.445 80.8 185.325 81.54L186.565 83.78C187.385 83.38 188.285 83.12 189.205 83.12C190.285 83.12 190.805 83.62 190.805 84.26V84.64C190.425 84.48 189.705 84.26 188.785 84.26C186.305 84.26 184.705 85.64 184.705 87.74ZM188.045 87.62C188.045 86.94 188.645 86.5 189.445 86.5C190.245 86.5 190.865 86.9 190.865 87.62C190.865 88.32 190.265 88.7 189.465 88.7C188.685 88.7 188.045 88.32 188.045 87.62ZM202.108 91H205.448V85.18C205.448 83.04 205.128 80.24 201.848 80.24C200.528 80.24 199.608 80.96 199.208 81.58V80.5H195.948V91H199.288V84.74C199.288 83.9 199.808 83.24 200.728 83.24C201.528 83.24 202.108 83.76 202.108 84.74V91ZM46.3 100.5H42.96V111H46.3V100.5ZM44.6 99.86C45.66 99.86 46.48 99.1 46.48 98.06C46.48 97 45.66 96.24 44.6 96.24C43.54 96.24 42.74 97 42.74 98.06C42.74 99.1 43.54 99.86 44.6 99.86ZM54.3739 111H57.7139V105.18C57.7139 103.04 57.3939 100.24 54.1139 100.24C52.7939 100.24 51.8739 100.96 51.4739 101.58V100.5H48.2139V111H51.5539V104.74C51.5539 103.9 52.0739 103.24 52.9939 103.24C53.7939 103.24 54.3739 103.76 54.3739 104.74V111ZM67.4216 102.52V100.5H59.2416V103.28H63.2216L59.1416 109V111H67.4616V108.22H63.3216L67.4216 102.52ZM78.4627 106.62C78.4827 106.38 78.4827 106.16 78.4827 105.96C78.4827 102.38 76.6627 100.24 73.3227 100.24C70.2427 100.24 68.1627 102.7 68.1627 105.78C68.1627 108.88 70.2827 111.26 73.7427 111.26C76.4627 111.26 77.9027 109.56 78.2027 108.94L76.0027 107.24C75.8027 107.54 75.0627 108.36 73.8027 108.36C72.5627 108.36 71.6627 107.56 71.5827 106.62H78.4627ZM73.3827 102.94C74.4227 102.94 75.0427 103.66 75.0827 104.5H71.6827C71.7627 103.76 72.2827 102.94 73.3827 102.94ZM83.4355 98.28H80.0955V100.5H79.0755V103.2H80.0955V106.9C80.0955 110.02 81.5355 111.16 84.0155 111.16C84.8555 111.16 85.2955 111.04 85.2955 111.04V108.18C85.0755 108.2 84.9155 108.2 84.7355 108.2C84.0555 108.2 83.4355 107.98 83.4355 107.06V103.2H85.2155V100.5H83.4355V98.28ZM90.4667 98.28H87.1267V100.5H86.1067V103.2H87.1267V106.9C87.1267 110.02 88.5667 111.16 91.0467 111.16C91.8867 111.16 92.3267 111.04 92.3267 111.04V108.18C92.1067 108.2 91.9467 108.2 91.7667 108.2C91.0867 108.2 90.4667 107.98 90.4667 107.06V103.2H92.2467V100.5H90.4667V98.28ZM103.658 106.62C103.678 106.38 103.678 106.16 103.678 105.96C103.678 102.38 101.858 100.24 98.518 100.24C95.438 100.24 93.358 102.7 93.358 105.78C93.358 108.88 95.478 111.26 98.938 111.26C101.658 111.26 103.098 109.56 103.398 108.94L101.198 107.24C100.998 107.54 100.258 108.36 98.998 108.36C97.758 108.36 96.858 107.56 96.778 106.62H103.658ZM98.578 102.94C99.618 102.94 100.238 103.66 100.278 104.5H96.878C96.958 103.76 97.478 102.94 98.578 102.94ZM111.171 111H114.511V105.18C114.511 103.04 114.191 100.24 110.911 100.24C109.591 100.24 108.671 100.96 108.271 101.58V100.5H105.011V111H108.351V104.74C108.351 103.9 108.871 103.24 109.791 103.24C110.591 103.24 111.171 103.76 111.171 104.74V111ZM117.998 111.26C119.098 111.26 119.998 110.36 119.998 109.28C119.998 108.18 119.098 107.28 117.998 107.28C116.898 107.28 116.018 108.18 116.018 109.28C116.018 110.36 116.898 111.26 117.998 111.26Z" fill="#FFF6F0"/>
<g filter="url(#filter1_i)">
<circle cx="30.5" cy="30.5" r="30.5" fill="#539882"/>
</g>
<g filter="url(#filter2_d)">
<path d="M13.0309 22.252H10.9309L8.87591 22.942L9.47591 25.072L10.4959 24.757V32.752H13.0309V22.252ZM22.1426 27.502C22.1426 23.857 21.0476 22.057 18.4076 22.057C15.7676 22.057 14.6726 23.857 14.6726 27.502C14.6726 31.147 15.7676 32.947 18.4076 32.947C21.0476 32.947 22.1426 31.147 22.1426 27.502ZM17.2676 27.502C17.2676 25.387 17.4776 24.457 18.4076 24.457C19.3376 24.457 19.5476 25.387 19.5476 27.502C19.5476 29.617 19.3376 30.547 18.4076 30.547C17.4776 30.547 17.2676 29.617 17.2676 27.502ZM24.3122 32.947C25.1372 32.947 25.8122 32.272 25.8122 31.462C25.8122 30.637 25.1372 29.962 24.3122 29.962C23.4872 29.962 22.8272 30.637 22.8272 31.462C22.8272 32.272 23.4872 32.947 24.3122 32.947ZM30.3533 32.947C32.4833 32.947 34.0433 31.507 34.0433 29.362C34.0433 27.322 32.9183 26.542 31.6733 26.287L33.5783 24.472V22.252H27.2033V24.487H30.6383L28.7633 26.422V28.387H30.2183C31.0283 28.387 31.4483 28.882 31.4483 29.467C31.4483 30.157 30.9983 30.592 30.2933 30.592C29.6033 30.592 29.1683 30.127 28.9883 29.557L26.7683 30.217C27.0383 31.357 27.9833 32.947 30.3533 32.947ZM43.1458 30.412V28.252H41.9758V22.252H38.9608L34.8808 28.597V30.412H39.4708V32.752H41.9758V30.412H43.1458ZM39.4708 24.997V28.252H37.4908L39.4708 24.997ZM51.6592 27.502C51.6592 23.857 50.5642 22.057 47.9242 22.057C45.2842 22.057 44.1892 23.857 44.1892 27.502C44.1892 31.147 45.2842 32.947 47.9242 32.947C50.5642 32.947 51.6592 31.147 51.6592 27.502ZM46.7842 27.502C46.7842 25.387 46.9942 24.457 47.9242 24.457C48.8542 24.457 49.0642 25.387 49.0642 27.502C49.0642 29.617 48.8542 30.547 47.9242 30.547C46.9942 30.547 46.7842 29.617 46.7842 27.502Z" fill="#FFBD3A"/>
</g>
<g filter="url(#filter3_d)">
<path fill-rule="evenodd" clip-rule="evenodd" d="M28.0811 49.6038L25.4394 48.6094L25.1028 49.4251C25.1028 49.4251 24.7808 50.7449 25.9352 51.1795C27.0909 51.6155 27.7563 50.4236 27.7563 50.4236L28.0811 49.6038Z" fill="black"/>
<path fill-rule="evenodd" clip-rule="evenodd" d="M30.0129 42.3862C28.871 41.9279 27.2681 42.9328 26.7139 44.1991C26.4858 44.7207 26.3821 45.2832 26.2959 45.8382C26.2549 46.1031 26.2257 46.375 26.1735 46.6393C26.1068 46.971 26.0073 47.2902 25.9086 47.6121C25.7716 48.0593 25.9225 48.1344 26.339 48.2109L27.798 48.7616C27.9468 48.8326 28.2375 49.0113 28.387 48.8444C28.5191 48.6949 28.4927 48.4223 28.581 48.2449C28.6951 48.0148 28.823 47.7804 28.9642 47.5635C29.2764 47.0781 29.8689 46.7234 30.2702 46.3048C30.7674 45.7846 31.0421 45.2631 31.1937 44.5732C31.3953 43.6546 30.9315 42.7541 30.0129 42.3862V42.3862Z" fill="black"/>
<path fill-rule="evenodd" clip-rule="evenodd" d="M31.245 46.625L33.7867 47.6285C33.7867 47.6285 33.2623 49.682 31.7102 49.0846C30.1581 48.4859 31.245 46.625 31.245 46.625V46.625Z" fill="black"/>
<path fill-rule="evenodd" clip-rule="evenodd" d="M34.8689 40.3167C35.9537 40.72 36.3904 42.4293 35.9335 43.6595C35.7451 44.165 35.4447 44.6184 35.1366 45.06C34.9892 45.27 34.8293 45.4758 34.6895 45.6935C34.5178 45.9647 34.3745 46.2505 34.2299 46.5356C34.0275 46.932 33.8739 46.8868 33.5373 46.6789L32.1709 46.1413C32.0228 46.0968 31.7057 46.0356 31.714 45.8277C31.7217 45.6399 31.9199 45.4661 31.9769 45.2895C32.0506 45.0579 32.118 44.8131 32.1639 44.5746C32.2696 44.0405 32.0972 43.4195 32.1 42.8771C32.1 42.2033 32.2578 41.6671 32.609 41.0934C33.0797 40.3243 33.9942 39.9933 34.8689 40.3167V40.3167Z" fill="black"/>
</g>
<defs>
<filter id="filter0_d" x="26" y="44" width="257" height="90" filterUnits="userSpaceOnUse" color-interpolation-filters="sRGB">
<feFlood flood-opacity="0" result="BackgroundImageFix"/>
<feColorMatrix in="SourceAlpha" type="matrix" values="0 0 0 0 0 0 0 0 0 0 0 0 0 0 0 0 0 0 127 0"/>
<feOffset dy="4"/>
<feGaussianBlur stdDeviation="2"/>
<feColorMatrix type="matrix" values="0 0 0 0 0 0 0 0 0 0 0 0 0 0 0 0 0 0 0.25 0"/>
<feBlend mode="normal" in2="BackgroundImageFix" result="effect1_dropShadow"/>
<feBlend mode="normal" in="SourceGraphic" in2="effect1_dropShadow" result="shape"/>
</filter>
<filter id="filter1_i" x="0" y="0" width="61" height="65" filterUnits="userSpaceOnUse" color-interpolation-filters="sRGB">
<feFlood flood-opacity="0" result="BackgroundImageFix"/>
<feBlend mode="normal" in="SourceGraphic" in2="BackgroundImageFix" result="shape"/>
<feColorMatrix in="SourceAlpha" type="matrix" values="0 0 0 0 0 0 0 0 0 0 0 0 0 0 0 0 0 0 127 0" result="hardAlpha"/>
<feOffset dy="6"/>
<feGaussianBlur stdDeviation="2"/>
<feComposite in2="hardAlpha" operator="arithmetic" k2="-1" k3="1"/>
<feColorMatrix type="matrix" values="0 0 0 0 0 0 0 0 0 0 0 0 0 0 0 0 0 0 0.25 0"/>
<feBlend mode="normal" in2="shape" result="effect1_innerShadow"/>
</filter>
<filter id="filter2_d" x="4.87598" y="22.0566" width="50.7833" height="18.89" filterUnits="userSpaceOnUse" color-interpolation-filters="sRGB">
<feFlood flood-opacity="0" result="BackgroundImageFix"/>
<feColorMatrix in="SourceAlpha" type="matrix" values="0 0 0 0 0 0 0 0 0 0 0 0 0 0 0 0 0 0 127 0"/>
<feOffset dy="4"/>
<feGaussianBlur stdDeviation="2"/>
<feColorMatrix type="matrix" values="0 0 0 0 0 0 0 0 0 0 0 0 0 0 0 0 0 0 0.25 0"/>
<feBlend mode="normal" in2="BackgroundImageFix" result="effect1_dropShadow"/>
<feBlend mode="normal" in="SourceGraphic" in2="effect1_dropShadow" result="shape"/>
</filter>
<filter id="filter3_d" x="21.0615" y="40.1934" width="19.0515" height="19.082" filterUnits="userSpaceOnUse" color-interpolation-filters="sRGB">
<feFlood flood-opacity="0" result="BackgroundImageFix"/>
<feColorMatrix in="SourceAlpha" type="matrix" values="0 0 0 0 0 0 0 0 0 0 0 0 0 0 0 0 0 0 127 0"/>
<feOffset dy="4"/>
<feGaussianBlur stdDeviation="2"/>
<feColorMatrix type="matrix" values="0 0 0 0 0 0 0 0 0 0 0 0 0 0 0 0 0 0 0.25 0"/>
<feBlend mode="normal" in2="BackgroundImageFix" result="effect1_dropShadow"/>
<feBlend mode="normal" in="SourceGraphic" in2="effect1_dropShadow" result="shape"/>
</filter>
</defs>
</svg>
