<svg width="330" height="97" viewBox="0 0 330 97" fill="none" xmlns="http://www.w3.org/2000/svg">
<g filter="url(#filter0_d)">
<rect x="18" y="27" width="308" height="62" fill="#539882"/>
</g>
<path d="M34.66 40H31.24V54H34.66V48.36L38.74 54H42.66L37.32 46.7L42.56 40H38.74L34.66 45.4V40ZM43.753 54H47.093V39.54H43.753V54ZM52.3469 43.5H49.0069V54H52.3469V43.5ZM50.6469 42.86C51.7069 42.86 52.5269 42.1 52.5269 41.06C52.5269 40 51.7069 39.24 50.6469 39.24C49.5869 39.24 48.7869 40 48.7869 41.06C48.7869 42.1 49.5869 42.86 50.6469 42.86ZM64.1808 43.5H60.4408L57.6008 47.72V39.54H54.2608V54H57.6008V49.1L60.5408 54H64.4608L60.8008 48.3L64.1808 43.5ZM68.8184 48.78C68.8184 51.94 71.1784 54.26 74.5184 54.26C77.8384 54.26 80.2784 51.9 80.2784 48.74C80.2784 45.56 77.8984 43.24 74.5184 43.24C71.2784 43.24 68.8184 45.6 68.8184 48.78ZM72.1584 48.78C72.1584 47.24 73.1384 46.18 74.5184 46.18C75.8784 46.18 76.9384 47.2 76.9384 48.74C76.9384 50.24 75.8984 51.32 74.5184 51.32C73.1584 51.32 72.1584 50.3 72.1584 48.78ZM84.9031 48.72C84.9031 47.32 85.7231 46.16 87.1631 46.16C88.5031 46.16 89.4231 47.16 89.4231 48.72C89.4231 50.26 88.5231 51.32 87.1631 51.32C85.8431 51.32 84.9031 50.38 84.9031 48.72ZM84.7831 43.5H81.6631V57.74H85.0031V53.2C85.2231 53.46 86.2031 54.26 87.8031 54.26C90.8431 54.26 92.7631 52 92.7631 48.74C92.7631 45.52 90.6431 43.24 87.6231 43.24C86.0831 43.24 85.0831 43.98 84.7831 44.32V43.5ZM105.429 48.78C105.429 50.18 104.609 51.34 103.169 51.34C101.829 51.34 100.909 50.34 100.909 48.78C100.909 47.24 101.809 46.18 103.169 46.18C104.489 46.18 105.429 47.12 105.429 48.78ZM105.549 54H108.669V39.54H105.329V44.3C105.109 44.04 104.129 43.24 102.529 43.24C99.4889 43.24 97.5689 45.5 97.5689 48.76C97.5689 51.98 99.6889 54.26 102.709 54.26C104.249 54.26 105.249 53.52 105.549 53.18V54ZM120.369 49.62C120.389 49.38 120.389 49.16 120.389 48.96C120.389 45.38 118.569 43.24 115.229 43.24C112.149 43.24 110.069 45.7 110.069 48.78C110.069 51.88 112.189 54.26 115.649 54.26C118.369 54.26 119.809 52.56 120.109 51.94L117.909 50.24C117.709 50.54 116.969 51.36 115.709 51.36C114.469 51.36 113.569 50.56 113.489 49.62H120.369ZM115.289 45.94C116.329 45.94 116.949 46.66 116.989 47.5H113.589C113.669 46.76 114.189 45.94 115.289 45.94ZM128.888 48.72C128.888 47.32 129.708 46.16 131.148 46.16C132.488 46.16 133.408 47.16 133.408 48.72C133.408 50.26 132.508 51.32 131.148 51.32C129.827 51.32 128.888 50.38 128.888 48.72ZM128.768 43.5H125.648V57.74H128.988V53.2C129.208 53.46 130.188 54.26 131.788 54.26C134.828 54.26 136.748 52 136.748 48.74C136.748 45.52 134.628 43.24 131.608 43.24C130.068 43.24 129.068 43.98 128.768 44.32V43.5ZM141.488 43.5H138.148V54H141.488V43.5ZM139.788 42.86C140.848 42.86 141.668 42.1 141.668 41.06C141.668 40 140.848 39.24 139.788 39.24C138.728 39.24 137.928 40 137.928 41.06C137.928 42.1 138.728 42.86 139.788 42.86ZM146.741 43.5H143.401V53.88C143.401 54.54 143.061 55 142.081 55C141.861 55 141.601 54.96 141.601 54.96V57.78C141.601 57.78 141.981 57.84 142.341 57.84C144.861 57.84 146.741 56.86 146.741 54.04V43.5ZM145.041 42.86C146.101 42.86 146.921 42.1 146.921 41.06C146.921 40 146.101 39.24 145.041 39.24C143.981 39.24 143.181 40 143.181 41.06C143.181 42.1 143.981 42.86 145.041 42.86ZM148.655 54H151.995V39.54H148.655V54ZM157.295 48.78C157.295 51.94 159.655 54.26 162.995 54.26C166.315 54.26 168.755 51.9 168.755 48.74C168.755 45.56 166.375 43.24 162.995 43.24C159.755 43.24 157.295 45.6 157.295 48.78ZM160.635 48.78C160.635 47.24 161.615 46.18 162.995 46.18C164.355 46.18 165.415 47.2 165.415 48.74C165.415 50.24 164.375 51.32 162.995 51.32C161.635 51.32 160.635 50.3 160.635 48.78ZM179.36 47.74C179.36 46.84 179.86 46.24 180.64 46.24C181.44 46.24 181.92 46.8 181.92 47.74V54H185.26V47.02C185.26 44.8 184.12 43.24 181.7 43.24C180.34 43.24 179.36 43.8 178.72 44.62C178.16 43.76 177.24 43.24 176 43.24C174.6 43.24 173.76 43.94 173.4 44.58V43.5H170.14V54H173.48V47.74C173.48 46.78 173.98 46.24 174.76 46.24C175.56 46.24 176.02 46.8 176.02 47.74V54H179.36V47.74ZM194.639 41.28H191.299V43.5H190.279V46.2H191.299V49.9C191.299 53.02 192.739 54.16 195.219 54.16C196.059 54.16 196.499 54.04 196.499 54.04V51.18C196.279 51.2 196.119 51.2 195.939 51.2C195.259 51.2 194.639 50.98 194.639 50.06V46.2H196.419V43.5H194.639V41.28ZM207.83 49.62C207.85 49.38 207.85 49.16 207.85 48.96C207.85 45.38 206.03 43.24 202.69 43.24C199.61 43.24 197.53 45.7 197.53 48.78C197.53 51.88 199.65 54.26 203.11 54.26C205.83 54.26 207.27 52.56 207.57 51.94L205.37 50.24C205.17 50.54 204.43 51.36 203.17 51.36C201.93 51.36 201.03 50.56 200.95 49.62H207.83ZM202.75 45.94C203.79 45.94 204.41 46.66 204.45 47.5H201.05C201.13 46.76 201.65 45.94 202.75 45.94ZM215.223 43.24C213.923 43.24 212.943 43.88 212.443 44.9V43.5H209.183V54H212.523V49.36C212.523 47.78 213.063 46.6 214.683 46.6C214.923 46.6 215.083 46.62 215.223 46.64V43.24ZM219.825 43.5H216.485V49.32C216.485 51.46 216.805 54.26 220.085 54.26C221.405 54.26 222.325 53.54 222.725 52.92V54H225.985V43.5H222.645V49.76C222.645 50.6 222.125 51.26 221.205 51.26C220.405 51.26 219.825 50.74 219.825 49.76V43.5ZM235.055 53.46C235.055 54.74 233.815 55.02 232.575 55.02C231.155 55.02 229.975 54.52 229.675 54.38L228.695 56.94C229.635 57.42 231.095 57.84 232.575 57.84C235.695 57.84 238.395 56.62 238.395 52.74V43.5H235.275V44.32C234.975 43.98 233.975 43.24 232.435 43.24C229.415 43.24 227.295 45.52 227.295 48.74C227.295 52 229.215 54.26 232.255 54.26C233.855 54.26 234.835 53.46 235.055 53.2V53.46ZM235.155 48.72C235.155 50.38 234.215 51.32 232.895 51.32C231.535 51.32 230.635 50.26 230.635 48.72C230.635 47.16 231.535 46.18 232.875 46.18C234.315 46.18 235.155 47.32 235.155 48.72ZM250.323 54H253.663V48.18C253.663 46.04 253.343 43.24 250.063 43.24C248.743 43.24 247.823 43.96 247.423 44.58V43.5H244.163V54H247.503V47.74C247.503 46.9 248.023 46.24 248.943 46.24C249.743 46.24 250.323 46.76 250.323 47.74V54ZM254.951 50.74C254.951 53.02 256.791 54.26 258.851 54.26C259.931 54.26 260.691 53.96 261.231 53.42L261.411 54H264.391V47.5C264.391 45.1 263.471 43.24 259.851 43.24C258.111 43.24 256.691 43.8 255.571 44.54L256.811 46.78C257.631 46.38 258.531 46.12 259.451 46.12C260.531 46.12 261.051 46.62 261.051 47.26V47.64C260.671 47.48 259.951 47.26 259.031 47.26C256.551 47.26 254.951 48.64 254.951 50.74ZM258.291 50.62C258.291 49.94 258.891 49.5 259.691 49.5C260.491 49.5 261.111 49.9 261.111 50.62C261.111 51.32 260.511 51.7 259.711 51.7C258.931 51.7 258.291 51.32 258.291 50.62ZM265.634 50.74C265.634 53.02 267.474 54.26 269.534 54.26C270.614 54.26 271.374 53.96 271.914 53.42L272.094 54H275.074V47.5C275.074 45.1 274.154 43.24 270.534 43.24C268.794 43.24 267.374 43.8 266.254 44.54L267.494 46.78C268.314 46.38 269.214 46.12 270.134 46.12C271.214 46.12 271.734 46.62 271.734 47.26V47.64C271.354 47.48 270.634 47.26 269.714 47.26C267.234 47.26 265.634 48.64 265.634 50.74ZM268.974 50.62C268.974 49.94 269.574 49.5 270.374 49.5C271.174 49.5 271.794 49.9 271.794 50.62C271.794 51.32 271.194 51.7 270.394 51.7C269.614 51.7 268.974 51.32 268.974 50.62ZM282.918 43.24C281.618 43.24 280.638 43.88 280.138 44.9V43.5H276.878V54H280.218V49.36C280.218 47.78 280.758 46.6 282.378 46.6C282.618 46.6 282.778 46.62 282.918 46.64V43.24ZM294.387 54H297.727V48.18C297.727 46.04 297.407 43.24 294.127 43.24C292.807 43.24 291.927 43.96 291.527 44.58V39.54H288.187V54H291.527V47.74C291.527 46.9 292.087 46.24 293.007 46.24C293.807 46.24 294.387 46.76 294.387 47.74V54ZM309.353 49.62C309.373 49.38 309.373 49.16 309.373 48.96C309.373 45.38 307.553 43.24 304.213 43.24C301.133 43.24 299.053 45.7 299.053 48.78C299.053 51.88 301.173 54.26 304.633 54.26C307.353 54.26 308.793 52.56 309.093 51.94L306.893 50.24C306.693 50.54 305.953 51.36 304.693 51.36C303.453 51.36 302.553 50.56 302.473 49.62H309.353ZM304.273 45.94C305.313 45.94 305.933 46.66 305.973 47.5H302.573C302.653 46.76 303.173 45.94 304.273 45.94ZM314.326 41.28H310.986V43.5H309.966V46.2H310.986V49.9C310.986 53.02 312.426 54.16 314.906 54.16C315.746 54.16 316.186 54.04 316.186 54.04V51.18C315.966 51.2 315.806 51.2 315.626 51.2C314.946 51.2 314.326 50.98 314.326 50.06V46.2H316.106V43.5H314.326V41.28ZM37 63.24C35.7 63.24 34.72 63.88 34.22 64.9V63.5H30.96V74H34.3V69.36C34.3 67.78 34.84 66.6 36.46 66.6C36.7 66.6 36.86 66.62 37 66.64V63.24ZM47.7322 69.62C47.7522 69.38 47.7522 69.16 47.7522 68.96C47.7522 65.38 45.9322 63.24 42.5922 63.24C39.5122 63.24 37.4322 65.7 37.4322 68.78C37.4322 71.88 39.5522 74.26 43.0122 74.26C45.7322 74.26 47.1722 72.56 47.4722 71.94L45.2722 70.24C45.0722 70.54 44.3322 71.36 43.0722 71.36C41.8322 71.36 40.9322 70.56 40.8522 69.62H47.7322ZM42.6522 65.94C43.6922 65.94 44.3122 66.66 44.3522 67.5H40.9522C41.0322 66.76 41.5522 65.94 42.6522 65.94ZM52.425 63.5H49.085V74H52.425V63.5ZM50.725 62.86C51.785 62.86 52.605 62.1 52.605 61.06C52.605 60 51.785 59.24 50.725 59.24C49.665 59.24 48.865 60 48.865 61.06C48.865 62.1 49.665 62.86 50.725 62.86ZM57.6989 74.26C60.0989 74.26 61.9789 72.94 61.9789 70.8C61.9789 67 57.1389 67.76 57.1389 66.44C57.1389 66.12 57.4189 65.92 57.8989 65.92C58.7189 65.92 59.3189 66.42 59.6389 66.74L61.7989 65.04C61.1789 64.2 60.0389 63.24 58.0389 63.24C55.7589 63.24 53.9989 64.46 53.9989 66.48C53.9989 70.3 58.7989 69.78 58.7989 70.98C58.7989 71.36 58.4989 71.56 57.8589 71.56C56.7989 71.56 56.0989 71.14 55.5389 70.64L53.6589 72.46C54.2789 73.3 55.6989 74.26 57.6989 74.26ZM62.6856 68.78C62.6856 71.94 65.0456 74.26 68.3856 74.26C71.7056 74.26 74.1456 71.9 74.1456 68.74C74.1456 65.56 71.7656 63.24 68.3856 63.24C65.1456 63.24 62.6856 65.6 62.6856 68.78ZM66.0256 68.78C66.0256 67.24 67.0056 66.18 68.3856 66.18C69.7456 66.18 70.8056 67.2 70.8056 68.74C70.8056 70.24 69.7656 71.32 68.3856 71.32C67.0256 71.32 66.0256 70.3 66.0256 68.78ZM78.2103 63.5H74.6303L78.2303 74H82.1103L85.6503 63.5H82.1703L80.1903 70.46L78.2103 63.5ZM96.4627 69.62C96.4827 69.38 96.4827 69.16 96.4827 68.96C96.4827 65.38 94.6627 63.24 91.3227 63.24C88.2427 63.24 86.1627 65.7 86.1627 68.78C86.1627 71.88 88.2827 74.26 91.7427 74.26C94.4627 74.26 95.9027 72.56 96.2027 71.94L94.0027 70.24C93.8027 70.54 93.0627 71.36 91.8027 71.36C90.5627 71.36 89.6627 70.56 89.5827 69.62H96.4627ZM91.3827 65.94C92.4227 65.94 93.0427 66.66 93.0827 67.5H89.6827C89.7627 66.76 90.2827 65.94 91.3827 65.94ZM103.855 63.24C102.555 63.24 101.575 63.88 101.075 64.9V63.5H97.8155V74H101.155V69.36C101.155 67.78 101.695 66.6 103.315 66.6C103.555 66.6 103.715 66.62 103.855 66.64V63.24ZM113.254 65.52V63.5H105.074V66.28H109.054L104.974 72V74H113.294V71.22H109.154L113.254 65.52ZM118.148 63.5H114.808V74H118.148V63.5ZM116.448 62.86C117.508 62.86 118.328 62.1 118.328 61.06C118.328 60 117.508 59.24 116.448 59.24C115.388 59.24 114.588 60 114.588 61.06C114.588 62.1 115.388 62.86 116.448 62.86ZM125.442 71.32C123.902 71.32 122.862 70.28 122.862 68.74C122.862 67.34 123.742 66.24 125.322 66.24C126.102 66.24 126.842 66.54 127.422 67.02L128.322 64.2C127.582 63.68 126.562 63.24 125.202 63.24C121.962 63.24 119.522 65.54 119.522 68.76C119.522 71.98 121.882 74.26 125.222 74.26C126.542 74.26 127.602 73.8 128.302 73.32L127.422 70.58C126.962 70.96 126.222 71.32 125.442 71.32ZM135.832 74H139.172V68.18C139.172 66.04 138.852 63.24 135.572 63.24C134.252 63.24 133.372 63.96 132.972 64.58V59.54H129.632V74H132.972V67.74C132.972 66.9 133.532 66.24 134.452 66.24C135.252 66.24 135.832 66.76 135.832 67.74V74ZM144.639 61.28H141.299V63.5H140.279V66.2H141.299V69.9C141.299 73.02 142.739 74.16 145.219 74.16C146.059 74.16 146.499 74.04 146.499 74.04V71.18C146.279 71.2 146.119 71.2 145.939 71.2C145.259 71.2 144.639 70.98 144.639 70.06V66.2H146.419V63.5H144.639V61.28ZM155.596 61.28H152.256V63.5H151.236V66.2H152.256V69.9C152.256 73.02 153.696 74.16 156.176 74.16C157.016 74.16 157.456 74.04 157.456 74.04V71.18C157.236 71.2 157.076 71.2 156.896 71.2C156.216 71.2 155.596 70.98 155.596 70.06V66.2H157.376V63.5H155.596V61.28ZM168.787 69.62C168.807 69.38 168.807 69.16 168.807 68.96C168.807 65.38 166.987 63.24 163.647 63.24C160.567 63.24 158.487 65.7 158.487 68.78C158.487 71.88 160.607 74.26 164.067 74.26C166.787 74.26 168.227 72.56 168.527 71.94L166.327 70.24C166.127 70.54 165.387 71.36 164.127 71.36C162.887 71.36 161.987 70.56 161.907 69.62H168.787ZM163.707 65.94C164.747 65.94 165.367 66.66 165.407 67.5H162.007C162.087 66.76 162.607 65.94 163.707 65.94ZM181.285 73.46C181.285 74.74 180.045 75.02 178.805 75.02C177.385 75.02 176.205 74.52 175.905 74.38L174.925 76.94C175.865 77.42 177.325 77.84 178.805 77.84C181.925 77.84 184.625 76.62 184.625 72.74V63.5H181.505V64.32C181.205 63.98 180.205 63.24 178.665 63.24C175.645 63.24 173.525 65.52 173.525 68.74C173.525 72 175.445 74.26 178.485 74.26C180.085 74.26 181.065 73.46 181.285 73.2V73.46ZM181.385 68.72C181.385 70.38 180.445 71.32 179.125 71.32C177.765 71.32 176.865 70.26 176.865 68.72C176.865 67.16 177.765 66.18 179.105 66.18C180.545 66.18 181.385 67.32 181.385 68.72ZM185.908 70.74C185.908 73.02 187.748 74.26 189.808 74.26C190.888 74.26 191.648 73.96 192.188 73.42L192.368 74H195.348V67.5C195.348 65.1 194.428 63.24 190.808 63.24C189.068 63.24 187.648 63.8 186.528 64.54L187.768 66.78C188.588 66.38 189.488 66.12 190.408 66.12C191.488 66.12 192.008 66.62 192.008 67.26V67.64C191.628 67.48 190.908 67.26 189.988 67.26C187.508 67.26 185.908 68.64 185.908 70.74ZM189.248 70.62C189.248 69.94 189.848 69.5 190.648 69.5C191.448 69.5 192.068 69.9 192.068 70.62C192.068 71.32 191.468 71.7 190.668 71.7C189.888 71.7 189.248 71.32 189.248 70.62ZM196.591 70.74C196.591 73.02 198.431 74.26 200.491 74.26C201.571 74.26 202.331 73.96 202.871 73.42L203.051 74H206.031V67.5C206.031 65.1 205.111 63.24 201.491 63.24C199.751 63.24 198.331 63.8 197.211 64.54L198.451 66.78C199.271 66.38 200.171 66.12 201.091 66.12C202.171 66.12 202.691 66.62 202.691 67.26V67.64C202.311 67.48 201.591 67.26 200.671 67.26C198.191 67.26 196.591 68.64 196.591 70.74ZM199.931 70.62C199.931 69.94 200.531 69.5 201.331 69.5C202.131 69.5 202.751 69.9 202.751 70.62C202.751 71.32 202.151 71.7 201.351 71.7C200.571 71.7 199.931 71.32 199.931 70.62ZM213.995 74H217.335V68.18C217.335 66.04 217.015 63.24 213.735 63.24C212.415 63.24 211.495 63.96 211.095 64.58V63.5H207.835V74H211.175V67.74C211.175 66.9 211.695 66.24 212.615 66.24C213.415 66.24 213.995 66.76 213.995 67.74V74ZM220.823 74.26C221.923 74.26 222.823 73.36 222.823 72.28C222.823 71.18 221.923 70.28 220.823 70.28C219.723 70.28 218.843 71.18 218.843 72.28C218.843 73.36 219.723 74.26 220.823 74.26Z" fill="#FFF6F0"/>
<circle cx="21" cy="21" r="21" fill="black"/>
<path d="M10.9844 20.8223H30.1105" stroke="white" stroke-width="3.2"/>
<path d="M17.446 13.7148L11.2432 20.8225L17.446 27.6072" stroke="white" stroke-width="3.2"/>
<defs>
<filter id="filter0_d" x="14" y="27" width="316" height="70" filterUnits="userSpaceOnUse" color-interpolation-filters="sRGB">
<feFlood flood-opacity="0" result="BackgroundImageFix"/>
<feColorMatrix in="SourceAlpha" type="matrix" values="0 0 0 0 0 0 0 0 0 0 0 0 0 0 0 0 0 0 127 0"/>
<feOffset dy="4"/>
<feGaussianBlur stdDeviation="2"/>
<feColorMatrix type="matrix" values="0 0 0 0 0 0 0 0 0 0 0 0 0 0 0 0 0 0 0.25 0"/>
<feBlend mode="normal" in2="BackgroundImageFix" result="effect1_dropShadow"/>
<feBlend mode="normal" in="SourceGraphic" in2="effect1_dropShadow" result="shape"/>
</filter>
</defs>
</svg>
