<svg fill="none" height="398" viewBox="0 0 820 398" width="820" xmlns="http://www.w3.org/2000/svg" xmlns:xlink="http://www.w3.org/1999/xlink"><filter id="a" color-interpolation-filters="sRGB" filterUnits="userSpaceOnUse" height="221" width="221" x="589" y="35"><feFlood flood-opacity="0" result="BackgroundImageFix"/><feColorMatrix in="SourceAlpha" type="matrix" values="0 0 0 0 0 0 0 0 0 0 0 0 0 0 0 0 0 0 127 0"/><feOffset dx="8" dy="-4"/><feGaussianBlur stdDeviation="6"/><feColorMatrix type="matrix" values="0 0 0 0 0 0 0 0 0 0 0 0 0 0 0 0 0 0 0.1 0"/><feBlend in2="BackgroundImageFix" mode="normal" result="effect1_dropShadow"/><feBlend in="SourceGraphic" in2="effect1_dropShadow" mode="normal" result="shape"/></filter><filter id="b" color-interpolation-filters="sRGB" filterUnits="userSpaceOnUse" height="279.006" width="766" x="0" y="118"><feFlood flood-opacity="0" result="BackgroundImageFix"/><feColorMatrix in="SourceAlpha" type="matrix" values="0 0 0 0 0 0 0 0 0 0 0 0 0 0 0 0 0 0 127 0"/><feOffset dx="8"/><feGaussianBlur stdDeviation="4"/><feColorMatrix type="matrix" values="0 0 0 0 0 0 0 0 0 0 0 0 0 0 0 0 0 0 0.2 0"/><feBlend in2="BackgroundImageFix" mode="normal" result="effect1_dropShadow"/><feBlend in="SourceGraphic" in2="effect1_dropShadow" mode="normal" result="shape"/></filter><g filter="url(#a)"><circle cx="691.5" cy="149.5" fill="#ffbd3a" r="98.5"/></g><g filter="url(#b)"><path d="m490.606 157.792h65.0289v231.214h-65.0289z" fill="#000"/><path d="m523.108 126 32.372 31.653h-64.745z" fill="#e3e687"/><path d="m497.93 160.531v211.856" stroke="#e3e687" stroke-dasharray="3.88 3.88" stroke-width="2"/><path d="m508.001 160.531v211.856" stroke="#e3e687" stroke-dasharray="3.88 3.88" stroke-width="2"/><path d="m518.072 160.531v211.856" stroke="#e3e687" stroke-dasharray="3.88 3.88" stroke-width="2"/><path d="m528.144 160.531v211.856" stroke="#e3e687" stroke-dasharray="3.88 3.88" stroke-width="2"/><path d="m538.216 160.531v211.856" stroke="#e3e687" stroke-dasharray="3.88 3.88" stroke-width="2"/><path d="m548.286 160.531v211.856" stroke="#e3e687" stroke-dasharray="3.88 3.88" stroke-width="2"/><path d="m426.301 191.029h64.3064v197.977h-64.3064z" fill="#000"/><path d="m458.364 160.092 32.372 31.653h-64.745z" fill="#f4e97d"/><path d="m433.185 193.043v179.345" stroke="#f4e97d" stroke-dasharray="3.88 3.88" stroke-width="2"/><path d="m443.256 193.042v179.345" stroke="#f4e97d" stroke-dasharray="3.88 3.88" stroke-width="2"/><path d="m453.328 193.042v179.345" stroke="#f4e97d" stroke-dasharray="3.88 3.88" stroke-width="2"/><path d="m463.399 193.042v179.345" stroke="#f4e97d" stroke-dasharray="3.88 3.88" stroke-width="2"/><path d="m473.471 193.042v179.345" stroke="#f4e97d" stroke-dasharray="3.88 3.88" stroke-width="2"/><path d="m483.542 193.042v179.345" stroke="#f4e97d" stroke-dasharray="3.88 3.88" stroke-width="2"/><path d="m619.942 209.093h65.0289v179.913h-65.0289z" fill="#000"/><path d="m652.599 177.796 32.372 31.653h-64.744z" fill="#a2daaf"/><path d="m627.42 211.418v160.969" stroke="#a2daaf" stroke-dasharray="3.88 3.88" stroke-width="2"/><path d="m637.492 211.418v160.969" stroke="#a2daaf" stroke-dasharray="3.88 3.88" stroke-width="2"/><path d="m647.563 211.418v160.969" stroke="#a2daaf" stroke-dasharray="3.88 3.88" stroke-width="2"/><path d="m657.635 211.418v160.969" stroke="#a2daaf" stroke-dasharray="3.88 3.88" stroke-width="2"/><path d="m667.707 211.418v160.969" stroke="#a2daaf" stroke-dasharray="3.88 3.88" stroke-width="2"/><path d="m677.777 211.418v160.969" stroke="#a2daaf" stroke-dasharray="3.88 3.88" stroke-width="2"/><path d="m684.971 264.729h65.0289v124.277h-65.0289z" fill="#000"/><path d="m717.627 233.659 32.372 31.653h-64.745z" fill="#91d7b9"/><path d="m692.449 267.282v107.274" stroke="#91d7b9" stroke-dasharray="3.88 3.88" stroke-width="2"/><path d="m702.52 267.281v107.274" stroke="#91d7b9" stroke-dasharray="3.88 3.88" stroke-width="2"/><path d="m712.591 267.281v107.274" stroke="#91d7b9" stroke-dasharray="3.88 3.88" stroke-width="2"/><path d="m722.663 267.281v107.274" stroke="#91d7b9" stroke-dasharray="3.88 3.88" stroke-width="2"/><path d="m732.735 267.281v107.274" stroke="#91d7b9" stroke-dasharray="3.88 3.88" stroke-width="2"/><path d="m742.805 267.281v107.274" stroke="#91d7b9" stroke-dasharray="3.88 3.88" stroke-width="2"/><path d="m361.271 157.792h65.0289v231.214h-65.0289z" fill="#000"/><path d="m393.619 126 32.372 31.653h-64.745z" fill="#e3e687"/><path d="m368.44 160.531v211.856" stroke="#e3e687" stroke-dasharray="3.88 3.88" stroke-width="2"/><path d="m378.512 160.531v211.856" stroke="#e3e687" stroke-dasharray="3.88 3.88" stroke-width="2"/><path d="m388.583 160.531v211.856" stroke="#e3e687" stroke-dasharray="3.88 3.88" stroke-width="2"/><path d="m398.655 160.531v211.856" stroke="#e3e687" stroke-dasharray="3.88 3.88" stroke-width="2"/><path d="m408.726 160.531v211.856" stroke="#e3e687" stroke-dasharray="3.88 3.88" stroke-width="2"/><path d="m418.797 160.531v211.856" stroke="#e3e687" stroke-dasharray="3.88 3.88" stroke-width="2"/><path d="m355.491 146.143c2.398 2.637 9.065 6.906 16.546 2.877v8.633h-10.791c-1.918-.959-5.755-4.604-5.755-11.51z" fill="#e3e687"/><path d="m369.879 131.755c2.398 2.638 9.064 6.906 16.545 2.877v8.633h-10.79c-1.919-.959-5.755-4.604-5.755-11.51z" fill="#e3e687"/><path d="m431.027 146.143c-2.398 2.637-9.064 6.906-16.546 2.877v8.633h10.791c1.919-.959 5.755-4.604 5.755-11.51z" fill="#e3e687"/><path d="m416.639 131.755c-2.398 2.638-9.064 6.906-16.546 2.877v8.633h10.791c1.919-.959 5.755-4.604 5.755-11.51z" fill="#e3e687"/><path d="m555.636 173.688h64.3064v215.318h-64.3064z" fill="#000"/><path d="m587.854 141.826 32.372 31.653h-64.745z" fill="#b2dda5"/><path d="m562.675 176.08v196.307" stroke="#b2dda5" stroke-dasharray="3.88 3.88" stroke-width="2"/><path d="m572.746 176.079v196.307" stroke="#b2dda5" stroke-dasharray="3.88 3.88" stroke-width="2"/><path d="m582.818 176.079v196.307" stroke="#b2dda5" stroke-dasharray="3.88 3.88" stroke-width="2"/><path d="m592.889 176.079v196.307" stroke="#b2dda5" stroke-dasharray="3.88 3.88" stroke-width="2"/><path d="m602.961 176.079v196.307" stroke="#b2dda5" stroke-dasharray="3.88 3.88" stroke-width="2"/><path d="m613.032 176.079v196.307" stroke="#b2dda5" stroke-dasharray="3.88 3.88" stroke-width="2"/><path d="m549.726 161.407c2.398 2.638 9.064 6.906 16.546 2.878v8.632h-10.791c-1.919-.959-5.755-4.604-5.755-11.51z" fill="#b2dda5"/><path d="m564.113 147.02c2.398 2.637 9.064 6.906 16.546 2.877v8.633h-10.791c-1.918-.959-5.755-4.604-5.755-11.51z" fill="#b2dda5"/><path d="m625.262 161.407c-2.398 2.638-9.065 6.906-16.546 2.878v8.632h10.791c1.918-.959 5.755-4.604 5.755-11.51z" fill="#b2dda5"/><path d="m610.874 147.02c-2.398 2.637-9.065 6.906-16.546 2.877v8.633h10.791c1.918-.959 5.755-4.604 5.755-11.51z" fill="#b2dda5"/><path d="m0 0h72.4121v183.444h-72.4121z" fill="#000" transform="matrix(-1 0 0 1 362.061 205.477)"/><path d="m0 0h72.4121v183.444h-72.4121z" fill="#000" transform="matrix(-1 0 0 1 217.236 205.477)"/><path d="m0 0h72.4121v165.743h-72.4121z" fill="#000" transform="matrix(-1 0 0 1 144.824 223.177)"/><path d="m0 0h72.4121v146.433h-72.4121z" fill="#000" transform="matrix(-1 0 0 1 289.648 242.487)"/><path d="m0 0h72.4121v125.514h-72.4121z" fill="#000" transform="matrix(-1 0 0 1 72.4121 263.406)"/><path d="m325.854 170.075-36.206 35.402h72.413z" fill="#d3e391"/><path d="m181.03 170.075-36.206 35.402h72.412z" fill="#b2dda5"/><path d="m108.5 188-36.5 37h73z" fill="#a2daaf"/><path d="m253.442 207.086-36.206 35.401h72.412z" fill="#c3e09b"/><path d="m36.2061 228.005-36.20608474 35.401h72.41208474z" fill="#91d7b9"/><g stroke-width="2"><path d="m354.015 208.696v166.548" stroke="#d3e391" stroke-dasharray="4.34 4.34"/><path d="m342.751 208.695v166.548" stroke="#d3e391" stroke-dasharray="4.34 4.34"/><path d="m331.487 208.695v166.548" stroke="#d3e391" stroke-dasharray="4.34 4.34"/><path d="m320.222 208.695v166.548" stroke="#d3e391" stroke-dasharray="4.34 4.34"/><path d="m308.958 208.695v166.548" stroke="#d3e391" stroke-dasharray="4.34 4.34"/><path d="m297.694 208.695v166.548" stroke="#d3e391" stroke-dasharray="4.34 4.34"/><path d="m209.19 208.696v166.548" stroke="#b2dda5" stroke-dasharray="4.34 4.34"/><path d="m197.926 208.695v166.548" stroke="#b2dda5" stroke-dasharray="4.34 4.34"/><path d="m186.662 208.695v166.548" stroke="#b2dda5" stroke-dasharray="4.34 4.34"/><path d="m175.398 208.695v166.548" stroke="#b2dda5" stroke-dasharray="4.34 4.34"/><path d="m164.134 208.695v166.548" stroke="#b2dda5" stroke-dasharray="4.34 4.34"/><path d="m152.87 208.695v166.548" stroke="#b2dda5" stroke-dasharray="4.34 4.34"/><path d="m136.778 226.085v150.477" stroke="#a2daaf" stroke-dasharray="4.34 4.34"/><path d="m125.514 226.085v150.477" stroke="#a2daaf" stroke-dasharray="4.34 4.34"/><path d="m114.25 226.085v150.477" stroke="#a2daaf" stroke-dasharray="4.34 4.34"/><path d="m102.986 226.085v150.477" stroke="#a2daaf" stroke-dasharray="4.34 4.34"/><path d="m91.7222 226.085v150.477" stroke="#a2daaf" stroke-dasharray="4.34 4.34"/><path d="m80.4578 226.085v150.477" stroke="#a2daaf" stroke-dasharray="4.34 4.34"/><path d="m281.603 245.058v132.946" stroke="#c3e09b" stroke-dasharray="4.34 4.34"/><path d="m270.339 245.057v132.946" stroke="#c3e09b" stroke-dasharray="4.34 4.34"/><path d="m259.074 245.057v132.946" stroke="#c3e09b" stroke-dasharray="4.34 4.34"/><path d="m247.811 245.057v132.946" stroke="#c3e09b" stroke-dasharray="4.34 4.34"/><path d="m236.546 245.057v132.946" stroke="#c3e09b" stroke-dasharray="4.34 4.34"/><path d="m225.282 245.057v132.946" stroke="#c3e09b" stroke-dasharray="4.34 4.34"/><path d="m64.3662 265.608v113.954" stroke="#91d7b9" stroke-dasharray="4.34 4.34"/><path d="m53.1021 265.608v113.954" stroke="#91d7b9" stroke-dasharray="4.34 4.34"/><path d="m41.8384 265.608v113.954" stroke="#91d7b9" stroke-dasharray="4.34 4.34"/><path d="m30.574 265.608v113.954" stroke="#91d7b9" stroke-dasharray="4.34 4.34"/><path d="m19.3096 265.608v113.954" stroke="#91d7b9" stroke-dasharray="4.34 4.34"/><path d="m8.04614 265.608v113.954" stroke="#91d7b9" stroke-dasharray="4.34 4.34"/></g><path d="m368.497 192.604c-2.682 2.95-10.138 7.723-18.505 3.218v9.655h12.068c2.146-1.073 6.437-5.15 6.437-12.873z" fill="#d3e391"/><path d="m352.406 176.512c-2.682 2.95-10.138 7.724-18.506 3.218v9.655h12.069c2.146-1.073 6.437-5.149 6.437-12.873z" fill="#d3e391"/><path d="m284.016 192.604c2.682 2.95 10.138 7.723 18.505 3.218v9.655h-12.068c-2.146-1.073-6.437-5.15-6.437-12.873z" fill="#d3e391"/><path d="m300.108 176.512c2.682 2.95 10.138 7.724 18.505 3.218v9.655h-12.068c-2.146-1.073-6.437-5.149-6.437-12.873z" fill="#d3e391"/><path d="m151.261 211.913c-2.682 2.95-10.138 7.724-18.506 3.218v9.655h12.069c2.146-1.072 6.437-5.149 6.437-12.873z" fill="#a2daaf"/><path d="m135.169 195.821c-2.681 2.95-10.137 7.724-18.505 3.219v9.655h12.069c2.145-1.073 6.436-5.15 6.436-12.874z" fill="#a2daaf"/><path d="m66.7795 211.913c2.682 2.95 10.1377 7.724 18.5054 3.218v9.655h-12.0687c-2.1456-1.072-6.4367-5.149-6.4367-12.873z" fill="#a2daaf"/><path d="m82.8718 195.821c2.682 2.95 10.1377 7.724 18.5052 3.219v9.655h-12.0685c-2.1456-1.073-6.4367-5.15-6.4367-12.874z" fill="#a2daaf"/></g></svg>