<svg fill="none" height="561" viewBox="0 0 1041 561" width="1041" xmlns="http://www.w3.org/2000/svg" xmlns:xlink="http://www.w3.org/1999/xlink"><filter id="a" color-interpolation-filters="sRGB" filterUnits="userSpaceOnUse" height="274.922" width="1040.92" x="0" y="285.539"><feFlood flood-opacity="0" result="BackgroundImageFix"/><feColorMatrix in="SourceAlpha" type="matrix" values="0 0 0 0 0 0 0 0 0 0 0 0 0 0 0 0 0 0 127 0"/><feOffset dx="15.4611"/><feGaussianBlur stdDeviation="7.73053"/><feColorMatrix type="matrix" values="0 0 0 0 0 0 0 0 0 0 0 0 0 0 0 0 0 0 0.1 0"/><feBlend in2="BackgroundImageFix" mode="normal" result="effect1_dropShadow"/><feBlend in="SourceGraphic" in2="effect1_dropShadow" mode="normal" result="shape"/></filter><filter id="b" color-interpolation-filters="sRGB" filterUnits="userSpaceOnUse" height="82.2354" width="83.7112" x="440.922" y="226.187"><feFlood flood-opacity="0" result="BackgroundImageFix"/><feColorMatrix in="SourceAlpha" type="matrix" values="0 0 0 0 0 0 0 0 0 0 0 0 0 0 0 0 0 0 127 0"/><feOffset dx="8" dy="-4"/><feGaussianBlur stdDeviation="3"/><feColorMatrix type="matrix" values="0 0 0 0 0 0 0 0 0 0 0 0 0 0 0 0 0 0 0.1 0"/><feBlend in2="BackgroundImageFix" mode="normal" result="effect1_dropShadow"/><feBlend in="SourceGraphic" in2="effect1_dropShadow" mode="normal" result="shape"/></filter><filter id="c" color-interpolation-filters="sRGB" filterUnits="userSpaceOnUse" height="9.74559" width="11.8339" x="480.936" y="262.335"><feFlood flood-opacity="0" result="BackgroundImageFix"/><feBlend in="SourceGraphic" in2="BackgroundImageFix" mode="normal" result="shape"/><feColorMatrix in="SourceAlpha" result="hardAlpha" type="matrix" values="0 0 0 0 0 0 0 0 0 0 0 0 0 0 0 0 0 0 127 0"/><feOffset dx="1.04417" dy="1.04417"/><feGaussianBlur stdDeviation=".696114"/><feComposite in2="hardAlpha" k2="-1" k3="1" operator="arithmetic"/><feColorMatrix type="matrix" values="0 0 0 0 0 0 0 0 0 0 0 0 0 0 0 0 0 0 0.25 0"/><feBlend in2="shape" mode="normal" result="effect1_innerShadow"/></filter><filter id="d" color-interpolation-filters="sRGB" filterUnits="userSpaceOnUse" height="18.099" width="11.8339" x="459.704" y="262.335"><feFlood flood-opacity="0" result="BackgroundImageFix"/><feBlend in="SourceGraphic" in2="BackgroundImageFix" mode="normal" result="shape"/><feColorMatrix in="SourceAlpha" result="hardAlpha" type="matrix" values="0 0 0 0 0 0 0 0 0 0 0 0 0 0 0 0 0 0 127 0"/><feOffset dx="1.04417" dy="1.04417"/><feGaussianBlur stdDeviation=".696114"/><feComposite in2="hardAlpha" k2="-1" k3="1" operator="arithmetic"/><feColorMatrix type="matrix" values="0 0 0 0 0 0 0 0 0 0 0 0 0 0 0 0 0 0 0.25 0"/><feBlend in2="shape" mode="normal" result="effect1_innerShadow"/></filter><filter id="e" color-interpolation-filters="sRGB" filterUnits="userSpaceOnUse" height="112" width="301" x="719" y="93"><feFlood flood-opacity="0" result="BackgroundImageFix"/><feColorMatrix in="SourceAlpha" type="matrix" values="0 0 0 0 0 0 0 0 0 0 0 0 0 0 0 0 0 0 127 0"/><feOffset dx="4" dy="4"/><feGaussianBlur stdDeviation="2"/><feColorMatrix type="matrix" values="0 0 0 0 0 0 0 0 0 0 0 0 0 0 0 0 0 0 0.1 0"/><feBlend in2="BackgroundImageFix" mode="normal" result="effect1_dropShadow"/><feBlend in="SourceGraphic" in2="effect1_dropShadow" mode="normal" result="shape"/></filter><filter id="f" color-interpolation-filters="sRGB" filterUnits="userSpaceOnUse" height="127" width="301" x="39" y="6"><feFlood flood-opacity="0" result="BackgroundImageFix"/><feColorMatrix in="SourceAlpha" type="matrix" values="0 0 0 0 0 0 0 0 0 0 0 0 0 0 0 0 0 0 127 0"/><feOffset dx="4" dy="4"/><feGaussianBlur stdDeviation="2"/><feColorMatrix type="matrix" values="0 0 0 0 0 0 0 0 0 0 0 0 0 0 0 0 0 0 0.1 0"/><feBlend in2="BackgroundImageFix" mode="normal" result="effect1_dropShadow"/><feBlend in="SourceGraphic" in2="effect1_dropShadow" mode="normal" result="shape"/></filter><g filter="url(#a)"><path d="m45.3205 510-45.3205 35h1010l-35.609-35z" fill="#91d7b9"/><path d="m127.5 475-38.5 35h858l-30.25-35z" fill="#a2daaf"/><path d="m224.41 440-31.41 35h700l-24.68-35z" fill="#b2dda5"/><path d="m302.218 405-25.218 35h562l-19.814-35z" fill="#c3e09b"/><path d="m351.112 370.575-19.714 34.788h439.351l-15.49-34.788z" fill="#d3e391"/><path d="m381.828 335.787-13.066 34.787h291.183l-10.266-34.787z" fill="#e3e687"/><path d="m408.373 301-7.4 34.787h164.918l-5.815-34.787z" fill="#f4e97d"/></g><g filter="url(#b)"><g fill="#000"><path d="m456.798 283.45h2.4364v22.9718h-2.4364z"/><path d="m498.027 283.45h2.4364v22.9718h-2.4364z"/><path d="m451.352 249.785 23.145-10.654 26.627 10.654v35.515h-49.772z"/><path d="m451.645 282.162h2.4364v22.6237h-2.4364z"/><path d="m492.874 282.162h2.4364v22.6237h-2.4364z"/><path d="m448.566 279.39h55.341v6.96114h-55.341z"/></g><g filter="url(#c)"><path d="m480.936 262.335h10.7898v8.70142h-10.7898z" fill="#fff"/></g><g filter="url(#d)"><path d="m459.704 262.335h10.7898v17.0548h-10.7898z" fill="#fff"/></g><path d="m441.981 253.817 32.855-14.817 34.788 14.817" stroke="#000" stroke-width="5.15368"/></g><path d="m503.5 284v-13" stroke="#000"/><path d="m500.5 284v-13" stroke="#000"/><path d="m497.5 284v-13" stroke="#000"/><path d="m494.5 284v-13" stroke="#000"/><path d="m491.5 284v-13" stroke="#000"/><path d="m488.5 284v-13" stroke="#000"/><path d="m485.5 284v-13" stroke="#000"/><path d="m482.5 284v-13" stroke="#000"/><path d="m479.5 284v-13" stroke="#000"/><path d="m476.5 284v-13" stroke="#000"/><path d="m473.5 284v-13" stroke="#000"/><path d="m470.5 284v-13" stroke="#000"/><path d="m467.5 284v-13" stroke="#000"/><path d="m464.5 284v-13" stroke="#000"/><path d="m461.5 284v-13" stroke="#000"/><path d="m458.5 284v-13" stroke="#000"/><path d="m455.5 284v-13" stroke="#000"/><path d="m452.5 284v-13" stroke="#000"/><path d="m449.5 284v-13" stroke="#000"/><path d="m448 271h57" stroke="#000"/><path d="m456 522h3v23h-3z" fill="#000"/><path d="m497 522h3v23h-3z" fill="#000"/><path d="m450.37 488.786 23.146-10.654 26.626 10.654v35.515h-49.772z" fill="#000"/><path d="m451 521h3v24h-3z" fill="#000"/><path d="m492 521h3v24h-3z" fill="#000"/><path d="m447.585 518.39h55.341v6.96114h-55.341z" fill="#000"/><path d="m479.954 501.335h10.7898v8.70142h-10.7898z" fill="#fff"/><path d="m458.723 501.335h10.7898v17.0548h-10.7898z" fill="#fff"/><g stroke="#000"><path d="m441 492.817 32.855-14.817 34.787 14.817" stroke-width="5.15368"/><path d="m502 525v-14"/><path d="m499 525v-14"/><path d="m496 525v-14"/><path d="m493 525v-14"/><path d="m490 525v-14"/><path d="m487 525v-14"/><path d="m484 525v-14"/><path d="m481 525v-14"/><path d="m478 525v-14"/><path d="m475 525v-14"/><path d="m472 525v-14"/><path d="m469 525v-14"/><path d="m466 525v-14"/><path d="m463 525v-14"/><path d="m460 525v-14"/><path d="m457 525v-14"/><path d="m454 525v-14"/><path d="m451 525v-14"/><path d="m448 525v-14"/><path d="m446.5 511h57"/></g><path d="m385 418h3v23h-3z" fill="#000"/><path d="m426 418h3v23h-3z" fill="#000"/><path d="m379.37 384.786 23.146-10.654 26.626 10.654v35.515h-49.772z" fill="#000"/><path d="m380 417h3v24h-3z" fill="#000"/><path d="m421 417h3v24h-3z" fill="#000"/><path d="m376.585 414.39h55.341v6.96114h-55.341z" fill="#000"/><path d="m408.954 397.335h10.7898v8.70142h-10.7898z" fill="#fff"/><path d="m387.723 397.335h10.7898v17.0548h-10.7898z" fill="#fff"/><path d="m370 388.817 32.855-14.817 34.787 14.817" stroke="#000" stroke-width="5.15368"/><path d="m431 421v-14" stroke="#000"/><path d="m428 421v-14" stroke="#000"/><path d="m425 421v-14" stroke="#000"/><path d="m422 421v-14" stroke="#000"/><path d="m419 421v-14" stroke="#000"/><path d="m416 421v-14" stroke="#000"/><path d="m413 421v-14" stroke="#000"/><path d="m410 421v-14" stroke="#000"/><path d="m407 421v-14" stroke="#000"/><path d="m404 421v-14" stroke="#000"/><path d="m401 421v-14" stroke="#000"/><path d="m398 421v-14" stroke="#000"/><path d="m395 421v-14" stroke="#000"/><path d="m392 421v-14" stroke="#000"/><path d="m389 421v-14" stroke="#000"/><path d="m386 421v-14" stroke="#000"/><path d="m383 421v-14" stroke="#000"/><path d="m380 421v-14" stroke="#000"/><path d="m377 421v-14" stroke="#000"/><path d="m375.5 407h57" stroke="#000"/><path d="m734 452h3v23h-3z" fill="#000"/><path d="m775 452h3v23h-3z" fill="#000"/><path d="m728.37 418.786 23.146-10.654 26.626 10.654v35.515h-49.772z" fill="#000"/><path d="m729 451h3v24h-3z" fill="#000"/><path d="m770 451h3v24h-3z" fill="#000"/><path d="m725.585 448.39h55.341v6.96114h-55.341z" fill="#000"/><path d="m757.954 431.335h10.7898v8.70142h-10.7898z" fill="#fff"/><path d="m736.723 431.335h10.7898v17.0548h-10.7898z" fill="#fff"/><path d="m719 422.817 32.855-14.817 34.787 14.817" stroke="#000" stroke-width="5.15368"/><path d="m780 455v-14" stroke="#000"/><path d="m777 455v-14" stroke="#000"/><path d="m774 455v-14" stroke="#000"/><path d="m771 455v-14" stroke="#000"/><path d="m768 455v-14" stroke="#000"/><path d="m765 455v-14" stroke="#000"/><path d="m762 455v-14" stroke="#000"/><path d="m759 455v-14" stroke="#000"/><path d="m756 455v-14" stroke="#000"/><path d="m753 455v-14" stroke="#000"/><path d="m750 455v-14" stroke="#000"/><path d="m747 455v-14" stroke="#000"/><path d="m744 455v-14" stroke="#000"/><path d="m741 455v-14" stroke="#000"/><path d="m738 455v-14" stroke="#000"/><path d="m735 455v-14" stroke="#000"/><path d="m732 455v-14" stroke="#000"/><path d="m729 455v-14" stroke="#000"/><path d="m726 455v-14" stroke="#000"/><path d="m724.5 441h57" stroke="#000"/><path d="m640.643 522h3v23h-3z" fill="#000"/><path d="m681.643 522h3v23h-3z" fill="#000"/><path d="m635.013 488.786 23.145-10.654 26.627 10.654v35.515h-49.772z" fill="#000"/><path d="m635.643 521h3v24h-3z" fill="#000"/><path d="m676.643 521h3v24h-3z" fill="#000"/><path d="m632.228 518.39h55.341v6.96114h-55.341z" fill="#000"/><path d="m664.597 501.335h10.7898v8.70142h-10.7898z" fill="#fff"/><path d="m643.365 501.335h10.7898v17.0548h-10.7898z" fill="#fff"/><path d="m625.643 492.817 32.854-14.817 34.788 14.817" stroke="#000" stroke-width="5.15368"/><path d="m686.643 525v-14" stroke="#000"/><path d="m683.643 525v-14" stroke="#000"/><path d="m680.643 525v-14" stroke="#000"/><path d="m677.643 525v-14" stroke="#000"/><path d="m674.643 525v-14" stroke="#000"/><path d="m671.643 525v-14" stroke="#000"/><path d="m668.643 525v-14" stroke="#000"/><path d="m665.643 525v-14" stroke="#000"/><path d="m662.643 525v-14" stroke="#000"/><path d="m659.643 525v-14" stroke="#000"/><path d="m656.643 525v-14" stroke="#000"/><path d="m653.643 525v-14" stroke="#000"/><path d="m650.643 525v-14" stroke="#000"/><path d="m647.643 525v-14" stroke="#000"/><path d="m644.643 525v-14" stroke="#000"/><path d="m641.643 525v-14" stroke="#000"/><path d="m638.643 525v-14" stroke="#000"/><path d="m635.643 525v-14" stroke="#000"/><path d="m632.643 525v-14" stroke="#000"/><path d="m631.143 511h57" stroke="#000"/><path d="m517.5 488.615 50-10.615 50 10.615v35.385h-100z" fill="#000"/><path d="m549.5 522h3v23h-3z" fill="#000"/><path d="m614.5 522h3v23h-3z" fill="#000"/><path d="m517.5 521h3v24h-3z" fill="#000"/><path d="m581.5 521h3v24h-3z" fill="#000"/><path d="m517.5 518h100v7h-100z" fill="#000"/><path d="m555.5 501h4v9h-4z" fill="#fff"/><path d="m548.5 501h4v9h-4z" fill="#fff"/><path d="m541.5 501h4v9h-4z" fill="#fff"/><path d="m534.5 501h4v9h-4z" fill="#fff"/><path d="m527.5 501h4v9h-4z" fill="#fff"/><path d="m520.5 501h4v9h-4z" fill="#fff"/><path d="m576.29 501h4v9h-4z" fill="#fff"/><path d="m583.29 501h4v9h-4z" fill="#fff"/><path d="m590.29 501h4v9h-4z" fill="#fff"/><path d="m597.29 501h4v9h-4z" fill="#fff"/><path d="m604.29 501h4v9h-4z" fill="#fff"/><path d="m611.29 501h4v9h-4z" fill="#fff"/><path d="m562.5 501h10.7898v17.0548h-10.7898z" fill="#fff"/><path d="m513 492 53.3-14 55.7 14" stroke="#000" stroke-width="5.15368"/><path d="m594.592 525v-14" stroke="#000"/><path d="m591.776 525v-14" stroke="#000"/><path d="m588.961 525v-14" stroke="#000"/><path d="m586.145 525v-14" stroke="#000"/><path d="m583.329 525v-14" stroke="#000"/><path d="m580.513 525v-14" stroke="#000"/><path d="m577.697 525v-14" stroke="#000"/><path d="m574.882 525v-14" stroke="#000"/><path d="m572.066 525v-14" stroke="#000"/><path d="m569.25 525v-14" stroke="#000"/><path d="m566.434 525v-14" stroke="#000"/><path d="m563.618 525v-14" stroke="#000"/><path d="m560.803 525v-14" stroke="#000"/><path d="m557.987 525v-14" stroke="#000"/><path d="m555.171 525v-14" stroke="#000"/><path d="m552.355 525v-14" stroke="#000"/><path d="m549.539 525v-14" stroke="#000"/><path d="m546.724 525v-14" stroke="#000"/><path d="m543.908 525v-14" stroke="#000"/><path d="m542.5 511h53.5" stroke="#000"/><path d="m551.5 463h30v30h-30z" fill="#000"/><path d="m566.5 453 15 10h-30z" fill="#000"/><path d="m548 466.5 18.5-13 19 13" stroke="#000" stroke-width="4"/><path d="m571.5 468h4v9h-4z" fill="#fff"/><path d="m564.5 468h4v9h-4z" fill="#fff"/><path d="m557.5 468h4v9h-4z" fill="#fff"/><g fill="#fff6f0" filter="url(#e)"><rect height="40" rx="20" width="293" x="719" y="157"/><rect height="33" rx="16.5" width="247.807" x="741.596" y="132"/><rect height="33" rx="16.5" width="184.537" x="773.231" y="109"/><rect height="33" rx="16.5" width="109.216" x="810.892" y="93"/></g><g fill="#fff5ee" filter="url(#f)"><rect height="45.7692" rx="22.8846" width="293" x="39" y="79.2305"/><rect height="37.7596" rx="18.8798" width="247.807" x="61.5967" y="50.625"/><rect height="37.7596" rx="18.8798" width="184.537" x="93.2314" y="24.3076"/><rect height="37.7596" rx="18.8798" width="109.216" x="130.892" y="6"/></g></svg>