<svg fill="none" height="41" viewBox="0 0 41 41" width="41" xmlns="http://www.w3.org/2000/svg" xmlns:xlink="http://www.w3.org/1999/xlink"><filter id="a" color-interpolation-filters="sRGB" filterUnits="userSpaceOnUse" height="45" width="41" x="0" y="0"><feFlood flood-opacity="0" result="BackgroundImageFix"/><feBlend in="SourceGraphic" in2="BackgroundImageFix" mode="normal" result="shape"/><feColorMatrix in="SourceAlpha" result="hardAlpha" type="matrix" values="0 0 0 0 0 0 0 0 0 0 0 0 0 0 0 0 0 0 127 0"/><feOffset dy="6"/><feGaussianBlur stdDeviation="2"/><feComposite in2="hardAlpha" k2="-1" k3="1" operator="arithmetic"/><feColorMatrix type="matrix" values="0 0 0 0 0 0 0 0 0 0 0 0 0 0 0 0 0 0 0.25 0"/><feBlend in2="shape" mode="normal" result="effect1_innerShadow"/></filter><filter id="b" color-interpolation-filters="sRGB" filterUnits="userSpaceOnUse" height="32.2483" width="32.1828" x="4.59692" y="8.59686"><feFlood flood-opacity="0" result="BackgroundImageFix"/><feColorMatrix in="SourceAlpha" type="matrix" values="0 0 0 0 0 0 0 0 0 0 0 0 0 0 0 0 0 0 127 0"/><feOffset dy="4"/><feGaussianBlur stdDeviation="2"/><feColorMatrix type="matrix" values="0 0 0 0 0 0 0 0 0 0 0 0 0 0 0 0 0 0 0.25 0"/><feBlend in2="BackgroundImageFix" mode="normal" result="effect1_dropShadow"/><feBlend in="SourceGraphic" in2="effect1_dropShadow" mode="normal" result="shape"/></filter><g filter="url(#a)"><circle cx="20.5" cy="20.5" fill="#539882" r="20.5"/></g><g clip-rule="evenodd" fill="#f1e6c9" fill-rule="evenodd" filter="url(#b)"><path d="m15.2041 29.1874-5.78042-2.1758-.73643 1.7848s-.70447 2.8879 1.82135 3.8388c2.5288.9541 3.9849-1.6539 3.9849-1.6539z"/><path d="m19.4324 13.3945c-2.4983-1.0027-6.0055 1.196-7.2182 3.9667-.4991 1.1412-.7258 2.3721-.9145 3.5863-.0897.5797-.1536 1.1746-.2677 1.7528-.1461.7258-.3637 1.4242-.5798 2.1287-.2997.9783.0305 1.1427.9419 1.31l3.1922 1.2051c.3256.1552.9616.5462 1.2888.1811.289-.3272.2312-.9236.4245-1.3116.2495-.5036.5295-1.0164.8383-1.4911.6832-1.0621 1.9796-1.8381 2.8575-2.754 1.0879-1.1381 1.6889-2.2793 2.0206-3.7887.4413-2.01-.5736-3.9804-2.5836-4.7853z"/><path d="m22.1255 22.6693 5.5613 2.1956s-1.1472 4.4932-4.5433 3.1861c-3.3961-1.31-1.018-5.3817-1.018-5.3817z"/><path d="m30.0574 8.8667c2.3737.8825 3.3292 4.6225 2.3295 7.3141-.4123 1.1062-1.0696 2.0982-1.7437 3.0644-.3225.4595-.6725.9099-.9783 1.3861-.3758.5934-.6893 1.2188-1.0058 1.8426-.4427.8673-.779.7684-1.5154.3135l-2.9899-1.1762c-.3241-.0974-1.0179-.2313-.9996-.6862.0167-.4108.4503-.7912.5751-1.1777.1613-.5067.3089-1.0423.4093-1.5641.2313-1.1686-.1461-2.5273-.14-3.7142 0-1.4743.3454-2.6475 1.1138-3.9027 1.0301-1.68287 3.0309-2.40713 4.945-1.6996z"/></g></svg>