<svg fill="none" height="147" viewBox="0 0 41 147" width="41" xmlns="http://www.w3.org/2000/svg" xmlns:xlink="http://www.w3.org/1999/xlink"><filter id="a" color-interpolation-filters="sRGB" filterUnits="userSpaceOnUse" height="45" width="41" x="0" y="106"><feFlood flood-opacity="0" result="BackgroundImageFix"/><feBlend in="SourceGraphic" in2="BackgroundImageFix" mode="normal" result="shape"/><feColorMatrix in="SourceAlpha" result="hardAlpha" type="matrix" values="0 0 0 0 0 0 0 0 0 0 0 0 0 0 0 0 0 0 127 0"/><feOffset dy="6"/><feGaussianBlur stdDeviation="2"/><feComposite in2="hardAlpha" k2="-1" k3="1" operator="arithmetic"/><feColorMatrix type="matrix" values="0 0 0 0 0 0 0 0 0 0 0 0 0 0 0 0 0 0 0.25 0"/><feBlend in2="shape" mode="normal" result="effect1_innerShadow"/></filter><filter id="b" color-interpolation-filters="sRGB" filterUnits="userSpaceOnUse" height="32.2483" width="32.1829" x="4.59692" y="114.597"><feFlood flood-opacity="0" result="BackgroundImageFix"/><feColorMatrix in="SourceAlpha" type="matrix" values="0 0 0 0 0 0 0 0 0 0 0 0 0 0 0 0 0 0 127 0"/><feOffset dy="4"/><feGaussianBlur stdDeviation="2"/><feColorMatrix type="matrix" values="0 0 0 0 0 0 0 0 0 0 0 0 0 0 0 0 0 0 0.25 0"/><feBlend in2="BackgroundImageFix" mode="normal" result="effect1_dropShadow"/><feBlend in="SourceGraphic" in2="effect1_dropShadow" mode="normal" result="shape"/></filter><filter id="c" color-interpolation-filters="sRGB" filterUnits="userSpaceOnUse" height="45" width="41" x="0" y="53"><feFlood flood-opacity="0" result="BackgroundImageFix"/><feBlend in="SourceGraphic" in2="BackgroundImageFix" mode="normal" result="shape"/><feColorMatrix in="SourceAlpha" result="hardAlpha" type="matrix" values="0 0 0 0 0 0 0 0 0 0 0 0 0 0 0 0 0 0 127 0"/><feOffset dy="6"/><feGaussianBlur stdDeviation="2"/><feComposite in2="hardAlpha" k2="-1" k3="1" operator="arithmetic"/><feColorMatrix type="matrix" values="0 0 0 0 0 0 0 0 0 0 0 0 0 0 0 0 0 0 0.25 0"/><feBlend in2="shape" mode="normal" result="effect1_innerShadow"/></filter><filter id="d" color-interpolation-filters="sRGB" filterUnits="userSpaceOnUse" height="32.2483" width="32.1829" x="4.59692" y="61.5969"><feFlood flood-opacity="0" result="BackgroundImageFix"/><feColorMatrix in="SourceAlpha" type="matrix" values="0 0 0 0 0 0 0 0 0 0 0 0 0 0 0 0 0 0 127 0"/><feOffset dy="4"/><feGaussianBlur stdDeviation="2"/><feColorMatrix type="matrix" values="0 0 0 0 0 0 0 0 0 0 0 0 0 0 0 0 0 0 0.25 0"/><feBlend in2="BackgroundImageFix" mode="normal" result="effect1_dropShadow"/><feBlend in="SourceGraphic" in2="effect1_dropShadow" mode="normal" result="shape"/></filter><filter id="e" color-interpolation-filters="sRGB" filterUnits="userSpaceOnUse" height="45" width="41" x="0" y="0"><feFlood flood-opacity="0" result="BackgroundImageFix"/><feBlend in="SourceGraphic" in2="BackgroundImageFix" mode="normal" result="shape"/><feColorMatrix in="SourceAlpha" result="hardAlpha" type="matrix" values="0 0 0 0 0 0 0 0 0 0 0 0 0 0 0 0 0 0 127 0"/><feOffset dy="6"/><feGaussianBlur stdDeviation="2"/><feComposite in2="hardAlpha" k2="-1" k3="1" operator="arithmetic"/><feColorMatrix type="matrix" values="0 0 0 0 0 0 0 0 0 0 0 0 0 0 0 0 0 0 0.25 0"/><feBlend in2="shape" mode="normal" result="effect1_innerShadow"/></filter><filter id="f" color-interpolation-filters="sRGB" filterUnits="userSpaceOnUse" height="32.2483" width="32.1829" x="4.59692" y="8.59686"><feFlood flood-opacity="0" result="BackgroundImageFix"/><feColorMatrix in="SourceAlpha" type="matrix" values="0 0 0 0 0 0 0 0 0 0 0 0 0 0 0 0 0 0 127 0"/><feOffset dy="4"/><feGaussianBlur stdDeviation="2"/><feColorMatrix type="matrix" values="0 0 0 0 0 0 0 0 0 0 0 0 0 0 0 0 0 0 0.25 0"/><feBlend in2="BackgroundImageFix" mode="normal" result="effect1_dropShadow"/><feBlend in="SourceGraphic" in2="effect1_dropShadow" mode="normal" result="shape"/></filter><g filter="url(#a)"><circle cx="20.5" cy="126.5" fill="#539882" r="20.5"/></g><g clip-rule="evenodd" fill="#f1e6c9" fill-rule="evenodd" filter="url(#b)"><path d="m15.2041 135.187-5.78042-2.175-.73643 1.784s-.70447 2.888 1.82135 3.839c2.5288.954 3.9849-1.654 3.9849-1.654z"/><path d="m19.4324 119.395c-2.4984-1.003-6.0056 1.195-7.2183 3.966-.499 1.141-.7257 2.372-.9144 3.587-.0898.579-.1537 1.174-.2678 1.752-.1461.726-.3637 1.425-.5797 2.129-.2998.978.0304 1.143.9418 1.31l3.1922 1.205c.3256.155.9617.546 1.2888.181.2891-.327.2313-.923.4245-1.311.2495-.504.5295-1.017.8384-1.492.6832-1.062 1.9795-1.838 2.8575-2.754 1.0879-1.138 1.6889-2.279 2.0206-3.788.4412-2.01-.5737-3.981-2.5836-4.785z"/><path d="m22.1256 128.669 5.5613 2.196s-1.1473 4.493-4.5434 3.186c-3.3961-1.31-1.0179-5.382-1.0179-5.382z"/><path d="m30.0575 114.867c2.3736.882 3.3292 4.622 2.3295 7.314-.4123 1.106-1.0697 2.098-1.7437 3.064-.3226.46-.6725.91-.9784 1.386-.3758.594-.6892 1.219-1.0057 1.843-.4428.867-.779.768-1.5155.313l-2.9898-1.176c-.3241-.097-1.0179-.231-.9997-.686.0168-.411.4504-.791.5752-1.178.1613-.506.3088-1.042.4093-1.564.2312-1.168-.1461-2.527-.14-3.714 0-1.474.3454-2.647 1.1138-3.903 1.03-1.683 3.0309-2.407 4.945-1.699z"/></g><g filter="url(#c)"><circle cx="20.5" cy="73.5" fill="#539882" r="20.5"/></g><g clip-rule="evenodd" fill="#f1e6c9" fill-rule="evenodd" filter="url(#d)"><path d="m15.2041 82.1874-5.78042-2.1758-.73643 1.7848s-.70447 2.8879 1.82135 3.8388c2.5288.9541 3.9849-1.6539 3.9849-1.6539z"/><path d="m19.4324 66.3945c-2.4984-1.0027-6.0056 1.196-7.2183 3.9667-.499 1.1412-.7257 2.3721-.9144 3.5863-.0898.5797-.1537 1.1746-.2678 1.7528-.1461.7258-.3637 1.4242-.5797 2.1287-.2998.9783.0304 1.1427.9418 1.31l3.1922 1.2051c.3256.1552.9617.5462 1.2888.1811.2891-.3272.2313-.9236.4245-1.3116.2495-.5036.5295-1.0164.8384-1.4911.6832-1.0621 1.9795-1.8381 2.8575-2.754 1.0879-1.1381 1.6889-2.2793 2.0206-3.7887.4412-2.01-.5737-3.9804-2.5836-4.7853z"/><path d="m22.1256 75.6693 5.5613 2.1956s-1.1473 4.4932-4.5434 3.1861c-3.3961-1.31-1.0179-5.3817-1.0179-5.3817z"/><path d="m30.0575 61.8667c2.3736.8825 3.3292 4.6225 2.3295 7.3141-.4123 1.1062-1.0697 2.0982-1.7437 3.0644-.3226.4595-.6725.9099-.9784 1.3861-.3758.5934-.6892 1.2188-1.0057 1.8426-.4428.8673-.779.7684-1.5155.3135l-2.9898-1.1762c-.3241-.0974-1.0179-.2313-.9997-.6862.0168-.4108.4504-.7912.5752-1.1777.1613-.5067.3088-1.0423.4093-1.5641.2312-1.1686-.1461-2.5273-.14-3.7142 0-1.4743.3454-2.6475 1.1138-3.9027 1.03-1.6829 3.0309-2.4071 4.945-1.6996z"/></g><g filter="url(#e)"><circle cx="20.5" cy="20.5" fill="#539882" r="20.5"/></g><g clip-rule="evenodd" fill="#f1e6c9" fill-rule="evenodd" filter="url(#f)"><path d="m15.2041 29.1874-5.78042-2.1758-.73643 1.7848s-.70447 2.8879 1.82135 3.8388c2.5288.9541 3.9849-1.6539 3.9849-1.6539z"/><path d="m19.4324 13.3945c-2.4984-1.0027-6.0056 1.196-7.2183 3.9667-.499 1.1412-.7257 2.3721-.9144 3.5863-.0898.5797-.1537 1.1746-.2678 1.7528-.1461.7258-.3637 1.4242-.5797 2.1287-.2998.9783.0304 1.1427.9418 1.31l3.1922 1.2051c.3256.1552.9617.5462 1.2888.1811.2891-.3272.2313-.9236.4245-1.3116.2495-.5036.5295-1.0164.8384-1.4911.6832-1.0621 1.9795-1.8381 2.8575-2.754 1.0879-1.1381 1.6889-2.2793 2.0206-3.7887.4412-2.01-.5737-3.9804-2.5836-4.7853z"/><path d="m22.1256 22.6693 5.5613 2.1956s-1.1473 4.4932-4.5434 3.1861c-3.3961-1.31-1.0179-5.3817-1.0179-5.3817z"/><path d="m30.0575 8.8667c2.3736.8825 3.3292 4.6225 2.3295 7.3141-.4123 1.1062-1.0697 2.0982-1.7437 3.0644-.3226.4595-.6725.9099-.9784 1.3861-.3758.5934-.6892 1.2188-1.0057 1.8426-.4428.8673-.779.7684-1.5155.3135l-2.9898-1.1762c-.3241-.0974-1.0179-.2313-.9997-.6862.0168-.4108.4504-.7912.5752-1.1777.1613-.5067.3088-1.0423.4093-1.5641.2312-1.1686-.1461-2.5273-.14-3.7142 0-1.4743.3454-2.6475 1.1138-3.9027 1.03-1.68287 3.0309-2.40713 4.945-1.6996z"/></g></svg>