<svg width="166" height="166" viewBox="0 0 166 166" fill="none" xmlns="http://www.w3.org/2000/svg">
<g filter="url(#filter0_d)">
<path d="M123.309 90.6706C144.059 74.2435 131.75 85.4281 152.5 69.001C144.719 48.251 110.917 24.0977 110.917 24.0977L100.542 44.8477C100.542 44.8477 112.646 80.2956 123.309 90.6706Z" fill="#89CDD3"/>
<path d="M41.7502 90.6706C21.0002 74.2435 31.75 87.4281 11 71.001C18.7812 50.251 54.1426 24.0977 54.1426 24.0977L64.5176 44.8477C64.5176 44.8477 52.4134 80.2956 41.7502 90.6706Z" fill="#89CDD3"/>
<path d="M110.917 24.097C110.917 24.097 94.7781 15.4512 87.285 16.0276C84.6913 16.0273 80.0802 16.3155 76.91 16.2097C66.8232 16.0276 53.8545 24.097 53.8545 24.097L59.042 75.972L48.667 135.916H116.104L105.729 75.972L110.917 24.097Z" fill="#A6DFE4"/>
<path d="M76.334 16.0273H87.8618V18.9093H76.334V16.0273Z" fill="#2C5291"/>
<path d="M82.0976 75.9718H74.4398L64.2295 36.7773L65.7728 24.2311C66.0503 21.9754 67.2389 19.8914 69.1112 18.3778C70.9835 16.8642 73.4079 16.0274 75.9206 16.0273H76.9924V25.2496L74.4398 36.7773L82.0976 75.9718Z" fill="#89CDD3"/>
<path d="M82.0977 75.9718H90.0024L100.542 36.7773L98.949 24.2311C98.6625 21.9754 97.4356 19.8914 95.5029 18.3778C93.5702 16.8642 91.0676 16.0274 88.4738 16.0273H87.3675V25.2496L90.0024 36.7773L82.0977 75.9718Z" fill="#89CDD3"/>
<path d="M82.3859 81.1587C81.698 81.1587 81.0383 81.351 80.5519 81.6933C80.0655 82.0356 74.0283 73.1815 74.0283 73.6656L68.8408 135.916H96.5075L90.4554 73.6656C90.4554 73.1815 84.7064 82.0356 84.22 81.6933C83.7336 81.351 83.0739 81.1587 82.3859 81.1587Z" fill="#89CDD3"/>
<path d="M56.4482 73.3789H108.323V83.7539H56.4482V73.3789Z" fill="#2C5291"/>
</g>
<defs>
<filter id="filter0_d" x="-4" y="0" width="174" height="174" filterUnits="userSpaceOnUse" color-interpolation-filters="sRGB">
<feFlood flood-opacity="0" result="BackgroundImageFix"/>
<feColorMatrix in="SourceAlpha" type="matrix" values="0 0 0 0 0 0 0 0 0 0 0 0 0 0 0 0 0 0 127 0"/>
<feOffset dy="4"/>
<feGaussianBlur stdDeviation="2"/>
<feColorMatrix type="matrix" values="0 0 0 0 0 0 0 0 0 0 0 0 0 0 0 0 0 0 0.25 0"/>
<feBlend mode="normal" in2="BackgroundImageFix" result="effect1_dropShadow"/>
<feBlend mode="normal" in="SourceGraphic" in2="effect1_dropShadow" result="shape"/>
</filter>
</defs>
</svg>
