<svg width="280" height="176" viewBox="0 0 280 176" fill="none" xmlns="http://www.w3.org/2000/svg">
<rect width="280" height="176" fill="#2C5291"/>
<mask id="mask0" mask-type="alpha" maskUnits="userSpaceOnUse" x="0" y="0" width="280" height="176">
<rect width="280" height="176" fill="#C1DD9B"/>
</mask>
<g mask="url(#mask0)">
<rect x="213.763" y="65.1211" width="157.747" height="560.88" fill="black"/>
<path d="M292.605 -12L371.134 64.7842H214.076L292.605 -12Z" fill="#E3E687"/>
<path d="M231.529 71.7656V585.687" stroke="#E3E687" stroke-width="2" stroke-dasharray="3.88 3.88"/>
<path d="M255.959 71.7656V585.687" stroke="#E3E687" stroke-width="2" stroke-dasharray="3.88 3.88"/>
<path d="M280.39 71.7656V585.687" stroke="#E3E687" stroke-width="2" stroke-dasharray="3.88 3.88"/>
<rect x="57.7695" y="145.746" width="155.995" height="480.253" fill="black"/>
<path d="M74.4702 150.631V585.686" stroke="#F4E97D" stroke-width="2" stroke-dasharray="3.88 3.88"/>
<path d="M98.8997 150.631V585.686" stroke="#F4E97D" stroke-width="2" stroke-dasharray="3.88 3.88"/>
<path d="M123.333 150.631V585.686" stroke="#F4E97D" stroke-width="2" stroke-dasharray="3.88 3.88"/>
<path d="M147.763 150.631V585.686" stroke="#F4E97D" stroke-width="2" stroke-dasharray="3.88 3.88"/>
<path d="M172.195 150.631V585.686" stroke="#F4E97D" stroke-width="2" stroke-dasharray="3.88 3.88"/>
<path d="M196.626 150.631V585.686" stroke="#F4E97D" stroke-width="2" stroke-dasharray="3.88 3.88"/>
<rect x="-99.9783" y="65.1211" width="157.747" height="560.88" fill="black"/>
<path d="M69.2361 36.8633C63.4191 43.262 47.2479 53.6162 29.0989 43.8437V64.7848H55.2753C59.9289 62.458 69.2361 53.6162 69.2361 36.8633Z" fill="#E3E687"/>
<path d="M34.3333 1.96289C28.5163 8.36157 12.3451 18.7158 -5.80394 8.94327V29.8844H20.3725C25.0261 27.5576 34.3333 18.7158 34.3333 1.96289Z" fill="#E3E687"/>
<path d="M-21.51 -12L57.0193 64.7842H-100.039L-21.51 -12Z" fill="#A2DAAF"/>
<path d="M15.1375 71.7656V585.687" stroke="#E3E687" stroke-width="2" stroke-dasharray="3.88 3.88"/>
<path d="M39.5679 71.7656V585.687" stroke="#E3E687" stroke-width="2" stroke-dasharray="3.88 3.88"/>
</g>
<g filter="url(#filter0_d)">
<rect x="65.8174" y="120.975" width="28.0447" height="17.528" fill="#91D7B9"/>
<rect x="65.8174" y="110.02" width="1.7528" height="14.0224" fill="#91D7B9"/>
<rect x="92.1094" y="110.02" width="1.7528" height="14.0224" fill="#91D7B9"/>
<rect x="89.4802" y="110.02" width="1.7528" height="14.0224" fill="#91D7B9"/>
<rect x="68.4468" y="110.02" width="1.7528" height="14.0224" fill="#91D7B9"/>
<path fill-rule="evenodd" clip-rule="evenodd" d="M62.7502 110.021L69.5423 103.01H79.6208H79.84H89.9185L96.7105 110.021H79.6208L62.7502 110.021Z" fill="#2C5291"/>
<path d="M72.3906 103.01H69.3232L62.7502 110.021H68.885L72.3906 103.01Z" fill="#F4E97D"/>
<path d="M87.2893 103.01H90.3567L96.9297 110.021H90.7949L87.2893 103.01Z" fill="#F4E97D"/>
<path d="M75.2386 103.01H72.3904L68.8848 110.021H74.3623L75.2386 103.01Z" fill="#2C5291"/>
<path d="M84.66 103.01H87.5083L91.0139 110.021H85.5364L84.66 103.01Z" fill="#2C5291"/>
<path d="M78.5254 103.01H75.2389L74.3625 110.021H78.0872L78.5254 103.01Z" fill="#F4E97D"/>
<path d="M81.5927 103.01H84.8792L85.7556 110.021H82.0309L81.5927 103.01Z" fill="#F4E97D"/>
<rect x="64.9412" y="123.166" width="29.7975" height="1.7528" fill="#35675B"/>
<path d="M70.0051 133.434H71.1211C72.4891 133.434 73.3471 132.678 73.3471 131.334C73.3471 130.02 72.4951 129.234 71.1211 129.234H70.0051V133.434ZM70.8511 132.702V129.972H71.1511C71.9491 129.972 72.4651 130.452 72.4651 131.334C72.4651 132.24 71.9491 132.702 71.1511 132.702H70.8511ZM73.9367 133.434H74.7827V131.79H75.2327L76.0487 133.434H76.9847L75.9887 131.592C76.3727 131.382 76.6247 130.992 76.6247 130.482C76.6247 129.792 76.1207 129.234 75.2027 129.234H73.9367V133.434ZM74.7827 131.076V129.966H75.1367C75.5207 129.966 75.7547 130.176 75.7547 130.512C75.7547 130.884 75.4847 131.076 75.1787 131.076H74.7827ZM77.4465 133.434H78.2925V129.234H77.4465V133.434ZM81.7388 133.434H82.5788V129.234H81.7448V132.102L79.9508 129.234H79.0928V133.434H79.9268V130.59L81.7388 133.434ZM83.3762 133.434H84.2222V131.394L85.6322 133.434H86.6042L85.0442 131.244L86.5562 129.234H85.6082L84.2222 131.154V129.234H83.3762V133.434ZM88.2436 129.156C87.4396 129.156 86.9236 129.642 86.9236 130.35C86.9236 131.694 88.7356 131.574 88.7356 132.294C88.7356 132.564 88.5496 132.726 88.2376 132.726C87.8596 132.726 87.6256 132.468 87.5116 132.192L86.7976 132.54C86.9176 132.882 87.2896 133.512 88.1896 133.512C89.0656 133.512 89.5936 132.972 89.5936 132.234C89.5936 130.932 87.7696 131.034 87.7696 130.338C87.7696 130.11 87.9376 129.936 88.2256 129.936C88.5916 129.936 88.7476 130.194 88.8376 130.392L89.5396 130.074C89.4376 129.768 89.0896 129.156 88.2436 129.156Z" fill="#539882"/>
</g>
<rect x="57.9077" y="138.117" width="156.17" height="8.47432" fill="#539882"/>
<path d="M65.5293 79.2028L65.7651 69.6899L71.2544 71.6019L65.5293 79.2028Z" fill="#ECB549"/>
<path d="M74.4484 81.65L74.1729 72.1382L79.7569 73.7525L74.4484 81.65Z" fill="#91D7B9"/>
<path d="M83.3492 84.1925L82.7939 74.6929L88.423 76.1423L83.3492 84.1925Z" fill="#ECB549"/>
<path d="M92.6743 86.4597L91.605 77.0042L97.3044 78.1463L92.6743 86.4597Z" fill="#91D7B9"/>
<path d="M102.552 87.675L100.98 78.2898L106.733 79.1268L102.552 87.675Z" fill="#ECB549"/>
<path d="M112.015 89.186L110.154 79.8538L115.93 80.5127L112.015 89.186Z" fill="#91D7B9"/>
<path d="M121.787 89.8713L119.514 80.6308L125.313 81.033L121.787 89.8713Z" fill="#ECB549"/>
<path d="M131.526 90.892L128.729 81.2172L134.397 81.8198L131.526 90.892Z" fill="#91D7B9"/>
<path d="M140.674 90.4336L137.573 81.4372L143.384 81.312L140.674 90.4336Z" fill="#ECB549"/>
<path d="M150.249 89.8231L146.886 80.9216L152.691 80.6258L150.249 89.8231Z" fill="#91D7B9"/>
<path d="M160.57 88.7401L156.731 80.0331L162.512 79.4244L160.57 88.7401Z" fill="#ECB549"/>
<path d="M170.983 87.6396L166.601 79.1925L172.332 78.22L170.983 87.6396Z" fill="#91D7B9"/>
<path d="M181.833 85.2836L176.587 77.3446L182.183 75.7742L181.833 85.2836Z" fill="#ECB549"/>
<path d="M191.518 82.8617L186.272 74.9227L191.868 73.3524L191.518 82.8617Z" fill="#91D7B9"/>
<path d="M201.45 80.3642L195.869 72.6567L201.393 70.8486L201.45 80.3642Z" fill="#ECB549"/>
<path d="M211.615 76.6963L205.669 69.2665L211.1 67.1944L211.615 76.6963Z" fill="#2C5291"/>
<path d="M57.3025 65.4805C82.5237 77.3849 149.309 94.051 214.683 65.4805" stroke="black"/>
<path d="M71.9473 121.725C71.9473 121.725 72.1388 121.789 72.1388 121.534C72.1388 121.299 72.0848 118.099 72.0749 117.582C72.0749 117.532 72.0749 117.498 72.0749 117.448C72.0749 117.001 71.7876 116.682 71.6599 116.49C71.5323 116.267 71.4046 115.341 71.4046 114.766C71.4046 114.192 71.3726 114.192 71.5003 114.128C71.628 114.064 71.4365 113.904 71.4365 113.904H70.5746C70.5746 113.904 70.4309 114.048 70.5267 114.112C70.6224 114.176 70.6224 114.239 70.6224 114.527C70.6224 114.814 70.6544 115.325 70.6224 115.708C70.5905 116.091 70.5267 116.314 70.4309 116.474C70.3351 116.634 70.0159 117.081 70.0159 117.496V121.646C70.0159 121.646 69.984 121.773 70.1755 121.773C70.3671 121.773 71.9473 121.725 71.9473 121.725Z" fill="#8B3321"/>
<path d="M70.5745 114.094C70.8823 114.133 71.194 114.133 71.5018 114.094H70.5745Z" fill="#7C2516"/>
<path d="M70.5745 114.094C70.6517 114.1 70.729 114.104 70.8062 114.107C70.8835 114.109 70.9607 114.111 71.038 114.11C71.1152 114.109 71.1928 114.11 71.2701 114.105C71.3473 114.1 71.4243 114.097 71.5018 114.094C71.4638 114.1 71.4252 114.106 71.3869 114.111C71.3486 114.116 71.3096 114.121 71.271 114.123C71.1938 114.13 71.1159 114.132 71.0383 114.134C70.9607 114.136 70.8828 114.131 70.8053 114.125C70.7277 114.12 70.6506 114.109 70.5745 114.094Z" fill="#7C2516"/>
<path opacity="0.3" d="M70.6537 114.207L70.7814 114.239V116.378L70.4302 117.08L70.3345 121.613H70.2068V117.176L70.6537 116.282V114.207Z" fill="white"/>
<path opacity="0.3" fill-rule="evenodd" clip-rule="evenodd" d="M70.6376 114.186L70.7972 114.225V116.381L70.446 117.083L70.35 121.628H70.1907V117.171L70.6376 116.277V114.186ZM70.6695 114.226V116.285L70.2226 117.179V121.596H70.3187L70.4142 117.075L70.7653 116.373V114.25L70.6695 114.226Z" fill="#7C2516"/>
<path d="M70.1753 117.494L70.2072 120.303C70.2072 120.303 71.1011 120.431 71.8672 120.303V117.494C71.8672 117.494 71.1649 117.59 70.1753 117.494Z" fill="#DA251D"/>
<path fill-rule="evenodd" clip-rule="evenodd" d="M71.8832 117.477V120.318L71.8699 120.32C71.4852 120.384 71.0689 120.384 70.7492 120.368C70.5892 120.36 70.4532 120.348 70.3572 120.338C70.3092 120.333 70.2712 120.328 70.2452 120.325C70.2322 120.324 70.2221 120.322 70.2154 120.321C70.212 120.321 70.2094 120.32 70.2077 120.32L70.2057 120.32L70.2051 120.32L70.205 120.32C70.205 120.32 70.205 120.32 70.2073 120.304L70.205 120.32L70.1915 120.318L70.1592 117.477L70.1769 117.479C70.6708 117.527 71.0931 117.527 71.3918 117.515C71.5411 117.509 71.6595 117.5 71.7406 117.492C71.7811 117.489 71.8123 117.485 71.8333 117.483C71.8438 117.482 71.8518 117.481 71.8571 117.48C71.8598 117.48 71.8618 117.479 71.8631 117.479L71.8646 117.479L71.8651 117.479L71.8832 117.477ZM71.8513 117.513C71.8472 117.513 71.8424 117.514 71.837 117.515C71.8157 117.517 71.7843 117.52 71.7435 117.524C71.662 117.532 71.543 117.541 71.393 117.547C71.0968 117.559 70.6795 117.559 70.1915 117.512L70.2231 120.29C70.2296 120.291 70.2383 120.292 70.2491 120.293C70.275 120.297 70.3128 120.301 70.3606 120.306C70.4561 120.316 70.5915 120.328 70.7508 120.336C71.0658 120.352 71.4736 120.352 71.8513 120.291V117.513Z" fill="#7C2516"/>
<path d="M71.0195 118.086L71.2232 118.499L71.6787 118.565L71.3492 118.886L71.4268 119.339L71.0195 119.125L70.6125 119.339L70.69 118.886L70.3606 118.565L70.8161 118.499L71.0195 118.086Z" fill="#FEFF02"/>
<path d="M74.3686 121.725C74.3686 121.725 74.5602 121.789 74.5602 121.534C74.5602 121.299 74.5062 118.099 74.4963 117.582C74.4963 117.532 74.4963 117.498 74.4963 117.448C74.4963 117.001 74.209 116.682 74.0813 116.49C73.9536 116.267 73.8259 115.341 73.8259 114.766C73.8259 114.192 73.794 114.192 73.9217 114.128C74.0494 114.064 73.8579 113.904 73.8579 113.904H72.9959C72.9959 113.904 72.8523 114.048 72.9481 114.112C73.0438 114.176 73.0438 114.239 73.0438 114.527C73.0438 114.814 73.0758 115.325 73.0438 115.708C73.0119 116.091 72.9481 116.314 72.8523 116.474C72.7565 116.634 72.4373 117.081 72.4373 117.496V121.646C72.4373 121.646 72.4054 121.773 72.5969 121.773C72.7885 121.773 74.3686 121.725 74.3686 121.725Z" fill="#8B3321"/>
<path d="M72.9961 114.094C73.304 114.133 73.6156 114.133 73.9235 114.094H72.9961Z" fill="#7C2516"/>
<path d="M72.9961 114.094C73.0733 114.1 73.1506 114.104 73.2279 114.107C73.3051 114.109 73.3824 114.111 73.4596 114.11C73.5369 114.109 73.6144 114.11 73.6917 114.105C73.7689 114.1 73.8459 114.097 73.9235 114.094C73.8855 114.1 73.8468 114.106 73.8085 114.111C73.7702 114.116 73.7313 114.121 73.6927 114.123C73.6154 114.13 73.5375 114.132 73.4599 114.134C73.3824 114.136 73.3045 114.131 73.2269 114.125C73.1494 114.12 73.0723 114.109 72.9961 114.094Z" fill="#7C2516"/>
<path opacity="0.3" d="M73.0751 114.207L73.2028 114.239V116.378L72.8516 117.08L72.7559 121.613H72.6282V117.176L73.0751 116.282V114.207Z" fill="white"/>
<path opacity="0.3" fill-rule="evenodd" clip-rule="evenodd" d="M73.0587 114.186L73.2184 114.225V116.381L72.8671 117.083L72.7711 121.628H72.6118V117.171L73.0587 116.277V114.186ZM73.0907 114.226V116.285L72.6437 117.179V121.596H72.7398L72.8354 117.075L73.1864 116.373V114.25L73.0907 114.226Z" fill="#7C2516"/>
<path d="M72.5969 117.494L72.6288 120.303C72.6288 120.303 73.5227 120.431 74.2888 120.303V117.494C74.2888 117.494 73.5865 117.59 72.5969 117.494Z" fill="#DA251D"/>
<path fill-rule="evenodd" clip-rule="evenodd" d="M74.3046 117.477V120.318L74.2913 120.32C73.9066 120.384 73.4903 120.384 73.1705 120.368C73.0106 120.36 72.8746 120.348 72.7786 120.338C72.7306 120.333 72.6926 120.328 72.6666 120.325C72.6536 120.324 72.6435 120.322 72.6368 120.321C72.6334 120.321 72.6308 120.32 72.629 120.32L72.6271 120.32L72.6264 120.32L72.6264 120.32C72.6264 120.32 72.6264 120.32 72.6287 120.304L72.6264 120.32L72.6128 120.318L72.5806 117.477L72.5983 117.479C73.0922 117.527 73.5145 117.527 73.8132 117.515C73.9625 117.509 74.0809 117.5 74.162 117.492C74.2025 117.489 74.2337 117.485 74.2547 117.483C74.2652 117.482 74.2732 117.481 74.2785 117.48C74.2812 117.48 74.2832 117.479 74.2845 117.479L74.286 117.479L74.2865 117.479L74.3046 117.477ZM74.2727 117.513C74.2686 117.513 74.2638 117.514 74.2584 117.515C74.2371 117.517 74.2057 117.52 74.1649 117.524C74.0834 117.532 73.9644 117.541 73.8144 117.547C73.5181 117.559 73.1009 117.559 72.6129 117.512L72.6445 120.29C72.6509 120.291 72.6597 120.292 72.6705 120.293C72.6964 120.297 72.7342 120.301 72.7819 120.306C72.8775 120.316 73.0129 120.328 73.1721 120.336C73.4871 120.352 73.8949 120.352 74.2727 120.291V117.513Z" fill="#7C2516"/>
<path d="M73.4409 118.086L73.6445 118.499L74.1001 118.565L73.7706 118.886L73.8482 119.339L73.4409 119.125L73.0339 119.339L73.1114 118.886L72.782 118.565L73.2375 118.499L73.4409 118.086Z" fill="#FEFF02"/>
<path d="M73.1577 122.934C73.1577 122.934 73.3492 122.998 73.3492 122.743C73.3492 122.508 73.2953 119.308 73.2854 118.791C73.2854 118.741 73.2854 118.707 73.2854 118.657C73.2854 118.21 72.9981 117.891 72.8704 117.699C72.7427 117.476 72.615 116.55 72.615 115.975C72.615 115.401 72.5831 115.401 72.7108 115.337C72.8385 115.273 72.6469 115.113 72.6469 115.113H71.785C71.785 115.113 71.6414 115.257 71.7371 115.321C71.8329 115.385 71.8329 115.448 71.8329 115.736C71.8329 116.023 71.8648 116.534 71.8329 116.917C71.801 117.3 71.7371 117.523 71.6414 117.683C71.5456 117.843 71.2264 118.29 71.2264 118.705V122.855C71.2264 122.855 71.1944 122.982 71.386 122.982C71.5775 122.982 73.1577 122.934 73.1577 122.934Z" fill="#8B3321"/>
<path d="M71.7849 115.307C72.0928 115.346 72.4044 115.346 72.7123 115.307H71.7849Z" fill="#7C2516"/>
<path d="M71.7849 115.307C71.8622 115.313 71.9394 115.317 72.0167 115.32C72.0939 115.322 72.1712 115.324 72.2484 115.323C72.3257 115.322 72.4033 115.323 72.4805 115.318C72.5578 115.313 72.6347 115.31 72.7123 115.307C72.6743 115.313 72.6357 115.319 72.5974 115.324C72.559 115.329 72.5201 115.333 72.4815 115.336C72.4042 115.343 72.3263 115.345 72.2488 115.347C72.1712 115.348 72.0933 115.344 72.0157 115.338C71.9382 115.332 71.8611 115.322 71.7849 115.307Z" fill="#7C2516"/>
<path opacity="0.3" d="M71.8644 115.418L71.9921 115.45V117.589L71.6409 118.291L71.5452 122.824H71.4175V118.387L71.8644 117.493V115.418Z" fill="white"/>
<path opacity="0.3" fill-rule="evenodd" clip-rule="evenodd" d="M71.8485 115.395L72.0081 115.434V117.59L71.6569 118.292L71.5609 122.837H71.4016V118.38L71.8485 117.486V115.395ZM71.8805 115.435V117.494L71.4335 118.388V122.805H71.5296L71.6252 118.284L71.9762 117.582V115.459L71.8805 115.435Z" fill="#7C2516"/>
<path d="M71.386 118.705L71.4179 121.514C71.4179 121.514 72.3118 121.642 73.0779 121.514V118.705C73.0779 118.705 72.3756 118.801 71.386 118.705Z" fill="#DA251D"/>
<path fill-rule="evenodd" clip-rule="evenodd" d="M73.0937 118.686V121.527L73.0803 121.529C72.6956 121.593 72.2793 121.593 71.9596 121.577C71.7997 121.569 71.6637 121.557 71.5677 121.547C71.5197 121.542 71.4817 121.537 71.4556 121.534C71.4426 121.533 71.4326 121.531 71.4258 121.53C71.4224 121.53 71.4198 121.529 71.4181 121.529L71.4161 121.529L71.4155 121.529L71.4155 121.529C71.4155 121.529 71.4155 121.529 71.4177 121.513L71.4155 121.529L71.4019 121.527L71.3696 118.686L71.3873 118.688C71.8813 118.736 72.3035 118.736 72.6022 118.724C72.7516 118.718 72.87 118.709 72.951 118.701C72.9916 118.698 73.0228 118.694 73.0438 118.692C73.0543 118.691 73.0623 118.69 73.0676 118.689C73.0703 118.689 73.0723 118.688 73.0736 118.688L73.0751 118.688L73.0755 118.688L73.0937 118.686ZM73.0617 118.722C73.0576 118.722 73.0529 118.723 73.0474 118.724C73.0262 118.726 72.9948 118.729 72.954 118.733C72.8724 118.741 72.7534 118.75 72.6035 118.756C72.3072 118.768 71.89 118.768 71.402 118.721L71.4335 121.499C71.44 121.5 71.4487 121.501 71.4596 121.502C71.4854 121.506 71.5232 121.51 71.571 121.515C71.6665 121.525 71.8019 121.537 71.9612 121.545C72.2762 121.561 72.684 121.561 73.0617 121.5V118.722Z" fill="#7C2516"/>
<path d="M72.2299 119.297L72.4336 119.71L72.8891 119.776L72.5597 120.097L72.6373 120.55L72.2299 120.336L71.8229 120.55L71.9005 120.097L71.571 119.776L72.0266 119.71L72.2299 119.297Z" fill="#FEFF02"/>
<path d="M76.7895 122.934C76.7895 122.934 76.9811 122.998 76.9811 122.743C76.9811 122.508 76.9271 119.308 76.9172 118.791C76.9172 118.741 76.9172 118.707 76.9172 118.657C76.9172 118.21 76.6299 117.891 76.5022 117.699C76.3745 117.476 76.2468 116.55 76.2468 115.975C76.2468 115.401 76.2149 115.401 76.3426 115.337C76.4703 115.273 76.2788 115.113 76.2788 115.113H75.4168C75.4168 115.113 75.2732 115.257 75.369 115.321C75.4647 115.385 75.4647 115.448 75.4647 115.736C75.4647 116.023 75.4967 116.534 75.4647 116.917C75.4328 117.3 75.369 117.523 75.2732 117.683C75.1774 117.843 74.8582 118.29 74.8582 118.705V122.855C74.8582 122.855 74.8263 122.982 75.0178 122.982C75.2093 122.982 76.7895 122.934 76.7895 122.934Z" fill="#8B3321"/>
<path d="M75.417 115.307C75.7249 115.346 76.0365 115.346 76.3444 115.307H75.417Z" fill="#7C2516"/>
<path d="M75.417 115.307C75.4942 115.313 75.5715 115.317 75.6488 115.32C75.726 115.322 75.8033 115.324 75.8805 115.323C75.9578 115.322 76.0353 115.323 76.1126 115.318C76.1898 115.313 76.2668 115.31 76.3444 115.307C76.3064 115.313 76.2677 115.319 76.2294 115.324C76.1911 115.329 76.1522 115.333 76.1136 115.336C76.0363 115.343 75.9584 115.345 75.8808 115.347C75.8033 115.348 75.7254 115.344 75.6478 115.338C75.5703 115.332 75.4932 115.322 75.417 115.307Z" fill="#7C2516"/>
<path opacity="0.3" d="M75.4962 115.418L75.6239 115.45V117.589L75.2728 118.291L75.177 122.824H75.0493V118.387L75.4962 117.493V115.418Z" fill="white"/>
<path opacity="0.3" fill-rule="evenodd" clip-rule="evenodd" d="M75.4806 115.395L75.6402 115.434V117.59L75.289 118.292L75.193 122.837H75.0337V118.38L75.4806 117.486V115.395ZM75.5125 115.435V117.494L75.0656 118.388V122.805H75.1617L75.2572 118.284L75.6083 117.582V115.459L75.5125 115.435Z" fill="#7C2516"/>
<path d="M75.0181 118.705L75.05 121.514C75.05 121.514 75.9438 121.642 76.71 121.514V118.705C76.71 118.705 76.0077 118.801 75.0181 118.705Z" fill="#DA251D"/>
<path fill-rule="evenodd" clip-rule="evenodd" d="M76.7258 118.686V121.527L76.7124 121.529C76.3277 121.593 75.9114 121.593 75.5917 121.577C75.4317 121.569 75.2958 121.557 75.1998 121.547C75.1518 121.542 75.1138 121.537 75.0877 121.534C75.0747 121.533 75.0647 121.531 75.0579 121.53C75.0545 121.53 75.0519 121.529 75.0502 121.529L75.0482 121.529L75.0476 121.529L75.0476 121.529C75.0475 121.529 75.0475 121.529 75.0498 121.513L75.0476 121.529L75.034 121.527L75.0017 118.686L75.0194 118.688C75.5134 118.736 75.9356 118.736 76.2343 118.724C76.3836 118.718 76.5021 118.709 76.5831 118.701C76.6237 118.698 76.6548 118.694 76.6759 118.692C76.6864 118.691 76.6943 118.69 76.6997 118.689C76.7023 118.689 76.7043 118.688 76.7057 118.688L76.7072 118.688L76.7076 118.688L76.7258 118.686ZM76.6938 118.722C76.6897 118.722 76.685 118.723 76.6795 118.724C76.6583 118.726 76.6268 118.729 76.5861 118.733C76.5045 118.741 76.3855 118.75 76.2356 118.756C75.9393 118.768 75.5221 118.768 75.034 118.721L75.0656 121.499C75.0721 121.5 75.0808 121.501 75.0917 121.502C75.1175 121.506 75.1553 121.51 75.2031 121.515C75.2986 121.525 75.434 121.537 75.5933 121.545C75.9083 121.561 76.3161 121.561 76.6938 121.5V118.722Z" fill="#7C2516"/>
<path d="M75.862 119.297L76.0657 119.71L76.5212 119.776L76.1918 120.097L76.2694 120.55L75.862 120.336L75.455 120.55L75.5326 120.097L75.2031 119.776L75.6587 119.71L75.862 119.297Z" fill="#FEFF02"/>
<path d="M90.1064 121.725C90.1064 121.725 90.298 121.789 90.298 121.534C90.298 121.299 90.244 118.099 90.2341 117.582C90.2341 117.532 90.2341 117.498 90.2341 117.448C90.2341 117.001 89.9468 116.682 89.8191 116.49C89.6914 116.267 89.5637 115.341 89.5637 114.766C89.5637 114.192 89.5318 114.192 89.6595 114.128C89.7872 114.064 89.5957 113.904 89.5957 113.904H88.7337C88.7337 113.904 88.5901 114.048 88.6859 114.112C88.7816 114.176 88.7816 114.239 88.7816 114.527C88.7816 114.814 88.8136 115.325 88.7816 115.708C88.7497 116.091 88.6859 116.314 88.5901 116.474C88.4943 116.634 88.1751 117.081 88.1751 117.496V121.646C88.1751 121.646 88.1432 121.773 88.3347 121.773C88.5262 121.773 90.1064 121.725 90.1064 121.725Z" fill="#8B3321"/>
<path d="M88.7336 114.094C89.0415 114.133 89.3531 114.133 89.661 114.094H88.7336Z" fill="#7C2516"/>
<path d="M88.7336 114.094C88.8109 114.1 88.8881 114.104 88.9654 114.107C89.0427 114.109 89.1199 114.111 89.1972 114.11C89.2744 114.109 89.352 114.11 89.4292 114.105C89.5065 114.1 89.5834 114.097 89.661 114.094C89.623 114.1 89.5844 114.106 89.5461 114.111C89.5078 114.116 89.4688 114.121 89.4302 114.123C89.3529 114.13 89.2751 114.132 89.1975 114.134C89.1199 114.136 89.042 114.131 88.9644 114.125C88.8869 114.12 88.8098 114.109 88.7336 114.094Z" fill="#7C2516"/>
<path opacity="0.3" d="M88.8129 114.207L88.9406 114.239V116.378L88.5894 117.08L88.4937 121.613H88.366V117.176L88.8129 116.282V114.207Z" fill="white"/>
<path opacity="0.3" fill-rule="evenodd" clip-rule="evenodd" d="M88.7968 114.186L88.9564 114.225V116.381L88.6052 117.083L88.5091 121.628H88.3499V117.171L88.7968 116.277V114.186ZM88.8287 114.226V116.285L88.3818 117.179V121.596H88.4779L88.5734 117.075L88.9245 116.373V114.25L88.8287 114.226Z" fill="#7C2516"/>
<path d="M88.335 117.494L88.3669 120.303C88.3669 120.303 89.2607 120.431 90.0269 120.303V117.494C90.0269 117.494 89.3246 117.59 88.335 117.494Z" fill="#DA251D"/>
<path fill-rule="evenodd" clip-rule="evenodd" d="M90.0426 117.477V120.318L90.0293 120.32C89.6446 120.384 89.2283 120.384 88.9086 120.368C88.7486 120.36 88.6127 120.348 88.5167 120.338C88.4687 120.333 88.4306 120.328 88.4046 120.325C88.3916 120.324 88.3816 120.322 88.3748 120.321C88.3714 120.321 88.3688 120.32 88.3671 120.32L88.3651 120.32L88.3645 120.32L88.3644 120.32C88.3644 120.32 88.3644 120.32 88.3667 120.304L88.3644 120.32L88.3509 120.318L88.3186 117.477L88.3363 117.479C88.8303 117.527 89.2525 117.527 89.5512 117.515C89.7005 117.509 89.819 117.5 89.9 117.492C89.9405 117.489 89.9717 117.485 89.9927 117.483C90.0033 117.482 90.0112 117.481 90.0166 117.48C90.0192 117.48 90.0212 117.479 90.0226 117.479L90.0241 117.479L90.0245 117.479L90.0426 117.477ZM90.0107 117.513C90.0066 117.513 90.0018 117.514 89.9964 117.515C89.9751 117.517 89.9437 117.52 89.9029 117.524C89.8214 117.532 89.7024 117.541 89.5525 117.547C89.2562 117.559 88.839 117.559 88.3509 117.512L88.3825 120.29C88.389 120.291 88.3977 120.292 88.4086 120.293C88.4344 120.297 88.4722 120.301 88.52 120.306C88.6155 120.316 88.7509 120.328 88.9102 120.336C89.2252 120.352 89.633 120.352 90.0107 120.291V117.513Z" fill="#7C2516"/>
<path d="M89.1787 118.086L89.3823 118.499L89.8379 118.565L89.5084 118.886L89.586 119.339L89.1787 119.125L88.7716 119.339L88.8492 118.886L88.5198 118.565L88.9753 118.499L89.1787 118.086Z" fill="#FEFF02"/>
<path d="M91.3171 122.934C91.3171 122.934 91.5087 122.998 91.5087 122.743C91.5087 122.508 91.4547 119.308 91.4448 118.791C91.4448 118.741 91.4448 118.707 91.4448 118.657C91.4448 118.21 91.1575 117.891 91.0298 117.699C90.9021 117.476 90.7744 116.55 90.7744 115.975C90.7744 115.401 90.7425 115.401 90.8702 115.337C90.9979 115.273 90.8064 115.113 90.8064 115.113H89.9444C89.9444 115.113 89.8008 115.257 89.8966 115.321C89.9923 115.385 89.9923 115.448 89.9923 115.736C89.9923 116.023 90.0242 116.534 89.9923 116.917C89.9604 117.3 89.8966 117.523 89.8008 117.683C89.705 117.843 89.3858 118.29 89.3858 118.705V122.855C89.3858 122.855 89.3539 122.982 89.5454 122.982C89.7369 122.982 91.3171 122.934 91.3171 122.934Z" fill="#8B3321"/>
<path d="M89.9443 115.307C90.2522 115.346 90.5638 115.346 90.8717 115.307H89.9443Z" fill="#7C2516"/>
<path d="M89.9443 115.307C90.0216 115.313 90.0988 115.317 90.1761 115.32C90.2534 115.322 90.3306 115.324 90.4079 115.323C90.4851 115.322 90.5627 115.323 90.6399 115.318C90.7172 115.313 90.7941 115.31 90.8717 115.307C90.8337 115.313 90.7951 115.319 90.7568 115.324C90.7185 115.329 90.6795 115.333 90.6409 115.336C90.5636 115.343 90.4857 115.345 90.4082 115.347C90.3306 115.348 90.2527 115.344 90.1751 115.338C90.0976 115.332 90.0205 115.322 89.9443 115.307Z" fill="#7C2516"/>
<path opacity="0.3" d="M90.0238 115.418L90.1515 115.45V117.589L89.8004 118.291L89.7046 122.824H89.5769V118.387L90.0238 117.493V115.418Z" fill="white"/>
<path opacity="0.3" fill-rule="evenodd" clip-rule="evenodd" d="M90.008 115.395L90.1676 115.434V117.59L89.8163 118.292L89.7203 122.837H89.561V118.38L90.008 117.486V115.395ZM90.0399 115.435V117.494L89.593 118.388V122.805H89.6891L89.7846 118.284L90.1356 117.582V115.459L90.0399 115.435Z" fill="#7C2516"/>
<path d="M89.5454 118.705L89.5773 121.514C89.5773 121.514 90.4712 121.642 91.2373 121.514V118.705C91.2373 118.705 90.535 118.801 89.5454 118.705Z" fill="#DA251D"/>
<path fill-rule="evenodd" clip-rule="evenodd" d="M91.2531 118.686V121.527L91.2398 121.529C90.8551 121.593 90.4388 121.593 90.119 121.577C89.9591 121.569 89.8231 121.557 89.7271 121.547C89.6791 121.542 89.6411 121.537 89.6151 121.534C89.602 121.533 89.592 121.531 89.5852 121.53C89.5818 121.53 89.5793 121.529 89.5775 121.529L89.5756 121.529L89.5749 121.529L89.5749 121.529C89.5749 121.529 89.5749 121.529 89.5771 121.513L89.5749 121.529L89.5613 121.527L89.5291 118.686L89.5468 118.688C90.0407 118.736 90.4629 118.736 90.7616 118.724C90.911 118.718 91.0294 118.709 91.1105 118.701C91.151 118.698 91.1822 118.694 91.2032 118.692C91.2137 118.691 91.2217 118.69 91.227 118.689C91.2297 118.689 91.2317 118.688 91.233 118.688L91.2345 118.688L91.235 118.688L91.2531 118.686ZM91.2212 118.722C91.2171 118.722 91.2123 118.723 91.2068 118.724C91.1856 118.726 91.1542 118.729 91.1134 118.733C91.0318 118.741 90.9129 118.75 90.7629 118.756C90.4666 118.768 90.0494 118.768 89.5614 118.721L89.5929 121.499C89.5994 121.5 89.6082 121.501 89.619 121.502C89.6449 121.506 89.6827 121.51 89.7304 121.515C89.826 121.525 89.9613 121.537 90.1206 121.545C90.4356 121.561 90.8434 121.561 91.2212 121.5V118.722Z" fill="#7C2516"/>
<path d="M90.3894 119.297L90.593 119.71L91.0486 119.776L90.7191 120.097L90.7967 120.55L90.3894 120.336L89.9823 120.55L90.0599 120.097L89.7305 119.776L90.186 119.71L90.3894 119.297Z" fill="#FEFF02"/>
<path d="M84.0535 121.725C84.0535 121.725 84.245 121.789 84.245 121.534C84.245 121.299 84.191 118.099 84.1811 117.582C84.1811 117.532 84.1811 117.498 84.1811 117.448C84.1811 117.001 83.8938 116.682 83.7661 116.49C83.6385 116.267 83.5108 115.341 83.5108 114.766C83.5108 114.192 83.4788 114.192 83.6065 114.128C83.7342 114.064 83.5427 113.904 83.5427 113.904H82.6808C82.6808 113.904 82.5371 114.048 82.6329 114.112C82.7286 114.176 82.7286 114.239 82.7286 114.527C82.7286 114.814 82.7606 115.325 82.7286 115.708C82.6967 116.091 82.6329 116.314 82.5371 116.474C82.4413 116.634 82.1221 117.081 82.1221 117.496V121.646C82.1221 121.646 82.0902 121.773 82.2817 121.773C82.4733 121.773 84.0535 121.725 84.0535 121.725Z" fill="#8B3321"/>
<path d="M82.6807 114.094C82.9885 114.133 83.3002 114.133 83.608 114.094H82.6807Z" fill="#7C2516"/>
<path d="M82.6807 114.094C82.7579 114.1 82.8352 114.104 82.9124 114.107C82.9897 114.109 83.0669 114.111 83.1442 114.11C83.2214 114.109 83.299 114.11 83.3763 114.105C83.4535 114.1 83.5305 114.097 83.608 114.094C83.57 114.1 83.5314 114.106 83.4931 114.111C83.4548 114.116 83.4159 114.121 83.3772 114.123C83.3 114.13 83.2221 114.132 83.1445 114.134C83.0669 114.136 82.989 114.131 82.9115 114.125C82.8339 114.12 82.7568 114.109 82.6807 114.094Z" fill="#7C2516"/>
<path opacity="0.3" d="M82.7599 114.207L82.8876 114.239V116.378L82.5364 117.08L82.4407 121.613H82.313V117.176L82.7599 116.282V114.207Z" fill="white"/>
<path opacity="0.3" fill-rule="evenodd" clip-rule="evenodd" d="M82.7436 114.186L82.9032 114.225V116.381L82.5519 117.083L82.4559 121.628H82.2966V117.171L82.7436 116.277V114.186ZM82.7755 114.226V116.285L82.3286 117.179V121.596H82.4247L82.5202 117.075L82.8712 116.373V114.25L82.7755 114.226Z" fill="#7C2516"/>
<path d="M82.2817 117.494L82.3137 120.303C82.3137 120.303 83.2075 120.431 83.9737 120.303V117.494C83.9737 117.494 83.2714 117.59 82.2817 117.494Z" fill="#DA251D"/>
<path fill-rule="evenodd" clip-rule="evenodd" d="M83.9894 117.477V120.318L83.9761 120.32C83.5914 120.384 83.1751 120.384 82.8554 120.368C82.6954 120.36 82.5594 120.348 82.4634 120.338C82.4154 120.333 82.3774 120.328 82.3514 120.325C82.3384 120.324 82.3283 120.322 82.3216 120.321C82.3182 120.321 82.3156 120.32 82.3139 120.32L82.3119 120.32L82.3113 120.32L82.3112 120.32C82.3112 120.32 82.3112 120.32 82.3135 120.304L82.3112 120.32L82.2977 120.318L82.2654 117.477L82.2831 117.479C82.777 117.527 83.1993 117.527 83.498 117.515C83.6473 117.509 83.7657 117.5 83.8468 117.492C83.8873 117.489 83.9185 117.485 83.9395 117.483C83.95 117.482 83.958 117.481 83.9633 117.48C83.966 117.48 83.968 117.479 83.9693 117.479L83.9708 117.479L83.9713 117.479L83.9894 117.477ZM83.9575 117.513C83.9534 117.513 83.9486 117.514 83.9432 117.515C83.9219 117.517 83.8905 117.52 83.8497 117.524C83.7682 117.532 83.6492 117.541 83.4992 117.547C83.203 117.559 82.7858 117.559 82.2977 117.512L82.3293 120.29C82.3358 120.291 82.3445 120.292 82.3553 120.293C82.3812 120.297 82.419 120.301 82.4668 120.306C82.5623 120.316 82.6977 120.328 82.857 120.336C83.172 120.352 83.5798 120.352 83.9575 120.291V117.513Z" fill="#7C2516"/>
<path d="M83.1257 118.086L83.3294 118.499L83.7849 118.565L83.4555 118.886L83.533 119.339L83.1257 119.125L82.7187 119.339L82.7962 118.886L82.4668 118.565L82.9223 118.499L83.1257 118.086Z" fill="#FEFF02"/>
<path d="M82.8428 122.934C82.8428 122.934 83.0343 122.998 83.0343 122.743C83.0343 122.508 82.9803 119.308 82.9705 118.791C82.9705 118.741 82.9705 118.707 82.9705 118.657C82.9705 118.21 82.6831 117.891 82.5555 117.699C82.4278 117.476 82.3001 116.55 82.3001 115.975C82.3001 115.401 82.2681 115.401 82.3958 115.337C82.5235 115.273 82.332 115.113 82.332 115.113H81.4701C81.4701 115.113 81.3264 115.257 81.4222 115.321C81.518 115.385 81.518 115.448 81.518 115.736C81.518 116.023 81.5499 116.534 81.518 116.917C81.486 117.3 81.4222 117.523 81.3264 117.683C81.2306 117.843 80.9114 118.29 80.9114 118.705V122.855C80.9114 122.855 80.8795 122.982 81.071 122.982C81.2626 122.982 82.8428 122.934 82.8428 122.934Z" fill="#8B3321"/>
<path d="M81.47 115.307C81.7778 115.346 82.0895 115.346 82.3973 115.307H81.47Z" fill="#7C2516"/>
<path d="M81.47 115.307C81.5472 115.313 81.6245 115.317 81.7017 115.32C81.779 115.322 81.8562 115.324 81.9335 115.323C82.0107 115.322 82.0883 115.323 82.1656 115.318C82.2428 115.313 82.3198 115.31 82.3973 115.307C82.3593 115.313 82.3207 115.319 82.2824 115.324C82.2441 115.329 82.2052 115.333 82.1665 115.336C82.0893 115.343 82.0114 115.345 81.9338 115.347C81.8562 115.348 81.7783 115.344 81.7008 115.338C81.6232 115.332 81.5462 115.322 81.47 115.307Z" fill="#7C2516"/>
<path opacity="0.3" d="M81.5495 115.418L81.6772 115.45V117.589L81.326 118.291L81.2302 122.824H81.1025V118.387L81.5495 117.493V115.418Z" fill="white"/>
<path opacity="0.3" fill-rule="evenodd" clip-rule="evenodd" d="M81.5336 115.395L81.6932 115.434V117.59L81.342 118.292L81.246 122.837H81.0867V118.38L81.5336 117.486V115.395ZM81.5655 115.435V117.494L81.1186 118.388V122.805H81.2147L81.3102 118.284L81.6613 117.582V115.459L81.5655 115.435Z" fill="#7C2516"/>
<path d="M81.071 118.705L81.103 121.514C81.103 121.514 81.9968 121.642 82.763 121.514V118.705C82.763 118.705 82.0607 118.801 81.071 118.705Z" fill="#DA251D"/>
<path fill-rule="evenodd" clip-rule="evenodd" d="M82.7787 118.686V121.527L82.7654 121.529C82.3807 121.593 81.9644 121.593 81.6447 121.577C81.4847 121.569 81.3488 121.557 81.2528 121.547C81.2048 121.542 81.1667 121.537 81.1407 121.534C81.1277 121.533 81.1177 121.531 81.1109 121.53C81.1075 121.53 81.1049 121.529 81.1032 121.529L81.1012 121.529L81.1006 121.529L81.1005 121.529C81.1005 121.529 81.1005 121.529 81.1028 121.513L81.1005 121.529L81.087 121.527L81.0547 118.686L81.0724 118.688C81.5663 118.736 81.9886 118.736 82.2873 118.724C82.4366 118.718 82.5551 118.709 82.6361 118.701C82.6766 118.698 82.7078 118.694 82.7288 118.692C82.7393 118.691 82.7473 118.69 82.7526 118.689C82.7553 118.689 82.7573 118.688 82.7586 118.688L82.7601 118.688L82.7606 118.688L82.7787 118.686ZM82.7468 118.722C82.7427 118.722 82.7379 118.723 82.7325 118.724C82.7112 118.726 82.6798 118.729 82.639 118.733C82.5575 118.741 82.4385 118.75 82.2886 118.756C81.9923 118.768 81.5751 118.768 81.087 118.721L81.1186 121.499C81.1251 121.5 81.1338 121.501 81.1447 121.502C81.1705 121.506 81.2083 121.51 81.2561 121.515C81.3516 121.525 81.487 121.537 81.6463 121.545C81.9613 121.561 82.3691 121.561 82.7468 121.5V118.722Z" fill="#7C2516"/>
<path d="M81.915 119.297L82.1187 119.71L82.5742 119.776L82.2448 120.097L82.3223 120.55L81.915 120.336L81.508 120.55L81.5855 120.097L81.2561 119.776L81.7116 119.71L81.915 119.297Z" fill="#FEFF02"/>
<path d="M200.156 124.801C199.963 126.724 199.734 129.674 199.652 132.445M200.156 139.328C199.825 138.666 199.673 137.231 199.632 135.467M199.652 132.445H192.551C192.518 133.242 192.471 134.361 192.427 135.467M199.652 132.445C199.621 133.501 199.611 134.53 199.632 135.467M192.287 139.328C192.287 139.028 192.354 137.264 192.427 135.467M192.427 135.467H199.632" stroke="black"/>
<path d="M164.442 124.801C164.635 126.724 164.864 129.674 164.946 132.445M164.442 139.328C164.773 138.666 164.925 137.231 164.966 135.467M164.946 132.445H172.046C172.08 133.242 172.127 134.361 172.171 135.467M164.946 132.445C164.977 133.501 164.987 134.53 164.966 135.467M172.311 139.328C172.311 139.028 172.244 137.264 172.171 135.467M172.171 135.467H164.966" stroke="black"/>
<path d="M177.154 138.118L182.602 127.223L187.444 138.118" stroke="black"/>
<ellipse cx="182.602" cy="126.011" rx="12.1062" ry="1.21062" fill="#539882"/>
<path d="M149.31 123.59C149.117 125.513 148.888 128.463 148.806 131.234M149.31 138.117C148.979 137.455 148.827 136.02 148.786 134.256M148.806 131.234H141.705C141.672 132.031 141.625 133.15 141.581 134.256M148.806 131.234C148.775 132.29 148.765 133.319 148.786 134.256M141.441 138.117C141.441 137.818 141.508 136.054 141.581 134.256M141.581 134.256H148.786" stroke="black"/>
<path d="M113.596 123.59C113.789 125.513 114.018 128.463 114.1 131.234M113.596 138.117C113.927 137.455 114.079 136.02 114.12 134.256M114.1 131.234H121.201C121.234 132.031 121.281 133.15 121.325 134.256M114.1 131.234C114.131 132.29 114.141 133.319 114.12 134.256M121.465 138.117C121.465 137.818 121.398 136.054 121.325 134.256M121.325 134.256H114.12" stroke="black"/>
<path d="M126.308 138.116L131.756 127.221L136.598 138.116" stroke="black"/>
<ellipse cx="131.756" cy="126.011" rx="12.1062" ry="1.21062" fill="#539882"/>
<path d="M126.425 126.569C126.425 126.569 126.617 126.633 126.617 126.378C126.617 126.143 126.563 122.942 126.553 122.426C126.553 122.375 126.553 122.342 126.553 122.291C126.553 121.845 126.265 121.525 126.138 121.334C126.01 121.11 125.882 120.185 125.882 119.61C125.882 119.035 125.85 119.035 125.978 118.972C126.106 118.908 125.914 118.748 125.914 118.748H125.052C125.052 118.748 124.909 118.892 125.004 118.956C125.1 119.019 125.1 119.083 125.1 119.371C125.1 119.658 125.132 120.169 125.1 120.552C125.068 120.935 125.004 121.158 124.909 121.318C124.813 121.477 124.494 121.924 124.494 122.339V126.489C124.494 126.489 124.462 126.617 124.653 126.617C124.845 126.617 126.425 126.569 126.425 126.569Z" fill="#8B3321"/>
<path d="M125.053 118.939C125.361 118.979 125.672 118.979 125.98 118.939H125.053Z" fill="#7C2516"/>
<path d="M125.053 118.939C125.13 118.946 125.207 118.95 125.284 118.953C125.362 118.955 125.439 118.957 125.516 118.956C125.594 118.954 125.671 118.956 125.748 118.951C125.826 118.946 125.903 118.943 125.98 118.939C125.942 118.946 125.903 118.952 125.865 118.957C125.827 118.962 125.788 118.966 125.749 118.969C125.672 118.976 125.594 118.978 125.517 118.98C125.439 118.981 125.361 118.977 125.284 118.971C125.206 118.965 125.129 118.955 125.053 118.939Z" fill="#7C2516"/>
<path opacity="0.3" d="M125.132 119.051L125.26 119.083V121.222L124.909 121.924L124.813 126.457H124.686V122.02L125.132 121.126V119.051Z" fill="white"/>
<path opacity="0.3" fill-rule="evenodd" clip-rule="evenodd" d="M125.116 119.029L125.276 119.069V121.224L124.924 121.927L124.828 126.472H124.669V122.015L125.116 121.121V119.029ZM125.148 119.07V121.129L124.701 122.022V126.44H124.797L124.893 121.919L125.244 121.217V119.094L125.148 119.07Z" fill="#7C2516"/>
<path d="M124.654 122.34L124.685 125.149C124.685 125.149 125.579 125.277 126.345 125.149V122.34C126.345 122.34 125.643 122.436 124.654 122.34Z" fill="#DA251D"/>
<path fill-rule="evenodd" clip-rule="evenodd" d="M126.361 122.32V125.161L126.348 125.164C125.963 125.228 125.547 125.228 125.227 125.212C125.067 125.204 124.931 125.192 124.835 125.182C124.787 125.177 124.749 125.172 124.723 125.169C124.71 125.167 124.7 125.166 124.693 125.165C124.69 125.165 124.687 125.164 124.686 125.164L124.684 125.164L124.683 125.164L124.683 125.164C124.683 125.164 124.683 125.164 124.685 125.148L124.683 125.164L124.669 125.162L124.637 122.321L124.655 122.323C125.149 122.371 125.571 122.371 125.87 122.359C126.019 122.353 126.138 122.344 126.219 122.336C126.259 122.332 126.29 122.329 126.311 122.327C126.322 122.325 126.33 122.324 126.335 122.324C126.338 122.323 126.34 122.323 126.341 122.323L126.343 122.323L126.343 122.323L126.361 122.32ZM126.329 122.357C126.325 122.357 126.32 122.358 126.315 122.358C126.294 122.361 126.262 122.364 126.222 122.368C126.14 122.375 126.021 122.384 125.871 122.39C125.575 122.402 125.158 122.402 124.67 122.356L124.701 125.134C124.708 125.135 124.716 125.136 124.727 125.137C124.753 125.14 124.791 125.145 124.839 125.15C124.934 125.16 125.07 125.172 125.229 125.18C125.544 125.196 125.952 125.196 126.329 125.134V122.357Z" fill="#7C2516"/>
<path d="M125.498 122.932L125.701 123.344L126.157 123.41L125.827 123.732L125.905 124.185L125.498 123.971L125.09 124.185L125.168 123.732L124.839 123.41L125.294 123.344L125.498 122.932Z" fill="#FEFF02"/>
<path d="M179.692 126.569C179.692 126.569 179.884 126.633 179.884 126.378C179.884 126.143 179.83 122.942 179.82 122.426C179.82 122.375 179.82 122.342 179.82 122.291C179.82 121.845 179.533 121.525 179.405 121.334C179.277 121.11 179.15 120.185 179.15 119.61C179.15 119.035 179.118 119.035 179.245 118.972C179.373 118.908 179.182 118.748 179.182 118.748H178.32C178.32 118.748 178.176 118.892 178.272 118.956C178.368 119.019 178.368 119.083 178.368 119.371C178.368 119.658 178.399 120.169 178.368 120.552C178.336 120.935 178.272 121.158 178.176 121.318C178.08 121.477 177.761 121.924 177.761 122.339V126.489C177.761 126.489 177.729 126.617 177.921 126.617C178.112 126.617 179.692 126.569 179.692 126.569Z" fill="#8B3321"/>
<path d="M178.32 118.939C178.627 118.979 178.939 118.979 179.247 118.939H178.32Z" fill="#7C2516"/>
<path d="M178.32 118.939C178.397 118.946 178.474 118.95 178.551 118.953C178.629 118.955 178.706 118.957 178.783 118.956C178.86 118.954 178.938 118.956 179.015 118.951C179.092 118.946 179.169 118.943 179.247 118.939C179.209 118.946 179.17 118.952 179.132 118.957C179.094 118.962 179.055 118.966 179.016 118.969C178.939 118.976 178.861 118.978 178.783 118.98C178.706 118.981 178.628 118.977 178.55 118.971C178.473 118.965 178.396 118.955 178.32 118.939Z" fill="#7C2516"/>
<path opacity="0.3" d="M178.399 119.051L178.527 119.083V121.222L178.176 121.924L178.08 126.457H177.952V122.02L178.399 121.126V119.051Z" fill="white"/>
<path opacity="0.3" fill-rule="evenodd" clip-rule="evenodd" d="M178.383 119.029L178.543 119.069V121.224L178.192 121.927L178.096 126.472H177.936V122.015L178.383 121.121V119.029ZM178.415 119.07V121.129L177.968 122.022V126.44H178.064L178.16 121.919L178.511 121.217V119.094L178.415 119.07Z" fill="#7C2516"/>
<path d="M177.921 122.34L177.953 125.149C177.953 125.149 178.846 125.277 179.613 125.149V122.34C179.613 122.34 178.91 122.436 177.921 122.34Z" fill="#DA251D"/>
<path fill-rule="evenodd" clip-rule="evenodd" d="M179.629 122.32V125.161L179.615 125.164C179.231 125.228 178.814 125.228 178.495 125.212C178.335 125.204 178.199 125.192 178.103 125.182C178.055 125.177 178.017 125.172 177.991 125.169C177.978 125.167 177.968 125.166 177.961 125.165C177.957 125.165 177.955 125.164 177.953 125.164L177.951 125.164L177.95 125.164L177.95 125.164C177.95 125.164 177.95 125.164 177.953 125.148L177.95 125.164L177.937 125.162L177.905 122.321L177.922 122.323C178.416 122.371 178.838 122.371 179.137 122.359C179.286 122.353 179.405 122.344 179.486 122.336C179.526 122.332 179.558 122.329 179.579 122.327C179.589 122.325 179.597 122.324 179.602 122.324C179.605 122.323 179.607 122.323 179.609 122.323L179.61 122.323L179.61 122.323L179.629 122.32ZM179.597 122.357C179.593 122.357 179.588 122.358 179.582 122.358C179.561 122.361 179.53 122.364 179.489 122.368C179.407 122.375 179.288 122.384 179.138 122.39C178.842 122.402 178.425 122.402 177.937 122.356L177.968 125.134C177.975 125.135 177.984 125.136 177.995 125.137C178.02 125.14 178.058 125.145 178.106 125.15C178.201 125.16 178.337 125.172 178.496 125.18C178.811 125.196 179.219 125.196 179.597 125.134V122.357Z" fill="#7C2516"/>
<path d="M178.765 122.932L178.968 123.344L179.424 123.41L179.094 123.732L179.172 124.185L178.765 123.971L178.358 124.185L178.435 123.732L178.106 123.41L178.561 123.344L178.765 122.932Z" fill="#FEFF02"/>
<path d="M177.271 126.569C177.271 126.569 177.463 126.633 177.463 126.378C177.463 126.143 177.409 122.942 177.399 122.426C177.399 122.375 177.399 122.342 177.399 122.291C177.399 121.845 177.111 121.525 176.984 121.334C176.856 121.11 176.728 120.185 176.728 119.61C176.728 119.035 176.696 119.035 176.824 118.972C176.952 118.908 176.76 118.748 176.76 118.748H175.898C175.898 118.748 175.755 118.892 175.85 118.956C175.946 119.019 175.946 119.083 175.946 119.371C175.946 119.658 175.978 120.169 175.946 120.552C175.914 120.935 175.85 121.158 175.755 121.318C175.659 121.477 175.34 121.924 175.34 122.339V126.489C175.34 126.489 175.308 126.617 175.499 126.617C175.691 126.617 177.271 126.569 177.271 126.569Z" fill="#8B3321"/>
<path d="M175.898 118.939C176.206 118.979 176.518 118.979 176.826 118.939H175.898Z" fill="#7C2516"/>
<path d="M175.898 118.939C175.976 118.946 176.053 118.95 176.13 118.953C176.207 118.955 176.285 118.957 176.362 118.956C176.439 118.954 176.517 118.956 176.594 118.951C176.671 118.946 176.748 118.943 176.826 118.939C176.788 118.946 176.749 118.952 176.711 118.957C176.673 118.962 176.634 118.966 176.595 118.969C176.518 118.976 176.44 118.978 176.362 118.98C176.285 118.981 176.207 118.977 176.129 118.971C176.052 118.965 175.975 118.955 175.898 118.939Z" fill="#7C2516"/>
<path opacity="0.3" d="M175.978 119.051L176.106 119.083V121.222L175.755 121.924L175.659 126.457H175.531V122.02L175.978 121.126V119.051Z" fill="white"/>
<path opacity="0.3" fill-rule="evenodd" clip-rule="evenodd" d="M175.962 119.029L176.122 119.069V121.224L175.77 121.927L175.674 126.472H175.515V122.015L175.962 121.121V119.029ZM175.994 119.07V121.129L175.547 122.022V126.44H175.643L175.739 121.919L176.09 121.217V119.094L175.994 119.07Z" fill="#7C2516"/>
<path d="M175.5 122.34L175.531 125.149C175.531 125.149 176.425 125.277 177.191 125.149V122.34C177.191 122.34 176.489 122.436 175.5 122.34Z" fill="#DA251D"/>
<path fill-rule="evenodd" clip-rule="evenodd" d="M177.207 122.32V125.161L177.194 125.164C176.809 125.228 176.393 125.228 176.073 125.212C175.913 125.204 175.777 125.192 175.681 125.182C175.633 125.177 175.595 125.172 175.569 125.169C175.556 125.167 175.546 125.166 175.539 125.165C175.536 125.165 175.533 125.164 175.532 125.164L175.53 125.164L175.529 125.164L175.529 125.164C175.529 125.164 175.529 125.164 175.531 125.148L175.529 125.164L175.515 125.162L175.483 122.321L175.501 122.323C175.995 122.371 176.417 122.371 176.716 122.359C176.865 122.353 176.984 122.344 177.065 122.336C177.105 122.332 177.136 122.329 177.157 122.327C177.168 122.325 177.176 122.324 177.181 122.324C177.184 122.323 177.186 122.323 177.187 122.323L177.189 122.323L177.189 122.323L177.207 122.32ZM177.175 122.357C177.171 122.357 177.166 122.358 177.161 122.358C177.14 122.361 177.108 122.364 177.067 122.368C176.986 122.375 176.867 122.384 176.717 122.39C176.421 122.402 176.004 122.402 175.515 122.356L175.547 125.134C175.554 125.135 175.562 125.136 175.573 125.137C175.599 125.14 175.637 125.145 175.685 125.15C175.78 125.16 175.915 125.172 176.075 125.18C176.39 125.196 176.798 125.196 177.175 125.134V122.357Z" fill="#7C2516"/>
<path d="M176.343 122.932L176.547 123.344L177.003 123.41L176.673 123.732L176.751 124.185L176.343 123.971L175.936 124.185L176.014 123.732L175.685 123.41L176.14 123.344L176.343 122.932Z" fill="#FEFF02"/>
<path d="M138.531 126.569C138.531 126.569 138.723 126.633 138.723 126.378C138.723 126.143 138.669 122.942 138.659 122.426C138.659 122.375 138.659 122.342 138.659 122.291C138.659 121.845 138.372 121.525 138.244 121.334C138.116 121.11 137.989 120.185 137.989 119.61C137.989 119.035 137.957 119.035 138.084 118.972C138.212 118.908 138.02 118.748 138.02 118.748H137.159C137.159 118.748 137.015 118.892 137.111 118.956C137.206 119.019 137.206 119.083 137.206 119.371C137.206 119.658 137.238 120.169 137.206 120.552C137.175 120.935 137.111 121.158 137.015 121.318C136.919 121.477 136.6 121.924 136.6 122.339V126.489C136.6 126.489 136.568 126.617 136.76 126.617C136.951 126.617 138.531 126.569 138.531 126.569Z" fill="#8B3321"/>
<path d="M137.159 118.939C137.467 118.979 137.778 118.979 138.086 118.939H137.159Z" fill="#7C2516"/>
<path d="M137.159 118.939C137.236 118.946 137.313 118.95 137.39 118.953C137.468 118.955 137.545 118.957 137.622 118.956C137.699 118.954 137.777 118.956 137.854 118.951C137.932 118.946 138.008 118.943 138.086 118.939C138.048 118.946 138.009 118.952 137.971 118.957C137.933 118.962 137.894 118.966 137.855 118.969C137.778 118.976 137.7 118.978 137.623 118.98C137.545 118.981 137.467 118.977 137.389 118.971C137.312 118.965 137.235 118.955 137.159 118.939Z" fill="#7C2516"/>
<path opacity="0.3" d="M137.239 119.051L137.366 119.083V121.222L137.015 121.924L136.919 126.457H136.792V122.02L137.239 121.126V119.051Z" fill="white"/>
<path opacity="0.3" fill-rule="evenodd" clip-rule="evenodd" d="M137.222 119.029L137.382 119.069V121.224L137.031 121.927L136.935 126.472H136.775V122.015L137.222 121.121V119.029ZM137.254 119.07V121.129L136.807 122.022V126.44H136.903L136.999 121.919L137.35 121.217V119.094L137.254 119.07Z" fill="#7C2516"/>
<path d="M136.76 122.34L136.792 125.149C136.792 125.149 137.686 125.277 138.452 125.149V122.34C138.452 122.34 137.749 122.436 136.76 122.34Z" fill="#DA251D"/>
<path fill-rule="evenodd" clip-rule="evenodd" d="M138.467 122.32V125.161L138.454 125.164C138.069 125.228 137.653 125.228 137.333 125.212C137.173 125.204 137.037 125.192 136.941 125.182C136.893 125.177 136.855 125.172 136.829 125.169C136.816 125.167 136.806 125.166 136.8 125.165C136.796 125.165 136.794 125.164 136.792 125.164L136.79 125.164L136.789 125.164L136.789 125.164C136.789 125.164 136.789 125.164 136.791 125.148L136.789 125.164L136.776 125.162L136.743 122.321L136.761 122.323C137.255 122.371 137.677 122.371 137.976 122.359C138.125 122.353 138.244 122.344 138.325 122.336C138.365 122.332 138.397 122.329 138.418 122.327C138.428 122.325 138.436 122.324 138.441 122.324C138.444 122.323 138.446 122.323 138.447 122.323L138.449 122.323L138.449 122.323L138.467 122.32ZM138.436 122.357C138.431 122.357 138.427 122.358 138.421 122.358C138.4 122.361 138.369 122.364 138.328 122.368C138.246 122.375 138.127 122.384 137.977 122.39C137.681 122.402 137.264 122.402 136.776 122.356L136.807 125.134C136.814 125.135 136.823 125.136 136.833 125.137C136.859 125.14 136.897 125.145 136.945 125.15C137.04 125.16 137.176 125.172 137.335 125.18C137.65 125.196 138.058 125.196 138.436 125.134V122.357Z" fill="#7C2516"/>
<path d="M137.603 122.932L137.807 123.344L138.263 123.41L137.933 123.732L138.011 124.185L137.603 123.971L137.196 124.185L137.274 123.732L136.945 123.41L137.4 123.344L137.603 122.932Z" fill="#FEFF02"/>
<path d="M191.798 126.569C191.798 126.569 191.99 126.633 191.99 126.378C191.99 126.143 191.936 122.942 191.926 122.426C191.926 122.375 191.926 122.342 191.926 122.291C191.926 121.845 191.639 121.525 191.511 121.334C191.383 121.11 191.256 120.185 191.256 119.61C191.256 119.035 191.224 119.035 191.351 118.972C191.479 118.908 191.288 118.748 191.288 118.748H190.426C190.426 118.748 190.282 118.892 190.378 118.956C190.474 119.019 190.474 119.083 190.474 119.371C190.474 119.658 190.505 120.169 190.474 120.552C190.442 120.935 190.378 121.158 190.282 121.318C190.186 121.477 189.867 121.924 189.867 122.339V126.489C189.867 126.489 189.835 126.617 190.027 126.617C190.218 126.617 191.798 126.569 191.798 126.569Z" fill="#8B3321"/>
<path d="M190.426 118.939C190.733 118.979 191.045 118.979 191.353 118.939H190.426Z" fill="#7C2516"/>
<path d="M190.426 118.939C190.503 118.946 190.58 118.95 190.657 118.953C190.735 118.955 190.812 118.957 190.889 118.956C190.966 118.954 191.044 118.956 191.121 118.951C191.198 118.946 191.275 118.943 191.353 118.939C191.315 118.946 191.276 118.952 191.238 118.957C191.2 118.962 191.161 118.966 191.122 118.969C191.045 118.976 190.967 118.978 190.889 118.98C190.812 118.981 190.734 118.977 190.656 118.971C190.579 118.965 190.502 118.955 190.426 118.939Z" fill="#7C2516"/>
<path opacity="0.3" d="M190.505 119.051L190.633 119.083V121.222L190.282 121.924L190.186 126.457H190.058V122.02L190.505 121.126V119.051Z" fill="white"/>
<path opacity="0.3" fill-rule="evenodd" clip-rule="evenodd" d="M190.489 119.029L190.649 119.069V121.224L190.298 121.927L190.202 126.472H190.042V122.015L190.489 121.121V119.029ZM190.521 119.07V121.129L190.074 122.022V126.44H190.17L190.266 121.919L190.617 121.217V119.094L190.521 119.07Z" fill="#7C2516"/>
<path d="M190.027 122.34L190.059 125.149C190.059 125.149 190.952 125.277 191.719 125.149V122.34C191.719 122.34 191.016 122.436 190.027 122.34Z" fill="#DA251D"/>
<path fill-rule="evenodd" clip-rule="evenodd" d="M191.735 122.32V125.161L191.721 125.164C191.337 125.228 190.92 125.228 190.6 125.212C190.441 125.204 190.305 125.192 190.209 125.182C190.161 125.177 190.123 125.172 190.097 125.169C190.083 125.167 190.073 125.166 190.067 125.165C190.063 125.165 190.061 125.164 190.059 125.164L190.057 125.164L190.056 125.164L190.056 125.164C190.056 125.164 190.056 125.164 190.059 125.148L190.056 125.164L190.043 125.162L190.01 122.321L190.028 122.323C190.522 122.371 190.944 122.371 191.243 122.359C191.392 122.353 191.511 122.344 191.592 122.336C191.632 122.332 191.664 122.329 191.685 122.327C191.695 122.325 191.703 122.324 191.708 122.324C191.711 122.323 191.713 122.323 191.714 122.323L191.716 122.323L191.716 122.323L191.735 122.32ZM191.703 122.357C191.699 122.357 191.694 122.358 191.688 122.358C191.667 122.361 191.636 122.364 191.595 122.368C191.513 122.375 191.394 122.384 191.244 122.39C190.948 122.402 190.531 122.402 190.043 122.356L190.074 125.134C190.081 125.135 190.09 125.136 190.1 125.137C190.126 125.14 190.164 125.145 190.212 125.15C190.307 125.16 190.443 125.172 190.602 125.18C190.917 125.196 191.325 125.196 191.703 125.134V122.357Z" fill="#7C2516"/>
<path d="M190.871 122.932L191.074 123.344L191.53 123.41L191.2 123.732L191.278 124.185L190.871 123.971L190.464 124.185L190.541 123.732L190.212 123.41L190.667 123.344L190.871 122.932Z" fill="#FEFF02"/>
<defs>
<filter id="filter0_d" x="62.7502" y="99.0098" width="42.1794" height="43.4928" filterUnits="userSpaceOnUse" color-interpolation-filters="sRGB">
<feFlood flood-opacity="0" result="BackgroundImageFix"/>
<feColorMatrix in="SourceAlpha" type="matrix" values="0 0 0 0 0 0 0 0 0 0 0 0 0 0 0 0 0 0 127 0"/>
<feOffset dx="4"/>
<feGaussianBlur stdDeviation="2"/>
<feColorMatrix type="matrix" values="0 0 0 0 0 0 0 0 0 0 0 0 0 0 0 0 0 0 0.2 0"/>
<feBlend mode="normal" in2="BackgroundImageFix" result="effect1_dropShadow"/>
<feBlend mode="normal" in="SourceGraphic" in2="effect1_dropShadow" result="shape"/>
</filter>
</defs>
</svg>
