<svg fill="none" height="32" viewBox="0 0 32 32" width="32" xmlns="http://www.w3.org/2000/svg"><path d="m18.2007 3.325c0 1.29167-1.0333 2.325-2.325 2.325s-2.325-1.03333-2.325-2.325 1.0333-2.325 2.325-2.325 2.325 1.03333 2.325 2.325zm-2.325 4.17639c-1.3347 0-2.4111 1.07639-2.4111 2.41111 0 1.3347 1.0764 2.4111 2.4111 2.4111s2.4111-1.0764 2.4111-2.4111c0-1.33472-1.0764-2.41111-2.4111-2.41111zm0 6.47981c-1.3778 0-2.5188 1.1195-2.5188 2.5188 0 1.3778 1.1195 2.5187 2.5188 2.5187s2.5187-1.1409 2.5187-2.5187-1.1194-2.5188-2.5187-2.5188zm0 6.6952c-1.3347 0-2.4111 1.0764-2.4111 2.4111s1.0764 2.4111 2.4111 2.4111 2.4111-1.0764 2.4111-2.4111c.0215-1.3347-1.0764-2.4111-2.4111-2.4111zm0 6.6736c-1.2917 0-2.325 1.0333-2.325 2.325s1.0333 2.325 2.325 2.325 2.325-1.0333 2.325-2.325-1.0333-2.325-2.325-2.325zm6.4153-20.17153c-1.507 0-2.7341 1.22709-2.7341 2.73403 0 1.5069 1.2271 2.734 2.7341 2.734 1.5069 0 2.734-1.2271 2.734-2.734 0-1.50694-1.2271-2.73403-2.734-2.73403zm0 6.50143c-1.55 0-2.8202 1.2701-2.8202 2.8201s1.2702 2.8201 2.8202 2.8201 2.8201-1.2701 2.8201-2.8201-1.2701-2.8201-2.8201-2.8201zm0 6.6736c-1.507 0-2.7341 1.2271-2.7341 2.734s1.2271 2.734 2.7341 2.734c1.5069 0 2.734-1.2271 2.734-2.734s-1.2271-2.734-2.734-2.734zm6.5659-6.9966c-1.7222 0-3.143 1.3994-3.143 3.1431s1.3993 3.1431 3.143 3.1431c1.7223 0 3.1431-1.3994 3.1431-3.1431s-1.3993-3.1431-3.1431-3.1431zm-19.46107-5.55412c-1.1625 0-2.10972.94722-2.10972 2.10972s.94722 2.1097 2.10972 2.1097c1.16247 0 2.10977-.9472 2.10977-2.1097s-.9473-2.10972-2.10977-2.10972zm0 6.50142c-1.22708 0-2.19583.9902-2.19583 2.1958 0 1.2271.99028 2.1958 2.19583 2.1958 1.20557 0 2.19587-.9687 2.19587-2.1958s-.9903-2.1958-2.19587-2.1958zm0 6.6736c-1.1625 0-2.10972.9472-2.10972 2.1097s.94722 2.1097 2.10972 2.1097c1.16247 0 2.10977-.9472 2.10977-2.1097s-.9473-2.1097-2.10977-2.1097zm-6.50139-6.3722c-1.05486 0-1.89444.8395-1.89444 1.8944s.83958 1.8944 1.89444 1.8944c1.05487 0 1.89445-.8395 1.89445-1.8944s-.86111-1.8944-1.89445-1.8944z" fill="#000"/></svg>