<svg width="250" height="300" viewBox="0 0 250 300" fill="none" xmlns="http://www.w3.org/2000/svg">
<path d="M83.9922 252.025L77.9037 251.814" stroke="#FFDAC1" stroke-width="6.34189" stroke-linecap="round"/>
<path d="M78.3141 247.947L81.3584 248.053L81.2723 250.543L77.6745 250.419C77.7828 249.961 78.0622 248.825 78.3141 247.947Z" fill="#EBC8B1"/>
<path d="M92.1587 262.649C84.7515 260.549 79.7732 251.488 77.9998 243.5C81.741 240.333 93.3779 239.217 100.639 232.501C105.848 227.683 111.264 222.49 115.886 217.691L133.008 240.848C129.049 243.398 121.944 249.514 114.501 255.422C108.349 260.305 97.1877 260.177 92.1587 262.649Z" fill="#D1C870"/>
<path d="M70.2554 235.333L64.1786 234.9" stroke="#FFDAC1" stroke-width="6.34189" stroke-linecap="round"/>
<path d="M64.4543 231.032L67.4927 231.248L67.3157 233.734L63.7249 233.478C63.8498 233.025 64.1705 231.9 64.4543 231.032Z" fill="#EBC8B1"/>
<path d="M76.6533 243.153C69.2467 241.051 64.2712 231.988 62.5002 224C65.895 221.128 74.7574 221.452 81.2573 215.5C87.0618 210.185 93.2966 204.264 98.5187 198.846L115.149 227.875C111.217 230.406 104.327 234.716 97.0714 239C90.979 242.597 80.5002 242.5 76.6533 243.153Z" fill="#F4E97D"/>
<path d="M63.9616 228.774C63.0905 226.664 62.984 226.054 62.5002 224.001C65.6748 221.315 74 221 80.0015 216.652C86.1523 211.052 92.9185 204.661 98.5198 198.85L101.733 206.46C97.7083 209.051 90.8073 215.687 83.5622 222.004C77.7878 227.039 68.8916 226.353 63.9616 228.774Z" fill="#D1C870"/>
<path fill-rule="evenodd" clip-rule="evenodd" d="M216.299 183.525L216.993 183.118L216.992 183.116C217.886 182.592 218.215 182.321 218.612 181.992L218.612 181.992C218.717 181.905 218.827 181.815 218.953 181.715C219.758 181.074 220.939 182.658 220.134 183.299C219.583 183.737 219.015 184.163 218.563 184.471L218.653 184.671L219.748 184.03L220.353 183.675C221.483 183.013 222.339 184.619 221.534 185.259C220.882 185.778 220.067 186.246 219.5 186.532L219.617 186.788C220.366 186.433 220.692 186.215 221.078 185.957L221.078 185.957C221.191 185.881 221.309 185.802 221.444 185.715C222.31 185.159 223.47 186.402 222.263 187.363C221.551 187.928 220.867 188.259 220.405 188.482C220.24 188.562 220.103 188.628 220.003 188.687L219.996 188.667C218.552 189.407 216.156 190.554 215.719 190.44C215.242 190.316 214.11 186.831 213.604 185.104C213.604 185.104 213.604 185.104 213.603 185.104C214.448 183.091 215.471 180.997 216.408 181.69C216.785 181.968 216.586 182.634 216.299 183.525Z" fill="#FFDAC1"/>
<path d="M166.048 194.425C163.803 194.589 162.114 196.541 162.277 198.787C162.441 201.033 164.393 202.721 166.639 202.558L166.048 194.425ZM166.639 202.558C181.775 201.459 190.864 200.207 198.012 198.326C205.207 196.434 210.312 193.928 217.268 190.672L213.811 183.287C206.702 186.615 202.286 188.771 195.937 190.441C189.542 192.123 181.065 193.335 166.048 194.425L166.639 202.558Z" fill="#35675B"/>
<path d="M164.737 193.676C164.363 193.703 164.082 194.028 164.109 194.403C164.136 194.777 164.461 195.058 164.836 195.031L164.737 193.676ZM164.836 195.031C179.92 193.936 188.679 192.739 195.439 190.981C202.207 189.219 206.952 186.898 213.971 183.612L213.395 182.381C206.35 185.679 201.722 187.942 195.097 189.665C188.462 191.392 179.805 192.582 164.737 193.676L164.836 195.031Z" fill="#407967"/>
<path d="M58.4574 243.114L63.6268 238.746L63.5058 236.782C63.4154 235.315 63.59 233.844 64.0213 232.44L64.4535 231.032C63.3545 230.894 60.7301 230.373 58.9716 230.153C56.7178 232.76 56.6706 238.762 57.0227 242.55C57.0885 243.258 57.9148 243.573 58.4574 243.114Z" fill="#35675B"/>
<path d="M72.8906 260.245L77.8972 255.691L77.7045 253.732C77.5607 252.27 77.6815 250.793 78.0613 249.374L78.4418 247.951C77.3384 247.854 74.6968 247.429 72.9315 247.273C70.7743 249.96 70.9462 255.96 71.4363 259.733C71.5278 260.438 72.3651 260.722 72.8906 260.245Z" fill="#35675B"/>
<path d="M95.4596 192.843C107.66 185.434 138.807 172.105 165.792 178.056C167.767 180.729 171.984 189.044 173.051 200.926C160.037 208.477 145.705 230.086 135.615 247.183C121.673 245.09 98.2448 221.773 95.4596 192.843Z" fill="#539882"/>
<path d="M95.4587 192.843C107.659 185.434 138.806 172.105 165.791 178.057C167.108 179.838 166.343 178.338 163.893 180.148C137.529 180.348 110.118 187.52 97.1616 202.603C96.0874 197.887 96.0391 196.89 95.4587 192.843Z" fill="#468677"/>
<path fill-rule="evenodd" clip-rule="evenodd" d="M124.661 236.199L124.791 236.993L124.793 236.993C124.961 238.016 125.097 238.42 125.261 238.909C125.304 239.038 125.349 239.173 125.398 239.326C125.707 240.308 123.804 240.842 123.495 239.86C123.284 239.189 123.09 238.506 122.964 237.973L122.745 237.986L122.951 239.24L123.065 239.933C123.277 241.225 121.471 241.448 121.162 240.467C120.911 239.67 120.767 238.741 120.704 238.109L120.422 238.126C120.486 238.952 120.572 239.334 120.675 239.787L120.675 239.787C120.705 239.92 120.736 240.059 120.769 240.216C120.977 241.224 119.4 241.861 118.937 240.389C118.664 239.522 118.601 238.764 118.559 238.253C118.543 238.07 118.531 237.919 118.512 237.805L118.535 237.805C118.362 236.191 118.151 233.543 118.414 233.177C118.702 232.776 122.361 232.971 124.154 233.118L124.154 233.12C124.155 233.119 124.155 233.119 124.156 233.118C125.731 234.628 127.319 236.334 126.336 236.961C125.941 237.213 125.39 236.788 124.661 236.199Z" fill="#FFDAC1"/>
<circle cx="154.054" cy="216.688" r="5.26139" transform="rotate(53.5373 154.054 216.688)" fill="#539882"/>
<path d="M167.765 204.489C166.257 206.176 161.722 213.086 158.913 218.604L153.463 214.024L160.571 203.607L167.765 204.489Z" fill="#539882"/>
<path d="M140.556 206.345C140.924 209.172 142.947 212.842 146.268 213.142C142.656 214.778 138.145 210.537 140.556 206.345Z" fill="#468677"/>
<path d="M146.103 212.919C142.065 212.115 140.807 209.946 140.72 206.567" stroke="#35675B" stroke-width="0.452992" stroke-linecap="round"/>
<path d="M140.095 188.661C141.597 186.983 141.454 184.406 139.777 182.904C138.099 181.402 135.522 181.545 134.02 183.222L140.095 188.661ZM134.02 183.222C123.922 194.502 119.227 203.339 117.422 211.641C115.652 219.786 116.794 227.115 117.444 234.376L125.565 233.649C124.855 225.718 123.954 219.981 125.39 213.373C126.792 206.921 130.554 199.319 140.095 188.661L134.02 183.222Z" fill="#35675B"/>
<path d="M140.307 179C142.406 183.174 148.107 191.932 154.117 193.573C158.255 195.239 172 195.5 176 193.573" stroke="#C03F5E"/>
<path d="M157.646 195.875L157.686 195.945L157.744 195.997L157.744 195.997L157.744 195.997L157.744 195.997L157.745 195.998L157.75 196.003L157.774 196.025C157.796 196.046 157.829 196.077 157.87 196.118C157.953 196.199 158.069 196.318 158.202 196.466C158.47 196.766 158.791 197.172 159.035 197.616C159.284 198.07 159.42 198.506 159.395 198.882C159.373 199.215 159.219 199.58 158.703 199.93C158.119 200.325 157.739 200.407 157.493 200.379C157.261 200.351 157.059 200.214 156.853 199.933C156.64 199.642 156.46 199.247 156.263 198.781C156.236 198.715 156.207 198.647 156.179 198.578C156.015 198.184 155.836 197.755 155.627 197.383C155.197 196.619 154.945 195.861 154.871 195.268C154.834 194.97 154.845 194.74 154.883 194.581C154.92 194.426 154.971 194.377 154.994 194.361C155.043 194.328 155.165 194.281 155.38 194.288C155.587 194.295 155.842 194.351 156.116 194.468C156.665 194.703 157.247 195.165 157.646 195.875Z" stroke="#C03F5E"/>
<path d="M153.063 196.152L152.977 196.163L152.899 196.202L152.899 196.202L152.899 196.202L152.899 196.203L152.898 196.203L152.891 196.206L152.862 196.22C152.835 196.233 152.794 196.252 152.742 196.276C152.636 196.323 152.484 196.387 152.299 196.455C151.927 196.594 151.444 196.74 150.968 196.796C150.482 196.853 150.068 196.808 149.777 196.634C149.514 196.478 149.275 196.172 149.228 195.505C149.175 194.764 149.288 194.349 149.432 194.114C149.565 193.898 149.767 193.763 150.084 193.681C150.417 193.594 150.823 193.579 151.301 193.578C151.369 193.578 151.438 193.578 151.508 193.578C151.911 193.579 152.355 193.58 152.765 193.527C153.594 193.421 154.333 193.485 154.851 193.653C155.413 193.835 155.539 194.068 155.546 194.166C155.552 194.243 155.528 194.391 155.42 194.599C155.315 194.801 155.149 195.027 154.924 195.245C154.473 195.682 153.824 196.054 153.063 196.152Z" stroke="#C03F5E"/>
<path d="M155.17 194.251C154.898 194.293 154.68 194.501 154.483 194.704C154.251 194.942 154.09 195.24 153.941 195.542C153.478 196.478 153.067 197.449 152.535 198.344C151.897 199.42 150.767 199.985 149.654 200.174C148.902 200.302 148.122 200.229 147.374 200.151C147.138 200.127 146.908 200.086 146.677 200.038" stroke="#C03F5E" stroke-linecap="round" stroke-linejoin="round"/>
<path d="M155.327 194.278C155.078 194.411 154.93 194.682 154.8 194.94C154.648 195.243 154.581 195.578 154.526 195.913C154.356 196.949 154.247 198.001 153.999 199.023C153.702 200.252 152.784 201.171 151.771 201.733C151.087 202.113 150.318 202.314 149.577 202.5C149.344 202.558 149.111 202.599 148.875 202.635" stroke="#C03F5E" stroke-linecap="round" stroke-linejoin="round"/>
<ellipse cx="155.46" cy="193.849" rx="1.37143" ry="1.5" transform="rotate(11.5943 155.46 193.849)" fill="#BF3E5E"/>
<path d="M57.5 182.5C80.3 188.1 122.333 180.167 140.5 175.5C142.5 183.834 145.1 189.8 125.5 205C116.836 211.72 100.544 215.299 84.5 217C64.2492 219.148 40.1117 233.302 27 232L26.5273 229.637C26.1804 227.902 26.2358 226.111 26.6892 224.402L26.7612 224.131C27.1335 222.727 27.2036 221.259 26.9669 219.826L26.8607 219.184C26.6248 217.756 26.7842 216.29 27.3219 214.946L27.6072 214.233C28.1803 212.8 28.1803 211.201 27.6072 209.768L27.5629 209.658C26.8932 207.984 27.0482 206.087 27.9759 204.541C28.9301 202.95 29.0611 200.991 28.3216 199.29C27.6866 197.83 27.6866 196.171 28.3216 194.711L28.6197 194.025C29.1943 192.704 29.3739 191.244 29.1371 189.823L28.5 186C28.6667 182.667 34.7 176.9 57.5 182.5Z" fill="#DA5374"/>
<ellipse cx="152.643" cy="112.813" rx="23.2609" ry="16.7565" transform="rotate(-20.3964 152.643 112.813)" fill="#C5C5C5"/>
<path d="M140.239 113.891C142.731 111.676 152.423 106.137 166.823 106.968L159.9 117.214C154.823 117.029 143.783 116.106 140.239 113.891Z" fill="#539882"/>
<path d="M157.131 112.423C186.484 87.224 211.406 129.038 195.622 149.807C177.678 133.635 162.485 118.146 157.131 112.423Z" fill="#E1E1E1"/>
<path d="M190.361 132.914C193.961 140.945 194.791 146.206 196.176 148.144C197.284 149.695 196.822 150.637 196.453 150.914C196.268 153.313 196.065 158.501 196.73 160.052C194.515 160.273 193.592 160.329 193.407 160.329L192.853 150.914L190.361 132.914Z" fill="#FEE1CE"/>
<path d="M195.898 178.605C194.513 171.959 202.267 163.652 194.513 157.836L187.867 175.282C187.959 176.297 190.138 177.94 195.898 178.605Z" fill="#FEE1CE"/>
<ellipse cx="162.946" cy="151.192" rx="31.0145" ry="39.322" fill="#FFDAC1"/>
<ellipse cx="194.791" cy="155.898" rx="4.15373" ry="5.26139" fill="white"/>
<circle cx="194.792" cy="155.899" r="1.93841" fill="black"/>
<g filter="url(#filter0_f)">
<ellipse cx="194.13" cy="163.048" rx="3.5999" ry="1.93841" fill="#FFCCAA"/>
</g>
<path d="M203.677 155.899C203.677 159 202.973 161.74 201.903 163.657C200.808 165.618 199.511 166.447 198.39 166.447C197.269 166.447 195.972 165.618 194.877 163.657C193.807 161.74 193.103 159 193.103 155.899C193.103 152.798 193.807 150.058 194.877 148.142C195.972 146.18 197.269 145.351 198.39 145.351C199.511 145.351 200.808 146.18 201.903 148.142C202.973 150.058 203.677 152.798 203.677 155.899Z" stroke="#91D7B9" stroke-width="2.71795"/>
<path d="M197.502 166.393C193.032 161.585 194.415 152.676 188.962 139.005L185.244 171.17C187.123 170.56 192.206 168.752 197.502 166.393Z" fill="#FFDAC1"/>
<circle cx="132.208" cy="164.759" r="6.36905" fill="#FFDAC1"/>
<path d="M194.744 189.842C200.052 185.252 194.044 175.56 193.129 168.36C182.406 170.895 156.028 178.196 144.392 182.759C154.914 193.005 185.075 198.207 194.744 189.842Z" fill="#FFDAC1"/>
<path d="M191.192 147.59C193.131 156.175 194.238 163.651 196.731 166.421C194.958 167.307 193.408 168.082 192.854 168.359" stroke="#FFCCAA" stroke-width="0.905984"/>
<path d="M184.822 160.977C189.807 158.667 192.022 158.667 194.514 158.39" stroke="#91D7B9" stroke-width="2.71795"/>
<path d="M191.084 172.738C188.039 175.23 185.184 174.348 183.608 172.184" stroke="#FF8080" stroke-width="0.905984" stroke-linecap="round"/>
<g filter="url(#filter1_f)">
<ellipse cx="171.424" cy="168.584" rx="8.03055" ry="3.61374" fill="#FFCCAA"/>
</g>
<path d="M185.402 160.329C185.402 168.142 179.792 174.201 173.192 174.201C166.592 174.201 160.982 168.142 160.982 160.329C160.982 152.517 166.592 146.458 173.192 146.458C179.792 146.458 185.402 152.517 185.402 160.329Z" stroke="#91D7B9" stroke-width="2.71795"/>
<circle cx="174.298" cy="158.668" r="5.26139" fill="white"/>
<circle cx="173.747" cy="158.668" r="1.93841" fill="black"/>
<path d="M132.208 158.112C135.531 160.051 153.807 166.143 175.407 133.744C174.761 128.667 170.09 117.24 156.576 112.145C131.1 117.406 129.162 156.451 132.208 158.112Z" fill="#E1E1E1"/>
<path d="M195.068 144.546C188.145 143.716 185.099 135.962 175.407 133.747C174.023 128.208 171.309 119.953 157.131 112.421C166.823 108.267 195.068 117.962 195.068 144.546Z" fill="#E1E1E1"/>
<path d="M131.93 157.835C104.516 131.528 136.362 102.451 157.407 112.421C145.444 134.131 135.253 151.651 131.93 157.835Z" fill="#E1E1E1"/>
<circle cx="133.592" cy="170.575" r="2.21532" fill="#539882"/>
<path d="M124.998 133.338C125.316 128.875 126.229 126.894 132.653 118.74C130.421 123.204 130.414 127.535 131.084 130.754C131.36 132.081 129.446 134.542 128.093 134.636C127.634 134.668 127.142 134.718 126.617 134.789C125.741 134.907 124.935 134.22 124.998 133.338Z" fill="#C4C4C4"/>
<path d="M175.301 132.862C181.67 133.692 188.87 143.938 194.962 143.938" stroke="#C4C4C4" stroke-width="1.81197" stroke-linecap="round"/>
<path d="M192.594 117.016C190.555 114.208 186.546 110.225 180.838 107.941C183.973 110.112 186.058 113.332 187.824 118.335C188.269 119.595 189.588 120.199 190.881 119.86C192.418 119.457 193.528 118.301 192.594 117.016Z" fill="#F0F0F0"/>
<path d="M132.93 112.925C134.592 106.279 140.407 102.679 142.622 101.294" stroke="#A8A8A8" stroke-width="0.905984" stroke-linecap="round"/>
<path d="M172.531 104.064C170.869 100.741 168.1 98.8025 165.608 97.9717" stroke="#E1E1E1" stroke-width="0.905984" stroke-linecap="round"/>
<path d="M167.314 144.05L178.627 138.645" stroke="#969696" stroke-width="1.81197" stroke-linecap="round"/>
<path d="M189.5 138.577L198.007 142.831" stroke="#969696" stroke-width="1.81197" stroke-linecap="round"/>
<path d="M128.916 155.603C128.17 155.527 127.503 156.07 127.426 156.816C127.349 157.563 127.893 158.23 128.639 158.307L128.916 155.603ZM161.316 158.926L128.916 155.603L128.639 158.307L161.038 161.63L161.316 158.926Z" fill="#91D7B9"/>
<path d="M152.316 156.68C134.87 164.988 132.655 156.403 129.332 155.295C137.972 153.08 148.255 155.295 152.316 156.68Z" fill="#E1E1E1"/>
<path d="M166.717 138.955C154.533 150.862 149.548 153.355 139.579 155.293" stroke="#C4C4C4" stroke-width="1.81197" stroke-linecap="round"/>
<path d="M173.36 128.987C172.253 125.664 167.49 117.467 157.299 112.372C156.191 111.818 153.145 110.434 149.269 110.434C157.022 112.649 166.16 119.295 173.36 128.987Z" fill="#C4C4C4"/>
<path d="M132.378 161.663C128.834 161.885 128.501 164.34 128.778 165.54" stroke="#FFCCAA" stroke-width="0.905984" stroke-linecap="round"/>
<defs>
<filter id="filter0_f" x="188.718" y="159.297" width="10.8237" height="7.50075" filterUnits="userSpaceOnUse" color-interpolation-filters="sRGB">
<feFlood flood-opacity="0" result="BackgroundImageFix"/>
<feBlend mode="normal" in="SourceGraphic" in2="BackgroundImageFix" result="shape"/>
<feGaussianBlur stdDeviation="0.905984" result="effect1_foregroundBlur"/>
</filter>
<filter id="filter1_f" x="160.766" y="162.343" width="21.3158" height="12.4822" filterUnits="userSpaceOnUse" color-interpolation-filters="sRGB">
<feFlood flood-opacity="0" result="BackgroundImageFix"/>
<feBlend mode="normal" in="SourceGraphic" in2="BackgroundImageFix" result="shape"/>
<feGaussianBlur stdDeviation="1.31368" result="effect1_foregroundBlur"/>
</filter>
</defs>
</svg>
