<svg width="133" height="183" viewBox="0 0 133 183" fill="none" xmlns="http://www.w3.org/2000/svg">
<g opacity="0.03" filter="url(#filter0_f)">
<path d="M106 156C106 163.18 88.9868 169 68 169C47.0132 169 30 163.18 30 156C30 148.82 47.0132 143 68 143C88.9868 143 106 148.82 106 156Z" fill="black"/>
</g>
<path d="M46 114.127V77.878C46 76.9954 45.3883 76.2327 44.532 76.0478L35.2463 74.0423C34.0902 73.7926 33 74.6808 33 75.8725V111.453C33 112.289 33.5497 113.023 34.3469 113.253L43.6327 115.927C44.819 116.268 46 115.371 46 114.127Z" fill="#D1C870"/>
<path d="M69 71L46 77.4167V115L69 108.125V71Z" fill="#F4E97D"/>
<path fill-rule="evenodd" clip-rule="evenodd" d="M34 79L35.657 79.1723L35.5573 80.1079L34.9524 80.045V80.5073H34V79ZM37.9189 79.4075L40.1808 79.6427L40.0811 80.5783L37.8192 80.3431L37.9189 79.4075ZM42.4427 79.8779L44 80.0398V81.3779H43.0476V80.8867L42.343 80.8135L42.4427 79.8779ZM34 84.4468V82.4771H34.9524V84.4468H34ZM44 83.2071V85.0364H43.0476V83.2071H44ZM34 88.3862V86.4165H34.9524V88.3862H34ZM44 86.8656V88.6949H43.0476V86.8656H44ZM34 92.3256V90.3559H34.9524V92.3256H34ZM44 90.5241V92.3534H43.0476V90.5241H44ZM44 94.1827V96.0119H43.0476V94.1827H44ZM34 96.2651V94.2953H34.9524V96.2651H34ZM44 97.8412V99.6704H43.0476V97.8412H44ZM34 100.204V98.2348H34.9524V100.204H34ZM44 101.5V103.329H43.0476V101.5H44ZM34 104.144V102.174H34.9524V104.144H34ZM44 105.158V106.987H43.0476V105.158H44ZM34 108.083V106.114H34.9524V108.083H34ZM44 108.817V110.646H43.0476V108.817H44ZM34 110.053H34.9524V110.675L35.7283 110.877L35.486 111.787L34 111.401V110.053ZM40.0098 112.963L37.7479 112.375L37.9902 111.465L40.2521 112.053L40.0098 112.963ZM44 112.475V114L42.2717 113.551L42.514 112.641L43.0476 112.78V112.475H44Z" fill="#F4E97D"/>
<path d="M68.5395 56L34 65.2857V82L69 70.8571L68.5395 56Z" fill="#539882"/>
<path d="M41 73.5C41 78.1944 37.866 82 34 82C30.134 82 27 78.1944 27 73.5C27 68.8056 30.134 65 34 65C37.866 65 41 68.8056 41 73.5Z" fill="#35675B"/>
<path fill-rule="evenodd" clip-rule="evenodd" d="M34 79.2222C36.7415 79.2222 39.2 76.5752 39.2 73C39.2 69.4248 36.7415 66.7778 34 66.7778C31.2585 66.7778 28.8 69.4248 28.8 73C28.8 76.5752 31.2585 79.2222 34 79.2222ZM34 80C37.3137 80 40 76.866 40 73C40 69.134 37.3137 66 34 66C30.6863 66 28 69.134 28 73C28 76.866 30.6863 80 34 80Z" fill="#539882"/>
<path fill-rule="evenodd" clip-rule="evenodd" d="M33.5 77.4444C35.5561 77.4444 37.4 75.5537 37.4 73C37.4 70.4463 35.5561 68.5556 33.5 68.5556C31.4439 68.5556 29.6 70.4463 29.6 73C29.6 75.5537 31.4439 77.4444 33.5 77.4444ZM33.5 78C35.9853 78 38 75.7614 38 73C38 70.2386 35.9853 68 33.5 68C31.0147 68 29 70.2386 29 73C29 75.7614 31.0147 78 33.5 78Z" fill="#539882"/>
<path d="M36 73C36 74.6569 34.6569 76 33 76C31.3431 76 30 74.6569 30 73C30 71.3431 31.3431 70 33 70C34.6569 70 36 71.3431 36 73Z" fill="#539882"/>
<path d="M39 63.6719C44.6793 62.1911 50.3587 72.4535 46.0991 78C49.4121 77.0756 60.2974 73.8402 69.763 71.0671C73.2631 66.7944 68.6741 60.9417 64.2217 57.5257C63.5489 57.0095 62.6635 56.8729 61.8456 57.1183C58.1289 58.2335 48.8618 61.1036 39 63.6719Z" fill="#D1C870"/>
<path d="M56.86 58C48.1199 60.143 38.4601 62.7142 38 64C41.68 63.1429 42.7533 63.1429 42.6 63.1429H48.58L61 59.7143C60.8467 59.5714 59.8041 59.0285 56.86 58Z" fill="#D1C870"/>
<g filter="url(#filter1_d)">
<path fill-rule="evenodd" clip-rule="evenodd" d="M76.5 143.002C77.8807 143.002 79 144.13 79 145.522V149.482C79 150.874 77.8807 152.002 76.5 152.002C75.1193 152.002 74 150.874 74 149.482V145.522C74 144.13 75.1193 143.002 76.5 143.002Z" fill="#FFDAC1"/>
<path d="M74 148.694V147.002H76V149.002C75.6296 148.951 74.7112 148.817 74 148.694Z" fill="#EBC8B1"/>
<path d="M68.3598 145.912C67.9864 140.124 66.7919 125.839 65 115.002H84.4119C84.0386 120.917 85.9051 137.517 84.4119 145.912C80.3055 149.155 73.3994 148.201 68.3598 145.912Z" fill="#D1C870"/>
<path fill-rule="evenodd" clip-rule="evenodd" d="M59 144.002C60.6569 144.002 62 145.13 62 146.522V150.482C62 151.874 60.6569 153.002 59 153.002C57.3431 153.002 56 151.874 56 150.482V146.522C56 145.13 57.3431 144.002 59 144.002Z" fill="#FFDAC1"/>
<path d="M56 150.694V149.002H58V151.002C57.6296 150.951 56.7112 150.817 56 150.694Z" fill="#EBC8B1"/>
<path d="M51.3 146.975C50.9333 141.363 49.76 127.511 48 117.002L70 119.592C69.6333 125.328 68.5333 138.834 67.0667 146.975C63.0333 150.12 56.25 149.195 51.3 146.975Z" fill="#F4E97D"/>
<path d="M51.382 147.859C51.0062 142.081 49.8038 127.821 48 117.002L53.4487 118.335C53.073 124.24 56.0792 140.621 54.5761 149.002C53.073 148.621 52.6972 148.431 51.382 147.859Z" fill="#D1C870"/>
<path fill-rule="evenodd" clip-rule="evenodd" d="M94.493 109.215C94.6417 109.346 94.7785 109.467 94.9 109.574L94.9002 109.574C95.4245 110.038 95.668 110.191 95.9625 110.377L95.9626 110.377L95.9627 110.377C96.0402 110.426 96.1214 110.477 96.2121 110.537C96.7923 110.919 96.0245 112.01 95.4443 111.628C95.0473 111.367 94.6539 111.092 94.3611 110.867L94.2522 110.967L94.8957 111.536L95.2495 111.849C95.9119 112.434 95.062 113.321 94.4818 112.94C94.0109 112.63 93.5394 112.206 93.2366 111.902L93.0967 112.03C93.4824 112.436 93.6909 112.599 93.9378 112.793L93.9378 112.793C94.0101 112.849 94.0857 112.908 94.17 112.977C94.7086 113.415 94.1554 114.421 93.2852 113.849C92.7726 113.511 92.4164 113.142 92.1761 112.893L92.1761 112.893C92.09 112.803 92.0188 112.729 91.9605 112.678L91.9722 112.669C91.1933 111.898 89.9533 110.602 89.9346 110.298C89.9141 109.965 91.9116 108.506 92.913 107.818C92.9131 107.818 92.9132 107.818 92.9133 107.818C92.9133 107.818 92.9133 107.818 92.9133 107.818C94.3818 107.936 95.9404 108.151 95.6936 108.899C95.5945 109.199 95.1252 109.211 94.493 109.215Z" fill="#FFDAC1"/>
<path fill-rule="evenodd" clip-rule="evenodd" d="M73.1019 77.2049C74.8213 76.4993 76.7872 77.3212 77.4928 79.0406C81.3487 88.4365 83.8925 93.5766 86.2856 97.2763C88.5148 100.722 90.6553 102.995 93.927 106.47C94.1358 106.691 94.3493 106.918 94.5676 107.15L89.665 111.761C89.4187 111.5 89.1764 111.242 88.9377 110.989C85.7423 107.599 83.2062 104.908 80.6344 100.932C77.8923 96.6927 75.1594 91.0827 71.2663 81.5958C70.5606 79.8764 71.3825 77.9105 73.1019 77.2049Z" fill="#35675B"/>
<path fill-rule="evenodd" clip-rule="evenodd" d="M76.4936 77.9314C76.7802 77.8138 77.1078 77.9507 77.2254 78.2373C81.0974 87.6724 83.6794 92.9685 86.1775 96.8532C88.5167 100.491 90.7892 102.903 94.0323 106.347C94.247 106.574 94.4659 106.807 94.6893 107.044L93.8722 107.813C93.6437 107.57 93.4197 107.332 93.1998 107.099C89.9701 103.67 87.6308 101.187 85.234 97.4599C82.6781 93.4854 80.0648 88.1109 76.1877 78.6632C76.0701 78.3766 76.207 78.049 76.4936 77.9314Z" fill="#407967"/>
<path d="M64.5785 154.08L61.56 150.984L60.5738 151.115C59.3716 151.276 58.1502 151.218 56.9684 150.945L56.3252 150.797C56.2851 151.543 56.0601 153.336 55.9958 154.531C57.8014 155.88 61.653 155.682 64.1963 155.287C64.7756 155.198 64.9878 154.5 64.5785 154.08Z" fill="#35675B"/>
<path d="M82.1518 152.313L79.1333 149.216L78.1471 149.348C76.9448 149.508 75.7235 149.45 74.5417 149.178L73.8985 149.029C73.8583 149.776 73.6333 151.568 73.569 152.763C75.3746 154.112 79.2262 153.914 81.7695 153.52C82.3489 153.43 82.561 152.733 82.1518 152.313Z" fill="#35675B"/>
<path d="M43 116.564C43.8798 106.871 49.1836 84.3874 63.3607 72C65.623 72 71.882 73.0575 78.8197 77.2873C77.6885 87.4842 83.7213 104.101 89 116.564C82.2131 123.362 59.9673 126.761 43 116.564Z" fill="#539882"/>
<path d="M43 116.016C43.8738 106.443 49.1413 84.2382 63.2211 72.0044C64.719 72.0044 63.5956 71.8179 63.5956 73.8693C53.1106 88.229 45.9957 105.946 48.9914 119C45.9957 117.695 45.434 117.322 43 116.016Z" fill="#468677"/>
<path d="M85.1002 22.6046C87.2777 28.4609 82.4527 35.6588 74.3231 38.6816C66.1936 41.7044 57.8381 39.4074 55.6605 33.551C53.483 27.6947 58.3081 20.4968 66.4376 17.474C74.5672 14.4513 82.9227 16.7483 85.1002 22.6046Z" fill="#C5C5C5"/>
<path d="M62 28.7481C63.6875 27.247 70.25 23.4941 80 24.057L75.3125 31C71.875 30.8749 64.4 30.2493 62 28.7481Z" fill="#539882"/>
<path d="M73 28.2002C93.2959 11.4833 110.528 39.2223 99.6144 53C87.2071 42.2718 76.7018 31.9967 73 28.2002Z" fill="#E1E1E1"/>
<path d="M96 42C98.212 47.2727 98.7225 50.7273 99.5733 52C100.254 53.0182 99.9703 53.6364 99.7435 53.8182C99.63 55.3939 99.5052 58.8 99.9136 59.8182C98.5524 59.9636 97.9852 60 97.8717 60L97.5314 53.8182L96 42Z" fill="#FEE1CE"/>
<path d="M99.5406 72C98.5853 67.52 103.935 61.92 98.5853 58L94 69.76C94.0637 70.4444 95.5667 71.552 99.5406 72Z" fill="#FEE1CE"/>
<path d="M98 54C98 68.9117 88.598 81 77 81C65.402 81 56 68.9117 56 54C56 39.0883 65.402 27 77 27C88.598 27 98 39.0883 98 54Z" fill="#FFDAC1"/>
<path d="M102 57.5C102 59.433 100.657 61 99 61C97.3431 61 96 59.433 96 57.5C96 55.567 97.3431 54 99 54C100.657 54 102 55.567 102 57.5Z" fill="white"/>
<path d="M100 57C100 57.5523 99.5523 58 99 58C98.4477 58 98 57.5523 98 57C98 56.4477 98.4477 56 99 56C99.5523 56 100 56.4477 100 57Z" fill="black"/>
<g filter="url(#filter2_f)">
<path d="M101 62C101 62.5523 99.8807 63 98.5 63C97.1193 63 96 62.5523 96 62C96 61.4477 97.1193 61 98.5 61C99.8807 61 101 61.4477 101 62Z" fill="#FFCCAA"/>
</g>
<path fill-rule="evenodd" clip-rule="evenodd" d="M102.717 61.5688C103.312 60.512 103.75 58.9011 103.75 57C103.75 55.0989 103.312 53.488 102.717 52.4312C102.082 51.3009 101.56 51.2326 101.5 51.2326C101.44 51.2326 100.918 51.3009 100.283 52.4312C99.6883 53.488 99.25 55.0989 99.25 57C99.25 58.9011 99.6883 60.512 100.283 61.5688C100.918 62.6991 101.44 62.7674 101.5 62.7674C101.56 62.7674 102.082 62.6991 102.717 61.5688ZM101.5 65C103.985 65 106 61.4183 106 57C106 52.5817 103.985 49 101.5 49C99.0147 49 97 52.5817 97 57C97 61.4183 99.0147 65 101.5 65Z" fill="#91D7B9"/>
<path d="M100.665 64.2525C97.6473 61.0065 98.5808 54.9916 94.8994 45.7617L92.3894 67.4776C93.658 67.0663 97.0893 65.8454 100.665 64.2525Z" fill="#FFDAC1"/>
<path d="M61 63C61 65.2091 58.9853 67 56.5 67C54.0147 67 52 65.2091 52 63C52 60.7909 54.0147 59 56.5 59C58.9853 59 61 60.7909 61 63Z" fill="#FFDAC1"/>
<path d="M98.5575 80.2403C102.094 77.1973 98.0909 70.7726 97.4806 66C90.3345 67.6808 72.7551 72.5199 65 75.5453C72.0129 82.3371 92.113 85.785 98.5575 80.2403Z" fill="#FFDAC1"/>
<path fill-rule="evenodd" clip-rule="evenodd" d="M96.7713 54.6545C96.5284 53.5329 96.2751 52.3635 96 51.1711L96.7743 51C97.0553 52.2177 97.3103 53.3959 97.5535 54.5192C97.9159 56.1934 98.2519 57.7454 98.6077 59.1237C98.9036 60.2699 99.2088 61.2773 99.547 62.1137C99.8867 62.9536 100.25 63.597 100.651 64.0331L101 64.4123L97.7554 66L97.4004 65.3051L99.7409 64.1598C99.3888 63.6765 99.0837 63.0791 98.8089 62.3996C98.4525 61.5182 98.1375 60.4741 97.8381 59.3139C97.4797 57.9257 97.1372 56.3443 96.7713 54.6545Z" fill="#FFCCAA"/>
<path fill-rule="evenodd" clip-rule="evenodd" d="M96.5228 60.6495C95.6307 60.8533 94.5162 61.2244 92.925 62L92 59.901C93.7086 59.0682 94.9773 58.6351 96.0559 58.3887C96.8941 58.1972 97.6165 58.1215 98.2625 58.0538C98.4326 58.036 98.5973 58.0187 98.7575 58L99 60.2994C98.7989 60.3229 98.6081 60.343 98.4225 60.3626C97.7948 60.4288 97.2266 60.4888 96.5228 60.6495Z" fill="#91D7B9"/>
<path fill-rule="evenodd" clip-rule="evenodd" d="M91.0659 67.8599C91.2328 67.7383 91.4667 67.775 91.5883 67.9419C92.0725 68.6065 92.7363 69.0527 93.4894 69.1574C94.2374 69.2614 95.1317 69.0363 96.097 68.2464C96.2568 68.1157 96.4924 68.1392 96.6232 68.299C96.754 68.4588 96.7304 68.6944 96.5706 68.8252C95.4794 69.7181 94.382 70.0365 93.3864 69.8981C92.3958 69.7604 91.5639 69.1784 90.9839 68.3823C90.8623 68.2154 90.899 67.9815 91.0659 67.8599Z" fill="#FF8080"/>
<g filter="url(#filter3_f)">
<path d="M88 65.5C88 66.8807 85.7614 68 83 68C80.2386 68 78 66.8807 78 65.5C78 64.1193 80.2386 63 83 63C85.7614 63 88 64.1193 88 65.5Z" fill="#FFCCAA"/>
</g>
<path fill-rule="evenodd" clip-rule="evenodd" d="M84 67.8182C87.5208 67.8182 90.7959 64.5616 90.7959 60C90.7959 55.4384 87.5208 52.1818 84 52.1818C80.4792 52.1818 77.2041 55.4384 77.2041 60C77.2041 64.5616 80.4792 67.8182 84 67.8182ZM84 70C88.9706 70 93 65.5228 93 60C93 54.4772 88.9706 50 84 50C79.0294 50 75 54.4772 75 60C75 65.5228 79.0294 70 84 70Z" fill="#91D7B9"/>
<path d="M89 59C89 61.2091 87.2091 63 85 63C82.7909 63 81 61.2091 81 59C81 56.7909 82.7909 55 85 55C87.2091 55 89 56.7909 89 59Z" fill="white"/>
<path d="M87 58.5C87 59.3284 86.7426 60 85.5 60C84.2574 60 84 59.3284 84 58.5C84 57.6716 84.2574 57 85.5 57C86.7426 57 87 57.6716 87 58.5Z" fill="black"/>
<path d="M56.7379 58.8306C58.9888 60.1306 71.3689 64.2166 86 42.4867C85.5623 39.0817 82.3985 31.4174 73.2447 28C55.9875 31.5288 54.6745 57.7162 56.7379 58.8306Z" fill="#E1E1E1"/>
<path d="M99 50C94.2555 49.4219 92.1679 44.0259 85.5255 42.4843C84.5766 38.63 82.7168 32.885 73 27.6433C79.6423 24.7526 99 31.4997 99 50Z" fill="#E1E1E1"/>
<path d="M56.3598 58C37.3781 40.2479 59.4283 20.6263 74 27.3541C65.717 42.0044 58.6607 53.8267 56.3598 58Z" fill="#E1E1E1"/>
<path d="M59 67.5C59 68.3284 58.3284 69 57.5 69C56.6716 69 56 68.3284 56 67.5C56 66.6716 56.6716 66 57.5 66C58.3284 66 59 66.6716 59 67.5Z" fill="#539882"/>
<path d="M52.0018 41.8328C52.2294 38.9278 52.9126 37.4762 57 32C55.6856 34.7748 55.5487 37.4761 55.8529 39.6111C56.0144 40.7451 55.1141 42.9178 54.0302 42.9962C53.3234 43.0473 51.9434 42.5781 52.0018 41.8328Z" fill="#C4C4C4"/>
<path fill-rule="evenodd" clip-rule="evenodd" d="M85.0065 41.6531C85.0607 41.2424 85.4419 40.9528 85.8578 41.0064C87.1168 41.1685 88.358 41.7788 89.5334 42.5295C90.6312 43.2306 91.7373 44.0986 92.804 44.9357C92.884 44.9985 92.9639 45.0612 93.0434 45.1236C94.2002 46.0303 95.307 46.8837 96.3752 47.5132C97.4501 48.1467 98.3994 48.5 99.2405 48.5C99.66 48.5 100 48.8358 100 49.25C100 49.6642 99.66 50 99.2405 50C97.993 50 96.7588 49.4861 95.5967 48.8013C94.428 48.1125 93.2445 47.1963 92.099 46.2984C92.0238 46.2394 91.9487 46.1805 91.8738 46.1217C90.7914 45.2725 89.7412 44.4486 88.7085 43.789C87.5995 43.0807 86.5859 42.6128 85.6614 42.4938C85.2454 42.4402 84.9522 42.0638 85.0065 41.6531Z" fill="#C4C4C4"/>
<path d="M97.7454 31.0438C96.2283 29.1736 93.2464 26.5207 89 25C91.3321 26.4456 92.8831 28.5905 94.1971 31.9221C94.5281 32.7614 95.5091 33.1636 96.4707 32.9381C97.6139 32.6699 98.4399 31.8999 97.7454 31.0438Z" fill="#F0F0F0"/>
<path fill-rule="evenodd" clip-rule="evenodd" d="M63.9454 20.184C64.0505 20.3672 63.9994 20.6086 63.8312 20.7232L63.8194 20.7312C62.3672 21.7206 58.7424 24.1901 57.7073 28.7035C57.6592 28.9132 57.4643 29.0406 57.272 28.9882C57.0797 28.9358 56.9627 28.7234 57.0108 28.5137C58.1165 23.6925 61.9526 21.0799 63.4112 20.0864C63.4246 20.0773 63.4378 20.0684 63.4507 20.0595C63.6188 19.945 63.8403 20.0007 63.9454 20.184Z" fill="#A8A8A8"/>
<path fill-rule="evenodd" clip-rule="evenodd" d="M79.0178 18.2631C79.078 18.0616 79.2733 17.9527 79.454 18.0198C81.0814 18.625 82.8833 20.0335 83.9635 22.4433C84.0487 22.6333 83.9796 22.8643 83.8093 22.9593C83.639 23.0543 83.4319 22.9773 83.3467 22.7873C82.3581 20.5818 80.7117 19.2983 79.2359 18.7496C79.0552 18.6824 78.9576 18.4646 79.0178 18.2631Z" fill="#E1E1E1"/>
<path fill-rule="evenodd" clip-rule="evenodd" d="M88.5983 45.1953C88.7763 45.5679 88.6186 46.0144 88.2459 46.1924L80.608 49.8416C80.2353 50.0196 79.7889 49.8619 79.6108 49.4892C79.4328 49.1165 79.5905 48.6701 79.9632 48.492L87.6011 44.8429C87.9738 44.6648 88.4202 44.8226 88.5983 45.1953Z" fill="#969696"/>
<path fill-rule="evenodd" clip-rule="evenodd" d="M101.676 48.679C101.491 49.0485 101.042 49.1982 100.672 49.0135L94.9288 46.1419C94.5594 45.9572 94.4096 45.508 94.5943 45.1385C94.779 44.7691 95.2282 44.6194 95.5976 44.8041L101.341 47.6757C101.711 47.8604 101.86 48.3096 101.676 48.679Z" fill="#969696"/>
<path fill-rule="evenodd" clip-rule="evenodd" d="M53.0059 57.8992C53.0688 57.3491 53.617 56.9489 54.2304 57.0053L76 59.0079L75.7722 61L54.0026 58.9974C53.3892 58.941 52.943 58.4493 53.0059 57.8992Z" fill="#91D7B9"/>
<path d="M70 57.5735C58.6145 63.1971 57.1687 57.3861 55 56.6362C60.6386 55.1366 67.3494 56.6362 70 57.5735Z" fill="#E1E1E1"/>
<path fill-rule="evenodd" clip-rule="evenodd" d="M80.785 45.2337C81.0764 45.5402 81.0709 46.0316 80.7728 46.3312C76.6122 50.5125 73.6341 53.0899 70.8157 54.7888C67.9774 56.4999 65.3379 57.298 61.8989 57.9856C61.4897 58.0674 61.0936 57.7926 61.014 57.3719C60.9345 56.9511 61.2017 56.5437 61.6108 56.4619C64.9642 55.7914 67.419 55.0372 70.0524 53.4498C72.7057 51.8502 75.5766 49.3829 79.7178 45.221C80.0159 44.9215 80.4937 44.9271 80.785 45.2337Z" fill="#C4C4C4"/>
<path d="M84 39C83.2644 36.6716 80.1012 30.9283 73.3333 27.3582C72.5977 26.9701 70.5747 26 68 26C73.1494 27.5522 79.2184 32.209 84 39Z" fill="#C4C4C4"/>
<path fill-rule="evenodd" clip-rule="evenodd" d="M56.9993 61.3125C57.0113 61.4963 56.8658 61.6545 56.6743 61.666C55.6483 61.7275 55.1561 62.09 54.92 62.455C54.6717 62.8385 54.6614 63.2932 54.7332 63.5917C54.7763 63.771 54.6598 63.95 54.4728 63.9914C54.2859 64.0328 54.0994 63.9209 54.0562 63.7416C53.9543 63.3178 53.9614 62.6725 54.3298 62.1033C54.7102 61.5155 55.4338 61.0724 56.631 61.0007C56.8224 60.9892 56.9873 61.1288 56.9993 61.3125Z" fill="#FFCCAA"/>
<path fill-rule="evenodd" clip-rule="evenodd" d="M59.6284 114.464C59.6964 114.65 59.7588 114.821 59.8143 114.974L59.8147 114.973C60.0543 115.631 60.195 115.882 60.3651 116.186C60.4099 116.266 60.4568 116.35 60.5081 116.446C60.8358 117.058 59.6405 117.65 59.3127 117.038C59.0886 116.619 58.8743 116.19 58.7244 115.853L58.5802 115.889L58.874 116.695L59.0357 117.139C59.3384 117.97 58.1681 118.344 57.8404 117.731C57.5746 117.235 57.3628 116.637 57.2417 116.226L57.0573 116.272C57.2025 116.812 57.3078 117.055 57.4324 117.342L57.4324 117.342C57.4689 117.426 57.5071 117.514 57.5485 117.615C57.8127 118.257 56.8464 118.877 56.3549 117.959C56.0654 117.418 55.9287 116.923 55.8365 116.589L55.8365 116.589C55.8034 116.47 55.7761 116.371 55.7495 116.298L55.7648 116.295C55.4482 115.246 54.9772 113.516 55.1057 113.241C55.2464 112.938 57.6982 112.609 58.9064 112.483C58.9065 112.482 58.9066 112.482 58.9067 112.482C60.1409 113.287 61.4077 114.22 60.8342 114.759C60.6038 114.975 60.1857 114.762 59.6284 114.464Z" fill="#FFDAC1"/>
<path d="M83 94.502C83 96.4349 81.433 98.002 79.5 98.002C77.567 98.002 76 96.4349 76 94.502C76 92.569 77.567 91.002 79.5 91.002C81.433 91.002 83 92.569 83 94.502Z" fill="#539882"/>
<path d="M78.6 82.002C78.9333 83.4213 81 88.3891 83 91.9374L78 93.002L75 85.3729L78.6 82.002Z" fill="#539882"/>
<path d="M69 97.3255C70.6875 98.1345 73.5 98.4582 75 97.002C74.4375 99.2671 70.3125 99.9143 69 97.3255Z" fill="#468677"/>
<path fill-rule="evenodd" clip-rule="evenodd" d="M74.9512 97.0717C75.0209 97.1589 75.0152 97.2937 74.9386 97.3729C73.8868 98.4602 72.9082 98.9723 71.9345 99.0007C70.9636 99.029 70.0333 98.5751 69.08 97.8162C68.9952 97.7487 68.9745 97.6158 69.0339 97.5193C69.0933 97.4228 69.2102 97.3994 69.295 97.4669C70.2166 98.2005 71.0676 98.5994 71.9249 98.5744C72.7794 98.5495 73.6757 98.1021 74.6864 97.0574C74.763 96.9782 74.8816 96.9846 74.9512 97.0717Z" fill="#35675B"/>
<path fill-rule="evenodd" clip-rule="evenodd" d="M63.3511 76.4861C64.9651 77.4444 65.4827 79.5066 64.5072 81.0921C59.4711 89.2779 57.9574 94.6707 57.837 98.9706C57.7306 102.768 58.6662 105.931 59.8797 110.033C60.0824 110.718 60.2928 111.43 60.5075 112.175L53.9363 114.002C53.7492 113.353 53.5545 112.7 53.3583 112.043C52.1432 107.973 50.8722 103.715 51.0103 98.7861C51.1744 92.9293 53.2651 86.3949 58.6625 77.6218C59.638 76.0363 61.7372 75.5278 63.3511 76.4861Z" fill="#35675B"/>
</g>
<mask id="mask0" mask-type="alpha" maskUnits="userSpaceOnUse" x="52" y="73" width="18" height="21">
<path d="M58.9231 94C58.9231 92.6304 60.7692 88.5217 62.1538 85.7826L52 78.9348V74.3696L60.3077 73L68.6154 76.1957L70 93.5435L58.9231 94Z" fill="#C4C4C4"/>
</mask>
<g mask="url(#mask0)">
</g>
<mask id="mask1" mask-type="alpha" maskUnits="userSpaceOnUse" x="52" y="72" width="19" height="23">
<path fill-rule="evenodd" clip-rule="evenodd" d="M60.8373 72L69.5518 75.5055L71 94.4801L58.9379 95V94.5012C58.9379 94.0641 59.0733 93.4658 59.2695 92.812C59.47 92.1436 59.75 91.3672 60.0706 90.5531C60.6578 89.0622 61.3901 87.4234 62.0447 86.05L52 78.9659V73.5235L60.8373 72ZM52.9251 74.3341V78.4602L63.2325 85.7297L63.0518 86.1035C62.3617 87.5311 61.5576 89.3137 60.9273 90.9141C60.612 91.7147 60.3427 92.4633 60.153 93.0956C60.0469 93.449 59.9702 93.7519 59.9224 93.9999L70.0023 93.5655L68.6753 76.1796L60.7388 72.987L52.9251 74.3341Z" fill="black"/>
</mask>
<g mask="url(#mask1)">
<path fill-rule="evenodd" clip-rule="evenodd" d="M61.3668 78.8601C60.4096 78.1389 58.8929 77.6314 56.5518 77.8403C55.7692 77.9101 55.0771 77.344 55.0059 76.5758C54.9348 75.8077 55.5116 75.1283 56.2942 75.0585C59.1705 74.8019 61.4482 75.4001 63.0997 76.6444C64.7454 77.8844 65.6093 79.6461 65.892 81.4187C66.1727 83.1786 65.8952 85.0157 65.1886 86.541C64.4897 88.0498 63.2845 89.4195 61.5882 89.9367C60.8378 90.1656 60.0404 89.754 59.8072 89.0174C59.5741 88.2808 59.9934 87.4981 60.7439 87.2693C61.4192 87.0633 62.1112 86.4359 62.598 85.3849C63.0772 84.3503 63.274 83.0648 63.0804 81.8507C62.8888 80.6493 62.3298 79.5857 61.3668 78.8601Z" fill="#D1C870"/>
</g>
<path fill-rule="evenodd" clip-rule="evenodd" d="M42.7279 63.0429C42.4804 62.9884 42.2369 62.9614 42 62.9614L42 62C42.2982 62 42.6 62.0341 42.9018 62.1005L42.7279 63.0429ZM45.3453 64.6374C44.9538 64.2262 44.5421 63.89 44.1244 63.6297L44.5605 62.7947C45.0448 63.0966 45.5143 63.4815 45.9551 63.9442L45.3453 64.6374ZM47.1125 67.4208C46.8847 66.8758 46.6259 66.3788 46.3442 65.9311L47.0692 65.3865C47.3807 65.8813 47.6645 66.4271 47.9129 67.0215L47.1125 67.4208ZM47.9814 70.7263C47.9024 70.1303 47.7915 69.5667 47.6536 69.0363L48.5 68.7736C48.6488 69.346 48.7677 69.9514 48.8522 70.5886L47.9814 70.7263ZM48.0738 74.2003C48.1159 73.5962 48.1285 73.0148 48.1148 72.4564L48.9944 72.4305C49.0089 73.0227 48.9955 73.6371 48.9512 74.2732L48.0738 74.2003ZM47.7289 76.8019C47.7851 76.5102 47.8348 76.2226 47.8784 75.9393L48.7461 76.0986C48.7006 76.395 48.6486 76.6955 48.5899 77L47.7289 76.8019Z" fill="#F4E97D"/>
<defs>
<filter id="filter0_f" x="16" y="129" width="104" height="54" filterUnits="userSpaceOnUse" color-interpolation-filters="sRGB">
<feFlood flood-opacity="0" result="BackgroundImageFix"/>
<feBlend mode="normal" in="SourceGraphic" in2="BackgroundImageFix" result="shape"/>
<feGaussianBlur stdDeviation="7" result="effect1_foregroundBlur"/>
</filter>
<filter id="filter1_d" x="37.3203" y="0.640506" width="85.719" height="166.546" filterUnits="userSpaceOnUse" color-interpolation-filters="sRGB">
<feFlood flood-opacity="0" result="BackgroundImageFix"/>
<feColorMatrix in="SourceAlpha" type="matrix" values="0 0 0 0 0 0 0 0 0 0 0 0 0 0 0 0 0 0 127 0"/>
<feOffset dx="5.67975"/>
<feGaussianBlur stdDeviation="5.67975"/>
<feColorMatrix type="matrix" values="0 0 0 0 0 0 0 0 0 0 0 0 0 0 0 0 0 0 0.18 0"/>
<feBlend mode="normal" in2="BackgroundImageFix" result="effect1_dropShadow"/>
<feBlend mode="normal" in="SourceGraphic" in2="effect1_dropShadow" result="shape"/>
</filter>
<filter id="filter2_f" x="91.4368" y="56.4368" width="14.1264" height="11.1264" filterUnits="userSpaceOnUse" color-interpolation-filters="sRGB">
<feFlood flood-opacity="0" result="BackgroundImageFix"/>
<feBlend mode="normal" in="SourceGraphic" in2="BackgroundImageFix" result="shape"/>
<feGaussianBlur stdDeviation="2.2816" result="effect1_foregroundBlur"/>
</filter>
<filter id="filter3_f" x="71.3834" y="56.3834" width="23.2333" height="18.2333" filterUnits="userSpaceOnUse" color-interpolation-filters="sRGB">
<feFlood flood-opacity="0" result="BackgroundImageFix"/>
<feBlend mode="normal" in="SourceGraphic" in2="BackgroundImageFix" result="shape"/>
<feGaussianBlur stdDeviation="3.30832" result="effect1_foregroundBlur"/>
</filter>
</defs>
</svg>
