<svg fill="none" height="183" viewBox="0 0 133 183" width="133" xmlns="http://www.w3.org/2000/svg" xmlns:xlink="http://www.w3.org/1999/xlink"><filter id="a" color-interpolation-filters="sRGB" filterUnits="userSpaceOnUse" height="54" width="104" x="16" y="129"><feFlood flood-opacity="0" result="BackgroundImageFix"/><feBlend in="SourceGraphic" in2="BackgroundImageFix" mode="normal" result="shape"/><feGaussianBlur result="effect1_foregroundBlur" stdDeviation="7"/></filter><filter id="b" color-interpolation-filters="sRGB" filterUnits="userSpaceOnUse" height="166.546" width="85.719" x="37.3203" y=".640506"><feFlood flood-opacity="0" result="BackgroundImageFix"/><feColorMatrix in="SourceAlpha" type="matrix" values="0 0 0 0 0 0 0 0 0 0 0 0 0 0 0 0 0 0 127 0"/><feOffset dx="5.67975"/><feGaussianBlur stdDeviation="5.67975"/><feColorMatrix type="matrix" values="0 0 0 0 0 0 0 0 0 0 0 0 0 0 0 0 0 0 0.18 0"/><feBlend in2="BackgroundImageFix" mode="normal" result="effect1_dropShadow"/><feBlend in="SourceGraphic" in2="effect1_dropShadow" mode="normal" result="shape"/></filter><filter id="c" color-interpolation-filters="sRGB" filterUnits="userSpaceOnUse" height="11.1264" width="14.1264" x="91.4368" y="56.4368"><feFlood flood-opacity="0" result="BackgroundImageFix"/><feBlend in="SourceGraphic" in2="BackgroundImageFix" mode="normal" result="shape"/><feGaussianBlur result="effect1_foregroundBlur" stdDeviation="2.2816"/></filter><filter id="d" color-interpolation-filters="sRGB" filterUnits="userSpaceOnUse" height="18.2333" width="23.2333" x="71.3834" y="56.3834"><feFlood flood-opacity="0" result="BackgroundImageFix"/><feBlend in="SourceGraphic" in2="BackgroundImageFix" mode="normal" result="shape"/><feGaussianBlur result="effect1_foregroundBlur" stdDeviation="3.30832"/></filter><mask height="21" maskUnits="userSpaceOnUse" width="18" x="52" y="73"><path d="m58.9231 94c0-1.3696 1.8461-5.4783 3.2307-8.2174l-10.1538-6.8478v-4.5652l8.3077-1.3696 8.3077 3.1957 1.3846 17.3478z" fill="#c4c4c4"/></mask><mask id="e" height="23" maskUnits="userSpaceOnUse" width="19" x="52" y="72"><path clip-rule="evenodd" d="m60.8373 72 8.7145 3.5055 1.4482 18.9746-12.0621.5199v-.4988c0-.4371.1354-1.0354.3316-1.6892.2005-.6684.4805-1.4448.8011-2.2589.5872-1.4909 1.3195-3.1297 1.9741-4.5031l-10.0447-7.0841v-5.4424zm-7.9122 2.3341v4.1261l10.3074 7.2695-.1807.3738c-.6901 1.4276-1.4942 3.2102-2.1245 4.8106-.3153.8006-.5846 1.5492-.7743 2.1815-.1061.3534-.1828.6563-.2306.9043l10.0799-.4344-1.327-17.3859-7.9365-3.1926z" fill="#000" fill-rule="evenodd"/></mask><g filter="url(#a)" opacity=".03"><path d="m106 156c0 7.18-17.0132 13-38 13s-38-5.82-38-13 17.0132-13 38-13 38 5.82 38 13z" fill="#000"/></g><path d="m46 114.127v-36.249c0-.8826-.6117-1.6453-1.468-1.8302l-9.2857-2.0055c-1.1561-.2497-2.2463.6385-2.2463 1.8302v35.5805c0 .836.5497 1.57 1.3469 1.8l9.2858 2.674c1.1863.341 2.3673-.556 2.3673-1.8z" fill="#d1c870"/><path d="m69 71-23 6.4167v37.5833l23-6.875z" fill="#f4e97d"/><path clip-rule="evenodd" d="m34 79 1.657.1723-.0997.9356-.6049-.0629v.4623h-.9524zm3.9189.4075 2.2619.2352-.0997.9356-2.2619-.2352zm4.5238.4704 1.5573.1619v1.3381h-.9524v-.4912l-.7046-.0732zm-8.4427 4.5689v-1.9697h.9524v1.9697zm10-1.2397v1.8293h-.9524v-1.8293zm-10 5.1791v-1.9697h.9524v1.9697zm10-1.5206v1.8293h-.9524v-1.8293zm-10 5.46v-1.9697h.9524v1.9697zm10-1.8015v1.8293h-.9524v-1.8293zm0 3.6586v1.8292h-.9524v-1.8292zm-10 2.0824v-1.9698h.9524v1.9698zm10 1.5761v1.8292h-.9524v-1.8292zm-10 2.3628v-1.9692h.9524v1.9692zm10 1.296v1.829h-.9524v-1.829zm-10 2.644v-1.97h.9524v1.97zm10 1.014v1.829h-.9524v-1.829zm-10 2.925v-1.969h.9524v1.969zm10 .734v1.829h-.9524v-1.829zm-10 1.236h.9524v.622l.7759.202-.2423.91-1.486-.386zm6.0098 2.91-2.2619-.588.2423-.91 2.2619.588zm3.9902-.488v1.525l-1.7283-.449.2423-.91.5336.139v-.305z" fill="#f4e97d" fill-rule="evenodd"/><path d="m68.5395 56-34.5395 9.2857v16.7143l35-11.1429z" fill="#539882"/><path d="m41 73.5c0 4.6944-3.134 8.5-7 8.5s-7-3.8056-7-8.5 3.134-8.5 7-8.5 7 3.8056 7 8.5z" fill="#35675b"/><g fill="#539882"><path clip-rule="evenodd" d="m34 79.2222c2.7415 0 5.2-2.647 5.2-6.2222s-2.4585-6.2222-5.2-6.2222-5.2 2.647-5.2 6.2222 2.4585 6.2222 5.2 6.2222zm0 .7778c3.3137 0 6-3.134 6-7s-2.6863-7-6-7-6 3.134-6 7 2.6863 7 6 7z" fill-rule="evenodd"/><path clip-rule="evenodd" d="m33.5 77.4444c2.0561 0 3.9-1.8907 3.9-4.4444s-1.8439-4.4444-3.9-4.4444-3.9 1.8907-3.9 4.4444 1.8439 4.4444 3.9 4.4444zm0 .5556c2.4853 0 4.5-2.2386 4.5-5s-2.0147-5-4.5-5-4.5 2.2386-4.5 5 2.0147 5 4.5 5z" fill-rule="evenodd"/><path d="m36 73c0 1.6569-1.3431 3-3 3s-3-1.3431-3-3 1.3431-3 3-3 3 1.3431 3 3z"/></g><path d="m39 63.6719c5.6793-1.4808 11.3587 8.7816 7.0991 14.3281 3.313-.9244 14.1983-4.1598 23.6639-6.9329 3.5001-4.2727-1.0889-10.1254-5.5413-13.5414-.6728-.5162-1.5582-.6528-2.3761-.4074-3.7167 1.1152-12.9838 3.9853-22.8456 6.5536z" fill="#d1c870"/><path d="m56.86 58c-8.7401 2.143-18.3999 4.7142-18.86 6 3.68-.8571 4.7533-.8571 4.6-.8571h5.98l12.42-3.4286c-.1533-.1429-1.1959-.6858-4.14-1.7143z" fill="#d1c870"/><g filter="url(#b)"><path clip-rule="evenodd" d="m76.5 143.002c1.3807 0 2.5 1.128 2.5 2.52v3.96c0 1.392-1.1193 2.52-2.5 2.52s-2.5-1.128-2.5-2.52v-3.96c0-1.392 1.1193-2.52 2.5-2.52z" fill="#ffdac1" fill-rule="evenodd"/><path d="m74 148.694v-1.692h2v2c-.3704-.051-1.2888-.185-2-.308z" fill="#ebc8b1"/><path d="m68.3598 145.912c-.3734-5.788-1.5679-20.073-3.3598-30.91h19.4119c-.3733 5.915 1.4932 22.515 0 30.91-4.1064 3.243-11.0125 2.289-16.0521 0z" fill="#d1c870"/><path clip-rule="evenodd" d="m59 144.002c1.6569 0 3 1.128 3 2.52v3.96c0 1.392-1.3431 2.52-3 2.52s-3-1.128-3-2.52v-3.96c0-1.392 1.3431-2.52 3-2.52z" fill="#ffdac1" fill-rule="evenodd"/><path d="m56 150.694v-1.692h2v2c-.3704-.051-1.2888-.185-2-.308z" fill="#ebc8b1"/><path d="m51.3 146.975c-.3667-5.612-1.54-19.464-3.3-29.973l22 2.59c-.3667 5.736-1.4667 19.242-2.9333 27.383-4.0334 3.145-10.8167 2.22-15.7667 0z" fill="#f4e97d"/><path d="m51.382 147.859c-.3758-5.778-1.5782-20.038-3.382-30.857l5.4487 1.333c-.3757 5.905 2.6305 22.286 1.1274 30.667-1.5031-.381-1.8789-.571-3.1941-1.143z" fill="#d1c870"/><path clip-rule="evenodd" d="m94.493 109.215c.1487.131.2855.252.407.359h.0002c.5243.464.7678.617 1.0623.803h.0001.0001c.0775.049.1587.1.2494.16.5802.382-.1876 1.473-.7678 1.091-.397-.261-.7904-.536-1.0832-.761l-.1089.1.6435.569.3538.313c.6624.585-.1875 1.472-.7677 1.091-.4709-.31-.9424-.734-1.2452-1.038l-.1399.128c.3857.406.5942.569.8411.763.0723.056.1479.115.2322.184.5386.438-.0146 1.444-.8848.872-.5126-.338-.8688-.707-1.1091-.956-.0861-.09-.1573-.164-.2156-.215l.0117-.009c-.7789-.771-2.0189-2.067-2.0376-2.371-.0205-.333 1.977-1.792 2.9784-2.48h.0003c1.4685.118 3.0271.333 2.7803 1.081-.0991.3-.5684.312-1.2006.316z" fill="#ffdac1" fill-rule="evenodd"/><path clip-rule="evenodd" d="m73.1019 77.2049c1.7194-.7056 3.6853.1163 4.3909 1.8357 3.8559 9.3959 6.3997 14.536 8.7928 18.2357 2.2292 3.4457 4.3697 5.7187 7.6414 9.1937.2088.221.4223.448.6406.68l-4.9026 4.611c-.2463-.261-.4886-.519-.7273-.772-3.1954-3.39-5.7315-6.081-8.3033-10.057-2.7421-4.2393-5.475-9.8493-9.3681-19.3362-.7057-1.7194.1162-3.6853 1.8356-4.3909z" fill="#35675b" fill-rule="evenodd"/><path clip-rule="evenodd" d="m76.4936 77.9314c.2866-.1176.6142.0193.7318.3059 3.872 9.4351 6.454 14.7312 8.9521 18.6159 2.3392 3.6378 4.6117 6.0498 7.8548 9.4938.2147.227.4336.46.657.697l-.8171.769c-.2285-.243-.4525-.481-.6724-.714-3.2297-3.429-5.569-5.912-7.9658-9.6391-2.5559-3.9745-5.1692-9.349-9.0463-18.7967-.1176-.2866.0193-.6142.3059-.7318z" fill="#407967" fill-rule="evenodd"/><path d="m64.5785 154.08-3.0185-3.096-.9862.131c-1.2022.161-2.4236.103-3.6054-.17l-.6432-.148c-.0401.746-.2651 2.539-.3294 3.734 1.8056 1.349 5.6572 1.151 8.2005.756.5793-.089.7915-.787.3822-1.207z" fill="#35675b"/><path d="m82.1518 152.313-3.0185-3.097-.9862.132c-1.2023.16-2.4236.102-3.6054-.17l-.6432-.149c-.0402.747-.2652 2.539-.3295 3.734 1.8056 1.349 5.6572 1.151 8.2005.757.5794-.09.7915-.787.3823-1.207z" fill="#35675b"/><path d="m43 116.564c.8798-9.693 6.1836-32.1766 20.3607-44.564 2.2623 0 8.5213 1.0575 15.459 5.2873-1.1312 10.1969 4.9016 26.8137 10.1803 39.2767-6.7869 6.798-29.0327 10.197-46 0z" fill="#539882"/><path d="m43 116.016c.8738-9.573 6.1413-31.7778 20.2211-44.0116 1.4979 0 .3745-.1865.3745 1.8649-10.485 14.3597-17.5999 32.0767-14.6042 45.1307-2.9957-1.305-3.5574-1.678-5.9914-2.984z" fill="#468677"/><path d="m85.1002 22.6046c2.1775 5.8563-2.6475 13.0542-10.7771 16.077-8.1295 3.0228-16.485.7258-18.6626-5.1306-2.1775-5.8563 2.6476-13.0542 10.7771-16.077 8.1296-3.0227 16.4851-.7257 18.6626 5.1306z" fill="#c5c5c5"/><path d="m62 28.7481c1.6875-1.5011 8.25-5.254 18-4.6911l-4.6875 6.943c-3.4375-.1251-10.9125-.7507-13.3125-2.2519z" fill="#539882"/><path d="m73 28.2002c20.2959-16.7169 37.528 11.0221 26.6144 24.7998-12.4073-10.7282-22.9126-21.0033-26.6144-24.7998z" fill="#e1e1e1"/><path d="m96 42c2.212 5.2727 2.7225 8.7273 3.5733 10 .6807 1.0182.397 1.6364.1702 1.8182-.1135 1.5757-.2383 4.9818.1701 6-1.3612.1454-1.9284.1818-2.0419.1818l-.3403-6.1818z" fill="#fee1ce"/><path d="m99.5406 72c-.9553-4.48 4.3944-10.08-.9553-14l-4.5853 11.76c.0637.6844 1.5667 1.792 5.5406 2.24z" fill="#fee1ce"/><path d="m98 54c0 14.9117-9.402 27-21 27s-21-12.0883-21-27 9.402-27 21-27 21 12.0883 21 27z" fill="#ffdac1"/><path d="m102 57.5c0 1.933-1.343 3.5-3 3.5-1.6569 0-3-1.567-3-3.5s1.3431-3.5 3-3.5c1.657 0 3 1.567 3 3.5z" fill="#fff"/><path d="m100 57c0 .5523-.4477 1-1 1s-1-.4477-1-1 .4477-1 1-1 1 .4477 1 1z" fill="#000"/><g filter="url(#c)"><path d="m101 62c0 .5523-1.1193 1-2.5 1s-2.5-.4477-2.5-1 1.1193-1 2.5-1 2.5.4477 2.5 1z" fill="#fca"/></g><path clip-rule="evenodd" d="m102.717 61.5688c.595-1.0568 1.033-2.6677 1.033-4.5688s-.438-3.512-1.033-4.5688c-.635-1.1303-1.157-1.1986-1.217-1.1986s-.582.0683-1.217 1.1986c-.5947 1.0568-1.033 2.6677-1.033 4.5688s.4383 3.512 1.033 4.5688c.635 1.1303 1.157 1.1986 1.217 1.1986s.582-.0683 1.217-1.1986zm-1.217 3.4312c2.485 0 4.5-3.5817 4.5-8s-2.015-8-4.5-8c-2.4853 0-4.5 3.5817-4.5 8s2.0147 8 4.5 8z" fill="#91d7b9" fill-rule="evenodd"/><path d="m100.665 64.2525c-3.0177-3.246-2.0842-9.2609-5.7656-18.4908l-2.51 21.7159c1.2686-.4113 4.6999-1.6322 8.2756-3.2251z" fill="#ffdac1"/><path d="m61 63c0 2.2091-2.0147 4-4.5 4s-4.5-1.7909-4.5-4 2.0147-4 4.5-4 4.5 1.7909 4.5 4z" fill="#ffdac1"/><path d="m98.5575 80.2403c3.5365-3.043-.4666-9.4677-1.0769-14.2403-7.1461 1.6808-24.7255 6.5199-32.4806 9.5453 7.0129 6.7918 27.113 10.2397 33.5575 4.695z" fill="#ffdac1"/><path clip-rule="evenodd" d="m96.7713 54.6545c-.2429-1.1216-.4962-2.291-.7713-3.4834l.7743-.1711c.281 1.2177.536 2.3959.7792 3.5192.3624 1.6742.6984 3.2262 1.0542 4.6045.2959 1.1462.6011 2.1536.9393 2.99.3397.8399.703 1.4833 1.104 1.9194l.349.3792-3.2446 1.5877-.355-.6949 2.3405-1.1453c-.3521-.4833-.6572-1.0807-.932-1.7602-.3564-.8814-.6714-1.9255-.9708-3.0857-.3584-1.3882-.7009-2.9696-1.0668-4.6594z" fill="#fca" fill-rule="evenodd"/><path clip-rule="evenodd" d="m96.5228 60.6495c-.8921.2038-2.0066.5749-3.5978 1.3505l-.925-2.099c1.7086-.8328 2.9773-1.2659 4.0559-1.5123.8382-.1915 1.5606-.2672 2.2066-.3349.1701-.0178.3348-.0351.495-.0538l.2425 2.2994c-.2011.0235-.3919.0436-.5775.0632-.6277.0662-1.1959.1262-1.8997.2869z" fill="#91d7b9" fill-rule="evenodd"/><path clip-rule="evenodd" d="m91.0659 67.8599c.1669-.1216.4008-.0849.5224.082.4842.6646 1.148 1.1108 1.9011 1.2155.748.104 1.6423-.1211 2.6076-.911.1598-.1307.3954-.1072.5262.0526s.1072.3954-.0526.5262c-1.0912.8929-2.1886 1.2113-3.1842 1.0729-.9906-.1377-1.8225-.7197-2.4025-1.5158-.1216-.1669-.0849-.4008.082-.5224z" fill="#ff8080" fill-rule="evenodd"/><g filter="url(#d)"><path d="m88 65.5c0 1.3807-2.2386 2.5-5 2.5s-5-1.1193-5-2.5 2.2386-2.5 5-2.5 5 1.1193 5 2.5z" fill="#fca"/></g><path clip-rule="evenodd" d="m84 67.8182c3.5208 0 6.7959-3.2566 6.7959-7.8182s-3.2751-7.8182-6.7959-7.8182-6.7959 3.2566-6.7959 7.8182 3.2751 7.8182 6.7959 7.8182zm0 2.1818c4.9706 0 9-4.4772 9-10s-4.0294-10-9-10-9 4.4772-9 10 4.0294 10 9 10z" fill="#91d7b9" fill-rule="evenodd"/><path d="m89 59c0 2.2091-1.7909 4-4 4s-4-1.7909-4-4 1.7909-4 4-4 4 1.7909 4 4z" fill="#fff"/><path d="m87 58.5c0 .8284-.2574 1.5-1.5 1.5s-1.5-.6716-1.5-1.5.2574-1.5 1.5-1.5 1.5.6716 1.5 1.5z" fill="#000"/><path d="m56.7379 58.8306c2.2509 1.3 14.631 5.386 29.2621-16.3439-.4377-3.405-3.6015-11.0693-12.7553-14.4867-17.2572 3.5288-18.5702 29.7162-16.5068 30.8306z" fill="#e1e1e1"/><path d="m99 50c-4.7445-.5781-6.8321-5.9741-13.4745-7.5157-.9489-3.8543-2.8087-9.5993-12.5255-14.841 6.6423-2.8907 26 3.8564 26 22.3567z" fill="#e1e1e1"/><path d="m56.3598 58c-18.9817-17.7521 3.0685-37.3737 17.6402-30.6459-8.283 14.6503-15.3393 26.4726-17.6402 30.6459z" fill="#e1e1e1"/><path d="m59 67.5c0 .8284-.6716 1.5-1.5 1.5s-1.5-.6716-1.5-1.5.6716-1.5 1.5-1.5 1.5.6716 1.5 1.5z" fill="#539882"/><path d="m52.0018 41.8328c.2276-2.905.9108-4.3566 4.9982-9.8328-1.3144 2.7748-1.4513 5.4761-1.1471 7.6111.1615 1.134-.7388 3.3067-1.8227 3.3851-.7068.0511-2.0868-.4181-2.0284-1.1634z" fill="#c4c4c4"/><path clip-rule="evenodd" d="m85.0065 41.6531c.0542-.4107.4354-.7003.8513-.6467 1.259.1621 2.5002.7724 3.6756 1.5231 1.0978.7011 2.2039 1.5691 3.2706 2.4062.08.0628.1599.1255.2394.1879 1.1568.9067 2.2636 1.7601 3.3318 2.3896 1.0749.6335 2.0242.9868 2.8653.9868.4195 0 .7595.3358.7595.75s-.34.75-.7595.75c-1.2475 0-2.4817-.5139-3.6438-1.1987-1.1687-.6888-2.3522-1.605-3.4977-2.5029-.0752-.059-.1503-.1179-.2252-.1767-1.0824-.8492-2.1326-1.6731-3.1653-2.3327-1.109-.7083-2.1226-1.1762-3.0471-1.2952-.416-.0536-.7092-.43-.6549-.8407z" fill="#c4c4c4" fill-rule="evenodd"/><path d="m97.7454 31.0438c-1.5171-1.8702-4.499-4.5231-8.7454-6.0438 2.3321 1.4456 3.8831 3.5905 5.1971 6.9221.331.8393 1.312 1.2415 2.2736 1.016 1.1432-.2682 1.9692-1.0382 1.2747-1.8943z" fill="#f0f0f0"/><g clip-rule="evenodd" fill-rule="evenodd"><path d="m63.9454 20.184c.1051.1832.054.4246-.1142.5392l-.0118.008c-1.4522.9894-5.077 3.4589-6.1121 7.9723-.0481.2097-.243.3371-.4353.2847s-.3093-.2648-.2612-.4745c1.1057-4.8212 4.9418-7.4338 6.4004-8.4273.0134-.0091.0266-.018.0395-.0269.1681-.1145.3896-.0588.4947.1245z" fill="#a8a8a8"/><path d="m79.0178 18.2631c.0602-.2015.2555-.3104.4362-.2433 1.6274.6052 3.4293 2.0137 4.5095 4.4235.0852.19.0161.421-.1542.516s-.3774.018-.4626-.172c-.9886-2.2055-2.635-3.489-4.1108-4.0377-.1807-.0672-.2783-.285-.2181-.4865z" fill="#e1e1e1"/><path d="m88.5983 45.1953c.178.3726.0203.8191-.3524.9971l-7.6379 3.6492c-.3727.178-.8191.0203-.9972-.3524-.178-.3727-.0203-.8191.3524-.9972l7.6379-3.6491c.3727-.1781.8191-.0203.9972.3524z" fill="#969696"/><path d="m101.676 48.679c-.185.3695-.634.5192-1.004.3345l-5.7432-2.8716c-.3694-.1847-.5192-.6339-.3345-1.0034.1847-.3694.6339-.5191 1.0033-.3344l5.7434 2.8716c.37.1847.519.6339.335 1.0033z" fill="#969696"/><path d="m53.0059 57.8992c.0629-.5501.6111-.9503 1.2245-.8939l21.7696 2.0026-.2278 1.9921-21.7696-2.0026c-.6134-.0564-1.0596-.5481-.9967-1.0982z" fill="#91d7b9"/></g><path d="m70 57.5735c-11.3855 5.6236-12.8313-.1874-15-.9373 5.6386-1.4996 12.3494 0 15 .9373z" fill="#e1e1e1"/><path clip-rule="evenodd" d="m80.785 45.2337c.2914.3065.2859.7979-.0122 1.0975-4.1606 4.1813-7.1387 6.7587-9.9571 8.4576-2.8383 1.7111-5.4778 2.5092-8.9168 3.1968-.4092.0818-.8053-.193-.8849-.6137-.0795-.4208.1877-.8282.5968-.91 3.3534-.6705 5.8082-1.4247 8.4416-3.0121 2.6533-1.5996 5.5242-4.0669 9.6654-8.2288.2981-.2995.7759-.2939 1.0672.0127z" fill="#c4c4c4" fill-rule="evenodd"/><path d="m84 39c-.7356-2.3284-3.8988-8.0717-10.6667-11.6418-.7356-.3881-2.7586-1.3582-5.3333-1.3582 5.1494 1.5522 11.2184 6.209 16 13z" fill="#c4c4c4"/><path clip-rule="evenodd" d="m56.9993 61.3125c.012.1838-.1335.342-.325.3535-1.026.0615-1.5182.424-1.7543.789-.2483.3835-.2586.8382-.1868 1.1367.0431.1793-.0734.3583-.2604.3997-.1869.0414-.3734-.0705-.4166-.2498-.1019-.4238-.0948-1.0691.2736-1.6383.3804-.5878 1.104-1.0309 2.3012-1.1026.1914-.0115.3563.1281.3683.3118z" fill="#fca" fill-rule="evenodd"/><path clip-rule="evenodd" d="m59.6284 114.464c.068.186.1304.357.1859.51l.0004-.001c.2396.658.3803.909.5504 1.213.0448.08.0917.164.143.26.3277.612-.8676 1.204-1.1954.592-.2241-.419-.4384-.848-.5883-1.185l-.1442.036.2938.806.1617.444c.3027.831-.8676 1.205-1.1953.592-.2658-.496-.4776-1.094-.5987-1.505l-.1844.046c.1452.54.2505.783.3751 1.07.0365.084.0747.172.1161.273.2642.642-.7021 1.262-1.1936.344-.2895-.541-.4262-1.036-.5184-1.37-.0331-.119-.0604-.218-.087-.291l.0153-.003c-.3166-1.049-.7876-2.779-.6591-3.054.1407-.303 2.5925-.632 3.8007-.758.0001-.001.0002-.001.0003-.001 1.2342.805 2.501 1.738 1.9275 2.277-.2304.216-.6485.003-1.2058-.295z" fill="#ffdac1" fill-rule="evenodd"/><path d="m83 94.502c0 1.9329-1.567 3.5-3.5 3.5s-3.5-1.5671-3.5-3.5c0-1.933 1.567-3.5 3.5-3.5s3.5 1.567 3.5 3.5z" fill="#539882"/><path d="m78.6 82.002c.3333 1.4193 2.4 6.3871 4.4 9.9354l-5 1.0646-3-7.6291z" fill="#539882"/><path d="m69 97.3255c1.6875.809 4.5 1.1327 6-.3235-.5625 2.2651-4.6875 2.9123-6 .3235z" fill="#468677"/><path clip-rule="evenodd" d="m74.9512 97.0717c.0697.0872.064.222-.0126.3012-1.0518 1.0873-2.0304 1.5994-3.0041 1.6278-.9709.0283-1.9012-.4256-2.8545-1.1845-.0848-.0675-.1055-.2004-.0461-.2969s.1763-.1199.2611-.0524c.9216.7336 1.7726 1.1325 2.6299 1.1075.8545-.0249 1.7508-.4723 2.7615-1.517.0766-.0792.1952-.0728.2648.0143z" fill="#35675b" fill-rule="evenodd"/><path clip-rule="evenodd" d="m63.3511 76.4861c1.614.9583 2.1316 3.0205 1.1561 4.606-5.0361 8.1858-6.5498 13.5786-6.6702 17.8785-.1064 3.7974.8292 6.9604 2.0427 11.0624.2027.685.4131 1.397.6278 2.142l-6.5712 1.827c-.1871-.649-.3818-1.302-.578-1.959-1.2151-4.07-2.4861-8.328-2.348-13.2569.1641-5.8568 2.2548-12.3912 7.6522-21.1643.9755-1.5855 3.0747-2.094 4.6886-1.1357z" fill="#35675b" fill-rule="evenodd"/></g><g mask="url(#e)"><path clip-rule="evenodd" d="m61.3668 78.8601c-.9572-.7212-2.4739-1.2287-4.815-1.0198-.7826.0698-1.4747-.4963-1.5459-1.2645-.0711-.7681.5057-1.4475 1.2883-1.5173 2.8763-.2566 5.154.3416 6.8055 1.5859 1.6457 1.24 2.5096 3.0017 2.7923 4.7743.2807 1.7599.0032 3.597-.7034 5.1223-.6989 1.5088-1.9041 2.8785-3.6004 3.3957-.7504.2289-1.5478-.1827-1.781-.9193-.2331-.7366.1862-1.5193.9367-1.7481.6753-.206 1.3673-.8334 1.8541-1.8844.4792-1.0346.676-2.3201.4824-3.5342-.1916-1.2014-.7506-2.265-1.7136-2.9906z" fill="#d1c870" fill-rule="evenodd"/></g><path clip-rule="evenodd" d="m42.7279 63.0429c-.2475-.0545-.491-.0815-.7279-.0815v-.9614c.2982 0 .6.0341.9018.1005zm2.6174 1.5945c-.3915-.4112-.8032-.7474-1.2209-1.0077l.4361-.835c.4843.3019.9538.6868 1.3946 1.1495zm1.7672 2.7834c-.2278-.545-.4866-1.042-.7683-1.4897l.725-.5446c.3115.4948.5953 1.0406.8437 1.635zm.8689 3.3055c-.079-.596-.1899-1.1596-.3278-1.69l.8464-.2627c.1488.5724.2677 1.1778.3522 1.815zm.0924 3.474c.0421-.6041.0547-1.1855.041-1.7439l.8796-.0259c.0145.5922.0011 1.2066-.0432 1.8427zm-.3449 2.6016c.0562-.2917.1059-.5793.1495-.8626l.8677.1593c-.0455.2964-.0975.5969-.1562.9014z" fill="#f4e97d" fill-rule="evenodd"/></svg>