<svg width="133" height="183" viewBox="0 0 133 183" fill="none" xmlns="http://www.w3.org/2000/svg">
<path fill-rule="evenodd" clip-rule="evenodd" d="M54.0088 128.121C55.5409 128.121 56.7828 129.363 56.7828 130.895L56.7828 147.878C56.7828 149.41 55.5409 150.652 54.0088 150.652C52.4768 150.652 51.2349 149.41 51.2349 147.878L51.2349 130.895C51.2349 129.363 52.4768 128.121 54.0088 128.121Z" fill="#FFDAC1"/>
<path d="M51.1519 147.8V131.936H52.9351V148.197C52.6049 148.131 51.7859 147.959 51.1519 147.8Z" fill="#EBC8B1"/>
<path d="M56.7813 143.719V148.051L54.2606 148.918L51.0625 147.705L51.1424 143.719H56.7813Z" fill="white"/>
<path fill-rule="evenodd" clip-rule="evenodd" d="M51.1294 144.238H56.7824V144.585H51.1294V144.238Z" fill="#BD4747"/>
<path fill-rule="evenodd" clip-rule="evenodd" d="M51.1157 144.934H56.7814V145.28H51.1157V144.934Z" fill="#476FBD"/>
<path d="M56.9218 131.604C58.024 132.476 57.1385 133.742 56.5571 134.267L56.055 132.928L56.9218 131.604Z" fill="#FFDAC1"/>
<path fill-rule="evenodd" clip-rule="evenodd" d="M56.3025 131.389C56.4212 131.239 56.6392 131.214 56.7893 131.332C57.1178 131.592 57.3167 131.898 57.4003 132.23C57.4827 132.558 57.4457 132.882 57.3533 133.172C57.1715 133.742 56.758 134.239 56.4407 134.525C56.2986 134.653 56.0794 134.642 55.9512 134.5C55.823 134.357 55.8344 134.138 55.9765 134.01C56.2406 133.772 56.5614 133.374 56.6928 132.961C56.757 132.76 56.7713 132.571 56.7281 132.399C56.686 132.232 56.5822 132.052 56.3593 131.876C56.2092 131.757 56.1837 131.539 56.3025 131.389Z" fill="#EBC8B1"/>
<path d="M59.8989 151.189L56.6998 147.907L55.6546 148.047C54.3805 148.216 53.0861 148.155 51.8336 147.866L51.1519 147.709C51.1093 148.5 50.8709 150.4 50.8028 151.666C52.7164 153.096 56.7983 152.886 59.4938 152.468C60.1078 152.373 60.3327 151.634 59.8989 151.189Z" fill="#35675B"/>
<g opacity="0.03" filter="url(#filter0_f)">
<path d="M103.091 154.635C103.091 162.292 86.9529 168.499 67.0455 168.499C47.1381 168.499 31 162.292 31 154.635C31 146.978 47.1381 140.771 67.0455 140.771C86.9529 140.771 103.091 146.978 103.091 154.635Z" fill="black"/>
</g>
<g filter="url(#filter1_d)">
<path fill-rule="evenodd" clip-rule="evenodd" d="M72.2437 128.119C73.7757 128.119 75.0177 129.361 75.0177 130.893L75.0177 147.876C75.0177 149.408 73.7757 150.65 72.2437 150.65C70.7117 150.65 69.4697 149.408 69.4697 147.876L69.4697 130.893C69.4697 129.361 70.7117 128.119 72.2437 128.119Z" fill="#FFDAC1"/>
<path d="M69.3867 147.798V131.934H71.17V148.195C70.8398 148.129 70.0208 147.957 69.3867 147.798Z" fill="#EBC8B1"/>
<path d="M75.0171 143.717V148.049L72.4964 148.916L69.2983 147.703L69.3783 143.717H75.0171Z" fill="white"/>
<path fill-rule="evenodd" clip-rule="evenodd" d="M69.3633 144.238H75.0162V144.585H69.3633V144.238Z" fill="#BD4747"/>
<path fill-rule="evenodd" clip-rule="evenodd" d="M69.3516 144.93H75.0173V145.276H69.3516V144.93Z" fill="#476FBD"/>
<path d="M75.1567 131.603C76.2589 132.474 75.3734 133.74 74.7919 134.265L74.2898 132.926L75.1567 131.603Z" fill="#FFDAC1"/>
<path fill-rule="evenodd" clip-rule="evenodd" d="M74.5383 131.387C74.6571 131.237 74.875 131.212 75.0252 131.33C75.3536 131.59 75.5525 131.896 75.6361 132.228C75.7186 132.556 75.6816 132.88 75.5891 133.17C75.4074 133.74 74.9939 134.237 74.6766 134.523C74.5344 134.651 74.3152 134.64 74.1871 134.498C74.0589 134.355 74.0702 134.136 74.2124 134.008C74.4764 133.77 74.7972 133.372 74.9287 132.959C74.9928 132.758 75.0071 132.569 74.9639 132.397C74.9218 132.23 74.8181 132.051 74.5951 131.874C74.445 131.755 74.4196 131.537 74.5383 131.387Z" fill="#EBC8B1"/>
<path d="M63.3769 130.986C62.9758 127.399 61.6924 118.548 59.7671 111.832H80.6239C80.2228 115.497 82.2282 125.783 80.6239 130.986C76.2119 132.996 68.7917 132.404 63.3769 130.986Z" fill="#D1C870"/>
<path d="M45.2789 131.765C44.8861 128.422 43.6291 120.17 41.7437 113.91L65.3119 115.453C64.9191 118.87 63.7406 126.916 62.1694 131.765C57.8486 133.639 50.5818 133.088 45.2789 131.765Z" fill="#F4E97D"/>
<path fill-rule="evenodd" clip-rule="evenodd" d="M92.2001 106.5C92.3576 106.639 92.5024 106.767 92.6311 106.881L92.6313 106.881C93.1869 107.372 93.445 107.535 93.7571 107.732C93.8394 107.784 93.9254 107.838 94.0216 107.901C94.6365 108.306 93.8228 109.462 93.2079 109.058C92.7872 108.781 92.3704 108.489 92.0601 108.251L91.9443 108.357L92.6246 108.959L93.0011 109.292C93.7031 109.912 92.8023 110.852 92.1874 110.448C91.6885 110.12 91.1888 109.67 90.8679 109.348L90.7198 109.484C91.1284 109.914 91.3494 110.087 91.611 110.292C91.6876 110.352 91.7677 110.414 91.857 110.487C92.4279 110.952 91.8416 112.018 90.9193 111.411C90.376 111.054 89.9986 110.662 89.7439 110.398L89.7439 110.398L89.7439 110.398C89.6526 110.303 89.5771 110.225 89.5154 110.17L89.5281 110.16C88.7026 109.343 87.3886 107.97 87.3687 107.648C87.347 107.295 89.4638 105.749 90.5251 105.02C90.5251 105.02 90.5251 105.02 90.5251 105.019C92.0815 105.145 93.7333 105.373 93.4717 106.165C93.3667 106.483 92.8698 106.496 92.2001 106.5Z" fill="#FFDAC1"/>
<path fill-rule="evenodd" clip-rule="evenodd" d="M69.5291 72.5754C71.3514 71.8276 73.4349 72.6986 74.1827 74.5209C78.2692 84.4788 80.9651 89.9264 83.5015 93.8474C85.8639 97.4996 88.1325 99.9086 91.5999 103.591C91.8212 103.826 92.0474 104.066 92.2788 104.312L87.083 109.199C86.8219 108.921 86.5651 108.649 86.3122 108.381C82.9257 104.787 80.2378 101.935 77.5122 97.7216C74.6061 93.2289 71.7097 87.2833 67.5837 77.2289C66.8358 75.4067 67.7069 73.3232 69.5291 72.5754Z" fill="#35675B"/>
<path fill-rule="evenodd" clip-rule="evenodd" d="M73.1247 73.3417C73.4284 73.2171 73.7757 73.3623 73.9003 73.666C78.0039 83.6655 80.7403 89.2783 83.3879 93.3954C85.867 97.2505 88.2754 99.8075 91.7126 103.457C91.94 103.698 92.172 103.944 92.4088 104.196L91.5429 105.011C91.3007 104.753 91.0633 104.501 90.8302 104.254C87.4073 100.62 84.9281 97.9885 82.3879 94.0384C79.6792 89.8262 76.9095 84.1302 72.8005 74.1173C72.6759 73.8136 72.821 73.4664 73.1247 73.3417Z" fill="#407967"/>
<path d="M78.1338 151.187L74.9347 147.905L73.8895 148.045C72.6153 148.215 71.321 148.153 70.0685 147.864L69.3868 147.707C69.3442 148.498 69.1058 150.398 69.0376 151.664C70.9513 153.094 75.0332 152.884 77.7286 152.466C78.3427 152.371 78.5675 151.632 78.1338 151.187Z" fill="#35675B"/>
<path d="M36.8916 113.123C37.8163 102.951 43.3907 79.3593 58.2908 66.3613C60.6685 66.3613 67.2468 67.4709 74.5384 71.9093C78.8321 78.3378 80.2155 82.5435 84.506 89.8219C91.1331 101.433 90.5814 117.103 83.8517 119.361C75.1571 117.391 54.7243 123.822 36.8916 113.123Z" fill="#539882"/>
<mask id="mask0" mask-type="alpha" maskUnits="userSpaceOnUse" x="36" y="66" width="54" height="54">
<path d="M36.8916 113.189C37.8163 103.018 43.3907 79.4258 58.2908 66.4277C60.6685 66.4277 67.2468 67.5373 74.5384 71.9757C78.8321 78.4042 80.2155 82.6099 84.506 89.8883C91.1331 101.499 90.5814 117.169 83.8517 119.428C75.1571 117.457 54.7243 123.889 36.8916 113.189Z" fill="#539882"/>
</mask>
<g mask="url(#mask0)">
<path d="M36.8916 113.123C37.8163 102.952 43.3907 79.3601 58.2908 66.3621C59.876 66.3621 58.6871 66.1639 58.6871 68.3435C47.5912 83.6003 40.0619 102.424 43.2321 116.294C40.0619 114.907 39.4674 114.51 36.8916 113.123Z" fill="#468677"/>
<path fill-rule="evenodd" clip-rule="evenodd" d="M39.8418 119.017C42.6403 93.271 57.1958 72.0543 64.159 64.623L65.4236 65.808C58.6386 73.0491 44.3116 93.9318 41.5646 119.204L39.8418 119.017Z" fill="black" fill-opacity="0.12"/>
<path fill-rule="evenodd" clip-rule="evenodd" d="M46.4268 119.017C49.2252 93.271 63.7808 72.0543 70.744 64.623L72.0085 65.808C65.2236 73.0491 50.8966 93.9318 48.1496 119.204L46.4268 119.017Z" fill="black" fill-opacity="0.12"/>
<path fill-rule="evenodd" clip-rule="evenodd" d="M34.9893 116.071C37.7877 90.3256 52.3433 69.109 59.3065 61.6777L60.571 62.8626C53.7861 70.1037 39.4591 90.9864 36.7121 116.259L34.9893 116.071Z" fill="black" fill-opacity="0.12"/>
<path fill-rule="evenodd" clip-rule="evenodd" d="M53.0127 119.017C55.8112 93.271 70.3667 72.0543 77.3299 64.623L78.5945 65.808C71.8095 73.0491 57.4825 93.9318 54.7355 119.204L53.0127 119.017Z" fill="black" fill-opacity="0.12"/>
<path fill-rule="evenodd" clip-rule="evenodd" d="M81.8273 84.2073C71.4188 78.552 59.2606 72.8711 52.2 69.6584L52.7742 68.3965C59.8421 71.6125 72.0363 77.3097 82.4892 82.9892C87.7128 85.8273 92.522 88.672 96.0432 91.2085C97.8017 92.4753 99.2621 93.6815 100.295 94.7866C101.297 95.858 102.022 96.9628 102.049 98.0205L100.664 98.057C100.65 97.5509 100.258 96.7772 99.2825 95.7334C98.338 94.7231 96.9598 93.5774 95.2329 92.3334C91.7832 89.8483 87.0345 87.0365 81.8273 84.2073ZM79.3084 89.0657C68.7723 83.3204 56.4866 77.5495 49.4273 74.3373L50.0015 73.0755C57.0706 76.2921 69.392 82.0792 79.9721 87.8485C85.2593 90.7316 90.1318 93.6211 93.7002 96.191C95.4824 97.4744 96.9622 98.6944 98.0089 99.8087C99.0228 100.888 99.7582 101.999 99.7861 103.059L98.4002 103.096C98.387 102.592 97.99 101.813 96.9984 100.758C96.0397 99.7372 94.6411 98.577 92.89 97.316C89.3921 94.7969 84.5793 91.9399 79.3084 89.0657ZM75.324 93.5749C64.959 87.8272 52.8443 82.0537 45.7881 78.843L46.3623 77.5812C53.4346 80.7992 65.5861 86.5897 75.9964 92.3625C81.1987 95.2473 85.9862 98.1387 89.4909 100.71C91.2412 101.995 92.6942 103.215 93.7219 104.331C94.7184 105.412 95.4375 106.522 95.4653 107.577L94.0794 107.613C94.066 107.104 93.674 106.324 92.7024 105.27C91.7619 104.25 90.3897 103.089 88.6707 101.828C85.2368 99.3084 80.5094 96.4504 75.324 93.5749ZM71.7793 97.7399C61.8019 92.25 50.0748 86.7342 43.0154 83.522L43.5895 82.2601C50.6586 85.4767 62.4236 91.0097 72.4476 96.5253C77.4567 99.2814 82.052 102.045 85.413 104.521C87.0916 105.757 88.4853 106.939 89.4715 108.028C90.4308 109.087 91.1169 110.178 91.1445 111.226L89.7586 111.262C89.745 110.746 89.3683 109.979 88.4441 108.959C87.5468 107.968 86.2362 106.849 84.5907 105.637C81.3034 103.215 76.7708 100.486 71.7793 97.7399ZM71.0031 103.729C60.6347 98.104 48.5168 92.4537 41.4557 89.2408L42.0299 87.9789C49.0972 91.1947 61.2514 96.8614 71.6641 102.51C76.8676 105.333 81.657 108.162 85.1632 110.688C86.9143 111.949 88.3686 113.15 89.3975 114.252C90.3953 115.321 91.1166 116.424 91.1445 117.481L89.7586 117.517C89.7452 117.01 89.3551 116.238 88.3841 115.198C87.4442 114.192 86.0723 113.051 84.3531 111.813C80.9186 109.339 76.1901 106.543 71.0031 103.729ZM68.4264 108.669C58.2159 102.912 46.256 97.1291 39.2029 93.9197L39.777 92.6579C46.8524 95.8773 58.8507 101.678 69.1074 107.461C74.233 110.351 78.9436 113.248 82.3906 115.824C84.1122 117.11 85.5408 118.333 86.5512 119.45C87.532 120.534 88.2363 121.643 88.2639 122.693L86.878 122.73C86.8645 122.216 86.4769 121.434 85.5232 120.38C84.5991 119.359 83.2507 118.197 81.5607 116.935C78.1847 114.412 73.5344 111.549 68.4264 108.669ZM66.7206 114.482C56.5833 108.764 44.6966 103.021 37.6432 99.8118L38.2174 98.5499C45.2925 101.769 57.2179 107.531 67.4017 113.274C72.4909 116.145 77.1652 119.022 80.5851 121.583C82.2931 122.862 83.7105 124.079 84.7129 125.191C85.6866 126.272 86.3845 127.378 86.4121 128.427L85.0262 128.463C85.0127 127.948 84.6278 127.168 83.683 126.119C82.767 125.103 81.4301 123.948 79.754 122.693C76.4056 120.185 71.7921 117.342 66.7206 114.482ZM65.2547 119.512C55.416 113.878 43.8281 108.219 36.7767 105.011L37.3509 103.749C44.428 106.969 56.0567 112.648 65.9436 118.309C70.8844 121.137 75.4104 123.973 78.7192 126.504C80.3719 127.768 81.7428 128.973 82.7125 130.077C83.6563 131.152 84.3272 132.25 84.3546 133.292L82.9687 133.328C82.9549 132.806 82.5803 132.028 81.6707 130.992C80.7871 129.986 79.4968 128.845 77.8769 127.606C74.6408 125.13 70.1768 122.33 65.2547 119.512ZM62.7256 124.243C53.8916 119.068 43.3079 113.867 36.2568 110.658L36.831 109.397C43.9084 112.617 54.5379 117.84 63.4263 123.047C67.8677 125.649 71.896 128.259 74.8322 130.623C76.299 131.803 77.5147 132.94 78.3751 133.999C79.2188 135.037 79.8012 136.097 79.828 137.114L78.4421 137.151C78.4277 136.604 78.0898 135.846 77.2992 134.873C76.5254 133.921 75.393 132.854 73.9629 131.703C71.1054 129.402 67.1453 126.832 62.7256 124.243Z" fill="black" fill-opacity="0.12"/>
<path fill-rule="evenodd" clip-rule="evenodd" d="M60.2905 119.017C63.089 93.271 77.6446 72.0543 84.6077 64.623L85.8723 65.808C79.0873 73.0491 64.7603 93.9318 62.0133 119.204L60.2905 119.017Z" fill="black" fill-opacity="0.12"/>
<path fill-rule="evenodd" clip-rule="evenodd" d="M77.4656 85.9205C82.3083 76.0216 87.6823 68.3704 91.1937 64.623L92.4582 65.808C89.0955 69.3967 83.8119 76.8917 79.0222 86.682C74.2366 96.4643 69.9719 108.482 68.5993 121.11L66.8765 120.923C68.2766 108.042 72.6189 95.8275 77.4656 85.9205Z" fill="black" fill-opacity="0.12"/>
<path fill-rule="evenodd" clip-rule="evenodd" d="M73.8081 120.059C76.6258 93.7419 91.2822 72.0524 98.2943 64.4551L99.5678 65.6304C92.7329 73.0357 78.2989 94.3931 75.5312 120.243L73.8081 120.059Z" fill="black" fill-opacity="0.12"/>
<path fill-rule="evenodd" clip-rule="evenodd" d="M80.3931 119.017C83.1915 93.271 97.7471 72.0543 104.71 64.623L105.975 65.808C99.1899 73.0491 84.8629 93.9318 82.1159 119.204L80.3931 119.017Z" fill="black" fill-opacity="0.12"/>
<path fill-rule="evenodd" clip-rule="evenodd" d="M85.939 122.31C88.7374 96.5639 103.293 75.3473 110.256 67.916L111.521 69.1009C104.736 76.342 90.4088 97.2247 87.6618 122.497L85.939 122.31Z" fill="black" fill-opacity="0.12"/>
</g>
<path d="M92.6465 33.9043C95.2223 39.6504 95.8167 43.4151 96.8074 44.8021C97.6 45.9116 97.2698 46.5853 97.0056 46.7835C96.8735 48.5007 96.7282 52.2125 97.2037 53.3221C95.6186 53.4806 94.9581 53.5203 94.826 53.5203L94.4298 46.7835L92.6465 33.9043Z" fill="#FEE1CE"/>
<path d="M96.6094 66.5969C95.6187 61.8415 101.167 55.8973 95.6187 51.7363L90.8633 64.2192C90.9293 64.9457 92.488 66.1214 96.6094 66.5969Z" fill="#FEE1CE"/>
<path d="M95.2225 46.9817C95.2225 62.5208 85.2869 75.1178 73.0307 75.1178C60.7745 75.1178 50.8389 62.5208 50.8389 46.9817C50.8389 31.4426 60.7745 18.8457 73.0307 18.8457C85.2869 18.8457 95.2225 31.4426 95.2225 46.9817Z" fill="#FFDAC1"/>
<path d="M98.7885 50.3506C98.7885 52.4298 97.4578 54.1153 95.8164 54.1153C94.1749 54.1153 92.8442 52.4298 92.8442 50.3506C92.8442 48.2714 94.1749 46.5859 95.8164 46.5859C97.4578 46.5859 98.7885 48.2714 98.7885 50.3506Z" fill="white"/>
<path d="M97.2027 50.3499C97.2027 51.1159 96.5817 51.7369 95.8157 51.7369C95.0497 51.7369 94.4287 51.1159 94.4287 50.3499C94.4287 49.5839 95.0497 48.9629 95.8157 48.9629C96.5817 48.9629 97.2027 49.5839 97.2027 50.3499Z" fill="black"/>
<g filter="url(#filter2_f)">
<path d="M97.9192 55.4651C97.9192 56.2311 96.766 56.8521 95.3434 56.8521C93.9208 56.8521 92.7676 56.2311 92.7676 55.4651C92.7676 54.6991 93.9208 54.0781 95.3434 54.0781C96.766 54.0781 97.9192 54.6991 97.9192 55.4651Z" fill="#FFCCAA"/>
</g>
<path d="M97.7551 57.8605C94.5568 54.4203 95.5461 48.0456 91.6445 38.2637L88.9843 61.2785C90.3289 60.8426 93.9654 59.5487 97.7551 57.8605Z" fill="#FFDAC1"/>
<path d="M55.594 56.6901C55.594 59.207 53.5536 61.2473 51.0367 61.2473C48.5198 61.2473 46.4795 59.207 46.4795 56.6901C46.4795 54.1732 48.5198 52.1328 51.0367 52.1328C53.5536 52.1328 55.594 54.1732 55.594 56.6901Z" fill="#FFDAC1"/>
<path d="M95.7844 74.6388C99.5817 71.3542 95.2834 64.4192 94.6282 59.2676C86.9558 61.0818 68.0816 66.3053 59.7554 69.5709C67.2847 76.9021 88.8652 80.6238 95.7844 74.6388Z" fill="#FFDAC1"/>
<path fill-rule="evenodd" clip-rule="evenodd" d="M89.6601 65.1495C89.837 65.0206 90.0849 65.0595 90.2138 65.2364C90.7269 65.9407 91.4304 66.4136 92.2286 66.5246C93.0214 66.6348 93.9692 66.3963 94.9922 65.5591C95.1616 65.4205 95.4112 65.4455 95.5498 65.6148C95.6884 65.7842 95.6635 66.0339 95.4941 66.1725C94.3377 67.1188 93.1747 67.4563 92.1194 67.3096C91.0696 67.1637 90.188 66.5468 89.5732 65.7031C89.4443 65.5262 89.4832 65.2783 89.6601 65.1495Z" fill="#FF8080"/>
<g filter="url(#filter3_f)">
<path d="M84.8423 59.4275C84.8423 60.8556 82.2697 62.0133 79.0962 62.0133C75.9227 62.0133 73.3501 60.8556 73.3501 59.4275C73.3501 57.9995 75.9227 56.8418 79.0962 56.8418C82.2697 56.8418 84.8423 57.9995 84.8423 59.4275Z" fill="#FFCCAA"/>
</g>
<path d="M84.919 52.3311C84.919 54.4103 83.2335 56.0958 81.1543 56.0958C79.0752 56.0958 77.3896 54.4103 77.3896 52.3311C77.3896 50.2519 79.0752 48.5664 81.1543 48.5664C83.2335 48.5664 84.919 50.2519 84.919 52.3311Z" fill="white"/>
<path d="M82.1446 52.3323C82.1446 53.0983 81.5236 53.7193 80.7576 53.7193C79.9916 53.7193 79.3706 53.0983 79.3706 52.3323C79.3706 51.5663 79.9916 50.9453 80.7576 50.9453C81.5236 50.9453 82.1446 51.5663 82.1446 52.3323Z" fill="black"/>
<path fill-rule="evenodd" clip-rule="evenodd" d="M51.553 54.4497C51.5666 54.6681 51.4006 54.8563 51.1822 54.8699C50.0118 54.9431 49.4503 55.374 49.1809 55.8079C48.8977 56.2639 48.8859 56.8045 48.9678 57.1593C49.017 57.3725 48.884 57.5853 48.6708 57.6345C48.4575 57.6837 48.2447 57.5508 48.1955 57.3375C48.0792 56.8337 48.0873 56.0665 48.5075 55.3898C48.9415 54.691 49.767 54.1642 51.1328 54.0789C51.3512 54.0653 51.5393 54.2313 51.553 54.4497Z" fill="#FFCCAA"/>
<path fill-rule="evenodd" clip-rule="evenodd" d="M54.2634 111.074C54.3401 111.285 54.4102 111.477 54.4719 111.646C54.7188 112.32 54.8661 112.583 55.0436 112.9C55.0911 112.985 55.1408 113.074 55.1951 113.175C55.5425 113.824 54.2756 114.452 53.9283 113.803C53.6907 113.359 53.4635 112.904 53.3046 112.546L53.1522 112.585L53.4631 113.438L53.6352 113.91C53.956 114.79 52.7157 115.187 52.3684 114.538C52.0865 114.011 51.8619 113.378 51.7336 112.941L51.5383 112.991C51.6923 113.563 51.8039 113.821 51.9361 114.125L51.9361 114.125C51.9748 114.215 52.0152 114.308 52.0591 114.414C52.3391 115.095 51.315 115.752 50.7941 114.779C50.4872 114.206 50.3424 113.681 50.2447 113.328L50.2447 113.328C50.2097 113.201 50.1807 113.096 50.1525 113.019L50.1687 113.016C49.8331 111.904 49.3337 110.07 49.4699 109.778C49.6191 109.457 52.2174 109.109 53.498 108.974C53.498 108.974 53.498 108.974 53.498 108.974C53.498 108.974 53.4981 108.974 53.4981 108.974C54.8062 109.827 56.1488 110.816 55.5409 111.387C55.2968 111.617 54.8538 111.391 54.2634 111.074Z" fill="#FFDAC1"/>
<path fill-rule="evenodd" clip-rule="evenodd" d="M58.155 71.0382C59.8408 72.057 60.3814 74.2496 59.3625 75.9353C54.1023 84.6385 52.5214 90.3722 52.3956 94.9439C52.2845 98.9811 53.2617 102.344 54.5291 106.706C54.7409 107.434 54.9607 108.191 55.1848 108.983L48.3214 110.925C48.1259 110.235 47.9226 109.541 47.7177 108.843C46.4484 104.515 45.121 99.9887 45.2652 94.7477C45.4365 88.5207 47.6202 81.5733 53.2578 72.2457C54.2767 70.5599 56.4693 70.0193 58.155 71.0382Z" fill="#35675B"/>
</g>
<path fill-rule="evenodd" clip-rule="evenodd" d="M84.2303 42.6686C83.5885 41.4762 82.4759 39.9977 81.1122 39.9281C81.1006 39.9275 81.0863 39.9267 81.07 39.9258C80.8217 39.9118 80.0841 39.8703 80.5278 40.111C80.769 40.2418 80.9283 40.711 81.0487 41.0653C81.0891 41.1843 81.1252 41.2904 81.1584 41.3664C81.1901 41.4387 81.2553 41.5485 81.3175 41.6534C81.4461 41.87 81.5623 42.0657 81.3456 41.8678C80.9128 41.4727 80.6623 41.4796 80.084 41.5774C79.5889 41.6612 79.1936 41.789 78.7334 41.9904C78.5944 42.0513 78.714 42.0422 78.8864 42.029C79.0395 42.0174 79.2341 42.0025 79.3263 42.0307C79.5428 42.0967 79.8132 42.5926 79.8888 42.7973C79.9416 42.9401 79.5837 42.8873 79.2714 42.8411C79.0979 42.8155 78.9385 42.792 78.8713 42.8052C78.7964 42.8199 78.678 42.8258 78.5405 42.8326C78.1365 42.8526 77.5681 42.8809 77.457 43.1651C77.4407 43.2066 77.5294 43.2374 77.6203 43.2689C77.6926 43.294 77.7664 43.3196 77.7898 43.3516C77.855 43.4407 77.8992 43.5566 77.9415 43.6675C77.9595 43.7148 77.9772 43.7612 77.996 43.8042C78.1619 44.1831 77.9436 44.095 77.6772 43.9874C77.5419 43.9328 77.3942 43.8732 77.2782 43.8672C76.5303 43.8291 75.8883 44.1106 75.2239 44.4019C75.1999 44.4124 75.176 44.4229 75.152 44.4334C75.0526 44.4769 75.1477 44.483 75.2997 44.4926C75.5091 44.506 75.8264 44.5261 75.8915 44.6606C75.9017 44.6817 75.9174 44.7112 75.9363 44.7467C76.0508 44.9624 76.2817 45.3973 76.1025 45.4758C76.0125 45.5152 75.9201 45.4528 75.8328 45.3938C75.7909 45.3655 75.7502 45.338 75.7115 45.3229C75.4613 45.225 75.2817 45.275 75.0758 45.3323C74.9833 45.3581 74.8855 45.3853 74.7735 45.4013C74.4144 45.4525 73.6142 45.6582 73.4795 46.0731C73.4422 46.1879 73.8056 46.0384 74.0219 45.9494C74.0954 45.9191 74.152 45.8959 74.1701 45.8923C74.435 45.8403 74.4676 46.1109 74.4978 46.3615C74.4995 46.3755 74.5012 46.3894 74.5029 46.4032L74.3508 46.4759C74.2705 46.4875 74.1631 46.502 74.0374 46.5189C73.0851 46.6469 71.076 46.917 71.7428 47.2C71.9165 47.2737 71.6166 47.4776 71.2939 47.6971C70.9449 47.9344 70.5692 48.1899 70.7376 48.3181C70.74 48.32 70.743 48.3219 70.7464 48.3237C70.4827 48.654 70.4141 49.1187 70.6086 49.5256C70.8796 50.093 71.5593 50.6798 72.1267 50.4087L83.8693 44.7985C84.3136 44.5862 84.5573 43.7768 84.512 43.3135C84.53 43.3251 84.5473 43.3378 84.5639 43.3516C84.542 43.3016 84.5188 43.25 84.4944 43.197C84.4761 43.1079 84.4468 43.0195 84.4058 42.9337C84.3588 42.8352 84.2993 42.7465 84.2303 42.6686Z" fill="#969696"/>
<path fill-rule="evenodd" clip-rule="evenodd" d="M89.4761 41.7017C89.3625 41.2139 89.8235 39.3934 90.6847 38.9262C90.6917 38.9224 90.7003 38.9177 90.7102 38.9122C90.8604 38.8297 91.3068 38.5845 91.1025 38.8662C90.9914 39.0193 91.0318 39.3584 91.0623 39.6146C91.0726 39.7006 91.0817 39.7773 91.0836 39.8344C91.0855 39.8888 91.0776 39.9765 91.0701 40.0602C91.0545 40.2332 91.0405 40.3894 91.1164 40.2019C91.2681 39.8275 91.4259 39.7573 91.8146 39.6461C92.1474 39.551 92.4313 39.5129 92.7773 39.5013C92.8819 39.4978 92.8048 39.5277 92.6937 39.5708C92.595 39.6091 92.4696 39.6577 92.4206 39.7027C92.3056 39.8081 92.2849 40.1969 92.2988 40.3467C92.3084 40.4512 92.5153 40.3119 92.6958 40.1903C92.796 40.1228 92.8882 40.0608 92.9339 40.049C92.9848 40.0359 93.0602 40.0043 93.1478 39.9677C93.405 39.86 93.7669 39.7085 93.9205 39.8522C93.943 39.8732 93.897 39.9187 93.8499 39.9653C93.8123 40.0025 93.774 40.0403 93.769 40.0672C93.755 40.142 93.762 40.2272 93.7686 40.3087C93.7715 40.3435 93.7743 40.3776 93.7753 40.41C93.7778 40.4828 93.7867 40.5291 93.801 40.5554L93.8996 40.5568C93.9373 40.5284 93.9812 40.4804 94.0281 40.4291C94.096 40.3549 94.1701 40.2739 94.2405 40.2357C94.6943 39.9895 95.1772 39.9737 95.6771 39.9572C95.6951 39.9567 95.7132 39.9561 95.7312 39.9555C95.8059 39.953 95.7486 39.985 95.657 40.0362C95.5307 40.1068 95.3394 40.2137 95.3388 40.3167C95.3387 40.3382 95.337 40.3596 95.3354 40.3803C95.3284 40.4696 95.3226 40.5441 95.45 40.5398C95.5503 40.5365 95.9339 40.3931 95.9944 40.3284C96.1209 40.1931 96.2474 40.1708 96.3925 40.1452C96.4577 40.1337 96.5266 40.1216 96.601 40.0982C96.8396 40.0233 97.3984 39.9132 97.6056 40.1312C97.6629 40.1915 97.3924 40.2066 97.2314 40.2156C97.1767 40.2186 97.1346 40.221 97.1223 40.2241C96.9615 40.2656 97.0215 40.4159 97.0812 40.5657C97.086 40.5778 97.0909 40.5899 97.0956 40.6019L97.1285 40.6023C97.1951 40.6033 97.1285 40.6023 97.1951 40.6033L97.6193 40.6093C97.6506 40.5851 97.6836 40.5551 97.7185 40.5182C98.1623 40.049 98.5105 39.7316 98.7802 39.6089C98.8996 39.5729 98.8884 39.726 98.8745 39.9145C98.8587 40.1301 98.8394 40.392 99.0081 40.4708C99.2685 40.5925 99.6081 40.5039 99.9151 40.4237C100.139 40.3653 100.345 40.3114 100.491 40.3467C100.665 40.5181 100.614 40.7589 100.393 41.1295C100.393 41.1681 100.425 41.2251 100.393 41.2695C100.472 41.4274 100.428 41.5988 100.425 41.7875C100.416 42.4162 99.8991 43.2653 99.2704 43.2564L90.5974 43.1342C89.9917 43.1257 89.5031 42.299 89.4761 41.7017Z" fill="#969696"/>
<path fill-rule="evenodd" clip-rule="evenodd" d="M91.7837 46.8622C91.9661 46.804 92.161 46.9047 92.2192 47.0871C92.5415 48.0981 92.9893 49.1223 93.5443 50.0197C93.733 50.3248 93.9641 50.6093 94.2159 50.9001C94.2864 50.9815 94.3594 51.0644 94.4335 51.1485C94.6179 51.3577 94.8088 51.5745 94.9843 51.7951C95.2269 52.1 95.4209 52.4279 95.6006 52.7348C95.6081 52.7476 95.6156 52.7604 95.623 52.7731C95.7979 53.0718 95.9602 53.3492 96.1541 53.6054C96.5639 54.1469 97.011 54.7401 97.257 55.4598C97.3856 55.836 97.5264 56.3507 97.5662 56.8678C97.6051 57.3744 97.5524 57.95 97.2198 58.3849C96.9913 58.6837 96.6193 58.9492 96.2563 59.1549C95.8869 59.3642 95.4874 59.5335 95.1704 59.6255C93.5196 60.1048 92.0744 59.8441 90.6919 58.8871C90.5475 58.7871 90.4133 58.6269 90.3051 58.4641C90.1929 58.2952 90.0897 58.0943 90.0186 57.8888C89.9492 57.688 89.901 57.4552 89.9281 57.2326C89.957 56.9957 90.0766 56.7554 90.3426 56.6224C90.5138 56.5368 90.7219 56.6062 90.8076 56.7774C90.8932 56.9486 90.8238 57.1568 90.6526 57.2424C90.6521 57.2426 90.6516 57.2428 90.6511 57.2431C90.6392 57.249 90.6235 57.2567 90.6162 57.3165C90.6068 57.3931 90.6219 57.5124 90.6737 57.6623C90.7239 57.8074 90.7997 57.9558 90.8825 58.0806C90.9694 58.2113 91.046 58.2891 91.0865 58.3171C92.3021 59.1587 93.5322 59.3793 94.9772 58.9598C95.2357 58.8848 95.5855 58.7382 95.9146 58.5518C96.2501 58.3617 96.5256 58.1516 96.6692 57.9638C96.8463 57.7322 96.9094 57.3682 96.875 56.921C96.8415 56.4844 96.7197 56.0311 96.6011 55.684C96.3966 55.0856 96.02 54.5769 95.6014 54.0237C95.3819 53.7337 95.2006 53.4237 95.031 53.1338C95.0214 53.1175 95.0119 53.1013 95.0025 53.0851C94.8209 52.775 94.6496 52.4878 94.4418 52.2266C94.2778 52.0204 94.1052 51.8245 93.9258 51.6209C93.849 51.5338 93.771 51.4452 93.6919 51.3539C93.4338 51.0558 93.1733 50.7377 92.9547 50.3843C92.3652 49.4311 91.8954 48.3534 91.5588 47.2977C91.5006 47.1153 91.6013 46.9203 91.7837 46.8622Z" fill="#FFCCAA"/>
<path d="M86.4861 62.1213C88.8043 59.4525 92.8471 59.1683 95.5159 61.4865V61.4865L92.018 65.5134C89.6998 68.1822 85.6571 68.4664 82.9883 66.1483V66.1483L86.4861 62.1213Z" fill="#C4C4C4"/>
<path d="M99.9697 62.2187C97.7452 59.4713 93.7147 59.0475 90.9674 61.272V61.272L94.3239 65.4174C96.5484 68.1648 100.579 68.5886 103.326 66.3641V66.3641L99.9697 62.2187Z" fill="#C4C4C4"/>
<path d="M83.6886 66.2516C83.5149 66.2516 87.1622 61.6144 87.6833 61.4128C88.2043 61.2111 86.8617 64.6683 85.4156 65.5641C84.6285 66.0516 83.8623 66.2516 83.6886 66.2516Z" fill="#F0F0F0"/>
<path d="M93.5601 64.1764C93.3869 64.3496 95.2584 66.2906 95.8129 66.4292C96.3675 66.5679 93.7333 64.0031 93.5601 64.1764Z" fill="#969696"/>
<path d="M57.234 48.3906L58.728 42.6873C57.9165 41.855 51.0338 43.6298 50.7564 43.9004C50.5581 44.0937 51.0018 50.1679 51.3194 53.5869C51.3508 53.9247 51.7964 54.0141 51.9605 53.7172L53.894 50.2201L55.0333 51.3884C55.2327 51.5929 55.58 51.482 55.6239 51.1998L56.1135 48.0559L56.6652 48.5589C56.8578 48.7344 57.168 48.6427 57.234 48.3906Z" fill="#C4C4C4"/>
<path d="M51.8043 53.375C52.416 52.6702 53.1483 51.0901 53.2052 50.9263C53.2621 50.7625 53.1553 50.5419 52.714 50.7557C52.3798 51.1899 51.3134 53.2044 51.8043 53.375Z" fill="#EAEAEA"/>
<path d="M56.2196 47.769C56.3862 48.1634 56.8904 48.5321 56.9466 48.555C57.0027 48.5779 57.1159 48.4607 57.1178 48.1348C57.0064 47.9262 56.3907 47.349 56.2196 47.769Z" fill="#EAEAEA"/>
<path d="M63.2432 40.7329L61.7665 44.9836C61.6849 45.2187 61.3895 45.2937 61.2056 45.126L60.6188 44.591L60.1292 47.7349C60.0852 48.0171 59.738 48.1281 59.5386 47.9236L58.3993 46.7553L56.4658 50.2523C56.3016 50.5492 55.7863 50.4695 55.6741 50.1494C55.4144 49.4088 54.9915 48.5914 54.5021 47.7748L51.1021 46.4998L50.9318 42.5823C50.9194 42.5476 50.918 42.5245 50.9288 42.514C51.2062 42.2435 62.4317 39.9006 63.2432 40.7329Z" fill="#C4C4C4"/>
<path d="M56.3092 49.9101C56.9209 49.2054 57.6532 47.6253 57.7101 47.4615C57.767 47.2977 57.6602 47.0771 57.2189 47.2909C56.8847 47.7251 55.8182 49.7396 56.3092 49.9101Z" fill="#EAEAEA"/>
<path d="M60.7265 44.3022C60.893 44.6966 61.3973 45.0653 61.4534 45.0882C61.5096 45.1111 61.6228 44.9939 61.6246 44.668C61.5133 44.4594 60.8976 43.8822 60.7265 44.3022Z" fill="#EAEAEA"/>
<path d="M75.5376 81.169L69.8188 73.8906L77.9637 75.6236L75.5376 81.169Z" fill="#FFDAC1"/>
<path fill-rule="evenodd" clip-rule="evenodd" d="M75.6016 78.8352C75.6201 78.87 75.6413 78.9181 75.6462 78.9715C75.649 79.0018 75.6501 79.0314 75.6497 79.0602C76.0933 79.3093 76.5472 79.3962 77.0886 79.3962C77.1843 79.3962 77.2619 79.4738 77.2619 79.5695C77.2619 79.6652 77.1843 79.7428 77.0886 79.7428C76.5303 79.7428 76.0351 79.656 75.5499 79.4005C75.4879 79.4945 75.4033 79.5627 75.3124 79.6116C75.1152 79.7175 74.8684 79.7428 74.6699 79.7428C74.5742 79.7428 74.4966 79.6652 74.4966 79.5695C74.4966 79.4738 74.5742 79.3962 74.6699 79.3962C74.8506 79.3962 75.0276 79.3711 75.1484 79.3062C75.1908 79.2835 75.2232 79.2574 75.247 79.2282C75.23 79.2198 75.2118 79.2111 75.1922 79.2016L75.189 79.2001C75.1311 79.1722 75.061 79.1383 74.9978 79.0969C74.9346 79.0554 74.8656 78.9985 74.8184 78.9176C74.7685 78.8318 74.7507 78.7321 74.7706 78.6228C74.7816 78.5626 74.8093 78.4942 74.8721 78.4459C74.9361 78.3968 75.0085 78.3899 75.0643 78.3968C75.1646 78.409 75.2597 78.4701 75.3274 78.5231C75.4015 78.5811 75.473 78.6536 75.5281 78.7242C75.5557 78.7597 75.5814 78.7974 75.6016 78.8352Z" fill="#D5D5D5"/>
<path fill-rule="evenodd" clip-rule="evenodd" d="M75.6016 77.7962C75.6201 77.8309 75.6413 77.8791 75.6462 77.9325C75.649 77.9627 75.6501 77.9923 75.6497 78.0212C76.0933 78.2702 76.5472 78.3572 77.0886 78.3572C77.1843 78.3572 77.2619 78.4347 77.2619 78.5305C77.2619 78.6262 77.1843 78.7037 77.0886 78.7037C76.5303 78.7037 76.0351 78.6169 75.5499 78.3614C75.4879 78.4554 75.4033 78.5237 75.3124 78.5725C75.1152 78.6784 74.8684 78.7037 74.6699 78.7037C74.5742 78.7037 74.4966 78.6262 74.4966 78.5305C74.4966 78.4347 74.5742 78.3572 74.6699 78.3572C74.8506 78.3572 75.0276 78.3321 75.1484 78.2672C75.1908 78.2444 75.2232 78.2184 75.247 78.1891C75.23 78.1808 75.2118 78.172 75.1922 78.1626L75.189 78.161C75.1311 78.1332 75.061 78.0993 74.9978 78.0579C74.9346 78.0164 74.8656 77.9594 74.8184 77.8785C74.7685 77.7927 74.7507 77.693 74.7706 77.5837C74.7816 77.5235 74.8093 77.4551 74.8721 77.4068C74.9361 77.3577 75.0085 77.3509 75.0643 77.3577C75.1646 77.37 75.2597 77.431 75.3274 77.484C75.4015 77.542 75.473 77.6145 75.5281 77.6852C75.5557 77.7206 75.5814 77.7584 75.6016 77.7962Z" fill="#D5D5D5"/>
<path fill-rule="evenodd" clip-rule="evenodd" d="M74.5625 78.1438C74.5811 78.1786 74.6023 78.2267 74.6071 78.2801C74.6099 78.3104 74.611 78.34 74.6106 78.3688C75.0543 78.6179 75.5082 78.7048 76.0495 78.7048C76.1452 78.7048 76.2228 78.7824 76.2228 78.8781C76.2228 78.9738 76.1452 79.0514 76.0495 79.0514C75.4913 79.0514 74.996 78.9646 74.5109 78.7091C74.4488 78.8031 74.3643 78.8713 74.2733 78.9202C74.0761 79.0261 73.8293 79.0514 73.6308 79.0514C73.5351 79.0514 73.4575 78.9738 73.4575 78.8781C73.4575 78.7824 73.5351 78.7048 73.6308 78.7048C73.8115 78.7048 73.9885 78.6797 74.1093 78.6148C74.1518 78.5921 74.1841 78.566 74.2079 78.5368C74.191 78.5284 74.1727 78.5197 74.1531 78.5102L74.1499 78.5087C74.0921 78.4808 74.0219 78.4469 73.9588 78.4055C73.8955 78.364 73.8265 78.3071 73.7794 78.2262C73.7294 78.1404 73.7117 78.0407 73.7315 77.9314C73.7425 77.8712 73.7702 77.8028 73.833 77.7545C73.8971 77.7053 73.9695 77.6985 74.0252 77.7053C74.1255 77.7176 74.2207 77.7787 74.2884 77.8317C74.3625 77.8896 74.4339 77.9622 74.489 78.0328C74.5166 78.0683 74.5423 78.106 74.5625 78.1438Z" fill="#D5D5D5"/>
<path d="M70.1648 79.434L71.2046 75.4481C63.5796 73.1951 58.7273 69.0941 57.5143 67.13C57.5143 67.0722 57.2023 67.2686 55.9546 68.5164C56.7864 71.1505 65.7747 76.8923 70.1648 79.434Z" fill="#3C705F"/>
<path d="M76.4039 85.6653L74.6709 81.5062L75.7107 80.9863L77.4436 85.492L76.4039 85.6653Z" fill="#3B705F"/>
<path fill-rule="evenodd" clip-rule="evenodd" d="M75.8044 80.7461L77.6821 85.6282L76.2973 85.859L74.4492 81.4237L75.8044 80.7461ZM74.8936 81.589L76.5115 85.4719L77.2061 85.3561L75.6179 81.2268L74.8936 81.589Z" fill="#3B705F"/>
<path d="M54.503 18.3479C54.6242 19.4371 57.0208 19.6668 58.0254 19.7754C58.0254 19.7754 57.3638 15.8555 55.8825 16.3748C54.9952 16.6859 54.3818 17.2587 54.503 18.3479Z" fill="#35675B"/>
<path d="M101.244 29.9692C85.0804 35.827 59.398 38.7007 50.6597 46.4988C44.7142 27.328 53.1259 21.24 62.7494 18.3014C70.5596 15.9166 78.9757 15.3143 86.9928 16.8674C94.2987 18.2826 97.0345 20.8518 101.986 27.367C102.675 28.2723 102.313 29.5817 101.244 29.9692Z" fill="#539882"/>
<mask id="mask1" mask-type="alpha" maskUnits="userSpaceOnUse" x="48" y="16" width="55" height="31">
<path d="M101.244 29.9692C85.0804 35.827 59.398 38.7007 50.6597 46.4988C44.7142 27.328 53.1259 21.24 62.7494 18.3014C70.5596 15.9166 78.9757 15.3143 86.9928 16.8674C94.2987 18.2826 97.0345 20.8518 101.986 27.367C102.675 28.2723 102.313 29.5817 101.244 29.9692Z" fill="#539882"/>
</mask>
<g mask="url(#mask1)">
<path fill-rule="evenodd" clip-rule="evenodd" d="M94.1517 16.0775C68.0315 13.7471 53.7838 21.514 47.1156 26.7228L46.6889 26.1765C53.4919 20.8625 67.9132 13.0406 94.2133 15.387L94.1517 16.0775ZM99.2525 19.3902C73.1325 17.0598 51.8222 26.9703 45.1538 32.1793L44.7271 31.633C51.5299 26.3191 73.0138 16.3533 99.3141 18.6998L99.2525 19.3902ZM68.3132 27.1968C57.2137 30.5583 48.4773 35.2344 45.1538 37.8306L44.7271 37.2843C48.1391 34.619 56.9612 29.9104 68.1122 26.5334C79.268 23.1549 92.8022 21.0942 105.632 23.7723L105.49 24.4508C92.8163 21.8053 79.4079 23.8368 68.3132 27.1968ZM69.2216 33.3839C57.9039 36.6684 49.0577 40.892 45.7423 43.4817L45.3156 42.9354C48.7359 40.2638 57.6836 36.0106 69.0284 32.7182C80.3846 29.4226 94.1955 27.074 107.358 28.2483L107.296 28.9387C94.248 27.7746 80.5278 30.1028 69.2216 33.3839ZM67.4353 37.5709C57.9129 40.6102 50.9154 44.2915 47.1496 48.1279L46.6549 47.6424C50.5402 43.6843 57.668 39.9607 67.2245 36.9105C76.7923 33.8567 88.8339 31.4655 102.587 30.197L102.65 30.8873C88.9372 32.1521 76.9463 34.5352 67.4353 37.5709Z" fill="#35675B"/>
<path fill-rule="evenodd" clip-rule="evenodd" d="M55.2878 29.9574C52.6824 26.0959 49.4527 22.7437 47.3243 20.8048L46.8575 21.3173C48.9579 23.2306 52.147 26.5417 54.7132 30.3451C57.2883 34.1615 59.1917 38.4085 58.8242 42.2125L59.5142 42.2791C59.9058 38.225 57.8845 33.8057 55.2878 29.9574ZM38.2381 30.1761C37.1024 29.2845 36.0616 28.4673 35.2236 27.704L34.7568 28.2164C35.6155 28.9986 36.6827 29.8364 37.8206 30.7296C38.0993 30.9484 38.3822 31.1705 38.6673 31.3959C40.124 32.5475 41.6508 33.7951 43.0199 35.1631C45.7651 37.9061 47.818 41.0751 47.4536 44.8468L48.1436 44.9135C48.5384 40.8272 46.3015 37.4622 43.5099 34.6728C42.1106 33.2746 40.5572 32.0063 39.0972 30.8522C38.8061 30.622 38.5192 30.3968 38.2381 30.1761ZM60.0601 28.8212C57.4546 24.9597 54.2249 21.6075 52.0965 19.6687L51.6297 20.1811C53.7301 22.0944 56.9192 25.4055 59.4854 29.2089C62.0605 33.0253 63.9639 37.2723 63.5964 41.0763L64.2864 41.1429C64.6781 37.0888 62.6567 32.6695 60.0601 28.8212ZM41.9877 29.6229C40.852 28.7313 39.8112 27.9142 38.9732 27.1508L38.5064 27.6633C39.3651 28.4455 40.4323 29.2832 41.5702 30.1765C41.8489 30.3952 42.1318 30.6173 42.417 30.8428C43.8736 31.9944 45.4004 33.2419 46.7695 34.61C49.5147 37.353 51.5677 40.5219 51.2033 44.2937L51.8933 44.3603C52.288 40.274 50.0511 36.9091 47.2595 34.1196C45.8602 32.7215 44.3068 31.4532 42.8468 30.299C42.5557 30.0689 42.2688 29.8436 41.9877 29.6229ZM64.2966 27.5376C61.6911 23.6762 58.4615 20.3239 56.3331 18.3851L55.8663 18.8976C57.9667 20.8109 61.1557 24.122 63.722 27.9253C66.2971 31.7418 68.2005 35.9888 67.833 39.7927L68.523 39.8594C68.9146 35.8053 66.8932 31.386 64.2966 27.5376ZM52.2168 32.494C50.0205 29.3527 47.1987 26.7243 45.0845 24.7984L44.6177 25.3108C46.7323 27.2371 49.5013 29.8198 51.6487 32.8912C53.7962 35.9625 55.297 39.4872 54.9285 43.3017L55.6185 43.3683C56.0091 39.3247 54.4132 35.6353 52.2168 32.494ZM68.9714 26.2306C66.366 22.3691 63.1363 19.0169 61.0079 17.0781L60.5411 17.5905C62.6415 19.5039 65.8306 22.815 68.3968 26.6183C70.9719 30.4347 72.8753 34.6817 72.5078 38.4857L73.1978 38.5523C73.5894 34.4982 71.5681 30.0789 68.9714 26.2306ZM73.8167 24.8264C71.2112 20.9649 67.9815 17.6127 65.8532 15.6739L65.3864 16.1863C67.4868 18.0997 70.6758 21.4108 73.2421 25.2141C75.8172 29.0305 77.7206 33.2775 77.3531 37.0815L78.043 37.1481C78.4347 33.094 76.4133 28.6747 73.8167 24.8264ZM78.3941 23.3485C75.7886 19.487 72.559 16.1348 70.4306 14.196L69.9638 14.7084C72.0642 16.6218 75.2532 19.9329 77.8195 23.7362C80.3946 27.5527 82.298 31.7997 81.9305 35.6036L82.6205 35.6703C83.0121 31.6161 80.9907 27.1969 78.3941 23.3485ZM83.7692 21.882C81.1966 17.7785 77.9972 14.179 75.8602 12.2323L75.3934 12.7447C77.4851 14.6501 80.6436 18.2014 83.1819 22.2502C85.7286 26.3124 87.6064 30.8055 87.2384 34.6148L87.9284 34.6814C88.3195 30.6326 86.3334 25.972 83.7692 21.882ZM88.28 20.8827C85.5783 16.8519 82.2519 13.3286 80.1211 11.3876L79.6543 11.9C81.7522 13.8111 85.0394 17.2929 87.7042 21.2686C90.3794 25.2598 92.3779 29.6764 92.0106 33.4786L92.7006 33.5452C93.0924 29.4893 90.9714 24.898 88.28 20.8827ZM93.6158 20.3379C91.0963 16.4277 87.9514 13.0249 85.8187 11.0821L85.3519 11.5945C87.4479 13.5039 90.5513 16.8616 93.0331 20.7134C95.5227 24.5772 97.3457 28.8751 96.9777 32.684L97.6677 32.7507C98.0588 28.7015 96.1275 24.2361 93.6158 20.3379Z" fill="#35675B"/>
<path fill-rule="evenodd" clip-rule="evenodd" d="M47.1927 34.1287C47.6487 29.4298 48.9101 24.8653 49.8097 22.1289L50.4682 22.3454C49.5773 25.0555 48.3319 29.5665 47.8826 34.1956C47.4317 38.8426 47.7921 43.5227 50.0229 46.6436L49.4589 47.0467C47.0742 43.7104 46.7384 38.8099 47.1927 34.1287Z" fill="#35675B"/>
</g>
<g filter="url(#filter4_f)">
<path fill-rule="evenodd" clip-rule="evenodd" d="M95.1167 29.9551L94.29 32.4352L68.2179 38.8663L50.1582 46.9128L51.3858 45.159L51.3888 45.1553C51.5505 44.9492 51.8117 44.7314 52.1493 44.5037C52.4893 44.2744 52.9169 44.0283 53.421 43.7676C54.4292 43.2464 55.7533 42.6621 57.3145 42.0341C60.4373 40.778 64.5211 39.3425 68.9507 37.882C77.8104 34.9607 88.0636 31.9364 94.8021 30.0435L95.1167 29.9551ZM51.6642 45.3657L51.159 46.0874L68.105 38.5372L94.0216 32.1445L94.5812 30.4656C87.8441 32.3626 77.7757 35.3371 69.0592 38.2111C64.6322 39.6708 60.5565 41.1037 57.4438 42.3557C55.8871 42.9818 54.5744 43.5615 53.5802 44.0755C53.083 44.3326 52.668 44.5719 52.3431 44.7911C52.0182 45.0102 51.7932 45.2028 51.6642 45.3657Z" fill="black"/>
</g>
<defs>
<filter id="filter0_f" x="17" y="126.771" width="100.091" height="55.7273" filterUnits="userSpaceOnUse" color-interpolation-filters="sRGB">
<feFlood flood-opacity="0" result="BackgroundImageFix"/>
<feBlend mode="normal" in="SourceGraphic" in2="BackgroundImageFix" result="shape"/>
<feGaussianBlur stdDeviation="7" result="effect1_foregroundBlur"/>
</filter>
<filter id="filter1_d" x="34.6049" y="7.412" width="84.7643" height="157.06" filterUnits="userSpaceOnUse" color-interpolation-filters="sRGB">
<feFlood flood-opacity="0" result="BackgroundImageFix"/>
<feColorMatrix in="SourceAlpha" type="matrix" values="0 0 0 0 0 0 0 0 0 0 0 0 0 0 0 0 0 0 127 0"/>
<feOffset dx="9.14696"/>
<feGaussianBlur stdDeviation="5.71685"/>
<feColorMatrix type="matrix" values="0 0 0 0 0 0 0 0 0 0 0 0 0 0 0 0 0 0 0.18 0"/>
<feBlend mode="normal" in2="BackgroundImageFix" result="effect1_dropShadow"/>
<feBlend mode="normal" in="SourceGraphic" in2="effect1_dropShadow" result="shape"/>
</filter>
<filter id="filter2_f" x="88.1941" y="49.5046" width="14.2986" height="11.9209" filterUnits="userSpaceOnUse" color-interpolation-filters="sRGB">
<feFlood flood-opacity="0" result="BackgroundImageFix"/>
<feBlend mode="normal" in="SourceGraphic" in2="BackgroundImageFix" result="shape"/>
<feGaussianBlur stdDeviation="2.28674" result="effect1_foregroundBlur"/>
</filter>
<filter id="filter3_f" x="66.7185" y="50.2102" width="24.7553" height="18.4346" filterUnits="userSpaceOnUse" color-interpolation-filters="sRGB">
<feFlood flood-opacity="0" result="BackgroundImageFix"/>
<feBlend mode="normal" in="SourceGraphic" in2="BackgroundImageFix" result="shape"/>
<feGaussianBlur stdDeviation="3.31577" result="effect1_foregroundBlur"/>
</filter>
<filter id="filter4_f" x="45.1582" y="24.9551" width="54.9585" height="26.9577" filterUnits="userSpaceOnUse" color-interpolation-filters="sRGB">
<feFlood flood-opacity="0" result="BackgroundImageFix"/>
<feBlend mode="normal" in="SourceGraphic" in2="BackgroundImageFix" result="shape"/>
<feGaussianBlur stdDeviation="2.5" result="effect1_foregroundBlur"/>
</filter>
</defs>
</svg>
