<svg fill="none" height="28" viewBox="0 0 28 28" width="28" xmlns="http://www.w3.org/2000/svg"><path clip-rule="evenodd" d="m2.28718 27.4462s-2.28718 0-2.28718-2.2872 2.28718-9.1487 13.7231-9.1487c11.4359 0 13.7231 6.8615 13.7231 9.1487s-2.2872 2.2872-2.2872 2.2872zm11.43592-13.7231c1.8198 0 3.565-.7229 4.8518-2.0097s2.0097-3.03207 2.0097-4.85186-.7229-3.56505-2.0097-4.85184-3.032-2.0097-4.8518-2.0097-3.5651.72291-4.85186 2.0097c-1.28679 1.28679-2.0097 3.03205-2.0097 4.85184s.72291 3.56506 2.0097 4.85186c1.28676 1.2868 3.03206 2.0097 4.85186 2.0097z" fill="#fff" fill-rule="evenodd"/></svg>