<svg width="250" height="300" viewBox="0 0 250 300" fill="none" xmlns="http://www.w3.org/2000/svg">
<path d="M81 244.5C81 242.567 82.567 241 84.5 241L89 241V248H84.5C82.567 248 81 246.433 81 244.5V244.5Z" fill="#C4C4C4"/>
<path d="M77 244.5C77 242.567 78.567 241 80.5 241L85 241V248H80.5C78.567 248 77 246.433 77 244.5V244.5Z" fill="#7C1010"/>
<path d="M199.535 208.828L202.583 207.857C204.157 207.356 205.84 208.22 206.348 209.792L207.217 212.478C207.9 214.586 206.738 216.848 204.626 217.52L203.466 217.89L203.138 219.311L201.828 218.656L202.156 216.929L199.535 208.828Z" fill="#C4C4C4"/>
<path d="M200.442 208.562L202.575 207.873C204.151 207.363 205.843 208.227 206.353 209.803L207.223 212.494C207.903 214.596 206.751 216.851 204.649 217.531L203.468 217.913L200.442 208.562Z" fill="#C8B074"/>
<path d="M169.724 158.683L171.857 157.993C173.433 157.483 175.124 158.347 175.634 159.924L176.505 162.614C177.185 164.716 176.032 166.971 173.93 167.651L172.749 168.033L169.724 158.683Z" fill="#C8B074"/>
<path d="M200 220L191.84 223C191.84 223 187.152 218.148 185.38 214.333C183.254 209.756 183 201.667 183 201.667L189.12 199C189.12 199 194.432 204.432 196.6 208.667C198.71 212.79 200 220 200 220Z" fill="#272324"/>
<ellipse cx="207" cy="249.5" rx="18" ry="17.5" fill="#242424"/>
<ellipse cx="207" cy="249.5" rx="9" ry="9.5" fill="#E9E9E9"/>
<path d="M168.609 234.695L170.267 241.295" stroke="#FFDAC1" stroke-width="6.34189" stroke-linecap="round"/>
<path d="M165.989 242.052L165.16 238.752L167.86 238.074L168.84 241.974C168.315 241.999 167.01 242.051 165.989 242.052Z" fill="#EBC8B1"/>
<path d="M178 229.5C174.5 235 169.337 239.389 161.313 243.764C156.756 240.729 151.957 228.584 142.501 222.868C135.718 218.769 128.468 214.563 121.887 211.087L141.443 185.543C145.406 189.003 154.168 194.737 162.813 200.897C169.958 205.989 173.791 224.867 178 229.5Z" fill="#D1C870"/>
<path d="M154.079 238.395L155.495 245.051" stroke="#FFDAC1" stroke-width="6.34189" stroke-linecap="round"/>
<path d="M151.258 245.951L150.55 242.623L153.273 242.044L154.11 245.977C153.584 245.983 152.278 245.987 151.258 245.951Z" fill="#EBC8B1"/>
<path d="M160.493 229.106C160.529 237.706 157.742 239.835 149.717 244.208C145.583 241.453 142.744 229.032 134.345 223.897C126.844 219.312 113.601 223.277 106.17 219.349C106.17 219.349 100.267 216.584 97.3273 213.742C95.028 211.519 92.4135 207.19 92.4135 207.19L132.181 192.515C136.114 195.952 142.873 202.014 149.717 208.476C155.463 213.902 158.602 225.179 160.493 229.106Z" fill="#F4E97D"/>
<path d="M154.655 241.259C152.659 242.847 152.122 243.707 150.069 244.862C146.203 242.286 142.508 232.596 135.983 227.5C128.069 222.631 114.146 223.56 106.175 219.346C106.175 219.346 100.18 217.48 97.6551 214.724C96.0246 212.944 94.0518 209.81 94.0518 209.81L101.914 208.172L113.349 213.542C117.376 217.06 128.926 217.092 137.948 222.914C145.139 227.554 150.53 236.716 154.655 241.259Z" fill="#D1C870"/>
<path d="M144.29 234.481C148.751 233.459 149.136 228.842 148.771 226.661C128.634 211.513 100.838 226.254 94.4006 225.035C87.9633 223.817 80.3509 227.043 77.0275 228.748C74.3687 230.111 77.8268 235.678 79.8882 238.291C99.4967 237.447 139.829 235.503 144.29 234.481Z" fill="#4B4B4B"/>
<path d="M60.2156 151.225C59.9358 144.965 66.836 141.381 70.3211 140.372C101.802 155.346 90.7466 199.977 95.2697 207.199C99.7928 214.421 98.0047 226.099 96.7714 231.396C95.7847 235.634 85.8442 235.055 80.9973 234.236C74.1867 209.174 60.4954 157.485 60.2156 151.225Z" fill="#4B4B4B"/>
<path d="M59.8688 150.574C59.3636 144.764 64.3094 143.076 66.8455 142.958C90.9 164.006 84.8249 202.401 88.5221 210.079C92.2193 217.757 90.4554 220.305 89.7928 224.88C89.2628 228.54 81.9603 226.101 78.3275 224.225C72.0858 199.643 60.3739 156.384 59.8688 150.574Z" fill="#424141"/>
<path fill-rule="evenodd" clip-rule="evenodd" d="M145.592 147.531C145.231 147.818 144.858 148.097 144.562 148.299L144.622 148.43L145.735 147.777C146.475 147.344 147.037 148.396 146.509 148.815C146.081 149.155 145.548 149.462 145.176 149.649L145.253 149.817C145.743 149.584 145.957 149.441 146.21 149.272C146.284 149.223 146.361 149.171 146.45 149.114C147.017 148.75 147.778 149.564 146.986 150.193C146.52 150.564 146.072 150.781 145.769 150.927L145.769 150.927C145.661 150.979 145.571 151.023 145.506 151.061L145.501 151.048C144.555 151.533 142.985 152.284 142.699 152.21C142.386 152.128 141.645 149.845 141.314 148.713C141.313 148.713 141.313 148.713 141.313 148.713C141.866 147.395 142.536 146.023 143.151 146.476C143.398 146.659 143.267 147.095 143.079 147.679L143.534 147.412L143.533 147.411C144.119 147.068 144.334 146.89 144.595 146.675L144.595 146.675L144.595 146.675L144.595 146.675C144.663 146.618 144.735 146.558 144.818 146.493C145.345 146.073 146.119 147.111 145.592 147.531Z" fill="#FFDAC1"/>
<path d="M110.054 153.418C107.808 153.582 106.12 155.534 106.283 157.78C106.446 160.026 108.399 161.714 110.645 161.551L110.054 153.418ZM110.645 161.551C120.582 160.829 126.642 160.002 131.455 158.736C136.315 157.457 139.779 155.756 144.31 153.634L140.852 146.25C136.169 148.442 133.394 149.795 129.381 150.85C125.32 151.918 119.872 152.706 110.054 153.418L110.645 161.551Z" fill="#35675B"/>
<path d="M109.28 154.096C108.906 154.123 108.624 154.448 108.652 154.823C108.679 155.197 109.004 155.478 109.378 155.451L109.28 154.096ZM109.378 155.451C119.264 154.733 125.021 153.948 129.471 152.79C133.93 151.63 137.058 150.099 141.653 147.948L141.077 146.717C136.457 148.88 133.445 150.352 129.129 151.475C124.804 152.601 119.149 153.379 109.28 154.096L109.378 155.451Z" fill="#407967"/>
<path d="M166.241 248.754L159.794 244.452L157.478 245.277C156.094 245.77 154.632 246.01 153.163 245.985L151.259 245.952C151.451 247.174 151.704 250.152 152.011 252.108C155.559 253.744 162.157 251.859 166.097 250.294C166.757 250.032 166.832 249.149 166.241 248.754Z" fill="#35675B"/>
<path d="M181.029 244.168L174.43 240.103L172.145 241.013C170.78 241.556 169.328 241.849 167.859 241.877L165.954 241.914C166.191 243.128 166.552 246.095 166.931 248.038C170.536 249.544 177.061 247.419 180.941 245.711C181.591 245.425 181.634 244.54 181.029 244.168Z" fill="#35675B"/>
<path d="M90.8729 209.776C87.3049 197.426 83.0507 167.211 94.5782 145.154C97.3664 144.066 105.588 142.359 116.168 144.228C119.668 157.319 135.079 174.865 147.566 187.663C142.464 199.29 116.678 214.167 90.8729 209.776Z" fill="#539882"/>
<path d="M90.8731 209.778C87.3051 197.427 83.0509 167.212 94.5784 145.155C96.4371 144.43 94.9524 144.741 95.9493 147.297C89.9162 170.263 89.6967 195.781 99.7583 210.595C95.4063 210.419 94.528 210.226 90.8731 209.778Z" fill="#468677"/>
<path fill-rule="evenodd" clip-rule="evenodd" d="M127.436 184.105L128.36 183.821L128.36 183.819C129.551 183.453 130.011 183.226 130.567 182.951L130.567 182.951L130.567 182.951L130.567 182.951C130.713 182.879 130.867 182.803 131.042 182.721C132.16 182.194 133.105 184.374 131.986 184.901C131.221 185.261 130.438 185.603 129.824 185.839L129.875 186.098L131.336 185.649L132.142 185.402C133.646 184.939 134.205 187.055 133.086 187.581C132.178 188.009 131.094 188.332 130.351 188.509L130.417 188.842C131.391 188.633 131.833 188.468 132.356 188.272C132.509 188.215 132.669 188.155 132.852 188.091C134.018 187.68 135.033 189.455 133.354 190.245C132.366 190.71 131.473 190.908 130.871 191.042L130.871 191.042C130.656 191.09 130.477 191.129 130.345 191.17L130.341 191.135C128.353 191.568 124.669 192.047 124.189 191.793C123.84 191.608 123.855 189.706 123.87 187.819L123.87 187.819L123.87 187.819L123.87 187.819C123.878 186.872 123.885 185.929 123.847 185.208L123.849 185.208C123.848 185.207 123.848 185.207 123.847 185.206C125.391 183.085 127.166 180.917 128.072 181.987C128.436 182.416 128.019 183.141 127.436 184.105Z" fill="#FFDAC1"/>
<circle cx="125.398" cy="164.453" r="4.73859" transform="rotate(-21.3085 125.398 164.453)" fill="#539882"/>
<path d="M118.021 149.663C119.133 151.37 124.072 156.94 128.208 160.68L122.943 164.34L115.561 155.709L118.021 149.663Z" fill="#539882"/>
<path d="M113.229 173.753C115.773 174.099 119.439 173.204 120.483 170.388C121.054 173.913 116.305 176.836 113.229 173.753Z" fill="#468677"/>
<path d="M120.25 170.478C118.6 173.799 116.418 174.382 113.461 173.662" stroke="#35675B" stroke-width="0.452992" stroke-linecap="round"/>
<path d="M106.402 160.107C106.994 157.086 105.025 154.156 102.003 153.565C98.9815 152.973 96.0522 154.942 95.4603 157.964L106.402 160.107ZM95.4603 157.964C92.3021 174.087 94.005 184.97 101.827 190.556C105.48 193.165 109.745 194.004 113.558 194.222C117.365 194.439 121.352 194.06 124.719 193.74L123.662 182.64C120.149 182.975 117.011 183.251 114.195 183.09C111.384 182.929 109.528 182.355 108.308 181.483C106.384 180.109 103.336 175.759 106.402 160.107L95.4603 157.964Z" fill="#35675B"/>
<path d="M106.402 160.107C106.994 157.086 105.025 154.156 102.003 153.565C98.9815 152.973 96.0522 154.942 95.4603 157.964L106.402 160.107ZM95.4603 157.964C92.3021 174.087 94.005 184.97 101.827 190.556C105.48 193.165 109.745 194.004 113.558 194.222C117.365 194.439 121.352 194.06 124.719 193.74L123.662 182.64C120.149 182.975 117.011 183.251 114.195 183.09C111.384 182.929 109.528 182.355 108.308 181.483C106.384 180.109 103.336 175.759 106.402 160.107L95.4603 157.964Z" fill="#35675B"/>
<path d="M98.9608 157.933C99.0758 157.393 98.7311 156.862 98.1909 156.747C97.6508 156.632 97.1196 156.977 97.0046 157.517L98.9608 157.933ZM97.0046 157.517C93.0082 176.288 96.7005 185.628 103.437 189.912C106.736 192.01 110.631 192.795 114.366 192.989C118.104 193.182 121.767 192.787 124.631 192.46L124.404 190.473C121.535 190.8 118.023 191.176 114.47 190.991C110.914 190.807 107.405 190.065 104.51 188.225C98.8617 184.632 95.0193 176.447 98.9608 157.933L97.0046 157.517Z" fill="#4A7F6E"/>
<path d="M176.995 168.126C172.063 154.576 156.554 147.063 149.416 145C144.873 147.606 136.567 154.12 139.682 159.332C142.797 164.543 159.799 170.623 167.91 173.012L182.835 202L189 199.069C187.053 194.4 181.927 181.676 176.995 168.126Z" fill="#DA5374"/>
<path d="M139.021 154.749C139.343 152.25 144.172 147.875 147.391 146C147.712 146.417 148.485 147.75 149 149.75C147.069 152.354 138.517 158.671 139.021 154.749Z" fill="#C4C4C4"/>
<path d="M184.548 263.131L141.305 270.738C133.552 271.841 117.587 274.179 115.752 274.708C113.918 275.237 111.493 274.928 110.51 274.708L70.8707 272.062H66.9395C64.3187 272.062 63.3359 270.738 63.0083 267.762C62.6807 264.785 72.1811 251.884 75.7847 248.907C79.3883 245.93 86.9231 246.592 86.9231 243.615C86.9231 241.233 94.3488 236.669 98.0616 234.684H107.234C110.51 234.684 124.925 233.692 126.89 233.692C128.856 233.692 141.305 231.046 142.288 231.707C143.074 232.236 147.857 244.938 150.15 251.223V256.184C160.852 253.979 182.255 248.974 182.255 246.592C181.6 237.992 183.893 234.353 186.186 232.369C188.479 230.384 188.152 228.068 188.807 224.761C189.462 221.453 198.963 217.153 201.911 218.145C204.86 219.138 215.998 228.399 219.929 229.061C223.074 229.59 223.205 232.369 222.878 233.692L184.548 263.131Z" fill="#DA5374"/>
<path d="M90 249C78.402 249 69 258.426 69 270.053V271.368L111 274V270.053C111 258.426 101.598 249 90 249Z" fill="black" fill-opacity="0.5"/>
<path d="M84.9996 207C82.5999 207 81.3333 200.654 81 197.48C84.5552 196.8 93.5322 194.964 100.998 193.06C110.331 190.68 120.996 190 122.996 190C124.996 190 123.663 191.7 121.996 194.42C116.997 194.76 117.663 196.46 109.331 199.52C100.998 202.58 87.9993 207 84.9996 207Z" fill="#4B4B4B"/>
<path d="M81.9461 131.261C82.7608 122.782 74.1381 120.221 69.725 120C64.8591 127.066 61.5774 139.21 63.6144 144.177C72.1013 147.158 80.9277 141.859 81.9461 131.261Z" fill="#4B4B4B"/>
<path d="M72 135.801C72 139.474 66.5467 142.798 63.8201 144C58.4716 124.321 66.337 121.041 69.1685 120.057C72 119.073 72 131.209 72 135.801Z" fill="#424141"/>
<ellipse cx="90.8553" cy="85.7226" rx="19.2654" ry="13.8783" transform="rotate(-20.3964 90.8553 85.7226)" fill="#C5C5C5"/>
<path d="M80.5815 86.615C82.6457 84.7802 90.673 80.1932 102.599 80.8812L96.8654 89.3674C92.6607 89.2144 83.5172 88.4498 80.5815 86.615Z" fill="#539882"/>
<path d="M94.5723 85.3996C118.883 64.5287 139.525 99.1606 126.452 116.362C111.59 102.968 99.0064 90.1395 94.5723 85.3996Z" fill="#E1E1E1"/>
<path d="M122.095 102.371C125.076 109.022 125.764 113.38 126.911 114.985C127.828 116.27 127.446 117.05 127.14 117.279C126.988 119.267 126.819 123.563 127.37 124.847C125.535 125.031 124.77 125.077 124.618 125.077L124.159 117.279L122.095 102.371Z" fill="#FEE1CE"/>
<path d="M126.68 140.213C125.533 134.709 131.955 127.829 125.533 123.012L120.029 137.461C120.105 138.302 121.909 139.663 126.68 140.213Z" fill="#FEE1CE"/>
<ellipse cx="99.3889" cy="117.51" rx="25.6872" ry="32.5677" fill="#FFDAC1"/>
<ellipse cx="125.764" cy="121.406" rx="3.44025" ry="4.35765" fill="white"/>
<circle cx="125.765" cy="121.408" r="1.60545" fill="black"/>
<g filter="url(#filter0_f)">
<ellipse cx="125.216" cy="127.329" rx="2.98155" ry="1.60545" fill="#FFCCAA"/>
</g>
<path d="M132.89 121.407C132.89 123.943 132.313 126.172 131.45 127.719C130.561 129.31 129.55 129.911 128.744 129.911C127.939 129.911 126.927 129.31 126.039 127.719C125.175 126.172 124.599 123.943 124.599 121.407C124.599 118.872 125.175 116.643 126.039 115.096C126.927 113.505 127.939 112.904 128.744 112.904C129.55 112.904 130.561 113.505 131.45 115.096C132.313 116.643 132.89 118.872 132.89 121.407Z" stroke="#91D7B9" stroke-width="2.71795"/>
<path d="M128.009 130.099C124.307 126.117 125.452 118.738 120.936 107.416L117.857 134.055C119.413 133.551 123.623 132.053 128.009 130.099Z" fill="#FFDAC1"/>
<circle cx="73.9303" cy="128.746" r="5.27506" fill="#FFDAC1"/>
<path d="M125.725 149.521C130.12 145.719 125.145 137.692 124.387 131.729C115.506 133.829 93.6587 139.875 84.021 143.655C92.7363 152.141 117.716 156.449 125.725 149.521Z" fill="#FFDAC1"/>
<path d="M122.783 114.526C124.388 121.636 125.306 127.829 127.37 130.122C125.902 130.856 124.618 131.498 124.159 131.728" stroke="#FFCCAA" stroke-width="0.905984"/>
<path d="M117.507 125.613C121.635 123.7 123.47 123.7 125.534 123.471" stroke="#91D7B9" stroke-width="2.71795"/>
<path d="M126.369 135.748C123.149 141.978 121.092 137.607 120.039 136.162C123.116 133.798 125.793 134.78 126.369 135.748Z" fill="#FF9D9D" stroke="#FF8080" stroke-width="0.905984" stroke-linecap="round" stroke-linejoin="round"/>
<g filter="url(#filter1_f)">
<ellipse cx="106.41" cy="131.914" rx="6.65116" ry="2.99302" fill="#FFCCAA"/>
</g>
<path d="M117.754 125.077C117.754 131.445 113.187 136.332 107.874 136.332C102.562 136.332 97.9952 131.445 97.9952 125.077C97.9952 118.709 102.562 113.822 107.874 113.822C113.187 113.822 117.754 118.709 117.754 125.077Z" stroke="#91D7B9" stroke-width="2.71795"/>
<circle cx="108.79" cy="123.701" r="4.35765" fill="white"/>
<circle cx="110.605" cy="122.605" r="1.60545" fill="black"/>
<path d="M73.93 123.241C76.6822 124.847 91.8193 129.892 109.709 103.058C109.174 98.8535 105.305 89.389 94.1128 85.1689C73.0126 89.5266 71.4072 121.865 73.93 123.241Z" fill="#E1E1E1"/>
<path d="M125.993 112.005C120.259 111.317 117.737 104.895 109.709 103.06C108.563 98.4734 106.315 91.6362 94.5723 85.3979C102.6 81.9576 125.993 89.9875 125.993 112.005Z" fill="#E1E1E1"/>
<path d="M73.7002 123.011C50.9947 101.223 77.3706 77.1403 94.8009 85.3977C84.893 103.379 76.4524 117.889 73.7002 123.011Z" fill="#E1E1E1"/>
<circle cx="75.0765" cy="133.563" r="1.8348" fill="#539882"/>
<path d="M67.9809 102.425C68.2667 98.9326 69.1227 97.2014 74.2988 90.6318C72.6252 93.9789 72.4622 97.2365 72.858 99.8013C73.0648 101.141 71.0789 103.717 69.7318 103.87C69.6868 103.875 69.6416 103.881 69.5959 103.886C68.7182 103.992 67.9088 103.306 67.9809 102.425Z" fill="#C4C4C4"/>
<path d="M109.621 102.328C114.896 103.016 120.859 111.502 125.905 111.502" stroke="#C4C4C4" stroke-width="1.81197" stroke-linecap="round"/>
<path d="M123.945 89.2031C122.255 86.8776 118.935 83.5786 114.208 81.6875C116.804 83.4851 118.531 86.1525 119.994 90.2955C120.363 91.3391 121.455 91.8393 122.525 91.5588C123.798 91.2254 124.718 90.2678 123.945 89.2031Z" fill="#F0F0F0"/>
<path d="M74.5283 85.8153C75.9044 80.3109 80.7207 77.3294 82.5556 76.1826" stroke="#A8A8A8" stroke-width="0.905984" stroke-linecap="round"/>
<path d="M107.327 78.4764C105.951 75.7241 103.657 74.1188 101.593 73.4307" stroke="#E1E1E1" stroke-width="0.905984" stroke-linecap="round"/>
<path d="M103.007 111.594L112.376 107.117" stroke="#969696" stroke-width="1.81197" stroke-linecap="round"/>
<path d="M121.381 107.061L128.427 110.584" stroke="#969696" stroke-width="1.81197" stroke-linecap="round"/>
<path d="M71.2275 120.93C70.4809 120.854 69.8136 121.397 69.737 122.144C69.6604 122.89 70.2036 123.558 70.9502 123.634L71.2275 120.93ZM98.0615 123.683L71.2275 120.93L70.9502 123.634L97.7842 126.386L98.0615 123.683Z" fill="#91D7B9"/>
<path d="M90.5844 122.055C76.1353 128.935 74.3005 121.825 71.5483 120.908C78.7041 119.073 87.2206 120.908 90.5844 122.055Z" fill="#E1E1E1"/>
<path d="M102.511 107.375C92.4201 117.237 88.2917 119.301 80.0352 120.906" stroke="#C4C4C4" stroke-width="1.81197" stroke-linecap="round"/>
<path d="M108.014 99.1184C107.097 96.3662 103.152 89.5774 94.7117 85.3574C93.7943 84.8987 91.2715 83.752 88.0605 83.752C94.4824 85.5868 102.051 91.0912 108.014 99.1184Z" fill="#C4C4C4"/>
<path d="M74.0711 126.182C71.1354 126.365 70.8602 128.399 71.0895 129.393" stroke="#FFCCAA" stroke-width="0.905984" stroke-linecap="round"/>
<path d="M137.935 164.059C141.603 160.055 149.507 158.387 153 158.054C151.908 157.609 148.874 156.786 145.468 157.053C141.21 157.386 132.368 161.39 132.04 164.059C131.713 166.728 133.35 169.064 137.935 164.059Z" fill="#272324" stroke="#272324"/>
<ellipse cx="151" cy="157.5" rx="4" ry="3.5" fill="#242535"/>
<path d="M134 163C134 163.379 134 163.754 134 164.168C134 164.443 134 164.723 134 165" stroke="#D5D5D5" stroke-opacity="0.2" stroke-linecap="round" stroke-linejoin="round"/>
<path d="M136 161C136 161.385 136 162.353 136 163" stroke="#D5D5D5" stroke-opacity="0.2" stroke-linecap="round" stroke-linejoin="round"/>
<path d="M138 160C138.386 160.485 138.86 160.956 138.963 161.458C139 161.639 139 161.819 139 162" stroke="#D5D5D5" stroke-opacity="0.2" stroke-linecap="round" stroke-linejoin="round"/>
<path d="M77 227.429C77 223.878 79.8782 221 83.4286 221H94.5714C98.1218 221 101 223.878 101 227.429V227.429C101 229.401 99.401 231 97.4286 231H80.5714C78.599 231 77 229.401 77 227.429V227.429Z" fill="#747474"/>
<path d="M88.2711 207.989C85.5525 210.176 81.5756 209.745 79.3885 207.027L78.6845 206.152C76.4973 203.433 76.9282 199.456 79.6468 197.269V197.269C81.1572 196.054 83.3666 196.293 84.5816 197.804L88.8058 203.054C90.0208 204.565 89.7815 206.774 88.2711 207.989V207.989Z" fill="#747474"/>
<path d="M142.526 153.842C142.438 154.104 142.58 154.388 142.842 154.475C143.104 154.562 143.387 154.421 143.474 154.159L142.526 153.842ZM143.526 150.842L142.526 153.842L143.474 154.159L144.474 151.159L143.526 150.842Z" fill="#7A0000"/>
<path d="M143 150.994C143.195 150.994 143.397 151.011 143.591 150.989C143.779 150.968 143.947 150.864 144.104 150.75C144.602 150.389 144.902 149.707 144.97 149.029C144.993 148.799 145.01 148.558 144.994 148.325C144.989 148.261 144.946 148.257 144.921 148.209C144.89 148.151 144.835 148.023 144.779 148" stroke="#707070" stroke-linecap="round" stroke-linejoin="round"/>
<path d="M145.659 150.606C145.711 150.673 145.816 150.775 145.748 150.863C145.675 150.957 145.554 150.977 145.445 150.948C145.387 150.933 145.431 150.963 145.443 150.993C145.465 151.046 145.386 151.139 145.357 151.175C145.318 151.225 145.27 151.282 145.22 151.321C145.152 151.374 145.053 151.326 144.995 151.278C144.968 151.256 144.82 151.154 144.847 151.098" stroke="#707070" stroke-width="0.3" stroke-linecap="round" stroke-linejoin="round"/>
<path d="M146.198 151.266C146.104 151.315 146.013 151.37 145.921 151.423C145.837 151.472 145.737 151.529 145.669 151.602C145.589 151.688 145.636 151.881 145.758 151.903C146.004 151.947 146.225 151.769 146.354 151.578C146.392 151.522 146.424 151.479 146.395 151.415C146.369 151.359 146.342 151.331 146.286 151.313" stroke="#707070" stroke-width="0.3" stroke-linecap="round" stroke-linejoin="round"/>
<path d="M146.756 148.914C146.697 149.003 146.645 149.095 146.59 149.186C146.54 149.27 146.48 149.368 146.456 149.464C146.427 149.579 146.561 149.725 146.679 149.685C146.916 149.604 147.023 149.343 147.044 149.112C147.05 149.045 147.057 148.993 147.001 148.951C146.951 148.914 146.914 148.902 146.856 148.913" stroke="#707070" stroke-width="0.3" stroke-linecap="round" stroke-linejoin="round"/>
<path d="M146 149.002C146 149.002 146 148.99 146 149.046C146 149.079 146 149.134 146 149.186C146 149.256 146 149.266 146 149.305C146 149.372 146 149.462 146 149.537C146 149.567 146 149.603 146 149.625C146 149.658 146 149.654 146 149.686C146 149.733 146 149.824 146 149.883C146 149.932 146 149.965 146 150" stroke="#707070" stroke-width="0.3" stroke-linecap="round" stroke-linejoin="round"/>
<path d="M205.203 270.094C201.873 270.628 194.277 269.473 190.533 260.586" stroke="black"/>
<path d="M204.15 272.994C201.247 273.017 194.391 271.519 190.199 265.344" stroke="black"/>
<path d="M85.9618 290.405C82.6315 290.939 75.0351 289.784 71.2913 280.897" stroke="black"/>
<path d="M65.7093 237.279C65.4871 234.384 66.5109 227.442 72.3837 222.836" stroke="black"/>
<ellipse cx="38" cy="285" rx="12" ry="9" fill="#D7D6D6"/>
<ellipse cx="40" cy="278" rx="12" ry="9" fill="#D7D6D6"/>
<ellipse cx="51" cy="283" rx="12" ry="9" fill="#CECECE"/>
<ellipse cx="54.5" cy="276" rx="11.5" ry="8" fill="#D7D6D6"/>
<ellipse cx="62.5" cy="282" rx="8.5" ry="6" fill="#D7D6D6"/>
<ellipse cx="67" cy="278" rx="8" ry="6" fill="#CECECE"/>
<ellipse cx="74" cy="282" rx="4" ry="3" fill="#D7D6D6"/>
<circle cx="90.5" cy="270.5" r="17.5" fill="#242424"/>
<circle cx="90.5" cy="270.5" r="9.5" fill="#C4C4C4"/>
<defs>
<filter id="filter0_f" x="120.423" y="123.911" width="9.58704" height="6.83484" filterUnits="userSpaceOnUse" color-interpolation-filters="sRGB">
<feFlood flood-opacity="0" result="BackgroundImageFix"/>
<feBlend mode="normal" in="SourceGraphic" in2="BackgroundImageFix" result="shape"/>
<feGaussianBlur stdDeviation="0.905984" result="effect1_foregroundBlur"/>
</filter>
<filter id="filter1_f" x="97.1314" y="126.294" width="18.557" height="11.2407" filterUnits="userSpaceOnUse" color-interpolation-filters="sRGB">
<feFlood flood-opacity="0" result="BackgroundImageFix"/>
<feBlend mode="normal" in="SourceGraphic" in2="BackgroundImageFix" result="shape"/>
<feGaussianBlur stdDeviation="1.31368" result="effect1_foregroundBlur"/>
</filter>
</defs>
</svg>
