<svg fill="none" height="300" viewBox="0 0 250 300" width="250" xmlns="http://www.w3.org/2000/svg" xmlns:xlink="http://www.w3.org/1999/xlink"><filter id="a" color-interpolation-filters="sRGB" filterUnits="userSpaceOnUse" height="7.50075" width="10.8237" x="168.718" y="145.297"><feFlood flood-opacity="0" result="BackgroundImageFix"/><feBlend in="SourceGraphic" in2="BackgroundImageFix" mode="normal" result="shape"/><feGaussianBlur result="effect1_foregroundBlur" stdDeviation=".905984"/></filter><filter id="b" color-interpolation-filters="sRGB" filterUnits="userSpaceOnUse" height="12.4822" width="21.3158" x="140.766" y="148.343"><feFlood flood-opacity="0" result="BackgroundImageFix"/><feBlend in="SourceGraphic" in2="BackgroundImageFix" mode="normal" result="shape"/><feGaussianBlur result="effect1_foregroundBlur" stdDeviation="1.31368"/></filter><filter id="c" color-interpolation-filters="sRGB" filterUnits="userSpaceOnUse" height="12.1326" width="8.99027" x="122.303" y="94.8462"><feFlood flood-opacity="0" result="BackgroundImageFix"/><feBlend in="SourceGraphic" in2="BackgroundImageFix" mode="normal" result="shape"/><feColorMatrix in="SourceAlpha" result="hardAlpha" type="matrix" values="0 0 0 0 0 0 0 0 0 0 0 0 0 0 0 0 0 0 127 0"/><feOffset dy="2"/><feComposite in2="hardAlpha" k2="-1" k3="1" operator="arithmetic"/><feColorMatrix type="matrix" values="0 0 0 0 0 0 0 0 0 0 0 0 0 0 0 0 0 0 0.25 0"/><feBlend in2="shape" mode="normal" result="effect1_innerShadow"/></filter><filter id="d" color-interpolation-filters="sRGB" filterUnits="userSpaceOnUse" height="12.1326" width="8.99027" x="132.698" y="93.3623"><feFlood flood-opacity="0" result="BackgroundImageFix"/><feBlend in="SourceGraphic" in2="BackgroundImageFix" mode="normal" result="shape"/><feColorMatrix in="SourceAlpha" result="hardAlpha" type="matrix" values="0 0 0 0 0 0 0 0 0 0 0 0 0 0 0 0 0 0 127 0"/><feOffset dy="2"/><feComposite in2="hardAlpha" k2="-1" k3="1" operator="arithmetic"/><feColorMatrix type="matrix" values="0 0 0 0 0 0 0 0 0 0 0 0 0 0 0 0 0 0 0.25 0"/><feBlend in2="shape" mode="normal" result="effect1_innerShadow"/></filter><mask id="e" height="34" maskUnits="userSpaceOnUse" width="30" x="104" y="164"><path d="m115.878 197.01c0-2.068 2.758-8.272 4.826-12.408l-15.166-10.34v-6.894l12.408-2.068 12.409 4.826 2.068 26.195z" fill="#c4c4c4" stroke="#000" stroke-width="1.12766"/></mask><ellipse cx="157.773" cy="288.924" fill="#d7d6d6" rx="3" ry="2.5" transform="matrix(.9070903 .42093608 -.42093608 .9070903 136.277176 -39.568507)"/><ellipse cx="159.522" cy="287.531" fill="#d7d6d6" rx="3" ry="2.5" transform="matrix(.9070903 .42093608 -.42093608 .9070903 135.853311 -40.434147)"/><ellipse cx="161.37" cy="289.49" fill="#cecece" rx="3.5" ry="2.5" transform="matrix(.9070903 .42093608 -.42093608 .9070903 136.849622 -41.030027)"/><ellipse cx="163.362" cy="288.761" fill="#d7d6d6" rx="3" ry="2" transform="matrix(.9070903 .42093608 -.42093608 .9070903 136.727836 -41.936263)"/><ellipse cx="164.544" cy="290.963" fill="#d7d6d6" rx="2" ry="1.5" transform="matrix(.9070903 .42093608 -.42093608 .9070903 137.764557 -42.229222)"/><ellipse cx="165.872" cy="290.477" fill="#cecece" rx="2" ry="1.5" transform="matrix(.9070903 .42093608 -.42093608 .9070903 137.683366 -42.833379)"/><g fill="#d7d6d6"><circle cx="91" cy="292" r="1"/><circle cx="167.476" cy="291.772" r="1" transform="matrix(.9070903 .42093608 -.42093608 .9070903 138.377505 -43.388242)"/><ellipse cx="69.1267" cy="282.814" rx="7.25564" ry="6.04637" transform="matrix(.9070903 .42093608 -.42093608 .9070903 125.469156 -2.821759)"/><ellipse cx="73.3567" cy="279.445" rx="7.25564" ry="6.04637" transform="matrix(.9070903 .42093608 -.42093608 .9070903 124.44403 -4.915331)"/></g><ellipse cx="77.8233" cy="284.183" fill="#cecece" rx="8.46492" ry="6.04637" transform="matrix(.9070903 .42093608 -.42093608 .9070903 126.853416 -6.355278)"/><ellipse cx="82.6411" cy="282.42" fill="#d7d6d6" rx="7.25564" ry="4.8371" transform="matrix(.9070903 .42093608 -.42093608 .9070903 126.558926 -8.547064)"/><ellipse cx="85.5017" cy="287.746" fill="#d7d6d6" rx="4.8371" ry="3.62782" transform="matrix(.9070903 .42093608 -.42093608 .9070903 129.066609 -9.256357)"/><ellipse cx="88.7136" cy="286.571" fill="#cecece" rx="4.8371" ry="3.62782" transform="matrix(.9070903 .42093608 -.42093608 .9070903 128.870426 -10.71753)"/><circle cx="92.5918" cy="289.704" fill="#d7d6d6" r="2.41855" transform="matrix(.9070903 .42093608 -.42093608 .9070903 130.549541 -12.058918)"/><path d="m96.5731 226.422v-54.47c0-1.064-.7429-1.983-1.7827-2.206l-14.791-3.169c-1.404-.301-2.7279.769-2.7279 2.205v53.414c0 1.007.6675 1.892 1.6357 2.169l14.791 4.226c1.4408.411 2.8749-.671 2.8749-2.169z" fill="#d1c870"/><path d="m131.04 161.857-34.4668 9.651v56.527l34.4668-10.341z" fill="#f4e97d"/><path d="m93.1269 224.587v-48.254l-13.0976-1.378v46.186z" stroke="#f4e97d" stroke-dasharray="2.26 2.26" stroke-width="1.12766"/><path d="m130.352 139.798-51.7011 13.787v24.817l52.3901-16.545z" fill="#539882"/><ellipse cx="79.3402" cy="165.993" fill="#35675b" rx="10.3402" ry="12.4082"/><path d="m87.1427 165.305c0 5.535-3.7241 9.87-8.147 9.87-4.4228 0-8.1469-4.335-8.1469-9.87 0-5.536 3.7241-9.871 8.1469-9.871 4.4229 0 8.147 4.335 8.147 9.871z" stroke="#539882" stroke-width=".93972"/><path d="m84.0488 165.303c0 4.06-2.731 7.239-5.9744 7.239-3.2435 0-5.9745-3.179-5.9745-7.239 0-4.059 2.731-7.238 5.9745-7.238 3.2434 0 5.9744 3.179 5.9744 7.238z" stroke="#539882" stroke-width=".689128"/><ellipse cx="77.1569" cy="165.305" fill="#539882" rx="4.02118" ry="4.82542"/><path d="m86.2334 151.516c8.2721-2.208 16.5446 13.098 10.3402 21.37 4.8254-1.379 20.6804-6.204 34.4674-10.34 5.172-6.465-1.782-15.355-8.353-20.416-.807-.622-1.859-.792-2.834-.494-5.166 1.581-18.941 5.966-33.6206 9.88z" fill="#d1c870"/><path d="m112.428 142.554c-13.0975 3.447-27.5735 7.582-28.263 9.651 5.5148-1.379 7.1233-1.379 6.8935-1.379h8.9615l18.612-5.515c-.229-.23-1.792-1.103-6.204-2.757z" fill="#d1c870"/><path d="m152.433 262v6.092" stroke="#ffdac1" stroke-linecap="round" stroke-width="6.34189"/><path d="m96.5625 268.96-5.8538 1.687" stroke="#ffdac1" stroke-linecap="round" stroke-width="6.34189"/><path d="m148.554 267.816v-3.046h2.492v3.599c-.461-.092-1.606-.332-2.492-.553z" fill="#ebc8b1"/><path d="m89.9002 266.844 2.9269-.844.6903 2.395-3.4591.997c-.0391-.469-.1254-1.636-.1581-2.548z" fill="#ebc8b1"/><path d="m163.637 262.327c-6.092 4.707-16.338 3.323-23.815 0-.29-4.395-.913-12.164-1.822-20.827-.829-7.896-12.17-6.034-13.438-13.534h28.799c-.314 4.863 10.715 4.202 11.023 14.034.237 7.524.213 15.044-.747 20.327z" fill="#d1c870"/><path d="m105.314 275c-6.0917 4.708-13.814-4.5-13.814-11 4-4.5 11.67-.431 10.774-9-.832-7.958-1.907-16.692-3.1869-24.266l33.2299 3.877c-.316 4.896-.992 13.575-1.926 22.389-.703 6.641-17.891 16-25.077 18z" fill="#f4e97d"/><path d="m93 269.5c-1.5-2.5-1.5-2.5-1.5-5.5 4-4.5 11.67-.431 10.774-9-.832-7.958-1.907-16.692-3.1869-24.266l6.2269 1.766c-.315 4.896 2.62 16.186 1.686 25-.703 6.641-6.814 10-14 12z" fill="#d1c870"/><path clip-rule="evenodd" d="m168.356 218.993.603.533.001-.002c.777.686 1.138.914 1.574 1.19.115.072.235.148.37.236.859.566-.278 2.182-1.138 1.616-.587-.386-1.17-.793-1.604-1.127l-.161.149.951.84.525.464c.981.867-.278 2.182-1.137 1.616-.697-.458-1.395-1.086-1.843-1.536l-.208.191c.571.601.88.842 1.246 1.129.107.084.219.171.344.273.798.649-.022 2.139-1.311 1.291-.759-.499-1.287-1.047-1.642-1.416-.128-.132-.233-.242-.32-.318l.017-.013c-1.154-1.142-2.991-3.061-3.018-3.511-.031-.493 2.928-2.654 4.411-3.673 0-.001 0-.001 0-.001 2.175.175 4.484.494 4.118 1.601-.146.445-.841.463-1.778.468z" fill="#ffdac1" fill-rule="evenodd"/><path d="m142.338 174.642c-.855-2.083-3.236-3.079-5.319-2.224s-3.079 3.237-2.224 5.32zm-7.543 3.096c5.761 14.039 9.784 22.285 13.798 28.491 4.041 6.247 8.013 10.317 13.275 15.912l5.939-5.587c-5.377-5.717-8.802-9.242-12.368-14.753-3.591-5.553-7.385-13.23-13.101-27.159z" fill="#35675b"/><path d="m142.642 173.163c-.143-.347-.54-.513-.887-.371-.347.143-.513.539-.371.887zm-1.258.516c5.742 13.992 9.609 21.942 13.387 27.816 3.783 5.883 7.467 9.667 12.777 15.313l.99-.931c-5.329-5.666-8.921-9.359-12.624-15.117-3.708-5.766-7.537-13.621-13.272-27.597z" fill="#407967"/><path d="m92.4395 229.626c1.2922-14.215 9.0825-47.186 29.9065-65.352 3.323 0 12.517 1.551 22.707 7.754-1.661 14.953 7.2 39.322 14.954 57.598-9.969 9.969-42.645 14.954-67.5675 0z" fill="#539882"/><path d="m92.4395 229.628c1.2922-14.215 9.0825-47.187 29.9065-65.352 2.216 0 .554-.277.554 2.769-15.507 21.322-26.0299 47.629-21.599 67.013-4.4309-1.938-5.2616-2.492-8.8615-4.43z" fill="#468677"/><path d="m170.361 118.914c3.6 8.03 4.43 13.292 5.815 15.23 1.108 1.551.646 2.492.277 2.769-.185 2.4-.388 7.588.277 9.138-2.215.222-3.138.277-3.323.277l-.554-9.415z" fill="#fee1ce"/><path d="m175.898 164.605c-1.385-6.646 6.369-14.954-1.385-20.769l-6.646 17.446c.092 1.015 2.271 2.658 8.031 3.323z" fill="#fee1ce"/><ellipse cx="142.946" cy="137.192" fill="#ffdac1" rx="31.0145" ry="39.322"/><ellipse cx="174.791" cy="141.897" fill="#fff" rx="4.15373" ry="5.26139"/><circle cx="174.792" cy="141.898" fill="#000" r="1.93841"/><g filter="url(#a)"><ellipse cx="174.13" cy="149.047" fill="#fca" rx="3.5999" ry="1.93841"/></g><path d="m183.677 141.899c0 3.1-.704 5.84-1.774 7.757-1.095 1.962-2.392 2.791-3.513 2.791s-2.418-.829-3.513-2.791c-1.07-1.917-1.774-4.657-1.774-7.757 0-3.101.704-5.841 1.774-7.758 1.095-1.961 2.392-2.791 3.513-2.791s2.418.83 3.513 2.791c1.07 1.917 1.774 4.657 1.774 7.758z" stroke="#91d7b9" stroke-width="2.71795"/><path d="m177.502 152.392c-4.47-4.808-3.087-13.717-8.54-27.388l-3.718 32.165c1.879-.609 6.962-2.417 12.258-4.777z" fill="#ffdac1"/><path d="m174.744 175.842c5.308-4.591-.7-14.283-1.615-21.483-10.723 2.536-37.101 9.836-48.737 14.4 10.522 10.246 40.683 15.447 50.352 7.083z" fill="#ffdac1"/><path d="m171.192 133.59c1.939 8.584 3.046 16.061 5.539 18.83-1.773.886-3.323 1.662-3.877 1.938" stroke="#fca" stroke-width=".905984"/><path d="m164.822 146.976c4.985-2.31 7.2-2.31 9.692-2.586" stroke="#91d7b9" stroke-width="2.71795"/><path d="m171.084 158.737c-3.045 2.493-5.9 1.61-7.476-.553" stroke="#ff8080" stroke-linecap="round" stroke-width=".905984"/><g filter="url(#b)"><ellipse cx="151.424" cy="154.584" fill="#fca" rx="8.03055" ry="3.61374"/></g><path d="m165.402 146.329c0 7.813-5.61 13.871-12.21 13.871s-12.21-6.058-12.21-13.871 5.61-13.871 12.21-13.871 12.21 6.058 12.21 13.871z" stroke="#91d7b9" stroke-width="2.71795"/><circle cx="154.298" cy="144.668" fill="#fff" r="5.26139"/><circle cx="153.747" cy="144.667" fill="#000" r="1.93841"/><path d="m112.208 144.112c3.323 1.938 21.599 8.031 43.199-24.369-.646-5.076-5.317-16.504-18.831-21.599-25.476 5.261-27.414 44.306-24.368 45.968z" fill="#e1e1e1"/><path d="m175.068 130.546c-6.923-.831-9.969-8.585-19.661-10.8-1.384-5.538-4.098-13.793-18.276-21.3256 9.692-4.1537 37.937 5.5416 37.937 32.1256z" fill="#e1e1e1"/><path d="m111.93 143.835c-27.4141-26.307 4.432-55.3843 25.477-45.4144-11.963 21.7104-22.154 39.2294-25.477 45.4144z" fill="#e1e1e1"/><path d="m104.998 119.338c.318-4.464 1.231-6.444 7.655-14.598-2.232 4.463-2.239 8.795-1.569 12.013.276 1.328-1.638 3.788-2.991 3.883-.459.032-.951.081-1.476.152-.876.119-1.682-.568-1.619-1.45z" fill="#c4c4c4"/><path d="m155.301 118.861c6.369.831 13.569 11.077 19.661 11.077" stroke="#c4c4c4" stroke-linecap="round" stroke-width="1.81197"/><path d="m147.314 130.049 11.313-5.405" stroke="#969696" stroke-linecap="round" stroke-width="1.81197"/><path d="m169.5 124.577 8.507 4.253" stroke="#969696" stroke-linecap="round" stroke-width="1.81197"/><path d="m108.916 141.603c-.746-.077-1.413.466-1.49 1.213s.467 1.414 1.213 1.49zm32.4 3.323-32.4-3.323-.277 2.703 32.399 3.323z" fill="#91d7b9"/><path d="m132.316 142.679c-17.446 8.308-19.661-.276-22.984-1.384 8.64-2.216 18.923 0 22.984 1.384z" fill="#e1e1e1"/><path d="m146.717 124.955c-12.184 11.907-17.169 14.399-27.138 16.338" stroke="#c4c4c4" stroke-linecap="round" stroke-width="1.81197"/><path d="m153.36 114.986c-1.107-3.323-5.87-11.519-16.061-16.6145-1.108-.5538-4.154-1.9384-8.03-1.9384 7.753 2.2153 16.891 8.8609 24.091 18.5529z" fill="#c4c4c4"/><path clip-rule="evenodd" d="m116.716 226.761.275.756h.002c.355.973.563 1.346.815 1.796.067.118.136.242.212.384.485.907-1.285 1.785-1.771.878-.332-.621-.649-1.256-.871-1.756l-.214.053.435 1.195.241.659c.448 1.23-1.285 1.784-1.771.877-.394-.736-.708-1.622-.887-2.232l-.274.069c.215.8.371 1.16.556 1.586.054.125.111.255.172.404.391.951-1.04 1.87-1.768.509-.429-.801-.631-1.534-.768-2.028-.049-.177-.089-.324-.129-.432l.023-.004c-.469-1.554-1.167-4.117-.977-4.525.208-.448 3.84-.935 5.63-1.123v.002c0-.001.001-.002.001-.002 1.828 1.192 3.704 2.574 2.855 3.372-.341.321-.961.005-1.787-.438z" fill="#ffdac1" fill-rule="evenodd"/><circle cx="146.44" cy="196.674" fill="#539882" r="5.26139"/><path d="m144.776 178.397c.462 2.215 3.323 9.969 6.093 15.507l-6.923 1.662-4.154-11.908z" fill="#539882"/><path d="m130.1 201.382c2.492 1.385 6.646 1.939 8.861-.553-.831 3.876-6.923 4.984-8.861.553z" fill="#468677"/><path d="m138.683 200.829c-3.046 2.769-5.538 2.492-8.307.553" stroke="#35675b" stroke-linecap="round" stroke-width=".452992"/><path d="m123.067 177.185c1.164-1.927.546-4.433-1.381-5.598s-4.433-.547-5.598 1.38zm-6.979-4.218c-7.831 12.957-10.806 22.512-11.04 31.004-.229 8.332 2.252 15.323 4.238 22.337l7.845-2.22c-2.168-7.662-4.118-13.133-3.932-19.893.182-6.6 2.468-14.767 9.868-27.01z" fill="#35675b"/><g mask="url(#e)"><path d="m112.433 170.818c15.165-1.379 13.787 15.854 6.893 17.996" stroke="#d1c870" stroke-linecap="round" stroke-width="3.38299"/></g><path d="m100.019 170.817c2.758-13.098-4.1362-20.68-9.6508-20.68" stroke="#f4e97d" stroke-dasharray="2.26 2.26" stroke-width="1.12766"/><path d="m86.1557 278.764h94.6883c1.98 0 3.925-.525 5.635-1.523l1.888-1.101c.512-.299 1.171-.103 1.436.428.263.526.263 1.144 0 1.67l-.266.532c-.146.293-.375.536-.657.701l-.833.486c-2.737 1.596-5.849 2.438-9.017 2.438h-91.0599c-3.1683 0-6.28-.842-9.0167-2.438l-.8336-.486c-.2822-.165-.5104-.408-.6567-.701l-.2659-.532c-.2629-.526-.2629-1.144 0-1.67.2653-.531.9237-.727 1.4362-.428l1.8873 1.101c1.7103.998 3.6549 1.523 5.635 1.523z" fill="#4e4e4e"/><path d="m86.3086 279.672h94.5414c1.98 0 4.03-.817 5.74-1.815l1.815-.908c.513-.299 1.133-.911 1.398-.381.263.526.263 1.145 0 1.671l-.266.531c-.146.293-.375.536-.657.701l-.833.486c-2.737 1.597-5.849 2.438-9.017 2.438h-91.0599c-3.1683 0-6.28-.841-9.0167-2.438l-.8336-.486c-.2822-.165-.5104-.408-.6567-.701l-.2659-.531c-.2629-.526-.2629-1.145 0-1.671.2653-.53.4102.082.9226.381l2.2898 1.29c1.7103.998 3.9189 1.433 5.899 1.433z" fill="#b39880"/><path d="m166.845 282.395h6.353l-1.815 2.722h-2.723z" fill="#c4c4c4"/><path d="m95.1504 282.395h6.3526l-1.815 2.722h-2.7226z" fill="#c4c4c4"/><circle cx="170.022" cy="288.294" fill="#1b1b1b" r="4.9914"/><circle cx="170.021" cy="288.294" fill="#e9e9e9" r="2.26882"/><circle cx="170.022" cy="288.294" fill="#ffbd3a" r=".453763"/><circle cx="98.3268" cy="288.294" fill="#1b1b1b" r="4.9914"/><circle cx="98.3269" cy="288.294" fill="#e9e9e9" r="2.26882"/><circle cx="98.3268" cy="288.294" fill="#ffbd3a" r=".453763"/><path d="m148 277h20v2h-20z" fill="#fff"/><path d="m148 267h8.791s8.066 5.152 9.89 6.957c1.319 1.304 1.319 3.043 1.319 3.043h-20z" fill="#fff"/><path d="m148 278h20" stroke="#000" stroke-width=".4"/><path clip-rule="evenodd" d="m157.322 268.969c-.178.196-.148.48.067.634s.534.12.711-.076l.938-1.034c.105.071.213.144.324.218l-1.04 1.147c-.178.196-.148.48.067.634s.534.12.711-.076l1.057-1.166c.106.073.214.146.322.22l-1.157 1.277c-.178.196-.148.48.067.634s.534.12.711-.076l1.17-1.291c.107.074.213.148.32.222l-1.268 1.4c-.178.196-.148.48.067.634s.534.12.711-.076l1.276-1.408c.107.075.213.15.318.225l-1.372 1.514c-.178.196-.148.48.067.634s.534.12.711-.076l1.373-1.515c1.397 1.008 2.623 1.952 3.208 2.543 1.319 1.333 1.319 3.111 1.319 3.111h-20v-10.222h8.791s.573.374 1.448.957z" fill="#000" fill-rule="evenodd"/><path d="m157.677 274.115c-.094-.027-1.58-.202-2.841.256-.926.336-3.046.448-4.226.468l-.45-.488-.16-.491c1.844-.054 2.409-.202 3.237-.256s2.465-.431 3.387-.565c.922-.135 1.392.121 1.58.161.151.033.678.265.922.377.86.386 2.699 1.195 3.18 1.346.482.15 1.33.035 1.694-.041-.019.198-.072.67-.132.983-1.053.228-1.392.148-2.352-.095-.96-.242-3.744-1.628-3.839-1.655z" fill="#fff"/><path d="m148 273c1 0 3 .8 3 4" stroke="#fff" stroke-dasharray=".5 .2" stroke-width=".1"/><path d="m148 269h8" stroke="#fff" stroke-dasharray=".5 .2" stroke-width=".1"/><path d="m148 270h8" stroke="#fff" stroke-dasharray=".5 .2" stroke-width=".1"/><path d="m148 271h8" stroke="#fff" stroke-dasharray=".5 .2" stroke-width=".1"/><path d="m80.9214 268.854h20v2h-20z" fill="#fff" transform="matrix(.27695746 .96088218 -.96088218 .27695746 316.846632 116.636948)"/><path d="m90.5303 266.085 2.4348 8.447s-2.7163 9.177-3.9453 11.43c-.8881 1.629-2.5592 2.11-2.5592 2.11l-5.5391-19.217z" fill="#fff"/><path d="m79.9604 269.131 5.5392 19.218" stroke="#000" stroke-width=".4"/><path clip-rule="evenodd" d="m91.2196 275.587c-.2375-.116-.5017-.008-.5901.241s.0324.546.2699.662l1.2536.614c-.0391.122-.0791.246-.12.372l-1.3905-.682c-.2375-.116-.5017-.008-.5902.241-.0884.249.0325.546.27.662l1.4127.693c-.0402.122-.0809.245-.1221.37l-1.5476-.758c-.2375-.117-.5017-.009-.5901.24s.0324.546.2699.662l1.5642.767c-.0413.122-.0828.246-.1246.369l-1.6966-.831c-.2375-.117-.5017-.009-.5901.24s.0325.546.27.662l1.7061.836c-.0425.123-.0851.246-.1278.368l-1.8353-.899c-.2375-.117-.5017-.009-.5901.24-.0885.25.0324.546.2699.662l1.8358.9c-.5823 1.621-1.1489 3.061-1.5553 3.787-.916 1.636-2.6242 2.129-2.6242 2.129l-5.5392-19.218 9.8224-2.831 2.4348 8.447s-.2007.654-.5191 1.656z" fill="#000" fill-rule="evenodd"/><path d="m86.3736 277.354c-.0002-.098-.2438-1.574-1.0326-2.659-.5797-.797-1.2745-2.803-1.62-3.931l.3443-.568.4276-.29c.5625 1.757.861 2.259 1.1421 3.039.281.781 1.0964 2.25 1.4811 3.099.3847.848.2693 1.371.2826 1.563.0107.154-.0666.724-.1066.99-.1327.933-.4008 2.924-.4122 3.429-.0114.504.3338 1.287.5078 1.616-.1949.036-.6637.117-.9803.145-.5117-.949-.5279-1.297-.561-2.286-.033-.989.5274-4.049.5272-4.147z" fill="#fff"/><path d="m84.7651 267.747c.277.96.0622 3.104-3.0126 3.99" stroke="#fff" stroke-dasharray=".5 .2" stroke-width=".1"/><path d="m88.6084 266.639 2.2157 7.687" stroke="#fff" stroke-dasharray=".5 .2" stroke-width=".1"/><path d="m87.6475 266.916 2.2156 7.687" stroke="#fff" stroke-dasharray=".5 .2" stroke-width=".1"/><path d="m86.6865 267.193 2.2157 7.687" stroke="#fff" stroke-dasharray=".5 .2" stroke-width=".1"/><path clip-rule="evenodd" d="m126.842 155.554c-.108-3.756-.479-7.498-.786-9.77l5.074-.784c.33 2.443.722 6.392.837 10.385.111 3.88-.021 8.22-.94 11.198l-3.809-1.347c.207.387.457.945.545 1.604l-5.075.776c.025.191.07.316.09.363-.004-.007-.008-.016-.015-.027-.049-.089-.153-.25-.335-.481-.362-.459-.909-1.034-1.591-1.636-1.398-1.233-5.989-2.888-7.337-3.335-2.94-.975-4.741-3.465-6-4l-.5-5.5c1.187.505 6.73 5.582 9.5 6.5 2.22.736 5.917.62 7.598 2.102.857.757 1.639 1.56 2.246 2.328l.039.051c.429-2.037.556-5.082.459-8.427zm-4.054 12.446s-.004-.007-.01-.021c.007.014.01.021.01.021z" fill="#000" fill-rule="evenodd"/><circle cx="115.209" cy="151.759" fill="#ffdac1" r="6.36905"/><circle cx="116.592" cy="157.575" fill="#539882" r="2.21532"/><path d="m115.378 148.663c-3.544.221-3.877 2.676-3.6 3.876" stroke="#fca" stroke-linecap="round" stroke-width=".905984"/><path d="m139.373 133.302c4.526-1.525 15.704-3.142 20.728-3.76 2.78-.6 10.252-1.8 17.899-1.8-3.629-24.738-19.135-32.7936-26.434-33.729-10.795-2.1886-35.467-2.2663-47.797 14.932-15.4114 21.498.293 47.814.439 48.184.147.371-.877 5.136 2.829 3.548 3.707-1.589 2.292-4.077 2.244-5.242-.049-1.165-2.78-9.16-2.78-9.69 0-.529.195-5.348 5.316-7.36s6.243.371 7.364 1.165c1.122.794 3.414 4.554 4.585 5.613 1.17 1.059 3.755 1.059 6.584-1.059s1.853-2.277 2.634-5.348c.78-3.071.731-3.548 6.389-5.454z" fill="#da5374"/><path d="m145 178.5 5 1c0-2-12.333-9.5-18.5-13l-1.5 3.5z" fill="#000"/><path d="m133 166.5c0 3.038-2.462 5.5-5.5 5.5s-5.5-2.462-5.5-5.5 2.462-5.5 5.5-5.5 5.5 2.462 5.5 5.5z" fill="#c4c4c4"/><g filter="url(#c)"><path d="m127.511 95.3305 1.071-.3124c.775-.2258 1.484.5112 1.229 1.2764l-3.249 9.7435c-.201.604-.908.868-1.457.545l-.981-.579c-.413-.243-.595-.746-.433-1.197l3.158-8.8524c.108-.3022.354-.5343.662-.6241z" fill="#878787"/></g><g filter="url(#d)"><path d="m137.905 93.8467 1.072-.3125c.774-.2257 1.484.5112 1.228 1.2764l-3.249 9.7434c-.201.604-.908.868-1.456.545l-.981-.579c-.413-.243-.595-.745-.434-1.197l3.158-8.8523c.108-.3022.354-.5343.662-.624z" fill="#878787"/></g><path d="m112.656 207.113-5.524.736c-.599.08-1.132-.386-1.132-.991v-5.969c0-.507.38-.934.883-.993l6.223-.732c.674-.079 1.218.54 1.054 1.197-.097.386-.419.673-.812.726l-5.98.797c-.497.067-.946.482-1.01.979-.058.443-.068 1.008.142 1.637.336 1.007 3.63.911 5.863.657.597-.068 1.137.39 1.137.991 0 .488-.361.9-.844.965z" fill="#000" stroke="#000"/><ellipse cx="105.5" cy="203.5" fill="#616161" rx="1.5" ry="5.5"/><ellipse cx="105" cy="203.5" fill="#292929" rx="1" ry="3.5"/></svg>