<svg fill="none" height="32" viewBox="0 0 32 32" width="32" xmlns="http://www.w3.org/2000/svg"><g fill="#fff"><path d="m16 20c2.2091 0 4-1.7909 4-4s-1.7909-4-4-4-4 1.7909-4 4 1.7909 4 4 4z"/><path d="m30.94 15.66c-1.1762-3.0424-3.218-5.67338-5.8732-7.56791s-5.8073-2.96952-9.0668-3.09209c-3.2595.12257-6.41161 1.19756-9.0668 3.09209-2.65518 1.89453-4.69704 4.52551-5.8732 7.56791-.079431.2197-.079431.4603 0 .68 1.17616 3.0424 3.21802 5.6734 5.8732 7.5679 2.65519 1.8945 5.8073 2.9695 9.0668 3.0921 3.2595-.1226 6.4116-1.1976 9.0668-3.0921s4.697-4.5255 5.8732-7.5679c.0794-.2197.0794-.4603 0-.68zm-14.94 6.84c-1.2856 0-2.5423-.3812-3.6112-1.0954-1.0689-.7143-1.902-1.7294-2.39401-2.9172-.49197-1.1877-.6207-2.4946-.36989-3.7555.2508-1.2609.8699-2.4191 1.7789-3.3281s2.0672-1.5281 3.3281-1.7789c1.2609-.25081 2.5678-.12209 3.7555.36988 1.1878.49202 2.2029 1.32512 2.9172 2.39402.7142 1.0689 1.0954 2.3256 1.0954 3.6112-.0026 1.7231-.6883 3.3749-1.9067 4.5933s-2.8702 1.9041-4.5933 1.9067z"/></g></svg>